<?xml version="1.0" encoding="UTF-8" standalone="no"?>
<!DOCTYPE svg PUBLIC "-//W3C//DTD SVG 1.1//EN"
 "http://www.w3.org/Graphics/SVG/1.1/DTD/svg11.dtd">
<!-- Generated by graphviz version 2.40.1 (20161225.0304)
 -->
<!-- Title: DefaultMovementComponent.h Pages: 1 -->
<svg width="664pt" height="196pt"
 viewBox="0.00 0.00 664.00 196.00" xmlns="http://www.w3.org/2000/svg" xmlns:xlink="http://www.w3.org/1999/xlink">
<g id="graph0" class="graph" transform="scale(1 1) rotate(0) translate(4 192)">
<title>DefaultMovementComponent.h</title>
<polygon fill="#ffffff" stroke="transparent" points="-4,4 -4,-192 660,-192 660,4 -4,4"/>
<!-- Node0 -->
<g id="node1" class="node">
<title>Node0</title>
<polygon fill="#bfbfbf" stroke="#000000" points="345,-168.5 345,-187.5 515,-187.5 515,-168.5 345,-168.5"/>
<text text-anchor="middle" x="430" y="-175.5" font-family="Helvetica,sans-Serif" font-size="10.00" fill="#000000">DefaultMovementComponent.h</text>
</g>
<!-- Node1 -->
<g id="node2" class="node">
<title>Node1</title>
<g id="a_node2"><a xlink:href="../../d6/d10/BaseCarlaMovementComponent_8h.html" target="_top" xlink:title="BaseCarlaMovementComponent.h">
<polygon fill="#ffffff" stroke="#000000" points="228.5,-112.5 228.5,-131.5 411.5,-131.5 411.5,-112.5 228.5,-112.5"/>
<text text-anchor="middle" x="320" y="-119.5" font-family="Helvetica,sans-Serif" font-size="10.00" fill="#000000">BaseCarlaMovementComponent.h</text>
</a>
</g>
</g>
<!-- Node0&#45;&gt;Node1 -->
<g id="edge1" class="edge">
<title>Node0&#45;&gt;Node1</title>
<path fill="none" stroke="#191970" d="M410.8395,-168.2455C393.4889,-159.4125 367.7099,-146.2887 348.0417,-136.2758"/>
<polygon fill="#191970" stroke="#191970" points="349.4405,-133.0605 338.941,-131.6427 346.2647,-139.2986 349.4405,-133.0605"/>
</g>
<!-- Node6 -->
<g id="node7" class="node">
<title>Node6</title>
<polygon fill="#ffffff" stroke="#bfbfbf" points="430,-112.5 430,-131.5 652,-131.5 652,-112.5 430,-112.5"/>
<text text-anchor="middle" x="541" y="-119.5" font-family="Helvetica,sans-Serif" font-size="10.00" fill="#000000">DefaultMovementComponent.generated.h</text>
</g>
<!-- Node0&#45;&gt;Node6 -->
<g id="edge6" class="edge">
<title>Node0&#45;&gt;Node6</title>
<path fill="none" stroke="#191970" d="M449.0816,-168.3733C466.7402,-159.4644 493.2053,-146.1127 513.2098,-136.0203"/>
<polygon fill="#191970" stroke="#191970" points="514.8158,-139.1303 522.1674,-131.5011 511.6628,-132.8806 514.8158,-139.1303"/>
</g>
<!-- Node2 -->
<g id="node3" class="node">
<title>Node2</title>
<polygon fill="#ffffff" stroke="#bfbfbf" points="0,-56.5 0,-75.5 220,-75.5 220,-56.5 0,-56.5"/>
<text text-anchor="middle" x="110" y="-63.5" font-family="Helvetica,sans-Serif" font-size="10.00" fill="#000000">GameFramework/MovementComponent.h</text>
</g>
<!-- Node1&#45;&gt;Node2 -->
<g id="edge2" class="edge">
<title>Node1&#45;&gt;Node2</title>
<path fill="none" stroke="#191970" d="M283.8997,-112.3733C248.3752,-102.9001 194.012,-88.4032 155.5381,-78.1435"/>
<polygon fill="#191970" stroke="#191970" points="156.1934,-74.696 145.6292,-75.5011 154.3897,-81.4596 156.1934,-74.696"/>
</g>
<!-- Node3 -->
<g id="node4" class="node">
<title>Node3</title>
<g id="a_node4"><a xlink:href="../../d4/dbd/Unreal_2CarlaUE4_2Plugins_2Carla_2Source_2Carla_2Vehicle_2VehicleControl_8h.html" target="_top" xlink:title="Carla/Vehicle/VehicleControl.h">
<polygon fill="#ffffff" stroke="#000000" points="238.5,-56.5 238.5,-75.5 401.5,-75.5 401.5,-56.5 238.5,-56.5"/>
<text text-anchor="middle" x="320" y="-63.5" font-family="Helvetica,sans-Serif" font-size="10.00" fill="#000000">Carla/Vehicle/VehicleControl.h</text>
</a>
</g>
</g>
<!-- Node1&#45;&gt;Node3 -->
<g id="edge3" class="edge">
<title>Node1&#45;&gt;Node3</title>
<path fill="none" stroke="#191970" d="M320,-112.2455C320,-104.9382 320,-94.6944 320,-85.7046"/>
<polygon fill="#191970" stroke="#191970" points="323.5001,-85.6426 320,-75.6427 316.5001,-85.6427 323.5001,-85.6426"/>
</g>
<!-- Node5 -->
<g id="node6" class="node">
<title>Node5</title>
<polygon fill="#ffffff" stroke="#bfbfbf" points="420,-56.5 420,-75.5 656,-75.5 656,-56.5 420,-56.5"/>
<text text-anchor="middle" x="538" y="-63.5" font-family="Helvetica,sans-Serif" font-size="10.00" fill="#000000">BaseCarlaMovementComponent.generated.h</text>
</g>
<!-- Node1&#45;&gt;Node5 -->
<g id="edge5" class="edge">
<title>Node1&#45;&gt;Node5</title>
<path fill="none" stroke="#191970" d="M357.4755,-112.3733C394.5103,-102.8598 451.2682,-88.2797 491.2361,-78.0127"/>
<polygon fill="#191970" stroke="#191970" points="492.1988,-81.3792 501.0135,-75.5011 490.4571,-74.5993 492.1988,-81.3792"/>
</g>
<!-- Node4 -->
<g id="node5" class="node">
<title>Node4</title>
<polygon fill="#ffffff" stroke="#bfbfbf" points="245.5,-.5 245.5,-19.5 394.5,-19.5 394.5,-.5 245.5,-.5"/>
<text text-anchor="middle" x="320" y="-7.5" font-family="Helvetica,sans-Serif" font-size="10.00" fill="#000000">VehicleControl.generated.h</text>
</g>
<!-- Node3&#45;&gt;Node4 -->
<g id="edge4" class="edge">
<title>Node3&#45;&gt;Node4</title>
<path fill="none" stroke="#191970" d="M320,-56.2455C320,-48.9382 320,-38.6944 320,-29.7046"/>
<polygon fill="#191970" stroke="#191970" points="323.5001,-29.6426 320,-19.6427 316.5001,-29.6427 323.5001,-29.6426"/>
</g>
</g>
</svg>
