<?xml version="1.0" encoding="UTF-8" standalone="no"?>
<!DOCTYPE svg PUBLIC "-//W3C//DTD SVG 1.1//EN"
 "http://www.w3.org/Graphics/SVG/1.1/DTD/svg11.dtd">
<!-- Generated by graphviz version 2.38.0 (20140413.2041)
 -->
<!-- Title: CarlaRecorderAnimWalker.h Pages: 1 -->
<svg width="3465pt" height="476pt"
 viewBox="0.00 0.00 3464.50 476.00" xmlns="http://www.w3.org/2000/svg" xmlns:xlink="http://www.w3.org/1999/xlink">
<g id="graph0" class="graph" transform="scale(1 1) rotate(0) translate(4 472)">
<title>CarlaRecorderAnimWalker.h</title>
<polygon fill="white" stroke="none" points="-4,4 -4,-472 3460.5,-472 3460.5,4 -4,4"/>
<!-- Node1 -->
<g id="node1" class="node"><title>Node1</title>
<polygon fill="#bfbfbf" stroke="black" points="804.5,-448.5 804.5,-467.5 951.5,-467.5 951.5,-448.5 804.5,-448.5"/>
<text text-anchor="middle" x="878" y="-455.5" font-family="Helvetica,sans-Serif" font-size="10.00">CarlaRecorderAnimWalker.h</text>
</g>
<!-- Node2 -->
<g id="node2" class="node"><title>Node2</title>
<g id="a_node2"><a xlink:href="../../d9/d6a/CarlaRecorder_8h.html" target="_top" xlink:title="CarlaRecorder.h">
<polygon fill="white" stroke="black" points="920,-336.5 920,-355.5 1012,-355.5 1012,-336.5 920,-336.5"/>
<text text-anchor="middle" x="966" y="-343.5" font-family="Helvetica,sans-Serif" font-size="10.00">CarlaRecorder.h</text>
</a>
</g>
</g>
<!-- Node1&#45;&gt;Node2 -->
<g id="edge1" class="edge"><title>Node1&#45;&gt;Node2</title>
<path fill="none" stroke="midnightblue" d="M880.018,-437.84C882.278,-423.986 887.035,-405.422 897,-392 909.362,-375.35 929.856,-363.124 945.305,-355.653"/>
<polygon fill="midnightblue" stroke="midnightblue" points="876.496,-437.779 878.648,-448.153 883.435,-438.701 876.496,-437.779"/>
</g>
<!-- Node41 -->
<g id="node41" class="node"><title>Node41</title>
<g id="a_node41"><a xlink:href="../../db/d94/CarlaRecorderAnimWalker_8cpp.html" target="_top" xlink:title="CarlaRecorderAnimWalker.cpp">
<polygon fill="white" stroke="black" points="0,-280.5 0,-299.5 158,-299.5 158,-280.5 0,-280.5"/>
<text text-anchor="middle" x="79" y="-287.5" font-family="Helvetica,sans-Serif" font-size="10.00">CarlaRecorderAnimWalker.cpp</text>
</a>
</g>
</g>
<!-- Node1&#45;&gt;Node41 -->
<g id="edge74" class="edge"><title>Node1&#45;&gt;Node41</title>
<path fill="none" stroke="midnightblue" d="M826.858,-446.375C679.198,-415.697 254.201,-327.4 120.073,-299.533"/>
<polygon fill="midnightblue" stroke="midnightblue" points="826.499,-449.875 837.002,-448.482 827.923,-443.021 826.499,-449.875"/>
</g>
<!-- Node50 -->
<g id="node50" class="node"><title>Node50</title>
<g id="a_node50"><a xlink:href="../../d7/dbd/CarlaRecorderQuery_8h.html" target="_top" xlink:title="CarlaRecorderQuery.h">
<polygon fill="white" stroke="black" points="906.5,-392.5 906.5,-411.5 1025.5,-411.5 1025.5,-392.5 906.5,-392.5"/>
<text text-anchor="middle" x="966" y="-399.5" font-family="Helvetica,sans-Serif" font-size="10.00">CarlaRecorderQuery.h</text>
</a>
</g>
</g>
<!-- Node1&#45;&gt;Node50 -->
<g id="edge72" class="edge"><title>Node1&#45;&gt;Node50</title>
<path fill="none" stroke="midnightblue" d="M900.977,-442.901C917.113,-432.999 938.181,-420.071 951.896,-411.655"/>
<polygon fill="midnightblue" stroke="midnightblue" points="898.831,-440.111 892.139,-448.324 902.493,-446.077 898.831,-440.111"/>
</g>
<!-- Node3 -->
<g id="node3" class="node"><title>Node3</title>
<g id="a_node3"><a xlink:href="../../de/db8/CarlaEpisode_8h.html" target="_top" xlink:title="CarlaEpisode.h">
<polygon fill="white" stroke="black" points="1977,-280.5 1977,-299.5 2065,-299.5 2065,-280.5 1977,-280.5"/>
<text text-anchor="middle" x="2021" y="-287.5" font-family="Helvetica,sans-Serif" font-size="10.00">CarlaEpisode.h</text>
</a>
</g>
</g>
<!-- Node2&#45;&gt;Node3 -->
<g id="edge2" class="edge"><title>Node2&#45;&gt;Node3</title>
<path fill="none" stroke="midnightblue" d="M1022.17,-342.125C1209.24,-332.55 1808.73,-301.865 1976.81,-293.262"/>
<polygon fill="midnightblue" stroke="midnightblue" points="1021.82,-338.638 1012.01,-342.645 1022.18,-345.629 1021.82,-338.638"/>
</g>
<!-- Node33 -->
<g id="node33" class="node"><title>Node33</title>
<g id="a_node33"><a xlink:href="../../d3/d49/CarlaGameModeBase_8h.html" target="_top" xlink:title="CarlaGameModeBase.h">
<polygon fill="white" stroke="black" points="1477,-224.5 1477,-243.5 1607,-243.5 1607,-224.5 1477,-224.5"/>
<text text-anchor="middle" x="1542" y="-231.5" font-family="Helvetica,sans-Serif" font-size="10.00">CarlaGameModeBase.h</text>
</a>
</g>
</g>
<!-- Node2&#45;&gt;Node33 -->
<g id="edge60" class="edge"><title>Node2&#45;&gt;Node33</title>
<path fill="none" stroke="midnightblue" d="M1022.13,-343.756C1193.69,-339.682 1700.95,-325.52 1725,-300 1731.1,-293.531 1730.48,-286.996 1725,-280 1710.37,-261.332 1653.6,-249.375 1607.13,-242.515"/>
<polygon fill="midnightblue" stroke="midnightblue" points="1021.96,-340.259 1012.05,-343.993 1022.13,-347.257 1021.96,-340.259"/>
</g>
<!-- Node39 -->
<g id="node39" class="node"><title>Node39</title>
<g id="a_node39"><a xlink:href="../../da/d49/CarlaRecorder_8cpp.html" target="_top" xlink:title="CarlaRecorder.cpp">
<polygon fill="white" stroke="black" points="176.5,-280.5 176.5,-299.5 279.5,-299.5 279.5,-280.5 176.5,-280.5"/>
<text text-anchor="middle" x="228" y="-287.5" font-family="Helvetica,sans-Serif" font-size="10.00">CarlaRecorder.cpp</text>
</a>
</g>
</g>
<!-- Node2&#45;&gt;Node39 -->
<g id="edge61" class="edge"><title>Node2&#45;&gt;Node39</title>
<path fill="none" stroke="midnightblue" d="M909.844,-342.791C793.686,-337.886 518.666,-324.536 289,-300 285.913,-299.67 282.743,-299.3 279.548,-298.902"/>
<polygon fill="midnightblue" stroke="midnightblue" points="909.784,-346.291 919.921,-343.212 910.076,-339.297 909.784,-346.291"/>
</g>
<!-- Node40 -->
<g id="node40" class="node"><title>Node40</title>
<g id="a_node40"><a xlink:href="../../d7/d3b/CarlaRecorderAnimVehicle_8cpp.html" target="_top" xlink:title="CarlaRecorderAnimVehicle.cpp">
<polygon fill="white" stroke="black" points="298,-280.5 298,-299.5 460,-299.5 460,-280.5 298,-280.5"/>
<text text-anchor="middle" x="379" y="-287.5" font-family="Helvetica,sans-Serif" font-size="10.00">CarlaRecorderAnimVehicle.cpp</text>
</a>
</g>
</g>
<!-- Node2&#45;&gt;Node40 -->
<g id="edge62" class="edge"><title>Node2&#45;&gt;Node40</title>
<path fill="none" stroke="midnightblue" d="M909.51,-340.059C817.29,-331.953 628.657,-315.21 469,-300 466.186,-299.732 463.323,-299.457 460.432,-299.178"/>
<polygon fill="midnightblue" stroke="midnightblue" points="909.468,-343.568 919.736,-340.957 910.081,-336.595 909.468,-343.568"/>
</g>
<!-- Node2&#45;&gt;Node41 -->
<g id="edge63" class="edge"><title>Node2&#45;&gt;Node41</title>
<path fill="none" stroke="midnightblue" d="M909.388,-342.701C778.554,-337.193 445.126,-322.043 167,-300 164.091,-299.769 161.129,-299.524 158.139,-299.266"/>
<polygon fill="midnightblue" stroke="midnightblue" points="909.429,-346.206 919.567,-343.127 909.722,-339.212 909.429,-346.206"/>
</g>
<!-- Node42 -->
<g id="node42" class="node"><title>Node42</title>
<g id="a_node42"><a xlink:href="../../de/d07/CarlaRecorderCollision_8cpp.html" target="_top" xlink:title="CarlaRecorderCollision.cpp">
<polygon fill="white" stroke="black" points="478.5,-280.5 478.5,-299.5 621.5,-299.5 621.5,-280.5 478.5,-280.5"/>
<text text-anchor="middle" x="550" y="-287.5" font-family="Helvetica,sans-Serif" font-size="10.00">CarlaRecorderCollision.cpp</text>
</a>
</g>
</g>
<!-- Node2&#45;&gt;Node42 -->
<g id="edge64" class="edge"><title>Node2&#45;&gt;Node42</title>
<path fill="none" stroke="midnightblue" d="M909.507,-337.667C833.02,-327.738 696.793,-310.055 615.785,-299.539"/>
<polygon fill="midnightblue" stroke="midnightblue" points="909.524,-341.198 919.891,-339.015 910.425,-334.256 909.524,-341.198"/>
</g>
<!-- Node43 -->
<g id="node43" class="node"><title>Node43</title>
<g id="a_node43"><a xlink:href="../../d8/d05/CarlaRecorderEventAdd_8cpp.html" target="_top" xlink:title="CarlaRecorderEventAdd.cpp">
<polygon fill="white" stroke="black" points="639.5,-280.5 639.5,-299.5 788.5,-299.5 788.5,-280.5 639.5,-280.5"/>
<text text-anchor="middle" x="714" y="-287.5" font-family="Helvetica,sans-Serif" font-size="10.00">CarlaRecorderEventAdd.cpp</text>
</a>
</g>
</g>
<!-- Node2&#45;&gt;Node43 -->
<g id="edge65" class="edge"><title>Node2&#45;&gt;Node43</title>
<path fill="none" stroke="midnightblue" d="M916.279,-334.346C868.656,-324.141 797.72,-308.94 753.743,-299.516"/>
<polygon fill="midnightblue" stroke="midnightblue" points="915.558,-337.77 926.07,-336.444 917.025,-330.926 915.558,-337.77"/>
</g>
<!-- Node44 -->
<g id="node44" class="node"><title>Node44</title>
<g id="a_node44"><a xlink:href="../../de/d25/CarlaRecorderEventDel_8cpp.html" target="_top" xlink:title="CarlaRecorderEventDel.cpp">
<polygon fill="white" stroke="black" points="807,-280.5 807,-299.5 953,-299.5 953,-280.5 807,-280.5"/>
<text text-anchor="middle" x="880" y="-287.5" font-family="Helvetica,sans-Serif" font-size="10.00">CarlaRecorderEventDel.cpp</text>
</a>
</g>
</g>
<!-- Node2&#45;&gt;Node44 -->
<g id="edge66" class="edge"><title>Node2&#45;&gt;Node44</title>
<path fill="none" stroke="midnightblue" d="M943.545,-330.901C927.776,-320.999 907.186,-308.071 893.783,-299.655"/>
<polygon fill="midnightblue" stroke="midnightblue" points="941.852,-333.97 952.183,-336.324 945.575,-328.042 941.852,-333.97"/>
</g>
<!-- Node45 -->
<g id="node45" class="node"><title>Node45</title>
<g id="a_node45"><a xlink:href="../../d8/d3b/CarlaRecorderEventParent_8cpp.html" target="_top" xlink:title="CarlaRecorderEventParent.cpp">
<polygon fill="white" stroke="black" points="971.5,-280.5 971.5,-299.5 1132.5,-299.5 1132.5,-280.5 971.5,-280.5"/>
<text text-anchor="middle" x="1052" y="-287.5" font-family="Helvetica,sans-Serif" font-size="10.00">CarlaRecorderEventParent.cpp</text>
</a>
</g>
</g>
<!-- Node2&#45;&gt;Node45 -->
<g id="edge67" class="edge"><title>Node2&#45;&gt;Node45</title>
<path fill="none" stroke="midnightblue" d="M988.455,-330.901C1004.22,-320.999 1024.81,-308.071 1038.22,-299.655"/>
<polygon fill="midnightblue" stroke="midnightblue" points="986.425,-328.042 979.817,-336.324 990.148,-333.97 986.425,-328.042"/>
</g>
<!-- Node46 -->
<g id="node46" class="node"><title>Node46</title>
<g id="a_node46"><a xlink:href="../../dd/dd3/CarlaRecorderFrames_8cpp.html" target="_top" xlink:title="CarlaRecorderFrames.cpp">
<polygon fill="white" stroke="black" points="1150.5,-280.5 1150.5,-299.5 1289.5,-299.5 1289.5,-280.5 1150.5,-280.5"/>
<text text-anchor="middle" x="1220" y="-287.5" font-family="Helvetica,sans-Serif" font-size="10.00">CarlaRecorderFrames.cpp</text>
</a>
</g>
</g>
<!-- Node2&#45;&gt;Node46 -->
<g id="edge68" class="edge"><title>Node2&#45;&gt;Node46</title>
<path fill="none" stroke="midnightblue" d="M1016.12,-334.346C1064.12,-324.141 1135.62,-308.94 1179.94,-299.516"/>
<polygon fill="midnightblue" stroke="midnightblue" points="1015.3,-330.94 1006.25,-336.444 1016.76,-337.787 1015.3,-330.94"/>
</g>
<!-- Node47 -->
<g id="node47" class="node"><title>Node47</title>
<g id="a_node47"><a xlink:href="../../dd/d45/CarlaRecorderPosition_8cpp.html" target="_top" xlink:title="CarlaRecorderPosition.cpp">
<polygon fill="white" stroke="black" points="1307.5,-280.5 1307.5,-299.5 1448.5,-299.5 1448.5,-280.5 1307.5,-280.5"/>
<text text-anchor="middle" x="1378" y="-287.5" font-family="Helvetica,sans-Serif" font-size="10.00">CarlaRecorderPosition.cpp</text>
</a>
</g>
</g>
<!-- Node2&#45;&gt;Node47 -->
<g id="edge69" class="edge"><title>Node2&#45;&gt;Node47</title>
<path fill="none" stroke="midnightblue" d="M1022.37,-337.612C1098.24,-327.667 1232.93,-310.014 1312.99,-299.521"/>
<polygon fill="midnightblue" stroke="midnightblue" points="1021.52,-334.193 1012.06,-338.963 1022.43,-341.133 1021.52,-334.193"/>
</g>
<!-- Node48 -->
<g id="node48" class="node"><title>Node48</title>
<g id="a_node48"><a xlink:href="../../d6/d0d/CarlaRecorderState_8cpp.html" target="_top" xlink:title="CarlaRecorderState.cpp">
<polygon fill="white" stroke="black" points="1467,-280.5 1467,-299.5 1597,-299.5 1597,-280.5 1467,-280.5"/>
<text text-anchor="middle" x="1532" y="-287.5" font-family="Helvetica,sans-Serif" font-size="10.00">CarlaRecorderState.cpp</text>
</a>
</g>
</g>
<!-- Node2&#45;&gt;Node48 -->
<g id="edge70" class="edge"><title>Node2&#45;&gt;Node48</title>
<path fill="none" stroke="midnightblue" d="M1022.2,-340.365C1113.48,-332.721 1299.62,-316.651 1457,-300 1460.26,-299.655 1463.6,-299.292 1466.97,-298.917"/>
<polygon fill="midnightblue" stroke="midnightblue" points="1021.75,-336.891 1012.07,-341.211 1022.33,-343.866 1021.75,-336.891"/>
</g>
<!-- Node49 -->
<g id="node49" class="node"><title>Node49</title>
<g id="a_node49"><a xlink:href="../../db/dba/CarlaReplayer_8cpp.html" target="_top" xlink:title="CarlaReplayer.cpp">
<polygon fill="white" stroke="black" points="1615.5,-280.5 1615.5,-299.5 1716.5,-299.5 1716.5,-280.5 1615.5,-280.5"/>
<text text-anchor="middle" x="1666" y="-287.5" font-family="Helvetica,sans-Serif" font-size="10.00">CarlaReplayer.cpp</text>
</a>
</g>
</g>
<!-- Node2&#45;&gt;Node49 -->
<g id="edge71" class="edge"><title>Node2&#45;&gt;Node49</title>
<path fill="none" stroke="midnightblue" d="M1022.31,-342.532C1133.92,-337.312 1391,-323.647 1606,-300 1609.04,-299.666 1612.15,-299.292 1615.3,-298.892"/>
<polygon fill="midnightblue" stroke="midnightblue" points="1022.12,-339.037 1012.29,-342.996 1022.44,-346.03 1022.12,-339.037"/>
</g>
<!-- Node4 -->
<g id="node4" class="node"><title>Node4</title>
<g id="a_node4"><a xlink:href="../../d7/d7d/Unreal_2CarlaUE4_2Plugins_2Carla_2Source_2Carla_2Sensor_2Sensor_8h.html" target="_top" xlink:title="Sensor.h">
<polygon fill="white" stroke="black" points="2517.5,-224.5 2517.5,-243.5 2576.5,-243.5 2576.5,-224.5 2517.5,-224.5"/>
<text text-anchor="middle" x="2547" y="-231.5" font-family="Helvetica,sans-Serif" font-size="10.00">Sensor.h</text>
</a>
</g>
</g>
<!-- Node3&#45;&gt;Node4 -->
<g id="edge3" class="edge"><title>Node3&#45;&gt;Node4</title>
<path fill="none" stroke="midnightblue" d="M2075.64,-283.391C2185.96,-272.065 2432.06,-246.8 2517.28,-238.051"/>
<polygon fill="midnightblue" stroke="midnightblue" points="2074.98,-279.939 2065.39,-284.443 2075.7,-286.903 2074.98,-279.939"/>
</g>
<!-- Node12 -->
<g id="node12" class="node"><title>Node12</title>
<g id="a_node12"><a xlink:href="../../da/df0/CollisionSensor_8cpp.html" target="_top" xlink:title="CollisionSensor.cpp">
<polygon fill="white" stroke="black" points="1573.5,-56.5 1573.5,-75.5 1682.5,-75.5 1682.5,-56.5 1573.5,-56.5"/>
<text text-anchor="middle" x="1628" y="-63.5" font-family="Helvetica,sans-Serif" font-size="10.00">CollisionSensor.cpp</text>
</a>
</g>
</g>
<!-- Node3&#45;&gt;Node12 -->
<g id="edge57" class="edge"><title>Node3&#45;&gt;Node12</title>
<path fill="none" stroke="midnightblue" d="M1992.66,-276.041C1938.13,-250.729 1815.37,-191.936 1718,-132 1688.13,-113.612 1655.24,-88.5163 1638.72,-75.5443"/>
<polygon fill="midnightblue" stroke="midnightblue" points="1991.48,-279.352 2002.03,-280.37 1994.42,-272.997 1991.48,-279.352"/>
</g>
<!-- Node14 -->
<g id="node14" class="node"><title>Node14</title>
<g id="a_node14"><a xlink:href="../../d2/d70/ObstacleDetectionSensor_8cpp.html" target="_top" xlink:title="ObstacleDetectionSensor.cpp">
<polygon fill="white" stroke="black" points="2121,-56.5 2121,-75.5 2279,-75.5 2279,-56.5 2121,-56.5"/>
<text text-anchor="middle" x="2200" y="-63.5" font-family="Helvetica,sans-Serif" font-size="10.00">ObstacleDetectionSensor.cpp</text>
</a>
</g>
</g>
<!-- Node3&#45;&gt;Node14 -->
<g id="edge59" class="edge"><title>Node3&#45;&gt;Node14</title>
<path fill="none" stroke="midnightblue" d="M2027.2,-270.375C2039.59,-235.513 2070.39,-159.637 2118,-112 2134.64,-95.3453 2158.74,-83.1206 2176.51,-75.6505"/>
<polygon fill="midnightblue" stroke="midnightblue" points="2023.78,-269.57 2023.83,-280.165 2030.39,-271.852 2023.78,-269.57"/>
</g>
<!-- Node18 -->
<g id="node18" class="node"><title>Node18</title>
<g id="a_node18"><a xlink:href="../../d7/d22/GnssSensor_8cpp.html" target="_top" xlink:title="GnssSensor.cpp">
<polygon fill="white" stroke="black" points="2772,-112.5 2772,-131.5 2866,-131.5 2866,-112.5 2772,-112.5"/>
<text text-anchor="middle" x="2819" y="-119.5" font-family="Helvetica,sans-Serif" font-size="10.00">GnssSensor.cpp</text>
</a>
</g>
</g>
<!-- Node3&#45;&gt;Node18 -->
<g id="edge58" class="edge"><title>Node3&#45;&gt;Node18</title>
<path fill="none" stroke="midnightblue" d="M2075.36,-289.272C2176.72,-288.767 2400.98,-282.866 2585,-244 2658.71,-228.431 2679.95,-226.003 2745,-188 2772.17,-172.129 2798.51,-145.494 2811.18,-131.766"/>
<polygon fill="midnightblue" stroke="midnightblue" points="2075.05,-285.773 2065.07,-289.307 2075.08,-292.773 2075.05,-285.773"/>
</g>
<!-- Node24 -->
<g id="node24" class="node"><title>Node24</title>
<g id="a_node24"><a xlink:href="../../d6/dd9/CarlaEpisode_8cpp.html" target="_top" xlink:title="CarlaEpisode.cpp">
<polygon fill="white" stroke="black" points="1971.5,-112.5 1971.5,-131.5 2070.5,-131.5 2070.5,-112.5 1971.5,-112.5"/>
<text text-anchor="middle" x="2021" y="-119.5" font-family="Helvetica,sans-Serif" font-size="10.00">CarlaEpisode.cpp</text>
</a>
</g>
</g>
<!-- Node3&#45;&gt;Node24 -->
<g id="edge56" class="edge"><title>Node3&#45;&gt;Node24</title>
<path fill="none" stroke="midnightblue" d="M2021,-269.93C2021,-233.92 2021,-157.231 2021,-131.568"/>
<polygon fill="midnightblue" stroke="midnightblue" points="2017.5,-270.075 2021,-280.075 2024.5,-270.075 2017.5,-270.075"/>
</g>
<!-- Node29 -->
<g id="node29" class="node"><title>Node29</title>
<g id="a_node29"><a xlink:href="../../d9/dc8/CarlaStatics_8h.html" target="_top" xlink:title="CarlaStatics.h">
<polygon fill="white" stroke="black" points="1864.5,-168.5 1864.5,-187.5 1947.5,-187.5 1947.5,-168.5 1864.5,-168.5"/>
<text text-anchor="middle" x="1906" y="-175.5" font-family="Helvetica,sans-Serif" font-size="10.00">CarlaStatics.h</text>
</a>
</g>
</g>
<!-- Node3&#45;&gt;Node29 -->
<g id="edge38" class="edge"><title>Node3&#45;&gt;Node29</title>
<path fill="none" stroke="midnightblue" d="M2004.49,-273.205C1979.84,-249.627 1934.26,-206.029 1914.98,-187.591"/>
<polygon fill="midnightblue" stroke="midnightblue" points="2002.33,-275.985 2011.98,-280.368 2007.17,-270.927 2002.33,-275.985"/>
</g>
<!-- Node3&#45;&gt;Node33 -->
<g id="edge46" class="edge"><title>Node3&#45;&gt;Node33</title>
<path fill="none" stroke="midnightblue" d="M1966.5,-282.893C1889.51,-274.261 1744.52,-257.984 1621,-244 1616.47,-243.488 1611.8,-242.958 1607.1,-242.423"/>
<polygon fill="midnightblue" stroke="midnightblue" points="1966.57,-286.423 1976.9,-284.059 1967.35,-279.467 1966.57,-286.423"/>
</g>
<!-- Node38 -->
<g id="node38" class="node"><title>Node38</title>
<g id="a_node38"><a xlink:href="../../d6/da1/CarlaEngine_8cpp.html" target="_top" xlink:title="CarlaEngine.cpp">
<polygon fill="white" stroke="black" points="2126,-224.5 2126,-243.5 2220,-243.5 2220,-224.5 2126,-224.5"/>
<text text-anchor="middle" x="2173" y="-231.5" font-family="Helvetica,sans-Serif" font-size="10.00">CarlaEngine.cpp</text>
</a>
</g>
</g>
<!-- Node3&#45;&gt;Node38 -->
<g id="edge55" class="edge"><title>Node3&#45;&gt;Node38</title>
<path fill="none" stroke="midnightblue" d="M2054.67,-277.039C2083.27,-266.879 2123.61,-252.546 2149.03,-243.516"/>
<polygon fill="midnightblue" stroke="midnightblue" points="2053.34,-273.798 2045.08,-280.444 2055.68,-280.394 2053.34,-273.798"/>
</g>
<!-- Node5 -->
<g id="node5" class="node"><title>Node5</title>
<g id="a_node5"><a xlink:href="../../d9/d73/GnssSensor_8h.html" target="_top" xlink:title="GnssSensor.h">
<polygon fill="white" stroke="black" points="2810.5,-168.5 2810.5,-187.5 2893.5,-187.5 2893.5,-168.5 2810.5,-168.5"/>
<text text-anchor="middle" x="2852" y="-175.5" font-family="Helvetica,sans-Serif" font-size="10.00">GnssSensor.h</text>
</a>
</g>
</g>
<!-- Node4&#45;&gt;Node5 -->
<g id="edge4" class="edge"><title>Node4&#45;&gt;Node5</title>
<path fill="none" stroke="midnightblue" d="M2586.37,-226.029C2644.14,-215.801 2751.4,-196.811 2810.41,-186.364"/>
<polygon fill="midnightblue" stroke="midnightblue" points="2585.76,-222.583 2576.52,-227.773 2586.98,-229.476 2585.76,-222.583"/>
</g>
<!-- Node17 -->
<g id="node17" class="node"><title>Node17</title>
<g id="a_node17"><a xlink:href="../../d7/d16/Sensor_8cpp.html" target="_top" xlink:title="Sensor.cpp">
<polygon fill="white" stroke="black" points="2709,-56.5 2709,-75.5 2779,-75.5 2779,-56.5 2709,-56.5"/>
<text text-anchor="middle" x="2744" y="-63.5" font-family="Helvetica,sans-Serif" font-size="10.00">Sensor.cpp</text>
</a>
</g>
</g>
<!-- Node4&#45;&gt;Node17 -->
<g id="edge36" class="edge"><title>Node4&#45;&gt;Node17</title>
<path fill="none" stroke="midnightblue" d="M2586.85,-227.968C2633.19,-221.275 2705.71,-207.921 2724,-188 2753.52,-155.85 2748.59,-97.5989 2745.45,-75.6655"/>
<polygon fill="midnightblue" stroke="midnightblue" points="2586.23,-224.52 2576.81,-229.372 2587.2,-231.452 2586.23,-224.52"/>
</g>
<!-- Node19 -->
<g id="node19" class="node"><title>Node19</title>
<g id="a_node19"><a xlink:href="../../d6/de9/Radar_8h.html" target="_top" xlink:title="Radar.h">
<polygon fill="white" stroke="black" points="2925.5,-168.5 2925.5,-187.5 2978.5,-187.5 2978.5,-168.5 2925.5,-168.5"/>
<text text-anchor="middle" x="2952" y="-175.5" font-family="Helvetica,sans-Serif" font-size="10.00">Radar.h</text>
</a>
</g>
</g>
<!-- Node4&#45;&gt;Node19 -->
<g id="edge18" class="edge"><title>Node4&#45;&gt;Node19</title>
<path fill="none" stroke="midnightblue" d="M2586.85,-228.633C2652.62,-221.272 2787.99,-205.475 2902,-188 2909.58,-186.837 2917.79,-185.426 2925.32,-184.068"/>
<polygon fill="midnightblue" stroke="midnightblue" points="2586.08,-225.197 2576.53,-229.783 2586.85,-232.154 2586.08,-225.197"/>
</g>
<!-- Node20 -->
<g id="node20" class="node"><title>Node20</title>
<g id="a_node20"><a xlink:href="../../d7/dfa/InertialMeasurementUnit_8h.html" target="_top" xlink:title="InertialMeasurementUnit.h">
<polygon fill="white" stroke="black" points="2997,-168.5 2997,-187.5 3141,-187.5 3141,-168.5 2997,-168.5"/>
<text text-anchor="middle" x="3069" y="-175.5" font-family="Helvetica,sans-Serif" font-size="10.00">InertialMeasurementUnit.h</text>
</a>
</g>
</g>
<!-- Node4&#45;&gt;Node20 -->
<g id="edge21" class="edge"><title>Node4&#45;&gt;Node20</title>
<path fill="none" stroke="midnightblue" d="M2586.85,-229.024C2664.08,-221.297 2839.5,-203.637 2987,-188 2990.13,-187.668 2993.33,-187.326 2996.57,-186.979"/>
<polygon fill="midnightblue" stroke="midnightblue" points="2586.22,-225.569 2576.62,-230.047 2586.92,-232.535 2586.22,-225.569"/>
</g>
<!-- Node21 -->
<g id="node21" class="node"><title>Node21</title>
<g id="a_node21"><a xlink:href="../../d8/d95/SceneCaptureSensor_8h.html" target="_top" xlink:title="SceneCaptureSensor.h">
<polygon fill="white" stroke="black" points="2483.5,-168.5 2483.5,-187.5 2610.5,-187.5 2610.5,-168.5 2483.5,-168.5"/>
<text text-anchor="middle" x="2547" y="-175.5" font-family="Helvetica,sans-Serif" font-size="10.00">SceneCaptureSensor.h</text>
</a>
</g>
</g>
<!-- Node4&#45;&gt;Node21 -->
<g id="edge24" class="edge"><title>Node4&#45;&gt;Node21</title>
<path fill="none" stroke="midnightblue" d="M2547,-213.805C2547,-204.91 2547,-194.78 2547,-187.751"/>
<polygon fill="midnightblue" stroke="midnightblue" points="2543.5,-214.083 2547,-224.083 2550.5,-214.083 2543.5,-214.083"/>
</g>
<!-- Node4&#45;&gt;Node24 -->
<g id="edge29" class="edge"><title>Node4&#45;&gt;Node24</title>
<path fill="none" stroke="midnightblue" d="M2506.99,-231.662C2438.53,-228.593 2295.02,-218.746 2178,-188 2124.64,-173.981 2065.47,-145.76 2037.44,-131.565"/>
<polygon fill="midnightblue" stroke="midnightblue" points="2507.17,-235.173 2517.31,-232.099 2507.47,-228.179 2507.17,-235.173"/>
</g>
<!-- Node25 -->
<g id="node25" class="node"><title>Node25</title>
<g id="a_node25"><a xlink:href="../../d3/dd6/CollisionSensor_8h.html" target="_top" xlink:title="CollisionSensor.h">
<polygon fill="white" stroke="black" points="2202,-168.5 2202,-187.5 2300,-187.5 2300,-168.5 2202,-168.5"/>
<text text-anchor="middle" x="2251" y="-175.5" font-family="Helvetica,sans-Serif" font-size="10.00">CollisionSensor.h</text>
</a>
</g>
</g>
<!-- Node4&#45;&gt;Node25 -->
<g id="edge30" class="edge"><title>Node4&#45;&gt;Node25</title>
<path fill="none" stroke="midnightblue" d="M2507.31,-225.759C2452.93,-215.838 2355.43,-198.052 2297.64,-187.508"/>
<polygon fill="midnightblue" stroke="midnightblue" points="2506.8,-229.223 2517.26,-227.575 2508.05,-222.337 2506.8,-229.223"/>
</g>
<!-- Node26 -->
<g id="node26" class="node"><title>Node26</title>
<g id="a_node26"><a xlink:href="../../d7/d55/ObstacleDetectionSensor_8h.html" target="_top" xlink:title="ObstacleDetectionSensor.h">
<polygon fill="white" stroke="black" points="2318.5,-168.5 2318.5,-187.5 2465.5,-187.5 2465.5,-168.5 2318.5,-168.5"/>
<text text-anchor="middle" x="2392" y="-175.5" font-family="Helvetica,sans-Serif" font-size="10.00">ObstacleDetectionSensor.h</text>
</a>
</g>
</g>
<!-- Node4&#45;&gt;Node26 -->
<g id="edge32" class="edge"><title>Node4&#45;&gt;Node26</title>
<path fill="none" stroke="midnightblue" d="M2512.67,-221.039C2483.5,-210.879 2442.36,-196.546 2416.45,-187.516"/>
<polygon fill="midnightblue" stroke="midnightblue" points="2511.84,-224.459 2522.44,-224.444 2514.15,-217.848 2511.84,-224.459"/>
</g>
<!-- Node27 -->
<g id="node27" class="node"><title>Node27</title>
<g id="a_node27"><a xlink:href="../../d1/d53/RayCastLidar_8h.html" target="_top" xlink:title="RayCastLidar.h">
<polygon fill="white" stroke="black" points="2628.5,-168.5 2628.5,-187.5 2715.5,-187.5 2715.5,-168.5 2628.5,-168.5"/>
<text text-anchor="middle" x="2672" y="-175.5" font-family="Helvetica,sans-Serif" font-size="10.00">RayCastLidar.h</text>
</a>
</g>
</g>
<!-- Node4&#45;&gt;Node27 -->
<g id="edge34" class="edge"><title>Node4&#45;&gt;Node27</title>
<path fill="none" stroke="midnightblue" d="M2576.24,-220.368C2599.65,-210.255 2631.84,-196.349 2652.29,-187.516"/>
<polygon fill="midnightblue" stroke="midnightblue" points="2574.6,-217.265 2566.81,-224.444 2577.37,-223.691 2574.6,-217.265"/>
</g>
<!-- Node28 -->
<g id="node28" class="node"><title>Node28</title>
<g id="a_node28"><a xlink:href="../../d0/dde/SensorFactory_8cpp.html" target="_top" xlink:title="SensorFactory.cpp">
<polygon fill="white" stroke="black" points="2127,-112.5 2127,-131.5 2231,-131.5 2231,-112.5 2127,-112.5"/>
<text text-anchor="middle" x="2179" y="-119.5" font-family="Helvetica,sans-Serif" font-size="10.00">SensorFactory.cpp</text>
</a>
</g>
</g>
<!-- Node4&#45;&gt;Node28 -->
<g id="edge37" class="edge"><title>Node4&#45;&gt;Node28</title>
<path fill="none" stroke="midnightblue" d="M2507.42,-233.504C2424.84,-233.702 2238.14,-229.428 2193,-188 2177.18,-173.482 2176.96,-145.747 2178.02,-131.666"/>
<polygon fill="midnightblue" stroke="midnightblue" points="2507.44,-237.004 2517.42,-233.457 2507.4,-230.004 2507.44,-237.004"/>
</g>
<!-- Node6 -->
<g id="node6" class="node"><title>Node6</title>
<g id="a_node6"><a xlink:href="../../d7/dda/ActorBlueprintFunctionLibrary_8h.html" target="_top" xlink:title="ActorBlueprintFunctionLibrary.h">
<polygon fill="white" stroke="black" points="2884,-112.5 2884,-131.5 3048,-131.5 3048,-112.5 2884,-112.5"/>
<text text-anchor="middle" x="2966" y="-119.5" font-family="Helvetica,sans-Serif" font-size="10.00">ActorBlueprintFunctionLibrary.h</text>
</a>
</g>
</g>
<!-- Node5&#45;&gt;Node6 -->
<g id="edge5" class="edge"><title>Node5&#45;&gt;Node6</title>
<path fill="none" stroke="midnightblue" d="M2879.24,-164.096C2900.54,-154.007 2929.54,-140.27 2948.02,-131.516"/>
<polygon fill="midnightblue" stroke="midnightblue" points="2877.6,-161 2870.06,-168.444 2880.6,-167.326 2877.6,-161"/>
</g>
<!-- Node5&#45;&gt;Node18 -->
<g id="edge17" class="edge"><title>Node5&#45;&gt;Node18</title>
<path fill="none" stroke="midnightblue" d="M2841.17,-159.275C2835.53,-150.045 2828.88,-139.17 2824.35,-131.751"/>
<polygon fill="midnightblue" stroke="midnightblue" points="2838.35,-161.375 2846.55,-168.083 2844.32,-157.725 2838.35,-161.375"/>
</g>
<!-- Node7 -->
<g id="node7" class="node"><title>Node7</title>
<g id="a_node7"><a xlink:href="../../dd/d08/ActorBlueprintFunctionLibrary_8cpp.html" target="_top" xlink:title="ActorBlueprintFunctionLibrary.cpp">
<polygon fill="white" stroke="black" points="2399,-56.5 2399,-75.5 2575,-75.5 2575,-56.5 2399,-56.5"/>
<text text-anchor="middle" x="2487" y="-63.5" font-family="Helvetica,sans-Serif" font-size="10.00">ActorBlueprintFunctionLibrary.cpp</text>
</a>
</g>
</g>
<!-- Node6&#45;&gt;Node7 -->
<g id="edge6" class="edge"><title>Node6&#45;&gt;Node7</title>
<path fill="none" stroke="midnightblue" d="M2880.42,-111.353C2790.08,-101.168 2649.03,-85.2662 2562.63,-75.5264"/>
<polygon fill="midnightblue" stroke="midnightblue" points="2880.04,-114.831 2890.37,-112.473 2880.82,-107.875 2880.04,-114.831"/>
</g>
<!-- Node8 -->
<g id="node8" class="node"><title>Node8</title>
<g id="a_node8"><a xlink:href="../../d0/d6a/ActorDispatcher_8cpp.html" target="_top" xlink:title="ActorDispatcher.cpp">
<polygon fill="white" stroke="black" points="2944.5,-56.5 2944.5,-75.5 3057.5,-75.5 3057.5,-56.5 2944.5,-56.5"/>
<text text-anchor="middle" x="3001" y="-63.5" font-family="Helvetica,sans-Serif" font-size="10.00">ActorDispatcher.cpp</text>
</a>
</g>
</g>
<!-- Node6&#45;&gt;Node8 -->
<g id="edge7" class="edge"><title>Node6&#45;&gt;Node8</title>
<path fill="none" stroke="midnightblue" d="M2977.3,-103.566C2983.32,-94.2747 2990.47,-83.2484 2995.33,-75.7511"/>
<polygon fill="midnightblue" stroke="midnightblue" points="2974.28,-101.788 2971.78,-112.083 2980.16,-105.595 2974.28,-101.788"/>
</g>
<!-- Node9 -->
<g id="node9" class="node"><title>Node9</title>
<g id="a_node9"><a xlink:href="../../d5/db8/CarlaBlueprintRegistry_8h.html" target="_top" xlink:title="CarlaBlueprintRegistry.h">
<polygon fill="white" stroke="black" points="2797.5,-56.5 2797.5,-75.5 2926.5,-75.5 2926.5,-56.5 2797.5,-56.5"/>
<text text-anchor="middle" x="2862" y="-63.5" font-family="Helvetica,sans-Serif" font-size="10.00">CarlaBlueprintRegistry.h</text>
</a>
</g>
</g>
<!-- Node6&#45;&gt;Node9 -->
<g id="edge8" class="edge"><title>Node6&#45;&gt;Node9</title>
<path fill="none" stroke="midnightblue" d="M2940.17,-107.59C2920.94,-97.6052 2895.26,-84.2672 2878.67,-75.6545"/>
<polygon fill="midnightblue" stroke="midnightblue" points="2938.8,-110.822 2949.29,-112.324 2942.03,-104.61 2938.8,-110.822"/>
</g>
<!-- Node11 -->
<g id="node11" class="node"><title>Node11</title>
<g id="a_node11"><a xlink:href="../../d1/d50/AIControllerFactory_8cpp.html" target="_top" xlink:title="AIControllerFactory.cpp">
<polygon fill="white" stroke="black" points="3075.5,-56.5 3075.5,-75.5 3200.5,-75.5 3200.5,-56.5 3075.5,-56.5"/>
<text text-anchor="middle" x="3138" y="-63.5" font-family="Helvetica,sans-Serif" font-size="10.00">AIControllerFactory.cpp</text>
</a>
</g>
</g>
<!-- Node6&#45;&gt;Node11 -->
<g id="edge10" class="edge"><title>Node6&#45;&gt;Node11</title>
<path fill="none" stroke="midnightblue" d="M3002.83,-109.436C3035.26,-99.2551 3081.74,-84.664 3110.87,-75.5164"/>
<polygon fill="midnightblue" stroke="midnightblue" points="3001.75,-106.109 2993.25,-112.444 3003.84,-112.787 3001.75,-106.109"/>
</g>
<!-- Node6&#45;&gt;Node12 -->
<g id="edge11" class="edge"><title>Node6&#45;&gt;Node12</title>
<path fill="none" stroke="midnightblue" d="M2873.36,-111.933C2406.47,-80.8034 1855.79,-70.3997 1682.76,-67.7548"/>
<polygon fill="midnightblue" stroke="midnightblue" points="2873.47,-115.448 2883.68,-112.626 2873.94,-108.464 2873.47,-115.448"/>
</g>
<!-- Node13 -->
<g id="node13" class="node"><title>Node13</title>
<g id="a_node13"><a xlink:href="../../d7/d78/InertialMeasurementUnit_8cpp.html" target="_top" xlink:title="InertialMeasurementUnit.cpp">
<polygon fill="white" stroke="black" points="3301.5,-56.5 3301.5,-75.5 3456.5,-75.5 3456.5,-56.5 3301.5,-56.5"/>
<text text-anchor="middle" x="3379" y="-63.5" font-family="Helvetica,sans-Serif" font-size="10.00">InertialMeasurementUnit.cpp</text>
</a>
</g>
</g>
<!-- Node6&#45;&gt;Node13 -->
<g id="edge12" class="edge"><title>Node6&#45;&gt;Node13</title>
<path fill="none" stroke="midnightblue" d="M3041.68,-111.105C3119.67,-100.907 3239.98,-85.1766 3313.87,-75.5164"/>
<polygon fill="midnightblue" stroke="midnightblue" points="3040.9,-107.677 3031.44,-112.444 3041.81,-114.617 3040.9,-107.677"/>
</g>
<!-- Node6&#45;&gt;Node14 -->
<g id="edge13" class="edge"><title>Node6&#45;&gt;Node14</title>
<path fill="none" stroke="midnightblue" d="M2873.48,-111.898C2651.96,-93.7098 2403.24,-78.6165 2279.04,-71.4467"/>
<polygon fill="midnightblue" stroke="midnightblue" points="2873.42,-115.404 2883.67,-112.738 2873.99,-108.428 2873.42,-115.404"/>
</g>
<!-- Node15 -->
<g id="node15" class="node"><title>Node15</title>
<g id="a_node15"><a xlink:href="../../d5/d99/Radar_8cpp.html" target="_top" xlink:title="Radar.cpp">
<polygon fill="white" stroke="black" points="3219,-56.5 3219,-75.5 3283,-75.5 3283,-56.5 3219,-56.5"/>
<text text-anchor="middle" x="3251" y="-63.5" font-family="Helvetica,sans-Serif" font-size="10.00">Radar.cpp</text>
</a>
</g>
</g>
<!-- Node6&#45;&gt;Node15 -->
<g id="edge14" class="edge"><title>Node6&#45;&gt;Node15</title>
<path fill="none" stroke="midnightblue" d="M3024.33,-110.671C3073.61,-101.831 3146.02,-88.5767 3209,-76 3212.22,-75.3575 3215.57,-74.6699 3218.92,-73.9718"/>
<polygon fill="midnightblue" stroke="midnightblue" points="3023.71,-107.226 3014.49,-112.433 3024.95,-114.116 3023.71,-107.226"/>
</g>
<!-- Node16 -->
<g id="node16" class="node"><title>Node16</title>
<g id="a_node16"><a xlink:href="../../df/dec/RayCastLidar_8cpp.html" target="_top" xlink:title="RayCastLidar.cpp">
<polygon fill="white" stroke="black" points="2593,-56.5 2593,-75.5 2691,-75.5 2691,-56.5 2593,-56.5"/>
<text text-anchor="middle" x="2642" y="-63.5" font-family="Helvetica,sans-Serif" font-size="10.00">RayCastLidar.cpp</text>
</a>
</g>
</g>
<!-- Node6&#45;&gt;Node16 -->
<g id="edge15" class="edge"><title>Node6&#45;&gt;Node16</title>
<path fill="none" stroke="midnightblue" d="M2904.64,-110.773C2842.75,-100.458 2748.41,-84.7349 2691.24,-75.2068"/>
<polygon fill="midnightblue" stroke="midnightblue" points="2904.22,-114.252 2914.66,-112.444 2905.37,-107.347 2904.22,-114.252"/>
</g>
<!-- Node6&#45;&gt;Node17 -->
<g id="edge16" class="edge"><title>Node6&#45;&gt;Node17</title>
<path fill="none" stroke="midnightblue" d="M2920.88,-110.024C2878.94,-99.8232 2817.35,-84.8414 2779.01,-75.5164"/>
<polygon fill="midnightblue" stroke="midnightblue" points="2920.28,-113.481 2930.82,-112.444 2921.93,-106.679 2920.28,-113.481"/>
</g>
<!-- Node10 -->
<g id="node10" class="node"><title>Node10</title>
<g id="a_node10"><a xlink:href="../../d0/d3b/CarlaBlueprintRegistry_8cpp.html" target="_top" xlink:title="CarlaBlueprintRegistry.cpp">
<polygon fill="white" stroke="black" points="2216,-0.5 2216,-19.5 2356,-19.5 2356,-0.5 2216,-0.5"/>
<text text-anchor="middle" x="2286" y="-7.5" font-family="Helvetica,sans-Serif" font-size="10.00">CarlaBlueprintRegistry.cpp</text>
</a>
</g>
</g>
<!-- Node9&#45;&gt;Node10 -->
<g id="edge9" class="edge"><title>Node9&#45;&gt;Node10</title>
<path fill="none" stroke="midnightblue" d="M2787.38,-55.9663C2626.82,-39.1344 2451.48,-24.3305 2356.32,-16.5978"/>
<polygon fill="midnightblue" stroke="midnightblue" points="2787.13,-59.4596 2797.44,-57.0262 2787.86,-52.4981 2787.13,-59.4596"/>
</g>
<!-- Node19&#45;&gt;Node6 -->
<g id="edge19" class="edge"><title>Node19&#45;&gt;Node6</title>
<path fill="none" stroke="midnightblue" d="M2956.82,-158.396C2959.17,-149.362 2961.87,-138.936 2963.73,-131.751"/>
<polygon fill="midnightblue" stroke="midnightblue" points="2953.43,-157.525 2954.31,-168.083 2960.21,-159.281 2953.43,-157.525"/>
</g>
<!-- Node19&#45;&gt;Node15 -->
<g id="edge20" class="edge"><title>Node19&#45;&gt;Node15</title>
<path fill="none" stroke="midnightblue" d="M2984.99,-164.865C3045.94,-142.44 3174.81,-95.0315 3227.65,-75.5914"/>
<polygon fill="midnightblue" stroke="midnightblue" points="2983.64,-161.631 2975.46,-168.368 2986.06,-168.2 2983.64,-161.631"/>
</g>
<!-- Node20&#45;&gt;Node6 -->
<g id="edge22" class="edge"><title>Node20&#45;&gt;Node6</title>
<path fill="none" stroke="midnightblue" d="M3043.42,-163.59C3024.38,-153.605 2998.94,-140.267 2982.51,-131.655"/>
<polygon fill="midnightblue" stroke="midnightblue" points="3041.97,-166.78 3052.45,-168.324 3045.22,-160.581 3041.97,-166.78"/>
</g>
<!-- Node20&#45;&gt;Node13 -->
<g id="edge23" class="edge"><title>Node20&#45;&gt;Node13</title>
<path fill="none" stroke="midnightblue" d="M3102.53,-165.104C3165.42,-142.786 3299.72,-95.1318 3354.73,-75.6104"/>
<polygon fill="midnightblue" stroke="midnightblue" points="3101.32,-161.817 3093.07,-168.46 3103.66,-168.414 3101.32,-161.817"/>
</g>
<!-- Node21&#45;&gt;Node7 -->
<g id="edge25" class="edge"><title>Node21&#45;&gt;Node7</title>
<path fill="none" stroke="midnightblue" d="M2577.06,-163.814C2600.62,-151.556 2627.23,-132.193 2613,-112 2599.55,-92.9179 2577.24,-81.883 2555.11,-75.5178"/>
<polygon fill="midnightblue" stroke="midnightblue" points="2575.36,-160.748 2567.94,-168.306 2578.46,-167.027 2575.36,-160.748"/>
</g>
<!-- Node22 -->
<g id="node22" class="node"><title>Node22</title>
<g id="a_node22"><a xlink:href="../../da/d69/ShaderBasedSensor_8h.html" target="_top" xlink:title="ShaderBasedSensor.h">
<polygon fill="white" stroke="red" points="2481.5,-112.5 2481.5,-131.5 2604.5,-131.5 2604.5,-112.5 2481.5,-112.5"/>
<text text-anchor="middle" x="2543" y="-119.5" font-family="Helvetica,sans-Serif" font-size="10.00">ShaderBasedSensor.h</text>
</a>
</g>
</g>
<!-- Node21&#45;&gt;Node22 -->
<g id="edge26" class="edge"><title>Node21&#45;&gt;Node22</title>
<path fill="none" stroke="midnightblue" d="M2545.6,-158.101C2544.94,-149.136 2544.17,-138.858 2543.65,-131.751"/>
<polygon fill="midnightblue" stroke="midnightblue" points="2542.11,-158.369 2546.34,-168.083 2549.09,-157.852 2542.11,-158.369"/>
</g>
<!-- Node23 -->
<g id="node23" class="node"><title>Node23</title>
<g id="a_node23"><a xlink:href="../../db/d2d/SceneCaptureSensor_8cpp.html" target="_top" xlink:title="SceneCaptureSensor.cpp">
<polygon fill="white" stroke="black" points="2287,-112.5 2287,-131.5 2425,-131.5 2425,-112.5 2287,-112.5"/>
<text text-anchor="middle" x="2356" y="-119.5" font-family="Helvetica,sans-Serif" font-size="10.00">SceneCaptureSensor.cpp</text>
</a>
</g>
</g>
<!-- Node21&#45;&gt;Node23 -->
<g id="edge28" class="edge"><title>Node21&#45;&gt;Node23</title>
<path fill="none" stroke="midnightblue" d="M2507.03,-165.699C2470.98,-155.507 2418.76,-140.743 2386.12,-131.516"/>
<polygon fill="midnightblue" stroke="midnightblue" points="2506.16,-169.091 2516.74,-168.444 2508.06,-162.355 2506.16,-169.091"/>
</g>
<!-- Node22&#45;&gt;Node7 -->
<g id="edge27" class="edge"><title>Node22&#45;&gt;Node7</title>
<path fill="none" stroke="midnightblue" d="M2526.67,-105.253C2516.74,-95.6731 2504.41,-83.7906 2496.16,-75.8339"/>
<polygon fill="midnightblue" stroke="midnightblue" points="2524.37,-107.902 2534,-112.324 2529.23,-102.863 2524.37,-107.902"/>
</g>
<!-- Node25&#45;&gt;Node12 -->
<g id="edge31" class="edge"><title>Node25&#45;&gt;Node12</title>
<path fill="none" stroke="midnightblue" d="M2253.46,-158.208C2254.25,-143.403 2252.55,-123.417 2240,-112 2199.27,-74.9397 1825.15,-68.3894 1682.71,-67.2407"/>
<polygon fill="midnightblue" stroke="midnightblue" points="2249.97,-158.007 2252.51,-168.292 2256.94,-158.664 2249.97,-158.007"/>
</g>
<!-- Node26&#45;&gt;Node14 -->
<g id="edge33" class="edge"><title>Node26&#45;&gt;Node14</title>
<path fill="none" stroke="midnightblue" d="M2412.92,-161.899C2429.27,-148.269 2447.19,-127.966 2434,-112 2414.47,-88.3576 2339.09,-77.0068 2279.09,-71.64"/>
<polygon fill="midnightblue" stroke="midnightblue" points="2410.4,-159.433 2404.69,-168.36 2414.72,-164.939 2410.4,-159.433"/>
</g>
<!-- Node27&#45;&gt;Node16 -->
<g id="edge35" class="edge"><title>Node27&#45;&gt;Node16</title>
<path fill="none" stroke="midnightblue" d="M2667,-158.674C2660.44,-134.625 2649.2,-93.3881 2644.34,-75.5914"/>
<polygon fill="midnightblue" stroke="midnightblue" points="2663.64,-159.642 2669.65,-168.368 2670.39,-157.8 2663.64,-159.642"/>
</g>
<!-- Node29&#45;&gt;Node10 -->
<g id="edge39" class="edge"><title>Node29&#45;&gt;Node10</title>
<path fill="none" stroke="midnightblue" d="M1854.5,-174.824C1790.32,-170.242 1693.25,-156.031 1730,-112 1791.18,-38.7069 2080.69,-18.48 2216,-12.994"/>
<polygon fill="midnightblue" stroke="midnightblue" points="1854.29,-178.318 1864.5,-175.48 1854.75,-171.333 1854.29,-178.318"/>
</g>
<!-- Node29&#45;&gt;Node23 -->
<g id="edge42" class="edge"><title>Node29&#45;&gt;Node23</title>
<path fill="none" stroke="midnightblue" d="M1957.5,-170.82C2038.58,-161.09 2196.09,-142.189 2286.92,-131.29"/>
<polygon fill="midnightblue" stroke="midnightblue" points="1957.04,-167.35 1947.53,-172.017 1957.87,-174.3 1957.04,-167.35"/>
</g>
<!-- Node29&#45;&gt;Node24 -->
<g id="edge40" class="edge"><title>Node29&#45;&gt;Node24</title>
<path fill="none" stroke="midnightblue" d="M1933.48,-164.096C1954.97,-154.007 1984.22,-140.27 2002.86,-131.516"/>
<polygon fill="midnightblue" stroke="midnightblue" points="1931.79,-161.025 1924.22,-168.444 1934.76,-167.361 1931.79,-161.025"/>
</g>
<!-- Node29&#45;&gt;Node28 -->
<g id="edge43" class="edge"><title>Node29&#45;&gt;Node28</title>
<path fill="none" stroke="midnightblue" d="M1957.7,-166.774C2009.27,-156.573 2087.58,-141.084 2135.89,-131.527"/>
<polygon fill="midnightblue" stroke="midnightblue" points="1956.89,-163.366 1947.76,-168.74 1958.25,-170.233 1956.89,-163.366"/>
</g>
<!-- Node30 -->
<g id="node30" class="node"><title>Node30</title>
<g id="a_node30"><a xlink:href="../../d5/d6e/CarlaStatics_8cpp.html" target="_top" xlink:title="CarlaStatics.cpp">
<polygon fill="white" stroke="black" points="1858.5,-112.5 1858.5,-131.5 1953.5,-131.5 1953.5,-112.5 1858.5,-112.5"/>
<text text-anchor="middle" x="1906" y="-119.5" font-family="Helvetica,sans-Serif" font-size="10.00">CarlaStatics.cpp</text>
</a>
</g>
</g>
<!-- Node29&#45;&gt;Node30 -->
<g id="edge41" class="edge"><title>Node29&#45;&gt;Node30</title>
<path fill="none" stroke="midnightblue" d="M1906,-157.805C1906,-148.91 1906,-138.78 1906,-131.751"/>
<polygon fill="midnightblue" stroke="midnightblue" points="1902.5,-158.083 1906,-168.083 1909.5,-158.083 1902.5,-158.083"/>
</g>
<!-- Node31 -->
<g id="node31" class="node"><title>Node31</title>
<g id="a_node31"><a xlink:href="../../d6/d3f/TrafficLightManager_8cpp.html" target="_top" xlink:title="TrafficLightManager.cpp">
<polygon fill="white" stroke="black" points="1479,-112.5 1479,-131.5 1607,-131.5 1607,-112.5 1479,-112.5"/>
<text text-anchor="middle" x="1543" y="-119.5" font-family="Helvetica,sans-Serif" font-size="10.00">TrafficLightManager.cpp</text>
</a>
</g>
</g>
<!-- Node29&#45;&gt;Node31 -->
<g id="edge44" class="edge"><title>Node29&#45;&gt;Node31</title>
<path fill="none" stroke="midnightblue" d="M1854.42,-169.327C1787.21,-159.329 1670.08,-141.904 1600.21,-131.511"/>
<polygon fill="midnightblue" stroke="midnightblue" points="1853.95,-172.796 1864.36,-170.806 1854.98,-165.872 1853.95,-172.796"/>
</g>
<!-- Node32 -->
<g id="node32" class="node"><title>Node32</title>
<g id="a_node32"><a xlink:href="../../d3/da1/TriggerFactory_8cpp.html" target="_top" xlink:title="TriggerFactory.cpp">
<polygon fill="white" stroke="black" points="1739.5,-112.5 1739.5,-131.5 1840.5,-131.5 1840.5,-112.5 1739.5,-112.5"/>
<text text-anchor="middle" x="1790" y="-119.5" font-family="Helvetica,sans-Serif" font-size="10.00">TriggerFactory.cpp</text>
</a>
</g>
</g>
<!-- Node29&#45;&gt;Node32 -->
<g id="edge45" class="edge"><title>Node29&#45;&gt;Node32</title>
<path fill="none" stroke="midnightblue" d="M1878.28,-164.096C1856.61,-154.007 1827.1,-140.27 1808.29,-131.516"/>
<polygon fill="midnightblue" stroke="midnightblue" points="1877.08,-167.396 1887.62,-168.444 1880.03,-161.05 1877.08,-167.396"/>
</g>
<!-- Node33&#45;&gt;Node12 -->
<g id="edge49" class="edge"><title>Node33&#45;&gt;Node12</title>
<path fill="none" stroke="midnightblue" d="M1527.41,-216.815C1502.55,-188.344 1455.99,-130.555 1470,-112 1482.63,-95.2693 1532.85,-82.915 1573.33,-75.4277"/>
<polygon fill="midnightblue" stroke="midnightblue" points="1524.81,-219.155 1534.05,-224.324 1530.05,-214.516 1524.81,-219.155"/>
</g>
<!-- Node33&#45;&gt;Node14 -->
<g id="edge50" class="edge"><title>Node33&#45;&gt;Node14</title>
<path fill="none" stroke="midnightblue" d="M1559.54,-217.501C1591.09,-190.65 1660.61,-136.053 1730,-112 1800.09,-87.7045 2006.02,-75.2691 2120.66,-70.0681"/>
<polygon fill="midnightblue" stroke="midnightblue" points="1556.96,-215.105 1551.68,-224.29 1561.54,-220.402 1556.96,-215.105"/>
</g>
<!-- Node33&#45;&gt;Node29 -->
<g id="edge47" class="edge"><title>Node33&#45;&gt;Node29</title>
<path fill="none" stroke="midnightblue" d="M1609.92,-222.923C1684.64,-211.839 1802.34,-194.378 1864.44,-185.165"/>
<polygon fill="midnightblue" stroke="midnightblue" points="1609.05,-219.514 1599.68,-224.444 1610.08,-226.438 1609.05,-219.514"/>
</g>
<!-- Node34 -->
<g id="node34" class="node"><title>Node34</title>
<g id="a_node34"><a xlink:href="../../d0/d2e/CarlaGameModeBase_8cpp.html" target="_top" xlink:title="CarlaGameModeBase.cpp">
<polygon fill="white" stroke="black" points="1327.5,-168.5 1327.5,-187.5 1468.5,-187.5 1468.5,-168.5 1327.5,-168.5"/>
<text text-anchor="middle" x="1398" y="-175.5" font-family="Helvetica,sans-Serif" font-size="10.00">CarlaGameModeBase.cpp</text>
</a>
</g>
</g>
<!-- Node33&#45;&gt;Node34 -->
<g id="edge48" class="edge"><title>Node33&#45;&gt;Node34</title>
<path fill="none" stroke="midnightblue" d="M1509.75,-220.906C1482.68,-210.754 1444.68,-196.506 1420.71,-187.516"/>
<polygon fill="midnightblue" stroke="midnightblue" points="1508.59,-224.209 1519.18,-224.444 1511.05,-217.655 1508.59,-224.209"/>
</g>
<!-- Node35 -->
<g id="node35" class="node"><title>Node35</title>
<g id="a_node35"><a xlink:href="../../da/ddb/TrafficLightManager_8h.html" target="_top" xlink:title="TrafficLightManager.h">
<polygon fill="white" stroke="black" points="1192.5,-168.5 1192.5,-187.5 1309.5,-187.5 1309.5,-168.5 1192.5,-168.5"/>
<text text-anchor="middle" x="1251" y="-175.5" font-family="Helvetica,sans-Serif" font-size="10.00">TrafficLightManager.h</text>
</a>
</g>
</g>
<!-- Node33&#45;&gt;Node35 -->
<g id="edge51" class="edge"><title>Node33&#45;&gt;Node35</title>
<path fill="none" stroke="midnightblue" d="M1485.96,-222.601C1430.96,-212.395 1348.1,-197.019 1296.89,-187.516"/>
<polygon fill="midnightblue" stroke="midnightblue" points="1485.42,-226.06 1495.89,-224.444 1486.7,-219.178 1485.42,-226.06"/>
</g>
<!-- Node35&#45;&gt;Node31 -->
<g id="edge54" class="edge"><title>Node35&#45;&gt;Node31</title>
<path fill="none" stroke="midnightblue" d="M1307.23,-166.601C1362.42,-156.395 1445.56,-141.019 1496.95,-131.516"/>
<polygon fill="midnightblue" stroke="midnightblue" points="1306.47,-163.183 1297.27,-168.444 1307.74,-170.067 1306.47,-163.183"/>
</g>
<!-- Node36 -->
<g id="node36" class="node"><title>Node36</title>
<g id="a_node36"><a xlink:href="../../dc/d85/OpenDriveGenerator_8cpp.html" target="_top" xlink:title="OpenDriveGenerator.cpp">
<polygon fill="white" stroke="black" points="1235.5,-112.5 1235.5,-131.5 1370.5,-131.5 1370.5,-112.5 1235.5,-112.5"/>
<text text-anchor="middle" x="1303" y="-119.5" font-family="Helvetica,sans-Serif" font-size="10.00">OpenDriveGenerator.cpp</text>
</a>
</g>
</g>
<!-- Node35&#45;&gt;Node36 -->
<g id="edge52" class="edge"><title>Node35&#45;&gt;Node36</title>
<path fill="none" stroke="midnightblue" d="M1266.68,-160.718C1275.84,-151.2 1287.05,-139.561 1294.57,-131.751"/>
<polygon fill="midnightblue" stroke="midnightblue" points="1264,-158.452 1259.59,-168.083 1269.04,-163.308 1264,-158.452"/>
</g>
<!-- Node37 -->
<g id="node37" class="node"><title>Node37</title>
<g id="a_node37"><a xlink:href="../../d3/dcd/TrafficLightComponent_8cpp.html" target="_top" xlink:title="TrafficLightComponent.cpp">
<polygon fill="white" stroke="black" points="1074.5,-112.5 1074.5,-131.5 1217.5,-131.5 1217.5,-112.5 1074.5,-112.5"/>
<text text-anchor="middle" x="1146" y="-119.5" font-family="Helvetica,sans-Serif" font-size="10.00">TrafficLightComponent.cpp</text>
</a>
</g>
</g>
<!-- Node35&#45;&gt;Node37 -->
<g id="edge53" class="edge"><title>Node35&#45;&gt;Node37</title>
<path fill="none" stroke="midnightblue" d="M1225.19,-163.726C1205.75,-153.727 1179.65,-140.307 1162.83,-131.655"/>
<polygon fill="midnightblue" stroke="midnightblue" points="1223.64,-166.863 1234.13,-168.324 1226.84,-160.638 1223.64,-166.863"/>
</g>
<!-- Node50&#45;&gt;Node2 -->
<g id="edge73" class="edge"><title>Node50&#45;&gt;Node2</title>
<path fill="none" stroke="midnightblue" d="M966,-381.805C966,-372.91 966,-362.78 966,-355.751"/>
<polygon fill="midnightblue" stroke="midnightblue" points="962.5,-382.083 966,-392.083 969.5,-382.083 962.5,-382.083"/>
</g>
</g>
</svg>
