<?xml version="1.0" encoding="UTF-8" standalone="no"?>
<!DOCTYPE svg PUBLIC "-//W3C//DTD SVG 1.1//EN"
 "http://www.w3.org/Graphics/SVG/1.1/DTD/svg11.dtd">
<!-- Generated by graphviz version 2.40.1 (20161225.0304)
 -->
<!-- Title: FAsyncDataStreamTmpl::PopBufferFromPool Pages: 1 -->
<svg width="485pt" height="39pt"
 viewBox="0.00 0.00 485.00 39.00" xmlns="http://www.w3.org/2000/svg" xmlns:xlink="http://www.w3.org/1999/xlink">
<g id="graph0" class="graph" transform="scale(1 1) rotate(0) translate(4 35)">
<title>FAsyncDataStreamTmpl::PopBufferFromPool</title>
<polygon fill="#ffffff" stroke="transparent" points="-4,4 -4,-35 481,-35 481,4 -4,4"/>
<!-- Node7 -->
<g id="node1" class="node">
<title>Node7</title>
<polygon fill="#bfbfbf" stroke="#000000" points="0,-.5 0,-30.5 134,-30.5 134,-.5 0,-.5"/>
<text text-anchor="start" x="8" y="-18.5" font-family="Helvetica,sans-Serif" font-size="10.00" fill="#000000">FAsyncDataStreamTmpl</text>
<text text-anchor="middle" x="67" y="-7.5" font-family="Helvetica,sans-Serif" font-size="10.00" fill="#000000">::PopBufferFromPool</text>
</g>
<!-- Node8 -->
<g id="node2" class="node">
<title>Node8</title>
<g id="a_node2"><a xlink:href="../../dc/db5/classFAsyncDataStreamTmpl.html#ad04c08e1aee4c873ff7bd03b778b622a" target="_top" xlink:title="Send some data down the stream. ">
<polygon fill="#ffffff" stroke="#000000" points="170,-.5 170,-30.5 304,-30.5 304,-.5 170,-.5"/>
<text text-anchor="start" x="178" y="-18.5" font-family="Helvetica,sans-Serif" font-size="10.00" fill="#000000">FAsyncDataStreamTmpl</text>
<text text-anchor="middle" x="237" y="-7.5" font-family="Helvetica,sans-Serif" font-size="10.00" fill="#000000">::Send</text>
</a>
</g>
</g>
<!-- Node7&#45;&gt;Node8 -->
<g id="edge1" class="edge">
<title>Node7&#45;&gt;Node8</title>
<path fill="none" stroke="#191970" d="M134.1885,-15.5C142.5021,-15.5 151.0537,-15.5 159.5056,-15.5"/>
<polygon fill="#191970" stroke="#191970" points="159.7429,-19.0001 169.7428,-15.5 159.7428,-12.0001 159.7429,-19.0001"/>
</g>
<!-- Node9 -->
<g id="node3" class="node">
<title>Node9</title>
<g id="a_node3"><a xlink:href="../../d3/d81/classcarla_1_1sensor_1_1CompositeSerializer.html#a69dc7c61b631b59bcc50ffb08f4a6972" target="_top" xlink:title="Serialize the arguments provided into a Buffer by calling to the serializer registered for the given ...">
<polygon fill="#ffffff" stroke="#000000" points="340,-.5 340,-30.5 477,-30.5 477,-.5 340,-.5"/>
<text text-anchor="start" x="348" y="-18.5" font-family="Helvetica,sans-Serif" font-size="10.00" fill="#000000">carla::sensor::Composite</text>
<text text-anchor="middle" x="408.5" y="-7.5" font-family="Helvetica,sans-Serif" font-size="10.00" fill="#000000">Serializer::Serialize</text>
</a>
</g>
</g>
<!-- Node8&#45;&gt;Node9 -->
<g id="edge2" class="edge">
<title>Node8&#45;&gt;Node9</title>
<path fill="none" stroke="#191970" d="M304.2891,-15.5C312.7202,-15.5 321.4012,-15.5 329.9848,-15.5"/>
<polygon fill="#191970" stroke="#191970" points="329.9957,-19.0001 339.9957,-15.5 329.9956,-12.0001 329.9957,-19.0001"/>
</g>
</g>
</svg>
