<?xml version="1.0" encoding="UTF-8" standalone="no"?>
<!DOCTYPE svg PUBLIC "-//W3C//DTD SVG 1.1//EN"
 "http://www.w3.org/Graphics/SVG/1.1/DTD/svg11.dtd">
<!-- Generated by graphviz version 2.38.0 (20140413.2041)
 -->
<!-- Title: FAsyncDataStreamTmpl::PopBufferFromPool Pages: 1 -->
<svg width="480pt" height="39pt"
 viewBox="0.00 0.00 480.00 39.00" xmlns="http://www.w3.org/2000/svg" xmlns:xlink="http://www.w3.org/1999/xlink">
<g id="graph0" class="graph" transform="scale(1 1) rotate(0) translate(4 35)">
<title>FAsyncDataStreamTmpl::PopBufferFromPool</title>
<polygon fill="white" stroke="none" points="-4,4 -4,-35 476,-35 476,4 -4,4"/>
<!-- Node1 -->
<g id="node1" class="node"><title>Node1</title>
<polygon fill="#bfbfbf" stroke="black" points="0,-0.5 0,-30.5 132,-30.5 132,-0.5 0,-0.5"/>
<text text-anchor="start" x="8" y="-18.5" font-family="Helvetica,sans-Serif" font-size="10.00">FAsyncDataStreamTmpl</text>
<text text-anchor="middle" x="66" y="-7.5" font-family="Helvetica,sans-Serif" font-size="10.00">::PopBufferFromPool</text>
</g>
<!-- Node2 -->
<g id="node2" class="node"><title>Node2</title>
<g id="a_node2"><a xlink:href="../../dc/db5/classFAsyncDataStreamTmpl.html#aa2ed15df0df02ef4969afe9d79dd36a0" target="_top" xlink:title="Send some data down the stream. ">
<polygon fill="white" stroke="black" points="168,-0.5 168,-30.5 300,-30.5 300,-0.5 168,-0.5"/>
<text text-anchor="start" x="176" y="-18.5" font-family="Helvetica,sans-Serif" font-size="10.00">FAsyncDataStreamTmpl</text>
<text text-anchor="middle" x="234" y="-7.5" font-family="Helvetica,sans-Serif" font-size="10.00">::Send</text>
</a>
</g>
</g>
<!-- Node1&#45;&gt;Node2 -->
<g id="edge1" class="edge"><title>Node1&#45;&gt;Node2</title>
<path fill="none" stroke="midnightblue" d="M132.131,-15.5C140.461,-15.5 149.044,-15.5 157.521,-15.5"/>
<polygon fill="midnightblue" stroke="midnightblue" points="157.784,-19.0001 167.784,-15.5 157.784,-12.0001 157.784,-19.0001"/>
</g>
<!-- Node3 -->
<g id="node3" class="node"><title>Node3</title>
<g id="a_node3"><a xlink:href="../../d3/d81/classcarla_1_1sensor_1_1CompositeSerializer.html#a78064fa3abd662b479ad741a6c0babb1" target="_top" xlink:title="Serialize the arguments provided into a Buffer by calling to the serializer registered for the given ...">
<polygon fill="white" stroke="black" points="336,-0.5 336,-30.5 472,-30.5 472,-0.5 336,-0.5"/>
<text text-anchor="start" x="344" y="-18.5" font-family="Helvetica,sans-Serif" font-size="10.00">carla::sensor::Composite</text>
<text text-anchor="middle" x="404" y="-7.5" font-family="Helvetica,sans-Serif" font-size="10.00">Serializer::Serialize</text>
</a>
</g>
</g>
<!-- Node2&#45;&gt;Node3 -->
<g id="edge2" class="edge"><title>Node2&#45;&gt;Node3</title>
<path fill="none" stroke="midnightblue" d="M300.434,-15.5C308.687,-15.5 317.192,-15.5 325.608,-15.5"/>
<polygon fill="midnightblue" stroke="midnightblue" points="325.806,-19.0001 335.806,-15.5 325.806,-12.0001 325.806,-19.0001"/>
</g>
</g>
</svg>
