<?xml version="1.0" encoding="UTF-8" standalone="no"?>
<!DOCTYPE svg PUBLIC "-//W3C//DTD SVG 1.1//EN"
 "http://www.w3.org/Graphics/SVG/1.1/DTD/svg11.dtd">
<!-- Generated by graphviz version 2.38.0 (20140413.2041)
 -->
<!-- Title: Validity.h Pages: 1 -->
<svg width="2338pt" height="476pt"
 viewBox="0.00 0.00 2337.50 476.00" xmlns="http://www.w3.org/2000/svg" xmlns:xlink="http://www.w3.org/1999/xlink">
<g id="graph0" class="graph" transform="scale(1 1) rotate(0) translate(4 472)">
<title>Validity.h</title>
<polygon fill="white" stroke="none" points="-4,4 -4,-472 2333.5,-472 2333.5,4 -4,4"/>
<!-- Node1 -->
<g id="node1" class="node"><title>Node1</title>
<polygon fill="#bfbfbf" stroke="black" points="2156.5,-448.5 2156.5,-467.5 2213.5,-467.5 2213.5,-448.5 2156.5,-448.5"/>
<text text-anchor="middle" x="2185" y="-455.5" font-family="Helvetica,sans-Serif" font-size="10.00">Validity.h</text>
</g>
<!-- Node2 -->
<g id="node2" class="node"><title>Node2</title>
<g id="a_node2"><a xlink:href="../../d0/def/Signal_8h.html" target="_top" xlink:title="Signal.h">
<polygon fill="white" stroke="black" points="2072,-336.5 2072,-355.5 2124,-355.5 2124,-336.5 2072,-336.5"/>
<text text-anchor="middle" x="2098" y="-343.5" font-family="Helvetica,sans-Serif" font-size="10.00">Signal.h</text>
</a>
</g>
</g>
<!-- Node1&#45;&gt;Node2 -->
<g id="edge1" class="edge"><title>Node1&#45;&gt;Node2</title>
<path fill="none" stroke="midnightblue" d="M2163.13,-442.511C2152.19,-434.473 2139.32,-423.739 2130,-412 2115.76,-394.075 2105.59,-368.784 2100.91,-355.66"/>
<polygon fill="midnightblue" stroke="midnightblue" points="2161.2,-445.435 2171.39,-448.347 2165.24,-439.718 2161.2,-445.435"/>
</g>
<!-- Node31 -->
<g id="node31" class="node"><title>Node31</title>
<g id="a_node31"><a xlink:href="../../df/da9/MapBuilder_8cpp.html" target="_top" xlink:title="MapBuilder.cpp">
<polygon fill="white" stroke="black" points="2162,-56.5 2162,-75.5 2246,-75.5 2246,-56.5 2162,-56.5"/>
<text text-anchor="middle" x="2204" y="-63.5" font-family="Helvetica,sans-Serif" font-size="10.00">MapBuilder.cpp</text>
</a>
</g>
</g>
<!-- Node1&#45;&gt;Node31 -->
<g id="edge50" class="edge"><title>Node1&#45;&gt;Node31</title>
<path fill="none" stroke="midnightblue" d="M2174.64,-439.582C2170.3,-431.471 2165.66,-421.526 2163,-412 2148.46,-359.996 2152,-345 2152,-291 2152,-291 2152,-291 2152,-177 2152,-135.809 2182.17,-93.5462 2196.55,-75.7441"/>
<polygon fill="midnightblue" stroke="midnightblue" points="2171.66,-441.424 2179.62,-448.415 2177.76,-437.985 2171.66,-441.424"/>
</g>
<!-- Node37 -->
<g id="node37" class="node"><title>Node37</title>
<g id="a_node37"><a xlink:href="../../d9/d7b/SignalDependency_8h.html" target="_top" xlink:title="SignalDependency.h">
<polygon fill="white" stroke="black" points="2172.5,-392.5 2172.5,-411.5 2279.5,-411.5 2279.5,-392.5 2172.5,-392.5"/>
<text text-anchor="middle" x="2226" y="-399.5" font-family="Helvetica,sans-Serif" font-size="10.00">SignalDependency.h</text>
</a>
</g>
</g>
<!-- Node1&#45;&gt;Node37 -->
<g id="edge44" class="edge"><title>Node1&#45;&gt;Node37</title>
<path fill="none" stroke="midnightblue" d="M2198.02,-439.855C2205.12,-430.505 2213.6,-419.327 2219.36,-411.751"/>
<polygon fill="midnightblue" stroke="midnightblue" points="2195.03,-438.002 2191.77,-448.083 2200.61,-442.235 2195.03,-438.002"/>
</g>
<!-- Node38 -->
<g id="node38" class="node"><title>Node38</title>
<g id="a_node38"><a xlink:href="../../d6/d3b/SignalReference_8h.html" target="_top" xlink:title="SignalReference.h">
<polygon fill="white" stroke="black" points="2232.5,-336.5 2232.5,-355.5 2329.5,-355.5 2329.5,-336.5 2232.5,-336.5"/>
<text text-anchor="middle" x="2281" y="-343.5" font-family="Helvetica,sans-Serif" font-size="10.00">SignalReference.h</text>
</a>
</g>
</g>
<!-- Node1&#45;&gt;Node38 -->
<g id="edge47" class="edge"><title>Node1&#45;&gt;Node38</title>
<path fill="none" stroke="midnightblue" d="M2223.5,-450.894C2246.43,-445.062 2273.76,-433.762 2288,-412 2299.31,-394.715 2291,-369.154 2285.25,-355.821"/>
<polygon fill="midnightblue" stroke="midnightblue" points="2222.63,-447.502 2213.66,-453.141 2224.19,-454.326 2222.63,-447.502"/>
</g>
<!-- Node3 -->
<g id="node3" class="node"><title>Node3</title>
<g id="a_node3"><a xlink:href="../../db/d48/Road_8h.html" target="_top" xlink:title="Road.h">
<polygon fill="white" stroke="black" points="2034,-280.5 2034,-299.5 2082,-299.5 2082,-280.5 2034,-280.5"/>
<text text-anchor="middle" x="2058" y="-287.5" font-family="Helvetica,sans-Serif" font-size="10.00">Road.h</text>
</a>
</g>
</g>
<!-- Node2&#45;&gt;Node3 -->
<g id="edge2" class="edge"><title>Node2&#45;&gt;Node3</title>
<path fill="none" stroke="midnightblue" d="M2085.3,-327.855C2078.37,-318.505 2070.09,-307.327 2064.48,-299.751"/>
<polygon fill="midnightblue" stroke="midnightblue" points="2082.63,-330.131 2091.39,-336.083 2088.25,-325.964 2082.63,-330.131"/>
</g>
<!-- Node2&#45;&gt;Node31 -->
<g id="edge43" class="edge"><title>Node2&#45;&gt;Node31</title>
<path fill="none" stroke="midnightblue" d="M2102.39,-326.341C2107.13,-304.555 2114,-267.374 2114,-235 2114,-235 2114,-235 2114,-177 2114,-146.205 2119.05,-136.27 2138,-112 2150.63,-95.8237 2170.72,-83.311 2185.42,-75.6324"/>
<polygon fill="midnightblue" stroke="midnightblue" points="2098.95,-325.697 2100.16,-336.223 2105.78,-327.241 2098.95,-325.697"/>
</g>
<!-- Node4 -->
<g id="node4" class="node"><title>Node4</title>
<g id="a_node4"><a xlink:href="../../d5/db7/MapData_8h.html" target="_top" xlink:title="MapData.h">
<polygon fill="white" stroke="black" points="1896.5,-224.5 1896.5,-243.5 1961.5,-243.5 1961.5,-224.5 1896.5,-224.5"/>
<text text-anchor="middle" x="1929" y="-231.5" font-family="Helvetica,sans-Serif" font-size="10.00">MapData.h</text>
</a>
</g>
</g>
<!-- Node3&#45;&gt;Node4 -->
<g id="edge3" class="edge"><title>Node3&#45;&gt;Node4</title>
<path fill="none" stroke="midnightblue" d="M2028.15,-276.503C2003.96,-266.38 1970.54,-252.388 1949.34,-243.516"/>
<polygon fill="midnightblue" stroke="midnightblue" points="2026.98,-279.811 2037.56,-280.444 2029.69,-273.354 2026.98,-279.811"/>
</g>
<!-- Node35 -->
<g id="node35" class="node"><title>Node35</title>
<g id="a_node35"><a xlink:href="../../dc/d2f/Road_8cpp.html" target="_top" xlink:title="Road.cpp">
<polygon fill="white" stroke="black" points="1972.5,-168.5 1972.5,-187.5 2031.5,-187.5 2031.5,-168.5 1972.5,-168.5"/>
<text text-anchor="middle" x="2002" y="-175.5" font-family="Helvetica,sans-Serif" font-size="10.00">Road.cpp</text>
</a>
</g>
</g>
<!-- Node3&#45;&gt;Node35 -->
<g id="edge42" class="edge"><title>Node3&#45;&gt;Node35</title>
<path fill="none" stroke="midnightblue" d="M2042.29,-273.17C2034.94,-265.025 2026.6,-254.596 2021,-244 2011.11,-225.291 2005.73,-200.756 2003.41,-187.838"/>
<polygon fill="midnightblue" stroke="midnightblue" points="2039.77,-275.593 2049.17,-280.477 2044.86,-270.796 2039.77,-275.593"/>
</g>
<!-- Node36 -->
<g id="node36" class="node"><title>Node36</title>
<g id="a_node36"><a xlink:href="../../dc/d13/Lane_8cpp.html" target="_top" xlink:title="Lane.cpp">
<polygon fill="white" stroke="black" points="2030,-224.5 2030,-243.5 2086,-243.5 2086,-224.5 2030,-224.5"/>
<text text-anchor="middle" x="2058" y="-231.5" font-family="Helvetica,sans-Serif" font-size="10.00">Lane.cpp</text>
</a>
</g>
</g>
<!-- Node3&#45;&gt;Node36 -->
<g id="edge41" class="edge"><title>Node3&#45;&gt;Node36</title>
<path fill="none" stroke="midnightblue" d="M2058,-269.805C2058,-260.91 2058,-250.78 2058,-243.751"/>
<polygon fill="midnightblue" stroke="midnightblue" points="2054.5,-270.083 2058,-280.083 2061.5,-270.083 2054.5,-270.083"/>
</g>
<!-- Node5 -->
<g id="node5" class="node"><title>Node5</title>
<g id="a_node5"><a xlink:href="../../df/d64/road_2Map_8h.html" target="_top" xlink:title="Map.h">
<polygon fill="white" stroke="black" points="1113,-168.5 1113,-187.5 1157,-187.5 1157,-168.5 1113,-168.5"/>
<text text-anchor="middle" x="1135" y="-175.5" font-family="Helvetica,sans-Serif" font-size="10.00">Map.h</text>
</a>
</g>
</g>
<!-- Node4&#45;&gt;Node5 -->
<g id="edge4" class="edge"><title>Node4&#45;&gt;Node5</title>
<path fill="none" stroke="midnightblue" d="M1886.06,-230.08C1740.1,-220.153 1266.09,-187.915 1157.37,-180.521"/>
<polygon fill="midnightblue" stroke="midnightblue" points="1886.18,-233.596 1896.39,-230.782 1886.65,-226.612 1886.18,-233.596"/>
</g>
<!-- Node34 -->
<g id="node34" class="node"><title>Node34</title>
<g id="a_node34"><a xlink:href="../../d9/d71/MapData_8cpp.html" target="_top" xlink:title="MapData.cpp">
<polygon fill="white" stroke="black" points="1879.5,-168.5 1879.5,-187.5 1954.5,-187.5 1954.5,-168.5 1879.5,-168.5"/>
<text text-anchor="middle" x="1917" y="-175.5" font-family="Helvetica,sans-Serif" font-size="10.00">MapData.cpp</text>
</a>
</g>
</g>
<!-- Node4&#45;&gt;Node34 -->
<g id="edge39" class="edge"><title>Node4&#45;&gt;Node34</title>
<path fill="none" stroke="midnightblue" d="M1924.8,-214.101C1922.81,-205.136 1920.52,-194.858 1918.94,-187.751"/>
<polygon fill="midnightblue" stroke="midnightblue" points="1921.43,-215.08 1927.02,-224.083 1928.27,-213.562 1921.43,-215.08"/>
</g>
<!-- Node4&#45;&gt;Node35 -->
<g id="edge40" class="edge"><title>Node4&#45;&gt;Node35</title>
<path fill="none" stroke="midnightblue" d="M1949.14,-218.101C1962.28,-208.382 1978.98,-196.027 1990.06,-187.834"/>
<polygon fill="midnightblue" stroke="midnightblue" points="1946.69,-215.563 1940.73,-224.324 1950.85,-221.191 1946.69,-215.563"/>
</g>
<!-- Node6 -->
<g id="node6" class="node"><title>Node6</title>
<g id="a_node6"><a xlink:href="../../d6/d95/OpenDriveMap_8h.html" target="_top" xlink:title="OpenDriveMap.h">
<polygon fill="white" stroke="black" points="185,-112.5 185,-131.5 275,-131.5 275,-112.5 185,-112.5"/>
<text text-anchor="middle" x="230" y="-119.5" font-family="Helvetica,sans-Serif" font-size="10.00">OpenDriveMap.h</text>
</a>
</g>
</g>
<!-- Node5&#45;&gt;Node6 -->
<g id="edge5" class="edge"><title>Node5&#45;&gt;Node6</title>
<path fill="none" stroke="midnightblue" d="M1102.87,-175.311C996.372,-169.677 645.189,-150.817 355,-132 328.511,-130.282 298.881,-128.158 275.119,-126.404"/>
<polygon fill="midnightblue" stroke="midnightblue" points="1102.8,-178.812 1112.97,-175.844 1103.17,-171.822 1102.8,-178.812"/>
</g>
<!-- Node12 -->
<g id="node12" class="node"><title>Node12</title>
<g id="a_node12"><a xlink:href="../../d1/dd9/OpenDriveParser_8h.html" target="_top" xlink:title="OpenDriveParser.h">
<polygon fill="white" stroke="black" points="364,-112.5 364,-131.5 464,-131.5 464,-112.5 364,-112.5"/>
<text text-anchor="middle" x="414" y="-119.5" font-family="Helvetica,sans-Serif" font-size="10.00">OpenDriveParser.h</text>
</a>
</g>
</g>
<!-- Node5&#45;&gt;Node12 -->
<g id="edge11" class="edge"><title>Node5&#45;&gt;Node12</title>
<path fill="none" stroke="midnightblue" d="M1102.4,-174.558C987.759,-165.972 602.653,-137.129 464.15,-126.756"/>
<polygon fill="midnightblue" stroke="midnightblue" points="1102.4,-178.068 1112.63,-175.325 1102.92,-171.087 1102.4,-178.068"/>
</g>
<!-- Node13 -->
<g id="node13" class="node"><title>Node13</title>
<g id="a_node13"><a xlink:href="../../db/da0/client_2Map_8cpp.html" target="_top" xlink:title="Map.cpp">
<polygon fill="white" stroke="black" points="337,-56.5 337,-75.5 391,-75.5 391,-56.5 337,-56.5"/>
<text text-anchor="middle" x="364" y="-63.5" font-family="Helvetica,sans-Serif" font-size="10.00">Map.cpp</text>
</a>
</g>
</g>
<!-- Node5&#45;&gt;Node13 -->
<g id="edge23" class="edge"><title>Node5&#45;&gt;Node13</title>
<path fill="none" stroke="midnightblue" d="M1102.85,-173.842C999.95,-163.464 669.633,-128.071 400,-76 397.09,-75.4381 394.064,-74.7875 391.057,-74.0983"/>
<polygon fill="midnightblue" stroke="midnightblue" points="1102.61,-177.335 1112.91,-174.849 1103.31,-170.37 1102.61,-177.335"/>
</g>
<!-- Node16 -->
<g id="node16" class="node"><title>Node16</title>
<g id="a_node16"><a xlink:href="../../d4/d9d/client_2Map_8h.html" target="_top" xlink:title="Map.h">
<polygon fill="white" stroke="black" points="834,-112.5 834,-131.5 878,-131.5 878,-112.5 834,-112.5"/>
<text text-anchor="middle" x="856" y="-119.5" font-family="Helvetica,sans-Serif" font-size="10.00">Map.h</text>
</a>
</g>
</g>
<!-- Node5&#45;&gt;Node16 -->
<g id="edge17" class="edge"><title>Node5&#45;&gt;Node16</title>
<path fill="none" stroke="midnightblue" d="M1102.66,-170.742C1045.29,-159.637 927.118,-136.765 878.079,-127.273"/>
<polygon fill="midnightblue" stroke="midnightblue" points="1102.16,-174.208 1112.64,-172.672 1103.49,-167.336 1102.16,-174.208"/>
</g>
<!-- Node21 -->
<g id="node21" class="node"><title>Node21</title>
<g id="a_node21"><a xlink:href="../../de/d3b/MapBuilder_8h.html" target="_top" xlink:title="MapBuilder.h">
<polygon fill="white" stroke="black" points="1377,-112.5 1377,-131.5 1451,-131.5 1451,-112.5 1377,-112.5"/>
<text text-anchor="middle" x="1414" y="-119.5" font-family="Helvetica,sans-Serif" font-size="10.00">MapBuilder.h</text>
</a>
</g>
</g>
<!-- Node5&#45;&gt;Node21 -->
<g id="edge24" class="edge"><title>Node5&#45;&gt;Node21</title>
<path fill="none" stroke="midnightblue" d="M1167.39,-170.731C1219.51,-160.643 1321.72,-140.861 1376.77,-130.206"/>
<polygon fill="midnightblue" stroke="midnightblue" points="1166.51,-167.336 1157.36,-172.672 1167.84,-174.208 1166.51,-167.336"/>
</g>
<!-- Node32 -->
<g id="node32" class="node"><title>Node32</title>
<g id="a_node32"><a xlink:href="../../d5/da4/LaneCrossingCalculator_8cpp.html" target="_top" xlink:title="LaneCrossingCalculator.cpp">
<polygon fill="white" stroke="black" points="1469,-112.5 1469,-131.5 1609,-131.5 1609,-112.5 1469,-112.5"/>
<text text-anchor="middle" x="1539" y="-119.5" font-family="Helvetica,sans-Serif" font-size="10.00">LaneCrossingCalculator.cpp</text>
</a>
</g>
</g>
<!-- Node5&#45;&gt;Node32 -->
<g id="edge37" class="edge"><title>Node5&#45;&gt;Node32</title>
<path fill="none" stroke="midnightblue" d="M1167.3,-172.683C1233.95,-163.775 1387.76,-143.216 1475.2,-131.528"/>
<polygon fill="midnightblue" stroke="midnightblue" points="1166.46,-169.264 1157.01,-174.058 1167.38,-176.203 1166.46,-169.264"/>
</g>
<!-- Node33 -->
<g id="node33" class="node"><title>Node33</title>
<g id="a_node33"><a xlink:href="../../d9/d5a/road_2Map_8cpp.html" target="_top" xlink:title="Map.cpp">
<polygon fill="white" stroke="black" points="1627,-112.5 1627,-131.5 1681,-131.5 1681,-112.5 1627,-112.5"/>
<text text-anchor="middle" x="1654" y="-119.5" font-family="Helvetica,sans-Serif" font-size="10.00">Map.cpp</text>
</a>
</g>
</g>
<!-- Node5&#45;&gt;Node33 -->
<g id="edge38" class="edge"><title>Node5&#45;&gt;Node33</title>
<path fill="none" stroke="midnightblue" d="M1167.47,-175.681C1245.57,-172.139 1449.91,-160.671 1618,-132 1620.92,-131.502 1623.96,-130.892 1626.97,-130.227"/>
<polygon fill="midnightblue" stroke="midnightblue" points="1167.14,-172.192 1157.3,-176.129 1167.45,-179.185 1167.14,-172.192"/>
</g>
<!-- Node7 -->
<g id="node7" class="node"><title>Node7</title>
<g id="a_node7"><a xlink:href="../../d1/d9b/Unreal_2CarlaUE4_2Plugins_2Carla_2Source_2Carla_2OpenDrive_2OpenDrive_8h.html" target="_top" xlink:title="OpenDrive.h">
<polygon fill="white" stroke="black" points="90.5,-56.5 90.5,-75.5 161.5,-75.5 161.5,-56.5 90.5,-56.5"/>
<text text-anchor="middle" x="126" y="-63.5" font-family="Helvetica,sans-Serif" font-size="10.00">OpenDrive.h</text>
</a>
</g>
</g>
<!-- Node6&#45;&gt;Node7 -->
<g id="edge6" class="edge"><title>Node6&#45;&gt;Node7</title>
<path fill="none" stroke="midnightblue" d="M204.172,-107.59C184.943,-97.6052 159.255,-84.2672 142.668,-75.6545"/>
<polygon fill="midnightblue" stroke="midnightblue" points="202.803,-110.822 213.291,-112.324 206.029,-104.61 202.803,-110.822"/>
</g>
<!-- Node11 -->
<g id="node11" class="node"><title>Node11</title>
<g id="a_node11"><a xlink:href="../../d6/de7/OpenDriveMap_8cpp.html" target="_top" xlink:title="OpenDriveMap.cpp">
<polygon fill="white" stroke="black" points="179.5,-56.5 179.5,-75.5 280.5,-75.5 280.5,-56.5 179.5,-56.5"/>
<text text-anchor="middle" x="230" y="-63.5" font-family="Helvetica,sans-Serif" font-size="10.00">OpenDriveMap.cpp</text>
</a>
</g>
</g>
<!-- Node6&#45;&gt;Node11 -->
<g id="edge10" class="edge"><title>Node6&#45;&gt;Node11</title>
<path fill="none" stroke="midnightblue" d="M230,-101.805C230,-92.9102 230,-82.7798 230,-75.7511"/>
<polygon fill="midnightblue" stroke="midnightblue" points="226.5,-102.083 230,-112.083 233.5,-102.083 226.5,-102.083"/>
</g>
<!-- Node8 -->
<g id="node8" class="node"><title>Node8</title>
<g id="a_node8"><a xlink:href="../../d9/d30/Unreal_2CarlaUE4_2Plugins_2Carla_2Source_2Carla_2OpenDrive_2OpenDrive_8cpp.html" target="_top" xlink:title="OpenDrive.cpp">
<polygon fill="white" stroke="black" points="0,-0.5 0,-19.5 82,-19.5 82,-0.5 0,-0.5"/>
<text text-anchor="middle" x="41" y="-7.5" font-family="Helvetica,sans-Serif" font-size="10.00">OpenDrive.cpp</text>
</a>
</g>
</g>
<!-- Node7&#45;&gt;Node8 -->
<g id="edge7" class="edge"><title>Node7&#45;&gt;Node8</title>
<path fill="none" stroke="midnightblue" d="M103.806,-50.9005C88.22,-40.9986 67.8703,-28.0705 54.6228,-19.6545"/>
<polygon fill="midnightblue" stroke="midnightblue" points="102.026,-53.9158 112.343,-56.324 105.779,-48.0073 102.026,-53.9158"/>
</g>
<!-- Node9 -->
<g id="node9" class="node"><title>Node9</title>
<g id="a_node9"><a xlink:href="../../d4/de0/OpenDriveActor_8cpp.html" target="_top" xlink:title="OpenDriveActor.cpp">
<polygon fill="white" stroke="black" points="222.5,-0.5 222.5,-19.5 327.5,-19.5 327.5,-0.5 222.5,-0.5"/>
<text text-anchor="middle" x="275" y="-7.5" font-family="Helvetica,sans-Serif" font-size="10.00">OpenDriveActor.cpp</text>
</a>
</g>
</g>
<!-- Node7&#45;&gt;Node9 -->
<g id="edge8" class="edge"><title>Node7&#45;&gt;Node9</title>
<path fill="none" stroke="midnightblue" d="M159.371,-52.9058C187.384,-42.7536 226.696,-28.5063 251.501,-19.5164"/>
<polygon fill="midnightblue" stroke="midnightblue" points="157.819,-49.7456 149.609,-56.4435 160.204,-56.3267 157.819,-49.7456"/>
</g>
<!-- Node10 -->
<g id="node10" class="node"><title>Node10</title>
<g id="a_node10"><a xlink:href="../../db/d6c/CarlaServer_8cpp.html" target="_top" xlink:title="CarlaServer.cpp">
<polygon fill="white" stroke="black" points="100.5,-0.5 100.5,-19.5 187.5,-19.5 187.5,-0.5 100.5,-0.5"/>
<text text-anchor="middle" x="144" y="-7.5" font-family="Helvetica,sans-Serif" font-size="10.00">CarlaServer.cpp</text>
</a>
</g>
</g>
<!-- Node7&#45;&gt;Node10 -->
<g id="edge9" class="edge"><title>Node7&#45;&gt;Node10</title>
<path fill="none" stroke="midnightblue" d="M132.201,-46.3956C135.213,-37.362 138.688,-26.936 141.083,-19.7511"/>
<polygon fill="midnightblue" stroke="midnightblue" points="128.814,-45.4893 128.972,-56.083 135.455,-47.703 128.814,-45.4893"/>
</g>
<!-- Node12&#45;&gt;Node9 -->
<g id="edge12" class="edge"><title>Node12&#45;&gt;Node9</title>
<path fill="none" stroke="midnightblue" d="M382.469,-108.244C365.337,-100.427 344.371,-89.3585 328,-76 307.242,-59.062 288.944,-32.8933 280.293,-19.5132"/>
<polygon fill="midnightblue" stroke="midnightblue" points="381.487,-111.635 392.05,-112.463 384.309,-105.229 381.487,-111.635"/>
</g>
<!-- Node12&#45;&gt;Node11 -->
<g id="edge13" class="edge"><title>Node12&#45;&gt;Node11</title>
<path fill="none" stroke="midnightblue" d="M375.046,-109.568C340.335,-99.381 290.323,-84.7034 259.019,-75.5164"/>
<polygon fill="midnightblue" stroke="midnightblue" points="374.264,-112.986 384.845,-112.444 376.235,-106.269 374.264,-112.986"/>
</g>
<!-- Node12&#45;&gt;Node13 -->
<g id="edge14" class="edge"><title>Node12&#45;&gt;Node13</title>
<path fill="none" stroke="midnightblue" d="M398.924,-104.718C390.111,-95.1997 379.334,-83.5608 372.103,-75.7511"/>
<polygon fill="midnightblue" stroke="midnightblue" points="396.381,-107.123 405.744,-112.083 401.518,-102.367 396.381,-107.123"/>
</g>
<!-- Node14 -->
<g id="node14" class="node"><title>Node14</title>
<g id="a_node14"><a xlink:href="../../da/d5a/OpenDriveParser_8cpp.html" target="_top" xlink:title="OpenDriveParser.cpp">
<polygon fill="white" stroke="black" points="409,-56.5 409,-75.5 519,-75.5 519,-56.5 409,-56.5"/>
<text text-anchor="middle" x="464" y="-63.5" font-family="Helvetica,sans-Serif" font-size="10.00">OpenDriveParser.cpp</text>
</a>
</g>
</g>
<!-- Node12&#45;&gt;Node14 -->
<g id="edge15" class="edge"><title>Node12&#45;&gt;Node14</title>
<path fill="none" stroke="midnightblue" d="M429.076,-104.718C437.889,-95.1997 448.666,-83.5608 455.897,-75.7511"/>
<polygon fill="midnightblue" stroke="midnightblue" points="426.482,-102.367 422.256,-112.083 431.619,-107.123 426.482,-102.367"/>
</g>
<!-- Node15 -->
<g id="node15" class="node"><title>Node15</title>
<g id="a_node15"><a xlink:href="../../d1/dc0/test__opendrive_8cpp.html" target="_top" xlink:title="test_opendrive.cpp">
<polygon fill="white" stroke="black" points="537.5,-56.5 537.5,-75.5 636.5,-75.5 636.5,-56.5 537.5,-56.5"/>
<text text-anchor="middle" x="587" y="-63.5" font-family="Helvetica,sans-Serif" font-size="10.00">test_opendrive.cpp</text>
</a>
</g>
</g>
<!-- Node12&#45;&gt;Node15 -->
<g id="edge16" class="edge"><title>Node12&#45;&gt;Node15</title>
<path fill="none" stroke="midnightblue" d="M451.047,-109.436C483.664,-99.2551 530.41,-84.664 559.716,-75.5164"/>
<polygon fill="midnightblue" stroke="midnightblue" points="449.915,-106.123 441.412,-112.444 452.001,-112.805 449.915,-106.123"/>
</g>
<!-- Node16&#45;&gt;Node13 -->
<g id="edge21" class="edge"><title>Node16&#45;&gt;Node13</title>
<path fill="none" stroke="midnightblue" d="M823.305,-119.422C748.108,-115.434 557.26,-103.265 400,-76 397.08,-75.4937 394.047,-74.8788 391.036,-74.2107"/>
<polygon fill="midnightblue" stroke="midnightblue" points="823.375,-122.93 833.542,-119.952 823.737,-115.939 823.375,-122.93"/>
</g>
<!-- Node17 -->
<g id="node17" class="node"><title>Node17</title>
<g id="a_node17"><a xlink:href="../../d2/d0c/Simulator_8cpp.html" target="_top" xlink:title="Simulator.cpp">
<polygon fill="white" stroke="black" points="654.5,-56.5 654.5,-75.5 731.5,-75.5 731.5,-56.5 654.5,-56.5"/>
<text text-anchor="middle" x="693" y="-63.5" font-family="Helvetica,sans-Serif" font-size="10.00">Simulator.cpp</text>
</a>
</g>
</g>
<!-- Node16&#45;&gt;Node17 -->
<g id="edge18" class="edge"><title>Node16&#45;&gt;Node17</title>
<path fill="none" stroke="midnightblue" d="M823.868,-110.355C793.101,-100.162 747.273,-84.9799 718.811,-75.5509"/>
<polygon fill="midnightblue" stroke="midnightblue" points="823.084,-113.782 833.677,-113.605 825.285,-107.137 823.084,-113.782"/>
</g>
<!-- Node18 -->
<g id="node18" class="node"><title>Node18</title>
<g id="a_node18"><a xlink:href="../../df/de3/LibCarla_2source_2carla_2client_2GnssSensor_8cpp.html" target="_top" xlink:title="GnssSensor.cpp">
<polygon fill="white" stroke="black" points="749.5,-56.5 749.5,-75.5 838.5,-75.5 838.5,-56.5 749.5,-56.5"/>
<text text-anchor="middle" x="794" y="-63.5" font-family="Helvetica,sans-Serif" font-size="10.00">GnssSensor.cpp</text>
</a>
</g>
</g>
<!-- Node16&#45;&gt;Node18 -->
<g id="edge19" class="edge"><title>Node16&#45;&gt;Node18</title>
<path fill="none" stroke="midnightblue" d="M838.246,-105.537C827.192,-95.9087 813.369,-83.8694 804.143,-75.8339"/>
<polygon fill="midnightblue" stroke="midnightblue" points="836.199,-108.395 846.039,-112.324 840.797,-103.117 836.199,-108.395"/>
</g>
<!-- Node19 -->
<g id="node19" class="node"><title>Node19</title>
<g id="a_node19"><a xlink:href="../../dd/dbc/LibCarla_2source_2carla_2client_2LaneInvasionSensor_8cpp.html" target="_top" xlink:title="LaneInvasionSensor.cpp">
<polygon fill="white" stroke="black" points="856,-56.5 856,-75.5 980,-75.5 980,-56.5 856,-56.5"/>
<text text-anchor="middle" x="918" y="-63.5" font-family="Helvetica,sans-Serif" font-size="10.00">LaneInvasionSensor.cpp</text>
</a>
</g>
</g>
<!-- Node16&#45;&gt;Node19 -->
<g id="edge20" class="edge"><title>Node16&#45;&gt;Node19</title>
<path fill="none" stroke="midnightblue" d="M873.754,-105.537C884.808,-95.9087 898.631,-83.8694 907.857,-75.8339"/>
<polygon fill="midnightblue" stroke="midnightblue" points="871.203,-103.117 865.961,-112.324 875.801,-108.395 871.203,-103.117"/>
</g>
<!-- Node20 -->
<g id="node20" class="node"><title>Node20</title>
<g id="a_node20"><a xlink:href="../../d7/def/client_2Waypoint_8cpp.html" target="_top" xlink:title="Waypoint.cpp">
<polygon fill="white" stroke="black" points="998.5,-56.5 998.5,-75.5 1075.5,-75.5 1075.5,-56.5 998.5,-56.5"/>
<text text-anchor="middle" x="1037" y="-63.5" font-family="Helvetica,sans-Serif" font-size="10.00">Waypoint.cpp</text>
</a>
</g>
</g>
<!-- Node16&#45;&gt;Node20 -->
<g id="edge22" class="edge"><title>Node16&#45;&gt;Node20</title>
<path fill="none" stroke="midnightblue" d="M888.115,-111.419C922.223,-101.243 975.635,-85.3078 1008.36,-75.5453"/>
<polygon fill="midnightblue" stroke="midnightblue" points="886.776,-108.166 878.194,-114.379 888.777,-114.873 886.776,-108.166"/>
</g>
<!-- Node21&#45;&gt;Node14 -->
<g id="edge25" class="edge"><title>Node21&#45;&gt;Node14</title>
<path fill="none" stroke="midnightblue" d="M1366.56,-120.075C1233.81,-117.166 847.453,-106.513 528,-76 525.096,-75.7226 522.122,-75.4087 519.121,-75.0686"/>
<polygon fill="midnightblue" stroke="midnightblue" points="1366.7,-123.579 1376.78,-120.294 1366.85,-116.58 1366.7,-123.579"/>
</g>
<!-- Node21&#45;&gt;Node15 -->
<g id="edge36" class="edge"><title>Node21&#45;&gt;Node15</title>
<path fill="none" stroke="midnightblue" d="M1366.67,-119.803C1246.04,-116.411 917.322,-105.029 645,-76 642.264,-75.7084 639.46,-75.3781 636.633,-75.0207"/>
<polygon fill="midnightblue" stroke="midnightblue" points="1366.59,-123.302 1376.68,-120.079 1366.78,-116.305 1366.59,-123.302"/>
</g>
<!-- Node22 -->
<g id="node22" class="node"><title>Node22</title>
<g id="a_node22"><a xlink:href="../../d8/d49/GeometryParser_8cpp.html" target="_top" xlink:title="GeometryParser.cpp">
<polygon fill="white" stroke="black" points="1093.5,-56.5 1093.5,-75.5 1200.5,-75.5 1200.5,-56.5 1093.5,-56.5"/>
<text text-anchor="middle" x="1147" y="-63.5" font-family="Helvetica,sans-Serif" font-size="10.00">GeometryParser.cpp</text>
</a>
</g>
</g>
<!-- Node21&#45;&gt;Node22 -->
<g id="edge26" class="edge"><title>Node21&#45;&gt;Node22</title>
<path fill="none" stroke="midnightblue" d="M1366.9,-111.473C1316.54,-101.288 1237.43,-85.2887 1189.09,-75.5118"/>
<polygon fill="midnightblue" stroke="midnightblue" points="1366.38,-114.94 1376.87,-113.492 1367.77,-108.079 1366.38,-114.94"/>
</g>
<!-- Node23 -->
<g id="node23" class="node"><title>Node23</title>
<g id="a_node23"><a xlink:href="../../d9/d3e/GeoReferenceParser_8cpp.html" target="_top" xlink:title="GeoReferenceParser.cpp">
<polygon fill="white" stroke="black" points="1218.5,-56.5 1218.5,-75.5 1345.5,-75.5 1345.5,-56.5 1218.5,-56.5"/>
<text text-anchor="middle" x="1282" y="-63.5" font-family="Helvetica,sans-Serif" font-size="10.00">GeoReferenceParser.cpp</text>
</a>
</g>
</g>
<!-- Node21&#45;&gt;Node23 -->
<g id="edge27" class="edge"><title>Node21&#45;&gt;Node23</title>
<path fill="none" stroke="midnightblue" d="M1383.78,-108.638C1359.01,-98.504 1324.6,-84.4274 1302.82,-75.5164"/>
<polygon fill="midnightblue" stroke="midnightblue" points="1382.5,-111.897 1393.08,-112.444 1385.15,-105.418 1382.5,-111.897"/>
</g>
<!-- Node24 -->
<g id="node24" class="node"><title>Node24</title>
<g id="a_node24"><a xlink:href="../../d6/d98/JunctionParser_8cpp.html" target="_top" xlink:title="JunctionParser.cpp">
<polygon fill="white" stroke="black" points="1363.5,-56.5 1363.5,-75.5 1464.5,-75.5 1464.5,-56.5 1363.5,-56.5"/>
<text text-anchor="middle" x="1414" y="-63.5" font-family="Helvetica,sans-Serif" font-size="10.00">JunctionParser.cpp</text>
</a>
</g>
</g>
<!-- Node21&#45;&gt;Node24 -->
<g id="edge28" class="edge"><title>Node21&#45;&gt;Node24</title>
<path fill="none" stroke="midnightblue" d="M1414,-101.805C1414,-92.9102 1414,-82.7798 1414,-75.7511"/>
<polygon fill="midnightblue" stroke="midnightblue" points="1410.5,-102.083 1414,-112.083 1417.5,-102.083 1410.5,-102.083"/>
</g>
<!-- Node25 -->
<g id="node25" class="node"><title>Node25</title>
<g id="a_node25"><a xlink:href="../../d0/d2e/LaneParser_8cpp.html" target="_top" xlink:title="LaneParser.cpp">
<polygon fill="white" stroke="black" points="1482.5,-56.5 1482.5,-75.5 1567.5,-75.5 1567.5,-56.5 1482.5,-56.5"/>
<text text-anchor="middle" x="1525" y="-63.5" font-family="Helvetica,sans-Serif" font-size="10.00">LaneParser.cpp</text>
</a>
</g>
</g>
<!-- Node21&#45;&gt;Node25 -->
<g id="edge29" class="edge"><title>Node21&#45;&gt;Node25</title>
<path fill="none" stroke="midnightblue" d="M1441.01,-107.862C1461.59,-97.8492 1489.34,-84.3458 1507.21,-75.6545"/>
<polygon fill="midnightblue" stroke="midnightblue" points="1439.3,-104.802 1431.83,-112.324 1442.36,-111.097 1439.3,-104.802"/>
</g>
<!-- Node26 -->
<g id="node26" class="node"><title>Node26</title>
<g id="a_node26"><a xlink:href="../../d9/df7/ObjectParser_8cpp.html" target="_top" xlink:title="ObjectParser.cpp">
<polygon fill="white" stroke="black" points="1586,-56.5 1586,-75.5 1678,-75.5 1678,-56.5 1586,-56.5"/>
<text text-anchor="middle" x="1632" y="-63.5" font-family="Helvetica,sans-Serif" font-size="10.00">ObjectParser.cpp</text>
</a>
</g>
</g>
<!-- Node21&#45;&gt;Node26 -->
<g id="edge30" class="edge"><title>Node21&#45;&gt;Node26</title>
<path fill="none" stroke="midnightblue" d="M1458.31,-110.024C1499.49,-99.8232 1559.97,-84.8414 1597.62,-75.5164"/>
<polygon fill="midnightblue" stroke="midnightblue" points="1457.41,-106.642 1448.54,-112.444 1459.09,-113.436 1457.41,-106.642"/>
</g>
<!-- Node27 -->
<g id="node27" class="node"><title>Node27</title>
<g id="a_node27"><a xlink:href="../../d4/d6a/ProfilesParser_8cpp.html" target="_top" xlink:title="ProfilesParser.cpp">
<polygon fill="white" stroke="black" points="1696.5,-56.5 1696.5,-75.5 1793.5,-75.5 1793.5,-56.5 1696.5,-56.5"/>
<text text-anchor="middle" x="1745" y="-63.5" font-family="Helvetica,sans-Serif" font-size="10.00">ProfilesParser.cpp</text>
</a>
</g>
</g>
<!-- Node21&#45;&gt;Node27 -->
<g id="edge31" class="edge"><title>Node21&#45;&gt;Node27</title>
<path fill="none" stroke="midnightblue" d="M1461.27,-111.869C1505.57,-104.407 1627.43,-85.3359 1696.35,-74.5814"/>
<polygon fill="midnightblue" stroke="midnightblue" points="1460.4,-108.467 1451.14,-113.613 1461.58,-115.366 1460.4,-108.467"/>
</g>
<!-- Node28 -->
<g id="node28" class="node"><title>Node28</title>
<g id="a_node28"><a xlink:href="../../d7/d69/RoadParser_8cpp.html" target="_top" xlink:title="RoadParser.cpp">
<polygon fill="white" stroke="black" points="1811.5,-56.5 1811.5,-75.5 1898.5,-75.5 1898.5,-56.5 1811.5,-56.5"/>
<text text-anchor="middle" x="1855" y="-63.5" font-family="Helvetica,sans-Serif" font-size="10.00">RoadParser.cpp</text>
</a>
</g>
</g>
<!-- Node21&#45;&gt;Node28 -->
<g id="edge32" class="edge"><title>Node21&#45;&gt;Node28</title>
<path fill="none" stroke="midnightblue" d="M1461.26,-111.935C1612.89,-89.6136 1653.84,-96.3573 1802,-76 1805.05,-75.5808 1808.2,-75.1201 1811.36,-74.6356"/>
<polygon fill="midnightblue" stroke="midnightblue" points="1460.48,-108.512 1451.11,-113.448 1461.51,-115.435 1460.48,-108.512"/>
</g>
<!-- Node29 -->
<g id="node29" class="node"><title>Node29</title>
<g id="a_node29"><a xlink:href="../../d1/d01/SignalParser_8cpp.html" target="_top" xlink:title="SignalParser.cpp">
<polygon fill="white" stroke="black" points="1916.5,-56.5 1916.5,-75.5 2007.5,-75.5 2007.5,-56.5 1916.5,-56.5"/>
<text text-anchor="middle" x="1962" y="-63.5" font-family="Helvetica,sans-Serif" font-size="10.00">SignalParser.cpp</text>
</a>
</g>
</g>
<!-- Node21&#45;&gt;Node29 -->
<g id="edge33" class="edge"><title>Node21&#45;&gt;Node29</title>
<path fill="none" stroke="midnightblue" d="M1461.25,-111.983C1659.21,-85.3187 1712.44,-99.713 1907,-76 1910.07,-75.6254 1913.24,-75.2038 1916.42,-74.7529"/>
<polygon fill="midnightblue" stroke="midnightblue" points="1460.53,-108.548 1451.1,-113.369 1461.48,-115.484 1460.53,-108.548"/>
</g>
<!-- Node30 -->
<g id="node30" class="node"><title>Node30</title>
<g id="a_node30"><a xlink:href="../../d3/d28/TrafficGroupParser_8cpp.html" target="_top" xlink:title="TrafficGroupParser.cpp">
<polygon fill="white" stroke="black" points="2026,-56.5 2026,-75.5 2144,-75.5 2144,-56.5 2026,-56.5"/>
<text text-anchor="middle" x="2085" y="-63.5" font-family="Helvetica,sans-Serif" font-size="10.00">TrafficGroupParser.cpp</text>
</a>
</g>
</g>
<!-- Node21&#45;&gt;Node30 -->
<g id="edge34" class="edge"><title>Node21&#45;&gt;Node30</title>
<path fill="none" stroke="midnightblue" d="M1461.06,-112.034C1707.29,-80.6767 1772.79,-99.71 2016,-76 2019.25,-75.6835 2022.58,-75.3337 2025.93,-74.961"/>
<polygon fill="midnightblue" stroke="midnightblue" points="1460.56,-108.569 1451.09,-113.318 1461.46,-115.512 1460.56,-108.569"/>
</g>
<!-- Node21&#45;&gt;Node31 -->
<g id="edge35" class="edge"><title>Node21&#45;&gt;Node31</title>
<path fill="none" stroke="midnightblue" d="M1461.16,-112.047C1767.86,-75.0737 1849.85,-110.49 2153,-76 2155.86,-75.6748 2158.8,-75.2902 2161.76,-74.8662"/>
<polygon fill="midnightblue" stroke="midnightblue" points="1460.59,-108.591 1451.08,-113.277 1461.44,-115.539 1460.59,-108.591"/>
</g>
<!-- Node37&#45;&gt;Node2 -->
<g id="edge45" class="edge"><title>Node37&#45;&gt;Node2</title>
<path fill="none" stroke="midnightblue" d="M2196.38,-388.503C2172.38,-378.38 2139.22,-364.388 2118.19,-355.516"/>
<polygon fill="midnightblue" stroke="midnightblue" points="2195.14,-391.781 2205.72,-392.444 2197.86,-385.332 2195.14,-391.781"/>
</g>
<!-- Node37&#45;&gt;Node31 -->
<g id="edge46" class="edge"><title>Node37&#45;&gt;Node31</title>
<path fill="none" stroke="midnightblue" d="M2219.96,-382.447C2213.45,-360.76 2204,-323.672 2204,-291 2204,-291 2204,-291 2204,-177 2204,-139.188 2204,-94.0636 2204,-75.5578"/>
<polygon fill="midnightblue" stroke="midnightblue" points="2216.71,-383.778 2223.03,-392.279 2223.39,-381.69 2216.71,-383.778"/>
</g>
<!-- Node38&#45;&gt;Node3 -->
<g id="edge48" class="edge"><title>Node38&#45;&gt;Node3</title>
<path fill="none" stroke="midnightblue" d="M2235.86,-334.069C2189.45,-322.83 2118.92,-305.751 2082.17,-296.854"/>
<polygon fill="midnightblue" stroke="midnightblue" points="2235.12,-337.492 2245.66,-336.444 2236.77,-330.688 2235.12,-337.492"/>
</g>
<!-- Node38&#45;&gt;Node31 -->
<g id="edge49" class="edge"><title>Node38&#45;&gt;Node31</title>
<path fill="none" stroke="midnightblue" d="M2275.51,-326.408C2269.59,-304.685 2261,-267.562 2261,-235 2261,-235 2261,-235 2261,-177 2261,-135.058 2227.93,-93.1882 2212.17,-75.6161"/>
<polygon fill="midnightblue" stroke="midnightblue" points="2272.21,-327.592 2278.3,-336.258 2278.94,-325.683 2272.21,-327.592"/>
</g>
</g>
</svg>
