<?xml version="1.0" encoding="UTF-8" standalone="no"?>
<!DOCTYPE svg PUBLIC "-//W3C//DTD SVG 1.1//EN"
 "http://www.w3.org/Graphics/SVG/1.1/DTD/svg11.dtd">
<!-- Generated by graphviz version 2.40.1 (20161225.0304)
 -->
<!-- Title: CarlaRecorderWalkerBones::Read Pages: 1 -->
<svg width="2047pt" height="432pt"
 viewBox="0.00 0.00 2047.00 431.50" xmlns="http://www.w3.org/2000/svg" xmlns:xlink="http://www.w3.org/1999/xlink">
<g id="graph0" class="graph" transform="scale(1 1) rotate(0) translate(4 427.5)">
<title>CarlaRecorderWalkerBones::Read</title>
<polygon fill="#ffffff" stroke="transparent" points="-4,4 -4,-427.5 2043,-427.5 2043,4 -4,4"/>
<!-- Node9 -->
<g id="node1" class="node">
<title>Node9</title>
<polygon fill="#bfbfbf" stroke="#000000" points="0,-258 0,-288 149,-288 149,-258 0,-258"/>
<text text-anchor="start" x="8" y="-276" font-family="Helvetica,sans-Serif" font-size="10.00" fill="#000000">CarlaRecorderWalkerBones</text>
<text text-anchor="middle" x="74.5" y="-265" font-family="Helvetica,sans-Serif" font-size="10.00" fill="#000000">::Read</text>
</g>
<!-- Node10 -->
<g id="node2" class="node">
<title>Node10</title>
<g id="a_node2"><a xlink:href="../../dc/dc6/classCarlaReplayer.html#a48bd30916caba300077a56841523ac9c" target="_top" xlink:title="CarlaReplayer::ProcessWalker\lBones">
<polygon fill="#ffffff" stroke="#000000" points="185,-234 185,-264 347,-264 347,-234 185,-234"/>
<text text-anchor="start" x="193" y="-252" font-family="Helvetica,sans-Serif" font-size="10.00" fill="#000000">CarlaReplayer::ProcessWalker</text>
<text text-anchor="middle" x="266" y="-241" font-family="Helvetica,sans-Serif" font-size="10.00" fill="#000000">Bones</text>
</a>
</g>
</g>
<!-- Node9&#45;&gt;Node10 -->
<g id="edge1" class="edge">
<title>Node9&#45;&gt;Node10</title>
<path fill="none" stroke="#191970" d="M159.1011,-262.3972C167.6934,-261.3204 176.407,-260.2284 184.9603,-259.1564"/>
<polygon fill="#191970" stroke="#191970" points="158.5744,-258.9358 149.0872,-263.6523 159.4449,-265.8815 158.5744,-258.9358"/>
</g>
<!-- Node37 -->
<g id="node29" class="node">
<title>Node37</title>
<g id="a_node29"><a xlink:href="../../df/d24/classCarlaRecorderQuery.html#afca6ea52a00461c2b4260c2763b81163" target="_top" xlink:title="CarlaRecorderQuery\l::QueryInfo">
<polygon fill="#ffffff" stroke="#000000" points="209,-331 209,-361 323,-361 323,-331 209,-331"/>
<text text-anchor="start" x="217" y="-349" font-family="Helvetica,sans-Serif" font-size="10.00" fill="#000000">CarlaRecorderQuery</text>
<text text-anchor="middle" x="266" y="-338" font-family="Helvetica,sans-Serif" font-size="10.00" fill="#000000">::QueryInfo</text>
</a>
</g>
</g>
<!-- Node9&#45;&gt;Node37 -->
<g id="edge38" class="edge">
<title>Node9&#45;&gt;Node37</title>
<path fill="none" stroke="#191970" d="M123.7589,-291.7775C155.6393,-303.9304 196.5997,-319.5445 226.3719,-330.8937"/>
<polygon fill="#191970" stroke="#191970" points="124.7698,-288.4173 114.1789,-288.1256 122.2763,-294.9581 124.7698,-288.4173"/>
</g>
<!-- Node11 -->
<g id="node3" class="node">
<title>Node11</title>
<g id="a_node3"><a xlink:href="../../dc/dc6/classCarlaReplayer.html#ae0a5643d88257bdceb9e12d5c33194cb" target="_top" xlink:title="CarlaReplayer::ProcessToTime">
<polygon fill="#ffffff" stroke="#000000" points="383,-144.5 383,-163.5 547,-163.5 547,-144.5 383,-144.5"/>
<text text-anchor="middle" x="465" y="-151.5" font-family="Helvetica,sans-Serif" font-size="10.00" fill="#000000">CarlaReplayer::ProcessToTime</text>
</a>
</g>
</g>
<!-- Node10&#45;&gt;Node11 -->
<g id="edge2" class="edge">
<title>Node10&#45;&gt;Node11</title>
<path fill="none" stroke="#191970" d="M306.6686,-229.5853C348.6909,-209.5245 412.5587,-179.0348 444.8287,-163.6295"/>
<polygon fill="#191970" stroke="#191970" points="305.0487,-226.4802 297.5321,-233.947 308.0644,-232.7973 305.0487,-226.4802"/>
</g>
<!-- Node12 -->
<g id="node4" class="node">
<title>Node12</title>
<g id="a_node4"><a xlink:href="../../dc/dc6/classCarlaReplayer.html#af627917f2c95135fb11b59af4f65dbf7" target="_top" xlink:title="CarlaReplayer::Stop">
<polygon fill="#ffffff" stroke="#000000" points="583,-120.5 583,-139.5 696,-139.5 696,-120.5 583,-120.5"/>
<text text-anchor="middle" x="639.5" y="-127.5" font-family="Helvetica,sans-Serif" font-size="10.00" fill="#000000">CarlaReplayer::Stop</text>
</a>
</g>
</g>
<!-- Node11&#45;&gt;Node12 -->
<g id="edge3" class="edge">
<title>Node11&#45;&gt;Node12</title>
<path fill="none" stroke="#191970" d="M505.8815,-142.5583C528.8353,-138.3813 557.8242,-134.2125 582.9296,-131.4159"/>
<polygon fill="#191970" stroke="#191970" points="504.9671,-139.1692 495.7954,-144.4731 506.2728,-146.0464 504.9671,-139.1692"/>
</g>
<!-- Node20 -->
<g id="node12" class="node">
<title>Node20</title>
<g id="a_node12"><a xlink:href="../../dc/dc6/classCarlaReplayer.html#a480fd94fedc2367d7f7f58f17f3cd5a4" target="_top" xlink:title="CarlaReplayer::ReplayFile">
<polygon fill="#ffffff" stroke="#000000" points="733,-.5 733,-19.5 873,-19.5 873,-.5 733,-.5"/>
<text text-anchor="middle" x="803" y="-7.5" font-family="Helvetica,sans-Serif" font-size="10.00" fill="#000000">CarlaReplayer::ReplayFile</text>
</a>
</g>
</g>
<!-- Node11&#45;&gt;Node20 -->
<g id="edge24" class="edge">
<title>Node11&#45;&gt;Node20</title>
<path fill="none" stroke="#191970" d="M494.164,-140.0704C542.903,-117.0026 644.2192,-69.95 732,-35 745.7196,-29.5375 761.161,-24.0264 774.131,-19.5739"/>
<polygon fill="#191970" stroke="#191970" points="492.395,-137.0357 484.8609,-144.4847 495.3958,-143.3598 492.395,-137.0357"/>
</g>
<!-- Node23 -->
<g id="node15" class="node">
<title>Node23</title>
<g id="a_node15"><a xlink:href="../../dc/dc6/classCarlaReplayer.html#ac70d3dbe1f79ffd25a695ec3bd2485e6" target="_top" xlink:title="CarlaReplayer::CheckPlay\lAfterMapLoaded">
<polygon fill="#ffffff" stroke="#000000" points="732,-191 732,-221 874,-221 874,-191 732,-191"/>
<text text-anchor="start" x="740" y="-209" font-family="Helvetica,sans-Serif" font-size="10.00" fill="#000000">CarlaReplayer::CheckPlay</text>
<text text-anchor="middle" x="803" y="-198" font-family="Helvetica,sans-Serif" font-size="10.00" fill="#000000">AfterMapLoaded</text>
</a>
</g>
</g>
<!-- Node11&#45;&gt;Node23 -->
<g id="edge25" class="edge">
<title>Node11&#45;&gt;Node23</title>
<path fill="none" stroke="#191970" d="M537.0866,-165.0902C594.5244,-173.9268 674.5221,-186.2342 731.7416,-195.0372"/>
<polygon fill="#191970" stroke="#191970" points="537.4104,-161.599 526.9944,-163.5376 536.3459,-168.5176 537.4104,-161.599"/>
</g>
<!-- Node28 -->
<g id="node20" class="node">
<title>Node28</title>
<g id="a_node20"><a xlink:href="../../dc/dc6/classCarlaReplayer.html#a4aeceb13aaa5dfcbf3ee42d7582262a4" target="_top" xlink:title="CarlaReplayer::Tick">
<polygon fill="#ffffff" stroke="#000000" points="584,-278.5 584,-297.5 695,-297.5 695,-278.5 584,-278.5"/>
<text text-anchor="middle" x="639.5" y="-285.5" font-family="Helvetica,sans-Serif" font-size="10.00" fill="#000000">CarlaReplayer::Tick</text>
</a>
</g>
</g>
<!-- Node11&#45;&gt;Node28 -->
<g id="edge26" class="edge">
<title>Node11&#45;&gt;Node28</title>
<path fill="none" stroke="#191970" d="M485.5516,-169.7818C522.1071,-197.853 597.3731,-255.6504 627.0641,-278.4504"/>
<polygon fill="#191970" stroke="#191970" points="487.6126,-166.9515 477.5496,-163.6369 483.3492,-172.5035 487.6126,-166.9515"/>
</g>
<!-- Node12&#45;&gt;Node11 -->
<g id="edge22" class="edge">
<title>Node12&#45;&gt;Node11</title>
<path fill="none" stroke="#191970" d="M598.4488,-141.4726C583.0498,-144.2711 564.9526,-147.0645 547.1403,-149.4425"/>
<polygon fill="#191970" stroke="#191970" points="599.4693,-144.8415 608.6419,-139.5394 598.1649,-137.9641 599.4693,-144.8415"/>
</g>
<!-- Node13 -->
<g id="node5" class="node">
<title>Node13</title>
<g id="a_node5"><a xlink:href="../../dc/d84/classUCarlaEpisode.html#a04380aa760fc6891f1c51cdbe7ddb856" target="_top" xlink:title="UCarlaEpisode::EndPlay">
<polygon fill="#ffffff" stroke="#000000" points="736.5,-76.5 736.5,-95.5 869.5,-95.5 869.5,-76.5 736.5,-76.5"/>
<text text-anchor="middle" x="803" y="-83.5" font-family="Helvetica,sans-Serif" font-size="10.00" fill="#000000">UCarlaEpisode::EndPlay</text>
</a>
</g>
</g>
<!-- Node12&#45;&gt;Node13 -->
<g id="edge4" class="edge">
<title>Node12&#45;&gt;Node13</title>
<path fill="none" stroke="#191970" d="M684.6658,-117.8453C710.8287,-110.8045 743.2899,-102.0688 767.5922,-95.5287"/>
<polygon fill="#191970" stroke="#191970" points="683.7239,-114.4741 674.9771,-120.4527 685.5431,-121.2337 683.7239,-114.4741"/>
</g>
<!-- Node15 -->
<g id="node7" class="node">
<title>Node15</title>
<g id="a_node7"><a xlink:href="../../dd/db9/classACarlaRecorder.html#a33fb5180defd8c9c1d3063eff52c7a37" target="_top" xlink:title="ACarlaRecorder::StopReplayer">
<polygon fill="#ffffff" stroke="#000000" points="1113,-114.5 1113,-133.5 1275,-133.5 1275,-114.5 1113,-114.5"/>
<text text-anchor="middle" x="1194" y="-121.5" font-family="Helvetica,sans-Serif" font-size="10.00" fill="#000000">ACarlaRecorder::StopReplayer</text>
</a>
</g>
</g>
<!-- Node12&#45;&gt;Node15 -->
<g id="edge6" class="edge">
<title>Node12&#45;&gt;Node15</title>
<path fill="none" stroke="#191970" d="M706.4191,-129.2759C808.498,-128.1713 1002.8175,-126.0687 1112.8119,-124.8785"/>
<polygon fill="#191970" stroke="#191970" points="706.1969,-125.778 696.2354,-129.3861 706.2727,-132.7776 706.1969,-125.778"/>
</g>
<!-- Node18 -->
<g id="node10" class="node">
<title>Node18</title>
<g id="a_node10"><a xlink:href="../../dd/db9/classACarlaRecorder.html#aba719596bd56c72a39f902f6e9a5d290" target="_top" xlink:title="ACarlaRecorder::Start">
<polygon fill="#ffffff" stroke="#000000" points="742.5,-152.5 742.5,-171.5 863.5,-171.5 863.5,-152.5 742.5,-152.5"/>
<text text-anchor="middle" x="803" y="-159.5" font-family="Helvetica,sans-Serif" font-size="10.00" fill="#000000">ACarlaRecorder::Start</text>
</a>
</g>
</g>
<!-- Node12&#45;&gt;Node18 -->
<g id="edge9" class="edge">
<title>Node12&#45;&gt;Node18</title>
<path fill="none" stroke="#191970" d="M698.1365,-141.4763C716.5423,-145.0786 736.6514,-149.0143 754.2923,-152.467"/>
<polygon fill="#191970" stroke="#191970" points="698.5988,-138.0004 688.1127,-139.5144 697.2542,-144.8701 698.5988,-138.0004"/>
</g>
<!-- Node12&#45;&gt;Node20 -->
<g id="edge12" class="edge">
<title>Node12&#45;&gt;Node20</title>
<path fill="none" stroke="#191970" d="M655.5242,-112.4916C679.5485,-86.3789 723.0482,-39.6745 732,-34 741.6709,-27.8697 753.0827,-23.1181 763.8958,-19.5216"/>
<polygon fill="#191970" stroke="#191970" points="652.6613,-110.4346 648.4769,-120.1681 657.8179,-115.1686 652.6613,-110.4346"/>
</g>
<!-- Node22 -->
<g id="node14" class="node">
<title>Node22</title>
<g id="a_node14"><a xlink:href="../../dc/dc6/classCarlaReplayer.html#a6dadadd7719c5e660d2e3d99b22f5961" target="_top" xlink:title="CarlaReplayer::~CarlaReplayer">
<polygon fill="#ffffff" stroke="#000000" points="910,-26.5 910,-45.5 1077,-45.5 1077,-26.5 910,-26.5"/>
<text text-anchor="middle" x="993.5" y="-33.5" font-family="Helvetica,sans-Serif" font-size="10.00" fill="#000000">CarlaReplayer::~CarlaReplayer</text>
</a>
</g>
</g>
<!-- Node12&#45;&gt;Node22 -->
<g id="edge23" class="edge">
<title>Node12&#45;&gt;Node22</title>
<path fill="none" stroke="#191970" d="M657.683,-113.6482C675.3255,-98.8007 703.5367,-77.6473 732,-67 788.9498,-45.6967 857.3074,-38.1616 909.8479,-35.8387"/>
<polygon fill="#191970" stroke="#191970" points="655.1962,-111.1712 649.9163,-120.3567 659.7719,-116.4687 655.1962,-111.1712"/>
</g>
<!-- Node12&#45;&gt;Node23 -->
<g id="edge16" class="edge">
<title>Node12&#45;&gt;Node23</title>
<path fill="none" stroke="#191970" d="M663.7216,-144.802C682.0604,-155.649 708.0915,-170.2882 732,-181 739.8711,-184.5265 748.4029,-187.8964 756.7314,-190.9559"/>
<polygon fill="#191970" stroke="#191970" points="665.5115,-141.7943 655.1327,-139.6661 661.919,-147.8022 665.5115,-141.7943"/>
</g>
<!-- Node14 -->
<g id="node6" class="node">
<title>Node14</title>
<g id="a_node6"><a xlink:href="../../db/de5/classACarlaGameModeBase.html#a8e61df047eac428453a627a6de9ace75" target="_top" xlink:title="ACarlaGameModeBase\l::EndPlay">
<polygon fill="#ffffff" stroke="#000000" points="929.5,-65 929.5,-95 1057.5,-95 1057.5,-65 929.5,-65"/>
<text text-anchor="start" x="937.5" y="-83" font-family="Helvetica,sans-Serif" font-size="10.00" fill="#000000">ACarlaGameModeBase</text>
<text text-anchor="middle" x="993.5" y="-72" font-family="Helvetica,sans-Serif" font-size="10.00" fill="#000000">::EndPlay</text>
</a>
</g>
</g>
<!-- Node13&#45;&gt;Node14 -->
<g id="edge5" class="edge">
<title>Node13&#45;&gt;Node14</title>
<path fill="none" stroke="#191970" d="M879.7777,-83.5818C896.2687,-83.0624 913.5278,-82.5188 929.4741,-82.0166"/>
<polygon fill="#191970" stroke="#191970" points="879.5125,-80.0883 869.6277,-83.9015 879.7329,-87.0849 879.5125,-80.0883"/>
</g>
<!-- Node16 -->
<g id="node8" class="node">
<title>Node16</title>
<g id="a_node8"><a xlink:href="../../d7/d97/classFCarlaServer_1_1FPimpl.html#a675a6b572112a21e8bc011dddfd0de86" target="_top" xlink:title="FCarlaServer::FPimpl\l::BindActions">
<polygon fill="#ffffff" stroke="#000000" points="1334.5,-147 1334.5,-177 1452.5,-177 1452.5,-147 1334.5,-147"/>
<text text-anchor="start" x="1342.5" y="-165" font-family="Helvetica,sans-Serif" font-size="10.00" fill="#000000">FCarlaServer::FPimpl</text>
<text text-anchor="middle" x="1393.5" y="-154" font-family="Helvetica,sans-Serif" font-size="10.00" fill="#000000">::BindActions</text>
</a>
</g>
</g>
<!-- Node15&#45;&gt;Node16 -->
<g id="edge7" class="edge">
<title>Node15&#45;&gt;Node16</title>
<path fill="none" stroke="#191970" d="M1253.9579,-135.4206C1279.3453,-140.2562 1308.8457,-145.8754 1334.1651,-150.6981"/>
<polygon fill="#191970" stroke="#191970" points="1254.5631,-131.973 1244.0848,-133.54 1253.2532,-138.8493 1254.5631,-131.973"/>
</g>
<!-- Node17 -->
<g id="node9" class="node">
<title>Node17</title>
<g id="a_node9"><a xlink:href="../../d7/d97/classFCarlaServer_1_1FPimpl.html#ab9ff29fc81bd2f9a14677941c7f7b62d" target="_top" xlink:title="FCarlaServer::FPimpl\l::FPimpl">
<polygon fill="#ffffff" stroke="#000000" points="1530.5,-147 1530.5,-177 1648.5,-177 1648.5,-147 1530.5,-147"/>
<text text-anchor="start" x="1538.5" y="-165" font-family="Helvetica,sans-Serif" font-size="10.00" fill="#000000">FCarlaServer::FPimpl</text>
<text text-anchor="middle" x="1589.5" y="-154" font-family="Helvetica,sans-Serif" font-size="10.00" fill="#000000">::FPimpl</text>
</a>
</g>
</g>
<!-- Node16&#45;&gt;Node17 -->
<g id="edge8" class="edge">
<title>Node16&#45;&gt;Node17</title>
<path fill="none" stroke="#191970" d="M1462.8495,-162C1484.857,-162 1508.9781,-162 1530.2105,-162"/>
<polygon fill="#191970" stroke="#191970" points="1462.5723,-158.5001 1452.5723,-162 1462.5722,-165.5001 1462.5723,-158.5001"/>
</g>
<!-- Node19 -->
<g id="node11" class="node">
<title>Node19</title>
<g id="a_node11"><a xlink:href="../../dc/d84/classUCarlaEpisode.html#a1059ce6d102804115b3243de46d46bec" target="_top" xlink:title="UCarlaEpisode::StartRecorder">
<polygon fill="#ffffff" stroke="#000000" points="1114,-152.5 1114,-171.5 1274,-171.5 1274,-152.5 1114,-152.5"/>
<text text-anchor="middle" x="1194" y="-159.5" font-family="Helvetica,sans-Serif" font-size="10.00" fill="#000000">UCarlaEpisode::StartRecorder</text>
</a>
</g>
</g>
<!-- Node18&#45;&gt;Node19 -->
<g id="edge10" class="edge">
<title>Node18&#45;&gt;Node19</title>
<path fill="none" stroke="#191970" d="M873.8032,-162C941.4481,-162 1043.2787,-162 1113.8667,-162"/>
<polygon fill="#191970" stroke="#191970" points="873.6648,-158.5001 863.6647,-162 873.6647,-165.5001 873.6648,-158.5001"/>
</g>
<!-- Node19&#45;&gt;Node16 -->
<g id="edge11" class="edge">
<title>Node19&#45;&gt;Node16</title>
<path fill="none" stroke="#191970" d="M1284.6895,-162C1301.5042,-162 1318.6651,-162 1334.2399,-162"/>
<polygon fill="#191970" stroke="#191970" points="1284.282,-158.5001 1274.2819,-162 1284.2819,-165.5001 1284.282,-158.5001"/>
</g>
<!-- Node21 -->
<g id="node13" class="node">
<title>Node21</title>
<g id="a_node13"><a xlink:href="../../dd/db9/classACarlaRecorder.html#a5dc891241c275eedcf6b1f189751520b" target="_top" xlink:title="ACarlaRecorder::ReplayFile">
<polygon fill="#ffffff" stroke="#000000" points="1120.5,-32.5 1120.5,-51.5 1267.5,-51.5 1267.5,-32.5 1120.5,-32.5"/>
<text text-anchor="middle" x="1194" y="-39.5" font-family="Helvetica,sans-Serif" font-size="10.00" fill="#000000">ACarlaRecorder::ReplayFile</text>
</a>
</g>
</g>
<!-- Node20&#45;&gt;Node21 -->
<g id="edge13" class="edge">
<title>Node20&#45;&gt;Node21</title>
<path fill="none" stroke="#191970" d="M883.4171,-8.1564C938.1697,-7.8552 1012.1865,-9.3146 1077,-17 1104.4333,-20.253 1134.9415,-26.8737 1157.9249,-32.4849"/>
<polygon fill="#191970" stroke="#191970" points="883.0514,-4.659 873.0785,-8.2353 883.105,-11.6588 883.0514,-4.659"/>
</g>
<!-- Node20&#45;&gt;Node22 -->
<g id="edge15" class="edge">
<title>Node20&#45;&gt;Node22</title>
<path fill="none" stroke="#191970" d="M883.0663,-20.9277C896.5521,-22.7683 910.4547,-24.6657 923.655,-26.4673"/>
<polygon fill="#191970" stroke="#191970" points="883.2349,-17.4183 872.8535,-19.5338 882.2883,-24.354 883.2349,-17.4183"/>
</g>
<!-- Node21&#45;&gt;Node16 -->
<g id="edge14" class="edge">
<title>Node21&#45;&gt;Node16</title>
<path fill="none" stroke="#191970" d="M1218.9456,-57.0049C1257.2766,-80.0611 1330.2355,-123.9461 1368.5619,-146.9996"/>
<polygon fill="#191970" stroke="#191970" points="1220.362,-53.7725 1209.9887,-51.6173 1216.7539,-59.771 1220.362,-53.7725"/>
</g>
<!-- Node24 -->
<g id="node16" class="node">
<title>Node24</title>
<g id="a_node16"><a xlink:href="../../dc/d49/classFCarlaEngine.html#ab4c918e4d4855a26ab57c4bb79ad4645" target="_top" xlink:title="FCarlaEngine::NotifyBegin\lEpisode">
<polygon fill="#ffffff" stroke="#000000" points="1321.5,-292 1321.5,-322 1465.5,-322 1465.5,-292 1321.5,-292"/>
<text text-anchor="start" x="1329.5" y="-310" font-family="Helvetica,sans-Serif" font-size="10.00" fill="#000000">FCarlaEngine::NotifyBegin</text>
<text text-anchor="middle" x="1393.5" y="-299" font-family="Helvetica,sans-Serif" font-size="10.00" fill="#000000">Episode</text>
</a>
</g>
</g>
<!-- Node23&#45;&gt;Node24 -->
<g id="edge17" class="edge">
<title>Node23&#45;&gt;Node24</title>
<path fill="none" stroke="#191970" d="M877.1054,-223.2541C888.1105,-225.6326 899.3349,-227.9568 910,-230 1055.2562,-257.8284 1226.4197,-283.3997 1321.168,-296.926"/>
<polygon fill="#191970" stroke="#191970" points="877.5998,-219.7795 867.0827,-221.061 876.1034,-226.6177 877.5998,-219.7795"/>
</g>
<!-- Node25 -->
<g id="node17" class="node">
<title>Node25</title>
<g id="a_node17"><a xlink:href="../../db/de5/classACarlaGameModeBase.html#a3909b055b351f69d7ad1e39a42e72e3d" target="_top" xlink:title="ACarlaGameModeBase\l::BeginPlay">
<polygon fill="#ffffff" stroke="#000000" points="929.5,-191 929.5,-221 1057.5,-221 1057.5,-191 929.5,-191"/>
<text text-anchor="start" x="937.5" y="-209" font-family="Helvetica,sans-Serif" font-size="10.00" fill="#000000">ACarlaGameModeBase</text>
<text text-anchor="middle" x="993.5" y="-198" font-family="Helvetica,sans-Serif" font-size="10.00" fill="#000000">::BeginPlay</text>
</a>
</g>
</g>
<!-- Node23&#45;&gt;Node25 -->
<g id="edge18" class="edge">
<title>Node23&#45;&gt;Node25</title>
<path fill="none" stroke="#191970" d="M884.4829,-206C899.4612,-206 914.9036,-206 929.286,-206"/>
<polygon fill="#191970" stroke="#191970" points="884.2061,-202.5001 874.2061,-206 884.206,-209.5001 884.2061,-202.5001"/>
</g>
<!-- Node26 -->
<g id="node18" class="node">
<title>Node26</title>
<g id="a_node18"><a xlink:href="../../dc/dc6/classCarlaReplayer.html#a47b21aa77b6cdedc32211364843a3173" target="_top" xlink:title="CarlaReplayer::SetIgnoreHero">
<polygon fill="#ffffff" stroke="#000000" points="913,-278.5 913,-297.5 1074,-297.5 1074,-278.5 913,-278.5"/>
<text text-anchor="middle" x="993.5" y="-285.5" font-family="Helvetica,sans-Serif" font-size="10.00" fill="#000000">CarlaReplayer::SetIgnoreHero</text>
</a>
</g>
</g>
<!-- Node23&#45;&gt;Node26 -->
<g id="edge19" class="edge">
<title>Node23&#45;&gt;Node26</title>
<path fill="none" stroke="#191970" d="M836.042,-226.3365C856.7383,-238.4556 884.2758,-253.4769 910,-264 923.9605,-269.7109 939.7555,-274.6222 953.8215,-278.4873"/>
<polygon fill="#191970" stroke="#191970" points="837.7181,-223.2614 827.3315,-221.171 834.1475,-229.2823 837.7181,-223.2614"/>
</g>
<!-- Node27 -->
<g id="node19" class="node">
<title>Node27</title>
<g id="a_node19"><a xlink:href="../../dd/db9/classACarlaRecorder.html#aa4e9ff291f4b6b58c2313b4985b94443" target="_top" xlink:title="ACarlaRecorder::SetReplayer\lIgnoreHero">
<polygon fill="#ffffff" stroke="#000000" points="1116,-191 1116,-221 1272,-221 1272,-191 1116,-191"/>
<text text-anchor="start" x="1124" y="-209" font-family="Helvetica,sans-Serif" font-size="10.00" fill="#000000">ACarlaRecorder::SetReplayer</text>
<text text-anchor="middle" x="1194" y="-198" font-family="Helvetica,sans-Serif" font-size="10.00" fill="#000000">IgnoreHero</text>
</a>
</g>
</g>
<!-- Node26&#45;&gt;Node27 -->
<g id="edge20" class="edge">
<title>Node26&#45;&gt;Node27</title>
<path fill="none" stroke="#191970" d="M1026.4255,-274.5342C1062.365,-259.8358 1119.7678,-236.3593 1157.176,-221.0602"/>
<polygon fill="#191970" stroke="#191970" points="1024.8232,-271.408 1016.8923,-278.4331 1027.4731,-277.8871 1024.8232,-271.408"/>
</g>
<!-- Node27&#45;&gt;Node16 -->
<g id="edge21" class="edge">
<title>Node27&#45;&gt;Node16</title>
<path fill="none" stroke="#191970" d="M1272.1418,-188.7657C1292.8477,-184.199 1314.8585,-179.3445 1334.369,-175.0414"/>
<polygon fill="#191970" stroke="#191970" points="1271.1101,-185.4091 1262.0986,-190.9808 1272.6178,-192.2448 1271.1101,-185.4091"/>
</g>
<!-- Node28&#45;&gt;Node26 -->
<g id="edge37" class="edge">
<title>Node28&#45;&gt;Node26</title>
<path fill="none" stroke="#191970" d="M705.4611,-288C764.1165,-288 850.0625,-288 912.8013,-288"/>
<polygon fill="#191970" stroke="#191970" points="705.202,-284.5001 695.2019,-288 705.2019,-291.5001 705.202,-284.5001"/>
</g>
<!-- Node29 -->
<g id="node21" class="node">
<title>Node29</title>
<g id="a_node21"><a xlink:href="../../dd/db9/classACarlaRecorder.html#a1074f19dfe5b16a9e10b24ef35b26abc" target="_top" xlink:title="ACarlaRecorder::Ticking">
<polygon fill="#ffffff" stroke="#000000" points="736.5,-316.5 736.5,-335.5 869.5,-335.5 869.5,-316.5 736.5,-316.5"/>
<text text-anchor="middle" x="803" y="-323.5" font-family="Helvetica,sans-Serif" font-size="10.00" fill="#000000">ACarlaRecorder::Ticking</text>
</a>
</g>
</g>
<!-- Node28&#45;&gt;Node29 -->
<g id="edge27" class="edge">
<title>Node28&#45;&gt;Node29</title>
<path fill="none" stroke="#191970" d="M690.6844,-299.8961C713.6661,-305.2374 740.4125,-311.4537 762.0387,-316.4799"/>
<polygon fill="#191970" stroke="#191970" points="691.2907,-296.4438 680.758,-297.589 689.706,-303.262 691.2907,-296.4438"/>
</g>
<!-- Node30 -->
<g id="node22" class="node">
<title>Node30</title>
<g id="a_node22"><a xlink:href="../../dc/d49/classFCarlaEngine.html#aff440c7ba9d004e4c5b60125cc4d709b" target="_top" xlink:title="FCarlaEngine::OnPostTick">
<polygon fill="#ffffff" stroke="#000000" points="923,-316.5 923,-335.5 1064,-335.5 1064,-316.5 923,-316.5"/>
<text text-anchor="middle" x="993.5" y="-323.5" font-family="Helvetica,sans-Serif" font-size="10.00" fill="#000000">FCarlaEngine::OnPostTick</text>
</a>
</g>
</g>
<!-- Node29&#45;&gt;Node30 -->
<g id="edge28" class="edge">
<title>Node29&#45;&gt;Node30</title>
<path fill="none" stroke="#191970" d="M879.8241,-326C893.9904,-326 908.7221,-326 922.7002,-326"/>
<polygon fill="#191970" stroke="#191970" points="879.6277,-322.5001 869.6277,-326 879.6276,-329.5001 879.6277,-322.5001"/>
</g>
<!-- Node31 -->
<g id="node23" class="node">
<title>Node31</title>
<g id="a_node23"><a xlink:href="../../dc/d49/classFCarlaEngine.html#ab8d13063cde985781237dd7da308227e" target="_top" xlink:title="FCarlaEngine::NotifyInitGame">
<polygon fill="#ffffff" stroke="#000000" points="1113.5,-316.5 1113.5,-335.5 1274.5,-335.5 1274.5,-316.5 1113.5,-316.5"/>
<text text-anchor="middle" x="1194" y="-323.5" font-family="Helvetica,sans-Serif" font-size="10.00" fill="#000000">FCarlaEngine::NotifyInitGame</text>
</a>
</g>
</g>
<!-- Node30&#45;&gt;Node31 -->
<g id="edge29" class="edge">
<title>Node30&#45;&gt;Node31</title>
<path fill="none" stroke="#191970" d="M1074.377,-326C1087.2199,-326 1100.5038,-326 1113.3416,-326"/>
<polygon fill="#191970" stroke="#191970" points="1074.1888,-322.5001 1064.1888,-326 1074.1888,-329.5001 1074.1888,-322.5001"/>
</g>
<!-- Node32 -->
<g id="node24" class="node">
<title>Node32</title>
<g id="a_node24"><a xlink:href="../../dc/d49/classFCarlaEngine.html#a4dfd3b01c0b1413b4f69fda71efc25ce" target="_top" xlink:title="FCarlaEngine::ResetFrame\lCounter">
<polygon fill="#ffffff" stroke="#000000" points="1122.5,-393 1122.5,-423 1265.5,-423 1265.5,-393 1122.5,-393"/>
<text text-anchor="start" x="1130.5" y="-411" font-family="Helvetica,sans-Serif" font-size="10.00" fill="#000000">FCarlaEngine::ResetFrame</text>
<text text-anchor="middle" x="1194" y="-400" font-family="Helvetica,sans-Serif" font-size="10.00" fill="#000000">Counter</text>
</a>
</g>
</g>
<!-- Node30&#45;&gt;Node32 -->
<g id="edge30" class="edge">
<title>Node30&#45;&gt;Node32</title>
<path fill="none" stroke="#191970" d="M1026.4255,-339.4658C1062.365,-354.1642 1119.7678,-377.6407 1157.176,-392.9398"/>
<polygon fill="#191970" stroke="#191970" points="1027.4731,-336.1129 1016.8923,-335.5669 1024.8232,-342.592 1027.4731,-336.1129"/>
</g>
<!-- Node32&#45;&gt;Node24 -->
<g id="edge31" class="edge">
<title>Node32&#45;&gt;Node24</title>
<path fill="none" stroke="#191970" d="M1248.7407,-389.3013C1257.6349,-385.8155 1266.6592,-382.0008 1275,-378 1309.8147,-361.3004 1347.7085,-337.5236 1371.0385,-322.1765"/>
<polygon fill="#191970" stroke="#191970" points="1247.2754,-386.1142 1239.1792,-392.9481 1249.77,-392.6547 1247.2754,-386.1142"/>
</g>
<!-- Node33 -->
<g id="node25" class="node">
<title>Node33</title>
<g id="a_node25"><a xlink:href="../../de/db4/classFFrameData.html#a58809cab8ccb22f75c9765869ae136ae" target="_top" xlink:title="FFrameData::SetFrameCounter">
<polygon fill="#ffffff" stroke="#000000" points="1311,-398.5 1311,-417.5 1476,-417.5 1476,-398.5 1311,-398.5"/>
<text text-anchor="middle" x="1393.5" y="-405.5" font-family="Helvetica,sans-Serif" font-size="10.00" fill="#000000">FFrameData::SetFrameCounter</text>
</a>
</g>
</g>
<!-- Node32&#45;&gt;Node33 -->
<g id="edge32" class="edge">
<title>Node32&#45;&gt;Node33</title>
<path fill="none" stroke="#191970" d="M1275.807,-408C1287.3763,-408 1299.2785,-408 1310.8632,-408"/>
<polygon fill="#191970" stroke="#191970" points="1275.7423,-404.5001 1265.7422,-408 1275.7422,-411.5001 1275.7423,-404.5001"/>
</g>
<!-- Node34 -->
<g id="node26" class="node">
<title>Node34</title>
<g id="a_node26"><a xlink:href="../../de/db4/classFFrameData.html#aa23cccda1659af6f10264e73a73c1e27" target="_top" xlink:title="FFrameData::PlayFrameData">
<polygon fill="#ffffff" stroke="#000000" points="1512,-379.5 1512,-398.5 1667,-398.5 1667,-379.5 1512,-379.5"/>
<text text-anchor="middle" x="1589.5" y="-386.5" font-family="Helvetica,sans-Serif" font-size="10.00" fill="#000000">FFrameData::PlayFrameData</text>
</a>
</g>
</g>
<!-- Node33&#45;&gt;Node34 -->
<g id="edge33" class="edge">
<title>Node33&#45;&gt;Node34</title>
<path fill="none" stroke="#191970" d="M1486.0856,-399.0249C1494.6666,-398.193 1503.3032,-397.3558 1511.731,-396.5388"/>
<polygon fill="#191970" stroke="#191970" points="1485.6692,-395.5487 1476.0536,-399.9974 1486.3447,-402.5161 1485.6692,-395.5487"/>
</g>
<!-- Node35 -->
<g id="node27" class="node">
<title>Node35</title>
<g id="a_node27"><a xlink:href="../../de/db4/classFFrameData.html#ab520e8c971f0fa7e95258e6675c6e10c" target="_top" xlink:title="FFrameData::SetEpisode">
<polygon fill="#ffffff" stroke="#000000" points="1703,-398.5 1703,-417.5 1838,-417.5 1838,-398.5 1703,-398.5"/>
<text text-anchor="middle" x="1770.5" y="-405.5" font-family="Helvetica,sans-Serif" font-size="10.00" fill="#000000">FFrameData::SetEpisode</text>
</a>
</g>
</g>
<!-- Node33&#45;&gt;Node35 -->
<g id="edge36" class="edge">
<title>Node33&#45;&gt;Node35</title>
<path fill="none" stroke="#191970" d="M1486.3751,-408C1553.3937,-408 1642.3487,-408 1702.7454,-408"/>
<polygon fill="#191970" stroke="#191970" points="1486.2343,-404.5001 1476.2342,-408 1486.2342,-411.5001 1486.2343,-404.5001"/>
</g>
<!-- Node34&#45;&gt;Node35 -->
<g id="edge34" class="edge">
<title>Node34&#45;&gt;Node35</title>
<path fill="none" stroke="#191970" d="M1677.1403,-398.1998C1685.7671,-399.1054 1694.4285,-400.0146 1702.8107,-400.8945"/>
<polygon fill="#191970" stroke="#191970" points="1677.3587,-394.7036 1667.048,-397.1404 1676.6279,-401.6653 1677.3587,-394.7036"/>
</g>
<!-- Node36 -->
<g id="node28" class="node">
<title>Node36</title>
<g id="a_node28"><a xlink:href="../../dc/d84/classUCarlaEpisode.html#a2f0288d27d5fd7c84c33ebad36621cc7" target="_top" xlink:title="UCarlaEpisode::UCarlaEpisode">
<polygon fill="#ffffff" stroke="#000000" points="1874,-398.5 1874,-417.5 2039,-417.5 2039,-398.5 1874,-398.5"/>
<text text-anchor="middle" x="1956.5" y="-405.5" font-family="Helvetica,sans-Serif" font-size="10.00" fill="#000000">UCarlaEpisode::UCarlaEpisode</text>
</a>
</g>
</g>
<!-- Node35&#45;&gt;Node36 -->
<g id="edge35" class="edge">
<title>Node35&#45;&gt;Node36</title>
<path fill="none" stroke="#191970" d="M1848.3889,-408C1856.8469,-408 1865.4762,-408 1873.9869,-408"/>
<polygon fill="#191970" stroke="#191970" points="1848.1765,-404.5001 1838.1764,-408 1848.1764,-411.5001 1848.1765,-404.5001"/>
</g>
<!-- Node38 -->
<g id="node30" class="node">
<title>Node38</title>
<g id="a_node30"><a xlink:href="../../dd/db9/classACarlaRecorder.html#a36bb8a5afb7772514440bfe49e25b88b" target="_top" xlink:title="ACarlaRecorder::ShowFileInfo">
<polygon fill="#ffffff" stroke="#000000" points="385.5,-348.5 385.5,-367.5 544.5,-367.5 544.5,-348.5 385.5,-348.5"/>
<text text-anchor="middle" x="465" y="-355.5" font-family="Helvetica,sans-Serif" font-size="10.00" fill="#000000">ACarlaRecorder::ShowFileInfo</text>
</a>
</g>
</g>
<!-- Node37&#45;&gt;Node38 -->
<g id="edge39" class="edge">
<title>Node37&#45;&gt;Node38</title>
<path fill="none" stroke="#191970" d="M333.2493,-350.0552C349.9843,-351.0644 368.084,-352.1558 385.3522,-353.1971"/>
<polygon fill="#191970" stroke="#191970" points="333.218,-346.5471 323.0254,-349.4387 332.7966,-353.5344 333.218,-346.5471"/>
</g>
<!-- Node38&#45;&gt;Node16 -->
<g id="edge40" class="edge">
<title>Node38&#45;&gt;Node16</title>
<path fill="none" stroke="#191970" d="M554.8173,-360.4616C622.923,-362.1176 718.8452,-364 803,-364 803,-364 803,-364 993.5,-364 1118.8958,-364 1168.726,-411.5577 1275,-345 1302.3313,-327.8828 1293.8502,-309.3109 1311,-282 1335.2005,-243.461 1366.1558,-199.7913 1382.4026,-177.259"/>
<polygon fill="#191970" stroke="#191970" points="554.6372,-356.9562 544.554,-360.2086 554.4647,-363.954 554.6372,-356.9562"/>
</g>
</g>
</svg>
