<?xml version="1.0" encoding="UTF-8" standalone="no"?>
<!DOCTYPE svg PUBLIC "-//W3C//DTD SVG 1.1//EN"
 "http://www.w3.org/Graphics/SVG/1.1/DTD/svg11.dtd">
<!-- Generated by graphviz version 2.40.1 (20161225.0304)
 -->
<!-- Title: sensor_msgs::msg::CameraInfo::deserialize Pages: 1 -->
<svg width="349pt" height="39pt"
 viewBox="0.00 0.00 349.00 39.00" xmlns="http://www.w3.org/2000/svg" xmlns:xlink="http://www.w3.org/1999/xlink">
<g id="graph0" class="graph" transform="scale(1 1) rotate(0) translate(4 35)">
<title>sensor_msgs::msg::CameraInfo::deserialize</title>
<polygon fill="#ffffff" stroke="transparent" points="-4,4 -4,-35 345,-35 345,4 -4,4"/>
<!-- Node31 -->
<g id="node1" class="node">
<title>Node31</title>
<polygon fill="#bfbfbf" stroke="#000000" points="0,-.5 0,-30.5 152,-30.5 152,-.5 0,-.5"/>
<text text-anchor="start" x="8" y="-18.5" font-family="Helvetica,sans-Serif" font-size="10.00" fill="#000000">sensor_msgs::msg::Camera</text>
<text text-anchor="middle" x="76" y="-7.5" font-family="Helvetica,sans-Serif" font-size="10.00" fill="#000000">Info::deserialize</text>
</g>
<!-- Node32 -->
<g id="node2" class="node">
<title>Node32</title>
<g id="a_node2"><a xlink:href="../../d4/d4d/classsensor__msgs_1_1msg_1_1CameraInfoPubSubType.html#a0fa9f4223f37e0fd2374f706c09180ea" target="_top" xlink:title="sensor_msgs::msg::Camera\lInfoPubSubType::deserialize">
<polygon fill="#ffffff" stroke="#000000" points="188,-.5 188,-30.5 341,-30.5 341,-.5 188,-.5"/>
<text text-anchor="start" x="196" y="-18.5" font-family="Helvetica,sans-Serif" font-size="10.00" fill="#000000">sensor_msgs::msg::Camera</text>
<text text-anchor="middle" x="264.5" y="-7.5" font-family="Helvetica,sans-Serif" font-size="10.00" fill="#000000">InfoPubSubType::deserialize</text>
</a>
</g>
</g>
<!-- Node31&#45;&gt;Node32 -->
<g id="edge1" class="edge">
<title>Node31&#45;&gt;Node32</title>
<path fill="none" stroke="#191970" d="M162.3961,-15.5C170.865,-15.5 179.419,-15.5 187.7821,-15.5"/>
<polygon fill="#191970" stroke="#191970" points="162.1269,-12.0001 152.1268,-15.5 162.1268,-19.0001 162.1269,-12.0001"/>
</g>
</g>
</svg>
