<?xml version="1.0" encoding="UTF-8" standalone="no"?>
<!DOCTYPE svg PUBLIC "-//W3C//DTD SVG 1.1//EN"
 "http://www.w3.org/Graphics/SVG/1.1/DTD/svg11.dtd">
<!-- Generated by graphviz version 2.43.0 (0)
 -->
<!-- Title: FFrameData::CreateRecorderEventAdd Pages: 1 -->
<!--zoomable 422 -->
<svg id="main" version="1.1" xmlns="http://www.w3.org/2000/svg" xmlns:xlink="http://www.w3.org/1999/xlink" xml:space="preserve" onload="init(evt)">
<style type="text/css"><![CDATA[
.edge:hover path { stroke: red; }
.edge:hover polygon { stroke: red; fill: red; }
]]></style>
<script type="text/javascript"><![CDATA[
var edges = document.getElementsByTagName('g');
if (edges && edges.length) {
  for (var i=0;i<edges.length;i++) {
    if (edges[i].id.substr(0,4)=='edge') {
      edges[i].setAttribute('class','edge');
    }
  }
}
]]></script>
        <defs>
                <circle id="rim" cx="0" cy="0" r="7"/>
                <circle id="rim2" cx="0" cy="0" r="3.5"/>
                <g id="zoomPlus">
                        <use xlink:href="#rim" fill="#404040">
                                <set attributeName="fill" to="#808080" begin="zoomplus.mouseover" end="zoomplus.mouseout"/>
                        </use>
                        <path d="M-4,0h8M0,-4v8" fill="none" stroke="white" stroke-width="1.5" pointer-events="none"/>
                </g>
                <g id="zoomMin">
                        <use xlink:href="#rim" fill="#404040">
                                <set attributeName="fill" to="#808080" begin="zoomminus.mouseover" end="zoomminus.mouseout"/>
                        </use>
                        <path d="M-4,0h8" fill="none" stroke="white" stroke-width="1.5" pointer-events="none"/>
                </g>
                <g id="dirArrow">
                        <path fill="none" stroke="white" stroke-width="1.5" d="M0,-3.0v7 M-2.5,-0.5L0,-3.0L2.5,-0.5"/>
                </g>
               <g id="resetDef">
                       <use xlink:href="#rim2" fill="#404040">
                               <set attributeName="fill" to="#808080" begin="reset.mouseover" end="reset.mouseout"/>
                       </use>
               </g>
        </defs>

<script type="text/javascript">
var viewWidth = 810;
var viewHeight = 422;
var sectionId = 'dynsection-53';
</script>
<script xlink:href="../../svgpan.js"/>
<svg id="graph" class="graph">
<g id="viewport">
<title>FFrameData::CreateRecorderEventAdd</title>
<polygon fill="white" stroke="transparent" points="-4,4 -4,-417.5 806,-417.5 806,4 -4,4"/>
<!-- Node1 -->
<g id="node1" class="node">
<title>Node1</title>
<g id="a_node1"><a xlink:title=" ">
<polygon fill="#bfbfbf" stroke="black" points="0,-181 0,-211 158,-211 158,-181 0,-181"/>
<text text-anchor="start" x="8" y="-199" font-family="Helvetica,sans-Serif" font-size="10.00">FFrameData::CreateRecorder</text>
<text text-anchor="middle" x="79" y="-188" font-family="Helvetica,sans-Serif" font-size="10.00">EventAdd</text>
</a>
</g>
</g>
<!-- Node2 -->
<g id="node2" class="node">
<title>Node2</title>
<g id="a_node2"><a xlink:href="../../de/db4/classFFrameData.html#a2371ea81faf755f9ae6a34dcbc967e1a" target="_top" xlink:title=" ">
<polygon fill="white" stroke="black" points="194,-325.5 194,-344.5 385,-344.5 385,-325.5 194,-325.5"/>
<text text-anchor="middle" x="289.5" y="-332.5" font-family="Helvetica,sans-Serif" font-size="10.00">FFrameData::AddActorBoundingBox</text>
</a>
</g>
</g>
<!-- Node1&#45;&gt;Node2 -->
<g id="edge1" class="edge">
<title>Node1&#45;&gt;Node2</title>
<path fill="none" stroke="midnightblue" d="M95.58,-211.26C116.64,-231.32 155.93,-266.85 194,-291 212.91,-303 235.63,-313.68 254.04,-321.51"/>
<polygon fill="midnightblue" stroke="midnightblue" points="252.93,-324.84 263.51,-325.45 255.62,-318.38 252.93,-324.84"/>
</g>
<!-- Node7 -->
<g id="node7" class="node">
<title>Node7</title>
<g id="a_node7"><a xlink:href="../../de/db4/classFFrameData.html#abedeefcb464f1f161fd66cb9082d67bb" target="_top" xlink:title=" ">
<polygon fill="white" stroke="black" points="225,-148.5 225,-167.5 354,-167.5 354,-148.5 225,-148.5"/>
<text text-anchor="middle" x="289.5" y="-155.5" font-family="Helvetica,sans-Serif" font-size="10.00">FFrameData::AddEvent</text>
</a>
</g>
</g>
<!-- Node1&#45;&gt;Node7 -->
<g id="edge6" class="edge">
<title>Node1&#45;&gt;Node7</title>
<path fill="none" stroke="midnightblue" d="M158.23,-181.74C180.68,-177.65 204.84,-173.25 226.19,-169.36"/>
<polygon fill="midnightblue" stroke="midnightblue" points="226.89,-172.79 236.1,-167.55 225.63,-165.9 226.89,-172.79"/>
</g>
<!-- Node9 -->
<g id="node9" class="node">
<title>Node9</title>
<g id="a_node9"><a xlink:href="../../de/db4/classFFrameData.html#a0825fa552b4a729068b294a2fa46141b" target="_top" xlink:title=" ">
<polygon fill="white" stroke="black" points="203,-262.5 203,-281.5 376,-281.5 376,-262.5 203,-262.5"/>
<text text-anchor="middle" x="289.5" y="-269.5" font-family="Helvetica,sans-Serif" font-size="10.00">FFrameData::AddPhysicsControl</text>
</a>
</g>
</g>
<!-- Node1&#45;&gt;Node9 -->
<g id="edge8" class="edge">
<title>Node1&#45;&gt;Node9</title>
<path fill="none" stroke="midnightblue" d="M105.41,-211.17C127.97,-224.02 162.19,-242.07 194,-253 201.91,-255.72 210.32,-258.1 218.75,-260.17"/>
<polygon fill="midnightblue" stroke="midnightblue" points="218.09,-263.61 228.63,-262.46 219.68,-256.79 218.09,-263.61"/>
</g>
<!-- Node13 -->
<g id="node13" class="node">
<title>Node13</title>
<g id="a_node13"><a xlink:href="../../de/db4/classFFrameData.html#a9c11651a2824b177f9036fb10da7c390" target="_top" xlink:title=" ">
<polygon fill="white" stroke="black" points="200,-224.5 200,-243.5 379,-243.5 379,-224.5 200,-224.5"/>
<text text-anchor="middle" x="289.5" y="-231.5" font-family="Helvetica,sans-Serif" font-size="10.00">FFrameData::AddTrafficLightTime</text>
</a>
</g>
</g>
<!-- Node1&#45;&gt;Node13 -->
<g id="edge13" class="edge">
<title>Node1&#45;&gt;Node13</title>
<path fill="none" stroke="midnightblue" d="M158.23,-210.26C180.68,-214.35 204.84,-218.75 226.19,-222.64"/>
<polygon fill="midnightblue" stroke="midnightblue" points="225.63,-226.1 236.1,-224.45 226.89,-219.21 225.63,-226.1"/>
</g>
<!-- Node15 -->
<g id="node15" class="node">
<title>Node15</title>
<g id="a_node15"><a xlink:href="../../de/db4/classFFrameData.html#a6a8c3c38cf8e1417396def349c991e23" target="_top" xlink:title=" ">
<polygon fill="white" stroke="black" points="204,-186.5 204,-205.5 375,-205.5 375,-186.5 204,-186.5"/>
<text text-anchor="middle" x="289.5" y="-193.5" font-family="Helvetica,sans-Serif" font-size="10.00">FFrameData::AddTriggerVolume</text>
</a>
</g>
</g>
<!-- Node1&#45;&gt;Node15 -->
<g id="edge18" class="edge">
<title>Node1&#45;&gt;Node15</title>
<path fill="none" stroke="midnightblue" d="M158.23,-196C169.76,-196 181.74,-196 193.56,-196"/>
<polygon fill="midnightblue" stroke="midnightblue" points="193.9,-199.5 203.9,-196 193.9,-192.5 193.9,-199.5"/>
</g>
<!-- Node19 -->
<g id="node19" class="node">
<title>Node19</title>
<g id="a_node19"><a xlink:href="../../dc/d84/classUCarlaEpisode.html#ab9fba66eeaed2e229ed69571dff6a976" target="_top" xlink:title="Find a Carla actor by id.">
<polygon fill="white" stroke="black" points="219.5,-99 219.5,-129 359.5,-129 359.5,-99 219.5,-99"/>
<text text-anchor="start" x="227.5" y="-117" font-family="Helvetica,sans-Serif" font-size="10.00">UCarlaEpisode::FindCarla</text>
<text text-anchor="middle" x="289.5" y="-106" font-family="Helvetica,sans-Serif" font-size="10.00">Actor</text>
</a>
</g>
</g>
<!-- Node1&#45;&gt;Node19 -->
<g id="edge25" class="edge">
<title>Node1&#45;&gt;Node19</title>
<path fill="none" stroke="midnightblue" d="M106.48,-180.81C129.15,-168.28 162.95,-150.73 194,-139 200.66,-136.49 207.67,-134.12 214.74,-131.93"/>
<polygon fill="midnightblue" stroke="midnightblue" points="215.82,-135.26 224.4,-129.05 213.81,-128.56 215.82,-135.26"/>
</g>
<!-- Node20 -->
<g id="node20" class="node">
<title>Node20</title>
<g id="a_node20"><a xlink:href="../../dc/dde/classFCarlaActor.html#a06464d85c473682256871464d9bf7658" target="_top" xlink:title=" ">
<polygon fill="white" stroke="black" points="228.5,-60.5 228.5,-79.5 350.5,-79.5 350.5,-60.5 228.5,-60.5"/>
<text text-anchor="middle" x="289.5" y="-67.5" font-family="Helvetica,sans-Serif" font-size="10.00">FCarlaActor::GetActor</text>
</a>
</g>
</g>
<!-- Node1&#45;&gt;Node20 -->
<g id="edge26" class="edge">
<title>Node1&#45;&gt;Node20</title>
<path fill="none" stroke="midnightblue" d="M91.51,-181C110.28,-157.65 149.87,-112.91 194,-90 201.68,-86.01 210.1,-82.82 218.65,-80.27"/>
<polygon fill="midnightblue" stroke="midnightblue" points="219.59,-83.64 228.33,-77.64 217.76,-76.88 219.59,-83.64"/>
</g>
<!-- Node3 -->
<g id="node3" class="node">
<title>Node3</title>
<g id="a_node3"><a xlink:href="../../de/db4/classFFrameData.html#afdab20a7d06762b388db7ae7e862ca36" target="_top" xlink:title=" ">
<polygon fill="white" stroke="black" points="432,-388.5 432,-407.5 598,-407.5 598,-388.5 432,-388.5"/>
<text text-anchor="middle" x="515" y="-395.5" font-family="Helvetica,sans-Serif" font-size="10.00">FFrameData::AddBoundingBox</text>
</a>
</g>
</g>
<!-- Node2&#45;&gt;Node3 -->
<g id="edge2" class="edge">
<title>Node2&#45;&gt;Node3</title>
<path fill="none" stroke="midnightblue" d="M315.72,-344.54C341.8,-354.16 383.83,-368.98 421,-379 430.89,-381.67 441.45,-384.16 451.79,-386.4"/>
<polygon fill="midnightblue" stroke="midnightblue" points="451.09,-389.83 461.6,-388.47 452.54,-382.98 451.09,-389.83"/>
</g>
<!-- Node5 -->
<g id="node5" class="node">
<title>Node5</title>
<g id="a_node5"><a xlink:href="../../dc/dde/classFCarlaActor.html#aca3d1a4bfcb5e0ae1974b7206933d665" target="_top" xlink:title=" ">
<polygon fill="white" stroke="black" points="449.5,-274.5 449.5,-293.5 580.5,-293.5 580.5,-274.5 449.5,-274.5"/>
<text text-anchor="middle" x="515" y="-281.5" font-family="Helvetica,sans-Serif" font-size="10.00">FCarlaActor::GetActorId</text>
</a>
</g>
</g>
<!-- Node2&#45;&gt;Node5 -->
<g id="edge4" class="edge">
<title>Node2&#45;&gt;Node5</title>
<path fill="none" stroke="midnightblue" d="M327.82,-325.44C353.87,-318.87 389.48,-310.08 421,-303 432.19,-300.49 444.17,-297.93 455.69,-295.55"/>
<polygon fill="midnightblue" stroke="midnightblue" points="456.56,-298.94 465.65,-293.51 455.16,-292.09 456.56,-298.94"/>
</g>
<!-- Node6 -->
<g id="node6" class="node">
<title>Node6</title>
<g id="a_node6"><a xlink:href="../../dc/dde/classFCarlaActor.html#a242fc800c820c11808a55be4bff97fa2" target="_top" xlink:title=" ">
<polygon fill="white" stroke="black" points="444.5,-350.5 444.5,-369.5 585.5,-369.5 585.5,-350.5 444.5,-350.5"/>
<text text-anchor="middle" x="515" y="-357.5" font-family="Helvetica,sans-Serif" font-size="10.00">FCarlaActor::GetActorInfo</text>
</a>
</g>
</g>
<!-- Node2&#45;&gt;Node6 -->
<g id="edge5" class="edge">
<title>Node2&#45;&gt;Node6</title>
<path fill="none" stroke="midnightblue" d="M375.63,-344.52C394.87,-346.67 415.23,-348.95 434.24,-351.08"/>
<polygon fill="midnightblue" stroke="midnightblue" points="434.02,-354.58 444.35,-352.21 434.8,-347.62 434.02,-354.58"/>
</g>
<!-- Node4 -->
<g id="node4" class="node">
<title>Node4</title>
<g id="a_node4"><a xlink:href="../../d1/d74/classCarlaRecorderActorBoundingBoxes.html#a883727e9688d402abd55d900ef1bc1e9" target="_top" xlink:title=" ">
<polygon fill="white" stroke="black" points="645,-383 645,-413 802,-413 802,-383 645,-383"/>
<text text-anchor="start" x="653" y="-401" font-family="Helvetica,sans-Serif" font-size="10.00">CarlaRecorderActorBounding</text>
<text text-anchor="middle" x="723.5" y="-390" font-family="Helvetica,sans-Serif" font-size="10.00">Boxes::Add</text>
</a>
</g>
</g>
<!-- Node3&#45;&gt;Node4 -->
<g id="edge3" class="edge">
<title>Node3&#45;&gt;Node4</title>
<path fill="none" stroke="midnightblue" d="M598.21,-398C610.25,-398 622.68,-398 634.82,-398"/>
<polygon fill="midnightblue" stroke="midnightblue" points="634.94,-401.5 644.94,-398 634.94,-394.5 634.94,-401.5"/>
</g>
<!-- Node8 -->
<g id="node8" class="node">
<title>Node8</title>
<g id="a_node8"><a xlink:href="../../dd/dd4/classCarlaRecorderEventsAdd.html#a17e9f29ed1774b7cdde873ba76f72a13" target="_top" xlink:title=" ">
<polygon fill="white" stroke="black" points="434,-0.5 434,-19.5 596,-19.5 596,-0.5 434,-0.5"/>
<text text-anchor="middle" x="515" y="-7.5" font-family="Helvetica,sans-Serif" font-size="10.00">CarlaRecorderEventsAdd::Add</text>
</a>
</g>
</g>
<!-- Node7&#45;&gt;Node8 -->
<g id="edge7" class="edge">
<title>Node7&#45;&gt;Node8</title>
<path fill="none" stroke="midnightblue" d="M354.29,-154.67C365.52,-151.59 376.37,-146.67 385,-139 423.45,-104.83 382.6,-63.23 421,-29 422.57,-27.6 424.21,-26.3 425.92,-25.08"/>
<polygon fill="midnightblue" stroke="midnightblue" points="428.15,-27.82 434.92,-19.67 424.55,-21.82 428.15,-27.82"/>
</g>
<!-- Node9&#45;&gt;Node5 -->
<g id="edge11" class="edge">
<title>Node9&#45;&gt;Node5</title>
<path fill="none" stroke="midnightblue" d="M376.27,-276.61C397.02,-277.72 419.03,-278.9 439.22,-279.99"/>
<polygon fill="midnightblue" stroke="midnightblue" points="439.12,-283.48 449.29,-280.53 439.49,-276.49 439.12,-283.48"/>
</g>
<!-- Node10 -->
<g id="node10" class="node">
<title>Node10</title>
<g id="a_node10"><a xlink:href="../../dd/dd1/classCarlaRecorderPhysicsControls.html#a82746bb4c8ca4742aac3e90c85aa7ae2" target="_top" xlink:title=" ">
<polygon fill="white" stroke="black" points="421,-312.5 421,-331.5 609,-331.5 609,-312.5 421,-312.5"/>
<text text-anchor="middle" x="515" y="-319.5" font-family="Helvetica,sans-Serif" font-size="10.00">CarlaRecorderPhysicsControls::Add</text>
</a>
</g>
</g>
<!-- Node9&#45;&gt;Node10 -->
<g id="edge9" class="edge">
<title>Node9&#45;&gt;Node10</title>
<path fill="none" stroke="midnightblue" d="M329.26,-281.55C355.18,-287.85 390.08,-296.17 421,-303 432.2,-305.47 444.19,-308.01 455.7,-310.38"/>
<polygon fill="midnightblue" stroke="midnightblue" points="455.17,-313.85 465.67,-312.43 456.58,-306.99 455.17,-313.85"/>
</g>
<!-- Node11 -->
<g id="node11" class="node">
<title>Node11</title>
<g id="a_node11"><a xlink:href="../../df/db5/classFActorRegistry.html#a167889de345ae2da68d5e9fcc08f58f7" target="_top" xlink:title=" ">
<polygon fill="white" stroke="black" points="446,-225 446,-255 584,-255 584,-225 446,-225"/>
<text text-anchor="start" x="454" y="-243" font-family="Helvetica,sans-Serif" font-size="10.00">FActorRegistry::FindCarla</text>
<text text-anchor="middle" x="515" y="-232" font-family="Helvetica,sans-Serif" font-size="10.00">Actor</text>
</a>
</g>
</g>
<!-- Node9&#45;&gt;Node11 -->
<g id="edge10" class="edge">
<title>Node9&#45;&gt;Node11</title>
<path fill="none" stroke="midnightblue" d="M356.95,-262.49C381.72,-258.94 410.05,-254.88 435.78,-251.2"/>
<polygon fill="midnightblue" stroke="midnightblue" points="436.47,-254.64 445.87,-249.75 435.47,-247.71 436.47,-254.64"/>
</g>
<!-- Node12 -->
<g id="node12" class="node">
<title>Node12</title>
<g id="a_node12"><a xlink:href="../../dc/d84/classUCarlaEpisode.html#a955ce4876accf63ea1a1df5fda70c31d" target="_top" xlink:title=" ">
<polygon fill="white" stroke="black" points="426.5,-186.5 426.5,-205.5 603.5,-205.5 603.5,-186.5 426.5,-186.5"/>
<text text-anchor="middle" x="515" y="-193.5" font-family="Helvetica,sans-Serif" font-size="10.00">UCarlaEpisode::GetActorRegistry</text>
</a>
</g>
</g>
<!-- Node9&#45;&gt;Node12 -->
<g id="edge12" class="edge">
<title>Node9&#45;&gt;Node12</title>
<path fill="none" stroke="midnightblue" d="M362.31,-262.36C370.21,-259.91 377.95,-256.84 385,-253 405.15,-242.03 400.93,-227.11 421,-216 425.88,-213.3 431.08,-210.97 436.45,-208.95"/>
<polygon fill="midnightblue" stroke="midnightblue" points="437.89,-212.15 446.24,-205.64 435.65,-205.52 437.89,-212.15"/>
</g>
<!-- Node13&#45;&gt;Node5 -->
<g id="edge16" class="edge">
<title>Node13&#45;&gt;Node5</title>
<path fill="none" stroke="midnightblue" d="M343.75,-243.51C357.28,-246.25 371.74,-249.47 385,-253 401.3,-257.34 404.71,-260.64 421,-265 430.89,-267.65 441.46,-270.13 451.8,-272.37"/>
<polygon fill="midnightblue" stroke="midnightblue" points="451.1,-275.8 461.6,-274.44 452.54,-268.95 451.1,-275.8"/>
</g>
<!-- Node13&#45;&gt;Node11 -->
<g id="edge15" class="edge">
<title>Node13&#45;&gt;Node11</title>
<path fill="none" stroke="midnightblue" d="M379.15,-236.38C397.87,-236.88 417.49,-237.41 435.79,-237.9"/>
<polygon fill="midnightblue" stroke="midnightblue" points="435.71,-241.4 445.8,-238.17 435.9,-234.4 435.71,-241.4"/>
</g>
<!-- Node13&#45;&gt;Node12 -->
<g id="edge17" class="edge">
<title>Node13&#45;&gt;Node12</title>
<path fill="none" stroke="midnightblue" d="M346.61,-224.46C377.3,-219.24 415.5,-212.75 447.66,-207.28"/>
<polygon fill="midnightblue" stroke="midnightblue" points="448.6,-210.67 457.87,-205.54 447.42,-203.77 448.6,-210.67"/>
</g>
<!-- Node14 -->
<g id="node14" class="node">
<title>Node14</title>
<g id="a_node14"><a xlink:href="../../dc/d3e/classCarlaRecorderTrafficLightTimes.html#a28f2471efea1664c8398b2e067666321" target="_top" xlink:title=" ">
<polygon fill="white" stroke="black" points="445.5,-137 445.5,-167 584.5,-167 584.5,-137 445.5,-137"/>
<text text-anchor="start" x="453.5" y="-155" font-family="Helvetica,sans-Serif" font-size="10.00">CarlaRecorderTrafficLight</text>
<text text-anchor="middle" x="515" y="-144" font-family="Helvetica,sans-Serif" font-size="10.00">Times::Add</text>
</a>
</g>
</g>
<!-- Node13&#45;&gt;Node14 -->
<g id="edge14" class="edge">
<title>Node13&#45;&gt;Node14</title>
<path fill="none" stroke="midnightblue" d="M362.36,-224.46C370.26,-221.99 377.97,-218.89 385,-215 405.36,-203.74 401.02,-188.91 421,-177 425.67,-174.22 430.65,-171.74 435.79,-169.53"/>
<polygon fill="midnightblue" stroke="midnightblue" points="437.15,-172.76 445.18,-165.84 434.59,-166.24 437.15,-172.76"/>
</g>
<!-- Node15&#45;&gt;Node5 -->
<g id="edge21" class="edge">
<title>Node15&#45;&gt;Node5</title>
<path fill="none" stroke="midnightblue" d="M365.82,-205.65C372.58,-208.12 379.09,-211.19 385,-215 408.02,-229.84 398.01,-250.13 421,-265 426.67,-268.67 432.91,-271.65 439.39,-274.07"/>
<polygon fill="midnightblue" stroke="midnightblue" points="438.42,-277.43 449.02,-277.23 440.61,-270.78 438.42,-277.43"/>
</g>
<!-- Node15&#45;&gt;Node11 -->
<g id="edge20" class="edge">
<title>Node15&#45;&gt;Node11</title>
<path fill="none" stroke="midnightblue" d="M339,-205.55C367.27,-211.11 403.6,-218.27 435.82,-224.61"/>
<polygon fill="midnightblue" stroke="midnightblue" points="435.19,-228.05 445.67,-226.55 436.54,-221.18 435.19,-228.05"/>
</g>
<!-- Node15&#45;&gt;Node12 -->
<g id="edge22" class="edge">
<title>Node15&#45;&gt;Node12</title>
<path fill="none" stroke="midnightblue" d="M375.31,-196C388.6,-196 402.42,-196 415.98,-196"/>
<polygon fill="midnightblue" stroke="midnightblue" points="416.27,-199.5 426.27,-196 416.27,-192.5 416.27,-199.5"/>
</g>
<!-- Node16 -->
<g id="node16" class="node">
<title>Node16</title>
<g id="a_node16"><a xlink:href="../../d8/d4c/classCarlaRecorderActorTriggerVolumes.html#ac8c759f0255da8cda4d5841bde3cf6f5" target="_top" xlink:title=" ">
<polygon fill="white" stroke="black" points="443,-88 443,-118 587,-118 587,-88 443,-88"/>
<text text-anchor="start" x="451" y="-106" font-family="Helvetica,sans-Serif" font-size="10.00">CarlaRecorderActorTrigger</text>
<text text-anchor="middle" x="515" y="-95" font-family="Helvetica,sans-Serif" font-size="10.00">Volumes::Add</text>
</a>
</g>
</g>
<!-- Node15&#45;&gt;Node16 -->
<g id="edge19" class="edge">
<title>Node15&#45;&gt;Node16</title>
<path fill="none" stroke="midnightblue" d="M365.3,-186.46C372.24,-183.98 378.93,-180.87 385,-177 407.78,-162.47 398.69,-143.26 421,-128 424.93,-125.31 429.14,-122.91 433.52,-120.77"/>
<polygon fill="midnightblue" stroke="midnightblue" points="434.96,-123.96 442.7,-116.72 432.14,-117.55 434.96,-123.96"/>
</g>
<!-- Node17 -->
<g id="node17" class="node">
<title>Node17</title>
<g id="a_node17"><a xlink:href="../../d3/df1/classATrafficSignBase.html#ac7af9e9ced8778fcd2dcec8ade87d90e" target="_top" xlink:title=" ">
<polygon fill="white" stroke="black" points="438.5,-39 438.5,-69 591.5,-69 591.5,-39 438.5,-39"/>
<text text-anchor="start" x="446.5" y="-57" font-family="Helvetica,sans-Serif" font-size="10.00">ATrafficSignBase::GetTrigger</text>
<text text-anchor="middle" x="515" y="-46" font-family="Helvetica,sans-Serif" font-size="10.00">Volumes</text>
</a>
</g>
</g>
<!-- Node15&#45;&gt;Node17 -->
<g id="edge23" class="edge">
<title>Node15&#45;&gt;Node17</title>
<path fill="none" stroke="midnightblue" d="M370.24,-186.49C375.56,-183.94 380.55,-180.81 385,-177 420.23,-146.8 386.76,-110.31 421,-79 423.61,-76.61 426.42,-74.45 429.38,-72.49"/>
<polygon fill="midnightblue" stroke="midnightblue" points="431.17,-75.51 438.1,-67.49 427.68,-69.44 431.17,-75.51"/>
</g>
<!-- Node18 -->
<g id="node18" class="node">
<title>Node18</title>
<g id="a_node18"><a xlink:href="../../d3/df1/classATrafficSignBase.html#a14d8f093efa06c393ba778bce741fd97" target="_top" xlink:title=" ">
<polygon fill="white" stroke="black" points="647,-39 647,-69 800,-69 800,-39 647,-39"/>
<text text-anchor="start" x="655" y="-57" font-family="Helvetica,sans-Serif" font-size="10.00">ATrafficSignBase::GetTrigger</text>
<text text-anchor="middle" x="723.5" y="-46" font-family="Helvetica,sans-Serif" font-size="10.00">Volume</text>
</a>
</g>
</g>
<!-- Node17&#45;&gt;Node18 -->
<g id="edge24" class="edge">
<title>Node17&#45;&gt;Node18</title>
<path fill="none" stroke="midnightblue" d="M591.72,-54C606.31,-54 621.69,-54 636.58,-54"/>
<polygon fill="midnightblue" stroke="midnightblue" points="636.79,-57.5 646.79,-54 636.79,-50.5 636.79,-57.5"/>
</g>
</g>
</svg>
        <g id="navigator" transform="translate(0 0)" fill="#404254">
                <rect fill="#f2f5e9" fill-opacity="0.5" stroke="#606060" stroke-width=".5" x="0" y="0" width="60" height="60"/>
                <use id="zoomplus" xlink:href="#zoomPlus" x="17" y="9" onmousedown="handleZoom(evt,'in')"/>
                <use id="zoomminus" xlink:href="#zoomMin" x="42" y="9" onmousedown="handleZoom(evt,'out')"/>
                <use id="reset" xlink:href="#resetDef" x="30" y="36" onmousedown="handleReset()"/>
                <g id="arrowUp" xlink:href="#dirArrow" transform="translate(30 24)" onmousedown="handlePan(0,-1)">
                  <use xlink:href="#rim" fill="#404040">
                        <set attributeName="fill" to="#808080" begin="arrowUp.mouseover" end="arrowUp.mouseout"/>
                  </use>
                  <path fill="none" stroke="white" stroke-width="1.5" d="M0,-3.0v7 M-2.5,-0.5L0,-3.0L2.5,-0.5"/>
                </g>
                <g id="arrowRight" xlink:href="#dirArrow" transform="rotate(90) translate(36 -43)" onmousedown="handlePan(1,0)">
                  <use xlink:href="#rim" fill="#404040">
                        <set attributeName="fill" to="#808080" begin="arrowRight.mouseover" end="arrowRight.mouseout"/>
                  </use>
                  <path fill="none" stroke="white" stroke-width="1.5" d="M0,-3.0v7 M-2.5,-0.5L0,-3.0L2.5,-0.5"/>
                </g>
                <g id="arrowDown" xlink:href="#dirArrow" transform="rotate(180) translate(-30 -48)" onmousedown="handlePan(0,1)">
                  <use xlink:href="#rim" fill="#404040">
                        <set attributeName="fill" to="#808080" begin="arrowDown.mouseover" end="arrowDown.mouseout"/>
                  </use>
                  <path fill="none" stroke="white" stroke-width="1.5" d="M0,-3.0v7 M-2.5,-0.5L0,-3.0L2.5,-0.5"/>
                </g>
                <g id="arrowLeft" xlink:href="#dirArrow" transform="rotate(270) translate(-36 17)" onmousedown="handlePan(-1,0)">
                  <use xlink:href="#rim" fill="#404040">
                        <set attributeName="fill" to="#808080" begin="arrowLeft.mouseover" end="arrowLeft.mouseout"/>
                  </use>
                  <path fill="none" stroke="white" stroke-width="1.5" d="M0,-3.0v7 M-2.5,-0.5L0,-3.0L2.5,-0.5"/>
                </g>
        </g>
        <svg viewBox="0 0 15 15" width="100%" height="30px" preserveAspectRatio="xMaxYMin meet">
         <g id="arrow_out" transform="scale(0.3 0.3)">
          <a xlink:href="classFFrameData_ac9ea347eb7ec4a3ff72a346849ecd0ba_cgraph_org.svg" target="_base">
           <rect id="button" ry="5" rx="5" y="6" x="6" height="38" width="38"
                fill="#f2f5e9" fill-opacity="0.5" stroke="#606060" stroke-width="1.0"/>
           <path id="arrow"
             d="M 11.500037,31.436501 C 11.940474,20.09759 22.043105,11.32322 32.158766,21.979434 L 37.068811,17.246167 C 37.068811,17.246167 37.088388,32 37.088388,32 L 22.160133,31.978069 C 22.160133,31.978069 26.997745,27.140456 26.997745,27.140456 C 18.528582,18.264221 13.291696,25.230495 11.500037,31.436501 z"
             style="fill:#404040;"/>
          </a>
         </g>
        </svg>
</svg>
