<?xml version="1.0" encoding="UTF-8" standalone="no"?>
<!DOCTYPE svg PUBLIC "-//W3C//DTD SVG 1.1//EN"
 "http://www.w3.org/Graphics/SVG/1.1/DTD/svg11.dtd">
<!-- Generated by graphviz version 2.43.0 (0)
 -->
<!-- Title: FFrameData::AddTrafficLightTime Pages: 1 -->
<svg width="400pt" height="165pt"
 viewBox="0.00 0.00 400.00 164.50" xmlns="http://www.w3.org/2000/svg" xmlns:xlink="http://www.w3.org/1999/xlink">
<g id="graph0" class="graph" transform="scale(1 1) rotate(0) translate(4 160.5)">
<title>FFrameData::AddTrafficLightTime</title>
<polygon fill="white" stroke="transparent" points="-4,4 -4,-160.5 396,-160.5 396,4 -4,4"/>
<!-- Node1 -->
<g id="node1" class="node">
<title>Node1</title>
<g id="a_node1"><a xlink:title=" ">
<polygon fill="#bfbfbf" stroke="black" points="0,-60.5 0,-79.5 179,-79.5 179,-60.5 0,-60.5"/>
<text text-anchor="middle" x="89.5" y="-67.5" font-family="Helvetica,sans-Serif" font-size="10.00">FFrameData::AddTrafficLightTime</text>
</a>
</g>
</g>
<!-- Node2 -->
<g id="node2" class="node">
<title>Node2</title>
<g id="a_node2"><a xlink:href="../../dc/d3e/classCarlaRecorderTrafficLightTimes.html#a28f2471efea1664c8398b2e067666321" target="_top" xlink:title=" ">
<polygon fill="white" stroke="black" points="234,-126 234,-156 373,-156 373,-126 234,-126"/>
<text text-anchor="start" x="242" y="-144" font-family="Helvetica,sans-Serif" font-size="10.00">CarlaRecorderTrafficLight</text>
<text text-anchor="middle" x="303.5" y="-133" font-family="Helvetica,sans-Serif" font-size="10.00">Times::Add</text>
</a>
</g>
</g>
<!-- Node1&#45;&gt;Node2 -->
<g id="edge1" class="edge">
<title>Node1&#45;&gt;Node2</title>
<path fill="none" stroke="midnightblue" d="M114.13,-79.68C139,-89.68 179.41,-105.43 215,-117 221.34,-119.06 227.98,-121.1 234.64,-123.06"/>
<polygon fill="midnightblue" stroke="midnightblue" points="233.8,-126.46 244.38,-125.88 235.75,-119.74 233.8,-126.46"/>
</g>
<!-- Node3 -->
<g id="node3" class="node">
<title>Node3</title>
<g id="a_node3"><a xlink:href="../../df/db5/classFActorRegistry.html#a167889de345ae2da68d5e9fcc08f58f7" target="_top" xlink:title=" ">
<polygon fill="white" stroke="black" points="234.5,-77 234.5,-107 372.5,-107 372.5,-77 234.5,-77"/>
<text text-anchor="start" x="242.5" y="-95" font-family="Helvetica,sans-Serif" font-size="10.00">FActorRegistry::FindCarla</text>
<text text-anchor="middle" x="303.5" y="-84" font-family="Helvetica,sans-Serif" font-size="10.00">Actor</text>
</a>
</g>
</g>
<!-- Node1&#45;&gt;Node3 -->
<g id="edge2" class="edge">
<title>Node1&#45;&gt;Node3</title>
<path fill="none" stroke="midnightblue" d="M179.18,-79.2C194.21,-80.76 209.71,-82.37 224.44,-83.9"/>
<polygon fill="midnightblue" stroke="midnightblue" points="224.19,-87.39 234.5,-84.94 224.91,-80.43 224.19,-87.39"/>
</g>
<!-- Node4 -->
<g id="node4" class="node">
<title>Node4</title>
<g id="a_node4"><a xlink:href="../../dc/dde/classFCarlaActor.html#aca3d1a4bfcb5e0ae1974b7206933d665" target="_top" xlink:title=" ">
<polygon fill="white" stroke="black" points="238,-38.5 238,-57.5 369,-57.5 369,-38.5 238,-38.5"/>
<text text-anchor="middle" x="303.5" y="-45.5" font-family="Helvetica,sans-Serif" font-size="10.00">FCarlaActor::GetActorId</text>
</a>
</g>
</g>
<!-- Node1&#45;&gt;Node4 -->
<g id="edge3" class="edge">
<title>Node1&#45;&gt;Node4</title>
<path fill="none" stroke="midnightblue" d="M179.18,-60.8C195.28,-59.13 211.93,-57.4 227.59,-55.77"/>
<polygon fill="midnightblue" stroke="midnightblue" points="228.13,-59.24 237.72,-54.72 227.41,-52.27 228.13,-59.24"/>
</g>
<!-- Node5 -->
<g id="node5" class="node">
<title>Node5</title>
<g id="a_node5"><a xlink:href="../../dc/d84/classUCarlaEpisode.html#a955ce4876accf63ea1a1df5fda70c31d" target="_top" xlink:title=" ">
<polygon fill="white" stroke="black" points="215,-0.5 215,-19.5 392,-19.5 392,-0.5 215,-0.5"/>
<text text-anchor="middle" x="303.5" y="-7.5" font-family="Helvetica,sans-Serif" font-size="10.00">UCarlaEpisode::GetActorRegistry</text>
</a>
</g>
</g>
<!-- Node1&#45;&gt;Node5 -->
<g id="edge4" class="edge">
<title>Node1&#45;&gt;Node5</title>
<path fill="none" stroke="midnightblue" d="M116.97,-60.39C142.01,-51.51 180.75,-38.33 215,-29 224.35,-26.45 234.34,-24.02 244.09,-21.8"/>
<polygon fill="midnightblue" stroke="midnightblue" points="245.14,-25.15 254.14,-19.56 243.62,-18.31 245.14,-25.15"/>
</g>
</g>
</svg>
