<?xml version="1.0" encoding="UTF-8" standalone="no"?>
<!DOCTYPE svg PUBLIC "-//W3C//DTD SVG 1.1//EN"
 "http://www.w3.org/Graphics/SVG/1.1/DTD/svg11.dtd">
<!-- Generated by graphviz version 2.43.0 (0)
 -->
<!-- Title: FFrameData::AddActorBoundingBox Pages: 1 -->
<svg width="594pt" height="110pt"
 viewBox="0.00 0.00 594.00 109.50" xmlns="http://www.w3.org/2000/svg" xmlns:xlink="http://www.w3.org/1999/xlink">
<g id="graph0" class="graph" transform="scale(1 1) rotate(0) translate(4 105.5)">
<title>FFrameData::AddActorBoundingBox</title>
<polygon fill="white" stroke="transparent" points="-4,4 -4,-105.5 590,-105.5 590,4 -4,4"/>
<!-- Node1 -->
<g id="node1" class="node">
<title>Node1</title>
<g id="a_node1"><a xlink:title=" ">
<polygon fill="#bfbfbf" stroke="black" points="0,-38.5 0,-57.5 191,-57.5 191,-38.5 0,-38.5"/>
<text text-anchor="middle" x="95.5" y="-45.5" font-family="Helvetica,sans-Serif" font-size="10.00">FFrameData::AddActorBoundingBox</text>
</a>
</g>
</g>
<!-- Node2 -->
<g id="node2" class="node">
<title>Node2</title>
<g id="a_node2"><a xlink:href="../../de/db4/classFFrameData.html#afdab20a7d06762b388db7ae7e862ca36" target="_top" xlink:title=" ">
<polygon fill="white" stroke="black" points="227,-76.5 227,-95.5 393,-95.5 393,-76.5 227,-76.5"/>
<text text-anchor="middle" x="310" y="-83.5" font-family="Helvetica,sans-Serif" font-size="10.00">FFrameData::AddBoundingBox</text>
</a>
</g>
</g>
<!-- Node1&#45;&gt;Node2 -->
<g id="edge1" class="edge">
<title>Node1&#45;&gt;Node2</title>
<path fill="none" stroke="midnightblue" d="M149.85,-57.54C178.9,-62.73 215.03,-69.2 245.52,-74.65"/>
<polygon fill="midnightblue" stroke="midnightblue" points="245.17,-78.14 255.63,-76.46 246.4,-71.25 245.17,-78.14"/>
</g>
<!-- Node4 -->
<g id="node4" class="node">
<title>Node4</title>
<g id="a_node4"><a xlink:href="../../dc/dde/classFCarlaActor.html#aca3d1a4bfcb5e0ae1974b7206933d665" target="_top" xlink:title=" ">
<polygon fill="white" stroke="black" points="244.5,-38.5 244.5,-57.5 375.5,-57.5 375.5,-38.5 244.5,-38.5"/>
<text text-anchor="middle" x="310" y="-45.5" font-family="Helvetica,sans-Serif" font-size="10.00">FCarlaActor::GetActorId</text>
</a>
</g>
</g>
<!-- Node1&#45;&gt;Node4 -->
<g id="edge3" class="edge">
<title>Node1&#45;&gt;Node4</title>
<path fill="none" stroke="midnightblue" d="M191.25,-48C205.54,-48 220.11,-48 233.91,-48"/>
<polygon fill="midnightblue" stroke="midnightblue" points="234.29,-51.5 244.29,-48 234.29,-44.5 234.29,-51.5"/>
</g>
<!-- Node5 -->
<g id="node5" class="node">
<title>Node5</title>
<g id="a_node5"><a xlink:href="../../dc/dde/classFCarlaActor.html#a242fc800c820c11808a55be4bff97fa2" target="_top" xlink:title=" ">
<polygon fill="white" stroke="black" points="239.5,-0.5 239.5,-19.5 380.5,-19.5 380.5,-0.5 239.5,-0.5"/>
<text text-anchor="middle" x="310" y="-7.5" font-family="Helvetica,sans-Serif" font-size="10.00">FCarlaActor::GetActorInfo</text>
</a>
</g>
</g>
<!-- Node1&#45;&gt;Node5 -->
<g id="edge4" class="edge">
<title>Node1&#45;&gt;Node5</title>
<path fill="none" stroke="midnightblue" d="M149.85,-38.46C178.9,-33.27 215.03,-26.8 245.52,-21.35"/>
<polygon fill="midnightblue" stroke="midnightblue" points="246.4,-24.75 255.63,-19.54 245.17,-17.86 246.4,-24.75"/>
</g>
<!-- Node3 -->
<g id="node3" class="node">
<title>Node3</title>
<g id="a_node3"><a xlink:href="../../d1/d74/classCarlaRecorderActorBoundingBoxes.html#a883727e9688d402abd55d900ef1bc1e9" target="_top" xlink:title=" ">
<polygon fill="white" stroke="black" points="429,-71 429,-101 586,-101 586,-71 429,-71"/>
<text text-anchor="start" x="437" y="-89" font-family="Helvetica,sans-Serif" font-size="10.00">CarlaRecorderActorBounding</text>
<text text-anchor="middle" x="507.5" y="-78" font-family="Helvetica,sans-Serif" font-size="10.00">Boxes::Add</text>
</a>
</g>
</g>
<!-- Node2&#45;&gt;Node3 -->
<g id="edge2" class="edge">
<title>Node2&#45;&gt;Node3</title>
<path fill="none" stroke="midnightblue" d="M393.06,-86C401.45,-86 410.01,-86 418.46,-86"/>
<polygon fill="midnightblue" stroke="midnightblue" points="418.71,-89.5 428.71,-86 418.71,-82.5 418.71,-89.5"/>
</g>
</g>
</svg>
