<?xml version="1.0" encoding="UTF-8" standalone="no"?>
<!DOCTYPE svg PUBLIC "-//W3C//DTD SVG 1.1//EN"
 "http://www.w3.org/Graphics/SVG/1.1/DTD/svg11.dtd">
<!-- Generated by graphviz version 2.40.1 (20161225.0304)
 -->
<!-- Title: FFrameData::Write Pages: 1 -->
<svg width="1393pt" height="167pt"
 viewBox="0.00 0.00 1393.00 167.00" xmlns="http://www.w3.org/2000/svg" xmlns:xlink="http://www.w3.org/1999/xlink">
<g id="graph0" class="graph" transform="scale(1 1) rotate(0) translate(4 163)">
<title>FFrameData::Write</title>
<polygon fill="#ffffff" stroke="transparent" points="-4,4 -4,-163 1389,-163 1389,4 -4,4"/>
<!-- Node1584 -->
<g id="node1" class="node">
<title>Node1584</title>
<polygon fill="#bfbfbf" stroke="#000000" points="0,-19.5 0,-38.5 107,-38.5 107,-19.5 0,-19.5"/>
<text text-anchor="middle" x="53.5" y="-26.5" font-family="Helvetica,sans-Serif" font-size="10.00" fill="#000000">FFrameData::Write</text>
</g>
<!-- Node1585 -->
<g id="node2" class="node">
<title>Node1585</title>
<g id="a_node2"><a xlink:href="../../dc/d49/classFCarlaEngine.html#aff440c7ba9d004e4c5b60125cc4d709b" target="_top" xlink:title="FCarlaEngine::OnPostTick">
<polygon fill="#ffffff" stroke="#000000" points="143,-38.5 143,-57.5 284,-57.5 284,-38.5 143,-38.5"/>
<text text-anchor="middle" x="213.5" y="-45.5" font-family="Helvetica,sans-Serif" font-size="10.00" fill="#000000">FCarlaEngine::OnPostTick</text>
</a>
</g>
</g>
<!-- Node1584&#45;&gt;Node1585 -->
<g id="edge1" class="edge">
<title>Node1584&#45;&gt;Node1585</title>
<path fill="none" stroke="#191970" d="M117.3182,-36.5784C125.7172,-37.5758 134.3645,-38.6027 142.8687,-39.6125"/>
<polygon fill="#191970" stroke="#191970" points="117.5658,-33.0833 107.2228,-35.3796 116.7403,-40.0345 117.5658,-33.0833"/>
</g>
<!-- Node1594 -->
<g id="node11" class="node">
<title>Node1594</title>
<g id="a_node11"><a xlink:href="../../de/db4/classFFrameData.html#ab520e8c971f0fa7e95258e6675c6e10c" target="_top" xlink:title="FFrameData::SetEpisode">
<polygon fill="#ffffff" stroke="#000000" points="146,-.5 146,-19.5 281,-19.5 281,-.5 146,-.5"/>
<text text-anchor="middle" x="213.5" y="-7.5" font-family="Helvetica,sans-Serif" font-size="10.00" fill="#000000">FFrameData::SetEpisode</text>
</a>
</g>
</g>
<!-- Node1584&#45;&gt;Node1594 -->
<g id="edge11" class="edge">
<title>Node1584&#45;&gt;Node1594</title>
<path fill="none" stroke="#191970" d="M117.3094,-21.4226C126.7425,-20.3025 136.4891,-19.145 145.9943,-18.0163"/>
<polygon fill="#191970" stroke="#191970" points="116.7403,-17.9655 107.2228,-22.6204 117.5658,-24.9167 116.7403,-17.9655"/>
</g>
<!-- Node1586 -->
<g id="node3" class="node">
<title>Node1586</title>
<g id="a_node3"><a xlink:href="../../dc/d49/classFCarlaEngine.html#a30d1221bfa4d98b62a21cc93d02c594d" target="_top" xlink:title="FCarlaEngine::GetSecondary\lServer">
<polygon fill="#ffffff" stroke="#000000" points="325,-77 325,-107 480,-107 480,-77 325,-77"/>
<text text-anchor="start" x="333" y="-95" font-family="Helvetica,sans-Serif" font-size="10.00" fill="#000000">FCarlaEngine::GetSecondary</text>
<text text-anchor="middle" x="402.5" y="-84" font-family="Helvetica,sans-Serif" font-size="10.00" fill="#000000">Server</text>
</a>
</g>
</g>
<!-- Node1585&#45;&gt;Node1586 -->
<g id="edge2" class="edge">
<title>Node1585&#45;&gt;Node1586</title>
<path fill="none" stroke="#191970" d="M264.5474,-59.884C287.0943,-65.1331 313.8599,-71.3642 337.7874,-76.9346"/>
<polygon fill="#191970" stroke="#191970" points="265.0434,-56.406 254.5102,-57.5473 263.4561,-63.2237 265.0434,-56.406"/>
</g>
<!-- Node1593 -->
<g id="node10" class="node">
<title>Node1593</title>
<g id="a_node10"><a xlink:href="../../dc/d49/classFCarlaEngine.html#ab8d13063cde985781237dd7da308227e" target="_top" xlink:title="FCarlaEngine::NotifyInitGame">
<polygon fill="#ffffff" stroke="#000000" points="322,-38.5 322,-57.5 483,-57.5 483,-38.5 322,-38.5"/>
<text text-anchor="middle" x="402.5" y="-45.5" font-family="Helvetica,sans-Serif" font-size="10.00" fill="#000000">FCarlaEngine::NotifyInitGame</text>
</a>
</g>
</g>
<!-- Node1585&#45;&gt;Node1593 -->
<g id="edge10" class="edge">
<title>Node1585&#45;&gt;Node1593</title>
<path fill="none" stroke="#191970" d="M294.3187,-48C303.4107,-48 312.6752,-48 321.7661,-48"/>
<polygon fill="#191970" stroke="#191970" points="294.1454,-44.5001 284.1454,-48 294.1454,-51.5001 294.1454,-44.5001"/>
</g>
<!-- Node1587 -->
<g id="node4" class="node">
<title>Node1587</title>
<g id="a_node4"><a xlink:href="../../dc/d84/classUCarlaEpisode.html#ade49c565b15265f72bb0da9704573a14" target="_top" xlink:title="Load a new map and start a new episode. ">
<polygon fill="#ffffff" stroke="#000000" points="521,-82.5 521,-101.5 698,-101.5 698,-82.5 521,-82.5"/>
<text text-anchor="middle" x="609.5" y="-89.5" font-family="Helvetica,sans-Serif" font-size="10.00" fill="#000000">UCarlaEpisode::LoadNewEpisode</text>
</a>
</g>
</g>
<!-- Node1586&#45;&gt;Node1587 -->
<g id="edge3" class="edge">
<title>Node1586&#45;&gt;Node1587</title>
<path fill="none" stroke="#191970" d="M490.248,-92C500.412,-92 510.7835,-92 520.9581,-92"/>
<polygon fill="#191970" stroke="#191970" points="490.1681,-88.5001 480.1681,-92 490.1681,-95.5001 490.1681,-88.5001"/>
</g>
<!-- Node1588 -->
<g id="node5" class="node">
<title>Node1588</title>
<g id="a_node5"><a xlink:href="../../dc/dc6/classCarlaReplayer.html#a480fd94fedc2367d7f7f58f17f3cd5a4" target="_top" xlink:title="CarlaReplayer::ReplayFile">
<polygon fill="#ffffff" stroke="#000000" points="734,-101.5 734,-120.5 874,-120.5 874,-101.5 734,-101.5"/>
<text text-anchor="middle" x="804" y="-108.5" font-family="Helvetica,sans-Serif" font-size="10.00" fill="#000000">CarlaReplayer::ReplayFile</text>
</a>
</g>
</g>
<!-- Node1587&#45;&gt;Node1588 -->
<g id="edge4" class="edge">
<title>Node1587&#45;&gt;Node1588</title>
<path fill="none" stroke="#191970" d="M708.297,-101.6511C716.8949,-102.491 725.4767,-103.3293 733.7735,-104.1398"/>
<polygon fill="#191970" stroke="#191970" points="708.5054,-98.1549 698.2124,-100.666 707.8247,-105.1217 708.5054,-98.1549"/>
</g>
<!-- Node1590 -->
<g id="node7" class="node">
<title>Node1590</title>
<g id="a_node7"><a xlink:href="../../d7/d97/classFCarlaServer_1_1FPimpl.html#a675a6b572112a21e8bc011dddfd0de86" target="_top" xlink:title="FCarlaServer::FPimpl\l::BindActions">
<polygon fill="#ffffff" stroke="#000000" points="1113,-96 1113,-126 1231,-126 1231,-96 1113,-96"/>
<text text-anchor="start" x="1121" y="-114" font-family="Helvetica,sans-Serif" font-size="10.00" fill="#000000">FCarlaServer::FPimpl</text>
<text text-anchor="middle" x="1172" y="-103" font-family="Helvetica,sans-Serif" font-size="10.00" fill="#000000">::BindActions</text>
</a>
</g>
</g>
<!-- Node1587&#45;&gt;Node1590 -->
<g id="edge9" class="edge">
<title>Node1587&#45;&gt;Node1590</title>
<path fill="none" stroke="#191970" d="M708.2274,-86.3688C803.0371,-82.2895 950.1711,-79.4415 1077,-92 1088.7165,-93.1602 1101.1285,-95.1065 1112.9796,-97.3222"/>
<polygon fill="#191970" stroke="#191970" points="707.9106,-82.8793 698.0755,-86.8189 708.2207,-89.8724 707.9106,-82.8793"/>
</g>
<!-- Node1589 -->
<g id="node6" class="node">
<title>Node1589</title>
<g id="a_node6"><a xlink:href="../../dd/db9/classACarlaRecorder.html#a5dc891241c275eedcf6b1f189751520b" target="_top" xlink:title="ACarlaRecorder::ReplayFile">
<polygon fill="#ffffff" stroke="#000000" points="920,-139.5 920,-158.5 1067,-158.5 1067,-139.5 920,-139.5"/>
<text text-anchor="middle" x="993.5" y="-146.5" font-family="Helvetica,sans-Serif" font-size="10.00" fill="#000000">ACarlaRecorder::ReplayFile</text>
</a>
</g>
</g>
<!-- Node1588&#45;&gt;Node1589 -->
<g id="edge5" class="edge">
<title>Node1588&#45;&gt;Node1589</title>
<path fill="none" stroke="#191970" d="M861.8948,-122.6095C888.846,-128.014 920.5102,-134.3635 946.025,-139.4799"/>
<polygon fill="#191970" stroke="#191970" points="862.3118,-119.1235 851.8189,-120.589 860.9355,-125.9869 862.3118,-119.1235"/>
</g>
<!-- Node1592 -->
<g id="node9" class="node">
<title>Node1592</title>
<g id="a_node9"><a xlink:href="../../dc/dc6/classCarlaReplayer.html#a6dadadd7719c5e660d2e3d99b22f5961" target="_top" xlink:title="CarlaReplayer::~CarlaReplayer">
<polygon fill="#ffffff" stroke="#000000" points="910,-101.5 910,-120.5 1077,-120.5 1077,-101.5 910,-101.5"/>
<text text-anchor="middle" x="993.5" y="-108.5" font-family="Helvetica,sans-Serif" font-size="10.00" fill="#000000">CarlaReplayer::~CarlaReplayer</text>
</a>
</g>
</g>
<!-- Node1588&#45;&gt;Node1592 -->
<g id="edge8" class="edge">
<title>Node1588&#45;&gt;Node1592</title>
<path fill="none" stroke="#191970" d="M884.2898,-111C892.7857,-111 901.4405,-111 909.9721,-111"/>
<polygon fill="#191970" stroke="#191970" points="884.0244,-107.5001 874.0244,-111 884.0244,-114.5001 884.0244,-107.5001"/>
</g>
<!-- Node1589&#45;&gt;Node1590 -->
<g id="edge6" class="edge">
<title>Node1589&#45;&gt;Node1590</title>
<path fill="none" stroke="#191970" d="M1048.5949,-137.2711C1068.9481,-132.9382 1092.0921,-128.0112 1112.7945,-123.604"/>
<polygon fill="#191970" stroke="#191970" points="1047.5951,-133.9054 1038.5431,-139.411 1049.0527,-140.752 1047.5951,-133.9054"/>
</g>
<!-- Node1591 -->
<g id="node8" class="node">
<title>Node1591</title>
<g id="a_node8"><a xlink:href="../../d7/d97/classFCarlaServer_1_1FPimpl.html#ab9ff29fc81bd2f9a14677941c7f7b62d" target="_top" xlink:title="FCarlaServer::FPimpl\l::FPimpl">
<polygon fill="#ffffff" stroke="#000000" points="1267,-96 1267,-126 1385,-126 1385,-96 1267,-96"/>
<text text-anchor="start" x="1275" y="-114" font-family="Helvetica,sans-Serif" font-size="10.00" fill="#000000">FCarlaServer::FPimpl</text>
<text text-anchor="middle" x="1326" y="-103" font-family="Helvetica,sans-Serif" font-size="10.00" fill="#000000">::FPimpl</text>
</a>
</g>
</g>
<!-- Node1590&#45;&gt;Node1591 -->
<g id="edge7" class="edge">
<title>Node1590&#45;&gt;Node1591</title>
<path fill="none" stroke="#191970" d="M1241.3691,-111C1249.8618,-111 1258.4796,-111 1266.8037,-111"/>
<polygon fill="#191970" stroke="#191970" points="1241.1,-107.5001 1231.1,-111 1241.1,-114.5001 1241.1,-107.5001"/>
</g>
<!-- Node1595 -->
<g id="node12" class="node">
<title>Node1595</title>
<g id="a_node12"><a xlink:href="../../dc/d84/classUCarlaEpisode.html#a2f0288d27d5fd7c84c33ebad36621cc7" target="_top" xlink:title="UCarlaEpisode::UCarlaEpisode">
<polygon fill="#ffffff" stroke="#000000" points="320,-.5 320,-19.5 485,-19.5 485,-.5 320,-.5"/>
<text text-anchor="middle" x="402.5" y="-7.5" font-family="Helvetica,sans-Serif" font-size="10.00" fill="#000000">UCarlaEpisode::UCarlaEpisode</text>
</a>
</g>
</g>
<!-- Node1594&#45;&gt;Node1595 -->
<g id="edge12" class="edge">
<title>Node1594&#45;&gt;Node1595</title>
<path fill="none" stroke="#191970" d="M291.2854,-10C300.6794,-10 310.3011,-10 319.763,-10"/>
<polygon fill="#191970" stroke="#191970" points="291.1995,-6.5001 281.1995,-10 291.1995,-13.5001 291.1995,-6.5001"/>
</g>
</g>
</svg>
