<?xml version="1.0" encoding="UTF-8" standalone="no"?>
<!DOCTYPE svg PUBLIC "-//W3C//DTD SVG 1.1//EN"
 "http://www.w3.org/Graphics/SVG/1.1/DTD/svg11.dtd">
<!-- Generated by graphviz version 2.43.0 (0)
 -->
<!-- Title: SensorHeaderSerializer.h Pages: 1 -->
<!--zoomable 532 -->
<svg id="main" version="1.1" xmlns="http://www.w3.org/2000/svg" xmlns:xlink="http://www.w3.org/1999/xlink" xml:space="preserve" onload="init(evt)">
<style type="text/css"><![CDATA[
.edge:hover path { stroke: red; }
.edge:hover polygon { stroke: red; fill: red; }
]]></style>
<script type="text/javascript"><![CDATA[
var edges = document.getElementsByTagName('g');
if (edges && edges.length) {
  for (var i=0;i<edges.length;i++) {
    if (edges[i].id.substr(0,4)=='edge') {
      edges[i].setAttribute('class','edge');
    }
  }
}
]]></script>
        <defs>
                <circle id="rim" cx="0" cy="0" r="7"/>
                <circle id="rim2" cx="0" cy="0" r="3.5"/>
                <g id="zoomPlus">
                        <use xlink:href="#rim" fill="#404040">
                                <set attributeName="fill" to="#808080" begin="zoomplus.mouseover" end="zoomplus.mouseout"/>
                        </use>
                        <path d="M-4,0h8M0,-4v8" fill="none" stroke="white" stroke-width="1.5" pointer-events="none"/>
                </g>
                <g id="zoomMin">
                        <use xlink:href="#rim" fill="#404040">
                                <set attributeName="fill" to="#808080" begin="zoomminus.mouseover" end="zoomminus.mouseout"/>
                        </use>
                        <path d="M-4,0h8" fill="none" stroke="white" stroke-width="1.5" pointer-events="none"/>
                </g>
                <g id="dirArrow">
                        <path fill="none" stroke="white" stroke-width="1.5" d="M0,-3.0v7 M-2.5,-0.5L0,-3.0L2.5,-0.5"/>
                </g>
               <g id="resetDef">
                       <use xlink:href="#rim2" fill="#404040">
                               <set attributeName="fill" to="#808080" begin="reset.mouseover" end="reset.mouseout"/>
                       </use>
               </g>
        </defs>

<script type="text/javascript">
var viewWidth = 709;
var viewHeight = 532;
var sectionId = 'dynsection-0';
</script>
<script xlink:href="../../svgpan.js"/>
<svg id="graph" class="graph">
<g id="viewport">
<title>SensorHeaderSerializer.h</title>
<polygon fill="white" stroke="transparent" points="-4,4 -4,-528 704.5,-528 704.5,4 -4,4"/>
<!-- Node1 -->
<g id="node1" class="node">
<title>Node1</title>
<g id="a_node1"><a xlink:title=" ">
<polygon fill="#bfbfbf" stroke="black" points="133.5,-504.5 133.5,-523.5 272.5,-523.5 272.5,-504.5 133.5,-504.5"/>
<text text-anchor="middle" x="203" y="-511.5" font-family="Helvetica,sans-Serif" font-size="10.00">SensorHeaderSerializer.h</text>
</a>
</g>
</g>
<!-- Node2 -->
<g id="node2" class="node">
<title>Node2</title>
<g id="a_node2"><a xlink:href="../../d2/dda/carla_2Buffer_8h.html" target="_top" xlink:title=" ">
<polygon fill="white" stroke="black" points="189.5,-112.5 189.5,-131.5 270.5,-131.5 270.5,-112.5 189.5,-112.5"/>
<text text-anchor="middle" x="230" y="-119.5" font-family="Helvetica,sans-Serif" font-size="10.00">carla/Buffer.h</text>
</a>
</g>
</g>
<!-- Node1&#45;&gt;Node2 -->
<g id="edge1" class="edge">
<title>Node1&#45;&gt;Node2</title>
<path fill="none" stroke="midnightblue" d="M196.88,-504.35C184.79,-486.38 159,-443.31 159,-403 159,-403 159,-403 159,-233 159,-194.1 190.73,-158.05 211.77,-138.43"/>
<polygon fill="midnightblue" stroke="midnightblue" points="214.11,-141.02 219.22,-131.74 209.44,-135.81 214.11,-141.02"/>
</g>
<!-- Node15 -->
<g id="node15" class="node">
<title>Node15</title>
<g id="a_node15"><a xlink:href="../../df/d36/rpc_2Transform_8h.html" target="_top" xlink:title=" ">
<polygon fill="white" stroke="black" points="234.5,-448.5 234.5,-467.5 353.5,-467.5 353.5,-448.5 234.5,-448.5"/>
<text text-anchor="middle" x="294" y="-455.5" font-family="Helvetica,sans-Serif" font-size="10.00">carla/rpc/Transform.h</text>
</a>
</g>
</g>
<!-- Node1&#45;&gt;Node15 -->
<g id="edge15" class="edge">
<title>Node1&#45;&gt;Node15</title>
<path fill="none" stroke="midnightblue" d="M217.62,-504.32C231.95,-495.82 254.01,-482.73 270.75,-472.8"/>
<polygon fill="midnightblue" stroke="midnightblue" points="272.6,-475.77 279.42,-467.65 269.03,-469.75 272.6,-475.77"/>
</g>
<!-- Node3 -->
<g id="node3" class="node">
<title>Node3</title>
<g id="a_node3"><a xlink:href="../../d4/deb/Debug_8h.html" target="_top" xlink:title=" ">
<polygon fill="white" stroke="black" points="492,-56.5 492,-75.5 576,-75.5 576,-56.5 492,-56.5"/>
<text text-anchor="middle" x="534" y="-63.5" font-family="Helvetica,sans-Serif" font-size="10.00">carla/Debug.h</text>
</a>
</g>
</g>
<!-- Node2&#45;&gt;Node3 -->
<g id="edge2" class="edge">
<title>Node2&#45;&gt;Node3</title>
<path fill="none" stroke="midnightblue" d="M270.66,-113.67C273.82,-113.11 276.96,-112.54 280,-112 317.85,-105.24 419.18,-87.31 481.81,-76.23"/>
<polygon fill="midnightblue" stroke="midnightblue" points="482.66,-79.63 491.9,-74.44 481.44,-72.74 482.66,-79.63"/>
</g>
<!-- Node4 -->
<g id="node4" class="node">
<title>Node4</title>
<g id="a_node4"><a xlink:href="../../d8/d8a/Exception_8h.html" target="_top" xlink:title=" ">
<polygon fill="white" stroke="black" points="332.5,-0.5 332.5,-19.5 433.5,-19.5 433.5,-0.5 332.5,-0.5"/>
<text text-anchor="middle" x="383" y="-7.5" font-family="Helvetica,sans-Serif" font-size="10.00">carla/Exception.h</text>
</a>
</g>
</g>
<!-- Node2&#45;&gt;Node4 -->
<g id="edge6" class="edge">
<title>Node2&#45;&gt;Node4</title>
<path fill="none" stroke="midnightblue" d="M224.24,-112.47C215.97,-99.06 203.08,-72.86 216,-56 229.1,-38.9 279.99,-26.83 322.18,-19.53"/>
<polygon fill="midnightblue" stroke="midnightblue" points="322.85,-22.96 332.14,-17.86 321.7,-16.06 322.85,-22.96"/>
</g>
<!-- Node7 -->
<g id="node7" class="node">
<title>Node7</title>
<g id="a_node7"><a xlink:href="../../de/d87/Logging_8h.html" target="_top" xlink:title=" ">
<polygon fill="white" stroke="black" points="76.5,-56.5 76.5,-75.5 167.5,-75.5 167.5,-56.5 76.5,-56.5"/>
<text text-anchor="middle" x="122" y="-63.5" font-family="Helvetica,sans-Serif" font-size="10.00">carla/Logging.h</text>
</a>
</g>
</g>
<!-- Node2&#45;&gt;Node7 -->
<g id="edge7" class="edge">
<title>Node2&#45;&gt;Node7</title>
<path fill="none" stroke="midnightblue" d="M212.65,-112.32C195.33,-103.66 168.48,-90.24 148.5,-80.25"/>
<polygon fill="midnightblue" stroke="midnightblue" points="149.82,-77 139.31,-75.65 146.69,-83.26 149.82,-77"/>
</g>
<!-- Node10 -->
<g id="node10" class="node">
<title>Node10</title>
<g id="a_node10"><a xlink:title=" ">
<polygon fill="white" stroke="#bfbfbf" points="224.5,-56.5 224.5,-75.5 343.5,-75.5 343.5,-56.5 224.5,-56.5"/>
<text text-anchor="middle" x="284" y="-63.5" font-family="Helvetica,sans-Serif" font-size="10.00">boost/asio/buffer.hpp</text>
</a>
</g>
</g>
<!-- Node2&#45;&gt;Node10 -->
<g id="edge10" class="edge">
<title>Node2&#45;&gt;Node10</title>
<path fill="none" stroke="midnightblue" d="M238.92,-112.08C246.78,-104.22 258.43,-92.57 267.92,-83.08"/>
<polygon fill="midnightblue" stroke="midnightblue" points="270.65,-85.3 275.25,-75.75 265.7,-80.35 270.65,-85.3"/>
</g>
<!-- Node11 -->
<g id="node11" class="node">
<title>Node11</title>
<g id="a_node11"><a xlink:title=" ">
<polygon fill="white" stroke="#bfbfbf" points="362,-56.5 362,-75.5 412,-75.5 412,-56.5 362,-56.5"/>
<text text-anchor="middle" x="387" y="-63.5" font-family="Helvetica,sans-Serif" font-size="10.00">cstdint</text>
</a>
</g>
</g>
<!-- Node2&#45;&gt;Node11 -->
<g id="edge11" class="edge">
<title>Node2&#45;&gt;Node11</title>
<path fill="none" stroke="midnightblue" d="M254.88,-112.44C281.29,-103.36 323.22,-88.94 352.74,-78.78"/>
<polygon fill="midnightblue" stroke="midnightblue" points="353.92,-82.08 362.24,-75.52 351.64,-75.46 353.92,-82.08"/>
</g>
<!-- Node12 -->
<g id="node12" class="node">
<title>Node12</title>
<g id="a_node12"><a xlink:title=" ">
<polygon fill="white" stroke="#bfbfbf" points="430,-56.5 430,-75.5 474,-75.5 474,-56.5 430,-56.5"/>
<text text-anchor="middle" x="452" y="-63.5" font-family="Helvetica,sans-Serif" font-size="10.00">limits</text>
</a>
</g>
</g>
<!-- Node2&#45;&gt;Node12 -->
<g id="edge12" class="edge">
<title>Node2&#45;&gt;Node12</title>
<path fill="none" stroke="midnightblue" d="M268.92,-112.44C305.5,-104.26 362.01,-91.28 419.67,-76.25"/>
<polygon fill="midnightblue" stroke="midnightblue" points="420.9,-79.55 429.69,-73.63 419.13,-72.78 420.9,-79.55"/>
</g>
<!-- Node13 -->
<g id="node13" class="node">
<title>Node13</title>
<g id="a_node13"><a xlink:title=" ">
<polygon fill="white" stroke="#bfbfbf" points="0,-56.5 0,-75.5 58,-75.5 58,-56.5 0,-56.5"/>
<text text-anchor="middle" x="29" y="-63.5" font-family="Helvetica,sans-Serif" font-size="10.00">memory</text>
</a>
</g>
</g>
<!-- Node2&#45;&gt;Node13 -->
<g id="edge13" class="edge">
<title>Node2&#45;&gt;Node13</title>
<path fill="none" stroke="midnightblue" d="M198.15,-112.44C162.79,-102.94 105.7,-87.61 67.77,-77.42"/>
<polygon fill="midnightblue" stroke="midnightblue" points="68.66,-74.03 58.09,-74.82 66.84,-80.79 68.66,-74.03"/>
</g>
<!-- Node14 -->
<g id="node14" class="node">
<title>Node14</title>
<g id="a_node14"><a xlink:title=" ">
<polygon fill="white" stroke="#bfbfbf" points="631.5,-56.5 631.5,-75.5 700.5,-75.5 700.5,-56.5 631.5,-56.5"/>
<text text-anchor="middle" x="666" y="-63.5" font-family="Helvetica,sans-Serif" font-size="10.00">type_traits</text>
</a>
</g>
</g>
<!-- Node2&#45;&gt;Node14 -->
<g id="edge14" class="edge">
<title>Node2&#45;&gt;Node14</title>
<path fill="none" stroke="midnightblue" d="M270.62,-113.47C273.79,-112.95 276.95,-112.45 280,-112 313.09,-107.1 526.56,-82.79 621.08,-72.08"/>
<polygon fill="midnightblue" stroke="midnightblue" points="621.65,-75.54 631.19,-70.93 620.86,-68.58 621.65,-75.54"/>
</g>
<!-- Node3&#45;&gt;Node4 -->
<g id="edge3" class="edge">
<title>Node3&#45;&gt;Node4</title>
<path fill="none" stroke="midnightblue" d="M510.07,-56.44C484.78,-47.4 444.7,-33.06 416.32,-22.92"/>
<polygon fill="midnightblue" stroke="midnightblue" points="417.41,-19.59 406.81,-19.52 415.05,-26.18 417.41,-19.59"/>
</g>
<!-- Node5 -->
<g id="node5" class="node">
<title>Node5</title>
<g id="a_node5"><a xlink:title=" ">
<polygon fill="white" stroke="#bfbfbf" points="462.5,-0.5 462.5,-19.5 527.5,-19.5 527.5,-0.5 462.5,-0.5"/>
<text text-anchor="middle" x="495" y="-7.5" font-family="Helvetica,sans-Serif" font-size="10.00">stdexcept</text>
</a>
</g>
</g>
<!-- Node3&#45;&gt;Node5 -->
<g id="edge4" class="edge">
<title>Node3&#45;&gt;Node5</title>
<path fill="none" stroke="midnightblue" d="M527.56,-56.08C522.05,-48.46 513.97,-37.26 507.24,-27.94"/>
<polygon fill="midnightblue" stroke="midnightblue" points="510.01,-25.81 501.32,-19.75 504.34,-29.91 510.01,-25.81"/>
</g>
<!-- Node6 -->
<g id="node6" class="node">
<title>Node6</title>
<g id="a_node6"><a xlink:title=" ">
<polygon fill="white" stroke="#bfbfbf" points="546,-0.5 546,-19.5 598,-19.5 598,-0.5 546,-0.5"/>
<text text-anchor="middle" x="572" y="-7.5" font-family="Helvetica,sans-Serif" font-size="10.00">cassert</text>
</a>
</g>
</g>
<!-- Node3&#45;&gt;Node6 -->
<g id="edge5" class="edge">
<title>Node3&#45;&gt;Node6</title>
<path fill="none" stroke="midnightblue" d="M540.27,-56.08C545.64,-48.46 553.52,-37.26 560.08,-27.94"/>
<polygon fill="midnightblue" stroke="midnightblue" points="562.95,-29.94 565.84,-19.75 557.22,-25.91 562.95,-29.94"/>
</g>
<!-- Node8 -->
<g id="node8" class="node">
<title>Node8</title>
<g id="a_node8"><a xlink:href="../../d9/dd0/Platform_8h.html" target="_top" xlink:title=" ">
<polygon fill="white" stroke="black" points="122.5,-0.5 122.5,-19.5 217.5,-19.5 217.5,-0.5 122.5,-0.5"/>
<text text-anchor="middle" x="170" y="-7.5" font-family="Helvetica,sans-Serif" font-size="10.00">carla/Platform.h</text>
</a>
</g>
</g>
<!-- Node7&#45;&gt;Node8 -->
<g id="edge8" class="edge">
<title>Node7&#45;&gt;Node8</title>
<path fill="none" stroke="midnightblue" d="M129.93,-56.08C136.85,-48.3 147.07,-36.8 155.45,-27.37"/>
<polygon fill="midnightblue" stroke="midnightblue" points="158.19,-29.55 162.22,-19.75 152.96,-24.9 158.19,-29.55"/>
</g>
<!-- Node9 -->
<g id="node9" class="node">
<title>Node9</title>
<g id="a_node9"><a xlink:title=" ">
<polygon fill="white" stroke="#bfbfbf" points="44,-0.5 44,-19.5 104,-19.5 104,-0.5 44,-0.5"/>
<text text-anchor="middle" x="74" y="-7.5" font-family="Helvetica,sans-Serif" font-size="10.00">iostream</text>
</a>
</g>
</g>
<!-- Node7&#45;&gt;Node9 -->
<g id="edge9" class="edge">
<title>Node7&#45;&gt;Node9</title>
<path fill="none" stroke="midnightblue" d="M114.07,-56.08C107.15,-48.3 96.93,-36.8 88.55,-27.37"/>
<polygon fill="midnightblue" stroke="midnightblue" points="91.04,-24.9 81.78,-19.75 85.81,-29.55 91.04,-24.9"/>
</g>
<!-- Node16 -->
<g id="node16" class="node">
<title>Node16</title>
<g id="a_node16"><a xlink:href="../../de/d17/geom_2Transform_8h.html" target="_top" xlink:title=" ">
<polygon fill="white" stroke="black" points="276,-392.5 276,-411.5 408,-411.5 408,-392.5 276,-392.5"/>
<text text-anchor="middle" x="342" y="-399.5" font-family="Helvetica,sans-Serif" font-size="10.00">carla/geom/Transform.h</text>
</a>
</g>
</g>
<!-- Node15&#45;&gt;Node16 -->
<g id="edge16" class="edge">
<title>Node15&#45;&gt;Node16</title>
<path fill="none" stroke="midnightblue" d="M301.93,-448.08C308.85,-440.3 319.07,-428.8 327.45,-419.37"/>
<polygon fill="midnightblue" stroke="midnightblue" points="330.19,-421.55 334.22,-411.75 324.96,-416.9 330.19,-421.55"/>
</g>
<!-- Node17 -->
<g id="node17" class="node">
<title>Node17</title>
<g id="a_node17"><a xlink:href="../../d9/d6f/MsgPack_8h.html" target="_top" xlink:title=" ">
<polygon fill="white" stroke="black" points="202.5,-168.5 202.5,-187.5 297.5,-187.5 297.5,-168.5 202.5,-168.5"/>
<text text-anchor="middle" x="250" y="-175.5" font-family="Helvetica,sans-Serif" font-size="10.00">carla/MsgPack.h</text>
</a>
</g>
</g>
<!-- Node16&#45;&gt;Node17 -->
<g id="edge17" class="edge">
<title>Node16&#45;&gt;Node17</title>
<path fill="none" stroke="midnightblue" d="M319.81,-392.36C303.88,-385.02 283.15,-372.97 271,-356 236.15,-307.31 240.03,-283.75 244,-224 244.57,-215.34 245.77,-205.81 246.94,-197.75"/>
<polygon fill="midnightblue" stroke="midnightblue" points="250.44,-198.01 248.51,-187.59 243.52,-196.94 250.44,-198.01"/>
</g>
<!-- Node19 -->
<g id="node19" class="node">
<title>Node19</title>
<g id="a_node19"><a xlink:href="../../d9/d8b/geom_2Location_8h.html" target="_top" xlink:title=" ">
<polygon fill="white" stroke="black" points="422.5,-336.5 422.5,-355.5 547.5,-355.5 547.5,-336.5 422.5,-336.5"/>
<text text-anchor="middle" x="485" y="-343.5" font-family="Helvetica,sans-Serif" font-size="10.00">carla/geom/Location.h</text>
</a>
</g>
</g>
<!-- Node16&#45;&gt;Node19 -->
<g id="edge20" class="edge">
<title>Node16&#45;&gt;Node19</title>
<path fill="none" stroke="midnightblue" d="M364.66,-392.44C388.4,-383.48 425.91,-369.31 452.74,-359.18"/>
<polygon fill="midnightblue" stroke="midnightblue" points="454.33,-362.32 462.45,-355.52 451.86,-355.77 454.33,-362.32"/>
</g>
<!-- Node23 -->
<g id="node23" class="node">
<title>Node23</title>
<g id="a_node23"><a xlink:href="../../db/d8a/Math_8h.html" target="_top" xlink:title=" ">
<polygon fill="white" stroke="black" points="522,-280.5 522,-299.5 630,-299.5 630,-280.5 522,-280.5"/>
<text text-anchor="middle" x="576" y="-287.5" font-family="Helvetica,sans-Serif" font-size="10.00">carla/geom/Math.h</text>
</a>
</g>
</g>
<!-- Node16&#45;&gt;Node23 -->
<g id="edge35" class="edge">
<title>Node16&#45;&gt;Node23</title>
<path fill="none" stroke="midnightblue" d="M408,-394.63C462.97,-388.01 535.58,-375.81 557,-356 569.67,-344.28 574.06,-324.64 575.49,-310"/>
<polygon fill="midnightblue" stroke="midnightblue" points="579.01,-309.78 576.12,-299.59 572.03,-309.36 579.01,-309.78"/>
</g>
<!-- Node25 -->
<g id="node25" class="node">
<title>Node25</title>
<g id="a_node25"><a xlink:href="../../d0/d8f/Rotation_8h.html" target="_top" xlink:title=" ">
<polygon fill="white" stroke="black" points="279.5,-336.5 279.5,-355.5 404.5,-355.5 404.5,-336.5 279.5,-336.5"/>
<text text-anchor="middle" x="342" y="-343.5" font-family="Helvetica,sans-Serif" font-size="10.00">carla/geom/Rotation.h</text>
</a>
</g>
</g>
<!-- Node16&#45;&gt;Node25 -->
<g id="edge36" class="edge">
<title>Node16&#45;&gt;Node25</title>
<path fill="none" stroke="midnightblue" d="M342,-392.08C342,-385.01 342,-374.86 342,-365.99"/>
<polygon fill="midnightblue" stroke="midnightblue" points="345.5,-365.75 342,-355.75 338.5,-365.75 345.5,-365.75"/>
</g>
<!-- Node17&#45;&gt;Node2 -->
<g id="edge18" class="edge">
<title>Node17&#45;&gt;Node2</title>
<path fill="none" stroke="midnightblue" d="M246.7,-168.08C244.02,-160.85 240.15,-150.41 236.81,-141.4"/>
<polygon fill="midnightblue" stroke="midnightblue" points="240,-139.91 233.24,-131.75 233.43,-142.34 240,-139.91"/>
</g>
<!-- Node18 -->
<g id="node18" class="node">
<title>Node18</title>
<g id="a_node18"><a xlink:title=" ">
<polygon fill="white" stroke="#bfbfbf" points="289,-112.5 289,-131.5 389,-131.5 389,-112.5 289,-112.5"/>
<text text-anchor="middle" x="339" y="-119.5" font-family="Helvetica,sans-Serif" font-size="10.00">rpc/msgpack.hpp</text>
</a>
</g>
</g>
<!-- Node17&#45;&gt;Node18 -->
<g id="edge19" class="edge">
<title>Node17&#45;&gt;Node18</title>
<path fill="none" stroke="midnightblue" d="M264.3,-168.32C278.18,-159.9 299.49,-146.97 315.8,-137.07"/>
<polygon fill="midnightblue" stroke="midnightblue" points="318,-139.83 324.74,-131.65 314.37,-133.85 318,-139.83"/>
</g>
<!-- Node20 -->
<g id="node20" class="node">
<title>Node20</title>
<g id="a_node20"><a xlink:href="../../de/d70/geom_2Vector3D_8h.html" target="_top" xlink:title=" ">
<polygon fill="white" stroke="black" points="421,-224.5 421,-243.5 549,-243.5 549,-224.5 421,-224.5"/>
<text text-anchor="middle" x="485" y="-231.5" font-family="Helvetica,sans-Serif" font-size="10.00">carla/geom/Vector3D.h</text>
</a>
</g>
</g>
<!-- Node19&#45;&gt;Node20 -->
<g id="edge21" class="edge">
<title>Node19&#45;&gt;Node20</title>
<path fill="none" stroke="midnightblue" d="M485,-336.37C485,-318.62 485,-277.67 485,-253.6"/>
<polygon fill="midnightblue" stroke="midnightblue" points="488.5,-253.59 485,-243.59 481.5,-253.59 488.5,-253.59"/>
</g>
<!-- Node22 -->
<g id="node22" class="node">
<title>Node22</title>
<g id="a_node22"><a xlink:href="../../d1/da4/Vector3DInt_8h.html" target="_top" xlink:title=" ">
<polygon fill="white" stroke="black" points="263,-224.5 263,-243.5 403,-243.5 403,-224.5 263,-224.5"/>
<text text-anchor="middle" x="333" y="-231.5" font-family="Helvetica,sans-Serif" font-size="10.00">carla/geom/Vector3DInt.h</text>
</a>
</g>
</g>
<!-- Node19&#45;&gt;Node22 -->
<g id="edge25" class="edge">
<title>Node19&#45;&gt;Node22</title>
<path fill="none" stroke="midnightblue" d="M473.07,-336.37C447.1,-317.57 385.19,-272.77 353.08,-249.53"/>
<polygon fill="midnightblue" stroke="midnightblue" points="355.02,-246.62 344.87,-243.59 350.92,-252.29 355.02,-246.62"/>
</g>
<!-- Node19&#45;&gt;Node23 -->
<g id="edge29" class="edge">
<title>Node19&#45;&gt;Node23</title>
<path fill="none" stroke="midnightblue" d="M499.62,-336.32C513.95,-327.82 536.01,-314.73 552.75,-304.8"/>
<polygon fill="midnightblue" stroke="midnightblue" points="554.6,-307.77 561.42,-299.65 551.03,-301.75 554.6,-307.77"/>
</g>
<!-- Node20&#45;&gt;Node12 -->
<g id="edge24" class="edge">
<title>Node20&#45;&gt;Node12</title>
<path fill="none" stroke="midnightblue" d="M490.09,-224.2C496.66,-211.74 506.73,-188.22 502,-168 494.64,-136.55 475.98,-103.65 463.65,-84.26"/>
<polygon fill="midnightblue" stroke="midnightblue" points="466.43,-82.12 458.03,-75.66 460.57,-85.95 466.43,-82.12"/>
</g>
<!-- Node20&#45;&gt;Node17 -->
<g id="edge22" class="edge">
<title>Node20&#45;&gt;Node17</title>
<path fill="none" stroke="midnightblue" d="M447.76,-224.44C406.94,-215.06 341.36,-199.99 297.02,-189.8"/>
<polygon fill="midnightblue" stroke="midnightblue" points="297.59,-186.34 287.06,-187.52 296.02,-193.17 297.59,-186.34"/>
</g>
<!-- Node21 -->
<g id="node21" class="node">
<title>Node21</title>
<g id="a_node21"><a xlink:title=" ">
<polygon fill="white" stroke="#bfbfbf" points="445.5,-168.5 445.5,-187.5 492.5,-187.5 492.5,-168.5 445.5,-168.5"/>
<text text-anchor="middle" x="469" y="-175.5" font-family="Helvetica,sans-Serif" font-size="10.00">cmath</text>
</a>
</g>
</g>
<!-- Node20&#45;&gt;Node21 -->
<g id="edge23" class="edge">
<title>Node20&#45;&gt;Node21</title>
<path fill="none" stroke="midnightblue" d="M482.36,-224.08C480.21,-216.85 477.12,-206.41 474.45,-197.4"/>
<polygon fill="midnightblue" stroke="midnightblue" points="477.79,-196.34 471.59,-187.75 471.08,-198.33 477.79,-196.34"/>
</g>
<!-- Node22&#45;&gt;Node12 -->
<g id="edge28" class="edge">
<title>Node22&#45;&gt;Node12</title>
<path fill="none" stroke="midnightblue" d="M339.4,-224.08C358.45,-197.49 415.05,-118.54 439.98,-83.76"/>
<polygon fill="midnightblue" stroke="midnightblue" points="442.88,-85.73 445.86,-75.57 437.19,-81.66 442.88,-85.73"/>
</g>
<!-- Node22&#45;&gt;Node17 -->
<g id="edge26" class="edge">
<title>Node22&#45;&gt;Node17</title>
<path fill="none" stroke="midnightblue" d="M319.66,-224.32C306.84,-215.98 287.22,-203.21 272.06,-193.35"/>
<polygon fill="midnightblue" stroke="midnightblue" points="273.59,-190.17 263.3,-187.65 269.78,-196.04 273.59,-190.17"/>
</g>
<!-- Node22&#45;&gt;Node21 -->
<g id="edge27" class="edge">
<title>Node22&#45;&gt;Node21</title>
<path fill="none" stroke="midnightblue" d="M354.55,-224.44C377.03,-215.52 412.49,-201.44 437.98,-191.32"/>
<polygon fill="midnightblue" stroke="midnightblue" points="439.55,-194.46 447.55,-187.52 436.97,-187.95 439.55,-194.46"/>
</g>
<!-- Node23&#45;&gt;Node3 -->
<g id="edge30" class="edge">
<title>Node23&#45;&gt;Node3</title>
<path fill="none" stroke="midnightblue" d="M608.99,-280.44C627.46,-273.77 648.95,-262.45 660,-244 664.57,-236.37 662.95,-232.39 660,-224 638.58,-163.08 582.45,-108.32 552.86,-82.55"/>
<polygon fill="midnightblue" stroke="midnightblue" points="554.82,-79.62 544.94,-75.8 550.28,-84.95 554.82,-79.62"/>
</g>
<!-- Node23&#45;&gt;Node14 -->
<g id="edge33" class="edge">
<title>Node23&#45;&gt;Node14</title>
<path fill="none" stroke="midnightblue" d="M620.01,-280.44C640.4,-274.03 662.79,-262.97 675,-244 707.02,-194.28 685.89,-119.45 673.36,-85.24"/>
<polygon fill="midnightblue" stroke="midnightblue" points="676.53,-83.72 669.68,-75.64 670,-86.23 676.53,-83.72"/>
</g>
<!-- Node23&#45;&gt;Node20 -->
<g id="edge31" class="edge">
<title>Node23&#45;&gt;Node20</title>
<path fill="none" stroke="midnightblue" d="M561.38,-280.32C547.05,-271.82 524.99,-258.73 508.25,-248.8"/>
<polygon fill="midnightblue" stroke="midnightblue" points="509.97,-245.75 499.58,-243.65 506.4,-251.77 509.97,-245.75"/>
</g>
<!-- Node23&#45;&gt;Node21 -->
<g id="edge32" class="edge">
<title>Node23&#45;&gt;Node21</title>
<path fill="none" stroke="midnightblue" d="M575.77,-280.42C574.98,-266.95 571.65,-240.67 558,-224 543.8,-206.66 521.2,-195.36 502.34,-188.41"/>
<polygon fill="midnightblue" stroke="midnightblue" points="503.47,-185.1 492.87,-185.17 501.2,-191.72 503.47,-185.1"/>
</g>
<!-- Node24 -->
<g id="node24" class="node">
<title>Node24</title>
<g id="a_node24"><a xlink:title=" ">
<polygon fill="white" stroke="#bfbfbf" points="605.5,-224.5 605.5,-243.5 650.5,-243.5 650.5,-224.5 605.5,-224.5"/>
<text text-anchor="middle" x="628" y="-231.5" font-family="Helvetica,sans-Serif" font-size="10.00">utility</text>
</a>
</g>
</g>
<!-- Node23&#45;&gt;Node24 -->
<g id="edge34" class="edge">
<title>Node23&#45;&gt;Node24</title>
<path fill="none" stroke="midnightblue" d="M584.59,-280.08C592.16,-272.22 603.38,-260.57 612.51,-251.08"/>
<polygon fill="midnightblue" stroke="midnightblue" points="615.16,-253.38 619.57,-243.75 610.12,-248.53 615.16,-253.38"/>
</g>
<!-- Node25&#45;&gt;Node17 -->
<g id="edge37" class="edge">
<title>Node25&#45;&gt;Node17</title>
<path fill="none" stroke="midnightblue" d="M330.81,-336.47C311.12,-320.72 270.76,-284.88 254,-244 248.03,-229.44 247.37,-211.49 248.01,-198.15"/>
<polygon fill="midnightblue" stroke="midnightblue" points="251.53,-198.05 248.81,-187.81 244.55,-197.51 251.53,-198.05"/>
</g>
<!-- Node25&#45;&gt;Node20 -->
<g id="edge39" class="edge">
<title>Node25&#45;&gt;Node20</title>
<path fill="none" stroke="midnightblue" d="M353.22,-336.37C377.55,-317.65 435.4,-273.15 465.72,-249.83"/>
<polygon fill="midnightblue" stroke="midnightblue" points="468.04,-252.46 473.83,-243.59 463.77,-246.91 468.04,-252.46"/>
</g>
<!-- Node25&#45;&gt;Node23 -->
<g id="edge38" class="edge">
<title>Node25&#45;&gt;Node23</title>
<path fill="none" stroke="midnightblue" d="M379.08,-336.44C419.73,-327.06 485.03,-311.99 529.18,-301.8"/>
<polygon fill="midnightblue" stroke="midnightblue" points="530.14,-305.18 539.1,-299.52 528.56,-298.35 530.14,-305.18"/>
</g>
</g>
</svg>
        <g id="navigator" transform="translate(0 0)" fill="#404254">
                <rect fill="#f2f5e9" fill-opacity="0.5" stroke="#606060" stroke-width=".5" x="0" y="0" width="60" height="60"/>
                <use id="zoomplus" xlink:href="#zoomPlus" x="17" y="9" onmousedown="handleZoom(evt,'in')"/>
                <use id="zoomminus" xlink:href="#zoomMin" x="42" y="9" onmousedown="handleZoom(evt,'out')"/>
                <use id="reset" xlink:href="#resetDef" x="30" y="36" onmousedown="handleReset()"/>
                <g id="arrowUp" xlink:href="#dirArrow" transform="translate(30 24)" onmousedown="handlePan(0,-1)">
                  <use xlink:href="#rim" fill="#404040">
                        <set attributeName="fill" to="#808080" begin="arrowUp.mouseover" end="arrowUp.mouseout"/>
                  </use>
                  <path fill="none" stroke="white" stroke-width="1.5" d="M0,-3.0v7 M-2.5,-0.5L0,-3.0L2.5,-0.5"/>
                </g>
                <g id="arrowRight" xlink:href="#dirArrow" transform="rotate(90) translate(36 -43)" onmousedown="handlePan(1,0)">
                  <use xlink:href="#rim" fill="#404040">
                        <set attributeName="fill" to="#808080" begin="arrowRight.mouseover" end="arrowRight.mouseout"/>
                  </use>
                  <path fill="none" stroke="white" stroke-width="1.5" d="M0,-3.0v7 M-2.5,-0.5L0,-3.0L2.5,-0.5"/>
                </g>
                <g id="arrowDown" xlink:href="#dirArrow" transform="rotate(180) translate(-30 -48)" onmousedown="handlePan(0,1)">
                  <use xlink:href="#rim" fill="#404040">
                        <set attributeName="fill" to="#808080" begin="arrowDown.mouseover" end="arrowDown.mouseout"/>
                  </use>
                  <path fill="none" stroke="white" stroke-width="1.5" d="M0,-3.0v7 M-2.5,-0.5L0,-3.0L2.5,-0.5"/>
                </g>
                <g id="arrowLeft" xlink:href="#dirArrow" transform="rotate(270) translate(-36 17)" onmousedown="handlePan(-1,0)">
                  <use xlink:href="#rim" fill="#404040">
                        <set attributeName="fill" to="#808080" begin="arrowLeft.mouseover" end="arrowLeft.mouseout"/>
                  </use>
                  <path fill="none" stroke="white" stroke-width="1.5" d="M0,-3.0v7 M-2.5,-0.5L0,-3.0L2.5,-0.5"/>
                </g>
        </g>
        <svg viewBox="0 0 15 15" width="100%" height="30px" preserveAspectRatio="xMaxYMin meet">
         <g id="arrow_out" transform="scale(0.3 0.3)">
          <a xlink:href="SensorHeaderSerializer_8h__incl_org.svg" target="_base">
           <rect id="button" ry="5" rx="5" y="6" x="6" height="38" width="38"
                fill="#f2f5e9" fill-opacity="0.5" stroke="#606060" stroke-width="1.0"/>
           <path id="arrow"
             d="M 11.500037,31.436501 C 11.940474,20.09759 22.043105,11.32322 32.158766,21.979434 L 37.068811,17.246167 C 37.068811,17.246167 37.088388,32 37.088388,32 L 22.160133,31.978069 C 22.160133,31.978069 26.997745,27.140456 26.997745,27.140456 C 18.528582,18.264221 13.291696,25.230495 11.500037,31.436501 z"
             style="fill:#404040;"/>
          </a>
         </g>
        </svg>
</svg>
