<?xml version="1.0" encoding="UTF-8" standalone="no"?>
<!DOCTYPE svg PUBLIC "-//W3C//DTD SVG 1.1//EN"
 "http://www.w3.org/Graphics/SVG/1.1/DTD/svg11.dtd">
<!-- Generated by graphviz version 2.43.0 (0)
 -->
<!-- Title: FCarlaActor::SetActorSimulatePhysics Pages: 1 -->
<!--zoomable 428 -->
<svg id="main" version="1.1" xmlns="http://www.w3.org/2000/svg" xmlns:xlink="http://www.w3.org/1999/xlink" xml:space="preserve" onload="init(evt)">
<style type="text/css"><![CDATA[
.edge:hover path { stroke: red; }
.edge:hover polygon { stroke: red; fill: red; }
]]></style>
<script type="text/javascript"><![CDATA[
var edges = document.getElementsByTagName('g');
if (edges && edges.length) {
  for (var i=0;i<edges.length;i++) {
    if (edges[i].id.substr(0,4)=='edge') {
      edges[i].setAttribute('class','edge');
    }
  }
}
]]></script>
        <defs>
                <circle id="rim" cx="0" cy="0" r="7"/>
                <circle id="rim2" cx="0" cy="0" r="3.5"/>
                <g id="zoomPlus">
                        <use xlink:href="#rim" fill="#404040">
                                <set attributeName="fill" to="#808080" begin="zoomplus.mouseover" end="zoomplus.mouseout"/>
                        </use>
                        <path d="M-4,0h8M0,-4v8" fill="none" stroke="white" stroke-width="1.5" pointer-events="none"/>
                </g>
                <g id="zoomMin">
                        <use xlink:href="#rim" fill="#404040">
                                <set attributeName="fill" to="#808080" begin="zoomminus.mouseover" end="zoomminus.mouseout"/>
                        </use>
                        <path d="M-4,0h8" fill="none" stroke="white" stroke-width="1.5" pointer-events="none"/>
                </g>
                <g id="dirArrow">
                        <path fill="none" stroke="white" stroke-width="1.5" d="M0,-3.0v7 M-2.5,-0.5L0,-3.0L2.5,-0.5"/>
                </g>
               <g id="resetDef">
                       <use xlink:href="#rim2" fill="#404040">
                               <set attributeName="fill" to="#808080" begin="reset.mouseover" end="reset.mouseout"/>
                       </use>
               </g>
        </defs>

<script type="text/javascript">
var viewWidth = 1898;
var viewHeight = 428;
var sectionId = 'dynsection-76';
</script>
<script xlink:href="../../svgpan.js"/>
<svg id="graph" class="graph">
<g id="viewport">
<title>FCarlaActor::SetActorSimulatePhysics</title>
<polygon fill="white" stroke="transparent" points="-4,4 -4,-423.5 1894,-423.5 1894,4 -4,4"/>
<!-- Node1 -->
<g id="node1" class="node">
<title>Node1</title>
<g id="a_node1"><a xlink:title=" ">
<polygon fill="#bfbfbf" stroke="black" points="1726,-93.5 1726,-123.5 1890,-123.5 1890,-93.5 1726,-93.5"/>
<text text-anchor="start" x="1734" y="-111.5" font-family="Helvetica,sans-Serif" font-size="10.00">FCarlaActor::SetActorSimulate</text>
<text text-anchor="middle" x="1808" y="-100.5" font-family="Helvetica,sans-Serif" font-size="10.00">Physics</text>
</a>
</g>
</g>
<!-- Node2 -->
<g id="node2" class="node">
<title>Node2</title>
<g id="a_node2"><a xlink:href="../../d7/d97/classFCarlaServer_1_1FPimpl.html#a675a6b572112a21e8bc011dddfd0de86" target="_top" xlink:title=" ">
<polygon fill="white" stroke="black" points="176,-200.5 176,-230.5 295,-230.5 295,-200.5 176,-200.5"/>
<text text-anchor="start" x="184" y="-218.5" font-family="Helvetica,sans-Serif" font-size="10.00">FCarlaServer::FPimpl</text>
<text text-anchor="middle" x="235.5" y="-207.5" font-family="Helvetica,sans-Serif" font-size="10.00">::BindActions</text>
</a>
</g>
</g>
<!-- Node1&#45;&gt;Node2 -->
<g id="edge1" class="edge">
<title>Node1&#45;&gt;Node2</title>
<path fill="none" stroke="midnightblue" d="M1715.77,-108.5C1634.5,-108.5 1512.32,-108.5 1406,-108.5 1406,-108.5 1406,-108.5 635.5,-108.5 509.19,-108.5 470.3,-84.24 352,-128.5 310.38,-144.07 271.1,-179.7 250.82,-200.21"/>
<polygon fill="midnightblue" stroke="midnightblue" points="1715.97,-112 1725.97,-108.5 1715.97,-105 1715.97,-112"/>
</g>
<!-- Node4 -->
<g id="node4" class="node">
<title>Node4</title>
<g id="a_node4"><a xlink:href="../../d8/d27/classCarlaReplayerHelper.html#a9aedec7fc491597868a5d9f85b5d6499" target="_top" xlink:title=" ">
<polygon fill="white" stroke="black" points="1534.5,-255.5 1534.5,-285.5 1678.5,-285.5 1678.5,-255.5 1534.5,-255.5"/>
<text text-anchor="start" x="1542.5" y="-273.5" font-family="Helvetica,sans-Serif" font-size="10.00">CarlaReplayerHelper</text>
<text text-anchor="middle" x="1606.5" y="-262.5" font-family="Helvetica,sans-Serif" font-size="10.00">::SetActorSimulatePhysics</text>
</a>
</g>
</g>
<!-- Node1&#45;&gt;Node4 -->
<g id="edge3" class="edge">
<title>Node1&#45;&gt;Node4</title>
<path fill="none" stroke="midnightblue" d="M1780.29,-130.19C1739.21,-163.54 1661.58,-226.58 1626.07,-255.42"/>
<polygon fill="midnightblue" stroke="midnightblue" points="1782.67,-132.76 1788.23,-123.74 1778.26,-127.33 1782.67,-132.76"/>
</g>
<!-- Node25 -->
<g id="node25" class="node">
<title>Node25</title>
<g id="a_node25"><a xlink:href="../../de/db4/classFFrameData.html#a58f7c5af62fca9c974797597b6b21bfd" target="_top" xlink:title=" ">
<polygon fill="white" stroke="black" points="1523,-49.5 1523,-79.5 1690,-79.5 1690,-49.5 1523,-49.5"/>
<text text-anchor="start" x="1531" y="-67.5" font-family="Helvetica,sans-Serif" font-size="10.00">FFrameData::SetActorSimulate</text>
<text text-anchor="middle" x="1606.5" y="-56.5" font-family="Helvetica,sans-Serif" font-size="10.00">Physics</text>
</a>
</g>
</g>
<!-- Node1&#45;&gt;Node25 -->
<g id="edge31" class="edge">
<title>Node1&#45;&gt;Node25</title>
<path fill="none" stroke="midnightblue" d="M1728.7,-91.23C1711.17,-87.36 1692.71,-83.29 1675.63,-79.53"/>
<polygon fill="midnightblue" stroke="midnightblue" points="1728.38,-94.74 1738.9,-93.48 1729.89,-87.91 1728.38,-94.74"/>
</g>
<!-- Node3 -->
<g id="node3" class="node">
<title>Node3</title>
<g id="a_node3"><a xlink:href="../../d7/d97/classFCarlaServer_1_1FPimpl.html#ab9ff29fc81bd2f9a14677941c7f7b62d" target="_top" xlink:title=" ">
<polygon fill="white" stroke="black" points="0,-200.5 0,-230.5 119,-230.5 119,-200.5 0,-200.5"/>
<text text-anchor="start" x="8" y="-218.5" font-family="Helvetica,sans-Serif" font-size="10.00">FCarlaServer::FPimpl</text>
<text text-anchor="middle" x="59.5" y="-207.5" font-family="Helvetica,sans-Serif" font-size="10.00">::FPimpl</text>
</a>
</g>
</g>
<!-- Node2&#45;&gt;Node3 -->
<g id="edge2" class="edge">
<title>Node2&#45;&gt;Node3</title>
<path fill="none" stroke="midnightblue" d="M165.16,-215.5C149.89,-215.5 133.85,-215.5 119.05,-215.5"/>
<polygon fill="midnightblue" stroke="midnightblue" points="165.59,-219 175.59,-215.5 165.59,-212 165.59,-219"/>
</g>
<!-- Node5 -->
<g id="node5" class="node">
<title>Node5</title>
<g id="a_node5"><a xlink:href="../../d8/d27/classCarlaReplayerHelper.html#ad2578fb20f971e6e27bd1895d8884e6d" target="_top" xlink:title=" ">
<polygon fill="white" stroke="black" points="1330,-299.5 1330,-329.5 1480,-329.5 1480,-299.5 1330,-299.5"/>
<text text-anchor="start" x="1338" y="-317.5" font-family="Helvetica,sans-Serif" font-size="10.00">CarlaReplayerHelper</text>
<text text-anchor="middle" x="1405" y="-306.5" font-family="Helvetica,sans-Serif" font-size="10.00">::ProcessReplayerEventAdd</text>
</a>
</g>
</g>
<!-- Node4&#45;&gt;Node5 -->
<g id="edge4" class="edge">
<title>Node4&#45;&gt;Node5</title>
<path fill="none" stroke="midnightblue" d="M1527.2,-287.77C1509.67,-291.64 1491.21,-295.71 1474.13,-299.47"/>
<polygon fill="midnightblue" stroke="midnightblue" points="1528.39,-291.09 1537.4,-285.52 1526.88,-284.26 1528.39,-291.09"/>
</g>
<!-- Node24 -->
<g id="node24" class="node">
<title>Node24</title>
<g id="a_node24"><a xlink:href="../../d8/d27/classCarlaReplayerHelper.html#a1b52e6048a6474753a849642a55a4a6e" target="_top" xlink:title=" ">
<polygon fill="white" stroke="black" points="922,-255.5 922,-285.5 1054,-285.5 1054,-255.5 922,-255.5"/>
<text text-anchor="start" x="930" y="-273.5" font-family="Helvetica,sans-Serif" font-size="10.00">CarlaReplayerHelper</text>
<text text-anchor="middle" x="988" y="-262.5" font-family="Helvetica,sans-Serif" font-size="10.00">::ProcessReplayerFinish</text>
</a>
</g>
</g>
<!-- Node4&#45;&gt;Node24 -->
<g id="edge29" class="edge">
<title>Node4&#45;&gt;Node24</title>
<path fill="none" stroke="midnightblue" d="M1524.31,-270.5C1400.64,-270.5 1167.51,-270.5 1054.16,-270.5"/>
<polygon fill="midnightblue" stroke="midnightblue" points="1524.48,-274 1534.48,-270.5 1524.48,-267 1524.48,-274"/>
</g>
<!-- Node6 -->
<g id="node6" class="node">
<title>Node6</title>
<g id="a_node6"><a xlink:href="../../dc/dc6/classCarlaReplayer.html#a929a7a4c79086339485caba9f6562c8e" target="_top" xlink:title=" ">
<polygon fill="white" stroke="black" points="1106,-305 1106,-324 1287,-324 1287,-305 1106,-305"/>
<text text-anchor="middle" x="1196.5" y="-312" font-family="Helvetica,sans-Serif" font-size="10.00">CarlaReplayer::ProcessEventsAdd</text>
</a>
</g>
</g>
<!-- Node5&#45;&gt;Node6 -->
<g id="edge5" class="edge">
<title>Node5&#45;&gt;Node6</title>
<path fill="none" stroke="midnightblue" d="M1319.63,-314.5C1308.97,-314.5 1298.04,-314.5 1287.31,-314.5"/>
<polygon fill="midnightblue" stroke="midnightblue" points="1319.74,-318 1329.74,-314.5 1319.74,-311 1319.74,-318"/>
</g>
<!-- Node7 -->
<g id="node7" class="node">
<title>Node7</title>
<g id="a_node7"><a xlink:href="../../dc/dc6/classCarlaReplayer.html#ae0a5643d88257bdceb9e12d5c33194cb" target="_top" xlink:title=" ">
<polygon fill="white" stroke="black" points="906,-305 906,-324 1070,-324 1070,-305 906,-305"/>
<text text-anchor="middle" x="988" y="-312" font-family="Helvetica,sans-Serif" font-size="10.00">CarlaReplayer::ProcessToTime</text>
</a>
</g>
</g>
<!-- Node6&#45;&gt;Node7 -->
<g id="edge6" class="edge">
<title>Node6&#45;&gt;Node7</title>
<path fill="none" stroke="midnightblue" d="M1095.77,-314.5C1087.18,-314.5 1078.56,-314.5 1070.15,-314.5"/>
<polygon fill="midnightblue" stroke="midnightblue" points="1095.83,-318 1105.83,-314.5 1095.83,-311 1095.83,-318"/>
</g>
<!-- Node8 -->
<g id="node8" class="node">
<title>Node8</title>
<g id="a_node8"><a xlink:href="../../dc/dc6/classCarlaReplayer.html#ac70d3dbe1f79ffd25a695ec3bd2485e6" target="_top" xlink:title=" ">
<polygon fill="white" stroke="black" points="565,-299.5 565,-329.5 708,-329.5 708,-299.5 565,-299.5"/>
<text text-anchor="start" x="573" y="-317.5" font-family="Helvetica,sans-Serif" font-size="10.00">CarlaReplayer::CheckPlay</text>
<text text-anchor="middle" x="636.5" y="-306.5" font-family="Helvetica,sans-Serif" font-size="10.00">AfterMapLoaded</text>
</a>
</g>
</g>
<!-- Node7&#45;&gt;Node8 -->
<g id="edge7" class="edge">
<title>Node7&#45;&gt;Node8</title>
<path fill="none" stroke="midnightblue" d="M895.93,-314.5C837.29,-314.5 762.18,-314.5 708.07,-314.5"/>
<polygon fill="midnightblue" stroke="midnightblue" points="895.94,-318 905.94,-314.5 895.94,-311 895.94,-318"/>
</g>
<!-- Node11 -->
<g id="node11" class="node">
<title>Node11</title>
<g id="a_node11"><a xlink:href="../../dc/dc6/classCarlaReplayer.html#a480fd94fedc2367d7f7f58f17f3cd5a4" target="_top" xlink:title=" ">
<polygon fill="white" stroke="black" points="565,-349 565,-368 708,-368 708,-349 565,-349"/>
<text text-anchor="middle" x="636.5" y="-356" font-family="Helvetica,sans-Serif" font-size="10.00">CarlaReplayer::ReplayFile</text>
</a>
</g>
</g>
<!-- Node7&#45;&gt;Node11 -->
<g id="edge10" class="edge">
<title>Node7&#45;&gt;Node11</title>
<path fill="none" stroke="midnightblue" d="M901.06,-325.32C841.75,-332.79 763.83,-342.6 708.13,-349.61"/>
<polygon fill="midnightblue" stroke="midnightblue" points="901.68,-328.77 911.16,-324.05 900.8,-321.82 901.68,-328.77"/>
</g>
<!-- Node13 -->
<g id="node13" class="node">
<title>Node13</title>
<g id="a_node13"><a xlink:href="../../dc/dc6/classCarlaReplayer.html#af627917f2c95135fb11b59af4f65dbf7" target="_top" xlink:title=" ">
<polygon fill="white" stroke="black" points="757,-261 757,-280 870,-280 870,-261 757,-261"/>
<text text-anchor="middle" x="813.5" y="-268" font-family="Helvetica,sans-Serif" font-size="10.00">CarlaReplayer::Stop</text>
</a>
</g>
</g>
<!-- Node7&#45;&gt;Node13 -->
<g id="edge13" class="edge">
<title>Node7&#45;&gt;Node13</title>
<path fill="none" stroke="midnightblue" d="M963.49,-301.63C947.29,-296.53 925.29,-291.4 906,-286.5 894.35,-283.54 881.9,-280.24 870.06,-277.24"/>
<polygon fill="midnightblue" stroke="midnightblue" points="962.61,-305.03 973.2,-304.97 964.89,-298.41 962.61,-305.03"/>
</g>
<!-- Node20 -->
<g id="node20" class="node">
<title>Node20</title>
<g id="a_node20"><a xlink:href="../../dc/dc6/classCarlaReplayer.html#a4aeceb13aaa5dfcbf3ee42d7582262a4" target="_top" xlink:title=" ">
<polygon fill="white" stroke="black" points="757.5,-385 757.5,-404 869.5,-404 869.5,-385 757.5,-385"/>
<text text-anchor="middle" x="813.5" y="-392" font-family="Helvetica,sans-Serif" font-size="10.00">CarlaReplayer::Tick</text>
</a>
</g>
</g>
<!-- Node7&#45;&gt;Node20 -->
<g id="edge25" class="edge">
<title>Node7&#45;&gt;Node20</title>
<path fill="none" stroke="midnightblue" d="M957.62,-328.47C934,-339.67 899.93,-355.73 870,-369.5 858.77,-374.67 846.21,-380.34 835.88,-384.96"/>
<polygon fill="midnightblue" stroke="midnightblue" points="959.22,-331.59 966.76,-324.14 956.22,-325.26 959.22,-331.59"/>
</g>
<!-- Node9 -->
<g id="node9" class="node">
<title>Node9</title>
<g id="a_node9"><a xlink:href="../../db/de5/classACarlaGameModeBase.html#a3909b055b351f69d7ad1e39a42e72e3d" target="_top" xlink:title=" ">
<polygon fill="white" stroke="black" points="369.5,-263.5 369.5,-293.5 498.5,-293.5 498.5,-263.5 369.5,-263.5"/>
<text text-anchor="start" x="377.5" y="-281.5" font-family="Helvetica,sans-Serif" font-size="10.00">ACarlaGameModeBase</text>
<text text-anchor="middle" x="434" y="-270.5" font-family="Helvetica,sans-Serif" font-size="10.00">::BeginPlay</text>
</a>
</g>
</g>
<!-- Node8&#45;&gt;Node9 -->
<g id="edge8" class="edge">
<title>Node8&#45;&gt;Node9</title>
<path fill="none" stroke="midnightblue" d="M554.85,-300.02C536.16,-296.66 516.54,-293.14 498.7,-289.94"/>
<polygon fill="midnightblue" stroke="midnightblue" points="554.35,-303.49 564.81,-301.81 555.59,-296.6 554.35,-303.49"/>
</g>
<!-- Node10 -->
<g id="node10" class="node">
<title>Node10</title>
<g id="a_node10"><a xlink:href="../../dc/d49/classFCarlaEngine.html#ab4c918e4d4855a26ab57c4bb79ad4645" target="_top" xlink:title=" ">
<polygon fill="white" stroke="black" points="362,-312.5 362,-342.5 506,-342.5 506,-312.5 362,-312.5"/>
<text text-anchor="start" x="370" y="-330.5" font-family="Helvetica,sans-Serif" font-size="10.00">FCarlaEngine::NotifyBegin</text>
<text text-anchor="middle" x="434" y="-319.5" font-family="Helvetica,sans-Serif" font-size="10.00">Episode</text>
</a>
</g>
</g>
<!-- Node8&#45;&gt;Node10 -->
<g id="edge9" class="edge">
<title>Node8&#45;&gt;Node10</title>
<path fill="none" stroke="midnightblue" d="M554.41,-319.76C538.4,-320.8 521.71,-321.88 506.06,-322.89"/>
<polygon fill="midnightblue" stroke="midnightblue" points="555.06,-323.22 564.81,-319.08 554.61,-316.24 555.06,-323.22"/>
</g>
<!-- Node12 -->
<g id="node12" class="node">
<title>Node12</title>
<g id="a_node12"><a xlink:href="../../dd/db9/classACarlaRecorder.html#a5dc891241c275eedcf6b1f189751520b" target="_top" xlink:title=" ">
<polygon fill="white" stroke="black" points="359.5,-362 359.5,-381 508.5,-381 508.5,-362 359.5,-362"/>
<text text-anchor="middle" x="434" y="-369" font-family="Helvetica,sans-Serif" font-size="10.00">ACarlaRecorder::ReplayFile</text>
</a>
</g>
</g>
<!-- Node11&#45;&gt;Node12 -->
<g id="edge11" class="edge">
<title>Node11&#45;&gt;Node12</title>
<path fill="none" stroke="midnightblue" d="M554.47,-363.75C539.36,-364.73 523.66,-365.75 508.78,-366.72"/>
<polygon fill="midnightblue" stroke="midnightblue" points="555.06,-367.22 564.81,-363.08 554.61,-360.24 555.06,-367.22"/>
</g>
<!-- Node12&#45;&gt;Node2 -->
<g id="edge12" class="edge">
<title>Node12&#45;&gt;Node2</title>
<path fill="none" stroke="midnightblue" d="M362.85,-358.15C359.08,-356.48 355.43,-354.61 352,-352.5 300.83,-321.1 261.17,-259.18 244.74,-230.6"/>
<polygon fill="midnightblue" stroke="midnightblue" points="361.85,-361.51 372.44,-361.87 364.39,-354.99 361.85,-361.51"/>
</g>
<!-- Node13&#45;&gt;Node7 -->
<g id="edge17" class="edge">
<title>Node13&#45;&gt;Node7</title>
<path fill="none" stroke="midnightblue" d="M836.19,-283.85C854.69,-290.87 882.03,-298.42 906,-304.5 906.56,-304.64 907.12,-304.78 907.69,-304.93"/>
<polygon fill="midnightblue" stroke="midnightblue" points="837.47,-280.59 826.89,-280.01 834.8,-287.06 837.47,-280.59"/>
</g>
<!-- Node13&#45;&gt;Node8 -->
<g id="edge14" class="edge">
<title>Node13&#45;&gt;Node8</title>
<path fill="none" stroke="midnightblue" d="M764.67,-282.53C743.91,-287.75 719.37,-293.91 697.42,-299.43"/>
<polygon fill="midnightblue" stroke="midnightblue" points="765.68,-285.88 774.53,-280.05 763.98,-279.09 765.68,-285.88"/>
</g>
<!-- Node13&#45;&gt;Node11 -->
<g id="edge18" class="edge">
<title>Node13&#45;&gt;Node11</title>
<path fill="none" stroke="midnightblue" d="M795.11,-287.23C777.73,-303.04 749.53,-326.24 721,-339.5 712.64,-343.38 703.43,-346.5 694.28,-348.99"/>
<polygon fill="midnightblue" stroke="midnightblue" points="797.8,-289.52 802.74,-280.14 793.03,-284.39 797.8,-289.52"/>
</g>
<!-- Node14 -->
<g id="node14" class="node">
<title>Node14</title>
<g id="a_node14"><a xlink:href="../../dc/d84/classUCarlaEpisode.html#a04380aa760fc6891f1c51cdbe7ddb856" target="_top" xlink:title=" ">
<polygon fill="white" stroke="black" points="570,-144 570,-163 703,-163 703,-144 570,-144"/>
<text text-anchor="middle" x="636.5" y="-151" font-family="Helvetica,sans-Serif" font-size="10.00">UCarlaEpisode::EndPlay</text>
</a>
</g>
</g>
<!-- Node13&#45;&gt;Node14 -->
<g id="edge15" class="edge">
<title>Node13&#45;&gt;Node14</title>
<path fill="none" stroke="midnightblue" d="M800,-252.45C784.12,-230.9 754.69,-195.28 721,-175.5 711.95,-170.19 701.61,-166.13 691.35,-163.05"/>
<polygon fill="midnightblue" stroke="midnightblue" points="797.28,-254.66 805.95,-260.74 802.96,-250.57 797.28,-254.66"/>
</g>
<!-- Node16 -->
<g id="node16" class="node">
<title>Node16</title>
<g id="a_node16"><a xlink:href="../../dd/db9/classACarlaRecorder.html#aba719596bd56c72a39f902f6e9a5d290" target="_top" xlink:title=" ">
<polygon fill="white" stroke="black" points="575.5,-185 575.5,-204 697.5,-204 697.5,-185 575.5,-185"/>
<text text-anchor="middle" x="636.5" y="-192" font-family="Helvetica,sans-Serif" font-size="10.00">ACarlaRecorder::Start</text>
</a>
</g>
</g>
<!-- Node13&#45;&gt;Node16 -->
<g id="edge19" class="edge">
<title>Node13&#45;&gt;Node16</title>
<path fill="none" stroke="midnightblue" d="M791.74,-254.74C773.87,-241.89 746.94,-224.18 721,-213.5 711.79,-209.71 701.68,-206.6 691.77,-204.08"/>
<polygon fill="midnightblue" stroke="midnightblue" points="790.07,-257.86 800.2,-260.95 794.21,-252.21 790.07,-257.86"/>
</g>
<!-- Node18 -->
<g id="node18" class="node">
<title>Node18</title>
<g id="a_node18"><a xlink:href="../../dd/db9/classACarlaRecorder.html#a33fb5180defd8c9c1d3063eff52c7a37" target="_top" xlink:title=" ">
<polygon fill="white" stroke="black" points="352,-225 352,-244 516,-244 516,-225 352,-225"/>
<text text-anchor="middle" x="434" y="-232" font-family="Helvetica,sans-Serif" font-size="10.00">ACarlaRecorder::StopReplayer</text>
</a>
</g>
</g>
<!-- Node13&#45;&gt;Node18 -->
<g id="edge22" class="edge">
<title>Node13&#45;&gt;Node18</title>
<path fill="none" stroke="midnightblue" d="M746.52,-266.99C693.79,-263.88 618.03,-258.7 552,-251.5 533.33,-249.47 513.06,-246.71 494.72,-244.02"/>
<polygon fill="midnightblue" stroke="midnightblue" points="746.57,-270.5 756.75,-267.59 746.97,-263.51 746.57,-270.5"/>
</g>
<!-- Node19 -->
<g id="node19" class="node">
<title>Node19</title>
<g id="a_node19"><a xlink:href="../../dc/dc6/classCarlaReplayer.html#a6dadadd7719c5e660d2e3d99b22f5961" target="_top" xlink:title=" ">
<polygon fill="white" stroke="black" points="552,-223 552,-242 721,-242 721,-223 552,-223"/>
<text text-anchor="middle" x="636.5" y="-230" font-family="Helvetica,sans-Serif" font-size="10.00">CarlaReplayer::~CarlaReplayer</text>
</a>
</g>
</g>
<!-- Node13&#45;&gt;Node19 -->
<g id="edge24" class="edge">
<title>Node13&#45;&gt;Node19</title>
<path fill="none" stroke="midnightblue" d="M758.38,-258.75C733.63,-253.37 704.7,-247.09 681.34,-242.02"/>
<polygon fill="midnightblue" stroke="midnightblue" points="757.83,-262.21 768.34,-260.91 759.31,-255.37 757.83,-262.21"/>
</g>
<!-- Node15 -->
<g id="node15" class="node">
<title>Node15</title>
<g id="a_node15"><a xlink:href="../../db/de5/classACarlaGameModeBase.html#a8e61df047eac428453a627a6de9ace75" target="_top" xlink:title=" ">
<polygon fill="white" stroke="black" points="369.5,-137.5 369.5,-167.5 498.5,-167.5 498.5,-137.5 369.5,-137.5"/>
<text text-anchor="start" x="377.5" y="-155.5" font-family="Helvetica,sans-Serif" font-size="10.00">ACarlaGameModeBase</text>
<text text-anchor="middle" x="434" y="-144.5" font-family="Helvetica,sans-Serif" font-size="10.00">::EndPlay</text>
</a>
</g>
</g>
<!-- Node14&#45;&gt;Node15 -->
<g id="edge16" class="edge">
<title>Node14&#45;&gt;Node15</title>
<path fill="none" stroke="midnightblue" d="M559.79,-153.12C539.68,-153.02 518.16,-152.91 498.75,-152.82"/>
<polygon fill="midnightblue" stroke="midnightblue" points="559.83,-156.62 569.85,-153.17 559.87,-149.62 559.83,-156.62"/>
</g>
<!-- Node17 -->
<g id="node17" class="node">
<title>Node17</title>
<g id="a_node17"><a xlink:href="../../dc/d84/classUCarlaEpisode.html#a1059ce6d102804115b3243de46d46bec" target="_top" xlink:title=" ">
<polygon fill="white" stroke="black" points="353.5,-187 353.5,-206 514.5,-206 514.5,-187 353.5,-187"/>
<text text-anchor="middle" x="434" y="-194" font-family="Helvetica,sans-Serif" font-size="10.00">UCarlaEpisode::StartRecorder</text>
</a>
</g>
</g>
<!-- Node16&#45;&gt;Node17 -->
<g id="edge20" class="edge">
<title>Node16&#45;&gt;Node17</title>
<path fill="none" stroke="midnightblue" d="M565.34,-195.2C549.01,-195.36 531.5,-195.54 514.79,-195.7"/>
<polygon fill="midnightblue" stroke="midnightblue" points="565.38,-198.7 575.34,-195.1 565.31,-191.7 565.38,-198.7"/>
</g>
<!-- Node17&#45;&gt;Node2 -->
<g id="edge21" class="edge">
<title>Node17&#45;&gt;Node2</title>
<path fill="none" stroke="midnightblue" d="M343.25,-205.18C326.92,-206.76 310.27,-208.37 295.13,-209.83"/>
<polygon fill="midnightblue" stroke="midnightblue" points="343.74,-208.65 353.36,-204.2 343.07,-201.68 343.74,-208.65"/>
</g>
<!-- Node18&#45;&gt;Node2 -->
<g id="edge23" class="edge">
<title>Node18&#45;&gt;Node2</title>
<path fill="none" stroke="midnightblue" d="M341.61,-225.66C325.82,-224.14 309.79,-222.59 295.17,-221.17"/>
<polygon fill="midnightblue" stroke="midnightblue" points="341.65,-229.18 351.94,-226.66 342.32,-222.22 341.65,-229.18"/>
</g>
<!-- Node21 -->
<g id="node21" class="node">
<title>Node21</title>
<g id="a_node21"><a xlink:href="../../dd/db9/classACarlaRecorder.html#a1074f19dfe5b16a9e10b24ef35b26abc" target="_top" xlink:title=" ">
<polygon fill="white" stroke="black" points="569.5,-394 569.5,-413 703.5,-413 703.5,-394 569.5,-394"/>
<text text-anchor="middle" x="636.5" y="-401" font-family="Helvetica,sans-Serif" font-size="10.00">ACarlaRecorder::Ticking</text>
</a>
</g>
</g>
<!-- Node20&#45;&gt;Node21 -->
<g id="edge26" class="edge">
<title>Node20&#45;&gt;Node21</title>
<path fill="none" stroke="midnightblue" d="M746.96,-397.87C732.77,-398.6 717.75,-399.37 703.54,-400.1"/>
<polygon fill="midnightblue" stroke="midnightblue" points="747.32,-401.36 757.13,-397.35 746.96,-394.37 747.32,-401.36"/>
</g>
<!-- Node22 -->
<g id="node22" class="node">
<title>Node22</title>
<g id="a_node22"><a xlink:href="../../dc/d49/classFCarlaEngine.html#aff440c7ba9d004e4c5b60125cc4d709b" target="_top" xlink:title=" ">
<polygon fill="white" stroke="black" points="363,-400 363,-419 505,-419 505,-400 363,-400"/>
<text text-anchor="middle" x="434" y="-407" font-family="Helvetica,sans-Serif" font-size="10.00">FCarlaEngine::OnPostTick</text>
</a>
</g>
</g>
<!-- Node21&#45;&gt;Node22 -->
<g id="edge27" class="edge">
<title>Node21&#45;&gt;Node22</title>
<path fill="none" stroke="midnightblue" d="M559.03,-405.79C541.37,-406.32 522.66,-406.88 505.27,-407.4"/>
<polygon fill="midnightblue" stroke="midnightblue" points="559.4,-409.28 569.29,-405.48 559.19,-402.28 559.4,-409.28"/>
</g>
<!-- Node23 -->
<g id="node23" class="node">
<title>Node23</title>
<g id="a_node23"><a xlink:href="../../dc/d49/classFCarlaEngine.html#ab8d13063cde985781237dd7da308227e" target="_top" xlink:title=" ">
<polygon fill="white" stroke="black" points="155,-400 155,-419 316,-419 316,-400 155,-400"/>
<text text-anchor="middle" x="235.5" y="-407" font-family="Helvetica,sans-Serif" font-size="10.00">FCarlaEngine::NotifyInitGame</text>
</a>
</g>
</g>
<!-- Node22&#45;&gt;Node23 -->
<g id="edge28" class="edge">
<title>Node22&#45;&gt;Node23</title>
<path fill="none" stroke="midnightblue" d="M352.86,-409.5C340.79,-409.5 328.35,-409.5 316.29,-409.5"/>
<polygon fill="midnightblue" stroke="midnightblue" points="352.89,-413 362.89,-409.5 352.89,-406 352.89,-413"/>
</g>
<!-- Node24&#45;&gt;Node13 -->
<g id="edge30" class="edge">
<title>Node24&#45;&gt;Node13</title>
<path fill="none" stroke="midnightblue" d="M911.72,-270.5C897.78,-270.5 883.45,-270.5 870.22,-270.5"/>
<polygon fill="midnightblue" stroke="midnightblue" points="911.79,-274 921.79,-270.5 911.79,-267 911.79,-274"/>
</g>
<!-- Node26 -->
<g id="node26" class="node">
<title>Node26</title>
<g id="a_node26"><a xlink:href="../../de/db4/classFFrameData.html#acb9dd2fef7b2779243ef04116465155d" target="_top" xlink:title=" ">
<polygon fill="white" stroke="black" points="1323,-49.5 1323,-79.5 1487,-79.5 1487,-49.5 1323,-49.5"/>
<text text-anchor="start" x="1331" y="-67.5" font-family="Helvetica,sans-Serif" font-size="10.00">FFrameData::ProcessReplayer</text>
<text text-anchor="middle" x="1405" y="-56.5" font-family="Helvetica,sans-Serif" font-size="10.00">EventAdd</text>
</a>
</g>
</g>
<!-- Node25&#45;&gt;Node26 -->
<g id="edge32" class="edge">
<title>Node25&#45;&gt;Node26</title>
<path fill="none" stroke="midnightblue" d="M1512.9,-64.5C1504.33,-64.5 1495.69,-64.5 1487.24,-64.5"/>
<polygon fill="midnightblue" stroke="midnightblue" points="1512.92,-68 1522.92,-64.5 1512.92,-61 1512.92,-68"/>
</g>
<!-- Node28 -->
<g id="node28" class="node">
<title>Node28</title>
<g id="a_node28"><a xlink:href="../../de/db4/classFFrameData.html#a29a9f351546d24a2fc1803c41c663432" target="_top" xlink:title=" ">
<polygon fill="white" stroke="black" points="1323,-0.5 1323,-30.5 1487,-30.5 1487,-0.5 1323,-0.5"/>
<text text-anchor="start" x="1331" y="-18.5" font-family="Helvetica,sans-Serif" font-size="10.00">FFrameData::ProcessReplayer</text>
<text text-anchor="middle" x="1405" y="-7.5" font-family="Helvetica,sans-Serif" font-size="10.00">Finish</text>
</a>
</g>
</g>
<!-- Node25&#45;&gt;Node28 -->
<g id="edge34" class="edge">
<title>Node25&#45;&gt;Node28</title>
<path fill="none" stroke="midnightblue" d="M1534.34,-47.02C1512.36,-41.62 1488.34,-35.72 1467.1,-30.51"/>
<polygon fill="midnightblue" stroke="midnightblue" points="1533.74,-50.48 1544.29,-49.47 1535.41,-43.68 1533.74,-50.48"/>
</g>
<!-- Node27 -->
<g id="node27" class="node">
<title>Node27</title>
<g id="a_node27"><a xlink:href="../../de/db4/classFFrameData.html#aa23cccda1659af6f10264e73a73c1e27" target="_top" xlink:title=" ">
<polygon fill="white" stroke="black" points="1117.5,-55 1117.5,-74 1275.5,-74 1275.5,-55 1117.5,-55"/>
<text text-anchor="middle" x="1196.5" y="-62" font-family="Helvetica,sans-Serif" font-size="10.00">FFrameData::PlayFrameData</text>
</a>
</g>
</g>
<!-- Node26&#45;&gt;Node27 -->
<g id="edge33" class="edge">
<title>Node26&#45;&gt;Node27</title>
<path fill="none" stroke="midnightblue" d="M1312.66,-64.5C1300.29,-64.5 1287.69,-64.5 1275.58,-64.5"/>
<polygon fill="midnightblue" stroke="midnightblue" points="1312.98,-68 1322.98,-64.5 1312.98,-61 1312.98,-68"/>
</g>
</g>
</svg>
        <g id="navigator" transform="translate(0 0)" fill="#404254">
                <rect fill="#f2f5e9" fill-opacity="0.5" stroke="#606060" stroke-width=".5" x="0" y="0" width="60" height="60"/>
                <use id="zoomplus" xlink:href="#zoomPlus" x="17" y="9" onmousedown="handleZoom(evt,'in')"/>
                <use id="zoomminus" xlink:href="#zoomMin" x="42" y="9" onmousedown="handleZoom(evt,'out')"/>
                <use id="reset" xlink:href="#resetDef" x="30" y="36" onmousedown="handleReset()"/>
                <g id="arrowUp" xlink:href="#dirArrow" transform="translate(30 24)" onmousedown="handlePan(0,-1)">
                  <use xlink:href="#rim" fill="#404040">
                        <set attributeName="fill" to="#808080" begin="arrowUp.mouseover" end="arrowUp.mouseout"/>
                  </use>
                  <path fill="none" stroke="white" stroke-width="1.5" d="M0,-3.0v7 M-2.5,-0.5L0,-3.0L2.5,-0.5"/>
                </g>
                <g id="arrowRight" xlink:href="#dirArrow" transform="rotate(90) translate(36 -43)" onmousedown="handlePan(1,0)">
                  <use xlink:href="#rim" fill="#404040">
                        <set attributeName="fill" to="#808080" begin="arrowRight.mouseover" end="arrowRight.mouseout"/>
                  </use>
                  <path fill="none" stroke="white" stroke-width="1.5" d="M0,-3.0v7 M-2.5,-0.5L0,-3.0L2.5,-0.5"/>
                </g>
                <g id="arrowDown" xlink:href="#dirArrow" transform="rotate(180) translate(-30 -48)" onmousedown="handlePan(0,1)">
                  <use xlink:href="#rim" fill="#404040">
                        <set attributeName="fill" to="#808080" begin="arrowDown.mouseover" end="arrowDown.mouseout"/>
                  </use>
                  <path fill="none" stroke="white" stroke-width="1.5" d="M0,-3.0v7 M-2.5,-0.5L0,-3.0L2.5,-0.5"/>
                </g>
                <g id="arrowLeft" xlink:href="#dirArrow" transform="rotate(270) translate(-36 17)" onmousedown="handlePan(-1,0)">
                  <use xlink:href="#rim" fill="#404040">
                        <set attributeName="fill" to="#808080" begin="arrowLeft.mouseover" end="arrowLeft.mouseout"/>
                  </use>
                  <path fill="none" stroke="white" stroke-width="1.5" d="M0,-3.0v7 M-2.5,-0.5L0,-3.0L2.5,-0.5"/>
                </g>
        </g>
        <svg viewBox="0 0 15 15" width="100%" height="30px" preserveAspectRatio="xMaxYMin meet">
         <g id="arrow_out" transform="scale(0.3 0.3)">
          <a xlink:href="classFCarlaActor_aee3121441148fc55d32a970630109202_icgraph_org.svg" target="_base">
           <rect id="button" ry="5" rx="5" y="6" x="6" height="38" width="38"
                fill="#f2f5e9" fill-opacity="0.5" stroke="#606060" stroke-width="1.0"/>
           <path id="arrow"
             d="M 11.500037,31.436501 C 11.940474,20.09759 22.043105,11.32322 32.158766,21.979434 L 37.068811,17.246167 C 37.068811,17.246167 37.088388,32 37.088388,32 L 22.160133,31.978069 C 22.160133,31.978069 26.997745,27.140456 26.997745,27.140456 C 18.528582,18.264221 13.291696,25.230495 11.500037,31.436501 z"
             style="fill:#404040;"/>
          </a>
         </g>
        </svg>
</svg>
