<?xml version="1.0" encoding="UTF-8" standalone="no"?>
<!DOCTYPE svg PUBLIC "-//W3C//DTD SVG 1.1//EN"
 "http://www.w3.org/Graphics/SVG/1.1/DTD/svg11.dtd">
<!-- Generated by graphviz version 2.40.1 (20161225.0304)
 -->
<!-- Title: FCarlaActor::SetBonesTransform Pages: 1 -->
<svg width="489pt" height="39pt"
 viewBox="0.00 0.00 489.00 39.00" xmlns="http://www.w3.org/2000/svg" xmlns:xlink="http://www.w3.org/1999/xlink">
<g id="graph0" class="graph" transform="scale(1 1) rotate(0) translate(4 35)">
<title>FCarlaActor::SetBonesTransform</title>
<polygon fill="#ffffff" stroke="transparent" points="-4,4 -4,-35 485,-35 485,4 -4,4"/>
<!-- Node1478 -->
<g id="node1" class="node">
<title>Node1478</title>
<polygon fill="#bfbfbf" stroke="#000000" points="0,-6 0,-25 173,-25 173,-6 0,-6"/>
<text text-anchor="middle" x="86.5" y="-13" font-family="Helvetica,sans-Serif" font-size="10.00" fill="#000000">FCarlaActor::SetBonesTransform</text>
</g>
<!-- Node1479 -->
<g id="node2" class="node">
<title>Node1479</title>
<g id="a_node2"><a xlink:href="../../d7/d97/classFCarlaServer_1_1FPimpl.html#a675a6b572112a21e8bc011dddfd0de86" target="_top" xlink:title="FCarlaServer::FPimpl\l::BindActions">
<polygon fill="#ffffff" stroke="#000000" points="209,-.5 209,-30.5 327,-30.5 327,-.5 209,-.5"/>
<text text-anchor="start" x="217" y="-18.5" font-family="Helvetica,sans-Serif" font-size="10.00" fill="#000000">FCarlaServer::FPimpl</text>
<text text-anchor="middle" x="268" y="-7.5" font-family="Helvetica,sans-Serif" font-size="10.00" fill="#000000">::BindActions</text>
</a>
</g>
</g>
<!-- Node1478&#45;&gt;Node1479 -->
<g id="edge1" class="edge">
<title>Node1478&#45;&gt;Node1479</title>
<path fill="none" stroke="#191970" d="M183.4173,-15.5C192.054,-15.5 200.6158,-15.5 208.7879,-15.5"/>
<polygon fill="#191970" stroke="#191970" points="183.2631,-12.0001 173.2631,-15.5 183.2631,-19.0001 183.2631,-12.0001"/>
</g>
<!-- Node1480 -->
<g id="node3" class="node">
<title>Node1480</title>
<g id="a_node3"><a xlink:href="../../d7/d97/classFCarlaServer_1_1FPimpl.html#ab9ff29fc81bd2f9a14677941c7f7b62d" target="_top" xlink:title="FCarlaServer::FPimpl\l::FPimpl">
<polygon fill="#ffffff" stroke="#000000" points="363,-.5 363,-30.5 481,-30.5 481,-.5 363,-.5"/>
<text text-anchor="start" x="371" y="-18.5" font-family="Helvetica,sans-Serif" font-size="10.00" fill="#000000">FCarlaServer::FPimpl</text>
<text text-anchor="middle" x="422" y="-7.5" font-family="Helvetica,sans-Serif" font-size="10.00" fill="#000000">::FPimpl</text>
</a>
</g>
</g>
<!-- Node1479&#45;&gt;Node1480 -->
<g id="edge2" class="edge">
<title>Node1479&#45;&gt;Node1480</title>
<path fill="none" stroke="#191970" d="M337.3691,-15.5C345.8618,-15.5 354.4796,-15.5 362.8037,-15.5"/>
<polygon fill="#191970" stroke="#191970" points="337.1,-12.0001 327.1,-15.5 337.1,-19.0001 337.1,-12.0001"/>
</g>
</g>
</svg>
