<?xml version="1.0" encoding="UTF-8" standalone="no"?>
<!DOCTYPE svg PUBLIC "-//W3C//DTD SVG 1.1//EN"
 "http://www.w3.org/Graphics/SVG/1.1/DTD/svg11.dtd">
<!-- Generated by graphviz version 2.43.0 (0)
 -->
<!-- Title: YieldSignComponent.cpp Pages: 1 -->
<svg width="4089pt" height="486pt"
 viewBox="0.00 0.00 4089.00 486.00" xmlns="http://www.w3.org/2000/svg" xmlns:xlink="http://www.w3.org/1999/xlink">
<g id="graph0" class="graph" transform="scale(1 1) rotate(0) translate(4 482)">
<title>YieldSignComponent.cpp</title>
<polygon fill="white" stroke="transparent" points="-4,4 -4,-482 4085,-482 4085,4 -4,4"/>
<!-- Node1 -->
<g id="node1" class="node">
<title>Node1</title>
<g id="a_node1"><a xlink:title=" ">
<polygon fill="#bfbfbf" stroke="black" points="1255.5,-458.5 1255.5,-477.5 1393.5,-477.5 1393.5,-458.5 1255.5,-458.5"/>
<text text-anchor="middle" x="1324.5" y="-465.5" font-family="Helvetica,sans-Serif" font-size="10.00">YieldSignComponent.cpp</text>
</a>
</g>
</g>
<!-- Node2 -->
<g id="node2" class="node">
<title>Node2</title>
<g id="a_node2"><a xlink:href="../../d6/d4e/YieldSignComponent_8h.html" target="_top" xlink:title=" ">
<polygon fill="white" stroke="black" points="182,-268.5 182,-287.5 309,-287.5 309,-268.5 182,-268.5"/>
<text text-anchor="middle" x="245.5" y="-275.5" font-family="Helvetica,sans-Serif" font-size="10.00">YieldSignComponent.h</text>
</a>
</g>
</g>
<!-- Node1&#45;&gt;Node2 -->
<g id="edge1" class="edge">
<title>Node1&#45;&gt;Node2</title>
<path fill="none" stroke="midnightblue" d="M1255.49,-465.64C1062.22,-461.54 524.79,-447.9 449.5,-422 369.91,-394.61 293.44,-326.23 261.34,-295"/>
<polygon fill="midnightblue" stroke="midnightblue" points="263.4,-292.12 253.82,-287.58 258.48,-297.1 263.4,-292.12"/>
</g>
<!-- Node95 -->
<g id="node7" class="node">
<title>Node95</title>
<g id="a_node7"><a xlink:title=" ">
<polygon fill="white" stroke="#bfbfbf" points="418,-140 418,-159 465,-159 465,-140 418,-140"/>
<text text-anchor="middle" x="441.5" y="-147" font-family="Helvetica,sans-Serif" font-size="10.00">queue</text>
</a>
</g>
</g>
<!-- Node1&#45;&gt;Node95 -->
<g id="edge13" class="edge">
<title>Node1&#45;&gt;Node95</title>
<path fill="none" stroke="midnightblue" d="M1255.43,-466.43C1073.01,-464.47 588.02,-456.06 524.5,-422 484.63,-400.62 463.5,-385.74 463.5,-340.5 463.5,-340.5 463.5,-340.5 463.5,-277 463.5,-237.95 453.2,-193.11 446.69,-168.69"/>
<polygon fill="midnightblue" stroke="midnightblue" points="450.06,-167.71 444.02,-159 443.31,-169.57 450.06,-167.71"/>
</g>
<!-- Node97 -->
<g id="node8" class="node">
<title>Node97</title>
<g id="a_node8"><a xlink:href="../../df/d9b/Unreal_2CarlaUE4_2Plugins_2Carla_2Source_2Carla_2Traffic_2TrafficLightState_8h.html" target="_top" xlink:title=" ">
<polygon fill="white" stroke="black" points="483,-140 483,-159 620,-159 620,-140 483,-140"/>
<text text-anchor="middle" x="551.5" y="-147" font-family="Helvetica,sans-Serif" font-size="10.00">Traffic/TrafficLightState.h</text>
</a>
</g>
</g>
<!-- Node1&#45;&gt;Node97 -->
<g id="edge12" class="edge">
<title>Node1&#45;&gt;Node97</title>
<path fill="none" stroke="midnightblue" d="M1255.43,-467.63C1100.07,-468.25 727.5,-465.04 610.5,-422 553.73,-401.12 501.5,-400.99 501.5,-340.5 501.5,-340.5 501.5,-340.5 501.5,-277 501.5,-235.49 525.07,-191.34 539.85,-167.75"/>
<polygon fill="midnightblue" stroke="midnightblue" points="542.87,-169.53 545.37,-159.23 536.99,-165.72 542.87,-169.53"/>
</g>
<!-- Node103 -->
<g id="node12" class="node">
<title>Node103</title>
<g id="a_node12"><a xlink:href="../../d9/dc8/CarlaStatics_8h.html" target="_top" xlink:title=" ">
<polygon fill="white" stroke="black" points="1036,-397 1036,-416 1181,-416 1181,-397 1036,-397"/>
<text text-anchor="middle" x="1108.5" y="-404" font-family="Helvetica,sans-Serif" font-size="10.00">Carla/Game/CarlaStatics.h</text>
</a>
</g>
</g>
<!-- Node1&#45;&gt;Node103 -->
<g id="edge14" class="edge">
<title>Node1&#45;&gt;Node103</title>
<path fill="none" stroke="midnightblue" d="M1293.55,-458.48C1255.62,-448.03 1191.22,-430.29 1149.28,-418.73"/>
<polygon fill="midnightblue" stroke="midnightblue" points="1149.96,-415.29 1139.39,-416.01 1148.1,-422.04 1149.96,-415.29"/>
</g>
<!-- Node9 -->
<g id="node14" class="node">
<title>Node9</title>
<g id="a_node14"><a xlink:href="../../d2/d02/disable-ue4-macros_8h.html" target="_top" xlink:title=" ">
<polygon fill="white" stroke="black" points="967,-201.5 967,-231.5 1086,-231.5 1086,-201.5 967,-201.5"/>
<text text-anchor="start" x="975" y="-219.5" font-family="Helvetica,sans-Serif" font-size="10.00">compiler/disable&#45;ue4</text>
<text text-anchor="middle" x="1026.5" y="-208.5" font-family="Helvetica,sans-Serif" font-size="10.00">&#45;macros.h</text>
</a>
</g>
</g>
<!-- Node1&#45;&gt;Node9 -->
<g id="edge70" class="edge">
<title>Node1&#45;&gt;Node9</title>
<path fill="none" stroke="midnightblue" d="M1346.15,-458.37C1396.28,-437.18 1512.76,-380.19 1468.5,-324 1456.88,-309.24 1218.05,-257.53 1096.41,-231.99"/>
<polygon fill="midnightblue" stroke="midnightblue" points="1096.94,-228.53 1086.44,-229.9 1095.51,-235.38 1096.94,-228.53"/>
</g>
<!-- Node89 -->
<g id="node16" class="node">
<title>Node89</title>
<g id="a_node16"><a xlink:href="../../d9/da2/enable-ue4-macros_8h.html" target="_top" xlink:title=" ">
<polygon fill="white" stroke="black" points="776,-201.5 776,-231.5 893,-231.5 893,-201.5 776,-201.5"/>
<text text-anchor="start" x="784" y="-219.5" font-family="Helvetica,sans-Serif" font-size="10.00">compiler/enable&#45;ue4</text>
<text text-anchor="middle" x="834.5" y="-208.5" font-family="Helvetica,sans-Serif" font-size="10.00">&#45;macros.h</text>
</a>
</g>
</g>
<!-- Node1&#45;&gt;Node89 -->
<g id="edge75" class="edge">
<title>Node1&#45;&gt;Node89</title>
<path fill="none" stroke="midnightblue" d="M1255.2,-467.85C1084,-468.31 648.42,-459.03 558.5,-355 494.19,-280.61 664.28,-242.18 765.49,-226.41"/>
<polygon fill="midnightblue" stroke="midnightblue" points="766.3,-229.82 775.66,-224.86 765.25,-222.9 766.3,-229.82"/>
</g>
<!-- Node379 -->
<g id="node19" class="node">
<title>Node379</title>
<g id="a_node19"><a xlink:href="../../d3/d30/LargeMapManager_8h.html" target="_top" xlink:title=" ">
<polygon fill="white" stroke="black" points="1446,-268.5 1446,-287.5 1605,-287.5 1605,-268.5 1446,-268.5"/>
<text text-anchor="middle" x="1525.5" y="-275.5" font-family="Helvetica,sans-Serif" font-size="10.00">MapGen/LargeMapManager.h</text>
</a>
</g>
</g>
<!-- Node1&#45;&gt;Node379 -->
<g id="edge68" class="edge">
<title>Node1&#45;&gt;Node379</title>
<path fill="none" stroke="midnightblue" d="M1386.69,-458.49C1431.21,-451.1 1485.93,-438.91 1501.5,-422 1533.1,-387.68 1531.52,-328.11 1528.25,-297.83"/>
<polygon fill="midnightblue" stroke="midnightblue" points="1531.7,-297.26 1526.97,-287.78 1524.76,-298.14 1531.7,-297.26"/>
</g>
<!-- Node211 -->
<g id="node21" class="node">
<title>Node211</title>
<g id="a_node21"><a xlink:href="../../d3/d00/CarlaWheeledVehicle_8h.html" target="_top" xlink:title=" ">
<polygon fill="white" stroke="black" points="2197.5,-134.5 2197.5,-164.5 2349.5,-164.5 2349.5,-134.5 2197.5,-134.5"/>
<text text-anchor="start" x="2205.5" y="-152.5" font-family="Helvetica,sans-Serif" font-size="10.00">Carla/Vehicle/CarlaWheeled</text>
<text text-anchor="middle" x="2273.5" y="-141.5" font-family="Helvetica,sans-Serif" font-size="10.00">Vehicle.h</text>
</a>
</g>
</g>
<!-- Node1&#45;&gt;Node211 -->
<g id="edge69" class="edge">
<title>Node1&#45;&gt;Node211</title>
<path fill="none" stroke="midnightblue" d="M1393.53,-467.56C1557.26,-467.05 1955.5,-454.11 1955.5,-340.5 1955.5,-340.5 1955.5,-340.5 1955.5,-277 1955.5,-226.5 2095.71,-187.29 2189.92,-166.64"/>
<polygon fill="midnightblue" stroke="midnightblue" points="2190.71,-170.05 2199.75,-164.52 2189.23,-163.21 2190.71,-170.05"/>
</g>
<!-- Node387 -->
<g id="node48" class="node">
<title>Node387</title>
<g id="a_node48"><a xlink:href="../../d6/dbd/RoadInfoSpeed_8h.html" target="_top" xlink:title=" ">
<polygon fill="white" stroke="black" points="1984,-391.5 1984,-421.5 2093,-421.5 2093,-391.5 1984,-391.5"/>
<text text-anchor="start" x="1992" y="-409.5" font-family="Helvetica,sans-Serif" font-size="10.00">carla/road/element</text>
<text text-anchor="middle" x="2038.5" y="-398.5" font-family="Helvetica,sans-Serif" font-size="10.00">/RoadInfoSpeed.h</text>
</a>
</g>
</g>
<!-- Node1&#45;&gt;Node387 -->
<g id="edge71" class="edge">
<title>Node1&#45;&gt;Node387</title>
<path fill="none" stroke="midnightblue" d="M1393.55,-465.29C1511.94,-461.68 1761.04,-451.03 1969.5,-422 1970.8,-421.82 1972.1,-421.63 1973.42,-421.43"/>
<polygon fill="midnightblue" stroke="midnightblue" points="1974.34,-424.83 1983.63,-419.74 1973.2,-417.92 1974.34,-424.83"/>
</g>
<!-- Node388 -->
<g id="node50" class="node">
<title>Node388</title>
<g id="a_node50"><a xlink:href="../../d1/d1d/RoadInfoSignal_8h.html" target="_top" xlink:title=" ">
<polygon fill="white" stroke="red" points="2111,-391.5 2111,-421.5 2220,-421.5 2220,-391.5 2111,-391.5"/>
<text text-anchor="start" x="2119" y="-409.5" font-family="Helvetica,sans-Serif" font-size="10.00">carla/road/element</text>
<text text-anchor="middle" x="2165.5" y="-398.5" font-family="Helvetica,sans-Serif" font-size="10.00">/RoadInfoSignal.h</text>
</a>
</g>
</g>
<!-- Node1&#45;&gt;Node388 -->
<g id="edge73" class="edge">
<title>Node1&#45;&gt;Node388</title>
<path fill="none" stroke="midnightblue" d="M1393.58,-466.9C1528.12,-465.85 1834.75,-459.31 2100.73,-422.09"/>
<polygon fill="midnightblue" stroke="midnightblue" points="2101.56,-425.51 2110.97,-420.64 2100.58,-418.58 2101.56,-425.51"/>
</g>
<!-- Node3 -->
<g id="node3" class="node">
<title>Node3</title>
<g id="a_node3"><a xlink:title=" ">
<polygon fill="white" stroke="#bfbfbf" points="945.5,-6 945.5,-25 1033.5,-25 1033.5,-6 945.5,-6"/>
<text text-anchor="middle" x="989.5" y="-13" font-family="Helvetica,sans-Serif" font-size="10.00">CoreMinimal.h</text>
</a>
</g>
</g>
<!-- Node2&#45;&gt;Node3 -->
<g id="edge2" class="edge">
<title>Node2&#45;&gt;Node3</title>
<path fill="none" stroke="midnightblue" d="M243.21,-268.32C237.57,-245.01 225.07,-179.75 248.5,-134 271.07,-89.93 291.19,-84.5 337.5,-67 446.31,-25.88 798.66,-18.23 934.97,-16.82"/>
<polygon fill="midnightblue" stroke="midnightblue" points="935.2,-20.32 945.17,-16.72 935.14,-13.32 935.2,-20.32"/>
</g>
<!-- Node4 -->
<g id="node4" class="node">
<title>Node4</title>
<g id="a_node4"><a xlink:href="../../de/d8e/SignComponent_8h.html" target="_top" xlink:title=" ">
<polygon fill="white" stroke="red" points="258,-140 258,-159 361,-159 361,-140 258,-140"/>
<text text-anchor="middle" x="309.5" y="-147" font-family="Helvetica,sans-Serif" font-size="10.00">SignComponent.h</text>
</a>
</g>
</g>
<!-- Node2&#45;&gt;Node4 -->
<g id="edge3" class="edge">
<title>Node2&#45;&gt;Node4</title>
<path fill="none" stroke="midnightblue" d="M246.33,-268.08C248,-253.35 252.67,-223.36 264.5,-201 271.45,-187.86 282.52,-175.37 291.95,-166.1"/>
<polygon fill="midnightblue" stroke="midnightblue" points="294.47,-168.53 299.35,-159.12 289.67,-163.43 294.47,-168.53"/>
</g>
<!-- Node94 -->
<g id="node6" class="node">
<title>Node94</title>
<g id="a_node6"><a xlink:href="../../d2/d29/WheeledVehicleAIController_8h.html" target="_top" xlink:title=" ">
<polygon fill="white" stroke="red" points="274,-201.5 274,-231.5 435,-231.5 435,-201.5 274,-201.5"/>
<text text-anchor="start" x="282" y="-219.5" font-family="Helvetica,sans-Serif" font-size="10.00">Carla/Vehicle/WheeledVehicle</text>
<text text-anchor="middle" x="354.5" y="-208.5" font-family="Helvetica,sans-Serif" font-size="10.00">AIController.h</text>
</a>
</g>
</g>
<!-- Node2&#45;&gt;Node94 -->
<g id="edge6" class="edge">
<title>Node2&#45;&gt;Node94</title>
<path fill="none" stroke="midnightblue" d="M261.12,-268.48C276.36,-260.15 300.08,-247.21 319.79,-236.45"/>
<polygon fill="midnightblue" stroke="midnightblue" points="321.71,-239.39 328.81,-231.52 318.36,-233.24 321.71,-239.39"/>
</g>
<!-- Node102 -->
<g id="node11" class="node">
<title>Node102</title>
<g id="a_node11"><a xlink:title=" ">
<polygon fill="white" stroke="#bfbfbf" points="0,-207 0,-226 179,-226 179,-207 0,-207"/>
<text text-anchor="middle" x="89.5" y="-214" font-family="Helvetica,sans-Serif" font-size="10.00">YieldSignComponent.generated.h</text>
</a>
</g>
</g>
<!-- Node2&#45;&gt;Node102 -->
<g id="edge11" class="edge">
<title>Node2&#45;&gt;Node102</title>
<path fill="none" stroke="midnightblue" d="M223.15,-268.48C196.51,-258.31 151.79,-241.26 121.49,-229.7"/>
<polygon fill="midnightblue" stroke="midnightblue" points="122.4,-226.3 111.81,-226.01 119.91,-232.84 122.4,-226.3"/>
</g>
<!-- Node4&#45;&gt;Node3 -->
<g id="edge4" class="edge">
<title>Node4&#45;&gt;Node3</title>
<path fill="none" stroke="midnightblue" d="M313.48,-139.92C322.02,-122.59 343.95,-83.67 375.5,-67 424.34,-41.19 794.18,-24.15 935.15,-18.53"/>
<polygon fill="midnightblue" stroke="midnightblue" points="935.44,-22.03 945.29,-18.13 935.16,-15.03 935.44,-22.03"/>
</g>
<!-- Node43 -->
<g id="node5" class="node">
<title>Node43</title>
<g id="a_node5"><a xlink:title=" ">
<polygon fill="white" stroke="#bfbfbf" points="967,-73 967,-92 1012,-92 1012,-73 967,-73"/>
<text text-anchor="middle" x="989.5" y="-80" font-family="Helvetica,sans-Serif" font-size="10.00">utility</text>
</a>
</g>
</g>
<!-- Node4&#45;&gt;Node43 -->
<g id="edge5" class="edge">
<title>Node4&#45;&gt;Node43</title>
<path fill="none" stroke="midnightblue" d="M361.06,-140.36C376.31,-138.11 393.06,-135.8 408.5,-134 616.54,-109.74 867.75,-91.71 956.51,-85.69"/>
<polygon fill="midnightblue" stroke="midnightblue" points="957.01,-89.16 966.75,-84.99 956.54,-82.18 957.01,-89.16"/>
</g>
<!-- Node94&#45;&gt;Node95 -->
<g id="edge7" class="edge">
<title>Node94&#45;&gt;Node95</title>
<path fill="none" stroke="midnightblue" d="M373.38,-201.4C387.61,-190.76 407.1,-176.2 421.58,-165.38"/>
<polygon fill="midnightblue" stroke="midnightblue" points="423.95,-167.98 429.86,-159.19 419.76,-162.38 423.95,-167.98"/>
</g>
<!-- Node94&#45;&gt;Node97 -->
<g id="edge8" class="edge">
<title>Node94&#45;&gt;Node97</title>
<path fill="none" stroke="midnightblue" d="M397.25,-201.4C432.73,-189.69 482.61,-173.23 515.94,-162.23"/>
<polygon fill="midnightblue" stroke="midnightblue" points="517.32,-165.46 525.72,-159.01 515.12,-158.82 517.32,-165.46"/>
</g>
<!-- Node99 -->
<g id="node10" class="node">
<title>Node99</title>
<g id="a_node10"><a xlink:href="../../d4/dbd/Unreal_2CarlaUE4_2Plugins_2Carla_2Source_2Carla_2Vehicle_2VehicleControl_8h.html" target="_top" xlink:title=" ">
<polygon fill="white" stroke="red" points="3446.5,-6 3446.5,-25 3580.5,-25 3580.5,-6 3446.5,-6"/>
<text text-anchor="middle" x="3513.5" y="-13" font-family="Helvetica,sans-Serif" font-size="10.00">Vehicle/VehicleControl.h</text>
</a>
</g>
</g>
<!-- Node94&#45;&gt;Node99 -->
<g id="edge10" class="edge">
<title>Node94&#45;&gt;Node99</title>
<path fill="none" stroke="midnightblue" d="M359.59,-201.27C371.75,-169.77 405.86,-94.73 463.5,-67 530.84,-34.6 3078.8,-33 3153.5,-31 3250.99,-28.38 3363.27,-23.58 3436.16,-20.22"/>
<polygon fill="midnightblue" stroke="midnightblue" points="3436.35,-23.71 3446.17,-19.75 3436.02,-16.72 3436.35,-23.71"/>
</g>
<!-- Node98 -->
<g id="node9" class="node">
<title>Node98</title>
<g id="a_node9"><a xlink:title=" ">
<polygon fill="white" stroke="#bfbfbf" points="473,-73 473,-92 630,-92 630,-73 473,-73"/>
<text text-anchor="middle" x="551.5" y="-80" font-family="Helvetica,sans-Serif" font-size="10.00">TrafficLightState.generated.h</text>
</a>
</g>
</g>
<!-- Node97&#45;&gt;Node98 -->
<g id="edge9" class="edge">
<title>Node97&#45;&gt;Node98</title>
<path fill="none" stroke="midnightblue" d="M551.5,-139.73C551.5,-130.18 551.5,-114.62 551.5,-102.28"/>
<polygon fill="midnightblue" stroke="midnightblue" points="555,-102.13 551.5,-92.13 548,-102.13 555,-102.13"/>
</g>
<!-- Node104 -->
<g id="node13" class="node">
<title>Node104</title>
<g id="a_node13"><a xlink:href="../../de/db8/CarlaEpisode_8h.html" target="_top" xlink:title=" ">
<polygon fill="white" stroke="red" points="984.5,-268.5 984.5,-287.5 1134.5,-287.5 1134.5,-268.5 984.5,-268.5"/>
<text text-anchor="middle" x="1059.5" y="-275.5" font-family="Helvetica,sans-Serif" font-size="10.00">Carla/Game/CarlaEpisode.h</text>
</a>
</g>
</g>
<!-- Node103&#45;&gt;Node104 -->
<g id="edge15" class="edge">
<title>Node103&#45;&gt;Node104</title>
<path fill="none" stroke="midnightblue" d="M1155.96,-396.91C1208.03,-385.39 1280.5,-361.88 1250.5,-324 1236.93,-306.87 1188.99,-295.6 1144.54,-288.63"/>
<polygon fill="midnightblue" stroke="midnightblue" points="1144.94,-285.15 1134.53,-287.12 1143.9,-292.07 1144.94,-285.15"/>
</g>
<!-- Node323 -->
<g id="node17" class="node">
<title>Node323</title>
<g id="a_node17"><a xlink:href="../../d2/dba/CarlaGameInstance_8h.html" target="_top" xlink:title=" ">
<polygon fill="white" stroke="red" points="708.5,-268.5 708.5,-287.5 890.5,-287.5 890.5,-268.5 708.5,-268.5"/>
<text text-anchor="middle" x="799.5" y="-275.5" font-family="Helvetica,sans-Serif" font-size="10.00">Carla/Game/CarlaGameInstance.h</text>
</a>
</g>
</g>
<!-- Node103&#45;&gt;Node323 -->
<g id="edge19" class="edge">
<title>Node103&#45;&gt;Node323</title>
<path fill="none" stroke="midnightblue" d="M1103.53,-396.93C1093.22,-379.97 1067.75,-342.22 1035.5,-324 1009.47,-309.29 938.55,-296.94 881.21,-288.92"/>
<polygon fill="midnightblue" stroke="midnightblue" points="881.42,-285.42 871.04,-287.52 880.47,-292.35 881.42,-285.42"/>
</g>
<!-- Node332 -->
<g id="node18" class="node">
<title>Node332</title>
<g id="a_node18"><a xlink:href="../../d3/d49/CarlaGameModeBase_8h.html" target="_top" xlink:title=" ">
<polygon fill="white" stroke="red" points="1083,-324.5 1083,-354.5 1242,-354.5 1242,-324.5 1083,-324.5"/>
<text text-anchor="start" x="1091" y="-342.5" font-family="Helvetica,sans-Serif" font-size="10.00">Carla/Game/CarlaGameMode</text>
<text text-anchor="middle" x="1162.5" y="-331.5" font-family="Helvetica,sans-Serif" font-size="10.00">Base.h</text>
</a>
</g>
</g>
<!-- Node103&#45;&gt;Node332 -->
<g id="edge22" class="edge">
<title>Node103&#45;&gt;Node332</title>
<path fill="none" stroke="midnightblue" d="M1115.78,-396.73C1123.08,-387.95 1134.6,-374.08 1144.38,-362.31"/>
<polygon fill="midnightblue" stroke="midnightblue" points="1147.1,-364.52 1150.8,-354.59 1141.71,-360.04 1147.1,-364.52"/>
</g>
<!-- Node383 -->
<g id="node44" class="node">
<title>Node383</title>
<g id="a_node44"><a xlink:href="../../d3/d4e/CarlaSettings_8h.html" target="_top" xlink:title=" ">
<polygon fill="white" stroke="red" points="1297.5,-330 1297.5,-349 1459.5,-349 1459.5,-330 1297.5,-330"/>
<text text-anchor="middle" x="1378.5" y="-337" font-family="Helvetica,sans-Serif" font-size="10.00">Carla/Settings/CarlaSettings.h</text>
</a>
</g>
</g>
<!-- Node103&#45;&gt;Node383 -->
<g id="edge64" class="edge">
<title>Node103&#45;&gt;Node383</title>
<path fill="none" stroke="midnightblue" d="M1144.08,-396.94C1192.64,-385.24 1279.72,-364.28 1332.99,-351.46"/>
<polygon fill="midnightblue" stroke="midnightblue" points="1333.94,-354.83 1342.85,-349.08 1332.3,-348.02 1333.94,-354.83"/>
</g>
<!-- Node385 -->
<g id="node45" class="node">
<title>Node385</title>
<g id="a_node45"><a xlink:title=" ">
<polygon fill="white" stroke="#bfbfbf" points="567.5,-330 567.5,-349 713.5,-349 713.5,-330 567.5,-330"/>
<text text-anchor="middle" x="640.5" y="-337" font-family="Helvetica,sans-Serif" font-size="10.00">Kismet/GameplayStatics.h</text>
</a>
</g>
</g>
<!-- Node103&#45;&gt;Node385 -->
<g id="edge65" class="edge">
<title>Node103&#45;&gt;Node385</title>
<path fill="none" stroke="midnightblue" d="M1035.8,-396.98C958.1,-387.64 831.38,-371.74 722.5,-355 714.18,-353.72 705.4,-352.27 696.81,-350.8"/>
<polygon fill="midnightblue" stroke="midnightblue" points="697.29,-347.33 686.84,-349.07 696.09,-354.23 697.29,-347.33"/>
</g>
<!-- Node91 -->
<g id="node46" class="node">
<title>Node91</title>
<g id="a_node46"><a xlink:title=" ">
<polygon fill="white" stroke="#bfbfbf" points="731.5,-324.5 731.5,-354.5 871.5,-354.5 871.5,-324.5 731.5,-324.5"/>
<text text-anchor="start" x="739.5" y="-342.5" font-family="Helvetica,sans-Serif" font-size="10.00">Kismet/BlueprintFunction</text>
<text text-anchor="middle" x="801.5" y="-331.5" font-family="Helvetica,sans-Serif" font-size="10.00">Library.h</text>
</a>
</g>
</g>
<!-- Node103&#45;&gt;Node91 -->
<g id="edge66" class="edge">
<title>Node103&#45;&gt;Node91</title>
<path fill="none" stroke="midnightblue" d="M1068.05,-396.94C1019.77,-386.71 938.02,-369.41 877.76,-356.65"/>
<polygon fill="midnightblue" stroke="midnightblue" points="878.41,-353.21 867.9,-354.56 876.96,-360.05 878.41,-353.21"/>
</g>
<!-- Node386 -->
<g id="node47" class="node">
<title>Node386</title>
<g id="a_node47"><a xlink:title=" ">
<polygon fill="white" stroke="#bfbfbf" points="890,-330 890,-349 1027,-349 1027,-330 890,-330"/>
<text text-anchor="middle" x="958.5" y="-337" font-family="Helvetica,sans-Serif" font-size="10.00">CarlaStatics.generated.h</text>
</a>
</g>
</g>
<!-- Node103&#45;&gt;Node386 -->
<g id="edge67" class="edge">
<title>Node103&#45;&gt;Node386</title>
<path fill="none" stroke="midnightblue" d="M1088.58,-396.87C1062.81,-385.7 1017.68,-366.15 987.95,-353.26"/>
<polygon fill="midnightblue" stroke="midnightblue" points="989.07,-349.93 978.5,-349.17 986.29,-356.35 989.07,-349.93"/>
</g>
<!-- Node104&#45;&gt;Node9 -->
<g id="edge16" class="edge">
<title>Node104&#45;&gt;Node9</title>
<path fill="none" stroke="midnightblue" d="M1054.77,-268.48C1050.72,-261.17 1044.69,-250.3 1039.24,-240.47"/>
<polygon fill="midnightblue" stroke="midnightblue" points="1042.19,-238.57 1034.28,-231.52 1036.07,-241.97 1042.19,-238.57"/>
</g>
<!-- Node104&#45;&gt;Node89 -->
<g id="edge18" class="edge">
<title>Node104&#45;&gt;Node89</title>
<path fill="none" stroke="midnightblue" d="M1027.26,-268.48C993.51,-259.55 939.66,-245.31 897.44,-234.14"/>
<polygon fill="midnightblue" stroke="midnightblue" points="898.09,-230.7 887.53,-231.52 896.3,-237.46 898.09,-230.7"/>
</g>
<!-- Node10 -->
<g id="node15" class="node">
<title>Node10</title>
<g id="a_node15"><a xlink:href="../../d7/d7d/Carla_8h.html" target="_top" xlink:title=" ">
<polygon fill="white" stroke="red" points="1001,-140 1001,-159 1052,-159 1052,-140 1001,-140"/>
<text text-anchor="middle" x="1026.5" y="-147" font-family="Helvetica,sans-Serif" font-size="10.00">Carla.h</text>
</a>
</g>
</g>
<!-- Node9&#45;&gt;Node10 -->
<g id="edge17" class="edge">
<title>Node9&#45;&gt;Node10</title>
<path fill="none" stroke="midnightblue" d="M1026.5,-201.4C1026.5,-192.06 1026.5,-179.71 1026.5,-169.52"/>
<polygon fill="midnightblue" stroke="midnightblue" points="1030,-169.19 1026.5,-159.19 1023,-169.19 1030,-169.19"/>
</g>
<!-- Node323&#45;&gt;Node9 -->
<g id="edge20" class="edge">
<title>Node323&#45;&gt;Node9</title>
<path fill="none" stroke="midnightblue" d="M832.02,-268.48C866.14,-259.53 920.64,-245.25 963.27,-234.07"/>
<polygon fill="midnightblue" stroke="midnightblue" points="964.21,-237.44 973,-231.52 962.44,-230.67 964.21,-237.44"/>
</g>
<!-- Node323&#45;&gt;Node89 -->
<g id="edge21" class="edge">
<title>Node323&#45;&gt;Node89</title>
<path fill="none" stroke="midnightblue" d="M804.51,-268.48C808.86,-261.09 815.34,-250.08 821.16,-240.17"/>
<polygon fill="midnightblue" stroke="midnightblue" points="824.2,-241.92 826.25,-231.52 818.16,-238.37 824.2,-241.92"/>
</g>
<!-- Node332&#45;&gt;Node3 -->
<g id="edge23" class="edge">
<title>Node332&#45;&gt;Node3</title>
<path fill="none" stroke="midnightblue" d="M1082.94,-324.86C1039.48,-315.92 991.35,-303.12 975.5,-288 926.23,-241.01 949.57,-94.32 957.5,-67 961.09,-54.61 968.74,-42.35 975.66,-33.01"/>
<polygon fill="midnightblue" stroke="midnightblue" points="978.49,-35.07 981.91,-25.04 972.98,-30.75 978.49,-35.07"/>
</g>
<!-- Node332&#45;&gt;Node104 -->
<g id="edge26" class="edge">
<title>Node332&#45;&gt;Node104</title>
<path fill="none" stroke="midnightblue" d="M1138.09,-324.4C1121.58,-314.86 1099.88,-302.32 1083.46,-292.84"/>
<polygon fill="midnightblue" stroke="midnightblue" points="1084.9,-289.63 1074.49,-287.66 1081.4,-295.69 1084.9,-289.63"/>
</g>
<!-- Node332&#45;&gt;Node9 -->
<g id="edge24" class="edge">
<title>Node332&#45;&gt;Node9</title>
<path fill="none" stroke="midnightblue" d="M1162.21,-324.39C1161.17,-308.83 1157.27,-283.91 1143.5,-268 1130.92,-253.46 1113.4,-242.97 1095.74,-235.46"/>
<polygon fill="midnightblue" stroke="midnightblue" points="1096.53,-232.01 1085.94,-231.59 1093.95,-238.52 1096.53,-232.01"/>
</g>
<!-- Node332&#45;&gt;Node89 -->
<g id="edge25" class="edge">
<title>Node332&#45;&gt;Node89</title>
<path fill="none" stroke="midnightblue" d="M1088.76,-324.46C1035.52,-313.79 968.6,-299.1 942.5,-288 912.07,-275.06 880.82,-253.6 859.81,-237.74"/>
<polygon fill="midnightblue" stroke="midnightblue" points="861.8,-234.86 851.74,-231.55 857.54,-240.41 861.8,-234.86"/>
</g>
<!-- Node332&#45;&gt;Node323 -->
<g id="edge27" class="edge">
<title>Node332&#45;&gt;Node323</title>
<path fill="none" stroke="midnightblue" d="M1082.84,-325.44C1016.21,-314.52 922.52,-299.17 861.42,-289.15"/>
<polygon fill="midnightblue" stroke="midnightblue" points="861.96,-285.69 851.53,-287.53 860.83,-292.6 861.96,-285.69"/>
</g>
<!-- Node332&#45;&gt;Node379 -->
<g id="edge28" class="edge">
<title>Node332&#45;&gt;Node379</title>
<path fill="none" stroke="midnightblue" d="M1242.16,-325.44C1308.79,-314.52 1402.48,-299.17 1463.58,-289.15"/>
<polygon fill="midnightblue" stroke="midnightblue" points="1464.17,-292.6 1473.47,-287.53 1463.04,-285.69 1464.17,-292.6"/>
</g>
<!-- Node379&#45;&gt;Node3 -->
<g id="edge29" class="edge">
<title>Node379&#45;&gt;Node3</title>
<path fill="none" stroke="midnightblue" d="M1445.75,-271.44C1338.87,-263.43 1159.52,-247.88 1133.5,-232 1123.37,-225.82 1032.19,-83.55 1000.39,-33.63"/>
<polygon fill="midnightblue" stroke="midnightblue" points="1003.34,-31.74 995.01,-25.19 997.43,-35.5 1003.34,-31.74"/>
</g>
<!-- Node115 -->
<g id="node20" class="node">
<title>Node115</title>
<g id="a_node20"><a xlink:href="../../de/d36/CarlaActor_8h.html" target="_top" xlink:title=" ">
<polygon fill="white" stroke="red" points="1439,-207 1439,-226 1572,-226 1572,-207 1439,-207"/>
<text text-anchor="middle" x="1505.5" y="-214" font-family="Helvetica,sans-Serif" font-size="10.00">Carla/Actor/CarlaActor.h</text>
</a>
</g>
</g>
<!-- Node379&#45;&gt;Node115 -->
<g id="edge30" class="edge">
<title>Node379&#45;&gt;Node115</title>
<path fill="none" stroke="midnightblue" d="M1522.63,-268.48C1519.78,-259.99 1515.32,-246.7 1511.66,-235.82"/>
<polygon fill="midnightblue" stroke="midnightblue" points="1514.86,-234.37 1508.36,-226.01 1508.23,-236.6 1514.86,-234.37"/>
</g>
<!-- Node110 -->
<g id="node40" class="node">
<title>Node110</title>
<g id="a_node40"><a xlink:title=" ">
<polygon fill="white" stroke="#bfbfbf" points="1590,-207 1590,-226 1727,-226 1727,-207 1590,-207"/>
<text text-anchor="middle" x="1658.5" y="-214" font-family="Helvetica,sans-Serif" font-size="10.00">GameFramework/Actor.h</text>
</a>
</g>
</g>
<!-- Node379&#45;&gt;Node110 -->
<g id="edge60" class="edge">
<title>Node379&#45;&gt;Node110</title>
<path fill="none" stroke="midnightblue" d="M1544.56,-268.48C1566.97,-258.45 1604.41,-241.7 1630.21,-230.15"/>
<polygon fill="midnightblue" stroke="midnightblue" points="1631.78,-233.29 1639.48,-226.01 1628.92,-226.9 1631.78,-233.29"/>
</g>
<!-- Node380 -->
<g id="node41" class="node">
<title>Node380</title>
<g id="a_node41"><a xlink:title=" ">
<polygon fill="white" stroke="#bfbfbf" points="1745.5,-207 1745.5,-226 1927.5,-226 1927.5,-207 1745.5,-207"/>
<text text-anchor="middle" x="1836.5" y="-214" font-family="Helvetica,sans-Serif" font-size="10.00">Engine/LevelStreamingDynamic.h</text>
</a>
</g>
</g>
<!-- Node379&#45;&gt;Node380 -->
<g id="edge61" class="edge">
<title>Node379&#45;&gt;Node380</title>
<path fill="none" stroke="midnightblue" d="M1570.06,-268.48C1625.95,-257.78 1721.73,-239.46 1781.94,-227.94"/>
<polygon fill="midnightblue" stroke="midnightblue" points="1782.86,-231.33 1792.02,-226.01 1781.54,-224.45 1782.86,-231.33"/>
</g>
<!-- Node121 -->
<g id="node42" class="node">
<title>Node121</title>
<g id="a_node42"><a xlink:href="../../d5/d94/DVector_8h.html" target="_top" xlink:title=" ">
<polygon fill="white" stroke="red" points="1143,-207 1143,-226 1234,-226 1234,-207 1143,-207"/>
<text text-anchor="middle" x="1188.5" y="-214" font-family="Helvetica,sans-Serif" font-size="10.00">Math/DVector.h</text>
</a>
</g>
</g>
<!-- Node379&#45;&gt;Node121 -->
<g id="edge62" class="edge">
<title>Node379&#45;&gt;Node121</title>
<path fill="none" stroke="midnightblue" d="M1460.48,-268.5C1403.11,-260.55 1317.36,-247.59 1243.5,-232 1238.68,-230.98 1233.65,-229.81 1228.68,-228.59"/>
<polygon fill="midnightblue" stroke="midnightblue" points="1229.18,-225.1 1218.63,-226.02 1227.45,-231.89 1229.18,-225.1"/>
</g>
<!-- Node381 -->
<g id="node43" class="node">
<title>Node381</title>
<g id="a_node43"><a xlink:title=" ">
<polygon fill="white" stroke="#bfbfbf" points="1252.5,-207 1252.5,-226 1420.5,-226 1420.5,-207 1252.5,-207"/>
<text text-anchor="middle" x="1336.5" y="-214" font-family="Helvetica,sans-Serif" font-size="10.00">LargeMapManager.generated.h</text>
</a>
</g>
</g>
<!-- Node379&#45;&gt;Node381 -->
<g id="edge63" class="edge">
<title>Node379&#45;&gt;Node381</title>
<path fill="none" stroke="midnightblue" d="M1498.42,-268.48C1465.58,-258.14 1410.07,-240.66 1373.35,-229.1"/>
<polygon fill="midnightblue" stroke="midnightblue" points="1374.12,-225.67 1363.53,-226.01 1372.02,-232.35 1374.12,-225.67"/>
</g>
<!-- Node115&#45;&gt;Node97 -->
<g id="edge59" class="edge">
<title>Node115&#45;&gt;Node97</title>
<path fill="none" stroke="midnightblue" d="M1466.21,-206.99C1454.45,-204.72 1441.5,-202.48 1429.5,-201 1276.04,-182.03 815.8,-161.47 630.28,-153.7"/>
<polygon fill="midnightblue" stroke="midnightblue" points="630.2,-150.2 620.06,-153.28 629.91,-157.19 630.2,-150.2"/>
</g>
<!-- Node115&#45;&gt;Node211 -->
<g id="edge31" class="edge">
<title>Node115&#45;&gt;Node211</title>
<path fill="none" stroke="midnightblue" d="M1545.06,-206.94C1556.45,-204.73 1568.93,-202.53 1580.5,-201 1797.86,-172.17 2055.92,-158.82 2187.31,-153.5"/>
<polygon fill="midnightblue" stroke="midnightblue" points="2187.46,-157 2197.32,-153.1 2187.18,-150.01 2187.46,-157"/>
</g>
<!-- Node216 -->
<g id="node30" class="node">
<title>Node216</title>
<g id="a_node30"><a xlink:href="../../de/dcb/Unreal_2CarlaUE4_2Plugins_2Carla_2Source_2Carla_2Vehicle_2VehicleTelemetryData_8h.html" target="_top" xlink:title=" ">
<polygon fill="white" stroke="red" points="1069,-67.5 1069,-97.5 1208,-97.5 1208,-67.5 1069,-67.5"/>
<text text-anchor="start" x="1077" y="-85.5" font-family="Helvetica,sans-Serif" font-size="10.00">Vehicle/VehicleTelemetry</text>
<text text-anchor="middle" x="1138.5" y="-74.5" font-family="Helvetica,sans-Serif" font-size="10.00">Data.h</text>
</a>
</g>
</g>
<!-- Node115&#45;&gt;Node216 -->
<g id="edge58" class="edge">
<title>Node115&#45;&gt;Node216</title>
<path fill="none" stroke="midnightblue" d="M1481.7,-206.94C1422.45,-185.63 1267.35,-129.84 1187.52,-101.13"/>
<polygon fill="midnightblue" stroke="midnightblue" points="1188.3,-97.69 1177.71,-97.6 1185.93,-104.28 1188.3,-97.69"/>
</g>
<!-- Node211&#45;&gt;Node3 -->
<g id="edge54" class="edge">
<title>Node211&#45;&gt;Node3</title>
<path fill="none" stroke="midnightblue" d="M2197.48,-146.68C2000.01,-141.6 1481.09,-125.73 1408.5,-98 1387.82,-90.1 1389.88,-75.66 1369.5,-67 1312,-42.56 1134.42,-26.81 1043.85,-20.14"/>
<polygon fill="midnightblue" stroke="midnightblue" points="1044,-16.64 1033.77,-19.41 1043.49,-23.63 1044,-16.64"/>
</g>
<!-- Node211&#45;&gt;Node43 -->
<g id="edge55" class="edge">
<title>Node211&#45;&gt;Node43</title>
<path fill="none" stroke="midnightblue" d="M2197.5,-146.96C1967.52,-142.04 1281.29,-125.4 1059.5,-98 1047.12,-96.47 1033.66,-93.91 1021.89,-91.35"/>
<polygon fill="midnightblue" stroke="midnightblue" points="1022.57,-87.92 1012.04,-89.14 1021.03,-94.75 1022.57,-87.92"/>
</g>
<!-- Node211&#45;&gt;Node99 -->
<g id="edge40" class="edge">
<title>Node211&#45;&gt;Node99</title>
<path fill="none" stroke="midnightblue" d="M2349.65,-148.74C2641.71,-149.32 3676.4,-147.8 3724.5,-98 3769.67,-51.23 3668.15,-30.87 3590.8,-22.32"/>
<polygon fill="midnightblue" stroke="midnightblue" points="3590.85,-18.8 3580.54,-21.24 3590.12,-25.77 3590.85,-18.8"/>
</g>
<!-- Node212 -->
<g id="node22" class="node">
<title>Node212</title>
<g id="a_node22"><a xlink:title=" ">
<polygon fill="white" stroke="#bfbfbf" points="3771.5,-73 3771.5,-92 3875.5,-92 3875.5,-73 3771.5,-73"/>
<text text-anchor="middle" x="3823.5" y="-80" font-family="Helvetica,sans-Serif" font-size="10.00">WheeledVehicle.h</text>
</a>
</g>
</g>
<!-- Node211&#45;&gt;Node212 -->
<g id="edge32" class="edge">
<title>Node211&#45;&gt;Node212</title>
<path fill="none" stroke="midnightblue" d="M2349.72,-147.74C2612.69,-144.84 3480.95,-132.79 3757.5,-98 3764.86,-97.07 3772.62,-95.72 3780.12,-94.21"/>
<polygon fill="midnightblue" stroke="midnightblue" points="3781.08,-97.58 3790.13,-92.07 3779.62,-90.73 3781.08,-97.58"/>
</g>
<!-- Node213 -->
<g id="node23" class="node">
<title>Node213</title>
<g id="a_node23"><a xlink:href="../../d0/d4d/AckermannController_8h.html" target="_top" xlink:title=" ">
<polygon fill="white" stroke="black" points="3030.5,-73 3030.5,-92 3196.5,-92 3196.5,-73 3030.5,-73"/>
<text text-anchor="middle" x="3113.5" y="-80" font-family="Helvetica,sans-Serif" font-size="10.00">Vehicle/AckermannController.h</text>
</a>
</g>
</g>
<!-- Node211&#45;&gt;Node213 -->
<g id="edge33" class="edge">
<title>Node211&#45;&gt;Node213</title>
<path fill="none" stroke="midnightblue" d="M2349.62,-145.35C2484.36,-139.33 2773.57,-124.37 3016.5,-98 3027.89,-96.76 3039.99,-95.18 3051.65,-93.51"/>
<polygon fill="midnightblue" stroke="midnightblue" points="3052.36,-96.94 3061.75,-92.02 3051.35,-90.01 3052.36,-96.94"/>
</g>
<!-- Node130 -->
<g id="node24" class="node">
<title>Node130</title>
<g id="a_node24"><a xlink:href="../../df/d92/Unreal_2CarlaUE4_2Plugins_2Carla_2Source_2Carla_2Vehicle_2AckermannControllerSettings_8h.html" target="_top" xlink:title=" ">
<polygon fill="white" stroke="red" points="2430.5,-0.5 2430.5,-30.5 2616.5,-30.5 2616.5,-0.5 2430.5,-0.5"/>
<text text-anchor="start" x="2438.5" y="-18.5" font-family="Helvetica,sans-Serif" font-size="10.00">Carla/Vehicle/AckermannController</text>
<text text-anchor="middle" x="2523.5" y="-7.5" font-family="Helvetica,sans-Serif" font-size="10.00">Settings.h</text>
</a>
</g>
</g>
<!-- Node211&#45;&gt;Node130 -->
<g id="edge37" class="edge">
<title>Node211&#45;&gt;Node130</title>
<path fill="none" stroke="midnightblue" d="M2219.81,-134.47C2176.06,-120.49 2125.44,-96.83 2151.5,-67 2185.77,-27.77 2322.27,-17.84 2419.98,-15.92"/>
<polygon fill="midnightblue" stroke="midnightblue" points="2420.26,-19.41 2430.2,-15.74 2420.14,-12.41 2420.26,-19.41"/>
</g>
<!-- Node132 -->
<g id="node25" class="node">
<title>Node132</title>
<g id="a_node25"><a xlink:href="../../d7/d1a/Unreal_2CarlaUE4_2Plugins_2Carla_2Source_2Carla_2Vehicle_2VehicleAckermannControl_8h.html" target="_top" xlink:title=" ">
<polygon fill="white" stroke="red" points="2971,-0.5 2971,-30.5 3144,-30.5 3144,-0.5 2971,-0.5"/>
<text text-anchor="start" x="2979" y="-18.5" font-family="Helvetica,sans-Serif" font-size="10.00">Carla/Vehicle/VehicleAckermann</text>
<text text-anchor="middle" x="3057.5" y="-7.5" font-family="Helvetica,sans-Serif" font-size="10.00">Control.h</text>
</a>
</g>
</g>
<!-- Node211&#45;&gt;Node132 -->
<g id="edge39" class="edge">
<title>Node211&#45;&gt;Node132</title>
<path fill="none" stroke="midnightblue" d="M2349.68,-146.28C2521.3,-140.81 2927.61,-125.16 2983.5,-98 2997.39,-91.25 3023.22,-60.56 3040.39,-38.84"/>
<polygon fill="midnightblue" stroke="midnightblue" points="3043.32,-40.77 3046.72,-30.74 3037.8,-36.46 3043.32,-40.77"/>
</g>
<!-- Node214 -->
<g id="node26" class="node">
<title>Node214</title>
<g id="a_node26"><a xlink:href="../../d7/dab/CarlaWheeledVehicleState_8h.html" target="_top" xlink:title=" ">
<polygon fill="white" stroke="red" points="1417.5,-67.5 1417.5,-97.5 1575.5,-97.5 1575.5,-67.5 1417.5,-67.5"/>
<text text-anchor="start" x="1425.5" y="-85.5" font-family="Helvetica,sans-Serif" font-size="10.00">Vehicle/CarlaWheeledVehicle</text>
<text text-anchor="middle" x="1496.5" y="-74.5" font-family="Helvetica,sans-Serif" font-size="10.00">State.h</text>
</a>
</g>
</g>
<!-- Node211&#45;&gt;Node214 -->
<g id="edge38" class="edge">
<title>Node211&#45;&gt;Node214</title>
<path fill="none" stroke="midnightblue" d="M2197.33,-145.16C2071.94,-139.18 1814.02,-124.78 1585.77,-98.08"/>
<polygon fill="midnightblue" stroke="midnightblue" points="1585.95,-94.58 1575.61,-96.88 1585.13,-101.53 1585.95,-94.58"/>
</g>
<!-- Node134 -->
<g id="node27" class="node">
<title>Node134</title>
<g id="a_node27"><a xlink:href="../../d6/d6c/Unreal_2CarlaUE4_2Plugins_2Carla_2Source_2Carla_2Vehicle_2VehicleLightState_8h.html" target="_top" xlink:title=" ">
<polygon fill="white" stroke="red" points="1594,-67.5 1594,-97.5 1737,-97.5 1737,-67.5 1594,-67.5"/>
<text text-anchor="start" x="1602" y="-85.5" font-family="Helvetica,sans-Serif" font-size="10.00">Carla/Vehicle/VehicleLight</text>
<text text-anchor="middle" x="1665.5" y="-74.5" font-family="Helvetica,sans-Serif" font-size="10.00">State.h</text>
</a>
</g>
</g>
<!-- Node211&#45;&gt;Node134 -->
<g id="edge41" class="edge">
<title>Node211&#45;&gt;Node134</title>
<path fill="none" stroke="midnightblue" d="M2197.35,-143.16C2096.69,-135.67 1913.63,-120.53 1746.94,-97.98"/>
<polygon fill="midnightblue" stroke="midnightblue" points="1747.38,-94.51 1737,-96.63 1746.44,-101.45 1747.38,-94.51"/>
</g>
<!-- Node136 -->
<g id="node28" class="node">
<title>Node136</title>
<g id="a_node28"><a xlink:href="../../db/d8b/VehicleInputPriority_8h.html" target="_top" xlink:title=" ">
<polygon fill="white" stroke="red" points="1755.5,-73 1755.5,-92 1913.5,-92 1913.5,-73 1755.5,-73"/>
<text text-anchor="middle" x="1834.5" y="-80" font-family="Helvetica,sans-Serif" font-size="10.00">Vehicle/VehicleInputPriority.h</text>
</a>
</g>
</g>
<!-- Node211&#45;&gt;Node136 -->
<g id="edge42" class="edge">
<title>Node211&#45;&gt;Node136</title>
<path fill="none" stroke="midnightblue" d="M2197.43,-138.01C2126.29,-128.1 2017.11,-112.6 1922.5,-98 1913.72,-96.64 1904.45,-95.17 1895.35,-93.69"/>
<polygon fill="midnightblue" stroke="midnightblue" points="1895.63,-90.19 1885.19,-92.03 1894.5,-97.1 1895.63,-90.19"/>
</g>
<!-- Node138 -->
<g id="node29" class="node">
<title>Node138</title>
<g id="a_node29"><a xlink:href="../../d3/d90/Unreal_2CarlaUE4_2Plugins_2Carla_2Source_2Carla_2Vehicle_2VehiclePhysicsControl_8h.html" target="_top" xlink:title=" ">
<polygon fill="white" stroke="red" points="1932,-73 1932,-92 2103,-92 2103,-73 1932,-73"/>
<text text-anchor="middle" x="2017.5" y="-80" font-family="Helvetica,sans-Serif" font-size="10.00">Vehicle/VehiclePhysicsControl.h</text>
</a>
</g>
</g>
<!-- Node211&#45;&gt;Node138 -->
<g id="edge43" class="edge">
<title>Node211&#45;&gt;Node138</title>
<path fill="none" stroke="midnightblue" d="M2218.27,-134.48C2171.18,-122.52 2104.43,-105.57 2061.05,-94.56"/>
<polygon fill="midnightblue" stroke="midnightblue" points="2061.64,-91.1 2051.09,-92.03 2059.92,-97.88 2061.64,-91.1"/>
</g>
<!-- Node211&#45;&gt;Node216 -->
<g id="edge44" class="edge">
<title>Node211&#45;&gt;Node216</title>
<path fill="none" stroke="midnightblue" d="M2197.27,-148.41C2024.54,-147.43 1590.1,-140.65 1218.32,-98.11"/>
<polygon fill="midnightblue" stroke="midnightblue" points="1218.51,-94.61 1208.17,-96.94 1217.7,-101.56 1218.51,-94.61"/>
</g>
<!-- Node218 -->
<g id="node31" class="node">
<title>Node218</title>
<g id="a_node31"><a xlink:href="../../d6/df3/VehicleVelocityControl_8h.html" target="_top" xlink:title=" ">
<polygon fill="white" stroke="red" points="1226,-73 1226,-92 1361,-92 1361,-73 1226,-73"/>
<text text-anchor="middle" x="1293.5" y="-80" font-family="Helvetica,sans-Serif" font-size="10.00">VehicleVelocityControl.h</text>
</a>
</g>
</g>
<!-- Node211&#45;&gt;Node218 -->
<g id="edge45" class="edge">
<title>Node211&#45;&gt;Node218</title>
<path fill="none" stroke="midnightblue" d="M2197.25,-147.27C2042.07,-144.08 1678.54,-133.19 1375.5,-98 1366.01,-96.9 1355.96,-95.4 1346.27,-93.78"/>
<polygon fill="midnightblue" stroke="midnightblue" points="1346.79,-90.32 1336.34,-92.07 1345.6,-97.22 1346.79,-90.32"/>
</g>
<!-- Node221 -->
<g id="node32" class="node">
<title>Node221</title>
<g id="a_node32"><a xlink:title=" ">
<polygon fill="white" stroke="#bfbfbf" points="2160,-73 2160,-92 2387,-92 2387,-73 2160,-73"/>
<text text-anchor="middle" x="2273.5" y="-80" font-family="Helvetica,sans-Serif" font-size="10.00">WheeledVehicleMovementComponent4W.h</text>
</a>
</g>
</g>
<!-- Node211&#45;&gt;Node221 -->
<g id="edge47" class="edge">
<title>Node211&#45;&gt;Node221</title>
<path fill="none" stroke="midnightblue" d="M2273.5,-134.4C2273.5,-125.06 2273.5,-112.71 2273.5,-102.52"/>
<polygon fill="midnightblue" stroke="midnightblue" points="2277,-102.19 2273.5,-92.19 2270,-102.19 2277,-102.19"/>
</g>
<!-- Node222 -->
<g id="node33" class="node">
<title>Node222</title>
<g id="a_node33"><a xlink:href="../../d0/d34/WheeledVehicleMovementComponentNW_8h.html" target="_top" xlink:title=" ">
<polygon fill="white" stroke="red" points="2405,-73 2405,-92 2634,-92 2634,-73 2405,-73"/>
<text text-anchor="middle" x="2519.5" y="-80" font-family="Helvetica,sans-Serif" font-size="10.00">WheeledVehicleMovementComponentNW.h</text>
</a>
</g>
</g>
<!-- Node211&#45;&gt;Node222 -->
<g id="edge48" class="edge">
<title>Node211&#45;&gt;Node222</title>
<path fill="none" stroke="midnightblue" d="M2326.58,-134.48C2371.72,-122.55 2435.69,-105.64 2477.39,-94.63"/>
<polygon fill="midnightblue" stroke="midnightblue" points="2478.45,-97.97 2487.22,-92.03 2476.66,-91.2 2478.45,-97.97"/>
</g>
<!-- Node226 -->
<g id="node34" class="node">
<title>Node226</title>
<g id="a_node34"><a xlink:title=" ">
<polygon fill="white" stroke="#bfbfbf" points="2652.5,-73 2652.5,-92 2780.5,-92 2780.5,-73 2652.5,-73"/>
<text text-anchor="middle" x="2716.5" y="-80" font-family="Helvetica,sans-Serif" font-size="10.00">VehicleAnimInstance.h</text>
</a>
</g>
</g>
<!-- Node211&#45;&gt;Node226 -->
<g id="edge49" class="edge">
<title>Node211&#45;&gt;Node226</title>
<path fill="none" stroke="midnightblue" d="M2349.53,-139.49C2424.47,-130.28 2542.15,-114.97 2643.5,-98 2650.68,-96.8 2658.24,-95.42 2665.67,-94.01"/>
<polygon fill="midnightblue" stroke="midnightblue" points="2666.51,-97.41 2675.65,-92.07 2665.17,-90.54 2666.51,-97.41"/>
</g>
<!-- Node227 -->
<g id="node35" class="node">
<title>Node227</title>
<g id="a_node35"><a xlink:title=" ">
<polygon fill="white" stroke="#bfbfbf" points="2798.5,-67.5 2798.5,-97.5 2974.5,-97.5 2974.5,-67.5 2798.5,-67.5"/>
<text text-anchor="start" x="2806.5" y="-85.5" font-family="Helvetica,sans-Serif" font-size="10.00">PhysicsEngine/PhysicsConstraint</text>
<text text-anchor="middle" x="2886.5" y="-74.5" font-family="Helvetica,sans-Serif" font-size="10.00">Component.h</text>
</a>
</g>
</g>
<!-- Node211&#45;&gt;Node227 -->
<g id="edge50" class="edge">
<title>Node211&#45;&gt;Node227</title>
<path fill="none" stroke="midnightblue" d="M2349.7,-142.26C2448.43,-133.91 2626.14,-117.94 2788.33,-98.11"/>
<polygon fill="midnightblue" stroke="midnightblue" points="2789,-101.55 2798.5,-96.85 2788.15,-94.6 2789,-101.55"/>
</g>
<!-- Node228 -->
<g id="node36" class="node">
<title>Node228</title>
<g id="a_node36"><a xlink:href="../../d6/d10/BaseCarlaMovementComponent_8h.html" target="_top" xlink:title=" ">
<polygon fill="white" stroke="red" points="3894,-67.5 3894,-97.5 4081,-97.5 4081,-67.5 3894,-67.5"/>
<text text-anchor="start" x="3902" y="-85.5" font-family="Helvetica,sans-Serif" font-size="10.00">MovementComponents</text>
<text text-anchor="middle" x="3987.5" y="-74.5" font-family="Helvetica,sans-Serif" font-size="10.00">/BaseCarlaMovementComponent.h</text>
</a>
</g>
</g>
<!-- Node211&#45;&gt;Node228 -->
<g id="edge51" class="edge">
<title>Node211&#45;&gt;Node228</title>
<path fill="none" stroke="midnightblue" d="M2349.57,-149.04C2579.44,-150.05 3287.18,-148.58 3883.71,-97.99"/>
<polygon fill="midnightblue" stroke="midnightblue" points="3884.13,-101.47 3893.8,-97.13 3883.54,-94.49 3884.13,-101.47"/>
</g>
<!-- Node231 -->
<g id="node37" class="node">
<title>Node231</title>
<g id="a_node37"><a xlink:title=" ">
<polygon fill="white" stroke="#bfbfbf" points="3215,-67.5 3215,-97.5 3368,-97.5 3368,-67.5 3215,-67.5"/>
<text text-anchor="start" x="3223" y="-85.5" font-family="Helvetica,sans-Serif" font-size="10.00">FoliageInstancedStaticMesh</text>
<text text-anchor="middle" x="3291.5" y="-74.5" font-family="Helvetica,sans-Serif" font-size="10.00">Component.h</text>
</a>
</g>
</g>
<!-- Node211&#45;&gt;Node231 -->
<g id="edge53" class="edge">
<title>Node211&#45;&gt;Node231</title>
<path fill="none" stroke="midnightblue" d="M2349.55,-147.28C2507.16,-144.13 2881.06,-133.39 3204.63,-98"/>
<polygon fill="midnightblue" stroke="midnightblue" points="3205.11,-101.47 3214.67,-96.9 3204.34,-94.51 3205.11,-101.47"/>
</g>
<!-- Node161 -->
<g id="node38" class="node">
<title>Node161</title>
<g id="a_node38"><a xlink:href="../../d6/dac/VehicleFailureState_8h.html" target="_top" xlink:title=" ">
<polygon fill="white" stroke="red" points="3386,-67.5 3386,-97.5 3515,-97.5 3515,-67.5 3386,-67.5"/>
<text text-anchor="start" x="3394" y="-85.5" font-family="Helvetica,sans-Serif" font-size="10.00">carla/rpc/VehicleFailure</text>
<text text-anchor="middle" x="3450.5" y="-74.5" font-family="Helvetica,sans-Serif" font-size="10.00">State.h</text>
</a>
</g>
</g>
<!-- Node211&#45;&gt;Node161 -->
<g id="edge56" class="edge">
<title>Node211&#45;&gt;Node161</title>
<path fill="none" stroke="midnightblue" d="M2349.79,-148.95C2528,-149.14 2985.56,-144.73 3375.63,-98.11"/>
<polygon fill="midnightblue" stroke="midnightblue" points="3376.19,-101.57 3385.7,-96.9 3375.36,-94.62 3376.19,-101.57"/>
</g>
<!-- Node232 -->
<g id="node39" class="node">
<title>Node232</title>
<g id="a_node39"><a xlink:title=" ">
<polygon fill="white" stroke="#bfbfbf" points="3533.5,-73 3533.5,-92 3715.5,-92 3715.5,-73 3533.5,-73"/>
<text text-anchor="middle" x="3624.5" y="-80" font-family="Helvetica,sans-Serif" font-size="10.00">CarlaWheeledVehicle.generated.h</text>
</a>
</g>
</g>
<!-- Node211&#45;&gt;Node232 -->
<g id="edge57" class="edge">
<title>Node211&#45;&gt;Node232</title>
<path fill="none" stroke="midnightblue" d="M2349.84,-148.17C2545.51,-146.72 3080.79,-139.01 3524.5,-98 3536.97,-96.85 3550.27,-95.21 3562.96,-93.45"/>
<polygon fill="midnightblue" stroke="midnightblue" points="3563.57,-96.89 3572.98,-92.01 3562.58,-89.96 3563.57,-96.89"/>
</g>
<!-- Node213&#45;&gt;Node99 -->
<g id="edge36" class="edge">
<title>Node213&#45;&gt;Node99</title>
<path fill="none" stroke="midnightblue" d="M3166.2,-72.94C3239.6,-61.01 3372.38,-39.43 3450.78,-26.69"/>
<polygon fill="midnightblue" stroke="midnightblue" points="3451.69,-30.09 3461,-25.03 3450.57,-23.18 3451.69,-30.09"/>
</g>
<!-- Node213&#45;&gt;Node130 -->
<g id="edge34" class="edge">
<title>Node213&#45;&gt;Node130</title>
<path fill="none" stroke="midnightblue" d="M3037.2,-72.97C3019.57,-71 3000.88,-68.92 2983.5,-67 2861,-53.44 2720.12,-38 2626.89,-27.8"/>
<polygon fill="midnightblue" stroke="midnightblue" points="2627.21,-24.31 2616.89,-26.7 2626.45,-31.27 2627.21,-24.31"/>
</g>
<!-- Node213&#45;&gt;Node132 -->
<g id="edge35" class="edge">
<title>Node213&#45;&gt;Node132</title>
<path fill="none" stroke="midnightblue" d="M3105.95,-72.73C3098.38,-63.95 3086.43,-50.08 3076.29,-38.31"/>
<polygon fill="midnightblue" stroke="midnightblue" points="3078.82,-35.88 3069.64,-30.59 3073.51,-40.45 3078.82,-35.88"/>
</g>
<!-- Node218&#45;&gt;Node3 -->
<g id="edge46" class="edge">
<title>Node218&#45;&gt;Node3</title>
<path fill="none" stroke="midnightblue" d="M1253.44,-72.94C1198.42,-61.17 1099.49,-40.02 1039.63,-27.22"/>
<polygon fill="midnightblue" stroke="midnightblue" points="1040.15,-23.75 1029.64,-25.08 1038.69,-30.6 1040.15,-23.75"/>
</g>
<!-- Node228&#45;&gt;Node99 -->
<g id="edge52" class="edge">
<title>Node228&#45;&gt;Node99</title>
<path fill="none" stroke="midnightblue" d="M3893.75,-68.28C3890.63,-67.85 3887.54,-67.42 3884.5,-67 3781.34,-52.72 3661.99,-36.53 3587.12,-26.42"/>
<polygon fill="midnightblue" stroke="midnightblue" points="3587.24,-22.9 3576.86,-25.03 3586.3,-29.84 3587.24,-22.9"/>
</g>
<!-- Node49 -->
<g id="node49" class="node">
<title>Node49</title>
<g id="a_node49"><a xlink:href="../../de/d3a/RoadInfo_8h.html" target="_top" xlink:title=" ">
<polygon fill="white" stroke="red" points="2048,-324.5 2048,-354.5 2157,-354.5 2157,-324.5 2048,-324.5"/>
<text text-anchor="start" x="2056" y="-342.5" font-family="Helvetica,sans-Serif" font-size="10.00">carla/road/element</text>
<text text-anchor="middle" x="2102.5" y="-331.5" font-family="Helvetica,sans-Serif" font-size="10.00">/RoadInfo.h</text>
</a>
</g>
</g>
<!-- Node387&#45;&gt;Node49 -->
<g id="edge72" class="edge">
<title>Node387&#45;&gt;Node49</title>
<path fill="none" stroke="midnightblue" d="M2052.39,-391.4C2060.86,-382.79 2071.85,-371.63 2081.39,-361.94"/>
<polygon fill="midnightblue" stroke="midnightblue" points="2084.12,-364.16 2088.64,-354.58 2079.13,-359.25 2084.12,-364.16"/>
</g>
<!-- Node388&#45;&gt;Node49 -->
<g id="edge74" class="edge">
<title>Node388&#45;&gt;Node49</title>
<path fill="none" stroke="midnightblue" d="M2151.83,-391.4C2143.49,-382.79 2132.67,-371.63 2123.28,-361.94"/>
<polygon fill="midnightblue" stroke="midnightblue" points="2125.62,-359.32 2116.14,-354.58 2120.59,-364.19 2125.62,-359.32"/>
</g>
</g>
</svg>
