<?xml version="1.0" encoding="UTF-8" standalone="no"?>
<!DOCTYPE svg PUBLIC "-//W3C//DTD SVG 1.1//EN"
 "http://www.w3.org/Graphics/SVG/1.1/DTD/svg11.dtd">
<!-- Generated by graphviz version 2.40.1 (20161225.0304)
 -->
<!-- Title: carla::rpc::Command::ApplyAngularVelocity Pages: 1 -->
<svg width="225pt" height="196pt"
 viewBox="0.00 0.00 224.50 196.00" xmlns="http://www.w3.org/2000/svg" xmlns:xlink="http://www.w3.org/1999/xlink">
<g id="graph0" class="graph" transform="scale(1 1) rotate(0) translate(4 192)">
<title>carla::rpc::Command::ApplyAngularVelocity</title>
<polygon fill="#ffffff" stroke="transparent" points="-4,4 -4,-192 220.5,-192 220.5,4 -4,4"/>
<!-- Node0 -->
<g id="node1" class="node">
<title>Node0</title>
<polygon fill="#bfbfbf" stroke="#000000" points="23,-.5 23,-30.5 150,-30.5 150,-.5 23,-.5"/>
<text text-anchor="start" x="31" y="-18.5" font-family="Helvetica,sans-Serif" font-size="10.00" fill="#000000">carla::rpc::Command</text>
<text text-anchor="middle" x="86.5" y="-7.5" font-family="Helvetica,sans-Serif" font-size="10.00" fill="#000000">::ApplyAngularVelocity</text>
</g>
<!-- Node1 -->
<g id="node2" class="node">
<title>Node1</title>
<g id="a_node2"><a xlink:href="../../d0/d4c/structcarla_1_1rpc_1_1Command_1_1CommandBase.html" target="_top" xlink:title="carla::rpc::Command\l::CommandBase\&lt; ApplyAngular\lVelocity \&gt;">
<polygon fill="#ffffff" stroke="#000000" points="0,-68.5 0,-109.5 173,-109.5 173,-68.5 0,-68.5"/>
<text text-anchor="start" x="8" y="-97.5" font-family="Helvetica,sans-Serif" font-size="10.00" fill="#000000">carla::rpc::Command</text>
<text text-anchor="start" x="8" y="-86.5" font-family="Helvetica,sans-Serif" font-size="10.00" fill="#000000">::CommandBase&lt; ApplyAngular</text>
<text text-anchor="middle" x="86.5" y="-75.5" font-family="Helvetica,sans-Serif" font-size="10.00" fill="#000000">Velocity &gt;</text>
</a>
</g>
</g>
<!-- Node1&#45;&gt;Node0 -->
<g id="edge1" class="edge">
<title>Node1&#45;&gt;Node0</title>
<path fill="none" stroke="#191970" d="M86.5,-57.9048C86.5,-48.5365 86.5,-38.666 86.5,-30.8074"/>
<polygon fill="#191970" stroke="#191970" points="83.0001,-58.1344 86.5,-68.1345 90.0001,-58.1345 83.0001,-58.1344"/>
</g>
<!-- Node2 -->
<g id="node3" class="node">
<title>Node2</title>
<g id="a_node3"><a xlink:href="../../d0/d4c/structcarla_1_1rpc_1_1Command_1_1CommandBase.html" target="_top" xlink:title="carla::rpc::Command\l::CommandBase\&lt; T \&gt;">
<polygon fill="#ffffff" stroke="#000000" points="24,-157.5 24,-187.5 149,-187.5 149,-157.5 24,-157.5"/>
<text text-anchor="start" x="32" y="-175.5" font-family="Helvetica,sans-Serif" font-size="10.00" fill="#000000">carla::rpc::Command</text>
<text text-anchor="middle" x="86.5" y="-164.5" font-family="Helvetica,sans-Serif" font-size="10.00" fill="#000000">::CommandBase&lt; T &gt;</text>
</a>
</g>
</g>
<!-- Node2&#45;&gt;Node1 -->
<g id="edge2" class="edge">
<title>Node2&#45;&gt;Node1</title>
<path fill="none" stroke="#ffa500" stroke-dasharray="5,2" d="M86.5,-146.9112C86.5,-134.9282 86.5,-120.8447 86.5,-109.5668"/>
<polygon fill="#ffa500" stroke="#ffa500" points="83.0001,-147.1848 86.5,-157.1848 90.0001,-147.1848 83.0001,-147.1848"/>
<text text-anchor="middle" x="151.5" y="-131" font-family="Helvetica,sans-Serif" font-size="10.00" fill="#000000"> &lt; ApplyAngularVelocity &gt;</text>
</g>
</g>
</svg>
