<?xml version="1.0" encoding="UTF-8" standalone="no"?>
<!DOCTYPE svg PUBLIC "-//W3C//DTD SVG 1.1//EN"
 "http://www.w3.org/Graphics/SVG/1.1/DTD/svg11.dtd">
<!-- Generated by graphviz version 2.40.1 (20161225.0304)
 -->
<!-- Title: TaggedComponent.h Pages: 1 -->
<svg width="832pt" height="95pt"
 viewBox="0.00 0.00 832.00 95.00" xmlns="http://www.w3.org/2000/svg" xmlns:xlink="http://www.w3.org/1999/xlink">
<g id="graph0" class="graph" transform="scale(1 1) rotate(0) translate(4 91)">
<title>TaggedComponent.h</title>
<polygon fill="#ffffff" stroke="transparent" points="-4,4 -4,-91 828,-91 828,4 -4,4"/>
<!-- Node0 -->
<g id="node1" class="node">
<title>Node0</title>
<polygon fill="#bfbfbf" stroke="#000000" points="292.5,-67.5 292.5,-86.5 408.5,-86.5 408.5,-67.5 292.5,-67.5"/>
<text text-anchor="middle" x="350.5" y="-74.5" font-family="Helvetica,sans-Serif" font-size="10.00" fill="#000000">TaggedComponent.h</text>
</g>
<!-- Node1 -->
<g id="node2" class="node">
<title>Node1</title>
<polygon fill="#ffffff" stroke="#bfbfbf" points="0,-6 0,-25 87,-25 87,-6 0,-6"/>
<text text-anchor="middle" x="43.5" y="-13" font-family="Helvetica,sans-Serif" font-size="10.00" fill="#000000">CoreMinimal.h</text>
</g>
<!-- Node0&#45;&gt;Node1 -->
<g id="edge1" class="edge">
<title>Node0&#45;&gt;Node1</title>
<path fill="none" stroke="#191970" d="M292.3879,-68.2633C240.6714,-60.0646 163.1227,-46.7286 96.5,-31 92.4063,-30.0335 88.1591,-28.9431 83.9311,-27.7995"/>
<polygon fill="#191970" stroke="#191970" points="84.7557,-24.3958 74.1822,-25.0681 82.8672,-31.1363 84.7557,-24.3958"/>
</g>
<!-- Node2 -->
<g id="node3" class="node">
<title>Node2</title>
<polygon fill="#ffffff" stroke="#bfbfbf" points="105.5,-.5 105.5,-30.5 251.5,-30.5 251.5,-.5 105.5,-.5"/>
<text text-anchor="start" x="113.5" y="-18.5" font-family="Helvetica,sans-Serif" font-size="10.00" fill="#000000">Materials/MaterialInstance</text>
<text text-anchor="middle" x="178.5" y="-7.5" font-family="Helvetica,sans-Serif" font-size="10.00" fill="#000000">Dynamic.h</text>
</g>
<!-- Node0&#45;&gt;Node2 -->
<g id="edge2" class="edge">
<title>Node0&#45;&gt;Node2</title>
<path fill="none" stroke="#191970" d="M323.625,-67.3906C298.7304,-58.4893 261.0245,-45.0073 230.2861,-34.0165"/>
<polygon fill="#191970" stroke="#191970" points="231.1705,-30.6158 220.5759,-30.5446 228.8137,-37.2072 231.1705,-30.6158"/>
</g>
<!-- Node3 -->
<g id="node4" class="node">
<title>Node3</title>
<polygon fill="#ffffff" stroke="#bfbfbf" points="269.5,-6 269.5,-25 431.5,-25 431.5,-6 269.5,-6"/>
<text text-anchor="middle" x="350.5" y="-13" font-family="Helvetica,sans-Serif" font-size="10.00" fill="#000000">Engine/InstancedStaticMesh.h</text>
</g>
<!-- Node0&#45;&gt;Node3 -->
<g id="edge3" class="edge">
<title>Node0&#45;&gt;Node3</title>
<path fill="none" stroke="#191970" d="M350.5,-67.3906C350.5,-58.8657 350.5,-46.1392 350.5,-35.4235"/>
<polygon fill="#191970" stroke="#191970" points="354.0001,-35.2448 350.5,-25.2449 347.0001,-35.2449 354.0001,-35.2448"/>
</g>
<!-- Node4 -->
<g id="node5" class="node">
<title>Node4</title>
<polygon fill="#ffffff" stroke="#bfbfbf" points="450,-.5 450,-30.5 637,-30.5 637,-.5 450,-.5"/>
<text text-anchor="start" x="458" y="-18.5" font-family="Helvetica,sans-Serif" font-size="10.00" fill="#000000">Components/HierarchicalInstanced</text>
<text text-anchor="middle" x="543.5" y="-7.5" font-family="Helvetica,sans-Serif" font-size="10.00" fill="#000000">StaticMeshComponent.h</text>
</g>
<!-- Node0&#45;&gt;Node4 -->
<g id="edge4" class="edge">
<title>Node0&#45;&gt;Node4</title>
<path fill="none" stroke="#191970" d="M380.6563,-67.3906C408.9531,-58.3737 452.0012,-44.6563 486.731,-33.5896"/>
<polygon fill="#191970" stroke="#191970" points="487.8216,-36.9156 496.2869,-30.5446 485.6963,-30.246 487.8216,-36.9156"/>
</g>
<!-- Node5 -->
<g id="node6" class="node">
<title>Node5</title>
<polygon fill="#ffffff" stroke="#bfbfbf" points="655,-6 655,-25 824,-25 824,-6 655,-6"/>
<text text-anchor="middle" x="739.5" y="-13" font-family="Helvetica,sans-Serif" font-size="10.00" fill="#000000">TaggedComponent.generated.h</text>
</g>
<!-- Node0&#45;&gt;Node5 -->
<g id="edge5" class="edge">
<title>Node0&#45;&gt;Node5</title>
<path fill="none" stroke="#191970" d="M408.6608,-68.1543C468.3701,-59.0279 563.9641,-44.2908 646.5,-31 655.0713,-29.6198 664.083,-28.1461 672.9846,-26.677"/>
<polygon fill="#191970" stroke="#191970" points="673.6649,-30.1121 682.9588,-25.0255 672.5213,-23.2061 673.6649,-30.1121"/>
</g>
</g>
</svg>
