<?xml version="1.0" encoding="UTF-8" standalone="no"?>
<!DOCTYPE svg PUBLIC "-//W3C//DTD SVG 1.1//EN"
 "http://www.w3.org/Graphics/SVG/1.1/DTD/svg11.dtd">
<!-- Generated by graphviz version 2.38.0 (20140413.2041)
 -->
<!-- Title: ACarlaRecorder::AddVehicleAnimation Pages: 1 -->
<svg width="686pt" height="78pt"
 viewBox="0.00 0.00 686.00 77.50" xmlns="http://www.w3.org/2000/svg" xmlns:xlink="http://www.w3.org/1999/xlink">
<g id="graph0" class="graph" transform="scale(1 1) rotate(0) translate(4 73.5)">
<title>ACarlaRecorder::AddVehicleAnimation</title>
<polygon fill="white" stroke="none" points="-4,4 -4,-73.5 682,-73.5 682,4 -4,4"/>
<!-- Node1 -->
<g id="node1" class="node"><title>Node1</title>
<polygon fill="#bfbfbf" stroke="black" points="0,-0.5 0,-30.5 149,-30.5 149,-0.5 0,-0.5"/>
<text text-anchor="start" x="8" y="-18.5" font-family="Helvetica,sans-Serif" font-size="10.00">ACarlaRecorder::AddVehicle</text>
<text text-anchor="middle" x="74.5" y="-7.5" font-family="Helvetica,sans-Serif" font-size="10.00">Animation</text>
</g>
<!-- Node2 -->
<g id="node2" class="node"><title>Node2</title>
<g id="a_node2"><a xlink:href="../../dd/db9/classACarlaRecorder.html#a1074f19dfe5b16a9e10b24ef35b26abc" target="_top" xlink:title="ACarlaRecorder::Ticking">
<polygon fill="white" stroke="black" points="185,-6 185,-25 313,-25 313,-6 185,-6"/>
<text text-anchor="middle" x="249" y="-13" font-family="Helvetica,sans-Serif" font-size="10.00">ACarlaRecorder::Ticking</text>
</a>
</g>
</g>
<!-- Node1&#45;&gt;Node2 -->
<g id="edge1" class="edge"><title>Node1&#45;&gt;Node2</title>
<path fill="none" stroke="midnightblue" d="M159.257,-15.5C167.893,-15.5 176.561,-15.5 184.917,-15.5"/>
<polygon fill="midnightblue" stroke="midnightblue" points="159.156,-12.0001 149.156,-15.5 159.156,-19.0001 159.156,-12.0001"/>
</g>
<!-- Node3 -->
<g id="node3" class="node"><title>Node3</title>
<g id="a_node3"><a xlink:href="../../dc/d49/classFCarlaEngine.html#aff440c7ba9d004e4c5b60125cc4d709b" target="_top" xlink:title="FCarlaEngine::OnPostTick">
<polygon fill="white" stroke="black" points="349,-6 349,-25 486,-25 486,-6 349,-6"/>
<text text-anchor="middle" x="417.5" y="-13" font-family="Helvetica,sans-Serif" font-size="10.00">FCarlaEngine::OnPostTick</text>
</a>
</g>
</g>
<!-- Node2&#45;&gt;Node3 -->
<g id="edge2" class="edge"><title>Node2&#45;&gt;Node3</title>
<path fill="none" stroke="midnightblue" d="M323.576,-15.5C331.974,-15.5 340.505,-15.5 348.821,-15.5"/>
<polygon fill="midnightblue" stroke="midnightblue" points="323.422,-12.0001 313.421,-15.5 323.421,-19.0001 323.422,-12.0001"/>
</g>
<!-- Node4 -->
<g id="node4" class="node"><title>Node4</title>
<g id="a_node4"><a xlink:href="../../dc/d49/classFCarlaEngine.html#ab8d13063cde985781237dd7da308227e" target="_top" xlink:title="FCarlaEngine::NotifyInitGame">
<polygon fill="white" stroke="black" points="522,-50 522,-69 678,-69 678,-50 522,-50"/>
<text text-anchor="middle" x="600" y="-57" font-family="Helvetica,sans-Serif" font-size="10.00">FCarlaEngine::NotifyInitGame</text>
</a>
</g>
</g>
<!-- Node3&#45;&gt;Node4 -->
<g id="edge3" class="edge"><title>Node3&#45;&gt;Node4</title>
<path fill="none" stroke="midnightblue" d="M467.6,-27.469C496.613,-34.5414 532.845,-43.3736 559.911,-49.9713"/>
<polygon fill="midnightblue" stroke="midnightblue" points="468.21,-24.0153 457.666,-25.0473 466.552,-30.8162 468.21,-24.0153"/>
</g>
<!-- Node5 -->
<g id="node5" class="node"><title>Node5</title>
<g id="a_node5"><a xlink:href="../../dc/d49/classFCarlaEngine.html#a4e37452410b2181d87ffe2f8f7cdf14a" target="_top" xlink:title="FCarlaEngine::GetCurrent\lEpisode">
<polygon fill="white" stroke="black" points="531,-0.5 531,-30.5 669,-30.5 669,-0.5 531,-0.5"/>
<text text-anchor="start" x="539" y="-18.5" font-family="Helvetica,sans-Serif" font-size="10.00">FCarlaEngine::GetCurrent</text>
<text text-anchor="middle" x="600" y="-7.5" font-family="Helvetica,sans-Serif" font-size="10.00">Episode</text>
</a>
</g>
</g>
<!-- Node3&#45;&gt;Node5 -->
<g id="edge4" class="edge"><title>Node3&#45;&gt;Node5</title>
<path fill="none" stroke="midnightblue" d="M496.262,-8.80777C507.787,-8.70053 519.588,-8.74259 530.895,-8.93396"/>
<polygon fill="midnightblue" stroke="midnightblue" points="496.178,-5.30848 486.225,-8.94044 496.27,-12.3079 496.178,-5.30848"/>
</g>
<!-- Node5&#45;&gt;Node3 -->
<g id="edge5" class="edge"><title>Node5&#45;&gt;Node3</title>
<path fill="none" stroke="midnightblue" d="M520.851,-22.1958C509.32,-22.2997 497.521,-22.2543 486.225,-22.0596"/>
<polygon fill="midnightblue" stroke="midnightblue" points="520.941,-25.695 530.895,-22.066 520.851,-18.6956 520.941,-25.695"/>
</g>
</g>
</svg>
