<?xml version="1.0" encoding="UTF-8" standalone="no"?>
<!DOCTYPE svg PUBLIC "-//W3C//DTD SVG 1.1//EN"
 "http://www.w3.org/Graphics/SVG/1.1/DTD/svg11.dtd">
<!-- Generated by graphviz version 2.40.1 (20161225.0304)
 -->
<!-- Title: ACarlaRecorder::Write Pages: 1 -->
<!--zoomable 91 -->
<svg id="main" version="1.1" xmlns="http://www.w3.org/2000/svg" xmlns:xlink="http://www.w3.org/1999/xlink" xml:space="preserve" onload="init(evt)">
<style type="text/css"><![CDATA[
.edge:hover path { stroke: red; }
.edge:hover polygon { stroke: red; fill: red; }
]]></style>
<script type="text/javascript"><![CDATA[
var edges = document.getElementsByTagName('g');
if (edges && edges.length) {
  for (var i=0;i<edges.length;i++) {
    if (edges[i].id.substr(0,4)=='edge') {
      edges[i].setAttribute('class','edge');
    }
  }
}
]]></script>
        <defs>
                <circle id="rim" cx="0" cy="0" r="7"/>
                <circle id="rim2" cx="0" cy="0" r="3.5"/>
                <g id="zoomPlus">
                        <use xlink:href="#rim" fill="#404040">
                                <set attributeName="fill" to="#808080" begin="zoomplus.mouseover" end="zoomplus.mouseout"/>
                        </use>
                        <path d="M-4,0h8M0,-4v8" fill="none" stroke="white" stroke-width="1.5" pointer-events="none"/>
                </g>
                <g id="zoomMin">
                        <use xlink:href="#rim" fill="#404040">
                                <set attributeName="fill" to="#808080" begin="zoomminus.mouseover" end="zoomminus.mouseout"/>
                        </use>
                        <path d="M-4,0h8" fill="none" stroke="white" stroke-width="1.5" pointer-events="none"/>
                </g>
                <g id="dirArrow">
                        <path fill="none" stroke="white" stroke-width="1.5" d="M0,-3.0v7 M-2.5,-0.5L0,-3.0L2.5,-0.5"/>
                </g>
               <g id="resetDef">
                       <use xlink:href="#rim2" fill="#404040">
                               <set attributeName="fill" to="#808080" begin="reset.mouseover" end="reset.mouseout"/>
                       </use>
               </g>
        </defs>

<script type="text/javascript">
var viewWidth = 1574;
var viewHeight = 91;
var sectionId = 'dynsection-88';
</script>
<script xlink:href="../../svgpan.js"/>
<svg id="graph" class="graph">
<g id="viewport">
<title>ACarlaRecorder::Write</title>
<polygon fill="#ffffff" stroke="transparent" points="-4,4 -4,-86.5 1570,-86.5 1570,4 -4,4"/>
<!-- Node2153 -->
<g id="node1" class="node">
<title>Node2153</title>
<polygon fill="#bfbfbf" stroke="#000000" points="0,-28 0,-47 123,-47 123,-28 0,-28"/>
<text text-anchor="middle" x="61.5" y="-35" font-family="Helvetica,sans-Serif" font-size="10.00" fill="#000000">ACarlaRecorder::Write</text>
</g>
<!-- Node2154 -->
<g id="node2" class="node">
<title>Node2154</title>
<g id="a_node2"><a xlink:href="../../dd/db9/classACarlaRecorder.html#a1074f19dfe5b16a9e10b24ef35b26abc" target="_top" xlink:title="ACarlaRecorder::Ticking">
<polygon fill="#ffffff" stroke="#000000" points="159,-28 159,-47 292,-47 292,-28 159,-28"/>
<text text-anchor="middle" x="225.5" y="-35" font-family="Helvetica,sans-Serif" font-size="10.00" fill="#000000">ACarlaRecorder::Ticking</text>
</a>
</g>
</g>
<!-- Node2153&#45;&gt;Node2154 -->
<g id="edge1" class="edge">
<title>Node2153&#45;&gt;Node2154</title>
<path fill="none" stroke="#191970" d="M133.0452,-37.5C141.6541,-37.5 150.4193,-37.5 158.9529,-37.5"/>
<polygon fill="#191970" stroke="#191970" points="133.0342,-34.0001 123.0341,-37.5 133.0341,-41.0001 133.0342,-34.0001"/>
</g>
<!-- Node2155 -->
<g id="node3" class="node">
<title>Node2155</title>
<g id="a_node3"><a xlink:href="../../dc/d49/classFCarlaEngine.html#aff440c7ba9d004e4c5b60125cc4d709b" target="_top" xlink:title="FCarlaEngine::OnPostTick">
<polygon fill="#ffffff" stroke="#000000" points="328,-28 328,-47 469,-47 469,-28 328,-28"/>
<text text-anchor="middle" x="398.5" y="-35" font-family="Helvetica,sans-Serif" font-size="10.00" fill="#000000">FCarlaEngine::OnPostTick</text>
</a>
</g>
</g>
<!-- Node2154&#45;&gt;Node2155 -->
<g id="edge2" class="edge">
<title>Node2154&#45;&gt;Node2155</title>
<path fill="none" stroke="#191970" d="M302.5486,-37.5C310.9465,-37.5 319.4647,-37.5 327.7814,-37.5"/>
<polygon fill="#191970" stroke="#191970" points="302.3864,-34.0001 292.3863,-37.5 302.3863,-41.0001 302.3864,-34.0001"/>
</g>
<!-- Node2156 -->
<g id="node4" class="node">
<title>Node2156</title>
<g id="a_node4"><a xlink:href="../../dc/d49/classFCarlaEngine.html#ab8d13063cde985781237dd7da308227e" target="_top" xlink:title="FCarlaEngine::NotifyInitGame">
<polygon fill="#ffffff" stroke="#000000" points="505,-50 505,-69 666,-69 666,-50 505,-50"/>
<text text-anchor="middle" x="585.5" y="-57" font-family="Helvetica,sans-Serif" font-size="10.00" fill="#000000">FCarlaEngine::NotifyInitGame</text>
</a>
</g>
</g>
<!-- Node2155&#45;&gt;Node2156 -->
<g id="edge3" class="edge">
<title>Node2155&#45;&gt;Node2156</title>
<path fill="none" stroke="#191970" d="M479.1604,-46.9895C487.7203,-47.9965 496.4265,-49.0208 504.9848,-50.0276"/>
<polygon fill="#191970" stroke="#191970" points="479.5372,-43.5097 469.1967,-45.8173 478.7192,-50.4618 479.5372,-43.5097"/>
</g>
<!-- Node2157 -->
<g id="node5" class="node">
<title>Node2157</title>
<g id="a_node5"><a xlink:href="../../dc/d49/classFCarlaEngine.html#a30d1221bfa4d98b62a21cc93d02c594d" target="_top" xlink:title="FCarlaEngine::GetSecondary\lServer">
<polygon fill="#ffffff" stroke="#000000" points="508,-.5 508,-30.5 663,-30.5 663,-.5 508,-.5"/>
<text text-anchor="start" x="516" y="-18.5" font-family="Helvetica,sans-Serif" font-size="10.00" fill="#000000">FCarlaEngine::GetSecondary</text>
<text text-anchor="middle" x="585.5" y="-7.5" font-family="Helvetica,sans-Serif" font-size="10.00" fill="#000000">Server</text>
</a>
</g>
</g>
<!-- Node2155&#45;&gt;Node2157 -->
<g id="edge4" class="edge">
<title>Node2155&#45;&gt;Node2157</title>
<path fill="none" stroke="#191970" d="M479.358,-27.9873C488.8031,-26.8761 498.4234,-25.7443 507.824,-24.6384"/>
<polygon fill="#191970" stroke="#191970" points="478.7192,-24.5382 469.1967,-29.1827 479.5372,-31.4903 478.7192,-24.5382"/>
</g>
<!-- Node2158 -->
<g id="node6" class="node">
<title>Node2158</title>
<g id="a_node6"><a xlink:href="../../dc/d84/classUCarlaEpisode.html#ade49c565b15265f72bb0da9704573a14" target="_top" xlink:title="Load a new map and start a new episode. ">
<polygon fill="#ffffff" stroke="#000000" points="702,-6 702,-25 879,-25 879,-6 702,-6"/>
<text text-anchor="middle" x="790.5" y="-13" font-family="Helvetica,sans-Serif" font-size="10.00" fill="#000000">UCarlaEpisode::LoadNewEpisode</text>
</a>
</g>
</g>
<!-- Node2157&#45;&gt;Node2158 -->
<g id="edge5" class="edge">
<title>Node2157&#45;&gt;Node2158</title>
<path fill="none" stroke="#191970" d="M673.2207,-15.5C682.7154,-15.5 692.3829,-15.5 701.888,-15.5"/>
<polygon fill="#191970" stroke="#191970" points="673.0017,-12.0001 663.0017,-15.5 673.0017,-19.0001 673.0017,-12.0001"/>
</g>
<!-- Node2159 -->
<g id="node7" class="node">
<title>Node2159</title>
<g id="a_node7"><a xlink:href="../../dc/dc6/classCarlaReplayer.html#a480fd94fedc2367d7f7f58f17f3cd5a4" target="_top" xlink:title="CarlaReplayer::ReplayFile">
<polygon fill="#ffffff" stroke="#000000" points="915,-25 915,-44 1055,-44 1055,-25 915,-25"/>
<text text-anchor="middle" x="985" y="-32" font-family="Helvetica,sans-Serif" font-size="10.00" fill="#000000">CarlaReplayer::ReplayFile</text>
</a>
</g>
</g>
<!-- Node2158&#45;&gt;Node2159 -->
<g id="edge6" class="edge">
<title>Node2158&#45;&gt;Node2159</title>
<path fill="none" stroke="#191970" d="M889.297,-25.1511C897.8949,-25.991 906.4767,-26.8293 914.7735,-27.6398"/>
<polygon fill="#191970" stroke="#191970" points="889.5054,-21.6549 879.2124,-24.166 888.8247,-28.6217 889.5054,-21.6549"/>
</g>
<!-- Node2161 -->
<g id="node9" class="node">
<title>Node2161</title>
<g id="a_node9"><a xlink:href="../../d7/d97/classFCarlaServer_1_1FPimpl.html#a675a6b572112a21e8bc011dddfd0de86" target="_top" xlink:title="FCarlaServer::FPimpl\l::BindActions">
<polygon fill="#ffffff" stroke="#000000" points="1294,-19.5 1294,-49.5 1412,-49.5 1412,-19.5 1294,-19.5"/>
<text text-anchor="start" x="1302" y="-37.5" font-family="Helvetica,sans-Serif" font-size="10.00" fill="#000000">FCarlaServer::FPimpl</text>
<text text-anchor="middle" x="1353" y="-26.5" font-family="Helvetica,sans-Serif" font-size="10.00" fill="#000000">::BindActions</text>
</a>
</g>
</g>
<!-- Node2158&#45;&gt;Node2161 -->
<g id="edge11" class="edge">
<title>Node2158&#45;&gt;Node2161</title>
<path fill="none" stroke="#191970" d="M889.2274,-9.8688C984.0371,-5.7895 1131.1711,-2.9415 1258,-15.5 1269.7165,-16.6602 1282.1285,-18.6065 1293.9796,-20.8222"/>
<polygon fill="#191970" stroke="#191970" points="888.9106,-6.3793 879.0755,-10.3189 889.2207,-13.3724 888.9106,-6.3793"/>
</g>
<!-- Node2160 -->
<g id="node8" class="node">
<title>Node2160</title>
<g id="a_node8"><a xlink:href="../../dd/db9/classACarlaRecorder.html#a5dc891241c275eedcf6b1f189751520b" target="_top" xlink:title="ACarlaRecorder::ReplayFile">
<polygon fill="#ffffff" stroke="#000000" points="1101,-63 1101,-82 1248,-82 1248,-63 1101,-63"/>
<text text-anchor="middle" x="1174.5" y="-70" font-family="Helvetica,sans-Serif" font-size="10.00" fill="#000000">ACarlaRecorder::ReplayFile</text>
</a>
</g>
</g>
<!-- Node2159&#45;&gt;Node2160 -->
<g id="edge7" class="edge">
<title>Node2159&#45;&gt;Node2160</title>
<path fill="none" stroke="#191970" d="M1042.8948,-46.1095C1069.846,-51.514 1101.5102,-57.8635 1127.025,-62.9799"/>
<polygon fill="#191970" stroke="#191970" points="1043.3118,-42.6235 1032.8189,-44.089 1041.9355,-49.4869 1043.3118,-42.6235"/>
</g>
<!-- Node2163 -->
<g id="node11" class="node">
<title>Node2163</title>
<g id="a_node11"><a xlink:href="../../dc/dc6/classCarlaReplayer.html#a6dadadd7719c5e660d2e3d99b22f5961" target="_top" xlink:title="CarlaReplayer::~CarlaReplayer">
<polygon fill="#ffffff" stroke="#000000" points="1091,-25 1091,-44 1258,-44 1258,-25 1091,-25"/>
<text text-anchor="middle" x="1174.5" y="-32" font-family="Helvetica,sans-Serif" font-size="10.00" fill="#000000">CarlaReplayer::~CarlaReplayer</text>
</a>
</g>
</g>
<!-- Node2159&#45;&gt;Node2163 -->
<g id="edge10" class="edge">
<title>Node2159&#45;&gt;Node2163</title>
<path fill="none" stroke="#191970" d="M1065.2898,-34.5C1073.7857,-34.5 1082.4405,-34.5 1090.9721,-34.5"/>
<polygon fill="#191970" stroke="#191970" points="1065.0244,-31.0001 1055.0244,-34.5 1065.0244,-38.0001 1065.0244,-31.0001"/>
</g>
<!-- Node2160&#45;&gt;Node2161 -->
<g id="edge8" class="edge">
<title>Node2160&#45;&gt;Node2161</title>
<path fill="none" stroke="#191970" d="M1229.5949,-60.7711C1249.9481,-56.4382 1273.0921,-51.5112 1293.7945,-47.104"/>
<polygon fill="#191970" stroke="#191970" points="1228.5951,-57.4054 1219.5431,-62.911 1230.0527,-64.252 1228.5951,-57.4054"/>
</g>
<!-- Node2162 -->
<g id="node10" class="node">
<title>Node2162</title>
<g id="a_node10"><a xlink:href="../../d7/d97/classFCarlaServer_1_1FPimpl.html#ab9ff29fc81bd2f9a14677941c7f7b62d" target="_top" xlink:title="FCarlaServer::FPimpl\l::FPimpl">
<polygon fill="#ffffff" stroke="#000000" points="1448,-19.5 1448,-49.5 1566,-49.5 1566,-19.5 1448,-19.5"/>
<text text-anchor="start" x="1456" y="-37.5" font-family="Helvetica,sans-Serif" font-size="10.00" fill="#000000">FCarlaServer::FPimpl</text>
<text text-anchor="middle" x="1507" y="-26.5" font-family="Helvetica,sans-Serif" font-size="10.00" fill="#000000">::FPimpl</text>
</a>
</g>
</g>
<!-- Node2161&#45;&gt;Node2162 -->
<g id="edge9" class="edge">
<title>Node2161&#45;&gt;Node2162</title>
<path fill="none" stroke="#191970" d="M1422.3691,-34.5C1430.8618,-34.5 1439.4796,-34.5 1447.8037,-34.5"/>
<polygon fill="#191970" stroke="#191970" points="1422.1,-31.0001 1412.1,-34.5 1422.1,-38.0001 1422.1,-31.0001"/>
</g>
</g>
</svg>
        <g id="navigator" transform="translate(0 0)" fill="#404254">
                <rect fill="#f2f5e9" fill-opacity="0.5" stroke="#606060" stroke-width=".5" x="0" y="0" width="60" height="60"/>
                <use id="zoomplus" xlink:href="#zoomPlus" x="17" y="9" onmousedown="handleZoom(evt,'in')"/>
                <use id="zoomminus" xlink:href="#zoomMin" x="42" y="9" onmousedown="handleZoom(evt,'out')"/>
                <use id="reset" xlink:href="#resetDef" x="30" y="36" onmousedown="handleReset()"/>
                <g id="arrowUp" xlink:href="#dirArrow" transform="translate(30 24)" onmousedown="handlePan(0,-1)">
                  <use xlink:href="#rim" fill="#404040">
                        <set attributeName="fill" to="#808080" begin="arrowUp.mouseover" end="arrowUp.mouseout"/>
                  </use>
                  <path fill="none" stroke="white" stroke-width="1.5" d="M0,-3.0v7 M-2.5,-0.5L0,-3.0L2.5,-0.5"/>
                </g>
                <g id="arrowRight" xlink:href="#dirArrow" transform="rotate(90) translate(36 -43)" onmousedown="handlePan(1,0)">
                  <use xlink:href="#rim" fill="#404040">
                        <set attributeName="fill" to="#808080" begin="arrowRight.mouseover" end="arrowRight.mouseout"/>
                  </use>
                  <path fill="none" stroke="white" stroke-width="1.5" d="M0,-3.0v7 M-2.5,-0.5L0,-3.0L2.5,-0.5"/>
                </g>
                <g id="arrowDown" xlink:href="#dirArrow" transform="rotate(180) translate(-30 -48)" onmousedown="handlePan(0,1)">
                  <use xlink:href="#rim" fill="#404040">
                        <set attributeName="fill" to="#808080" begin="arrowDown.mouseover" end="arrowDown.mouseout"/>
                  </use>
                  <path fill="none" stroke="white" stroke-width="1.5" d="M0,-3.0v7 M-2.5,-0.5L0,-3.0L2.5,-0.5"/>
                </g>
                <g id="arrowLeft" xlink:href="#dirArrow" transform="rotate(270) translate(-36 17)" onmousedown="handlePan(-1,0)">
                  <use xlink:href="#rim" fill="#404040">
                        <set attributeName="fill" to="#808080" begin="arrowLeft.mouseover" end="arrowLeft.mouseout"/>
                  </use>
                  <path fill="none" stroke="white" stroke-width="1.5" d="M0,-3.0v7 M-2.5,-0.5L0,-3.0L2.5,-0.5"/>
                </g>
        </g>
        <svg viewBox="0 0 15 15" width="100%" height="30px" preserveAspectRatio="xMaxYMin meet">
         <g id="arrow_out" transform="scale(0.3 0.3)">
          <a xlink:href="classACarlaRecorder_af793f21895a4fc136d9930f6623afd91_icgraph_org.svg" target="_base">
           <rect id="button" ry="5" rx="5" y="6" x="6" height="38" width="38"
                fill="#f2f5e9" fill-opacity="0.5" stroke="#606060" stroke-width="1.0"/>
           <path id="arrow"
             d="M 11.500037,31.436501 C 11.940474,20.09759 22.043105,11.32322 32.158766,21.979434 L 37.068811,17.246167 C 37.068811,17.246167 37.088388,32 37.088388,32 L 22.160133,31.978069 C 22.160133,31.978069 26.997745,27.140456 26.997745,27.140456 C 18.528582,18.264221 13.291696,25.230495 11.500037,31.436501 z"
             style="fill:#404040;"/>
          </a>
         </g>
        </svg>
</svg>
