<?xml version="1.0" encoding="UTF-8" standalone="no"?>
<!DOCTYPE svg PUBLIC "-//W3C//DTD SVG 1.1//EN"
 "http://www.w3.org/Graphics/SVG/1.1/DTD/svg11.dtd">
<!-- Generated by graphviz version 2.43.0 (0)
 -->
<!-- Title: ACarlaRecorder::AddExistingActors Pages: 1 -->
<!--zoomable 615 -->
<svg id="main" version="1.1" xmlns="http://www.w3.org/2000/svg" xmlns:xlink="http://www.w3.org/1999/xlink" xml:space="preserve" onload="init(evt)">
<style type="text/css"><![CDATA[
.edge:hover path { stroke: red; }
.edge:hover polygon { stroke: red; fill: red; }
]]></style>
<script type="text/javascript"><![CDATA[
var edges = document.getElementsByTagName('g');
if (edges && edges.length) {
  for (var i=0;i<edges.length;i++) {
    if (edges[i].id.substr(0,4)=='edge') {
      edges[i].setAttribute('class','edge');
    }
  }
}
]]></script>
        <defs>
                <circle id="rim" cx="0" cy="0" r="7"/>
                <circle id="rim2" cx="0" cy="0" r="3.5"/>
                <g id="zoomPlus">
                        <use xlink:href="#rim" fill="#404040">
                                <set attributeName="fill" to="#808080" begin="zoomplus.mouseover" end="zoomplus.mouseout"/>
                        </use>
                        <path d="M-4,0h8M0,-4v8" fill="none" stroke="white" stroke-width="1.5" pointer-events="none"/>
                </g>
                <g id="zoomMin">
                        <use xlink:href="#rim" fill="#404040">
                                <set attributeName="fill" to="#808080" begin="zoomminus.mouseover" end="zoomminus.mouseout"/>
                        </use>
                        <path d="M-4,0h8" fill="none" stroke="white" stroke-width="1.5" pointer-events="none"/>
                </g>
                <g id="dirArrow">
                        <path fill="none" stroke="white" stroke-width="1.5" d="M0,-3.0v7 M-2.5,-0.5L0,-3.0L2.5,-0.5"/>
                </g>
               <g id="resetDef">
                       <use xlink:href="#rim2" fill="#404040">
                               <set attributeName="fill" to="#808080" begin="reset.mouseover" end="reset.mouseout"/>
                       </use>
               </g>
        </defs>

<script type="text/javascript">
var viewWidth = 996;
var viewHeight = 615;
var sectionId = 'dynsection-31';
</script>
<script xlink:href="../../svgpan.js"/>
<svg id="graph" class="graph">
<g id="viewport">
<title>ACarlaRecorder::AddExistingActors</title>
<polygon fill="white" stroke="transparent" points="-4,4 -4,-610.5 992,-610.5 992,4 -4,4"/>
<!-- Node1 -->
<g id="node1" class="node">
<title>Node1</title>
<g id="a_node1"><a xlink:title=" ">
<polygon fill="#bfbfbf" stroke="black" points="0,-238.5 0,-268.5 156,-268.5 156,-238.5 0,-238.5"/>
<text text-anchor="start" x="8" y="-256.5" font-family="Helvetica,sans-Serif" font-size="10.00">ACarlaRecorder::AddExisting</text>
<text text-anchor="middle" x="78" y="-245.5" font-family="Helvetica,sans-Serif" font-size="10.00">Actors</text>
</a>
</g>
</g>
<!-- Node2 -->
<g id="node2" class="node">
<title>Node2</title>
<g id="a_node2"><a xlink:href="../../dd/db9/classACarlaRecorder.html#a66ece24dd7c2c338eddf2eb1c37f6398" target="_top" xlink:title=" ">
<polygon fill="white" stroke="black" points="206.5,-553.5 206.5,-583.5 351.5,-583.5 351.5,-553.5 206.5,-553.5"/>
<text text-anchor="start" x="214.5" y="-571.5" font-family="Helvetica,sans-Serif" font-size="10.00">ACarlaRecorder::AddEvent</text>
<text text-anchor="middle" x="279" y="-560.5" font-family="Helvetica,sans-Serif" font-size="10.00">LightSceneChanged</text>
</a>
</g>
</g>
<!-- Node1&#45;&gt;Node2 -->
<g id="edge1" class="edge">
<title>Node1&#45;&gt;Node2</title>
<path fill="none" stroke="midnightblue" d="M81.64,-268.5C90.08,-312.6 120.21,-443.66 192,-522.5 201.72,-533.18 214.52,-541.85 227.25,-548.66"/>
<polygon fill="midnightblue" stroke="midnightblue" points="225.96,-551.93 236.47,-553.3 229.11,-545.68 225.96,-551.93"/>
</g>
<!-- Node4 -->
<g id="node4" class="node">
<title>Node4</title>
<g id="a_node4"><a xlink:href="../../dd/db9/classACarlaRecorder.html#acdf4f82056d66973371c281304a3a154" target="_top" xlink:title=" ">
<polygon fill="white" stroke="black" points="192,-351.5 192,-381.5 366,-381.5 366,-351.5 192,-351.5"/>
<text text-anchor="start" x="200" y="-369.5" font-family="Helvetica,sans-Serif" font-size="10.00">ACarlaRecorder::CreateRecorder</text>
<text text-anchor="middle" x="279" y="-358.5" font-family="Helvetica,sans-Serif" font-size="10.00">EventAdd</text>
</a>
</g>
</g>
<!-- Node1&#45;&gt;Node4 -->
<g id="edge3" class="edge">
<title>Node1&#45;&gt;Node4</title>
<path fill="none" stroke="midnightblue" d="M96.29,-268.78C117.57,-286.95 155.38,-317.22 192,-336.5 200.02,-340.72 208.75,-344.55 217.48,-347.96"/>
<polygon fill="midnightblue" stroke="midnightblue" points="216.32,-351.27 226.92,-351.49 218.78,-344.71 216.32,-351.27"/>
</g>
<!-- Node8 -->
<g id="node8" class="node">
<title>Node8</title>
<g id="a_node8"><a xlink:href="../../dc/dde/classFCarlaActor.html#aca3d1a4bfcb5e0ae1974b7206933d665" target="_top" xlink:title=" ">
<polygon fill="white" stroke="black" points="635.5,-275 635.5,-294 766.5,-294 766.5,-275 635.5,-275"/>
<text text-anchor="middle" x="701" y="-282" font-family="Helvetica,sans-Serif" font-size="10.00">FCarlaActor::GetActorId</text>
</a>
</g>
</g>
<!-- Node1&#45;&gt;Node8 -->
<g id="edge38" class="edge">
<title>Node1&#45;&gt;Node8</title>
<path fill="none" stroke="midnightblue" d="M154.32,-268.52C219.54,-280.71 316.57,-296.93 402,-303.5 476.89,-309.26 496.09,-308.99 571,-303.5 592.73,-301.91 616.36,-298.83 637.38,-295.6"/>
<polygon fill="midnightblue" stroke="midnightblue" points="638.14,-299.03 647.47,-294.01 637.05,-292.11 638.14,-299.03"/>
</g>
<!-- Node9 -->
<g id="node9" class="node">
<title>Node9</title>
<g id="a_node9"><a xlink:href="../../dc/dde/classFCarlaActor.html#a242fc800c820c11808a55be4bff97fa2" target="_top" xlink:title=" ">
<polygon fill="white" stroke="black" points="630.5,-187 630.5,-206 771.5,-206 771.5,-187 630.5,-187"/>
<text text-anchor="middle" x="701" y="-194" font-family="Helvetica,sans-Serif" font-size="10.00">FCarlaActor::GetActorInfo</text>
</a>
</g>
</g>
<!-- Node1&#45;&gt;Node9 -->
<g id="edge39" class="edge">
<title>Node1&#45;&gt;Node9</title>
<path fill="none" stroke="midnightblue" d="M156.03,-239.45C221.28,-228.18 317.44,-213.03 402,-205.5 475.71,-198.93 560.04,-196.89 620.14,-196.37"/>
<polygon fill="midnightblue" stroke="midnightblue" points="620.34,-199.87 630.32,-196.3 620.29,-192.87 620.34,-199.87"/>
</g>
<!-- Node15 -->
<g id="node15" class="node">
<title>Node15</title>
<g id="a_node15"><a xlink:href="../../dc/d84/classUCarlaEpisode.html#a955ce4876accf63ea1a1df5fda70c31d" target="_top" xlink:title=" ">
<polygon fill="white" stroke="black" points="612.5,-499 612.5,-518 789.5,-518 789.5,-499 612.5,-499"/>
<text text-anchor="middle" x="701" y="-506" font-family="Helvetica,sans-Serif" font-size="10.00">UCarlaEpisode::GetActorRegistry</text>
</a>
</g>
</g>
<!-- Node1&#45;&gt;Node15 -->
<g id="edge40" class="edge">
<title>Node1&#45;&gt;Node15</title>
<path fill="none" stroke="midnightblue" d="M88.12,-268.65C105.38,-296.25 145.3,-355.21 192,-391.5 273.33,-454.7 302.21,-464 402,-489.5 467.4,-506.21 543.37,-510.84 602.24,-511.35"/>
<polygon fill="midnightblue" stroke="midnightblue" points="602.26,-514.85 612.28,-511.4 602.3,-507.85 602.26,-514.85"/>
</g>
<!-- Node24 -->
<g id="node24" class="node">
<title>Node24</title>
<g id="a_node24"><a xlink:href="../../dc/dde/classFCarlaActor.html#a850736f8ac70a32c1b5a1332783a7e9d" target="_top" xlink:title=" ">
<polygon fill="white" stroke="black" points="202,-126.5 202,-156.5 356,-156.5 356,-126.5 202,-126.5"/>
<text text-anchor="start" x="210" y="-144.5" font-family="Helvetica,sans-Serif" font-size="10.00">FCarlaActor::GetActorGlobal</text>
<text text-anchor="middle" x="279" y="-133.5" font-family="Helvetica,sans-Serif" font-size="10.00">Transform</text>
</a>
</g>
</g>
<!-- Node1&#45;&gt;Node24 -->
<g id="edge30" class="edge">
<title>Node1&#45;&gt;Node24</title>
<path fill="none" stroke="midnightblue" d="M96.33,-238.42C117.63,-220.49 155.48,-190.59 192,-171.5 200.03,-167.3 208.77,-163.48 217.5,-160.08"/>
<polygon fill="midnightblue" stroke="midnightblue" points="218.8,-163.33 226.94,-156.55 216.35,-156.78 218.8,-163.33"/>
</g>
<!-- Node31 -->
<g id="node31" class="node">
<title>Node31</title>
<g id="a_node31"><a xlink:href="../../dc/dde/classFCarlaActor.html#a31ab39eb2088af21d9c85c47424f56b4" target="_top" xlink:title=" ">
<polygon fill="white" stroke="black" points="206.5,-88 206.5,-107 351.5,-107 351.5,-88 206.5,-88"/>
<text text-anchor="middle" x="279" y="-95" font-family="Helvetica,sans-Serif" font-size="10.00">FCarlaActor::GetActorType</text>
</a>
</g>
</g>
<!-- Node1&#45;&gt;Node31 -->
<g id="edge41" class="edge">
<title>Node1&#45;&gt;Node31</title>
<path fill="none" stroke="midnightblue" d="M87,-238.5C102.96,-210.12 141.58,-148.62 192,-117.5 196.18,-114.92 200.67,-112.67 205.31,-110.71"/>
<polygon fill="midnightblue" stroke="midnightblue" points="206.88,-113.86 215.02,-107.08 204.43,-107.3 206.88,-113.86"/>
</g>
<!-- Node32 -->
<g id="node32" class="node">
<title>Node32</title>
<g id="a_node32"><a xlink:href="../../db/df0/classUCarlaLightSubsystem.html#a1ebb6a397199d247837fa7d926b85c91" target="_top" xlink:title=" ">
<polygon fill="white" stroke="black" points="215,-38.5 215,-68.5 343,-68.5 343,-38.5 215,-38.5"/>
<text text-anchor="start" x="223" y="-56.5" font-family="Helvetica,sans-Serif" font-size="10.00">UCarlaLightSubsystem</text>
<text text-anchor="middle" x="279" y="-45.5" font-family="Helvetica,sans-Serif" font-size="10.00">::GetLights</text>
</a>
</g>
</g>
<!-- Node1&#45;&gt;Node32 -->
<g id="edge42" class="edge">
<title>Node1&#45;&gt;Node32</title>
<path fill="none" stroke="midnightblue" d="M84.53,-238.24C97.65,-204.21 133.99,-121.71 192,-78.5 196.18,-75.39 200.74,-72.66 205.51,-70.27"/>
<polygon fill="midnightblue" stroke="midnightblue" points="207.18,-73.36 214.89,-66.09 204.33,-66.97 207.18,-73.36"/>
</g>
<!-- Node3 -->
<g id="node3" class="node">
<title>Node3</title>
<g id="a_node3"><a xlink:href="../../d0/d93/structCarlaRecorderLightScenes.html#ab4283d91f928d6776dfd8fb33ca3b97f" target="_top" xlink:title=" ">
<polygon fill="white" stroke="black" points="402,-575 402,-594 571,-594 571,-575 402,-575"/>
<text text-anchor="middle" x="486.5" y="-582" font-family="Helvetica,sans-Serif" font-size="10.00">CarlaRecorderLightScenes::Add</text>
</a>
</g>
</g>
<!-- Node2&#45;&gt;Node3 -->
<g id="edge2" class="edge">
<title>Node2&#45;&gt;Node3</title>
<path fill="none" stroke="midnightblue" d="M351.59,-574.07C364.51,-575.08 378.16,-576.14 391.6,-577.19"/>
<polygon fill="midnightblue" stroke="midnightblue" points="391.59,-580.7 401.83,-577.99 392.13,-573.72 391.59,-580.7"/>
</g>
<!-- Node5 -->
<g id="node5" class="node">
<title>Node5</title>
<g id="a_node5"><a xlink:href="../../dd/db9/classACarlaRecorder.html#a3cd13249c0427d5c5e0c93cedf4bbf02" target="_top" xlink:title=" ">
<polygon fill="white" stroke="black" points="415,-263.5 415,-293.5 558,-293.5 558,-263.5 415,-263.5"/>
<text text-anchor="start" x="423" y="-281.5" font-family="Helvetica,sans-Serif" font-size="10.00">ACarlaRecorder::AddActor</text>
<text text-anchor="middle" x="486.5" y="-270.5" font-family="Helvetica,sans-Serif" font-size="10.00">BoundingBox</text>
</a>
</g>
</g>
<!-- Node4&#45;&gt;Node5 -->
<g id="edge4" class="edge">
<title>Node4&#45;&gt;Node5</title>
<path fill="none" stroke="midnightblue" d="M315.33,-351.37C350.13,-336.47 403.42,-313.65 441.07,-297.52"/>
<polygon fill="midnightblue" stroke="midnightblue" points="442.48,-300.73 450.29,-293.58 439.72,-294.3 442.48,-300.73"/>
</g>
<!-- Node10 -->
<g id="node10" class="node">
<title>Node10</title>
<g id="a_node10"><a xlink:href="../../dd/db9/classACarlaRecorder.html#a2565ab46b0e9395dd1eec1922d7f0034" target="_top" xlink:title=" ">
<polygon fill="white" stroke="black" points="414,-537 414,-556 559,-556 559,-537 414,-537"/>
<text text-anchor="middle" x="486.5" y="-544" font-family="Helvetica,sans-Serif" font-size="10.00">ACarlaRecorder::AddEvent</text>
</a>
</g>
</g>
<!-- Node4&#45;&gt;Node10 -->
<g id="edge9" class="edge">
<title>Node4&#45;&gt;Node10</title>
<path fill="none" stroke="midnightblue" d="M293.43,-381.81C315.05,-406.04 359.47,-454.09 402,-489.5 420.67,-505.04 443.55,-520.43 460.64,-531.3"/>
<polygon fill="midnightblue" stroke="midnightblue" points="459.14,-534.49 469.47,-536.84 462.86,-528.56 459.14,-534.49"/>
</g>
<!-- Node12 -->
<g id="node12" class="node">
<title>Node12</title>
<g id="a_node12"><a xlink:href="../../dd/db9/classACarlaRecorder.html#aaa310b858bbaa182543f144abe58e938" target="_top" xlink:title=" ">
<polygon fill="white" stroke="black" points="409.5,-351.5 409.5,-381.5 563.5,-381.5 563.5,-351.5 409.5,-351.5"/>
<text text-anchor="start" x="417.5" y="-369.5" font-family="Helvetica,sans-Serif" font-size="10.00">ACarlaRecorder::AddPhysics</text>
<text text-anchor="middle" x="486.5" y="-358.5" font-family="Helvetica,sans-Serif" font-size="10.00">Control</text>
</a>
</g>
</g>
<!-- Node4&#45;&gt;Node12 -->
<g id="edge11" class="edge">
<title>Node4&#45;&gt;Node12</title>
<path fill="none" stroke="midnightblue" d="M366.26,-366.5C377.08,-366.5 388.15,-366.5 398.97,-366.5"/>
<polygon fill="midnightblue" stroke="midnightblue" points="399.26,-370 409.26,-366.5 399.26,-363 399.26,-370"/>
</g>
<!-- Node16 -->
<g id="node16" class="node">
<title>Node16</title>
<g id="a_node16"><a xlink:href="../../dd/db9/classACarlaRecorder.html#abf4346e0cd9a3514c4a14c136bcb4058" target="_top" xlink:title=" ">
<polygon fill="white" stroke="black" points="413.5,-449.5 413.5,-479.5 559.5,-479.5 559.5,-449.5 413.5,-449.5"/>
<text text-anchor="start" x="421.5" y="-467.5" font-family="Helvetica,sans-Serif" font-size="10.00">ACarlaRecorder::AddTraffic</text>
<text text-anchor="middle" x="486.5" y="-456.5" font-family="Helvetica,sans-Serif" font-size="10.00">LightTime</text>
</a>
</g>
</g>
<!-- Node4&#45;&gt;Node16 -->
<g id="edge16" class="edge">
<title>Node4&#45;&gt;Node16</title>
<path fill="none" stroke="midnightblue" d="M301.09,-381.69C324.7,-398.11 364.56,-424.11 402,-440.5 406.63,-442.53 411.48,-444.43 416.41,-446.22"/>
<polygon fill="midnightblue" stroke="midnightblue" points="415.37,-449.56 425.96,-449.5 417.64,-442.94 415.37,-449.56"/>
</g>
<!-- Node18 -->
<g id="node18" class="node">
<title>Node18</title>
<g id="a_node18"><a xlink:href="../../dd/db9/classACarlaRecorder.html#a439f1a30a4599beede582f9a0297d7d0" target="_top" xlink:title=" ">
<polygon fill="white" stroke="black" points="411.5,-400.5 411.5,-430.5 561.5,-430.5 561.5,-400.5 411.5,-400.5"/>
<text text-anchor="start" x="419.5" y="-418.5" font-family="Helvetica,sans-Serif" font-size="10.00">ACarlaRecorder::AddTrigger</text>
<text text-anchor="middle" x="486.5" y="-407.5" font-family="Helvetica,sans-Serif" font-size="10.00">Volume</text>
</a>
</g>
</g>
<!-- Node4&#45;&gt;Node18 -->
<g id="edge21" class="edge">
<title>Node4&#45;&gt;Node18</title>
<path fill="none" stroke="midnightblue" d="M343.05,-381.53C365.05,-386.78 389.91,-392.71 412.63,-398.13"/>
<polygon fill="midnightblue" stroke="midnightblue" points="412.03,-401.58 422.57,-400.49 413.65,-394.77 412.03,-401.58"/>
</g>
<!-- Node22 -->
<g id="node22" class="node">
<title>Node22</title>
<g id="a_node22"><a xlink:href="../../dc/d84/classUCarlaEpisode.html#ab9fba66eeaed2e229ed69571dff6a976" target="_top" xlink:title="Find a Carla actor by id.">
<polygon fill="white" stroke="black" points="416.5,-214.5 416.5,-244.5 556.5,-244.5 556.5,-214.5 416.5,-214.5"/>
<text text-anchor="start" x="424.5" y="-232.5" font-family="Helvetica,sans-Serif" font-size="10.00">UCarlaEpisode::FindCarla</text>
<text text-anchor="middle" x="486.5" y="-221.5" font-family="Helvetica,sans-Serif" font-size="10.00">Actor</text>
</a>
</g>
</g>
<!-- Node4&#45;&gt;Node22 -->
<g id="edge28" class="edge">
<title>Node4&#45;&gt;Node22</title>
<path fill="none" stroke="midnightblue" d="M292.28,-351.5C312.64,-327.57 355.75,-280.78 402,-254.5 405.88,-252.3 409.97,-250.27 414.18,-248.4"/>
<polygon fill="midnightblue" stroke="midnightblue" points="415.6,-251.61 423.53,-244.58 412.95,-245.13 415.6,-251.61"/>
</g>
<!-- Node23 -->
<g id="node23" class="node">
<title>Node23</title>
<g id="a_node23"><a xlink:href="../../dc/dde/classFCarlaActor.html#a06464d85c473682256871464d9bf7658" target="_top" xlink:title=" ">
<polygon fill="white" stroke="black" points="425.5,-138 425.5,-157 547.5,-157 547.5,-138 425.5,-138"/>
<text text-anchor="middle" x="486.5" y="-145" font-family="Helvetica,sans-Serif" font-size="10.00">FCarlaActor::GetActor</text>
</a>
</g>
</g>
<!-- Node4&#45;&gt;Node23 -->
<g id="edge29" class="edge">
<title>Node4&#45;&gt;Node23</title>
<path fill="none" stroke="midnightblue" d="M289.07,-351.5C307.7,-321.48 352.65,-252.85 402,-205.5 419.52,-188.69 442.31,-173.21 459.66,-162.47"/>
<polygon fill="midnightblue" stroke="midnightblue" points="461.92,-165.19 468.67,-157.02 458.3,-159.2 461.92,-165.19"/>
</g>
<!-- Node6 -->
<g id="node6" class="node">
<title>Node6</title>
<g id="a_node6"><a xlink:href="../../dd/db9/classACarlaRecorder.html#ad5038981aedd911c87ed0110dedebf1f" target="_top" xlink:title=" ">
<polygon fill="white" stroke="black" points="610,-237 610,-256 792,-256 792,-237 610,-237"/>
<text text-anchor="middle" x="701" y="-244" font-family="Helvetica,sans-Serif" font-size="10.00">ACarlaRecorder::AddBoundingBox</text>
</a>
</g>
</g>
<!-- Node5&#45;&gt;Node6 -->
<g id="edge5" class="edge">
<title>Node5&#45;&gt;Node6</title>
<path fill="none" stroke="midnightblue" d="M558.26,-267.84C580.25,-264.53 604.52,-260.88 626.68,-257.54"/>
<polygon fill="midnightblue" stroke="midnightblue" points="627.33,-260.98 636.7,-256.03 626.29,-254.06 627.33,-260.98"/>
</g>
<!-- Node5&#45;&gt;Node8 -->
<g id="edge7" class="edge">
<title>Node5&#45;&gt;Node8</title>
<path fill="none" stroke="midnightblue" d="M558.26,-280.5C579.73,-281.1 603.39,-281.77 625.12,-282.39"/>
<polygon fill="midnightblue" stroke="midnightblue" points="625.19,-285.89 635.28,-282.67 625.39,-278.89 625.19,-285.89"/>
</g>
<!-- Node5&#45;&gt;Node9 -->
<g id="edge8" class="edge">
<title>Node5&#45;&gt;Node9</title>
<path fill="none" stroke="midnightblue" d="M549.57,-263.42C556.95,-260.82 564.25,-257.86 571,-254.5 588.91,-245.59 589.28,-236.78 607,-227.5 621.22,-220.05 637.59,-213.88 652.59,-209.06"/>
<polygon fill="midnightblue" stroke="midnightblue" points="653.7,-212.38 662.22,-206.09 651.63,-205.69 653.7,-212.38"/>
</g>
<!-- Node7 -->
<g id="node7" class="node">
<title>Node7</title>
<g id="a_node7"><a xlink:href="../../d1/d74/classCarlaRecorderActorBoundingBoxes.html#a883727e9688d402abd55d900ef1bc1e9" target="_top" xlink:title=" ">
<polygon fill="white" stroke="black" points="831,-231.5 831,-261.5 988,-261.5 988,-231.5 831,-231.5"/>
<text text-anchor="start" x="839" y="-249.5" font-family="Helvetica,sans-Serif" font-size="10.00">CarlaRecorderActorBounding</text>
<text text-anchor="middle" x="909.5" y="-238.5" font-family="Helvetica,sans-Serif" font-size="10.00">Boxes::Add</text>
</a>
</g>
</g>
<!-- Node6&#45;&gt;Node7 -->
<g id="edge6" class="edge">
<title>Node6&#45;&gt;Node7</title>
<path fill="none" stroke="midnightblue" d="M792.27,-246.5C801.68,-246.5 811.23,-246.5 820.61,-246.5"/>
<polygon fill="midnightblue" stroke="midnightblue" points="820.7,-250 830.7,-246.5 820.7,-243 820.7,-250"/>
</g>
<!-- Node11 -->
<g id="node11" class="node">
<title>Node11</title>
<g id="a_node11"><a xlink:href="../../dd/dd4/classCarlaRecorderEventsAdd.html#a17e9f29ed1774b7cdde873ba76f72a13" target="_top" xlink:title=" ">
<polygon fill="white" stroke="black" points="620,-587 620,-606 782,-606 782,-587 620,-587"/>
<text text-anchor="middle" x="701" y="-594" font-family="Helvetica,sans-Serif" font-size="10.00">CarlaRecorderEventsAdd::Add</text>
</a>
</g>
</g>
<!-- Node10&#45;&gt;Node11 -->
<g id="edge10" class="edge">
<title>Node10&#45;&gt;Node11</title>
<path fill="none" stroke="midnightblue" d="M533.21,-556.05C545.54,-558.86 558.83,-562.1 571,-565.5 587.24,-570.04 590.71,-573.14 607,-577.5 616.89,-580.15 627.46,-582.63 637.8,-584.87"/>
<polygon fill="midnightblue" stroke="midnightblue" points="637.1,-588.3 647.6,-586.94 638.54,-581.45 637.1,-588.3"/>
</g>
<!-- Node12&#45;&gt;Node8 -->
<g id="edge14" class="edge">
<title>Node12&#45;&gt;Node8</title>
<path fill="none" stroke="midnightblue" d="M539.75,-351.34C550.45,-347.25 561.38,-342.31 571,-336.5 589.58,-325.28 587.67,-313.36 607,-303.5 612.92,-300.48 619.28,-297.94 625.79,-295.81"/>
<polygon fill="midnightblue" stroke="midnightblue" points="626.82,-299.15 635.42,-292.96 624.84,-292.44 626.82,-299.15"/>
</g>
<!-- Node13 -->
<g id="node13" class="node">
<title>Node13</title>
<g id="a_node13"><a xlink:href="../../dd/dd1/classCarlaRecorderPhysicsControls.html#a82746bb4c8ca4742aac3e90c85aa7ae2" target="_top" xlink:title=" ">
<polygon fill="white" stroke="black" points="607,-313 607,-332 795,-332 795,-313 607,-313"/>
<text text-anchor="middle" x="701" y="-320" font-family="Helvetica,sans-Serif" font-size="10.00">CarlaRecorderPhysicsControls::Add</text>
</a>
</g>
</g>
<!-- Node12&#45;&gt;Node13 -->
<g id="edge12" class="edge">
<title>Node12&#45;&gt;Node13</title>
<path fill="none" stroke="midnightblue" d="M560.04,-351.48C587.53,-345.79 618.38,-339.4 644.1,-334.07"/>
<polygon fill="midnightblue" stroke="midnightblue" points="644.98,-337.47 654.06,-332.01 643.56,-330.61 644.98,-337.47"/>
</g>
<!-- Node14 -->
<g id="node14" class="node">
<title>Node14</title>
<g id="a_node14"><a xlink:href="../../df/db5/classFActorRegistry.html#a167889de345ae2da68d5e9fcc08f58f7" target="_top" xlink:title=" ">
<polygon fill="white" stroke="black" points="632,-351.5 632,-381.5 770,-381.5 770,-351.5 632,-351.5"/>
<text text-anchor="start" x="640" y="-369.5" font-family="Helvetica,sans-Serif" font-size="10.00">FActorRegistry::FindCarla</text>
<text text-anchor="middle" x="701" y="-358.5" font-family="Helvetica,sans-Serif" font-size="10.00">Actor</text>
</a>
</g>
</g>
<!-- Node12&#45;&gt;Node14 -->
<g id="edge13" class="edge">
<title>Node12&#45;&gt;Node14</title>
<path fill="none" stroke="midnightblue" d="M563.62,-366.5C582.49,-366.5 602.76,-366.5 621.73,-366.5"/>
<polygon fill="midnightblue" stroke="midnightblue" points="621.83,-370 631.83,-366.5 621.83,-363 621.83,-370"/>
</g>
<!-- Node12&#45;&gt;Node15 -->
<g id="edge15" class="edge">
<title>Node12&#45;&gt;Node15</title>
<path fill="none" stroke="midnightblue" d="M557.32,-381.66C562.28,-384.41 566.92,-387.66 571,-391.5 604.8,-423.29 571.82,-459.25 607,-489.5 608.78,-491.03 610.64,-492.44 612.58,-493.76"/>
<polygon fill="midnightblue" stroke="midnightblue" points="611.1,-496.94 621.52,-498.88 614.58,-490.87 611.1,-496.94"/>
</g>
<!-- Node16&#45;&gt;Node8 -->
<g id="edge19" class="edge">
<title>Node16&#45;&gt;Node8</title>
<path fill="none" stroke="midnightblue" d="M559.66,-449.46C563.79,-446.92 567.63,-443.95 571,-440.5 615,-395.48 561.27,-346.77 607,-303.5 612.43,-298.36 618.86,-294.45 625.76,-291.49"/>
<polygon fill="midnightblue" stroke="midnightblue" points="627.19,-294.69 635.41,-288.01 624.82,-288.1 627.19,-294.69"/>
</g>
<!-- Node16&#45;&gt;Node14 -->
<g id="edge18" class="edge">
<title>Node16&#45;&gt;Node14</title>
<path fill="none" stroke="midnightblue" d="M554.95,-449.44C560.61,-446.91 566.05,-443.95 571,-440.5 593.17,-425.05 584.69,-406.76 607,-391.5 611.66,-388.31 616.7,-385.53 621.95,-383.11"/>
<polygon fill="midnightblue" stroke="midnightblue" points="623.69,-386.18 631.59,-379.11 621.01,-379.71 623.69,-386.18"/>
</g>
<!-- Node16&#45;&gt;Node15 -->
<g id="edge20" class="edge">
<title>Node16&#45;&gt;Node15</title>
<path fill="none" stroke="midnightblue" d="M559.21,-479.56C574.95,-482.85 591.54,-486.3 607,-489.5 618.73,-491.92 631.29,-494.5 643.26,-496.95"/>
<polygon fill="midnightblue" stroke="midnightblue" points="642.66,-500.4 653.16,-498.97 644.06,-493.54 642.66,-500.4"/>
</g>
<!-- Node17 -->
<g id="node17" class="node">
<title>Node17</title>
<g id="a_node17"><a xlink:href="../../dc/d3e/classCarlaRecorderTrafficLightTimes.html#a28f2471efea1664c8398b2e067666321" target="_top" xlink:title=" ">
<polygon fill="white" stroke="black" points="631.5,-537.5 631.5,-567.5 770.5,-567.5 770.5,-537.5 631.5,-537.5"/>
<text text-anchor="start" x="639.5" y="-555.5" font-family="Helvetica,sans-Serif" font-size="10.00">CarlaRecorderTrafficLight</text>
<text text-anchor="middle" x="701" y="-544.5" font-family="Helvetica,sans-Serif" font-size="10.00">Times::Add</text>
</a>
</g>
</g>
<!-- Node16&#45;&gt;Node17 -->
<g id="edge17" class="edge">
<title>Node16&#45;&gt;Node17</title>
<path fill="none" stroke="midnightblue" d="M512.37,-479.71C536.02,-493.67 572.94,-514.14 607,-527.5 613.27,-529.96 619.88,-532.27 626.55,-534.41"/>
<polygon fill="midnightblue" stroke="midnightblue" points="625.77,-537.83 636.35,-537.42 627.82,-531.14 625.77,-537.83"/>
</g>
<!-- Node18&#45;&gt;Node8 -->
<g id="edge24" class="edge">
<title>Node18&#45;&gt;Node8</title>
<path fill="none" stroke="midnightblue" d="M558.36,-400.38C562.91,-397.86 567.18,-394.92 571,-391.5 602.46,-363.28 574.46,-330.46 607,-303.5 612.58,-298.87 618.99,-295.28 625.78,-292.49"/>
<polygon fill="midnightblue" stroke="midnightblue" points="626.96,-295.79 635.23,-289.17 624.64,-289.18 626.96,-295.79"/>
</g>
<!-- Node18&#45;&gt;Node14 -->
<g id="edge23" class="edge">
<title>Node18&#45;&gt;Node14</title>
<path fill="none" stroke="midnightblue" d="M552.7,-400.47C575.55,-395.2 601.38,-389.24 624.97,-383.8"/>
<polygon fill="midnightblue" stroke="midnightblue" points="625.96,-387.16 634.92,-381.51 624.39,-380.34 625.96,-387.16"/>
</g>
<!-- Node18&#45;&gt;Node15 -->
<g id="edge25" class="edge">
<title>Node18&#45;&gt;Node15</title>
<path fill="none" stroke="midnightblue" d="M553.25,-430.65C559.52,-433.41 565.56,-436.66 571,-440.5 593.09,-456.07 584.24,-474.93 607,-489.5 610.17,-491.53 613.52,-493.35 616.98,-494.98"/>
<polygon fill="midnightblue" stroke="midnightblue" points="615.81,-498.28 626.39,-498.86 618.48,-491.81 615.81,-498.28"/>
</g>
<!-- Node19 -->
<g id="node19" class="node">
<title>Node19</title>
<g id="a_node19"><a xlink:href="../../d8/d4c/classCarlaRecorderActorTriggerVolumes.html#ac8c759f0255da8cda4d5841bde3cf6f5" target="_top" xlink:title=" ">
<polygon fill="white" stroke="black" points="629,-449.5 629,-479.5 773,-479.5 773,-449.5 629,-449.5"/>
<text text-anchor="start" x="637" y="-467.5" font-family="Helvetica,sans-Serif" font-size="10.00">CarlaRecorderActorTrigger</text>
<text text-anchor="middle" x="701" y="-456.5" font-family="Helvetica,sans-Serif" font-size="10.00">Volumes::Add</text>
</a>
</g>
</g>
<!-- Node18&#45;&gt;Node19 -->
<g id="edge22" class="edge">
<title>Node18&#45;&gt;Node19</title>
<path fill="none" stroke="midnightblue" d="M552.7,-430.53C575.55,-435.8 601.38,-441.76 624.97,-447.2"/>
<polygon fill="midnightblue" stroke="midnightblue" points="624.39,-450.66 634.92,-449.49 625.96,-443.84 624.39,-450.66"/>
</g>
<!-- Node20 -->
<g id="node20" class="node">
<title>Node20</title>
<g id="a_node20"><a xlink:href="../../d3/df1/classATrafficSignBase.html#ac7af9e9ced8778fcd2dcec8ade87d90e" target="_top" xlink:title=" ">
<polygon fill="white" stroke="black" points="624.5,-400.5 624.5,-430.5 777.5,-430.5 777.5,-400.5 624.5,-400.5"/>
<text text-anchor="start" x="632.5" y="-418.5" font-family="Helvetica,sans-Serif" font-size="10.00">ATrafficSignBase::GetTrigger</text>
<text text-anchor="middle" x="701" y="-407.5" font-family="Helvetica,sans-Serif" font-size="10.00">Volumes</text>
</a>
</g>
</g>
<!-- Node18&#45;&gt;Node20 -->
<g id="edge26" class="edge">
<title>Node18&#45;&gt;Node20</title>
<path fill="none" stroke="midnightblue" d="M561.52,-415.5C578.55,-415.5 596.79,-415.5 614.26,-415.5"/>
<polygon fill="midnightblue" stroke="midnightblue" points="614.44,-419 624.44,-415.5 614.44,-412 614.44,-419"/>
</g>
<!-- Node21 -->
<g id="node21" class="node">
<title>Node21</title>
<g id="a_node21"><a xlink:href="../../d3/df1/classATrafficSignBase.html#a14d8f093efa06c393ba778bce741fd97" target="_top" xlink:title=" ">
<polygon fill="white" stroke="black" points="833,-400.5 833,-430.5 986,-430.5 986,-400.5 833,-400.5"/>
<text text-anchor="start" x="841" y="-418.5" font-family="Helvetica,sans-Serif" font-size="10.00">ATrafficSignBase::GetTrigger</text>
<text text-anchor="middle" x="909.5" y="-407.5" font-family="Helvetica,sans-Serif" font-size="10.00">Volume</text>
</a>
</g>
</g>
<!-- Node20&#45;&gt;Node21 -->
<g id="edge27" class="edge">
<title>Node20&#45;&gt;Node21</title>
<path fill="none" stroke="midnightblue" d="M777.72,-415.5C792.31,-415.5 807.69,-415.5 822.58,-415.5"/>
<polygon fill="midnightblue" stroke="midnightblue" points="822.79,-419 832.79,-415.5 822.79,-412 822.79,-419"/>
</g>
<!-- Node24&#45;&gt;Node23 -->
<g id="edge31" class="edge">
<title>Node24&#45;&gt;Node23</title>
<path fill="none" stroke="midnightblue" d="M356.23,-143.73C375.59,-144.29 396.31,-144.9 415.35,-145.45"/>
<polygon fill="midnightblue" stroke="midnightblue" points="415.35,-148.95 425.44,-145.75 415.55,-141.96 415.35,-148.95"/>
</g>
<!-- Node25 -->
<g id="node25" class="node">
<title>Node25</title>
<g id="a_node25"><a xlink:href="../../d7/d1e/classUCarlaStatics.html#a8137f56360aa59de44591fce99608dc4" target="_top" xlink:title=" ">
<polygon fill="white" stroke="black" points="409.5,-88.5 409.5,-118.5 563.5,-118.5 563.5,-88.5 409.5,-88.5"/>
<text text-anchor="start" x="417.5" y="-106.5" font-family="Helvetica,sans-Serif" font-size="10.00">UCarlaStatics::GetLargeMap</text>
<text text-anchor="middle" x="486.5" y="-95.5" font-family="Helvetica,sans-Serif" font-size="10.00">Manager</text>
</a>
</g>
</g>
<!-- Node24&#45;&gt;Node25 -->
<g id="edge32" class="edge">
<title>Node24&#45;&gt;Node25</title>
<path fill="none" stroke="midnightblue" d="M356.23,-127.4C370.34,-124.8 385.16,-122.05 399.53,-119.4"/>
<polygon fill="midnightblue" stroke="midnightblue" points="400.2,-122.83 409.39,-117.57 398.92,-115.95 400.2,-122.83"/>
</g>
<!-- Node28 -->
<g id="node28" class="node">
<title>Node28</title>
<g id="a_node28"><a xlink:href="../../dc/dde/classFCarlaActor.html#a49f76353c69e02542858ed2cf6eeb000" target="_top" xlink:title=" ">
<polygon fill="white" stroke="black" points="421,-50 421,-69 552,-69 552,-50 421,-50"/>
<text text-anchor="middle" x="486.5" y="-57" font-family="Helvetica,sans-Serif" font-size="10.00">FCarlaActor::IsDormant</text>
</a>
</g>
</g>
<!-- Node24&#45;&gt;Node28 -->
<g id="edge35" class="edge">
<title>Node24&#45;&gt;Node28</title>
<path fill="none" stroke="midnightblue" d="M345.39,-126.42C352.58,-123.62 359.6,-120.34 366,-116.5 385.67,-104.68 382.06,-90.84 402,-79.5 406.78,-76.78 411.91,-74.43 417.2,-72.4"/>
<polygon fill="midnightblue" stroke="midnightblue" points="418.53,-75.65 426.84,-69.08 416.25,-69.03 418.53,-75.65"/>
</g>
<!-- Node29 -->
<g id="node29" class="node">
<title>Node29</title>
<g id="a_node29"><a xlink:href="../../d9/d4b/classALargeMapManager.html#a6b89f53b4415151abe996440e008475d" target="_top" xlink:title=" ">
<polygon fill="white" stroke="black" points="408.5,-0.5 408.5,-30.5 564.5,-30.5 564.5,-0.5 408.5,-0.5"/>
<text text-anchor="start" x="416.5" y="-18.5" font-family="Helvetica,sans-Serif" font-size="10.00">ALargeMapManager::LocalTo</text>
<text text-anchor="middle" x="486.5" y="-7.5" font-family="Helvetica,sans-Serif" font-size="10.00">GlobalTransform</text>
</a>
</g>
</g>
<!-- Node24&#45;&gt;Node29 -->
<g id="edge36" class="edge">
<title>Node24&#45;&gt;Node29</title>
<path fill="none" stroke="midnightblue" d="M351.09,-126.33C356.45,-123.58 361.5,-120.33 366,-116.5 394.45,-92.26 373.65,-64.85 402,-40.5 403.96,-38.82 406.03,-37.25 408.18,-35.78"/>
<polygon fill="midnightblue" stroke="midnightblue" points="410.05,-38.75 416.87,-30.65 406.48,-32.72 410.05,-38.75"/>
</g>
<!-- Node26 -->
<g id="node26" class="node">
<title>Node26</title>
<g id="a_node26"><a xlink:href="../../d7/d1e/classUCarlaStatics.html#acf94832c60579b6d161b66447719efbc" target="_top" xlink:title=" ">
<polygon fill="white" stroke="black" points="620,-116 620,-135 782,-135 782,-116 620,-116"/>
<text text-anchor="middle" x="701" y="-123" font-family="Helvetica,sans-Serif" font-size="10.00">UCarlaStatics::GetGameMode</text>
</a>
</g>
</g>
<!-- Node25&#45;&gt;Node26 -->
<g id="edge33" class="edge">
<title>Node25&#45;&gt;Node26</title>
<path fill="none" stroke="midnightblue" d="M563.62,-111.38C578.56,-112.93 594.38,-114.57 609.74,-116.16"/>
<polygon fill="midnightblue" stroke="midnightblue" points="609.44,-119.64 619.75,-117.19 610.16,-112.68 609.44,-119.64"/>
</g>
<!-- Node27 -->
<g id="node27" class="node">
<title>Node27</title>
<g id="a_node27"><a xlink:href="../../db/de5/classACarlaGameModeBase.html#a2e9488174537325bee694aed153d6001" target="_top" xlink:title=" ">
<polygon fill="white" stroke="black" points="636.5,-66.5 636.5,-96.5 765.5,-96.5 765.5,-66.5 636.5,-66.5"/>
<text text-anchor="start" x="644.5" y="-84.5" font-family="Helvetica,sans-Serif" font-size="10.00">ACarlaGameModeBase</text>
<text text-anchor="middle" x="701" y="-73.5" font-family="Helvetica,sans-Serif" font-size="10.00">::GetLMManager</text>
</a>
</g>
</g>
<!-- Node25&#45;&gt;Node27 -->
<g id="edge34" class="edge">
<title>Node25&#45;&gt;Node27</title>
<path fill="none" stroke="midnightblue" d="M563.62,-95.62C583.99,-93.51 605.98,-91.23 626.23,-89.14"/>
<polygon fill="midnightblue" stroke="midnightblue" points="626.74,-92.6 636.32,-88.09 626.02,-85.64 626.74,-92.6"/>
</g>
<!-- Node30 -->
<g id="node30" class="node">
<title>Node30</title>
<g id="a_node30"><a xlink:href="../../de/d7a/structFDVector.html#afcef01413fad4ebae06ee468bee88a9c" target="_top" xlink:title=" ">
<polygon fill="white" stroke="black" points="644,-6 644,-25 758,-25 758,-6 644,-6"/>
<text text-anchor="middle" x="701" y="-13" font-family="Helvetica,sans-Serif" font-size="10.00">FDVector::ToFVector</text>
</a>
</g>
</g>
<!-- Node29&#45;&gt;Node30 -->
<g id="edge37" class="edge">
<title>Node29&#45;&gt;Node30</title>
<path fill="none" stroke="midnightblue" d="M564.52,-15.5C587.18,-15.5 611.76,-15.5 633.69,-15.5"/>
<polygon fill="midnightblue" stroke="midnightblue" points="633.89,-19 643.89,-15.5 633.89,-12 633.89,-19"/>
</g>
</g>
</svg>
        <g id="navigator" transform="translate(0 0)" fill="#404254">
                <rect fill="#f2f5e9" fill-opacity="0.5" stroke="#606060" stroke-width=".5" x="0" y="0" width="60" height="60"/>
                <use id="zoomplus" xlink:href="#zoomPlus" x="17" y="9" onmousedown="handleZoom(evt,'in')"/>
                <use id="zoomminus" xlink:href="#zoomMin" x="42" y="9" onmousedown="handleZoom(evt,'out')"/>
                <use id="reset" xlink:href="#resetDef" x="30" y="36" onmousedown="handleReset()"/>
                <g id="arrowUp" xlink:href="#dirArrow" transform="translate(30 24)" onmousedown="handlePan(0,-1)">
                  <use xlink:href="#rim" fill="#404040">
                        <set attributeName="fill" to="#808080" begin="arrowUp.mouseover" end="arrowUp.mouseout"/>
                  </use>
                  <path fill="none" stroke="white" stroke-width="1.5" d="M0,-3.0v7 M-2.5,-0.5L0,-3.0L2.5,-0.5"/>
                </g>
                <g id="arrowRight" xlink:href="#dirArrow" transform="rotate(90) translate(36 -43)" onmousedown="handlePan(1,0)">
                  <use xlink:href="#rim" fill="#404040">
                        <set attributeName="fill" to="#808080" begin="arrowRight.mouseover" end="arrowRight.mouseout"/>
                  </use>
                  <path fill="none" stroke="white" stroke-width="1.5" d="M0,-3.0v7 M-2.5,-0.5L0,-3.0L2.5,-0.5"/>
                </g>
                <g id="arrowDown" xlink:href="#dirArrow" transform="rotate(180) translate(-30 -48)" onmousedown="handlePan(0,1)">
                  <use xlink:href="#rim" fill="#404040">
                        <set attributeName="fill" to="#808080" begin="arrowDown.mouseover" end="arrowDown.mouseout"/>
                  </use>
                  <path fill="none" stroke="white" stroke-width="1.5" d="M0,-3.0v7 M-2.5,-0.5L0,-3.0L2.5,-0.5"/>
                </g>
                <g id="arrowLeft" xlink:href="#dirArrow" transform="rotate(270) translate(-36 17)" onmousedown="handlePan(-1,0)">
                  <use xlink:href="#rim" fill="#404040">
                        <set attributeName="fill" to="#808080" begin="arrowLeft.mouseover" end="arrowLeft.mouseout"/>
                  </use>
                  <path fill="none" stroke="white" stroke-width="1.5" d="M0,-3.0v7 M-2.5,-0.5L0,-3.0L2.5,-0.5"/>
                </g>
        </g>
        <svg viewBox="0 0 15 15" width="100%" height="30px" preserveAspectRatio="xMaxYMin meet">
         <g id="arrow_out" transform="scale(0.3 0.3)">
          <a xlink:href="classACarlaRecorder_a820569404a522e28f6c4d3d638712214_cgraph_org.svg" target="_base">
           <rect id="button" ry="5" rx="5" y="6" x="6" height="38" width="38"
                fill="#f2f5e9" fill-opacity="0.5" stroke="#606060" stroke-width="1.0"/>
           <path id="arrow"
             d="M 11.500037,31.436501 C 11.940474,20.09759 22.043105,11.32322 32.158766,21.979434 L 37.068811,17.246167 C 37.068811,17.246167 37.088388,32 37.088388,32 L 22.160133,31.978069 C 22.160133,31.978069 26.997745,27.140456 26.997745,27.140456 C 18.528582,18.264221 13.291696,25.230495 11.500037,31.436501 z"
             style="fill:#404040;"/>
          </a>
         </g>
        </svg>
</svg>
