<?xml version="1.0" encoding="UTF-8" standalone="no"?>
<!DOCTYPE svg PUBLIC "-//W3C//DTD SVG 1.1//EN"
 "http://www.w3.org/Graphics/SVG/1.1/DTD/svg11.dtd">
<!-- Generated by graphviz version 2.40.1 (20161225.0304)
 -->
<!-- Title: carla::ros2::CarlaDepthCameraPublisher Pages: 1 -->
<svg width="577pt" height="171pt"
 viewBox="0.00 0.00 577.00 171.00" xmlns="http://www.w3.org/2000/svg" xmlns:xlink="http://www.w3.org/1999/xlink">
<g id="graph0" class="graph" transform="scale(1 1) rotate(0) translate(4 167)">
<title>carla::ros2::CarlaDepthCameraPublisher</title>
<polygon fill="#ffffff" stroke="transparent" points="-4,4 -4,-167 573,-167 573,4 -4,4"/>
<!-- Node2 -->
<g id="node1" class="node">
<title>Node2</title>
<polygon fill="#bfbfbf" stroke="#000000" points="402,-66 402,-96 569,-96 569,-66 402,-66"/>
<text text-anchor="start" x="410" y="-84" font-family="Helvetica,sans-Serif" font-size="10.00" fill="#000000">carla::ros2::CarlaDepthCamera</text>
<text text-anchor="middle" x="485.5" y="-73" font-family="Helvetica,sans-Serif" font-size="10.00" fill="#000000">Publisher</text>
</g>
<!-- Node3 -->
<g id="node2" class="node">
<title>Node3</title>
<g id="a_node2"><a xlink:href="../../d8/d02/classcarla_1_1ros2_1_1CarlaPublisher.html" target="_top" xlink:title="carla::ros2::CarlaPublisher">
<polygon fill="#ffffff" stroke="#000000" points="148,-120.5 148,-139.5 292,-139.5 292,-120.5 148,-120.5"/>
<text text-anchor="middle" x="220" y="-127.5" font-family="Helvetica,sans-Serif" font-size="10.00" fill="#000000">carla::ros2::CarlaPublisher</text>
</a>
</g>
</g>
<!-- Node3&#45;&gt;Node2 -->
<g id="edge1" class="edge">
<title>Node3&#45;&gt;Node2</title>
<path fill="none" stroke="#191970" d="M281.5049,-118.6488C317.965,-111.9198 364.6139,-103.3104 404.0981,-96.0233"/>
<polygon fill="#191970" stroke="#191970" points="280.7046,-115.2373 271.5059,-120.4942 281.9751,-122.1211 280.7046,-115.2373"/>
</g>
<!-- Node4 -->
<g id="node3" class="node">
<title>Node4</title>
<polygon fill="#ffffff" stroke="#bfbfbf" points="0,-120.5 0,-139.5 44,-139.5 44,-120.5 0,-120.5"/>
<text text-anchor="middle" x="22" y="-127.5" font-family="Helvetica,sans-Serif" font-size="10.00" fill="#000000">string</text>
</g>
<!-- Node4&#45;&gt;Node3 -->
<g id="edge2" class="edge">
<title>Node4&#45;&gt;Node3</title>
<path fill="none" stroke="#9a32cd" stroke-dasharray="5,2" d="M54.4397,-130C79.668,-130 115.6388,-130 147.6101,-130"/>
<polygon fill="#9a32cd" stroke="#9a32cd" points="54.3283,-126.5001 44.3282,-130 54.3282,-133.5001 54.3283,-126.5001"/>
<text text-anchor="middle" x="86.5" y="-155" font-family="Helvetica,sans-Serif" font-size="10.00" fill="#000000"> _name</text>
<text text-anchor="middle" x="86.5" y="-144" font-family="Helvetica,sans-Serif" font-size="10.00" fill="#000000">_frame_id</text>
<text text-anchor="middle" x="86.5" y="-133" font-family="Helvetica,sans-Serif" font-size="10.00" fill="#000000">_parent</text>
</g>
<!-- Node5 -->
<g id="node4" class="node">
<title>Node5</title>
<polygon fill="#ffffff" stroke="#bfbfbf" points="129,-60.5 129,-101.5 311,-101.5 311,-60.5 129,-60.5"/>
<text text-anchor="start" x="137" y="-89.5" font-family="Helvetica,sans-Serif" font-size="10.00" fill="#000000">shared_ptr&lt; carla::</text>
<text text-anchor="start" x="137" y="-78.5" font-family="Helvetica,sans-Serif" font-size="10.00" fill="#000000">ros2::CarlaDepthCameraPublisher</text>
<text text-anchor="middle" x="220" y="-67.5" font-family="Helvetica,sans-Serif" font-size="10.00" fill="#000000">Impl &gt;</text>
</g>
<!-- Node5&#45;&gt;Node2 -->
<g id="edge3" class="edge">
<title>Node5&#45;&gt;Node2</title>
<path fill="none" stroke="#9a32cd" stroke-dasharray="5,2" d="M321.4676,-81C348.0662,-81 376.4416,-81 401.9837,-81"/>
<polygon fill="#9a32cd" stroke="#9a32cd" points="321.3701,-77.5001 311.37,-81 321.37,-84.5001 321.3701,-77.5001"/>
<text text-anchor="middle" x="356.5" y="-84" font-family="Helvetica,sans-Serif" font-size="10.00" fill="#000000"> _impl</text>
</g>
<!-- Node6 -->
<g id="node5" class="node">
<title>Node6</title>
<polygon fill="#ffffff" stroke="#bfbfbf" points="134.5,-.5 134.5,-41.5 305.5,-41.5 305.5,-.5 134.5,-.5"/>
<text text-anchor="start" x="142.5" y="-29.5" font-family="Helvetica,sans-Serif" font-size="10.00" fill="#000000">shared_ptr&lt; carla::</text>
<text text-anchor="start" x="142.5" y="-18.5" font-family="Helvetica,sans-Serif" font-size="10.00" fill="#000000">ros2::CarlaCameraInfoPublisher</text>
<text text-anchor="middle" x="220" y="-7.5" font-family="Helvetica,sans-Serif" font-size="10.00" fill="#000000">Impl &gt;</text>
</g>
<!-- Node6&#45;&gt;Node2 -->
<g id="edge4" class="edge">
<title>Node6&#45;&gt;Node2</title>
<path fill="none" stroke="#9a32cd" stroke-dasharray="5,2" d="M315.8386,-42.6584C350.0063,-50.3799 387.7179,-58.9024 418.8927,-65.9475"/>
<polygon fill="#9a32cd" stroke="#9a32cd" points="316.3592,-39.1879 305.8336,-40.3974 314.8161,-46.0157 316.3592,-39.1879"/>
<text text-anchor="middle" x="356.5" y="-60" font-family="Helvetica,sans-Serif" font-size="10.00" fill="#000000"> _impl_info</text>
</g>
</g>
</svg>
