<?xml version="1.0" encoding="UTF-8" standalone="no"?>
<!DOCTYPE svg PUBLIC "-//W3C//DTD SVG 1.1//EN"
 "http://www.w3.org/Graphics/SVG/1.1/DTD/svg11.dtd">
<!-- Generated by graphviz version 2.43.0 (0)
 -->
<!-- Title: carla::road::element::GeometryPoly3::PreComputeSpline Pages: 1 -->
<svg width="388pt" height="50pt"
 viewBox="0.00 0.00 388.00 50.00" xmlns="http://www.w3.org/2000/svg" xmlns:xlink="http://www.w3.org/1999/xlink">
<g id="graph0" class="graph" transform="scale(1 1) rotate(0) translate(4 46)">
<title>carla::road::element::GeometryPoly3::PreComputeSpline</title>
<polygon fill="white" stroke="transparent" points="-4,4 -4,-46 384,-46 384,4 -4,4"/>
<!-- Node1 -->
<g id="node1" class="node">
<title>Node1</title>
<g id="a_node1"><a xlink:title=" ">
<polygon fill="#bfbfbf" stroke="black" points="216,-0.5 216,-41.5 380,-41.5 380,-0.5 216,-0.5"/>
<text text-anchor="start" x="224" y="-29.5" font-family="Helvetica,sans-Serif" font-size="10.00">carla::road::element</text>
<text text-anchor="start" x="224" y="-18.5" font-family="Helvetica,sans-Serif" font-size="10.00">::GeometryPoly3::PreCompute</text>
<text text-anchor="middle" x="298" y="-7.5" font-family="Helvetica,sans-Serif" font-size="10.00">Spline</text>
</a>
</g>
</g>
<!-- Node2 -->
<g id="node2" class="node">
<title>Node2</title>
<g id="a_node2"><a xlink:href="../../da/dee/classcarla_1_1road_1_1element_1_1GeometryPoly3.html#a195e30a0dc62fc0b55e30639e1fc22b1" target="_top" xlink:title=" ">
<polygon fill="white" stroke="black" points="0,-6 0,-36 180,-36 180,-6 0,-6"/>
<text text-anchor="start" x="8" y="-24" font-family="Helvetica,sans-Serif" font-size="10.00">carla::road::element</text>
<text text-anchor="middle" x="90" y="-13" font-family="Helvetica,sans-Serif" font-size="10.00">::GeometryPoly3::GeometryPoly3</text>
</a>
</g>
</g>
<!-- Node1&#45;&gt;Node2 -->
<g id="edge1" class="edge">
<title>Node1&#45;&gt;Node2</title>
<path fill="none" stroke="midnightblue" d="M205.64,-21C197.19,-21 188.64,-21 180.21,-21"/>
<polygon fill="midnightblue" stroke="midnightblue" points="205.88,-24.5 215.88,-21 205.88,-17.5 205.88,-24.5"/>
</g>
</g>
</svg>
