<?xml version="1.0" encoding="UTF-8" standalone="no"?>
<!DOCTYPE svg PUBLIC "-//W3C//DTD SVG 1.1//EN"
 "http://www.w3.org/Graphics/SVG/1.1/DTD/svg11.dtd">
<!-- Generated by graphviz version 2.38.0 (20140413.2041)
 -->
<!-- Title: carla::nav::Navigation::AddOrUpdateVehicle Pages: 1 -->
<svg width="832pt" height="50pt"
 viewBox="0.00 0.00 832.00 50.00" xmlns="http://www.w3.org/2000/svg" xmlns:xlink="http://www.w3.org/1999/xlink">
<g id="graph0" class="graph" transform="scale(1 1) rotate(0) translate(4 46)">
<title>carla::nav::Navigation::AddOrUpdateVehicle</title>
<polygon fill="white" stroke="none" points="-4,4 -4,-46 828,-46 828,4 -4,4"/>
<!-- Node1 -->
<g id="node1" class="node"><title>Node1</title>
<polygon fill="#bfbfbf" stroke="black" points="0,-6 0,-36 114,-36 114,-6 0,-6"/>
<text text-anchor="start" x="8" y="-24" font-family="Helvetica,sans-Serif" font-size="10.00">carla::nav::Navigation</text>
<text text-anchor="middle" x="57" y="-13" font-family="Helvetica,sans-Serif" font-size="10.00">::AddOrUpdateVehicle</text>
</g>
<!-- Node2 -->
<g id="node2" class="node"><title>Node2</title>
<g id="a_node2"><a xlink:href="../../d9/dc2/classcarla_1_1nav_1_1Navigation.html#a6b7d72d6c0d11bd88a5b9fae3e230ed2" target="_top" xlink:title="add/update/delete vehicles in crowd ">
<polygon fill="white" stroke="black" points="150,-6 150,-36 262,-36 262,-6 150,-6"/>
<text text-anchor="start" x="158" y="-24" font-family="Helvetica,sans-Serif" font-size="10.00">carla::nav::Navigation</text>
<text text-anchor="middle" x="206" y="-13" font-family="Helvetica,sans-Serif" font-size="10.00">::UpdateVehicles</text>
</a>
</g>
</g>
<!-- Node1&#45;&gt;Node2 -->
<g id="edge1" class="edge"><title>Node1&#45;&gt;Node2</title>
<path fill="none" stroke="midnightblue" d="M124.646,-21C133.109,-21 141.695,-21 149.949,-21"/>
<polygon fill="midnightblue" stroke="midnightblue" points="124.414,-17.5001 114.414,-21 124.414,-24.5001 124.414,-17.5001"/>
</g>
<!-- Node3 -->
<g id="node3" class="node"><title>Node3</title>
<g id="a_node3"><a xlink:href="../../d1/d83/classcarla_1_1client_1_1detail_1_1WalkerNavigation.html#a109552fa675fe65e281e3ed6f3c75204" target="_top" xlink:title="add/update/delete all vehicles in crowd ">
<polygon fill="white" stroke="black" points="298,-0.5 298,-41.5 473,-41.5 473,-0.5 298,-0.5"/>
<text text-anchor="start" x="306" y="-29.5" font-family="Helvetica,sans-Serif" font-size="10.00">carla::client::detail</text>
<text text-anchor="start" x="306" y="-18.5" font-family="Helvetica,sans-Serif" font-size="10.00">::WalkerNavigation::UpdateVehicles</text>
<text text-anchor="middle" x="385.5" y="-7.5" font-family="Helvetica,sans-Serif" font-size="10.00">InCrowd</text>
</a>
</g>
</g>
<!-- Node2&#45;&gt;Node3 -->
<g id="edge2" class="edge"><title>Node2&#45;&gt;Node3</title>
<path fill="none" stroke="midnightblue" d="M272.451,-21C280.693,-21 289.224,-21 297.73,-21"/>
<polygon fill="midnightblue" stroke="midnightblue" points="272.189,-17.5001 262.189,-21 272.189,-24.5001 272.189,-17.5001"/>
</g>
<!-- Node4 -->
<g id="node4" class="node"><title>Node4</title>
<g id="a_node4"><a xlink:href="../../d1/d83/classcarla_1_1client_1_1detail_1_1WalkerNavigation.html#a74b3b9c4a9c27f6ffb4f8b0fae1c3c87" target="_top" xlink:title="carla::client::detail\l::WalkerNavigation::Tick">
<polygon fill="white" stroke="black" points="509,-6 509,-36 634,-36 634,-6 509,-6"/>
<text text-anchor="start" x="517" y="-24" font-family="Helvetica,sans-Serif" font-size="10.00">carla::client::detail</text>
<text text-anchor="middle" x="571.5" y="-13" font-family="Helvetica,sans-Serif" font-size="10.00">::WalkerNavigation::Tick</text>
</a>
</g>
</g>
<!-- Node3&#45;&gt;Node4 -->
<g id="edge3" class="edge"><title>Node3&#45;&gt;Node4</title>
<path fill="none" stroke="midnightblue" d="M483.347,-21C492.059,-21 500.713,-21 508.995,-21"/>
<polygon fill="midnightblue" stroke="midnightblue" points="483.112,-17.5001 473.112,-21 483.112,-24.5001 483.112,-17.5001"/>
</g>
<!-- Node5 -->
<g id="node5" class="node"><title>Node5</title>
<g id="a_node5"><a xlink:href="../../d1/d83/classcarla_1_1client_1_1detail_1_1WalkerNavigation.html#a9e40890dd0320709636b44b38d98d400" target="_top" xlink:title="carla::client::detail\l::WalkerNavigation::AddWalker">
<polygon fill="white" stroke="black" points="670,-6 670,-36 824,-36 824,-6 670,-6"/>
<text text-anchor="start" x="678" y="-24" font-family="Helvetica,sans-Serif" font-size="10.00">carla::client::detail</text>
<text text-anchor="middle" x="747" y="-13" font-family="Helvetica,sans-Serif" font-size="10.00">::WalkerNavigation::AddWalker</text>
</a>
</g>
</g>
<!-- Node4&#45;&gt;Node5 -->
<g id="edge4" class="edge"><title>Node4&#45;&gt;Node5</title>
<path fill="none" stroke="midnightblue" d="M644.351,-21C652.805,-21 661.453,-21 669.962,-21"/>
<polygon fill="midnightblue" stroke="midnightblue" points="644.158,-17.5001 634.158,-21 644.158,-24.5001 644.158,-17.5001"/>
</g>
</g>
</svg>
