<?xml version="1.0" encoding="UTF-8" standalone="no"?>
<!DOCTYPE svg PUBLIC "-//W3C//DTD SVG 1.1//EN"
 "http://www.w3.org/Graphics/SVG/1.1/DTD/svg11.dtd">
<!-- Generated by graphviz version 2.38.0 (20140413.2041)
 -->
<!-- Title: carla::nav::Navigation::SetAgentFilter Pages: 1 -->
<svg width="619pt" height="39pt"
 viewBox="0.00 0.00 619.00 39.00" xmlns="http://www.w3.org/2000/svg" xmlns:xlink="http://www.w3.org/1999/xlink">
<g id="graph0" class="graph" transform="scale(1 1) rotate(0) translate(4 35)">
<title>carla::nav::Navigation::SetAgentFilter</title>
<polygon fill="white" stroke="none" points="-4,4 -4,-35 615,-35 615,4 -4,4"/>
<!-- Node1 -->
<g id="node1" class="node"><title>Node1</title>
<polygon fill="#bfbfbf" stroke="black" points="0,-0.5 0,-30.5 112,-30.5 112,-0.5 0,-0.5"/>
<text text-anchor="start" x="8" y="-18.5" font-family="Helvetica,sans-Serif" font-size="10.00">carla::nav::Navigation</text>
<text text-anchor="middle" x="56" y="-7.5" font-family="Helvetica,sans-Serif" font-size="10.00">::SetAgentFilter</text>
</g>
<!-- Node2 -->
<g id="node2" class="node"><title>Node2</title>
<g id="a_node2"><a xlink:href="../../d9/dc2/classcarla_1_1nav_1_1Navigation.html#a080cc11c843ef94c29a1537b2af62091" target="_top" xlink:title="update all walkers in crowd ">
<polygon fill="white" stroke="black" points="148,-0.5 148,-30.5 260,-30.5 260,-0.5 148,-0.5"/>
<text text-anchor="start" x="156" y="-18.5" font-family="Helvetica,sans-Serif" font-size="10.00">carla::nav::Navigation</text>
<text text-anchor="middle" x="204" y="-7.5" font-family="Helvetica,sans-Serif" font-size="10.00">::UpdateCrowd</text>
</a>
</g>
</g>
<!-- Node1&#45;&gt;Node2 -->
<g id="edge1" class="edge"><title>Node1&#45;&gt;Node2</title>
<path fill="none" stroke="midnightblue" d="M122.41,-15.5C130.865,-15.5 139.457,-15.5 147.726,-15.5"/>
<polygon fill="midnightblue" stroke="midnightblue" points="122.196,-12.0001 112.196,-15.5 122.196,-19.0001 122.196,-12.0001"/>
</g>
<!-- Node3 -->
<g id="node3" class="node"><title>Node3</title>
<g id="a_node3"><a xlink:href="../../d1/d83/classcarla_1_1client_1_1detail_1_1WalkerNavigation.html#a74b3b9c4a9c27f6ffb4f8b0fae1c3c87" target="_top" xlink:title="carla::client::detail\l::WalkerNavigation::Tick">
<polygon fill="white" stroke="black" points="296,-0.5 296,-30.5 421,-30.5 421,-0.5 296,-0.5"/>
<text text-anchor="start" x="304" y="-18.5" font-family="Helvetica,sans-Serif" font-size="10.00">carla::client::detail</text>
<text text-anchor="middle" x="358.5" y="-7.5" font-family="Helvetica,sans-Serif" font-size="10.00">::WalkerNavigation::Tick</text>
</a>
</g>
</g>
<!-- Node2&#45;&gt;Node3 -->
<g id="edge2" class="edge"><title>Node2&#45;&gt;Node3</title>
<path fill="none" stroke="midnightblue" d="M270.267,-15.5C278.738,-15.5 287.392,-15.5 295.802,-15.5"/>
<polygon fill="midnightblue" stroke="midnightblue" points="270.056,-12.0001 260.056,-15.5 270.056,-19.0001 270.056,-12.0001"/>
</g>
<!-- Node4 -->
<g id="node4" class="node"><title>Node4</title>
<g id="a_node4"><a xlink:href="../../d1/d83/classcarla_1_1client_1_1detail_1_1WalkerNavigation.html#a9e40890dd0320709636b44b38d98d400" target="_top" xlink:title="carla::client::detail\l::WalkerNavigation::AddWalker">
<polygon fill="white" stroke="black" points="457,-0.5 457,-30.5 611,-30.5 611,-0.5 457,-0.5"/>
<text text-anchor="start" x="465" y="-18.5" font-family="Helvetica,sans-Serif" font-size="10.00">carla::client::detail</text>
<text text-anchor="middle" x="534" y="-7.5" font-family="Helvetica,sans-Serif" font-size="10.00">::WalkerNavigation::AddWalker</text>
</a>
</g>
</g>
<!-- Node3&#45;&gt;Node4 -->
<g id="edge3" class="edge"><title>Node3&#45;&gt;Node4</title>
<path fill="none" stroke="midnightblue" d="M431.351,-15.5C439.805,-15.5 448.453,-15.5 456.962,-15.5"/>
<polygon fill="midnightblue" stroke="midnightblue" points="431.158,-12.0001 421.158,-15.5 431.158,-19.0001 431.158,-12.0001"/>
</g>
</g>
</svg>
