<?xml version="1.0" encoding="UTF-8" standalone="no"?>
<!DOCTYPE svg PUBLIC "-//W3C//DTD SVG 1.1//EN"
 "http://www.w3.org/Graphics/SVG/1.1/DTD/svg11.dtd">
<!-- Generated by graphviz version 2.38.0 (20140413.2041)
 -->
<!-- Title: ATagger::TagActorsInLevel Pages: 1 -->
<svg width="464pt" height="151pt"
 viewBox="0.00 0.00 464.00 150.50" xmlns="http://www.w3.org/2000/svg" xmlns:xlink="http://www.w3.org/1999/xlink">
<g id="graph0" class="graph" transform="scale(1 1) rotate(0) translate(4 146.5)">
<title>ATagger::TagActorsInLevel</title>
<polygon fill="white" stroke="none" points="-4,4 -4,-146.5 460,-146.5 460,4 -4,4"/>
<!-- Node1 -->
<g id="node1" class="node"><title>Node1</title>
<polygon fill="#bfbfbf" stroke="black" points="0,-79 0,-98 140,-98 140,-79 0,-79"/>
<text text-anchor="middle" x="70" y="-86" font-family="Helvetica,sans-Serif" font-size="10.00">ATagger::TagActorsInLevel</text>
</g>
<!-- Node2 -->
<g id="node2" class="node"><title>Node2</title>
<g id="a_node2"><a xlink:href="../../da/d86/classATagger.html#aa719f4c59cd510c07f5bda6e0e55f58f" target="_top" xlink:title="ATagger::ATagger">
<polygon fill="white" stroke="black" points="191,-123 191,-142 289,-142 289,-123 191,-123"/>
<text text-anchor="middle" x="240" y="-130" font-family="Helvetica,sans-Serif" font-size="10.00">ATagger::ATagger</text>
</a>
</g>
</g>
<!-- Node1&#45;&gt;Node2 -->
<g id="edge1" class="edge"><title>Node1&#45;&gt;Node2</title>
<path fill="none" stroke="midnightblue" d="M117.409,-100.655C144.292,-107.695 177.647,-116.431 202.618,-122.971"/>
<polygon fill="midnightblue" stroke="midnightblue" points="118.014,-97.1952 107.453,-98.0473 116.24,-103.967 118.014,-97.1952"/>
</g>
<!-- Node3 -->
<g id="node3" class="node"><title>Node3</title>
<g id="a_node3"><a xlink:href="../../db/de5/classACarlaGameModeBase.html#a3909b055b351f69d7ad1e39a42e72e3d" target="_top" xlink:title="ACarlaGameModeBase\l::BeginPlay">
<polygon fill="white" stroke="black" points="176,-73.5 176,-103.5 304,-103.5 304,-73.5 176,-73.5"/>
<text text-anchor="start" x="184" y="-91.5" font-family="Helvetica,sans-Serif" font-size="10.00">ACarlaGameModeBase</text>
<text text-anchor="middle" x="240" y="-80.5" font-family="Helvetica,sans-Serif" font-size="10.00">::BeginPlay</text>
</a>
</g>
</g>
<!-- Node1&#45;&gt;Node3 -->
<g id="edge2" class="edge"><title>Node1&#45;&gt;Node3</title>
<path fill="none" stroke="midnightblue" d="M150.568,-88.5C159.027,-88.5 167.547,-88.5 175.782,-88.5"/>
<polygon fill="midnightblue" stroke="midnightblue" points="150.302,-85.0001 140.302,-88.5 150.302,-92.0001 150.302,-85.0001"/>
</g>
<!-- Node4 -->
<g id="node4" class="node"><title>Node4</title>
<g id="a_node4"><a xlink:href="../../d1/ddb/classACityMapGenerator.html#a9ce09c4586724fe3e446cbb12712adf3" target="_top" xlink:title="Generate the road map image and save to disk if requested. ">
<polygon fill="white" stroke="black" points="182,-24.5 182,-54.5 298,-54.5 298,-24.5 182,-24.5"/>
<text text-anchor="start" x="190" y="-42.5" font-family="Helvetica,sans-Serif" font-size="10.00">ACityMapGenerator::</text>
<text text-anchor="middle" x="240" y="-31.5" font-family="Helvetica,sans-Serif" font-size="10.00">GenerateRoadMap</text>
</a>
</g>
</g>
<!-- Node1&#45;&gt;Node4 -->
<g id="edge3" class="edge"><title>Node1&#45;&gt;Node4</title>
<path fill="none" stroke="midnightblue" d="M113.397,-76.1343C135.891,-69.5735 163.71,-61.4597 187.445,-54.537"/>
<polygon fill="midnightblue" stroke="midnightblue" points="112.411,-72.7759 103.791,-78.936 114.371,-79.4959 112.411,-72.7759"/>
</g>
<!-- Node5 -->
<g id="node5" class="node"><title>Node5</title>
<g id="a_node5"><a xlink:href="../../d1/ddb/classACityMapGenerator.html#a5627a0935def8c92d8ae226b10238f2c" target="_top" xlink:title="ACityMapGenerator::\lPreSave">
<polygon fill="white" stroke="black" points="340,-49.5 340,-79.5 456,-79.5 456,-49.5 340,-49.5"/>
<text text-anchor="start" x="348" y="-67.5" font-family="Helvetica,sans-Serif" font-size="10.00">ACityMapGenerator::</text>
<text text-anchor="middle" x="398" y="-56.5" font-family="Helvetica,sans-Serif" font-size="10.00">PreSave</text>
</a>
</g>
</g>
<!-- Node4&#45;&gt;Node5 -->
<g id="edge4" class="edge"><title>Node4&#45;&gt;Node5</title>
<path fill="none" stroke="midnightblue" d="M308.193,-50.268C318.724,-51.9558 329.524,-53.6866 339.804,-55.334"/>
<polygon fill="midnightblue" stroke="midnightblue" points="308.631,-46.7937 298.203,-48.6671 307.523,-53.7055 308.631,-46.7937"/>
</g>
<!-- Node6 -->
<g id="node6" class="node"><title>Node6</title>
<g id="a_node6"><a xlink:href="../../d1/ddb/classACityMapGenerator.html#a5ad53319596101e96076a12eab41b9c1" target="_top" xlink:title="Here does nothing, implement in derived classes. ">
<polygon fill="white" stroke="black" points="340,-0.5 340,-30.5 456,-30.5 456,-0.5 340,-0.5"/>
<text text-anchor="start" x="348" y="-18.5" font-family="Helvetica,sans-Serif" font-size="10.00">ACityMapGenerator::</text>
<text text-anchor="middle" x="398" y="-7.5" font-family="Helvetica,sans-Serif" font-size="10.00">UpdateMap</text>
</a>
</g>
</g>
<!-- Node4&#45;&gt;Node6 -->
<g id="edge5" class="edge"><title>Node4&#45;&gt;Node6</title>
<path fill="none" stroke="midnightblue" d="M308.193,-29.1627C318.724,-27.5424 329.524,-25.8809 339.804,-24.2994"/>
<polygon fill="midnightblue" stroke="midnightblue" points="307.554,-25.7196 298.203,-30.6996 308.619,-32.6382 307.554,-25.7196"/>
</g>
</g>
</svg>
