<?xml version="1.0" encoding="UTF-8" standalone="no"?>
<!DOCTYPE svg PUBLIC "-//W3C//DTD SVG 1.1//EN"
 "http://www.w3.org/Graphics/SVG/1.1/DTD/svg11.dtd">
<!-- Generated by graphviz version 2.40.1 (20161225.0304)
 -->
<!-- Title: carla::sensor::data::ObstacleDetectionEvent::GetOtherActor Pages: 1 -->
<!--zoomable 113 -->
<svg id="main" version="1.1" xmlns="http://www.w3.org/2000/svg" xmlns:xlink="http://www.w3.org/1999/xlink" xml:space="preserve" onload="init(evt)">
<style type="text/css"><![CDATA[
.edge:hover path { stroke: red; }
.edge:hover polygon { stroke: red; fill: red; }
]]></style>
<script type="text/javascript"><![CDATA[
var edges = document.getElementsByTagName('g');
if (edges && edges.length) {
  for (var i=0;i<edges.length;i++) {
    if (edges[i].id.substr(0,4)=='edge') {
      edges[i].setAttribute('class','edge');
    }
  }
}
]]></script>
        <defs>
                <circle id="rim" cx="0" cy="0" r="7"/>
                <circle id="rim2" cx="0" cy="0" r="3.5"/>
                <g id="zoomPlus">
                        <use xlink:href="#rim" fill="#404040">
                                <set attributeName="fill" to="#808080" begin="zoomplus.mouseover" end="zoomplus.mouseout"/>
                        </use>
                        <path d="M-4,0h8M0,-4v8" fill="none" stroke="white" stroke-width="1.5" pointer-events="none"/>
                </g>
                <g id="zoomMin">
                        <use xlink:href="#rim" fill="#404040">
                                <set attributeName="fill" to="#808080" begin="zoomminus.mouseover" end="zoomminus.mouseout"/>
                        </use>
                        <path d="M-4,0h8" fill="none" stroke="white" stroke-width="1.5" pointer-events="none"/>
                </g>
                <g id="dirArrow">
                        <path fill="none" stroke="white" stroke-width="1.5" d="M0,-3.0v7 M-2.5,-0.5L0,-3.0L2.5,-0.5"/>
                </g>
               <g id="resetDef">
                       <use xlink:href="#rim2" fill="#404040">
                               <set attributeName="fill" to="#808080" begin="reset.mouseover" end="reset.mouseout"/>
                       </use>
               </g>
        </defs>

<script type="text/javascript">
var viewWidth = 812;
var viewHeight = 113;
var sectionId = 'dynsection-4';
</script>
<script xlink:href="../../svgpan.js"/>
<svg id="graph" class="graph">
<g id="viewport">
<title>carla::sensor::data::ObstacleDetectionEvent::GetOtherActor</title>
<polygon fill="#ffffff" stroke="transparent" points="-4,4 -4,-109 808,-109 808,4 -4,4"/>
<!-- Node21 -->
<g id="node1" class="node">
<title>Node21</title>
<polygon fill="#bfbfbf" stroke="#000000" points="0,-19 0,-60 140,-60 140,-19 0,-19"/>
<text text-anchor="start" x="8" y="-48" font-family="Helvetica,sans-Serif" font-size="10.00" fill="#000000">carla::sensor::data</text>
<text text-anchor="start" x="8" y="-37" font-family="Helvetica,sans-Serif" font-size="10.00" fill="#000000">::ObstacleDetectionEvent</text>
<text text-anchor="middle" x="70" y="-26" font-family="Helvetica,sans-Serif" font-size="10.00" fill="#000000">::GetOtherActor</text>
</g>
<!-- Node22 -->
<g id="node2" class="node">
<title>Node22</title>
<g id="a_node2"><a xlink:href="../../d4/dad/classcarla_1_1client_1_1detail_1_1ActorVariant.html#a7c0ed76c232859c69b5f71f2587850e0" target="_top" xlink:title="carla::client::detail\l::ActorVariant::Get">
<polygon fill="#ffffff" stroke="#000000" points="193,-49.5 193,-79.5 300,-79.5 300,-49.5 193,-49.5"/>
<text text-anchor="start" x="201" y="-67.5" font-family="Helvetica,sans-Serif" font-size="10.00" fill="#000000">carla::client::detail</text>
<text text-anchor="middle" x="246.5" y="-56.5" font-family="Helvetica,sans-Serif" font-size="10.00" fill="#000000">::ActorVariant::Get</text>
</a>
</g>
</g>
<!-- Node21&#45;&gt;Node22 -->
<g id="edge1" class="edge">
<title>Node21&#45;&gt;Node22</title>
<path fill="none" stroke="#191970" d="M140.011,-49.4166C154.1839,-51.4241 169.0131,-53.5245 182.9486,-55.4984"/>
<polygon fill="#191970" stroke="#191970" points="182.5237,-58.9731 192.9158,-56.9102 183.5055,-52.0422 182.5237,-58.9731"/>
</g>
<!-- Node27 -->
<g id="node7" class="node">
<title>Node27</title>
<g id="a_node7"><a xlink:href="../../df/d8c/classcarla_1_1sensor_1_1SensorData.html#aa38a917d7a64b7cb8f702106cd2e9108" target="_top" xlink:title="carla::sensor::SensorData\l::GetEpisode">
<polygon fill="#ffffff" stroke="#000000" points="176,-.5 176,-30.5 317,-30.5 317,-.5 176,-.5"/>
<text text-anchor="start" x="184" y="-18.5" font-family="Helvetica,sans-Serif" font-size="10.00" fill="#000000">carla::sensor::SensorData</text>
<text text-anchor="middle" x="246.5" y="-7.5" font-family="Helvetica,sans-Serif" font-size="10.00" fill="#000000">::GetEpisode</text>
</a>
</g>
</g>
<!-- Node21&#45;&gt;Node27 -->
<g id="edge6" class="edge">
<title>Node21&#45;&gt;Node27</title>
<path fill="none" stroke="#191970" d="M140.011,-29.9801C148.5197,-28.8231 157.2649,-27.6339 165.9113,-26.4582"/>
<polygon fill="#191970" stroke="#191970" points="166.5588,-29.9025 175.996,-25.0869 165.6156,-22.9663 166.5588,-29.9025"/>
</g>
<!-- Node23 -->
<g id="node3" class="node">
<title>Node23</title>
<g id="a_node3"><a xlink:href="../../d4/dad/classcarla_1_1client_1_1detail_1_1ActorVariant.html#a25d6826097625e7966794a60332994f5" target="_top" xlink:title="carla::client::detail\l::ActorVariant::MakeActor">
<polygon fill="#ffffff" stroke="#000000" points="353,-49.5 353,-79.5 493,-79.5 493,-49.5 353,-49.5"/>
<text text-anchor="start" x="361" y="-67.5" font-family="Helvetica,sans-Serif" font-size="10.00" fill="#000000">carla::client::detail</text>
<text text-anchor="middle" x="423" y="-56.5" font-family="Helvetica,sans-Serif" font-size="10.00" fill="#000000">::ActorVariant::MakeActor</text>
</a>
</g>
</g>
<!-- Node22&#45;&gt;Node23 -->
<g id="edge2" class="edge">
<title>Node22&#45;&gt;Node23</title>
<path fill="none" stroke="#191970" d="M300.4149,-64.5C313.712,-64.5 328.2412,-64.5 342.4986,-64.5"/>
<polygon fill="#191970" stroke="#191970" points="342.8107,-68.0001 352.8107,-64.5 342.8107,-61.0001 342.8107,-68.0001"/>
</g>
<!-- Node24 -->
<g id="node4" class="node">
<title>Node24</title>
<g id="a_node4"><a xlink:href="../../d8/d4b/classcarla_1_1client_1_1detail_1_1ActorFactory.html#a35ca6b1f59d086fa27630c9f818cf843" target="_top" xlink:title="Create an Actor based on the provided actor_description. ">
<polygon fill="#ffffff" stroke="#000000" points="529,-49.5 529,-79.5 669,-79.5 669,-49.5 529,-49.5"/>
<text text-anchor="start" x="537" y="-67.5" font-family="Helvetica,sans-Serif" font-size="10.00" fill="#000000">carla::client::detail</text>
<text text-anchor="middle" x="599" y="-56.5" font-family="Helvetica,sans-Serif" font-size="10.00" fill="#000000">::ActorFactory::MakeActor</text>
</a>
</g>
</g>
<!-- Node23&#45;&gt;Node24 -->
<g id="edge3" class="edge">
<title>Node23&#45;&gt;Node24</title>
<path fill="none" stroke="#191970" d="M493.0656,-64.5C501.5403,-64.5 510.2467,-64.5 518.8522,-64.5"/>
<polygon fill="#191970" stroke="#191970" points="518.888,-68.0001 528.888,-64.5 518.8879,-61.0001 518.888,-68.0001"/>
</g>
<!-- Node25 -->
<g id="node5" class="node">
<title>Node25</title>
<g id="a_node5"><a xlink:href="../../db/dfd/classcarla_1_1rpc_1_1Actor.html#a427ab77ca916ac215a38a6e984356326" target="_top" xlink:title="carla::rpc::Actor::\lHasAStream">
<polygon fill="#ffffff" stroke="#000000" points="705,-74.5 705,-104.5 804,-104.5 804,-74.5 705,-74.5"/>
<text text-anchor="start" x="713" y="-92.5" font-family="Helvetica,sans-Serif" font-size="10.00" fill="#000000">carla::rpc::Actor::</text>
<text text-anchor="middle" x="754.5" y="-81.5" font-family="Helvetica,sans-Serif" font-size="10.00" fill="#000000">HasAStream</text>
</a>
</g>
</g>
<!-- Node24&#45;&gt;Node25 -->
<g id="edge4" class="edge">
<title>Node24&#45;&gt;Node25</title>
<path fill="none" stroke="#191970" d="M669.0168,-75.7567C677.6133,-77.1388 686.3373,-78.5414 694.7626,-79.8959"/>
<polygon fill="#191970" stroke="#191970" points="694.4341,-83.388 704.8629,-81.5198 695.5453,-76.4767 694.4341,-83.388"/>
</g>
<!-- Node26 -->
<g id="node6" class="node">
<title>Node26</title>
<g id="a_node6"><a xlink:href="../../de/d93/classcarla_1_1StringUtil.html#afa9750d2d007ece06fb6f51311a4d7ba" target="_top" xlink:title="carla::StringUtil::\lStartsWith">
<polygon fill="#ffffff" stroke="#000000" points="705.5,-25.5 705.5,-55.5 803.5,-55.5 803.5,-25.5 705.5,-25.5"/>
<text text-anchor="start" x="713.5" y="-43.5" font-family="Helvetica,sans-Serif" font-size="10.00" fill="#000000">carla::StringUtil::</text>
<text text-anchor="middle" x="754.5" y="-32.5" font-family="Helvetica,sans-Serif" font-size="10.00" fill="#000000">StartsWith</text>
</a>
</g>
</g>
<!-- Node24&#45;&gt;Node26 -->
<g id="edge5" class="edge">
<title>Node24&#45;&gt;Node26</title>
<path fill="none" stroke="#191970" d="M669.0168,-53.6936C677.8237,-52.3343 686.7643,-50.9544 695.3806,-49.6245"/>
<polygon fill="#191970" stroke="#191970" points="695.9698,-53.0751 705.3188,-48.0907 694.902,-46.157 695.9698,-53.0751"/>
</g>
</g>
</svg>
        <g id="navigator" transform="translate(0 0)" fill="#404254">
                <rect fill="#f2f5e9" fill-opacity="0.5" stroke="#606060" stroke-width=".5" x="0" y="0" width="60" height="60"/>
                <use id="zoomplus" xlink:href="#zoomPlus" x="17" y="9" onmousedown="handleZoom(evt,'in')"/>
                <use id="zoomminus" xlink:href="#zoomMin" x="42" y="9" onmousedown="handleZoom(evt,'out')"/>
                <use id="reset" xlink:href="#resetDef" x="30" y="36" onmousedown="handleReset()"/>
                <g id="arrowUp" xlink:href="#dirArrow" transform="translate(30 24)" onmousedown="handlePan(0,-1)">
                  <use xlink:href="#rim" fill="#404040">
                        <set attributeName="fill" to="#808080" begin="arrowUp.mouseover" end="arrowUp.mouseout"/>
                  </use>
                  <path fill="none" stroke="white" stroke-width="1.5" d="M0,-3.0v7 M-2.5,-0.5L0,-3.0L2.5,-0.5"/>
                </g>
                <g id="arrowRight" xlink:href="#dirArrow" transform="rotate(90) translate(36 -43)" onmousedown="handlePan(1,0)">
                  <use xlink:href="#rim" fill="#404040">
                        <set attributeName="fill" to="#808080" begin="arrowRight.mouseover" end="arrowRight.mouseout"/>
                  </use>
                  <path fill="none" stroke="white" stroke-width="1.5" d="M0,-3.0v7 M-2.5,-0.5L0,-3.0L2.5,-0.5"/>
                </g>
                <g id="arrowDown" xlink:href="#dirArrow" transform="rotate(180) translate(-30 -48)" onmousedown="handlePan(0,1)">
                  <use xlink:href="#rim" fill="#404040">
                        <set attributeName="fill" to="#808080" begin="arrowDown.mouseover" end="arrowDown.mouseout"/>
                  </use>
                  <path fill="none" stroke="white" stroke-width="1.5" d="M0,-3.0v7 M-2.5,-0.5L0,-3.0L2.5,-0.5"/>
                </g>
                <g id="arrowLeft" xlink:href="#dirArrow" transform="rotate(270) translate(-36 17)" onmousedown="handlePan(-1,0)">
                  <use xlink:href="#rim" fill="#404040">
                        <set attributeName="fill" to="#808080" begin="arrowLeft.mouseover" end="arrowLeft.mouseout"/>
                  </use>
                  <path fill="none" stroke="white" stroke-width="1.5" d="M0,-3.0v7 M-2.5,-0.5L0,-3.0L2.5,-0.5"/>
                </g>
        </g>
        <svg viewBox="0 0 15 15" width="100%" height="30px" preserveAspectRatio="xMaxYMin meet">
         <g id="arrow_out" transform="scale(0.3 0.3)">
          <a xlink:href="classcarla_1_1sensor_1_1data_1_1ObstacleDetectionEvent_a5b4e8a632537f49dcd07589bdbee9f07_cgraph_org.svg" target="_base">
           <rect id="button" ry="5" rx="5" y="6" x="6" height="38" width="38"
                fill="#f2f5e9" fill-opacity="0.5" stroke="#606060" stroke-width="1.0"/>
           <path id="arrow"
             d="M 11.500037,31.436501 C 11.940474,20.09759 22.043105,11.32322 32.158766,21.979434 L 37.068811,17.246167 C 37.068811,17.246167 37.088388,32 37.088388,32 L 22.160133,31.978069 C 22.160133,31.978069 26.997745,27.140456 26.997745,27.140456 C 18.528582,18.264221 13.291696,25.230495 11.500037,31.436501 z"
             style="fill:#404040;"/>
          </a>
         </g>
        </svg>
</svg>
