<?xml version="1.0" encoding="UTF-8" standalone="no"?>
<!DOCTYPE svg PUBLIC "-//W3C//DTD SVG 1.1//EN"
 "http://www.w3.org/Graphics/SVG/1.1/DTD/svg11.dtd">
<!-- Generated by graphviz version 2.38.0 (20140413.2041)
 -->
<!-- Title: CarlaReplayerHelper::SetActorSimulatePhysics Pages: 1 -->
<svg width="1691pt" height="289pt"
 viewBox="0.00 0.00 1691.00 288.50" xmlns="http://www.w3.org/2000/svg" xmlns:xlink="http://www.w3.org/1999/xlink">
<g id="graph0" class="graph" transform="scale(1 1) rotate(0) translate(4 284.5)">
<title>CarlaReplayerHelper::SetActorSimulatePhysics</title>
<polygon fill="white" stroke="none" points="-4,4 -4,-284.5 1687,-284.5 1687,4 -4,4"/>
<!-- Node1 -->
<g id="node1" class="node"><title>Node1</title>
<polygon fill="#bfbfbf" stroke="black" points="0,-123 0,-153 134,-153 134,-123 0,-123"/>
<text text-anchor="start" x="8" y="-141" font-family="Helvetica,sans-Serif" font-size="10.00">CarlaReplayerHelper</text>
<text text-anchor="middle" x="67" y="-130" font-family="Helvetica,sans-Serif" font-size="10.00">::SetActorSimulatePhysics</text>
</g>
<!-- Node2 -->
<g id="node2" class="node"><title>Node2</title>
<g id="a_node2"><a xlink:href="../../d8/d27/classCarlaReplayerHelper.html#a9120babe8d9e89a97dc59e91e112ad24" target="_top" xlink:title="CarlaReplayerHelper\l::ProcessReplayerEventAdd">
<polygon fill="white" stroke="black" points="170,-148 170,-178 310,-178 310,-148 170,-148"/>
<text text-anchor="start" x="178" y="-166" font-family="Helvetica,sans-Serif" font-size="10.00">CarlaReplayerHelper</text>
<text text-anchor="middle" x="240" y="-155" font-family="Helvetica,sans-Serif" font-size="10.00">::ProcessReplayerEventAdd</text>
</a>
</g>
</g>
<!-- Node1&#45;&gt;Node2 -->
<g id="edge1" class="edge"><title>Node1&#45;&gt;Node2</title>
<path fill="none" stroke="midnightblue" d="M144.126,-149.13C152.725,-150.387 161.451,-151.662 169.951,-152.905"/>
<polygon fill="midnightblue" stroke="midnightblue" points="144.514,-145.649 134.113,-147.666 143.502,-152.576 144.514,-145.649"/>
</g>
<!-- Node24 -->
<g id="node24" class="node"><title>Node24</title>
<g id="a_node24"><a xlink:href="../../d8/d27/classCarlaReplayerHelper.html#a960dc6de038e25f491e3813469494d78" target="_top" xlink:title="CarlaReplayerHelper\l::ProcessReplayerFinish">
<polygon fill="white" stroke="black" points="178,-99 178,-129 302,-129 302,-99 178,-99"/>
<text text-anchor="start" x="186" y="-117" font-family="Helvetica,sans-Serif" font-size="10.00">CarlaReplayerHelper</text>
<text text-anchor="middle" x="240" y="-106" font-family="Helvetica,sans-Serif" font-size="10.00">::ProcessReplayerFinish</text>
</a>
</g>
</g>
<!-- Node1&#45;&gt;Node24 -->
<g id="edge30" class="edge"><title>Node1&#45;&gt;Node24</title>
<path fill="none" stroke="midnightblue" d="M144.328,-127.287C155.541,-125.713 166.967,-124.11 177.823,-122.586"/>
<polygon fill="midnightblue" stroke="midnightblue" points="143.53,-123.865 134.113,-128.721 144.502,-130.797 143.53,-123.865"/>
</g>
<!-- Node3 -->
<g id="node3" class="node"><title>Node3</title>
<g id="a_node3"><a xlink:href="../../dc/dc6/classCarlaReplayer.html#a929a7a4c79086339485caba9f6562c8e" target="_top" xlink:title="CarlaReplayer::ProcessEventsAdd">
<polygon fill="white" stroke="black" points="346,-173.5 346,-192.5 515,-192.5 515,-173.5 346,-173.5"/>
<text text-anchor="middle" x="430.5" y="-180.5" font-family="Helvetica,sans-Serif" font-size="10.00">CarlaReplayer::ProcessEventsAdd</text>
</a>
</g>
</g>
<!-- Node2&#45;&gt;Node3 -->
<g id="edge2" class="edge"><title>Node2&#45;&gt;Node3</title>
<path fill="none" stroke="midnightblue" d="M320.075,-171.39C328.637,-172.298 337.37,-173.225 345.983,-174.139"/>
<polygon fill="midnightblue" stroke="midnightblue" points="320.434,-167.908 310.12,-170.334 319.695,-174.869 320.434,-167.908"/>
</g>
<!-- Node22 -->
<g id="node22" class="node"><title>Node22</title>
<g id="a_node22"><a xlink:href="../../d8/d27/classCarlaReplayerHelper.html#a796c4b4a2fd59f841bf3967e55f5cace" target="_top" xlink:title="CarlaReplayerHelper\l::SetEpisode">
<polygon fill="white" stroke="black" points="377,-124 377,-154 484,-154 484,-124 377,-124"/>
<text text-anchor="start" x="385" y="-142" font-family="Helvetica,sans-Serif" font-size="10.00">CarlaReplayerHelper</text>
<text text-anchor="middle" x="430.5" y="-131" font-family="Helvetica,sans-Serif" font-size="10.00">::SetEpisode</text>
</a>
</g>
</g>
<!-- Node2&#45;&gt;Node22 -->
<g id="edge28" class="edge"><title>Node2&#45;&gt;Node22</title>
<path fill="none" stroke="midnightblue" d="M320.06,-152.934C339.251,-150.491 359.305,-147.937 376.926,-145.694"/>
<polygon fill="midnightblue" stroke="midnightblue" points="319.598,-149.464 310.12,-154.2 320.482,-156.408 319.598,-149.464"/>
</g>
<!-- Node4 -->
<g id="node4" class="node"><title>Node4</title>
<g id="a_node4"><a xlink:href="../../dc/dc6/classCarlaReplayer.html#ae0a5643d88257bdceb9e12d5c33194cb" target="_top" xlink:title="CarlaReplayer::ProcessToTime">
<polygon fill="white" stroke="black" points="551,-167.5 551,-186.5 705,-186.5 705,-167.5 551,-167.5"/>
<text text-anchor="middle" x="628" y="-174.5" font-family="Helvetica,sans-Serif" font-size="10.00">CarlaReplayer::ProcessToTime</text>
</a>
</g>
</g>
<!-- Node3&#45;&gt;Node4 -->
<g id="edge3" class="edge"><title>Node3&#45;&gt;Node4</title>
<path fill="none" stroke="midnightblue" d="M525.279,-180.122C533.843,-179.859 542.448,-179.595 550.83,-179.338"/>
<polygon fill="midnightblue" stroke="midnightblue" points="525.148,-176.624 515.26,-180.429 525.363,-183.621 525.148,-176.624"/>
</g>
<!-- Node5 -->
<g id="node5" class="node"><title>Node5</title>
<g id="a_node5"><a xlink:href="../../dc/dc6/classCarlaReplayer.html#ac70d3dbe1f79ffd25a695ec3bd2485e6" target="_top" xlink:title="CarlaReplayer::CheckPlay\lAfterMapLoaded">
<polygon fill="white" stroke="black" points="882,-162 882,-192 1015,-192 1015,-162 882,-162"/>
<text text-anchor="start" x="890" y="-180" font-family="Helvetica,sans-Serif" font-size="10.00">CarlaReplayer::CheckPlay</text>
<text text-anchor="middle" x="948.5" y="-169" font-family="Helvetica,sans-Serif" font-size="10.00">AfterMapLoaded</text>
</a>
</g>
</g>
<!-- Node4&#45;&gt;Node5 -->
<g id="edge4" class="edge"><title>Node4&#45;&gt;Node5</title>
<path fill="none" stroke="midnightblue" d="M715.578,-177C767.962,-177 833.701,-177 881.8,-177"/>
<polygon fill="midnightblue" stroke="midnightblue" points="715.289,-173.5 705.289,-177 715.289,-180.5 715.289,-173.5"/>
</g>
<!-- Node11 -->
<g id="node11" class="node"><title>Node11</title>
<g id="a_node11"><a xlink:href="../../dc/dc6/classCarlaReplayer.html#a6a0f602c673e3860bd3a070c5aaf62b9" target="_top" xlink:title="CarlaReplayer::ReplayFile">
<polygon fill="white" stroke="black" points="883,-123.5 883,-142.5 1014,-142.5 1014,-123.5 883,-123.5"/>
<text text-anchor="middle" x="948.5" y="-130.5" font-family="Helvetica,sans-Serif" font-size="10.00">CarlaReplayer::ReplayFile</text>
</a>
</g>
</g>
<!-- Node4&#45;&gt;Node11 -->
<g id="edge10" class="edge"><title>Node4&#45;&gt;Node11</title>
<path fill="none" stroke="midnightblue" d="M708.304,-166.044C762.14,-158.607 832.435,-148.896 882.867,-141.929"/>
<polygon fill="midnightblue" stroke="midnightblue" points="707.537,-162.617 698.11,-167.453 708.495,-169.551 707.537,-162.617"/>
</g>
<!-- Node14 -->
<g id="node14" class="node"><title>Node14</title>
<g id="a_node14"><a xlink:href="../../dc/dc6/classCarlaReplayer.html#af627917f2c95135fb11b59af4f65dbf7" target="_top" xlink:title="CarlaReplayer::Stop">
<polygon fill="white" stroke="black" points="741,-85.5 741,-104.5 846,-104.5 846,-85.5 741,-85.5"/>
<text text-anchor="middle" x="793.5" y="-92.5" font-family="Helvetica,sans-Serif" font-size="10.00">CarlaReplayer::Stop</text>
</a>
</g>
</g>
<!-- Node4&#45;&gt;Node14 -->
<g id="edge14" class="edge"><title>Node4&#45;&gt;Node14</title>
<path fill="none" stroke="midnightblue" d="M659.758,-165.042C674.182,-161.457 691.191,-156.819 705,-149 724.69,-137.851 722.772,-126.406 741,-113 745.066,-110.009 749.509,-107.157 754.025,-104.57"/>
<polygon fill="midnightblue" stroke="midnightblue" points="658.667,-161.706 649.795,-167.497 660.342,-168.503 658.667,-161.706"/>
</g>
<!-- Node19 -->
<g id="node19" class="node"><title>Node19</title>
<g id="a_node19"><a xlink:href="../../dc/dc6/classCarlaReplayer.html#a4aeceb13aaa5dfcbf3ee42d7582262a4" target="_top" xlink:title="CarlaReplayer::Tick">
<polygon fill="white" stroke="black" points="741.5,-211.5 741.5,-230.5 845.5,-230.5 845.5,-211.5 741.5,-211.5"/>
<text text-anchor="middle" x="793.5" y="-218.5" font-family="Helvetica,sans-Serif" font-size="10.00">CarlaReplayer::Tick</text>
</a>
</g>
</g>
<!-- Node4&#45;&gt;Node19 -->
<g id="edge24" class="edge"><title>Node4&#45;&gt;Node19</title>
<path fill="none" stroke="midnightblue" d="M674.166,-189.155C700.329,-196.195 732.79,-204.931 757.092,-211.471"/>
<polygon fill="midnightblue" stroke="midnightblue" points="675.043,-185.766 664.477,-186.547 673.224,-192.526 675.043,-185.766"/>
</g>
<!-- Node6 -->
<g id="node6" class="node"><title>Node6</title>
<g id="a_node6"><a xlink:href="../../db/de5/classACarlaGameModeBase.html#a3909b055b351f69d7ad1e39a42e72e3d" target="_top" xlink:title="ACarlaGameModeBase\l::BeginPlay">
<polygon fill="white" stroke="black" points="1068,-162 1068,-192 1187,-192 1187,-162 1068,-162"/>
<text text-anchor="start" x="1076" y="-180" font-family="Helvetica,sans-Serif" font-size="10.00">ACarlaGameModeBase</text>
<text text-anchor="middle" x="1127.5" y="-169" font-family="Helvetica,sans-Serif" font-size="10.00">::BeginPlay</text>
</a>
</g>
</g>
<!-- Node5&#45;&gt;Node6 -->
<g id="edge5" class="edge"><title>Node5&#45;&gt;Node6</title>
<path fill="none" stroke="midnightblue" d="M1025.42,-177C1039.66,-177 1054.34,-177 1067.95,-177"/>
<polygon fill="midnightblue" stroke="midnightblue" points="1025.16,-173.5 1015.16,-177 1025.16,-180.5 1025.16,-173.5"/>
</g>
<!-- Node7 -->
<g id="node7" class="node"><title>Node7</title>
<g id="a_node7"><a xlink:href="../../dc/dc6/classCarlaReplayer.html#a61e4b2ce6197fc94c888b722f79e808b" target="_top" xlink:title="CarlaReplayer::SetTimeFactor">
<polygon fill="white" stroke="black" points="1053,-211.5 1053,-230.5 1202,-230.5 1202,-211.5 1053,-211.5"/>
<text text-anchor="middle" x="1127.5" y="-218.5" font-family="Helvetica,sans-Serif" font-size="10.00">CarlaReplayer::SetTimeFactor</text>
</a>
</g>
</g>
<!-- Node5&#45;&gt;Node7 -->
<g id="edge6" class="edge"><title>Node5&#45;&gt;Node7</title>
<path fill="none" stroke="midnightblue" d="M1019.79,-194.474C1043.13,-200.276 1068.24,-206.518 1088.23,-211.488"/>
<polygon fill="midnightblue" stroke="midnightblue" points="1020.47,-191.035 1009.92,-192.019 1018.78,-197.828 1020.47,-191.035"/>
</g>
<!-- Node8 -->
<g id="node8" class="node"><title>Node8</title>
<g id="a_node8"><a xlink:href="../../dd/db9/classACarlaRecorder.html#ab825bc67766ea18c5dac135ea2e05274" target="_top" xlink:title="ACarlaRecorder::SetReplayer\lTimeFactor">
<polygon fill="white" stroke="black" points="1241.5,-184 1241.5,-214 1387.5,-214 1387.5,-184 1241.5,-184"/>
<text text-anchor="start" x="1249.5" y="-202" font-family="Helvetica,sans-Serif" font-size="10.00">ACarlaRecorder::SetReplayer</text>
<text text-anchor="middle" x="1314.5" y="-191" font-family="Helvetica,sans-Serif" font-size="10.00">TimeFactor</text>
</a>
</g>
</g>
<!-- Node7&#45;&gt;Node8 -->
<g id="edge7" class="edge"><title>Node7&#45;&gt;Node8</title>
<path fill="none" stroke="midnightblue" d="M1212.21,-211.046C1221.92,-209.89 1231.77,-208.719 1241.31,-207.585"/>
<polygon fill="midnightblue" stroke="midnightblue" points="1211.67,-207.585 1202.15,-212.242 1212.49,-214.536 1211.67,-207.585"/>
</g>
<!-- Node9 -->
<g id="node9" class="node"><title>Node9</title>
<g id="a_node9"><a xlink:href="../../d7/d97/classFCarlaServer_1_1FPimpl.html#a675a6b572112a21e8bc011dddfd0de86" target="_top" xlink:title="FCarlaServer::FPimpl\l::BindActions">
<polygon fill="white" stroke="black" points="1425,-118 1425,-148 1536,-148 1536,-118 1425,-118"/>
<text text-anchor="start" x="1433" y="-136" font-family="Helvetica,sans-Serif" font-size="10.00">FCarlaServer::FPimpl</text>
<text text-anchor="middle" x="1480.5" y="-125" font-family="Helvetica,sans-Serif" font-size="10.00">::BindActions</text>
</a>
</g>
</g>
<!-- Node8&#45;&gt;Node9 -->
<g id="edge8" class="edge"><title>Node8&#45;&gt;Node9</title>
<path fill="none" stroke="midnightblue" d="M1362.51,-180.083C1387.75,-169.924 1418.44,-157.574 1442.05,-148.071"/>
<polygon fill="midnightblue" stroke="midnightblue" points="1361.1,-176.878 1353.12,-183.858 1363.71,-183.372 1361.1,-176.878"/>
</g>
<!-- Node10 -->
<g id="node10" class="node"><title>Node10</title>
<g id="a_node10"><a xlink:href="../../d7/d97/classFCarlaServer_1_1FPimpl.html#a5521999cb8b42460143ad4b1cd869398" target="_top" xlink:title="FCarlaServer::FPimpl\l::FPimpl">
<polygon fill="white" stroke="black" points="1572,-118 1572,-148 1683,-148 1683,-118 1572,-118"/>
<text text-anchor="start" x="1580" y="-136" font-family="Helvetica,sans-Serif" font-size="10.00">FCarlaServer::FPimpl</text>
<text text-anchor="middle" x="1627.5" y="-125" font-family="Helvetica,sans-Serif" font-size="10.00">::FPimpl</text>
</a>
</g>
</g>
<!-- Node9&#45;&gt;Node10 -->
<g id="edge9" class="edge"><title>Node9&#45;&gt;Node10</title>
<path fill="none" stroke="midnightblue" d="M1546.46,-133C1554.86,-133 1563.39,-133 1571.6,-133"/>
<polygon fill="midnightblue" stroke="midnightblue" points="1546.32,-129.5 1536.32,-133 1546.32,-136.5 1546.32,-129.5"/>
</g>
<!-- Node12 -->
<g id="node12" class="node"><title>Node12</title>
<g id="a_node12"><a xlink:href="../../dd/db9/classACarlaRecorder.html#a912028f1bf530975b60b508f69e63840" target="_top" xlink:title="ACarlaRecorder::ReplayFile">
<polygon fill="white" stroke="black" points="1245,-123.5 1245,-142.5 1384,-142.5 1384,-123.5 1245,-123.5"/>
<text text-anchor="middle" x="1314.5" y="-130.5" font-family="Helvetica,sans-Serif" font-size="10.00">ACarlaRecorder::ReplayFile</text>
</a>
</g>
</g>
<!-- Node11&#45;&gt;Node12 -->
<g id="edge11" class="edge"><title>Node11&#45;&gt;Node12</title>
<path fill="none" stroke="midnightblue" d="M1024.3,-133C1089.04,-133 1181.91,-133 1244.81,-133"/>
<polygon fill="midnightblue" stroke="midnightblue" points="1024.16,-129.5 1014.16,-133 1024.16,-136.5 1024.16,-129.5"/>
</g>
<!-- Node13 -->
<g id="node13" class="node"><title>Node13</title>
<g id="a_node13"><a xlink:href="../../dc/dc6/classCarlaReplayer.html#a6dadadd7719c5e660d2e3d99b22f5961" target="_top" xlink:title="CarlaReplayer::~CarlaReplayer">
<polygon fill="white" stroke="black" points="1051,-85.5 1051,-104.5 1204,-104.5 1204,-85.5 1051,-85.5"/>
<text text-anchor="middle" x="1127.5" y="-92.5" font-family="Helvetica,sans-Serif" font-size="10.00">CarlaReplayer::~CarlaReplayer</text>
</a>
</g>
</g>
<!-- Node11&#45;&gt;Node13 -->
<g id="edge13" class="edge"><title>Node11&#45;&gt;Node13</title>
<path fill="none" stroke="midnightblue" d="M1004.24,-121.247C1029.27,-115.874 1058.53,-109.591 1082.16,-104.52"/>
<polygon fill="midnightblue" stroke="midnightblue" points="1003.21,-117.89 994.165,-123.411 1004.68,-124.734 1003.21,-117.89"/>
</g>
<!-- Node12&#45;&gt;Node9 -->
<g id="edge12" class="edge"><title>Node12&#45;&gt;Node9</title>
<path fill="none" stroke="midnightblue" d="M1394.37,-133C1404.7,-133 1415.08,-133 1424.88,-133"/>
<polygon fill="midnightblue" stroke="midnightblue" points="1394.1,-129.5 1384.1,-133 1394.1,-136.5 1394.1,-129.5"/>
</g>
<!-- Node14&#45;&gt;Node4 -->
<g id="edge18" class="edge"><title>Node14&#45;&gt;Node4</title>
<path fill="none" stroke="midnightblue" d="M775.8,-109.908C765.339,-116.045 751.834,-123.032 741,-131 722.772,-144.406 724.69,-155.851 705,-167 704.763,-167.134 704.526,-167.267 704.287,-167.399"/>
<polygon fill="midnightblue" stroke="midnightblue" points="777.787,-112.793 784.389,-104.507 774.06,-106.868 777.787,-112.793"/>
</g>
<!-- Node14&#45;&gt;Node5 -->
<g id="edge15" class="edge"><title>Node14&#45;&gt;Node5</title>
<path fill="none" stroke="midnightblue" d="M815.551,-110.543C832.815,-122.833 858.199,-139.88 882,-152 888.942,-155.535 896.506,-158.865 903.948,-161.871"/>
<polygon fill="midnightblue" stroke="midnightblue" points="817.473,-107.614 807.315,-104.602 813.377,-113.291 817.473,-107.614"/>
</g>
<!-- Node14&#45;&gt;Node11 -->
<g id="edge19" class="edge"><title>Node14&#45;&gt;Node11</title>
<path fill="none" stroke="midnightblue" d="M842.977,-107.04C864.352,-112.349 889.113,-118.499 909.169,-123.48"/>
<polygon fill="midnightblue" stroke="midnightblue" points="843.657,-103.603 833.108,-104.589 841.97,-110.396 843.657,-103.603"/>
</g>
<!-- Node14&#45;&gt;Node13 -->
<g id="edge23" class="edge"><title>Node14&#45;&gt;Node13</title>
<path fill="none" stroke="midnightblue" d="M856.313,-95C911.315,-95 991.931,-95 1050.79,-95"/>
<polygon fill="midnightblue" stroke="midnightblue" points="856.011,-91.5001 846.011,-95 856.011,-98.5001 856.011,-91.5001"/>
</g>
<!-- Node15 -->
<g id="node15" class="node"><title>Node15</title>
<g id="a_node15"><a xlink:href="../../dc/d84/classUCarlaEpisode.html#a04380aa760fc6891f1c51cdbe7ddb856" target="_top" xlink:title="UCarlaEpisode::EndPlay">
<polygon fill="white" stroke="black" points="886,-44.5 886,-63.5 1011,-63.5 1011,-44.5 886,-44.5"/>
<text text-anchor="middle" x="948.5" y="-51.5" font-family="Helvetica,sans-Serif" font-size="10.00">UCarlaEpisode::EndPlay</text>
</a>
</g>
</g>
<!-- Node14&#45;&gt;Node15 -->
<g id="edge16" class="edge"><title>Node14&#45;&gt;Node15</title>
<path fill="none" stroke="midnightblue" d="M839.877,-82.84C862.907,-76.6686 890.474,-69.2815 911.942,-63.5286"/>
<polygon fill="midnightblue" stroke="midnightblue" points="838.739,-79.5215 829.986,-85.4907 840.551,-86.283 838.739,-79.5215"/>
</g>
<!-- Node17 -->
<g id="node17" class="node"><title>Node17</title>
<g id="a_node17"><a xlink:href="../../dd/db9/classACarlaRecorder.html#a7e65ace2743fdb8e3a21cec33857af76" target="_top" xlink:title="ACarlaRecorder::Start">
<polygon fill="white" stroke="black" points="892,-0.5 892,-19.5 1005,-19.5 1005,-0.5 892,-0.5"/>
<text text-anchor="middle" x="948.5" y="-7.5" font-family="Helvetica,sans-Serif" font-size="10.00">ACarlaRecorder::Start</text>
</a>
</g>
</g>
<!-- Node14&#45;&gt;Node17 -->
<g id="edge20" class="edge"><title>Node14&#45;&gt;Node17</title>
<path fill="none" stroke="midnightblue" d="M814.539,-79.2237C831.738,-66.192 857.55,-47.8175 882,-35 893.427,-29.0096 906.621,-23.6938 918.159,-19.521"/>
<polygon fill="midnightblue" stroke="midnightblue" points="812.177,-76.6241 806.382,-85.4937 816.444,-82.1738 812.177,-76.6241"/>
</g>
<!-- Node16 -->
<g id="node16" class="node"><title>Node16</title>
<g id="a_node16"><a xlink:href="../../db/de5/classACarlaGameModeBase.html#a8e61df047eac428453a627a6de9ace75" target="_top" xlink:title="ACarlaGameModeBase\l::EndPlay">
<polygon fill="white" stroke="black" points="1068,-36 1068,-66 1187,-66 1187,-36 1068,-36"/>
<text text-anchor="start" x="1076" y="-54" font-family="Helvetica,sans-Serif" font-size="10.00">ACarlaGameModeBase</text>
<text text-anchor="middle" x="1127.5" y="-43" font-family="Helvetica,sans-Serif" font-size="10.00">::EndPlay</text>
</a>
</g>
</g>
<!-- Node15&#45;&gt;Node16 -->
<g id="edge17" class="edge"><title>Node15&#45;&gt;Node16</title>
<path fill="none" stroke="midnightblue" d="M1021.44,-52.7807C1036.88,-52.5189 1053.03,-52.2453 1067.9,-51.9932"/>
<polygon fill="midnightblue" stroke="midnightblue" points="1021.35,-49.2817 1011.41,-52.9507 1021.46,-56.2807 1021.35,-49.2817"/>
</g>
<!-- Node18 -->
<g id="node18" class="node"><title>Node18</title>
<g id="a_node18"><a xlink:href="../../dc/d84/classUCarlaEpisode.html#a74547d3e3536fe8d1b30b1db8e1c7704" target="_top" xlink:title="UCarlaEpisode::StartRecorder">
<polygon fill="white" stroke="black" points="1240,-41.5 1240,-60.5 1389,-60.5 1389,-41.5 1240,-41.5"/>
<text text-anchor="middle" x="1314.5" y="-48.5" font-family="Helvetica,sans-Serif" font-size="10.00">UCarlaEpisode::StartRecorder</text>
</a>
</g>
</g>
<!-- Node17&#45;&gt;Node18 -->
<g id="edge21" class="edge"><title>Node17&#45;&gt;Node18</title>
<path fill="none" stroke="midnightblue" d="M1015.38,-11.2227C1066.94,-12.8823 1140.33,-16.7921 1204,-26 1229.09,-29.6283 1256.93,-36.0184 1278.27,-41.4298"/>
<polygon fill="midnightblue" stroke="midnightblue" points="1015.47,-7.72392 1005.37,-10.9199 1015.26,-14.7207 1015.47,-7.72392"/>
</g>
<!-- Node18&#45;&gt;Node9 -->
<g id="edge22" class="edge"><title>Node18&#45;&gt;Node9</title>
<path fill="none" stroke="midnightblue" d="M1343.95,-65.2272C1373.43,-79.9645 1419.3,-102.902 1449.38,-117.94"/>
<polygon fill="midnightblue" stroke="midnightblue" points="1345.14,-61.9086 1334.63,-60.5669 1342.01,-68.1696 1345.14,-61.9086"/>
</g>
<!-- Node19&#45;&gt;Node7 -->
<g id="edge25" class="edge"><title>Node19&#45;&gt;Node7</title>
<path fill="none" stroke="midnightblue" d="M855.716,-221C911.356,-221 993.564,-221 1052.79,-221"/>
<polygon fill="midnightblue" stroke="midnightblue" points="855.647,-217.5 845.647,-221 855.647,-224.5 855.647,-217.5"/>
</g>
<!-- Node20 -->
<g id="node20" class="node"><title>Node20</title>
<g id="a_node20"><a xlink:href="../../dd/db9/classACarlaRecorder.html#a6ce7c971c726e4364079a2f0ada13af8" target="_top" xlink:title="ACarlaRecorder::Tick">
<polygon fill="white" stroke="black" points="893,-252.5 893,-271.5 1004,-271.5 1004,-252.5 893,-252.5"/>
<text text-anchor="middle" x="948.5" y="-259.5" font-family="Helvetica,sans-Serif" font-size="10.00">ACarlaRecorder::Tick</text>
</a>
</g>
</g>
<!-- Node19&#45;&gt;Node20 -->
<g id="edge26" class="edge"><title>Node19&#45;&gt;Node20</title>
<path fill="none" stroke="midnightblue" d="M839.877,-233.16C862.907,-239.331 890.474,-246.718 911.942,-252.471"/>
<polygon fill="midnightblue" stroke="midnightblue" points="840.551,-229.717 829.986,-230.509 838.739,-236.478 840.551,-229.717"/>
</g>
<!-- Node21 -->
<g id="node21" class="node"><title>Node21</title>
<g id="a_node21"><a xlink:href="../../db/de5/classACarlaGameModeBase.html#adf8c08bfdd024abd10623c73ae8bc7a5" target="_top" xlink:title="ACarlaGameModeBase\l::Tick">
<polygon fill="white" stroke="black" points="1068,-250 1068,-280 1187,-280 1187,-250 1068,-250"/>
<text text-anchor="start" x="1076" y="-268" font-family="Helvetica,sans-Serif" font-size="10.00">ACarlaGameModeBase</text>
<text text-anchor="middle" x="1127.5" y="-257" font-family="Helvetica,sans-Serif" font-size="10.00">::Tick</text>
</a>
</g>
</g>
<!-- Node20&#45;&gt;Node21 -->
<g id="edge27" class="edge"><title>Node20&#45;&gt;Node21</title>
<path fill="none" stroke="midnightblue" d="M1014.2,-263.097C1031.74,-263.394 1050.64,-263.714 1067.83,-264.006"/>
<polygon fill="midnightblue" stroke="midnightblue" points="1014.11,-259.595 1004.05,-262.925 1013.99,-266.594 1014.11,-259.595"/>
</g>
<!-- Node23 -->
<g id="node23" class="node"><title>Node23</title>
<g id="a_node23"><a xlink:href="../../dc/dc6/classCarlaReplayer.html#a07a8e6e514ae92cce3538ba07f67d413" target="_top" xlink:title="CarlaReplayer::SetEpisode">
<polygon fill="white" stroke="black" points="560.5,-129.5 560.5,-148.5 695.5,-148.5 695.5,-129.5 560.5,-129.5"/>
<text text-anchor="middle" x="628" y="-136.5" font-family="Helvetica,sans-Serif" font-size="10.00">CarlaReplayer::SetEpisode</text>
</a>
</g>
</g>
<!-- Node22&#45;&gt;Node23 -->
<g id="edge29" class="edge"><title>Node22&#45;&gt;Node23</title>
<path fill="none" stroke="midnightblue" d="M494.266,-139C515.327,-139 538.884,-139 560.24,-139"/>
<polygon fill="midnightblue" stroke="midnightblue" points="494.148,-135.5 484.148,-139 494.148,-142.5 494.148,-135.5"/>
</g>
<!-- Node24&#45;&gt;Node14 -->
<g id="edge32" class="edge"><title>Node24&#45;&gt;Node14</title>
<path fill="none" stroke="midnightblue" d="M312.378,-111.541C425.148,-107.656 641.864,-100.19 740.872,-96.7787"/>
<polygon fill="midnightblue" stroke="midnightblue" points="312.001,-108.052 302.127,-111.894 312.242,-115.048 312.001,-108.052"/>
</g>
<!-- Node24&#45;&gt;Node22 -->
<g id="edge31" class="edge"><title>Node24&#45;&gt;Node22</title>
<path fill="none" stroke="midnightblue" d="M312.243,-123.449C333.688,-126.293 356.826,-129.362 376.836,-132.015"/>
<polygon fill="midnightblue" stroke="midnightblue" points="312.574,-119.962 302.201,-122.117 311.654,-126.901 312.574,-119.962"/>
</g>
</g>
</svg>
