<?xml version="1.0" encoding="UTF-8" standalone="no"?>
<!DOCTYPE svg PUBLIC "-//W3C//DTD SVG 1.1//EN"
 "http://www.w3.org/Graphics/SVG/1.1/DTD/svg11.dtd">
<!-- Generated by graphviz version 2.40.1 (20161225.0304)
 -->
<!-- Title: CarlaReplayerHelper::SetActorAutopilot Pages: 1 -->
<svg width="1787pt" height="367pt"
 viewBox="0.00 0.00 1787.00 367.00" xmlns="http://www.w3.org/2000/svg" xmlns:xlink="http://www.w3.org/1999/xlink">
<g id="graph0" class="graph" transform="scale(1 1) rotate(0) translate(4 363)">
<title>CarlaReplayerHelper::SetActorAutopilot</title>
<polygon fill="#ffffff" stroke="transparent" points="-4,4 -4,-363 1783,-363 1783,4 -4,4"/>
<!-- Node491 -->
<g id="node1" class="node">
<title>Node491</title>
<polygon fill="#bfbfbf" stroke="#000000" points="0,-136.5 0,-166.5 117,-166.5 117,-136.5 0,-136.5"/>
<text text-anchor="start" x="8" y="-154.5" font-family="Helvetica,sans-Serif" font-size="10.00" fill="#000000">CarlaReplayerHelper</text>
<text text-anchor="middle" x="58.5" y="-143.5" font-family="Helvetica,sans-Serif" font-size="10.00" fill="#000000">::SetActorAutopilot</text>
</g>
<!-- Node492 -->
<g id="node2" class="node">
<title>Node492</title>
<g id="a_node2"><a xlink:href="../../d8/d27/classCarlaReplayerHelper.html#a7748611f9da8e11ff26727d929da5658" target="_top" xlink:title="CarlaReplayerHelper\l::ProcessReplayerEventAdd">
<polygon fill="#ffffff" stroke="#000000" points="153,-136.5 153,-166.5 302,-166.5 302,-136.5 153,-136.5"/>
<text text-anchor="start" x="161" y="-154.5" font-family="Helvetica,sans-Serif" font-size="10.00" fill="#000000">CarlaReplayerHelper</text>
<text text-anchor="middle" x="227.5" y="-143.5" font-family="Helvetica,sans-Serif" font-size="10.00" fill="#000000">::ProcessReplayerEventAdd</text>
</a>
</g>
</g>
<!-- Node491&#45;&gt;Node492 -->
<g id="edge1" class="edge">
<title>Node491&#45;&gt;Node492</title>
<path fill="none" stroke="#191970" d="M127.2918,-151.5C135.7271,-151.5 144.3789,-151.5 152.8947,-151.5"/>
<polygon fill="#191970" stroke="#191970" points="127.1337,-148.0001 117.1337,-151.5 127.1337,-155.0001 127.1337,-148.0001"/>
</g>
<!-- Node493 -->
<g id="node3" class="node">
<title>Node493</title>
<g id="a_node3"><a xlink:href="../../dc/dc6/classCarlaReplayer.html#a929a7a4c79086339485caba9f6562c8e" target="_top" xlink:title="CarlaReplayer::ProcessEventsAdd">
<polygon fill="#ffffff" stroke="#000000" points="338,-164 338,-183 518,-183 518,-164 338,-164"/>
<text text-anchor="middle" x="428" y="-171" font-family="Helvetica,sans-Serif" font-size="10.00" fill="#000000">CarlaReplayer::ProcessEventsAdd</text>
</a>
</g>
</g>
<!-- Node492&#45;&gt;Node493 -->
<g id="edge2" class="edge">
<title>Node492&#45;&gt;Node493</title>
<path fill="none" stroke="#191970" d="M312.3806,-160.8136C321.8844,-161.8564 331.5769,-162.9199 341.1055,-163.9654"/>
<polygon fill="#191970" stroke="#191970" points="312.4809,-157.3037 302.1588,-159.692 311.7174,-164.2619 312.4809,-157.3037"/>
</g>
<!-- Node516 -->
<g id="node26" class="node">
<title>Node516</title>
<g id="a_node26"><a xlink:href="../../d8/d27/classCarlaReplayerHelper.html#a796c4b4a2fd59f841bf3967e55f5cace" target="_top" xlink:title="CarlaReplayerHelper\l::SetEpisode">
<polygon fill="#ffffff" stroke="#000000" points="369.5,-114.5 369.5,-144.5 486.5,-144.5 486.5,-114.5 369.5,-114.5"/>
<text text-anchor="start" x="377.5" y="-132.5" font-family="Helvetica,sans-Serif" font-size="10.00" fill="#000000">CarlaReplayerHelper</text>
<text text-anchor="middle" x="428" y="-121.5" font-family="Helvetica,sans-Serif" font-size="10.00" fill="#000000">::SetEpisode</text>
</a>
</g>
</g>
<!-- Node492&#45;&gt;Node516 -->
<g id="edge34" class="edge">
<title>Node492&#45;&gt;Node516</title>
<path fill="none" stroke="#191970" d="M312.1279,-142.2141C331.3583,-140.1041 351.3749,-137.9077 369.253,-135.9461"/>
<polygon fill="#191970" stroke="#191970" points="311.7174,-138.7381 302.1588,-143.308 312.4809,-145.6963 311.7174,-138.7381"/>
</g>
<!-- Node494 -->
<g id="node4" class="node">
<title>Node494</title>
<g id="a_node4"><a xlink:href="../../dc/dc6/classCarlaReplayer.html#ae0a5643d88257bdceb9e12d5c33194cb" target="_top" xlink:title="CarlaReplayer::ProcessToTime">
<polygon fill="#ffffff" stroke="#000000" points="554,-164 554,-183 718,-183 718,-164 554,-164"/>
<text text-anchor="middle" x="636" y="-171" font-family="Helvetica,sans-Serif" font-size="10.00" fill="#000000">CarlaReplayer::ProcessToTime</text>
</a>
</g>
</g>
<!-- Node493&#45;&gt;Node494 -->
<g id="edge3" class="edge">
<title>Node493&#45;&gt;Node494</title>
<path fill="none" stroke="#191970" d="M528.0716,-173.5C536.6582,-173.5 545.2806,-173.5 553.7042,-173.5"/>
<polygon fill="#191970" stroke="#191970" points="528.0221,-170.0001 518.0221,-173.5 528.0221,-177.0001 528.0221,-170.0001"/>
</g>
<!-- Node495 -->
<g id="node5" class="node">
<title>Node495</title>
<g id="a_node5"><a xlink:href="../../dc/dc6/classCarlaReplayer.html#ac70d3dbe1f79ffd25a695ec3bd2485e6" target="_top" xlink:title="CarlaReplayer::CheckPlay\lAfterMapLoaded">
<polygon fill="#ffffff" stroke="#000000" points="903,-202.5 903,-232.5 1045,-232.5 1045,-202.5 903,-202.5"/>
<text text-anchor="start" x="911" y="-220.5" font-family="Helvetica,sans-Serif" font-size="10.00" fill="#000000">CarlaReplayer::CheckPlay</text>
<text text-anchor="middle" x="974" y="-209.5" font-family="Helvetica,sans-Serif" font-size="10.00" fill="#000000">AfterMapLoaded</text>
</a>
</g>
</g>
<!-- Node494&#45;&gt;Node495 -->
<g id="edge4" class="edge">
<title>Node494&#45;&gt;Node495</title>
<path fill="none" stroke="#191970" d="M719.293,-184.3429C775.6261,-191.6762 849.2377,-201.2587 902.8302,-208.2353"/>
<polygon fill="#191970" stroke="#191970" points="719.7091,-180.8676 709.341,-183.0473 718.8055,-187.809 719.7091,-180.8676"/>
</g>
<!-- Node502 -->
<g id="node12" class="node">
<title>Node502</title>
<g id="a_node12"><a xlink:href="../../dc/dc6/classCarlaReplayer.html#a480fd94fedc2367d7f7f58f17f3cd5a4" target="_top" xlink:title="CarlaReplayer::ReplayFile">
<polygon fill="#ffffff" stroke="#000000" points="904,-164 904,-183 1044,-183 1044,-164 904,-164"/>
<text text-anchor="middle" x="974" y="-171" font-family="Helvetica,sans-Serif" font-size="10.00" fill="#000000">CarlaReplayer::ReplayFile</text>
</a>
</g>
</g>
<!-- Node494&#45;&gt;Node502 -->
<g id="edge11" class="edge">
<title>Node494&#45;&gt;Node502</title>
<path fill="none" stroke="#191970" d="M728.4248,-173.5C783.8145,-173.5 853.1211,-173.5 903.9702,-173.5"/>
<polygon fill="#191970" stroke="#191970" points="728.2519,-170.0001 718.2519,-173.5 728.2519,-177.0001 728.2519,-170.0001"/>
</g>
<!-- Node505 -->
<g id="node15" class="node">
<title>Node505</title>
<g id="a_node15"><a xlink:href="../../dc/dc6/classCarlaReplayer.html#af627917f2c95135fb11b59af4f65dbf7" target="_top" xlink:title="CarlaReplayer::Stop">
<polygon fill="#ffffff" stroke="#000000" points="754,-126 754,-145 867,-145 867,-126 754,-126"/>
<text text-anchor="middle" x="810.5" y="-133" font-family="Helvetica,sans-Serif" font-size="10.00" fill="#000000">CarlaReplayer::Stop</text>
</a>
</g>
</g>
<!-- Node494&#45;&gt;Node505 -->
<g id="edge15" class="edge">
<title>Node494&#45;&gt;Node505</title>
<path fill="none" stroke="#191970" d="M668.0874,-161.1436C691.9971,-154.5343 725.2766,-146.9529 753.6526,-141.5076"/>
<polygon fill="#191970" stroke="#191970" points="667.1022,-157.785 658.4556,-163.9076 669.0331,-164.5134 667.1022,-157.785"/>
</g>
<!-- Node511 -->
<g id="node21" class="node">
<title>Node511</title>
<g id="a_node21"><a xlink:href="../../dc/dc6/classCarlaReplayer.html#a4aeceb13aaa5dfcbf3ee42d7582262a4" target="_top" xlink:title="CarlaReplayer::Tick">
<polygon fill="#ffffff" stroke="#000000" points="755,-290 755,-309 866,-309 866,-290 755,-290"/>
<text text-anchor="middle" x="810.5" y="-297" font-family="Helvetica,sans-Serif" font-size="10.00" fill="#000000">CarlaReplayer::Tick</text>
</a>
</g>
</g>
<!-- Node494&#45;&gt;Node511 -->
<g id="edge27" class="edge">
<title>Node494&#45;&gt;Node511</title>
<path fill="none" stroke="#191970" d="M657.9093,-189.3199C694.6188,-215.8264 767.4574,-268.4205 797.2902,-289.9617"/>
<polygon fill="#191970" stroke="#191970" points="659.5593,-186.1943 649.403,-183.1778 655.4615,-191.8695 659.5593,-186.1943"/>
</g>
<!-- Node496 -->
<g id="node6" class="node">
<title>Node496</title>
<g id="a_node6"><a xlink:href="../../db/de5/classACarlaGameModeBase.html#a3909b055b351f69d7ad1e39a42e72e3d" target="_top" xlink:title="ACarlaGameModeBase\l::BeginPlay">
<polygon fill="#ffffff" stroke="#000000" points="1100.5,-240.5 1100.5,-270.5 1228.5,-270.5 1228.5,-240.5 1100.5,-240.5"/>
<text text-anchor="start" x="1108.5" y="-258.5" font-family="Helvetica,sans-Serif" font-size="10.00" fill="#000000">ACarlaGameModeBase</text>
<text text-anchor="middle" x="1164.5" y="-247.5" font-family="Helvetica,sans-Serif" font-size="10.00" fill="#000000">::BeginPlay</text>
</a>
</g>
</g>
<!-- Node495&#45;&gt;Node496 -->
<g id="edge5" class="edge">
<title>Node495&#45;&gt;Node496</title>
<path fill="none" stroke="#191970" d="M1055.0509,-233.6676C1070.1642,-236.6824 1085.7653,-239.7944 1100.286,-242.6909"/>
<polygon fill="#191970" stroke="#191970" points="1055.6976,-230.2277 1045.2061,-231.7038 1054.3282,-237.0925 1055.6976,-230.2277"/>
</g>
<!-- Node497 -->
<g id="node7" class="node">
<title>Node497</title>
<g id="a_node7"><a xlink:href="../../dc/d49/classFCarlaEngine.html#ab4c918e4d4855a26ab57c4bb79ad4645" target="_top" xlink:title="FCarlaEngine::NotifyBegin\lEpisode">
<polygon fill="#ffffff" stroke="#000000" points="1481,-210.5 1481,-240.5 1625,-240.5 1625,-210.5 1481,-210.5"/>
<text text-anchor="start" x="1489" y="-228.5" font-family="Helvetica,sans-Serif" font-size="10.00" fill="#000000">FCarlaEngine::NotifyBegin</text>
<text text-anchor="middle" x="1553" y="-217.5" font-family="Helvetica,sans-Serif" font-size="10.00" fill="#000000">Episode</text>
</a>
</g>
</g>
<!-- Node495&#45;&gt;Node497 -->
<g id="edge6" class="edge">
<title>Node495&#45;&gt;Node497</title>
<path fill="none" stroke="#191970" d="M1055.2939,-218.6232C1168.5989,-220.1888 1372.2514,-223.0026 1480.5942,-224.4996"/>
<polygon fill="#191970" stroke="#191970" points="1055.3343,-215.1236 1045.2869,-218.485 1055.2375,-222.1229 1055.3343,-215.1236"/>
</g>
<!-- Node498 -->
<g id="node8" class="node">
<title>Node498</title>
<g id="a_node8"><a xlink:href="../../dc/dc6/classCarlaReplayer.html#a47b21aa77b6cdedc32211364843a3173" target="_top" xlink:title="CarlaReplayer::SetIgnoreHero">
<polygon fill="#ffffff" stroke="#000000" points="1084,-290 1084,-309 1245,-309 1245,-290 1084,-290"/>
<text text-anchor="middle" x="1164.5" y="-297" font-family="Helvetica,sans-Serif" font-size="10.00" fill="#000000">CarlaReplayer::SetIgnoreHero</text>
</a>
</g>
</g>
<!-- Node495&#45;&gt;Node498 -->
<g id="edge7" class="edge">
<title>Node495&#45;&gt;Node498</title>
<path fill="none" stroke="#191970" d="M1003.5068,-238.2445C1024.3129,-252.0099 1053.3004,-269.5027 1081,-280.5 1090.5343,-284.2853 1100.9951,-287.4104 1111.1903,-289.9562"/>
<polygon fill="#191970" stroke="#191970" points="1005.3696,-235.2795 995.1184,-232.6031 1001.4631,-241.0881 1005.3696,-235.2795"/>
</g>
<!-- Node499 -->
<g id="node9" class="node">
<title>Node499</title>
<g id="a_node9"><a xlink:href="../../dd/db9/classACarlaRecorder.html#aa4e9ff291f4b6b58c2313b4985b94443" target="_top" xlink:title="ACarlaRecorder::SetReplayer\lIgnoreHero">
<polygon fill="#ffffff" stroke="#000000" points="1286.5,-240.5 1286.5,-270.5 1442.5,-270.5 1442.5,-240.5 1286.5,-240.5"/>
<text text-anchor="start" x="1294.5" y="-258.5" font-family="Helvetica,sans-Serif" font-size="10.00" fill="#000000">ACarlaRecorder::SetReplayer</text>
<text text-anchor="middle" x="1364.5" y="-247.5" font-family="Helvetica,sans-Serif" font-size="10.00" fill="#000000">IgnoreHero</text>
</a>
</g>
</g>
<!-- Node498&#45;&gt;Node499 -->
<g id="edge8" class="edge">
<title>Node498&#45;&gt;Node499</title>
<path fill="none" stroke="#191970" d="M1217.8746,-287.7576C1241.867,-282.4793 1270.4728,-276.186 1296.0211,-270.5654"/>
<polygon fill="#191970" stroke="#191970" points="1216.9114,-284.3857 1207.897,-289.9527 1218.4155,-291.2222 1216.9114,-284.3857"/>
</g>
<!-- Node500 -->
<g id="node10" class="node">
<title>Node500</title>
<g id="a_node10"><a xlink:href="../../d7/d97/classFCarlaServer_1_1FPimpl.html#a675a6b572112a21e8bc011dddfd0de86" target="_top" xlink:title="FCarlaServer::FPimpl\l::BindActions">
<polygon fill="#ffffff" stroke="#000000" points="1494,-143.5 1494,-173.5 1612,-173.5 1612,-143.5 1494,-143.5"/>
<text text-anchor="start" x="1502" y="-161.5" font-family="Helvetica,sans-Serif" font-size="10.00" fill="#000000">FCarlaServer::FPimpl</text>
<text text-anchor="middle" x="1553" y="-150.5" font-family="Helvetica,sans-Serif" font-size="10.00" fill="#000000">::BindActions</text>
</a>
</g>
</g>
<!-- Node499&#45;&gt;Node500 -->
<g id="edge9" class="edge">
<title>Node499&#45;&gt;Node500</title>
<path fill="none" stroke="#191970" d="M1403.1193,-235.6269C1438.8969,-217.2162 1491.3307,-190.2343 1523.7537,-173.5498"/>
<polygon fill="#191970" stroke="#191970" points="1401.2434,-232.656 1393.9531,-240.3438 1404.4464,-238.8802 1401.2434,-232.656"/>
</g>
<!-- Node501 -->
<g id="node11" class="node">
<title>Node501</title>
<g id="a_node11"><a xlink:href="../../d7/d97/classFCarlaServer_1_1FPimpl.html#a5521999cb8b42460143ad4b1cd869398" target="_top" xlink:title="FCarlaServer::FPimpl\l::FPimpl">
<polygon fill="#ffffff" stroke="#000000" points="1661,-143.5 1661,-173.5 1779,-173.5 1779,-143.5 1661,-143.5"/>
<text text-anchor="start" x="1669" y="-161.5" font-family="Helvetica,sans-Serif" font-size="10.00" fill="#000000">FCarlaServer::FPimpl</text>
<text text-anchor="middle" x="1720" y="-150.5" font-family="Helvetica,sans-Serif" font-size="10.00" fill="#000000">::FPimpl</text>
</a>
</g>
</g>
<!-- Node500&#45;&gt;Node501 -->
<g id="edge10" class="edge">
<title>Node500&#45;&gt;Node501</title>
<path fill="none" stroke="#191970" d="M1622.4589,-158.5C1635.2159,-158.5 1648.4231,-158.5 1660.8429,-158.5"/>
<polygon fill="#191970" stroke="#191970" points="1622.3482,-155.0001 1612.3482,-158.5 1622.3481,-162.0001 1622.3482,-155.0001"/>
</g>
<!-- Node503 -->
<g id="node13" class="node">
<title>Node503</title>
<g id="a_node13"><a xlink:href="../../dd/db9/classACarlaRecorder.html#a5dc891241c275eedcf6b1f189751520b" target="_top" xlink:title="ACarlaRecorder::ReplayFile">
<polygon fill="#ffffff" stroke="#000000" points="1291,-159 1291,-178 1438,-178 1438,-159 1291,-159"/>
<text text-anchor="middle" x="1364.5" y="-166" font-family="Helvetica,sans-Serif" font-size="10.00" fill="#000000">ACarlaRecorder::ReplayFile</text>
</a>
</g>
</g>
<!-- Node502&#45;&gt;Node503 -->
<g id="edge12" class="edge">
<title>Node502&#45;&gt;Node503</title>
<path fill="none" stroke="#191970" d="M1054.2869,-172.472C1123.7487,-171.5826 1223.3617,-170.3071 1290.8196,-169.4434"/>
<polygon fill="#191970" stroke="#191970" points="1054.2189,-168.9725 1044.2646,-172.6003 1054.3086,-175.9719 1054.2189,-168.9725"/>
</g>
<!-- Node504 -->
<g id="node14" class="node">
<title>Node504</title>
<g id="a_node14"><a xlink:href="../../dc/dc6/classCarlaReplayer.html#a6dadadd7719c5e660d2e3d99b22f5961" target="_top" xlink:title="CarlaReplayer::~CarlaReplayer">
<polygon fill="#ffffff" stroke="#000000" points="1081,-126 1081,-145 1248,-145 1248,-126 1081,-126"/>
<text text-anchor="middle" x="1164.5" y="-133" font-family="Helvetica,sans-Serif" font-size="10.00" fill="#000000">CarlaReplayer::~CarlaReplayer</text>
</a>
</g>
</g>
<!-- Node502&#45;&gt;Node504 -->
<g id="edge14" class="edge">
<title>Node502&#45;&gt;Node504</title>
<path fill="none" stroke="#191970" d="M1032.2003,-161.8905C1059.2938,-156.486 1091.125,-150.1365 1116.7745,-145.0201"/>
<polygon fill="#191970" stroke="#191970" points="1031.1933,-158.5223 1022.0712,-163.911 1032.5627,-165.3871 1031.1933,-158.5223"/>
</g>
<!-- Node503&#45;&gt;Node500 -->
<g id="edge13" class="edge">
<title>Node503&#45;&gt;Node500</title>
<path fill="none" stroke="#191970" d="M1448.2424,-164.0574C1463.6512,-163.24 1479.4393,-162.4024 1493.9316,-161.6336"/>
<polygon fill="#191970" stroke="#191970" points="1447.9894,-160.5658 1438.1889,-164.5908 1448.3603,-167.556 1447.9894,-160.5658"/>
</g>
<!-- Node505&#45;&gt;Node494 -->
<g id="edge19" class="edge">
<title>Node505&#45;&gt;Node494</title>
<path fill="none" stroke="#191970" d="M778.667,-147.786C759.5513,-153.0793 734.3805,-159.0046 710.5099,-163.96"/>
<polygon fill="#191970" stroke="#191970" points="779.7013,-151.1305 788.3441,-145.0025 777.7663,-144.4032 779.7013,-151.1305"/>
</g>
<!-- Node505&#45;&gt;Node495 -->
<g id="edge16" class="edge">
<title>Node505&#45;&gt;Node495</title>
<path fill="none" stroke="#191970" d="M832.548,-150.9537C850.8281,-163.3016 877.8069,-180.4728 903,-192.5 910.5477,-196.1033 918.759,-199.4674 926.8304,-202.4868"/>
<polygon fill="#191970" stroke="#191970" points="834.3072,-147.9165 824.0782,-145.1563 830.3533,-153.6929 834.3072,-147.9165"/>
</g>
<!-- Node505&#45;&gt;Node502 -->
<g id="edge20" class="edge">
<title>Node505&#45;&gt;Node502</title>
<path fill="none" stroke="#191970" d="M861.6844,-147.3961C884.6661,-152.7374 911.4125,-158.9537 933.0387,-163.9799"/>
<polygon fill="#191970" stroke="#191970" points="862.2907,-143.9438 851.758,-145.089 860.706,-150.762 862.2907,-143.9438"/>
</g>
<!-- Node505&#45;&gt;Node504 -->
<g id="edge26" class="edge">
<title>Node505&#45;&gt;Node504</title>
<path fill="none" stroke="#191970" d="M877.4729,-135.5C935.134,-135.5 1018.6136,-135.5 1080.6946,-135.5"/>
<polygon fill="#191970" stroke="#191970" points="877.3763,-132.0001 867.3762,-135.5 877.3762,-139.0001 877.3763,-132.0001"/>
</g>
<!-- Node506 -->
<g id="node16" class="node">
<title>Node506</title>
<g id="a_node16"><a xlink:href="../../dc/d84/classUCarlaEpisode.html#a04380aa760fc6891f1c51cdbe7ddb856" target="_top" xlink:title="UCarlaEpisode::EndPlay">
<polygon fill="#ffffff" stroke="#000000" points="907.5,-9 907.5,-28 1040.5,-28 1040.5,-9 907.5,-9"/>
<text text-anchor="middle" x="974" y="-16" font-family="Helvetica,sans-Serif" font-size="10.00" fill="#000000">UCarlaEpisode::EndPlay</text>
</a>
</g>
</g>
<!-- Node505&#45;&gt;Node506 -->
<g id="edge17" class="edge">
<title>Node505&#45;&gt;Node506</title>
<path fill="none" stroke="#191970" d="M824.7502,-117.8129C841.6089,-97.8821 871.4009,-65.6448 903,-45.5 914.4537,-38.1981 928.1842,-32.4012 940.5054,-28.0803"/>
<polygon fill="#191970" stroke="#191970" points="821.8386,-115.841 818.1515,-125.7736 827.2279,-120.3082 821.8386,-115.841"/>
</g>
<!-- Node508 -->
<g id="node18" class="node">
<title>Node508</title>
<g id="a_node18"><a xlink:href="../../dd/db9/classACarlaRecorder.html#aba719596bd56c72a39f902f6e9a5d290" target="_top" xlink:title="ACarlaRecorder::Start">
<polygon fill="#ffffff" stroke="#000000" points="913.5,-88 913.5,-107 1034.5,-107 1034.5,-88 913.5,-88"/>
<text text-anchor="middle" x="974" y="-95" font-family="Helvetica,sans-Serif" font-size="10.00" fill="#000000">ACarlaRecorder::Start</text>
</a>
</g>
</g>
<!-- Node505&#45;&gt;Node508 -->
<g id="edge21" class="edge">
<title>Node505&#45;&gt;Node508</title>
<path fill="none" stroke="#191970" d="M861.6844,-123.6039C884.6661,-118.2626 911.4125,-112.0463 933.0387,-107.0201"/>
<polygon fill="#191970" stroke="#191970" points="860.706,-120.238 851.758,-125.911 862.2907,-127.0562 860.706,-120.238"/>
</g>
<!-- Node510 -->
<g id="node20" class="node">
<title>Node510</title>
<g id="a_node20"><a xlink:href="../../dd/db9/classACarlaRecorder.html#a33fb5180defd8c9c1d3063eff52c7a37" target="_top" xlink:title="ACarlaRecorder::StopReplayer">
<polygon fill="#ffffff" stroke="#000000" points="1083.5,-50 1083.5,-69 1245.5,-69 1245.5,-50 1083.5,-50"/>
<text text-anchor="middle" x="1164.5" y="-57" font-family="Helvetica,sans-Serif" font-size="10.00" fill="#000000">ACarlaRecorder::StopReplayer</text>
</a>
</g>
</g>
<!-- Node505&#45;&gt;Node510 -->
<g id="edge24" class="edge">
<title>Node505&#45;&gt;Node510</title>
<path fill="none" stroke="#191970" d="M829.7463,-119.7707C847.5602,-106.1995 875.3875,-87.418 903,-78.5 961.3682,-59.6489 1030.742,-55.3788 1083.3638,-55.5627"/>
<polygon fill="#191970" stroke="#191970" points="827.5697,-117.0297 821.8505,-125.9483 831.8832,-122.5428 827.5697,-117.0297"/>
</g>
<!-- Node507 -->
<g id="node17" class="node">
<title>Node507</title>
<g id="a_node17"><a xlink:href="../../db/de5/classACarlaGameModeBase.html#a8e61df047eac428453a627a6de9ace75" target="_top" xlink:title="ACarlaGameModeBase\l::EndPlay">
<polygon fill="#ffffff" stroke="#000000" points="1100.5,-.5 1100.5,-30.5 1228.5,-30.5 1228.5,-.5 1100.5,-.5"/>
<text text-anchor="start" x="1108.5" y="-18.5" font-family="Helvetica,sans-Serif" font-size="10.00" fill="#000000">ACarlaGameModeBase</text>
<text text-anchor="middle" x="1164.5" y="-7.5" font-family="Helvetica,sans-Serif" font-size="10.00" fill="#000000">::EndPlay</text>
</a>
</g>
</g>
<!-- Node506&#45;&gt;Node507 -->
<g id="edge18" class="edge">
<title>Node506&#45;&gt;Node507</title>
<path fill="none" stroke="#191970" d="M1050.7777,-17.2909C1067.2687,-17.0312 1084.5278,-16.7594 1100.4741,-16.5083"/>
<polygon fill="#191970" stroke="#191970" points="1050.5713,-13.7936 1040.6277,-17.4507 1050.6816,-20.7928 1050.5713,-13.7936"/>
</g>
<!-- Node509 -->
<g id="node19" class="node">
<title>Node509</title>
<g id="a_node19"><a xlink:href="../../dc/d84/classUCarlaEpisode.html#a1059ce6d102804115b3243de46d46bec" target="_top" xlink:title="UCarlaEpisode::StartRecorder">
<polygon fill="#ffffff" stroke="#000000" points="1284.5,-112 1284.5,-131 1444.5,-131 1444.5,-112 1284.5,-112"/>
<text text-anchor="middle" x="1364.5" y="-119" font-family="Helvetica,sans-Serif" font-size="10.00" fill="#000000">UCarlaEpisode::StartRecorder</text>
</a>
</g>
</g>
<!-- Node508&#45;&gt;Node509 -->
<g id="edge22" class="edge">
<title>Node508&#45;&gt;Node509</title>
<path fill="none" stroke="#191970" d="M1044.7127,-101.846C1112.2711,-105.9981 1213.9714,-112.2486 1284.4692,-116.5813"/>
<polygon fill="#191970" stroke="#191970" points="1044.7831,-98.3438 1034.5872,-101.2237 1044.3536,-105.3306 1044.7831,-98.3438"/>
</g>
<!-- Node509&#45;&gt;Node500 -->
<g id="edge23" class="edge">
<title>Node509&#45;&gt;Node500</title>
<path fill="none" stroke="#191970" d="M1423.1348,-133.0092C1445.6339,-137.4255 1471.3077,-142.4649 1493.8544,-146.8905"/>
<polygon fill="#191970" stroke="#191970" points="1423.5304,-129.5201 1413.0434,-131.0284 1422.182,-136.3891 1423.5304,-129.5201"/>
</g>
<!-- Node510&#45;&gt;Node500 -->
<g id="edge25" class="edge">
<title>Node510&#45;&gt;Node500</title>
<path fill="none" stroke="#191970" d="M1255.8169,-65.9202C1311.5284,-71.6845 1383.5982,-82.4764 1445,-102.5 1475.7223,-112.5188 1508.2987,-130.5648 1529.5392,-143.4644"/>
<polygon fill="#191970" stroke="#191970" points="1255.9092,-62.4121 1245.6109,-64.9013 1255.2137,-69.3775 1255.9092,-62.4121"/>
</g>
<!-- Node511&#45;&gt;Node498 -->
<g id="edge28" class="edge">
<title>Node511&#45;&gt;Node498</title>
<path fill="none" stroke="#191970" d="M876.4611,-299.5C935.1165,-299.5 1021.0625,-299.5 1083.8013,-299.5"/>
<polygon fill="#191970" stroke="#191970" points="876.202,-296.0001 866.2019,-299.5 876.2019,-303.0001 876.202,-296.0001"/>
</g>
<!-- Node512 -->
<g id="node22" class="node">
<title>Node512</title>
<g id="a_node22"><a xlink:href="../../dd/db9/classACarlaRecorder.html#a1074f19dfe5b16a9e10b24ef35b26abc" target="_top" xlink:title="ACarlaRecorder::Ticking">
<polygon fill="#ffffff" stroke="#000000" points="907.5,-328 907.5,-347 1040.5,-347 1040.5,-328 907.5,-328"/>
<text text-anchor="middle" x="974" y="-335" font-family="Helvetica,sans-Serif" font-size="10.00" fill="#000000">ACarlaRecorder::Ticking</text>
</a>
</g>
</g>
<!-- Node511&#45;&gt;Node512 -->
<g id="edge29" class="edge">
<title>Node511&#45;&gt;Node512</title>
<path fill="none" stroke="#191970" d="M861.6844,-311.3961C884.6661,-316.7374 911.4125,-322.9537 933.0387,-327.9799"/>
<polygon fill="#191970" stroke="#191970" points="862.2907,-307.9438 851.758,-309.089 860.706,-314.762 862.2907,-307.9438"/>
</g>
<!-- Node513 -->
<g id="node23" class="node">
<title>Node513</title>
<g id="a_node23"><a xlink:href="../../dc/d49/classFCarlaEngine.html#aff440c7ba9d004e4c5b60125cc4d709b" target="_top" xlink:title="FCarlaEngine::OnPostTick">
<polygon fill="#ffffff" stroke="#000000" points="1094,-328 1094,-347 1235,-347 1235,-328 1094,-328"/>
<text text-anchor="middle" x="1164.5" y="-335" font-family="Helvetica,sans-Serif" font-size="10.00" fill="#000000">FCarlaEngine::OnPostTick</text>
</a>
</g>
</g>
<!-- Node512&#45;&gt;Node513 -->
<g id="edge30" class="edge">
<title>Node512&#45;&gt;Node513</title>
<path fill="none" stroke="#191970" d="M1050.8241,-337.5C1064.9904,-337.5 1079.7221,-337.5 1093.7002,-337.5"/>
<polygon fill="#191970" stroke="#191970" points="1050.6277,-334.0001 1040.6277,-337.5 1050.6276,-341.0001 1050.6277,-334.0001"/>
</g>
<!-- Node514 -->
<g id="node24" class="node">
<title>Node514</title>
<g id="a_node24"><a xlink:href="../../dc/d49/classFCarlaEngine.html#ab8d13063cde985781237dd7da308227e" target="_top" xlink:title="FCarlaEngine::NotifyInitGame">
<polygon fill="#ffffff" stroke="#000000" points="1284,-290 1284,-309 1445,-309 1445,-290 1284,-290"/>
<text text-anchor="middle" x="1364.5" y="-297" font-family="Helvetica,sans-Serif" font-size="10.00" fill="#000000">FCarlaEngine::NotifyInitGame</text>
</a>
</g>
</g>
<!-- Node513&#45;&gt;Node514 -->
<g id="edge31" class="edge">
<title>Node513&#45;&gt;Node514</title>
<path fill="none" stroke="#191970" d="M1224.5954,-326.0819C1253.2118,-320.6448 1287.0434,-314.2168 1314.2691,-309.0439"/>
<polygon fill="#191970" stroke="#191970" points="1223.8812,-322.6549 1214.7103,-327.96 1225.1879,-329.5318 1223.8812,-322.6549"/>
</g>
<!-- Node515 -->
<g id="node25" class="node">
<title>Node515</title>
<g id="a_node25"><a xlink:href="../../dc/d49/classFCarlaEngine.html#a4dfd3b01c0b1413b4f69fda71efc25ce" target="_top" xlink:title="FCarlaEngine::ResetFrame\lCounter">
<polygon fill="#ffffff" stroke="#000000" points="1293,-328.5 1293,-358.5 1436,-358.5 1436,-328.5 1293,-328.5"/>
<text text-anchor="start" x="1301" y="-346.5" font-family="Helvetica,sans-Serif" font-size="10.00" fill="#000000">FCarlaEngine::ResetFrame</text>
<text text-anchor="middle" x="1364.5" y="-335.5" font-family="Helvetica,sans-Serif" font-size="10.00" fill="#000000">Counter</text>
</a>
</g>
</g>
<!-- Node513&#45;&gt;Node515 -->
<g id="edge32" class="edge">
<title>Node513&#45;&gt;Node515</title>
<path fill="none" stroke="#191970" d="M1245.2671,-339.923C1261.0437,-340.3963 1277.4841,-340.8895 1292.9364,-341.3531"/>
<polygon fill="#191970" stroke="#191970" points="1245.113,-336.4169 1235.0125,-339.6154 1244.903,-343.4138 1245.113,-336.4169"/>
</g>
<!-- Node515&#45;&gt;Node497 -->
<g id="edge33" class="edge">
<title>Node515&#45;&gt;Node497</title>
<path fill="none" stroke="#191970" d="M1432.6982,-324.5414C1436.9415,-322.6846 1441.0779,-320.6734 1445,-318.5 1483.308,-297.2722 1520.2718,-260.9405 1539.4373,-240.5386"/>
<polygon fill="#191970" stroke="#191970" points="1431.2305,-321.3597 1423.2799,-328.3625 1433.8622,-327.8462 1431.2305,-321.3597"/>
</g>
<!-- Node517 -->
<g id="node27" class="node">
<title>Node517</title>
<g id="a_node27"><a xlink:href="../../dc/dc6/classCarlaReplayer.html#a07a8e6e514ae92cce3538ba07f67d413" target="_top" xlink:title="CarlaReplayer::SetEpisode">
<polygon fill="#ffffff" stroke="#000000" points="563.5,-120 563.5,-139 708.5,-139 708.5,-120 563.5,-120"/>
<text text-anchor="middle" x="636" y="-127" font-family="Helvetica,sans-Serif" font-size="10.00" fill="#000000">CarlaReplayer::SetEpisode</text>
</a>
</g>
</g>
<!-- Node516&#45;&gt;Node517 -->
<g id="edge35" class="edge">
<title>Node516&#45;&gt;Node517</title>
<path fill="none" stroke="#191970" d="M497.0195,-129.5C518.2964,-129.5 541.7842,-129.5 563.3008,-129.5"/>
<polygon fill="#191970" stroke="#191970" points="496.7705,-126.0001 486.7704,-129.5 496.7704,-133.0001 496.7705,-126.0001"/>
</g>
</g>
</svg>
