<?xml version="1.0" encoding="UTF-8" standalone="no"?>
<!DOCTYPE svg PUBLIC "-//W3C//DTD SVG 1.1//EN"
 "http://www.w3.org/Graphics/SVG/1.1/DTD/svg11.dtd">
<!-- Generated by graphviz version 2.38.0 (20140413.2041)
 -->
<!-- Title: CarlaReplayerHelper::ProcessReplayerEventDel Pages: 1 -->
<!--zoomable 290 -->
<svg id="main" version="1.1" xmlns="http://www.w3.org/2000/svg" xmlns:xlink="http://www.w3.org/1999/xlink" xml:space="preserve" onload="init(evt)">
<style type="text/css"><![CDATA[
.edge:hover path { stroke: red; }
.edge:hover polygon { stroke: red; fill: red; }
]]></style>
<script type="text/javascript"><![CDATA[
var edges = document.getElementsByTagName('g');
if (edges && edges.length) {
  for (var i=0;i<edges.length;i++) {
    if (edges[i].id.substr(0,4)=='edge') {
      edges[i].setAttribute('class','edge');
    }
  }
}
]]></script>
        <defs>
                <circle id="rim" cx="0" cy="0" r="7"/>
                <circle id="rim2" cx="0" cy="0" r="3.5"/>
                <g id="zoomPlus">
                        <use xlink:href="#rim" fill="#404040">
                                <set attributeName="fill" to="#808080" begin="zoomplus.mouseover" end="zoomplus.mouseout"/>
                        </use>
                        <path d="M-4,0h8M0,-4v8" fill="none" stroke="white" stroke-width="1.5" pointer-events="none"/>
                </g>
                <g id="zoomMin">
                        <use xlink:href="#rim" fill="#404040">
                                <set attributeName="fill" to="#808080" begin="zoomminus.mouseover" end="zoomminus.mouseout"/>
                        </use>
                        <path d="M-4,0h8" fill="none" stroke="white" stroke-width="1.5" pointer-events="none"/>
                </g>
                <g id="dirArrow">
                        <path fill="none" stroke="white" stroke-width="1.5" d="M0,-3.0v7 M-2.5,-0.5L0,-3.0L2.5,-0.5"/>
                </g>
               <g id="resetDef">
                       <use xlink:href="#rim2" fill="#404040">
                               <set attributeName="fill" to="#808080" begin="reset.mouseover" end="reset.mouseout"/>
                       </use>
               </g>
        </defs>

<script type="text/javascript">
var viewWidth = 1517;
var viewHeight = 290;
var sectionId = 'dynsection-9';
</script>
<script xlink:href="../../svgpan.js"/>
<svg id="graph" class="graph">
<g id="viewport">
<title>CarlaReplayerHelper::ProcessReplayerEventDel</title>
<polygon fill="white" stroke="none" points="-4,4 -4,-286 1513,-286 1513,4 -4,4"/>
<!-- Node1 -->
<g id="node1" class="node"><title>Node1</title>
<polygon fill="#bfbfbf" stroke="black" points="0,-98.5 0,-128.5 138,-128.5 138,-98.5 0,-98.5"/>
<text text-anchor="start" x="8" y="-116.5" font-family="Helvetica,sans-Serif" font-size="10.00">CarlaReplayerHelper</text>
<text text-anchor="middle" x="69" y="-105.5" font-family="Helvetica,sans-Serif" font-size="10.00">::ProcessReplayerEventDel</text>
</g>
<!-- Node2 -->
<g id="node2" class="node"><title>Node2</title>
<g id="a_node2"><a xlink:href="../../dc/dc6/classCarlaReplayer.html#a0281a0aff5b8977886de1709482309f9" target="_top" xlink:title="CarlaReplayer::ProcessEventsDel">
<polygon fill="white" stroke="black" points="174,-126 174,-145 341,-145 341,-126 174,-126"/>
<text text-anchor="middle" x="257.5" y="-133" font-family="Helvetica,sans-Serif" font-size="10.00">CarlaReplayer::ProcessEventsDel</text>
</a>
</g>
</g>
<!-- Node1&#45;&gt;Node2 -->
<g id="edge1" class="edge"><title>Node1&#45;&gt;Node2</title>
<path fill="none" stroke="midnightblue" d="M148.316,-122.738C157.436,-123.814 166.751,-124.913 175.901,-125.992"/>
<polygon fill="midnightblue" stroke="midnightblue" points="148.464,-119.232 138.122,-121.536 147.644,-126.183 148.464,-119.232"/>
</g>
<!-- Node21 -->
<g id="node21" class="node"><title>Node21</title>
<g id="a_node21"><a xlink:href="../../d8/d27/classCarlaReplayerHelper.html#a796c4b4a2fd59f841bf3967e55f5cace" target="_top" xlink:title="CarlaReplayerHelper\l::SetEpisode">
<polygon fill="white" stroke="black" points="204,-76.5 204,-106.5 311,-106.5 311,-76.5 204,-76.5"/>
<text text-anchor="start" x="212" y="-94.5" font-family="Helvetica,sans-Serif" font-size="10.00">CarlaReplayerHelper</text>
<text text-anchor="middle" x="257.5" y="-83.5" font-family="Helvetica,sans-Serif" font-size="10.00">::SetEpisode</text>
</a>
</g>
</g>
<!-- Node1&#45;&gt;Node21 -->
<g id="edge27" class="edge"><title>Node1&#45;&gt;Node21</title>
<path fill="none" stroke="midnightblue" d="M148.132,-104.283C166.881,-102.072 186.467,-99.7613 203.75,-97.7225"/>
<polygon fill="midnightblue" stroke="midnightblue" points="147.644,-100.817 138.122,-105.464 148.464,-107.768 147.644,-100.817"/>
</g>
<!-- Node3 -->
<g id="node3" class="node"><title>Node3</title>
<g id="a_node3"><a xlink:href="../../dc/dc6/classCarlaReplayer.html#ae0a5643d88257bdceb9e12d5c33194cb" target="_top" xlink:title="CarlaReplayer::ProcessToTime">
<polygon fill="white" stroke="black" points="377,-126 377,-145 531,-145 531,-126 377,-126"/>
<text text-anchor="middle" x="454" y="-133" font-family="Helvetica,sans-Serif" font-size="10.00">CarlaReplayer::ProcessToTime</text>
</a>
</g>
</g>
<!-- Node2&#45;&gt;Node3 -->
<g id="edge2" class="edge"><title>Node2&#45;&gt;Node3</title>
<path fill="none" stroke="midnightblue" d="M351.545,-135.5C360.001,-135.5 368.501,-135.5 376.786,-135.5"/>
<polygon fill="midnightblue" stroke="midnightblue" points="351.268,-132 341.268,-135.5 351.268,-139 351.268,-132"/>
</g>
<!-- Node4 -->
<g id="node4" class="node"><title>Node4</title>
<g id="a_node4"><a xlink:href="../../dc/dc6/classCarlaReplayer.html#ac70d3dbe1f79ffd25a695ec3bd2485e6" target="_top" xlink:title="CarlaReplayer::CheckPlay\lAfterMapLoaded">
<polygon fill="white" stroke="black" points="708,-240.5 708,-270.5 841,-270.5 841,-240.5 708,-240.5"/>
<text text-anchor="start" x="716" y="-258.5" font-family="Helvetica,sans-Serif" font-size="10.00">CarlaReplayer::CheckPlay</text>
<text text-anchor="middle" x="774.5" y="-247.5" font-family="Helvetica,sans-Serif" font-size="10.00">AfterMapLoaded</text>
</a>
</g>
</g>
<!-- Node3&#45;&gt;Node4 -->
<g id="edge3" class="edge"><title>Node3&#45;&gt;Node4</title>
<path fill="none" stroke="midnightblue" d="M489.974,-148.677C549.639,-171.157 670.73,-216.78 733.601,-240.467"/>
<polygon fill="midnightblue" stroke="midnightblue" points="490.85,-145.267 480.258,-145.017 488.382,-151.818 490.85,-145.267"/>
</g>
<!-- Node10 -->
<g id="node10" class="node"><title>Node10</title>
<g id="a_node10"><a xlink:href="../../dc/dc6/classCarlaReplayer.html#a6a0f602c673e3860bd3a070c5aaf62b9" target="_top" xlink:title="CarlaReplayer::ReplayFile">
<polygon fill="white" stroke="black" points="709,-50 709,-69 840,-69 840,-50 709,-50"/>
<text text-anchor="middle" x="774.5" y="-57" font-family="Helvetica,sans-Serif" font-size="10.00">CarlaReplayer::ReplayFile</text>
</a>
</g>
</g>
<!-- Node3&#45;&gt;Node10 -->
<g id="edge9" class="edge"><title>Node3&#45;&gt;Node10</title>
<path fill="none" stroke="midnightblue" d="M504.756,-123.627C567.915,-108.556 675.618,-82.8565 733.648,-69.0094"/>
<polygon fill="midnightblue" stroke="midnightblue" points="503.93,-120.226 495.016,-125.952 505.555,-127.035 503.93,-120.226"/>
</g>
<!-- Node13 -->
<g id="node13" class="node"><title>Node13</title>
<g id="a_node13"><a xlink:href="../../dc/dc6/classCarlaReplayer.html#af627917f2c95135fb11b59af4f65dbf7" target="_top" xlink:title="CarlaReplayer::Stop">
<polygon fill="white" stroke="black" points="567,-126 567,-145 672,-145 672,-126 567,-126"/>
<text text-anchor="middle" x="619.5" y="-133" font-family="Helvetica,sans-Serif" font-size="10.00">CarlaReplayer::Stop</text>
</a>
</g>
</g>
<!-- Node3&#45;&gt;Node13 -->
<g id="edge13" class="edge"><title>Node3&#45;&gt;Node13</title>
<path fill="none" stroke="midnightblue" d="M541.01,-128.758C549.865,-128.792 558.653,-128.932 566.957,-129.177"/>
<polygon fill="midnightblue" stroke="midnightblue" points="541.004,-125.258 531.006,-128.765 541.009,-132.258 541.004,-125.258"/>
</g>
<!-- Node18 -->
<g id="node18" class="node"><title>Node18</title>
<g id="a_node18"><a xlink:href="../../dc/dc6/classCarlaReplayer.html#a4aeceb13aaa5dfcbf3ee42d7582262a4" target="_top" xlink:title="CarlaReplayer::Tick">
<polygon fill="white" stroke="black" points="567.5,-50 567.5,-69 671.5,-69 671.5,-50 567.5,-50"/>
<text text-anchor="middle" x="619.5" y="-57" font-family="Helvetica,sans-Serif" font-size="10.00">CarlaReplayer::Tick</text>
</a>
</g>
</g>
<!-- Node3&#45;&gt;Node18 -->
<g id="edge23" class="edge"><title>Node3&#45;&gt;Node18</title>
<path fill="none" stroke="midnightblue" d="M501.701,-122.8C511.622,-119.374 521.855,-115.268 531,-110.5 548.734,-101.253 549.844,-93.7793 567,-83.5 575.969,-78.126 586.34,-73.0876 595.415,-69.0282"/>
<polygon fill="midnightblue" stroke="midnightblue" points="500.349,-119.559 491.935,-125.999 502.528,-126.212 500.349,-119.559"/>
</g>
<!-- Node5 -->
<g id="node5" class="node"><title>Node5</title>
<g id="a_node5"><a xlink:href="../../db/de5/classACarlaGameModeBase.html#a3909b055b351f69d7ad1e39a42e72e3d" target="_top" xlink:title="ACarlaGameModeBase\l::BeginPlay">
<polygon fill="white" stroke="black" points="894,-251.5 894,-281.5 1013,-281.5 1013,-251.5 894,-251.5"/>
<text text-anchor="start" x="902" y="-269.5" font-family="Helvetica,sans-Serif" font-size="10.00">ACarlaGameModeBase</text>
<text text-anchor="middle" x="953.5" y="-258.5" font-family="Helvetica,sans-Serif" font-size="10.00">::BeginPlay</text>
</a>
</g>
</g>
<!-- Node4&#45;&gt;Node5 -->
<g id="edge4" class="edge"><title>Node4&#45;&gt;Node5</title>
<path fill="none" stroke="midnightblue" d="M851.424,-260.218C865.662,-261.103 880.343,-262.016 893.953,-262.862"/>
<polygon fill="midnightblue" stroke="midnightblue" points="851.355,-256.707 841.157,-259.58 850.92,-263.694 851.355,-256.707"/>
</g>
<!-- Node6 -->
<g id="node6" class="node"><title>Node6</title>
<g id="a_node6"><a xlink:href="../../dc/dc6/classCarlaReplayer.html#a61e4b2ce6197fc94c888b722f79e808b" target="_top" xlink:title="CarlaReplayer::SetTimeFactor">
<polygon fill="white" stroke="black" points="879,-164 879,-183 1028,-183 1028,-164 879,-164"/>
<text text-anchor="middle" x="953.5" y="-171" font-family="Helvetica,sans-Serif" font-size="10.00">CarlaReplayer::SetTimeFactor</text>
</a>
</g>
</g>
<!-- Node4&#45;&gt;Node6 -->
<g id="edge5" class="edge"><title>Node4&#45;&gt;Node6</title>
<path fill="none" stroke="midnightblue" d="M831.785,-235.99C834.98,-234.28 838.077,-232.451 841,-230.5 860.351,-217.585 856.921,-204.25 877,-192.5 883.649,-188.609 891.081,-185.508 898.616,-183.04"/>
<polygon fill="midnightblue" stroke="midnightblue" points="830.029,-232.952 822.587,-240.494 833.108,-239.239 830.029,-232.952"/>
</g>
<!-- Node7 -->
<g id="node7" class="node"><title>Node7</title>
<g id="a_node7"><a xlink:href="../../dd/db9/classACarlaRecorder.html#ab825bc67766ea18c5dac135ea2e05274" target="_top" xlink:title="ACarlaRecorder::SetReplayer\lTimeFactor">
<polygon fill="white" stroke="black" points="1067.5,-158.5 1067.5,-188.5 1213.5,-188.5 1213.5,-158.5 1067.5,-158.5"/>
<text text-anchor="start" x="1075.5" y="-176.5" font-family="Helvetica,sans-Serif" font-size="10.00">ACarlaRecorder::SetReplayer</text>
<text text-anchor="middle" x="1140.5" y="-165.5" font-family="Helvetica,sans-Serif" font-size="10.00">TimeFactor</text>
</a>
</g>
</g>
<!-- Node6&#45;&gt;Node7 -->
<g id="edge6" class="edge"><title>Node6&#45;&gt;Node7</title>
<path fill="none" stroke="midnightblue" d="M1038.21,-173.5C1047.92,-173.5 1057.77,-173.5 1067.31,-173.5"/>
<polygon fill="midnightblue" stroke="midnightblue" points="1038.15,-170 1028.15,-173.5 1038.15,-177 1038.15,-170"/>
</g>
<!-- Node8 -->
<g id="node8" class="node"><title>Node8</title>
<g id="a_node8"><a xlink:href="../../d7/d97/classFCarlaServer_1_1FPimpl.html#a675a6b572112a21e8bc011dddfd0de86" target="_top" xlink:title="FCarlaServer::FPimpl\l::BindActions">
<polygon fill="white" stroke="black" points="1251,-114.5 1251,-144.5 1362,-144.5 1362,-114.5 1251,-114.5"/>
<text text-anchor="start" x="1259" y="-132.5" font-family="Helvetica,sans-Serif" font-size="10.00">FCarlaServer::FPimpl</text>
<text text-anchor="middle" x="1306.5" y="-121.5" font-family="Helvetica,sans-Serif" font-size="10.00">::BindActions</text>
</a>
</g>
</g>
<!-- Node7&#45;&gt;Node8 -->
<g id="edge7" class="edge"><title>Node7&#45;&gt;Node8</title>
<path fill="none" stroke="midnightblue" d="M1207.35,-155.834C1221.79,-151.958 1236.93,-147.896 1250.88,-144.154"/>
<polygon fill="midnightblue" stroke="midnightblue" points="1206.23,-152.509 1197.48,-158.481 1208.05,-159.27 1206.23,-152.509"/>
</g>
<!-- Node9 -->
<g id="node9" class="node"><title>Node9</title>
<g id="a_node9"><a xlink:href="../../d7/d97/classFCarlaServer_1_1FPimpl.html#a5521999cb8b42460143ad4b1cd869398" target="_top" xlink:title="FCarlaServer::FPimpl\l::FPimpl">
<polygon fill="white" stroke="black" points="1398,-114.5 1398,-144.5 1509,-144.5 1509,-114.5 1398,-114.5"/>
<text text-anchor="start" x="1406" y="-132.5" font-family="Helvetica,sans-Serif" font-size="10.00">FCarlaServer::FPimpl</text>
<text text-anchor="middle" x="1453.5" y="-121.5" font-family="Helvetica,sans-Serif" font-size="10.00">::FPimpl</text>
</a>
</g>
</g>
<!-- Node8&#45;&gt;Node9 -->
<g id="edge8" class="edge"><title>Node8&#45;&gt;Node9</title>
<path fill="none" stroke="midnightblue" d="M1372.46,-129.5C1380.86,-129.5 1389.39,-129.5 1397.6,-129.5"/>
<polygon fill="midnightblue" stroke="midnightblue" points="1372.32,-126 1362.32,-129.5 1372.32,-133 1372.32,-126"/>
</g>
<!-- Node11 -->
<g id="node11" class="node"><title>Node11</title>
<g id="a_node11"><a xlink:href="../../dd/db9/classACarlaRecorder.html#a912028f1bf530975b60b508f69e63840" target="_top" xlink:title="ACarlaRecorder::ReplayFile">
<polygon fill="white" stroke="black" points="1071,-66 1071,-85 1210,-85 1210,-66 1071,-66"/>
<text text-anchor="middle" x="1140.5" y="-73" font-family="Helvetica,sans-Serif" font-size="10.00">ACarlaRecorder::ReplayFile</text>
</a>
</g>
</g>
<!-- Node10&#45;&gt;Node11 -->
<g id="edge10" class="edge"><title>Node10&#45;&gt;Node11</title>
<path fill="none" stroke="midnightblue" d="M850.297,-62.7878C915.043,-65.6337 1007.91,-69.716 1070.81,-72.4805"/>
<polygon fill="midnightblue" stroke="midnightblue" points="850.301,-59.2846 840.156,-62.342 849.993,-66.2779 850.301,-59.2846"/>
</g>
<!-- Node12 -->
<g id="node12" class="node"><title>Node12</title>
<g id="a_node12"><a xlink:href="../../dc/dc6/classCarlaReplayer.html#a6dadadd7719c5e660d2e3d99b22f5961" target="_top" xlink:title="CarlaReplayer::~CarlaReplayer">
<polygon fill="white" stroke="black" points="877,-88 877,-107 1030,-107 1030,-88 877,-88"/>
<text text-anchor="middle" x="953.5" y="-95" font-family="Helvetica,sans-Serif" font-size="10.00">CarlaReplayer::~CarlaReplayer</text>
</a>
</g>
</g>
<!-- Node10&#45;&gt;Node12 -->
<g id="edge12" class="edge"><title>Node10&#45;&gt;Node12</title>
<path fill="none" stroke="midnightblue" d="M830.242,-71.2526C855.27,-76.6258 884.535,-82.9086 908.157,-87.9799"/>
<polygon fill="midnightblue" stroke="midnightblue" points="830.676,-67.7661 820.165,-69.089 829.207,-74.6102 830.676,-67.7661"/>
</g>
<!-- Node11&#45;&gt;Node8 -->
<g id="edge11" class="edge"><title>Node11&#45;&gt;Node8</title>
<path fill="none" stroke="midnightblue" d="M1180.21,-88.2463C1204.07,-96.1019 1234.78,-106.214 1259.83,-114.461"/>
<polygon fill="midnightblue" stroke="midnightblue" points="1181.04,-84.833 1170.44,-85.0298 1178.85,-91.4818 1181.04,-84.833"/>
</g>
<!-- Node13&#45;&gt;Node3 -->
<g id="edge17" class="edge"><title>Node13&#45;&gt;Node3</title>
<path fill="none" stroke="midnightblue" d="M556.842,-142.065C548.404,-142.223 539.662,-142.28 531.006,-142.235"/>
<polygon fill="midnightblue" stroke="midnightblue" points="557.044,-145.562 566.957,-141.823 556.876,-138.564 557.044,-145.562"/>
</g>
<!-- Node13&#45;&gt;Node4 -->
<g id="edge14" class="edge"><title>Node13&#45;&gt;Node4</title>
<path fill="none" stroke="midnightblue" d="M633.081,-153.596C648.547,-174.653 676.631,-209.244 708,-230.5 713.542,-234.255 719.726,-237.551 726.02,-240.411"/>
<polygon fill="midnightblue" stroke="midnightblue" points="635.748,-151.308 627.074,-145.224 630.06,-155.389 635.748,-151.308"/>
</g>
<!-- Node13&#45;&gt;Node10 -->
<g id="edge18" class="edge"><title>Node13&#45;&gt;Node10</title>
<path fill="none" stroke="midnightblue" d="M653.074,-121.676C659.486,-118.58 666.062,-115.129 672,-111.5 689.296,-100.93 690.272,-93.3267 708,-83.5 718.381,-77.7461 730.412,-72.8805 741.31,-69.0662"/>
<polygon fill="midnightblue" stroke="midnightblue" points="651.489,-118.553 643.891,-125.938 654.436,-124.903 651.489,-118.553"/>
</g>
<!-- Node13&#45;&gt;Node12 -->
<g id="edge22" class="edge"><title>Node13&#45;&gt;Node12</title>
<path fill="none" stroke="midnightblue" d="M668.949,-123.748C681.598,-121.019 695.257,-118.37 708,-116.5 764.237,-108.248 828.311,-103.436 876.755,-100.72"/>
<polygon fill="midnightblue" stroke="midnightblue" points="668.065,-120.359 659.059,-125.94 669.58,-127.193 668.065,-120.359"/>
</g>
<!-- Node14 -->
<g id="node14" class="node"><title>Node14</title>
<g id="a_node14"><a xlink:href="../../dc/d84/classUCarlaEpisode.html#a04380aa760fc6891f1c51cdbe7ddb856" target="_top" xlink:title="UCarlaEpisode::EndPlay">
<polygon fill="white" stroke="black" points="712,-202 712,-221 837,-221 837,-202 712,-202"/>
<text text-anchor="middle" x="774.5" y="-209" font-family="Helvetica,sans-Serif" font-size="10.00">UCarlaEpisode::EndPlay</text>
</a>
</g>
</g>
<!-- Node13&#45;&gt;Node14 -->
<g id="edge15" class="edge"><title>Node13&#45;&gt;Node14</title>
<path fill="none" stroke="midnightblue" d="M643.71,-150.901C660.98,-161.959 685.377,-176.747 708,-187.5 719.485,-192.959 732.568,-197.978 744.005,-201.998"/>
<polygon fill="midnightblue" stroke="midnightblue" points="645.199,-147.696 634.905,-145.191 641.391,-153.569 645.199,-147.696"/>
</g>
<!-- Node16 -->
<g id="node16" class="node"><title>Node16</title>
<g id="a_node16"><a xlink:href="../../dd/db9/classACarlaRecorder.html#a7e65ace2743fdb8e3a21cec33857af76" target="_top" xlink:title="ACarlaRecorder::Start">
<polygon fill="white" stroke="black" points="718,-126 718,-145 831,-145 831,-126 718,-126"/>
<text text-anchor="middle" x="774.5" y="-133" font-family="Helvetica,sans-Serif" font-size="10.00">ACarlaRecorder::Start</text>
</a>
</g>
</g>
<!-- Node13&#45;&gt;Node16 -->
<g id="edge19" class="edge"><title>Node13&#45;&gt;Node16</title>
<path fill="none" stroke="midnightblue" d="M682.436,-135.5C694.144,-135.5 706.324,-135.5 717.824,-135.5"/>
<polygon fill="midnightblue" stroke="midnightblue" points="682.299,-132 672.299,-135.5 682.299,-139 682.299,-132"/>
</g>
<!-- Node15 -->
<g id="node15" class="node"><title>Node15</title>
<g id="a_node15"><a xlink:href="../../db/de5/classACarlaGameModeBase.html#a8e61df047eac428453a627a6de9ace75" target="_top" xlink:title="ACarlaGameModeBase\l::EndPlay">
<polygon fill="white" stroke="black" points="894,-202.5 894,-232.5 1013,-232.5 1013,-202.5 894,-202.5"/>
<text text-anchor="start" x="902" y="-220.5" font-family="Helvetica,sans-Serif" font-size="10.00">ACarlaGameModeBase</text>
<text text-anchor="middle" x="953.5" y="-209.5" font-family="Helvetica,sans-Serif" font-size="10.00">::EndPlay</text>
</a>
</g>
</g>
<!-- Node14&#45;&gt;Node15 -->
<g id="edge16" class="edge"><title>Node14&#45;&gt;Node15</title>
<path fill="none" stroke="midnightblue" d="M847.436,-213.939C862.884,-214.462 879.03,-215.009 893.9,-215.514"/>
<polygon fill="midnightblue" stroke="midnightblue" points="847.519,-210.439 837.406,-213.599 847.282,-217.435 847.519,-210.439"/>
</g>
<!-- Node17 -->
<g id="node17" class="node"><title>Node17</title>
<g id="a_node17"><a xlink:href="../../dc/d84/classUCarlaEpisode.html#a74547d3e3536fe8d1b30b1db8e1c7704" target="_top" xlink:title="UCarlaEpisode::StartRecorder">
<polygon fill="white" stroke="black" points="1066,-120 1066,-139 1215,-139 1215,-120 1066,-120"/>
<text text-anchor="middle" x="1140.5" y="-127" font-family="Helvetica,sans-Serif" font-size="10.00">UCarlaEpisode::StartRecorder</text>
</a>
</g>
</g>
<!-- Node16&#45;&gt;Node17 -->
<g id="edge20" class="edge"><title>Node16&#45;&gt;Node17</title>
<path fill="none" stroke="midnightblue" d="M841.44,-134.413C904.729,-133.37 1000.14,-131.797 1065.88,-130.713"/>
<polygon fill="midnightblue" stroke="midnightblue" points="841.121,-130.918 831.18,-134.582 841.236,-137.917 841.121,-130.918"/>
</g>
<!-- Node17&#45;&gt;Node8 -->
<g id="edge21" class="edge"><title>Node17&#45;&gt;Node8</title>
<path fill="none" stroke="midnightblue" d="M1225.42,-129.5C1234.01,-129.5 1242.57,-129.5 1250.73,-129.5"/>
<polygon fill="midnightblue" stroke="midnightblue" points="1225.34,-126 1215.34,-129.5 1225.34,-133 1225.34,-126"/>
</g>
<!-- Node18&#45;&gt;Node6 -->
<g id="edge24" class="edge"><title>Node18&#45;&gt;Node6</title>
<path fill="none" stroke="midnightblue" d="M636.109,-76.7646C660.633,-103.844 705.658,-153.363 708,-154.5 761.045,-180.256 828.259,-183.704 878.783,-181.444"/>
<polygon fill="midnightblue" stroke="midnightblue" points="638.532,-74.2254 629.227,-69.1594 633.342,-78.9225 638.532,-74.2254"/>
</g>
<!-- Node19 -->
<g id="node19" class="node"><title>Node19</title>
<g id="a_node19"><a xlink:href="../../dd/db9/classACarlaRecorder.html#a6ce7c971c726e4364079a2f0ada13af8" target="_top" xlink:title="ACarlaRecorder::Tick">
<polygon fill="white" stroke="black" points="719,-9 719,-28 830,-28 830,-9 719,-9"/>
<text text-anchor="middle" x="774.5" y="-16" font-family="Helvetica,sans-Serif" font-size="10.00">ACarlaRecorder::Tick</text>
</a>
</g>
</g>
<!-- Node18&#45;&gt;Node19 -->
<g id="edge25" class="edge"><title>Node18&#45;&gt;Node19</title>
<path fill="none" stroke="midnightblue" d="M665.877,-47.34C688.907,-41.1686 716.474,-33.7815 737.942,-28.0286"/>
<polygon fill="midnightblue" stroke="midnightblue" points="664.739,-44.0215 655.986,-49.9907 666.551,-50.783 664.739,-44.0215"/>
</g>
<!-- Node20 -->
<g id="node20" class="node"><title>Node20</title>
<g id="a_node20"><a xlink:href="../../db/de5/classACarlaGameModeBase.html#adf8c08bfdd024abd10623c73ae8bc7a5" target="_top" xlink:title="ACarlaGameModeBase\l::Tick">
<polygon fill="white" stroke="black" points="894,-0.5 894,-30.5 1013,-30.5 1013,-0.5 894,-0.5"/>
<text text-anchor="start" x="902" y="-18.5" font-family="Helvetica,sans-Serif" font-size="10.00">ACarlaGameModeBase</text>
<text text-anchor="middle" x="953.5" y="-7.5" font-family="Helvetica,sans-Serif" font-size="10.00">::Tick</text>
</a>
</g>
</g>
<!-- Node19&#45;&gt;Node20 -->
<g id="edge26" class="edge"><title>Node19&#45;&gt;Node20</title>
<path fill="none" stroke="midnightblue" d="M840.201,-17.4034C857.745,-17.106 876.636,-16.7858 893.828,-16.4944"/>
<polygon fill="midnightblue" stroke="midnightblue" points="839.989,-13.9064 830.05,-17.5754 840.108,-20.9054 839.989,-13.9064"/>
</g>
<!-- Node22 -->
<g id="node22" class="node"><title>Node22</title>
<g id="a_node22"><a xlink:href="../../dc/dc6/classCarlaReplayer.html#a07a8e6e514ae92cce3538ba07f67d413" target="_top" xlink:title="CarlaReplayer::SetEpisode">
<polygon fill="white" stroke="black" points="386.5,-82 386.5,-101 521.5,-101 521.5,-82 386.5,-82"/>
<text text-anchor="middle" x="454" y="-89" font-family="Helvetica,sans-Serif" font-size="10.00">CarlaReplayer::SetEpisode</text>
</a>
</g>
</g>
<!-- Node21&#45;&gt;Node22 -->
<g id="edge28" class="edge"><title>Node21&#45;&gt;Node22</title>
<path fill="none" stroke="midnightblue" d="M321.148,-91.5C341.985,-91.5 365.259,-91.5 386.385,-91.5"/>
<polygon fill="midnightblue" stroke="midnightblue" points="321.135,-88.0001 311.135,-91.5 321.134,-95.0001 321.135,-88.0001"/>
</g>
</g>
</svg>
        <g id="navigator" transform="translate(0 0)" fill="#404254">
                <rect fill="#f2f5e9" fill-opacity="0.5" stroke="#606060" stroke-width=".5" x="0" y="0" width="60" height="60"/>
                <use id="zoomplus" xlink:href="#zoomPlus" x="17" y="9" onmousedown="handleZoom(evt,'in')"/>
                <use id="zoomminus" xlink:href="#zoomMin" x="42" y="9" onmousedown="handleZoom(evt,'out')"/>
                <use id="reset" xlink:href="#resetDef" x="30" y="36" onmousedown="handleReset()"/>
                <g id="arrowUp" xlink:href="#dirArrow" transform="translate(30 24)" onmousedown="handlePan(0,-1)">
                  <use xlink:href="#rim" fill="#404040">
                        <set attributeName="fill" to="#808080" begin="arrowUp.mouseover" end="arrowUp.mouseout"/>
                  </use>
                  <path fill="none" stroke="white" stroke-width="1.5" d="M0,-3.0v7 M-2.5,-0.5L0,-3.0L2.5,-0.5"/>
                </g>
                <g id="arrowRight" xlink:href="#dirArrow" transform="rotate(90) translate(36 -43)" onmousedown="handlePan(1,0)">
                  <use xlink:href="#rim" fill="#404040">
                        <set attributeName="fill" to="#808080" begin="arrowRight.mouseover" end="arrowRight.mouseout"/>
                  </use>
                  <path fill="none" stroke="white" stroke-width="1.5" d="M0,-3.0v7 M-2.5,-0.5L0,-3.0L2.5,-0.5"/>
                </g>
                <g id="arrowDown" xlink:href="#dirArrow" transform="rotate(180) translate(-30 -48)" onmousedown="handlePan(0,1)">
                  <use xlink:href="#rim" fill="#404040">
                        <set attributeName="fill" to="#808080" begin="arrowDown.mouseover" end="arrowDown.mouseout"/>
                  </use>
                  <path fill="none" stroke="white" stroke-width="1.5" d="M0,-3.0v7 M-2.5,-0.5L0,-3.0L2.5,-0.5"/>
                </g>
                <g id="arrowLeft" xlink:href="#dirArrow" transform="rotate(270) translate(-36 17)" onmousedown="handlePan(-1,0)">
                  <use xlink:href="#rim" fill="#404040">
                        <set attributeName="fill" to="#808080" begin="arrowLeft.mouseover" end="arrowLeft.mouseout"/>
                  </use>
                  <path fill="none" stroke="white" stroke-width="1.5" d="M0,-3.0v7 M-2.5,-0.5L0,-3.0L2.5,-0.5"/>
                </g>
        </g>
        <svg viewBox="0 0 15 15" width="100%" height="30px" preserveAspectRatio="xMaxYMin meet">
         <g id="arrow_out" transform="scale(0.3 0.3)">
          <a xlink:href="classCarlaReplayerHelper_abcc9194d40ec6cbbc3224f704d3c57d0_icgraph_org.svg" target="_base">
           <rect id="button" ry="5" rx="5" y="6" x="6" height="38" width="38"
                fill="#f2f5e9" fill-opacity="0.5" stroke="#606060" stroke-width="1.0"/>
           <path id="arrow"
             d="M 11.500037,31.436501 C 11.940474,20.09759 22.043105,11.32322 32.158766,21.979434 L 37.068811,17.246167 C 37.068811,17.246167 37.088388,32 37.088388,32 L 22.160133,31.978069 C 22.160133,31.978069 26.997745,27.140456 26.997745,27.140456 C 18.528582,18.264221 13.291696,25.230495 11.500037,31.436501 z"
             style="fill:#404040;"/>
          </a>
         </g>
        </svg>
</svg>
