<?xml version="1.0" encoding="UTF-8" standalone="no"?>
<!DOCTYPE svg PUBLIC "-//W3C//DTD SVG 1.1//EN"
 "http://www.w3.org/Graphics/SVG/1.1/DTD/svg11.dtd">
<!-- Generated by graphviz version 2.38.0 (20140413.2041)
 -->
<!-- Title: OpendriveGenerationParameters.h Pages: 1 -->
<!--zoomable 252 -->
<svg id="main" version="1.1" xmlns="http://www.w3.org/2000/svg" xmlns:xlink="http://www.w3.org/1999/xlink" xml:space="preserve" onload="init(evt)">
<style type="text/css"><![CDATA[
.edge:hover path { stroke: red; }
.edge:hover polygon { stroke: red; fill: red; }
]]></style>
<script type="text/javascript"><![CDATA[
var edges = document.getElementsByTagName('g');
if (edges && edges.length) {
  for (var i=0;i<edges.length;i++) {
    if (edges[i].id.substr(0,4)=='edge') {
      edges[i].setAttribute('class','edge');
    }
  }
}
]]></script>
        <defs>
                <circle id="rim" cx="0" cy="0" r="7"/>
                <circle id="rim2" cx="0" cy="0" r="3.5"/>
                <g id="zoomPlus">
                        <use xlink:href="#rim" fill="#404040">
                                <set attributeName="fill" to="#808080" begin="zoomplus.mouseover" end="zoomplus.mouseout"/>
                        </use>
                        <path d="M-4,0h8M0,-4v8" fill="none" stroke="white" stroke-width="1.5" pointer-events="none"/>
                </g>
                <g id="zoomMin">
                        <use xlink:href="#rim" fill="#404040">
                                <set attributeName="fill" to="#808080" begin="zoomminus.mouseover" end="zoomminus.mouseout"/>
                        </use>
                        <path d="M-4,0h8" fill="none" stroke="white" stroke-width="1.5" pointer-events="none"/>
                </g>
                <g id="dirArrow">
                        <path fill="none" stroke="white" stroke-width="1.5" d="M0,-3.0v7 M-2.5,-0.5L0,-3.0L2.5,-0.5"/>
                </g>
               <g id="resetDef">
                       <use xlink:href="#rim2" fill="#404040">
                               <set attributeName="fill" to="#808080" begin="reset.mouseover" end="reset.mouseout"/>
                       </use>
               </g>
        </defs>

<script type="text/javascript">
var viewWidth = 3688;
var viewHeight = 252;
var sectionId = 'dynsection-1';
</script>
<script xlink:href="../../svgpan.js"/>
<svg id="graph" class="graph">
<g id="viewport">
<title>OpendriveGenerationParameters.h</title>
<polygon fill="white" stroke="none" points="-4,4 -4,-248 3683.5,-248 3683.5,4 -4,4"/>
<!-- Node1 -->
<g id="node1" class="node"><title>Node1</title>
<polygon fill="#bfbfbf" stroke="black" points="1735.5,-224.5 1735.5,-243.5 1918.5,-243.5 1918.5,-224.5 1735.5,-224.5"/>
<text text-anchor="middle" x="1827" y="-231.5" font-family="Helvetica,sans-Serif" font-size="10.00">OpendriveGenerationParameters.h</text>
</g>
<!-- Node2 -->
<g id="node2" class="node"><title>Node2</title>
<g id="a_node2"><a xlink:href="../../de/db8/CarlaEpisode_8h.html" target="_top" xlink:title="CarlaEpisode.h">
<polygon fill="white" stroke="black" points="838,-168.5 838,-187.5 926,-187.5 926,-168.5 838,-168.5"/>
<text text-anchor="middle" x="882" y="-175.5" font-family="Helvetica,sans-Serif" font-size="10.00">CarlaEpisode.h</text>
</a>
</g>
</g>
<!-- Node1&#45;&gt;Node2 -->
<g id="edge1" class="edge"><title>Node1&#45;&gt;Node2</title>
<path fill="none" stroke="midnightblue" d="M1724.97,-227.17C1520.66,-215.495 1068.71,-189.669 926.048,-181.517"/>
<polygon fill="midnightblue" stroke="midnightblue" points="1724.92,-230.672 1735.1,-227.749 1725.32,-223.684 1724.92,-230.672"/>
</g>
<!-- Node27 -->
<g id="node27" class="node"><title>Node27</title>
<g id="a_node27"><a xlink:href="../../df/d8b/client_2detail_2Client_8h.html" target="_top" xlink:title="Client.h">
<polygon fill="white" stroke="black" points="2745.5,-168.5 2745.5,-187.5 2798.5,-187.5 2798.5,-168.5 2745.5,-168.5"/>
<text text-anchor="middle" x="2772" y="-175.5" font-family="Helvetica,sans-Serif" font-size="10.00">Client.h</text>
</a>
</g>
</g>
<!-- Node1&#45;&gt;Node27 -->
<g id="edge37" class="edge"><title>Node1&#45;&gt;Node27</title>
<path fill="none" stroke="midnightblue" d="M1929.18,-227.161C2142.88,-214.95 2627.05,-187.283 2745.49,-180.515"/>
<polygon fill="midnightblue" stroke="midnightblue" points="1928.68,-223.684 1918.9,-227.749 1929.08,-230.672 1928.68,-223.684"/>
</g>
<!-- Node3 -->
<g id="node3" class="node"><title>Node3</title>
<g id="a_node3"><a xlink:href="../../d7/d7d/Unreal_2CarlaUE4_2Plugins_2Carla_2Source_2Carla_2Sensor_2Sensor_8h.html" target="_top" xlink:title="Sensor.h">
<polygon fill="white" stroke="black" points="1177.5,-112.5 1177.5,-131.5 1236.5,-131.5 1236.5,-112.5 1177.5,-112.5"/>
<text text-anchor="middle" x="1207" y="-119.5" font-family="Helvetica,sans-Serif" font-size="10.00">Sensor.h</text>
</a>
</g>
</g>
<!-- Node2&#45;&gt;Node3 -->
<g id="edge2" class="edge"><title>Node2&#45;&gt;Node3</title>
<path fill="none" stroke="midnightblue" d="M936.442,-167.954C1005.7,-156.446 1122.86,-136.98 1177.41,-127.916"/>
<polygon fill="midnightblue" stroke="midnightblue" points="935.46,-164.569 926.169,-169.661 936.608,-171.475 935.46,-164.569"/>
</g>
<!-- Node5 -->
<g id="node5" class="node"><title>Node5</title>
<g id="a_node5"><a xlink:href="../../d7/d22/GnssSensor_8cpp.html" target="_top" xlink:title="GnssSensor.cpp">
<polygon fill="white" stroke="black" points="1659,-0.5 1659,-19.5 1753,-19.5 1753,-0.5 1659,-0.5"/>
<text text-anchor="middle" x="1706" y="-7.5" font-family="Helvetica,sans-Serif" font-size="10.00">GnssSensor.cpp</text>
</a>
</g>
</g>
<!-- Node2&#45;&gt;Node5 -->
<g id="edge35" class="edge"><title>Node2&#45;&gt;Node5</title>
<path fill="none" stroke="midnightblue" d="M936.328,-174.565C1113.9,-166.057 1668.75,-134.923 1721,-76 1735.14,-60.0568 1721.2,-33.4528 1712.25,-19.7493"/>
<polygon fill="midnightblue" stroke="midnightblue" points="935.995,-171.077 926.172,-175.047 936.327,-178.069 935.995,-171.077"/>
</g>
<!-- Node10 -->
<g id="node10" class="node"><title>Node10</title>
<g id="a_node10"><a xlink:href="../../d6/dd9/CarlaEpisode_8cpp.html" target="_top" xlink:title="CarlaEpisode.cpp">
<polygon fill="white" stroke="black" points="1081.5,-0.5 1081.5,-19.5 1180.5,-19.5 1180.5,-0.5 1081.5,-0.5"/>
<text text-anchor="middle" x="1131" y="-7.5" font-family="Helvetica,sans-Serif" font-size="10.00">CarlaEpisode.cpp</text>
</a>
</g>
</g>
<!-- Node2&#45;&gt;Node10 -->
<g id="edge33" class="edge"><title>Node2&#45;&gt;Node10</title>
<path fill="none" stroke="midnightblue" d="M890.258,-159.223C903.499,-132.695 932.004,-82.9885 971,-56 990.1,-42.7809 1048.46,-28.3904 1089.14,-19.5304"/>
<polygon fill="midnightblue" stroke="midnightblue" points="886.998,-157.927 885.804,-168.454 893.302,-160.969 886.998,-157.927"/>
</g>
<!-- Node12 -->
<g id="node12" class="node"><title>Node12</title>
<g id="a_node12"><a xlink:href="../../da/df0/CollisionSensor_8cpp.html" target="_top" xlink:title="CollisionSensor.cpp">
<polygon fill="white" stroke="black" points="105.5,-0.5 105.5,-19.5 214.5,-19.5 214.5,-0.5 105.5,-0.5"/>
<text text-anchor="middle" x="160" y="-7.5" font-family="Helvetica,sans-Serif" font-size="10.00">CollisionSensor.cpp</text>
</a>
</g>
</g>
<!-- Node2&#45;&gt;Node12 -->
<g id="edge34" class="edge"><title>Node2&#45;&gt;Node12</title>
<path fill="none" stroke="midnightblue" d="M827.881,-177.639C726.02,-177.763 499.381,-172.89 314,-132 244.103,-116.582 205.221,-133.799 163,-76 150.739,-59.2153 154.553,-32.9795 157.669,-19.5496"/>
<polygon fill="midnightblue" stroke="midnightblue" points="827.938,-181.139 837.927,-177.61 827.917,-174.139 827.938,-181.139"/>
</g>
<!-- Node14 -->
<g id="node14" class="node"><title>Node14</title>
<g id="a_node14"><a xlink:href="../../d2/d70/ObstacleDetectionSensor_8cpp.html" target="_top" xlink:title="ObstacleDetectionSensor.cpp">
<polygon fill="white" stroke="black" points="368,-0.5 368,-19.5 526,-19.5 526,-0.5 368,-0.5"/>
<text text-anchor="middle" x="447" y="-7.5" font-family="Helvetica,sans-Serif" font-size="10.00">ObstacleDetectionSensor.cpp</text>
</a>
</g>
</g>
<!-- Node2&#45;&gt;Node14 -->
<g id="edge36" class="edge"><title>Node2&#45;&gt;Node14</title>
<path fill="none" stroke="midnightblue" d="M827.837,-168.008C756.807,-154.77 629.64,-126.028 531,-76 500.74,-60.6531 470.584,-33.7882 456.015,-19.8908"/>
<polygon fill="midnightblue" stroke="midnightblue" points="827.433,-171.492 837.9,-169.85 828.693,-164.607 827.433,-171.492"/>
</g>
<!-- Node18 -->
<g id="node18" class="node"><title>Node18</title>
<g id="a_node18"><a xlink:href="../../d9/dc8/CarlaStatics_8h.html" target="_top" xlink:title="CarlaStatics.h">
<polygon fill="white" stroke="black" points="840.5,-56.5 840.5,-75.5 923.5,-75.5 923.5,-56.5 840.5,-56.5"/>
<text text-anchor="middle" x="882" y="-63.5" font-family="Helvetica,sans-Serif" font-size="10.00">CarlaStatics.h</text>
</a>
</g>
</g>
<!-- Node2&#45;&gt;Node18 -->
<g id="edge17" class="edge"><title>Node2&#45;&gt;Node18</title>
<path fill="none" stroke="midnightblue" d="M882,-158.348C882,-134.254 882,-93.3079 882,-75.5914"/>
<polygon fill="midnightblue" stroke="midnightblue" points="878.5,-158.368 882,-168.368 885.5,-158.369 878.5,-158.368"/>
</g>
<!-- Node23 -->
<g id="node23" class="node"><title>Node23</title>
<g id="a_node23"><a xlink:href="../../d3/d49/CarlaGameModeBase_8h.html" target="_top" xlink:title="CarlaGameModeBase.h">
<polygon fill="white" stroke="black" points="323,-112.5 323,-131.5 453,-131.5 453,-112.5 323,-112.5"/>
<text text-anchor="middle" x="388" y="-119.5" font-family="Helvetica,sans-Serif" font-size="10.00">CarlaGameModeBase.h</text>
</a>
</g>
</g>
<!-- Node2&#45;&gt;Node23 -->
<g id="edge25" class="edge"><title>Node2&#45;&gt;Node23</title>
<path fill="none" stroke="midnightblue" d="M827.563,-171.049C735.993,-161.04 551.529,-140.876 453.198,-130.127"/>
<polygon fill="midnightblue" stroke="midnightblue" points="827.405,-174.553 837.726,-172.16 828.166,-167.594 827.405,-174.553"/>
</g>
<!-- Node26 -->
<g id="node26" class="node"><title>Node26</title>
<g id="a_node26"><a xlink:href="../../d6/da1/CarlaEngine_8cpp.html" target="_top" xlink:title="CarlaEngine.cpp">
<polygon fill="white" stroke="black" points="0,-112.5 0,-131.5 94,-131.5 94,-112.5 0,-112.5"/>
<text text-anchor="middle" x="47" y="-119.5" font-family="Helvetica,sans-Serif" font-size="10.00">CarlaEngine.cpp</text>
</a>
</g>
</g>
<!-- Node2&#45;&gt;Node26 -->
<g id="edge32" class="edge"><title>Node2&#45;&gt;Node26</title>
<path fill="none" stroke="midnightblue" d="M827.623,-175.492C701.104,-171.622 377.265,-159.637 108,-132 103.527,-131.541 98.8805,-130.99 94.2368,-130.39"/>
<polygon fill="midnightblue" stroke="midnightblue" points="827.719,-178.996 837.82,-175.799 827.93,-171.999 827.719,-178.996"/>
</g>
<!-- Node4 -->
<g id="node4" class="node"><title>Node4</title>
<g id="a_node4"><a xlink:href="../../d9/d73/GnssSensor_8h.html" target="_top" xlink:title="GnssSensor.h">
<polygon fill="white" stroke="red" points="1629.5,-56.5 1629.5,-75.5 1712.5,-75.5 1712.5,-56.5 1629.5,-56.5"/>
<text text-anchor="middle" x="1671" y="-63.5" font-family="Helvetica,sans-Serif" font-size="10.00">GnssSensor.h</text>
</a>
</g>
</g>
<!-- Node3&#45;&gt;Node4 -->
<g id="edge3" class="edge"><title>Node3&#45;&gt;Node4</title>
<path fill="none" stroke="midnightblue" d="M1246.86,-117.541C1320.67,-110.939 1483.55,-95.4523 1620,-76 1623.03,-75.5686 1626.15,-75.093 1629.29,-74.5926"/>
<polygon fill="midnightblue" stroke="midnightblue" points="1246.28,-114.078 1236.63,-118.45 1246.9,-121.051 1246.28,-114.078"/>
</g>
<!-- Node6 -->
<g id="node6" class="node"><title>Node6</title>
<g id="a_node6"><a xlink:href="../../d6/de9/Radar_8h.html" target="_top" xlink:title="Radar.h">
<polygon fill="white" stroke="red" points="1180.5,-56.5 1180.5,-75.5 1233.5,-75.5 1233.5,-56.5 1180.5,-56.5"/>
<text text-anchor="middle" x="1207" y="-63.5" font-family="Helvetica,sans-Serif" font-size="10.00">Radar.h</text>
</a>
</g>
</g>
<!-- Node3&#45;&gt;Node6 -->
<g id="edge5" class="edge"><title>Node3&#45;&gt;Node6</title>
<path fill="none" stroke="midnightblue" d="M1207,-101.805C1207,-92.9102 1207,-82.7798 1207,-75.7511"/>
<polygon fill="midnightblue" stroke="midnightblue" points="1203.5,-102.083 1207,-112.083 1210.5,-102.083 1203.5,-102.083"/>
</g>
<!-- Node7 -->
<g id="node7" class="node"><title>Node7</title>
<g id="a_node7"><a xlink:href="../../d7/dfa/InertialMeasurementUnit_8h.html" target="_top" xlink:title="InertialMeasurementUnit.h">
<polygon fill="white" stroke="red" points="980,-56.5 980,-75.5 1124,-75.5 1124,-56.5 980,-56.5"/>
<text text-anchor="middle" x="1052" y="-63.5" font-family="Helvetica,sans-Serif" font-size="10.00">InertialMeasurementUnit.h</text>
</a>
</g>
</g>
<!-- Node3&#45;&gt;Node7 -->
<g id="edge6" class="edge"><title>Node3&#45;&gt;Node7</title>
<path fill="none" stroke="midnightblue" d="M1172.67,-109.039C1143.5,-98.8786 1102.36,-84.5457 1076.45,-75.5164"/>
<polygon fill="midnightblue" stroke="midnightblue" points="1171.84,-112.459 1182.44,-112.444 1174.15,-105.848 1171.84,-112.459"/>
</g>
<!-- Node8 -->
<g id="node8" class="node"><title>Node8</title>
<g id="a_node8"><a xlink:href="../../d8/d95/SceneCaptureSensor_8h.html" target="_top" xlink:title="SceneCaptureSensor.h">
<polygon fill="white" stroke="red" points="1251.5,-56.5 1251.5,-75.5 1378.5,-75.5 1378.5,-56.5 1251.5,-56.5"/>
<text text-anchor="middle" x="1315" y="-63.5" font-family="Helvetica,sans-Serif" font-size="10.00">SceneCaptureSensor.h</text>
</a>
</g>
</g>
<!-- Node3&#45;&gt;Node8 -->
<g id="edge7" class="edge"><title>Node3&#45;&gt;Node8</title>
<path fill="none" stroke="midnightblue" d="M1233.55,-107.726C1253.55,-97.7271 1280.39,-84.3065 1297.69,-75.6545"/>
<polygon fill="midnightblue" stroke="midnightblue" points="1231.73,-104.721 1224.35,-112.324 1234.86,-110.982 1231.73,-104.721"/>
</g>
<!-- Node3&#45;&gt;Node10 -->
<g id="edge9" class="edge"><title>Node3&#45;&gt;Node10</title>
<path fill="none" stroke="midnightblue" d="M1192.95,-104.444C1186.08,-96.1012 1177.84,-85.7163 1171,-76 1157.27,-56.4948 1143.08,-32.2838 1135.85,-19.6276"/>
<polygon fill="midnightblue" stroke="midnightblue" points="1190.4,-106.852 1199.5,-112.285 1195.77,-102.366 1190.4,-106.852"/>
</g>
<!-- Node11 -->
<g id="node11" class="node"><title>Node11</title>
<g id="a_node11"><a xlink:href="../../d3/dd6/CollisionSensor_8h.html" target="_top" xlink:title="CollisionSensor.h">
<polygon fill="white" stroke="black" points="386,-56.5 386,-75.5 484,-75.5 484,-56.5 386,-56.5"/>
<text text-anchor="middle" x="435" y="-63.5" font-family="Helvetica,sans-Serif" font-size="10.00">CollisionSensor.h</text>
</a>
</g>
</g>
<!-- Node3&#45;&gt;Node11 -->
<g id="edge10" class="edge"><title>Node3&#45;&gt;Node11</title>
<path fill="none" stroke="midnightblue" d="M1167.24,-118.73C1062.87,-112.688 772.44,-95.35 531,-76 515.816,-74.783 499.296,-73.2941 484.309,-71.8802"/>
<polygon fill="midnightblue" stroke="midnightblue" points="1167.14,-122.23 1177.33,-119.312 1167.55,-115.241 1167.14,-122.23"/>
</g>
<!-- Node13 -->
<g id="node13" class="node"><title>Node13</title>
<g id="a_node13"><a xlink:href="../../d7/d55/ObstacleDetectionSensor_8h.html" target="_top" xlink:title="ObstacleDetectionSensor.h">
<polygon fill="white" stroke="black" points="675.5,-56.5 675.5,-75.5 822.5,-75.5 822.5,-56.5 675.5,-56.5"/>
<text text-anchor="middle" x="749" y="-63.5" font-family="Helvetica,sans-Serif" font-size="10.00">ObstacleDetectionSensor.h</text>
</a>
</g>
</g>
<!-- Node3&#45;&gt;Node13 -->
<g id="edge12" class="edge"><title>Node3&#45;&gt;Node13</title>
<path fill="none" stroke="midnightblue" d="M1167.04,-116.289C1089.82,-107.184 919.098,-87.0552 821.39,-75.5351"/>
<polygon fill="midnightblue" stroke="midnightblue" points="1166.96,-119.803 1177.3,-117.499 1167.78,-112.852 1166.96,-119.803"/>
</g>
<!-- Node15 -->
<g id="node15" class="node"><title>Node15</title>
<g id="a_node15"><a xlink:href="../../d1/d53/RayCastLidar_8h.html" target="_top" xlink:title="RayCastLidar.h">
<polygon fill="white" stroke="red" points="1435.5,-56.5 1435.5,-75.5 1522.5,-75.5 1522.5,-56.5 1435.5,-56.5"/>
<text text-anchor="middle" x="1479" y="-63.5" font-family="Helvetica,sans-Serif" font-size="10.00">RayCastLidar.h</text>
</a>
</g>
</g>
<!-- Node3&#45;&gt;Node15 -->
<g id="edge14" class="edge"><title>Node3&#45;&gt;Node15</title>
<path fill="none" stroke="midnightblue" d="M1246.51,-113.156C1296.97,-103.138 1383.97,-85.8662 1436.03,-75.5299"/>
<polygon fill="midnightblue" stroke="midnightblue" points="1245.75,-109.738 1236.63,-115.118 1247.12,-116.604 1245.75,-109.738"/>
</g>
<!-- Node16 -->
<g id="node16" class="node"><title>Node16</title>
<g id="a_node16"><a xlink:href="../../d7/d16/Sensor_8cpp.html" target="_top" xlink:title="Sensor.cpp">
<polygon fill="white" stroke="black" points="1541,-56.5 1541,-75.5 1611,-75.5 1611,-56.5 1541,-56.5"/>
<text text-anchor="middle" x="1576" y="-63.5" font-family="Helvetica,sans-Serif" font-size="10.00">Sensor.cpp</text>
</a>
</g>
</g>
<!-- Node3&#45;&gt;Node16 -->
<g id="edge15" class="edge"><title>Node3&#45;&gt;Node16</title>
<path fill="none" stroke="midnightblue" d="M1246.57,-116.273C1307.73,-108.794 1428.84,-93.2942 1531,-76 1534.14,-75.4681 1537.4,-74.8826 1540.66,-74.2734"/>
<polygon fill="midnightblue" stroke="midnightblue" points="1246.08,-112.807 1236.57,-117.489 1246.92,-119.756 1246.08,-112.807"/>
</g>
<!-- Node17 -->
<g id="node17" class="node"><title>Node17</title>
<g id="a_node17"><a xlink:href="../../d0/dde/SensorFactory_8cpp.html" target="_top" xlink:title="SensorFactory.cpp">
<polygon fill="white" stroke="black" points="1355,-0.5 1355,-19.5 1459,-19.5 1459,-0.5 1355,-0.5"/>
<text text-anchor="middle" x="1407" y="-7.5" font-family="Helvetica,sans-Serif" font-size="10.00">SensorFactory.cpp</text>
</a>
</g>
</g>
<!-- Node3&#45;&gt;Node17 -->
<g id="edge16" class="edge"><title>Node3&#45;&gt;Node17</title>
<path fill="none" stroke="midnightblue" d="M1246.69,-115.685C1293.36,-108.67 1367,-94.9533 1387,-76 1402.94,-60.8925 1406.27,-33.425 1406.91,-19.5333"/>
<polygon fill="midnightblue" stroke="midnightblue" points="1245.99,-112.251 1236.6,-117.161 1247,-119.177 1245.99,-112.251"/>
</g>
<!-- Node4&#45;&gt;Node5 -->
<g id="edge4" class="edge"><title>Node4&#45;&gt;Node5</title>
<path fill="none" stroke="midnightblue" d="M1682.3,-47.5656C1688.32,-38.2747 1695.47,-27.2484 1700.33,-19.7511"/>
<polygon fill="midnightblue" stroke="midnightblue" points="1679.28,-45.7878 1676.78,-56.083 1685.16,-49.5951 1679.28,-45.7878"/>
</g>
<!-- Node9 -->
<g id="node9" class="node"><title>Node9</title>
<g id="a_node9"><a xlink:href="../../db/d2d/SceneCaptureSensor_8cpp.html" target="_top" xlink:title="SceneCaptureSensor.cpp">
<polygon fill="white" stroke="black" points="1199,-0.5 1199,-19.5 1337,-19.5 1337,-0.5 1199,-0.5"/>
<text text-anchor="middle" x="1268" y="-7.5" font-family="Helvetica,sans-Serif" font-size="10.00">SceneCaptureSensor.cpp</text>
</a>
</g>
</g>
<!-- Node8&#45;&gt;Node9 -->
<g id="edge8" class="edge"><title>Node8&#45;&gt;Node9</title>
<path fill="none" stroke="midnightblue" d="M1300.58,-48.4314C1292.34,-38.9673 1282.35,-27.4827 1275.62,-19.7511"/>
<polygon fill="midnightblue" stroke="midnightblue" points="1298.03,-50.8378 1307.24,-56.083 1303.31,-46.2421 1298.03,-50.8378"/>
</g>
<!-- Node11&#45;&gt;Node12 -->
<g id="edge11" class="edge"><title>Node11&#45;&gt;Node12</title>
<path fill="none" stroke="midnightblue" d="M381.392,-54.4734C329.419,-44.2678 251.562,-28.9794 203.371,-19.5164"/>
<polygon fill="midnightblue" stroke="midnightblue" points="380.938,-57.951 391.425,-56.4435 382.287,-51.0822 380.938,-57.951"/>
</g>
<!-- Node13&#45;&gt;Node14 -->
<g id="edge13" class="edge"><title>Node13&#45;&gt;Node14</title>
<path fill="none" stroke="midnightblue" d="M691.196,-54.6642C634.123,-44.4592 547.882,-29.0386 494.629,-19.5164"/>
<polygon fill="midnightblue" stroke="midnightblue" points="690.687,-58.1287 701.147,-56.4435 691.919,-51.2379 690.687,-58.1287"/>
</g>
<!-- Node18&#45;&gt;Node9 -->
<g id="edge21" class="edge"><title>Node18&#45;&gt;Node9</title>
<path fill="none" stroke="midnightblue" d="M933.718,-57.7648C1004.64,-47.843 1131.85,-30.0468 1207.23,-19.5014"/>
<polygon fill="midnightblue" stroke="midnightblue" points="933.094,-54.3179 923.676,-59.1697 934.064,-61.2504 933.094,-54.3179"/>
</g>
<!-- Node18&#45;&gt;Node10 -->
<g id="edge19" class="edge"><title>Node18&#45;&gt;Node10</title>
<path fill="none" stroke="midnightblue" d="M931.424,-54.2815C978.479,-44.0769 1048.37,-28.9203 1091.73,-19.5164"/>
<polygon fill="midnightblue" stroke="midnightblue" points="930.486,-50.9036 921.455,-56.4435 931.969,-57.7445 930.486,-50.9036"/>
</g>
<!-- Node18&#45;&gt;Node17 -->
<g id="edge22" class="edge"><title>Node18&#45;&gt;Node17</title>
<path fill="none" stroke="midnightblue" d="M933.705,-59.7266C945.932,-58.492 958.926,-57.1901 971,-56 1137.63,-39.5772 1179.79,-40.2258 1346,-20 1348.87,-19.6508 1351.81,-19.2752 1354.78,-18.8826"/>
<polygon fill="midnightblue" stroke="midnightblue" points="933.248,-56.2549 923.651,-60.744 933.953,-63.2193 933.248,-56.2549"/>
</g>
<!-- Node19 -->
<g id="node19" class="node"><title>Node19</title>
<g id="a_node19"><a xlink:href="../../d0/d3b/CarlaBlueprintRegistry_8cpp.html" target="_top" xlink:title="CarlaBlueprintRegistry.cpp">
<polygon fill="white" stroke="black" points="810,-0.5 810,-19.5 950,-19.5 950,-0.5 810,-0.5"/>
<text text-anchor="middle" x="880" y="-7.5" font-family="Helvetica,sans-Serif" font-size="10.00">CarlaBlueprintRegistry.cpp</text>
</a>
</g>
</g>
<!-- Node18&#45;&gt;Node19 -->
<g id="edge18" class="edge"><title>Node18&#45;&gt;Node19</title>
<path fill="none" stroke="midnightblue" d="M881.289,-45.8045C880.96,-36.9102 880.584,-26.7798 880.324,-19.7511"/>
<polygon fill="midnightblue" stroke="midnightblue" points="877.802,-46.2194 881.67,-56.083 884.797,-45.9603 877.802,-46.2194"/>
</g>
<!-- Node20 -->
<g id="node20" class="node"><title>Node20</title>
<g id="a_node20"><a xlink:href="../../d5/d6e/CarlaStatics_8cpp.html" target="_top" xlink:title="CarlaStatics.cpp">
<polygon fill="white" stroke="black" points="968.5,-0.5 968.5,-19.5 1063.5,-19.5 1063.5,-0.5 968.5,-0.5"/>
<text text-anchor="middle" x="1016" y="-7.5" font-family="Helvetica,sans-Serif" font-size="10.00">CarlaStatics.cpp</text>
</a>
</g>
</g>
<!-- Node18&#45;&gt;Node20 -->
<g id="edge20" class="edge"><title>Node18&#45;&gt;Node20</title>
<path fill="none" stroke="midnightblue" d="M912.677,-52.6377C937.823,-42.504 972.754,-28.4274 994.867,-19.5164"/>
<polygon fill="midnightblue" stroke="midnightblue" points="911.2,-49.4594 903.233,-56.4435 913.816,-55.952 911.2,-49.4594"/>
</g>
<!-- Node21 -->
<g id="node21" class="node"><title>Node21</title>
<g id="a_node21"><a xlink:href="../../d6/d3f/TrafficLightManager_8cpp.html" target="_top" xlink:title="TrafficLightManager.cpp">
<polygon fill="white" stroke="black" points="544,-0.5 544,-19.5 672,-19.5 672,-0.5 544,-0.5"/>
<text text-anchor="middle" x="608" y="-7.5" font-family="Helvetica,sans-Serif" font-size="10.00">TrafficLightManager.cpp</text>
</a>
</g>
</g>
<!-- Node18&#45;&gt;Node21 -->
<g id="edge23" class="edge"><title>Node18&#45;&gt;Node21</title>
<path fill="none" stroke="midnightblue" d="M830.419,-54.8344C778.702,-44.6421 699.965,-29.1244 651.366,-19.5467"/>
<polygon fill="midnightblue" stroke="midnightblue" points="829.897,-58.2988 840.385,-56.7986 831.251,-51.4309 829.897,-58.2988"/>
</g>
<!-- Node22 -->
<g id="node22" class="node"><title>Node22</title>
<g id="a_node22"><a xlink:href="../../d3/da1/TriggerFactory_8cpp.html" target="_top" xlink:title="TriggerFactory.cpp">
<polygon fill="white" stroke="black" points="690.5,-0.5 690.5,-19.5 791.5,-19.5 791.5,-0.5 690.5,-0.5"/>
<text text-anchor="middle" x="741" y="-7.5" font-family="Helvetica,sans-Serif" font-size="10.00">TriggerFactory.cpp</text>
</a>
</g>
</g>
<!-- Node18&#45;&gt;Node22 -->
<g id="edge24" class="edge"><title>Node18&#45;&gt;Node22</title>
<path fill="none" stroke="midnightblue" d="M850.071,-52.772C823.586,-42.6287 786.608,-28.4669 763.237,-19.5164"/>
<polygon fill="midnightblue" stroke="midnightblue" points="849.068,-56.1355 859.658,-56.4435 851.571,-49.5985 849.068,-56.1355"/>
</g>
<!-- Node23&#45;&gt;Node12 -->
<g id="edge28" class="edge"><title>Node23&#45;&gt;Node12</title>
<path fill="none" stroke="midnightblue" d="M312.6,-112.928C260.928,-105.914 198.363,-94.0115 179,-76 162.988,-61.1061 160.214,-33.5419 159.893,-19.5812"/>
<polygon fill="midnightblue" stroke="midnightblue" points="312.401,-116.432 322.773,-114.266 313.314,-109.492 312.401,-116.432"/>
</g>
<!-- Node23&#45;&gt;Node14 -->
<g id="edge29" class="edge"><title>Node23&#45;&gt;Node14</title>
<path fill="none" stroke="midnightblue" d="M379.108,-103.161C373.635,-89.4927 369.046,-70.5692 377,-56 386.623,-38.374 406.433,-26.622 422.531,-19.5617"/>
<polygon fill="midnightblue" stroke="midnightblue" points="375.981,-104.742 383.272,-112.429 382.366,-101.873 375.981,-104.742"/>
</g>
<!-- Node23&#45;&gt;Node18 -->
<g id="edge26" class="edge"><title>Node23&#45;&gt;Node18</title>
<path fill="none" stroke="midnightblue" d="M463.301,-115.047C551.607,-107.674 702.288,-93.8696 831,-76 834.028,-75.5796 837.151,-75.1122 840.291,-74.6175"/>
<polygon fill="midnightblue" stroke="midnightblue" points="462.787,-111.578 453.111,-115.892 463.366,-118.554 462.787,-111.578"/>
</g>
<!-- Node24 -->
<g id="node24" class="node"><title>Node24</title>
<g id="a_node24"><a xlink:href="../../d0/d2e/CarlaGameModeBase_8cpp.html" target="_top" xlink:title="CarlaGameModeBase.cpp">
<polygon fill="white" stroke="black" points="188.5,-56.5 188.5,-75.5 329.5,-75.5 329.5,-56.5 188.5,-56.5"/>
<text text-anchor="middle" x="259" y="-63.5" font-family="Helvetica,sans-Serif" font-size="10.00">CarlaGameModeBase.cpp</text>
</a>
</g>
</g>
<!-- Node23&#45;&gt;Node24 -->
<g id="edge27" class="edge"><title>Node23&#45;&gt;Node24</title>
<path fill="none" stroke="midnightblue" d="M358.146,-108.503C333.962,-98.3795 300.538,-84.388 279.345,-75.5164"/>
<polygon fill="midnightblue" stroke="midnightblue" points="356.984,-111.811 367.56,-112.444 359.687,-105.354 356.984,-111.811"/>
</g>
<!-- Node25 -->
<g id="node25" class="node"><title>Node25</title>
<g id="a_node25"><a xlink:href="../../da/ddb/TrafficLightManager_8h.html" target="_top" xlink:title="TrafficLightManager.h">
<polygon fill="white" stroke="red" points="540.5,-56.5 540.5,-75.5 657.5,-75.5 657.5,-56.5 540.5,-56.5"/>
<text text-anchor="middle" x="599" y="-63.5" font-family="Helvetica,sans-Serif" font-size="10.00">TrafficLightManager.h</text>
</a>
</g>
</g>
<!-- Node23&#45;&gt;Node25 -->
<g id="edge30" class="edge"><title>Node23&#45;&gt;Node25</title>
<path fill="none" stroke="midnightblue" d="M431.142,-109.959C470.994,-99.7598 529.363,-84.8217 565.723,-75.5164"/>
<polygon fill="midnightblue" stroke="midnightblue" points="430.254,-106.573 421.434,-112.444 431.989,-113.355 430.254,-106.573"/>
</g>
<!-- Node25&#45;&gt;Node21 -->
<g id="edge31" class="edge"><title>Node25&#45;&gt;Node21</title>
<path fill="none" stroke="midnightblue" d="M602.15,-46.1005C603.644,-37.1357 605.357,-26.8579 606.541,-19.7511"/>
<polygon fill="midnightblue" stroke="midnightblue" points="598.678,-45.6436 600.486,-56.083 605.583,-46.7945 598.678,-45.6436"/>
</g>
<!-- Node28 -->
<g id="node28" class="node"><title>Node28</title>
<g id="a_node28"><a xlink:href="../../d6/d4a/Simulator_8h.html" target="_top" xlink:title="Simulator.h">
<polygon fill="white" stroke="red" points="2686.5,-112.5 2686.5,-131.5 2757.5,-131.5 2757.5,-112.5 2686.5,-112.5"/>
<text text-anchor="middle" x="2722" y="-119.5" font-family="Helvetica,sans-Serif" font-size="10.00">Simulator.h</text>
</a>
</g>
</g>
<!-- Node27&#45;&gt;Node28 -->
<g id="edge38" class="edge"><title>Node27&#45;&gt;Node28</title>
<path fill="none" stroke="midnightblue" d="M2756.92,-160.718C2748.11,-151.2 2737.33,-139.561 2730.1,-131.751"/>
<polygon fill="midnightblue" stroke="midnightblue" points="2754.38,-163.123 2763.74,-168.083 2759.52,-158.367 2754.38,-163.123"/>
</g>
<!-- Node47 -->
<g id="node47" class="node"><title>Node47</title>
<g id="a_node47"><a xlink:href="../../df/dd6/ActorFactory_8cpp.html" target="_top" xlink:title="ActorFactory.cpp">
<polygon fill="white" stroke="black" points="2775.5,-112.5 2775.5,-131.5 2870.5,-131.5 2870.5,-112.5 2775.5,-112.5"/>
<text text-anchor="middle" x="2823" y="-119.5" font-family="Helvetica,sans-Serif" font-size="10.00">ActorFactory.cpp</text>
</a>
</g>
</g>
<!-- Node27&#45;&gt;Node47 -->
<g id="edge59" class="edge"><title>Node27&#45;&gt;Node47</title>
<path fill="none" stroke="midnightblue" d="M2787.38,-160.718C2796.37,-151.2 2807.36,-139.561 2814.74,-131.751"/>
<polygon fill="midnightblue" stroke="midnightblue" points="2784.74,-158.41 2780.42,-168.083 2789.83,-163.216 2784.74,-158.41"/>
</g>
<!-- Node48 -->
<g id="node48" class="node"><title>Node48</title>
<g id="a_node48"><a xlink:href="../../dc/d4a/client_2detail_2Client_8cpp.html" target="_top" xlink:title="Client.cpp">
<polygon fill="white" stroke="black" points="2889,-112.5 2889,-131.5 2953,-131.5 2953,-112.5 2889,-112.5"/>
<text text-anchor="middle" x="2921" y="-119.5" font-family="Helvetica,sans-Serif" font-size="10.00">Client.cpp</text>
</a>
</g>
</g>
<!-- Node27&#45;&gt;Node48 -->
<g id="edge60" class="edge"><title>Node27&#45;&gt;Node48</title>
<path fill="none" stroke="midnightblue" d="M2805.37,-164.906C2833.38,-154.754 2872.7,-140.506 2897.5,-131.516"/>
<polygon fill="midnightblue" stroke="midnightblue" points="2803.82,-161.746 2795.61,-168.444 2806.2,-168.327 2803.82,-161.746"/>
</g>
<!-- Node49 -->
<g id="node49" class="node"><title>Node49</title>
<g id="a_node49"><a xlink:href="../../d6/d12/Episode_8cpp.html" target="_top" xlink:title="Episode.cpp">
<polygon fill="white" stroke="black" points="2971,-112.5 2971,-131.5 3045,-131.5 3045,-112.5 2971,-112.5"/>
<text text-anchor="middle" x="3008" y="-119.5" font-family="Helvetica,sans-Serif" font-size="10.00">Episode.cpp</text>
</a>
</g>
</g>
<!-- Node27&#45;&gt;Node49 -->
<g id="edge61" class="edge"><title>Node27&#45;&gt;Node49</title>
<path fill="none" stroke="midnightblue" d="M2808.61,-168.623C2852.67,-158.542 2926.25,-141.706 2970.64,-131.549"/>
<polygon fill="midnightblue" stroke="midnightblue" points="2807.58,-165.268 2798.61,-170.91 2809.14,-172.092 2807.58,-165.268"/>
</g>
<!-- Node50 -->
<g id="node50" class="node"><title>Node50</title>
<g id="a_node50"><a xlink:href="../../de/d84/WalkerNavigation_8cpp.html" target="_top" xlink:title="WalkerNavigation.cpp">
<polygon fill="white" stroke="black" points="2549.5,-112.5 2549.5,-131.5 2668.5,-131.5 2668.5,-112.5 2549.5,-112.5"/>
<text text-anchor="middle" x="2609" y="-119.5" font-family="Helvetica,sans-Serif" font-size="10.00">WalkerNavigation.cpp</text>
</a>
</g>
</g>
<!-- Node27&#45;&gt;Node50 -->
<g id="edge62" class="edge"><title>Node27&#45;&gt;Node50</title>
<path fill="none" stroke="midnightblue" d="M2736.3,-165.172C2705.6,-155.004 2662.08,-140.585 2634.71,-131.516"/>
<polygon fill="midnightblue" stroke="midnightblue" points="2735.58,-168.621 2746.17,-168.444 2737.78,-161.976 2735.58,-168.621"/>
</g>
<!-- Node29 -->
<g id="node29" class="node"><title>Node29</title>
<g id="a_node29"><a xlink:href="../../d4/d34/Actor_8cpp.html" target="_top" xlink:title="Actor.cpp">
<polygon fill="white" stroke="black" points="3429,-56.5 3429,-75.5 3491,-75.5 3491,-56.5 3429,-56.5"/>
<text text-anchor="middle" x="3460" y="-63.5" font-family="Helvetica,sans-Serif" font-size="10.00">Actor.cpp</text>
</a>
</g>
</g>
<!-- Node28&#45;&gt;Node29 -->
<g id="edge39" class="edge"><title>Node28&#45;&gt;Node29</title>
<path fill="none" stroke="midnightblue" d="M2768.29,-111.88C3056.54,-75.6895 3135.05,-115.619 3420,-76 3422.82,-75.6079 3425.74,-75.1186 3428.65,-74.5721"/>
<polygon fill="midnightblue" stroke="midnightblue" points="2767.42,-108.462 2757.95,-113.2 2768.31,-115.406 2767.42,-108.462"/>
</g>
<!-- Node30 -->
<g id="node30" class="node"><title>Node30</title>
<g id="a_node30"><a xlink:href="../../dd/de3/client_2Client_8h.html" target="_top" xlink:title="Client.h">
<polygon fill="white" stroke="red" points="3509.5,-56.5 3509.5,-75.5 3562.5,-75.5 3562.5,-56.5 3509.5,-56.5"/>
<text text-anchor="middle" x="3536" y="-63.5" font-family="Helvetica,sans-Serif" font-size="10.00">Client.h</text>
</a>
</g>
</g>
<!-- Node28&#45;&gt;Node30 -->
<g id="edge40" class="edge"><title>Node28&#45;&gt;Node30</title>
<path fill="none" stroke="midnightblue" d="M2768.08,-111.919C3091.86,-72.2246 3180.22,-123.347 3500,-76 3503.06,-75.5471 3506.24,-74.9476 3509.38,-74.2724"/>
<polygon fill="midnightblue" stroke="midnightblue" points="2767.43,-108.473 2757.94,-113.182 2768.3,-115.419 2767.43,-108.473"/>
</g>
<!-- Node31 -->
<g id="node31" class="node"><title>Node31</title>
<g id="a_node31"><a xlink:href="../../d2/d01/DebugHelper_8cpp.html" target="_top" xlink:title="DebugHelper.cpp">
<polygon fill="white" stroke="black" points="3580.5,-56.5 3580.5,-75.5 3679.5,-75.5 3679.5,-56.5 3580.5,-56.5"/>
<text text-anchor="middle" x="3630" y="-63.5" font-family="Helvetica,sans-Serif" font-size="10.00">DebugHelper.cpp</text>
</a>
</g>
</g>
<!-- Node28&#45;&gt;Node31 -->
<g id="edge41" class="edge"><title>Node28&#45;&gt;Node31</title>
<path fill="none" stroke="midnightblue" d="M2767.99,-111.934C3123.17,-68.7723 3217.89,-110.728 3571,-76 3574.09,-75.6958 3577.27,-75.3392 3580.47,-74.9468"/>
<polygon fill="midnightblue" stroke="midnightblue" points="2767.44,-108.475 2757.94,-113.169 2768.29,-115.423 2767.44,-108.475"/>
</g>
<!-- Node32 -->
<g id="node32" class="node"><title>Node32</title>
<g id="a_node32"><a xlink:href="../../d2/d6b/EpisodeProxy_8cpp.html" target="_top" xlink:title="EpisodeProxy.cpp">
<polygon fill="white" stroke="black" points="1769.5,-56.5 1769.5,-75.5 1868.5,-75.5 1868.5,-56.5 1769.5,-56.5"/>
<text text-anchor="middle" x="1819" y="-63.5" font-family="Helvetica,sans-Serif" font-size="10.00">EpisodeProxy.cpp</text>
</a>
</g>
</g>
<!-- Node28&#45;&gt;Node32 -->
<g id="edge42" class="edge"><title>Node28&#45;&gt;Node32</title>
<path fill="none" stroke="midnightblue" d="M2676.2,-112.12C2321.96,-69.7541 2227.87,-111.012 1877,-76 1874.26,-75.7268 1871.46,-75.4111 1868.63,-75.065"/>
<polygon fill="midnightblue" stroke="midnightblue" points="2675.87,-115.606 2686.22,-113.332 2676.71,-108.656 2675.87,-115.606"/>
</g>
<!-- Node33 -->
<g id="node33" class="node"><title>Node33</title>
<g id="a_node33"><a xlink:href="../../d2/d0c/Simulator_8cpp.html" target="_top" xlink:title="Simulator.cpp">
<polygon fill="white" stroke="black" points="1886.5,-56.5 1886.5,-75.5 1969.5,-75.5 1969.5,-56.5 1886.5,-56.5"/>
<text text-anchor="middle" x="1928" y="-63.5" font-family="Helvetica,sans-Serif" font-size="10.00">Simulator.cpp</text>
</a>
</g>
</g>
<!-- Node28&#45;&gt;Node33 -->
<g id="edge43" class="edge"><title>Node28&#45;&gt;Node33</title>
<path fill="none" stroke="midnightblue" d="M2676.07,-112.094C2367,-74.2371 2284.33,-110.682 1979,-76 1975.96,-75.655 1972.83,-75.2429 1969.69,-74.7876"/>
<polygon fill="midnightblue" stroke="midnightblue" points="2675.86,-115.595 2686.22,-113.354 2676.72,-108.648 2675.86,-115.595"/>
</g>
<!-- Node34 -->
<g id="node34" class="node"><title>Node34</title>
<g id="a_node34"><a xlink:href="../../dd/dbc/LibCarla_2source_2carla_2client_2LaneInvasionSensor_8cpp.html" target="_top" xlink:title="LaneInvasionSensor.cpp">
<polygon fill="white" stroke="black" points="1988,-56.5 1988,-75.5 2120,-75.5 2120,-56.5 1988,-56.5"/>
<text text-anchor="middle" x="2054" y="-63.5" font-family="Helvetica,sans-Serif" font-size="10.00">LaneInvasionSensor.cpp</text>
</a>
</g>
</g>
<!-- Node28&#45;&gt;Node34 -->
<g id="edge44" class="edge"><title>Node28&#45;&gt;Node34</title>
<path fill="none" stroke="midnightblue" d="M2676.01,-112.058C2433.27,-80.4961 2368.71,-98.2404 2129,-76 2126.13,-75.7335 2123.19,-75.4463 2120.23,-75.1439"/>
<polygon fill="midnightblue" stroke="midnightblue" points="2675.84,-115.566 2686.21,-113.4 2676.75,-108.626 2675.84,-115.566"/>
</g>
<!-- Node35 -->
<g id="node35" class="node"><title>Node35</title>
<g id="a_node35"><a xlink:href="../../d1/da0/ServerSideSensor_8cpp.html" target="_top" xlink:title="ServerSideSensor.cpp">
<polygon fill="white" stroke="black" points="2138,-56.5 2138,-75.5 2260,-75.5 2260,-56.5 2138,-56.5"/>
<text text-anchor="middle" x="2199" y="-63.5" font-family="Helvetica,sans-Serif" font-size="10.00">ServerSideSensor.cpp</text>
</a>
</g>
</g>
<!-- Node28&#45;&gt;Node35 -->
<g id="edge45" class="edge"><title>Node28&#45;&gt;Node35</title>
<path fill="none" stroke="midnightblue" d="M2676.07,-112.025C2495.08,-86.4448 2446.71,-95.2565 2269,-76 2266.08,-75.6832 2263.09,-75.3467 2260.07,-74.997"/>
<polygon fill="midnightblue" stroke="midnightblue" points="2675.8,-115.523 2686.2,-113.473 2676.8,-108.593 2675.8,-115.523"/>
</g>
<!-- Node36 -->
<g id="node36" class="node"><title>Node36</title>
<g id="a_node36"><a xlink:href="../../dd/d90/TrafficLight_8cpp.html" target="_top" xlink:title="TrafficLight.cpp">
<polygon fill="white" stroke="black" points="2278.5,-56.5 2278.5,-75.5 2365.5,-75.5 2365.5,-56.5 2278.5,-56.5"/>
<text text-anchor="middle" x="2322" y="-63.5" font-family="Helvetica,sans-Serif" font-size="10.00">TrafficLight.cpp</text>
</a>
</g>
</g>
<!-- Node28&#45;&gt;Node36 -->
<g id="edge46" class="edge"><title>Node28&#45;&gt;Node36</title>
<path fill="none" stroke="midnightblue" d="M2676.3,-112.007C2541.38,-90.9009 2505.05,-95.1121 2374,-76 2371.28,-75.6033 2368.48,-75.1761 2365.67,-74.7308"/>
<polygon fill="midnightblue" stroke="midnightblue" points="2675.76,-115.466 2686.18,-113.571 2676.85,-108.552 2675.76,-115.466"/>
</g>
<!-- Node37 -->
<g id="node37" class="node"><title>Node37</title>
<g id="a_node37"><a xlink:href="../../d1/d40/TrafficSign_8cpp.html" target="_top" xlink:title="TrafficSign.cpp">
<polygon fill="white" stroke="black" points="2383.5,-56.5 2383.5,-75.5 2468.5,-75.5 2468.5,-56.5 2383.5,-56.5"/>
<text text-anchor="middle" x="2426" y="-63.5" font-family="Helvetica,sans-Serif" font-size="10.00">TrafficSign.cpp</text>
</a>
</g>
</g>
<!-- Node28&#45;&gt;Node37 -->
<g id="edge47" class="edge"><title>Node28&#45;&gt;Node37</title>
<path fill="none" stroke="midnightblue" d="M2676.08,-111.864C2624.02,-102.117 2525.45,-84.5986 2468.63,-74.5359"/>
<polygon fill="midnightblue" stroke="midnightblue" points="2675.68,-115.349 2686.15,-113.763 2676.97,-108.471 2675.68,-115.349"/>
</g>
<!-- Node38 -->
<g id="node38" class="node"><title>Node38</title>
<g id="a_node38"><a xlink:href="../../d0/d27/Vehicle_8cpp.html" target="_top" xlink:title="Vehicle.cpp">
<polygon fill="white" stroke="black" points="2486.5,-56.5 2486.5,-75.5 2557.5,-75.5 2557.5,-56.5 2486.5,-56.5"/>
<text text-anchor="middle" x="2522" y="-63.5" font-family="Helvetica,sans-Serif" font-size="10.00">Vehicle.cpp</text>
</a>
</g>
</g>
<!-- Node28&#45;&gt;Node38 -->
<g id="edge48" class="edge"><title>Node28&#45;&gt;Node38</title>
<path fill="none" stroke="midnightblue" d="M2680.63,-109.829C2642.86,-99.6333 2587.86,-84.7823 2553.54,-75.5164"/>
<polygon fill="midnightblue" stroke="midnightblue" points="2679.74,-113.216 2690.31,-112.444 2681.57,-106.458 2679.74,-113.216"/>
</g>
<!-- Node39 -->
<g id="node39" class="node"><title>Node39</title>
<g id="a_node39"><a xlink:href="../../d6/db6/Walker_8cpp.html" target="_top" xlink:title="Walker.cpp">
<polygon fill="white" stroke="black" points="2575.5,-56.5 2575.5,-75.5 2642.5,-75.5 2642.5,-56.5 2575.5,-56.5"/>
<text text-anchor="middle" x="2609" y="-63.5" font-family="Helvetica,sans-Serif" font-size="10.00">Walker.cpp</text>
</a>
</g>
</g>
<!-- Node28&#45;&gt;Node39 -->
<g id="edge49" class="edge"><title>Node28&#45;&gt;Node39</title>
<path fill="none" stroke="midnightblue" d="M2695,-108.096C2673.89,-98.0073 2645.14,-84.2697 2626.82,-75.5164"/>
<polygon fill="midnightblue" stroke="midnightblue" points="2693.56,-111.29 2704.09,-112.444 2696.58,-104.974 2693.56,-111.29"/>
</g>
<!-- Node40 -->
<g id="node40" class="node"><title>Node40</title>
<g id="a_node40"><a xlink:href="../../de/d69/WalkerAIController_8cpp.html" target="_top" xlink:title="WalkerAIController.cpp">
<polygon fill="white" stroke="black" points="2661,-56.5 2661,-75.5 2783,-75.5 2783,-56.5 2661,-56.5"/>
<text text-anchor="middle" x="2722" y="-63.5" font-family="Helvetica,sans-Serif" font-size="10.00">WalkerAIController.cpp</text>
</a>
</g>
</g>
<!-- Node28&#45;&gt;Node40 -->
<g id="edge50" class="edge"><title>Node28&#45;&gt;Node40</title>
<path fill="none" stroke="midnightblue" d="M2722,-101.805C2722,-92.9102 2722,-82.7798 2722,-75.7511"/>
<polygon fill="midnightblue" stroke="midnightblue" points="2718.5,-102.083 2722,-112.083 2725.5,-102.083 2718.5,-102.083"/>
</g>
<!-- Node41 -->
<g id="node41" class="node"><title>Node41</title>
<g id="a_node41"><a xlink:href="../../d7/dfe/World_8cpp.html" target="_top" xlink:title="World.cpp">
<polygon fill="white" stroke="black" points="2801,-56.5 2801,-75.5 2863,-75.5 2863,-56.5 2801,-56.5"/>
<text text-anchor="middle" x="2832" y="-63.5" font-family="Helvetica,sans-Serif" font-size="10.00">World.cpp</text>
</a>
</g>
</g>
<!-- Node28&#45;&gt;Node41 -->
<g id="edge51" class="edge"><title>Node28&#45;&gt;Node41</title>
<path fill="none" stroke="midnightblue" d="M2748.76,-107.862C2769.16,-97.8492 2796.67,-84.3458 2814.37,-75.6545"/>
<polygon fill="midnightblue" stroke="midnightblue" points="2747.11,-104.775 2739.67,-112.324 2750.19,-111.059 2747.11,-104.775"/>
</g>
<!-- Node42 -->
<g id="node42" class="node"><title>Node42</title>
<g id="a_node42"><a xlink:href="../../d8/d77/LibCarla_2source_2carla_2rss_2RssSensor_8cpp.html" target="_top" xlink:title="RssSensor.cpp">
<polygon fill="white" stroke="black" points="2881,-56.5 2881,-75.5 2967,-75.5 2967,-56.5 2881,-56.5"/>
<text text-anchor="middle" x="2924" y="-63.5" font-family="Helvetica,sans-Serif" font-size="10.00">RssSensor.cpp</text>
</a>
</g>
</g>
<!-- Node28&#45;&gt;Node42 -->
<g id="edge52" class="edge"><title>Node28&#45;&gt;Node42</title>
<path fill="none" stroke="midnightblue" d="M2763.79,-109.829C2801.93,-99.6333 2857.48,-84.7823 2892.14,-75.5164"/>
<polygon fill="midnightblue" stroke="midnightblue" points="2762.76,-106.48 2754.01,-112.444 2764.57,-113.242 2762.76,-106.48"/>
</g>
<!-- Node43 -->
<g id="node43" class="node"><title>Node43</title>
<g id="a_node43"><a xlink:href="../../d6/d75/LaneInvasionEvent_8cpp.html" target="_top" xlink:title="LaneInvasionEvent.cpp">
<polygon fill="white" stroke="black" points="2985,-56.5 2985,-75.5 3111,-75.5 3111,-56.5 2985,-56.5"/>
<text text-anchor="middle" x="3048" y="-63.5" font-family="Helvetica,sans-Serif" font-size="10.00">LaneInvasionEvent.cpp</text>
</a>
</g>
</g>
<!-- Node28&#45;&gt;Node43 -->
<g id="edge53" class="edge"><title>Node28&#45;&gt;Node43</title>
<path fill="none" stroke="midnightblue" d="M2767.57,-111.772C2850.13,-96.8779 2934.94,-83.7437 2989.82,-75.5287"/>
<polygon fill="midnightblue" stroke="midnightblue" points="2766.73,-108.368 2757.52,-113.597 2767.98,-115.255 2766.73,-108.368"/>
</g>
<!-- Node44 -->
<g id="node44" class="node"><title>Node44</title>
<g id="a_node44"><a xlink:href="../../dd/d99/BatchControlStage_8h.html" target="_top" xlink:title="BatchControlStage.h">
<polygon fill="white" stroke="red" points="3167,-56.5 3167,-75.5 3283,-75.5 3283,-56.5 3167,-56.5"/>
<text text-anchor="middle" x="3225" y="-63.5" font-family="Helvetica,sans-Serif" font-size="10.00">BatchControlStage.h</text>
</a>
</g>
</g>
<!-- Node28&#45;&gt;Node44 -->
<g id="edge54" class="edge"><title>Node28&#45;&gt;Node44</title>
<path fill="none" stroke="midnightblue" d="M2768.04,-111.826C2938.61,-86.9512 2984.54,-94.359 3153,-76 3157.51,-75.5087 3162.17,-74.9775 3166.86,-74.4275"/>
<polygon fill="midnightblue" stroke="midnightblue" points="2767.34,-108.39 2757.96,-113.312 2768.37,-115.316 2767.34,-108.39"/>
</g>
<!-- Node45 -->
<g id="node45" class="node"><title>Node45</title>
<g id="a_node45"><a xlink:href="../../db/ddf/TrafficManagerLocal_8h.html" target="_top" xlink:title="TrafficManagerLocal.h">
<polygon fill="white" stroke="red" points="3165.5,-0.5 3165.5,-19.5 3284.5,-19.5 3284.5,-0.5 3165.5,-0.5"/>
<text text-anchor="middle" x="3225" y="-7.5" font-family="Helvetica,sans-Serif" font-size="10.00">TrafficManagerLocal.h</text>
</a>
</g>
</g>
<!-- Node28&#45;&gt;Node45 -->
<g id="edge58" class="edge"><title>Node28&#45;&gt;Node45</title>
<path fill="none" stroke="midnightblue" d="M2767.93,-111.865C2924.34,-89.6776 2973.35,-125.876 3120,-76 3139.59,-69.3384 3189.32,-35.7769 3212.61,-19.6618"/>
<polygon fill="midnightblue" stroke="midnightblue" points="2767.35,-108.414 2757.97,-113.337 2768.37,-115.339 2767.35,-108.414"/>
</g>
<!-- Node46 -->
<g id="node46" class="node"><title>Node46</title>
<g id="a_node46"><a xlink:href="../../d9/df4/LocalizationStage_8h.html" target="_top" xlink:title="LocalizationStage.h">
<polygon fill="white" stroke="red" points="3301,-56.5 3301,-75.5 3411,-75.5 3411,-56.5 3301,-56.5"/>
<text text-anchor="middle" x="3356" y="-63.5" font-family="Helvetica,sans-Serif" font-size="10.00">LocalizationStage.h</text>
</a>
</g>
</g>
<!-- Node28&#45;&gt;Node46 -->
<g id="edge56" class="edge"><title>Node28&#45;&gt;Node46</title>
<path fill="none" stroke="midnightblue" d="M2768.05,-111.878C2999.95,-81.0051 3062.24,-99.9864 3292,-76 3294.9,-75.6971 3297.87,-75.3629 3300.87,-75.0068"/>
<polygon fill="midnightblue" stroke="midnightblue" points="2767.39,-108.435 2757.95,-113.239 2768.33,-115.372 2767.39,-108.435"/>
</g>
<!-- Node44&#45;&gt;Node45 -->
<g id="edge55" class="edge"><title>Node44&#45;&gt;Node45</title>
<path fill="none" stroke="midnightblue" d="M3225,-45.8045C3225,-36.9102 3225,-26.7798 3225,-19.7511"/>
<polygon fill="midnightblue" stroke="midnightblue" points="3221.5,-46.083 3225,-56.083 3228.5,-46.083 3221.5,-46.083"/>
</g>
<!-- Node46&#45;&gt;Node45 -->
<g id="edge57" class="edge"><title>Node46&#45;&gt;Node45</title>
<path fill="none" stroke="midnightblue" d="M3325.68,-52.503C3301.12,-42.3795 3267.18,-28.388 3245.66,-19.5164"/>
<polygon fill="midnightblue" stroke="midnightblue" points="3324.66,-55.8683 3335.24,-56.4435 3327.33,-49.3966 3324.66,-55.8683"/>
</g>
</g>
</svg>
        <g id="navigator" transform="translate(0 0)" fill="#404254">
                <rect fill="#f2f5e9" fill-opacity="0.5" stroke="#606060" stroke-width=".5" x="0" y="0" width="60" height="60"/>
                <use id="zoomplus" xlink:href="#zoomPlus" x="17" y="9" onmousedown="handleZoom(evt,'in')"/>
                <use id="zoomminus" xlink:href="#zoomMin" x="42" y="9" onmousedown="handleZoom(evt,'out')"/>
                <use id="reset" xlink:href="#resetDef" x="30" y="36" onmousedown="handleReset()"/>
                <g id="arrowUp" xlink:href="#dirArrow" transform="translate(30 24)" onmousedown="handlePan(0,-1)">
                  <use xlink:href="#rim" fill="#404040">
                        <set attributeName="fill" to="#808080" begin="arrowUp.mouseover" end="arrowUp.mouseout"/>
                  </use>
                  <path fill="none" stroke="white" stroke-width="1.5" d="M0,-3.0v7 M-2.5,-0.5L0,-3.0L2.5,-0.5"/>
                </g>
                <g id="arrowRight" xlink:href="#dirArrow" transform="rotate(90) translate(36 -43)" onmousedown="handlePan(1,0)">
                  <use xlink:href="#rim" fill="#404040">
                        <set attributeName="fill" to="#808080" begin="arrowRight.mouseover" end="arrowRight.mouseout"/>
                  </use>
                  <path fill="none" stroke="white" stroke-width="1.5" d="M0,-3.0v7 M-2.5,-0.5L0,-3.0L2.5,-0.5"/>
                </g>
                <g id="arrowDown" xlink:href="#dirArrow" transform="rotate(180) translate(-30 -48)" onmousedown="handlePan(0,1)">
                  <use xlink:href="#rim" fill="#404040">
                        <set attributeName="fill" to="#808080" begin="arrowDown.mouseover" end="arrowDown.mouseout"/>
                  </use>
                  <path fill="none" stroke="white" stroke-width="1.5" d="M0,-3.0v7 M-2.5,-0.5L0,-3.0L2.5,-0.5"/>
                </g>
                <g id="arrowLeft" xlink:href="#dirArrow" transform="rotate(270) translate(-36 17)" onmousedown="handlePan(-1,0)">
                  <use xlink:href="#rim" fill="#404040">
                        <set attributeName="fill" to="#808080" begin="arrowLeft.mouseover" end="arrowLeft.mouseout"/>
                  </use>
                  <path fill="none" stroke="white" stroke-width="1.5" d="M0,-3.0v7 M-2.5,-0.5L0,-3.0L2.5,-0.5"/>
                </g>
        </g>
        <svg viewBox="0 0 15 15" width="100%" height="30px" preserveAspectRatio="xMaxYMin meet">
         <g id="arrow_out" transform="scale(0.3 0.3)">
          <a xlink:href="OpendriveGenerationParameters_8h__dep__incl_org.svg" target="_base">
           <rect id="button" ry="5" rx="5" y="6" x="6" height="38" width="38"
                fill="#f2f5e9" fill-opacity="0.5" stroke="#606060" stroke-width="1.0"/>
           <path id="arrow"
             d="M 11.500037,31.436501 C 11.940474,20.09759 22.043105,11.32322 32.158766,21.979434 L 37.068811,17.246167 C 37.068811,17.246167 37.088388,32 37.088388,32 L 22.160133,31.978069 C 22.160133,31.978069 26.997745,27.140456 26.997745,27.140456 C 18.528582,18.264221 13.291696,25.230495 11.500037,31.436501 z"
             style="fill:#404040;"/>
          </a>
         </g>
        </svg>
</svg>
