<?xml version="1.0" encoding="UTF-8" standalone="no"?>
<!DOCTYPE svg PUBLIC "-//W3C//DTD SVG 1.1//EN"
 "http://www.w3.org/Graphics/SVG/1.1/DTD/svg11.dtd">
<!-- Generated by graphviz version 2.38.0 (20140413.2041)
 -->
<!-- Title: carla::client::detail::ActorState::GetBoundingBox Pages: 1 -->
<svg width="517pt" height="137pt"
 viewBox="0.00 0.00 517.00 137.00" xmlns="http://www.w3.org/2000/svg" xmlns:xlink="http://www.w3.org/1999/xlink">
<g id="graph0" class="graph" transform="scale(1 1) rotate(0) translate(4 133)">
<title>carla::client::detail::ActorState::GetBoundingBox</title>
<polygon fill="white" stroke="none" points="-4,4 -4,-133 513,-133 513,4 -4,4"/>
<!-- Node1 -->
<g id="node1" class="node"><title>Node1</title>
<polygon fill="#bfbfbf" stroke="black" points="0,-49.5 0,-79.5 161,-79.5 161,-49.5 0,-49.5"/>
<text text-anchor="start" x="8" y="-67.5" font-family="Helvetica,sans-Serif" font-size="10.00">carla::client::detail</text>
<text text-anchor="middle" x="80.5" y="-56.5" font-family="Helvetica,sans-Serif" font-size="10.00">::ActorState::GetBoundingBox</text>
</g>
<!-- Node2 -->
<g id="node2" class="node"><title>Node2</title>
<g id="a_node2"><a xlink:href="../../dc/d07/classcarla_1_1rss_1_1RssCheck.html#a6d20c555e59cfc23acaa251e229d7c20" target="_top" xlink:title="calculate the map matched object from the actor ">
<polygon fill="white" stroke="black" points="197,-49.5 197,-79.5 309,-79.5 309,-49.5 197,-49.5"/>
<text text-anchor="start" x="205" y="-67.5" font-family="Helvetica,sans-Serif" font-size="10.00">carla::rss::RssCheck</text>
<text text-anchor="middle" x="253" y="-56.5" font-family="Helvetica,sans-Serif" font-size="10.00">::GetMatchObject</text>
</a>
</g>
</g>
<!-- Node1&#45;&gt;Node2 -->
<g id="edge1" class="edge"><title>Node1&#45;&gt;Node2</title>
<path fill="none" stroke="midnightblue" d="M171.364,-64.5C179.965,-64.5 188.503,-64.5 196.627,-64.5"/>
<polygon fill="midnightblue" stroke="midnightblue" points="171.259,-61.0001 161.259,-64.5 171.259,-68.0001 171.259,-61.0001"/>
</g>
<!-- Node3 -->
<g id="node3" class="node"><title>Node3</title>
<g id="a_node3"><a xlink:href="../../dc/d07/classcarla_1_1rss_1_1RssCheck.html#af684d20f22eb3929c92b2beb4d6e1e0f" target="_top" xlink:title="constructor with actor constellation callback ">
<polygon fill="white" stroke="black" points="371,-98.5 371,-128.5 483,-128.5 483,-98.5 371,-98.5"/>
<text text-anchor="start" x="379" y="-116.5" font-family="Helvetica,sans-Serif" font-size="10.00">carla::rss::RssCheck</text>
<text text-anchor="middle" x="427" y="-105.5" font-family="Helvetica,sans-Serif" font-size="10.00">::RssCheck</text>
</a>
</g>
</g>
<!-- Node2&#45;&gt;Node3 -->
<g id="edge2" class="edge"><title>Node2&#45;&gt;Node3</title>
<path fill="none" stroke="midnightblue" d="M316.812,-82.3941C335.312,-87.6644 355.359,-93.3755 373.166,-98.4484"/>
<polygon fill="midnightblue" stroke="midnightblue" points="317.585,-78.9753 307.009,-79.6014 315.668,-85.7074 317.585,-78.9753"/>
</g>
<!-- Node4 -->
<g id="node4" class="node"><title>Node4</title>
<g id="a_node4"><a xlink:href="../../dc/d07/classcarla_1_1rss_1_1RssCheck.html#a2bd2a82f212d10badae1c9ccd1f4b6ec" target="_top" xlink:title="main function to trigger the RSS check at a certain point in time ">
<polygon fill="white" stroke="black" points="371,-49.5 371,-79.5 483,-79.5 483,-49.5 371,-49.5"/>
<text text-anchor="start" x="379" y="-67.5" font-family="Helvetica,sans-Serif" font-size="10.00">carla::rss::RssCheck</text>
<text text-anchor="middle" x="427" y="-56.5" font-family="Helvetica,sans-Serif" font-size="10.00">::CheckObjects</text>
</a>
</g>
</g>
<!-- Node2&#45;&gt;Node4 -->
<g id="edge3" class="edge"><title>Node2&#45;&gt;Node4</title>
<path fill="none" stroke="midnightblue" d="M319.688,-64.5C336.531,-64.5 354.477,-64.5 370.735,-64.5"/>
<polygon fill="midnightblue" stroke="midnightblue" points="319.369,-61.0001 309.369,-64.5 319.369,-68.0001 319.369,-61.0001"/>
</g>
<!-- Node5 -->
<g id="node5" class="node"><title>Node5</title>
<g id="a_node5"><a xlink:href="../../d3/dcd/classcarla_1_1rss_1_1RssCheck_1_1RssObjectChecker.html#a661b547333013c28d133c1f745fcacd6" target="_top" xlink:title="carla::rss::RssCheck\l::RssObjectChecker::operator()">
<polygon fill="white" stroke="black" points="345,-0.5 345,-30.5 509,-30.5 509,-0.5 345,-0.5"/>
<text text-anchor="start" x="353" y="-18.5" font-family="Helvetica,sans-Serif" font-size="10.00">carla::rss::RssCheck</text>
<text text-anchor="middle" x="427" y="-7.5" font-family="Helvetica,sans-Serif" font-size="10.00">::RssObjectChecker::operator()</text>
</a>
</g>
</g>
<!-- Node2&#45;&gt;Node5 -->
<g id="edge4" class="edge"><title>Node2&#45;&gt;Node5</title>
<path fill="none" stroke="midnightblue" d="M316.812,-46.6059C335.312,-41.3356 355.359,-35.6245 373.166,-30.5516"/>
<polygon fill="midnightblue" stroke="midnightblue" points="315.668,-43.2926 307.009,-49.3986 317.585,-50.0247 315.668,-43.2926"/>
</g>
</g>
</svg>
