<?xml version="1.0" encoding="UTF-8" standalone="no"?>
<!DOCTYPE svg PUBLIC "-//W3C//DTD SVG 1.1//EN"
 "http://www.w3.org/Graphics/SVG/1.1/DTD/svg11.dtd">
<!-- Generated by graphviz version 2.43.0 (0)
 -->
<!-- Title: carla::client::RssSensor::GetOtherVehicleDynamics Pages: 1 -->
<svg width="504pt" height="132pt"
 viewBox="0.00 0.00 504.00 132.00" xmlns="http://www.w3.org/2000/svg" xmlns:xlink="http://www.w3.org/1999/xlink">
<g id="graph0" class="graph" transform="scale(1 1) rotate(0) translate(4 128)">
<title>carla::client::RssSensor::GetOtherVehicleDynamics</title>
<polygon fill="white" stroke="transparent" points="-4,4 -4,-128 500,-128 500,4 -4,4"/>
<!-- Node1 -->
<g id="node1" class="node">
<title>Node1</title>
<g id="a_node1"><a xlink:title=" ">
<polygon fill="#bfbfbf" stroke="black" points="0,-44.5 0,-74.5 151,-74.5 151,-44.5 0,-44.5"/>
<text text-anchor="start" x="8" y="-62.5" font-family="Helvetica,sans-Serif" font-size="10.00">carla::client::RssSensor</text>
<text text-anchor="middle" x="75.5" y="-51.5" font-family="Helvetica,sans-Serif" font-size="10.00">::GetOtherVehicleDynamics</text>
</a>
</g>
</g>
<!-- Node2 -->
<g id="node2" class="node">
<title>Node2</title>
<g id="a_node2"><a xlink:href="../../dc/d07/classcarla_1_1rss_1_1RssCheck.html#a1caf4493e0eca6b46dd4105ae868f9de" target="_top" xlink:title=" ">
<polygon fill="white" stroke="black" points="187,-93.5 187,-123.5 347,-123.5 347,-93.5 187,-93.5"/>
<text text-anchor="start" x="195" y="-111.5" font-family="Helvetica,sans-Serif" font-size="10.00">carla::rss::RssCheck</text>
<text text-anchor="middle" x="267" y="-100.5" font-family="Helvetica,sans-Serif" font-size="10.00">::GetDefaultVehicleDynamics</text>
</a>
</g>
</g>
<!-- Node1&#45;&gt;Node2 -->
<g id="edge1" class="edge">
<title>Node1&#45;&gt;Node2</title>
<path fill="none" stroke="midnightblue" d="M134.64,-74.53C154.74,-79.73 177.44,-85.6 198.24,-90.98"/>
<polygon fill="midnightblue" stroke="midnightblue" points="197.41,-94.38 207.97,-93.49 199.16,-87.6 197.41,-94.38"/>
</g>
<!-- Node3 -->
<g id="node3" class="node">
<title>Node3</title>
<g id="a_node3"><a xlink:href="../../d2/d06/classcarla_1_1client_1_1detail_1_1ActorState.html#abe0ee1bb86f10f94f6450908b803da56" target="_top" xlink:title=" ">
<polygon fill="white" stroke="black" points="195.5,-44.5 195.5,-74.5 338.5,-74.5 338.5,-44.5 195.5,-44.5"/>
<text text-anchor="start" x="203.5" y="-62.5" font-family="Helvetica,sans-Serif" font-size="10.00">carla::client::detail</text>
<text text-anchor="middle" x="267" y="-51.5" font-family="Helvetica,sans-Serif" font-size="10.00">::ActorState::GetDisplayId</text>
</a>
</g>
</g>
<!-- Node1&#45;&gt;Node3 -->
<g id="edge2" class="edge">
<title>Node1&#45;&gt;Node3</title>
<path fill="none" stroke="midnightblue" d="M151.12,-59.5C162.3,-59.5 173.88,-59.5 185.18,-59.5"/>
<polygon fill="midnightblue" stroke="midnightblue" points="185.47,-63 195.47,-59.5 185.47,-56 185.47,-63"/>
</g>
<!-- Node4 -->
<g id="node4" class="node">
<title>Node4</title>
<g id="a_node4"><a xlink:href="../../d9/d36/namespacecarla.html#a7673dfc76e17f5856b798de6d0384b56" target="_top" xlink:title=" ">
<polygon fill="white" stroke="black" points="222,-6 222,-25 312,-25 312,-6 222,-6"/>
<text text-anchor="middle" x="267" y="-13" font-family="Helvetica,sans-Serif" font-size="10.00">carla::log_error</text>
</a>
</g>
</g>
<!-- Node1&#45;&gt;Node4 -->
<g id="edge3" class="edge">
<title>Node1&#45;&gt;Node4</title>
<path fill="none" stroke="midnightblue" d="M141.19,-44.48C165.38,-38.86 192.48,-32.57 215.24,-27.29"/>
<polygon fill="midnightblue" stroke="midnightblue" points="216.08,-30.68 225.03,-25.01 214.5,-23.86 216.08,-30.68"/>
</g>
<!-- Node5 -->
<g id="node5" class="node">
<title>Node5</title>
<g id="a_node5"><a xlink:href="../../d2/d8c/namespacecarla_1_1logging.html#a4193666236852fb6a6977299a31445d8" target="_top" xlink:title=" ">
<polygon fill="white" stroke="black" points="383,-0.5 383,-30.5 496,-30.5 496,-0.5 383,-0.5"/>
<text text-anchor="start" x="391" y="-18.5" font-family="Helvetica,sans-Serif" font-size="10.00">carla::logging::write</text>
<text text-anchor="middle" x="439.5" y="-7.5" font-family="Helvetica,sans-Serif" font-size="10.00">_to_stream</text>
</a>
</g>
</g>
<!-- Node4&#45;&gt;Node5 -->
<g id="edge4" class="edge">
<title>Node4&#45;&gt;Node5</title>
<path fill="none" stroke="midnightblue" d="M312.35,-15.5C330.75,-15.5 352.49,-15.5 372.68,-15.5"/>
<polygon fill="midnightblue" stroke="midnightblue" points="372.76,-19 382.76,-15.5 372.76,-12 372.76,-19"/>
</g>
</g>
</svg>
