<?xml version="1.0" encoding="UTF-8" standalone="no"?>
<!DOCTYPE svg PUBLIC "-//W3C//DTD SVG 1.1//EN"
 "http://www.w3.org/Graphics/SVG/1.1/DTD/svg11.dtd">
<!-- Generated by graphviz version 2.38.0 (20140413.2041)
 -->
<!-- Title: carla::client::RssSensor::Listen Pages: 1 -->
<svg width="806pt" height="443pt"
 viewBox="0.00 0.00 806.00 443.00" xmlns="http://www.w3.org/2000/svg" xmlns:xlink="http://www.w3.org/1999/xlink">
<g id="graph0" class="graph" transform="scale(1 1) rotate(0) translate(4 439)">
<title>carla::client::RssSensor::Listen</title>
<polygon fill="white" stroke="none" points="-4,4 -4,-439 802,-439 802,4 -4,4"/>
<!-- Node1 -->
<g id="node1" class="node"><title>Node1</title>
<polygon fill="#bfbfbf" stroke="black" points="0,-202.5 0,-232.5 128,-232.5 128,-202.5 0,-202.5"/>
<text text-anchor="start" x="8" y="-220.5" font-family="Helvetica,sans-Serif" font-size="10.00">carla::client::RssSensor</text>
<text text-anchor="middle" x="64" y="-209.5" font-family="Helvetica,sans-Serif" font-size="10.00">::Listen</text>
</g>
<!-- Node2 -->
<g id="node2" class="node"><title>Node2</title>
<g id="a_node2"><a xlink:href="../../d2/d06/classcarla_1_1client_1_1detail_1_1ActorState.html#adc91b5060da04c6f39b7e8a97b351a29" target="_top" xlink:title="carla::client::detail\l::ActorState::GetDisplayId">
<polygon fill="white" stroke="black" points="164,-404.5 164,-434.5 304,-434.5 304,-404.5 164,-404.5"/>
<text text-anchor="start" x="172" y="-422.5" font-family="Helvetica,sans-Serif" font-size="10.00">carla::client::detail</text>
<text text-anchor="middle" x="234" y="-411.5" font-family="Helvetica,sans-Serif" font-size="10.00">::ActorState::GetDisplayId</text>
</a>
</g>
</g>
<!-- Node1&#45;&gt;Node2 -->
<g id="edge1" class="edge"><title>Node1&#45;&gt;Node2</title>
<path fill="none" stroke="midnightblue" d="M69.2891,-232.539C79.7403,-266.534 109.727,-349.881 164,-395.5 165.529,-396.785 167.131,-398.003 168.792,-399.157"/>
<polygon fill="midnightblue" stroke="midnightblue" points="167.139,-402.248 177.511,-404.411 170.752,-396.252 167.139,-402.248"/>
</g>
<!-- Node3 -->
<g id="node3" class="node"><title>Node3</title>
<g id="a_node3"><a xlink:href="../../d2/d06/classcarla_1_1client_1_1detail_1_1ActorState.html#ae440a7dc98d5ab82f9814d0f2c3bf356" target="_top" xlink:title="carla::client::detail\l::ActorState::GetEpisode">
<polygon fill="white" stroke="black" points="166.5,-355.5 166.5,-385.5 301.5,-385.5 301.5,-355.5 166.5,-355.5"/>
<text text-anchor="start" x="174.5" y="-373.5" font-family="Helvetica,sans-Serif" font-size="10.00">carla::client::detail</text>
<text text-anchor="middle" x="234" y="-362.5" font-family="Helvetica,sans-Serif" font-size="10.00">::ActorState::GetEpisode</text>
</a>
</g>
</g>
<!-- Node1&#45;&gt;Node3 -->
<g id="edge2" class="edge"><title>Node1&#45;&gt;Node3</title>
<path fill="none" stroke="midnightblue" d="M72.6771,-232.54C87.0452,-259.248 120.516,-315.095 164,-346.5 166.069,-347.994 168.24,-349.402 170.482,-350.728"/>
<polygon fill="midnightblue" stroke="midnightblue" points="168.952,-353.878 179.431,-355.442 172.215,-347.684 168.952,-353.878"/>
</g>
<!-- Node4 -->
<g id="node4" class="node"><title>Node4</title>
<g id="a_node4"><a xlink:href="../../db/d1f/classcarla_1_1client_1_1World.html#afee0db467a24c780736ffb690732cc3b" target="_top" xlink:title="Return the map that describes this world. ">
<polygon fill="white" stroke="black" points="182.5,-306.5 182.5,-336.5 285.5,-336.5 285.5,-306.5 182.5,-306.5"/>
<text text-anchor="start" x="190.5" y="-324.5" font-family="Helvetica,sans-Serif" font-size="10.00">carla::client::World</text>
<text text-anchor="middle" x="234" y="-313.5" font-family="Helvetica,sans-Serif" font-size="10.00">::GetMap</text>
</a>
</g>
</g>
<!-- Node1&#45;&gt;Node4 -->
<g id="edge3" class="edge"><title>Node1&#45;&gt;Node4</title>
<path fill="none" stroke="midnightblue" d="M82.7271,-232.75C101.887,-248.74 133.751,-273.939 164,-291.5 170.446,-295.242 177.447,-298.807 184.435,-302.087"/>
<polygon fill="midnightblue" stroke="midnightblue" points="183.349,-305.437 193.902,-306.374 186.236,-299.06 183.349,-305.437"/>
</g>
<!-- Node5 -->
<g id="node5" class="node"><title>Node5</title>
<g id="a_node5"><a xlink:href="../../d1/dd3/classcarla_1_1client_1_1detail_1_1EpisodeProxyImpl.html#a55e9d84478dd4b223203cc14f23f8794" target="_top" xlink:title="Same as TryLock but never return nullptr. ">
<polygon fill="white" stroke="black" points="340,-268.5 340,-298.5 474,-298.5 474,-268.5 340,-268.5"/>
<text text-anchor="start" x="348" y="-286.5" font-family="Helvetica,sans-Serif" font-size="10.00">carla::client::detail</text>
<text text-anchor="middle" x="407" y="-275.5" font-family="Helvetica,sans-Serif" font-size="10.00">::EpisodeProxyImpl::Lock</text>
</a>
</g>
</g>
<!-- Node1&#45;&gt;Node5 -->
<g id="edge11" class="edge"><title>Node1&#45;&gt;Node5</title>
<path fill="none" stroke="midnightblue" d="M100.607,-232.657C119.191,-239.999 142.484,-248.325 164,-253.5 218.664,-266.649 281.739,-274.229 329.787,-278.479"/>
<polygon fill="midnightblue" stroke="midnightblue" points="329.541,-281.971 339.803,-279.337 330.138,-274.996 329.541,-281.971"/>
</g>
<!-- Node8 -->
<g id="node8" class="node"><title>Node8</title>
<g id="a_node8"><a xlink:href="../../d9/d36/namespacecarla.html#a23602ab663165210a7757d6108f6b3cd" target="_top" xlink:title="carla::throw_exception">
<polygon fill="white" stroke="black" points="510,-230 510,-249 634,-249 634,-230 510,-230"/>
<text text-anchor="middle" x="572" y="-237" font-family="Helvetica,sans-Serif" font-size="10.00">carla::throw_exception</text>
</a>
</g>
</g>
<!-- Node1&#45;&gt;Node8 -->
<g id="edge15" class="edge"><title>Node1&#45;&gt;Node8</title>
<path fill="none" stroke="midnightblue" d="M128.062,-220.242C222.607,-224.352 400.545,-232.089 499.691,-236.4"/>
<polygon fill="midnightblue" stroke="midnightblue" points="499.772,-239.906 509.914,-236.844 500.076,-232.913 499.772,-239.906"/>
</g>
<!-- Node9 -->
<g id="node9" class="node"><title>Node9</title>
<g id="a_node9"><a xlink:href="../../d2/d06/classcarla_1_1client_1_1detail_1_1ActorState.html#a1fb7280c7795f1240678431f1dc4d8a8" target="_top" xlink:title="carla::client::detail\l::ActorState::GetParent">
<polygon fill="white" stroke="black" points="170,-180.5 170,-210.5 298,-210.5 298,-180.5 170,-180.5"/>
<text text-anchor="start" x="178" y="-198.5" font-family="Helvetica,sans-Serif" font-size="10.00">carla::client::detail</text>
<text text-anchor="middle" x="234" y="-187.5" font-family="Helvetica,sans-Serif" font-size="10.00">::ActorState::GetParent</text>
</a>
</g>
</g>
<!-- Node1&#45;&gt;Node9 -->
<g id="edge8" class="edge"><title>Node1&#45;&gt;Node9</title>
<path fill="none" stroke="midnightblue" d="M128.035,-209.245C138.407,-207.887 149.234,-206.469 159.828,-205.082"/>
<polygon fill="midnightblue" stroke="midnightblue" points="160.43,-208.533 169.891,-203.764 159.521,-201.592 160.43,-208.533"/>
</g>
<!-- Node10 -->
<g id="node10" class="node"><title>Node10</title>
<g id="a_node10"><a xlink:href="../../d2/d06/classcarla_1_1client_1_1detail_1_1ActorState.html#af9d79dcc7f1ec89d0202f3086c79cd6e" target="_top" xlink:title="carla::client::detail\l::ActorState::GetWorld">
<polygon fill="white" stroke="black" points="172.5,-131.5 172.5,-161.5 295.5,-161.5 295.5,-131.5 172.5,-131.5"/>
<text text-anchor="start" x="180.5" y="-149.5" font-family="Helvetica,sans-Serif" font-size="10.00">carla::client::detail</text>
<text text-anchor="middle" x="234" y="-138.5" font-family="Helvetica,sans-Serif" font-size="10.00">::ActorState::GetWorld</text>
</a>
</g>
</g>
<!-- Node1&#45;&gt;Node10 -->
<g id="edge9" class="edge"><title>Node1&#45;&gt;Node10</title>
<path fill="none" stroke="midnightblue" d="M95.9029,-202.293C115.275,-192.973 140.874,-181.041 164,-171.5 169.153,-169.374 174.56,-167.245 179.983,-165.175"/>
<polygon fill="midnightblue" stroke="midnightblue" points="181.578,-168.315 189.713,-161.528 179.12,-161.761 181.578,-168.315"/>
</g>
<!-- Node11 -->
<g id="node11" class="node"><title>Node11</title>
<g id="a_node11"><a xlink:href="../../d7/db6/classcarla_1_1client_1_1RssSensor.html#a4de185e37508b6932b1f4a017726ca71" target="_top" xlink:title="Return whether this Sensor instance is currently listening to the associated sensor in the simulator...">
<polygon fill="white" stroke="black" points="170,-82.5 170,-112.5 298,-112.5 298,-82.5 170,-82.5"/>
<text text-anchor="start" x="178" y="-100.5" font-family="Helvetica,sans-Serif" font-size="10.00">carla::client::RssSensor</text>
<text text-anchor="middle" x="234" y="-89.5" font-family="Helvetica,sans-Serif" font-size="10.00">::IsListening</text>
</a>
</g>
</g>
<!-- Node1&#45;&gt;Node11 -->
<g id="edge10" class="edge"><title>Node1&#45;&gt;Node11</title>
<path fill="none" stroke="midnightblue" d="M77.2347,-202.303C94.5738,-181.653 128.192,-144.76 164,-122.5 167.314,-120.44 170.822,-118.515 174.431,-116.722"/>
<polygon fill="midnightblue" stroke="midnightblue" points="175.926,-119.887 183.556,-112.537 173.008,-113.525 175.926,-119.887"/>
</g>
<!-- Node12 -->
<g id="node12" class="node"><title>Node12</title>
<g id="a_node12"><a xlink:href="../../d9/d36/namespacecarla.html#a435a71fa9b5a48bb8f77239f97d3f77c" target="_top" xlink:title="carla::log_debug">
<polygon fill="white" stroke="black" points="186.5,-44 186.5,-63 281.5,-63 281.5,-44 186.5,-44"/>
<text text-anchor="middle" x="234" y="-51" font-family="Helvetica,sans-Serif" font-size="10.00">carla::log_debug</text>
</a>
</g>
</g>
<!-- Node1&#45;&gt;Node12 -->
<g id="edge12" class="edge"><title>Node1&#45;&gt;Node12</title>
<path fill="none" stroke="midnightblue" d="M71.1403,-202.153C83.838,-172.418 115.88,-106.87 164,-72.5 167.962,-69.67 172.328,-67.2613 176.882,-65.211"/>
<polygon fill="midnightblue" stroke="midnightblue" points="178.379,-68.3836 186.422,-61.4862 175.833,-61.863 178.379,-68.3836"/>
</g>
<!-- Node13 -->
<g id="node13" class="node"><title>Node13</title>
<g id="a_node13"><a xlink:href="../../d9/d36/namespacecarla.html#ac087fd200c921bed31c54f8b1f9eec14" target="_top" xlink:title="carla::log_error">
<polygon fill="white" stroke="black" points="189.5,-6 189.5,-25 278.5,-25 278.5,-6 189.5,-6"/>
<text text-anchor="middle" x="234" y="-13" font-family="Helvetica,sans-Serif" font-size="10.00">carla::log_error</text>
</a>
</g>
</g>
<!-- Node1&#45;&gt;Node13 -->
<g id="edge13" class="edge"><title>Node1&#45;&gt;Node13</title>
<path fill="none" stroke="midnightblue" d="M68.8043,-202.309C78.4089,-167.165 107.031,-79.8017 164,-34.5 168.673,-30.7844 174.022,-27.7942 179.629,-25.3881"/>
<polygon fill="midnightblue" stroke="midnightblue" points="181.052,-28.5943 189.235,-21.8651 178.642,-22.0223 181.052,-28.5943"/>
</g>
<!-- Node4&#45;&gt;Node5 -->
<g id="edge4" class="edge"><title>Node4&#45;&gt;Node5</title>
<path fill="none" stroke="midnightblue" d="M285.843,-310.202C299.601,-307.144 314.801,-303.767 329.63,-300.471"/>
<polygon fill="midnightblue" stroke="midnightblue" points="330.812,-303.794 339.814,-298.208 329.293,-296.961 330.812,-303.794"/>
</g>
<!-- Node6 -->
<g id="node6" class="node"><title>Node6</title>
<g id="a_node6"><a xlink:href="../../d8/dcd/namespacecarla_1_1client_1_1detail.html#aa47f72a521d97fe3574a56e808b509d8" target="_top" xlink:title="carla::client::detail\l::Load">
<polygon fill="white" stroke="black" points="520,-268.5 520,-298.5 624,-298.5 624,-268.5 520,-268.5"/>
<text text-anchor="start" x="528" y="-286.5" font-family="Helvetica,sans-Serif" font-size="10.00">carla::client::detail</text>
<text text-anchor="middle" x="572" y="-275.5" font-family="Helvetica,sans-Serif" font-size="10.00">::Load</text>
</a>
</g>
</g>
<!-- Node5&#45;&gt;Node6 -->
<g id="edge5" class="edge"><title>Node5&#45;&gt;Node6</title>
<path fill="none" stroke="midnightblue" d="M474.298,-283.5C485.905,-283.5 497.939,-283.5 509.411,-283.5"/>
<polygon fill="midnightblue" stroke="midnightblue" points="509.761,-287 519.761,-283.5 509.761,-280 509.761,-287"/>
</g>
<!-- Node5&#45;&gt;Node8 -->
<g id="edge7" class="edge"><title>Node5&#45;&gt;Node8</title>
<path fill="none" stroke="midnightblue" d="M463.639,-268.481C483.902,-263.011 506.543,-256.899 525.791,-251.704"/>
<polygon fill="midnightblue" stroke="midnightblue" points="526.775,-255.064 535.517,-249.078 524.95,-248.305 526.775,-255.064"/>
</g>
<!-- Node7 -->
<g id="node7" class="node"><title>Node7</title>
<g id="a_node7"><a xlink:href="../../d2/dcf/classcarla_1_1AtomicSharedPtr.html#a6b8251a612e285569c487129ff2cc9e1" target="_top" xlink:title="carla::AtomicSharedPtr\l::load">
<polygon fill="white" stroke="black" points="670,-268.5 670,-298.5 798,-298.5 798,-268.5 670,-268.5"/>
<text text-anchor="start" x="678" y="-286.5" font-family="Helvetica,sans-Serif" font-size="10.00">carla::AtomicSharedPtr</text>
<text text-anchor="middle" x="734" y="-275.5" font-family="Helvetica,sans-Serif" font-size="10.00">::load</text>
</a>
</g>
</g>
<!-- Node6&#45;&gt;Node7 -->
<g id="edge6" class="edge"><title>Node6&#45;&gt;Node7</title>
<path fill="none" stroke="midnightblue" d="M624.065,-283.5C635.425,-283.5 647.686,-283.5 659.74,-283.5"/>
<polygon fill="midnightblue" stroke="midnightblue" points="659.793,-287 669.793,-283.5 659.793,-280 659.793,-287"/>
</g>
<!-- Node14 -->
<g id="node14" class="node"><title>Node14</title>
<g id="a_node14"><a xlink:href="../../d2/d8c/namespacecarla_1_1logging.html#a1824b914c5dc7221a1098a469e8ce612" target="_top" xlink:title="carla::logging::write\l_to_stream">
<polygon fill="white" stroke="black" points="352.5,-0.5 352.5,-30.5 461.5,-30.5 461.5,-0.5 352.5,-0.5"/>
<text text-anchor="start" x="360.5" y="-18.5" font-family="Helvetica,sans-Serif" font-size="10.00">carla::logging::write</text>
<text text-anchor="middle" x="407" y="-7.5" font-family="Helvetica,sans-Serif" font-size="10.00">_to_stream</text>
</a>
</g>
</g>
<!-- Node13&#45;&gt;Node14 -->
<g id="edge14" class="edge"><title>Node13&#45;&gt;Node14</title>
<path fill="none" stroke="midnightblue" d="M278.593,-15.5C297.896,-15.5 320.986,-15.5 342.174,-15.5"/>
<polygon fill="midnightblue" stroke="midnightblue" points="342.398,-19.0001 352.398,-15.5 342.398,-12.0001 342.398,-19.0001"/>
</g>
</g>
</svg>
