<?xml version="1.0" encoding="UTF-8" standalone="no"?>
<!DOCTYPE svg PUBLIC "-//W3C//DTD SVG 1.1//EN"
 "http://www.w3.org/Graphics/SVG/1.1/DTD/svg11.dtd">
<!-- Generated by graphviz version 2.38.0 (20140413.2041)
 -->
<!-- Title: carla::streaming::detail::tcp::ServerSession::MakeMessage Pages: 1 -->
<svg width="355pt" height="88pt"
 viewBox="0.00 0.00 355.00 88.00" xmlns="http://www.w3.org/2000/svg" xmlns:xlink="http://www.w3.org/1999/xlink">
<g id="graph0" class="graph" transform="scale(1 1) rotate(0) translate(4 84)">
<title>carla::streaming::detail::tcp::ServerSession::MakeMessage</title>
<polygon fill="white" stroke="none" points="-4,4 -4,-84 351,-84 351,4 -4,4"/>
<!-- Node1 -->
<g id="node1" class="node"><title>Node1</title>
<polygon fill="#bfbfbf" stroke="black" points="0,-24.5 0,-54.5 176,-54.5 176,-24.5 0,-24.5"/>
<text text-anchor="start" x="8" y="-42.5" font-family="Helvetica,sans-Serif" font-size="10.00">carla::streaming::detail</text>
<text text-anchor="middle" x="88" y="-31.5" font-family="Helvetica,sans-Serif" font-size="10.00">::tcp::ServerSession::MakeMessage</text>
</g>
<!-- Node2 -->
<g id="node2" class="node"><title>Node2</title>
<g id="a_node2"><a xlink:href="../../d1/d43/classcarla_1_1streaming_1_1detail_1_1MultiStreamState.html#ae1e2f4ababc5e63334eb4617bbb2f4c6" target="_top" xlink:title="carla::streaming::detail\l::MultiStreamState::Write">
<polygon fill="white" stroke="black" points="215.5,-49.5 215.5,-79.5 343.5,-79.5 343.5,-49.5 215.5,-49.5"/>
<text text-anchor="start" x="223.5" y="-67.5" font-family="Helvetica,sans-Serif" font-size="10.00">carla::streaming::detail</text>
<text text-anchor="middle" x="279.5" y="-56.5" font-family="Helvetica,sans-Serif" font-size="10.00">::MultiStreamState::Write</text>
</a>
</g>
</g>
<!-- Node1&#45;&gt;Node2 -->
<g id="edge1" class="edge"><title>Node1&#45;&gt;Node2</title>
<path fill="none" stroke="midnightblue" d="M186.191,-52.322C196.123,-53.6324 206.02,-54.938 215.445,-56.1813"/>
<polygon fill="midnightblue" stroke="midnightblue" points="186.634,-48.8502 176.262,-51.0121 185.718,-55.7901 186.634,-48.8502"/>
</g>
<!-- Node3 -->
<g id="node3" class="node"><title>Node3</title>
<g id="a_node3"><a xlink:href="../../d6/d51/classcarla_1_1streaming_1_1detail_1_1tcp_1_1ServerSession.html#a843c6890f3fc3c1c1996f9abc7275c65" target="_top" xlink:title="Writes some data to the socket. ">
<polygon fill="white" stroke="black" points="212,-0.5 212,-30.5 347,-30.5 347,-0.5 212,-0.5"/>
<text text-anchor="start" x="220" y="-18.5" font-family="Helvetica,sans-Serif" font-size="10.00">carla::streaming::detail</text>
<text text-anchor="middle" x="279.5" y="-7.5" font-family="Helvetica,sans-Serif" font-size="10.00">::tcp::ServerSession::Write</text>
</a>
</g>
</g>
<!-- Node1&#45;&gt;Node3 -->
<g id="edge2" class="edge"><title>Node1&#45;&gt;Node3</title>
<path fill="none" stroke="midnightblue" d="M186.364,-27.1689C194.973,-26.0787 203.553,-24.992 211.819,-23.9451"/>
<polygon fill="midnightblue" stroke="midnightblue" points="185.743,-23.7195 176.262,-28.4483 186.623,-30.6641 185.743,-23.7195"/>
</g>
</g>
</svg>
