<?xml version="1.0" encoding="UTF-8" standalone="no"?>
<!DOCTYPE svg PUBLIC "-//W3C//DTD SVG 1.1//EN"
 "http://www.w3.org/Graphics/SVG/1.1/DTD/svg11.dtd">
<!-- Generated by graphviz version 2.38.0 (20140413.2041)
 -->
<!-- Title: FWorldObserver_Serialize Pages: 1 -->
<!--zoomable 242 -->
<svg id="main" version="1.1" xmlns="http://www.w3.org/2000/svg" xmlns:xlink="http://www.w3.org/1999/xlink" xml:space="preserve" onload="init(evt)">
<style type="text/css"><![CDATA[
.edge:hover path { stroke: red; }
.edge:hover polygon { stroke: red; fill: red; }
]]></style>
<script type="text/javascript"><![CDATA[
var edges = document.getElementsByTagName('g');
if (edges && edges.length) {
  for (var i=0;i<edges.length;i++) {
    if (edges[i].id.substr(0,4)=='edge') {
      edges[i].setAttribute('class','edge');
    }
  }
}
]]></script>
        <defs>
                <circle id="rim" cx="0" cy="0" r="7"/>
                <circle id="rim2" cx="0" cy="0" r="3.5"/>
                <g id="zoomPlus">
                        <use xlink:href="#rim" fill="#404040">
                                <set attributeName="fill" to="#808080" begin="zoomplus.mouseover" end="zoomplus.mouseout"/>
                        </use>
                        <path d="M-4,0h8M0,-4v8" fill="none" stroke="white" stroke-width="1.5" pointer-events="none"/>
                </g>
                <g id="zoomMin">
                        <use xlink:href="#rim" fill="#404040">
                                <set attributeName="fill" to="#808080" begin="zoomminus.mouseover" end="zoomminus.mouseout"/>
                        </use>
                        <path d="M-4,0h8" fill="none" stroke="white" stroke-width="1.5" pointer-events="none"/>
                </g>
                <g id="dirArrow">
                        <path fill="none" stroke="white" stroke-width="1.5" d="M0,-3.0v7 M-2.5,-0.5L0,-3.0L2.5,-0.5"/>
                </g>
               <g id="resetDef">
                       <use xlink:href="#rim2" fill="#404040">
                               <set attributeName="fill" to="#808080" begin="reset.mouseover" end="reset.mouseout"/>
                       </use>
               </g>
        </defs>

<script type="text/javascript">
var viewWidth = 542;
var viewHeight = 242;
var sectionId = 'dynsection-6';
</script>
<script xlink:href="../../svgpan.js"/>
<svg id="graph" class="graph">
<g id="viewport">
<title>FWorldObserver_Serialize</title>
<polygon fill="white" stroke="none" points="-4,4 -4,-237.5 538,-237.5 538,4 -4,4"/>
<!-- Node1 -->
<g id="node1" class="node"><title>Node1</title>
<polygon fill="#bfbfbf" stroke="black" points="0,-104.5 0,-123.5 137,-123.5 137,-104.5 0,-104.5"/>
<text text-anchor="middle" x="68.5" y="-111.5" font-family="Helvetica,sans-Serif" font-size="10.00">FWorldObserver_Serialize</text>
</g>
<!-- Node2 -->
<g id="node2" class="node"><title>Node2</title>
<g id="a_node2"><a xlink:href="../../df/db5/classFActorRegistry.html#a508c75b527763f59e6a2345553e9fd69" target="_top" xlink:title="FActorRegistry::begin">
<polygon fill="white" stroke="black" points="201.5,-205.5 201.5,-224.5 317.5,-224.5 317.5,-205.5 201.5,-205.5"/>
<text text-anchor="middle" x="259.5" y="-212.5" font-family="Helvetica,sans-Serif" font-size="10.00">FActorRegistry::begin</text>
</a>
</g>
</g>
<!-- Node1&#45;&gt;Node2 -->
<g id="edge1" class="edge"><title>Node1&#45;&gt;Node2</title>
<path fill="none" stroke="midnightblue" d="M79.1594,-123.568C96.4681,-140.175 134.565,-174.344 173,-193 180.814,-196.793 189.359,-199.985 197.928,-202.656"/>
<polygon fill="midnightblue" stroke="midnightblue" points="196.995,-206.03 207.574,-205.454 198.945,-199.307 196.995,-206.03"/>
</g>
<!-- Node4 -->
<g id="node4" class="node"><title>Node4</title>
<g id="a_node4"><a xlink:href="../../d9/de7/WorldObserver_8cpp.html#ad9f5f0e8efde2e3c43fc7f586701d12e" target="_top" xlink:title="FWorldObserver_GetAcceleration">
<polygon fill="white" stroke="black" points="173,-164.5 173,-183.5 346,-183.5 346,-164.5 173,-164.5"/>
<text text-anchor="middle" x="259.5" y="-171.5" font-family="Helvetica,sans-Serif" font-size="10.00">FWorldObserver_GetAcceleration</text>
</a>
</g>
</g>
<!-- Node1&#45;&gt;Node4 -->
<g id="edge3" class="edge"><title>Node1&#45;&gt;Node4</title>
<path fill="none" stroke="midnightblue" d="M90.9498,-123.656C111.637,-132.69 143.993,-146.093 173,-155 181.449,-157.594 190.469,-159.99 199.365,-162.144"/>
<polygon fill="midnightblue" stroke="midnightblue" points="198.785,-165.602 209.32,-164.47 200.378,-158.786 198.785,-165.602"/>
</g>
<!-- Node6 -->
<g id="node6" class="node"><title>Node6</title>
<g id="a_node6"><a xlink:href="../../d9/de7/WorldObserver_8cpp.html#a04a2a121cbd41b048a0d47f5e06888d9" target="_top" xlink:title="FWorldObserver_GetActorState">
<polygon fill="white" stroke="black" points="177,-126.5 177,-145.5 342,-145.5 342,-126.5 177,-126.5"/>
<text text-anchor="middle" x="259.5" y="-133.5" font-family="Helvetica,sans-Serif" font-size="10.00">FWorldObserver_GetActorState</text>
</a>
</g>
</g>
<!-- Node1&#45;&gt;Node6 -->
<g id="edge5" class="edge"><title>Node1&#45;&gt;Node6</title>
<path fill="none" stroke="midnightblue" d="M137.2,-121.88C146.812,-122.999 156.827,-124.165 166.801,-125.326"/>
<polygon fill="midnightblue" stroke="midnightblue" points="166.407,-128.804 176.745,-126.484 167.217,-121.851 166.407,-128.804"/>
</g>
<!-- Node10 -->
<g id="node10" class="node"><title>Node10</title>
<g id="a_node10"><a xlink:href="../../d9/de7/WorldObserver_8cpp.html#ad66c97b3125865e6ad13ad814ca632b1" target="_top" xlink:title="FWorldObserver_GetAngular\lVelocity">
<polygon fill="white" stroke="black" points="184.5,-77 184.5,-107 334.5,-107 334.5,-77 184.5,-77"/>
<text text-anchor="start" x="192.5" y="-95" font-family="Helvetica,sans-Serif" font-size="10.00">FWorldObserver_GetAngular</text>
<text text-anchor="middle" x="259.5" y="-84" font-family="Helvetica,sans-Serif" font-size="10.00">Velocity</text>
</a>
</g>
</g>
<!-- Node1&#45;&gt;Node10 -->
<g id="edge9" class="edge"><title>Node1&#45;&gt;Node10</title>
<path fill="none" stroke="midnightblue" d="M137.2,-106.12C149.116,-104.733 161.652,-103.273 173.96,-101.841"/>
<polygon fill="midnightblue" stroke="midnightblue" points="174.698,-105.278 184.226,-100.646 173.888,-98.3254 174.698,-105.278"/>
</g>
<!-- Node11 -->
<g id="node11" class="node"><title>Node11</title>
<g id="a_node11"><a xlink:href="../../dc/d84/classUCarlaEpisode.html#a6d7398ae87c1b682446443e38dc3e24a" target="_top" xlink:title="UCarlaEpisode::GetActorRegistry">
<polygon fill="white" stroke="black" points="173,-38.5 173,-57.5 346,-57.5 346,-38.5 173,-38.5"/>
<text text-anchor="middle" x="259.5" y="-45.5" font-family="Helvetica,sans-Serif" font-size="10.00">UCarlaEpisode::GetActorRegistry</text>
</a>
</g>
</g>
<!-- Node1&#45;&gt;Node11 -->
<g id="edge10" class="edge"><title>Node1&#45;&gt;Node11</title>
<path fill="none" stroke="midnightblue" d="M88.1491,-104.425C108.551,-94.2576 142.43,-78.2667 173,-68 181.808,-65.0418 191.269,-62.3584 200.573,-59.9867"/>
<polygon fill="midnightblue" stroke="midnightblue" points="201.688,-63.317 210.568,-57.5373 200.022,-56.5182 201.688,-63.317"/>
</g>
<!-- Node12 -->
<g id="node12" class="node"><title>Node12</title>
<g id="a_node12"><a xlink:href="../../dc/d84/classUCarlaEpisode.html#a215b38a54c6a97e31a12d8f9591c4a35" target="_top" xlink:title="Return the unique id of this episode. ">
<polygon fill="white" stroke="black" points="200.5,-0.5 200.5,-19.5 318.5,-19.5 318.5,-0.5 200.5,-0.5"/>
<text text-anchor="middle" x="259.5" y="-7.5" font-family="Helvetica,sans-Serif" font-size="10.00">UCarlaEpisode::GetId</text>
</a>
</g>
</g>
<!-- Node1&#45;&gt;Node12 -->
<g id="edge11" class="edge"><title>Node1&#45;&gt;Node12</title>
<path fill="none" stroke="midnightblue" d="M78.146,-104.383C94.7121,-86.5843 132.862,-48.5436 173,-29 178.563,-26.2916 184.517,-23.9641 190.597,-21.9649"/>
<polygon fill="midnightblue" stroke="midnightblue" points="191.642,-25.3058 200.219,-19.0861 189.635,-18.5996 191.642,-25.3058"/>
</g>
<!-- Node3 -->
<g id="node3" class="node"><title>Node3</title>
<g id="a_node3"><a xlink:href="../../de/d22/namespacecarla_1_1iterator.html#ae092052881aef479e69ba5491dd147ec" target="_top" xlink:title="Creates an iterator over const references to the values of a map. ">
<polygon fill="white" stroke="black" points="382,-203 382,-233 534,-233 534,-203 382,-203"/>
<text text-anchor="start" x="390" y="-221" font-family="Helvetica,sans-Serif" font-size="10.00">carla::iterator::make</text>
<text text-anchor="middle" x="458" y="-210" font-family="Helvetica,sans-Serif" font-size="10.00">_map_values_const_iterator</text>
</a>
</g>
</g>
<!-- Node2&#45;&gt;Node3 -->
<g id="edge2" class="edge"><title>Node2&#45;&gt;Node3</title>
<path fill="none" stroke="midnightblue" d="M317.6,-215.872C334.523,-216.13 353.434,-216.419 371.733,-216.698"/>
<polygon fill="midnightblue" stroke="midnightblue" points="371.767,-220.199 381.82,-216.852 371.874,-213.2 371.767,-220.199"/>
</g>
<!-- Node5 -->
<g id="node5" class="node"><title>Node5</title>
<g id="a_node5"><a xlink:href="../../da/db0/classFActorView.html#a378953d19ec879cbabe1b8e10f5d0b15" target="_top" xlink:title="FActorView::GetActorInfo">
<polygon fill="white" stroke="black" points="391,-164.5 391,-183.5 525,-183.5 525,-164.5 391,-164.5"/>
<text text-anchor="middle" x="458" y="-171.5" font-family="Helvetica,sans-Serif" font-size="10.00">FActorView::GetActorInfo</text>
</a>
</g>
</g>
<!-- Node4&#45;&gt;Node5 -->
<g id="edge4" class="edge"><title>Node4&#45;&gt;Node5</title>
<path fill="none" stroke="midnightblue" d="M346.116,-174C357.598,-174 369.313,-174 380.622,-174"/>
<polygon fill="midnightblue" stroke="midnightblue" points="380.874,-177.5 390.874,-174 380.874,-170.5 380.874,-177.5"/>
</g>
<!-- Node7 -->
<g id="node7" class="node"><title>Node7</title>
<g id="a_node7"><a xlink:href="../../df/db5/classFActorRegistry.html#a8f7b9bd6ddd4f608fb090aca5436101e" target="_top" xlink:title="FActorRegistry::Find">
<polygon fill="white" stroke="black" points="404,-126.5 404,-145.5 512,-145.5 512,-126.5 404,-126.5"/>
<text text-anchor="middle" x="458" y="-133.5" font-family="Helvetica,sans-Serif" font-size="10.00">FActorRegistry::Find</text>
</a>
</g>
</g>
<!-- Node6&#45;&gt;Node7 -->
<g id="edge6" class="edge"><title>Node6&#45;&gt;Node7</title>
<path fill="none" stroke="midnightblue" d="M342.127,-136C359.416,-136 377.414,-136 393.892,-136"/>
<polygon fill="midnightblue" stroke="midnightblue" points="393.936,-139.5 403.936,-136 393.936,-132.5 393.936,-139.5"/>
</g>
<!-- Node8 -->
<g id="node8" class="node"><title>Node8</title>
<g id="a_node8"><a xlink:href="../../da/db0/classFActorView.html#a247cd4e4659c22006f631d3ce2fffa22" target="_top" xlink:title="FActorView::GetActor">
<polygon fill="white" stroke="black" points="400,-88.5 400,-107.5 516,-107.5 516,-88.5 400,-88.5"/>
<text text-anchor="middle" x="458" y="-95.5" font-family="Helvetica,sans-Serif" font-size="10.00">FActorView::GetActor</text>
</a>
</g>
</g>
<!-- Node6&#45;&gt;Node8 -->
<g id="edge7" class="edge"><title>Node6&#45;&gt;Node8</title>
<path fill="none" stroke="midnightblue" d="M309.832,-126.46C336.461,-121.31 369.527,-114.916 397.566,-109.494"/>
<polygon fill="midnightblue" stroke="midnightblue" points="398.495,-112.879 407.648,-107.544 397.165,-106.006 398.495,-112.879"/>
</g>
<!-- Node9 -->
<g id="node9" class="node"><title>Node9</title>
<g id="a_node9"><a xlink:href="../../da/db0/classFActorView.html#abb2a2f7a9799a4b1a271a5c3b6ffdfc9" target="_top" xlink:title="FActorView::GetActorType">
<polygon fill="white" stroke="black" points="389.5,-50.5 389.5,-69.5 526.5,-69.5 526.5,-50.5 389.5,-50.5"/>
<text text-anchor="middle" x="458" y="-57.5" font-family="Helvetica,sans-Serif" font-size="10.00">FActorView::GetActorType</text>
</a>
</g>
</g>
<!-- Node6&#45;&gt;Node9 -->
<g id="edge8" class="edge"><title>Node6&#45;&gt;Node9</title>
<path fill="none" stroke="midnightblue" d="M323.745,-126.46C331.508,-123.997 339.121,-120.898 346,-117 366.241,-105.53 361.93,-90.7663 382,-79 385.715,-76.8218 389.676,-74.8912 393.763,-73.1804"/>
<polygon fill="midnightblue" stroke="midnightblue" points="395.317,-76.3371 403.472,-69.574 392.879,-69.7752 395.317,-76.3371"/>
</g>
</g>
</svg>
        <g id="navigator" transform="translate(0 0)" fill="#404254">
                <rect fill="#f2f5e9" fill-opacity="0.5" stroke="#606060" stroke-width=".5" x="0" y="0" width="60" height="60"/>
                <use id="zoomplus" xlink:href="#zoomPlus" x="17" y="9" onmousedown="handleZoom(evt,'in')"/>
                <use id="zoomminus" xlink:href="#zoomMin" x="42" y="9" onmousedown="handleZoom(evt,'out')"/>
                <use id="reset" xlink:href="#resetDef" x="30" y="36" onmousedown="handleReset()"/>
                <g id="arrowUp" xlink:href="#dirArrow" transform="translate(30 24)" onmousedown="handlePan(0,-1)">
                  <use xlink:href="#rim" fill="#404040">
                        <set attributeName="fill" to="#808080" begin="arrowUp.mouseover" end="arrowUp.mouseout"/>
                  </use>
                  <path fill="none" stroke="white" stroke-width="1.5" d="M0,-3.0v7 M-2.5,-0.5L0,-3.0L2.5,-0.5"/>
                </g>
                <g id="arrowRight" xlink:href="#dirArrow" transform="rotate(90) translate(36 -43)" onmousedown="handlePan(1,0)">
                  <use xlink:href="#rim" fill="#404040">
                        <set attributeName="fill" to="#808080" begin="arrowRight.mouseover" end="arrowRight.mouseout"/>
                  </use>
                  <path fill="none" stroke="white" stroke-width="1.5" d="M0,-3.0v7 M-2.5,-0.5L0,-3.0L2.5,-0.5"/>
                </g>
                <g id="arrowDown" xlink:href="#dirArrow" transform="rotate(180) translate(-30 -48)" onmousedown="handlePan(0,1)">
                  <use xlink:href="#rim" fill="#404040">
                        <set attributeName="fill" to="#808080" begin="arrowDown.mouseover" end="arrowDown.mouseout"/>
                  </use>
                  <path fill="none" stroke="white" stroke-width="1.5" d="M0,-3.0v7 M-2.5,-0.5L0,-3.0L2.5,-0.5"/>
                </g>
                <g id="arrowLeft" xlink:href="#dirArrow" transform="rotate(270) translate(-36 17)" onmousedown="handlePan(-1,0)">
                  <use xlink:href="#rim" fill="#404040">
                        <set attributeName="fill" to="#808080" begin="arrowLeft.mouseover" end="arrowLeft.mouseout"/>
                  </use>
                  <path fill="none" stroke="white" stroke-width="1.5" d="M0,-3.0v7 M-2.5,-0.5L0,-3.0L2.5,-0.5"/>
                </g>
        </g>
        <svg viewBox="0 0 15 15" width="100%" height="30px" preserveAspectRatio="xMaxYMin meet">
         <g id="arrow_out" transform="scale(0.3 0.3)">
          <a xlink:href="WorldObserver_8cpp_a3c4fad73e40a0909e730c342c2aa594a_cgraph_org.svg" target="_base">
           <rect id="button" ry="5" rx="5" y="6" x="6" height="38" width="38"
                fill="#f2f5e9" fill-opacity="0.5" stroke="#606060" stroke-width="1.0"/>
           <path id="arrow"
             d="M 11.500037,31.436501 C 11.940474,20.09759 22.043105,11.32322 32.158766,21.979434 L 37.068811,17.246167 C 37.068811,17.246167 37.088388,32 37.088388,32 L 22.160133,31.978069 C 22.160133,31.978069 26.997745,27.140456 26.997745,27.140456 C 18.528582,18.264221 13.291696,25.230495 11.500037,31.436501 z"
             style="fill:#404040;"/>
          </a>
         </g>
        </svg>
</svg>
