<?xml version="1.0" encoding="UTF-8" standalone="no"?>
<!DOCTYPE svg PUBLIC "-//W3C//DTD SVG 1.1//EN"
 "http://www.w3.org/Graphics/SVG/1.1/DTD/svg11.dtd">
<!-- Generated by graphviz version 2.43.0 (0)
 -->
<!-- Title: FWorldObserver_GetAngularVelocity Pages: 1 -->
<svg width="922pt" height="39pt"
 viewBox="0.00 0.00 922.00 39.00" xmlns="http://www.w3.org/2000/svg" xmlns:xlink="http://www.w3.org/1999/xlink">
<g id="graph0" class="graph" transform="scale(1 1) rotate(0) translate(4 35)">
<title>FWorldObserver_GetAngularVelocity</title>
<polygon fill="white" stroke="transparent" points="-4,4 -4,-35 918,-35 918,4 -4,4"/>
<!-- Node1 -->
<g id="node1" class="node">
<title>Node1</title>
<g id="a_node1"><a xlink:title=" ">
<polygon fill="#bfbfbf" stroke="black" points="759,-0.5 759,-30.5 914,-30.5 914,-0.5 759,-0.5"/>
<text text-anchor="start" x="767" y="-18.5" font-family="Helvetica,sans-Serif" font-size="10.00">FWorldObserver_GetAngular</text>
<text text-anchor="middle" x="836.5" y="-7.5" font-family="Helvetica,sans-Serif" font-size="10.00">Velocity</text>
</a>
</g>
</g>
<!-- Node2 -->
<g id="node2" class="node">
<title>Node2</title>
<g id="a_node2"><a xlink:href="../../d9/de7/WorldObserver_8cpp.html#a55e677eb5bd393082eef8383920b2fde" target="_top" xlink:title=" ">
<polygon fill="white" stroke="black" points="581,-6 581,-25 723,-25 723,-6 581,-6"/>
<text text-anchor="middle" x="652" y="-13" font-family="Helvetica,sans-Serif" font-size="10.00">FWorldObserver_Serialize</text>
</a>
</g>
</g>
<!-- Node1&#45;&gt;Node2 -->
<g id="edge1" class="edge">
<title>Node1&#45;&gt;Node2</title>
<path fill="none" stroke="midnightblue" d="M748.79,-15.5C740.15,-15.5 731.45,-15.5 723.01,-15.5"/>
<polygon fill="midnightblue" stroke="midnightblue" points="748.9,-19 758.9,-15.5 748.9,-12 748.9,-19"/>
</g>
<!-- Node3 -->
<g id="node3" class="node">
<title>Node3</title>
<g id="a_node3"><a xlink:href="../../da/d9b/classFWorldObserver.html#ad866b204499b7d2252661e39bcff1811" target="_top" xlink:title="Send a message to every connected client with the info about the given Episode.">
<polygon fill="white" stroke="black" points="375,-6 375,-25 545,-25 545,-6 375,-6"/>
<text text-anchor="middle" x="460" y="-13" font-family="Helvetica,sans-Serif" font-size="10.00">FWorldObserver::BroadcastTick</text>
</a>
</g>
</g>
<!-- Node2&#45;&gt;Node3 -->
<g id="edge2" class="edge">
<title>Node2&#45;&gt;Node3</title>
<path fill="none" stroke="midnightblue" d="M570.59,-15.5C562.15,-15.5 553.55,-15.5 545.07,-15.5"/>
<polygon fill="midnightblue" stroke="midnightblue" points="570.79,-19 580.79,-15.5 570.79,-12 570.79,-19"/>
</g>
<!-- Node4 -->
<g id="node4" class="node">
<title>Node4</title>
<g id="a_node4"><a xlink:href="../../dc/d49/classFCarlaEngine.html#aff440c7ba9d004e4c5b60125cc4d709b" target="_top" xlink:title=" ">
<polygon fill="white" stroke="black" points="197,-6 197,-25 339,-25 339,-6 197,-6"/>
<text text-anchor="middle" x="268" y="-13" font-family="Helvetica,sans-Serif" font-size="10.00">FCarlaEngine::OnPostTick</text>
</a>
</g>
</g>
<!-- Node3&#45;&gt;Node4 -->
<g id="edge3" class="edge">
<title>Node3&#45;&gt;Node4</title>
<path fill="none" stroke="midnightblue" d="M364.75,-15.5C356.13,-15.5 347.52,-15.5 339.17,-15.5"/>
<polygon fill="midnightblue" stroke="midnightblue" points="364.83,-19 374.83,-15.5 364.83,-12 364.83,-19"/>
</g>
<!-- Node5 -->
<g id="node5" class="node">
<title>Node5</title>
<g id="a_node5"><a xlink:href="../../dc/d49/classFCarlaEngine.html#ab8d13063cde985781237dd7da308227e" target="_top" xlink:title=" ">
<polygon fill="white" stroke="black" points="0,-6 0,-25 161,-25 161,-6 0,-6"/>
<text text-anchor="middle" x="80.5" y="-13" font-family="Helvetica,sans-Serif" font-size="10.00">FCarlaEngine::NotifyInitGame</text>
</a>
</g>
</g>
<!-- Node4&#45;&gt;Node5 -->
<g id="edge4" class="edge">
<title>Node4&#45;&gt;Node5</title>
<path fill="none" stroke="midnightblue" d="M186.62,-15.5C178.14,-15.5 169.52,-15.5 161.06,-15.5"/>
<polygon fill="midnightblue" stroke="midnightblue" points="186.87,-19 196.87,-15.5 186.87,-12 186.87,-19"/>
</g>
</g>
</svg>
