<?xml version="1.0" encoding="UTF-8" standalone="no"?>
<!DOCTYPE svg PUBLIC "-//W3C//DTD SVG 1.1//EN"
 "http://www.w3.org/Graphics/SVG/1.1/DTD/svg11.dtd">
<!-- Generated by graphviz version 2.43.0 (0)
 -->
<!-- Title: ACustomV2XSensor::PrePhysTick Pages: 1 -->
<svg width="566pt" height="88pt"
 viewBox="0.00 0.00 566.00 88.00" xmlns="http://www.w3.org/2000/svg" xmlns:xlink="http://www.w3.org/1999/xlink">
<g id="graph0" class="graph" transform="scale(1 1) rotate(0) translate(4 84)">
<title>ACustomV2XSensor::PrePhysTick</title>
<polygon fill="white" stroke="transparent" points="-4,4 -4,-84 562,-84 562,4 -4,4"/>
<!-- Node1 -->
<g id="node1" class="node">
<title>Node1</title>
<g id="a_node1"><a xlink:title=" ">
<polygon fill="#bfbfbf" stroke="black" points="0,-30 0,-49 179,-49 179,-30 0,-30"/>
<text text-anchor="middle" x="89.5" y="-37" font-family="Helvetica,sans-Serif" font-size="10.00">ACustomV2XSensor::PrePhysTick</text>
</a>
</g>
</g>
<!-- Node2 -->
<g id="node2" class="node">
<title>Node2</title>
<g id="a_node2"><a xlink:href="../../de/d1f/classACustomV2XSensor.html#a50ef411ae309e7f35302e67d363a34cf" target="_top" xlink:title=" ">
<polygon fill="white" stroke="black" points="216.5,-49.5 216.5,-79.5 368.5,-79.5 368.5,-49.5 216.5,-49.5"/>
<text text-anchor="start" x="224.5" y="-67.5" font-family="Helvetica,sans-Serif" font-size="10.00">ACustomV2XSensor::Create</text>
<text text-anchor="middle" x="292.5" y="-56.5" font-family="Helvetica,sans-Serif" font-size="10.00">CustomV2XMessage</text>
</a>
</g>
</g>
<!-- Node1&#45;&gt;Node2 -->
<g id="edge1" class="edge">
<title>Node1&#45;&gt;Node2</title>
<path fill="none" stroke="midnightblue" d="M167.06,-49.02C179.97,-50.63 193.44,-52.3 206.54,-53.93"/>
<polygon fill="midnightblue" stroke="midnightblue" points="206.12,-57.41 216.48,-55.17 206.99,-50.46 206.12,-57.41"/>
</g>
<!-- Node4 -->
<g id="node4" class="node">
<title>Node4</title>
<g id="a_node4"><a xlink:href="../../d8/d25/classPathLossModel.html#aaeaaf8d4bd211550f7d4fb824145d4e7" target="_top" xlink:title=" ">
<polygon fill="white" stroke="black" points="215,-0.5 215,-30.5 370,-30.5 370,-0.5 215,-0.5"/>
<text text-anchor="start" x="223" y="-18.5" font-family="Helvetica,sans-Serif" font-size="10.00">PathLossModel::GetTransmit</text>
<text text-anchor="middle" x="292.5" y="-7.5" font-family="Helvetica,sans-Serif" font-size="10.00">Power</text>
</a>
</g>
</g>
<!-- Node1&#45;&gt;Node4 -->
<g id="edge3" class="edge">
<title>Node1&#45;&gt;Node4</title>
<path fill="none" stroke="midnightblue" d="M170.23,-29.98C181.59,-28.62 193.32,-27.22 204.8,-25.85"/>
<polygon fill="midnightblue" stroke="midnightblue" points="205.3,-29.32 214.82,-24.66 204.47,-22.37 205.3,-29.32"/>
</g>
<!-- Node3 -->
<g id="node3" class="node">
<title>Node3</title>
<g id="a_node3"><a xlink:href="../../de/d1f/classACustomV2XSensor.html#aebc3a1baceb7f43b60fc5578f7ec4fc3" target="_top" xlink:title=" ">
<polygon fill="white" stroke="black" points="406,-49.5 406,-79.5 558,-79.5 558,-49.5 406,-49.5"/>
<text text-anchor="start" x="414" y="-67.5" font-family="Helvetica,sans-Serif" font-size="10.00">ACustomV2XSensor::Create</text>
<text text-anchor="middle" x="482" y="-56.5" font-family="Helvetica,sans-Serif" font-size="10.00">ITSPduHeader</text>
</a>
</g>
</g>
<!-- Node2&#45;&gt;Node3 -->
<g id="edge2" class="edge">
<title>Node2&#45;&gt;Node3</title>
<path fill="none" stroke="midnightblue" d="M368.68,-64.5C377.57,-64.5 386.68,-64.5 395.69,-64.5"/>
<polygon fill="midnightblue" stroke="midnightblue" points="395.8,-68 405.8,-64.5 395.8,-61 395.8,-68"/>
</g>
</g>
</svg>
