<?xml version="1.0" encoding="UTF-8" standalone="no"?>
<!DOCTYPE svg PUBLIC "-//W3C//DTD SVG 1.1//EN"
 "http://www.w3.org/Graphics/SVG/1.1/DTD/svg11.dtd">
<!-- Generated by graphviz version 2.43.0 (0)
 -->
<!-- Title: carla::road::Junction::Connection Pages: 1 -->
<svg width="249pt" height="139pt"
 viewBox="0.00 0.00 249.00 139.00" xmlns="http://www.w3.org/2000/svg" xmlns:xlink="http://www.w3.org/1999/xlink">
<g id="graph0" class="graph" transform="scale(1 1) rotate(0) translate(4 135)">
<title>carla::road::Junction::Connection</title>
<polygon fill="white" stroke="transparent" points="-4,4 -4,-135 245,-135 245,4 -4,4"/>
<!-- Node1 -->
<g id="node1" class="node">
<title>Node1</title>
<g id="a_node1"><a xlink:title=" ">
<polygon fill="#bfbfbf" stroke="black" points="57.5,-0.5 57.5,-30.5 170.5,-30.5 170.5,-0.5 57.5,-0.5"/>
<text text-anchor="start" x="65.5" y="-18.5" font-family="Helvetica,sans-Serif" font-size="10.00">carla::road::Junction</text>
<text text-anchor="middle" x="114" y="-7.5" font-family="Helvetica,sans-Serif" font-size="10.00">::Connection</text>
</a>
</g>
</g>
<!-- Node2 -->
<g id="node2" class="node">
<title>Node2</title>
<g id="a_node2"><a xlink:title=" ">
<polygon fill="white" stroke="#bfbfbf" points="0,-100.5 0,-130.5 122,-130.5 122,-100.5 0,-100.5"/>
<text text-anchor="start" x="8" y="-118.5" font-family="Helvetica,sans-Serif" font-size="10.00">vector&lt; carla::road</text>
<text text-anchor="middle" x="61" y="-107.5" font-family="Helvetica,sans-Serif" font-size="10.00">::Junction::LaneLink &gt;</text>
</a>
</g>
</g>
<!-- Node2&#45;&gt;Node1 -->
<g id="edge1" class="edge">
<title>Node2&#45;&gt;Node1</title>
<path fill="none" stroke="#9a32cd" stroke-dasharray="5,2" d="M71.61,-91.08C77.55,-78.43 85.29,-62.65 93,-49 96.5,-42.8 100.7,-36.16 104.43,-30.51"/>
<polygon fill="#9a32cd" stroke="#9a32cd" points="68.3,-89.91 67.27,-100.45 74.65,-92.85 68.3,-89.91"/>
<text text-anchor="middle" x="119.5" y="-63" font-family="Helvetica,sans-Serif" font-size="10.00"> lane_links</text>
</g>
<!-- Node3 -->
<g id="node3" class="node">
<title>Node3</title>
<g id="a_node3"><a xlink:title=" ">
<polygon fill="white" stroke="#bfbfbf" points="140,-106 140,-125 196,-125 196,-106 140,-106"/>
<text text-anchor="middle" x="168" y="-113" font-family="Helvetica,sans-Serif" font-size="10.00">uint32_t</text>
</a>
</g>
</g>
<!-- Node3&#45;&gt;Node1 -->
<g id="edge2" class="edge">
<title>Node3&#45;&gt;Node1</title>
<path fill="none" stroke="#9a32cd" stroke-dasharray="5,2" d="M164.11,-95.79C160.72,-82.13 154.93,-63.53 146,-49 141.94,-42.39 136.3,-36.08 130.88,-30.8"/>
<polygon fill="#9a32cd" stroke="#9a32cd" points="160.78,-96.93 166.41,-105.91 167.61,-95.38 160.78,-96.93"/>
<text text-anchor="middle" x="200.5" y="-74" font-family="Helvetica,sans-Serif" font-size="10.00"> incoming_road</text>
<text text-anchor="middle" x="200.5" y="-63" font-family="Helvetica,sans-Serif" font-size="10.00">id</text>
<text text-anchor="middle" x="200.5" y="-52" font-family="Helvetica,sans-Serif" font-size="10.00">connecting_road</text>
</g>
</g>
</svg>
