<?xml version="1.0" encoding="UTF-8" standalone="no"?>
<!DOCTYPE svg PUBLIC "-//W3C//DTD SVG 1.1//EN"
 "http://www.w3.org/Graphics/SVG/1.1/DTD/svg11.dtd">
<!-- Generated by graphviz version 2.40.1 (20161225.0304)
 -->
<!-- Title: CarlaStatics.h Pages: 1 -->
<svg width="2515pt" height="84pt"
 viewBox="0.00 0.00 2515.00 84.00" xmlns="http://www.w3.org/2000/svg" xmlns:xlink="http://www.w3.org/1999/xlink">
<g id="graph0" class="graph" transform="scale(1 1) rotate(0) translate(4 80)">
<title>CarlaStatics.h</title>
<polygon fill="#ffffff" stroke="transparent" points="-4,4 -4,-80 2511,-80 2511,4 -4,4"/>
<!-- Node325 -->
<g id="node1" class="node">
<title>Node325</title>
<polygon fill="#bfbfbf" stroke="#000000" points="1157,-56.5 1157,-75.5 1241,-75.5 1241,-56.5 1157,-56.5"/>
<text text-anchor="middle" x="1199" y="-63.5" font-family="Helvetica,sans-Serif" font-size="10.00" fill="#000000">CarlaStatics.h</text>
</g>
<!-- Node326 -->
<g id="node2" class="node">
<title>Node326</title>
<g id="a_node2"><a xlink:href="../../da/d7f/ActorData_8cpp.html" target="_top" xlink:title="ActorData.cpp">
<polygon fill="#ffffff" stroke="#000000" points="0,-.5 0,-19.5 86,-19.5 86,-.5 0,-.5"/>
<text text-anchor="middle" x="43" y="-7.5" font-family="Helvetica,sans-Serif" font-size="10.00" fill="#000000">ActorData.cpp</text>
</a>
</g>
</g>
<!-- Node325&#45;&gt;Node326 -->
<g id="edge1" class="edge">
<title>Node325&#45;&gt;Node326</title>
<path fill="none" stroke="#191970" d="M1146.6635,-64.8503C956.52,-60.5127 302.5837,-44.1495 95,-20 92.0779,-19.6601 89.0738,-19.2488 86.0539,-18.7895"/>
<polygon fill="#191970" stroke="#191970" points="1146.8675,-68.3558 1156.9443,-65.0834 1147.0262,-61.3576 1146.8675,-68.3558"/>
</g>
<!-- Node327 -->
<g id="node3" class="node">
<title>Node327</title>
<g id="a_node3"><a xlink:href="../../d3/d43/CarlaActor_8cpp.html" target="_top" xlink:title="CarlaActor.cpp">
<polygon fill="#ffffff" stroke="#000000" points="104.5,-.5 104.5,-19.5 191.5,-19.5 191.5,-.5 104.5,-.5"/>
<text text-anchor="middle" x="148" y="-7.5" font-family="Helvetica,sans-Serif" font-size="10.00" fill="#000000">CarlaActor.cpp</text>
</a>
</g>
</g>
<!-- Node325&#45;&gt;Node327 -->
<g id="edge2" class="edge">
<title>Node325&#45;&gt;Node327</title>
<path fill="none" stroke="#191970" d="M1146.66,-64.5866C968.4508,-59.6182 386.0567,-42.0573 200,-20 197.2612,-19.6753 194.4502,-19.2894 191.6216,-18.8611"/>
<polygon fill="#191970" stroke="#191970" points="1146.7292,-68.0898 1156.8225,-64.8685 1146.9234,-61.0925 1146.7292,-68.0898"/>
</g>
<!-- Node328 -->
<g id="node4" class="node">
<title>Node328</title>
<g id="a_node4"><a xlink:href="../../d0/d3b/CarlaBlueprintRegistry_8cpp.html" target="_top" xlink:title="CarlaBlueprintRegistry.cpp">
<polygon fill="#ffffff" stroke="#000000" points="209.5,-.5 209.5,-19.5 354.5,-19.5 354.5,-.5 209.5,-.5"/>
<text text-anchor="middle" x="282" y="-7.5" font-family="Helvetica,sans-Serif" font-size="10.00" fill="#000000">CarlaBlueprintRegistry.cpp</text>
</a>
</g>
</g>
<!-- Node325&#45;&gt;Node328 -->
<g id="edge3" class="edge">
<title>Node325&#45;&gt;Node328</title>
<path fill="none" stroke="#191970" d="M1146.5189,-64.3503C1014.6233,-59.9352 658.6779,-46.3558 363,-20 360.3185,-19.761 357.5888,-19.5023 354.8329,-19.2283"/>
<polygon fill="#191970" stroke="#191970" points="1146.6255,-67.8556 1156.736,-64.6889 1146.8574,-60.8595 1146.6255,-67.8556"/>
</g>
<!-- Node329 -->
<g id="node5" class="node">
<title>Node329</title>
<g id="a_node5"><a xlink:href="../../d6/dd9/CarlaEpisode_8cpp.html" target="_top" xlink:title="CarlaEpisode.cpp">
<polygon fill="#ffffff" stroke="#000000" points="372.5,-.5 372.5,-19.5 473.5,-19.5 473.5,-.5 372.5,-.5"/>
<text text-anchor="middle" x="423" y="-7.5" font-family="Helvetica,sans-Serif" font-size="10.00" fill="#000000">CarlaEpisode.cpp</text>
</a>
</g>
</g>
<!-- Node325&#45;&gt;Node329 -->
<g id="edge4" class="edge">
<title>Node325&#45;&gt;Node329</title>
<path fill="none" stroke="#191970" d="M1146.5912,-64.5018C1027.9272,-60.7023 729.7506,-48.8642 482,-20 479.317,-19.6874 476.5704,-19.3352 473.8007,-18.9546"/>
<polygon fill="#191970" stroke="#191970" points="1146.7334,-68.0079 1156.8385,-64.8241 1146.9535,-61.0114 1146.7334,-68.0079"/>
</g>
<!-- Node330 -->
<g id="node6" class="node">
<title>Node330</title>
<g id="a_node6"><a xlink:href="../../d5/d6e/CarlaStatics_8cpp.html" target="_top" xlink:title="CarlaStatics.cpp">
<polygon fill="#ffffff" stroke="#000000" points="491.5,-.5 491.5,-19.5 586.5,-19.5 586.5,-.5 491.5,-.5"/>
<text text-anchor="middle" x="539" y="-7.5" font-family="Helvetica,sans-Serif" font-size="10.00" fill="#000000">CarlaStatics.cpp</text>
</a>
</g>
</g>
<!-- Node325&#45;&gt;Node330 -->
<g id="edge5" class="edge">
<title>Node325&#45;&gt;Node330</title>
<path fill="none" stroke="#191970" d="M1146.8267,-63.736C1042.0898,-58.8127 798.8934,-45.4749 596,-20 592.9097,-19.612 589.732,-19.1713 586.5334,-18.6964"/>
<polygon fill="#191970" stroke="#191970" points="1146.6711,-67.2324 1156.8227,-64.2 1146.9957,-60.24 1146.6711,-67.2324"/>
</g>
<!-- Node331 -->
<g id="node7" class="node">
<title>Node331</title>
<g id="a_node7"><a xlink:href="../../d9/d95/CarlaLight_8cpp.html" target="_top" xlink:title="CarlaLight.cpp">
<polygon fill="#ffffff" stroke="#000000" points="605,-.5 605,-19.5 691,-19.5 691,-.5 605,-.5"/>
<text text-anchor="middle" x="648" y="-7.5" font-family="Helvetica,sans-Serif" font-size="10.00" fill="#000000">CarlaLight.cpp</text>
</a>
</g>
</g>
<!-- Node325&#45;&gt;Node331 -->
<g id="edge6" class="edge">
<title>Node325&#45;&gt;Node331</title>
<path fill="none" stroke="#191970" d="M1146.7142,-62.874C1055.6466,-57.052 862.1476,-43.0083 700,-20 697.0874,-19.5867 694.0904,-19.1205 691.0756,-18.621"/>
<polygon fill="#191970" stroke="#191970" points="1146.5782,-66.3723 1156.7792,-63.5106 1147.0201,-59.3863 1146.5782,-66.3723"/>
</g>
<!-- Node332 -->
<g id="node8" class="node">
<title>Node332</title>
<g id="a_node8"><a xlink:href="../../dc/d85/OpenDriveGenerator_8cpp.html" target="_top" xlink:title="OpenDriveGenerator.cpp">
<polygon fill="#ffffff" stroke="#000000" points="709.5,-.5 709.5,-19.5 846.5,-19.5 846.5,-.5 709.5,-.5"/>
<text text-anchor="middle" x="778" y="-7.5" font-family="Helvetica,sans-Serif" font-size="10.00" fill="#000000">OpenDriveGenerator.cpp</text>
</a>
</g>
</g>
<!-- Node325&#45;&gt;Node332 -->
<g id="edge7" class="edge">
<title>Node325&#45;&gt;Node332</title>
<path fill="none" stroke="#191970" d="M1146.4461,-59.0095C1070.6243,-48.9239 930.4654,-30.2804 846.5825,-19.1226"/>
<polygon fill="#191970" stroke="#191970" points="1146.3311,-62.5249 1156.7053,-60.3741 1147.2542,-55.586 1146.3311,-62.5249"/>
</g>
<!-- Node333 -->
<g id="node9" class="node">
<title>Node333</title>
<g id="a_node9"><a xlink:href="../../d2/d32/CarlaReplayerHelper_8cpp.html" target="_top" xlink:title="CarlaReplayerHelper.cpp">
<polygon fill="#ffffff" stroke="#000000" points="864.5,-.5 864.5,-19.5 1001.5,-19.5 1001.5,-.5 864.5,-.5"/>
<text text-anchor="middle" x="933" y="-7.5" font-family="Helvetica,sans-Serif" font-size="10.00" fill="#000000">CarlaReplayerHelper.cpp</text>
</a>
</g>
</g>
<!-- Node325&#45;&gt;Node333 -->
<g id="edge8" class="edge">
<title>Node325&#45;&gt;Node333</title>
<path fill="none" stroke="#191970" d="M1146.7694,-55.0041C1097.7633,-44.687 1025.2098,-29.4126 978.5144,-19.582"/>
<polygon fill="#191970" stroke="#191970" points="1146.3449,-58.4914 1156.8515,-57.1266 1147.7871,-51.6415 1146.3449,-58.4914"/>
</g>
<!-- Node334 -->
<g id="node10" class="node">
<title>Node334</title>
<g id="a_node10"><a xlink:href="../../d7/d22/GnssSensor_8cpp.html" target="_top" xlink:title="GnssSensor.cpp">
<polygon fill="#ffffff" stroke="#000000" points="1019.5,-.5 1019.5,-19.5 1112.5,-19.5 1112.5,-.5 1019.5,-.5"/>
<text text-anchor="middle" x="1066" y="-7.5" font-family="Helvetica,sans-Serif" font-size="10.00" fill="#000000">GnssSensor.cpp</text>
</a>
</g>
</g>
<!-- Node325&#45;&gt;Node334 -->
<g id="edge9" class="edge">
<title>Node325&#45;&gt;Node334</title>
<path fill="none" stroke="#191970" d="M1166.6603,-52.3833C1142.4715,-42.1985 1110.005,-28.5284 1088.5652,-19.5011"/>
<polygon fill="#191970" stroke="#191970" points="1165.5619,-55.7184 1176.1365,-56.3733 1168.2783,-49.2669 1165.5619,-55.7184"/>
</g>
<!-- Node335 -->
<g id="node11" class="node">
<title>Node335</title>
<g id="a_node11"><a xlink:href="../../db/d2d/SceneCaptureSensor_8cpp.html" target="_top" xlink:title="SceneCaptureSensor.cpp">
<polygon fill="#ffffff" stroke="#000000" points="1130.5,-.5 1130.5,-19.5 1267.5,-19.5 1267.5,-.5 1130.5,-.5"/>
<text text-anchor="middle" x="1199" y="-7.5" font-family="Helvetica,sans-Serif" font-size="10.00" fill="#000000">SceneCaptureSensor.cpp</text>
</a>
</g>
</g>
<!-- Node325&#45;&gt;Node335 -->
<g id="edge10" class="edge">
<title>Node325&#45;&gt;Node335</title>
<path fill="none" stroke="#191970" d="M1199,-46.1575C1199,-37.155 1199,-26.9199 1199,-19.6427"/>
<polygon fill="#191970" stroke="#191970" points="1195.5001,-46.2455 1199,-56.2455 1202.5001,-46.2456 1195.5001,-46.2455"/>
</g>
<!-- Node336 -->
<g id="node12" class="node">
<title>Node336</title>
<g id="a_node12"><a xlink:href="../../d0/dde/SensorFactory_8cpp.html" target="_top" xlink:title="SensorFactory.cpp">
<polygon fill="#ffffff" stroke="#000000" points="1286,-.5 1286,-19.5 1390,-19.5 1390,-.5 1286,-.5"/>
<text text-anchor="middle" x="1338" y="-7.5" font-family="Helvetica,sans-Serif" font-size="10.00" fill="#000000">SensorFactory.cpp</text>
</a>
</g>
</g>
<!-- Node325&#45;&gt;Node336 -->
<g id="edge11" class="edge">
<title>Node325&#45;&gt;Node336</title>
<path fill="none" stroke="#191970" d="M1232.4621,-52.5189C1257.7769,-42.3201 1291.9103,-28.5685 1314.4169,-19.5011"/>
<polygon fill="#191970" stroke="#191970" points="1230.8626,-49.3899 1222.895,-56.3733 1233.4784,-55.8827 1230.8626,-49.3899"/>
</g>
<!-- Node337 -->
<g id="node13" class="node">
<title>Node337</title>
<g id="a_node13"><a xlink:href="../../d2/d40/TrafficLightBase_8cpp.html" target="_top" xlink:title="TrafficLightBase.cpp">
<polygon fill="#ffffff" stroke="#000000" points="1408,-.5 1408,-19.5 1522,-19.5 1522,-.5 1408,-.5"/>
<text text-anchor="middle" x="1465" y="-7.5" font-family="Helvetica,sans-Serif" font-size="10.00" fill="#000000">TrafficLightBase.cpp</text>
</a>
</g>
</g>
<!-- Node325&#45;&gt;Node337 -->
<g id="edge12" class="edge">
<title>Node325&#45;&gt;Node337</title>
<path fill="none" stroke="#191970" d="M1251.2306,-55.0041C1300.2367,-44.687 1372.7902,-29.4126 1419.4856,-19.582"/>
<polygon fill="#191970" stroke="#191970" points="1250.2129,-51.6415 1241.1485,-57.1266 1251.6551,-58.4914 1250.2129,-51.6415"/>
</g>
<!-- Node338 -->
<g id="node14" class="node">
<title>Node338</title>
<g id="a_node14"><a xlink:href="../../d3/dcd/TrafficLightComponent_8cpp.html" target="_top" xlink:title="TrafficLightComponent.cpp">
<polygon fill="#ffffff" stroke="#000000" points="1540,-.5 1540,-19.5 1686,-19.5 1686,-.5 1540,-.5"/>
<text text-anchor="middle" x="1613" y="-7.5" font-family="Helvetica,sans-Serif" font-size="10.00" fill="#000000">TrafficLightComponent.cpp</text>
</a>
</g>
</g>
<!-- Node325&#45;&gt;Node338 -->
<g id="edge13" class="edge">
<title>Node325&#45;&gt;Node338</title>
<path fill="none" stroke="#191970" d="M1251.3559,-58.918C1325.1512,-48.9361 1459.947,-30.7028 1542.4943,-19.537"/>
<polygon fill="#191970" stroke="#191970" points="1250.8002,-55.4612 1241.3597,-60.2702 1251.7386,-62.3981 1250.8002,-55.4612"/>
</g>
<!-- Node339 -->
<g id="node15" class="node">
<title>Node339</title>
<g id="a_node15"><a xlink:href="../../db/d9a/TrafficLightGroup_8cpp.html" target="_top" xlink:title="TrafficLightGroup.cpp">
<polygon fill="#ffffff" stroke="#000000" points="1704.5,-.5 1704.5,-19.5 1823.5,-19.5 1823.5,-.5 1704.5,-.5"/>
<text text-anchor="middle" x="1764" y="-7.5" font-family="Helvetica,sans-Serif" font-size="10.00" fill="#000000">TrafficLightGroup.cpp</text>
</a>
</g>
</g>
<!-- Node325&#45;&gt;Node339 -->
<g id="edge14" class="edge">
<title>Node325&#45;&gt;Node339</title>
<path fill="none" stroke="#191970" d="M1251.2163,-62.0462C1341.7251,-54.9944 1533.5471,-39.1733 1695,-20 1698.005,-19.6431 1701.0811,-19.2606 1704.1857,-18.8608"/>
<polygon fill="#191970" stroke="#191970" points="1250.9102,-58.5594 1241.2108,-62.8222 1251.4515,-65.5384 1250.9102,-58.5594"/>
</g>
<!-- Node340 -->
<g id="node16" class="node">
<title>Node340</title>
<g id="a_node16"><a xlink:href="../../d6/d3f/TrafficLightManager_8cpp.html" target="_top" xlink:title="TrafficLightManager.cpp">
<polygon fill="#ffffff" stroke="#000000" points="1841.5,-.5 1841.5,-19.5 1972.5,-19.5 1972.5,-.5 1841.5,-.5"/>
<text text-anchor="middle" x="1907" y="-7.5" font-family="Helvetica,sans-Serif" font-size="10.00" fill="#000000">TrafficLightManager.cpp</text>
</a>
</g>
</g>
<!-- Node325&#45;&gt;Node340 -->
<g id="edge15" class="edge">
<title>Node325&#45;&gt;Node340</title>
<path fill="none" stroke="#191970" d="M1251.4137,-63.2976C1360.0586,-57.4536 1617.6628,-42.3401 1833,-20 1835.7079,-19.7191 1838.4695,-19.4169 1841.2578,-19.099"/>
<polygon fill="#191970" stroke="#191970" points="1251.1701,-59.8055 1241.3711,-63.8341 1251.5436,-66.7955 1251.1701,-59.8055"/>
</g>
<!-- Node341 -->
<g id="node17" class="node">
<title>Node341</title>
<g id="a_node17"><a xlink:href="../../d3/da1/TriggerFactory_8cpp.html" target="_top" xlink:title="TriggerFactory.cpp">
<polygon fill="#ffffff" stroke="#000000" points="1991,-.5 1991,-19.5 2095,-19.5 2095,-.5 1991,-.5"/>
<text text-anchor="middle" x="2043" y="-7.5" font-family="Helvetica,sans-Serif" font-size="10.00" fill="#000000">TriggerFactory.cpp</text>
</a>
</g>
</g>
<!-- Node325&#45;&gt;Node341 -->
<g id="edge16" class="edge">
<title>Node325&#45;&gt;Node341</title>
<path fill="none" stroke="#191970" d="M1251.2853,-64.8026C1377.3407,-61.508 1707.861,-50.4399 1982,-20 1984.8798,-19.6802 1987.8308,-19.3167 1990.8057,-18.9221"/>
<polygon fill="#191970" stroke="#191970" points="1251.0517,-61.3073 1241.1447,-65.0623 1251.231,-68.305 1251.0517,-61.3073"/>
</g>
<!-- Node342 -->
<g id="node18" class="node">
<title>Node342</title>
<g id="a_node18"><a xlink:href="../../d3/d7b/DebugShapeDrawer_8cpp.html" target="_top" xlink:title="DebugShapeDrawer.cpp">
<polygon fill="#ffffff" stroke="#000000" points="2113.5,-.5 2113.5,-19.5 2246.5,-19.5 2246.5,-.5 2113.5,-.5"/>
<text text-anchor="middle" x="2180" y="-7.5" font-family="Helvetica,sans-Serif" font-size="10.00" fill="#000000">DebugShapeDrawer.cpp</text>
</a>
</g>
</g>
<!-- Node325&#45;&gt;Node342 -->
<g id="edge17" class="edge">
<title>Node325&#45;&gt;Node342</title>
<path fill="none" stroke="#191970" d="M1251.3903,-64.8034C1390.5079,-61.3088 1780.669,-49.4414 2104,-20 2107.0483,-19.7224 2110.1623,-19.414 2113.3056,-19.0826"/>
<polygon fill="#191970" stroke="#191970" points="1250.9445,-61.3133 1241.0341,-65.0597 1251.1177,-68.3112 1250.9445,-61.3133"/>
</g>
<!-- Node343 -->
<g id="node19" class="node">
<title>Node343</title>
<g id="a_node19"><a xlink:href="../../de/dc2/RayTracer_8cpp.html" target="_top" xlink:title="RayTracer.cpp">
<polygon fill="#ffffff" stroke="#000000" points="2265,-.5 2265,-19.5 2349,-19.5 2349,-.5 2265,-.5"/>
<text text-anchor="middle" x="2307" y="-7.5" font-family="Helvetica,sans-Serif" font-size="10.00" fill="#000000">RayTracer.cpp</text>
</a>
</g>
</g>
<!-- Node325&#45;&gt;Node343 -->
<g id="edge18" class="edge">
<title>Node325&#45;&gt;Node343</title>
<path fill="none" stroke="#191970" d="M1251.285,-64.7651C1436.1005,-60.2376 2058.0853,-43.5747 2256,-20 2258.867,-19.6585 2261.8142,-19.2461 2264.7766,-18.7859"/>
<polygon fill="#191970" stroke="#191970" points="1251.1893,-61.2663 1241.2775,-65.0089 1251.3598,-68.2642 1251.1893,-61.2663"/>
</g>
<!-- Node344 -->
<g id="node20" class="node">
<title>Node344</title>
<g id="a_node20"><a xlink:href="../../dc/d65/CarlaWheeledVehicle_8cpp.html" target="_top" xlink:title="CarlaWheeledVehicle.cpp">
<polygon fill="#ffffff" stroke="#000000" points="2367,-.5 2367,-19.5 2507,-19.5 2507,-.5 2367,-.5"/>
<text text-anchor="middle" x="2437" y="-7.5" font-family="Helvetica,sans-Serif" font-size="10.00" fill="#000000">CarlaWheeledVehicle.cpp</text>
</a>
</g>
</g>
<!-- Node325&#45;&gt;Node344 -->
<g id="edge19" class="edge">
<title>Node325&#45;&gt;Node344</title>
<path fill="none" stroke="#191970" d="M1251.4554,-65.5279C1415.2759,-63.7088 1931.8719,-55.3602 2358,-20 2360.8932,-19.7599 2363.8434,-19.4919 2366.8217,-19.2022"/>
<polygon fill="#191970" stroke="#191970" points="1251.1414,-62.031 1241.1797,-65.6385 1251.2168,-69.0306 1251.1414,-62.031"/>
</g>
</g>
</svg>
