<?xml version="1.0" encoding="UTF-8" standalone="no"?>
<!DOCTYPE svg PUBLIC "-//W3C//DTD SVG 1.1//EN"
 "http://www.w3.org/Graphics/SVG/1.1/DTD/svg11.dtd">
<!-- Generated by graphviz version 2.40.1 (20161225.0304)
 -->
<!-- Title: UBaseCarlaMovementComponent Pages: 1 -->
<svg width="866pt" height="1026pt"
 viewBox="0.00 0.00 866.00 1026.11" xmlns="http://www.w3.org/2000/svg" xmlns:xlink="http://www.w3.org/1999/xlink">
<g id="graph0" class="graph" transform="scale(1 1) rotate(0) translate(4 1022.1079)">
<title>UBaseCarlaMovementComponent</title>
<polygon fill="#ffffff" stroke="transparent" points="-4,4 -4,-1022.1079 862,-1022.1079 862,4 -4,4"/>
<!-- Node5 -->
<g id="node1" class="node">
<title>Node5</title>
<polygon fill="#bfbfbf" stroke="#000000" points="377,-27.0849 377,-46.0849 559,-46.0849 559,-27.0849 377,-27.0849"/>
<text text-anchor="middle" x="468" y="-34.0849" font-family="Helvetica,sans-Serif" font-size="10.00" fill="#000000">UBaseCarlaMovementComponent</text>
</g>
<!-- Node7 -->
<g id="node3" class="node">
<title>Node7</title>
<g id="a_node3"><a xlink:href="../../d5/d70/classACarlaWheeledVehicle.html" target="_top" xlink:title="Base class for CARLA wheeled vehicles. ">
<polygon fill="#ffffff" stroke="#000000" points="731,-249.0849 731,-268.0849 858,-268.0849 858,-249.0849 731,-249.0849"/>
<text text-anchor="middle" x="794.5" y="-256.0849" font-family="Helvetica,sans-Serif" font-size="10.00" fill="#000000">ACarlaWheeledVehicle</text>
</a>
</g>
</g>
<!-- Node5&#45;&gt;Node7 -->
<g id="edge7" class="edge">
<title>Node5&#45;&gt;Node7</title>
<path fill="none" stroke="#9a32cd" stroke-dasharray="5,2" d="M569.3697,-38.0221C626.3543,-40.7606 690.4631,-47.6845 713,-64.5849 775.838,-111.7071 790.6128,-216.5142 793.7336,-248.8766"/>
<polygon fill="#9a32cd" stroke="#9a32cd" points="569.3377,-34.5174 559.193,-37.5728 569.0289,-41.5106 569.3377,-34.5174"/>
<text text-anchor="middle" x="645" y="-67.5849" font-family="Helvetica,sans-Serif" font-size="10.00" fill="#000000"> BaseMovementComponent</text>
</g>
<!-- Node6 -->
<g id="node2" class="node">
<title>Node6</title>
<g id="a_node2"><a xlink:href="../../d5/def/classUMovementComponent.html" target="_top" xlink:title="UMovementComponent">
<polygon fill="#ffffff" stroke="#000000" points="23.5,-27.0849 23.5,-46.0849 155.5,-46.0849 155.5,-27.0849 23.5,-27.0849"/>
<text text-anchor="middle" x="89.5" y="-34.0849" font-family="Helvetica,sans-Serif" font-size="10.00" fill="#000000">UMovementComponent</text>
</a>
</g>
</g>
<!-- Node6&#45;&gt;Node5 -->
<g id="edge1" class="edge">
<title>Node6&#45;&gt;Node5</title>
<path fill="none" stroke="#191970" d="M166.1782,-36.5849C227.0787,-36.5849 312.4118,-36.5849 376.812,-36.5849"/>
<polygon fill="#191970" stroke="#191970" points="165.8628,-33.085 155.8628,-36.5849 165.8628,-40.085 165.8628,-33.085"/>
</g>
<!-- Node7&#45;&gt;Node5 -->
<g id="edge2" class="edge">
<title>Node7&#45;&gt;Node5</title>
<path fill="none" stroke="#9a32cd" stroke-dasharray="5,2" d="M790.639,-238.9575C780.0906,-187.5617 749.1471,-51.2358 713,-25.5849 645.1162,22.5871 538.0316,-9.2313 491.2088,-26.9609"/>
<polygon fill="#9a32cd" stroke="#9a32cd" points="787.2713,-239.964 792.6758,-249.0768 794.1337,-238.5827 787.2713,-239.964"/>
<text text-anchor="middle" x="645" y="-28.5849" font-family="Helvetica,sans-Serif" font-size="10.00" fill="#000000"> CarlaVehicle</text>
</g>
<!-- Node8 -->
<g id="node4" class="node">
<title>Node8</title>
<g id="a_node4"><a xlink:href="../../d4/d23/classAWheeledVehicle.html" target="_top" xlink:title="AWheeledVehicle">
<polygon fill="#ffffff" stroke="#000000" points="417.5,-991.0849 417.5,-1010.0849 518.5,-1010.0849 518.5,-991.0849 417.5,-991.0849"/>
<text text-anchor="middle" x="468" y="-998.0849" font-family="Helvetica,sans-Serif" font-size="10.00" fill="#000000">AWheeledVehicle</text>
</a>
</g>
</g>
<!-- Node8&#45;&gt;Node7 -->
<g id="edge3" class="edge">
<title>Node8&#45;&gt;Node7</title>
<path fill="none" stroke="#191970" d="M518.2055,-1011.8844C573.8275,-1021.1473 662.3348,-1025.6711 713,-975.5849 765.9555,-923.2346 790.8444,-349.7055 794.1239,-268.1989"/>
<polygon fill="#191970" stroke="#191970" points="518.6766,-1008.4134 508.2188,-1010.1118 517.4532,-1015.3057 518.6766,-1008.4134"/>
</g>
<!-- Node9 -->
<g id="node5" class="node">
<title>Node9</title>
<polygon fill="#ffffff" stroke="#bfbfbf" points="70.5,-794.0849 70.5,-813.0849 108.5,-813.0849 108.5,-794.0849 70.5,-794.0849"/>
<text text-anchor="middle" x="89.5" y="-801.0849" font-family="Helvetica,sans-Serif" font-size="10.00" fill="#000000">float</text>
</g>
<!-- Node9&#45;&gt;Node7 -->
<g id="edge4" class="edge">
<title>Node9&#45;&gt;Node7</title>
<path fill="none" stroke="#9a32cd" stroke-dasharray="5,2" d="M96.9954,-822.7951C110.9612,-855.5487 144.4046,-921.214 197,-947.5849 261.3629,-979.856 291.8276,-973.5053 359,-947.5849 557.145,-871.125 606.3478,-810.25 713,-626.5849 750.5426,-561.9331 785.9965,-319.5109 793.1803,-268.174"/>
<polygon fill="#9a32cd" stroke="#9a32cd" points="100.1787,-821.3328 93.1459,-813.4087 93.7022,-823.989 100.1787,-821.3328"/>
<text text-anchor="middle" x="468" y="-942.5849" font-family="Helvetica,sans-Serif" font-size="10.00" fill="#000000"> CarSimOriginOffset</text>
</g>
<!-- Node12 -->
<g id="node8" class="node">
<title>Node12</title>
<g id="a_node8"><a xlink:href="../../d1/dbe/structFVehiclePhysicsControl.html" target="_top" xlink:title="FVehiclePhysicsControl">
<polygon fill="#ffffff" stroke="#000000" points="403.5,-659.0849 403.5,-678.0849 532.5,-678.0849 532.5,-659.0849 403.5,-659.0849"/>
<text text-anchor="middle" x="468" y="-666.0849" font-family="Helvetica,sans-Serif" font-size="10.00" fill="#000000">FVehiclePhysicsControl</text>
</a>
</g>
</g>
<!-- Node9&#45;&gt;Node12 -->
<g id="edge10" class="edge">
<title>Node9&#45;&gt;Node12</title>
<path fill="none" stroke="#9a32cd" stroke-dasharray="5,2" d="M118.6013,-803.7728C179.2636,-803.753 317.0782,-801.4457 359,-781.5849 408.7585,-758.0115 447.8574,-701.2839 462.1383,-678.4008"/>
<polygon fill="#9a32cd" stroke="#9a32cd" points="118.5526,-800.2728 108.5464,-803.7549 118.5401,-807.2728 118.5526,-800.2728"/>
<text text-anchor="start" x="197" y="-936.5849" font-family="Helvetica,sans-Serif" font-size="10.00" fill="#000000"> DampingRateZeroThrottleClutch</text>
<text text-anchor="middle" x="278" y="-925.5849" font-family="Helvetica,sans-Serif" font-size="10.00" fill="#000000">Engaged</text>
<text text-anchor="middle" x="278" y="-914.5849" font-family="Helvetica,sans-Serif" font-size="10.00" fill="#000000">Mass</text>
<text text-anchor="middle" x="278" y="-903.5849" font-family="Helvetica,sans-Serif" font-size="10.00" fill="#000000">MOI</text>
<text text-anchor="middle" x="278" y="-892.5849" font-family="Helvetica,sans-Serif" font-size="10.00" fill="#000000">GearSwitchTime</text>
<text text-anchor="start" x="197" y="-881.5849" font-family="Helvetica,sans-Serif" font-size="10.00" fill="#000000">DampingRateZeroThrottle</text>
<text text-anchor="middle" x="278" y="-870.5849" font-family="Helvetica,sans-Serif" font-size="10.00" fill="#000000">ClutchDisengaged</text>
<text text-anchor="middle" x="278" y="-859.5849" font-family="Helvetica,sans-Serif" font-size="10.00" fill="#000000">DampingRateFullThrottle</text>
<text text-anchor="middle" x="278" y="-848.5849" font-family="Helvetica,sans-Serif" font-size="10.00" fill="#000000">DragCoefficient</text>
<text text-anchor="middle" x="278" y="-837.5849" font-family="Helvetica,sans-Serif" font-size="10.00" fill="#000000">FinalRatio</text>
<text text-anchor="middle" x="278" y="-826.5849" font-family="Helvetica,sans-Serif" font-size="10.00" fill="#000000">MaxRPM</text>
<text text-anchor="middle" x="278" y="-815.5849" font-family="Helvetica,sans-Serif" font-size="10.00" fill="#000000">ClutchStrength</text>
<text text-anchor="middle" x="278" y="-804.5849" font-family="Helvetica,sans-Serif" font-size="10.00" fill="#000000">...</text>
</g>
<!-- Node18 -->
<g id="node14" class="node">
<title>Node18</title>
<g id="a_node14"><a xlink:href="../../d1/d4b/structFVehicleControl.html" target="_top" xlink:title="FVehicleControl">
<polygon fill="#ffffff" stroke="#000000" points="422,-518.0849 422,-537.0849 514,-537.0849 514,-518.0849 422,-518.0849"/>
<text text-anchor="middle" x="468" y="-525.0849" font-family="Helvetica,sans-Serif" font-size="10.00" fill="#000000">FVehicleControl</text>
</a>
</g>
</g>
<!-- Node9&#45;&gt;Node18 -->
<g id="edge17" class="edge">
<title>Node9&#45;&gt;Node18</title>
<path fill="none" stroke="#9a32cd" stroke-dasharray="5,2" d="M111.4861,-788.3507C132.4709,-774.5992 165.4736,-754.9787 197,-744.5849 231.5037,-733.2096 331.9762,-746.867 359,-722.5849 383.856,-700.2507 362.727,-679.7996 377,-649.5849 399.0082,-602.9954 440.2879,-556.5958 458.7107,-537.1288"/>
<polygon fill="#9a32cd" stroke="#9a32cd" points="109.3717,-785.5541 103.0032,-794.0212 113.2619,-791.3736 109.3717,-785.5541"/>
<text text-anchor="middle" x="278" y="-769.5849" font-family="Helvetica,sans-Serif" font-size="10.00" fill="#000000"> Brake</text>
<text text-anchor="middle" x="278" y="-758.5849" font-family="Helvetica,sans-Serif" font-size="10.00" fill="#000000">Steer</text>
<text text-anchor="middle" x="278" y="-747.5849" font-family="Helvetica,sans-Serif" font-size="10.00" fill="#000000">Throttle</text>
</g>
<!-- Node10 -->
<g id="node6" class="node">
<title>Node10</title>
<polygon fill="#ffffff" stroke="#bfbfbf" points="397,-267.0849 397,-286.0849 539,-286.0849 539,-267.0849 397,-267.0849"/>
<text text-anchor="middle" x="468" y="-274.0849" font-family="Helvetica,sans-Serif" font-size="10.00" fill="#000000">UVehicleVelocityControl *</text>
</g>
<!-- Node10&#45;&gt;Node7 -->
<g id="edge5" class="edge">
<title>Node10&#45;&gt;Node7</title>
<path fill="none" stroke="#9a32cd" stroke-dasharray="5,2" d="M549.5121,-272.0912C605.6108,-268.9984 679.0651,-264.9489 730.8615,-262.0933"/>
<polygon fill="#9a32cd" stroke="#9a32cd" points="549.0405,-268.6117 539.2484,-272.657 549.4259,-275.6011 549.0405,-268.6117"/>
<text text-anchor="middle" x="645" y="-272.5849" font-family="Helvetica,sans-Serif" font-size="10.00" fill="#000000"> VelocityControl</text>
</g>
<!-- Node11 -->
<g id="node7" class="node">
<title>Node11</title>
<polygon fill="#ffffff" stroke="#bfbfbf" points="422,-229.0849 422,-248.0849 514,-248.0849 514,-229.0849 422,-229.0849"/>
<text text-anchor="middle" x="468" y="-236.0849" font-family="Helvetica,sans-Serif" font-size="10.00" fill="#000000">TArray&lt; float &gt;</text>
</g>
<!-- Node11&#45;&gt;Node7 -->
<g id="edge6" class="edge">
<title>Node11&#45;&gt;Node7</title>
<path fill="none" stroke="#9a32cd" stroke-dasharray="5,2" d="M524.5438,-233.6664C574.3796,-230.3902 648.8319,-228.0765 713,-236.5849 731.0154,-238.9737 750.6999,-244.21 766.2097,-248.9748"/>
<polygon fill="#9a32cd" stroke="#9a32cd" points="524.0297,-230.1936 514.2956,-234.3766 524.5137,-237.1768 524.0297,-230.1936"/>
<text text-anchor="middle" x="645" y="-250.5849" font-family="Helvetica,sans-Serif" font-size="10.00" fill="#000000"> DoorAnimMaxAngle</text>
<text text-anchor="middle" x="645" y="-239.5849" font-family="Helvetica,sans-Serif" font-size="10.00" fill="#000000">DoorAnimAlpha</text>
</g>
<!-- Node12&#45;&gt;Node7 -->
<g id="edge8" class="edge">
<title>Node12&#45;&gt;Node7</title>
<path fill="none" stroke="#9a32cd" stroke-dasharray="5,2" d="M499.928,-654.6588C551.9607,-630.3905 655.0443,-575.4938 713,-498.5849 770.4664,-422.3254 789.0688,-302.9045 793.403,-268.2884"/>
<polygon fill="#9a32cd" stroke="#9a32cd" points="498.1615,-651.6183 490.5296,-658.967 501.0785,-657.9816 498.1615,-651.6183"/>
<text text-anchor="middle" x="645" y="-614.5849" font-family="Helvetica,sans-Serif" font-size="10.00" fill="#000000"> LastPhysicsControl</text>
</g>
<!-- Node13 -->
<g id="node9" class="node">
<title>Node13</title>
<polygon fill="#ffffff" stroke="#bfbfbf" points="0,-704.0849 0,-723.0849 179,-723.0849 179,-704.0849 0,-704.0849"/>
<text text-anchor="middle" x="89.5" y="-711.0849" font-family="Helvetica,sans-Serif" font-size="10.00" fill="#000000">TArray&lt; FWheelPhysicsControl &gt;</text>
</g>
<!-- Node13&#45;&gt;Node12 -->
<g id="edge9" class="edge">
<title>Node13&#45;&gt;Node12</title>
<path fill="none" stroke="#9a32cd" stroke-dasharray="5,2" d="M189.0734,-708.4723C240.0659,-705.0915 303.0384,-699.7399 359,-691.5849 382.3486,-688.1825 408.1982,-682.7994 428.8624,-678.0963"/>
<polygon fill="#9a32cd" stroke="#9a32cd" points="188.793,-704.9831 179.0403,-709.1225 189.2457,-711.9684 188.793,-704.9831"/>
<text text-anchor="middle" x="278" y="-710.5849" font-family="Helvetica,sans-Serif" font-size="10.00" fill="#000000"> Wheels</text>
</g>
<!-- Node14 -->
<g id="node10" class="node">
<title>Node14</title>
<polygon fill="#ffffff" stroke="#bfbfbf" points="54,-661.0849 54,-680.0849 125,-680.0849 125,-661.0849 54,-661.0849"/>
<text text-anchor="middle" x="89.5" y="-668.0849" font-family="Helvetica,sans-Serif" font-size="10.00" fill="#000000">FRichCurve</text>
</g>
<!-- Node14&#45;&gt;Node12 -->
<g id="edge11" class="edge">
<title>Node14&#45;&gt;Node12</title>
<path fill="none" stroke="#9a32cd" stroke-dasharray="5,2" d="M135.5343,-670.1C154.5611,-669.9143 176.8433,-669.7159 197,-669.5849 267.5719,-669.1265 348.4828,-668.862 403.3878,-668.7215"/>
<polygon fill="#9a32cd" stroke="#9a32cd" points="135.2976,-666.6021 125.3329,-670.2013 135.3672,-673.6017 135.2976,-666.6021"/>
<text text-anchor="middle" x="278" y="-683.5849" font-family="Helvetica,sans-Serif" font-size="10.00" fill="#000000"> TorqueCurve</text>
<text text-anchor="middle" x="278" y="-672.5849" font-family="Helvetica,sans-Serif" font-size="10.00" fill="#000000">SteeringCurve</text>
</g>
<!-- Node15 -->
<g id="node11" class="node">
<title>Node15</title>
<polygon fill="#ffffff" stroke="#bfbfbf" points="70.5,-418.0849 70.5,-437.0849 108.5,-437.0849 108.5,-418.0849 70.5,-418.0849"/>
<text text-anchor="middle" x="89.5" y="-425.0849" font-family="Helvetica,sans-Serif" font-size="10.00" fill="#000000">bool</text>
</g>
<!-- Node15&#45;&gt;Node7 -->
<g id="edge15" class="edge">
<title>Node15&#45;&gt;Node7</title>
<path fill="none" stroke="#9a32cd" stroke-dasharray="5,2" d="M104.121,-410.1911C123.1031,-388.9639 158.4009,-353.8901 197,-337.5849 303.1847,-292.7298 600.1574,-308.1159 713,-284.5849 732.1916,-280.5829 753.2602,-273.7954 769.1677,-268.1589"/>
<polygon fill="#9a32cd" stroke="#9a32cd" points="101.3889,-407.9988 97.4547,-417.8361 106.6648,-412.5993 101.3889,-407.9988"/>
<text text-anchor="middle" x="468" y="-309.5849" font-family="Helvetica,sans-Serif" font-size="10.00" fill="#000000"> bPhysicsEnabled</text>
</g>
<!-- Node15&#45;&gt;Node12 -->
<g id="edge12" class="edge">
<title>Node15&#45;&gt;Node12</title>
<path fill="none" stroke="#9a32cd" stroke-dasharray="5,2" d="M104.5404,-445.1933C122.6153,-466.5144 153.6742,-503.6651 179,-536.5849 187.3484,-547.4367 185.9263,-553.5332 197,-561.5849 258.1601,-606.0547 289.03,-584.9089 359,-613.5849 392.5382,-627.33 429.9053,-647.2525 451.022,-658.967"/>
<polygon fill="#9a32cd" stroke="#9a32cd" points="107.0022,-442.6854 97.8578,-437.3345 101.6695,-447.22 107.0022,-442.6854"/>
<text text-anchor="middle" x="278" y="-627.5849" font-family="Helvetica,sans-Serif" font-size="10.00" fill="#000000"> UseSweepWheelCollision</text>
<text text-anchor="middle" x="278" y="-616.5849" font-family="Helvetica,sans-Serif" font-size="10.00" fill="#000000">bUseGearAutoBox</text>
</g>
<!-- Node15&#45;&gt;Node18 -->
<g id="edge19" class="edge">
<title>Node15&#45;&gt;Node18</title>
<path fill="none" stroke="#9a32cd" stroke-dasharray="5,2" d="M115.0082,-442.1777C136.2609,-453.6575 167.6842,-469.0873 197,-477.5849 266.732,-497.7977 287.7661,-484.5547 359,-498.5849 385.3215,-503.7692 414.6876,-511.7101 436.3012,-517.9724"/>
<polygon fill="#9a32cd" stroke="#9a32cd" points="116.4514,-438.977 106.0032,-437.2203 113.0755,-445.1091 116.4514,-438.977"/>
<text text-anchor="middle" x="278" y="-523.5849" font-family="Helvetica,sans-Serif" font-size="10.00" fill="#000000"> bReverse</text>
<text text-anchor="middle" x="278" y="-512.5849" font-family="Helvetica,sans-Serif" font-size="10.00" fill="#000000">bHandBrake</text>
<text text-anchor="middle" x="278" y="-501.5849" font-family="Helvetica,sans-Serif" font-size="10.00" fill="#000000">bManualGearShift</text>
</g>
<!-- Node24 -->
<g id="node20" class="node">
<title>Node24</title>
<g id="a_node20"><a xlink:href="../../de/d9e/structFVehicleLightState.html" target="_top" xlink:title="FVehicleLightState">
<polygon fill="#ffffff" stroke="#000000" points="414.5,-352.0849 414.5,-371.0849 521.5,-371.0849 521.5,-352.0849 414.5,-352.0849"/>
<text text-anchor="middle" x="468" y="-359.0849" font-family="Helvetica,sans-Serif" font-size="10.00" fill="#000000">FVehicleLightState</text>
</a>
</g>
</g>
<!-- Node15&#45;&gt;Node24 -->
<g id="edge25" class="edge">
<title>Node15&#45;&gt;Node24</title>
<path fill="none" stroke="#9a32cd" stroke-dasharray="5,2" d="M107.0592,-411.1927C127.0584,-393.7489 161.5757,-367.2273 197,-356.5849 272.4868,-333.9067 365.2084,-343.0456 420.2951,-352.0745"/>
<polygon fill="#9a32cd" stroke="#9a32cd" points="104.529,-408.7603 99.4167,-418.0401 109.2001,-413.9738 104.529,-408.7603"/>
<text text-anchor="middle" x="278" y="-469.5849" font-family="Helvetica,sans-Serif" font-size="10.00" fill="#000000"> Special1</text>
<text text-anchor="middle" x="278" y="-458.5849" font-family="Helvetica,sans-Serif" font-size="10.00" fill="#000000">Special2</text>
<text text-anchor="middle" x="278" y="-447.5849" font-family="Helvetica,sans-Serif" font-size="10.00" fill="#000000">LowBeam</text>
<text text-anchor="middle" x="278" y="-436.5849" font-family="Helvetica,sans-Serif" font-size="10.00" fill="#000000">Interior</text>
<text text-anchor="middle" x="278" y="-425.5849" font-family="Helvetica,sans-Serif" font-size="10.00" fill="#000000">RightBlinker</text>
<text text-anchor="middle" x="278" y="-414.5849" font-family="Helvetica,sans-Serif" font-size="10.00" fill="#000000">HighBeam</text>
<text text-anchor="middle" x="278" y="-403.5849" font-family="Helvetica,sans-Serif" font-size="10.00" fill="#000000">Brake</text>
<text text-anchor="middle" x="278" y="-392.5849" font-family="Helvetica,sans-Serif" font-size="10.00" fill="#000000">Position</text>
<text text-anchor="middle" x="278" y="-381.5849" font-family="Helvetica,sans-Serif" font-size="10.00" fill="#000000">LeftBlinker</text>
<text text-anchor="middle" x="278" y="-370.5849" font-family="Helvetica,sans-Serif" font-size="10.00" fill="#000000">Fog</text>
<text text-anchor="middle" x="278" y="-359.5849" font-family="Helvetica,sans-Serif" font-size="10.00" fill="#000000">...</text>
</g>
<!-- Node16 -->
<g id="node12" class="node">
<title>Node16</title>
<polygon fill="#ffffff" stroke="#bfbfbf" points="63,-623.0849 63,-642.0849 116,-642.0849 116,-623.0849 63,-623.0849"/>
<text text-anchor="middle" x="89.5" y="-630.0849" font-family="Helvetica,sans-Serif" font-size="10.00" fill="#000000">FVector</text>
</g>
<!-- Node16&#45;&gt;Node12 -->
<g id="edge13" class="edge">
<title>Node16&#45;&gt;Node12</title>
<path fill="none" stroke="#9a32cd" stroke-dasharray="5,2" d="M126.3952,-634.7683C178.3663,-638.0011 276.0595,-644.6544 359,-653.5849 373.4341,-655.1391 388.9046,-657.0925 403.524,-659.0711"/>
<polygon fill="#9a32cd" stroke="#9a32cd" points="126.5205,-631.2695 116.3245,-634.1492 126.0909,-638.2563 126.5205,-631.2695"/>
<text text-anchor="middle" x="278" y="-656.5849" font-family="Helvetica,sans-Serif" font-size="10.00" fill="#000000"> CenterOfMass</text>
</g>
<!-- Node17 -->
<g id="node13" class="node">
<title>Node17</title>
<polygon fill="#ffffff" stroke="#bfbfbf" points="4,-985.0849 4,-1004.0849 175,-1004.0849 175,-985.0849 4,-985.0849"/>
<text text-anchor="middle" x="89.5" y="-992.0849" font-family="Helvetica,sans-Serif" font-size="10.00" fill="#000000">TArray&lt; FGearPhysicsControl &gt;</text>
</g>
<!-- Node17&#45;&gt;Node12 -->
<g id="edge14" class="edge">
<title>Node17&#45;&gt;Node12</title>
<path fill="none" stroke="#9a32cd" stroke-dasharray="5,2" d="M185.5431,-1000.4938C241.7818,-998.95 310.96,-987.7766 359,-948.5849 448.7325,-875.38 464.8047,-718.5759 467.4911,-678.2161"/>
<polygon fill="#9a32cd" stroke="#9a32cd" points="185.1379,-997.0002 175.2006,-1000.6745 185.2603,-1003.9991 185.1379,-997.0002"/>
<text text-anchor="middle" x="278" y="-1002.5849" font-family="Helvetica,sans-Serif" font-size="10.00" fill="#000000"> ForwardGears</text>
</g>
<!-- Node18&#45;&gt;Node7 -->
<g id="edge16" class="edge">
<title>Node18&#45;&gt;Node7</title>
<path fill="none" stroke="#9a32cd" stroke-dasharray="5,2" d="M499.7245,-513.9169C549.4435,-491.3691 646.8602,-442.5393 713,-379.5849 749.6915,-344.6606 778.7962,-290.453 789.7737,-268.4084"/>
<polygon fill="#9a32cd" stroke="#9a32cd" points="498.1377,-510.7924 490.4401,-518.0724 500.9974,-517.1817 498.1377,-510.7924"/>
<text text-anchor="middle" x="645" y="-486.5849" font-family="Helvetica,sans-Serif" font-size="10.00" fill="#000000"> Control</text>
<text text-anchor="middle" x="645" y="-475.5849" font-family="Helvetica,sans-Serif" font-size="10.00" fill="#000000">LastAppliedControl</text>
</g>
<!-- Node19 -->
<g id="node15" class="node">
<title>Node19</title>
<polygon fill="#ffffff" stroke="#bfbfbf" points="69,-546.0849 69,-565.0849 110,-565.0849 110,-546.0849 69,-546.0849"/>
<text text-anchor="middle" x="89.5" y="-553.0849" font-family="Helvetica,sans-Serif" font-size="10.00" fill="#000000">int32</text>
</g>
<!-- Node19&#45;&gt;Node18 -->
<g id="edge18" class="edge">
<title>Node19&#45;&gt;Node18</title>
<path fill="none" stroke="#9a32cd" stroke-dasharray="5,2" d="M120.3407,-553.3035C186.757,-548.3902 343.6185,-536.7862 421.8975,-530.9954"/>
<polygon fill="#9a32cd" stroke="#9a32cd" points="119.8331,-549.8313 110.1186,-554.0596 120.3496,-556.8123 119.8331,-549.8313"/>
<text text-anchor="middle" x="278" y="-549.5849" font-family="Helvetica,sans-Serif" font-size="10.00" fill="#000000"> Gear</text>
</g>
<!-- Node20 -->
<g id="node16" class="node">
<title>Node20</title>
<polygon fill="#ffffff" stroke="#bfbfbf" points="414.5,-191.0849 414.5,-210.0849 521.5,-210.0849 521.5,-191.0849 414.5,-191.0849"/>
<text text-anchor="middle" x="468" y="-198.0849" font-family="Helvetica,sans-Serif" font-size="10.00" fill="#000000">UBoxComponent *</text>
</g>
<!-- Node20&#45;&gt;Node7 -->
<g id="edge20" class="edge">
<title>Node20&#45;&gt;Node7</title>
<path fill="none" stroke="#9a32cd" stroke-dasharray="5,2" d="M531.7045,-197.2101C581.8826,-196.2755 653.1149,-198.7971 713,-215.5849 738.5708,-222.7533 765.2478,-238.7054 780.8447,-249.0358"/>
<polygon fill="#9a32cd" stroke="#9a32cd" points="531.5581,-193.7125 521.644,-197.449 531.7243,-200.7105 531.5581,-193.7125"/>
<text text-anchor="middle" x="645" y="-218.5849" font-family="Helvetica,sans-Serif" font-size="10.00" fill="#000000"> VehicleBounds</text>
</g>
<!-- Node21 -->
<g id="node17" class="node">
<title>Node21</title>
<polygon fill="#ffffff" stroke="#bfbfbf" points="392,-153.0849 392,-172.0849 544,-172.0849 544,-153.0849 392,-153.0849"/>
<text text-anchor="middle" x="468" y="-160.0849" font-family="Helvetica,sans-Serif" font-size="10.00" fill="#000000">ECarlaWheeledVehicleState</text>
</g>
<!-- Node21&#45;&gt;Node7 -->
<g id="edge21" class="edge">
<title>Node21&#45;&gt;Node7</title>
<path fill="none" stroke="#9a32cd" stroke-dasharray="5,2" d="M554.2382,-155.4715C602.8123,-154.7851 663.4783,-159.6357 713,-181.5849 746.8122,-196.5713 775.3281,-231.7272 787.7841,-248.8583"/>
<polygon fill="#9a32cd" stroke="#9a32cd" points="553.9846,-151.9762 544.0649,-155.6978 554.1404,-158.9744 553.9846,-151.9762"/>
<text text-anchor="middle" x="645" y="-184.5849" font-family="Helvetica,sans-Serif" font-size="10.00" fill="#000000"> State</text>
</g>
<!-- Node22 -->
<g id="node18" class="node">
<title>Node22</title>
<polygon fill="#ffffff" stroke="#bfbfbf" points="399.5,-115.0849 399.5,-134.0849 536.5,-134.0849 536.5,-115.0849 399.5,-115.0849"/>
<text text-anchor="middle" x="468" y="-122.0849" font-family="Helvetica,sans-Serif" font-size="10.00" fill="#000000">anonymous:InputControl</text>
</g>
<!-- Node22&#45;&gt;Node7 -->
<g id="edge22" class="edge">
<title>Node22&#45;&gt;Node7</title>
<path fill="none" stroke="#9a32cd" stroke-dasharray="5,2" d="M533.8297,-114.0039C585.8465,-108.9925 658.5097,-109.6902 713,-140.5849 757.1833,-165.6358 782.7027,-225.693 791.247,-249.0576"/>
<polygon fill="#9a32cd" stroke="#9a32cd" points="533.289,-110.5415 523.7131,-115.0751 534.0261,-117.5026 533.289,-110.5415"/>
<text text-anchor="middle" x="645" y="-143.5849" font-family="Helvetica,sans-Serif" font-size="10.00" fill="#000000"> InputControl</text>
</g>
<!-- Node23 -->
<g id="node19" class="node">
<title>Node23</title>
<polygon fill="#ffffff" stroke="#bfbfbf" points="409,-77.0849 409,-96.0849 527,-96.0849 527,-77.0849 409,-77.0849"/>
<text text-anchor="middle" x="468" y="-84.0849" font-family="Helvetica,sans-Serif" font-size="10.00" fill="#000000">EVehicleInputPriority</text>
</g>
<!-- Node23&#45;&gt;Node7 -->
<g id="edge23" class="edge">
<title>Node23&#45;&gt;Node7</title>
<path fill="none" stroke="#9a32cd" stroke-dasharray="5,2" d="M537.2515,-81.7767C599.3788,-78.8158 684.9559,-78.501 713,-96.5849 769.0941,-132.7566 788.1743,-220.1171 793.0761,-249.0787"/>
<polygon fill="#9a32cd" stroke="#9a32cd" points="536.9166,-78.2891 527.1075,-82.2931 537.2726,-85.28 536.9166,-78.2891"/>
<text text-anchor="middle" x="645" y="-99.5849" font-family="Helvetica,sans-Serif" font-size="10.00" fill="#000000"> Priority</text>
</g>
<!-- Node24&#45;&gt;Node7 -->
<g id="edge24" class="edge">
<title>Node24&#45;&gt;Node7</title>
<path fill="none" stroke="#9a32cd" stroke-dasharray="5,2" d="M532.0268,-366.1695C583.2823,-367.2851 655.8031,-362.995 713,-336.5849 746.7843,-320.9854 775.3137,-285.5757 787.7786,-268.3545"/>
<polygon fill="#9a32cd" stroke="#9a32cd" points="531.8465,-362.6628 521.748,-365.8674 531.6408,-369.6598 531.8465,-362.6628"/>
<text text-anchor="middle" x="645" y="-367.5849" font-family="Helvetica,sans-Serif" font-size="10.00" fill="#000000"> LightState</text>
</g>
</g>
</svg>
