<?xml version="1.0" encoding="UTF-8" standalone="no"?>
<!DOCTYPE svg PUBLIC "-//W3C//DTD SVG 1.1//EN"
 "http://www.w3.org/Graphics/SVG/1.1/DTD/svg11.dtd">
<!-- Generated by graphviz version 2.38.0 (20140413.2041)
 -->
<!-- Title: carla::traffic_manager::TrackTraffic::DeleteActor Pages: 1 -->
<svg width="733pt" height="122pt"
 viewBox="0.00 0.00 733.00 121.50" xmlns="http://www.w3.org/2000/svg" xmlns:xlink="http://www.w3.org/1999/xlink">
<g id="graph0" class="graph" transform="scale(1 1) rotate(0) translate(4 117.5)">
<title>carla::traffic_manager::TrackTraffic::DeleteActor</title>
<polygon fill="white" stroke="none" points="-4,4 -4,-117.5 729,-117.5 729,4 -4,4"/>
<!-- Node1 -->
<g id="node1" class="node"><title>Node1</title>
<polygon fill="#bfbfbf" stroke="black" points="0,-34 0,-64 133,-64 133,-34 0,-34"/>
<text text-anchor="start" x="8" y="-52" font-family="Helvetica,sans-Serif" font-size="10.00">carla::traffic_manager</text>
<text text-anchor="middle" x="66.5" y="-41" font-family="Helvetica,sans-Serif" font-size="10.00">::TrackTraffic::DeleteActor</text>
</g>
<!-- Node2 -->
<g id="node2" class="node"><title>Node2</title>
<g id="a_node2"><a xlink:href="../../d6/da2/classcarla_1_1traffic__manager_1_1LocalizationStage.html#aa0b883f3f547b5e7591d0b3a48cea742" target="_top" xlink:title="carla::traffic_manager\l::LocalizationStage::CleanActor">
<polygon fill="white" stroke="black" points="174.5,-83 174.5,-113 329.5,-113 329.5,-83 174.5,-83"/>
<text text-anchor="start" x="182.5" y="-101" font-family="Helvetica,sans-Serif" font-size="10.00">carla::traffic_manager</text>
<text text-anchor="middle" x="252" y="-90" font-family="Helvetica,sans-Serif" font-size="10.00">::LocalizationStage::CleanActor</text>
</a>
</g>
</g>
<!-- Node1&#45;&gt;Node2 -->
<g id="edge1" class="edge"><title>Node1&#45;&gt;Node2</title>
<path fill="none" stroke="midnightblue" d="M133.496,-66.6229C153.572,-71.9837 175.437,-77.8225 194.803,-82.9938"/>
<polygon fill="midnightblue" stroke="midnightblue" points="134.368,-63.2331 123.803,-64.0346 132.562,-69.9961 134.368,-63.2331"/>
</g>
<!-- Node5 -->
<g id="node5" class="node"><title>Node5</title>
<g id="a_node5"><a xlink:href="../../d6/da2/classcarla_1_1traffic__manager_1_1LocalizationStage.html#ab859b24b7750e3ef5c316957e2a32199" target="_top" xlink:title="Implement this method with the logic to receive data from the previous stage(s) and distribute to Act...">
<polygon fill="white" stroke="black" points="169,-34 169,-64 335,-64 335,-34 169,-34"/>
<text text-anchor="start" x="177" y="-52" font-family="Helvetica,sans-Serif" font-size="10.00">carla::traffic_manager</text>
<text text-anchor="middle" x="252" y="-41" font-family="Helvetica,sans-Serif" font-size="10.00">::LocalizationStage::DataReceiver</text>
</a>
</g>
</g>
<!-- Node1&#45;&gt;Node5 -->
<g id="edge4" class="edge"><title>Node1&#45;&gt;Node5</title>
<path fill="none" stroke="midnightblue" d="M143.348,-49C151.733,-49 160.301,-49 168.76,-49"/>
<polygon fill="midnightblue" stroke="midnightblue" points="143.229,-45.5001 133.229,-49 143.229,-52.5001 143.229,-45.5001"/>
</g>
<!-- Node6 -->
<g id="node6" class="node"><title>Node6</title>
<g id="a_node6"><a xlink:href="../../d6/da2/classcarla_1_1traffic__manager_1_1LocalizationStage.html#a1d47d833e5d7c2fc58ec0da3b83927ac" target="_top" xlink:title="Method to scan for unregistered actors and update their grid positioning. ">
<polygon fill="white" stroke="black" points="371,-0.5 371,-41.5 555,-41.5 555,-0.5 371,-0.5"/>
<text text-anchor="start" x="379" y="-29.5" font-family="Helvetica,sans-Serif" font-size="10.00">carla::traffic_manager</text>
<text text-anchor="start" x="379" y="-18.5" font-family="Helvetica,sans-Serif" font-size="10.00">::LocalizationStage::ScanUnregistered</text>
<text text-anchor="middle" x="463" y="-7.5" font-family="Helvetica,sans-Serif" font-size="10.00">Vehicles</text>
</a>
</g>
</g>
<!-- Node1&#45;&gt;Node6 -->
<g id="edge5" class="edge"><title>Node1&#45;&gt;Node6</title>
<path fill="none" stroke="midnightblue" d="M128.629,-31.5283C141.837,-28.4341 155.8,-25.6702 169,-24 236.249,-15.4905 312.873,-15.0267 370.892,-16.5384"/>
<polygon fill="midnightblue" stroke="midnightblue" points="127.589,-28.1791 118.702,-33.9462 129.246,-34.9803 127.589,-28.1791"/>
</g>
<!-- Node3 -->
<g id="node3" class="node"><title>Node3</title>
<g id="a_node3"><a xlink:href="../../d6/da2/classcarla_1_1traffic__manager_1_1LocalizationStage.html#aa23e11326c0ca8e8fecef1a67cd5901f" target="_top" xlink:title="carla::traffic_manager\l::LocalizationStage::TryDestroy\lVehicle">
<polygon fill="white" stroke="black" points="385.5,-68.5 385.5,-109.5 540.5,-109.5 540.5,-68.5 385.5,-68.5"/>
<text text-anchor="start" x="393.5" y="-97.5" font-family="Helvetica,sans-Serif" font-size="10.00">carla::traffic_manager</text>
<text text-anchor="start" x="393.5" y="-86.5" font-family="Helvetica,sans-Serif" font-size="10.00">::LocalizationStage::TryDestroy</text>
<text text-anchor="middle" x="463" y="-75.5" font-family="Helvetica,sans-Serif" font-size="10.00">Vehicle</text>
</a>
</g>
</g>
<!-- Node2&#45;&gt;Node3 -->
<g id="edge2" class="edge"><title>Node2&#45;&gt;Node3</title>
<path fill="none" stroke="midnightblue" d="M339.972,-94.2548C355.039,-93.606 370.606,-92.9356 385.372,-92.2998"/>
<polygon fill="midnightblue" stroke="midnightblue" points="339.477,-90.7728 329.637,-94.6998 339.778,-97.7663 339.477,-90.7728"/>
</g>
<!-- Node4 -->
<g id="node4" class="node"><title>Node4</title>
<g id="a_node4"><a xlink:href="../../d6/da2/classcarla_1_1traffic__manager_1_1LocalizationStage.html#a5d4109a46221cba4fe8d2f852f277205" target="_top" xlink:title="Implement this method with logic to process data inside the stage. ">
<polygon fill="white" stroke="black" points="591,-40 591,-70 725,-70 725,-40 591,-40"/>
<text text-anchor="start" x="599" y="-58" font-family="Helvetica,sans-Serif" font-size="10.00">carla::traffic_manager</text>
<text text-anchor="middle" x="658" y="-47" font-family="Helvetica,sans-Serif" font-size="10.00">::LocalizationStage::Action</text>
</a>
</g>
</g>
<!-- Node3&#45;&gt;Node4 -->
<g id="edge3" class="edge"><title>Node3&#45;&gt;Node4</title>
<path fill="none" stroke="midnightblue" d="M550.774,-73.7135C564.223,-71.3441 577.927,-68.93 590.826,-66.6576"/>
<polygon fill="midnightblue" stroke="midnightblue" points="549.797,-70.3315 540.556,-75.5135 551.012,-77.2254 549.797,-70.3315"/>
</g>
<!-- Node6&#45;&gt;Node4 -->
<g id="edge6" class="edge"><title>Node6&#45;&gt;Node4</title>
<path fill="none" stroke="midnightblue" d="M564.988,-38.7907C573.714,-40.3279 582.391,-41.8565 590.733,-43.326"/>
<polygon fill="midnightblue" stroke="midnightblue" points="565.586,-35.3422 555.131,-37.0541 564.372,-42.2361 565.586,-35.3422"/>
</g>
</g>
</svg>
