<?xml version="1.0" encoding="UTF-8" standalone="no"?>
<!DOCTYPE svg PUBLIC "-//W3C//DTD SVG 1.1//EN"
 "http://www.w3.org/Graphics/SVG/1.1/DTD/svg11.dtd">
<!-- Generated by graphviz version 2.38.0 (20140413.2041)
 -->
<!-- Title: Array.h Pages: 1 -->
<svg width="1679pt" height="644pt"
 viewBox="0.00 0.00 1679.46 644.00" xmlns="http://www.w3.org/2000/svg" xmlns:xlink="http://www.w3.org/1999/xlink">
<g id="graph0" class="graph" transform="scale(1 1) rotate(0) translate(4 640)">
<title>Array.h</title>
<polygon fill="white" stroke="none" points="-4,4 -4,-640 1675.46,-640 1675.46,4 -4,4"/>
<!-- Node1 -->
<g id="node1" class="node"><title>Node1</title>
<polygon fill="#bfbfbf" stroke="black" points="1412.46,-616.5 1412.46,-635.5 1460.46,-635.5 1460.46,-616.5 1412.46,-616.5"/>
<text text-anchor="middle" x="1436.46" y="-623.5" font-family="Helvetica,sans-Serif" font-size="10.00">Array.h</text>
</g>
<!-- Node2 -->
<g id="node2" class="node"><title>Node2</title>
<g id="a_node2"><a xlink:href="../../dd/d7d/RawEpisodeState_8h.html" target="_top" xlink:title="RawEpisodeState.h">
<polygon fill="white" stroke="black" points="1140.46,-560.5 1140.46,-579.5 1244.46,-579.5 1244.46,-560.5 1140.46,-560.5"/>
<text text-anchor="middle" x="1192.46" y="-567.5" font-family="Helvetica,sans-Serif" font-size="10.00">RawEpisodeState.h</text>
</a>
</g>
</g>
<!-- Node1&#45;&gt;Node2 -->
<g id="edge1" class="edge"><title>Node1&#45;&gt;Node2</title>
<path fill="none" stroke="midnightblue" d="M1402.29,-617.438C1357.22,-607.465 1278.13,-589.96 1230.99,-579.527"/>
<polygon fill="midnightblue" stroke="midnightblue" points="1401.65,-620.881 1412.17,-619.625 1403.16,-614.047 1401.65,-620.881"/>
</g>
<!-- Node41 -->
<g id="node41" class="node"><title>Node41</title>
<g id="a_node41"><a xlink:href="../../d5/dca/ImageTmpl_8h.html" target="_top" xlink:title="ImageTmpl.h">
<polygon fill="white" stroke="black" points="1345.46,-560.5 1345.46,-579.5 1419.46,-579.5 1419.46,-560.5 1345.46,-560.5"/>
<text text-anchor="middle" x="1382.46" y="-567.5" font-family="Helvetica,sans-Serif" font-size="10.00">ImageTmpl.h</text>
</a>
</g>
</g>
<!-- Node1&#45;&gt;Node41 -->
<g id="edge64" class="edge"><title>Node1&#45;&gt;Node41</title>
<path fill="none" stroke="midnightblue" d="M1420.46,-609.002C1410.89,-599.433 1399.1,-587.639 1391.21,-579.751"/>
<polygon fill="midnightblue" stroke="midnightblue" points="1418,-611.487 1427.54,-616.083 1422.95,-606.537 1418,-611.487"/>
</g>
<!-- Node47 -->
<g id="node47" class="node"><title>Node47</title>
<g id="a_node47"><a xlink:href="../../da/d7e/data_2LidarMeasurement_8h.html" target="_top" xlink:title="LidarMeasurement.h">
<polygon fill="white" stroke="black" points="1437.96,-560.5 1437.96,-579.5 1542.96,-579.5 1542.96,-560.5 1437.96,-560.5"/>
<text text-anchor="middle" x="1490.46" y="-567.5" font-family="Helvetica,sans-Serif" font-size="10.00">LidarMeasurement.h</text>
</a>
</g>
</g>
<!-- Node1&#45;&gt;Node47 -->
<g id="edge71" class="edge"><title>Node1&#45;&gt;Node47</title>
<path fill="none" stroke="midnightblue" d="M1452.46,-609.002C1462.03,-599.433 1473.82,-587.639 1481.71,-579.751"/>
<polygon fill="midnightblue" stroke="midnightblue" points="1449.97,-606.537 1445.38,-616.083 1454.92,-611.487 1449.97,-606.537"/>
</g>
<!-- Node49 -->
<g id="node49" class="node"><title>Node49</title>
<g id="a_node49"><a xlink:href="../../d0/dca/RadarMeasurement_8h.html" target="_top" xlink:title="RadarMeasurement.h">
<polygon fill="white" stroke="black" points="1561.46,-560.5 1561.46,-579.5 1671.46,-579.5 1671.46,-560.5 1561.46,-560.5"/>
<text text-anchor="middle" x="1616.46" y="-567.5" font-family="Helvetica,sans-Serif" font-size="10.00">RadarMeasurement.h</text>
</a>
</g>
</g>
<!-- Node1&#45;&gt;Node49 -->
<g id="edge73" class="edge"><title>Node1&#45;&gt;Node49</title>
<path fill="none" stroke="midnightblue" d="M1470.66,-614.739C1504.59,-604.561 1555.99,-589.141 1587.83,-579.59"/>
<polygon fill="midnightblue" stroke="midnightblue" points="1469.31,-611.491 1460.73,-617.717 1471.32,-618.196 1469.31,-611.491"/>
</g>
<!-- Node3 -->
<g id="node3" class="node"><title>Node3</title>
<g id="a_node3"><a xlink:href="../../d7/df2/EpisodeState_8h.html" target="_top" xlink:title="EpisodeState.h">
<polygon fill="white" stroke="black" points="965.959,-504.5 965.959,-523.5 1048.96,-523.5 1048.96,-504.5 965.959,-504.5"/>
<text text-anchor="middle" x="1007.46" y="-511.5" font-family="Helvetica,sans-Serif" font-size="10.00">EpisodeState.h</text>
</a>
</g>
</g>
<!-- Node2&#45;&gt;Node3 -->
<g id="edge2" class="edge"><title>Node2&#45;&gt;Node3</title>
<path fill="none" stroke="midnightblue" d="M1153.29,-557.568C1118.39,-547.381 1068.11,-532.703 1036.64,-523.516"/>
<polygon fill="midnightblue" stroke="midnightblue" points="1152.56,-561.001 1163.15,-560.444 1154.53,-554.282 1152.56,-561.001"/>
</g>
<!-- Node40 -->
<g id="node40" class="node"><title>Node40</title>
<g id="a_node40"><a xlink:href="../../de/d34/EpisodeStateSerializer_8cpp.html" target="_top" xlink:title="EpisodeStateSerializer.cpp">
<polygon fill="white" stroke="black" points="1125.46,-504.5 1125.46,-523.5 1259.46,-523.5 1259.46,-504.5 1125.46,-504.5"/>
<text text-anchor="middle" x="1192.46" y="-511.5" font-family="Helvetica,sans-Serif" font-size="10.00">EpisodeStateSerializer.cpp</text>
</a>
</g>
</g>
<!-- Node2&#45;&gt;Node40 -->
<g id="edge63" class="edge"><title>Node2&#45;&gt;Node40</title>
<path fill="none" stroke="midnightblue" d="M1192.46,-549.805C1192.46,-540.91 1192.46,-530.78 1192.46,-523.751"/>
<polygon fill="midnightblue" stroke="midnightblue" points="1188.96,-550.083 1192.46,-560.083 1195.96,-550.083 1188.96,-550.083"/>
</g>
<!-- Node4 -->
<g id="node4" class="node"><title>Node4</title>
<g id="a_node4"><a xlink:href="../../df/d11/WorldSnapshot_8h.html" target="_top" xlink:title="WorldSnapshot.h">
<polygon fill="white" stroke="black" points="1055.46,-448.5 1055.46,-467.5 1147.46,-467.5 1147.46,-448.5 1055.46,-448.5"/>
<text text-anchor="middle" x="1101.46" y="-455.5" font-family="Helvetica,sans-Serif" font-size="10.00">WorldSnapshot.h</text>
</a>
</g>
</g>
<!-- Node3&#45;&gt;Node4 -->
<g id="edge3" class="edge"><title>Node3&#45;&gt;Node4</title>
<path fill="none" stroke="midnightblue" d="M1031.52,-499.177C1048.82,-489.241 1071.61,-476.149 1086.39,-467.655"/>
<polygon fill="midnightblue" stroke="midnightblue" points="1029.49,-496.308 1022.56,-504.324 1032.98,-502.378 1029.49,-496.308"/>
</g>
<!-- Node31 -->
<g id="node31" class="node"><title>Node31</title>
<g id="a_node31"><a xlink:href="../../d9/d9e/Episode_8h.html" target="_top" xlink:title="Episode.h">
<polygon fill="white" stroke="black" points="944.459,-336.5 944.459,-355.5 1004.46,-355.5 1004.46,-336.5 944.459,-336.5"/>
<text text-anchor="middle" x="974.459" y="-343.5" font-family="Helvetica,sans-Serif" font-size="10.00">Episode.h</text>
</a>
</g>
</g>
<!-- Node3&#45;&gt;Node31 -->
<g id="edge49" class="edge"><title>Node3&#45;&gt;Node31</title>
<path fill="none" stroke="midnightblue" d="M1003.67,-493.93C996.509,-457.92 981.264,-381.231 976.162,-355.568"/>
<polygon fill="midnightblue" stroke="midnightblue" points="1000.3,-494.95 1005.68,-504.075 1007.17,-493.585 1000.3,-494.95"/>
</g>
<!-- Node33 -->
<g id="node33" class="node"><title>Node33</title>
<g id="a_node33"><a xlink:href="../../de/d84/WalkerNavigation_8cpp.html" target="_top" xlink:title="WalkerNavigation.cpp">
<polygon fill="white" stroke="black" points="917.959,-280.5 917.959,-299.5 1030.96,-299.5 1030.96,-280.5 917.959,-280.5"/>
<text text-anchor="middle" x="974.459" y="-287.5" font-family="Helvetica,sans-Serif" font-size="10.00">WalkerNavigation.cpp</text>
</a>
</g>
</g>
<!-- Node3&#45;&gt;Node33 -->
<g id="edge62" class="edge"><title>Node3&#45;&gt;Node33</title>
<path fill="none" stroke="midnightblue" d="M1012.58,-494.462C1020.74,-461.401 1033.83,-390.611 1013.46,-336 1007.89,-321.083 994.911,-307.829 985.449,-299.635"/>
<polygon fill="midnightblue" stroke="midnightblue" points="1009.19,-493.59 1010.05,-504.15 1015.96,-495.356 1009.19,-493.59"/>
</g>
<!-- Node34 -->
<g id="node34" class="node"><title>Node34</title>
<g id="a_node34"><a xlink:href="../../d0/d36/Navigation_8h.html" target="_top" xlink:title="Navigation.h">
<polygon fill="white" stroke="black" points="731.959,-448.5 731.959,-467.5 802.959,-467.5 802.959,-448.5 731.959,-448.5"/>
<text text-anchor="middle" x="767.459" y="-455.5" font-family="Helvetica,sans-Serif" font-size="10.00">Navigation.h</text>
</a>
</g>
</g>
<!-- Node3&#45;&gt;Node34 -->
<g id="edge50" class="edge"><title>Node3&#45;&gt;Node34</title>
<path fill="none" stroke="midnightblue" d="M959.645,-502.242C913.433,-491.844 844.492,-476.332 802.962,-466.988"/>
<polygon fill="midnightblue" stroke="midnightblue" points="958.906,-505.663 969.43,-504.444 960.442,-498.834 958.906,-505.663"/>
</g>
<!-- Node39 -->
<g id="node39" class="node"><title>Node39</title>
<g id="a_node39"><a xlink:href="../../d9/df5/EpisodeState_8cpp.html" target="_top" xlink:title="EpisodeState.cpp">
<polygon fill="white" stroke="black" points="866.459,-448.5 866.459,-467.5 960.459,-467.5 960.459,-448.5 866.459,-448.5"/>
<text text-anchor="middle" x="913.459" y="-455.5" font-family="Helvetica,sans-Serif" font-size="10.00">EpisodeState.cpp</text>
</a>
</g>
</g>
<!-- Node3&#45;&gt;Node39 -->
<g id="edge61" class="edge"><title>Node3&#45;&gt;Node39</title>
<path fill="none" stroke="midnightblue" d="M983.397,-499.177C966.1,-489.241 943.311,-476.149 928.524,-467.655"/>
<polygon fill="midnightblue" stroke="midnightblue" points="981.942,-502.378 992.356,-504.324 985.429,-496.308 981.942,-502.378"/>
</g>
<!-- Node5 -->
<g id="node5" class="node"><title>Node5</title>
<g id="a_node5"><a xlink:href="../../dd/d5b/World_8h.html" target="_top" xlink:title="World.h">
<polygon fill="white" stroke="black" points="1249.46,-392.5 1249.46,-411.5 1299.46,-411.5 1299.46,-392.5 1249.46,-392.5"/>
<text text-anchor="middle" x="1274.46" y="-399.5" font-family="Helvetica,sans-Serif" font-size="10.00">World.h</text>
</a>
</g>
</g>
<!-- Node4&#45;&gt;Node5 -->
<g id="edge4" class="edge"><title>Node4&#45;&gt;Node5</title>
<path fill="none" stroke="midnightblue" d="M1138.74,-445.362C1172.2,-434.919 1220.37,-419.882 1249.42,-410.815"/>
<polygon fill="midnightblue" stroke="midnightblue" points="1137.37,-442.123 1128.87,-448.444 1139.46,-448.805 1137.37,-442.123"/>
</g>
<!-- Node9 -->
<g id="node9" class="node"><title>Node9</title>
<g id="a_node9"><a xlink:href="../../d6/d4a/Simulator_8h.html" target="_top" xlink:title="Simulator.h">
<polygon fill="white" stroke="black" points="779.459,-224.5 779.459,-243.5 845.459,-243.5 845.459,-224.5 779.459,-224.5"/>
<text text-anchor="middle" x="812.459" y="-231.5" font-family="Helvetica,sans-Serif" font-size="10.00">Simulator.h</text>
</a>
</g>
</g>
<!-- Node4&#45;&gt;Node9 -->
<g id="edge44" class="edge"><title>Node4&#45;&gt;Node9</title>
<path fill="none" stroke="midnightblue" d="M1102.72,-438.28C1104.06,-402.006 1101.38,-322.024 1056.46,-280 1026.42,-251.896 905.38,-240.679 845.852,-236.795"/>
<polygon fill="midnightblue" stroke="midnightblue" points="1099.22,-438.25 1102.2,-448.418 1106.21,-438.613 1099.22,-438.25"/>
</g>
<!-- Node4&#45;&gt;Node31 -->
<g id="edge45" class="edge"><title>Node4&#45;&gt;Node31</title>
<path fill="none" stroke="midnightblue" d="M1083.93,-441.816C1056.88,-418.387 1005.85,-374.19 984.378,-355.591"/>
<polygon fill="midnightblue" stroke="midnightblue" points="1081.64,-444.467 1091.49,-448.368 1086.23,-439.176 1081.64,-444.467"/>
</g>
<!-- Node6 -->
<g id="node6" class="node"><title>Node6</title>
<g id="a_node6"><a xlink:href="../../d2/d02/ActorState_8h.html" target="_top" xlink:title="ActorState.h">
<polygon fill="white" stroke="black" points="1270.96,-336.5 1270.96,-355.5 1341.96,-355.5 1341.96,-336.5 1270.96,-336.5"/>
<text text-anchor="middle" x="1306.46" y="-343.5" font-family="Helvetica,sans-Serif" font-size="10.00">ActorState.h</text>
</a>
</g>
</g>
<!-- Node5&#45;&gt;Node6 -->
<g id="edge5" class="edge"><title>Node5&#45;&gt;Node6</title>
<path fill="none" stroke="midnightblue" d="M1284.96,-383.275C1290.43,-374.045 1296.88,-363.17 1301.27,-355.751"/>
<polygon fill="midnightblue" stroke="midnightblue" points="1281.83,-381.696 1279.74,-392.083 1287.85,-385.264 1281.83,-381.696"/>
</g>
<!-- Node10 -->
<g id="node10" class="node"><title>Node10</title>
<g id="a_node10"><a xlink:href="../../dd/de3/client_2Client_8h.html" target="_top" xlink:title="Client.h">
<polygon fill="white" stroke="black" points="1408.46,-168.5 1408.46,-187.5 1458.46,-187.5 1458.46,-168.5 1408.46,-168.5"/>
<text text-anchor="middle" x="1433.46" y="-175.5" font-family="Helvetica,sans-Serif" font-size="10.00">Client.h</text>
</a>
</g>
</g>
<!-- Node5&#45;&gt;Node10 -->
<g id="edge35" class="edge"><title>Node5&#45;&gt;Node10</title>
<path fill="none" stroke="midnightblue" d="M1309.09,-389.359C1345.98,-374.879 1402.44,-346.259 1427.46,-300 1447.77,-262.444 1439.64,-208.365 1435.41,-187.582"/>
<polygon fill="midnightblue" stroke="midnightblue" points="1307.82,-386.096 1299.7,-392.905 1310.29,-392.645 1307.82,-386.096"/>
</g>
<!-- Node12 -->
<g id="node12" class="node"><title>Node12</title>
<g id="a_node12"><a xlink:href="../../da/dfd/TrafficManager_8h.html" target="_top" xlink:title="TrafficManager.h">
<polygon fill="white" stroke="red" points="1376.46,-56.5 1376.46,-75.5 1466.46,-75.5 1466.46,-56.5 1376.46,-56.5"/>
<text text-anchor="middle" x="1421.46" y="-63.5" font-family="Helvetica,sans-Serif" font-size="10.00">TrafficManager.h</text>
</a>
</g>
</g>
<!-- Node5&#45;&gt;Node12 -->
<g id="edge37" class="edge"><title>Node5&#45;&gt;Node12</title>
<path fill="none" stroke="midnightblue" d="M1309.53,-392.055C1475.34,-360.738 1661.46,-450.997 1661.46,-291 1661.46,-291 1661.46,-291 1661.46,-177 1661.46,-146.775 1663.84,-132.314 1641.46,-112 1616.27,-89.139 1523.2,-76.5355 1466.5,-70.8276"/>
<polygon fill="midnightblue" stroke="midnightblue" points="1308.75,-388.643 1299.65,-394.074 1310.15,-395.501 1308.75,-388.643"/>
</g>
<!-- Node22 -->
<g id="node22" class="node"><title>Node22</title>
<g id="a_node22"><a xlink:href="../../d7/dfe/World_8cpp.html" target="_top" xlink:title="World.cpp">
<polygon fill="white" stroke="black" points="1213.96,-168.5 1213.96,-187.5 1274.96,-187.5 1274.96,-168.5 1213.96,-168.5"/>
<text text-anchor="middle" x="1244.46" y="-175.5" font-family="Helvetica,sans-Serif" font-size="10.00">World.cpp</text>
</a>
</g>
</g>
<!-- Node5&#45;&gt;Node22 -->
<g id="edge43" class="edge"><title>Node5&#45;&gt;Node22</title>
<path fill="none" stroke="midnightblue" d="M1262.69,-383.766C1244.44,-355.885 1210.1,-298.495 1197.46,-244 1195.45,-235.341 1193.97,-232.175 1197.46,-224 1204.11,-208.416 1219.11,-195.645 1230.38,-187.741"/>
<polygon fill="midnightblue" stroke="midnightblue" points="1259.95,-385.967 1268.41,-392.344 1265.77,-382.083 1259.95,-385.967"/>
</g>
<!-- Node25 -->
<g id="node25" class="node"><title>Node25</title>
<g id="a_node25"><a xlink:href="../../df/dd6/ActorFactory_8cpp.html" target="_top" xlink:title="ActorFactory.cpp">
<polygon fill="white" stroke="black" points="1476.46,-168.5 1476.46,-187.5 1568.46,-187.5 1568.46,-168.5 1476.46,-168.5"/>
<text text-anchor="middle" x="1522.46" y="-175.5" font-family="Helvetica,sans-Serif" font-size="10.00">ActorFactory.cpp</text>
</a>
</g>
</g>
<!-- Node5&#45;&gt;Node25 -->
<g id="edge36" class="edge"><title>Node5&#45;&gt;Node25</title>
<path fill="none" stroke="midnightblue" d="M1309.5,-390.987C1341.64,-381.376 1386.46,-366.771 1401.46,-356 1466.47,-309.325 1507.63,-216.205 1519.14,-187.574"/>
<polygon fill="midnightblue" stroke="midnightblue" points="1308.16,-387.732 1299.56,-393.921 1310.14,-394.446 1308.16,-387.732"/>
</g>
<!-- Node27 -->
<g id="node27" class="node"><title>Node27</title>
<g id="a_node27"><a xlink:href="../../d2/d84/LocalizationUtils_8h.html" target="_top" xlink:title="LocalizationUtils.h">
<polygon fill="white" stroke="red" points="1206.96,-224.5 1206.96,-243.5 1303.96,-243.5 1303.96,-224.5 1206.96,-224.5"/>
<text text-anchor="middle" x="1255.46" y="-231.5" font-family="Helvetica,sans-Serif" font-size="10.00">LocalizationUtils.h</text>
</a>
</g>
</g>
<!-- Node5&#45;&gt;Node27 -->
<g id="edge40" class="edge"><title>Node5&#45;&gt;Node27</title>
<path fill="none" stroke="midnightblue" d="M1268.12,-382.667C1265.6,-374.589 1262.95,-364.923 1261.46,-356 1254.5,-314.301 1254.77,-263.49 1255.21,-243.581"/>
<polygon fill="midnightblue" stroke="midnightblue" points="1264.8,-383.772 1271.25,-392.176 1271.45,-381.583 1264.8,-383.772"/>
</g>
<!-- Node29 -->
<g id="node29" class="node"><title>Node29</title>
<g id="a_node29"><a xlink:href="../../da/d67/CollisionStage_8h.html" target="_top" xlink:title="CollisionStage.h">
<polygon fill="white" stroke="red" points="1203.46,-112.5 1203.46,-131.5 1291.46,-131.5 1291.46,-112.5 1203.46,-112.5"/>
<text text-anchor="middle" x="1247.46" y="-119.5" font-family="Helvetica,sans-Serif" font-size="10.00">CollisionStage.h</text>
</a>
</g>
</g>
<!-- Node5&#45;&gt;Node29 -->
<g id="edge38" class="edge"><title>Node5&#45;&gt;Node29</title>
<path fill="none" stroke="midnightblue" d="M1257.08,-385.408C1248.63,-377.222 1238.75,-366.688 1231.46,-356 1201.67,-312.336 1197.92,-296.461 1191.46,-244 1187.27,-209.988 1188.17,-198.149 1204.46,-168 1212.37,-153.36 1226.32,-140.049 1236.19,-131.766"/>
<polygon fill="midnightblue" stroke="midnightblue" points="1254.92,-388.183 1264.61,-392.466 1259.7,-383.074 1254.92,-388.183"/>
</g>
<!-- Node30 -->
<g id="node30" class="node"><title>Node30</title>
<g id="a_node30"><a xlink:href="../../d4/d12/TrafficLightStage_8h.html" target="_top" xlink:title="TrafficLightStage.h">
<polygon fill="white" stroke="red" points="1533.96,-112.5 1533.96,-131.5 1632.96,-131.5 1632.96,-112.5 1533.96,-112.5"/>
<text text-anchor="middle" x="1583.46" y="-119.5" font-family="Helvetica,sans-Serif" font-size="10.00">TrafficLightStage.h</text>
</a>
</g>
</g>
<!-- Node5&#45;&gt;Node30 -->
<g id="edge41" class="edge"><title>Node5&#45;&gt;Node30</title>
<path fill="none" stroke="midnightblue" d="M1309.51,-391.564C1340.68,-382.964 1387.41,-369.568 1427.46,-356 1503.68,-330.181 1596.46,-371.475 1596.46,-291 1596.46,-291 1596.46,-291 1596.46,-233 1596.46,-194.924 1588.68,-149.944 1585.16,-131.517"/>
<polygon fill="midnightblue" stroke="midnightblue" points="1308.28,-388.27 1299.56,-394.29 1310.13,-395.021 1308.28,-388.27"/>
</g>
<!-- Node7 -->
<g id="node7" class="node"><title>Node7</title>
<g id="a_node7"><a xlink:href="../../da/d48/client_2Actor_8h.html" target="_top" xlink:title="Actor.h">
<polygon fill="white" stroke="red" points="1270.46,-280.5 1270.46,-299.5 1318.46,-299.5 1318.46,-280.5 1270.46,-280.5"/>
<text text-anchor="middle" x="1294.46" y="-287.5" font-family="Helvetica,sans-Serif" font-size="10.00">Actor.h</text>
</a>
</g>
</g>
<!-- Node6&#45;&gt;Node7 -->
<g id="edge6" class="edge"><title>Node6&#45;&gt;Node7</title>
<path fill="none" stroke="midnightblue" d="M1302.26,-326.101C1300.27,-317.136 1297.98,-306.858 1296.4,-299.751"/>
<polygon fill="midnightblue" stroke="midnightblue" points="1298.89,-327.08 1304.48,-336.083 1305.72,-325.562 1298.89,-327.08"/>
</g>
<!-- Node28 -->
<g id="node28" class="node"><title>Node28</title>
<g id="a_node28"><a xlink:href="../../d6/de7/ActorState_8cpp.html" target="_top" xlink:title="ActorState.cpp">
<polygon fill="white" stroke="black" points="1336.46,-280.5 1336.46,-299.5 1418.46,-299.5 1418.46,-280.5 1336.46,-280.5"/>
<text text-anchor="middle" x="1377.46" y="-287.5" font-family="Helvetica,sans-Serif" font-size="10.00">ActorState.cpp</text>
</a>
</g>
</g>
<!-- Node6&#45;&gt;Node28 -->
<g id="edge34" class="edge"><title>Node6&#45;&gt;Node28</title>
<path fill="none" stroke="midnightblue" d="M1326.05,-330.101C1338.83,-320.382 1355.07,-308.027 1365.84,-299.834"/>
<polygon fill="midnightblue" stroke="midnightblue" points="1323.71,-327.484 1317.87,-336.324 1327.94,-333.056 1323.71,-327.484"/>
</g>
<!-- Node8 -->
<g id="node8" class="node"><title>Node8</title>
<g id="a_node8"><a xlink:href="../../d4/d34/Actor_8cpp.html" target="_top" xlink:title="Actor.cpp">
<polygon fill="white" stroke="black" points="1292.96,-168.5 1292.96,-187.5 1351.96,-187.5 1351.96,-168.5 1292.96,-168.5"/>
<text text-anchor="middle" x="1322.46" y="-175.5" font-family="Helvetica,sans-Serif" font-size="10.00">Actor.cpp</text>
</a>
</g>
</g>
<!-- Node7&#45;&gt;Node8 -->
<g id="edge7" class="edge"><title>Node7&#45;&gt;Node8</title>
<path fill="none" stroke="midnightblue" d="M1318.83,-274.726C1329.41,-267.089 1340.68,-256.64 1346.46,-244 1355.46,-224.307 1339.94,-200.172 1329.93,-187.578"/>
<polygon fill="midnightblue" stroke="midnightblue" points="1316.61,-271.999 1310.24,-280.467 1320.5,-277.818 1316.61,-271.999"/>
</g>
<!-- Node7&#45;&gt;Node9 -->
<g id="edge8" class="edge"><title>Node7&#45;&gt;Node9</title>
<path fill="none" stroke="midnightblue" d="M1260.12,-285.153C1171.06,-275.175 933.463,-248.557 845.668,-238.721"/>
<polygon fill="midnightblue" stroke="midnightblue" points="1259.9,-288.65 1270.23,-286.285 1260.68,-281.693 1259.9,-288.65"/>
</g>
<!-- Node7&#45;&gt;Node12 -->
<g id="edge31" class="edge"><title>Node7&#45;&gt;Node12</title>
<path fill="none" stroke="midnightblue" d="M1323.64,-275.757C1337.24,-268.228 1352.57,-257.572 1362.46,-244 1398.34,-194.759 1377.77,-168.936 1399.46,-112 1404.41,-98.9978 1411.77,-84.6702 1416.59,-75.753"/>
<polygon fill="midnightblue" stroke="midnightblue" points="1321.85,-272.746 1314.59,-280.467 1325.08,-278.956 1321.85,-272.746"/>
</g>
<!-- Node7&#45;&gt;Node22 -->
<g id="edge33" class="edge"><title>Node7&#45;&gt;Node22</title>
<path fill="none" stroke="midnightblue" d="M1306.23,-271.328C1313.67,-257.782 1320.49,-238.94 1312.46,-224 1303.08,-206.542 1283.62,-194.72 1267.91,-187.592"/>
<polygon fill="midnightblue" stroke="midnightblue" points="1303.09,-269.756 1300.91,-280.124 1309.08,-273.378 1303.09,-269.756"/>
</g>
<!-- Node7&#45;&gt;Node25 -->
<g id="edge26" class="edge"><title>Node7&#45;&gt;Node25</title>
<path fill="none" stroke="midnightblue" d="M1328.62,-279.424C1354.93,-271.475 1391.86,-259.055 1422.46,-244 1456.65,-227.181 1493.35,-200.96 1511.29,-187.541"/>
<polygon fill="midnightblue" stroke="midnightblue" points="1327.34,-276.154 1318.74,-282.349 1329.32,-282.866 1327.34,-276.154"/>
</g>
<!-- Node26 -->
<g id="node26" class="node"><title>Node26</title>
<g id="a_node26"><a xlink:href="../../de/d54/LibCarla_2source_2carla_2client_2WalkerAIController_8h.html" target="_top" xlink:title="WalkerAIController.h">
<polygon fill="white" stroke="black" points="1004.96,-224.5 1004.96,-243.5 1111.96,-243.5 1111.96,-224.5 1004.96,-224.5"/>
<text text-anchor="middle" x="1058.46" y="-231.5" font-family="Helvetica,sans-Serif" font-size="10.00">WalkerAIController.h</text>
</a>
</g>
</g>
<!-- Node7&#45;&gt;Node26 -->
<g id="edge27" class="edge"><title>Node7&#45;&gt;Node26</title>
<path fill="none" stroke="midnightblue" d="M1260.21,-281.164C1216.46,-271.153 1141.01,-253.889 1095.82,-243.548"/>
<polygon fill="midnightblue" stroke="midnightblue" points="1259.56,-284.606 1270.09,-283.424 1261.12,-277.782 1259.56,-284.606"/>
</g>
<!-- Node7&#45;&gt;Node27 -->
<g id="edge32" class="edge"><title>Node7&#45;&gt;Node27</title>
<path fill="none" stroke="midnightblue" d="M1282.08,-271.855C1275.32,-262.505 1267.25,-251.327 1261.78,-243.751"/>
<polygon fill="midnightblue" stroke="midnightblue" points="1279.33,-274.025 1288.02,-280.083 1285,-269.927 1279.33,-274.025"/>
</g>
<!-- Node9&#45;&gt;Node8 -->
<g id="edge9" class="edge"><title>Node9&#45;&gt;Node8</title>
<path fill="none" stroke="midnightblue" d="M855.568,-230.783C938.743,-226.087 1126.98,-213.418 1283.46,-188 1286.48,-187.51 1289.61,-186.922 1292.73,-186.285"/>
<polygon fill="midnightblue" stroke="midnightblue" points="855.274,-227.294 845.483,-231.343 855.662,-234.283 855.274,-227.294"/>
</g>
<!-- Node9&#45;&gt;Node10 -->
<g id="edge10" class="edge"><title>Node9&#45;&gt;Node10</title>
<path fill="none" stroke="midnightblue" d="M855.661,-230.054C948.279,-223.605 1172.79,-207.266 1360.46,-188 1376.34,-186.37 1394.11,-184.186 1408.15,-182.378"/>
<polygon fill="midnightblue" stroke="midnightblue" points="855.284,-226.571 845.55,-230.755 855.768,-233.554 855.284,-226.571"/>
</g>
<!-- Node13 -->
<g id="node13" class="node"><title>Node13</title>
<g id="a_node13"><a xlink:href="../../d0/d27/Vehicle_8cpp.html" target="_top" xlink:title="Vehicle.cpp">
<polygon fill="white" stroke="black" points="672.459,-0.5 672.459,-19.5 740.459,-19.5 740.459,-0.5 672.459,-0.5"/>
<text text-anchor="middle" x="706.459" y="-7.5" font-family="Helvetica,sans-Serif" font-size="10.00">Vehicle.cpp</text>
</a>
</g>
</g>
<!-- Node9&#45;&gt;Node13 -->
<g id="edge20" class="edge"><title>Node9&#45;&gt;Node13</title>
<path fill="none" stroke="midnightblue" d="M769.105,-232.198C605.939,-228.973 36.7087,-215.764 10.4589,-188 -85.5301,-86.4741 520.025,-27.0508 672.311,-13.8269"/>
<polygon fill="midnightblue" stroke="midnightblue" points="769.189,-235.701 779.255,-232.396 769.326,-228.702 769.189,-235.701"/>
</g>
<!-- Node14 -->
<g id="node14" class="node"><title>Node14</title>
<g id="a_node14"><a xlink:href="../../d2/d01/DebugHelper_8cpp.html" target="_top" xlink:title="DebugHelper.cpp">
<polygon fill="white" stroke="black" points="577.459,-168.5 577.459,-187.5 669.459,-187.5 669.459,-168.5 577.459,-168.5"/>
<text text-anchor="middle" x="623.459" y="-175.5" font-family="Helvetica,sans-Serif" font-size="10.00">DebugHelper.cpp</text>
</a>
</g>
</g>
<!-- Node9&#45;&gt;Node14 -->
<g id="edge14" class="edge"><title>Node9&#45;&gt;Node14</title>
<path fill="none" stroke="midnightblue" d="M772.446,-221.568C736.792,-211.381 685.421,-196.703 653.266,-187.516"/>
<polygon fill="midnightblue" stroke="midnightblue" points="771.934,-225.062 782.511,-224.444 773.858,-218.331 771.934,-225.062"/>
</g>
<!-- Node15 -->
<g id="node15" class="node"><title>Node15</title>
<g id="a_node15"><a xlink:href="../../d2/d6b/EpisodeProxy_8cpp.html" target="_top" xlink:title="EpisodeProxy.cpp">
<polygon fill="white" stroke="black" points="687.459,-168.5 687.459,-187.5 783.459,-187.5 783.459,-168.5 687.459,-168.5"/>
<text text-anchor="middle" x="735.459" y="-175.5" font-family="Helvetica,sans-Serif" font-size="10.00">EpisodeProxy.cpp</text>
</a>
</g>
</g>
<!-- Node9&#45;&gt;Node15 -->
<g id="edge15" class="edge"><title>Node9&#45;&gt;Node15</title>
<path fill="none" stroke="midnightblue" d="M791.558,-218.342C777.548,-208.517 759.576,-195.913 747.8,-187.655"/>
<polygon fill="midnightblue" stroke="midnightblue" points="789.891,-221.448 800.087,-224.324 793.91,-215.717 789.891,-221.448"/>
</g>
<!-- Node16 -->
<g id="node16" class="node"><title>Node16</title>
<g id="a_node16"><a xlink:href="../../d2/d0c/Simulator_8cpp.html" target="_top" xlink:title="Simulator.cpp">
<polygon fill="white" stroke="black" points="943.959,-168.5 943.959,-187.5 1020.96,-187.5 1020.96,-168.5 943.959,-168.5"/>
<text text-anchor="middle" x="982.459" y="-175.5" font-family="Helvetica,sans-Serif" font-size="10.00">Simulator.cpp</text>
</a>
</g>
</g>
<!-- Node9&#45;&gt;Node16 -->
<g id="edge16" class="edge"><title>Node9&#45;&gt;Node16</title>
<path fill="none" stroke="midnightblue" d="M849.278,-221.304C881.311,-211.129 926.974,-196.625 955.648,-187.516"/>
<polygon fill="midnightblue" stroke="midnightblue" points="847.867,-218.08 839.396,-224.444 849.986,-224.752 847.867,-218.08"/>
</g>
<!-- Node17 -->
<g id="node17" class="node"><title>Node17</title>
<g id="a_node17"><a xlink:href="../../dd/dbc/LibCarla_2source_2carla_2client_2LaneInvasionSensor_8cpp.html" target="_top" xlink:title="LaneInvasionSensor.cpp">
<polygon fill="white" stroke="black" points="801.459,-168.5 801.459,-187.5 925.459,-187.5 925.459,-168.5 801.459,-168.5"/>
<text text-anchor="middle" x="863.459" y="-175.5" font-family="Helvetica,sans-Serif" font-size="10.00">LaneInvasionSensor.cpp</text>
</a>
</g>
</g>
<!-- Node9&#45;&gt;Node17 -->
<g id="edge17" class="edge"><title>Node9&#45;&gt;Node17</title>
<path fill="none" stroke="midnightblue" d="M827.837,-216.718C836.826,-207.2 847.818,-195.561 855.194,-187.751"/>
<polygon fill="midnightblue" stroke="midnightblue" points="825.202,-214.41 820.88,-224.083 830.291,-219.216 825.202,-214.41"/>
</g>
<!-- Node18 -->
<g id="node18" class="node"><title>Node18</title>
<g id="a_node18"><a xlink:href="../../d1/da0/ServerSideSensor_8cpp.html" target="_top" xlink:title="ServerSideSensor.cpp">
<polygon fill="white" stroke="black" points="19.4589,-168.5 19.4589,-187.5 133.459,-187.5 133.459,-168.5 19.4589,-168.5"/>
<text text-anchor="middle" x="76.4589" y="-175.5" font-family="Helvetica,sans-Serif" font-size="10.00">ServerSideSensor.cpp</text>
</a>
</g>
</g>
<!-- Node9&#45;&gt;Node18 -->
<g id="edge18" class="edge"><title>Node9&#45;&gt;Node18</title>
<path fill="none" stroke="midnightblue" d="M769.221,-231.124C662.569,-226.272 378.456,-211.988 142.459,-188 139.583,-187.708 136.639,-187.387 133.668,-187.045"/>
<polygon fill="midnightblue" stroke="midnightblue" points="769.13,-234.623 779.277,-231.577 769.445,-227.63 769.13,-234.623"/>
</g>
<!-- Node19 -->
<g id="node19" class="node"><title>Node19</title>
<g id="a_node19"><a xlink:href="../../dd/d90/TrafficLight_8cpp.html" target="_top" xlink:title="TrafficLight.cpp">
<polygon fill="white" stroke="black" points="151.459,-168.5 151.459,-187.5 235.459,-187.5 235.459,-168.5 151.459,-168.5"/>
<text text-anchor="middle" x="193.459" y="-175.5" font-family="Helvetica,sans-Serif" font-size="10.00">TrafficLight.cpp</text>
</a>
</g>
</g>
<!-- Node9&#45;&gt;Node19 -->
<g id="edge19" class="edge"><title>Node9&#45;&gt;Node19</title>
<path fill="none" stroke="midnightblue" d="M769.273,-230.991C674.158,-226.256 439.529,-212.881 244.459,-188 241.605,-187.636 238.668,-187.222 235.712,-186.777"/>
<polygon fill="midnightblue" stroke="midnightblue" points="769.212,-234.492 779.372,-231.487 769.556,-227.5 769.212,-234.492"/>
</g>
<!-- Node20 -->
<g id="node20" class="node"><title>Node20</title>
<g id="a_node20"><a xlink:href="../../d6/db6/Walker_8cpp.html" target="_top" xlink:title="Walker.cpp">
<polygon fill="white" stroke="black" points="253.459,-168.5 253.459,-187.5 319.459,-187.5 319.459,-168.5 253.459,-168.5"/>
<text text-anchor="middle" x="286.459" y="-175.5" font-family="Helvetica,sans-Serif" font-size="10.00">Walker.cpp</text>
</a>
</g>
</g>
<!-- Node9&#45;&gt;Node20 -->
<g id="edge21" class="edge"><title>Node9&#45;&gt;Node20</title>
<path fill="none" stroke="midnightblue" d="M769.404,-230.713C684.621,-225.83 490.217,-212.762 328.459,-188 325.658,-187.571 322.763,-187.071 319.864,-186.531"/>
<polygon fill="midnightblue" stroke="midnightblue" points="769.249,-234.209 779.431,-231.281 769.645,-227.221 769.249,-234.209"/>
</g>
<!-- Node21 -->
<g id="node21" class="node"><title>Node21</title>
<g id="a_node21"><a xlink:href="../../de/d69/WalkerAIController_8cpp.html" target="_top" xlink:title="WalkerAIController.cpp">
<polygon fill="white" stroke="black" points="1039.46,-168.5 1039.46,-187.5 1157.46,-187.5 1157.46,-168.5 1039.46,-168.5"/>
<text text-anchor="middle" x="1098.46" y="-175.5" font-family="Helvetica,sans-Serif" font-size="10.00">WalkerAIController.cpp</text>
</a>
</g>
</g>
<!-- Node9&#45;&gt;Node21 -->
<g id="edge22" class="edge"><title>Node9&#45;&gt;Node21</title>
<path fill="none" stroke="midnightblue" d="M855.673,-224.841C908.863,-214.798 998.78,-197.821 1052.99,-187.586"/>
<polygon fill="midnightblue" stroke="midnightblue" points="854.723,-221.458 845.546,-226.753 856.022,-228.337 854.723,-221.458"/>
</g>
<!-- Node9&#45;&gt;Node22 -->
<g id="edge23" class="edge"><title>Node9&#45;&gt;Node22</title>
<path fill="none" stroke="midnightblue" d="M855.733,-227.591C943.012,-216.681 1138.25,-192.277 1213.79,-182.834"/>
<polygon fill="midnightblue" stroke="midnightblue" points="855.128,-224.139 845.64,-228.852 855.997,-231.085 855.128,-224.139"/>
</g>
<!-- Node23 -->
<g id="node23" class="node"><title>Node23</title>
<g id="a_node23"><a xlink:href="../../d8/d77/LibCarla_2source_2carla_2rss_2RssSensor_8cpp.html" target="_top" xlink:title="RssSensor.cpp">
<polygon fill="white" stroke="black" points="337.459,-168.5 337.459,-187.5 421.459,-187.5 421.459,-168.5 337.459,-168.5"/>
<text text-anchor="middle" x="379.459" y="-175.5" font-family="Helvetica,sans-Serif" font-size="10.00">RssSensor.cpp</text>
</a>
</g>
</g>
<!-- Node9&#45;&gt;Node23 -->
<g id="edge24" class="edge"><title>Node9&#45;&gt;Node23</title>
<path fill="none" stroke="midnightblue" d="M769.089,-228.71C698.126,-221.508 552.843,-205.992 430.459,-188 427.612,-187.582 424.681,-187.127 421.729,-186.652"/>
<polygon fill="midnightblue" stroke="midnightblue" points="769.116,-232.231 779.417,-229.753 769.819,-225.266 769.116,-232.231"/>
</g>
<!-- Node24 -->
<g id="node24" class="node"><title>Node24</title>
<g id="a_node24"><a xlink:href="../../d6/d75/LaneInvasionEvent_8cpp.html" target="_top" xlink:title="LaneInvasionEvent.cpp">
<polygon fill="white" stroke="black" points="439.959,-168.5 439.959,-187.5 558.959,-187.5 558.959,-168.5 439.959,-168.5"/>
<text text-anchor="middle" x="499.459" y="-175.5" font-family="Helvetica,sans-Serif" font-size="10.00">LaneInvasionEvent.cpp</text>
</a>
</g>
</g>
<!-- Node9&#45;&gt;Node24 -->
<g id="edge25" class="edge"><title>Node9&#45;&gt;Node24</title>
<path fill="none" stroke="midnightblue" d="M769.372,-225.566C711.714,-215.619 609.698,-198.019 548.953,-187.539"/>
<polygon fill="midnightblue" stroke="midnightblue" points="768.809,-229.021 779.259,-227.272 769.999,-222.123 768.809,-229.021"/>
</g>
<!-- Node11 -->
<g id="node11" class="node"><title>Node11</title>
<g id="a_node11"><a xlink:href="../../dd/d99/BatchControlStage_8h.html" target="_top" xlink:title="BatchControlStage.h">
<polygon fill="white" stroke="red" points="1408.96,-112.5 1408.96,-131.5 1515.96,-131.5 1515.96,-112.5 1408.96,-112.5"/>
<text text-anchor="middle" x="1462.46" y="-119.5" font-family="Helvetica,sans-Serif" font-size="10.00">BatchControlStage.h</text>
</a>
</g>
</g>
<!-- Node10&#45;&gt;Node11 -->
<g id="edge11" class="edge"><title>Node10&#45;&gt;Node11</title>
<path fill="none" stroke="midnightblue" d="M1443.13,-158.983C1448.06,-149.817 1453.82,-139.092 1457.76,-131.751"/>
<polygon fill="midnightblue" stroke="midnightblue" points="1439.9,-157.617 1438.25,-168.083 1446.06,-160.929 1439.9,-157.617"/>
</g>
<!-- Node11&#45;&gt;Node12 -->
<g id="edge12" class="edge"><title>Node11&#45;&gt;Node12</title>
<path fill="none" stroke="midnightblue" d="M1449.44,-103.855C1442.34,-94.5048 1433.85,-83.3265 1428.1,-75.7511"/>
<polygon fill="midnightblue" stroke="midnightblue" points="1446.85,-106.235 1455.69,-112.083 1452.43,-102.002 1446.85,-106.235"/>
</g>
<!-- Node12&#45;&gt;Node13 -->
<g id="edge13" class="edge"><title>Node12&#45;&gt;Node13</title>
<path fill="none" stroke="midnightblue" d="M1366.03,-60.8139C1224.91,-50.1556 855.094,-22.2256 740.689,-13.5852"/>
<polygon fill="midnightblue" stroke="midnightblue" points="1365.95,-64.318 1376.19,-61.5811 1366.48,-57.3378 1365.95,-64.318"/>
</g>
<!-- Node26&#45;&gt;Node16 -->
<g id="edge29" class="edge"><title>Node26&#45;&gt;Node16</title>
<path fill="none" stroke="midnightblue" d="M1037.88,-218.38C1024.15,-208.62 1006.53,-196.106 994.892,-187.834"/>
<polygon fill="midnightblue" stroke="midnightblue" points="1036.07,-221.385 1046.25,-224.324 1040.12,-215.679 1036.07,-221.385"/>
</g>
<!-- Node26&#45;&gt;Node21 -->
<g id="edge30" class="edge"><title>Node26&#45;&gt;Node21</title>
<path fill="none" stroke="midnightblue" d="M1071.16,-215.855C1078.08,-206.505 1086.37,-195.327 1091.98,-187.751"/>
<polygon fill="midnightblue" stroke="midnightblue" points="1068.2,-213.964 1065.06,-224.083 1073.83,-218.131 1068.2,-213.964"/>
</g>
<!-- Node26&#45;&gt;Node25 -->
<g id="edge28" class="edge"><title>Node26&#45;&gt;Node25</title>
<path fill="none" stroke="midnightblue" d="M1122.15,-227.04C1202.71,-219.261 1345.63,-204.659 1467.46,-188 1470.33,-187.607 1473.29,-187.182 1476.27,-186.739"/>
<polygon fill="midnightblue" stroke="midnightblue" points="1121.78,-223.559 1112.17,-228 1122.45,-230.527 1121.78,-223.559"/>
</g>
<!-- Node29&#45;&gt;Node12 -->
<g id="edge39" class="edge"><title>Node29&#45;&gt;Node12</title>
<path fill="none" stroke="midnightblue" d="M1284.72,-109.436C1317.53,-99.2551 1364.54,-84.664 1394.02,-75.5164"/>
<polygon fill="midnightblue" stroke="midnightblue" points="1283.54,-106.137 1275.03,-112.444 1285.62,-112.822 1283.54,-106.137"/>
</g>
<!-- Node30&#45;&gt;Node12 -->
<g id="edge42" class="edge"><title>Node30&#45;&gt;Node12</title>
<path fill="none" stroke="midnightblue" d="M1547.97,-109.172C1517.47,-99.0039 1474.21,-84.5852 1447.01,-75.5164"/>
<polygon fill="midnightblue" stroke="midnightblue" points="1547.2,-112.602 1557.79,-112.444 1549.41,-105.961 1547.2,-112.602"/>
</g>
<!-- Node31&#45;&gt;Node9 -->
<g id="edge46" class="edge"><title>Node31&#45;&gt;Node9</title>
<path fill="none" stroke="midnightblue" d="M1003.58,-331.864C1027.57,-319.234 1055.29,-299.272 1039.46,-280 1015.3,-250.581 902.523,-240.058 845.563,-236.577"/>
<polygon fill="midnightblue" stroke="midnightblue" points="1001.71,-328.885 994.33,-336.487 1004.84,-335.146 1001.71,-328.885"/>
</g>
<!-- Node32 -->
<g id="node32" class="node"><title>Node32</title>
<g id="a_node32"><a xlink:href="../../d6/d12/Episode_8cpp.html" target="_top" xlink:title="Episode.cpp">
<polygon fill="white" stroke="black" points="828.959,-280.5 828.959,-299.5 899.959,-299.5 899.959,-280.5 828.959,-280.5"/>
<text text-anchor="middle" x="864.459" y="-287.5" font-family="Helvetica,sans-Serif" font-size="10.00">Episode.cpp</text>
</a>
</g>
</g>
<!-- Node31&#45;&gt;Node32 -->
<g id="edge47" class="edge"><title>Node31&#45;&gt;Node32</title>
<path fill="none" stroke="midnightblue" d="M947.697,-331.862C927.3,-321.849 899.793,-308.346 882.088,-299.655"/>
<polygon fill="midnightblue" stroke="midnightblue" points="946.266,-335.059 956.785,-336.324 949.351,-328.775 946.266,-335.059"/>
</g>
<!-- Node31&#45;&gt;Node33 -->
<g id="edge48" class="edge"><title>Node31&#45;&gt;Node33</title>
<path fill="none" stroke="midnightblue" d="M974.459,-325.805C974.459,-316.91 974.459,-306.78 974.459,-299.751"/>
<polygon fill="midnightblue" stroke="midnightblue" points="970.959,-326.083 974.459,-336.083 977.959,-326.083 970.959,-326.083"/>
</g>
<!-- Node34&#45;&gt;Node33 -->
<g id="edge57" class="edge"><title>Node34&#45;&gt;Node33</title>
<path fill="none" stroke="midnightblue" d="M813.207,-450.083C840.331,-443.975 873.899,-432.672 897.459,-412 925.846,-387.093 914.484,-367.404 935.459,-336 944.531,-322.417 957.261,-308.459 965.677,-299.763"/>
<polygon fill="midnightblue" stroke="midnightblue" points="812.237,-446.71 803.162,-452.178 813.666,-453.563 812.237,-446.71"/>
</g>
<!-- Node35 -->
<g id="node35" class="node"><title>Node35</title>
<g id="a_node35"><a xlink:href="../../d5/d09/WalkerNavigation_8h.html" target="_top" xlink:title="WalkerNavigation.h">
<polygon fill="white" stroke="black" points="786.459,-392.5 786.459,-411.5 888.459,-411.5 888.459,-392.5 786.459,-392.5"/>
<text text-anchor="middle" x="837.459" y="-399.5" font-family="Helvetica,sans-Serif" font-size="10.00">WalkerNavigation.h</text>
</a>
</g>
</g>
<!-- Node34&#45;&gt;Node35 -->
<g id="edge51" class="edge"><title>Node34&#45;&gt;Node35</title>
<path fill="none" stroke="midnightblue" d="M786.773,-442.101C799.371,-432.382 815.387,-420.027 826.008,-411.834"/>
<polygon fill="midnightblue" stroke="midnightblue" points="784.486,-439.445 778.706,-448.324 788.761,-444.987 784.486,-439.445"/>
</g>
<!-- Node36 -->
<g id="node36" class="node"><title>Node36</title>
<g id="a_node36"><a xlink:href="../../d5/d9c/Navigation_8cpp.html" target="_top" xlink:title="Navigation.cpp">
<polygon fill="white" stroke="black" points="454.459,-392.5 454.459,-411.5 536.459,-411.5 536.459,-392.5 454.459,-392.5"/>
<text text-anchor="middle" x="495.459" y="-399.5" font-family="Helvetica,sans-Serif" font-size="10.00">Navigation.cpp</text>
</a>
</g>
</g>
<!-- Node34&#45;&gt;Node36 -->
<g id="edge58" class="edge"><title>Node34&#45;&gt;Node36</title>
<path fill="none" stroke="midnightblue" d="M722.011,-447.977C670.343,-437.72 586.715,-421.117 536.811,-411.21"/>
<polygon fill="midnightblue" stroke="midnightblue" points="721.409,-451.426 731.9,-449.94 722.773,-444.56 721.409,-451.426"/>
</g>
<!-- Node37 -->
<g id="node37" class="node"><title>Node37</title>
<g id="a_node37"><a xlink:href="../../de/db9/WalkerEvent_8cpp.html" target="_top" xlink:title="WalkerEvent.cpp">
<polygon fill="white" stroke="black" points="554.459,-392.5 554.459,-411.5 646.459,-411.5 646.459,-392.5 554.459,-392.5"/>
<text text-anchor="middle" x="600.459" y="-399.5" font-family="Helvetica,sans-Serif" font-size="10.00">WalkerEvent.cpp</text>
</a>
</g>
</g>
<!-- Node34&#45;&gt;Node37 -->
<g id="edge59" class="edge"><title>Node34&#45;&gt;Node37</title>
<path fill="none" stroke="midnightblue" d="M731.289,-445.304C699.822,-435.129 654.965,-420.625 626.797,-411.516"/>
<polygon fill="midnightblue" stroke="midnightblue" points="730.405,-448.697 740.997,-448.444 732.559,-442.037 730.405,-448.697"/>
</g>
<!-- Node38 -->
<g id="node38" class="node"><title>Node38</title>
<g id="a_node38"><a xlink:href="../../d2/dbb/WalkerManager_8cpp.html" target="_top" xlink:title="WalkerManager.cpp">
<polygon fill="white" stroke="black" points="664.459,-392.5 664.459,-411.5 768.459,-411.5 768.459,-392.5 664.459,-392.5"/>
<text text-anchor="middle" x="716.459" y="-399.5" font-family="Helvetica,sans-Serif" font-size="10.00">WalkerManager.cpp</text>
</a>
</g>
</g>
<!-- Node34&#45;&gt;Node38 -->
<g id="edge60" class="edge"><title>Node34&#45;&gt;Node38</title>
<path fill="none" stroke="midnightblue" d="M752.081,-440.718C743.092,-431.2 732.1,-419.561 724.724,-411.751"/>
<polygon fill="midnightblue" stroke="midnightblue" points="749.626,-443.216 759.037,-448.083 754.716,-438.41 749.626,-443.216"/>
</g>
<!-- Node35&#45;&gt;Node9 -->
<g id="edge53" class="edge"><title>Node35&#45;&gt;Node9</title>
<path fill="none" stroke="midnightblue" d="M813.338,-386.473C803.022,-378.828 792.075,-368.445 786.459,-356 772.565,-325.212 777.711,-312.625 786.459,-280 790.151,-266.23 799.189,-252.316 805.569,-243.681"/>
<polygon fill="midnightblue" stroke="midnightblue" points="811.501,-389.457 821.725,-392.236 815.465,-383.688 811.501,-389.457"/>
</g>
<!-- Node35&#45;&gt;Node26 -->
<g id="edge54" class="edge"><title>Node35&#45;&gt;Node26</title>
<path fill="none" stroke="midnightblue" d="M827.406,-383.538C814.074,-357.812 794.923,-309.586 819.459,-280 842.537,-252.171 941.689,-241.437 1004.81,-237.38"/>
<polygon fill="midnightblue" stroke="midnightblue" points="824.431,-385.393 832.291,-392.497 830.576,-382.042 824.431,-385.393"/>
</g>
<!-- Node35&#45;&gt;Node31 -->
<g id="edge52" class="edge"><title>Node35&#45;&gt;Node31</title>
<path fill="none" stroke="midnightblue" d="M868.482,-388.772C894.216,-378.629 930.145,-364.467 952.852,-355.516"/>
<polygon fill="midnightblue" stroke="midnightblue" points="867.187,-385.52 859.167,-392.444 869.754,-392.033 867.187,-385.52"/>
</g>
<!-- Node35&#45;&gt;Node32 -->
<g id="edge55" class="edge"><title>Node35&#45;&gt;Node32</title>
<path fill="none" stroke="midnightblue" d="M842.037,-382.348C847.951,-358.254 858.001,-317.308 862.35,-299.591"/>
<polygon fill="midnightblue" stroke="midnightblue" points="838.562,-381.822 839.578,-392.368 845.36,-383.491 838.562,-381.822"/>
</g>
<!-- Node35&#45;&gt;Node33 -->
<g id="edge56" class="edge"><title>Node35&#45;&gt;Node33</title>
<path fill="none" stroke="midnightblue" d="M851.846,-384.66C864.446,-370.847 883.635,-350.974 902.459,-336 920.57,-321.592 943.547,-307.932 958.609,-299.52"/>
<polygon fill="midnightblue" stroke="midnightblue" points="848.992,-382.6 844.915,-392.379 854.2,-387.277 848.992,-382.6"/>
</g>
<!-- Node42 -->
<g id="node42" class="node"><title>Node42</title>
<g id="a_node42"><a xlink:href="../../db/dac/ImageView_8h.html" target="_top" xlink:title="ImageView.h">
<polygon fill="white" stroke="black" points="1284.46,-504.5 1284.46,-523.5 1358.46,-523.5 1358.46,-504.5 1284.46,-504.5"/>
<text text-anchor="middle" x="1321.46" y="-511.5" font-family="Helvetica,sans-Serif" font-size="10.00">ImageView.h</text>
</a>
</g>
</g>
<!-- Node41&#45;&gt;Node42 -->
<g id="edge65" class="edge"><title>Node41&#45;&gt;Node42</title>
<path fill="none" stroke="midnightblue" d="M1364.99,-553.537C1354.12,-543.909 1340.52,-531.869 1331.44,-523.834"/>
<polygon fill="midnightblue" stroke="midnightblue" points="1362.85,-556.316 1372.66,-560.324 1367.49,-551.075 1362.85,-556.316"/>
</g>
<!-- Node45 -->
<g id="node45" class="node"><title>Node45</title>
<g id="a_node45"><a xlink:href="../../d8/d0f/Image_8h.html" target="_top" xlink:title="Image.h">
<polygon fill="white" stroke="black" points="1376.46,-504.5 1376.46,-523.5 1428.46,-523.5 1428.46,-504.5 1376.46,-504.5"/>
<text text-anchor="middle" x="1402.46" y="-511.5" font-family="Helvetica,sans-Serif" font-size="10.00">Image.h</text>
</a>
</g>
</g>
<!-- Node41&#45;&gt;Node45 -->
<g id="edge69" class="edge"><title>Node41&#45;&gt;Node45</title>
<path fill="none" stroke="midnightblue" d="M1389.24,-550.69C1392.61,-541.589 1396.53,-531.014 1399.22,-523.751"/>
<polygon fill="midnightblue" stroke="midnightblue" points="1385.95,-549.49 1385.76,-560.083 1392.52,-551.921 1385.95,-549.49"/>
</g>
<!-- Node43 -->
<g id="node43" class="node"><title>Node43</title>
<g id="a_node43"><a xlink:href="../../d7/d2c/ImageConverter_8h.html" target="_top" xlink:title="ImageConverter.h">
<polygon fill="white" stroke="black" points="1311.96,-448.5 1311.96,-467.5 1406.96,-467.5 1406.96,-448.5 1311.96,-448.5"/>
<text text-anchor="middle" x="1359.46" y="-455.5" font-family="Helvetica,sans-Serif" font-size="10.00">ImageConverter.h</text>
</a>
</g>
</g>
<!-- Node42&#45;&gt;Node43 -->
<g id="edge66" class="edge"><title>Node42&#45;&gt;Node43</title>
<path fill="none" stroke="midnightblue" d="M1333.52,-495.855C1340.1,-486.505 1347.97,-475.327 1353.3,-467.751"/>
<polygon fill="midnightblue" stroke="midnightblue" points="1330.63,-493.891 1327.73,-504.083 1336.35,-497.919 1330.63,-493.891"/>
</g>
<!-- Node44 -->
<g id="node44" class="node"><title>Node44</title>
<g id="a_node44"><a xlink:href="../../d5/d1a/test__image_8cpp.html" target="_top" xlink:title="test_image.cpp">
<polygon fill="white" stroke="black" points="1317.96,-392.5 1317.96,-411.5 1400.96,-411.5 1400.96,-392.5 1317.96,-392.5"/>
<text text-anchor="middle" x="1359.46" y="-399.5" font-family="Helvetica,sans-Serif" font-size="10.00">test_image.cpp</text>
</a>
</g>
</g>
<!-- Node42&#45;&gt;Node44 -->
<g id="edge68" class="edge"><title>Node42&#45;&gt;Node44</title>
<path fill="none" stroke="midnightblue" d="M1309.62,-495.546C1302.09,-482.116 1295.03,-463.325 1302.46,-448 1310.49,-431.435 1327.9,-419.128 1341.38,-411.61"/>
<polygon fill="midnightblue" stroke="midnightblue" points="1306.76,-497.575 1314.99,-504.251 1312.72,-493.901 1306.76,-497.575"/>
</g>
<!-- Node43&#45;&gt;Node44 -->
<g id="edge67" class="edge"><title>Node43&#45;&gt;Node44</title>
<path fill="none" stroke="midnightblue" d="M1359.46,-437.805C1359.46,-428.91 1359.46,-418.78 1359.46,-411.751"/>
<polygon fill="midnightblue" stroke="midnightblue" points="1355.96,-438.083 1359.46,-448.083 1362.96,-438.083 1355.96,-438.083"/>
</g>
<!-- Node46 -->
<g id="node46" class="node"><title>Node46</title>
<g id="a_node46"><a xlink:href="../../d2/d47/ImageSerializer_8cpp.html" target="_top" xlink:title="ImageSerializer.cpp">
<polygon fill="white" stroke="black" points="1424.96,-448.5 1424.96,-467.5 1527.96,-467.5 1527.96,-448.5 1424.96,-448.5"/>
<text text-anchor="middle" x="1476.46" y="-455.5" font-family="Helvetica,sans-Serif" font-size="10.00">ImageSerializer.cpp</text>
</a>
</g>
</g>
<!-- Node45&#45;&gt;Node46 -->
<g id="edge70" class="edge"><title>Node45&#45;&gt;Node46</title>
<path fill="none" stroke="midnightblue" d="M1422.49,-498.38C1435.87,-488.62 1453.02,-476.106 1464.35,-467.834"/>
<polygon fill="midnightblue" stroke="midnightblue" points="1420.36,-495.602 1414.35,-504.324 1424.49,-501.257 1420.36,-495.602"/>
</g>
<!-- Node48 -->
<g id="node48" class="node"><title>Node48</title>
<g id="a_node48"><a xlink:href="../../db/d0f/LidarSerializer_8cpp.html" target="_top" xlink:title="LidarSerializer.cpp">
<polygon fill="white" stroke="black" points="1446.96,-504.5 1446.96,-523.5 1543.96,-523.5 1543.96,-504.5 1446.96,-504.5"/>
<text text-anchor="middle" x="1495.46" y="-511.5" font-family="Helvetica,sans-Serif" font-size="10.00">LidarSerializer.cpp</text>
</a>
</g>
</g>
<!-- Node47&#45;&gt;Node48 -->
<g id="edge72" class="edge"><title>Node47&#45;&gt;Node48</title>
<path fill="none" stroke="midnightblue" d="M1492.21,-550.101C1493.04,-541.136 1493.99,-530.858 1494.65,-523.751"/>
<polygon fill="midnightblue" stroke="midnightblue" points="1488.72,-549.803 1491.28,-560.083 1495.69,-550.448 1488.72,-549.803"/>
</g>
<!-- Node50 -->
<g id="node50" class="node"><title>Node50</title>
<g id="a_node50"><a xlink:href="../../da/da1/RadarSerializer_8cpp.html" target="_top" xlink:title="RadarSerializer.cpp">
<polygon fill="white" stroke="black" points="1565.46,-504.5 1565.46,-523.5 1667.46,-523.5 1667.46,-504.5 1565.46,-504.5"/>
<text text-anchor="middle" x="1616.46" y="-511.5" font-family="Helvetica,sans-Serif" font-size="10.00">RadarSerializer.cpp</text>
</a>
</g>
</g>
<!-- Node49&#45;&gt;Node50 -->
<g id="edge74" class="edge"><title>Node49&#45;&gt;Node50</title>
<path fill="none" stroke="midnightblue" d="M1616.46,-549.805C1616.46,-540.91 1616.46,-530.78 1616.46,-523.751"/>
<polygon fill="midnightblue" stroke="midnightblue" points="1612.96,-550.083 1616.46,-560.083 1619.96,-550.083 1612.96,-550.083"/>
</g>
</g>
</svg>
