<?xml version="1.0" encoding="UTF-8" standalone="no"?>
<!DOCTYPE svg PUBLIC "-//W3C//DTD SVG 1.1//EN"
 "http://www.w3.org/Graphics/SVG/1.1/DTD/svg11.dtd">
<!-- Generated by graphviz version 2.40.1 (20161225.0304)
 -->
<!-- Title: sensor_msgs::msg::CameraInfo Pages: 1 -->
<svg width="801pt" height="320pt"
 viewBox="0.00 0.00 801.00 320.00" xmlns="http://www.w3.org/2000/svg" xmlns:xlink="http://www.w3.org/1999/xlink">
<g id="graph0" class="graph" transform="scale(1 1) rotate(0) translate(4 316)">
<title>sensor_msgs::msg::CameraInfo</title>
<polygon fill="#ffffff" stroke="transparent" points="-4,4 -4,-316 797,-316 797,4 -4,4"/>
<!-- Node1 -->
<g id="node1" class="node">
<title>Node1</title>
<polygon fill="#bfbfbf" stroke="#000000" points="623,-126.5 623,-145.5 793,-145.5 793,-126.5 623,-126.5"/>
<text text-anchor="middle" x="708" y="-133.5" font-family="Helvetica,sans-Serif" font-size="10.00" fill="#000000">sensor_msgs::msg::CameraInfo</text>
</g>
<!-- Node2 -->
<g id="node2" class="node">
<title>Node2</title>
<polygon fill="#ffffff" stroke="#bfbfbf" points="418,-292.5 418,-311.5 521,-311.5 521,-292.5 418,-292.5"/>
<text text-anchor="middle" x="469.5" y="-299.5" font-family="Helvetica,sans-Serif" font-size="10.00" fill="#000000">vector&lt; double &gt;</text>
</g>
<!-- Node2&#45;&gt;Node1 -->
<g id="edge1" class="edge">
<title>Node2&#45;&gt;Node1</title>
<path fill="none" stroke="#9a32cd" stroke-dasharray="5,2" d="M530.9963,-300.3888C555.5397,-297.3595 583.1059,-290.7623 605,-277 658.1277,-243.6048 692.6818,-172.0267 703.9631,-145.8492"/>
<polygon fill="#9a32cd" stroke="#9a32cd" points="530.6203,-296.909 521.0466,-301.4472 531.3607,-303.8697 530.6203,-296.909"/>
<text text-anchor="middle" x="579" y="-298" font-family="Helvetica,sans-Serif" font-size="10.00" fill="#000000"> m_d</text>
</g>
<!-- Node3 -->
<g id="node3" class="node">
<title>Node3</title>
<g id="a_node3"><a xlink:href="../../d8/d15/classstd__msgs_1_1msg_1_1Header.html" target="_top" xlink:title="This class represents the structure Header defined by the user in the IDL file. ">
<polygon fill="#ffffff" stroke="#000000" points="404,-193.5 404,-212.5 535,-212.5 535,-193.5 404,-193.5"/>
<text text-anchor="middle" x="469.5" y="-200.5" font-family="Helvetica,sans-Serif" font-size="10.00" fill="#000000">std_msgs::msg::Header</text>
</a>
</g>
</g>
<!-- Node3&#45;&gt;Node1 -->
<g id="edge2" class="edge">
<title>Node3&#45;&gt;Node1</title>
<path fill="none" stroke="#9a32cd" stroke-dasharray="5,2" d="M513.1626,-190.7342C559.4258,-177.7378 631.5118,-157.4872 673.8129,-145.6039"/>
<polygon fill="#9a32cd" stroke="#9a32cd" points="512.0987,-187.3975 503.4179,-193.4717 513.9919,-194.1366 512.0987,-187.3975"/>
<text text-anchor="middle" x="579" y="-182" font-family="Helvetica,sans-Serif" font-size="10.00" fill="#000000"> m_header</text>
</g>
<!-- Node4 -->
<g id="node4" class="node">
<title>Node4</title>
<polygon fill="#ffffff" stroke="#bfbfbf" points="210,-245.5 210,-264.5 254,-264.5 254,-245.5 210,-245.5"/>
<text text-anchor="middle" x="232" y="-252.5" font-family="Helvetica,sans-Serif" font-size="10.00" fill="#000000">string</text>
</g>
<!-- Node4&#45;&gt;Node1 -->
<g id="edge11" class="edge">
<title>Node4&#45;&gt;Node1</title>
<path fill="none" stroke="#9a32cd" stroke-dasharray="5,2" d="M264.5456,-254.7215C295.7786,-254.1709 344.2333,-252.5745 386,-248 485.6527,-237.0855 514.5871,-237.3046 605,-194 637.0199,-178.6636 672.801,-157.5678 692.6369,-145.5007"/>
<polygon fill="#9a32cd" stroke="#9a32cd" points="264.202,-251.2262 254.2556,-254.8758 264.307,-258.2254 264.202,-251.2262"/>
<text text-anchor="middle" x="469.5" y="-248" font-family="Helvetica,sans-Serif" font-size="10.00" fill="#000000"> m_distortion_model</text>
</g>
<!-- Node4&#45;&gt;Node3 -->
<g id="edge3" class="edge">
<title>Node4&#45;&gt;Node3</title>
<path fill="none" stroke="#9a32cd" stroke-dasharray="5,2" d="M264.2611,-247.9365C306.0548,-238.7859 379.08,-222.7972 425.8146,-212.5648"/>
<polygon fill="#9a32cd" stroke="#9a32cd" points="263.3634,-244.5501 254.3434,-250.108 264.8606,-251.3881 263.3634,-244.5501"/>
<text text-anchor="middle" x="354.5" y="-236" font-family="Helvetica,sans-Serif" font-size="10.00" fill="#000000"> m_frame_id</text>
</g>
<!-- Node5 -->
<g id="node5" class="node">
<title>Node5</title>
<g id="a_node5"><a xlink:href="../../da/d39/classbuiltin__interfaces_1_1msg_1_1Time.html" target="_top" xlink:title="This class represents the structure Time defined by the user in the IDL file. ">
<polygon fill="#ffffff" stroke="#000000" points="181.5,-188 181.5,-218 282.5,-218 282.5,-188 181.5,-188"/>
<text text-anchor="start" x="189.5" y="-206" font-family="Helvetica,sans-Serif" font-size="10.00" fill="#000000">builtin_interfaces</text>
<text text-anchor="middle" x="232" y="-195" font-family="Helvetica,sans-Serif" font-size="10.00" fill="#000000">::msg::Time</text>
</a>
</g>
</g>
<!-- Node5&#45;&gt;Node3 -->
<g id="edge4" class="edge">
<title>Node5&#45;&gt;Node3</title>
<path fill="none" stroke="#9a32cd" stroke-dasharray="5,2" d="M292.884,-203C326.7492,-203 368.9246,-203 403.5679,-203"/>
<polygon fill="#9a32cd" stroke="#9a32cd" points="292.6584,-199.5001 282.6584,-203 292.6584,-206.5001 292.6584,-199.5001"/>
<text text-anchor="middle" x="354.5" y="-206" font-family="Helvetica,sans-Serif" font-size="10.00" fill="#000000"> m_stamp</text>
</g>
<!-- Node6 -->
<g id="node6" class="node">
<title>Node6</title>
<polygon fill="#ffffff" stroke="#bfbfbf" points="3,-193.5 3,-212.5 53,-212.5 53,-193.5 3,-193.5"/>
<text text-anchor="middle" x="28" y="-200.5" font-family="Helvetica,sans-Serif" font-size="10.00" fill="#000000">int32_t</text>
</g>
<!-- Node6&#45;&gt;Node5 -->
<g id="edge5" class="edge">
<title>Node6&#45;&gt;Node5</title>
<path fill="none" stroke="#9a32cd" stroke-dasharray="5,2" d="M63.4056,-203C95.9865,-203 144.6712,-203 181.3601,-203"/>
<polygon fill="#9a32cd" stroke="#9a32cd" points="63.0144,-199.5001 53.0144,-203 63.0144,-206.5001 63.0144,-199.5001"/>
<text text-anchor="middle" x="107.5" y="-206" font-family="Helvetica,sans-Serif" font-size="10.00" fill="#000000"> m_sec</text>
</g>
<!-- Node7 -->
<g id="node7" class="node">
<title>Node7</title>
<polygon fill="#ffffff" stroke="#bfbfbf" points="0,-126.5 0,-145.5 56,-145.5 56,-126.5 0,-126.5"/>
<text text-anchor="middle" x="28" y="-133.5" font-family="Helvetica,sans-Serif" font-size="10.00" fill="#000000">uint32_t</text>
</g>
<!-- Node7&#45;&gt;Node1 -->
<g id="edge7" class="edge">
<title>Node7&#45;&gt;Node1</title>
<path fill="none" stroke="#9a32cd" stroke-dasharray="5,2" d="M66.6508,-136C173.4006,-136 474.198,-136 622.7774,-136"/>
<polygon fill="#9a32cd" stroke="#9a32cd" points="66.353,-132.5001 56.353,-136 66.353,-139.5001 66.353,-132.5001"/>
<text text-anchor="middle" x="354.5" y="-172" font-family="Helvetica,sans-Serif" font-size="10.00" fill="#000000"> m_width</text>
<text text-anchor="middle" x="354.5" y="-161" font-family="Helvetica,sans-Serif" font-size="10.00" fill="#000000">m_binning_x</text>
<text text-anchor="middle" x="354.5" y="-150" font-family="Helvetica,sans-Serif" font-size="10.00" fill="#000000">m_binning_y</text>
<text text-anchor="middle" x="354.5" y="-139" font-family="Helvetica,sans-Serif" font-size="10.00" fill="#000000">m_height</text>
</g>
<!-- Node7&#45;&gt;Node5 -->
<g id="edge6" class="edge">
<title>Node7&#45;&gt;Node5</title>
<path fill="none" stroke="#9a32cd" stroke-dasharray="5,2" d="M65.9488,-148.4636C99.9848,-159.6421 150.0032,-176.0697 186.2422,-187.9717"/>
<polygon fill="#9a32cd" stroke="#9a32cd" points="66.9582,-145.1112 56.3653,-145.3161 64.7739,-151.7617 66.9582,-145.1112"/>
<text text-anchor="middle" x="107.5" y="-174" font-family="Helvetica,sans-Serif" font-size="10.00" fill="#000000"> m_nanosec</text>
</g>
<!-- Node8 -->
<g id="node8" class="node">
<title>Node8</title>
<g id="a_node8"><a xlink:href="../../d7/de7/classsensor__msgs_1_1msg_1_1RegionOfInterest.html" target="_top" xlink:title="This class represents the structure RegionOfInterest defined by the user in the IDL file...">
<polygon fill="#ffffff" stroke="#000000" points="159,-62 159,-92 305,-92 305,-62 159,-62"/>
<text text-anchor="start" x="167" y="-80" font-family="Helvetica,sans-Serif" font-size="10.00" fill="#000000">sensor_msgs::msg::Region</text>
<text text-anchor="middle" x="232" y="-69" font-family="Helvetica,sans-Serif" font-size="10.00" fill="#000000">OfInterest</text>
</a>
</g>
</g>
<!-- Node7&#45;&gt;Node8 -->
<g id="edge9" class="edge">
<title>Node7&#45;&gt;Node8</title>
<path fill="none" stroke="#9a32cd" stroke-dasharray="5,2" d="M37.0209,-117.3021C44.7413,-103.6467 57.2648,-86.1523 74,-78 99.8938,-65.3863 131.1266,-62.9515 158.9627,-64.4678"/>
<polygon fill="#9a32cd" stroke="#9a32cd" points="33.8054,-115.8973 32.2566,-126.3784 40.0034,-119.1508 33.8054,-115.8973"/>
<text text-anchor="middle" x="107.5" y="-114" font-family="Helvetica,sans-Serif" font-size="10.00" fill="#000000"> m_width</text>
<text text-anchor="middle" x="107.5" y="-103" font-family="Helvetica,sans-Serif" font-size="10.00" fill="#000000">m_height</text>
<text text-anchor="middle" x="107.5" y="-92" font-family="Helvetica,sans-Serif" font-size="10.00" fill="#000000">m_y_offset</text>
<text text-anchor="middle" x="107.5" y="-81" font-family="Helvetica,sans-Serif" font-size="10.00" fill="#000000">m_x_offset</text>
</g>
<!-- Node8&#45;&gt;Node1 -->
<g id="edge8" class="edge">
<title>Node8&#45;&gt;Node1</title>
<path fill="none" stroke="#9a32cd" stroke-dasharray="5,2" d="M315.1909,-85.6155C376.1161,-92.1002 460.7705,-101.4743 535,-111 571.7219,-115.7124 612.7335,-121.6111 645.6063,-126.4951"/>
<polygon fill="#9a32cd" stroke="#9a32cd" points="315.5558,-82.1347 305.2423,-84.5598 314.8171,-89.0956 315.5558,-82.1347"/>
<text text-anchor="middle" x="469.5" y="-114" font-family="Helvetica,sans-Serif" font-size="10.00" fill="#000000"> m_roi</text>
</g>
<!-- Node9 -->
<g id="node9" class="node">
<title>Node9</title>
<polygon fill="#ffffff" stroke="#bfbfbf" points="9,-33.5 9,-52.5 47,-52.5 47,-33.5 9,-33.5"/>
<text text-anchor="middle" x="28" y="-40.5" font-family="Helvetica,sans-Serif" font-size="10.00" fill="#000000">bool</text>
</g>
<!-- Node9&#45;&gt;Node8 -->
<g id="edge10" class="edge">
<title>Node9&#45;&gt;Node8</title>
<path fill="none" stroke="#9a32cd" stroke-dasharray="5,2" d="M57.5055,-40.5551C80.456,-39.3024 112.998,-38.9517 141,-44 160.8465,-47.578 182.082,-55.0526 199.0435,-61.9846"/>
<polygon fill="#9a32cd" stroke="#9a32cd" points="57.1364,-37.0714 47.3792,-41.2002 57.5815,-44.0572 57.1364,-37.0714"/>
<text text-anchor="middle" x="107.5" y="-47" font-family="Helvetica,sans-Serif" font-size="10.00" fill="#000000"> m_do_rectify</text>
</g>
<!-- Node10 -->
<g id="node10" class="node">
<title>Node10</title>
<polygon fill="#ffffff" stroke="#bfbfbf" points="411.5,-41.5 411.5,-60.5 527.5,-60.5 527.5,-41.5 411.5,-41.5"/>
<text text-anchor="middle" x="469.5" y="-48.5" font-family="Helvetica,sans-Serif" font-size="10.00" fill="#000000">array&lt; double, 12 &gt;</text>
</g>
<!-- Node10&#45;&gt;Node1 -->
<g id="edge12" class="edge">
<title>Node10&#45;&gt;Node1</title>
<path fill="none" stroke="#9a32cd" stroke-dasharray="5,2" d="M538.0341,-56.1925C559.9063,-59.2731 583.8993,-64.181 605,-72 640.9287,-85.3136 677.8308,-112.0446 696.1627,-126.386"/>
<polygon fill="#9a32cd" stroke="#9a32cd" points="538.1902,-52.6834 527.8219,-54.8621 537.2859,-59.6247 538.1902,-52.6834"/>
<text text-anchor="middle" x="579" y="-75" font-family="Helvetica,sans-Serif" font-size="10.00" fill="#000000"> m_p</text>
</g>
<!-- Node11 -->
<g id="node11" class="node">
<title>Node11</title>
<polygon fill="#ffffff" stroke="#bfbfbf" points="414.5,-.5 414.5,-19.5 524.5,-19.5 524.5,-.5 414.5,-.5"/>
<text text-anchor="middle" x="469.5" y="-7.5" font-family="Helvetica,sans-Serif" font-size="10.00" fill="#000000">array&lt; double, 9 &gt;</text>
</g>
<!-- Node11&#45;&gt;Node1 -->
<g id="edge13" class="edge">
<title>Node11&#45;&gt;Node1</title>
<path fill="none" stroke="#9a32cd" stroke-dasharray="5,2" d="M534.8018,-12.304C557.9717,-15.2243 583.5907,-20.9737 605,-32 649.9576,-55.1542 687.2593,-105.1542 701.6414,-126.272"/>
<polygon fill="#9a32cd" stroke="#9a32cd" points="535.0225,-8.8071 524.6981,-11.1854 534.2522,-15.7646 535.0225,-8.8071"/>
<text text-anchor="middle" x="579" y="-46" font-family="Helvetica,sans-Serif" font-size="10.00" fill="#000000"> m_k</text>
<text text-anchor="middle" x="579" y="-35" font-family="Helvetica,sans-Serif" font-size="10.00" fill="#000000">m_r</text>
</g>
</g>
</svg>
