<?xml version="1.0" encoding="UTF-8" standalone="no"?>
<!DOCTYPE svg PUBLIC "-//W3C//DTD SVG 1.1//EN"
 "http://www.w3.org/Graphics/SVG/1.1/DTD/svg11.dtd">
<!-- Generated by graphviz version 2.38.0 (20140413.2041)
 -->
<!-- Title: UActorBlueprintFunctionLibrary::MakeGenericSensorDefinition Pages: 1 -->
<svg width="340pt" height="88pt"
 viewBox="0.00 0.00 340.00 88.00" xmlns="http://www.w3.org/2000/svg" xmlns:xlink="http://www.w3.org/1999/xlink">
<g id="graph0" class="graph" transform="scale(1 1) rotate(0) translate(4 84)">
<title>UActorBlueprintFunctionLibrary::MakeGenericSensorDefinition</title>
<polygon fill="white" stroke="none" points="-4,4 -4,-84 336,-84 336,4 -4,4"/>
<!-- Node1 -->
<g id="node1" class="node"><title>Node1</title>
<polygon fill="#bfbfbf" stroke="black" points="0,-24.5 0,-54.5 152,-54.5 152,-24.5 0,-24.5"/>
<text text-anchor="start" x="8" y="-42.5" font-family="Helvetica,sans-Serif" font-size="10.00">UActorBlueprintFunctionLibrary</text>
<text text-anchor="middle" x="76" y="-31.5" font-family="Helvetica,sans-Serif" font-size="10.00">::MakeGenericSensorDefinition</text>
</g>
<!-- Node2 -->
<g id="node2" class="node"><title>Node2</title>
<g id="a_node2"><a xlink:href="../../d0/d57/classALaneInvasionSensor.html#ae961d1a8ffc865afd7fb8c61a6d49147" target="_top" xlink:title="ALaneInvasionSensor\l::GetSensorDefinition">
<polygon fill="white" stroke="black" points="204,-49.5 204,-79.5 316,-79.5 316,-49.5 204,-49.5"/>
<text text-anchor="start" x="212" y="-67.5" font-family="Helvetica,sans-Serif" font-size="10.00">ALaneInvasionSensor</text>
<text text-anchor="middle" x="260" y="-56.5" font-family="Helvetica,sans-Serif" font-size="10.00">::GetSensorDefinition</text>
</a>
</g>
</g>
<!-- Node1&#45;&gt;Node2 -->
<g id="edge1" class="edge"><title>Node1&#45;&gt;Node2</title>
<path fill="none" stroke="midnightblue" d="M162.304,-51.2176C176.42,-53.1566 190.719,-55.1208 203.836,-56.9226"/>
<polygon fill="midnightblue" stroke="midnightblue" points="162.46,-47.7063 152.077,-49.8128 161.508,-54.6412 162.46,-47.7063"/>
</g>
<!-- Node3 -->
<g id="node3" class="node"><title>Node3</title>
<g id="a_node3"><a xlink:href="../../d8/de9/classACollisionSensor.html#a6f64e98b0aa71197e016d8ad39cff2ef" target="_top" xlink:title="ACollisionSensor::GetSensor\lDefinition">
<polygon fill="white" stroke="black" points="188,-0.5 188,-30.5 332,-30.5 332,-0.5 188,-0.5"/>
<text text-anchor="start" x="196" y="-18.5" font-family="Helvetica,sans-Serif" font-size="10.00">ACollisionSensor::GetSensor</text>
<text text-anchor="middle" x="260" y="-7.5" font-family="Helvetica,sans-Serif" font-size="10.00">Definition</text>
</a>
</g>
</g>
<!-- Node1&#45;&gt;Node3 -->
<g id="edge2" class="edge"><title>Node1&#45;&gt;Node3</title>
<path fill="none" stroke="midnightblue" d="M162.144,-28.2723C170.762,-27.1358 179.451,-25.99 187.899,-24.876"/>
<polygon fill="midnightblue" stroke="midnightblue" points="161.534,-24.8223 152.077,-29.5997 162.449,-31.7622 161.534,-24.8223"/>
</g>
</g>
</svg>
