<?xml version="1.0" encoding="UTF-8" standalone="no"?>
<!DOCTYPE svg PUBLIC "-//W3C//DTD SVG 1.1//EN"
 "http://www.w3.org/Graphics/SVG/1.1/DTD/svg11.dtd">
<!-- Generated by graphviz version 2.38.0 (20140413.2041)
 -->
<!-- Title: carla::sensor::data::DVSEventArray::GetWidth Pages: 1 -->
<svg width="986pt" height="159pt"
 viewBox="0.00 0.00 986.00 158.50" xmlns="http://www.w3.org/2000/svg" xmlns:xlink="http://www.w3.org/1999/xlink">
<g id="graph0" class="graph" transform="scale(1 1) rotate(0) translate(4 154.5)">
<title>carla::sensor::data::DVSEventArray::GetWidth</title>
<polygon fill="white" stroke="none" points="-4,4 -4,-154.5 982,-154.5 982,4 -4,4"/>
<!-- Node1 -->
<g id="node1" class="node"><title>Node1</title>
<polygon fill="#bfbfbf" stroke="black" points="0,-36 0,-66 145,-66 145,-36 0,-36"/>
<text text-anchor="start" x="8" y="-54" font-family="Helvetica,sans-Serif" font-size="10.00">carla::sensor::data</text>
<text text-anchor="middle" x="72.5" y="-43" font-family="Helvetica,sans-Serif" font-size="10.00">::DVSEventArray::GetWidth</text>
</g>
<!-- Node2 -->
<g id="node2" class="node"><title>Node2</title>
<g id="a_node2"><a xlink:href="../../df/dc1/classcarla_1_1sensor_1_1data_1_1DVSEventArray.html#a1ed8970374eaa80776f4b4704fc8e0fc" target="_top" xlink:title="carla::sensor::data\l::DVSEventArray::GetHeader">
<polygon fill="white" stroke="black" points="181,-36 181,-66 335,-66 335,-36 181,-36"/>
<text text-anchor="start" x="189" y="-54" font-family="Helvetica,sans-Serif" font-size="10.00">carla::sensor::data</text>
<text text-anchor="middle" x="258" y="-43" font-family="Helvetica,sans-Serif" font-size="10.00">::DVSEventArray::GetHeader</text>
</a>
</g>
</g>
<!-- Node1&#45;&gt;Node2 -->
<g id="edge1" class="edge"><title>Node1&#45;&gt;Node2</title>
<path fill="none" stroke="midnightblue" d="M145.234,-51C153.524,-51 162.043,-51 170.502,-51"/>
<polygon fill="midnightblue" stroke="midnightblue" points="170.772,-54.5001 180.772,-51 170.772,-47.5001 170.772,-54.5001"/>
</g>
<!-- Node3 -->
<g id="node3" class="node"><title>Node3</title>
<g id="a_node3"><a xlink:href="../../db/ddd/classcarla_1_1sensor_1_1s11n_1_1DVSEventArraySerializer.html#a90cf12b02359f8fe4420f96489f30636" target="_top" xlink:title="carla::sensor::s11n\l::DVSEventArraySerializer\l::DeserializeHeader">
<polygon fill="white" stroke="black" points="371,-60.5 371,-101.5 511,-101.5 511,-60.5 371,-60.5"/>
<text text-anchor="start" x="379" y="-89.5" font-family="Helvetica,sans-Serif" font-size="10.00">carla::sensor::s11n</text>
<text text-anchor="start" x="379" y="-78.5" font-family="Helvetica,sans-Serif" font-size="10.00">::DVSEventArraySerializer</text>
<text text-anchor="middle" x="441" y="-67.5" font-family="Helvetica,sans-Serif" font-size="10.00">::DeserializeHeader</text>
</a>
</g>
</g>
<!-- Node2&#45;&gt;Node3 -->
<g id="edge2" class="edge"><title>Node2&#45;&gt;Node3</title>
<path fill="none" stroke="midnightblue" d="M335.236,-63.6358C343.707,-65.0399 352.35,-66.4724 360.857,-67.8824"/>
<polygon fill="midnightblue" stroke="midnightblue" points="360.325,-71.3418 370.763,-69.5242 361.469,-64.4361 360.325,-71.3418"/>
</g>
<!-- Node9 -->
<g id="node9" class="node"><title>Node9</title>
<g id="a_node9"><a xlink:href="../../d2/dcc/classcarla_1_1sensor_1_1data_1_1Array.html#a99f7676d9d648ce6b3960e63377365d7" target="_top" xlink:title="carla::sensor::data\l::Array\&lt; DVSEvent \&gt;\l::GetRawData">
<polygon fill="white" stroke="black" points="381.5,-0.5 381.5,-41.5 500.5,-41.5 500.5,-0.5 381.5,-0.5"/>
<text text-anchor="start" x="389.5" y="-29.5" font-family="Helvetica,sans-Serif" font-size="10.00">carla::sensor::data</text>
<text text-anchor="start" x="389.5" y="-18.5" font-family="Helvetica,sans-Serif" font-size="10.00">::Array&lt; DVSEvent &gt;</text>
<text text-anchor="middle" x="441" y="-7.5" font-family="Helvetica,sans-Serif" font-size="10.00">::GetRawData</text>
</a>
</g>
</g>
<!-- Node2&#45;&gt;Node9 -->
<g id="edge8" class="edge"><title>Node2&#45;&gt;Node9</title>
<path fill="none" stroke="midnightblue" d="M335.236,-38.3642C347.192,-36.3826 359.488,-34.3445 371.262,-32.393"/>
<polygon fill="midnightblue" stroke="midnightblue" points="372.16,-35.792 381.453,-30.7039 371.015,-28.8862 372.16,-35.792"/>
</g>
<!-- Node4 -->
<g id="node4" class="node"><title>Node4</title>
<g id="a_node4"><a xlink:href="../../d3/da0/classcarla_1_1sensor_1_1RawData.html#ad29c6a9698aa66f593286f5e6fc601ea" target="_top" xlink:title="Begin iterator to the data generated by the sensor. ">
<polygon fill="white" stroke="black" points="554,-120 554,-150 680,-150 680,-120 554,-120"/>
<text text-anchor="start" x="562" y="-138" font-family="Helvetica,sans-Serif" font-size="10.00">carla::sensor::RawData</text>
<text text-anchor="middle" x="617" y="-127" font-family="Helvetica,sans-Serif" font-size="10.00">::begin</text>
</a>
</g>
</g>
<!-- Node3&#45;&gt;Node4 -->
<g id="edge3" class="edge"><title>Node3&#45;&gt;Node4</title>
<path fill="none" stroke="midnightblue" d="M508.278,-101.569C524.583,-106.629 541.918,-112.009 557.808,-116.94"/>
<polygon fill="midnightblue" stroke="midnightblue" points="556.904,-120.325 567.492,-119.946 558.979,-113.639 556.904,-120.325"/>
</g>
<!-- Node7 -->
<g id="node7" class="node"><title>Node7</title>
<g id="a_node7"><a xlink:href="../../db/ddd/classcarla_1_1sensor_1_1s11n_1_1DVSEventArraySerializer.html#a196530afba7bb7f3779f5be0512ac626" target="_top" xlink:title="carla::sensor::s11n\l::DVSEventArraySerializer\l::Serialize">
<polygon fill="white" stroke="black" points="547,-60.5 547,-101.5 687,-101.5 687,-60.5 547,-60.5"/>
<text text-anchor="start" x="555" y="-89.5" font-family="Helvetica,sans-Serif" font-size="10.00">carla::sensor::s11n</text>
<text text-anchor="start" x="555" y="-78.5" font-family="Helvetica,sans-Serif" font-size="10.00">::DVSEventArraySerializer</text>
<text text-anchor="middle" x="617" y="-67.5" font-family="Helvetica,sans-Serif" font-size="10.00">::Serialize</text>
</a>
</g>
</g>
<!-- Node3&#45;&gt;Node7 -->
<g id="edge6" class="edge"><title>Node3&#45;&gt;Node7</title>
<path fill="none" stroke="midnightblue" d="M511.019,-81C519.476,-81 528.169,-81 536.761,-81"/>
<polygon fill="midnightblue" stroke="midnightblue" points="536.78,-84.5001 546.779,-81 536.779,-77.5001 536.78,-84.5001"/>
</g>
<!-- Node8 -->
<g id="node8" class="node"><title>Node8</title>
<g id="a_node8"><a xlink:href="../../db/ddd/classcarla_1_1sensor_1_1s11n_1_1DVSEventArraySerializer.html#a254e5c69d9ad7f164a405ff38b5e5da4" target="_top" xlink:title="carla::sensor::s11n\l::DVSEventArraySerializer\l::Deserialize">
<polygon fill="white" stroke="black" points="547,-0.5 547,-41.5 687,-41.5 687,-0.5 547,-0.5"/>
<text text-anchor="start" x="555" y="-29.5" font-family="Helvetica,sans-Serif" font-size="10.00">carla::sensor::s11n</text>
<text text-anchor="start" x="555" y="-18.5" font-family="Helvetica,sans-Serif" font-size="10.00">::DVSEventArraySerializer</text>
<text text-anchor="middle" x="617" y="-7.5" font-family="Helvetica,sans-Serif" font-size="10.00">::Deserialize</text>
</a>
</g>
</g>
<!-- Node3&#45;&gt;Node8 -->
<g id="edge7" class="edge"><title>Node3&#45;&gt;Node8</title>
<path fill="none" stroke="midnightblue" d="M501.881,-60.3514C516.316,-55.3739 531.857,-50.0149 546.683,-44.9025"/>
<polygon fill="midnightblue" stroke="midnightblue" points="547.991,-48.1538 556.304,-41.585 545.709,-41.5361 547.991,-48.1538"/>
</g>
<!-- Node5 -->
<g id="node5" class="node"><title>Node5</title>
<g id="a_node5"><a xlink:href="../../d0/d0a/classcarla_1_1Buffer.html#a0afeda4355e6196d808ddf25142d5dbd" target="_top" xlink:title="carla::Buffer::begin">
<polygon fill="white" stroke="black" points="723,-125.5 723,-144.5 830,-144.5 830,-125.5 723,-125.5"/>
<text text-anchor="middle" x="776.5" y="-132.5" font-family="Helvetica,sans-Serif" font-size="10.00">carla::Buffer::begin</text>
</a>
</g>
</g>
<!-- Node4&#45;&gt;Node5 -->
<g id="edge4" class="edge"><title>Node4&#45;&gt;Node5</title>
<path fill="none" stroke="midnightblue" d="M680.248,-135C690.934,-135 702.045,-135 712.745,-135"/>
<polygon fill="midnightblue" stroke="midnightblue" points="712.85,-138.5 722.85,-135 712.849,-131.5 712.85,-138.5"/>
</g>
<!-- Node6 -->
<g id="node6" class="node"><title>Node6</title>
<g id="a_node6"><a xlink:href="../../d0/d0a/classcarla_1_1Buffer.html#acbf9f37162db2ddffaf2ae2bfb9fd8a5" target="_top" xlink:title="carla::Buffer::cbegin">
<polygon fill="white" stroke="black" points="866,-125.5 866,-144.5 978,-144.5 978,-125.5 866,-125.5"/>
<text text-anchor="middle" x="922" y="-132.5" font-family="Helvetica,sans-Serif" font-size="10.00">carla::Buffer::cbegin</text>
</a>
</g>
</g>
<!-- Node5&#45;&gt;Node6 -->
<g id="edge5" class="edge"><title>Node5&#45;&gt;Node6</title>
<path fill="none" stroke="midnightblue" d="M830.119,-135C838.513,-135 847.284,-135 855.925,-135"/>
<polygon fill="midnightblue" stroke="midnightblue" points="855.978,-138.5 865.978,-135 855.978,-131.5 855.978,-138.5"/>
</g>
</g>
</svg>
