<?xml version="1.0" encoding="UTF-8" standalone="no"?>
<!DOCTYPE svg PUBLIC "-//W3C//DTD SVG 1.1//EN"
 "http://www.w3.org/Graphics/SVG/1.1/DTD/svg11.dtd">
<!-- Generated by graphviz version 2.38.0 (20140413.2041)
 -->
<!-- Title: CollisionEventSerializer.h Pages: 1 -->
<svg width="2011pt" height="588pt"
 viewBox="0.00 0.00 2010.50 588.00" xmlns="http://www.w3.org/2000/svg" xmlns:xlink="http://www.w3.org/1999/xlink">
<g id="graph0" class="graph" transform="scale(1 1) rotate(0) translate(4 584)">
<title>CollisionEventSerializer.h</title>
<polygon fill="white" stroke="none" points="-4,4 -4,-584 2006.5,-584 2006.5,4 -4,4"/>
<!-- Node1 -->
<g id="node1" class="node"><title>Node1</title>
<polygon fill="#bfbfbf" stroke="black" points="921,-560.5 921,-579.5 1049,-579.5 1049,-560.5 921,-560.5"/>
<text text-anchor="middle" x="985" y="-567.5" font-family="Helvetica,sans-Serif" font-size="10.00">CollisionEventSerializer.h</text>
</g>
<!-- Node2 -->
<g id="node2" class="node"><title>Node2</title>
<g id="a_node2"><a xlink:href="../../d4/d03/SensorRegistry_8h.html" target="_top" xlink:title="SensorRegistry.h">
<polygon fill="white" stroke="black" points="805,-504.5 805,-523.5 897,-523.5 897,-504.5 805,-504.5"/>
<text text-anchor="middle" x="851" y="-511.5" font-family="Helvetica,sans-Serif" font-size="10.00">SensorRegistry.h</text>
</a>
</g>
</g>
<!-- Node1&#45;&gt;Node2 -->
<g id="edge1" class="edge"><title>Node1&#45;&gt;Node2</title>
<path fill="none" stroke="midnightblue" d="M954.323,-556.638C929.177,-546.504 894.246,-532.427 872.133,-523.516"/>
<polygon fill="midnightblue" stroke="midnightblue" points="953.184,-559.952 963.767,-560.444 955.8,-553.459 953.184,-559.952"/>
</g>
<!-- Node49 -->
<g id="node49" class="node"><title>Node49</title>
<g id="a_node49"><a xlink:href="../../d3/d24/CollisionEvent_8h.html" target="_top" xlink:title="CollisionEvent.h">
<polygon fill="white" stroke="black" points="1013,-504.5 1013,-523.5 1101,-523.5 1101,-504.5 1013,-504.5"/>
<text text-anchor="middle" x="1057" y="-511.5" font-family="Helvetica,sans-Serif" font-size="10.00">CollisionEvent.h</text>
</a>
</g>
</g>
<!-- Node1&#45;&gt;Node49 -->
<g id="edge74" class="edge"><title>Node1&#45;&gt;Node49</title>
<path fill="none" stroke="midnightblue" d="M1004.87,-554.101C1017.82,-544.382 1034.3,-532.027 1045.22,-523.834"/>
<polygon fill="midnightblue" stroke="midnightblue" points="1002.47,-551.524 996.568,-560.324 1006.67,-557.124 1002.47,-551.524"/>
</g>
<!-- Node50 -->
<g id="node50" class="node"><title>Node50</title>
<g id="a_node50"><a xlink:href="../../da/dc7/CollisionEventSerializer_8cpp.html" target="_top" xlink:title="CollisionEventSerializer.cpp">
<polygon fill="white" stroke="black" points="987.5,-448.5 987.5,-467.5 1126.5,-467.5 1126.5,-448.5 987.5,-448.5"/>
<text text-anchor="middle" x="1057" y="-455.5" font-family="Helvetica,sans-Serif" font-size="10.00">CollisionEventSerializer.cpp</text>
</a>
</g>
</g>
<!-- Node1&#45;&gt;Node50 -->
<g id="edge76" class="edge"><title>Node1&#45;&gt;Node50</title>
<path fill="none" stroke="midnightblue" d="M987.531,-550.196C990.047,-536.521 994.9,-518.023 1004,-504 1013.99,-488.609 1030.8,-475.631 1042.81,-467.626"/>
<polygon fill="midnightblue" stroke="midnightblue" points="984.031,-549.922 985.925,-560.346 990.945,-551.016 984.031,-549.922"/>
</g>
<!-- Node3 -->
<g id="node3" class="node"><title>Node3</title>
<g id="a_node3"><a xlink:href="../../df/d2e/PixelReader_8h.html" target="_top" xlink:title="PixelReader.h">
<polygon fill="white" stroke="black" points="1576,-224.5 1576,-243.5 1654,-243.5 1654,-224.5 1576,-224.5"/>
<text text-anchor="middle" x="1615" y="-231.5" font-family="Helvetica,sans-Serif" font-size="10.00">PixelReader.h</text>
</a>
</g>
</g>
<!-- Node2&#45;&gt;Node3 -->
<g id="edge2" class="edge"><title>Node2&#45;&gt;Node3</title>
<path fill="none" stroke="midnightblue" d="M890.721,-500.595C907.7,-493.488 926.458,-482.942 939,-468 958.432,-444.849 959,-433.225 959,-403 959,-403 959,-403 959,-345 959,-282.064 1434.7,-246.548 1575.93,-237.391"/>
<polygon fill="midnightblue" stroke="midnightblue" points="889.036,-497.495 880.99,-504.389 891.579,-504.017 889.036,-497.495"/>
</g>
<!-- Node21 -->
<g id="node21" class="node"><title>Node21</title>
<g id="a_node21"><a xlink:href="../../d9/d4d/AsyncDataStream_8h.html" target="_top" xlink:title="AsyncDataStream.h">
<polygon fill="white" stroke="black" points="663.5,-448.5 663.5,-467.5 768.5,-467.5 768.5,-448.5 663.5,-448.5"/>
<text text-anchor="middle" x="716" y="-455.5" font-family="Helvetica,sans-Serif" font-size="10.00">AsyncDataStream.h</text>
</a>
</g>
</g>
<!-- Node2&#45;&gt;Node21 -->
<g id="edge24" class="edge"><title>Node2&#45;&gt;Node21</title>
<path fill="none" stroke="midnightblue" d="M820.094,-500.638C794.76,-490.504 759.569,-476.427 737.291,-467.516"/>
<polygon fill="midnightblue" stroke="midnightblue" points="819.024,-503.979 829.609,-504.444 821.624,-497.48 819.024,-503.979"/>
</g>
<!-- Node34 -->
<g id="node34" class="node"><title>Node34</title>
<g id="a_node34"><a xlink:href="../../d0/dde/SensorFactory_8cpp.html" target="_top" xlink:title="SensorFactory.cpp">
<polygon fill="white" stroke="black" points="304.5,-56.5 304.5,-75.5 403.5,-75.5 403.5,-56.5 304.5,-56.5"/>
<text text-anchor="middle" x="354" y="-63.5" font-family="Helvetica,sans-Serif" font-size="10.00">SensorFactory.cpp</text>
</a>
</g>
</g>
<!-- Node2&#45;&gt;Node34 -->
<g id="edge71" class="edge"><title>Node2&#45;&gt;Node34</title>
<path fill="none" stroke="midnightblue" d="M794.907,-511.667C605.293,-506.429 0,-483.409 0,-403 0,-403 0,-403 0,-177 0,-114.011 206.979,-83.0351 304.405,-71.9438"/>
<polygon fill="midnightblue" stroke="midnightblue" points="794.854,-515.167 804.945,-511.939 795.043,-508.17 794.854,-515.167"/>
</g>
<!-- Node45 -->
<g id="node45" class="node"><title>Node45</title>
<g id="a_node45"><a xlink:href="../../d9/de7/WorldObserver_8cpp.html" target="_top" xlink:title="WorldObserver.cpp">
<polygon fill="white" stroke="black" points="647.5,-280.5 647.5,-299.5 748.5,-299.5 748.5,-280.5 647.5,-280.5"/>
<text text-anchor="middle" x="698" y="-287.5" font-family="Helvetica,sans-Serif" font-size="10.00">WorldObserver.cpp</text>
</a>
</g>
</g>
<!-- Node2&#45;&gt;Node45 -->
<g id="edge72" class="edge"><title>Node2&#45;&gt;Node45</title>
<path fill="none" stroke="midnightblue" d="M839.285,-496.002C808.685,-451.601 727.134,-333.273 704.123,-299.884"/>
<polygon fill="midnightblue" stroke="midnightblue" points="836.446,-498.05 845.002,-504.297 842.209,-494.077 836.446,-498.05"/>
</g>
<!-- Node48 -->
<g id="node48" class="node"><title>Node48</title>
<g id="a_node48"><a xlink:href="../../d0/d1a/Deserializer_8cpp.html" target="_top" xlink:title="Deserializer.cpp">
<polygon fill="white" stroke="black" points="843.5,-448.5 843.5,-467.5 930.5,-467.5 930.5,-448.5 843.5,-448.5"/>
<text text-anchor="middle" x="887" y="-455.5" font-family="Helvetica,sans-Serif" font-size="10.00">Deserializer.cpp</text>
</a>
</g>
</g>
<!-- Node2&#45;&gt;Node48 -->
<g id="edge73" class="edge"><title>Node2&#45;&gt;Node48</title>
<path fill="none" stroke="midnightblue" d="M862.623,-495.566C868.817,-486.275 876.168,-475.248 881.166,-467.751"/>
<polygon fill="midnightblue" stroke="midnightblue" points="859.58,-493.821 856.945,-504.083 865.404,-497.704 859.58,-493.821"/>
</g>
<!-- Node4 -->
<g id="node4" class="node"><title>Node4</title>
<g id="a_node4"><a xlink:href="../../d8/d95/SceneCaptureSensor_8h.html" target="_top" xlink:title="SceneCaptureSensor.h">
<polygon fill="white" stroke="black" points="1361,-168.5 1361,-187.5 1479,-187.5 1479,-168.5 1361,-168.5"/>
<text text-anchor="middle" x="1420" y="-175.5" font-family="Helvetica,sans-Serif" font-size="10.00">SceneCaptureSensor.h</text>
</a>
</g>
</g>
<!-- Node3&#45;&gt;Node4 -->
<g id="edge3" class="edge"><title>Node3&#45;&gt;Node4</title>
<path fill="none" stroke="midnightblue" d="M1574.19,-221.699C1537.39,-211.507 1484.07,-196.743 1450.75,-187.516"/>
<polygon fill="midnightblue" stroke="midnightblue" points="1573.53,-225.148 1584.1,-224.444 1575.4,-218.402 1573.53,-225.148"/>
</g>
<!-- Node8 -->
<g id="node8" class="node"><title>Node8</title>
<g id="a_node8"><a xlink:href="../../d7/d0e/DepthCamera_8cpp.html" target="_top" xlink:title="DepthCamera.cpp">
<polygon fill="white" stroke="black" points="1849,-0.5 1849,-19.5 1945,-19.5 1945,-0.5 1849,-0.5"/>
<text text-anchor="middle" x="1897" y="-7.5" font-family="Helvetica,sans-Serif" font-size="10.00">DepthCamera.cpp</text>
</a>
</g>
</g>
<!-- Node3&#45;&gt;Node8 -->
<g id="edge20" class="edge"><title>Node3&#45;&gt;Node8</title>
<path fill="none" stroke="midnightblue" d="M1651.58,-221.105C1708.59,-200.678 1818.29,-153.482 1878,-76 1891.06,-59.0514 1895.15,-33.3485 1896.43,-19.9052"/>
<polygon fill="midnightblue" stroke="midnightblue" points="1650.18,-217.886 1641.9,-224.496 1652.49,-224.492 1650.18,-217.886"/>
</g>
<!-- Node13 -->
<g id="node13" class="node"><title>Node13</title>
<g id="a_node13"><a xlink:href="../../dc/d56/SceneCaptureCamera_8h.html" target="_top" xlink:title="SceneCaptureCamera.h">
<polygon fill="white" stroke="black" points="1747,-56.5 1747,-75.5 1869,-75.5 1869,-56.5 1747,-56.5"/>
<text text-anchor="middle" x="1808" y="-63.5" font-family="Helvetica,sans-Serif" font-size="10.00">SceneCaptureCamera.h</text>
</a>
</g>
</g>
<!-- Node3&#45;&gt;Node13 -->
<g id="edge22" class="edge"><title>Node3&#45;&gt;Node13</title>
<path fill="none" stroke="midnightblue" d="M1633.17,-217.371C1673.05,-183.073 1767.13,-102.157 1798,-75.6051"/>
<polygon fill="midnightblue" stroke="midnightblue" points="1630.4,-215.134 1625.1,-224.309 1634.97,-220.441 1630.4,-215.134"/>
</g>
<!-- Node16 -->
<g id="node16" class="node"><title>Node16</title>
<g id="a_node16"><a xlink:href="../../d9/d38/SemanticSegmentationCamera_8cpp.html" target="_top" xlink:title="SemanticSegmentationCamera.cpp">
<polygon fill="white" stroke="black" points="1470.5,-0.5 1470.5,-19.5 1641.5,-19.5 1641.5,-0.5 1470.5,-0.5"/>
<text text-anchor="middle" x="1556" y="-7.5" font-family="Helvetica,sans-Serif" font-size="10.00">SemanticSegmentationCamera.cpp</text>
</a>
</g>
</g>
<!-- Node3&#45;&gt;Node16 -->
<g id="edge23" class="edge"><title>Node3&#45;&gt;Node16</title>
<path fill="none" stroke="midnightblue" d="M1616.41,-214.313C1618.19,-180.974 1618.55,-109.708 1595,-56 1588.61,-41.4197 1575.79,-28.0968 1566.59,-19.7948"/>
<polygon fill="midnightblue" stroke="midnightblue" points="1612.91,-214.229 1615.76,-224.432 1619.9,-214.677 1612.91,-214.229"/>
</g>
<!-- Node19 -->
<g id="node19" class="node"><title>Node19</title>
<g id="a_node19"><a xlink:href="../../d2/de5/RoadMap_8cpp.html" target="_top" xlink:title="RoadMap.cpp">
<polygon fill="white" stroke="black" points="1925.5,-168.5 1925.5,-187.5 2002.5,-187.5 2002.5,-168.5 1925.5,-168.5"/>
<text text-anchor="middle" x="1964" y="-175.5" font-family="Helvetica,sans-Serif" font-size="10.00">RoadMap.cpp</text>
</a>
</g>
</g>
<!-- Node3&#45;&gt;Node19 -->
<g id="edge19" class="edge"><title>Node3&#45;&gt;Node19</title>
<path fill="none" stroke="midnightblue" d="M1664.42,-225.755C1723.22,-217.072 1824.34,-201.944 1911,-188 1915.61,-187.259 1920.44,-186.464 1925.23,-185.664"/>
<polygon fill="midnightblue" stroke="midnightblue" points="1663.68,-222.326 1654.3,-227.247 1664.7,-229.251 1663.68,-222.326"/>
</g>
<!-- Node20 -->
<g id="node20" class="node"><title>Node20</title>
<g id="a_node20"><a xlink:href="../../dc/db0/PixelReader_8cpp.html" target="_top" xlink:title="PixelReader.cpp">
<polygon fill="white" stroke="black" points="1497.5,-168.5 1497.5,-187.5 1586.5,-187.5 1586.5,-168.5 1497.5,-168.5"/>
<text text-anchor="middle" x="1542" y="-175.5" font-family="Helvetica,sans-Serif" font-size="10.00">PixelReader.cpp</text>
</a>
</g>
</g>
<!-- Node3&#45;&gt;Node20 -->
<g id="edge21" class="edge"><title>Node3&#45;&gt;Node20</title>
<path fill="none" stroke="midnightblue" d="M1594.86,-218.101C1581.72,-208.382 1565.02,-196.027 1553.94,-187.834"/>
<polygon fill="midnightblue" stroke="midnightblue" points="1593.15,-221.191 1603.27,-224.324 1597.31,-215.563 1593.15,-221.191"/>
</g>
<!-- Node5 -->
<g id="node5" class="node"><title>Node5</title>
<g id="a_node5"><a xlink:href="../../dd/d08/ActorBlueprintFunctionLibrary_8cpp.html" target="_top" xlink:title="ActorBlueprintFunctionLibrary.cpp">
<polygon fill="white" stroke="black" points="872,-56.5 872,-75.5 1036,-75.5 1036,-56.5 872,-56.5"/>
<text text-anchor="middle" x="954" y="-63.5" font-family="Helvetica,sans-Serif" font-size="10.00">ActorBlueprintFunctionLibrary.cpp</text>
</a>
</g>
</g>
<!-- Node4&#45;&gt;Node5 -->
<g id="edge4" class="edge"><title>Node4&#45;&gt;Node5</title>
<path fill="none" stroke="midnightblue" d="M1415.15,-158.202C1410.2,-143.09 1400.94,-122.68 1385,-112 1383.2,-110.794 1160.73,-88.0138 1036.17,-75.339"/>
<polygon fill="midnightblue" stroke="midnightblue" points="1411.86,-159.435 1418.02,-168.055 1418.58,-157.475 1411.86,-159.435"/>
</g>
<!-- Node6 -->
<g id="node6" class="node"><title>Node6</title>
<g id="a_node6"><a xlink:href="../../da/d69/ShaderBasedSensor_8h.html" target="_top" xlink:title="ShaderBasedSensor.h">
<polygon fill="white" stroke="black" points="1437,-112.5 1437,-131.5 1551,-131.5 1551,-112.5 1437,-112.5"/>
<text text-anchor="middle" x="1494" y="-119.5" font-family="Helvetica,sans-Serif" font-size="10.00">ShaderBasedSensor.h</text>
</a>
</g>
</g>
<!-- Node4&#45;&gt;Node6 -->
<g id="edge5" class="edge"><title>Node4&#45;&gt;Node6</title>
<path fill="none" stroke="midnightblue" d="M1440.03,-162.38C1453.41,-152.62 1470.56,-140.106 1481.89,-131.834"/>
<polygon fill="midnightblue" stroke="midnightblue" points="1437.9,-159.602 1431.89,-168.324 1442.03,-165.257 1437.9,-159.602"/>
</g>
<!-- Node18 -->
<g id="node18" class="node"><title>Node18</title>
<g id="a_node18"><a xlink:href="../../db/d2d/SceneCaptureSensor_8cpp.html" target="_top" xlink:title="SceneCaptureSensor.cpp">
<polygon fill="white" stroke="black" points="711,-56.5 711,-75.5 839,-75.5 839,-56.5 711,-56.5"/>
<text text-anchor="middle" x="775" y="-63.5" font-family="Helvetica,sans-Serif" font-size="10.00">SceneCaptureSensor.cpp</text>
</a>
</g>
</g>
<!-- Node4&#45;&gt;Node18 -->
<g id="edge18" class="edge"><title>Node4&#45;&gt;Node18</title>
<path fill="none" stroke="midnightblue" d="M1407.11,-160.5C1393.88,-144.947 1371.78,-122.504 1347,-112 1247.7,-69.914 970.435,-85.4875 863,-76 855.351,-75.3245 847.333,-74.5696 839.382,-73.792"/>
<polygon fill="midnightblue" stroke="midnightblue" points="1404.46,-162.792 1413.5,-168.313 1409.88,-158.358 1404.46,-162.792"/>
</g>
<!-- Node6&#45;&gt;Node5 -->
<g id="edge6" class="edge"><title>Node6&#45;&gt;Node5</title>
<path fill="none" stroke="midnightblue" d="M1426.36,-112.377C1425.23,-112.249 1424.11,-112.123 1423,-112 1255.27,-93.3866 1212.97,-92.3048 1045,-76 1042.16,-75.7239 1039.26,-75.4422 1036.34,-75.1569"/>
<polygon fill="midnightblue" stroke="midnightblue" points="1426.33,-115.897 1436.67,-113.577 1427.14,-108.944 1426.33,-115.897"/>
</g>
<!-- Node7 -->
<g id="node7" class="node"><title>Node7</title>
<g id="a_node7"><a xlink:href="../../da/d7d/DepthCamera_8h.html" target="_top" xlink:title="DepthCamera.h">
<polygon fill="white" stroke="black" points="1643,-56.5 1643,-75.5 1729,-75.5 1729,-56.5 1643,-56.5"/>
<text text-anchor="middle" x="1686" y="-63.5" font-family="Helvetica,sans-Serif" font-size="10.00">DepthCamera.h</text>
</a>
</g>
</g>
<!-- Node6&#45;&gt;Node7 -->
<g id="edge7" class="edge"><title>Node6&#45;&gt;Node7</title>
<path fill="none" stroke="midnightblue" d="M1534.18,-109.699C1570.42,-99.507 1622.91,-84.7429 1655.72,-75.5164"/>
<polygon fill="midnightblue" stroke="midnightblue" points="1533.1,-106.367 1524.42,-112.444 1535,-113.105 1533.1,-106.367"/>
</g>
<!-- Node9 -->
<g id="node9" class="node"><title>Node9</title>
<g id="a_node9"><a xlink:href="../../d7/d86/Unreal_2CarlaUE4_2Plugins_2Carla_2Source_2Carla_2Sensor_2GnssSensor_8h.html" target="_top" xlink:title="GnssSensor.h">
<polygon fill="white" stroke="black" points="1054.5,-56.5 1054.5,-75.5 1133.5,-75.5 1133.5,-56.5 1054.5,-56.5"/>
<text text-anchor="middle" x="1094" y="-63.5" font-family="Helvetica,sans-Serif" font-size="10.00">GnssSensor.h</text>
</a>
</g>
</g>
<!-- Node6&#45;&gt;Node9 -->
<g id="edge9" class="edge"><title>Node6&#45;&gt;Node9</title>
<path fill="none" stroke="midnightblue" d="M1426.89,-112.471C1326.71,-99.7313 1148.98,-77.0992 1142,-76 1139.24,-75.5646 1136.39,-75.0919 1133.52,-74.5988"/>
<polygon fill="midnightblue" stroke="midnightblue" points="1426.57,-115.958 1436.93,-113.747 1427.45,-109.014 1426.57,-115.958"/>
</g>
<!-- Node11 -->
<g id="node11" class="node"><title>Node11</title>
<g id="a_node11"><a xlink:href="../../d8/d48/Unreal_2CarlaUE4_2Plugins_2Carla_2Source_2Carla_2Sensor_2LaneInvasionSensor_8h.html" target="_top" xlink:title="LaneInvasionSensor.h">
<polygon fill="white" stroke="black" points="1294.5,-56.5 1294.5,-75.5 1407.5,-75.5 1407.5,-56.5 1294.5,-56.5"/>
<text text-anchor="middle" x="1351" y="-63.5" font-family="Helvetica,sans-Serif" font-size="10.00">LaneInvasionSensor.h</text>
</a>
</g>
</g>
<!-- Node6&#45;&gt;Node11 -->
<g id="edge11" class="edge"><title>Node6&#45;&gt;Node11</title>
<path fill="none" stroke="midnightblue" d="M1461.97,-108.906C1435.09,-98.7536 1397.36,-84.5063 1373.55,-75.5164"/>
<polygon fill="midnightblue" stroke="midnightblue" points="1460.75,-112.185 1471.34,-112.444 1463.22,-105.636 1460.75,-112.185"/>
</g>
<!-- Node6&#45;&gt;Node13 -->
<g id="edge13" class="edge"><title>Node6&#45;&gt;Node13</title>
<path fill="none" stroke="midnightblue" d="M1553.73,-110.727C1613.07,-100.523 1702.99,-85.0583 1758.48,-75.5164"/>
<polygon fill="midnightblue" stroke="midnightblue" points="1553.02,-107.299 1543.75,-112.444 1554.2,-114.198 1553.02,-107.299"/>
</g>
<!-- Node15 -->
<g id="node15" class="node"><title>Node15</title>
<g id="a_node15"><a xlink:href="../../de/d13/SemanticSegmentationCamera_8h.html" target="_top" xlink:title="SemanticSegmentationCamera.h">
<polygon fill="white" stroke="black" points="1425.5,-56.5 1425.5,-75.5 1586.5,-75.5 1586.5,-56.5 1425.5,-56.5"/>
<text text-anchor="middle" x="1506" y="-63.5" font-family="Helvetica,sans-Serif" font-size="10.00">SemanticSegmentationCamera.h</text>
</a>
</g>
</g>
<!-- Node6&#45;&gt;Node15 -->
<g id="edge15" class="edge"><title>Node6&#45;&gt;Node15</title>
<path fill="none" stroke="midnightblue" d="M1498.2,-102.101C1500.19,-93.1357 1502.48,-82.8579 1504.06,-75.7511"/>
<polygon fill="midnightblue" stroke="midnightblue" points="1494.73,-101.562 1495.98,-112.083 1501.57,-103.08 1494.73,-101.562"/>
</g>
<!-- Node17 -->
<g id="node17" class="node"><title>Node17</title>
<g id="a_node17"><a xlink:href="../../da/d96/ShaderBasedSensor_8cpp.html" target="_top" xlink:title="ShaderBasedSensor.cpp">
<polygon fill="white" stroke="black" points="1151.5,-56.5 1151.5,-75.5 1276.5,-75.5 1276.5,-56.5 1151.5,-56.5"/>
<text text-anchor="middle" x="1214" y="-63.5" font-family="Helvetica,sans-Serif" font-size="10.00">ShaderBasedSensor.cpp</text>
</a>
</g>
</g>
<!-- Node6&#45;&gt;Node17 -->
<g id="edge17" class="edge"><title>Node6&#45;&gt;Node17</title>
<path fill="none" stroke="midnightblue" d="M1439.75,-110.537C1386.83,-100.332 1307.33,-84.9992 1258.16,-75.5164"/>
<polygon fill="midnightblue" stroke="midnightblue" points="1439.15,-113.986 1449.63,-112.444 1440.48,-107.113 1439.15,-113.986"/>
</g>
<!-- Node7&#45;&gt;Node8 -->
<g id="edge8" class="edge"><title>Node7&#45;&gt;Node8</title>
<path fill="none" stroke="midnightblue" d="M1729.14,-53.959C1768.99,-43.7598 1827.36,-28.8217 1863.72,-19.5164"/>
<polygon fill="midnightblue" stroke="midnightblue" points="1728.25,-50.5734 1719.43,-56.4435 1729.99,-57.3549 1728.25,-50.5734"/>
</g>
<!-- Node10 -->
<g id="node10" class="node"><title>Node10</title>
<g id="a_node10"><a xlink:href="../../d0/d33/Unreal_2CarlaUE4_2Plugins_2Carla_2Source_2Carla_2Sensor_2GnssSensor_8cpp.html" target="_top" xlink:title="GnssSensor.cpp">
<polygon fill="white" stroke="black" points="1049.5,-0.5 1049.5,-19.5 1138.5,-19.5 1138.5,-0.5 1049.5,-0.5"/>
<text text-anchor="middle" x="1094" y="-7.5" font-family="Helvetica,sans-Serif" font-size="10.00">GnssSensor.cpp</text>
</a>
</g>
</g>
<!-- Node9&#45;&gt;Node10 -->
<g id="edge10" class="edge"><title>Node9&#45;&gt;Node10</title>
<path fill="none" stroke="midnightblue" d="M1094,-45.8045C1094,-36.9102 1094,-26.7798 1094,-19.7511"/>
<polygon fill="midnightblue" stroke="midnightblue" points="1090.5,-46.083 1094,-56.083 1097.5,-46.083 1090.5,-46.083"/>
</g>
<!-- Node12 -->
<g id="node12" class="node"><title>Node12</title>
<g id="a_node12"><a xlink:href="../../d4/d9b/Unreal_2CarlaUE4_2Plugins_2Carla_2Source_2Carla_2Sensor_2LaneInvasionSensor_8cpp.html" target="_top" xlink:title="LaneInvasionSensor.cpp">
<polygon fill="white" stroke="black" points="1289,-0.5 1289,-19.5 1413,-19.5 1413,-0.5 1289,-0.5"/>
<text text-anchor="middle" x="1351" y="-7.5" font-family="Helvetica,sans-Serif" font-size="10.00">LaneInvasionSensor.cpp</text>
</a>
</g>
</g>
<!-- Node11&#45;&gt;Node12 -->
<g id="edge12" class="edge"><title>Node11&#45;&gt;Node12</title>
<path fill="none" stroke="midnightblue" d="M1351,-45.8045C1351,-36.9102 1351,-26.7798 1351,-19.7511"/>
<polygon fill="midnightblue" stroke="midnightblue" points="1347.5,-46.083 1351,-56.083 1354.5,-46.083 1347.5,-46.083"/>
</g>
<!-- Node14 -->
<g id="node14" class="node"><title>Node14</title>
<g id="a_node14"><a xlink:href="../../d1/dec/SceneCaptureCamera_8cpp.html" target="_top" xlink:title="SceneCaptureCamera.cpp">
<polygon fill="white" stroke="black" points="1699,-0.5 1699,-19.5 1831,-19.5 1831,-0.5 1699,-0.5"/>
<text text-anchor="middle" x="1765" y="-7.5" font-family="Helvetica,sans-Serif" font-size="10.00">SceneCaptureCamera.cpp</text>
</a>
</g>
</g>
<!-- Node13&#45;&gt;Node14 -->
<g id="edge14" class="edge"><title>Node13&#45;&gt;Node14</title>
<path fill="none" stroke="midnightblue" d="M1794.58,-48.144C1787.09,-38.7357 1778.06,-27.4046 1771.97,-19.7511"/>
<polygon fill="midnightblue" stroke="midnightblue" points="1791.93,-50.4404 1800.9,-56.083 1797.41,-46.0799 1791.93,-50.4404"/>
</g>
<!-- Node15&#45;&gt;Node16 -->
<g id="edge16" class="edge"><title>Node15&#45;&gt;Node16</title>
<path fill="none" stroke="midnightblue" d="M1521.08,-48.7175C1529.89,-39.1997 1540.67,-27.5608 1547.9,-19.7511"/>
<polygon fill="midnightblue" stroke="midnightblue" points="1518.48,-46.3674 1514.26,-56.083 1523.62,-51.1233 1518.48,-46.3674"/>
</g>
<!-- Node22 -->
<g id="node22" class="node"><title>Node22</title>
<g id="a_node22"><a xlink:href="../../da/dd9/DataStream_8h.html" target="_top" xlink:title="DataStream.h">
<polygon fill="white" stroke="black" points="613.5,-392.5 613.5,-411.5 690.5,-411.5 690.5,-392.5 613.5,-392.5"/>
<text text-anchor="middle" x="652" y="-399.5" font-family="Helvetica,sans-Serif" font-size="10.00">DataStream.h</text>
</a>
</g>
</g>
<!-- Node21&#45;&gt;Node22 -->
<g id="edge25" class="edge"><title>Node21&#45;&gt;Node22</title>
<path fill="none" stroke="midnightblue" d="M698.009,-441.82C686.542,-432.145 672.087,-419.948 662.47,-411.834"/>
<polygon fill="midnightblue" stroke="midnightblue" points="695.817,-444.55 705.717,-448.324 700.331,-439.2 695.817,-444.55"/>
</g>
<!-- Node23 -->
<g id="node23" class="node"><title>Node23</title>
<g id="a_node23"><a xlink:href="../../d8/deb/WorldObserver_8h.html" target="_top" xlink:title="WorldObserver.h">
<polygon fill="white" stroke="black" points="598,-336.5 598,-355.5 688,-355.5 688,-336.5 598,-336.5"/>
<text text-anchor="middle" x="643" y="-343.5" font-family="Helvetica,sans-Serif" font-size="10.00">WorldObserver.h</text>
</a>
</g>
</g>
<!-- Node22&#45;&gt;Node23 -->
<g id="edge26" class="edge"><title>Node22&#45;&gt;Node23</title>
<path fill="none" stroke="midnightblue" d="M648.85,-382.101C647.356,-373.136 645.643,-362.858 644.459,-355.751"/>
<polygon fill="midnightblue" stroke="midnightblue" points="645.417,-382.794 650.514,-392.083 652.322,-381.644 645.417,-382.794"/>
</g>
<!-- Node25 -->
<g id="node25" class="node"><title>Node25</title>
<g id="a_node25"><a xlink:href="../../d7/d7d/Unreal_2CarlaUE4_2Plugins_2Carla_2Source_2Carla_2Sensor_2Sensor_8h.html" target="_top" xlink:title="Sensor.h">
<polygon fill="white" stroke="black" points="1020,-224.5 1020,-243.5 1076,-243.5 1076,-224.5 1020,-224.5"/>
<text text-anchor="middle" x="1048" y="-231.5" font-family="Helvetica,sans-Serif" font-size="10.00">Sensor.h</text>
</a>
</g>
</g>
<!-- Node22&#45;&gt;Node25 -->
<g id="edge70" class="edge"><title>Node22&#45;&gt;Node25</title>
<path fill="none" stroke="midnightblue" d="M682.045,-388.405C759.068,-356.118 962.089,-271.013 1027.43,-243.624"/>
<polygon fill="midnightblue" stroke="midnightblue" points="680.326,-385.331 672.457,-392.425 683.032,-391.786 680.326,-385.331"/>
</g>
<!-- Node46 -->
<g id="node46" class="node"><title>Node46</title>
<g id="a_node46"><a xlink:href="../../d0/d35/CarlaServer_8h.html" target="_top" xlink:title="CarlaServer.h">
<polygon fill="white" stroke="black" points="444.5,-336.5 444.5,-355.5 521.5,-355.5 521.5,-336.5 444.5,-336.5"/>
<text text-anchor="middle" x="483" y="-343.5" font-family="Helvetica,sans-Serif" font-size="10.00">CarlaServer.h</text>
</a>
</g>
</g>
<!-- Node22&#45;&gt;Node46 -->
<g id="edge65" class="edge"><title>Node22&#45;&gt;Node46</title>
<path fill="none" stroke="midnightblue" d="M615.397,-389.304C583.553,-379.129 538.158,-364.625 509.653,-355.516"/>
<polygon fill="midnightblue" stroke="midnightblue" points="614.631,-392.734 625.221,-392.444 616.761,-386.066 614.631,-392.734"/>
</g>
<!-- Node24 -->
<g id="node24" class="node"><title>Node24</title>
<g id="a_node24"><a xlink:href="../../de/db8/CarlaEpisode_8h.html" target="_top" xlink:title="CarlaEpisode.h">
<polygon fill="white" stroke="black" points="546.5,-280.5 546.5,-299.5 629.5,-299.5 629.5,-280.5 546.5,-280.5"/>
<text text-anchor="middle" x="588" y="-287.5" font-family="Helvetica,sans-Serif" font-size="10.00">CarlaEpisode.h</text>
</a>
</g>
</g>
<!-- Node23&#45;&gt;Node24 -->
<g id="edge27" class="edge"><title>Node23&#45;&gt;Node24</title>
<path fill="none" stroke="midnightblue" d="M626.706,-329.002C616.959,-319.433 604.947,-307.639 596.913,-299.751"/>
<polygon fill="midnightblue" stroke="midnightblue" points="624.33,-331.575 633.918,-336.083 629.234,-326.58 624.33,-331.575"/>
</g>
<!-- Node41 -->
<g id="node41" class="node"><title>Node41</title>
<g id="a_node41"><a xlink:href="../../d0/d11/CarlaEngine_8h.html" target="_top" xlink:title="CarlaEngine.h">
<polygon fill="white" stroke="black" points="444,-280.5 444,-299.5 522,-299.5 522,-280.5 444,-280.5"/>
<text text-anchor="middle" x="483" y="-287.5" font-family="Helvetica,sans-Serif" font-size="10.00">CarlaEngine.h</text>
</a>
</g>
</g>
<!-- Node23&#45;&gt;Node41 -->
<g id="edge53" class="edge"><title>Node23&#45;&gt;Node41</title>
<path fill="none" stroke="midnightblue" d="M607.954,-333.172C577.826,-323.004 535.104,-308.585 508.234,-299.516"/>
<polygon fill="midnightblue" stroke="midnightblue" points="607.053,-336.562 617.648,-336.444 609.292,-329.929 607.053,-336.562"/>
</g>
<!-- Node23&#45;&gt;Node45 -->
<g id="edge64" class="edge"><title>Node23&#45;&gt;Node45</title>
<path fill="none" stroke="midnightblue" d="M659.294,-329.002C669.041,-319.433 681.053,-307.639 689.087,-299.751"/>
<polygon fill="midnightblue" stroke="midnightblue" points="656.766,-326.58 652.082,-336.083 661.67,-331.575 656.766,-326.58"/>
</g>
<!-- Node24&#45;&gt;Node25 -->
<g id="edge28" class="edge"><title>Node24&#45;&gt;Node25</title>
<path fill="none" stroke="midnightblue" d="M639.918,-279.802C788.477,-258.622 954.314,-243.19 1019.58,-237.441"/>
<polygon fill="midnightblue" stroke="midnightblue" points="639.107,-276.383 629.707,-281.271 640.103,-283.312 639.107,-276.383"/>
</g>
<!-- Node26 -->
<g id="node26" class="node"><title>Node26</title>
<g id="a_node26"><a xlink:href="../../d6/dd9/CarlaEpisode_8cpp.html" target="_top" xlink:title="CarlaEpisode.cpp">
<polygon fill="white" stroke="black" points="756,-168.5 756,-187.5 850,-187.5 850,-168.5 756,-168.5"/>
<text text-anchor="middle" x="803" y="-175.5" font-family="Helvetica,sans-Serif" font-size="10.00">CarlaEpisode.cpp</text>
</a>
</g>
</g>
<!-- Node24&#45;&gt;Node26 -->
<g id="edge50" class="edge"><title>Node24&#45;&gt;Node26</title>
<path fill="none" stroke="midnightblue" d="M635.421,-278.054C673.717,-268.685 724.079,-255.005 742,-244 766.529,-228.937 787.616,-201.449 797.314,-187.543"/>
<polygon fill="midnightblue" stroke="midnightblue" points="634.373,-274.707 625.475,-280.458 636.017,-281.511 634.373,-274.707"/>
</g>
<!-- Node28 -->
<g id="node28" class="node"><title>Node28</title>
<g id="a_node28"><a xlink:href="../../da/df0/CollisionSensor_8cpp.html" target="_top" xlink:title="CollisionSensor.cpp">
<polygon fill="white" stroke="black" points="532,-112.5 532,-131.5 636,-131.5 636,-112.5 532,-112.5"/>
<text text-anchor="middle" x="584" y="-119.5" font-family="Helvetica,sans-Serif" font-size="10.00">CollisionSensor.cpp</text>
</a>
</g>
</g>
<!-- Node24&#45;&gt;Node28 -->
<g id="edge51" class="edge"><title>Node24&#45;&gt;Node28</title>
<path fill="none" stroke="midnightblue" d="M602.099,-272.405C620.295,-248.861 647.837,-204.556 632,-168 625.189,-152.278 609.88,-139.531 598.37,-131.67"/>
<polygon fill="midnightblue" stroke="midnightblue" points="599.244,-270.371 595.693,-280.353 604.694,-274.764 599.244,-270.371"/>
</g>
<!-- Node30 -->
<g id="node30" class="node"><title>Node30</title>
<g id="a_node30"><a xlink:href="../../d2/d70/ObstacleDetectionSensor_8cpp.html" target="_top" xlink:title="ObstacleDetectionSensor.cpp">
<polygon fill="white" stroke="black" points="654.5,-112.5 654.5,-131.5 801.5,-131.5 801.5,-112.5 654.5,-112.5"/>
<text text-anchor="middle" x="728" y="-119.5" font-family="Helvetica,sans-Serif" font-size="10.00">ObstacleDetectionSensor.cpp</text>
</a>
</g>
</g>
<!-- Node24&#45;&gt;Node30 -->
<g id="edge52" class="edge"><title>Node24&#45;&gt;Node30</title>
<path fill="none" stroke="midnightblue" d="M607.789,-274.107C618.215,-265.804 630.897,-254.951 641,-244 676.438,-205.585 710.118,-152.457 722.75,-131.752"/>
<polygon fill="midnightblue" stroke="midnightblue" points="605.41,-271.524 599.669,-280.428 609.71,-277.047 605.41,-271.524"/>
</g>
<!-- Node35 -->
<g id="node35" class="node"><title>Node35</title>
<g id="a_node35"><a xlink:href="../../d9/dc8/CarlaStatics_8h.html" target="_top" xlink:title="CarlaStatics.h">
<polygon fill="white" stroke="black" points="434.5,-112.5 434.5,-131.5 513.5,-131.5 513.5,-112.5 434.5,-112.5"/>
<text text-anchor="middle" x="474" y="-119.5" font-family="Helvetica,sans-Serif" font-size="10.00">CarlaStatics.h</text>
</a>
</g>
</g>
<!-- Node24&#45;&gt;Node35 -->
<g id="edge39" class="edge"><title>Node24&#45;&gt;Node35</title>
<path fill="none" stroke="midnightblue" d="M573.928,-272.594C562.37,-259.275 545.447,-240.128 530,-224 514.13,-207.43 504.83,-207.659 493,-188 481.967,-169.666 477.018,-144.548 475.079,-131.558"/>
<polygon fill="midnightblue" stroke="midnightblue" points="571.494,-275.131 580.678,-280.414 576.793,-270.557 571.494,-275.131"/>
</g>
<!-- Node39 -->
<g id="node39" class="node"><title>Node39</title>
<g id="a_node39"><a xlink:href="../../d3/d49/CarlaGameModeBase_8h.html" target="_top" xlink:title="CarlaGameModeBase.h">
<polygon fill="white" stroke="red" points="502.5,-168.5 502.5,-187.5 623.5,-187.5 623.5,-168.5 502.5,-168.5"/>
<text text-anchor="middle" x="563" y="-175.5" font-family="Helvetica,sans-Serif" font-size="10.00">CarlaGameModeBase.h</text>
</a>
</g>
</g>
<!-- Node24&#45;&gt;Node39 -->
<g id="edge45" class="edge"><title>Node24&#45;&gt;Node39</title>
<path fill="none" stroke="midnightblue" d="M583.761,-270.348C578.285,-246.254 568.979,-205.308 564.953,-187.591"/>
<polygon fill="midnightblue" stroke="midnightblue" points="580.409,-271.393 586.038,-280.368 587.235,-269.841 580.409,-271.393"/>
</g>
<!-- Node40 -->
<g id="node40" class="node"><title>Node40</title>
<g id="a_node40"><a xlink:href="../../d6/da1/CarlaEngine_8cpp.html" target="_top" xlink:title="CarlaEngine.cpp">
<polygon fill="white" stroke="black" points="432.5,-224.5 432.5,-243.5 521.5,-243.5 521.5,-224.5 432.5,-224.5"/>
<text text-anchor="middle" x="477" y="-231.5" font-family="Helvetica,sans-Serif" font-size="10.00">CarlaEngine.cpp</text>
</a>
</g>
</g>
<!-- Node24&#45;&gt;Node40 -->
<g id="edge49" class="edge"><title>Node24&#45;&gt;Node40</title>
<path fill="none" stroke="midnightblue" d="M560.995,-275.862C540.412,-265.849 512.655,-252.346 494.79,-243.655"/>
<polygon fill="midnightblue" stroke="midnightblue" points="559.642,-279.097 570.166,-280.324 562.705,-272.802 559.642,-279.097"/>
</g>
<!-- Node25&#45;&gt;Node4 -->
<g id="edge29" class="edge"><title>Node25&#45;&gt;Node4</title>
<path fill="none" stroke="midnightblue" d="M1086.51,-227.41C1151.73,-217.942 1284.31,-198.697 1361.21,-187.534"/>
<polygon fill="midnightblue" stroke="midnightblue" points="1085.66,-223.997 1076.27,-228.897 1086.66,-230.924 1085.66,-223.997"/>
</g>
<!-- Node25&#45;&gt;Node26 -->
<g id="edge30" class="edge"><title>Node25&#45;&gt;Node26</title>
<path fill="none" stroke="midnightblue" d="M1010.06,-224.638C964.273,-214.546 887.702,-197.669 841.614,-187.511"/>
<polygon fill="midnightblue" stroke="midnightblue" points="1009.38,-228.071 1019.9,-226.806 1010.88,-221.235 1009.38,-228.071"/>
</g>
<!-- Node27 -->
<g id="node27" class="node"><title>Node27</title>
<g id="a_node27"><a xlink:href="../../d3/dd6/CollisionSensor_8h.html" target="_top" xlink:title="CollisionSensor.h">
<polygon fill="white" stroke="black" points="868.5,-168.5 868.5,-187.5 961.5,-187.5 961.5,-168.5 868.5,-168.5"/>
<text text-anchor="middle" x="915" y="-175.5" font-family="Helvetica,sans-Serif" font-size="10.00">CollisionSensor.h</text>
</a>
</g>
</g>
<!-- Node25&#45;&gt;Node27 -->
<g id="edge31" class="edge"><title>Node25&#45;&gt;Node27</title>
<path fill="none" stroke="midnightblue" d="M1017.55,-220.638C992.593,-210.504 957.923,-196.427 935.976,-187.516"/>
<polygon fill="midnightblue" stroke="midnightblue" points="1016.34,-223.924 1026.93,-224.444 1018.98,-217.439 1016.34,-223.924"/>
</g>
<!-- Node29 -->
<g id="node29" class="node"><title>Node29</title>
<g id="a_node29"><a xlink:href="../../d7/d55/ObstacleDetectionSensor_8h.html" target="_top" xlink:title="ObstacleDetectionSensor.h">
<polygon fill="white" stroke="black" points="979.5,-168.5 979.5,-187.5 1116.5,-187.5 1116.5,-168.5 979.5,-168.5"/>
<text text-anchor="middle" x="1048" y="-175.5" font-family="Helvetica,sans-Serif" font-size="10.00">ObstacleDetectionSensor.h</text>
</a>
</g>
</g>
<!-- Node25&#45;&gt;Node29 -->
<g id="edge33" class="edge"><title>Node25&#45;&gt;Node29</title>
<path fill="none" stroke="midnightblue" d="M1048,-213.805C1048,-204.91 1048,-194.78 1048,-187.751"/>
<polygon fill="midnightblue" stroke="midnightblue" points="1044.5,-214.083 1048,-224.083 1051.5,-214.083 1044.5,-214.083"/>
</g>
<!-- Node31 -->
<g id="node31" class="node"><title>Node31</title>
<g id="a_node31"><a xlink:href="../../d1/d53/RayCastLidar_8h.html" target="_top" xlink:title="RayCastLidar.h">
<polygon fill="white" stroke="black" points="1219.5,-168.5 1219.5,-187.5 1304.5,-187.5 1304.5,-168.5 1219.5,-168.5"/>
<text text-anchor="middle" x="1262" y="-175.5" font-family="Helvetica,sans-Serif" font-size="10.00">RayCastLidar.h</text>
</a>
</g>
</g>
<!-- Node25&#45;&gt;Node31 -->
<g id="edge35" class="edge"><title>Node25&#45;&gt;Node31</title>
<path fill="none" stroke="midnightblue" d="M1086.16,-223.372C1126.5,-213.191 1189.54,-197.284 1228.17,-187.537"/>
<polygon fill="midnightblue" stroke="midnightblue" points="1085.26,-219.989 1076.42,-225.829 1086.97,-226.776 1085.26,-219.989"/>
</g>
<!-- Node33 -->
<g id="node33" class="node"><title>Node33</title>
<g id="a_node33"><a xlink:href="../../d7/d16/Sensor_8cpp.html" target="_top" xlink:title="Sensor.cpp">
<polygon fill="white" stroke="black" points="1135,-168.5 1135,-187.5 1201,-187.5 1201,-168.5 1135,-168.5"/>
<text text-anchor="middle" x="1168" y="-175.5" font-family="Helvetica,sans-Serif" font-size="10.00">Sensor.cpp</text>
</a>
</g>
</g>
<!-- Node25&#45;&gt;Node33 -->
<g id="edge37" class="edge"><title>Node25&#45;&gt;Node33</title>
<path fill="none" stroke="midnightblue" d="M1076.37,-220.232C1098.82,-210.131 1129.54,-196.309 1149.07,-187.516"/>
<polygon fill="midnightblue" stroke="midnightblue" points="1074.7,-217.148 1067.01,-224.444 1077.57,-223.532 1074.7,-217.148"/>
</g>
<!-- Node25&#45;&gt;Node34 -->
<g id="edge38" class="edge"><title>Node25&#45;&gt;Node34</title>
<path fill="none" stroke="midnightblue" d="M1086.22,-232.318C1152.5,-230.238 1284.42,-221.842 1313,-188 1334.79,-162.194 1336.4,-136.357 1313,-112 1278.33,-75.9162 462.811,-80.7804 413,-76 409.906,-75.703 406.726,-75.3521 403.525,-74.9639"/>
<polygon fill="midnightblue" stroke="midnightblue" points="1086.07,-228.821 1076.17,-232.6 1086.27,-235.818 1086.07,-228.821"/>
</g>
<!-- Node27&#45;&gt;Node28 -->
<g id="edge32" class="edge"><title>Node27&#45;&gt;Node28</title>
<path fill="none" stroke="midnightblue" d="M858.225,-167.738C795.896,-157.569 696.667,-141.381 636.213,-131.518"/>
<polygon fill="midnightblue" stroke="midnightblue" points="857.845,-171.222 868.278,-169.378 858.972,-164.313 857.845,-171.222"/>
</g>
<!-- Node29&#45;&gt;Node30 -->
<g id="edge34" class="edge"><title>Node29&#45;&gt;Node30</title>
<path fill="none" stroke="midnightblue" d="M987.126,-166.727C926.655,-156.523 835.012,-141.058 778.468,-131.516"/>
<polygon fill="midnightblue" stroke="midnightblue" points="986.852,-170.231 997.295,-168.444 988.017,-163.328 986.852,-170.231"/>
</g>
<!-- Node32 -->
<g id="node32" class="node"><title>Node32</title>
<g id="a_node32"><a xlink:href="../../df/dec/RayCastLidar_8cpp.html" target="_top" xlink:title="RayCastLidar.cpp">
<polygon fill="white" stroke="black" points="1209.5,-112.5 1209.5,-131.5 1304.5,-131.5 1304.5,-112.5 1209.5,-112.5"/>
<text text-anchor="middle" x="1257" y="-119.5" font-family="Helvetica,sans-Serif" font-size="10.00">RayCastLidar.cpp</text>
</a>
</g>
</g>
<!-- Node31&#45;&gt;Node32 -->
<g id="edge36" class="edge"><title>Node31&#45;&gt;Node32</title>
<path fill="none" stroke="midnightblue" d="M1260.25,-158.101C1259.42,-149.136 1258.47,-138.858 1257.81,-131.751"/>
<polygon fill="midnightblue" stroke="midnightblue" points="1256.77,-158.448 1261.17,-168.083 1263.74,-157.803 1256.77,-158.448"/>
</g>
<!-- Node35&#45;&gt;Node18 -->
<g id="edge42" class="edge"><title>Node35&#45;&gt;Node18</title>
<path fill="none" stroke="midnightblue" d="M523.461,-111.924C600.525,-97.9795 678.021,-84.1875 726.677,-75.556"/>
<polygon fill="midnightblue" stroke="midnightblue" points="522.794,-108.488 513.577,-113.713 524.041,-115.376 522.794,-108.488"/>
</g>
<!-- Node35&#45;&gt;Node34 -->
<g id="edge43" class="edge"><title>Node35&#45;&gt;Node34</title>
<path fill="none" stroke="midnightblue" d="M445.627,-108.232C423.18,-98.1312 392.465,-84.3091 372.925,-75.5164"/>
<polygon fill="midnightblue" stroke="midnightblue" points="444.43,-111.532 454.986,-112.444 447.303,-105.148 444.43,-111.532"/>
</g>
<!-- Node36 -->
<g id="node36" class="node"><title>Node36</title>
<g id="a_node36"><a xlink:href="../../d0/d3b/CarlaBlueprintRegistry_8cpp.html" target="_top" xlink:title="CarlaBlueprintRegistry.cpp">
<polygon fill="white" stroke="black" points="422,-56.5 422,-75.5 556,-75.5 556,-56.5 422,-56.5"/>
<text text-anchor="middle" x="489" y="-63.5" font-family="Helvetica,sans-Serif" font-size="10.00">CarlaBlueprintRegistry.cpp</text>
</a>
</g>
</g>
<!-- Node35&#45;&gt;Node36 -->
<g id="edge40" class="edge"><title>Node35&#45;&gt;Node36</title>
<path fill="none" stroke="midnightblue" d="M479.168,-102.396C481.677,-93.362 484.573,-82.936 486.569,-75.7511"/>
<polygon fill="midnightblue" stroke="midnightblue" points="475.781,-101.511 476.477,-112.083 482.526,-103.385 475.781,-101.511"/>
</g>
<!-- Node37 -->
<g id="node37" class="node"><title>Node37</title>
<g id="a_node37"><a xlink:href="../../d5/d6e/CarlaStatics_8cpp.html" target="_top" xlink:title="CarlaStatics.cpp">
<polygon fill="white" stroke="black" points="574.5,-56.5 574.5,-75.5 663.5,-75.5 663.5,-56.5 574.5,-56.5"/>
<text text-anchor="middle" x="619" y="-63.5" font-family="Helvetica,sans-Serif" font-size="10.00">CarlaStatics.cpp</text>
</a>
</g>
</g>
<!-- Node35&#45;&gt;Node37 -->
<g id="edge41" class="edge"><title>Node35&#45;&gt;Node37</title>
<path fill="none" stroke="midnightblue" d="M506.475,-108.906C533.736,-98.7536 571.992,-84.5063 596.132,-75.5164"/>
<polygon fill="midnightblue" stroke="midnightblue" points="505.125,-105.674 496.976,-112.444 507.568,-112.233 505.125,-105.674"/>
</g>
<!-- Node38 -->
<g id="node38" class="node"><title>Node38</title>
<g id="a_node38"><a xlink:href="../../d3/da1/TriggerFactory_8cpp.html" target="_top" xlink:title="TriggerFactory.cpp">
<polygon fill="white" stroke="black" points="67,-56.5 67,-75.5 165,-75.5 165,-56.5 67,-56.5"/>
<text text-anchor="middle" x="116" y="-63.5" font-family="Helvetica,sans-Serif" font-size="10.00">TriggerFactory.cpp</text>
</a>
</g>
</g>
<!-- Node35&#45;&gt;Node38 -->
<g id="edge44" class="edge"><title>Node35&#45;&gt;Node38</title>
<path fill="none" stroke="midnightblue" d="M424.224,-113.492C355.803,-103.171 233.444,-84.7151 165.284,-74.4339"/>
<polygon fill="midnightblue" stroke="midnightblue" points="423.91,-116.984 434.32,-115.015 424.954,-110.062 423.91,-116.984"/>
</g>
<!-- Node39&#45;&gt;Node28 -->
<g id="edge47" class="edge"><title>Node39&#45;&gt;Node28</title>
<path fill="none" stroke="midnightblue" d="M570.121,-158.69C573.66,-149.589 577.772,-139.014 580.597,-131.751"/>
<polygon fill="midnightblue" stroke="midnightblue" points="566.83,-157.494 566.468,-168.083 573.354,-160.032 566.83,-157.494"/>
</g>
<!-- Node39&#45;&gt;Node30 -->
<g id="edge48" class="edge"><title>Node39&#45;&gt;Node30</title>
<path fill="none" stroke="midnightblue" d="M598.736,-165.304C629.827,-155.129 674.147,-140.625 701.978,-131.516"/>
<polygon fill="midnightblue" stroke="midnightblue" points="597.56,-162.007 589.145,-168.444 599.737,-168.659 597.56,-162.007"/>
</g>
<!-- Node39&#45;&gt;Node35 -->
<g id="edge46" class="edge"><title>Node39&#45;&gt;Node35</title>
<path fill="none" stroke="midnightblue" d="M539.762,-162.901C523.442,-152.999 502.135,-140.071 488.264,-131.655"/>
<polygon fill="midnightblue" stroke="midnightblue" points="538.336,-166.129 548.701,-168.324 541.967,-160.144 538.336,-166.129"/>
</g>
<!-- Node41&#45;&gt;Node40 -->
<g id="edge63" class="edge"><title>Node41&#45;&gt;Node40</title>
<path fill="none" stroke="midnightblue" d="M480.9,-270.101C479.904,-261.136 478.762,-250.858 477.972,-243.751"/>
<polygon fill="midnightblue" stroke="midnightblue" points="477.426,-270.531 482.009,-280.083 484.383,-269.758 477.426,-270.531"/>
</g>
<!-- Node42 -->
<g id="node42" class="node"><title>Node42</title>
<g id="a_node42"><a xlink:href="../../d2/dba/CarlaGameInstance_8h.html" target="_top" xlink:title="CarlaGameInstance.h">
<polygon fill="white" stroke="black" points="303,-224.5 303,-243.5 415,-243.5 415,-224.5 303,-224.5"/>
<text text-anchor="middle" x="359" y="-231.5" font-family="Helvetica,sans-Serif" font-size="10.00">CarlaGameInstance.h</text>
</a>
</g>
</g>
<!-- Node41&#45;&gt;Node42 -->
<g id="edge54" class="edge"><title>Node41&#45;&gt;Node42</title>
<path fill="none" stroke="midnightblue" d="M453.993,-276.368C430.771,-266.255 398.837,-252.349 378.556,-243.516"/>
<polygon fill="midnightblue" stroke="midnightblue" points="452.786,-279.66 463.352,-280.444 455.581,-273.242 452.786,-279.66"/>
</g>
<!-- Node42&#45;&gt;Node28 -->
<g id="edge59" class="edge"><title>Node42&#45;&gt;Node28</title>
<path fill="none" stroke="midnightblue" d="M385.84,-219.878C432.477,-197.078 527.237,-150.751 566.427,-131.591"/>
<polygon fill="midnightblue" stroke="midnightblue" points="384.102,-216.832 376.655,-224.368 387.176,-223.121 384.102,-216.832"/>
</g>
<!-- Node42&#45;&gt;Node30 -->
<g id="edge60" class="edge"><title>Node42&#45;&gt;Node30</title>
<path fill="none" stroke="midnightblue" d="M425.562,-223.554C500.146,-212.728 613.142,-195.516 632,-188 666.964,-174.064 702.072,-145.805 718.457,-131.584"/>
<polygon fill="midnightblue" stroke="midnightblue" points="424.703,-220.142 415.307,-225.037 425.705,-227.069 424.703,-220.142"/>
</g>
<!-- Node42&#45;&gt;Node34 -->
<g id="edge61" class="edge"><title>Node42&#45;&gt;Node34</title>
<path fill="none" stroke="midnightblue" d="M368.433,-215.247C372.208,-207.173 376.107,-197.351 378,-188 386.542,-145.809 366.875,-95.2783 358.03,-75.5132"/>
<polygon fill="midnightblue" stroke="midnightblue" points="365.212,-213.862 363.876,-224.372 371.475,-216.989 365.212,-213.862"/>
</g>
<!-- Node42&#45;&gt;Node35 -->
<g id="edge55" class="edge"><title>Node42&#45;&gt;Node35</title>
<path fill="none" stroke="midnightblue" d="M292.785,-231.135C223.013,-227.609 119.83,-217.421 95,-188 89.2669,-181.207 89.0968,-174.646 95,-168 117.277,-142.921 341.454,-129.361 434.179,-124.789"/>
<polygon fill="midnightblue" stroke="midnightblue" points="292.67,-234.633 302.824,-231.608 293,-227.641 292.67,-234.633"/>
</g>
<!-- Node42&#45;&gt;Node38 -->
<g id="edge62" class="edge"><title>Node42&#45;&gt;Node38</title>
<path fill="none" stroke="midnightblue" d="M292.652,-231.519C220.771,-228.347 112.857,-218.486 87,-188 58.4956,-154.392 93.8354,-97.5107 109.368,-75.7892"/>
<polygon fill="midnightblue" stroke="midnightblue" points="292.848,-235.03 302.982,-231.94 293.133,-228.035 292.848,-235.03"/>
</g>
<!-- Node42&#45;&gt;Node39 -->
<g id="edge56" class="edge"><title>Node42&#45;&gt;Node39</title>
<path fill="none" stroke="midnightblue" d="M401.201,-221.829C439.718,-211.633 495.822,-196.782 530.827,-187.516"/>
<polygon fill="midnightblue" stroke="midnightblue" points="400.096,-218.501 391.324,-224.444 401.887,-225.268 400.096,-218.501"/>
</g>
<!-- Node43 -->
<g id="node43" class="node"><title>Node43</title>
<g id="a_node43"><a xlink:href="../../d0/d19/CarlaGameInstance_8cpp.html" target="_top" xlink:title="CarlaGameInstance.cpp">
<polygon fill="white" stroke="black" points="104,-168.5 104,-187.5 226,-187.5 226,-168.5 104,-168.5"/>
<text text-anchor="middle" x="165" y="-175.5" font-family="Helvetica,sans-Serif" font-size="10.00">CarlaGameInstance.cpp</text>
</a>
</g>
</g>
<!-- Node42&#45;&gt;Node43 -->
<g id="edge57" class="edge"><title>Node42&#45;&gt;Node43</title>
<path fill="none" stroke="midnightblue" d="M318.399,-221.699C281.785,-211.507 228.743,-196.743 195.596,-187.516"/>
<polygon fill="midnightblue" stroke="midnightblue" points="317.688,-225.134 328.26,-224.444 319.565,-218.39 317.688,-225.134"/>
</g>
<!-- Node44 -->
<g id="node44" class="node"><title>Node44</title>
<g id="a_node44"><a xlink:href="../../d6/ddf/CityMapMeshHolder_8cpp.html" target="_top" xlink:title="CityMapMeshHolder.cpp">
<polygon fill="white" stroke="black" points="244.5,-168.5 244.5,-187.5 369.5,-187.5 369.5,-168.5 244.5,-168.5"/>
<text text-anchor="middle" x="307" y="-175.5" font-family="Helvetica,sans-Serif" font-size="10.00">CityMapMeshHolder.cpp</text>
</a>
</g>
</g>
<!-- Node42&#45;&gt;Node44 -->
<g id="edge58" class="edge"><title>Node42&#45;&gt;Node44</title>
<path fill="none" stroke="midnightblue" d="M343.321,-216.718C334.155,-207.2 322.947,-195.561 315.427,-187.751"/>
<polygon fill="midnightblue" stroke="midnightblue" points="340.956,-219.308 350.413,-224.083 345.998,-214.452 340.956,-219.308"/>
</g>
<!-- Node46&#45;&gt;Node24 -->
<g id="edge66" class="edge"><title>Node46&#45;&gt;Node24</title>
<path fill="none" stroke="midnightblue" d="M508.81,-331.726C528.253,-321.727 554.348,-308.307 571.172,-299.655"/>
<polygon fill="midnightblue" stroke="midnightblue" points="507.162,-328.638 499.87,-336.324 510.364,-334.863 507.162,-328.638"/>
</g>
<!-- Node46&#45;&gt;Node41 -->
<g id="edge67" class="edge"><title>Node46&#45;&gt;Node41</title>
<path fill="none" stroke="midnightblue" d="M483,-325.805C483,-316.91 483,-306.78 483,-299.751"/>
<polygon fill="midnightblue" stroke="midnightblue" points="479.5,-326.083 483,-336.083 486.5,-326.083 479.5,-326.083"/>
</g>
<!-- Node46&#45;&gt;Node42 -->
<g id="edge68" class="edge"><title>Node46&#45;&gt;Node42</title>
<path fill="none" stroke="midnightblue" d="M465.54,-329.512C439.044,-306.007 389.56,-262.11 368.685,-243.591"/>
<polygon fill="midnightblue" stroke="midnightblue" points="463.466,-332.351 473.27,-336.368 468.112,-327.114 463.466,-332.351"/>
</g>
<!-- Node47 -->
<g id="node47" class="node"><title>Node47</title>
<g id="a_node47"><a xlink:href="../../db/d6c/CarlaServer_8cpp.html" target="_top" xlink:title="CarlaServer.cpp">
<polygon fill="white" stroke="black" points="300.5,-280.5 300.5,-299.5 387.5,-299.5 387.5,-280.5 300.5,-280.5"/>
<text text-anchor="middle" x="344" y="-287.5" font-family="Helvetica,sans-Serif" font-size="10.00">CarlaServer.cpp</text>
</a>
</g>
</g>
<!-- Node46&#45;&gt;Node47 -->
<g id="edge69" class="edge"><title>Node46&#45;&gt;Node47</title>
<path fill="none" stroke="midnightblue" d="M451.524,-332.772C425.415,-322.629 388.961,-308.467 365.922,-299.516"/>
<polygon fill="midnightblue" stroke="midnightblue" points="450.386,-336.085 460.975,-336.444 452.921,-329.56 450.386,-336.085"/>
</g>
<!-- Node49&#45;&gt;Node50 -->
<g id="edge75" class="edge"><title>Node49&#45;&gt;Node50</title>
<path fill="none" stroke="midnightblue" d="M1057,-493.805C1057,-484.91 1057,-474.78 1057,-467.751"/>
<polygon fill="midnightblue" stroke="midnightblue" points="1053.5,-494.083 1057,-504.083 1060.5,-494.083 1053.5,-494.083"/>
</g>
</g>
</svg>
