<?xml version="1.0" encoding="UTF-8" standalone="no"?>
<!DOCTYPE svg PUBLIC "-//W3C//DTD SVG 1.1//EN"
 "http://www.w3.org/Graphics/SVG/1.1/DTD/svg11.dtd">
<!-- Generated by graphviz version 2.43.0 (0)
 -->
<!-- Title: carla_msgs::msg::CarlaCollisionEventPubSubType::getSerializedSizeProvider Pages: 1 -->
<svg width="836pt" height="235pt"
 viewBox="0.00 0.00 836.00 235.00" xmlns="http://www.w3.org/2000/svg" xmlns:xlink="http://www.w3.org/1999/xlink">
<g id="graph0" class="graph" transform="scale(1 1) rotate(0) translate(4 231)">
<title>carla_msgs::msg::CarlaCollisionEventPubSubType::getSerializedSizeProvider</title>
<polygon fill="white" stroke="transparent" points="-4,4 -4,-231 832,-231 832,4 -4,4"/>
<!-- Node1 -->
<g id="node1" class="node">
<title>Node1</title>
<g id="a_node1"><a xlink:title=" ">
<polygon fill="#bfbfbf" stroke="black" points="0,-68 0,-109 193,-109 193,-68 0,-68"/>
<text text-anchor="start" x="8" y="-97" font-family="Helvetica,sans-Serif" font-size="10.00">carla_msgs::msg::CarlaCollision</text>
<text text-anchor="start" x="8" y="-86" font-family="Helvetica,sans-Serif" font-size="10.00">EventPubSubType::getSerializedSize</text>
<text text-anchor="middle" x="96.5" y="-75" font-family="Helvetica,sans-Serif" font-size="10.00">Provider</text>
</a>
</g>
</g>
<!-- Node2 -->
<g id="node2" class="node">
<title>Node2</title>
<g id="a_node2"><a xlink:href="../../d5/d0c/classcarla__msgs_1_1msg_1_1CarlaCollisionEvent.html#abed4f4b9c6a6e2ca2620093bca955f01" target="_top" xlink:title="This function returns the serialized size of a data depending on the buffer alignment.">
<polygon fill="white" stroke="black" points="229,-73.5 229,-103.5 402,-103.5 402,-73.5 229,-73.5"/>
<text text-anchor="start" x="237" y="-91.5" font-family="Helvetica,sans-Serif" font-size="10.00">carla_msgs::msg::CarlaCollision</text>
<text text-anchor="middle" x="315.5" y="-80.5" font-family="Helvetica,sans-Serif" font-size="10.00">Event::getCdrSerializedSize</text>
</a>
</g>
</g>
<!-- Node1&#45;&gt;Node2 -->
<g id="edge1" class="edge">
<title>Node1&#45;&gt;Node2</title>
<path fill="none" stroke="midnightblue" d="M193.31,-88.5C201.71,-88.5 210.2,-88.5 218.6,-88.5"/>
<polygon fill="midnightblue" stroke="midnightblue" points="218.77,-92 228.77,-88.5 218.77,-85 218.77,-92"/>
</g>
<!-- Node3 -->
<g id="node3" class="node">
<title>Node3</title>
<g id="a_node3"><a xlink:href="../../d8/d15/classstd__msgs_1_1msg_1_1Header.html#ae439639025ac66880a861f521fd84016" target="_top" xlink:title="This function returns the serialized size of a data depending on the buffer alignment.">
<polygon fill="white" stroke="black" points="459,-147.5 459,-177.5 590,-177.5 590,-147.5 459,-147.5"/>
<text text-anchor="start" x="467" y="-165.5" font-family="Helvetica,sans-Serif" font-size="10.00">std_msgs::msg::Header</text>
<text text-anchor="middle" x="524.5" y="-154.5" font-family="Helvetica,sans-Serif" font-size="10.00">::getCdrSerializedSize</text>
</a>
</g>
</g>
<!-- Node2&#45;&gt;Node3 -->
<g id="edge2" class="edge">
<title>Node2&#45;&gt;Node3</title>
<path fill="none" stroke="midnightblue" d="M350.14,-103.58C374.3,-114.11 407.81,-128.09 438,-138.5 443.93,-140.54 450.14,-142.55 456.38,-144.47"/>
<polygon fill="midnightblue" stroke="midnightblue" points="455.6,-147.89 466.18,-147.41 457.61,-141.18 455.6,-147.89"/>
</g>
<!-- Node7 -->
<g id="node7" class="node">
<title>Node7</title>
<g id="a_node7"><a xlink:href="../../df/d66/classgeometry__msgs_1_1msg_1_1Vector3.html#a3f4f6b078e23dd8bbd3a400a1c8a6209" target="_top" xlink:title="This function returns the serialized size of a data depending on the buffer alignment.">
<polygon fill="white" stroke="black" points="441.5,-98.5 441.5,-128.5 607.5,-128.5 607.5,-98.5 441.5,-98.5"/>
<text text-anchor="start" x="449.5" y="-116.5" font-family="Helvetica,sans-Serif" font-size="10.00">geometry_msgs::msg</text>
<text text-anchor="middle" x="524.5" y="-105.5" font-family="Helvetica,sans-Serif" font-size="10.00">::Vector3::getCdrSerializedSize</text>
</a>
</g>
</g>
<!-- Node2&#45;&gt;Node7 -->
<g id="edge6" class="edge">
<title>Node2&#45;&gt;Node7</title>
<path fill="none" stroke="midnightblue" d="M402.19,-98.85C411.76,-100.01 421.55,-101.19 431.2,-102.35"/>
<polygon fill="midnightblue" stroke="midnightblue" points="430.86,-105.84 441.2,-103.56 431.69,-98.89 430.86,-105.84"/>
</g>
<!-- Node8 -->
<g id="node8" class="node">
<title>Node8</title>
<g id="a_node8"><a xlink:href="../../d5/d0c/classcarla__msgs_1_1msg_1_1CarlaCollisionEvent.html#aac52c2e08a728341a081dc47afcd0e72" target="_top" xlink:title="This function copies the value in member header.">
<polygon fill="white" stroke="black" points="438,-49.5 438,-79.5 611,-79.5 611,-49.5 438,-49.5"/>
<text text-anchor="start" x="446" y="-67.5" font-family="Helvetica,sans-Serif" font-size="10.00">carla_msgs::msg::CarlaCollision</text>
<text text-anchor="middle" x="524.5" y="-56.5" font-family="Helvetica,sans-Serif" font-size="10.00">Event::header</text>
</a>
</g>
</g>
<!-- Node2&#45;&gt;Node8 -->
<g id="edge7" class="edge">
<title>Node2&#45;&gt;Node8</title>
<path fill="none" stroke="midnightblue" d="M402.19,-78.57C410.66,-77.58 419.3,-76.58 427.87,-75.59"/>
<polygon fill="midnightblue" stroke="midnightblue" points="428.34,-79.06 437.88,-74.43 427.54,-72.1 428.34,-79.06"/>
</g>
<!-- Node9 -->
<g id="node9" class="node">
<title>Node9</title>
<g id="a_node9"><a xlink:href="../../d5/d0c/classcarla__msgs_1_1msg_1_1CarlaCollisionEvent.html#a1c83be8988b2ee130f6eb0d8b216070c" target="_top" xlink:title="This function copies the value in member normal_impulse.">
<polygon fill="white" stroke="black" points="438,-0.5 438,-30.5 611,-30.5 611,-0.5 438,-0.5"/>
<text text-anchor="start" x="446" y="-18.5" font-family="Helvetica,sans-Serif" font-size="10.00">carla_msgs::msg::CarlaCollision</text>
<text text-anchor="middle" x="524.5" y="-7.5" font-family="Helvetica,sans-Serif" font-size="10.00">Event::normal_impulse</text>
</a>
</g>
</g>
<!-- Node2&#45;&gt;Node9 -->
<g id="edge8" class="edge">
<title>Node2&#45;&gt;Node9</title>
<path fill="none" stroke="midnightblue" d="M350.95,-73.43C375.07,-63.17 408.18,-49.66 438,-39.5 444.03,-37.44 450.35,-35.43 456.7,-33.49"/>
<polygon fill="midnightblue" stroke="midnightblue" points="458.08,-36.73 466.66,-30.51 456.08,-30.02 458.08,-36.73"/>
</g>
<!-- Node4 -->
<g id="node4" class="node">
<title>Node4</title>
<g id="a_node4"><a xlink:href="../../d8/d15/classstd__msgs_1_1msg_1_1Header.html#a9bd973b4690fefb807fb231f496831d4" target="_top" xlink:title="This function copies the value in member frame_id.">
<polygon fill="white" stroke="black" points="672,-196.5 672,-226.5 803,-226.5 803,-196.5 672,-196.5"/>
<text text-anchor="start" x="680" y="-214.5" font-family="Helvetica,sans-Serif" font-size="10.00">std_msgs::msg::Header</text>
<text text-anchor="middle" x="737.5" y="-203.5" font-family="Helvetica,sans-Serif" font-size="10.00">::frame_id</text>
</a>
</g>
</g>
<!-- Node3&#45;&gt;Node4 -->
<g id="edge3" class="edge">
<title>Node3&#45;&gt;Node4</title>
<path fill="none" stroke="midnightblue" d="M590.24,-177.53C612.92,-182.8 638.58,-188.76 662,-194.2"/>
<polygon fill="midnightblue" stroke="midnightblue" points="661.35,-197.64 671.88,-196.49 662.93,-190.82 661.35,-197.64"/>
</g>
<!-- Node5 -->
<g id="node5" class="node">
<title>Node5</title>
<g id="a_node5"><a xlink:href="../../da/d39/classbuiltin__interfaces_1_1msg_1_1Time.html#abdf1cc0285c53ceeb6c4eae36acd3c0f" target="_top" xlink:title="This function returns the serialized size of a data depending on the buffer alignment.">
<polygon fill="white" stroke="black" points="647,-147.5 647,-177.5 828,-177.5 828,-147.5 647,-147.5"/>
<text text-anchor="start" x="655" y="-165.5" font-family="Helvetica,sans-Serif" font-size="10.00">builtin_interfaces</text>
<text text-anchor="middle" x="737.5" y="-154.5" font-family="Helvetica,sans-Serif" font-size="10.00">::msg::Time::getCdrSerializedSize</text>
</a>
</g>
</g>
<!-- Node3&#45;&gt;Node5 -->
<g id="edge4" class="edge">
<title>Node3&#45;&gt;Node5</title>
<path fill="none" stroke="midnightblue" d="M590.24,-162.5C604.85,-162.5 620.69,-162.5 636.37,-162.5"/>
<polygon fill="midnightblue" stroke="midnightblue" points="636.64,-166 646.64,-162.5 636.64,-159 636.64,-166"/>
</g>
<!-- Node6 -->
<g id="node6" class="node">
<title>Node6</title>
<g id="a_node6"><a xlink:href="../../d8/d15/classstd__msgs_1_1msg_1_1Header.html#a2ac0c277be6d5edc09d17126767290c9" target="_top" xlink:title="This function copies the value in member stamp.">
<polygon fill="white" stroke="black" points="672,-98.5 672,-128.5 803,-128.5 803,-98.5 672,-98.5"/>
<text text-anchor="start" x="680" y="-116.5" font-family="Helvetica,sans-Serif" font-size="10.00">std_msgs::msg::Header</text>
<text text-anchor="middle" x="737.5" y="-105.5" font-family="Helvetica,sans-Serif" font-size="10.00">::stamp</text>
</a>
</g>
</g>
<!-- Node3&#45;&gt;Node6 -->
<g id="edge5" class="edge">
<title>Node3&#45;&gt;Node6</title>
<path fill="none" stroke="midnightblue" d="M590.24,-147.47C612.92,-142.2 638.58,-136.24 662,-130.8"/>
<polygon fill="midnightblue" stroke="midnightblue" points="662.93,-134.18 671.88,-128.51 661.35,-127.36 662.93,-134.18"/>
</g>
</g>
</svg>
