<?xml version="1.0" encoding="UTF-8" standalone="no"?>
<!DOCTYPE svg PUBLIC "-//W3C//DTD SVG 1.1//EN"
 "http://www.w3.org/Graphics/SVG/1.1/DTD/svg11.dtd">
<!-- Generated by graphviz version 2.40.1 (20161225.0304)
 -->
<!-- Title: FTaggedSkeletalMeshSceneProxy Pages: 1 -->
<svg width="315pt" height="106pt"
 viewBox="0.00 0.00 315.00 106.00" xmlns="http://www.w3.org/2000/svg" xmlns:xlink="http://www.w3.org/1999/xlink">
<g id="graph0" class="graph" transform="scale(1 1) rotate(0) translate(4 102)">
<title>FTaggedSkeletalMeshSceneProxy</title>
<polygon fill="#ffffff" stroke="transparent" points="-4,4 -4,-102 311,-102 311,4 -4,4"/>
<!-- Node2 -->
<g id="node1" class="node">
<title>Node2</title>
<polygon fill="#bfbfbf" stroke="#000000" points="69.5,-.5 69.5,-30.5 220.5,-30.5 220.5,-.5 69.5,-.5"/>
<text text-anchor="start" x="77.5" y="-18.5" font-family="Helvetica,sans-Serif" font-size="10.00" fill="#000000">FTaggedSkeletalMeshScene</text>
<text text-anchor="middle" x="145" y="-7.5" font-family="Helvetica,sans-Serif" font-size="10.00" fill="#000000">Proxy</text>
</g>
<!-- Node3 -->
<g id="node2" class="node">
<title>Node3</title>
<g id="a_node2"><a xlink:href="../../d4/d0e/classFSkeletalMeshSceneProxy.html" target="_top" xlink:title="FSkeletalMeshSceneProxy">
<polygon fill="#ffffff" stroke="#000000" points="0,-78.5 0,-97.5 144,-97.5 144,-78.5 0,-78.5"/>
<text text-anchor="middle" x="72" y="-85.5" font-family="Helvetica,sans-Serif" font-size="10.00" fill="#000000">FSkeletalMeshSceneProxy</text>
</a>
</g>
</g>
<!-- Node3&#45;&gt;Node2 -->
<g id="edge1" class="edge">
<title>Node3&#45;&gt;Node2</title>
<path fill="none" stroke="#191970" d="M89.2436,-70.8745C101.5343,-58.668 117.907,-42.4075 129.7274,-30.668"/>
<polygon fill="#191970" stroke="#191970" points="86.4741,-68.6922 81.8451,-78.2223 91.4068,-73.6589 86.4741,-68.6922"/>
</g>
<!-- Node4 -->
<g id="node3" class="node">
<title>Node4</title>
<polygon fill="#ffffff" stroke="#bfbfbf" points="162.5,-78.5 162.5,-97.5 275.5,-97.5 275.5,-78.5 162.5,-78.5"/>
<text text-anchor="middle" x="219" y="-85.5" font-family="Helvetica,sans-Serif" font-size="10.00" fill="#000000">UMaterialInstance *</text>
</g>
<!-- Node4&#45;&gt;Node2 -->
<g id="edge2" class="edge">
<title>Node4&#45;&gt;Node2</title>
<path fill="none" stroke="#9a32cd" stroke-dasharray="5,2" d="M201.8751,-71.2222C189.3777,-58.9781 172.5783,-42.5193 160.4818,-30.668"/>
<polygon fill="#9a32cd" stroke="#9a32cd" points="199.4275,-73.7241 209.02,-78.2223 204.3263,-68.7239 199.4275,-73.7241"/>
<text text-anchor="middle" x="247.5" y="-52" font-family="Helvetica,sans-Serif" font-size="10.00" fill="#000000"> TaggedMaterialInstance</text>
</g>
</g>
</svg>
