<?xml version="1.0" encoding="UTF-8" standalone="no"?>
<!DOCTYPE svg PUBLIC "-//W3C//DTD SVG 1.1//EN"
 "http://www.w3.org/Graphics/SVG/1.1/DTD/svg11.dtd">
<!-- Generated by graphviz version 2.40.1 (20161225.0304)
 -->
<!-- Title: carla::road::LaneSection::GetId Pages: 1 -->
<!--zoomable 380 -->
<svg id="main" version="1.1" xmlns="http://www.w3.org/2000/svg" xmlns:xlink="http://www.w3.org/1999/xlink" xml:space="preserve" onload="init(evt)">
<style type="text/css"><![CDATA[
.edge:hover path { stroke: red; }
.edge:hover polygon { stroke: red; fill: red; }
]]></style>
<script type="text/javascript"><![CDATA[
var edges = document.getElementsByTagName('g');
if (edges && edges.length) {
  for (var i=0;i<edges.length;i++) {
    if (edges[i].id.substr(0,4)=='edge') {
      edges[i].setAttribute('class','edge');
    }
  }
}
]]></script>
        <defs>
                <circle id="rim" cx="0" cy="0" r="7"/>
                <circle id="rim2" cx="0" cy="0" r="3.5"/>
                <g id="zoomPlus">
                        <use xlink:href="#rim" fill="#404040">
                                <set attributeName="fill" to="#808080" begin="zoomplus.mouseover" end="zoomplus.mouseout"/>
                        </use>
                        <path d="M-4,0h8M0,-4v8" fill="none" stroke="white" stroke-width="1.5" pointer-events="none"/>
                </g>
                <g id="zoomMin">
                        <use xlink:href="#rim" fill="#404040">
                                <set attributeName="fill" to="#808080" begin="zoomminus.mouseover" end="zoomminus.mouseout"/>
                        </use>
                        <path d="M-4,0h8" fill="none" stroke="white" stroke-width="1.5" pointer-events="none"/>
                </g>
                <g id="dirArrow">
                        <path fill="none" stroke="white" stroke-width="1.5" d="M0,-3.0v7 M-2.5,-0.5L0,-3.0L2.5,-0.5"/>
                </g>
               <g id="resetDef">
                       <use xlink:href="#rim2" fill="#404040">
                               <set attributeName="fill" to="#808080" begin="reset.mouseover" end="reset.mouseout"/>
                       </use>
               </g>
        </defs>

<script type="text/javascript">
var viewWidth = 1589;
var viewHeight = 380;
var sectionId = 'dynsection-6';
</script>
<script xlink:href="../../svgpan.js"/>
<svg id="graph" class="graph">
<g id="viewport">
<title>carla::road::LaneSection::GetId</title>
<polygon fill="#ffffff" stroke="transparent" points="-4,4 -4,-375.5 1585,-375.5 1585,4 -4,4"/>
<!-- Node55 -->
<g id="node1" class="node">
<title>Node55</title>
<polygon fill="#bfbfbf" stroke="#000000" points="0,-213.5 0,-243.5 134,-243.5 134,-213.5 0,-213.5"/>
<text text-anchor="start" x="8" y="-231.5" font-family="Helvetica,sans-Serif" font-size="10.00" fill="#000000">carla::road::LaneSection</text>
<text text-anchor="middle" x="67" y="-220.5" font-family="Helvetica,sans-Serif" font-size="10.00" fill="#000000">::GetId</text>
</g>
<!-- Node56 -->
<g id="node2" class="node">
<title>Node56</title>
<g id="a_node2"><a xlink:href="../../dd/d80/classcarla_1_1road_1_1LaneSection.html#a9478348b133c1ec7b072b3b4c18223c0" target="_top" xlink:title="carla::road::LaneSection\l::ContainsLane">
<polygon fill="#ffffff" stroke="#000000" points="182,-287.5 182,-317.5 316,-317.5 316,-287.5 182,-287.5"/>
<text text-anchor="start" x="190" y="-305.5" font-family="Helvetica,sans-Serif" font-size="10.00" fill="#000000">carla::road::LaneSection</text>
<text text-anchor="middle" x="249" y="-294.5" font-family="Helvetica,sans-Serif" font-size="10.00" fill="#000000">::ContainsLane</text>
</a>
</g>
</g>
<!-- Node55&#45;&gt;Node56 -->
<g id="edge1" class="edge">
<title>Node55&#45;&gt;Node56</title>
<path fill="none" stroke="#191970" d="M103.9552,-248.1865C123.3017,-258.0424 147.574,-269.7131 170,-278.5 178.1413,-281.6899 186.8881,-284.7223 195.4898,-287.4911"/>
<polygon fill="#191970" stroke="#191970" points="105.376,-244.9814 94.8831,-243.5145 102.171,-251.2046 105.376,-244.9814"/>
</g>
<!-- Node60 -->
<g id="node6" class="node">
<title>Node60</title>
<g id="a_node6"><a xlink:href="../../d9/dab/classcarla_1_1road_1_1LaneSectionMap.html#a3ba5c2bf595655b9944deef0386c59c0" target="_top" xlink:title="carla::road::LaneSection\lMap::Emplace">
<polygon fill="#ffffff" stroke="#000000" points="182,-238.5 182,-268.5 316,-268.5 316,-238.5 182,-238.5"/>
<text text-anchor="start" x="190" y="-256.5" font-family="Helvetica,sans-Serif" font-size="10.00" fill="#000000">carla::road::LaneSection</text>
<text text-anchor="middle" x="249" y="-245.5" font-family="Helvetica,sans-Serif" font-size="10.00" fill="#000000">Map::Emplace</text>
</a>
</g>
</g>
<!-- Node55&#45;&gt;Node60 -->
<g id="edge5" class="edge">
<title>Node55&#45;&gt;Node60</title>
<path fill="none" stroke="#191970" d="M144.1703,-239.1003C156.6544,-240.8152 169.4941,-242.5789 181.7198,-244.2582"/>
<polygon fill="#191970" stroke="#191970" points="144.6363,-235.6315 134.253,-237.738 143.6836,-242.5664 144.6363,-235.6315"/>
</g>
<!-- Node75 -->
<g id="node21" class="node">
<title>Node75</title>
<g id="a_node21"><a xlink:href="../../de/d26/namespacecarla_1_1road.html#a869b49ad56392d9364ea1cd1ca78b3d6" target="_top" xlink:title="Return a waypoint for each drivable lane on lane_section. ">
<polygon fill="#ffffff" stroke="#000000" points="172,-189.5 172,-219.5 326,-219.5 326,-189.5 172,-189.5"/>
<text text-anchor="start" x="180" y="-207.5" font-family="Helvetica,sans-Serif" font-size="10.00" fill="#000000">carla::road::ForEachDrivable</text>
<text text-anchor="middle" x="249" y="-196.5" font-family="Helvetica,sans-Serif" font-size="10.00" fill="#000000">LaneImpl</text>
</a>
</g>
</g>
<!-- Node55&#45;&gt;Node75 -->
<g id="edge20" class="edge">
<title>Node55&#45;&gt;Node75</title>
<path fill="none" stroke="#191970" d="M144.4224,-218.2905C153.5169,-217.0912 162.7965,-215.8675 171.8867,-214.6688"/>
<polygon fill="#191970" stroke="#191970" points="143.7096,-214.8541 134.253,-219.6315 144.6248,-221.794 143.7096,-214.8541"/>
</g>
<!-- Node82 -->
<g id="node28" class="node">
<title>Node82</title>
<g id="a_node28"><a xlink:href="../../de/d26/namespacecarla_1_1road.html#aa3fd3e4fda3e33ba219f7a43869a1eb4" target="_top" xlink:title="carla::road::ForEachLaneImpl">
<polygon fill="#ffffff" stroke="#000000" points="170,-127 170,-146 328,-146 328,-127 170,-127"/>
<text text-anchor="middle" x="249" y="-134" font-family="Helvetica,sans-Serif" font-size="10.00" fill="#000000">carla::road::ForEachLaneImpl</text>
</a>
</g>
</g>
<!-- Node55&#45;&gt;Node82 -->
<g id="edge27" class="edge">
<title>Node55&#45;&gt;Node82</title>
<path fill="none" stroke="#191970" d="M106.3504,-208.6086C144.5665,-189.2905 200.9521,-160.7879 230.0645,-146.0718"/>
<polygon fill="#191970" stroke="#191970" points="104.3992,-205.6731 97.0536,-213.3081 107.5572,-211.9203 104.3992,-205.6731"/>
</g>
<!-- Node57 -->
<g id="node3" class="node">
<title>Node57</title>
<g id="a_node3"><a xlink:href="../../de/d26/namespacecarla_1_1road.html#a7ecd44cf0915faa4721092185974318d" target="_top" xlink:title="Assumes road_id and section_id are valid. ">
<polygon fill="#ffffff" stroke="#000000" points="381,-293 381,-312 524,-312 524,-293 381,-293"/>
<text text-anchor="middle" x="452.5" y="-300" font-family="Helvetica,sans-Serif" font-size="10.00" fill="#000000">carla::road::IsLanePresent</text>
</a>
</g>
</g>
<!-- Node56&#45;&gt;Node57 -->
<g id="edge2" class="edge">
<title>Node56&#45;&gt;Node57</title>
<path fill="none" stroke="#191970" d="M326.3046,-302.5C344.2053,-302.5 363.1788,-302.5 380.8262,-302.5"/>
<polygon fill="#191970" stroke="#191970" points="326.1975,-299.0001 316.1975,-302.5 326.1975,-306.0001 326.1975,-299.0001"/>
</g>
<!-- Node58 -->
<g id="node4" class="node">
<title>Node58</title>
<g id="a_node4"><a xlink:href="../../d0/d34/classcarla_1_1road_1_1Map.html#a7664d704c1bde6685c333c02cda22714" target="_top" xlink:title="Return a waypoint at the lane of waypoint&#39;s left lane. ">
<polygon fill="#ffffff" stroke="#000000" points="587,-331 587,-350 724,-350 724,-331 587,-331"/>
<text text-anchor="middle" x="655.5" y="-338" font-family="Helvetica,sans-Serif" font-size="10.00" fill="#000000">carla::road::Map::GetLeft</text>
</a>
</g>
</g>
<!-- Node57&#45;&gt;Node58 -->
<g id="edge3" class="edge">
<title>Node57&#45;&gt;Node58</title>
<path fill="none" stroke="#191970" d="M513.4968,-313.9181C542.5425,-319.3552 576.8816,-325.7832 604.5156,-330.9561"/>
<polygon fill="#191970" stroke="#191970" points="513.9367,-310.4398 503.4634,-312.04 512.6487,-317.3202 513.9367,-310.4398"/>
</g>
<!-- Node59 -->
<g id="node5" class="node">
<title>Node59</title>
<g id="a_node5"><a xlink:href="../../d0/d34/classcarla_1_1road_1_1Map.html#a6936c20e8e76ccf7dc11de423c73c84d" target="_top" xlink:title="Return a waypoint at the lane of waypoint&#39;s right lane. ">
<polygon fill="#ffffff" stroke="#000000" points="584,-293 584,-312 727,-312 727,-293 584,-293"/>
<text text-anchor="middle" x="655.5" y="-300" font-family="Helvetica,sans-Serif" font-size="10.00" fill="#000000">carla::road::Map::GetRight</text>
</a>
</g>
</g>
<!-- Node57&#45;&gt;Node59 -->
<g id="edge4" class="edge">
<title>Node57&#45;&gt;Node59</title>
<path fill="none" stroke="#191970" d="M534.202,-302.5C550.6501,-302.5 567.8199,-302.5 583.8919,-302.5"/>
<polygon fill="#191970" stroke="#191970" points="534.0702,-299.0001 524.0702,-302.5 534.0702,-306.0001 534.0702,-299.0001"/>
</g>
<!-- Node61 -->
<g id="node7" class="node">
<title>Node61</title>
<g id="a_node7"><a xlink:href="../../de/d16/classcarla_1_1road_1_1MapBuilder.html#a4c51ad576d6a0f4078594d571b64a4d4" target="_top" xlink:title="carla::road::MapBuilder\l::AddRoadSection">
<polygon fill="#ffffff" stroke="#000000" points="388,-241.5 388,-271.5 517,-271.5 517,-241.5 388,-241.5"/>
<text text-anchor="start" x="396" y="-259.5" font-family="Helvetica,sans-Serif" font-size="10.00" fill="#000000">carla::road::MapBuilder</text>
<text text-anchor="middle" x="452.5" y="-248.5" font-family="Helvetica,sans-Serif" font-size="10.00" fill="#000000">::AddRoadSection</text>
</a>
</g>
</g>
<!-- Node60&#45;&gt;Node61 -->
<g id="edge6" class="edge">
<title>Node60&#45;&gt;Node61</title>
<path fill="none" stroke="#191970" d="M326.3381,-254.6401C346.6106,-254.939 368.257,-255.2581 387.7935,-255.5461"/>
<polygon fill="#191970" stroke="#191970" points="326.248,-251.1385 316.1975,-254.4906 326.1448,-258.1377 326.248,-251.1385"/>
</g>
<!-- Node62 -->
<g id="node8" class="node">
<title>Node62</title>
<g id="a_node8"><a xlink:href="../../df/d67/classcarla_1_1opendrive_1_1parser_1_1RoadParser.html#acda6f347c0f6db06c24144b491bae905" target="_top" xlink:title="carla::opendrive::parser\l::RoadParser::Parse">
<polygon fill="#ffffff" stroke="#000000" points="589.5,-242.5 589.5,-272.5 721.5,-272.5 721.5,-242.5 589.5,-242.5"/>
<text text-anchor="start" x="597.5" y="-260.5" font-family="Helvetica,sans-Serif" font-size="10.00" fill="#000000">carla::opendrive::parser</text>
<text text-anchor="middle" x="655.5" y="-249.5" font-family="Helvetica,sans-Serif" font-size="10.00" fill="#000000">::RoadParser::Parse</text>
</a>
</g>
</g>
<!-- Node61&#45;&gt;Node62 -->
<g id="edge7" class="edge">
<title>Node61&#45;&gt;Node62</title>
<path fill="none" stroke="#191970" d="M527.1949,-256.868C547.5879,-256.9684 569.536,-257.0765 589.4125,-257.1744"/>
<polygon fill="#191970" stroke="#191970" points="527.0265,-253.3672 517.0094,-256.8178 526.992,-260.3671 527.0265,-253.3672"/>
</g>
<!-- Node63 -->
<g id="node9" class="node">
<title>Node63</title>
<g id="a_node9"><a xlink:href="../../de/d5a/classcarla_1_1opendrive_1_1OpenDriveParser.html#a599fd6174f30aaee59590c16503afd8a" target="_top" xlink:title="carla::opendrive::OpenDrive\lParser::Load">
<polygon fill="#ffffff" stroke="#000000" points="778.5,-242.5 778.5,-272.5 931.5,-272.5 931.5,-242.5 778.5,-242.5"/>
<text text-anchor="start" x="786.5" y="-260.5" font-family="Helvetica,sans-Serif" font-size="10.00" fill="#000000">carla::opendrive::OpenDrive</text>
<text text-anchor="middle" x="855" y="-249.5" font-family="Helvetica,sans-Serif" font-size="10.00" fill="#000000">Parser::Load</text>
</a>
</g>
</g>
<!-- Node62&#45;&gt;Node63 -->
<g id="edge8" class="edge">
<title>Node62&#45;&gt;Node63</title>
<path fill="none" stroke="#191970" d="M732.0201,-257.5C747.1964,-257.5 763.1322,-257.5 778.3139,-257.5"/>
<polygon fill="#191970" stroke="#191970" points="731.6535,-254.0001 721.6535,-257.5 731.6535,-261.0001 731.6535,-254.0001"/>
</g>
<!-- Node64 -->
<g id="node10" class="node">
<title>Node64</title>
<g id="a_node10"><a xlink:href="../../d0/d2d/classAOpenDriveActor.html#ac8678af2b371c3a3faca8775ab1e4816" target="_top" xlink:title="AOpenDriveActor::BuildRoutes">
<polygon fill="#ffffff" stroke="#000000" points="988.5,-352 988.5,-371 1152.5,-371 1152.5,-352 988.5,-352"/>
<text text-anchor="middle" x="1070.5" y="-359" font-family="Helvetica,sans-Serif" font-size="10.00" fill="#000000">AOpenDriveActor::BuildRoutes</text>
</a>
</g>
</g>
<!-- Node63&#45;&gt;Node64 -->
<g id="edge9" class="edge">
<title>Node63&#45;&gt;Node64</title>
<path fill="none" stroke="#191970" d="M879.2753,-279.1792C902.4825,-298.7234 939.2805,-326.741 976,-342.5 985.0731,-346.3939 994.9835,-349.5022 1004.8634,-351.9801"/>
<polygon fill="#191970" stroke="#191970" points="881.5278,-276.5002 871.6559,-272.6536 876.9744,-281.8168 881.5278,-276.5002"/>
</g>
<!-- Node65 -->
<g id="node11" class="node">
<title>Node65</title>
<g id="a_node11"><a xlink:href="../../d8/dfe/classUOpenDriveMap.html#a0ce422ee1f79211e6957bab1d2048348" target="_top" xlink:title="Load this map with an OpenDrive (XODR) file. ">
<polygon fill="#ffffff" stroke="#000000" points="1008,-314 1008,-333 1133,-333 1133,-314 1008,-314"/>
<text text-anchor="middle" x="1070.5" y="-321" font-family="Helvetica,sans-Serif" font-size="10.00" fill="#000000">UOpenDriveMap::Load</text>
</a>
</g>
</g>
<!-- Node63&#45;&gt;Node65 -->
<g id="edge10" class="edge">
<title>Node63&#45;&gt;Node65</title>
<path fill="none" stroke="#191970" d="M898.517,-276.4979C921.2758,-285.8952 949.7866,-296.8357 976,-304.5 988.3678,-308.1161 1001.845,-311.2758 1014.6452,-313.9266"/>
<polygon fill="#191970" stroke="#191970" points="899.7151,-273.2054 889.1388,-272.5791 897.0161,-279.6642 899.7151,-273.2054"/>
</g>
<!-- Node68 -->
<g id="node14" class="node">
<title>Node68</title>
<g id="a_node14"><a xlink:href="../../dc/d84/classUCarlaEpisode.html#a3eeed56e0cc3cf04d266b86c5a88c3ed" target="_top" xlink:title="Load a new map generating the mesh from OpenDRIVE data and start a new episode. ">
<polygon fill="#ffffff" stroke="#000000" points="976,-264.5 976,-294.5 1165,-294.5 1165,-264.5 976,-264.5"/>
<text text-anchor="start" x="984" y="-282.5" font-family="Helvetica,sans-Serif" font-size="10.00" fill="#000000">UCarlaEpisode::LoadNewOpendrive</text>
<text text-anchor="middle" x="1070.5" y="-271.5" font-family="Helvetica,sans-Serif" font-size="10.00" fill="#000000">Episode</text>
</a>
</g>
</g>
<!-- Node63&#45;&gt;Node68 -->
<g id="edge13" class="edge">
<title>Node63&#45;&gt;Node68</title>
<path fill="none" stroke="#191970" d="M941.7385,-266.355C952.9074,-267.4952 964.3896,-268.6674 975.6797,-269.82"/>
<polygon fill="#191970" stroke="#191970" points="941.8878,-262.8521 931.584,-265.3183 941.1768,-269.8159 941.8878,-262.8521"/>
</g>
<!-- Node71 -->
<g id="node17" class="node">
<title>Node71</title>
<g id="a_node17"><a xlink:href="../../d2/daf/namespacecarla_1_1client.html#a228b83c6429f8e3406a93a1b41eb1565" target="_top" xlink:title="carla::client::MakeMap">
<polygon fill="#ffffff" stroke="#000000" points="1007.5,-226 1007.5,-245 1133.5,-245 1133.5,-226 1007.5,-226"/>
<text text-anchor="middle" x="1070.5" y="-233" font-family="Helvetica,sans-Serif" font-size="10.00" fill="#000000">carla::client::MakeMap</text>
</a>
</g>
</g>
<!-- Node63&#45;&gt;Node71 -->
<g id="edge16" class="edge">
<title>Node63&#45;&gt;Node71</title>
<path fill="none" stroke="#191970" d="M941.5792,-248.6613C963.5508,-246.4183 986.7449,-244.0504 1007.3103,-241.9509"/>
<polygon fill="#191970" stroke="#191970" points="941.1768,-245.1841 931.584,-249.6817 941.8878,-252.1479 941.1768,-245.1841"/>
</g>
<!-- Node72 -->
<g id="node18" class="node">
<title>Node72</title>
<g id="a_node18"><a xlink:href="../../df/da5/classATrafficLightManager.html#a212893f28dfefd3883c68be7e9a7d835" target="_top" xlink:title="ATrafficLightManager\l::MatchTrafficLightActorsWith\lOpenDriveSignals">
<polygon fill="#ffffff" stroke="#000000" points="991.5,-166 991.5,-207 1149.5,-207 1149.5,-166 991.5,-166"/>
<text text-anchor="start" x="999.5" y="-195" font-family="Helvetica,sans-Serif" font-size="10.00" fill="#000000">ATrafficLightManager</text>
<text text-anchor="start" x="999.5" y="-184" font-family="Helvetica,sans-Serif" font-size="10.00" fill="#000000">::MatchTrafficLightActorsWith</text>
<text text-anchor="middle" x="1070.5" y="-173" font-family="Helvetica,sans-Serif" font-size="10.00" fill="#000000">OpenDriveSignals</text>
</a>
</g>
</g>
<!-- Node63&#45;&gt;Node72 -->
<g id="edge17" class="edge">
<title>Node63&#45;&gt;Node72</title>
<path fill="none" stroke="#191970" d="M923.1582,-239.3435C928.8941,-237.4869 934.5721,-235.5318 940,-233.5 956.5713,-227.2968 959.5308,-222.9692 976,-216.5 984.3311,-213.2275 993.1768,-210.0466 1001.9842,-207.0552"/>
<polygon fill="#191970" stroke="#191970" points="921.9822,-236.044 913.4842,-242.3713 924.0732,-242.7245 921.9822,-236.044"/>
</g>
<!-- Node73 -->
<g id="node19" class="node">
<title>Node73</title>
<g id="a_node19"><a xlink:href="../../db/de5/classACarlaGameModeBase.html#a1af30553066dc3940a5b4f7eb900b8bf" target="_top" xlink:title="ACarlaGameModeBase\l::ParseOpenDrive">
<polygon fill="#ffffff" stroke="#000000" points="1006.5,-116.5 1006.5,-146.5 1134.5,-146.5 1134.5,-116.5 1006.5,-116.5"/>
<text text-anchor="start" x="1014.5" y="-134.5" font-family="Helvetica,sans-Serif" font-size="10.00" fill="#000000">ACarlaGameModeBase</text>
<text text-anchor="middle" x="1070.5" y="-123.5" font-family="Helvetica,sans-Serif" font-size="10.00" fill="#000000">::ParseOpenDrive</text>
</a>
</g>
</g>
<!-- Node63&#45;&gt;Node73 -->
<g id="edge18" class="edge">
<title>Node63&#45;&gt;Node73</title>
<path fill="none" stroke="#191970" d="M935.2113,-237.2017C936.8665,-236.0358 938.4663,-234.8032 940,-233.5 968.7885,-209.0382 947.0099,-180.7226 976,-156.5 984.7254,-149.2095 995.3566,-144.0227 1006.2983,-140.3378"/>
<polygon fill="#191970" stroke="#191970" points="933.2441,-234.3017 926.5241,-242.4928 936.8854,-240.2802 933.2441,-234.3017"/>
</g>
<!-- Node66 -->
<g id="node12" class="node">
<title>Node66</title>
<g id="a_node12"><a xlink:href="../../d1/d1b/classUOpenDrive.html#ac05b8dc3f340e373582945f9215081d9" target="_top" xlink:title="Load OpenDriveMap associated to the given MapName. ">
<polygon fill="#ffffff" stroke="#000000" points="1201,-315 1201,-334 1378,-334 1378,-315 1201,-315"/>
<text text-anchor="middle" x="1289.5" y="-322" font-family="Helvetica,sans-Serif" font-size="10.00" fill="#000000">UOpenDrive::LoadOpenDriveMap</text>
</a>
</g>
</g>
<!-- Node65&#45;&gt;Node66 -->
<g id="edge11" class="edge">
<title>Node65&#45;&gt;Node66</title>
<path fill="none" stroke="#191970" d="M1143.2828,-323.8323C1161.6461,-323.9162 1181.5674,-324.0072 1200.6241,-324.0942"/>
<polygon fill="#191970" stroke="#191970" points="1143.2725,-320.3324 1133.2566,-323.7866 1143.2405,-327.3323 1143.2725,-320.3324"/>
</g>
<!-- Node67 -->
<g id="node13" class="node">
<title>Node67</title>
<g id="a_node13"><a xlink:href="../../d1/d1b/classUOpenDrive.html#a4486c7ee9d4a8bf6cd2a7ca5ad7e4ece" target="_top" xlink:title="Load OpenDriveMap associated to the currently loaded map. ">
<polygon fill="#ffffff" stroke="#000000" points="1414,-310.5 1414,-340.5 1581,-340.5 1581,-310.5 1414,-310.5"/>
<text text-anchor="start" x="1422" y="-328.5" font-family="Helvetica,sans-Serif" font-size="10.00" fill="#000000">UOpenDrive::LoadCurrentOpen</text>
<text text-anchor="middle" x="1497.5" y="-317.5" font-family="Helvetica,sans-Serif" font-size="10.00" fill="#000000">DriveMap</text>
</a>
</g>
</g>
<!-- Node66&#45;&gt;Node67 -->
<g id="edge12" class="edge">
<title>Node66&#45;&gt;Node67</title>
<path fill="none" stroke="#191970" d="M1388.0457,-324.9738C1396.624,-325.015 1405.2519,-325.0565 1413.6952,-325.0971"/>
<polygon fill="#191970" stroke="#191970" points="1388.0291,-321.4738 1378.0123,-324.9255 1387.9954,-328.4737 1388.0291,-321.4738"/>
</g>
<!-- Node69 -->
<g id="node15" class="node">
<title>Node69</title>
<g id="a_node15"><a xlink:href="../../d7/d97/classFCarlaServer_1_1FPimpl.html#a675a6b572112a21e8bc011dddfd0de86" target="_top" xlink:title="FCarlaServer::FPimpl\l::BindActions">
<polygon fill="#ffffff" stroke="#000000" points="1230.5,-263.5 1230.5,-293.5 1348.5,-293.5 1348.5,-263.5 1230.5,-263.5"/>
<text text-anchor="start" x="1238.5" y="-281.5" font-family="Helvetica,sans-Serif" font-size="10.00" fill="#000000">FCarlaServer::FPimpl</text>
<text text-anchor="middle" x="1289.5" y="-270.5" font-family="Helvetica,sans-Serif" font-size="10.00" fill="#000000">::BindActions</text>
</a>
</g>
</g>
<!-- Node68&#45;&gt;Node69 -->
<g id="edge14" class="edge">
<title>Node68&#45;&gt;Node69</title>
<path fill="none" stroke="#191970" d="M1175.4176,-279.0209C1194.2711,-278.9348 1213.3061,-278.8479 1230.2817,-278.7704"/>
<polygon fill="#191970" stroke="#191970" points="1175.2667,-275.5215 1165.2829,-279.0672 1175.2988,-282.5214 1175.2667,-275.5215"/>
</g>
<!-- Node70 -->
<g id="node16" class="node">
<title>Node70</title>
<g id="a_node16"><a xlink:href="../../d7/d97/classFCarlaServer_1_1FPimpl.html#a5521999cb8b42460143ad4b1cd869398" target="_top" xlink:title="FCarlaServer::FPimpl\l::FPimpl">
<polygon fill="#ffffff" stroke="#000000" points="1438.5,-261.5 1438.5,-291.5 1556.5,-291.5 1556.5,-261.5 1438.5,-261.5"/>
<text text-anchor="start" x="1446.5" y="-279.5" font-family="Helvetica,sans-Serif" font-size="10.00" fill="#000000">FCarlaServer::FPimpl</text>
<text text-anchor="middle" x="1497.5" y="-268.5" font-family="Helvetica,sans-Serif" font-size="10.00" fill="#000000">::FPimpl</text>
</a>
</g>
</g>
<!-- Node69&#45;&gt;Node70 -->
<g id="edge15" class="edge">
<title>Node69&#45;&gt;Node70</title>
<path fill="none" stroke="#191970" d="M1358.6346,-277.8352C1384.4366,-277.5871 1413.4764,-277.3079 1438.3043,-277.0692"/>
<polygon fill="#191970" stroke="#191970" points="1358.5139,-274.3361 1348.5481,-277.9322 1358.5813,-281.3358 1358.5139,-274.3361"/>
</g>
<!-- Node74 -->
<g id="node20" class="node">
<title>Node74</title>
<g id="a_node20"><a xlink:href="../../db/de5/classACarlaGameModeBase.html#a5caddc59713354578997de90542ddd93" target="_top" xlink:title="ACarlaGameModeBase\l::InitGame">
<polygon fill="#ffffff" stroke="#000000" points="1225.5,-116.5 1225.5,-146.5 1353.5,-146.5 1353.5,-116.5 1225.5,-116.5"/>
<text text-anchor="start" x="1233.5" y="-134.5" font-family="Helvetica,sans-Serif" font-size="10.00" fill="#000000">ACarlaGameModeBase</text>
<text text-anchor="middle" x="1289.5" y="-123.5" font-family="Helvetica,sans-Serif" font-size="10.00" fill="#000000">::InitGame</text>
</a>
</g>
</g>
<!-- Node73&#45;&gt;Node74 -->
<g id="edge19" class="edge">
<title>Node73&#45;&gt;Node74</title>
<path fill="none" stroke="#191970" d="M1144.9444,-131.5C1171.0343,-131.5 1200.0925,-131.5 1225.2737,-131.5"/>
<polygon fill="#191970" stroke="#191970" points="1144.7275,-128.0001 1134.7275,-131.5 1144.7274,-135.0001 1144.7275,-128.0001"/>
</g>
<!-- Node76 -->
<g id="node22" class="node">
<title>Node76</title>
<g id="a_node22"><a xlink:href="../../de/d26/namespacecarla_1_1road.html#a3a42ef4bdbd89afe9f2ca742b102a288" target="_top" xlink:title="Return a waypoint for each drivable lane on each lane section of road. ">
<polygon fill="#ffffff" stroke="#000000" points="364,-197 364,-216 541,-216 541,-197 364,-197"/>
<text text-anchor="middle" x="452.5" y="-204" font-family="Helvetica,sans-Serif" font-size="10.00" fill="#000000">carla::road::ForEachDrivableLane</text>
</a>
</g>
</g>
<!-- Node75&#45;&gt;Node76 -->
<g id="edge21" class="edge">
<title>Node75&#45;&gt;Node76</title>
<path fill="none" stroke="#191970" d="M336.3759,-205.3587C345.4392,-205.4478 354.6578,-205.5384 363.7362,-205.6276"/>
<polygon fill="#191970" stroke="#191970" points="336.2587,-201.8575 326.2248,-205.259 336.1899,-208.8572 336.2587,-201.8575"/>
</g>
<!-- Node79 -->
<g id="node25" class="node">
<title>Node79</title>
<g id="a_node25"><a xlink:href="../../de/d26/namespacecarla_1_1road.html#a849b3a1a27392303ff947dcf312f1fd3" target="_top" xlink:title="Return a waypoint for each drivable lane at distance on road. ">
<polygon fill="#ffffff" stroke="#000000" points="375.5,-145.5 375.5,-175.5 529.5,-175.5 529.5,-145.5 375.5,-145.5"/>
<text text-anchor="start" x="383.5" y="-163.5" font-family="Helvetica,sans-Serif" font-size="10.00" fill="#000000">carla::road::ForEachDrivable</text>
<text text-anchor="middle" x="452.5" y="-152.5" font-family="Helvetica,sans-Serif" font-size="10.00" fill="#000000">LaneAt</text>
</a>
</g>
</g>
<!-- Node75&#45;&gt;Node79 -->
<g id="edge24" class="edge">
<title>Node75&#45;&gt;Node79</title>
<path fill="none" stroke="#191970" d="M328.3653,-187.3399C346.3981,-183.441 365.4178,-179.3286 383.0038,-175.5262"/>
<polygon fill="#191970" stroke="#191970" points="327.4984,-183.9464 318.464,-189.4808 328.9778,-190.7883 327.4984,-183.9464"/>
</g>
<!-- Node77 -->
<g id="node23" class="node">
<title>Node77</title>
<g id="a_node23"><a xlink:href="../../d0/d34/classcarla_1_1road_1_1Map.html#a047f3fd871248ef6cea3d7057e38830b" target="_top" xlink:title="Generate the minimum set of waypoints that define the topology of map. ">
<polygon fill="#ffffff" stroke="#000000" points="582.5,-193.5 582.5,-223.5 728.5,-223.5 728.5,-193.5 582.5,-193.5"/>
<text text-anchor="start" x="590.5" y="-211.5" font-family="Helvetica,sans-Serif" font-size="10.00" fill="#000000">carla::road::Map::Generate</text>
<text text-anchor="middle" x="655.5" y="-200.5" font-family="Helvetica,sans-Serif" font-size="10.00" fill="#000000">Topology</text>
</a>
</g>
</g>
<!-- Node76&#45;&gt;Node77 -->
<g id="edge22" class="edge">
<title>Node76&#45;&gt;Node77</title>
<path fill="none" stroke="#191970" d="M551.2842,-207.4732C561.7845,-207.5767 572.3236,-207.6805 582.4515,-207.7803"/>
<polygon fill="#191970" stroke="#191970" points="551.2775,-203.9731 541.2434,-207.3743 551.2084,-210.9728 551.2775,-203.9731"/>
</g>
<!-- Node78 -->
<g id="node24" class="node">
<title>Node78</title>
<g id="a_node24"><a xlink:href="../../dd/d49/classcarla_1_1client_1_1Map.html#aaacd774ccee2067ec1ca9575319ed3c0" target="_top" xlink:title="carla::client::Map\l::GetTopology">
<polygon fill="#ffffff" stroke="#000000" points="805,-193.5 805,-223.5 905,-223.5 905,-193.5 805,-193.5"/>
<text text-anchor="start" x="813" y="-211.5" font-family="Helvetica,sans-Serif" font-size="10.00" fill="#000000">carla::client::Map</text>
<text text-anchor="middle" x="855" y="-200.5" font-family="Helvetica,sans-Serif" font-size="10.00" fill="#000000">::GetTopology</text>
</a>
</g>
</g>
<!-- Node77&#45;&gt;Node78 -->
<g id="edge23" class="edge">
<title>Node77&#45;&gt;Node78</title>
<path fill="none" stroke="#191970" d="M738.8699,-208.5C761.3164,-208.5 784.9006,-208.5 804.9072,-208.5"/>
<polygon fill="#191970" stroke="#191970" points="738.6537,-205.0001 728.6536,-208.5 738.6536,-212.0001 738.6537,-205.0001"/>
</g>
<!-- Node80 -->
<g id="node26" class="node">
<title>Node80</title>
<g id="a_node26"><a xlink:href="../../d0/d34/classcarla_1_1road_1_1Map.html#abdfe3af22dc12687c9d71decb7316fb2" target="_top" xlink:title="Generate all the waypoints in map separated by approx_distance. ">
<polygon fill="#ffffff" stroke="#000000" points="582.5,-144.5 582.5,-174.5 728.5,-174.5 728.5,-144.5 582.5,-144.5"/>
<text text-anchor="start" x="590.5" y="-162.5" font-family="Helvetica,sans-Serif" font-size="10.00" fill="#000000">carla::road::Map::Generate</text>
<text text-anchor="middle" x="655.5" y="-151.5" font-family="Helvetica,sans-Serif" font-size="10.00" fill="#000000">Waypoints</text>
</a>
</g>
</g>
<!-- Node79&#45;&gt;Node80 -->
<g id="edge25" class="edge">
<title>Node79&#45;&gt;Node80</title>
<path fill="none" stroke="#191970" d="M539.7548,-160.0702C553.9036,-160.0005 568.4292,-159.9289 582.2023,-159.8611"/>
<polygon fill="#191970" stroke="#191970" points="539.5177,-156.5712 529.5351,-160.1205 539.5522,-163.5711 539.5177,-156.5712"/>
</g>
<!-- Node81 -->
<g id="node27" class="node">
<title>Node81</title>
<g id="a_node27"><a xlink:href="../../dd/d49/classcarla_1_1client_1_1Map.html#afa0fc99536cdf0e66f90ff72ff1bb969" target="_top" xlink:title="carla::client::Map\l::GenerateWaypoints">
<polygon fill="#ffffff" stroke="#000000" points="795.5,-144.5 795.5,-174.5 914.5,-174.5 914.5,-144.5 795.5,-144.5"/>
<text text-anchor="start" x="803.5" y="-162.5" font-family="Helvetica,sans-Serif" font-size="10.00" fill="#000000">carla::client::Map</text>
<text text-anchor="middle" x="855" y="-151.5" font-family="Helvetica,sans-Serif" font-size="10.00" fill="#000000">::GenerateWaypoints</text>
</a>
</g>
</g>
<!-- Node80&#45;&gt;Node81 -->
<g id="edge26" class="edge">
<title>Node80&#45;&gt;Node81</title>
<path fill="none" stroke="#191970" d="M738.7781,-159.5C757.7332,-159.5 777.5045,-159.5 795.2511,-159.5"/>
<polygon fill="#191970" stroke="#191970" points="738.6537,-156.0001 728.6536,-159.5 738.6536,-163.0001 738.6537,-156.0001"/>
</g>
<!-- Node83 -->
<g id="node29" class="node">
<title>Node83</title>
<g id="a_node29"><a xlink:href="../../de/d26/namespacecarla_1_1road.html#a97ff50680bcc7e2ebdbb158005526b6e" target="_top" xlink:title="Return a waypoint for each lane of the specified type on each lane section of road. ">
<polygon fill="#ffffff" stroke="#000000" points="384.5,-101 384.5,-120 520.5,-120 520.5,-101 384.5,-101"/>
<text text-anchor="middle" x="452.5" y="-108" font-family="Helvetica,sans-Serif" font-size="10.00" fill="#000000">carla::road::ForEachLane</text>
</a>
</g>
</g>
<!-- Node82&#45;&gt;Node83 -->
<g id="edge28" class="edge">
<title>Node82&#45;&gt;Node83</title>
<path fill="none" stroke="#191970" d="M333.9709,-125.6438C350.7516,-123.4998 368.1585,-121.2758 384.2975,-119.2138"/>
<polygon fill="#191970" stroke="#191970" points="333.0961,-122.227 323.6204,-126.9662 333.9833,-129.1706 333.0961,-122.227"/>
</g>
<!-- Node84 -->
<g id="node30" class="node">
<title>Node84</title>
<g id="a_node30"><a xlink:href="../../d0/d34/classcarla_1_1road_1_1Map.html#ad30ed42bc1a8089df7d63ec8cdfa3e72" target="_top" xlink:title="carla::road::Map::Create\lRtree">
<polygon fill="#ffffff" stroke="#000000" points="589,-95.5 589,-125.5 722,-125.5 722,-95.5 589,-95.5"/>
<text text-anchor="start" x="597" y="-113.5" font-family="Helvetica,sans-Serif" font-size="10.00" fill="#000000">carla::road::Map::Create</text>
<text text-anchor="middle" x="655.5" y="-102.5" font-family="Helvetica,sans-Serif" font-size="10.00" fill="#000000">Rtree</text>
</a>
</g>
</g>
<!-- Node83&#45;&gt;Node84 -->
<g id="edge29" class="edge">
<title>Node83&#45;&gt;Node84</title>
<path fill="none" stroke="#191970" d="M530.8621,-110.5C550.0229,-110.5 570.3456,-110.5 588.8973,-110.5"/>
<polygon fill="#191970" stroke="#191970" points="530.6608,-107.0001 520.6608,-110.5 530.6607,-114.0001 530.6608,-107.0001"/>
</g>
<!-- Node86 -->
<g id="node32" class="node">
<title>Node86</title>
<g id="a_node32"><a xlink:href="../../d0/d34/classcarla_1_1road_1_1Map.html#adf1b3cb75595be020adbdbd325298638" target="_top" xlink:title="Generate waypoints of the junction. ">
<polygon fill="#ffffff" stroke="#000000" points="577,-46.5 577,-76.5 734,-76.5 734,-46.5 577,-46.5"/>
<text text-anchor="start" x="585" y="-64.5" font-family="Helvetica,sans-Serif" font-size="10.00" fill="#000000">carla::road::Map::GetJunction</text>
<text text-anchor="middle" x="655.5" y="-53.5" font-family="Helvetica,sans-Serif" font-size="10.00" fill="#000000">Waypoints</text>
</a>
</g>
</g>
<!-- Node83&#45;&gt;Node86 -->
<g id="edge31" class="edge">
<title>Node83&#45;&gt;Node86</title>
<path fill="none" stroke="#191970" d="M501.911,-98.5732C529.3998,-91.938 563.881,-83.6149 593.204,-76.537"/>
<polygon fill="#191970" stroke="#191970" points="501.0219,-95.1872 492.1223,-100.936 502.6644,-101.9918 501.0219,-95.1872"/>
</g>
<!-- Node85 -->
<g id="node31" class="node">
<title>Node85</title>
<g id="a_node31"><a xlink:href="../../d0/d34/classcarla_1_1road_1_1Map.html#a8f7405072e937b732ea32c9b73bd116c" target="_top" xlink:title="======================================================================== – Constructor &#45;&#45;&#45;&#45;&#45;&#45;&#45;&#45;&#45;&#45;&#45;&#45;&#45;...">
<polygon fill="#ffffff" stroke="#000000" points="794.5,-101 794.5,-120 915.5,-120 915.5,-101 794.5,-101"/>
<text text-anchor="middle" x="855" y="-108" font-family="Helvetica,sans-Serif" font-size="10.00" fill="#000000">carla::road::Map::Map</text>
</a>
</g>
</g>
<!-- Node84&#45;&gt;Node85 -->
<g id="edge30" class="edge">
<title>Node84&#45;&gt;Node85</title>
<path fill="none" stroke="#191970" d="M732.478,-110.5C753.0057,-110.5 774.8927,-110.5 794.404,-110.5"/>
<polygon fill="#191970" stroke="#191970" points="732.208,-107.0001 722.208,-110.5 732.2079,-114.0001 732.208,-107.0001"/>
</g>
<!-- Node87 -->
<g id="node33" class="node">
<title>Node87</title>
<g id="a_node33"><a xlink:href="../../dd/d49/classcarla_1_1client_1_1Map.html#afdea683b9dd2fd832405e15053885488" target="_top" xlink:title="Returns a pair of waypoints (start and end) for each lane in the junction. ">
<polygon fill="#ffffff" stroke="#000000" points="790,-49.5 790,-79.5 920,-79.5 920,-49.5 790,-49.5"/>
<text text-anchor="start" x="798" y="-67.5" font-family="Helvetica,sans-Serif" font-size="10.00" fill="#000000">carla::client::Map</text>
<text text-anchor="middle" x="855" y="-56.5" font-family="Helvetica,sans-Serif" font-size="10.00" fill="#000000">::GetJunctionWaypoints</text>
</a>
</g>
</g>
<!-- Node86&#45;&gt;Node87 -->
<g id="edge32" class="edge">
<title>Node86&#45;&gt;Node87</title>
<path fill="none" stroke="#191970" d="M744.0773,-62.832C759.4209,-63.0627 775.1217,-63.2988 789.7027,-63.5181"/>
<polygon fill="#191970" stroke="#191970" points="744.1128,-59.3322 734.0613,-62.6814 744.0075,-66.3314 744.1128,-59.3322"/>
</g>
<!-- Node88 -->
<g id="node34" class="node">
<title>Node88</title>
<g id="a_node34"><a xlink:href="../../de/d16/classcarla_1_1road_1_1MapBuilder.html#ab0d9fe008defb1501769cf62f8cadf14" target="_top" xlink:title="Create the bounding boxes of each junction. ">
<polygon fill="#ffffff" stroke="#000000" points="770,-.5 770,-30.5 940,-30.5 940,-.5 770,-.5"/>
<text text-anchor="start" x="778" y="-18.5" font-family="Helvetica,sans-Serif" font-size="10.00" fill="#000000">carla::road::MapBuilder</text>
<text text-anchor="middle" x="855" y="-7.5" font-family="Helvetica,sans-Serif" font-size="10.00" fill="#000000">::CreateJunctionBoundingBoxes</text>
</a>
</g>
</g>
<!-- Node86&#45;&gt;Node88 -->
<g id="edge33" class="edge">
<title>Node86&#45;&gt;Node88</title>
<path fill="none" stroke="#191970" d="M730.5782,-44.1887C750.0811,-39.6918 770.9266,-34.8853 789.8704,-30.5174"/>
<polygon fill="#191970" stroke="#191970" points="729.7817,-40.7805 720.8238,-46.4379 731.3545,-47.6015 729.7817,-40.7805"/>
</g>
</g>
</svg>
        <g id="navigator" transform="translate(0 0)" fill="#404254">
                <rect fill="#f2f5e9" fill-opacity="0.5" stroke="#606060" stroke-width=".5" x="0" y="0" width="60" height="60"/>
                <use id="zoomplus" xlink:href="#zoomPlus" x="17" y="9" onmousedown="handleZoom(evt,'in')"/>
                <use id="zoomminus" xlink:href="#zoomMin" x="42" y="9" onmousedown="handleZoom(evt,'out')"/>
                <use id="reset" xlink:href="#resetDef" x="30" y="36" onmousedown="handleReset()"/>
                <g id="arrowUp" xlink:href="#dirArrow" transform="translate(30 24)" onmousedown="handlePan(0,-1)">
                  <use xlink:href="#rim" fill="#404040">
                        <set attributeName="fill" to="#808080" begin="arrowUp.mouseover" end="arrowUp.mouseout"/>
                  </use>
                  <path fill="none" stroke="white" stroke-width="1.5" d="M0,-3.0v7 M-2.5,-0.5L0,-3.0L2.5,-0.5"/>
                </g>
                <g id="arrowRight" xlink:href="#dirArrow" transform="rotate(90) translate(36 -43)" onmousedown="handlePan(1,0)">
                  <use xlink:href="#rim" fill="#404040">
                        <set attributeName="fill" to="#808080" begin="arrowRight.mouseover" end="arrowRight.mouseout"/>
                  </use>
                  <path fill="none" stroke="white" stroke-width="1.5" d="M0,-3.0v7 M-2.5,-0.5L0,-3.0L2.5,-0.5"/>
                </g>
                <g id="arrowDown" xlink:href="#dirArrow" transform="rotate(180) translate(-30 -48)" onmousedown="handlePan(0,1)">
                  <use xlink:href="#rim" fill="#404040">
                        <set attributeName="fill" to="#808080" begin="arrowDown.mouseover" end="arrowDown.mouseout"/>
                  </use>
                  <path fill="none" stroke="white" stroke-width="1.5" d="M0,-3.0v7 M-2.5,-0.5L0,-3.0L2.5,-0.5"/>
                </g>
                <g id="arrowLeft" xlink:href="#dirArrow" transform="rotate(270) translate(-36 17)" onmousedown="handlePan(-1,0)">
                  <use xlink:href="#rim" fill="#404040">
                        <set attributeName="fill" to="#808080" begin="arrowLeft.mouseover" end="arrowLeft.mouseout"/>
                  </use>
                  <path fill="none" stroke="white" stroke-width="1.5" d="M0,-3.0v7 M-2.5,-0.5L0,-3.0L2.5,-0.5"/>
                </g>
        </g>
        <svg viewBox="0 0 15 15" width="100%" height="30px" preserveAspectRatio="xMaxYMin meet">
         <g id="arrow_out" transform="scale(0.3 0.3)">
          <a xlink:href="classcarla_1_1road_1_1LaneSection_a017821e7d84eca1b84720700fe3ebdb1_icgraph_org.svg" target="_base">
           <rect id="button" ry="5" rx="5" y="6" x="6" height="38" width="38"
                fill="#f2f5e9" fill-opacity="0.5" stroke="#606060" stroke-width="1.0"/>
           <path id="arrow"
             d="M 11.500037,31.436501 C 11.940474,20.09759 22.043105,11.32322 32.158766,21.979434 L 37.068811,17.246167 C 37.068811,17.246167 37.088388,32 37.088388,32 L 22.160133,31.978069 C 22.160133,31.978069 26.997745,27.140456 26.997745,27.140456 C 18.528582,18.264221 13.291696,25.230495 11.500037,31.436501 z"
             style="fill:#404040;"/>
          </a>
         </g>
        </svg>
</svg>
