<?xml version="1.0" encoding="UTF-8" standalone="no"?>
<!DOCTYPE svg PUBLIC "-//W3C//DTD SVG 1.1//EN"
 "http://www.w3.org/Graphics/SVG/1.1/DTD/svg11.dtd">
<!-- Generated by graphviz version 2.38.0 (20140413.2041)
 -->
<!-- Title: carla::road::LaneSection::GetLane Pages: 1 -->
<svg width="464pt" height="176pt"
 viewBox="0.00 0.00 464.00 175.50" xmlns="http://www.w3.org/2000/svg" xmlns:xlink="http://www.w3.org/1999/xlink">
<g id="graph0" class="graph" transform="scale(1 1) rotate(0) translate(4 171.5)">
<title>carla::road::LaneSection::GetLane</title>
<polygon fill="white" stroke="none" points="-4,4 -4,-171.5 460,-171.5 460,4 -4,4"/>
<!-- Node1 -->
<g id="node1" class="node"><title>Node1</title>
<polygon fill="#bfbfbf" stroke="black" points="0,-73.5 0,-103.5 122,-103.5 122,-73.5 0,-73.5"/>
<text text-anchor="start" x="8" y="-91.5" font-family="Helvetica,sans-Serif" font-size="10.00">carla::road::LaneSection</text>
<text text-anchor="middle" x="61" y="-80.5" font-family="Helvetica,sans-Serif" font-size="10.00">::GetLane</text>
</g>
<!-- Node2 -->
<g id="node2" class="node"><title>Node2</title>
<g id="a_node2"><a xlink:href="../../d1/dc0/test__opendrive_8cpp.html#abf3b27156775448afb3a631bf7351e4d" target="_top" xlink:title="get_total_road_marks">
<polygon fill="white" stroke="black" points="164,-148 164,-167 274,-167 274,-148 164,-148"/>
<text text-anchor="middle" x="219" y="-155" font-family="Helvetica,sans-Serif" font-size="10.00">get_total_road_marks</text>
</a>
</g>
</g>
<!-- Node1&#45;&gt;Node2 -->
<g id="edge1" class="edge"><title>Node1&#45;&gt;Node2</title>
<path fill="none" stroke="midnightblue" d="M96.8286,-108.504C114.751,-118.315 137.16,-129.85 158,-138.5 166.376,-141.977 175.628,-145.196 184.307,-147.96"/>
<polygon fill="midnightblue" stroke="midnightblue" points="98.3407,-105.341 87.8974,-103.555 94.9479,-111.464 98.3407,-105.341"/>
</g>
<!-- Node5 -->
<g id="node5" class="node"><title>Node5</title>
<g id="a_node5"><a xlink:href="../../de/d16/classcarla_1_1road_1_1MapBuilder.html#af7818fa90e4281abc159f08e31a9fb00" target="_top" xlink:title="Return the pointer to a lane object. ">
<polygon fill="white" stroke="black" points="160.5,-98.5 160.5,-128.5 277.5,-128.5 277.5,-98.5 160.5,-98.5"/>
<text text-anchor="start" x="168.5" y="-116.5" font-family="Helvetica,sans-Serif" font-size="10.00">carla::road::MapBuilder</text>
<text text-anchor="middle" x="219" y="-105.5" font-family="Helvetica,sans-Serif" font-size="10.00">::GetEdgeLanePointer</text>
</a>
</g>
</g>
<!-- Node1&#45;&gt;Node5 -->
<g id="edge4" class="edge"><title>Node1&#45;&gt;Node5</title>
<path fill="none" stroke="midnightblue" d="M132.399,-99.7818C141.77,-101.284 151.289,-102.809 160.408,-104.271"/>
<polygon fill="midnightblue" stroke="midnightblue" points="132.742,-96.2922 122.314,-98.1657 131.634,-103.204 132.742,-96.2922"/>
</g>
<!-- Node6 -->
<g id="node6" class="node"><title>Node6</title>
<g id="a_node6"><a xlink:href="../../de/d16/classcarla_1_1road_1_1MapBuilder.html#ad84a5423baee8d92269aab9d8723c68a" target="_top" xlink:title="Return a list of pointers to all lanes from a lane (using road and junction info). ">
<polygon fill="white" stroke="black" points="160.5,-49.5 160.5,-79.5 277.5,-79.5 277.5,-49.5 160.5,-49.5"/>
<text text-anchor="start" x="168.5" y="-67.5" font-family="Helvetica,sans-Serif" font-size="10.00">carla::road::MapBuilder</text>
<text text-anchor="middle" x="219" y="-56.5" font-family="Helvetica,sans-Serif" font-size="10.00">::GetLaneNext</text>
</a>
</g>
</g>
<!-- Node1&#45;&gt;Node6 -->
<g id="edge5" class="edge"><title>Node1&#45;&gt;Node6</title>
<path fill="none" stroke="midnightblue" d="M132.399,-77.6694C141.77,-76.2277 151.289,-74.7632 160.408,-73.3603"/>
<polygon fill="midnightblue" stroke="midnightblue" points="131.665,-74.241 122.314,-79.221 132.73,-81.1596 131.665,-74.241"/>
</g>
<!-- Node7 -->
<g id="node7" class="node"><title>Node7</title>
<g id="a_node7"><a xlink:href="../../dd/d80/classcarla_1_1road_1_1LaneSection.html#a8c73b7cdf13416c6f02621555c91e23b" target="_top" xlink:title="carla::road::LaneSection\l::LaneSection">
<polygon fill="white" stroke="black" points="158,-0.5 158,-30.5 280,-30.5 280,-0.5 158,-0.5"/>
<text text-anchor="start" x="166" y="-18.5" font-family="Helvetica,sans-Serif" font-size="10.00">carla::road::LaneSection</text>
<text text-anchor="middle" x="219" y="-7.5" font-family="Helvetica,sans-Serif" font-size="10.00">::LaneSection</text>
</a>
</g>
</g>
<!-- Node1&#45;&gt;Node7 -->
<g id="edge6" class="edge"><title>Node1&#45;&gt;Node7</title>
<path fill="none" stroke="midnightblue" d="M100.058,-68.7162C117.569,-59.8086 138.7,-49.3331 158,-40.5 165.285,-37.1657 173.145,-33.7578 180.7,-30.5738"/>
<polygon fill="midnightblue" stroke="midnightblue" points="98.0458,-65.8139 90.7361,-73.4831 101.233,-72.0462 98.0458,-65.8139"/>
</g>
<!-- Node3 -->
<g id="node3" class="node"><title>Node3</title>
<g id="a_node3"><a xlink:href="../../d1/dc0/test__opendrive_8cpp.html#a150bee03ecfb9362ac5a63f334562723" target="_top" xlink:title="test_roads">
<polygon fill="white" stroke="black" points="316,-148 316,-167 378,-167 378,-148 316,-148"/>
<text text-anchor="middle" x="347" y="-155" font-family="Helvetica,sans-Serif" font-size="10.00">test_roads</text>
</a>
</g>
</g>
<!-- Node2&#45;&gt;Node3 -->
<g id="edge2" class="edge"><title>Node2&#45;&gt;Node3</title>
<path fill="none" stroke="midnightblue" d="M284.266,-157.5C295.289,-157.5 306.261,-157.5 315.83,-157.5"/>
<polygon fill="midnightblue" stroke="midnightblue" points="284.167,-154 274.167,-157.5 284.167,-161 284.167,-154"/>
</g>
<!-- Node4 -->
<g id="node4" class="node"><title>Node4</title>
<g id="a_node4"><a xlink:href="../../d1/dc0/test__opendrive_8cpp.html#aa6244d8f18c32ca7e6f0b3de79354dda" target="_top" xlink:title="TEST">
<polygon fill="white" stroke="black" points="414,-148 414,-167 456,-167 456,-148 414,-148"/>
<text text-anchor="middle" x="435" y="-155" font-family="Helvetica,sans-Serif" font-size="10.00">TEST</text>
</a>
</g>
</g>
<!-- Node3&#45;&gt;Node4 -->
<g id="edge3" class="edge"><title>Node3&#45;&gt;Node4</title>
<path fill="none" stroke="midnightblue" d="M388.301,-157.5C397.146,-157.5 406.144,-157.5 413.789,-157.5"/>
<polygon fill="midnightblue" stroke="midnightblue" points="388.079,-154 378.079,-157.5 388.079,-161 388.079,-154"/>
</g>
</g>
</svg>
