<?xml version="1.0" encoding="UTF-8" standalone="no"?>
<!DOCTYPE svg PUBLIC "-//W3C//DTD SVG 1.1//EN"
 "http://www.w3.org/Graphics/SVG/1.1/DTD/svg11.dtd">
<!-- Generated by graphviz version 2.38.0 (20140413.2041)
 -->
<!-- Title: pugi::xpath_node_set::operator= Pages: 1 -->
<svg width="437pt" height="127pt"
 viewBox="0.00 0.00 437.00 127.00" xmlns="http://www.w3.org/2000/svg" xmlns:xlink="http://www.w3.org/1999/xlink">
<g id="graph0" class="graph" transform="scale(1 1) rotate(0) translate(4 123)">
<title>pugi::xpath_node_set::operator=</title>
<polygon fill="white" stroke="none" points="-4,4 -4,-123 433,-123 433,4 -4,4"/>
<!-- Node1 -->
<g id="node1" class="node"><title>Node1</title>
<polygon fill="#bfbfbf" stroke="black" points="0,-44.5 0,-74.5 119,-74.5 119,-44.5 0,-44.5"/>
<text text-anchor="start" x="8" y="-62.5" font-family="Helvetica,sans-Serif" font-size="10.00">pugi::xpath_node_set</text>
<text text-anchor="middle" x="59.5" y="-51.5" font-family="Helvetica,sans-Serif" font-size="10.00">::operator=</text>
</g>
<!-- Node2 -->
<g id="node2" class="node"><title>Node2</title>
<g id="a_node2"><a xlink:href="../../df/d06/classpugi_1_1xpath__node__set.html#a251e63ad280361091758fa678fad28e1" target="_top" xlink:title="pugi::xpath_node_set\l::_assign">
<polygon fill="white" stroke="black" points="155,-88.5 155,-118.5 274,-118.5 274,-88.5 155,-88.5"/>
<text text-anchor="start" x="163" y="-106.5" font-family="Helvetica,sans-Serif" font-size="10.00">pugi::xpath_node_set</text>
<text text-anchor="middle" x="214.5" y="-95.5" font-family="Helvetica,sans-Serif" font-size="10.00">::_assign</text>
</a>
</g>
</g>
<!-- Node1&#45;&gt;Node2 -->
<g id="edge1" class="edge"><title>Node1&#45;&gt;Node2</title>
<path fill="none" stroke="midnightblue" d="M112.726,-74.5192C125.212,-78.11 138.661,-81.9776 151.539,-85.681"/>
<polygon fill="midnightblue" stroke="midnightblue" points="150.672,-89.0736 161.25,-88.4738 152.607,-82.3463 150.672,-89.0736"/>
</g>
<!-- Node3 -->
<g id="node3" class="node"><title>Node3</title>
<g id="a_node3"><a xlink:href="../../df/d06/classpugi_1_1xpath__node__set.html#afc25e8974342465d4cd920674228da10" target="_top" xlink:title="pugi::xpath_node_set\l::_move">
<polygon fill="white" stroke="black" points="310,-66.5 310,-96.5 429,-96.5 429,-66.5 310,-66.5"/>
<text text-anchor="start" x="318" y="-84.5" font-family="Helvetica,sans-Serif" font-size="10.00">pugi::xpath_node_set</text>
<text text-anchor="middle" x="369.5" y="-73.5" font-family="Helvetica,sans-Serif" font-size="10.00">::_move</text>
</a>
</g>
</g>
<!-- Node1&#45;&gt;Node3 -->
<g id="edge3" class="edge"><title>Node1&#45;&gt;Node3</title>
<path fill="none" stroke="midnightblue" d="M119.157,-63.6898C170.562,-67.3616 245.333,-72.7023 299.579,-76.577"/>
<polygon fill="midnightblue" stroke="midnightblue" points="299.575,-80.0856 309.799,-77.3071 300.074,-73.1034 299.575,-80.0856"/>
</g>
<!-- Node4 -->
<g id="node4" class="node"><title>Node4</title>
<g id="a_node4"><a xlink:href="../../df/d06/classpugi_1_1xpath__node__set.html#a1edbf222135dfdb98b5300914f51f04c" target="_top" xlink:title="pugi::xpath_node_set\l::xpath_node_set">
<polygon fill="white" stroke="black" points="155,-0.5 155,-30.5 274,-30.5 274,-0.5 155,-0.5"/>
<text text-anchor="start" x="163" y="-18.5" font-family="Helvetica,sans-Serif" font-size="10.00">pugi::xpath_node_set</text>
<text text-anchor="middle" x="214.5" y="-7.5" font-family="Helvetica,sans-Serif" font-size="10.00">::xpath_node_set</text>
</a>
</g>
</g>
<!-- Node1&#45;&gt;Node4 -->
<g id="edge4" class="edge"><title>Node1&#45;&gt;Node4</title>
<path fill="none" stroke="midnightblue" d="M112.726,-44.4808C125.212,-40.89 138.661,-37.0224 151.539,-33.319"/>
<polygon fill="midnightblue" stroke="midnightblue" points="152.607,-36.6537 161.25,-30.5262 150.672,-29.9264 152.607,-36.6537"/>
</g>
<!-- Node2&#45;&gt;Node3 -->
<g id="edge2" class="edge"><title>Node2&#45;&gt;Node3</title>
<path fill="none" stroke="midnightblue" d="M274.216,-95.0571C282.635,-93.8465 291.359,-92.5922 299.947,-91.3573"/>
<polygon fill="midnightblue" stroke="midnightblue" points="300.541,-94.808 309.941,-89.9203 299.545,-87.8792 300.541,-94.808"/>
</g>
</g>
</svg>
