<?xml version="1.0" encoding="UTF-8" standalone="no"?>
<!DOCTYPE svg PUBLIC "-//W3C//DTD SVG 1.1//EN"
 "http://www.w3.org/Graphics/SVG/1.1/DTD/svg11.dtd">
<!-- Generated by graphviz version 2.43.0 (0)
 -->
<!-- Title: carla::client::Landmark::GetTransform Pages: 1 -->
<svg width="321pt" height="88pt"
 viewBox="0.00 0.00 321.00 88.00" xmlns="http://www.w3.org/2000/svg" xmlns:xlink="http://www.w3.org/1999/xlink">
<g id="graph0" class="graph" transform="scale(1 1) rotate(0) translate(4 84)">
<title>carla::client::Landmark::GetTransform</title>
<polygon fill="white" stroke="transparent" points="-4,4 -4,-84 317,-84 317,4 -4,4"/>
<!-- Node1 -->
<g id="node1" class="node">
<title>Node1</title>
<g id="a_node1"><a xlink:title=" ">
<polygon fill="#bfbfbf" stroke="black" points="0,-24.5 0,-54.5 128,-54.5 128,-24.5 0,-24.5"/>
<text text-anchor="start" x="8" y="-42.5" font-family="Helvetica,sans-Serif" font-size="10.00">carla::client::Landmark</text>
<text text-anchor="middle" x="64" y="-31.5" font-family="Helvetica,sans-Serif" font-size="10.00">::GetTransform</text>
</a>
</g>
</g>
<!-- Node2 -->
<g id="node2" class="node">
<title>Node2</title>
<g id="a_node2"><a xlink:href="../../d5/d51/classcarla_1_1road_1_1element_1_1RoadInfoSignal.html#acd46e738b3e7fabd761c14a67bf3ecae" target="_top" xlink:title=" ">
<polygon fill="white" stroke="black" points="164,-49.5 164,-79.5 313,-79.5 313,-49.5 164,-49.5"/>
<text text-anchor="start" x="172" y="-67.5" font-family="Helvetica,sans-Serif" font-size="10.00">carla::road::element</text>
<text text-anchor="middle" x="238.5" y="-56.5" font-family="Helvetica,sans-Serif" font-size="10.00">::RoadInfoSignal::GetSignal</text>
</a>
</g>
</g>
<!-- Node1&#45;&gt;Node2 -->
<g id="edge1" class="edge">
<title>Node1&#45;&gt;Node2</title>
<path fill="none" stroke="midnightblue" d="M128.25,-48.67C136.55,-49.87 145.15,-51.12 153.71,-52.36"/>
<polygon fill="midnightblue" stroke="midnightblue" points="153.34,-55.84 163.73,-53.81 154.34,-48.91 153.34,-55.84"/>
</g>
<!-- Node3 -->
<g id="node3" class="node">
<title>Node3</title>
<g id="a_node3"><a xlink:href="../../da/da8/classcarla_1_1road_1_1Signal.html#af482f4d614a1298f76a8905e5b82dfdb" target="_top" xlink:title=" ">
<polygon fill="white" stroke="black" points="186.5,-0.5 186.5,-30.5 290.5,-30.5 290.5,-0.5 186.5,-0.5"/>
<text text-anchor="start" x="194.5" y="-18.5" font-family="Helvetica,sans-Serif" font-size="10.00">carla::road::Signal</text>
<text text-anchor="middle" x="238.5" y="-7.5" font-family="Helvetica,sans-Serif" font-size="10.00">::GetTransform</text>
</a>
</g>
</g>
<!-- Node1&#45;&gt;Node3 -->
<g id="edge2" class="edge">
<title>Node1&#45;&gt;Node3</title>
<path fill="none" stroke="midnightblue" d="M128.25,-30.7C143.95,-28.52 160.74,-26.18 176.34,-24.01"/>
<polygon fill="midnightblue" stroke="midnightblue" points="176.97,-27.46 186.39,-22.61 176,-20.52 176.97,-27.46"/>
</g>
</g>
</svg>
