<?xml version="1.0" encoding="UTF-8" standalone="no"?>
<!DOCTYPE svg PUBLIC "-//W3C//DTD SVG 1.1//EN"
 "http://www.w3.org/Graphics/SVG/1.1/DTD/svg11.dtd">
<!-- Generated by graphviz version 2.38.0 (20140413.2041)
 -->
<!-- Title: carla::sensor::data::LidarRawData::GetHorizontalAngle Pages: 1 -->
<svg width="521pt" height="66pt"
 viewBox="0.00 0.00 521.00 66.00" xmlns="http://www.w3.org/2000/svg" xmlns:xlink="http://www.w3.org/1999/xlink">
<g id="graph0" class="graph" transform="scale(1 1) rotate(0) translate(4 62)">
<title>carla::sensor::data::LidarRawData::GetHorizontalAngle</title>
<polygon fill="white" stroke="none" points="-4,4 -4,-62 517,-62 517,4 -4,4"/>
<!-- Node1 -->
<g id="node1" class="node"><title>Node1</title>
<polygon fill="#bfbfbf" stroke="black" points="0,-8.5 0,-49.5 160,-49.5 160,-8.5 0,-8.5"/>
<text text-anchor="start" x="8" y="-37.5" font-family="Helvetica,sans-Serif" font-size="10.00">carla::sensor::data</text>
<text text-anchor="start" x="8" y="-26.5" font-family="Helvetica,sans-Serif" font-size="10.00">::LidarRawData::GetHorizontal</text>
<text text-anchor="middle" x="80" y="-15.5" font-family="Helvetica,sans-Serif" font-size="10.00">Angle</text>
</g>
<!-- Node2 -->
<g id="node2" class="node"><title>Node2</title>
<g id="a_node2"><a xlink:href="../../dc/d6f/classARayCastRawLidar.html#a1362de51a55c2bf8a708046c210ca105" target="_top" xlink:title="Updates LidarMeasurement with the points read in DeltaTime. ">
<polygon fill="white" stroke="black" points="196,-14 196,-44 349,-44 349,-14 196,-14"/>
<text text-anchor="start" x="204" y="-32" font-family="Helvetica,sans-Serif" font-size="10.00">ARayCastRawLidar::Simulate</text>
<text text-anchor="middle" x="272.5" y="-21" font-family="Helvetica,sans-Serif" font-size="10.00">Lidar</text>
</a>
</g>
</g>
<!-- Node1&#45;&gt;Node2 -->
<g id="edge1" class="edge"><title>Node1&#45;&gt;Node2</title>
<path fill="none" stroke="midnightblue" d="M170.204,-29C178.822,-29 187.507,-29 195.974,-29"/>
<polygon fill="midnightblue" stroke="midnightblue" points="170.134,-25.5001 160.134,-29 170.134,-32.5001 170.134,-25.5001"/>
</g>
<!-- Node3 -->
<g id="node3" class="node"><title>Node3</title>
<g id="a_node3"><a xlink:href="../../dc/d6f/classARayCastRawLidar.html#af8e513125a3fa2598d78208344ddc03d" target="_top" xlink:title="ARayCastRawLidar::Tick">
<polygon fill="white" stroke="black" points="385,-38.5 385,-57.5 513,-57.5 513,-38.5 385,-38.5"/>
<text text-anchor="middle" x="449" y="-45.5" font-family="Helvetica,sans-Serif" font-size="10.00">ARayCastRawLidar::Tick</text>
</a>
</g>
</g>
<!-- Node2&#45;&gt;Node3 -->
<g id="edge2" class="edge"><title>Node2&#45;&gt;Node3</title>
<path fill="none" stroke="midnightblue" d="M359.177,-38.3288C367.853,-39.2734 376.549,-40.2202 384.922,-41.132"/>
<polygon fill="midnightblue" stroke="midnightblue" points="359.343,-34.8263 349.023,-37.2232 358.586,-41.7851 359.343,-34.8263"/>
</g>
<!-- Node4 -->
<g id="node4" class="node"><title>Node4</title>
<g id="a_node4"><a xlink:href="../../d5/de4/classARayCastLidar.html#a1d8fa9e958443f080fe7e947c542b5cf" target="_top" xlink:title="ARayCastLidar::Tick">
<polygon fill="white" stroke="black" points="394,-0.5 394,-19.5 504,-19.5 504,-0.5 394,-0.5"/>
<text text-anchor="middle" x="449" y="-7.5" font-family="Helvetica,sans-Serif" font-size="10.00">ARayCastLidar::Tick</text>
</a>
</g>
</g>
<!-- Node2&#45;&gt;Node4 -->
<g id="edge3" class="edge"><title>Node2&#45;&gt;Node4</title>
<path fill="none" stroke="midnightblue" d="M358.986,-19.6921C370.881,-18.3969 382.821,-17.0969 393.919,-15.8885"/>
<polygon fill="midnightblue" stroke="midnightblue" points="358.586,-16.2149 349.023,-20.7768 359.343,-23.1737 358.586,-16.2149"/>
</g>
</g>
</svg>
