<?xml version="1.0" encoding="UTF-8" standalone="no"?>
<!DOCTYPE svg PUBLIC "-//W3C//DTD SVG 1.1//EN"
 "http://www.w3.org/Graphics/SVG/1.1/DTD/svg11.dtd">
<!-- Generated by graphviz version 2.38.0 (20140413.2041)
 -->
<!-- Title: carla::geom::Math::Square Pages: 1 -->
<!--zoomable 668 -->
<svg id="main" version="1.1" xmlns="http://www.w3.org/2000/svg" xmlns:xlink="http://www.w3.org/1999/xlink" xml:space="preserve" onload="init(evt)">
<style type="text/css"><![CDATA[
.edge:hover path { stroke: red; }
.edge:hover polygon { stroke: red; fill: red; }
]]></style>
<script type="text/javascript"><![CDATA[
var edges = document.getElementsByTagName('g');
if (edges && edges.length) {
  for (var i=0;i<edges.length;i++) {
    if (edges[i].id.substr(0,4)=='edge') {
      edges[i].setAttribute('class','edge');
    }
  }
}
]]></script>
        <defs>
                <circle id="rim" cx="0" cy="0" r="7"/>
                <circle id="rim2" cx="0" cy="0" r="3.5"/>
                <g id="zoomPlus">
                        <use xlink:href="#rim" fill="#404040">
                                <set attributeName="fill" to="#808080" begin="zoomplus.mouseover" end="zoomplus.mouseout"/>
                        </use>
                        <path d="M-4,0h8M0,-4v8" fill="none" stroke="white" stroke-width="1.5" pointer-events="none"/>
                </g>
                <g id="zoomMin">
                        <use xlink:href="#rim" fill="#404040">
                                <set attributeName="fill" to="#808080" begin="zoomminus.mouseover" end="zoomminus.mouseout"/>
                        </use>
                        <path d="M-4,0h8" fill="none" stroke="white" stroke-width="1.5" pointer-events="none"/>
                </g>
                <g id="dirArrow">
                        <path fill="none" stroke="white" stroke-width="1.5" d="M0,-3.0v7 M-2.5,-0.5L0,-3.0L2.5,-0.5"/>
                </g>
               <g id="resetDef">
                       <use xlink:href="#rim2" fill="#404040">
                               <set attributeName="fill" to="#808080" begin="reset.mouseover" end="reset.mouseout"/>
                       </use>
               </g>
        </defs>

<script type="text/javascript">
var viewWidth = 1455;
var viewHeight = 668;
var sectionId = 'dynsection-18';
</script>
<script xlink:href="../../svgpan.js"/>
<svg id="graph" class="graph">
<g id="viewport">
<title>carla::geom::Math::Square</title>
<polygon fill="white" stroke="none" points="-4,4 -4,-664 1451,-664 1451,4 -4,4"/>
<!-- Node1 -->
<g id="node1" class="node"><title>Node1</title>
<polygon fill="#bfbfbf" stroke="black" points="0,-347.5 0,-377.5 101,-377.5 101,-347.5 0,-347.5"/>
<text text-anchor="start" x="8" y="-365.5" font-family="Helvetica,sans-Serif" font-size="10.00">carla::geom::Math::</text>
<text text-anchor="middle" x="50.5" y="-354.5" font-family="Helvetica,sans-Serif" font-size="10.00">Square</text>
</g>
<!-- Node2 -->
<g id="node2" class="node"><title>Node2</title>
<g id="a_node2"><a xlink:href="../../d0/dea/classcarla_1_1geom_1_1Math.html#a8bd4b72e239a23e9eb0bca4604dfa63e" target="_top" xlink:title="carla::geom::Math::\lDistanceSquared">
<polygon fill="white" stroke="black" points="138.5,-487.5 138.5,-517.5 239.5,-517.5 239.5,-487.5 138.5,-487.5"/>
<text text-anchor="start" x="146.5" y="-505.5" font-family="Helvetica,sans-Serif" font-size="10.00">carla::geom::Math::</text>
<text text-anchor="middle" x="189" y="-494.5" font-family="Helvetica,sans-Serif" font-size="10.00">DistanceSquared</text>
</a>
</g>
</g>
<!-- Node1&#45;&gt;Node2 -->
<g id="edge1" class="edge"><title>Node1&#45;&gt;Node2</title>
<path fill="none" stroke="midnightblue" d="M73.3642,-384.925C101.342,-413.62 149.059,-462.561 173.151,-487.27"/>
<polygon fill="midnightblue" stroke="midnightblue" points="75.8548,-382.466 66.3677,-377.749 70.8428,-387.352 75.8548,-382.466"/>
</g>
<!-- Node14 -->
<g id="node14" class="node"><title>Node14</title>
<g id="a_node14"><a xlink:href="../../d0/dea/classcarla_1_1geom_1_1Math.html#a16bbc81c150eccc1f9407be9d9651766" target="_top" xlink:title="carla::geom::Math::\lDistanceSquared2D">
<polygon fill="white" stroke="black" points="137,-208.5 137,-238.5 241,-238.5 241,-208.5 137,-208.5"/>
<text text-anchor="start" x="145" y="-226.5" font-family="Helvetica,sans-Serif" font-size="10.00">carla::geom::Math::</text>
<text text-anchor="middle" x="189" y="-215.5" font-family="Helvetica,sans-Serif" font-size="10.00">DistanceSquared2D</text>
</a>
</g>
</g>
<!-- Node1&#45;&gt;Node14 -->
<g id="edge14" class="edge"><title>Node1&#45;&gt;Node14</title>
<path fill="none" stroke="midnightblue" d="M73.7224,-339.871C101.747,-311.332 149.162,-263.049 173.151,-238.621"/>
<polygon fill="midnightblue" stroke="midnightblue" points="70.8771,-337.773 66.3677,-347.36 75.8716,-342.677 70.8771,-337.773"/>
</g>
<!-- Node3 -->
<g id="node3" class="node"><title>Node3</title>
<g id="a_node3"><a xlink:href="../../d1/d26/classcarla_1_1traffic__manager_1_1CollisionStage.html#a879ddb5b8d339cfd25cf6bee0c661ae9" target="_top" xlink:title="Implement this method with logic to process data inside the stage. ">
<polygon fill="white" stroke="black" points="503.5,-602.5 503.5,-632.5 622.5,-632.5 622.5,-602.5 503.5,-602.5"/>
<text text-anchor="start" x="511.5" y="-620.5" font-family="Helvetica,sans-Serif" font-size="10.00">carla::traffic_manager</text>
<text text-anchor="middle" x="563" y="-609.5" font-family="Helvetica,sans-Serif" font-size="10.00">::CollisionStage::Action</text>
</a>
</g>
</g>
<!-- Node2&#45;&gt;Node3 -->
<g id="edge2" class="edge"><title>Node2&#45;&gt;Node3</title>
<path fill="none" stroke="midnightblue" d="M240.601,-521.025C252.462,-525.067 265.109,-529.137 277,-532.5 353.677,-554.19 376.056,-547.367 452,-571.5 479.027,-580.088 508.63,-592.659 530.311,-602.489"/>
<polygon fill="midnightblue" stroke="midnightblue" points="241.452,-517.616 230.857,-517.653 239.162,-524.231 241.452,-517.616"/>
</g>
<!-- Node4 -->
<g id="node4" class="node"><title>Node4</title>
<g id="a_node4"><a xlink:href="../../d6/da2/classcarla_1_1traffic__manager_1_1LocalizationStage.html#acc585aa83ca9505e244f140cdb7a7fae" target="_top" xlink:title="Method to determine lane change and obtain target lane waypoint. ">
<polygon fill="white" stroke="black" points="286,-482 286,-523 443,-523 443,-482 286,-482"/>
<text text-anchor="start" x="294" y="-511" font-family="Helvetica,sans-Serif" font-size="10.00">carla::traffic_manager</text>
<text text-anchor="start" x="294" y="-500" font-family="Helvetica,sans-Serif" font-size="10.00">::LocalizationStage::AssignLane</text>
<text text-anchor="middle" x="364.5" y="-489" font-family="Helvetica,sans-Serif" font-size="10.00">Change</text>
</a>
</g>
</g>
<!-- Node2&#45;&gt;Node4 -->
<g id="edge3" class="edge"><title>Node2&#45;&gt;Node4</title>
<path fill="none" stroke="midnightblue" d="M249.753,-502.5C261.412,-502.5 273.793,-502.5 285.932,-502.5"/>
<polygon fill="midnightblue" stroke="midnightblue" points="249.718,-499 239.718,-502.5 249.718,-506 249.718,-499"/>
</g>
<!-- Node6 -->
<g id="node6" class="node"><title>Node6</title>
<g id="a_node6"><a xlink:href="../../d0/dea/classcarla_1_1geom_1_1Math.html#adc0c40d67bed1ab82405838c7981aff1" target="_top" xlink:title="carla::geom::Math::\lDistance">
<polygon fill="white" stroke="black" points="314,-433.5 314,-463.5 415,-463.5 415,-433.5 314,-433.5"/>
<text text-anchor="start" x="322" y="-451.5" font-family="Helvetica,sans-Serif" font-size="10.00">carla::geom::Math::</text>
<text text-anchor="middle" x="364.5" y="-440.5" font-family="Helvetica,sans-Serif" font-size="10.00">Distance</text>
</a>
</g>
</g>
<!-- Node2&#45;&gt;Node6 -->
<g id="edge5" class="edge"><title>Node2&#45;&gt;Node6</title>
<path fill="none" stroke="midnightblue" d="M241.453,-484.173C253.098,-480.189 265.438,-476.094 277,-472.5 288.906,-468.799 301.818,-465.068 313.944,-461.686"/>
<polygon fill="midnightblue" stroke="midnightblue" points="240.178,-480.91 231.867,-487.481 242.462,-487.527 240.178,-480.91"/>
</g>
<!-- Node11 -->
<g id="node11" class="node"><title>Node11</title>
<g id="a_node11"><a xlink:href="../../dc/d04/classcarla_1_1traffic__manager_1_1SimpleWaypoint.html#ae22a1907bd8b94d89a5162661f421d82" target="_top" xlink:title="Calculates the square of the distance to given location. ">
<polygon fill="white" stroke="black" points="277,-384.5 277,-414.5 452,-414.5 452,-384.5 277,-384.5"/>
<text text-anchor="start" x="285" y="-402.5" font-family="Helvetica,sans-Serif" font-size="10.00">carla::traffic_manager</text>
<text text-anchor="middle" x="364.5" y="-391.5" font-family="Helvetica,sans-Serif" font-size="10.00">::SimpleWaypoint::DistanceSquared</text>
</a>
</g>
</g>
<!-- Node2&#45;&gt;Node11 -->
<g id="edge10" class="edge"><title>Node2&#45;&gt;Node11</title>
<path fill="none" stroke="midnightblue" d="M209.85,-479.824C226.254,-462.387 250.998,-438.913 277,-424.5 283.836,-420.711 291.302,-417.448 298.89,-414.651"/>
<polygon fill="midnightblue" stroke="midnightblue" points="207.116,-477.625 202.925,-487.356 212.27,-482.363 207.116,-477.625"/>
</g>
<!-- Node12 -->
<g id="node12" class="node"><title>Node12</title>
<g id="a_node12"><a xlink:href="../../d1/d26/classcarla_1_1traffic__manager_1_1CollisionStage.html#a496e2ddc0fedbe61fc7b15238c88c5fb" target="_top" xlink:title="The method returns true if ego_vehicle should stop and wait for other_vehicle to pass. ">
<polygon fill="white" stroke="black" points="279,-629.5 279,-659.5 450,-659.5 450,-629.5 279,-629.5"/>
<text text-anchor="start" x="287" y="-647.5" font-family="Helvetica,sans-Serif" font-size="10.00">carla::traffic_manager</text>
<text text-anchor="middle" x="364.5" y="-636.5" font-family="Helvetica,sans-Serif" font-size="10.00">::CollisionStage::NegotiateCollision</text>
</a>
</g>
</g>
<!-- Node2&#45;&gt;Node12 -->
<g id="edge11" class="edge"><title>Node2&#45;&gt;Node12</title>
<path fill="none" stroke="midnightblue" d="M201.656,-526.848C215.779,-553.755 242.088,-596.458 277,-620.5 282.006,-623.947 287.494,-626.901 293.201,-629.432"/>
<polygon fill="midnightblue" stroke="midnightblue" points="204.663,-525.04 197.011,-517.713 198.424,-528.213 204.663,-525.04"/>
</g>
<!-- Node13 -->
<g id="node13" class="node"><title>Node13</title>
<g id="a_node13"><a xlink:href="../../da/d07/classcarla_1_1traffic__manager_1_1InMemoryMap.html#a7217fb548cea753e9040417ec7327e36" target="_top" xlink:title="This method constructs the local map with a resolution of sampling_resolution. ">
<polygon fill="white" stroke="black" points="305,-580.5 305,-610.5 424,-610.5 424,-580.5 305,-580.5"/>
<text text-anchor="start" x="313" y="-598.5" font-family="Helvetica,sans-Serif" font-size="10.00">carla::traffic_manager</text>
<text text-anchor="middle" x="364.5" y="-587.5" font-family="Helvetica,sans-Serif" font-size="10.00">::InMemoryMap::SetUp</text>
</a>
</g>
</g>
<!-- Node2&#45;&gt;Node13 -->
<g id="edge13" class="edge"><title>Node2&#45;&gt;Node13</title>
<path fill="none" stroke="midnightblue" d="M215.778,-524.266C232.434,-537.522 255.03,-554.054 277,-565.5 287.995,-571.228 300.321,-576.251 312.145,-580.466"/>
<polygon fill="midnightblue" stroke="midnightblue" points="217.617,-521.251 207.644,-517.676 213.211,-526.69 217.617,-521.251"/>
</g>
<!-- Node5 -->
<g id="node5" class="node"><title>Node5</title>
<g id="a_node5"><a xlink:href="../../d6/da2/classcarla_1_1traffic__manager_1_1LocalizationStage.html#a5d4109a46221cba4fe8d2f852f277205" target="_top" xlink:title="Implement this method with logic to process data inside the stage. ">
<polygon fill="white" stroke="black" points="496,-526.5 496,-556.5 630,-556.5 630,-526.5 496,-526.5"/>
<text text-anchor="start" x="504" y="-544.5" font-family="Helvetica,sans-Serif" font-size="10.00">carla::traffic_manager</text>
<text text-anchor="middle" x="563" y="-533.5" font-family="Helvetica,sans-Serif" font-size="10.00">::LocalizationStage::Action</text>
</a>
</g>
</g>
<!-- Node4&#45;&gt;Node5 -->
<g id="edge4" class="edge"><title>Node4&#45;&gt;Node5</title>
<path fill="none" stroke="midnightblue" d="M453.017,-519.87C467.346,-522.714 481.982,-525.619 495.688,-528.339"/>
<polygon fill="midnightblue" stroke="midnightblue" points="453.652,-516.428 443.162,-517.914 452.289,-523.294 453.652,-516.428"/>
</g>
<!-- Node7 -->
<g id="node7" class="node"><title>Node7</title>
<g id="a_node7"><a xlink:href="../../de/d23/classcarla_1_1geom_1_1Location.html#a415607db7b336fda6dd1b0e292b3eb1e" target="_top" xlink:title="carla::geom::Location\l::Distance">
<polygon fill="white" stroke="black" points="508,-389.5 508,-419.5 618,-419.5 618,-389.5 508,-389.5"/>
<text text-anchor="start" x="516" y="-407.5" font-family="Helvetica,sans-Serif" font-size="10.00">carla::geom::Location</text>
<text text-anchor="middle" x="563" y="-396.5" font-family="Helvetica,sans-Serif" font-size="10.00">::Distance</text>
</a>
</g>
</g>
<!-- Node6&#45;&gt;Node7 -->
<g id="edge6" class="edge"><title>Node6&#45;&gt;Node7</title>
<path fill="none" stroke="midnightblue" d="M424.964,-435.185C451.36,-429.274 482.205,-422.368 507.94,-416.605"/>
<polygon fill="midnightblue" stroke="midnightblue" points="424.079,-431.796 415.085,-437.397 425.608,-438.627 424.079,-431.796"/>
</g>
<!-- Node9 -->
<g id="node9" class="node"><title>Node9</title>
<g id="a_node9"><a xlink:href="../../dd/de6/classcarla_1_1road_1_1Road.html#a3f0dad30c9a6f16df5f29d8fac7c22aa" target="_top" xlink:title="Returns a pointer to the nearest lane, given s relative to Road and a location. ">
<polygon fill="white" stroke="black" points="514,-477.5 514,-507.5 612,-507.5 612,-477.5 514,-477.5"/>
<text text-anchor="start" x="522" y="-495.5" font-family="Helvetica,sans-Serif" font-size="10.00">carla::road::Road::</text>
<text text-anchor="middle" x="563" y="-484.5" font-family="Helvetica,sans-Serif" font-size="10.00">GetNearestLane</text>
</a>
</g>
</g>
<!-- Node6&#45;&gt;Node9 -->
<g id="edge8" class="edge"><title>Node6&#45;&gt;Node9</title>
<path fill="none" stroke="midnightblue" d="M424.909,-461.803C453.349,-468.171 486.964,-475.698 513.789,-481.705"/>
<polygon fill="midnightblue" stroke="midnightblue" points="425.608,-458.373 415.085,-459.603 424.079,-465.204 425.608,-458.373"/>
</g>
<!-- Node10 -->
<g id="node10" class="node"><title>Node10</title>
<g id="a_node10"><a xlink:href="../../d6/dd9/test__geom_8cpp.html#a44cd75a38bbced6dfd1c0f48d59f505e" target="_top" xlink:title="TEST">
<polygon fill="white" stroke="black" points="542,-439 542,-458 584,-458 584,-439 542,-439"/>
<text text-anchor="middle" x="563" y="-446" font-family="Helvetica,sans-Serif" font-size="10.00">TEST</text>
</a>
</g>
</g>
<!-- Node6&#45;&gt;Node10 -->
<g id="edge9" class="edge"><title>Node6&#45;&gt;Node10</title>
<path fill="none" stroke="midnightblue" d="M425.187,-448.5C464.816,-448.5 514.394,-448.5 541.665,-448.5"/>
<polygon fill="midnightblue" stroke="midnightblue" points="425.085,-445 415.085,-448.5 425.085,-452 425.085,-445"/>
</g>
<!-- Node8 -->
<g id="node8" class="node"><title>Node8</title>
<g id="a_node8"><a xlink:href="../../dc/d04/classcarla_1_1traffic__manager_1_1SimpleWaypoint.html#a133d52b5ffaf7114d6e6d0cbc7b1e76c" target="_top" xlink:title="Calculates the distance from the object&#39;s waypoint to the passed location. ">
<polygon fill="white" stroke="black" points="674.5,-411.5 674.5,-441.5 813.5,-441.5 813.5,-411.5 674.5,-411.5"/>
<text text-anchor="start" x="682.5" y="-429.5" font-family="Helvetica,sans-Serif" font-size="10.00">carla::traffic_manager</text>
<text text-anchor="middle" x="744" y="-418.5" font-family="Helvetica,sans-Serif" font-size="10.00">::SimpleWaypoint::Distance</text>
</a>
</g>
</g>
<!-- Node7&#45;&gt;Node8 -->
<g id="edge7" class="edge"><title>Node7&#45;&gt;Node8</title>
<path fill="none" stroke="midnightblue" d="M628.356,-412.41C643.305,-414.247 659.273,-416.21 674.398,-418.068"/>
<polygon fill="midnightblue" stroke="midnightblue" points="628.544,-408.907 618.192,-411.16 627.69,-415.854 628.544,-408.907"/>
</g>
<!-- Node12&#45;&gt;Node3 -->
<g id="edge12" class="edge"><title>Node12&#45;&gt;Node3</title>
<path fill="none" stroke="midnightblue" d="M460.357,-631.466C474.989,-629.456 489.721,-627.431 503.254,-625.572"/>
<polygon fill="midnightblue" stroke="midnightblue" points="459.69,-628.025 450.259,-632.854 460.643,-634.96 459.69,-628.025"/>
</g>
<!-- Node15 -->
<g id="node15" class="node"><title>Node15</title>
<g id="a_node15"><a xlink:href="../../d0/dea/classcarla_1_1geom_1_1Math.html#a71f0667271df699e511124559f61665e" target="_top" xlink:title="carla::geom::Math::\lDistance2D">
<polygon fill="white" stroke="black" points="314,-208.5 314,-238.5 415,-238.5 415,-208.5 314,-208.5"/>
<text text-anchor="start" x="322" y="-226.5" font-family="Helvetica,sans-Serif" font-size="10.00">carla::geom::Math::</text>
<text text-anchor="middle" x="364.5" y="-215.5" font-family="Helvetica,sans-Serif" font-size="10.00">Distance2D</text>
</a>
</g>
</g>
<!-- Node14&#45;&gt;Node15 -->
<g id="edge15" class="edge"><title>Node14&#45;&gt;Node15</title>
<path fill="none" stroke="midnightblue" d="M251.314,-223.5C271.833,-223.5 294.435,-223.5 313.942,-223.5"/>
<polygon fill="midnightblue" stroke="midnightblue" points="251.117,-220 241.117,-223.5 251.117,-227 251.117,-220"/>
</g>
<!-- Node19 -->
<g id="node19" class="node"><title>Node19</title>
<g id="a_node19"><a xlink:href="../../d0/dea/classcarla_1_1geom_1_1Math.html#ab65c2226be8bc15f3ea8aab7ffa27443" target="_top" xlink:title="Returns a pair containing: ">
<polygon fill="white" stroke="black" points="499,-164.5 499,-194.5 627,-194.5 627,-164.5 499,-164.5"/>
<text text-anchor="start" x="507" y="-182.5" font-family="Helvetica,sans-Serif" font-size="10.00">carla::geom::Math::</text>
<text text-anchor="middle" x="563" y="-171.5" font-family="Helvetica,sans-Serif" font-size="10.00">DistanceSegmentToPoint</text>
</a>
</g>
</g>
<!-- Node14&#45;&gt;Node19 -->
<g id="edge36" class="edge"><title>Node14&#45;&gt;Node19</title>
<path fill="none" stroke="midnightblue" d="M245.428,-205.669C255.828,-202.868 266.677,-200.306 277,-198.5 352.591,-185.276 440.936,-181.097 498.993,-179.859"/>
<polygon fill="midnightblue" stroke="midnightblue" points="244.314,-202.346 235.626,-208.41 246.2,-209.087 244.314,-202.346"/>
</g>
<!-- Node16 -->
<g id="node16" class="node"><title>Node16</title>
<g id="a_node16"><a xlink:href="../../d0/dea/classcarla_1_1geom_1_1Math.html#afe602ce38a646f5a2223fa01b80dda74" target="_top" xlink:title="Returns a pair containing: ">
<polygon fill="white" stroke="black" points="511,-296.5 511,-326.5 615,-326.5 615,-296.5 511,-296.5"/>
<text text-anchor="start" x="519" y="-314.5" font-family="Helvetica,sans-Serif" font-size="10.00">carla::geom::Math::</text>
<text text-anchor="middle" x="563" y="-303.5" font-family="Helvetica,sans-Serif" font-size="10.00">DistanceArcToPoint</text>
</a>
</g>
</g>
<!-- Node15&#45;&gt;Node16 -->
<g id="edge16" class="edge"><title>Node15&#45;&gt;Node16</title>
<path fill="none" stroke="midnightblue" d="M421.675,-242.491C460.453,-258.714 510.013,-281.445 538.664,-296.493"/>
<polygon fill="midnightblue" stroke="midnightblue" points="422.646,-239.105 412.068,-238.515 419.969,-245.573 422.646,-239.105"/>
</g>
<!-- Node15&#45;&gt;Node19 -->
<g id="edge20" class="edge"><title>Node15&#45;&gt;Node19</title>
<path fill="none" stroke="midnightblue" d="M417.618,-205.79C442.484,-199.396 472.45,-192.581 498.623,-187.334"/>
<polygon fill="midnightblue" stroke="midnightblue" points="416.439,-202.481 407.654,-208.404 418.215,-209.252 416.439,-202.481"/>
</g>
<!-- Node22 -->
<g id="node22" class="node"><title>Node22</title>
<g id="a_node22"><a xlink:href="../../d0/d34/classcarla_1_1road_1_1Map.html#a0cf8228efb07f292210daffc7da2e6ed" target="_top" xlink:title="carla::road::Map::GetWaypoint">
<polygon fill="white" stroke="black" points="488,-214 488,-233 638,-233 638,-214 488,-214"/>
<text text-anchor="middle" x="563" y="-221" font-family="Helvetica,sans-Serif" font-size="10.00">carla::road::Map::GetWaypoint</text>
</a>
</g>
</g>
<!-- Node15&#45;&gt;Node22 -->
<g id="edge24" class="edge"><title>Node15&#45;&gt;Node22</title>
<path fill="none" stroke="midnightblue" d="M425.176,-223.5C444.943,-223.5 467.188,-223.5 487.904,-223.5"/>
<polygon fill="midnightblue" stroke="midnightblue" points="425.085,-220 415.085,-223.5 425.085,-227 425.085,-220"/>
</g>
<!-- Node16&#45;&gt;Node15 -->
<g id="edge17" class="edge"><title>Node16&#45;&gt;Node15</title>
<path fill="none" stroke="midnightblue" d="M505.804,-292.501C467.194,-276.347 417.903,-253.745 389.202,-238.699"/>
<polygon fill="midnightblue" stroke="midnightblue" points="504.793,-295.87 515.371,-296.46 507.469,-289.402 504.793,-295.87"/>
</g>
<!-- Node17 -->
<g id="node17" class="node"><title>Node17</title>
<g id="a_node17"><a xlink:href="../../d2/d63/classcarla_1_1road_1_1element_1_1GeometryArc.html#a8f94cf3a826d3c7df25c5a25ade8a396" target="_top" xlink:title="Returns a pair containing: ">
<polygon fill="white" stroke="black" points="675.5,-362.5 675.5,-392.5 812.5,-392.5 812.5,-362.5 675.5,-362.5"/>
<text text-anchor="start" x="683.5" y="-380.5" font-family="Helvetica,sans-Serif" font-size="10.00">carla::road::element</text>
<text text-anchor="middle" x="744" y="-369.5" font-family="Helvetica,sans-Serif" font-size="10.00">::GeometryArc::DistanceTo</text>
</a>
</g>
</g>
<!-- Node16&#45;&gt;Node17 -->
<g id="edge18" class="edge"><title>Node16&#45;&gt;Node17</title>
<path fill="none" stroke="midnightblue" d="M613.773,-330.162C632.625,-337.201 654.289,-345.256 674,-352.5 682.85,-355.752 692.349,-359.213 701.382,-362.491"/>
<polygon fill="midnightblue" stroke="midnightblue" points="614.789,-326.805 604.196,-326.583 612.338,-333.362 614.789,-326.805"/>
</g>
<!-- Node18 -->
<g id="node18" class="node"><title>Node18</title>
<g id="a_node18"><a xlink:href="../../d6/dd9/test__geom_8cpp.html#a28ca4536866c48d0fd9578ec931a14da" target="_top" xlink:title="TEST">
<polygon fill="white" stroke="black" points="723,-324 723,-343 765,-343 765,-324 723,-324"/>
<text text-anchor="middle" x="744" y="-331" font-family="Helvetica,sans-Serif" font-size="10.00">TEST</text>
</a>
</g>
</g>
<!-- Node16&#45;&gt;Node18 -->
<g id="edge19" class="edge"><title>Node16&#45;&gt;Node18</title>
<path fill="none" stroke="midnightblue" d="M625.587,-319.069C659.444,-323.23 699.222,-328.12 722.705,-331.006"/>
<polygon fill="midnightblue" stroke="midnightblue" points="625.647,-315.55 615.294,-317.804 624.793,-322.498 625.647,-315.55"/>
</g>
<!-- Node19&#45;&gt;Node15 -->
<g id="edge21" class="edge"><title>Node19&#45;&gt;Node15</title>
<path fill="none" stroke="midnightblue" d="M510.391,-197.079C480.935,-204.667 444.197,-212.87 415.085,-218.349"/>
<polygon fill="midnightblue" stroke="midnightblue" points="511.297,-200.46 520.079,-194.534 509.518,-193.689 511.297,-200.46"/>
</g>
<!-- Node20 -->
<g id="node20" class="node"><title>Node20</title>
<g id="a_node20"><a xlink:href="../../d2/da7/classcarla_1_1road_1_1element_1_1GeometryLine.html#a4d17bec72c0d68b56deafe0ba07ec352" target="_top" xlink:title="Returns a pair containing: ">
<polygon fill="white" stroke="black" points="674,-0.5 674,-30.5 814,-30.5 814,-0.5 674,-0.5"/>
<text text-anchor="start" x="682" y="-18.5" font-family="Helvetica,sans-Serif" font-size="10.00">carla::road::element</text>
<text text-anchor="middle" x="744" y="-7.5" font-family="Helvetica,sans-Serif" font-size="10.00">::GeometryLine::DistanceTo</text>
</a>
</g>
</g>
<!-- Node19&#45;&gt;Node20 -->
<g id="edge22" class="edge"><title>Node19&#45;&gt;Node20</title>
<path fill="none" stroke="midnightblue" d="M577.257,-155.488C595.353,-124.771 630.559,-71.8075 674,-40.5 679.272,-36.7008 685.181,-33.4231 691.266,-30.61"/>
<polygon fill="midnightblue" stroke="midnightblue" points="574.163,-153.847 572.2,-164.259 580.227,-157.344 574.163,-153.847"/>
</g>
<!-- Node21 -->
<g id="node21" class="node"><title>Node21</title>
<g id="a_node21"><a xlink:href="../../d6/dd9/test__geom_8cpp.html#a4c4e7eb15fe04d55f337f192a13c69e5" target="_top" xlink:title="TEST">
<polygon fill="white" stroke="black" points="723,-50 723,-69 765,-69 765,-50 723,-50"/>
<text text-anchor="middle" x="744" y="-57" font-family="Helvetica,sans-Serif" font-size="10.00">TEST</text>
</a>
</g>
</g>
<!-- Node19&#45;&gt;Node21 -->
<g id="edge23" class="edge"><title>Node19&#45;&gt;Node21</title>
<path fill="none" stroke="midnightblue" d="M582.773,-156.84C603.005,-133.849 637.278,-98.8359 674,-78.5 689.217,-70.0729 708.427,-65.1806 722.711,-62.4772"/>
<polygon fill="midnightblue" stroke="midnightblue" points="580.108,-154.57 576.221,-164.426 585.406,-159.146 580.108,-154.57"/>
</g>
<!-- Node23 -->
<g id="node23" class="node"><title>Node23</title>
<g id="a_node23"><a xlink:href="../../df/dc1/namespacecarla_1_1road_1_1element.html#ad4397b3938f0a721ad5208f14912b744" target="_top" xlink:title="carla::road::element\l::IsOffRoad">
<polygon fill="white" stroke="black" points="692.5,-274.5 692.5,-304.5 795.5,-304.5 795.5,-274.5 692.5,-274.5"/>
<text text-anchor="start" x="700.5" y="-292.5" font-family="Helvetica,sans-Serif" font-size="10.00">carla::road::element</text>
<text text-anchor="middle" x="744" y="-281.5" font-family="Helvetica,sans-Serif" font-size="10.00">::IsOffRoad</text>
</a>
</g>
</g>
<!-- Node22&#45;&gt;Node23 -->
<g id="edge25" class="edge"><title>Node22&#45;&gt;Node23</title>
<path fill="none" stroke="midnightblue" d="M599.528,-236.6C629.053,-247.486 671.086,-262.984 702.028,-274.393"/>
<polygon fill="midnightblue" stroke="midnightblue" points="600.622,-233.273 590.028,-233.097 598.2,-239.84 600.622,-233.273"/>
</g>
<!-- Node27 -->
<g id="node27" class="node"><title>Node27</title>
<g id="a_node27"><a xlink:href="../../d0/d34/classcarla_1_1road_1_1Map.html#a2686993f028a6febd29a17b32b43142d" target="_top" xlink:title="======================================================================== – Georeference &#45;&#45;&#45;&#45;&#45;&#45;&#45;&#45;&#45;&#45;&#45;&#45;...">
<polygon fill="white" stroke="black" points="1183,-230.5 1183,-260.5 1310,-260.5 1310,-230.5 1183,-230.5"/>
<text text-anchor="start" x="1191" y="-248.5" font-family="Helvetica,sans-Serif" font-size="10.00">carla::road::Map::GetGeo</text>
<text text-anchor="middle" x="1246.5" y="-237.5" font-family="Helvetica,sans-Serif" font-size="10.00">Reference</text>
</a>
</g>
</g>
<!-- Node22&#45;&gt;Node27 -->
<g id="edge33" class="edge"><title>Node22&#45;&gt;Node27</title>
<path fill="none" stroke="midnightblue" d="M648.383,-226.224C787.042,-230.7 1059.94,-239.51 1182.87,-243.478"/>
<polygon fill="midnightblue" stroke="midnightblue" points="648.338,-222.721 638.23,-225.896 648.112,-229.717 648.338,-222.721"/>
</g>
<!-- Node29 -->
<g id="node29" class="node"><title>Node29</title>
<g id="a_node29"><a xlink:href="../../dd/d49/classcarla_1_1client_1_1Map.html#a09398f35d22fe98cd49211a3c70c99f2" target="_top" xlink:title="carla::client::Map\l::GetWaypoint">
<polygon fill="white" stroke="black" points="698,-186.5 698,-216.5 790,-216.5 790,-186.5 698,-186.5"/>
<text text-anchor="start" x="706" y="-204.5" font-family="Helvetica,sans-Serif" font-size="10.00">carla::client::Map</text>
<text text-anchor="middle" x="744" y="-193.5" font-family="Helvetica,sans-Serif" font-size="10.00">::GetWaypoint</text>
</a>
</g>
</g>
<!-- Node22&#45;&gt;Node29 -->
<g id="edge31" class="edge"><title>Node22&#45;&gt;Node29</title>
<path fill="none" stroke="midnightblue" d="M648.155,-213.157C665.321,-211.047 682.75,-208.905 697.903,-207.043"/>
<polygon fill="midnightblue" stroke="midnightblue" points="647.597,-209.699 638.098,-214.393 648.451,-216.647 647.597,-209.699"/>
</g>
<!-- Node30 -->
<g id="node30" class="node"><title>Node30</title>
<g id="a_node30"><a xlink:href="../../dd/d49/classcarla_1_1client_1_1Map.html#a1797b448de9ed68a13434f3f5ad7af56" target="_top" xlink:title="carla::client::Map\l::GetWaypointXODR">
<polygon fill="white" stroke="black" points="689.5,-137.5 689.5,-167.5 798.5,-167.5 798.5,-137.5 689.5,-137.5"/>
<text text-anchor="start" x="697.5" y="-155.5" font-family="Helvetica,sans-Serif" font-size="10.00">carla::client::Map</text>
<text text-anchor="middle" x="744" y="-144.5" font-family="Helvetica,sans-Serif" font-size="10.00">::GetWaypointXODR</text>
</a>
</g>
</g>
<!-- Node22&#45;&gt;Node30 -->
<g id="edge32" class="edge"><title>Node22&#45;&gt;Node30</title>
<path fill="none" stroke="midnightblue" d="M619.837,-210.878C626.093,-208.744 632.27,-206.295 638,-203.5 655.976,-194.734 656.345,-185.897 674,-176.5 680.158,-173.222 686.855,-170.245 693.574,-167.591"/>
<polygon fill="midnightblue" stroke="midnightblue" points="618.48,-207.636 609.994,-213.979 620.583,-214.313 618.48,-207.636"/>
</g>
<!-- Node31 -->
<g id="node31" class="node"><title>Node31</title>
<g id="a_node31"><a xlink:href="../../dc/d07/classcarla_1_1rss_1_1RssCheck.html#aff1e8790fbe6df81d866570706defcad" target="_top" xlink:title="carla::rss::RssCheck\l::calculateOccupiedRegions">
<polygon fill="white" stroke="black" points="674.5,-88.5 674.5,-118.5 813.5,-118.5 813.5,-88.5 674.5,-88.5"/>
<text text-anchor="start" x="682.5" y="-106.5" font-family="Helvetica,sans-Serif" font-size="10.00">carla::rss::RssCheck</text>
<text text-anchor="middle" x="744" y="-95.5" font-family="Helvetica,sans-Serif" font-size="10.00">::calculateOccupiedRegions</text>
</a>
</g>
</g>
<!-- Node22&#45;&gt;Node31 -->
<g id="edge34" class="edge"><title>Node22&#45;&gt;Node31</title>
<path fill="none" stroke="midnightblue" d="M629.332,-209.511C632.4,-207.739 635.315,-205.744 638,-203.5 666.678,-179.531 646.188,-152.469 674,-127.5 677.775,-124.111 682.055,-121.195 686.59,-118.687"/>
<polygon fill="midnightblue" stroke="midnightblue" points="627.766,-206.38 620.341,-213.938 630.859,-212.66 627.766,-206.38"/>
</g>
<!-- Node24 -->
<g id="node24" class="node"><title>Node24</title>
<g id="a_node24"><a xlink:href="../../d2/d60/classcarla_1_1road_1_1element_1_1LaneCrossingCalculator.html#a589511f573df9e9c46c55a7a46c02cd6" target="_top" xlink:title="carla::road::element\l::LaneCrossingCalculator\l::Calculate">
<polygon fill="white" stroke="black" points="850,-274 850,-315 977,-315 977,-274 850,-274"/>
<text text-anchor="start" x="858" y="-303" font-family="Helvetica,sans-Serif" font-size="10.00">carla::road::element</text>
<text text-anchor="start" x="858" y="-292" font-family="Helvetica,sans-Serif" font-size="10.00">::LaneCrossingCalculator</text>
<text text-anchor="middle" x="913.5" y="-281" font-family="Helvetica,sans-Serif" font-size="10.00">::Calculate</text>
</a>
</g>
</g>
<!-- Node23&#45;&gt;Node24 -->
<g id="edge26" class="edge"><title>Node23&#45;&gt;Node24</title>
<path fill="none" stroke="midnightblue" d="M805.919,-291.318C820.208,-291.745 835.457,-292.2 849.821,-292.629"/>
<polygon fill="midnightblue" stroke="midnightblue" points="805.81,-287.814 795.71,-291.014 805.601,-294.811 805.81,-287.814"/>
</g>
<!-- Node25 -->
<g id="node25" class="node"><title>Node25</title>
<g id="a_node25"><a xlink:href="../../d0/d34/classcarla_1_1road_1_1Map.html#a1e606282c0bc3814dbd7cbbb23075a50" target="_top" xlink:title="carla::road::Map::Calculate\lCrossedLanes">
<polygon fill="white" stroke="black" points="1013,-279.5 1013,-309.5 1147,-309.5 1147,-279.5 1013,-279.5"/>
<text text-anchor="start" x="1021" y="-297.5" font-family="Helvetica,sans-Serif" font-size="10.00">carla::road::Map::Calculate</text>
<text text-anchor="middle" x="1080" y="-286.5" font-family="Helvetica,sans-Serif" font-size="10.00">CrossedLanes</text>
</a>
</g>
</g>
<!-- Node24&#45;&gt;Node25 -->
<g id="edge27" class="edge"><title>Node24&#45;&gt;Node25</title>
<path fill="none" stroke="midnightblue" d="M987.433,-294.5C995.93,-294.5 1004.56,-294.5 1012.96,-294.5"/>
<polygon fill="midnightblue" stroke="midnightblue" points="987.16,-291 977.16,-294.5 987.16,-298 987.16,-291"/>
</g>
<!-- Node26 -->
<g id="node26" class="node"><title>Node26</title>
<g id="a_node26"><a xlink:href="../../dd/d49/classcarla_1_1client_1_1Map.html#ab38f325942fe41f8acce8e128404f0f4" target="_top" xlink:title="carla::client::Map\l::CalculateCrossedLanes">
<polygon fill="white" stroke="black" points="1183,-279.5 1183,-309.5 1310,-309.5 1310,-279.5 1183,-279.5"/>
<text text-anchor="start" x="1191" y="-297.5" font-family="Helvetica,sans-Serif" font-size="10.00">carla::client::Map</text>
<text text-anchor="middle" x="1246.5" y="-286.5" font-family="Helvetica,sans-Serif" font-size="10.00">::CalculateCrossedLanes</text>
</a>
</g>
</g>
<!-- Node25&#45;&gt;Node26 -->
<g id="edge28" class="edge"><title>Node25&#45;&gt;Node26</title>
<path fill="none" stroke="midnightblue" d="M1157.65,-294.5C1166.08,-294.5 1174.58,-294.5 1182.81,-294.5"/>
<polygon fill="midnightblue" stroke="midnightblue" points="1157.43,-291 1147.43,-294.5 1157.43,-298 1157.43,-291"/>
</g>
<!-- Node25&#45;&gt;Node27 -->
<g id="edge29" class="edge"><title>Node25&#45;&gt;Node27</title>
<path fill="none" stroke="midnightblue" d="M1141.32,-276.533C1158.94,-271.283 1178.02,-265.601 1194.97,-260.552"/>
<polygon fill="midnightblue" stroke="midnightblue" points="1140.28,-273.189 1131.7,-279.399 1142.28,-279.898 1140.28,-273.189"/>
</g>
<!-- Node28 -->
<g id="node28" class="node"><title>Node28</title>
<g id="a_node28"><a xlink:href="../../dd/d49/classcarla_1_1client_1_1Map.html#abf307dc940aefa23689a7046197603ed" target="_top" xlink:title="carla::client::Map\l::GetGeoReference">
<polygon fill="white" stroke="black" points="1346,-230.5 1346,-260.5 1447,-260.5 1447,-230.5 1346,-230.5"/>
<text text-anchor="start" x="1354" y="-248.5" font-family="Helvetica,sans-Serif" font-size="10.00">carla::client::Map</text>
<text text-anchor="middle" x="1396.5" y="-237.5" font-family="Helvetica,sans-Serif" font-size="10.00">::GetGeoReference</text>
</a>
</g>
</g>
<!-- Node27&#45;&gt;Node28 -->
<g id="edge30" class="edge"><title>Node27&#45;&gt;Node28</title>
<path fill="none" stroke="midnightblue" d="M1320.3,-245.5C1328.88,-245.5 1337.49,-245.5 1345.65,-245.5"/>
<polygon fill="midnightblue" stroke="midnightblue" points="1320.27,-242 1310.27,-245.5 1320.27,-249 1320.27,-242"/>
</g>
<!-- Node32 -->
<g id="node32" class="node"><title>Node32</title>
<g id="a_node32"><a xlink:href="../../dc/d07/classcarla_1_1rss_1_1RssCheck.html#af0dcc48e400d434f51275bf1797be2e0" target="_top" xlink:title="carla::rss::RssCheck\l::checkObjects">
<polygon fill="white" stroke="black" points="858.5,-88.5 858.5,-118.5 968.5,-118.5 968.5,-88.5 858.5,-88.5"/>
<text text-anchor="start" x="866.5" y="-106.5" font-family="Helvetica,sans-Serif" font-size="10.00">carla::rss::RssCheck</text>
<text text-anchor="middle" x="913.5" y="-95.5" font-family="Helvetica,sans-Serif" font-size="10.00">::checkObjects</text>
</a>
</g>
</g>
<!-- Node31&#45;&gt;Node32 -->
<g id="edge35" class="edge"><title>Node31&#45;&gt;Node32</title>
<path fill="none" stroke="midnightblue" d="M823.823,-103.5C835.506,-103.5 847.318,-103.5 858.344,-103.5"/>
<polygon fill="midnightblue" stroke="midnightblue" points="823.612,-100 813.612,-103.5 823.612,-107 823.612,-100"/>
</g>
</g>
</svg>
        <g id="navigator" transform="translate(0 0)" fill="#404254">
                <rect fill="#f2f5e9" fill-opacity="0.5" stroke="#606060" stroke-width=".5" x="0" y="0" width="60" height="60"/>
                <use id="zoomplus" xlink:href="#zoomPlus" x="17" y="9" onmousedown="handleZoom(evt,'in')"/>
                <use id="zoomminus" xlink:href="#zoomMin" x="42" y="9" onmousedown="handleZoom(evt,'out')"/>
                <use id="reset" xlink:href="#resetDef" x="30" y="36" onmousedown="handleReset()"/>
                <g id="arrowUp" xlink:href="#dirArrow" transform="translate(30 24)" onmousedown="handlePan(0,-1)">
                  <use xlink:href="#rim" fill="#404040">
                        <set attributeName="fill" to="#808080" begin="arrowUp.mouseover" end="arrowUp.mouseout"/>
                  </use>
                  <path fill="none" stroke="white" stroke-width="1.5" d="M0,-3.0v7 M-2.5,-0.5L0,-3.0L2.5,-0.5"/>
                </g>
                <g id="arrowRight" xlink:href="#dirArrow" transform="rotate(90) translate(36 -43)" onmousedown="handlePan(1,0)">
                  <use xlink:href="#rim" fill="#404040">
                        <set attributeName="fill" to="#808080" begin="arrowRight.mouseover" end="arrowRight.mouseout"/>
                  </use>
                  <path fill="none" stroke="white" stroke-width="1.5" d="M0,-3.0v7 M-2.5,-0.5L0,-3.0L2.5,-0.5"/>
                </g>
                <g id="arrowDown" xlink:href="#dirArrow" transform="rotate(180) translate(-30 -48)" onmousedown="handlePan(0,1)">
                  <use xlink:href="#rim" fill="#404040">
                        <set attributeName="fill" to="#808080" begin="arrowDown.mouseover" end="arrowDown.mouseout"/>
                  </use>
                  <path fill="none" stroke="white" stroke-width="1.5" d="M0,-3.0v7 M-2.5,-0.5L0,-3.0L2.5,-0.5"/>
                </g>
                <g id="arrowLeft" xlink:href="#dirArrow" transform="rotate(270) translate(-36 17)" onmousedown="handlePan(-1,0)">
                  <use xlink:href="#rim" fill="#404040">
                        <set attributeName="fill" to="#808080" begin="arrowLeft.mouseover" end="arrowLeft.mouseout"/>
                  </use>
                  <path fill="none" stroke="white" stroke-width="1.5" d="M0,-3.0v7 M-2.5,-0.5L0,-3.0L2.5,-0.5"/>
                </g>
        </g>
        <svg viewBox="0 0 15 15" width="100%" height="30px" preserveAspectRatio="xMaxYMin meet">
         <g id="arrow_out" transform="scale(0.3 0.3)">
          <a xlink:href="classcarla_1_1geom_1_1Math_ac1644f7af375c05619c27851731cea87_icgraph_org.svg" target="_base">
           <rect id="button" ry="5" rx="5" y="6" x="6" height="38" width="38"
                fill="#f2f5e9" fill-opacity="0.5" stroke="#606060" stroke-width="1.0"/>
           <path id="arrow"
             d="M 11.500037,31.436501 C 11.940474,20.09759 22.043105,11.32322 32.158766,21.979434 L 37.068811,17.246167 C 37.068811,17.246167 37.088388,32 37.088388,32 L 22.160133,31.978069 C 22.160133,31.978069 26.997745,27.140456 26.997745,27.140456 C 18.528582,18.264221 13.291696,25.230495 11.500037,31.436501 z"
             style="fill:#404040;"/>
          </a>
         </g>
        </svg>
</svg>
