<?xml version="1.0" encoding="UTF-8" standalone="no"?>
<!DOCTYPE svg PUBLIC "-//W3C//DTD SVG 1.1//EN"
 "http://www.w3.org/Graphics/SVG/1.1/DTD/svg11.dtd">
<!-- Generated by graphviz version 2.38.0 (20140413.2041)
 -->
<!-- Title: carla::geom::Math::RotatePointOnOrigin2D Pages: 1 -->
<!--zoomable 503 -->
<svg id="main" version="1.1" xmlns="http://www.w3.org/2000/svg" xmlns:xlink="http://www.w3.org/1999/xlink" xml:space="preserve" onload="init(evt)">
<style type="text/css"><![CDATA[
.edge:hover path { stroke: red; }
.edge:hover polygon { stroke: red; fill: red; }
]]></style>
<script type="text/javascript"><![CDATA[
var edges = document.getElementsByTagName('g');
if (edges && edges.length) {
  for (var i=0;i<edges.length;i++) {
    if (edges[i].id.substr(0,4)=='edge') {
      edges[i].setAttribute('class','edge');
    }
  }
}
]]></script>
        <defs>
                <circle id="rim" cx="0" cy="0" r="7"/>
                <circle id="rim2" cx="0" cy="0" r="3.5"/>
                <g id="zoomPlus">
                        <use xlink:href="#rim" fill="#404040">
                                <set attributeName="fill" to="#808080" begin="zoomplus.mouseover" end="zoomplus.mouseout"/>
                        </use>
                        <path d="M-4,0h8M0,-4v8" fill="none" stroke="white" stroke-width="1.5" pointer-events="none"/>
                </g>
                <g id="zoomMin">
                        <use xlink:href="#rim" fill="#404040">
                                <set attributeName="fill" to="#808080" begin="zoomminus.mouseover" end="zoomminus.mouseout"/>
                        </use>
                        <path d="M-4,0h8" fill="none" stroke="white" stroke-width="1.5" pointer-events="none"/>
                </g>
                <g id="dirArrow">
                        <path fill="none" stroke="white" stroke-width="1.5" d="M0,-3.0v7 M-2.5,-0.5L0,-3.0L2.5,-0.5"/>
                </g>
               <g id="resetDef">
                       <use xlink:href="#rim2" fill="#404040">
                               <set attributeName="fill" to="#808080" begin="reset.mouseover" end="reset.mouseout"/>
                       </use>
               </g>
        </defs>

<script type="text/javascript">
var viewWidth = 1327;
var viewHeight = 503;
var sectionId = 'dynsection-21';
</script>
<script xlink:href="../../svgpan.js"/>
<svg id="graph" class="graph">
<g id="viewport">
<title>carla::geom::Math::RotatePointOnOrigin2D</title>
<polygon fill="white" stroke="none" points="-4,4 -4,-498.5 1323,-498.5 1323,4 -4,4"/>
<!-- Node1 -->
<g id="node1" class="node"><title>Node1</title>
<polygon fill="#bfbfbf" stroke="black" points="0,-365.5 0,-395.5 119,-395.5 119,-365.5 0,-365.5"/>
<text text-anchor="start" x="8" y="-383.5" font-family="Helvetica,sans-Serif" font-size="10.00">carla::geom::Math::</text>
<text text-anchor="middle" x="59.5" y="-372.5" font-family="Helvetica,sans-Serif" font-size="10.00">RotatePointOnOrigin2D</text>
</g>
<!-- Node2 -->
<g id="node2" class="node"><title>Node2</title>
<g id="a_node2"><a xlink:href="../../d9/dc2/classcarla_1_1nav_1_1Navigation.html#af4c5eadbe143c3a583b26cb351396029" target="_top" xlink:title="create a new vehicle in crowd to be avoided by walkers ">
<polygon fill="white" stroke="black" points="155,-422.5 155,-452.5 269,-452.5 269,-422.5 155,-422.5"/>
<text text-anchor="start" x="163" y="-440.5" font-family="Helvetica,sans-Serif" font-size="10.00">carla::nav::Navigation</text>
<text text-anchor="middle" x="212" y="-429.5" font-family="Helvetica,sans-Serif" font-size="10.00">::AddOrUpdateVehicle</text>
</a>
</g>
</g>
<!-- Node1&#45;&gt;Node2 -->
<g id="edge1" class="edge"><title>Node1&#45;&gt;Node2</title>
<path fill="none" stroke="midnightblue" d="M109.934,-399.222C129.785,-406.741 152.365,-415.293 171.139,-422.403"/>
<polygon fill="midnightblue" stroke="midnightblue" points="111.028,-395.894 100.436,-395.625 108.548,-402.44 111.028,-395.894"/>
</g>
<!-- Node7 -->
<g id="node7" class="node"><title>Node7</title>
<g id="a_node7"><a xlink:href="../../d0/dea/classcarla_1_1geom_1_1Math.html#a71f0667271df699e511124559f61665e" target="_top" xlink:title="carla::geom::Math::\lDistance2D">
<polygon fill="white" stroke="black" points="161.5,-318.5 161.5,-348.5 262.5,-348.5 262.5,-318.5 161.5,-318.5"/>
<text text-anchor="start" x="169.5" y="-336.5" font-family="Helvetica,sans-Serif" font-size="10.00">carla::geom::Math::</text>
<text text-anchor="middle" x="212" y="-325.5" font-family="Helvetica,sans-Serif" font-size="10.00">Distance2D</text>
</a>
</g>
</g>
<!-- Node1&#45;&gt;Node7 -->
<g id="edge6" class="edge"><title>Node1&#45;&gt;Node7</title>
<path fill="none" stroke="midnightblue" d="M118.091,-362.515C132.887,-357.894 148.648,-352.972 162.907,-348.519"/>
<polygon fill="midnightblue" stroke="midnightblue" points="117.035,-359.178 108.533,-365.5 119.122,-365.86 117.035,-359.178"/>
</g>
<!-- Node8 -->
<g id="node8" class="node"><title>Node8</title>
<g id="a_node8"><a xlink:href="../../d0/dea/classcarla_1_1geom_1_1Math.html#afe602ce38a646f5a2223fa01b80dda74" target="_top" xlink:title="Returns a pair containing: ">
<polygon fill="white" stroke="black" points="328,-365.5 328,-395.5 432,-395.5 432,-365.5 328,-365.5"/>
<text text-anchor="start" x="336" y="-383.5" font-family="Helvetica,sans-Serif" font-size="10.00">carla::geom::Math::</text>
<text text-anchor="middle" x="380" y="-372.5" font-family="Helvetica,sans-Serif" font-size="10.00">DistanceArcToPoint</text>
</a>
</g>
</g>
<!-- Node1&#45;&gt;Node8 -->
<g id="edge31" class="edge"><title>Node1&#45;&gt;Node8</title>
<path fill="none" stroke="midnightblue" d="M129.385,-380.5C189.086,-380.5 274.113,-380.5 327.912,-380.5"/>
<polygon fill="midnightblue" stroke="midnightblue" points="129.289,-377 119.289,-380.5 129.289,-384 129.289,-377"/>
</g>
<!-- Node3 -->
<g id="node3" class="node"><title>Node3</title>
<g id="a_node3"><a xlink:href="../../d9/dc2/classcarla_1_1nav_1_1Navigation.html#a6b7d72d6c0d11bd88a5b9fae3e230ed2" target="_top" xlink:title="add/update/delete vehicles in crowd ">
<polygon fill="white" stroke="black" points="324,-436.5 324,-466.5 436,-466.5 436,-436.5 324,-436.5"/>
<text text-anchor="start" x="332" y="-454.5" font-family="Helvetica,sans-Serif" font-size="10.00">carla::nav::Navigation</text>
<text text-anchor="middle" x="380" y="-443.5" font-family="Helvetica,sans-Serif" font-size="10.00">::UpdateVehicles</text>
</a>
</g>
</g>
<!-- Node2&#45;&gt;Node3 -->
<g id="edge2" class="edge"><title>Node2&#45;&gt;Node3</title>
<path fill="none" stroke="midnightblue" d="M279.314,-443.093C294.129,-444.342 309.684,-445.654 323.984,-446.86"/>
<polygon fill="midnightblue" stroke="midnightblue" points="279.459,-439.593 269.2,-442.24 278.87,-446.568 279.459,-439.593"/>
</g>
<!-- Node4 -->
<g id="node4" class="node"><title>Node4</title>
<g id="a_node4"><a xlink:href="../../d1/d83/classcarla_1_1client_1_1detail_1_1WalkerNavigation.html#a109552fa675fe65e281e3ed6f3c75204" target="_top" xlink:title="add/update/delete all vehicles in crowd ">
<polygon fill="white" stroke="black" points="491,-453 491,-494 666,-494 666,-453 491,-453"/>
<text text-anchor="start" x="499" y="-482" font-family="Helvetica,sans-Serif" font-size="10.00">carla::client::detail</text>
<text text-anchor="start" x="499" y="-471" font-family="Helvetica,sans-Serif" font-size="10.00">::WalkerNavigation::UpdateVehicles</text>
<text text-anchor="middle" x="578.5" y="-460" font-family="Helvetica,sans-Serif" font-size="10.00">InCrowd</text>
</a>
</g>
</g>
<!-- Node3&#45;&gt;Node4 -->
<g id="edge3" class="edge"><title>Node3&#45;&gt;Node4</title>
<path fill="none" stroke="midnightblue" d="M446.392,-458.821C460.586,-460.41 475.814,-462.115 490.688,-463.781"/>
<polygon fill="midnightblue" stroke="midnightblue" points="446.586,-455.321 436.259,-457.687 445.808,-462.278 446.586,-455.321"/>
</g>
<!-- Node5 -->
<g id="node5" class="node"><title>Node5</title>
<g id="a_node5"><a xlink:href="../../d1/d83/classcarla_1_1client_1_1detail_1_1WalkerNavigation.html#a74b3b9c4a9c27f6ffb4f8b0fae1c3c87" target="_top" xlink:title="carla::client::detail\l::WalkerNavigation::Tick">
<polygon fill="white" stroke="black" points="703,-458.5 703,-488.5 828,-488.5 828,-458.5 703,-458.5"/>
<text text-anchor="start" x="711" y="-476.5" font-family="Helvetica,sans-Serif" font-size="10.00">carla::client::detail</text>
<text text-anchor="middle" x="765.5" y="-465.5" font-family="Helvetica,sans-Serif" font-size="10.00">::WalkerNavigation::Tick</text>
</a>
</g>
</g>
<!-- Node4&#45;&gt;Node5 -->
<g id="edge4" class="edge"><title>Node4&#45;&gt;Node5</title>
<path fill="none" stroke="midnightblue" d="M676.238,-473.5C685.266,-473.5 694.239,-473.5 702.813,-473.5"/>
<polygon fill="midnightblue" stroke="midnightblue" points="676.042,-470 666.042,-473.5 676.042,-477 676.042,-470"/>
</g>
<!-- Node6 -->
<g id="node6" class="node"><title>Node6</title>
<g id="a_node6"><a xlink:href="../../d1/d83/classcarla_1_1client_1_1detail_1_1WalkerNavigation.html#a9e40890dd0320709636b44b38d98d400" target="_top" xlink:title="carla::client::detail\l::WalkerNavigation::AddWalker">
<polygon fill="white" stroke="black" points="865,-458.5 865,-488.5 1019,-488.5 1019,-458.5 865,-458.5"/>
<text text-anchor="start" x="873" y="-476.5" font-family="Helvetica,sans-Serif" font-size="10.00">carla::client::detail</text>
<text text-anchor="middle" x="942" y="-465.5" font-family="Helvetica,sans-Serif" font-size="10.00">::WalkerNavigation::AddWalker</text>
</a>
</g>
</g>
<!-- Node5&#45;&gt;Node6 -->
<g id="edge5" class="edge"><title>Node5&#45;&gt;Node6</title>
<path fill="none" stroke="midnightblue" d="M838.184,-473.5C846.943,-473.5 855.919,-473.5 864.742,-473.5"/>
<polygon fill="midnightblue" stroke="midnightblue" points="838.022,-470 828.022,-473.5 838.022,-477 838.022,-470"/>
</g>
<!-- Node7&#45;&gt;Node8 -->
<g id="edge7" class="edge"><title>Node7&#45;&gt;Node8</title>
<path fill="none" stroke="midnightblue" d="M272.737,-343.905C297.23,-350.319 324.663,-358.408 345.52,-365.478"/>
<polygon fill="midnightblue" stroke="midnightblue" points="273.362,-340.452 262.805,-341.356 271.622,-347.232 273.362,-340.452"/>
</g>
<!-- Node11 -->
<g id="node11" class="node"><title>Node11</title>
<g id="a_node11"><a xlink:href="../../d0/dea/classcarla_1_1geom_1_1Math.html#ab65c2226be8bc15f3ea8aab7ffa27443" target="_top" xlink:title="Returns a pair containing: ">
<polygon fill="white" stroke="black" points="316,-316.5 316,-346.5 444,-346.5 444,-316.5 316,-316.5"/>
<text text-anchor="start" x="324" y="-334.5" font-family="Helvetica,sans-Serif" font-size="10.00">carla::geom::Math::</text>
<text text-anchor="middle" x="380" y="-323.5" font-family="Helvetica,sans-Serif" font-size="10.00">DistanceSegmentToPoint</text>
</a>
</g>
</g>
<!-- Node7&#45;&gt;Node11 -->
<g id="edge11" class="edge"><title>Node7&#45;&gt;Node11</title>
<path fill="none" stroke="midnightblue" d="M272.819,-326.269C286.838,-325.803 301.816,-325.602 315.971,-325.686"/>
<polygon fill="midnightblue" stroke="midnightblue" points="272.663,-322.772 262.805,-326.655 272.933,-329.767 272.663,-322.772"/>
</g>
<!-- Node21 -->
<g id="node21" class="node"><title>Node21</title>
<g id="a_node21"><a xlink:href="../../d0/d34/classcarla_1_1road_1_1Map.html#a0cf8228efb07f292210daffc7da2e6ed" target="_top" xlink:title="carla::road::Map::GetWaypoint">
<polygon fill="white" stroke="black" points="305,-119 305,-138 455,-138 455,-119 305,-119"/>
<text text-anchor="middle" x="380" y="-126" font-family="Helvetica,sans-Serif" font-size="10.00">carla::road::Map::GetWaypoint</text>
</a>
</g>
</g>
<!-- Node7&#45;&gt;Node21 -->
<g id="edge23" class="edge"><title>Node7&#45;&gt;Node21</title>
<path fill="none" stroke="midnightblue" d="M231.66,-310.456C267.895,-265.708 346.405,-168.753 371.278,-138.036"/>
<polygon fill="midnightblue" stroke="midnightblue" points="228.779,-308.452 225.206,-318.426 234.22,-312.857 228.779,-308.452"/>
</g>
<!-- Node8&#45;&gt;Node7 -->
<g id="edge8" class="edge"><title>Node8&#45;&gt;Node7</title>
<path fill="none" stroke="midnightblue" d="M317.995,-369.762C293.871,-363.415 267.076,-355.499 246.593,-348.56"/>
<polygon fill="midnightblue" stroke="midnightblue" points="317.233,-373.18 327.79,-372.29 318.982,-366.402 317.233,-373.18"/>
</g>
<!-- Node9 -->
<g id="node9" class="node"><title>Node9</title>
<g id="a_node9"><a xlink:href="../../d2/d63/classcarla_1_1road_1_1element_1_1GeometryArc.html#a8f94cf3a826d3c7df25c5a25ade8a396" target="_top" xlink:title="Returns a pair containing: ">
<polygon fill="white" stroke="black" points="510,-365.5 510,-395.5 647,-395.5 647,-365.5 510,-365.5"/>
<text text-anchor="start" x="518" y="-383.5" font-family="Helvetica,sans-Serif" font-size="10.00">carla::road::element</text>
<text text-anchor="middle" x="578.5" y="-372.5" font-family="Helvetica,sans-Serif" font-size="10.00">::GeometryArc::DistanceTo</text>
</a>
</g>
</g>
<!-- Node8&#45;&gt;Node9 -->
<g id="edge9" class="edge"><title>Node8&#45;&gt;Node9</title>
<path fill="none" stroke="midnightblue" d="M442.406,-380.5C463.861,-380.5 488.058,-380.5 509.984,-380.5"/>
<polygon fill="midnightblue" stroke="midnightblue" points="442.115,-377 432.115,-380.5 442.115,-384 442.115,-377"/>
</g>
<!-- Node10 -->
<g id="node10" class="node"><title>Node10</title>
<g id="a_node10"><a xlink:href="../../d6/dd9/test__geom_8cpp.html#a28ca4536866c48d0fd9578ec931a14da" target="_top" xlink:title="TEST">
<polygon fill="white" stroke="black" points="557.5,-415 557.5,-434 599.5,-434 599.5,-415 557.5,-415"/>
<text text-anchor="middle" x="578.5" y="-422" font-family="Helvetica,sans-Serif" font-size="10.00">TEST</text>
</a>
</g>
</g>
<!-- Node8&#45;&gt;Node10 -->
<g id="edge10" class="edge"><title>Node8&#45;&gt;Node10</title>
<path fill="none" stroke="midnightblue" d="M441.945,-394.434C457.903,-398.06 475.093,-401.945 491,-405.5 513.658,-410.563 539.681,-416.264 557.217,-420.088"/>
<polygon fill="midnightblue" stroke="midnightblue" points="442.718,-391.02 432.19,-392.215 441.165,-397.846 442.718,-391.02"/>
</g>
<!-- Node11&#45;&gt;Node7 -->
<g id="edge12" class="edge"><title>Node11&#45;&gt;Node7</title>
<path fill="none" stroke="midnightblue" d="M305.965,-339.087C291.383,-339.39 276.384,-339.417 262.805,-339.145"/>
<polygon fill="midnightblue" stroke="midnightblue" points="306.063,-342.585 315.971,-338.833 305.885,-335.588 306.063,-342.585"/>
</g>
<!-- Node12 -->
<g id="node12" class="node"><title>Node12</title>
<g id="a_node12"><a xlink:href="../../d2/da7/classcarla_1_1road_1_1element_1_1GeometryLine.html#a4d17bec72c0d68b56deafe0ba07ec352" target="_top" xlink:title="Returns a pair containing: ">
<polygon fill="white" stroke="black" points="508.5,-277.5 508.5,-307.5 648.5,-307.5 648.5,-277.5 508.5,-277.5"/>
<text text-anchor="start" x="516.5" y="-295.5" font-family="Helvetica,sans-Serif" font-size="10.00">carla::road::element</text>
<text text-anchor="middle" x="578.5" y="-284.5" font-family="Helvetica,sans-Serif" font-size="10.00">::GeometryLine::DistanceTo</text>
</a>
</g>
</g>
<!-- Node11&#45;&gt;Node12 -->
<g id="edge13" class="edge"><title>Node11&#45;&gt;Node12</title>
<path fill="none" stroke="midnightblue" d="M454.474,-316.917C472.085,-313.422 490.831,-309.701 508.243,-306.246"/>
<polygon fill="midnightblue" stroke="midnightblue" points="453.383,-313.566 444.255,-318.945 454.746,-320.432 453.383,-313.566"/>
</g>
<!-- Node13 -->
<g id="node13" class="node"><title>Node13</title>
<g id="a_node13"><a xlink:href="../../d0/d34/classcarla_1_1road_1_1Map.html#ae74d5c71d0ccdd83107894e5920f421e" target="_top" xlink:title="======================================================================== – Geometry &#45;&#45;&#45;&#45;&#45;&#45;&#45;&#45;&#45;&#45;&#45;&#45;&#45;&#45;&#45;&#45;...">
<polygon fill="white" stroke="black" points="507,-179.5 507,-209.5 650,-209.5 650,-179.5 507,-179.5"/>
<text text-anchor="start" x="515" y="-197.5" font-family="Helvetica,sans-Serif" font-size="10.00">carla::road::Map::GetClosest</text>
<text text-anchor="middle" x="578.5" y="-186.5" font-family="Helvetica,sans-Serif" font-size="10.00">WaypointOnRoad</text>
</a>
</g>
</g>
<!-- Node11&#45;&gt;Node13 -->
<g id="edge14" class="edge"><title>Node11&#45;&gt;Node13</title>
<path fill="none" stroke="midnightblue" d="M397.654,-308.107C417.166,-282.402 451.847,-241.691 491,-218.5 496.766,-215.085 503.035,-212.14 509.476,-209.603"/>
<polygon fill="midnightblue" stroke="midnightblue" points="394.793,-306.089 391.634,-316.202 400.41,-310.266 394.793,-306.089"/>
</g>
<!-- Node20 -->
<g id="node20" class="node"><title>Node20</title>
<g id="a_node20"><a xlink:href="../../d6/dd9/test__geom_8cpp.html#a4c4e7eb15fe04d55f337f192a13c69e5" target="_top" xlink:title="TEST">
<polygon fill="white" stroke="black" points="557.5,-327 557.5,-346 599.5,-346 599.5,-327 557.5,-327"/>
<text text-anchor="middle" x="578.5" y="-334" font-family="Helvetica,sans-Serif" font-size="10.00">TEST</text>
</a>
</g>
</g>
<!-- Node11&#45;&gt;Node20 -->
<g id="edge22" class="edge"><title>Node11&#45;&gt;Node20</title>
<path fill="none" stroke="midnightblue" d="M454.49,-333.37C491.311,-334.307 533.095,-335.37 557.263,-335.985"/>
<polygon fill="midnightblue" stroke="midnightblue" points="454.341,-329.865 444.255,-333.11 454.163,-336.863 454.341,-329.865"/>
</g>
<!-- Node14 -->
<g id="node14" class="node"><title>Node14</title>
<g id="a_node14"><a xlink:href="../../d2/d60/classcarla_1_1road_1_1element_1_1LaneCrossingCalculator.html#a589511f573df9e9c46c55a7a46c02cd6" target="_top" xlink:title="carla::road::element\l::LaneCrossingCalculator\l::Calculate">
<polygon fill="white" stroke="black" points="702,-225 702,-266 829,-266 829,-225 702,-225"/>
<text text-anchor="start" x="710" y="-254" font-family="Helvetica,sans-Serif" font-size="10.00">carla::road::element</text>
<text text-anchor="start" x="710" y="-243" font-family="Helvetica,sans-Serif" font-size="10.00">::LaneCrossingCalculator</text>
<text text-anchor="middle" x="765.5" y="-232" font-family="Helvetica,sans-Serif" font-size="10.00">::Calculate</text>
</a>
</g>
</g>
<!-- Node13&#45;&gt;Node14 -->
<g id="edge15" class="edge"><title>Node13&#45;&gt;Node14</title>
<path fill="none" stroke="midnightblue" d="M643.694,-212.197C662.562,-217.398 683.168,-223.079 701.932,-228.252"/>
<polygon fill="midnightblue" stroke="midnightblue" points="644.576,-208.809 634.006,-209.526 642.716,-215.558 644.576,-208.809"/>
</g>
<!-- Node17 -->
<g id="node17" class="node"><title>Node17</title>
<g id="a_node17"><a xlink:href="../../d0/d34/classcarla_1_1road_1_1Map.html#a2686993f028a6febd29a17b32b43142d" target="_top" xlink:title="======================================================================== – Georeference &#45;&#45;&#45;&#45;&#45;&#45;&#45;&#45;&#45;&#45;&#45;&#45;...">
<polygon fill="white" stroke="black" points="1055,-181.5 1055,-211.5 1182,-211.5 1182,-181.5 1055,-181.5"/>
<text text-anchor="start" x="1063" y="-199.5" font-family="Helvetica,sans-Serif" font-size="10.00">carla::road::Map::GetGeo</text>
<text text-anchor="middle" x="1118.5" y="-188.5" font-family="Helvetica,sans-Serif" font-size="10.00">Reference</text>
</a>
</g>
</g>
<!-- Node13&#45;&gt;Node17 -->
<g id="edge21" class="edge"><title>Node13&#45;&gt;Node17</title>
<path fill="none" stroke="midnightblue" d="M660.29,-194.8C768.149,-195.201 956.926,-195.903 1054.75,-196.267"/>
<polygon fill="midnightblue" stroke="midnightblue" points="660.123,-191.3 650.111,-194.762 660.097,-198.3 660.123,-191.3"/>
</g>
<!-- Node19 -->
<g id="node19" class="node"><title>Node19</title>
<g id="a_node19"><a xlink:href="../../dd/d49/classcarla_1_1client_1_1Map.html#a09398f35d22fe98cd49211a3c70c99f2" target="_top" xlink:title="carla::client::Map\l::GetWaypoint">
<polygon fill="white" stroke="black" points="719.5,-137.5 719.5,-167.5 811.5,-167.5 811.5,-137.5 719.5,-137.5"/>
<text text-anchor="start" x="727.5" y="-155.5" font-family="Helvetica,sans-Serif" font-size="10.00">carla::client::Map</text>
<text text-anchor="middle" x="765.5" y="-144.5" font-family="Helvetica,sans-Serif" font-size="10.00">::GetWaypoint</text>
</a>
</g>
</g>
<!-- Node13&#45;&gt;Node19 -->
<g id="edge20" class="edge"><title>Node13&#45;&gt;Node19</title>
<path fill="none" stroke="midnightblue" d="M655.597,-177.224C677.22,-172.315 700.078,-167.126 719.239,-162.775"/>
<polygon fill="midnightblue" stroke="midnightblue" points="654.744,-173.829 645.767,-179.456 656.293,-180.655 654.744,-173.829"/>
</g>
<!-- Node15 -->
<g id="node15" class="node"><title>Node15</title>
<g id="a_node15"><a xlink:href="../../d0/d34/classcarla_1_1road_1_1Map.html#a1e606282c0bc3814dbd7cbbb23075a50" target="_top" xlink:title="carla::road::Map::Calculate\lCrossedLanes">
<polygon fill="white" stroke="black" points="875,-230.5 875,-260.5 1009,-260.5 1009,-230.5 875,-230.5"/>
<text text-anchor="start" x="883" y="-248.5" font-family="Helvetica,sans-Serif" font-size="10.00">carla::road::Map::Calculate</text>
<text text-anchor="middle" x="942" y="-237.5" font-family="Helvetica,sans-Serif" font-size="10.00">CrossedLanes</text>
</a>
</g>
</g>
<!-- Node14&#45;&gt;Node15 -->
<g id="edge16" class="edge"><title>Node14&#45;&gt;Node15</title>
<path fill="none" stroke="midnightblue" d="M839.247,-245.5C851.034,-245.5 863.184,-245.5 874.804,-245.5"/>
<polygon fill="midnightblue" stroke="midnightblue" points="839.006,-242 829.006,-245.5 839.006,-249 839.006,-242"/>
</g>
<!-- Node16 -->
<g id="node16" class="node"><title>Node16</title>
<g id="a_node16"><a xlink:href="../../dd/d49/classcarla_1_1client_1_1Map.html#ab38f325942fe41f8acce8e128404f0f4" target="_top" xlink:title="carla::client::Map\l::CalculateCrossedLanes">
<polygon fill="white" stroke="black" points="1055,-230.5 1055,-260.5 1182,-260.5 1182,-230.5 1055,-230.5"/>
<text text-anchor="start" x="1063" y="-248.5" font-family="Helvetica,sans-Serif" font-size="10.00">carla::client::Map</text>
<text text-anchor="middle" x="1118.5" y="-237.5" font-family="Helvetica,sans-Serif" font-size="10.00">::CalculateCrossedLanes</text>
</a>
</g>
</g>
<!-- Node15&#45;&gt;Node16 -->
<g id="edge17" class="edge"><title>Node15&#45;&gt;Node16</title>
<path fill="none" stroke="midnightblue" d="M1019.73,-245.5C1031.5,-245.5 1043.53,-245.5 1054.95,-245.5"/>
<polygon fill="midnightblue" stroke="midnightblue" points="1019.47,-242 1009.47,-245.5 1019.47,-249 1019.47,-242"/>
</g>
<!-- Node15&#45;&gt;Node17 -->
<g id="edge18" class="edge"><title>Node15&#45;&gt;Node17</title>
<path fill="none" stroke="midnightblue" d="M1006.47,-227.679C1025.31,-222.388 1045.75,-216.648 1063.9,-211.552"/>
<polygon fill="midnightblue" stroke="midnightblue" points="1005.46,-224.325 996.78,-230.399 1007.35,-231.065 1005.46,-224.325"/>
</g>
<!-- Node18 -->
<g id="node18" class="node"><title>Node18</title>
<g id="a_node18"><a xlink:href="../../dd/d49/classcarla_1_1client_1_1Map.html#abf307dc940aefa23689a7046197603ed" target="_top" xlink:title="carla::client::Map\l::GetGeoReference">
<polygon fill="white" stroke="black" points="1218,-181.5 1218,-211.5 1319,-211.5 1319,-181.5 1218,-181.5"/>
<text text-anchor="start" x="1226" y="-199.5" font-family="Helvetica,sans-Serif" font-size="10.00">carla::client::Map</text>
<text text-anchor="middle" x="1268.5" y="-188.5" font-family="Helvetica,sans-Serif" font-size="10.00">::GetGeoReference</text>
</a>
</g>
</g>
<!-- Node17&#45;&gt;Node18 -->
<g id="edge19" class="edge"><title>Node17&#45;&gt;Node18</title>
<path fill="none" stroke="midnightblue" d="M1192.3,-196.5C1200.88,-196.5 1209.49,-196.5 1217.65,-196.5"/>
<polygon fill="midnightblue" stroke="midnightblue" points="1192.27,-193 1182.27,-196.5 1192.27,-200 1192.27,-193"/>
</g>
<!-- Node21&#45;&gt;Node17 -->
<g id="edge28" class="edge"><title>Node21&#45;&gt;Node17</title>
<path fill="none" stroke="midnightblue" d="M465.217,-122.342C555.518,-117.13 702.932,-112.634 829,-127.5 915.307,-137.677 1013.19,-164.419 1069.88,-181.465"/>
<polygon fill="midnightblue" stroke="midnightblue" points="464.811,-118.86 455.036,-122.947 465.226,-125.847 464.811,-118.86"/>
</g>
<!-- Node21&#45;&gt;Node19 -->
<g id="edge26" class="edge"><title>Node21&#45;&gt;Node19</title>
<path fill="none" stroke="midnightblue" d="M465.719,-133.802C543.976,-138.699 657.228,-145.787 719.41,-149.678"/>
<polygon fill="midnightblue" stroke="midnightblue" points="465.596,-130.287 455.397,-133.156 465.159,-137.274 465.596,-130.287"/>
</g>
<!-- Node22 -->
<g id="node22" class="node"><title>Node22</title>
<g id="a_node22"><a xlink:href="../../df/dc1/namespacecarla_1_1road_1_1element.html#ad4397b3938f0a721ad5208f14912b744" target="_top" xlink:title="carla::road::element\l::IsOffRoad">
<polygon fill="white" stroke="black" points="527,-228.5 527,-258.5 630,-258.5 630,-228.5 527,-228.5"/>
<text text-anchor="start" x="535" y="-246.5" font-family="Helvetica,sans-Serif" font-size="10.00">carla::road::element</text>
<text text-anchor="middle" x="578.5" y="-235.5" font-family="Helvetica,sans-Serif" font-size="10.00">::IsOffRoad</text>
</a>
</g>
</g>
<!-- Node21&#45;&gt;Node22 -->
<g id="edge24" class="edge"><title>Node21&#45;&gt;Node22</title>
<path fill="none" stroke="midnightblue" d="M397.191,-145.408C417.377,-165.559 453.778,-198.954 491,-218.5 502.072,-224.314 514.671,-228.936 526.762,-232.542"/>
<polygon fill="midnightblue" stroke="midnightblue" points="399.555,-142.82 390.046,-138.146 394.565,-147.729 399.555,-142.82"/>
</g>
<!-- Node23 -->
<g id="node23" class="node"><title>Node23</title>
<g id="a_node23"><a xlink:href="../../dd/d49/classcarla_1_1client_1_1Map.html#a1797b448de9ed68a13434f3f5ad7af56" target="_top" xlink:title="carla::client::Map\l::GetWaypointXODR">
<polygon fill="white" stroke="black" points="524,-49.5 524,-79.5 633,-79.5 633,-49.5 524,-49.5"/>
<text text-anchor="start" x="532" y="-67.5" font-family="Helvetica,sans-Serif" font-size="10.00">carla::client::Map</text>
<text text-anchor="middle" x="578.5" y="-56.5" font-family="Helvetica,sans-Serif" font-size="10.00">::GetWaypointXODR</text>
</a>
</g>
</g>
<!-- Node21&#45;&gt;Node23 -->
<g id="edge27" class="edge"><title>Node21&#45;&gt;Node23</title>
<path fill="none" stroke="midnightblue" d="M420.326,-115.692C452.374,-105.254 497.686,-90.4953 531.43,-79.5048"/>
<polygon fill="midnightblue" stroke="midnightblue" points="418.842,-112.494 410.418,-118.919 421.01,-119.15 418.842,-112.494"/>
</g>
<!-- Node24 -->
<g id="node24" class="node"><title>Node24</title>
<g id="a_node24"><a xlink:href="../../dc/d07/classcarla_1_1rss_1_1RssCheck.html#aff1e8790fbe6df81d866570706defcad" target="_top" xlink:title="carla::rss::RssCheck\l::calculateOccupiedRegions">
<polygon fill="white" stroke="black" points="509,-0.5 509,-30.5 648,-30.5 648,-0.5 509,-0.5"/>
<text text-anchor="start" x="517" y="-18.5" font-family="Helvetica,sans-Serif" font-size="10.00">carla::rss::RssCheck</text>
<text text-anchor="middle" x="578.5" y="-7.5" font-family="Helvetica,sans-Serif" font-size="10.00">::calculateOccupiedRegions</text>
</a>
</g>
</g>
<!-- Node21&#45;&gt;Node24 -->
<g id="edge29" class="edge"><title>Node21&#45;&gt;Node24</title>
<path fill="none" stroke="midnightblue" d="M397.194,-111.723C417.383,-91.7391 453.787,-58.6588 491,-39.5 497.651,-36.0758 504.849,-33.0919 512.155,-30.5036"/>
<polygon fill="midnightblue" stroke="midnightblue" points="394.607,-109.362 390.048,-118.926 399.576,-114.292 394.607,-109.362"/>
</g>
<!-- Node22&#45;&gt;Node14 -->
<g id="edge25" class="edge"><title>Node22&#45;&gt;Node14</title>
<path fill="none" stroke="midnightblue" d="M640.16,-244.156C659.917,-244.369 681.882,-244.607 701.787,-244.822"/>
<polygon fill="midnightblue" stroke="midnightblue" points="640.089,-240.655 630.052,-244.047 640.014,-247.655 640.089,-240.655"/>
</g>
<!-- Node25 -->
<g id="node25" class="node"><title>Node25</title>
<g id="a_node25"><a xlink:href="../../dc/d07/classcarla_1_1rss_1_1RssCheck.html#af0dcc48e400d434f51275bf1797be2e0" target="_top" xlink:title="carla::rss::RssCheck\l::checkObjects">
<polygon fill="white" stroke="black" points="710.5,-0.5 710.5,-30.5 820.5,-30.5 820.5,-0.5 710.5,-0.5"/>
<text text-anchor="start" x="718.5" y="-18.5" font-family="Helvetica,sans-Serif" font-size="10.00">carla::rss::RssCheck</text>
<text text-anchor="middle" x="765.5" y="-7.5" font-family="Helvetica,sans-Serif" font-size="10.00">::checkObjects</text>
</a>
</g>
</g>
<!-- Node24&#45;&gt;Node25 -->
<g id="edge30" class="edge"><title>Node24&#45;&gt;Node25</title>
<path fill="none" stroke="midnightblue" d="M658.363,-15.5C675.919,-15.5 694.144,-15.5 710.435,-15.5"/>
<polygon fill="midnightblue" stroke="midnightblue" points="658.124,-12.0001 648.124,-15.5 658.124,-19.0001 658.124,-12.0001"/>
</g>
</g>
</svg>
        <g id="navigator" transform="translate(0 0)" fill="#404254">
                <rect fill="#f2f5e9" fill-opacity="0.5" stroke="#606060" stroke-width=".5" x="0" y="0" width="60" height="60"/>
                <use id="zoomplus" xlink:href="#zoomPlus" x="17" y="9" onmousedown="handleZoom(evt,'in')"/>
                <use id="zoomminus" xlink:href="#zoomMin" x="42" y="9" onmousedown="handleZoom(evt,'out')"/>
                <use id="reset" xlink:href="#resetDef" x="30" y="36" onmousedown="handleReset()"/>
                <g id="arrowUp" xlink:href="#dirArrow" transform="translate(30 24)" onmousedown="handlePan(0,-1)">
                  <use xlink:href="#rim" fill="#404040">
                        <set attributeName="fill" to="#808080" begin="arrowUp.mouseover" end="arrowUp.mouseout"/>
                  </use>
                  <path fill="none" stroke="white" stroke-width="1.5" d="M0,-3.0v7 M-2.5,-0.5L0,-3.0L2.5,-0.5"/>
                </g>
                <g id="arrowRight" xlink:href="#dirArrow" transform="rotate(90) translate(36 -43)" onmousedown="handlePan(1,0)">
                  <use xlink:href="#rim" fill="#404040">
                        <set attributeName="fill" to="#808080" begin="arrowRight.mouseover" end="arrowRight.mouseout"/>
                  </use>
                  <path fill="none" stroke="white" stroke-width="1.5" d="M0,-3.0v7 M-2.5,-0.5L0,-3.0L2.5,-0.5"/>
                </g>
                <g id="arrowDown" xlink:href="#dirArrow" transform="rotate(180) translate(-30 -48)" onmousedown="handlePan(0,1)">
                  <use xlink:href="#rim" fill="#404040">
                        <set attributeName="fill" to="#808080" begin="arrowDown.mouseover" end="arrowDown.mouseout"/>
                  </use>
                  <path fill="none" stroke="white" stroke-width="1.5" d="M0,-3.0v7 M-2.5,-0.5L0,-3.0L2.5,-0.5"/>
                </g>
                <g id="arrowLeft" xlink:href="#dirArrow" transform="rotate(270) translate(-36 17)" onmousedown="handlePan(-1,0)">
                  <use xlink:href="#rim" fill="#404040">
                        <set attributeName="fill" to="#808080" begin="arrowLeft.mouseover" end="arrowLeft.mouseout"/>
                  </use>
                  <path fill="none" stroke="white" stroke-width="1.5" d="M0,-3.0v7 M-2.5,-0.5L0,-3.0L2.5,-0.5"/>
                </g>
        </g>
        <svg viewBox="0 0 15 15" width="100%" height="30px" preserveAspectRatio="xMaxYMin meet">
         <g id="arrow_out" transform="scale(0.3 0.3)">
          <a xlink:href="classcarla_1_1geom_1_1Math_a87bb8efcea50103f41ff50205484d2fe_icgraph_org.svg" target="_base">
           <rect id="button" ry="5" rx="5" y="6" x="6" height="38" width="38"
                fill="#f2f5e9" fill-opacity="0.5" stroke="#606060" stroke-width="1.0"/>
           <path id="arrow"
             d="M 11.500037,31.436501 C 11.940474,20.09759 22.043105,11.32322 32.158766,21.979434 L 37.068811,17.246167 C 37.068811,17.246167 37.088388,32 37.088388,32 L 22.160133,31.978069 C 22.160133,31.978069 26.997745,27.140456 26.997745,27.140456 C 18.528582,18.264221 13.291696,25.230495 11.500037,31.436501 z"
             style="fill:#404040;"/>
          </a>
         </g>
        </svg>
</svg>
