<?xml version="1.0" encoding="UTF-8" standalone="no"?>
<!DOCTYPE svg PUBLIC "-//W3C//DTD SVG 1.1//EN"
 "http://www.w3.org/Graphics/SVG/1.1/DTD/svg11.dtd">
<!-- Generated by graphviz version 2.38.0 (20140413.2041)
 -->
<!-- Title: carla::geom::Math::GetForwardVector Pages: 1 -->
<svg width="1253pt" height="489pt"
 viewBox="0.00 0.00 1253.00 488.50" xmlns="http://www.w3.org/2000/svg" xmlns:xlink="http://www.w3.org/1999/xlink">
<g id="graph0" class="graph" transform="scale(1 1) rotate(0) translate(4 484.5)">
<title>carla::geom::Math::GetForwardVector</title>
<polygon fill="white" stroke="none" points="-4,4 -4,-484.5 1249,-484.5 1249,4 -4,4"/>
<!-- Node1 -->
<g id="node1" class="node"><title>Node1</title>
<polygon fill="#bfbfbf" stroke="black" points="0,-90.5 0,-120.5 101,-120.5 101,-90.5 0,-90.5"/>
<text text-anchor="start" x="8" y="-108.5" font-family="Helvetica,sans-Serif" font-size="10.00">carla::geom::Math::</text>
<text text-anchor="middle" x="50.5" y="-97.5" font-family="Helvetica,sans-Serif" font-size="10.00">GetForwardVector</text>
</g>
<!-- Node2 -->
<g id="node2" class="node"><title>Node2</title>
<g id="a_node2"><a xlink:href="../../d0/dea/classcarla_1_1geom_1_1Math.html#a71f0667271df699e511124559f61665e" target="_top" xlink:title="carla::geom::Math::\lDistance2D">
<polygon fill="white" stroke="black" points="141.5,-137.5 141.5,-167.5 242.5,-167.5 242.5,-137.5 141.5,-137.5"/>
<text text-anchor="start" x="149.5" y="-155.5" font-family="Helvetica,sans-Serif" font-size="10.00">carla::geom::Math::</text>
<text text-anchor="middle" x="192" y="-144.5" font-family="Helvetica,sans-Serif" font-size="10.00">Distance2D</text>
</a>
</g>
</g>
<!-- Node1&#45;&gt;Node2 -->
<g id="edge1" class="edge"><title>Node1&#45;&gt;Node2</title>
<path fill="none" stroke="midnightblue" d="M105.666,-123.75C119.152,-128.293 133.457,-133.113 146.422,-137.481"/>
<polygon fill="midnightblue" stroke="midnightblue" points="106.616,-120.376 96.0222,-120.5 104.381,-127.01 106.616,-120.376"/>
</g>
<!-- Node21 -->
<g id="node21" class="node"><title>Node21</title>
<g id="a_node21"><a xlink:href="../../d8/dba/classcarla_1_1geom_1_1Rotation.html#a0ab672d4056ca0dae929df0841912183" target="_top" xlink:title="carla::geom::Rotation\l::GetForwardVector">
<polygon fill="white" stroke="black" points="137,-44.5 137,-74.5 247,-74.5 247,-44.5 137,-44.5"/>
<text text-anchor="start" x="145" y="-62.5" font-family="Helvetica,sans-Serif" font-size="10.00">carla::geom::Rotation</text>
<text text-anchor="middle" x="192" y="-51.5" font-family="Helvetica,sans-Serif" font-size="10.00">::GetForwardVector</text>
</a>
</g>
</g>
<!-- Node1&#45;&gt;Node21 -->
<g id="edge26" class="edge"><title>Node1&#45;&gt;Node21</title>
<path fill="none" stroke="midnightblue" d="M106.763,-87.2772C119.508,-83.0743 132.929,-78.6487 145.22,-74.596"/>
<polygon fill="midnightblue" stroke="midnightblue" points="105.578,-83.9822 97.1775,-90.4379 107.771,-90.6301 105.578,-83.9822"/>
</g>
<!-- Node3 -->
<g id="node3" class="node"><title>Node3</title>
<g id="a_node3"><a xlink:href="../../d0/dea/classcarla_1_1geom_1_1Math.html#afe602ce38a646f5a2223fa01b80dda74" target="_top" xlink:title="Returns a pair containing: ">
<polygon fill="white" stroke="black" points="306,-115.5 306,-145.5 410,-145.5 410,-115.5 306,-115.5"/>
<text text-anchor="start" x="314" y="-133.5" font-family="Helvetica,sans-Serif" font-size="10.00">carla::geom::Math::</text>
<text text-anchor="middle" x="358" y="-122.5" font-family="Helvetica,sans-Serif" font-size="10.00">DistanceArcToPoint</text>
</a>
</g>
</g>
<!-- Node2&#45;&gt;Node3 -->
<g id="edge2" class="edge"><title>Node2&#45;&gt;Node3</title>
<path fill="none" stroke="midnightblue" d="M252.708,-137.967C270.119,-135.269 288.981,-132.811 305.816,-131.059"/>
<polygon fill="midnightblue" stroke="midnightblue" points="251.97,-134.541 242.65,-139.58 253.079,-141.452 251.97,-134.541"/>
</g>
<!-- Node6 -->
<g id="node6" class="node"><title>Node6</title>
<g id="a_node6"><a xlink:href="../../d0/dea/classcarla_1_1geom_1_1Math.html#ab65c2226be8bc15f3ea8aab7ffa27443" target="_top" xlink:title="Returns a pair containing: ">
<polygon fill="white" stroke="black" points="294,-313.5 294,-343.5 422,-343.5 422,-313.5 294,-313.5"/>
<text text-anchor="start" x="302" y="-331.5" font-family="Helvetica,sans-Serif" font-size="10.00">carla::geom::Math::</text>
<text text-anchor="middle" x="358" y="-320.5" font-family="Helvetica,sans-Serif" font-size="10.00">DistanceSegmentToPoint</text>
</a>
</g>
</g>
<!-- Node2&#45;&gt;Node6 -->
<g id="edge6" class="edge"><title>Node2&#45;&gt;Node6</title>
<path fill="none" stroke="midnightblue" d="M218.477,-174.79C254.858,-211.156 320.15,-281.712 346.015,-313.12"/>
<polygon fill="midnightblue" stroke="midnightblue" points="220.75,-172.115 211.177,-167.575 215.829,-177.094 220.75,-172.115"/>
</g>
<!-- Node16 -->
<g id="node16" class="node"><title>Node16</title>
<g id="a_node16"><a xlink:href="../../d0/d34/classcarla_1_1road_1_1Map.html#a0cf8228efb07f292210daffc7da2e6ed" target="_top" xlink:title="carla::road::Map::GetWaypoint">
<polygon fill="white" stroke="black" points="283,-209 283,-228 433,-228 433,-209 283,-209"/>
<text text-anchor="middle" x="358" y="-216" font-family="Helvetica,sans-Serif" font-size="10.00">carla::road::Map::GetWaypoint</text>
</a>
</g>
</g>
<!-- Node2&#45;&gt;Node16 -->
<g id="edge18" class="edge"><title>Node2&#45;&gt;Node16</title>
<path fill="none" stroke="midnightblue" d="M240.21,-171.499C270.67,-183.757 308.991,-199.179 333.25,-208.942"/>
<polygon fill="midnightblue" stroke="midnightblue" points="241.209,-168.128 230.625,-167.642 238.595,-174.622 241.209,-168.128"/>
</g>
<!-- Node3&#45;&gt;Node2 -->
<g id="edge3" class="edge"><title>Node3&#45;&gt;Node2</title>
<path fill="none" stroke="midnightblue" d="M295.696,-145.279C278.199,-147.962 259.358,-150.391 242.65,-152.099"/>
<polygon fill="midnightblue" stroke="midnightblue" points="296.488,-148.697 305.816,-143.673 295.391,-141.784 296.488,-148.697"/>
</g>
<!-- Node4 -->
<g id="node4" class="node"><title>Node4</title>
<g id="a_node4"><a xlink:href="../../d2/d63/classcarla_1_1road_1_1element_1_1GeometryArc.html#a8f94cf3a826d3c7df25c5a25ade8a396" target="_top" xlink:title="Returns a pair containing: ">
<polygon fill="white" stroke="black" points="472,-49.5 472,-79.5 609,-79.5 609,-49.5 472,-49.5"/>
<text text-anchor="start" x="480" y="-67.5" font-family="Helvetica,sans-Serif" font-size="10.00">carla::road::element</text>
<text text-anchor="middle" x="540.5" y="-56.5" font-family="Helvetica,sans-Serif" font-size="10.00">::GeometryArc::DistanceTo</text>
</a>
</g>
</g>
<!-- Node3&#45;&gt;Node4 -->
<g id="edge4" class="edge"><title>Node3&#45;&gt;Node4</title>
<path fill="none" stroke="midnightblue" d="M408.513,-111.853C427.416,-104.785 449.183,-96.7064 469,-89.5 477.909,-86.2602 487.47,-82.8353 496.586,-79.5942"/>
<polygon fill="midnightblue" stroke="midnightblue" points="407.052,-108.663 398.915,-115.448 409.507,-115.219 407.052,-108.663"/>
</g>
<!-- Node5 -->
<g id="node5" class="node"><title>Node5</title>
<g id="a_node5"><a xlink:href="../../d6/dd9/test__geom_8cpp.html#a28ca4536866c48d0fd9578ec931a14da" target="_top" xlink:title="TEST">
<polygon fill="white" stroke="black" points="519.5,-99 519.5,-118 561.5,-118 561.5,-99 519.5,-99"/>
<text text-anchor="middle" x="540.5" y="-106" font-family="Helvetica,sans-Serif" font-size="10.00">TEST</text>
</a>
</g>
</g>
<!-- Node3&#45;&gt;Node5 -->
<g id="edge5" class="edge"><title>Node3&#45;&gt;Node5</title>
<path fill="none" stroke="midnightblue" d="M420.247,-123.035C454.734,-118.832 495.544,-113.858 519.374,-110.953"/>
<polygon fill="midnightblue" stroke="midnightblue" points="419.744,-119.57 410.241,-124.255 420.591,-126.519 419.744,-119.57"/>
</g>
<!-- Node6&#45;&gt;Node2 -->
<g id="edge7" class="edge"><title>Node6&#45;&gt;Node2</title>
<path fill="none" stroke="midnightblue" d="M331.397,-306.084C294.885,-269.575 229.441,-198.841 203.76,-167.607"/>
<polygon fill="midnightblue" stroke="midnightblue" points="329.152,-308.787 338.724,-313.329 334.074,-303.809 329.152,-308.787"/>
</g>
<!-- Node7 -->
<g id="node7" class="node"><title>Node7</title>
<g id="a_node7"><a xlink:href="../../d2/da7/classcarla_1_1road_1_1element_1_1GeometryLine.html#a4d17bec72c0d68b56deafe0ba07ec352" target="_top" xlink:title="Returns a pair containing: ">
<polygon fill="white" stroke="black" points="470.5,-411.5 470.5,-441.5 610.5,-441.5 610.5,-411.5 470.5,-411.5"/>
<text text-anchor="start" x="478.5" y="-429.5" font-family="Helvetica,sans-Serif" font-size="10.00">carla::road::element</text>
<text text-anchor="middle" x="540.5" y="-418.5" font-family="Helvetica,sans-Serif" font-size="10.00">::GeometryLine::DistanceTo</text>
</a>
</g>
</g>
<!-- Node6&#45;&gt;Node7 -->
<g id="edge8" class="edge"><title>Node6&#45;&gt;Node7</title>
<path fill="none" stroke="midnightblue" d="M385.947,-349.592C407.492,-365.708 438.961,-387.611 469,-402.5 475.603,-405.773 482.761,-408.778 489.899,-411.473"/>
<polygon fill="midnightblue" stroke="midnightblue" points="388.003,-346.759 377.918,-343.511 383.776,-352.339 388.003,-346.759"/>
</g>
<!-- Node8 -->
<g id="node8" class="node"><title>Node8</title>
<g id="a_node8"><a xlink:href="../../d0/d34/classcarla_1_1road_1_1Map.html#ae74d5c71d0ccdd83107894e5920f421e" target="_top" xlink:title="======================================================================== – Geometry &#45;&#45;&#45;&#45;&#45;&#45;&#45;&#45;&#45;&#45;&#45;&#45;&#45;&#45;&#45;&#45;...">
<polygon fill="white" stroke="black" points="469,-313.5 469,-343.5 612,-343.5 612,-313.5 469,-313.5"/>
<text text-anchor="start" x="477" y="-331.5" font-family="Helvetica,sans-Serif" font-size="10.00">carla::road::Map::GetClosest</text>
<text text-anchor="middle" x="540.5" y="-320.5" font-family="Helvetica,sans-Serif" font-size="10.00">WaypointOnRoad</text>
</a>
</g>
</g>
<!-- Node6&#45;&gt;Node8 -->
<g id="edge9" class="edge"><title>Node6&#45;&gt;Node8</title>
<path fill="none" stroke="midnightblue" d="M432.143,-328.5C444.206,-328.5 456.692,-328.5 468.696,-328.5"/>
<polygon fill="midnightblue" stroke="midnightblue" points="432.13,-325 422.13,-328.5 432.13,-332 432.13,-325"/>
</g>
<!-- Node15 -->
<g id="node15" class="node"><title>Node15</title>
<g id="a_node15"><a xlink:href="../../d6/dd9/test__geom_8cpp.html#a4c4e7eb15fe04d55f337f192a13c69e5" target="_top" xlink:title="TEST">
<polygon fill="white" stroke="black" points="519.5,-461 519.5,-480 561.5,-480 561.5,-461 519.5,-461"/>
<text text-anchor="middle" x="540.5" y="-468" font-family="Helvetica,sans-Serif" font-size="10.00">TEST</text>
</a>
</g>
</g>
<!-- Node6&#45;&gt;Node15 -->
<g id="edge17" class="edge"><title>Node6&#45;&gt;Node15</title>
<path fill="none" stroke="midnightblue" d="M373.684,-351.901C392.411,-379.802 427.404,-425.872 469,-451.5 484.433,-461.009 504.622,-465.823 519.439,-468.22"/>
<polygon fill="midnightblue" stroke="midnightblue" points="376.602,-349.967 368.187,-343.529 370.75,-353.809 376.602,-349.967"/>
</g>
<!-- Node9 -->
<g id="node9" class="node"><title>Node9</title>
<g id="a_node9"><a xlink:href="../../d2/d60/classcarla_1_1road_1_1element_1_1LaneCrossingCalculator.html#a589511f573df9e9c46c55a7a46c02cd6" target="_top" xlink:title="carla::road::element\l::LaneCrossingCalculator\l::Calculate">
<polygon fill="white" stroke="black" points="648,-362 648,-403 775,-403 775,-362 648,-362"/>
<text text-anchor="start" x="656" y="-391" font-family="Helvetica,sans-Serif" font-size="10.00">carla::road::element</text>
<text text-anchor="start" x="656" y="-380" font-family="Helvetica,sans-Serif" font-size="10.00">::LaneCrossingCalculator</text>
<text text-anchor="middle" x="711.5" y="-369" font-family="Helvetica,sans-Serif" font-size="10.00">::Calculate</text>
</a>
</g>
</g>
<!-- Node8&#45;&gt;Node9 -->
<g id="edge10" class="edge"><title>Node8&#45;&gt;Node9</title>
<path fill="none" stroke="midnightblue" d="M598.282,-346.643C614.215,-351.734 631.626,-357.298 647.878,-362.491"/>
<polygon fill="midnightblue" stroke="midnightblue" points="599.167,-343.252 588.576,-343.542 597.036,-349.92 599.167,-343.252"/>
</g>
<!-- Node12 -->
<g id="node12" class="node"><title>Node12</title>
<g id="a_node12"><a xlink:href="../../d0/d34/classcarla_1_1road_1_1Map.html#a2686993f028a6febd29a17b32b43142d" target="_top" xlink:title="======================================================================== – Georeference &#45;&#45;&#45;&#45;&#45;&#45;&#45;&#45;&#45;&#45;&#45;&#45;...">
<polygon fill="white" stroke="black" points="981,-318.5 981,-348.5 1108,-348.5 1108,-318.5 981,-318.5"/>
<text text-anchor="start" x="989" y="-336.5" font-family="Helvetica,sans-Serif" font-size="10.00">carla::road::Map::GetGeo</text>
<text text-anchor="middle" x="1044.5" y="-325.5" font-family="Helvetica,sans-Serif" font-size="10.00">Reference</text>
</a>
</g>
</g>
<!-- Node8&#45;&gt;Node12 -->
<g id="edge16" class="edge"><title>Node8&#45;&gt;Node12</title>
<path fill="none" stroke="midnightblue" d="M622.139,-329.303C722.028,-330.298 890.087,-331.972 980.839,-332.876"/>
<polygon fill="midnightblue" stroke="midnightblue" points="622.129,-325.803 612.094,-329.203 622.059,-332.803 622.129,-325.803"/>
</g>
<!-- Node14 -->
<g id="node14" class="node"><title>Node14</title>
<g id="a_node14"><a xlink:href="../../dd/d49/classcarla_1_1client_1_1Map.html#a09398f35d22fe98cd49211a3c70c99f2" target="_top" xlink:title="carla::client::Map\l::GetWaypoint">
<polygon fill="white" stroke="black" points="665.5,-274.5 665.5,-304.5 757.5,-304.5 757.5,-274.5 665.5,-274.5"/>
<text text-anchor="start" x="673.5" y="-292.5" font-family="Helvetica,sans-Serif" font-size="10.00">carla::client::Map</text>
<text text-anchor="middle" x="711.5" y="-281.5" font-family="Helvetica,sans-Serif" font-size="10.00">::GetWaypoint</text>
</a>
</g>
</g>
<!-- Node8&#45;&gt;Node14 -->
<g id="edge15" class="edge"><title>Node8&#45;&gt;Node14</title>
<path fill="none" stroke="midnightblue" d="M617.051,-311.065C633.584,-307.25 650.578,-303.328 665.465,-299.893"/>
<polygon fill="midnightblue" stroke="midnightblue" points="615.797,-307.763 606.84,-313.422 617.371,-314.583 615.797,-307.763"/>
</g>
<!-- Node10 -->
<g id="node10" class="node"><title>Node10</title>
<g id="a_node10"><a xlink:href="../../d0/d34/classcarla_1_1road_1_1Map.html#a1e606282c0bc3814dbd7cbbb23075a50" target="_top" xlink:title="carla::road::Map::Calculate\lCrossedLanes">
<polygon fill="white" stroke="black" points="811,-367.5 811,-397.5 945,-397.5 945,-367.5 811,-367.5"/>
<text text-anchor="start" x="819" y="-385.5" font-family="Helvetica,sans-Serif" font-size="10.00">carla::road::Map::Calculate</text>
<text text-anchor="middle" x="878" y="-374.5" font-family="Helvetica,sans-Serif" font-size="10.00">CrossedLanes</text>
</a>
</g>
</g>
<!-- Node9&#45;&gt;Node10 -->
<g id="edge11" class="edge"><title>Node9&#45;&gt;Node10</title>
<path fill="none" stroke="midnightblue" d="M785.433,-382.5C793.93,-382.5 802.562,-382.5 810.959,-382.5"/>
<polygon fill="midnightblue" stroke="midnightblue" points="785.16,-379 775.16,-382.5 785.16,-386 785.16,-379"/>
</g>
<!-- Node11 -->
<g id="node11" class="node"><title>Node11</title>
<g id="a_node11"><a xlink:href="../../dd/d49/classcarla_1_1client_1_1Map.html#ab38f325942fe41f8acce8e128404f0f4" target="_top" xlink:title="carla::client::Map\l::CalculateCrossedLanes">
<polygon fill="white" stroke="black" points="981,-367.5 981,-397.5 1108,-397.5 1108,-367.5 981,-367.5"/>
<text text-anchor="start" x="989" y="-385.5" font-family="Helvetica,sans-Serif" font-size="10.00">carla::client::Map</text>
<text text-anchor="middle" x="1044.5" y="-374.5" font-family="Helvetica,sans-Serif" font-size="10.00">::CalculateCrossedLanes</text>
</a>
</g>
</g>
<!-- Node10&#45;&gt;Node11 -->
<g id="edge12" class="edge"><title>Node10&#45;&gt;Node11</title>
<path fill="none" stroke="midnightblue" d="M955.651,-382.5C964.079,-382.5 972.585,-382.5 980.814,-382.5"/>
<polygon fill="midnightblue" stroke="midnightblue" points="955.434,-379 945.434,-382.5 955.434,-386 955.434,-379"/>
</g>
<!-- Node10&#45;&gt;Node12 -->
<g id="edge13" class="edge"><title>Node10&#45;&gt;Node12</title>
<path fill="none" stroke="midnightblue" d="M939.318,-364.533C956.943,-359.283 976.018,-353.601 992.97,-348.552"/>
<polygon fill="midnightblue" stroke="midnightblue" points="938.282,-361.189 929.698,-367.399 940.281,-367.898 938.282,-361.189"/>
</g>
<!-- Node13 -->
<g id="node13" class="node"><title>Node13</title>
<g id="a_node13"><a xlink:href="../../dd/d49/classcarla_1_1client_1_1Map.html#abf307dc940aefa23689a7046197603ed" target="_top" xlink:title="carla::client::Map\l::GetGeoReference">
<polygon fill="white" stroke="black" points="1144,-318.5 1144,-348.5 1245,-348.5 1245,-318.5 1144,-318.5"/>
<text text-anchor="start" x="1152" y="-336.5" font-family="Helvetica,sans-Serif" font-size="10.00">carla::client::Map</text>
<text text-anchor="middle" x="1194.5" y="-325.5" font-family="Helvetica,sans-Serif" font-size="10.00">::GetGeoReference</text>
</a>
</g>
</g>
<!-- Node12&#45;&gt;Node13 -->
<g id="edge14" class="edge"><title>Node12&#45;&gt;Node13</title>
<path fill="none" stroke="midnightblue" d="M1118.3,-333.5C1126.88,-333.5 1135.49,-333.5 1143.65,-333.5"/>
<polygon fill="midnightblue" stroke="midnightblue" points="1118.27,-330 1108.27,-333.5 1118.27,-337 1118.27,-330"/>
</g>
<!-- Node16&#45;&gt;Node12 -->
<g id="edge23" class="edge"><title>Node16&#45;&gt;Node12</title>
<path fill="none" stroke="midnightblue" d="M439.512,-207.881C524.057,-199.054 660.384,-191.425 775,-215.5 870.176,-235.491 972.794,-291.337 1018.77,-318.408"/>
<polygon fill="midnightblue" stroke="midnightblue" points="439.032,-204.413 429.463,-208.962 439.78,-211.373 439.032,-204.413"/>
</g>
<!-- Node16&#45;&gt;Node14 -->
<g id="edge21" class="edge"><title>Node16&#45;&gt;Node14</title>
<path fill="none" stroke="midnightblue" d="M386.1,-232.471C407.906,-243.057 439.646,-257.017 469,-264.5 535.985,-281.577 616.257,-287.034 665.302,-288.751"/>
<polygon fill="midnightblue" stroke="midnightblue" points="387.628,-229.321 377.112,-228.024 384.524,-235.596 387.628,-229.321"/>
</g>
<!-- Node17 -->
<g id="node17" class="node"><title>Node17</title>
<g id="a_node17"><a xlink:href="../../df/dc1/namespacecarla_1_1road_1_1element.html#ad4397b3938f0a721ad5208f14912b744" target="_top" xlink:title="carla::road::element\l::IsOffRoad">
<polygon fill="white" stroke="black" points="489,-362.5 489,-392.5 592,-392.5 592,-362.5 489,-362.5"/>
<text text-anchor="start" x="497" y="-380.5" font-family="Helvetica,sans-Serif" font-size="10.00">carla::road::element</text>
<text text-anchor="middle" x="540.5" y="-369.5" font-family="Helvetica,sans-Serif" font-size="10.00">::IsOffRoad</text>
</a>
</g>
</g>
<!-- Node16&#45;&gt;Node17 -->
<g id="edge19" class="edge"><title>Node16&#45;&gt;Node17</title>
<path fill="none" stroke="midnightblue" d="M374.701,-235.681C389.984,-252.601 413.667,-279.346 433,-303.5 449.887,-324.598 447.308,-336.384 469,-352.5 474.942,-356.914 481.733,-360.602 488.7,-363.669"/>
<polygon fill="midnightblue" stroke="midnightblue" points="377.242,-233.272 367.929,-228.219 372.058,-237.976 377.242,-233.272"/>
</g>
<!-- Node18 -->
<g id="node18" class="node"><title>Node18</title>
<g id="a_node18"><a xlink:href="../../dd/d49/classcarla_1_1client_1_1Map.html#a1797b448de9ed68a13434f3f5ad7af56" target="_top" xlink:title="carla::client::Map\l::GetWaypointXODR">
<polygon fill="white" stroke="black" points="486,-137.5 486,-167.5 595,-167.5 595,-137.5 486,-137.5"/>
<text text-anchor="start" x="494" y="-155.5" font-family="Helvetica,sans-Serif" font-size="10.00">carla::client::Map</text>
<text text-anchor="middle" x="540.5" y="-144.5" font-family="Helvetica,sans-Serif" font-size="10.00">::GetWaypointXODR</text>
</a>
</g>
</g>
<!-- Node16&#45;&gt;Node18 -->
<g id="edge22" class="edge"><title>Node16&#45;&gt;Node18</title>
<path fill="none" stroke="midnightblue" d="M394.825,-205.4C424.598,-194.514 466.984,-179.016 498.184,-167.607"/>
<polygon fill="midnightblue" stroke="midnightblue" points="393.436,-202.182 385.246,-208.903 395.84,-208.756 393.436,-202.182"/>
</g>
<!-- Node19 -->
<g id="node19" class="node"><title>Node19</title>
<g id="a_node19"><a xlink:href="../../dc/d07/classcarla_1_1rss_1_1RssCheck.html#aff1e8790fbe6df81d866570706defcad" target="_top" xlink:title="carla::rss::RssCheck\l::calculateOccupiedRegions">
<polygon fill="white" stroke="black" points="471,-225.5 471,-255.5 610,-255.5 610,-225.5 471,-225.5"/>
<text text-anchor="start" x="479" y="-243.5" font-family="Helvetica,sans-Serif" font-size="10.00">carla::rss::RssCheck</text>
<text text-anchor="middle" x="540.5" y="-232.5" font-family="Helvetica,sans-Serif" font-size="10.00">::calculateOccupiedRegions</text>
</a>
</g>
</g>
<!-- Node16&#45;&gt;Node19 -->
<g id="edge24" class="edge"><title>Node16&#45;&gt;Node19</title>
<path fill="none" stroke="midnightblue" d="M443.186,-228.761C452.439,-229.889 461.778,-231.027 470.81,-232.128"/>
<polygon fill="midnightblue" stroke="midnightblue" points="443.548,-225.279 433.198,-227.543 442.701,-232.228 443.548,-225.279"/>
</g>
<!-- Node17&#45;&gt;Node9 -->
<g id="edge20" class="edge"><title>Node17&#45;&gt;Node9</title>
<path fill="none" stroke="midnightblue" d="M602.269,-379.298C617.086,-379.736 632.962,-380.206 647.863,-380.647"/>
<polygon fill="midnightblue" stroke="midnightblue" points="602.305,-375.798 592.206,-379 602.098,-382.794 602.305,-375.798"/>
</g>
<!-- Node20 -->
<g id="node20" class="node"><title>Node20</title>
<g id="a_node20"><a xlink:href="../../dc/d07/classcarla_1_1rss_1_1RssCheck.html#af0dcc48e400d434f51275bf1797be2e0" target="_top" xlink:title="carla::rss::RssCheck\l::checkObjects">
<polygon fill="white" stroke="black" points="656.5,-225.5 656.5,-255.5 766.5,-255.5 766.5,-225.5 656.5,-225.5"/>
<text text-anchor="start" x="664.5" y="-243.5" font-family="Helvetica,sans-Serif" font-size="10.00">carla::rss::RssCheck</text>
<text text-anchor="middle" x="711.5" y="-232.5" font-family="Helvetica,sans-Serif" font-size="10.00">::checkObjects</text>
</a>
</g>
</g>
<!-- Node19&#45;&gt;Node20 -->
<g id="edge25" class="edge"><title>Node19&#45;&gt;Node20</title>
<path fill="none" stroke="midnightblue" d="M620.395,-240.5C632.556,-240.5 644.872,-240.5 656.33,-240.5"/>
<polygon fill="midnightblue" stroke="midnightblue" points="620.239,-237 610.239,-240.5 620.239,-244 620.239,-237"/>
</g>
<!-- Node22 -->
<g id="node22" class="node"><title>Node22</title>
<g id="a_node22"><a xlink:href="../../d6/dd9/test__geom_8cpp.html#a23fa4ca2747dbb9c52e219cfea5f230f" target="_top" xlink:title="TEST">
<polygon fill="white" stroke="black" points="337,-6 337,-25 379,-25 379,-6 337,-6"/>
<text text-anchor="middle" x="358" y="-13" font-family="Helvetica,sans-Serif" font-size="10.00">TEST</text>
</a>
</g>
</g>
<!-- Node21&#45;&gt;Node22 -->
<g id="edge27" class="edge"><title>Node21&#45;&gt;Node22</title>
<path fill="none" stroke="midnightblue" d="M256.634,-41.6567C265.482,-39.2244 274.463,-36.7815 283,-34.5 301.196,-29.6372 321.974,-24.3232 336.871,-20.5547"/>
<polygon fill="midnightblue" stroke="midnightblue" points="255.439,-38.3554 246.731,-44.3892 257.301,-45.1033 255.439,-38.3554"/>
</g>
<!-- Node23 -->
<g id="node23" class="node"><title>Node23</title>
<g id="a_node23"><a xlink:href="../../de/da4/classcarla_1_1geom_1_1Transform.html#a9321d610439d88a4ab73d2d306c23fb7" target="_top" xlink:title="carla::geom::Transform\l::GetForwardVector">
<polygon fill="white" stroke="black" points="299,-44.5 299,-74.5 417,-74.5 417,-44.5 299,-44.5"/>
<text text-anchor="start" x="307" y="-62.5" font-family="Helvetica,sans-Serif" font-size="10.00">carla::geom::Transform</text>
<text text-anchor="middle" x="358" y="-51.5" font-family="Helvetica,sans-Serif" font-size="10.00">::GetForwardVector</text>
</a>
</g>
</g>
<!-- Node21&#45;&gt;Node23 -->
<g id="edge28" class="edge"><title>Node21&#45;&gt;Node23</title>
<path fill="none" stroke="midnightblue" d="M257.462,-59.5C271.15,-59.5 285.522,-59.5 298.954,-59.5"/>
<polygon fill="midnightblue" stroke="midnightblue" points="257.154,-56.0001 247.154,-59.5 257.154,-63.0001 257.154,-56.0001"/>
</g>
<!-- Node24 -->
<g id="node24" class="node"><title>Node24</title>
<g id="a_node24"><a xlink:href="../../d0/d34/classcarla_1_1road_1_1Map.html#ad30ed42bc1a8089df7d63ec8cdfa3e72" target="_top" xlink:title="carla::road::Map::Create\lRtree">
<polygon fill="white" stroke="black" points="479.5,-0.5 479.5,-30.5 601.5,-30.5 601.5,-0.5 479.5,-0.5"/>
<text text-anchor="start" x="487.5" y="-18.5" font-family="Helvetica,sans-Serif" font-size="10.00">carla::road::Map::Create</text>
<text text-anchor="middle" x="540.5" y="-7.5" font-family="Helvetica,sans-Serif" font-size="10.00">Rtree</text>
</a>
</g>
</g>
<!-- Node23&#45;&gt;Node24 -->
<g id="edge29" class="edge"><title>Node23&#45;&gt;Node24</title>
<path fill="none" stroke="midnightblue" d="M427.068,-42.9073C444.248,-38.7194 462.571,-34.2528 479.331,-30.1671"/>
<polygon fill="midnightblue" stroke="midnightblue" points="425.991,-39.5671 417.105,-45.3359 427.649,-46.368 425.991,-39.5671"/>
</g>
<!-- Node25 -->
<g id="node25" class="node"><title>Node25</title>
<g id="a_node25"><a xlink:href="../../d0/d34/classcarla_1_1road_1_1Map.html#a8f7405072e937b732ea32c9b73bd116c" target="_top" xlink:title="======================================================================== – Constructor &#45;&#45;&#45;&#45;&#45;&#45;&#45;&#45;&#45;&#45;&#45;&#45;&#45;...">
<polygon fill="white" stroke="black" points="655.5,-6 655.5,-25 767.5,-25 767.5,-6 655.5,-6"/>
<text text-anchor="middle" x="711.5" y="-13" font-family="Helvetica,sans-Serif" font-size="10.00">carla::road::Map::Map</text>
</a>
</g>
</g>
<!-- Node24&#45;&gt;Node25 -->
<g id="edge30" class="edge"><title>Node24&#45;&gt;Node25</title>
<path fill="none" stroke="midnightblue" d="M611.572,-15.5C626.204,-15.5 641.432,-15.5 655.428,-15.5"/>
<polygon fill="midnightblue" stroke="midnightblue" points="611.559,-12.0001 601.559,-15.5 611.559,-19.0001 611.559,-12.0001"/>
</g>
</g>
</svg>
