<?xml version="1.0" encoding="UTF-8" standalone="no"?>
<!DOCTYPE svg PUBLIC "-//W3C//DTD SVG 1.1//EN"
 "http://www.w3.org/Graphics/SVG/1.1/DTD/svg11.dtd">
<!-- Generated by graphviz version 2.38.0 (20140413.2041)
 -->
<!-- Title: carla::geom::Math::Clamp Pages: 1 -->
<!--zoomable 630 -->
<svg id="main" version="1.1" xmlns="http://www.w3.org/2000/svg" xmlns:xlink="http://www.w3.org/1999/xlink" xml:space="preserve" onload="init(evt)">
<style type="text/css"><![CDATA[
.edge:hover path { stroke: red; }
.edge:hover polygon { stroke: red; fill: red; }
]]></style>
<script type="text/javascript"><![CDATA[
var edges = document.getElementsByTagName('g');
if (edges && edges.length) {
  for (var i=0;i<edges.length;i++) {
    if (edges[i].id.substr(0,4)=='edge') {
      edges[i].setAttribute('class','edge');
    }
  }
}
]]></script>
        <defs>
                <circle id="rim" cx="0" cy="0" r="7"/>
                <circle id="rim2" cx="0" cy="0" r="3.5"/>
                <g id="zoomPlus">
                        <use xlink:href="#rim" fill="#404040">
                                <set attributeName="fill" to="#808080" begin="zoomplus.mouseover" end="zoomplus.mouseout"/>
                        </use>
                        <path d="M-4,0h8M0,-4v8" fill="none" stroke="white" stroke-width="1.5" pointer-events="none"/>
                </g>
                <g id="zoomMin">
                        <use xlink:href="#rim" fill="#404040">
                                <set attributeName="fill" to="#808080" begin="zoomminus.mouseover" end="zoomminus.mouseout"/>
                        </use>
                        <path d="M-4,0h8" fill="none" stroke="white" stroke-width="1.5" pointer-events="none"/>
                </g>
                <g id="dirArrow">
                        <path fill="none" stroke="white" stroke-width="1.5" d="M0,-3.0v7 M-2.5,-0.5L0,-3.0L2.5,-0.5"/>
                </g>
               <g id="resetDef">
                       <use xlink:href="#rim2" fill="#404040">
                               <set attributeName="fill" to="#808080" begin="reset.mouseover" end="reset.mouseout"/>
                       </use>
               </g>
        </defs>

<script type="text/javascript">
var viewWidth = 1614;
var viewHeight = 630;
var sectionId = 'dynsection-0';
</script>
<script xlink:href="../../svgpan.js"/>
<svg id="graph" class="graph">
<g id="viewport">
<title>carla::geom::Math::Clamp</title>
<polygon fill="white" stroke="none" points="-4,4 -4,-626 1610,-626 1610,4 -4,4"/>
<!-- Node1 -->
<g id="node1" class="node"><title>Node1</title>
<polygon fill="#bfbfbf" stroke="black" points="0,-287 0,-317 110,-317 110,-287 0,-287"/>
<text text-anchor="start" x="8" y="-305" font-family="Helvetica,sans-Serif" font-size="10.00">carla::geom::Math::</text>
<text text-anchor="middle" x="55" y="-294" font-family="Helvetica,sans-Serif" font-size="10.00">Clamp</text>
</g>
<!-- Node2 -->
<g id="node2" class="node"><title>Node2</title>
<g id="a_node2"><a xlink:href="../../d1/d26/classcarla_1_1traffic__manager_1_1CollisionStage.html#a879ddb5b8d339cfd25cf6bee0c661ae9" target="_top" xlink:title="Implement this method with logic to process data inside the stage. ">
<polygon fill="white" stroke="black" points="191,-542 191,-572 317,-572 317,-542 191,-542"/>
<text text-anchor="start" x="199" y="-560" font-family="Helvetica,sans-Serif" font-size="10.00">carla::traffic_manager</text>
<text text-anchor="middle" x="254" y="-549" font-family="Helvetica,sans-Serif" font-size="10.00">::CollisionStage::Action</text>
</a>
</g>
</g>
<!-- Node1&#45;&gt;Node2 -->
<g id="edge1" class="edge"><title>Node1&#45;&gt;Node2</title>
<path fill="none" stroke="midnightblue" d="M58.226,-327.27C63.8458,-375.09 83.0125,-478.864 146,-533 158.489,-543.734 174.754,-549.954 190.818,-553.485"/>
<polygon fill="midnightblue" stroke="midnightblue" points="61.6888,-326.735 57.145,-317.164 54.7285,-327.479 61.6888,-326.735"/>
</g>
<!-- Node3 -->
<g id="node3" class="node"><title>Node3</title>
<g id="a_node3"><a xlink:href="../../d6/da2/classcarla_1_1traffic__manager_1_1LocalizationStage.html#aeddaa75620eea188984f36cdf8bfed2a" target="_top" xlink:title="Method to determine lane change and obtain target lane waypoint. ">
<polygon fill="white" stroke="black" points="170,-482.5 170,-523.5 338,-523.5 338,-482.5 170,-482.5"/>
<text text-anchor="start" x="178" y="-511.5" font-family="Helvetica,sans-Serif" font-size="10.00">carla::traffic_manager</text>
<text text-anchor="start" x="178" y="-500.5" font-family="Helvetica,sans-Serif" font-size="10.00">::LocalizationStage::AssignLane</text>
<text text-anchor="middle" x="254" y="-489.5" font-family="Helvetica,sans-Serif" font-size="10.00">Change</text>
</a>
</g>
</g>
<!-- Node1&#45;&gt;Node3 -->
<g id="edge2" class="edge"><title>Node1&#45;&gt;Node3</title>
<path fill="none" stroke="midnightblue" d="M62.3855,-327.244C73.1786,-364.707 98.6274,-434.704 146,-473 153.127,-478.761 161.292,-483.417 169.866,-487.18"/>
<polygon fill="midnightblue" stroke="midnightblue" points="65.639,-325.876 59.6107,-317.163 58.89,-327.733 65.639,-325.876"/>
</g>
<!-- Node5 -->
<g id="node5" class="node"><title>Node5</title>
<g id="a_node5"><a xlink:href="../../d0/dea/classcarla_1_1geom_1_1Math.html#ab65c2226be8bc15f3ea8aab7ffa27443" target="_top" xlink:title="Returns a pair containing: ">
<polygon fill="white" stroke="black" points="185.5,-434 185.5,-464 322.5,-464 322.5,-434 185.5,-434"/>
<text text-anchor="start" x="193.5" y="-452" font-family="Helvetica,sans-Serif" font-size="10.00">carla::geom::Math::</text>
<text text-anchor="middle" x="254" y="-441" font-family="Helvetica,sans-Serif" font-size="10.00">DistanceSegmentToPoint</text>
</a>
</g>
</g>
<!-- Node1&#45;&gt;Node5 -->
<g id="edge4" class="edge"><title>Node1&#45;&gt;Node5</title>
<path fill="none" stroke="midnightblue" d="M67.2301,-326.184C81.5062,-354.168 108.836,-399.526 146,-424 157.71,-431.712 171.516,-437.056 185.25,-440.757"/>
<polygon fill="midnightblue" stroke="midnightblue" points="70.2967,-324.489 62.7301,-317.073 64.0205,-327.589 70.2967,-324.489"/>
</g>
<!-- Node24 -->
<g id="node24" class="node"><title>Node24</title>
<g id="a_node24"><a xlink:href="../../dd/de6/classcarla_1_1road_1_1Road.html#aee534bd2e59111472ff8e658c9b4845d" target="_top" xlink:title="Returns a directed point on the center of the road (lane 0), with the corresponding laneOffset and el...">
<polygon fill="white" stroke="black" points="200.5,-385 200.5,-415 307.5,-415 307.5,-385 200.5,-385"/>
<text text-anchor="start" x="208.5" y="-403" font-family="Helvetica,sans-Serif" font-size="10.00">carla::road::Road::</text>
<text text-anchor="middle" x="254" y="-392" font-family="Helvetica,sans-Serif" font-size="10.00">GetDirectedPointIn</text>
</a>
</g>
</g>
<!-- Node1&#45;&gt;Node24 -->
<g id="edge29" class="edge"><title>Node1&#45;&gt;Node24</title>
<path fill="none" stroke="midnightblue" d="M77.6837,-324.39C94.775,-340.765 119.991,-362.259 146,-375 162.875,-383.266 182.605,-388.872 200.494,-392.642"/>
<polygon fill="midnightblue" stroke="midnightblue" points="80.0197,-321.778 70.429,-317.276 75.1187,-326.776 80.0197,-321.778"/>
</g>
<!-- Node26 -->
<g id="node26" class="node"><title>Node26</title>
<g id="a_node26"><a xlink:href="../../d2/da7/classcarla_1_1road_1_1element_1_1GeometryLine.html#a9603d34a699b3a48be2db715b2fa7062" target="_top" xlink:title="carla::road::element\l::GeometryLine::PosFromDist">
<polygon fill="white" stroke="black" points="176,-336 176,-366 332,-366 332,-336 176,-336"/>
<text text-anchor="start" x="184" y="-354" font-family="Helvetica,sans-Serif" font-size="10.00">carla::road::element</text>
<text text-anchor="middle" x="254" y="-343" font-family="Helvetica,sans-Serif" font-size="10.00">::GeometryLine::PosFromDist</text>
</a>
</g>
</g>
<!-- Node1&#45;&gt;Node26 -->
<g id="edge31" class="edge"><title>Node1&#45;&gt;Node26</title>
<path fill="none" stroke="midnightblue" d="M119.967,-319.32C128.704,-321.609 137.565,-323.891 146,-326 159.325,-329.332 173.618,-332.768 187.282,-335.985"/>
<polygon fill="midnightblue" stroke="midnightblue" points="120.746,-315.906 110.184,-316.741 118.962,-322.674 120.746,-315.906"/>
</g>
<!-- Node27 -->
<g id="node27" class="node"><title>Node27</title>
<g id="a_node27"><a xlink:href="../../d2/d63/classcarla_1_1road_1_1element_1_1GeometryArc.html#a3334d08b3288965f57bf46a7d40ddc5d" target="_top" xlink:title="carla::road::element\l::GeometryArc::PosFromDist">
<polygon fill="white" stroke="black" points="178,-287 178,-317 330,-317 330,-287 178,-287"/>
<text text-anchor="start" x="186" y="-305" font-family="Helvetica,sans-Serif" font-size="10.00">carla::road::element</text>
<text text-anchor="middle" x="254" y="-294" font-family="Helvetica,sans-Serif" font-size="10.00">::GeometryArc::PosFromDist</text>
</a>
</g>
</g>
<!-- Node1&#45;&gt;Node27 -->
<g id="edge32" class="edge"><title>Node1&#45;&gt;Node27</title>
<path fill="none" stroke="midnightblue" d="M120.344,-302C138.644,-302 158.74,-302 177.632,-302"/>
<polygon fill="midnightblue" stroke="midnightblue" points="120.092,-298.5 110.092,-302 120.092,-305.5 120.092,-298.5"/>
</g>
<!-- Node28 -->
<g id="node28" class="node"><title>Node28</title>
<g id="a_node28"><a xlink:href="../../de/d24/classcarla_1_1road_1_1element_1_1GeometrySpiral.html#a6172ed93d5e09d458c7ac9b7f705028c" target="_top" xlink:title="carla::road::element\l::GeometrySpiral::PosFromDist">
<polygon fill="white" stroke="black" points="172,-238 172,-268 336,-268 336,-238 172,-238"/>
<text text-anchor="start" x="180" y="-256" font-family="Helvetica,sans-Serif" font-size="10.00">carla::road::element</text>
<text text-anchor="middle" x="254" y="-245" font-family="Helvetica,sans-Serif" font-size="10.00">::GeometrySpiral::PosFromDist</text>
</a>
</g>
</g>
<!-- Node1&#45;&gt;Node28 -->
<g id="edge33" class="edge"><title>Node1&#45;&gt;Node28</title>
<path fill="none" stroke="midnightblue" d="M118.569,-284.184C127.749,-281.697 137.106,-279.231 146,-277 158.095,-273.966 171.005,-270.913 183.522,-268.05"/>
<polygon fill="midnightblue" stroke="midnightblue" points="117.43,-280.867 108.707,-286.881 119.276,-287.619 117.43,-280.867"/>
</g>
<!-- Node29 -->
<g id="node29" class="node"><title>Node29</title>
<g id="a_node29"><a xlink:href="../../d6/ddb/classcarla_1_1traffic__manager_1_1Parameters.html#a8d91e04f3a7d0573a4353cf965c5a125" target="_top" xlink:title="Method to set % to ignore any vehicle. ">
<polygon fill="white" stroke="black" points="161.5,-178.5 161.5,-219.5 346.5,-219.5 346.5,-178.5 161.5,-178.5"/>
<text text-anchor="start" x="169.5" y="-207.5" font-family="Helvetica,sans-Serif" font-size="10.00">carla::traffic_manager</text>
<text text-anchor="start" x="169.5" y="-196.5" font-family="Helvetica,sans-Serif" font-size="10.00">::Parameters::SetPercentageIgnore</text>
<text text-anchor="middle" x="254" y="-185.5" font-family="Helvetica,sans-Serif" font-size="10.00">Vehicles</text>
</a>
</g>
</g>
<!-- Node1&#45;&gt;Node29 -->
<g id="edge34" class="edge"><title>Node1&#45;&gt;Node29</title>
<path fill="none" stroke="midnightblue" d="M77.7593,-279.556C94.8901,-263.088 120.123,-241.354 146,-228 152.072,-224.867 158.517,-222.045 165.116,-219.508"/>
<polygon fill="midnightblue" stroke="midnightblue" points="75.1657,-277.197 70.4853,-286.702 80.0715,-282.191 75.1657,-277.197"/>
</g>
<!-- Node31 -->
<g id="node31" class="node"><title>Node31</title>
<g id="a_node31"><a xlink:href="../../d6/ddb/classcarla_1_1traffic__manager_1_1Parameters.html#ac57276ad6c8ff5e6031b20538e3635a6" target="_top" xlink:title="Method to set % to ignore any vehicle. ">
<polygon fill="white" stroke="black" points="161.5,-118.5 161.5,-159.5 346.5,-159.5 346.5,-118.5 161.5,-118.5"/>
<text text-anchor="start" x="169.5" y="-147.5" font-family="Helvetica,sans-Serif" font-size="10.00">carla::traffic_manager</text>
<text text-anchor="start" x="169.5" y="-136.5" font-family="Helvetica,sans-Serif" font-size="10.00">::Parameters::SetPercentageIgnore</text>
<text text-anchor="middle" x="254" y="-125.5" font-family="Helvetica,sans-Serif" font-size="10.00">Walkers</text>
</a>
</g>
</g>
<!-- Node1&#45;&gt;Node31 -->
<g id="edge36" class="edge"><title>Node1&#45;&gt;Node31</title>
<path fill="none" stroke="midnightblue" d="M66.2418,-277.287C79.9711,-247.208 107.191,-196.978 146,-169 150.93,-165.446 156.266,-162.313 161.835,-159.55"/>
<polygon fill="midnightblue" stroke="midnightblue" points="62.9433,-276.092 62.1056,-286.654 69.3469,-278.92 62.9433,-276.092"/>
</g>
<!-- Node33 -->
<g id="node33" class="node"><title>Node33</title>
<g id="a_node33"><a xlink:href="../../d6/ddb/classcarla_1_1traffic__manager_1_1Parameters.html#a9efdf2f11d719f067f10a7d75d993f86" target="_top" xlink:title="Method to set % to run any traffic light. ">
<polygon fill="white" stroke="black" points="146,-67 146,-97 362,-97 362,-67 146,-67"/>
<text text-anchor="start" x="154" y="-85" font-family="Helvetica,sans-Serif" font-size="10.00">carla::traffic_manager</text>
<text text-anchor="middle" x="254" y="-74" font-family="Helvetica,sans-Serif" font-size="10.00">::Parameters::SetPercentageRunningLight</text>
</a>
</g>
</g>
<!-- Node1&#45;&gt;Node33 -->
<g id="edge38" class="edge"><title>Node1&#45;&gt;Node33</title>
<path fill="none" stroke="midnightblue" d="M60.5133,-276.926C69.3178,-235.502 92.7881,-152.991 146,-109 151.759,-104.239 158.246,-100.302 165.107,-97.0488"/>
<polygon fill="midnightblue" stroke="midnightblue" points="57.0765,-276.264 58.5375,-286.757 63.9393,-277.643 57.0765,-276.264"/>
</g>
<!-- Node35 -->
<g id="node35" class="node"><title>Node35</title>
<g id="a_node35"><a xlink:href="../../d6/ddb/classcarla_1_1traffic__manager_1_1Parameters.html#a79df28590f02d816384a62c92ebb309a" target="_top" xlink:title="Method to set % to run any traffic sign. ">
<polygon fill="white" stroke="black" points="147,-13 147,-43 361,-43 361,-13 147,-13"/>
<text text-anchor="start" x="155" y="-31" font-family="Helvetica,sans-Serif" font-size="10.00">carla::traffic_manager</text>
<text text-anchor="middle" x="254" y="-20" font-family="Helvetica,sans-Serif" font-size="10.00">::Parameters::SetPercentageRunningSign</text>
</a>
</g>
</g>
<!-- Node1&#45;&gt;Node35 -->
<g id="edge40" class="edge"><title>Node1&#45;&gt;Node35</title>
<path fill="none" stroke="midnightblue" d="M57.8508,-276.534C62.8621,-226.81 81.0818,-116.48 146,-57 152.173,-51.3441 159.338,-46.773 166.979,-43.0814"/>
<polygon fill="midnightblue" stroke="midnightblue" points="54.3439,-276.452 56.9259,-286.727 61.3153,-277.085 54.3439,-276.452"/>
</g>
<!-- Node4 -->
<g id="node4" class="node"><title>Node4</title>
<g id="a_node4"><a xlink:href="../../d6/da2/classcarla_1_1traffic__manager_1_1LocalizationStage.html#a5d4109a46221cba4fe8d2f852f277205" target="_top" xlink:title="Implement this method with logic to process data inside the stage. ">
<polygon fill="white" stroke="black" points="408,-527 408,-557 551,-557 551,-527 408,-527"/>
<text text-anchor="start" x="416" y="-545" font-family="Helvetica,sans-Serif" font-size="10.00">carla::traffic_manager</text>
<text text-anchor="middle" x="479.5" y="-534" font-family="Helvetica,sans-Serif" font-size="10.00">::LocalizationStage::Action</text>
</a>
</g>
</g>
<!-- Node3&#45;&gt;Node4 -->
<g id="edge3" class="edge"><title>Node3&#45;&gt;Node4</title>
<path fill="none" stroke="midnightblue" d="M348.219,-519.266C368.101,-522.736 388.789,-526.346 407.668,-529.64"/>
<polygon fill="midnightblue" stroke="midnightblue" points="348.676,-515.793 338.223,-517.522 347.473,-522.689 348.676,-515.793"/>
</g>
<!-- Node6 -->
<g id="node6" class="node"><title>Node6</title>
<g id="a_node6"><a xlink:href="../../d2/da7/classcarla_1_1road_1_1element_1_1GeometryLine.html#a4d17bec72c0d68b56deafe0ba07ec352" target="_top" xlink:title="Returns a pair containing: ">
<polygon fill="white" stroke="black" points="405.5,-390 405.5,-420 553.5,-420 553.5,-390 405.5,-390"/>
<text text-anchor="start" x="413.5" y="-408" font-family="Helvetica,sans-Serif" font-size="10.00">carla::road::element</text>
<text text-anchor="middle" x="479.5" y="-397" font-family="Helvetica,sans-Serif" font-size="10.00">::GeometryLine::DistanceTo</text>
</a>
</g>
</g>
<!-- Node5&#45;&gt;Node6 -->
<g id="edge5" class="edge"><title>Node5&#45;&gt;Node6</title>
<path fill="none" stroke="midnightblue" d="M332.609,-433.721C356.168,-429.083 381.966,-424.004 405.229,-419.425"/>
<polygon fill="midnightblue" stroke="midnightblue" points="331.799,-430.313 322.664,-435.679 333.152,-437.182 331.799,-430.313"/>
</g>
<!-- Node7 -->
<g id="node7" class="node"><title>Node7</title>
<g id="a_node7"><a xlink:href="../../d0/d34/classcarla_1_1road_1_1Map.html#ae74d5c71d0ccdd83107894e5920f421e" target="_top" xlink:title="======================================================================== – Geometry &#45;&#45;&#45;&#45;&#45;&#45;&#45;&#45;&#45;&#45;&#45;&#45;&#45;&#45;&#45;&#45;...">
<polygon fill="white" stroke="black" points="601,-296 601,-326 753,-326 753,-296 601,-296"/>
<text text-anchor="start" x="609" y="-314" font-family="Helvetica,sans-Serif" font-size="10.00">carla::road::Map::GetClosest</text>
<text text-anchor="middle" x="677" y="-303" font-family="Helvetica,sans-Serif" font-size="10.00">WaypointOnRoad</text>
</a>
</g>
</g>
<!-- Node5&#45;&gt;Node7 -->
<g id="edge6" class="edge"><title>Node5&#45;&gt;Node7</title>
<path fill="none" stroke="midnightblue" d="M332.34,-437.391C342.753,-434.008 352.951,-429.639 362,-424 383.444,-410.636 376.592,-393.421 398,-380 461.113,-340.435 488.736,-359.069 561,-341 580.016,-336.245 600.756,-330.888 619.321,-326.03"/>
<polygon fill="midnightblue" stroke="midnightblue" points="331.338,-434.038 322.742,-440.23 333.324,-440.75 331.338,-434.038"/>
</g>
<!-- Node14 -->
<g id="node14" class="node"><title>Node14</title>
<g id="a_node14"><a xlink:href="../../d0/dea/classcarla_1_1geom_1_1Math.html#a71f0667271df699e511124559f61665e" target="_top" xlink:title="carla::geom::Math::\lDistance2D">
<polygon fill="white" stroke="black" points="424.5,-478 424.5,-508 534.5,-508 534.5,-478 424.5,-478"/>
<text text-anchor="start" x="432.5" y="-496" font-family="Helvetica,sans-Serif" font-size="10.00">carla::geom::Math::</text>
<text text-anchor="middle" x="479.5" y="-485" font-family="Helvetica,sans-Serif" font-size="10.00">Distance2D</text>
</a>
</g>
</g>
<!-- Node5&#45;&gt;Node14 -->
<g id="edge14" class="edge"><title>Node5&#45;&gt;Node14</title>
<path fill="none" stroke="midnightblue" d="M332.659,-457.826C365.357,-463.696 402.361,-471.254 430.913,-477.988"/>
<polygon fill="midnightblue" stroke="midnightblue" points="333.12,-454.353 322.664,-456.061 331.903,-461.247 333.12,-454.353"/>
</g>
<!-- Node23 -->
<g id="node23" class="node"><title>Node23</title>
<g id="a_node23"><a xlink:href="../../d6/dd9/test__geom_8cpp.html#a4c4e7eb15fe04d55f337f192a13c69e5" target="_top" xlink:title="TEST">
<polygon fill="white" stroke="black" points="459.5,-439.5 459.5,-458.5 499.5,-458.5 499.5,-439.5 459.5,-439.5"/>
<text text-anchor="middle" x="479.5" y="-446.5" font-family="Helvetica,sans-Serif" font-size="10.00">TEST</text>
</a>
</g>
</g>
<!-- Node5&#45;&gt;Node23 -->
<g id="edge28" class="edge"><title>Node5&#45;&gt;Node23</title>
<path fill="none" stroke="midnightblue" d="M332.752,-449C377.899,-449 431.229,-449 459.183,-449"/>
<polygon fill="midnightblue" stroke="midnightblue" points="332.664,-445.5 322.664,-449 332.664,-452.5 332.664,-445.5"/>
</g>
<!-- Node8 -->
<g id="node8" class="node"><title>Node8</title>
<g id="a_node8"><a xlink:href="../../d2/d60/classcarla_1_1road_1_1element_1_1LaneCrossingCalculator.html#a589511f573df9e9c46c55a7a46c02cd6" target="_top" xlink:title="carla::road::element\l::LaneCrossingCalculator\l::Calculate">
<polygon fill="white" stroke="black" points="975,-402.5 975,-443.5 1110,-443.5 1110,-402.5 975,-402.5"/>
<text text-anchor="start" x="983" y="-431.5" font-family="Helvetica,sans-Serif" font-size="10.00">carla::road::element</text>
<text text-anchor="start" x="983" y="-420.5" font-family="Helvetica,sans-Serif" font-size="10.00">::LaneCrossingCalculator</text>
<text text-anchor="middle" x="1042.5" y="-409.5" font-family="Helvetica,sans-Serif" font-size="10.00">::Calculate</text>
</a>
</g>
</g>
<!-- Node7&#45;&gt;Node8 -->
<g id="edge7" class="edge"><title>Node7&#45;&gt;Node8</title>
<path fill="none" stroke="midnightblue" d="M750.995,-294.286C805.261,-285.541 879.829,-281.476 939,-308 982.197,-327.363 1014.66,-374.926 1030.58,-402.437"/>
<polygon fill="midnightblue" stroke="midnightblue" points="750.379,-290.841 741.107,-295.967 751.552,-297.742 750.379,-290.841"/>
</g>
<!-- Node11 -->
<g id="node11" class="node"><title>Node11</title>
<g id="a_node11"><a xlink:href="../../d0/d34/classcarla_1_1road_1_1Map.html#a2686993f028a6febd29a17b32b43142d" target="_top" xlink:title="======================================================================== – Georeference &#45;&#45;&#45;&#45;&#45;&#45;&#45;&#45;&#45;&#45;&#45;&#45;...">
<polygon fill="white" stroke="black" points="1326,-359 1326,-389 1463,-389 1463,-359 1326,-359"/>
<text text-anchor="start" x="1334" y="-377" font-family="Helvetica,sans-Serif" font-size="10.00">carla::road::Map::GetGeo</text>
<text text-anchor="middle" x="1394.5" y="-366" font-family="Helvetica,sans-Serif" font-size="10.00">Reference</text>
</a>
</g>
</g>
<!-- Node7&#45;&gt;Node11 -->
<g id="edge13" class="edge"><title>Node7&#45;&gt;Node11</title>
<path fill="none" stroke="midnightblue" d="M740.297,-293.616C757.255,-289.643 775.715,-286.002 793,-284 1001.13,-259.895 1248.04,-327.466 1348.06,-358.893"/>
<polygon fill="midnightblue" stroke="midnightblue" points="739.404,-290.231 730.507,-295.984 741.05,-297.035 739.404,-290.231"/>
</g>
<!-- Node13 -->
<g id="node13" class="node"><title>Node13</title>
<g id="a_node13"><a xlink:href="../../dd/d49/classcarla_1_1client_1_1Map.html#a09398f35d22fe98cd49211a3c70c99f2" target="_top" xlink:title="carla::client::Map\l::GetWaypoint">
<polygon fill="white" stroke="black" points="817,-318 817,-348 915,-348 915,-318 817,-318"/>
<text text-anchor="start" x="825" y="-336" font-family="Helvetica,sans-Serif" font-size="10.00">carla::client::Map</text>
<text text-anchor="middle" x="866" y="-325" font-family="Helvetica,sans-Serif" font-size="10.00">::GetWaypoint</text>
</a>
</g>
</g>
<!-- Node7&#45;&gt;Node13 -->
<g id="edge12" class="edge"><title>Node7&#45;&gt;Node13</title>
<path fill="none" stroke="midnightblue" d="M763.369,-321.043C781.69,-323.199 800.431,-325.404 816.748,-327.323"/>
<polygon fill="midnightblue" stroke="midnightblue" points="763.592,-317.546 753.252,-319.853 762.774,-324.498 763.592,-317.546"/>
</g>
<!-- Node9 -->
<g id="node9" class="node"><title>Node9</title>
<g id="a_node9"><a xlink:href="../../d0/d34/classcarla_1_1road_1_1Map.html#a1e606282c0bc3814dbd7cbbb23075a50" target="_top" xlink:title="carla::road::Map::Calculate\lCrossedLanes">
<polygon fill="white" stroke="black" points="1146,-408 1146,-438 1290,-438 1290,-408 1146,-408"/>
<text text-anchor="start" x="1154" y="-426" font-family="Helvetica,sans-Serif" font-size="10.00">carla::road::Map::Calculate</text>
<text text-anchor="middle" x="1218" y="-415" font-family="Helvetica,sans-Serif" font-size="10.00">CrossedLanes</text>
</a>
</g>
</g>
<!-- Node8&#45;&gt;Node9 -->
<g id="edge8" class="edge"><title>Node8&#45;&gt;Node9</title>
<path fill="none" stroke="midnightblue" d="M1120.1,-423C1128.71,-423 1137.45,-423 1145.99,-423"/>
<polygon fill="midnightblue" stroke="midnightblue" points="1120.08,-419.5 1110.08,-423 1120.08,-426.5 1120.08,-419.5"/>
</g>
<!-- Node10 -->
<g id="node10" class="node"><title>Node10</title>
<g id="a_node10"><a xlink:href="../../dd/d49/classcarla_1_1client_1_1Map.html#ab38f325942fe41f8acce8e128404f0f4" target="_top" xlink:title="carla::client::Map\l::CalculateCrossedLanes">
<polygon fill="white" stroke="black" points="1327.5,-408 1327.5,-438 1461.5,-438 1461.5,-408 1327.5,-408"/>
<text text-anchor="start" x="1335.5" y="-426" font-family="Helvetica,sans-Serif" font-size="10.00">carla::client::Map</text>
<text text-anchor="middle" x="1394.5" y="-415" font-family="Helvetica,sans-Serif" font-size="10.00">::CalculateCrossedLanes</text>
</a>
</g>
</g>
<!-- Node9&#45;&gt;Node10 -->
<g id="edge9" class="edge"><title>Node9&#45;&gt;Node10</title>
<path fill="none" stroke="midnightblue" d="M1300.35,-423C1309.37,-423 1318.48,-423 1327.28,-423"/>
<polygon fill="midnightblue" stroke="midnightblue" points="1300.23,-419.5 1290.23,-423 1300.23,-426.5 1300.23,-419.5"/>
</g>
<!-- Node9&#45;&gt;Node11 -->
<g id="edge10" class="edge"><title>Node9&#45;&gt;Node11</title>
<path fill="none" stroke="midnightblue" d="M1282.47,-405.179C1301.31,-399.888 1321.75,-394.148 1339.9,-389.052"/>
<polygon fill="midnightblue" stroke="midnightblue" points="1281.46,-401.825 1272.78,-407.899 1283.35,-408.565 1281.46,-401.825"/>
</g>
<!-- Node12 -->
<g id="node12" class="node"><title>Node12</title>
<g id="a_node12"><a xlink:href="../../dd/d49/classcarla_1_1client_1_1Map.html#abf307dc940aefa23689a7046197603ed" target="_top" xlink:title="carla::client::Map\l::GetGeoReference">
<polygon fill="white" stroke="black" points="1499,-359 1499,-389 1606,-389 1606,-359 1499,-359"/>
<text text-anchor="start" x="1507" y="-377" font-family="Helvetica,sans-Serif" font-size="10.00">carla::client::Map</text>
<text text-anchor="middle" x="1552.5" y="-366" font-family="Helvetica,sans-Serif" font-size="10.00">::GetGeoReference</text>
</a>
</g>
</g>
<!-- Node11&#45;&gt;Node12 -->
<g id="edge11" class="edge"><title>Node11&#45;&gt;Node12</title>
<path fill="none" stroke="midnightblue" d="M1473.21,-374C1481.93,-374 1490.64,-374 1498.93,-374"/>
<polygon fill="midnightblue" stroke="midnightblue" points="1473.02,-370.5 1463.02,-374 1473.02,-377.5 1473.02,-370.5"/>
</g>
<!-- Node14&#45;&gt;Node5 -->
<g id="edge23" class="edge"><title>Node14&#45;&gt;Node5</title>
<path fill="none" stroke="midnightblue" d="M413.951,-486.476C378.428,-480.387 335.11,-471.68 302.672,-464.032"/>
<polygon fill="midnightblue" stroke="midnightblue" points="413.783,-489.997 424.224,-488.199 414.941,-483.093 413.783,-489.997"/>
</g>
<!-- Node15 -->
<g id="node15" class="node"><title>Node15</title>
<g id="a_node15"><a xlink:href="../../d0/d34/classcarla_1_1road_1_1Map.html#a0cf8228efb07f292210daffc7da2e6ed" target="_top" xlink:title="carla::road::Map::GetWaypoint">
<polygon fill="white" stroke="black" points="597,-435.5 597,-454.5 757,-454.5 757,-435.5 597,-435.5"/>
<text text-anchor="middle" x="677" y="-442.5" font-family="Helvetica,sans-Serif" font-size="10.00">carla::road::Map::GetWaypoint</text>
</a>
</g>
</g>
<!-- Node14&#45;&gt;Node15 -->
<g id="edge15" class="edge"><title>Node14&#45;&gt;Node15</title>
<path fill="none" stroke="midnightblue" d="M544.446,-477.3C575.072,-469.78 610.748,-461.021 637.215,-454.523"/>
<polygon fill="midnightblue" stroke="midnightblue" points="543.575,-473.91 534.698,-479.693 545.244,-480.708 543.575,-473.91"/>
</g>
<!-- Node20 -->
<g id="node20" class="node"><title>Node20</title>
<g id="a_node20"><a xlink:href="../../d0/dea/classcarla_1_1geom_1_1Math.html#afe602ce38a646f5a2223fa01b80dda74" target="_top" xlink:title="Returns a pair containing: ">
<polygon fill="white" stroke="black" points="622,-525 622,-555 732,-555 732,-525 622,-525"/>
<text text-anchor="start" x="630" y="-543" font-family="Helvetica,sans-Serif" font-size="10.00">carla::geom::Math::</text>
<text text-anchor="middle" x="677" y="-532" font-family="Helvetica,sans-Serif" font-size="10.00">DistanceArcToPoint</text>
</a>
</g>
</g>
<!-- Node14&#45;&gt;Node20 -->
<g id="edge24" class="edge"><title>Node14&#45;&gt;Node20</title>
<path fill="none" stroke="midnightblue" d="M544.772,-502.067C575.09,-508.669 610.293,-517.414 636.602,-524.988"/>
<polygon fill="midnightblue" stroke="midnightblue" points="545.209,-498.581 534.698,-499.914 543.746,-505.426 545.209,-498.581"/>
</g>
<!-- Node15&#45;&gt;Node11 -->
<g id="edge20" class="edge"><title>Node15&#45;&gt;Node11</title>
<path fill="none" stroke="midnightblue" d="M703.859,-430.724C726.584,-418.985 760.938,-403.16 793,-396 982.377,-353.71 1213.57,-361.259 1325.84,-368.549"/>
<polygon fill="midnightblue" stroke="midnightblue" points="702.081,-427.705 694.872,-435.468 705.349,-433.895 702.081,-427.705"/>
</g>
<!-- Node15&#45;&gt;Node13 -->
<g id="edge18" class="edge"><title>Node15&#45;&gt;Node13</title>
<path fill="none" stroke="midnightblue" d="M697.466,-429.041C719.641,-411.368 757.424,-382.765 793,-363 802.825,-357.541 813.848,-352.469 824.259,-348.106"/>
<polygon fill="midnightblue" stroke="midnightblue" points="695.094,-426.457 689.502,-435.456 699.485,-431.909 695.094,-426.457"/>
</g>
<!-- Node16 -->
<g id="node16" class="node"><title>Node16</title>
<g id="a_node16"><a xlink:href="../../df/dc1/namespacecarla_1_1road_1_1element.html#ad4397b3938f0a721ad5208f14912b744" target="_top" xlink:title="carla::road::element\l::IsOffRoad">
<polygon fill="white" stroke="black" points="809.5,-406 809.5,-436 922.5,-436 922.5,-406 809.5,-406"/>
<text text-anchor="start" x="817.5" y="-424" font-family="Helvetica,sans-Serif" font-size="10.00">carla::road::element</text>
<text text-anchor="middle" x="866" y="-413" font-family="Helvetica,sans-Serif" font-size="10.00">::IsOffRoad</text>
</a>
</g>
</g>
<!-- Node15&#45;&gt;Node16 -->
<g id="edge16" class="edge"><title>Node15&#45;&gt;Node16</title>
<path fill="none" stroke="midnightblue" d="M762.544,-434.149C778.428,-432.111 794.66,-430.028 809.383,-428.138"/>
<polygon fill="midnightblue" stroke="midnightblue" points="761.649,-430.736 752.176,-435.48 762.54,-437.679 761.649,-430.736"/>
</g>
<!-- Node17 -->
<g id="node17" class="node"><title>Node17</title>
<g id="a_node17"><a xlink:href="../../dd/d49/classcarla_1_1client_1_1Map.html#a1797b448de9ed68a13434f3f5ad7af56" target="_top" xlink:title="carla::client::Map\l::GetWaypointXODR">
<polygon fill="white" stroke="black" points="811.5,-504 811.5,-534 920.5,-534 920.5,-504 811.5,-504"/>
<text text-anchor="start" x="819.5" y="-522" font-family="Helvetica,sans-Serif" font-size="10.00">carla::client::Map</text>
<text text-anchor="middle" x="866" y="-511" font-family="Helvetica,sans-Serif" font-size="10.00">::GetWaypointXODR</text>
</a>
</g>
</g>
<!-- Node15&#45;&gt;Node17 -->
<g id="edge19" class="edge"><title>Node15&#45;&gt;Node17</title>
<path fill="none" stroke="midnightblue" d="M708.698,-458.759C731.729,-468.915 764.125,-482.851 793,-494 801.641,-497.336 810.939,-500.717 819.89,-503.869"/>
<polygon fill="midnightblue" stroke="midnightblue" points="709.999,-455.507 699.439,-454.657 707.164,-461.907 709.999,-455.507"/>
</g>
<!-- Node18 -->
<g id="node18" class="node"><title>Node18</title>
<g id="a_node18"><a xlink:href="../../dc/d07/classcarla_1_1rss_1_1RssCheck.html#aff1e8790fbe6df81d866570706defcad" target="_top" xlink:title="carla::rss::RssCheck\l::calculateOccupiedRegions">
<polygon fill="white" stroke="black" points="793,-455 793,-485 939,-485 939,-455 793,-455"/>
<text text-anchor="start" x="801" y="-473" font-family="Helvetica,sans-Serif" font-size="10.00">carla::rss::RssCheck</text>
<text text-anchor="middle" x="866" y="-462" font-family="Helvetica,sans-Serif" font-size="10.00">::calculateOccupiedRegions</text>
</a>
</g>
</g>
<!-- Node15&#45;&gt;Node18 -->
<g id="edge21" class="edge"><title>Node15&#45;&gt;Node18</title>
<path fill="none" stroke="midnightblue" d="M759.347,-455.875C770.455,-457.36 781.796,-458.876 792.728,-460.338"/>
<polygon fill="midnightblue" stroke="midnightblue" points="759.606,-452.379 749.23,-454.523 758.678,-459.317 759.606,-452.379"/>
</g>
<!-- Node16&#45;&gt;Node8 -->
<g id="edge17" class="edge"><title>Node16&#45;&gt;Node8</title>
<path fill="none" stroke="midnightblue" d="M932.975,-421.756C946.642,-421.913 961.051,-422.078 974.745,-422.235"/>
<polygon fill="midnightblue" stroke="midnightblue" points="932.732,-418.253 922.693,-421.638 932.652,-425.253 932.732,-418.253"/>
</g>
<!-- Node19 -->
<g id="node19" class="node"><title>Node19</title>
<g id="a_node19"><a xlink:href="../../dc/d07/classcarla_1_1rss_1_1RssCheck.html#af0dcc48e400d434f51275bf1797be2e0" target="_top" xlink:title="carla::rss::RssCheck\l::checkObjects">
<polygon fill="white" stroke="black" points="986.5,-462 986.5,-492 1098.5,-492 1098.5,-462 986.5,-462"/>
<text text-anchor="start" x="994.5" y="-480" font-family="Helvetica,sans-Serif" font-size="10.00">carla::rss::RssCheck</text>
<text text-anchor="middle" x="1042.5" y="-469" font-family="Helvetica,sans-Serif" font-size="10.00">::checkObjects</text>
</a>
</g>
</g>
<!-- Node18&#45;&gt;Node19 -->
<g id="edge22" class="edge"><title>Node18&#45;&gt;Node19</title>
<path fill="none" stroke="midnightblue" d="M949.273,-473.3C961.852,-473.805 974.568,-474.315 986.373,-474.789"/>
<polygon fill="midnightblue" stroke="midnightblue" points="949.368,-469.801 939.235,-472.898 949.087,-476.796 949.368,-469.801"/>
</g>
<!-- Node20&#45;&gt;Node14 -->
<g id="edge26" class="edge"><title>Node20&#45;&gt;Node14</title>
<path fill="none" stroke="midnightblue" d="M611.633,-530.913C581.4,-524.327 546.326,-515.615 520.062,-508.06"/>
<polygon fill="midnightblue" stroke="midnightblue" points="611.17,-534.393 621.68,-533.06 612.633,-527.547 611.17,-534.393"/>
</g>
<!-- Node21 -->
<g id="node21" class="node"><title>Node21</title>
<g id="a_node21"><a xlink:href="../../d2/d63/classcarla_1_1road_1_1element_1_1GeometryArc.html#a8f94cf3a826d3c7df25c5a25ade8a396" target="_top" xlink:title="Returns a pair containing: ">
<polygon fill="white" stroke="black" points="794,-553 794,-583 938,-583 938,-553 794,-553"/>
<text text-anchor="start" x="802" y="-571" font-family="Helvetica,sans-Serif" font-size="10.00">carla::road::element</text>
<text text-anchor="middle" x="866" y="-560" font-family="Helvetica,sans-Serif" font-size="10.00">::GeometryArc::DistanceTo</text>
</a>
</g>
</g>
<!-- Node20&#45;&gt;Node21 -->
<g id="edge25" class="edge"><title>Node20&#45;&gt;Node21</title>
<path fill="none" stroke="midnightblue" d="M742.266,-549.623C758.932,-552.118 776.976,-554.82 793.968,-557.364"/>
<polygon fill="midnightblue" stroke="midnightblue" points="742.496,-546.118 732.088,-548.099 741.46,-553.041 742.496,-546.118"/>
</g>
<!-- Node22 -->
<g id="node22" class="node"><title>Node22</title>
<g id="a_node22"><a xlink:href="../../d6/dd9/test__geom_8cpp.html#a28ca4536866c48d0fd9578ec931a14da" target="_top" xlink:title="TEST">
<polygon fill="white" stroke="black" points="846,-602.5 846,-621.5 886,-621.5 886,-602.5 846,-602.5"/>
<text text-anchor="middle" x="866" y="-609.5" font-family="Helvetica,sans-Serif" font-size="10.00">TEST</text>
</a>
</g>
</g>
<!-- Node20&#45;&gt;Node22 -->
<g id="edge27" class="edge"><title>Node20&#45;&gt;Node22</title>
<path fill="none" stroke="midnightblue" d="M716.224,-559.651C738.274,-570.468 766.751,-583.569 793,-593 810.52,-599.295 831.111,-604.52 845.775,-607.887"/>
<polygon fill="midnightblue" stroke="midnightblue" points="717.707,-556.48 707.193,-555.173 714.597,-562.751 717.707,-556.48"/>
</g>
<!-- Node25 -->
<g id="node25" class="node"><title>Node25</title>
<g id="a_node25"><a xlink:href="../../dd/de6/classcarla_1_1road_1_1Road.html#a3f0dad30c9a6f16df5f29d8fac7c22aa" target="_top" xlink:title="Returns a pointer to the nearest lane, given s relative to Road and a location. ">
<polygon fill="white" stroke="black" points="428,-302 428,-332 531,-332 531,-302 428,-302"/>
<text text-anchor="start" x="436" y="-320" font-family="Helvetica,sans-Serif" font-size="10.00">carla::road::Road::</text>
<text text-anchor="middle" x="479.5" y="-309" font-family="Helvetica,sans-Serif" font-size="10.00">GetNearestLane</text>
</a>
</g>
</g>
<!-- Node24&#45;&gt;Node25 -->
<g id="edge30" class="edge"><title>Node24&#45;&gt;Node25</title>
<path fill="none" stroke="midnightblue" d="M317.864,-390.068C332.759,-386.434 348.291,-381.542 362,-375 380.293,-366.269 380.299,-356.876 398,-347 408.159,-341.332 419.601,-336.333 430.6,-332.121"/>
<polygon fill="midnightblue" stroke="midnightblue" points="316.656,-386.753 307.683,-392.388 318.211,-393.578 316.656,-386.753"/>
</g>
<!-- Node30 -->
<g id="node30" class="node"><title>Node30</title>
<g id="a_node30"><a xlink:href="../../da/d0f/classcarla_1_1traffic__manager_1_1TrafficManagerLocal.html#a364d079752b5c6bb8ca06f857912353e" target="_top" xlink:title="Method to specify the % chance of ignoring collisions with any vehicle. ">
<polygon fill="white" stroke="black" points="398,-180.5 398,-221.5 561,-221.5 561,-180.5 398,-180.5"/>
<text text-anchor="start" x="406" y="-209.5" font-family="Helvetica,sans-Serif" font-size="10.00">carla::traffic_manager</text>
<text text-anchor="start" x="406" y="-198.5" font-family="Helvetica,sans-Serif" font-size="10.00">::TrafficManagerLocal</text>
<text text-anchor="middle" x="479.5" y="-187.5" font-family="Helvetica,sans-Serif" font-size="10.00">::SetPercentageIgnoreVehicles</text>
</a>
</g>
</g>
<!-- Node29&#45;&gt;Node30 -->
<g id="edge35" class="edge"><title>Node29&#45;&gt;Node30</title>
<path fill="none" stroke="midnightblue" d="M356.572,-199.909C370.402,-200.033 384.442,-200.158 397.835,-200.278"/>
<polygon fill="midnightblue" stroke="midnightblue" points="356.582,-196.409 346.551,-199.819 356.519,-203.409 356.582,-196.409"/>
</g>
<!-- Node32 -->
<g id="node32" class="node"><title>Node32</title>
<g id="a_node32"><a xlink:href="../../da/d0f/classcarla_1_1traffic__manager_1_1TrafficManagerLocal.html#aca64bbe8a40f08dcaa3b3afd2b9fe968" target="_top" xlink:title="Method to specify the % chance of ignoring collisions with any walker. ">
<polygon fill="white" stroke="black" points="399.5,-120.5 399.5,-161.5 559.5,-161.5 559.5,-120.5 399.5,-120.5"/>
<text text-anchor="start" x="407.5" y="-149.5" font-family="Helvetica,sans-Serif" font-size="10.00">carla::traffic_manager</text>
<text text-anchor="start" x="407.5" y="-138.5" font-family="Helvetica,sans-Serif" font-size="10.00">::TrafficManagerLocal</text>
<text text-anchor="middle" x="479.5" y="-127.5" font-family="Helvetica,sans-Serif" font-size="10.00">::SetPercentageIgnoreWalkers</text>
</a>
</g>
</g>
<!-- Node31&#45;&gt;Node32 -->
<g id="edge37" class="edge"><title>Node31&#45;&gt;Node32</title>
<path fill="none" stroke="midnightblue" d="M356.858,-139.911C371.083,-140.039 385.524,-140.168 399.249,-140.291"/>
<polygon fill="midnightblue" stroke="midnightblue" points="356.582,-136.409 346.551,-139.819 356.519,-143.409 356.582,-136.409"/>
</g>
<!-- Node34 -->
<g id="node34" class="node"><title>Node34</title>
<g id="a_node34"><a xlink:href="../../da/d0f/classcarla_1_1traffic__manager_1_1TrafficManagerLocal.html#a7666a083f62d49f3cba16b104b290026" target="_top" xlink:title="Method to specify the % chance of running any traffic light. ">
<polygon fill="white" stroke="black" points="402,-60.5 402,-101.5 557,-101.5 557,-60.5 402,-60.5"/>
<text text-anchor="start" x="410" y="-89.5" font-family="Helvetica,sans-Serif" font-size="10.00">carla::traffic_manager</text>
<text text-anchor="start" x="410" y="-78.5" font-family="Helvetica,sans-Serif" font-size="10.00">::TrafficManagerLocal</text>
<text text-anchor="middle" x="479.5" y="-67.5" font-family="Helvetica,sans-Serif" font-size="10.00">::SetPercentageRunningLight</text>
</a>
</g>
</g>
<!-- Node33&#45;&gt;Node34 -->
<g id="edge39" class="edge"><title>Node33&#45;&gt;Node34</title>
<path fill="none" stroke="midnightblue" d="M372.255,-81.4754C382.334,-81.4303 392.354,-81.3854 401.985,-81.3424"/>
<polygon fill="midnightblue" stroke="midnightblue" points="372.152,-77.9757 362.168,-81.5205 372.183,-84.9756 372.152,-77.9757"/>
</g>
<!-- Node36 -->
<g id="node36" class="node"><title>Node36</title>
<g id="a_node36"><a xlink:href="../../da/d0f/classcarla_1_1traffic__manager_1_1TrafficManagerLocal.html#a79042b07116bf64fb1369326a48ac072" target="_top" xlink:title="Method to specify the % chance of running any traffic sign. ">
<polygon fill="white" stroke="black" points="403.5,-0.5 403.5,-41.5 555.5,-41.5 555.5,-0.5 403.5,-0.5"/>
<text text-anchor="start" x="411.5" y="-29.5" font-family="Helvetica,sans-Serif" font-size="10.00">carla::traffic_manager</text>
<text text-anchor="start" x="411.5" y="-18.5" font-family="Helvetica,sans-Serif" font-size="10.00">::TrafficManagerLocal</text>
<text text-anchor="middle" x="479.5" y="-7.5" font-family="Helvetica,sans-Serif" font-size="10.00">::SetPercentageRunningSign</text>
</a>
</g>
</g>
<!-- Node35&#45;&gt;Node36 -->
<g id="edge41" class="edge"><title>Node35&#45;&gt;Node36</title>
<path fill="none" stroke="midnightblue" d="M371.505,-24.3511C382.263,-24.0141 392.962,-23.6791 403.202,-23.3583"/>
<polygon fill="midnightblue" stroke="midnightblue" points="371.072,-20.8628 361.186,-24.6743 371.291,-27.8594 371.072,-20.8628"/>
</g>
</g>
</svg>
        <g id="navigator" transform="translate(0 0)" fill="#404254">
                <rect fill="#f2f5e9" fill-opacity="0.5" stroke="#606060" stroke-width=".5" x="0" y="0" width="60" height="60"/>
                <use id="zoomplus" xlink:href="#zoomPlus" x="17" y="9" onmousedown="handleZoom(evt,'in')"/>
                <use id="zoomminus" xlink:href="#zoomMin" x="42" y="9" onmousedown="handleZoom(evt,'out')"/>
                <use id="reset" xlink:href="#resetDef" x="30" y="36" onmousedown="handleReset()"/>
                <g id="arrowUp" xlink:href="#dirArrow" transform="translate(30 24)" onmousedown="handlePan(0,-1)">
                  <use xlink:href="#rim" fill="#404040">
                        <set attributeName="fill" to="#808080" begin="arrowUp.mouseover" end="arrowUp.mouseout"/>
                  </use>
                  <path fill="none" stroke="white" stroke-width="1.5" d="M0,-3.0v7 M-2.5,-0.5L0,-3.0L2.5,-0.5"/>
                </g>
                <g id="arrowRight" xlink:href="#dirArrow" transform="rotate(90) translate(36 -43)" onmousedown="handlePan(1,0)">
                  <use xlink:href="#rim" fill="#404040">
                        <set attributeName="fill" to="#808080" begin="arrowRight.mouseover" end="arrowRight.mouseout"/>
                  </use>
                  <path fill="none" stroke="white" stroke-width="1.5" d="M0,-3.0v7 M-2.5,-0.5L0,-3.0L2.5,-0.5"/>
                </g>
                <g id="arrowDown" xlink:href="#dirArrow" transform="rotate(180) translate(-30 -48)" onmousedown="handlePan(0,1)">
                  <use xlink:href="#rim" fill="#404040">
                        <set attributeName="fill" to="#808080" begin="arrowDown.mouseover" end="arrowDown.mouseout"/>
                  </use>
                  <path fill="none" stroke="white" stroke-width="1.5" d="M0,-3.0v7 M-2.5,-0.5L0,-3.0L2.5,-0.5"/>
                </g>
                <g id="arrowLeft" xlink:href="#dirArrow" transform="rotate(270) translate(-36 17)" onmousedown="handlePan(-1,0)">
                  <use xlink:href="#rim" fill="#404040">
                        <set attributeName="fill" to="#808080" begin="arrowLeft.mouseover" end="arrowLeft.mouseout"/>
                  </use>
                  <path fill="none" stroke="white" stroke-width="1.5" d="M0,-3.0v7 M-2.5,-0.5L0,-3.0L2.5,-0.5"/>
                </g>
        </g>
        <svg viewBox="0 0 15 15" width="100%" height="30px" preserveAspectRatio="xMaxYMin meet">
         <g id="arrow_out" transform="scale(0.3 0.3)">
          <a xlink:href="classcarla_1_1geom_1_1Math_a8f8eccc1a2bcc711250f2b47a21eb31f_icgraph_org.svg" target="_base">
           <rect id="button" ry="5" rx="5" y="6" x="6" height="38" width="38"
                fill="#f2f5e9" fill-opacity="0.5" stroke="#606060" stroke-width="1.0"/>
           <path id="arrow"
             d="M 11.500037,31.436501 C 11.940474,20.09759 22.043105,11.32322 32.158766,21.979434 L 37.068811,17.246167 C 37.068811,17.246167 37.088388,32 37.088388,32 L 22.160133,31.978069 C 22.160133,31.978069 26.997745,27.140456 26.997745,27.140456 C 18.528582,18.264221 13.291696,25.230495 11.500037,31.436501 z"
             style="fill:#404040;"/>
          </a>
         </g>
        </svg>
</svg>
