<?xml version="1.0" encoding="UTF-8" standalone="no"?>
<!DOCTYPE svg PUBLIC "-//W3C//DTD SVG 1.1//EN"
 "http://www.w3.org/Graphics/SVG/1.1/DTD/svg11.dtd">
<!-- Generated by graphviz version 2.38.0 (20140413.2041)
 -->
<!-- Title: moodycamel::ConcurrentQueue&lt; T, Traits &gt;::ProducerBase Pages: 1 -->
<!--zoomable 858 -->
<svg id="main" version="1.1" xmlns="http://www.w3.org/2000/svg" xmlns:xlink="http://www.w3.org/1999/xlink" xml:space="preserve" onload="init(evt)">
<style type="text/css"><![CDATA[
.edge:hover path { stroke: red; }
.edge:hover polygon { stroke: red; fill: red; }
]]></style>
<script type="text/javascript"><![CDATA[
var edges = document.getElementsByTagName('g');
if (edges && edges.length) {
  for (var i=0;i<edges.length;i++) {
    if (edges[i].id.substr(0,4)=='edge') {
      edges[i].setAttribute('class','edge');
    }
  }
}
]]></script>
        <defs>
                <circle id="rim" cx="0" cy="0" r="7"/>
                <circle id="rim2" cx="0" cy="0" r="3.5"/>
                <g id="zoomPlus">
                        <use xlink:href="#rim" fill="#404040">
                                <set attributeName="fill" to="#808080" begin="zoomplus.mouseover" end="zoomplus.mouseout"/>
                        </use>
                        <path d="M-4,0h8M0,-4v8" fill="none" stroke="white" stroke-width="1.5" pointer-events="none"/>
                </g>
                <g id="zoomMin">
                        <use xlink:href="#rim" fill="#404040">
                                <set attributeName="fill" to="#808080" begin="zoomminus.mouseover" end="zoomminus.mouseout"/>
                        </use>
                        <path d="M-4,0h8" fill="none" stroke="white" stroke-width="1.5" pointer-events="none"/>
                </g>
                <g id="dirArrow">
                        <path fill="none" stroke="white" stroke-width="1.5" d="M0,-3.0v7 M-2.5,-0.5L0,-3.0L2.5,-0.5"/>
                </g>
               <g id="resetDef">
                       <use xlink:href="#rim2" fill="#404040">
                               <set attributeName="fill" to="#808080" begin="reset.mouseover" end="reset.mouseout"/>
                       </use>
               </g>
        </defs>

<script type="text/javascript">
var viewWidth = 2348;
var viewHeight = 858;
var sectionId = 'dynsection-1';
</script>
<script xlink:href="../../svgpan.js"/>
<svg id="graph" class="graph">
<g id="viewport">
<title>moodycamel::ConcurrentQueue&lt; T, Traits &gt;::ProducerBase</title>
<polygon fill="white" stroke="none" points="-4,4 -4,-853.89 2344,-853.89 2344,4 -4,4"/>
<!-- Node1 -->
<g id="node1" class="node"><title>Node1</title>
<polygon fill="#bfbfbf" stroke="black" points="778.5,-571.89 778.5,-601.89 933.5,-601.89 933.5,-571.89 778.5,-571.89"/>
<text text-anchor="start" x="786.5" y="-589.89" font-family="Helvetica,sans-Serif" font-size="10.00">moodycamel::ConcurrentQueue</text>
<text text-anchor="middle" x="856" y="-578.89" font-family="Helvetica,sans-Serif" font-size="10.00">&lt; T, Traits &gt;::ProducerBase</text>
</g>
<!-- Node28 -->
<g id="node28" class="node"><title>Node28</title>
<g id="a_node28"><a xlink:href="../../d4/d1f/structmoodycamel_1_1ConcurrentQueue_1_1ImplicitProducer.html" target="_top" xlink:title="moodycamel::ConcurrentQueue\l\&lt; T, Traits \&gt;::ImplicitProducer">
<polygon fill="white" stroke="black" points="1086,-336.89 1086,-366.89 1241,-366.89 1241,-336.89 1086,-336.89"/>
<text text-anchor="start" x="1094" y="-354.89" font-family="Helvetica,sans-Serif" font-size="10.00">moodycamel::ConcurrentQueue</text>
<text text-anchor="middle" x="1163.5" y="-343.89" font-family="Helvetica,sans-Serif" font-size="10.00">&lt; T, Traits &gt;::ImplicitProducer</text>
</a>
</g>
</g>
<!-- Node1&#45;&gt;Node28 -->
<g id="edge37" class="edge"><title>Node1&#45;&gt;Node28</title>
<path fill="none" stroke="midnightblue" d="M862.218,-561.799C872.201,-520.4 898.081,-438.165 953,-395.89 958.476,-391.675 1028.32,-377.503 1085.88,-366.368"/>
<polygon fill="midnightblue" stroke="midnightblue" points="858.788,-561.1 859.964,-571.629 865.611,-562.665 858.788,-561.1"/>
</g>
<!-- Node2 -->
<g id="node2" class="node"><title>Node2</title>
<g id="a_node2"><a xlink:href="../../d2/ddf/structmoodycamel_1_1details_1_1ConcurrentQueueProducerTypelessBase.html" target="_top" xlink:title="moodycamel::details\l::ConcurrentQueueProducerTypelessBase">
<polygon fill="white" stroke="black" points="433,-783.89 433,-813.89 633,-813.89 633,-783.89 433,-783.89"/>
<text text-anchor="start" x="441" y="-801.89" font-family="Helvetica,sans-Serif" font-size="10.00">moodycamel::details</text>
<text text-anchor="middle" x="533" y="-790.89" font-family="Helvetica,sans-Serif" font-size="10.00">::ConcurrentQueueProducerTypelessBase</text>
</a>
</g>
</g>
<!-- Node2&#45;&gt;Node1 -->
<g id="edge1" class="edge"><title>Node2&#45;&gt;Node1</title>
<path fill="none" stroke="midnightblue" d="M565.357,-778.181C629.758,-735.648 775.608,-639.323 832.073,-602.032"/>
<polygon fill="midnightblue" stroke="midnightblue" points="563.244,-775.382 556.828,-783.814 567.101,-781.223 563.244,-775.382"/>
</g>
<!-- Node2&#45;&gt;Node2 -->
<g id="edge2" class="edge"><title>Node2&#45;&gt;Node2</title>
<path fill="none" stroke="#9a32cd" stroke-dasharray="5,2" d="M502.438,-824.348C506.231,-829.069 516.418,-832.39 533,-832.39 560.211,-832.39 570.202,-823.447 562.975,-814.049"/>
<polygon fill="#9a32cd" stroke="#9a32cd" points="505.95,-824.232 503.025,-814.049 498.961,-823.833 505.95,-824.232"/>
<text text-anchor="middle" x="533" y="-835.39" font-family="Helvetica,sans-Serif" font-size="10.00"> next</text>
</g>
<!-- Node4 -->
<g id="node4" class="node"><title>Node4</title>
<g id="a_node4"><a xlink:href="../../d1/dbb/structmoodycamel_1_1ProducerToken.html" target="_top" xlink:title="moodycamel::ProducerToken">
<polygon fill="white" stroke="black" points="784,-786.39 784,-805.39 928,-805.39 928,-786.39 784,-786.39"/>
<text text-anchor="middle" x="856" y="-793.39" font-family="Helvetica,sans-Serif" font-size="10.00">moodycamel::ProducerToken</text>
</a>
</g>
</g>
<!-- Node2&#45;&gt;Node4 -->
<g id="edge5" class="edge"><title>Node2&#45;&gt;Node4</title>
<path fill="none" stroke="#9a32cd" stroke-dasharray="5,2" d="M632.064,-782.686C638.46,-781.975 644.814,-781.363 651,-780.89 698.86,-777.23 711.144,-777.174 759,-780.89 773.464,-782.013 789.044,-784.075 803.357,-786.317"/>
<polygon fill="#9a32cd" stroke="#9a32cd" points="631.514,-779.227 621.996,-783.88 632.338,-786.178 631.514,-779.227"/>
<text text-anchor="middle" x="705" y="-783.89" font-family="Helvetica,sans-Serif" font-size="10.00"> producer</text>
</g>
<!-- Node3 -->
<g id="node3" class="node"><title>Node3</title>
<polygon fill="white" stroke="#bfbfbf" points="146,-824.39 146,-843.39 228,-843.39 228,-824.39 146,-824.39"/>
<text text-anchor="middle" x="187" y="-831.39" font-family="Helvetica,sans-Serif" font-size="10.00">atomic&lt; bool &gt;</text>
</g>
<!-- Node3&#45;&gt;Node2 -->
<g id="edge3" class="edge"><title>Node3&#45;&gt;Node2</title>
<path fill="none" stroke="#9a32cd" stroke-dasharray="5,2" d="M238.075,-837.638C284.268,-840.159 354.624,-841.621 415,-832.89 440.645,-829.182 468.538,-821.237 490.654,-813.96"/>
<polygon fill="#9a32cd" stroke="#9a32cd" points="238.21,-834.14 228.023,-837.052 237.802,-841.129 238.21,-834.14"/>
<text text-anchor="middle" x="346.5" y="-841.89" font-family="Helvetica,sans-Serif" font-size="10.00"> inactive</text>
</g>
<!-- Node5 -->
<g id="node5" class="node"><title>Node5</title>
<g id="a_node5"><a xlink:href="../../dc/dde/structmoodycamel_1_1ConcurrentQueue_1_1Block.html" target="_top" xlink:title="moodycamel::ConcurrentQueue\l\&lt; T, Traits \&gt;::Block">
<polygon fill="white" stroke="black" points="455.5,-643.89 455.5,-673.89 610.5,-673.89 610.5,-643.89 455.5,-643.89"/>
<text text-anchor="start" x="463.5" y="-661.89" font-family="Helvetica,sans-Serif" font-size="10.00">moodycamel::ConcurrentQueue</text>
<text text-anchor="middle" x="533" y="-650.89" font-family="Helvetica,sans-Serif" font-size="10.00">&lt; T, Traits &gt;::Block</text>
</a>
</g>
</g>
<!-- Node3&#45;&gt;Node5 -->
<g id="edge13" class="edge"><title>Node3&#45;&gt;Node5</title>
<path fill="none" stroke="#9a32cd" stroke-dasharray="5,2" d="M227.676,-821.214C243.281,-816.432 261.404,-811.128 278,-806.89 338.303,-791.49 360.418,-807.796 415,-777.89 462.769,-751.717 503.476,-699.808 521.731,-674.078"/>
<polygon fill="#9a32cd" stroke="#9a32cd" points="226.343,-817.963 217.826,-824.265 228.414,-824.65 226.343,-817.963"/>
<text text-anchor="middle" x="346.5" y="-820.89" font-family="Helvetica,sans-Serif" font-size="10.00"> shouldBeOnFreeList</text>
<text text-anchor="middle" x="346.5" y="-809.89" font-family="Helvetica,sans-Serif" font-size="10.00">emptyFlags</text>
</g>
<!-- Node4&#45;&gt;Node2 -->
<g id="edge4" class="edge"><title>Node4&#45;&gt;Node2</title>
<path fill="none" stroke="#9a32cd" stroke-dasharray="5,2" d="M773.781,-796.649C731.111,-797.048 678.456,-797.54 633.368,-797.961"/>
<polygon fill="#9a32cd" stroke="#9a32cd" points="773.876,-800.149 783.843,-796.555 773.81,-793.149 773.876,-800.149"/>
<text text-anchor="middle" x="705" y="-799.89" font-family="Helvetica,sans-Serif" font-size="10.00"> token</text>
</g>
<!-- Node5&#45;&gt;Node1 -->
<g id="edge6" class="edge"><title>Node5&#45;&gt;Node1</title>
<path fill="none" stroke="#9a32cd" stroke-dasharray="5,2" d="M610.764,-641.672C664.726,-629.568 736.227,-613.531 787.909,-601.939"/>
<polygon fill="#9a32cd" stroke="#9a32cd" points="609.893,-638.28 600.901,-643.884 611.425,-645.111 609.893,-638.28"/>
<text text-anchor="middle" x="705" y="-634.89" font-family="Helvetica,sans-Serif" font-size="10.00"> tailBlock</text>
</g>
<!-- Node5&#45;&gt;Node5 -->
<g id="edge10" class="edge"><title>Node5&#45;&gt;Node5</title>
<path fill="none" stroke="#9a32cd" stroke-dasharray="5,2" d="M502.438,-684.348C506.231,-689.069 516.418,-692.39 533,-692.39 560.211,-692.39 570.202,-683.447 562.975,-674.049"/>
<polygon fill="#9a32cd" stroke="#9a32cd" points="505.95,-684.232 503.025,-674.049 498.961,-683.833 505.95,-684.232"/>
<text text-anchor="middle" x="533" y="-695.39" font-family="Helvetica,sans-Serif" font-size="10.00"> next</text>
</g>
<!-- Node16 -->
<g id="node16" class="node"><title>Node16</title>
<g id="a_node16"><a xlink:href="../../d8/dc8/classmoodycamel_1_1ConcurrentQueue.html" target="_top" xlink:title="moodycamel::ConcurrentQueue\l\&lt; T, Traits \&gt;">
<polygon fill="white" stroke="black" points="2185,-392.89 2185,-422.89 2340,-422.89 2340,-392.89 2185,-392.89"/>
<text text-anchor="start" x="2193" y="-410.89" font-family="Helvetica,sans-Serif" font-size="10.00">moodycamel::ConcurrentQueue</text>
<text text-anchor="middle" x="2262.5" y="-399.89" font-family="Helvetica,sans-Serif" font-size="10.00">&lt; T, Traits &gt;</text>
</a>
</g>
</g>
<!-- Node5&#45;&gt;Node16 -->
<g id="edge24" class="edge"><title>Node5&#45;&gt;Node16</title>
<path fill="none" stroke="#9a32cd" stroke-dasharray="5,2" d="M620.791,-671.414C685.264,-679.641 775.438,-688.89 855,-688.89 855,-688.89 855,-688.89 1908.5,-688.89 2025.52,-688.89 2076.51,-713.085 2167,-638.89 2236.69,-581.746 2255.52,-464.965 2260.13,-423.181"/>
<polygon fill="#9a32cd" stroke="#9a32cd" points="621.037,-667.916 610.67,-670.104 620.138,-674.858 621.037,-667.916"/>
<text text-anchor="middle" x="1328" y="-691.89" font-family="Helvetica,sans-Serif" font-size="10.00"> initialBlockPool</text>
</g>
<!-- Node6 -->
<g id="node6" class="node"><title>Node6</title>
<polygon fill="white" stroke="#bfbfbf" points="142,-673.39 142,-692.39 232,-692.39 232,-673.39 142,-673.39"/>
<text text-anchor="middle" x="187" y="-680.39" font-family="Helvetica,sans-Serif" font-size="10.00">atomic&lt; size_t &gt;</text>
</g>
<!-- Node6&#45;&gt;Node5 -->
<g id="edge7" class="edge"><title>Node6&#45;&gt;Node5</title>
<path fill="none" stroke="#9a32cd" stroke-dasharray="5,2" d="M242.589,-679.082C300.023,-675.075 390.871,-668.736 455.449,-664.231"/>
<polygon fill="#9a32cd" stroke="#9a32cd" points="242,-675.614 232.268,-679.802 242.487,-682.597 242,-675.614"/>
<text text-anchor="middle" x="346.5" y="-679.89" font-family="Helvetica,sans-Serif" font-size="10.00"> elementsCompletelyDequeued</text>
</g>
<!-- Node6&#45;&gt;Node16 -->
<g id="edge20" class="edge"><title>Node6&#45;&gt;Node16</title>
<path fill="none" stroke="#9a32cd" stroke-dasharray="5,2" d="M241.659,-692.446C248.16,-694.906 254.453,-698 260,-701.89 271.507,-709.96 265.749,-721.003 278,-727.89 327.289,-755.598 475.457,-742.89 532,-742.89 532,-742.89 532,-742.89 1908.5,-742.89 2026.75,-742.89 2079.49,-759.428 2167,-679.89 2245.43,-608.606 2258.77,-468.851 2261.04,-422.916"/>
<polygon fill="#9a32cd" stroke="#9a32cd" points="242.64,-689.084 232.047,-689.276 240.447,-695.732 242.64,-689.084"/>
<text text-anchor="middle" x="1163.5" y="-756.89" font-family="Helvetica,sans-Serif" font-size="10.00"> implicitProducerHashCount</text>
<text text-anchor="middle" x="1163.5" y="-745.89" font-family="Helvetica,sans-Serif" font-size="10.00">initialBlockPoolIndex</text>
</g>
<!-- Node7 -->
<g id="node7" class="node"><title>Node7</title>
<polygon fill="white" stroke="#bfbfbf" points="114,-415.89 114,-445.89 260,-445.89 260,-415.89 114,-415.89"/>
<text text-anchor="start" x="122" y="-433.89" font-family="Helvetica,sans-Serif" font-size="10.00">atomic&lt; moodycamel</text>
<text text-anchor="middle" x="187" y="-422.89" font-family="Helvetica,sans-Serif" font-size="10.00">::ConcurrentQueue::Block * &gt;</text>
</g>
<!-- Node7&#45;&gt;Node5 -->
<g id="edge8" class="edge"><title>Node7&#45;&gt;Node5</title>
<path fill="none" stroke="#9a32cd" stroke-dasharray="5,2" d="M270.084,-445.817C317.653,-458.225 375.717,-480.327 415,-518.89 430.078,-533.692 421.165,-545.387 433,-562.89 455.261,-595.813 490.279,-626.404 512.15,-643.845"/>
<polygon fill="#9a32cd" stroke="#9a32cd" points="270.654,-442.351 260.103,-443.314 268.952,-449.141 270.654,-442.351"/>
<text text-anchor="middle" x="346.5" y="-521.89" font-family="Helvetica,sans-Serif" font-size="10.00"> freeListNext</text>
</g>
<!-- Node20 -->
<g id="node20" class="node"><title>Node20</title>
<g id="a_node20"><a xlink:href="../../db/d08/structmoodycamel_1_1ConcurrentQueue_1_1FreeList.html" target="_top" xlink:title="moodycamel::ConcurrentQueue\l\&lt; T, Traits \&gt;::FreeList\l\&lt; moodycamel::ConcurrentQueue\l::Block \&gt;">
<polygon fill="white" stroke="black" points="1825.5,-568.89 1825.5,-620.89 1989.5,-620.89 1989.5,-568.89 1825.5,-568.89"/>
<text text-anchor="start" x="1833.5" y="-608.89" font-family="Helvetica,sans-Serif" font-size="10.00">moodycamel::ConcurrentQueue</text>
<text text-anchor="start" x="1833.5" y="-597.89" font-family="Helvetica,sans-Serif" font-size="10.00">&lt; T, Traits &gt;::FreeList</text>
<text text-anchor="start" x="1833.5" y="-586.89" font-family="Helvetica,sans-Serif" font-size="10.00">&lt; moodycamel::ConcurrentQueue</text>
<text text-anchor="middle" x="1907.5" y="-575.89" font-family="Helvetica,sans-Serif" font-size="10.00">::Block &gt;</text>
</a>
</g>
</g>
<!-- Node7&#45;&gt;Node20 -->
<g id="edge27" class="edge"><title>Node7&#45;&gt;Node20</title>
<path fill="none" stroke="#9a32cd" stroke-dasharray="5,2" d="M270.368,-427.644C396.309,-422.967 644.317,-414.89 855,-414.89 855,-414.89 855,-414.89 1329,-414.89 1542.87,-414.89 1617.25,-415.962 1795,-534.89 1806.08,-542.305 1802.36,-550.848 1813,-558.89 1817.72,-562.457 1822.83,-565.712 1828.15,-568.674"/>
<polygon fill="#9a32cd" stroke="#9a32cd" points="269.901,-424.158 260.039,-428.03 270.163,-431.154 269.901,-424.158"/>
<text text-anchor="middle" x="1010.5" y="-417.89" font-family="Helvetica,sans-Serif" font-size="10.00"> freeListHead</text>
</g>
<!-- Node8 -->
<g id="node8" class="node"><title>Node8</title>
<polygon fill="white" stroke="#bfbfbf" points="169.5,-766.39 169.5,-785.39 204.5,-785.39 204.5,-766.39 169.5,-766.39"/>
<text text-anchor="middle" x="187" y="-773.39" font-family="Helvetica,sans-Serif" font-size="10.00">char</text>
</g>
<!-- Node8&#45;&gt;Node5 -->
<g id="edge9" class="edge"><title>Node8&#45;&gt;Node5</title>
<path fill="none" stroke="#9a32cd" stroke-dasharray="5,2" d="M214.784,-773.076C258.08,-767.905 345.601,-754.856 415,-727.89 450.828,-713.968 488.465,-689.802 511.081,-674.08"/>
<polygon fill="#9a32cd" stroke="#9a32cd" points="214.303,-769.608 204.767,-774.225 215.1,-776.563 214.303,-769.608"/>
<text text-anchor="middle" x="346.5" y="-765.89" font-family="Helvetica,sans-Serif" font-size="10.00"> elements</text>
</g>
<!-- Node9 -->
<g id="node9" class="node"><title>Node9</title>
<polygon fill="white" stroke="#bfbfbf" points="141.5,-711.39 141.5,-730.39 232.5,-730.39 232.5,-711.39 141.5,-711.39"/>
<text text-anchor="middle" x="187" y="-718.39" font-family="Helvetica,sans-Serif" font-size="10.00">anonymous:@11</text>
</g>
<!-- Node9&#45;&gt;Node5 -->
<g id="edge11" class="edge"><title>Node9&#45;&gt;Node5</title>
<path fill="none" stroke="#9a32cd" stroke-dasharray="5,2" d="M242.788,-716.182C288.997,-711.665 356.729,-703.762 415,-691.89 438.265,-687.15 463.677,-680.203 484.857,-673.904"/>
<polygon fill="#9a32cd" stroke="#9a32cd" points="242.307,-712.712 232.686,-717.149 242.974,-719.68 242.307,-712.712"/>
<text text-anchor="middle" x="346.5" y="-715.89" font-family="Helvetica,sans-Serif" font-size="10.00"> @11</text>
</g>
<!-- Node10 -->
<g id="node10" class="node"><title>Node10</title>
<polygon fill="white" stroke="#bfbfbf" points="169.5,-569.39 169.5,-588.39 204.5,-588.39 204.5,-569.39 169.5,-569.39"/>
<text text-anchor="middle" x="187" y="-576.39" font-family="Helvetica,sans-Serif" font-size="10.00">bool</text>
</g>
<!-- Node10&#45;&gt;Node1 -->
<g id="edge46" class="edge"><title>Node10&#45;&gt;Node1</title>
<path fill="none" stroke="#9a32cd" stroke-dasharray="5,2" d="M214.743,-572.482C232.548,-568.552 256.528,-563.9 278,-561.89 456.698,-545.161 667.597,-564.049 778.3,-576.925"/>
<polygon fill="#9a32cd" stroke="#9a32cd" points="213.761,-569.116 204.786,-574.746 215.313,-575.941 213.761,-569.116"/>
<text text-anchor="middle" x="533" y="-566.89" font-family="Helvetica,sans-Serif" font-size="10.00"> isExplicit</text>
</g>
<!-- Node10&#45;&gt;Node5 -->
<g id="edge12" class="edge"><title>Node10&#45;&gt;Node5</title>
<path fill="none" stroke="#9a32cd" stroke-dasharray="5,2" d="M214.391,-584.173C256.808,-592.756 342.722,-610.524 415,-627.89 435.432,-632.799 457.754,-638.603 477.372,-643.854"/>
<polygon fill="#9a32cd" stroke="#9a32cd" points="215.074,-580.74 204.579,-582.194 213.69,-587.602 215.074,-580.74"/>
<text text-anchor="middle" x="346.5" y="-630.89" font-family="Helvetica,sans-Serif" font-size="10.00"> dynamicallyAllocated</text>
</g>
<!-- Node11 -->
<g id="node11" class="node"><title>Node11</title>
<polygon fill="white" stroke="#bfbfbf" points="128,-498.39 128,-517.39 246,-517.39 246,-498.39 128,-498.39"/>
<text text-anchor="middle" x="187" y="-505.39" font-family="Helvetica,sans-Serif" font-size="10.00">atomic&lt; std::uint32_t &gt;</text>
</g>
<!-- Node11&#45;&gt;Node5 -->
<g id="edge14" class="edge"><title>Node11&#45;&gt;Node5</title>
<path fill="none" stroke="#9a32cd" stroke-dasharray="5,2" d="M236.831,-520.103C283.777,-532.745 356.089,-554.608 415,-582.89 451.247,-600.292 489.681,-627.082 512.226,-643.767"/>
<polygon fill="#9a32cd" stroke="#9a32cd" points="237.486,-516.656 226.922,-517.47 235.688,-523.421 237.486,-516.656"/>
<text text-anchor="middle" x="346.5" y="-585.89" font-family="Helvetica,sans-Serif" font-size="10.00"> freeListRefs</text>
</g>
<!-- Node11&#45;&gt;Node16 -->
<g id="edge44" class="edge"><title>Node11&#45;&gt;Node16</title>
<path fill="none" stroke="#9a32cd" stroke-dasharray="5,2" d="M256.199,-499.35C302.23,-492.107 363.706,-479.518 415,-458.89 590.321,-388.385 599.487,-300.677 777,-235.89 1009.05,-151.2 1079.98,-155.89 1327,-155.89 1327,-155.89 1327,-155.89 1908.5,-155.89 2025.12,-155.89 2074.69,-129.626 2167,-200.89 2231.26,-250.501 2253.25,-353.85 2259.42,-392.694"/>
<polygon fill="#9a32cd" stroke="#9a32cd" points="255.388,-495.933 246.031,-500.902 256.445,-502.853 255.388,-495.933"/>
<text text-anchor="middle" x="1163.5" y="-185.89" font-family="Helvetica,sans-Serif" font-size="10.00"> nextExplicitConsumerId</text>
<text text-anchor="middle" x="1163.5" y="-174.89" font-family="Helvetica,sans-Serif" font-size="10.00">globalExplicitConsumerOffset</text>
<text text-anchor="middle" x="1163.5" y="-163.89" font-family="Helvetica,sans-Serif" font-size="10.00">producerCount</text>
</g>
<!-- Node12 -->
<g id="node12" class="node"><title>Node12</title>
<g id="a_node12"><a xlink:href="../../d9/d3b/unionmoodycamel_1_1details_1_1max__align__t.html" target="_top" xlink:title="moodycamel::details\l::max_align_t">
<polygon fill="white" stroke="black" points="133.5,-623.89 133.5,-653.89 240.5,-653.89 240.5,-623.89 133.5,-623.89"/>
<text text-anchor="start" x="141.5" y="-641.89" font-family="Helvetica,sans-Serif" font-size="10.00">moodycamel::details</text>
<text text-anchor="middle" x="187" y="-630.89" font-family="Helvetica,sans-Serif" font-size="10.00">::max_align_t</text>
</a>
</g>
</g>
<!-- Node12&#45;&gt;Node5 -->
<g id="edge15" class="edge"><title>Node12&#45;&gt;Node5</title>
<path fill="none" stroke="#9a32cd" stroke-dasharray="5,2" d="M250.803,-641.455C296.389,-643.433 359.536,-646.414 415,-649.89 428.013,-650.706 441.832,-651.676 455.24,-652.673"/>
<polygon fill="#9a32cd" stroke="#9a32cd" points="250.913,-637.956 240.772,-641.023 250.612,-644.95 250.913,-637.956"/>
<text text-anchor="middle" x="346.5" y="-652.89" font-family="Helvetica,sans-Serif" font-size="10.00"> dummy</text>
</g>
<!-- Node13 -->
<g id="node13" class="node"><title>Node13</title>
<polygon fill="white" stroke="#bfbfbf" points="6.5,-667.39 6.5,-686.39 62.5,-686.39 62.5,-667.39 6.5,-667.39"/>
<text text-anchor="middle" x="34.5" y="-674.39" font-family="Helvetica,sans-Serif" font-size="10.00">long long</text>
</g>
<!-- Node13&#45;&gt;Node12 -->
<g id="edge16" class="edge"><title>Node13&#45;&gt;Node12</title>
<path fill="none" stroke="#9a32cd" stroke-dasharray="5,2" d="M72.474,-667.555C90.8087,-662.925 113.275,-657.253 133.369,-652.179"/>
<polygon fill="#9a32cd" stroke="#9a32cd" points="71.5933,-664.167 62.7544,-670.009 73.307,-670.954 71.5933,-664.167"/>
<text text-anchor="middle" x="91.5" y="-666.89" font-family="Helvetica,sans-Serif" font-size="10.00"> y</text>
</g>
<!-- Node14 -->
<g id="node14" class="node"><title>Node14</title>
<polygon fill="white" stroke="#bfbfbf" points="0,-629.39 0,-648.39 69,-648.39 69,-629.39 0,-629.39"/>
<text text-anchor="middle" x="34.5" y="-636.39" font-family="Helvetica,sans-Serif" font-size="10.00">max_align_t</text>
</g>
<!-- Node14&#45;&gt;Node12 -->
<g id="edge17" class="edge"><title>Node14&#45;&gt;Node12</title>
<path fill="none" stroke="#9a32cd" stroke-dasharray="5,2" d="M79.427,-638.89C96.3273,-638.89 115.793,-638.89 133.427,-638.89"/>
<polygon fill="#9a32cd" stroke="#9a32cd" points="79.2752,-635.39 69.2751,-638.89 79.2751,-642.39 79.2752,-635.39"/>
<text text-anchor="middle" x="91.5" y="-641.89" font-family="Helvetica,sans-Serif" font-size="10.00"> x</text>
</g>
<!-- Node15 -->
<g id="node15" class="node"><title>Node15</title>
<polygon fill="white" stroke="#bfbfbf" points="14,-591.39 14,-610.39 55,-610.39 55,-591.39 14,-591.39"/>
<text text-anchor="middle" x="34.5" y="-598.39" font-family="Helvetica,sans-Serif" font-size="10.00">void *</text>
</g>
<!-- Node15&#45;&gt;Node12 -->
<g id="edge18" class="edge"><title>Node15&#45;&gt;Node12</title>
<path fill="none" stroke="#9a32cd" stroke-dasharray="5,2" d="M64.9545,-608.327C84.3762,-613.231 110.366,-619.793 133.283,-625.58"/>
<polygon fill="#9a32cd" stroke="#9a32cd" points="65.7278,-604.913 55.1752,-605.858 64.0141,-611.7 65.7278,-604.913"/>
<text text-anchor="middle" x="91.5" y="-618.89" font-family="Helvetica,sans-Serif" font-size="10.00"> z</text>
</g>
<!-- Node16&#45;&gt;Node1 -->
<g id="edge19" class="edge"><title>Node16&#45;&gt;Node1</title>
<path fill="none" stroke="#9a32cd" stroke-dasharray="5,2" d="M2256.36,-433.006C2246.58,-474.093 2221.23,-555.263 2167,-596.89 2073.97,-668.303 2025.78,-649.89 1908.5,-649.89 1162.5,-649.89 1162.5,-649.89 1162.5,-649.89 1067.87,-649.89 960.077,-620.534 901.189,-601.9"/>
<polygon fill="#9a32cd" stroke="#9a32cd" points="2259.83,-433.533 2258.62,-423.008 2253,-431.99 2259.83,-433.533"/>
<text text-anchor="middle" x="1499" y="-652.89" font-family="Helvetica,sans-Serif" font-size="10.00"> parent</text>
</g>
<!-- Node17 -->
<g id="node17" class="node"><title>Node17</title>
<polygon fill="white" stroke="#bfbfbf" points="1835.5,-508.39 1835.5,-549.39 1979.5,-549.39 1979.5,-508.39 1835.5,-508.39"/>
<text text-anchor="start" x="1843.5" y="-537.39" font-family="Helvetica,sans-Serif" font-size="10.00">atomic&lt; moodycamel</text>
<text text-anchor="start" x="1843.5" y="-526.39" font-family="Helvetica,sans-Serif" font-size="10.00">::ConcurrentQueue::Producer</text>
<text text-anchor="middle" x="1907.5" y="-515.39" font-family="Helvetica,sans-Serif" font-size="10.00">Base * &gt;</text>
</g>
<!-- Node17&#45;&gt;Node16 -->
<g id="edge21" class="edge"><title>Node17&#45;&gt;Node16</title>
<path fill="none" stroke="#9a32cd" stroke-dasharray="5,2" d="M1989.45,-519.076C2041.67,-510.821 2110.18,-496.325 2167,-471.89 2195.94,-459.443 2225.39,-437.769 2243.55,-423.131"/>
<polygon fill="#9a32cd" stroke="#9a32cd" points="1988.92,-515.617 1979.57,-520.595 1989.98,-522.535 1988.92,-515.617"/>
<text text-anchor="middle" x="2093.5" y="-516.89" font-family="Helvetica,sans-Serif" font-size="10.00"> producerListTail</text>
</g>
<!-- Node18 -->
<g id="node18" class="node"><title>Node18</title>
<polygon fill="white" stroke="#bfbfbf" points="1813,-436.89 1813,-488.89 2002,-488.89 2002,-436.89 1813,-436.89"/>
<text text-anchor="start" x="1821" y="-476.89" font-family="Helvetica,sans-Serif" font-size="10.00">array&lt; moodycamel::</text>
<text text-anchor="start" x="1821" y="-465.89" font-family="Helvetica,sans-Serif" font-size="10.00">ConcurrentQueue::ImplicitProducer</text>
<text text-anchor="start" x="1821" y="-454.89" font-family="Helvetica,sans-Serif" font-size="10.00">KVP, INITIAL_IMPLICIT_PRODUCER</text>
<text text-anchor="middle" x="1907.5" y="-443.89" font-family="Helvetica,sans-Serif" font-size="10.00">_HASH_SIZE &gt;</text>
</g>
<!-- Node18&#45;&gt;Node16 -->
<g id="edge22" class="edge"><title>Node18&#45;&gt;Node16</title>
<path fill="none" stroke="#9a32cd" stroke-dasharray="5,2" d="M2012.35,-446.709C2067.64,-438.095 2134.44,-427.686 2184.96,-419.816"/>
<polygon fill="#9a32cd" stroke="#9a32cd" points="2011.51,-443.298 2002.17,-448.296 2012.59,-450.214 2011.51,-443.298"/>
<text text-anchor="start" x="2033.5" y="-459.89" font-family="Helvetica,sans-Serif" font-size="10.00"> initialImplicitProducerHash</text>
<text text-anchor="middle" x="2093.5" y="-448.89" font-family="Helvetica,sans-Serif" font-size="10.00">Entries</text>
</g>
<!-- Node19 -->
<g id="node19" class="node"><title>Node19</title>
<polygon fill="white" stroke="#bfbfbf" points="1138,-498.39 1138,-517.39 1189,-517.39 1189,-498.39 1138,-498.39"/>
<text text-anchor="middle" x="1163.5" y="-505.39" font-family="Helvetica,sans-Serif" font-size="10.00">uint32_t</text>
</g>
<!-- Node19&#45;&gt;Node16 -->
<g id="edge23" class="edge"><title>Node19&#45;&gt;Node16</title>
<path fill="none" stroke="#9a32cd" stroke-dasharray="5,2" d="M1199.27,-502.528C1296.17,-487.804 1577.6,-446.544 1813,-426.89 1943.28,-416.013 2095.4,-411.232 2184.8,-409.229"/>
<polygon fill="#9a32cd" stroke="#9a32cd" points="1198.52,-499.101 1189.16,-504.069 1199.58,-506.021 1198.52,-499.101"/>
<text text-anchor="start" x="1601" y="-461.89" font-family="Helvetica,sans-Serif" font-size="10.00"> EXPLICIT_CONSUMER_CONSUMPTION</text>
<text text-anchor="middle" x="1698" y="-450.89" font-family="Helvetica,sans-Serif" font-size="10.00">_QUOTA_BEFORE_ROTATE</text>
</g>
<!-- Node19&#45;&gt;Node20 -->
<g id="edge26" class="edge"><title>Node19&#45;&gt;Node20</title>
<path fill="none" stroke="#9a32cd" stroke-dasharray="5,2" d="M1199.02,-514.049C1213.19,-517.912 1229.04,-524.092 1241,-533.89 1253.33,-543.984 1245.38,-556.624 1259,-564.89 1306.26,-593.574 1662.46,-595.899 1825.48,-595.43"/>
<polygon fill="#9a32cd" stroke="#9a32cd" points="1199.63,-510.595 1189.08,-511.628 1197.97,-517.396 1199.63,-510.595"/>
<text text-anchor="middle" x="1499" y="-607.89" font-family="Helvetica,sans-Serif" font-size="10.00"> SHOULD_BE_ON_FREELIST</text>
<text text-anchor="middle" x="1499" y="-596.89" font-family="Helvetica,sans-Serif" font-size="10.00">REFS_MASK</text>
</g>
<!-- Node21 -->
<g id="node21" class="node"><title>Node21</title>
<g id="a_node21"><a xlink:href="../../db/d08/structmoodycamel_1_1ConcurrentQueue_1_1FreeList.html" target="_top" xlink:title="moodycamel::ConcurrentQueue\l\&lt; T, Traits \&gt;::FreeList\&lt; N \&gt;">
<polygon fill="white" stroke="black" points="1421.5,-524.89 1421.5,-554.89 1576.5,-554.89 1576.5,-524.89 1421.5,-524.89"/>
<text text-anchor="start" x="1429.5" y="-542.89" font-family="Helvetica,sans-Serif" font-size="10.00">moodycamel::ConcurrentQueue</text>
<text text-anchor="middle" x="1499" y="-531.89" font-family="Helvetica,sans-Serif" font-size="10.00">&lt; T, Traits &gt;::FreeList&lt; N &gt;</text>
</a>
</g>
</g>
<!-- Node19&#45;&gt;Node21 -->
<g id="edge29" class="edge"><title>Node19&#45;&gt;Node21</title>
<path fill="none" stroke="#9a32cd" stroke-dasharray="5,2" d="M1199.27,-507.83C1244.86,-508.141 1327.23,-510.042 1397,-518.89 1408.82,-520.388 1421.31,-522.525 1433.33,-524.868"/>
<polygon fill="#9a32cd" stroke="#9a32cd" points="1199.06,-504.329 1189.05,-507.783 1199.03,-511.329 1199.06,-504.329"/>
<text text-anchor="middle" x="1328" y="-532.89" font-family="Helvetica,sans-Serif" font-size="10.00"> SHOULD_BE_ON_FREELIST</text>
<text text-anchor="middle" x="1328" y="-521.89" font-family="Helvetica,sans-Serif" font-size="10.00">REFS_MASK</text>
</g>
<!-- Node20&#45;&gt;Node16 -->
<g id="edge25" class="edge"><title>Node20&#45;&gt;Node16</title>
<path fill="none" stroke="#9a32cd" stroke-dasharray="5,2" d="M1999.67,-586.354C2052.03,-578.006 2117.1,-561.503 2167,-528.89 2208.95,-501.476 2240.25,-449.07 2253.92,-423.164"/>
<polygon fill="#9a32cd" stroke="#9a32cd" points="1999.07,-582.905 1989.71,-587.869 2000.12,-589.825 1999.07,-582.905"/>
<text text-anchor="middle" x="2093.5" y="-584.89" font-family="Helvetica,sans-Serif" font-size="10.00"> freeList</text>
</g>
<!-- Node21&#45;&gt;Node20 -->
<g id="edge28" class="edge"><title>Node21&#45;&gt;Node20</title>
<path fill="none" stroke="orange" stroke-dasharray="5,2" d="M1586.58,-538.202C1645.8,-538.6 1725.79,-542.198 1795,-555.89 1810.49,-558.955 1826.75,-563.704 1841.91,-568.848"/>
<polygon fill="orange" stroke="orange" points="1586.53,-534.702 1576.52,-538.164 1586.51,-541.702 1586.53,-534.702"/>
<text text-anchor="start" x="1637" y="-569.89" font-family="Helvetica,sans-Serif" font-size="10.00"> &lt; moodycamel::Concurrent</text>
<text text-anchor="middle" x="1698" y="-558.89" font-family="Helvetica,sans-Serif" font-size="10.00">Queue::Block &gt;</text>
</g>
<!-- Node22 -->
<g id="node22" class="node"><title>Node22</title>
<polygon fill="white" stroke="#bfbfbf" points="1124.5,-543.39 1124.5,-562.39 1202.5,-562.39 1202.5,-543.39 1124.5,-543.39"/>
<text text-anchor="middle" x="1163.5" y="-550.39" font-family="Helvetica,sans-Serif" font-size="10.00">atomic&lt; N * &gt;</text>
</g>
<!-- Node22&#45;&gt;Node21 -->
<g id="edge30" class="edge"><title>Node22&#45;&gt;Node21</title>
<path fill="none" stroke="#9a32cd" stroke-dasharray="5,2" d="M1212.88,-551.004C1267.55,-548.873 1357.29,-545.375 1421.49,-542.872"/>
<polygon fill="#9a32cd" stroke="#9a32cd" points="1212.61,-547.512 1202.76,-551.399 1212.89,-554.507 1212.61,-547.512"/>
<text text-anchor="middle" x="1328" y="-552.89" font-family="Helvetica,sans-Serif" font-size="10.00"> freeListHead</text>
</g>
<!-- Node23 -->
<g id="node23" class="node"><title>Node23</title>
<polygon fill="white" stroke="#bfbfbf" points="1839,-260.39 1839,-301.39 1976,-301.39 1976,-260.39 1839,-260.39"/>
<text text-anchor="start" x="1847" y="-289.39" font-family="Helvetica,sans-Serif" font-size="10.00">atomic&lt; moodycamel</text>
<text text-anchor="start" x="1847" y="-278.39" font-family="Helvetica,sans-Serif" font-size="10.00">::ConcurrentQueue::Implicit</text>
<text text-anchor="middle" x="1907.5" y="-267.39" font-family="Helvetica,sans-Serif" font-size="10.00">ProducerHash * &gt;</text>
</g>
<!-- Node23&#45;&gt;Node16 -->
<g id="edge31" class="edge"><title>Node23&#45;&gt;Node16</title>
<path fill="none" stroke="#9a32cd" stroke-dasharray="5,2" d="M1986.21,-289.857C2038.97,-297.952 2109.35,-312.749 2167,-338.89 2197.16,-352.564 2227.22,-376.798 2245.09,-392.602"/>
<polygon fill="#9a32cd" stroke="#9a32cd" points="1986.65,-286.383 1976.24,-288.374 1985.62,-293.307 1986.65,-286.383"/>
<text text-anchor="middle" x="2093.5" y="-341.89" font-family="Helvetica,sans-Serif" font-size="10.00"> implicitProducerHash</text>
</g>
<!-- Node24 -->
<g id="node24" class="node"><title>Node24</title>
<polygon fill="white" stroke="#bfbfbf" points="1874,-222.39 1874,-241.39 1941,-241.39 1941,-222.39 1874,-222.39"/>
<text text-anchor="middle" x="1907.5" y="-229.39" font-family="Helvetica,sans-Serif" font-size="10.00">atomic_flag</text>
</g>
<!-- Node24&#45;&gt;Node16 -->
<g id="edge32" class="edge"><title>Node24&#45;&gt;Node16</title>
<path fill="none" stroke="#9a32cd" stroke-dasharray="5,2" d="M1951.43,-228.411C2005.8,-226.107 2100.42,-229.299 2167,-270.89 2214.3,-300.434 2243.99,-363.299 2255.74,-392.451"/>
<polygon fill="#9a32cd" stroke="#9a32cd" points="1950.92,-224.932 1941.11,-228.936 1951.27,-231.923 1950.92,-224.932"/>
<text text-anchor="start" x="2030" y="-284.89" font-family="Helvetica,sans-Serif" font-size="10.00"> implicitProducerHashResize</text>
<text text-anchor="middle" x="2093.5" y="-273.89" font-family="Helvetica,sans-Serif" font-size="10.00">InProgress</text>
</g>
<!-- Node25 -->
<g id="node25" class="node"><title>Node25</title>
<g id="a_node25"><a xlink:href="../../d8/d1f/structmoodycamel_1_1ConcurrentQueue_1_1ImplicitProducerHash.html" target="_top" xlink:title="moodycamel::ConcurrentQueue\l\&lt; T, Traits \&gt;::ImplicitProducerHash">
<polygon fill="white" stroke="black" points="1822,-319.89 1822,-349.89 1993,-349.89 1993,-319.89 1822,-319.89"/>
<text text-anchor="start" x="1830" y="-337.89" font-family="Helvetica,sans-Serif" font-size="10.00">moodycamel::ConcurrentQueue</text>
<text text-anchor="middle" x="1907.5" y="-326.89" font-family="Helvetica,sans-Serif" font-size="10.00">&lt; T, Traits &gt;::ImplicitProducerHash</text>
</a>
</g>
</g>
<!-- Node25&#45;&gt;Node16 -->
<g id="edge33" class="edge"><title>Node25&#45;&gt;Node16</title>
<path fill="none" stroke="#9a32cd" stroke-dasharray="5,2" d="M2003.2,-350.719C2052.26,-359.363 2113.05,-370.762 2167,-382.89 2180.08,-385.83 2194.09,-389.337 2207.2,-392.78"/>
<polygon fill="#9a32cd" stroke="#9a32cd" points="2003.69,-347.251 1993.23,-348.972 2002.48,-354.146 2003.69,-347.251"/>
<text text-anchor="middle" x="2093.5" y="-385.89" font-family="Helvetica,sans-Serif" font-size="10.00"> initialImplicitProducerHash</text>
</g>
<!-- Node25&#45;&gt;Node25 -->
<g id="edge41" class="edge"><title>Node25&#45;&gt;Node25</title>
<path fill="none" stroke="#9a32cd" stroke-dasharray="5,2" d="M1874.45,-360.348C1878.55,-365.069 1889.57,-368.39 1907.5,-368.39 1936.93,-368.39 1947.73,-359.447 1939.91,-350.049"/>
<polygon fill="#9a32cd" stroke="#9a32cd" points="1877.96,-360.246 1875.09,-350.049 1870.98,-359.815 1877.96,-360.246"/>
<text text-anchor="middle" x="1907.5" y="-371.39" font-family="Helvetica,sans-Serif" font-size="10.00"> prev</text>
</g>
<!-- Node26 -->
<g id="node26" class="node"><title>Node26</title>
<g id="a_node26"><a xlink:href="../../d3/dde/structmoodycamel_1_1ConcurrentQueue_1_1ImplicitProducerKVP.html" target="_top" xlink:title="moodycamel::ConcurrentQueue\l\&lt; T, Traits \&gt;::ImplicitProducerKVP">
<polygon fill="white" stroke="black" points="1415,-319.89 1415,-349.89 1583,-349.89 1583,-319.89 1415,-319.89"/>
<text text-anchor="start" x="1423" y="-337.89" font-family="Helvetica,sans-Serif" font-size="10.00">moodycamel::ConcurrentQueue</text>
<text text-anchor="middle" x="1499" y="-326.89" font-family="Helvetica,sans-Serif" font-size="10.00">&lt; T, Traits &gt;::ImplicitProducerKVP</text>
</a>
</g>
</g>
<!-- Node26&#45;&gt;Node25 -->
<g id="edge34" class="edge"><title>Node26&#45;&gt;Node25</title>
<path fill="none" stroke="#9a32cd" stroke-dasharray="5,2" d="M1593.65,-334.89C1662.53,-334.89 1755.35,-334.89 1821.97,-334.89"/>
<polygon fill="#9a32cd" stroke="#9a32cd" points="1593.24,-331.39 1583.24,-334.89 1593.24,-338.39 1593.24,-331.39"/>
<text text-anchor="middle" x="1698" y="-337.89" font-family="Helvetica,sans-Serif" font-size="10.00"> entries</text>
</g>
<!-- Node27 -->
<g id="node27" class="node"><title>Node27</title>
<polygon fill="white" stroke="#bfbfbf" points="1105.5,-287.89 1105.5,-317.89 1221.5,-317.89 1221.5,-287.89 1105.5,-287.89"/>
<text text-anchor="start" x="1113.5" y="-305.89" font-family="Helvetica,sans-Serif" font-size="10.00">atomic&lt; details::thread</text>
<text text-anchor="middle" x="1163.5" y="-294.89" font-family="Helvetica,sans-Serif" font-size="10.00">_id_t &gt;</text>
</g>
<!-- Node27&#45;&gt;Node26 -->
<g id="edge35" class="edge"><title>Node27&#45;&gt;Node26</title>
<path fill="none" stroke="#9a32cd" stroke-dasharray="5,2" d="M1232.1,-309.377C1284.89,-314.442 1358.5,-321.505 1414.89,-326.916"/>
<polygon fill="#9a32cd" stroke="#9a32cd" points="1232.12,-305.862 1221.83,-308.391 1231.45,-312.83 1232.12,-305.862"/>
<text text-anchor="middle" x="1328" y="-327.89" font-family="Helvetica,sans-Serif" font-size="10.00"> key</text>
</g>
<!-- Node28&#45;&gt;Node26 -->
<g id="edge36" class="edge"><title>Node28&#45;&gt;Node26</title>
<path fill="none" stroke="#9a32cd" stroke-dasharray="5,2" d="M1251.25,-347.468C1301.72,-344.896 1364.99,-341.67 1414.83,-339.129"/>
<polygon fill="#9a32cd" stroke="#9a32cd" points="1250.82,-343.985 1241.01,-347.99 1251.18,-350.976 1250.82,-343.985"/>
<text text-anchor="middle" x="1328" y="-349.89" font-family="Helvetica,sans-Serif" font-size="10.00"> value</text>
</g>
<!-- Node29 -->
<g id="node29" class="node"><title>Node29</title>
<polygon fill="white" stroke="#bfbfbf" points="805,-353.39 805,-372.39 907,-372.39 907,-353.39 805,-353.39"/>
<text text-anchor="middle" x="856" y="-360.39" font-family="Helvetica,sans-Serif" font-size="10.00">static const index_t</text>
</g>
<!-- Node29&#45;&gt;Node28 -->
<g id="edge38" class="edge"><title>Node29&#45;&gt;Node28</title>
<path fill="none" stroke="#9a32cd" stroke-dasharray="5,2" d="M917.494,-358.753C929.266,-358.049 941.516,-357.386 953,-356.89 996.981,-354.992 1046.19,-353.771 1085.86,-353.011"/>
<polygon fill="#9a32cd" stroke="#9a32cd" points="917.069,-355.273 907.302,-359.38 917.498,-362.259 917.069,-355.273"/>
<text text-anchor="middle" x="1010.5" y="-359.89" font-family="Helvetica,sans-Serif" font-size="10.00"> INVALID_BLOCK_BASE</text>
</g>
<!-- Node30 -->
<g id="node30" class="node"><title>Node30</title>
<polygon fill="white" stroke="#bfbfbf" points="777,-293.39 777,-334.39 935,-334.39 935,-293.39 777,-293.39"/>
<text text-anchor="start" x="785" y="-322.39" font-family="Helvetica,sans-Serif" font-size="10.00">atomic&lt; moodycamel</text>
<text text-anchor="start" x="785" y="-311.39" font-family="Helvetica,sans-Serif" font-size="10.00">::ConcurrentQueue::Implicit</text>
<text text-anchor="middle" x="856" y="-300.39" font-family="Helvetica,sans-Serif" font-size="10.00">Producer::BlockIndexHeader * &gt;</text>
</g>
<!-- Node30&#45;&gt;Node28 -->
<g id="edge39" class="edge"><title>Node30&#45;&gt;Node28</title>
<path fill="none" stroke="#9a32cd" stroke-dasharray="5,2" d="M945.173,-323.963C983.008,-328.382 1027.69,-333.73 1068,-338.89 1073.83,-339.637 1079.86,-340.426 1085.93,-341.232"/>
<polygon fill="#9a32cd" stroke="#9a32cd" points="945.54,-320.482 935.202,-322.802 944.73,-327.435 945.54,-320.482"/>
<text text-anchor="middle" x="1010.5" y="-341.89" font-family="Helvetica,sans-Serif" font-size="10.00"> blockIndex</text>
</g>
<!-- Node31 -->
<g id="node31" class="node"><title>Node31</title>
<polygon fill="white" stroke="#bfbfbf" points="834.5,-245.39 834.5,-264.39 877.5,-264.39 877.5,-245.39 834.5,-245.39"/>
<text text-anchor="middle" x="856" y="-252.39" font-family="Helvetica,sans-Serif" font-size="10.00">size_t</text>
</g>
<!-- Node31&#45;&gt;Node16 -->
<g id="edge43" class="edge"><title>Node31&#45;&gt;Node16</title>
<path fill="none" stroke="#9a32cd" stroke-dasharray="5,2" d="M887.979,-252.026C1021.34,-240.063 1559.76,-195.495 2002,-212.89 2075.5,-215.781 2105.68,-185.254 2167,-225.89 2227.25,-265.815 2251.37,-356.863 2258.77,-392.851"/>
<polygon fill="#9a32cd" stroke="#9a32cd" points="887.347,-248.569 877.703,-252.956 887.978,-255.541 887.347,-248.569"/>
<text text-anchor="middle" x="1499" y="-220.89" font-family="Helvetica,sans-Serif" font-size="10.00"> initialBlockPoolSize</text>
</g>
<!-- Node31&#45;&gt;Node25 -->
<g id="edge42" class="edge"><title>Node31&#45;&gt;Node25</title>
<path fill="none" stroke="#9a32cd" stroke-dasharray="5,2" d="M887.847,-256.469C953.069,-259.866 1109.76,-268.341 1241,-277.89 1450.05,-293.101 1695.66,-315.247 1821.99,-326.953"/>
<polygon fill="#9a32cd" stroke="#9a32cd" points="887.993,-252.972 877.825,-255.949 887.63,-259.963 887.993,-252.972"/>
<text text-anchor="middle" x="1328" y="-292.89" font-family="Helvetica,sans-Serif" font-size="10.00"> capacity</text>
</g>
<!-- Node31&#45;&gt;Node28 -->
<g id="edge40" class="edge"><title>Node31&#45;&gt;Node28</title>
<path fill="none" stroke="#9a32cd" stroke-dasharray="5,2" d="M887.664,-258.48C930.253,-264.448 1008.75,-279.057 1068,-310.89 1077.43,-315.956 1076.72,-321.56 1086,-326.89 1092.54,-330.647 1099.73,-333.932 1107,-336.776"/>
<polygon fill="#9a32cd" stroke="#9a32cd" points="888.018,-254.996 877.644,-257.144 887.093,-261.935 888.018,-254.996"/>
<text text-anchor="middle" x="1010.5" y="-313.89" font-family="Helvetica,sans-Serif" font-size="10.00"> nextBlockIndexCapacity</text>
</g>
<!-- Node32 -->
<g id="node32" class="node"><title>Node32</title>
<polygon fill="white" stroke="#bfbfbf" points="1859,-21.3901 1859,-40.3901 1956,-40.3901 1956,-21.3901 1859,-21.3901"/>
<text text-anchor="middle" x="1907.5" y="-28.3901" font-family="Helvetica,sans-Serif" font-size="10.00">static const size_t</text>
</g>
<!-- Node32&#45;&gt;Node16 -->
<g id="edge45" class="edge"><title>Node32&#45;&gt;Node16</title>
<path fill="none" stroke="#9a32cd" stroke-dasharray="5,2" d="M1944.97,-18.3886C1999.52,-2.20558 2102.79,18.3752 2167,-31.8901 2225.96,-78.0494 2253.82,-328.003 2260.1,-392.631"/>
<polygon fill="#9a32cd" stroke="#9a32cd" points="1943.9,-15.0555 1935.37,-21.3411 1945.96,-21.7461 1943.9,-15.0555"/>
<text text-anchor="middle" x="2093.5" y="-133.89" font-family="Helvetica,sans-Serif" font-size="10.00"> MAX_SUBQUEUE_SIZE</text>
<text text-anchor="start" x="2020" y="-122.89" font-family="Helvetica,sans-Serif" font-size="10.00">INITIAL_IMPLICIT_PRODUCER</text>
<text text-anchor="middle" x="2093.5" y="-111.89" font-family="Helvetica,sans-Serif" font-size="10.00">_HASH_SIZE</text>
<text text-anchor="start" x="2020" y="-100.89" font-family="Helvetica,sans-Serif" font-size="10.00">IMPLICIT_INITIAL_INDEX</text>
<text text-anchor="middle" x="2093.5" y="-89.8901" font-family="Helvetica,sans-Serif" font-size="10.00">_SIZE</text>
<text text-anchor="start" x="2020" y="-78.8901" font-family="Helvetica,sans-Serif" font-size="10.00">EXPLICIT_INITIAL_INDEX</text>
<text text-anchor="middle" x="2093.5" y="-67.8901" font-family="Helvetica,sans-Serif" font-size="10.00">_SIZE</text>
<text text-anchor="middle" x="2093.5" y="-56.8901" font-family="Helvetica,sans-Serif" font-size="10.00">BLOCK_SIZE</text>
<text text-anchor="start" x="2020" y="-45.8901" font-family="Helvetica,sans-Serif" font-size="10.00">EXPLICIT_BLOCK_EMPTY</text>
<text text-anchor="middle" x="2093.5" y="-34.8901" font-family="Helvetica,sans-Serif" font-size="10.00">_COUNTER_THRESHOLD</text>
</g>
<!-- Node33 -->
<g id="node33" class="node"><title>Node33</title>
<polygon fill="white" stroke="#bfbfbf" points="485.5,-480.39 485.5,-499.39 580.5,-499.39 580.5,-480.39 485.5,-480.39"/>
<text text-anchor="middle" x="533" y="-487.39" font-family="Helvetica,sans-Serif" font-size="10.00">atomic&lt; index_t &gt;</text>
</g>
<!-- Node33&#45;&gt;Node1 -->
<g id="edge47" class="edge"><title>Node33&#45;&gt;Node1</title>
<path fill="none" stroke="#9a32cd" stroke-dasharray="5,2" d="M589.096,-478.794C636.125,-471.923 704.582,-468.208 759,-490.89 798.596,-507.394 830.413,-548.953 845.499,-571.6"/>
<polygon fill="#9a32cd" stroke="#9a32cd" points="588.447,-475.352 579.104,-480.348 589.523,-482.269 588.447,-475.352"/>
<text text-anchor="middle" x="705" y="-526.89" font-family="Helvetica,sans-Serif" font-size="10.00"> tailIndex</text>
<text text-anchor="middle" x="705" y="-515.89" font-family="Helvetica,sans-Serif" font-size="10.00">headIndex</text>
<text text-anchor="middle" x="705" y="-504.89" font-family="Helvetica,sans-Serif" font-size="10.00">dequeueOvercommit</text>
<text text-anchor="middle" x="705" y="-493.89" font-family="Helvetica,sans-Serif" font-size="10.00">dequeueOptimisticCount</text>
</g>
</g>
</svg>
        <g id="navigator" transform="translate(0 0)" fill="#404254">
                <rect fill="#f2f5e9" fill-opacity="0.5" stroke="#606060" stroke-width=".5" x="0" y="0" width="60" height="60"/>
                <use id="zoomplus" xlink:href="#zoomPlus" x="17" y="9" onmousedown="handleZoom(evt,'in')"/>
                <use id="zoomminus" xlink:href="#zoomMin" x="42" y="9" onmousedown="handleZoom(evt,'out')"/>
                <use id="reset" xlink:href="#resetDef" x="30" y="36" onmousedown="handleReset()"/>
                <g id="arrowUp" xlink:href="#dirArrow" transform="translate(30 24)" onmousedown="handlePan(0,-1)">
                  <use xlink:href="#rim" fill="#404040">
                        <set attributeName="fill" to="#808080" begin="arrowUp.mouseover" end="arrowUp.mouseout"/>
                  </use>
                  <path fill="none" stroke="white" stroke-width="1.5" d="M0,-3.0v7 M-2.5,-0.5L0,-3.0L2.5,-0.5"/>
                </g>
                <g id="arrowRight" xlink:href="#dirArrow" transform="rotate(90) translate(36 -43)" onmousedown="handlePan(1,0)">
                  <use xlink:href="#rim" fill="#404040">
                        <set attributeName="fill" to="#808080" begin="arrowRight.mouseover" end="arrowRight.mouseout"/>
                  </use>
                  <path fill="none" stroke="white" stroke-width="1.5" d="M0,-3.0v7 M-2.5,-0.5L0,-3.0L2.5,-0.5"/>
                </g>
                <g id="arrowDown" xlink:href="#dirArrow" transform="rotate(180) translate(-30 -48)" onmousedown="handlePan(0,1)">
                  <use xlink:href="#rim" fill="#404040">
                        <set attributeName="fill" to="#808080" begin="arrowDown.mouseover" end="arrowDown.mouseout"/>
                  </use>
                  <path fill="none" stroke="white" stroke-width="1.5" d="M0,-3.0v7 M-2.5,-0.5L0,-3.0L2.5,-0.5"/>
                </g>
                <g id="arrowLeft" xlink:href="#dirArrow" transform="rotate(270) translate(-36 17)" onmousedown="handlePan(-1,0)">
                  <use xlink:href="#rim" fill="#404040">
                        <set attributeName="fill" to="#808080" begin="arrowLeft.mouseover" end="arrowLeft.mouseout"/>
                  </use>
                  <path fill="none" stroke="white" stroke-width="1.5" d="M0,-3.0v7 M-2.5,-0.5L0,-3.0L2.5,-0.5"/>
                </g>
        </g>
        <svg viewBox="0 0 15 15" width="100%" height="30px" preserveAspectRatio="xMaxYMin meet">
         <g id="arrow_out" transform="scale(0.3 0.3)">
          <a xlink:href="structmoodycamel_1_1ConcurrentQueue_1_1ProducerBase__coll__graph_org.svg" target="_base">
           <rect id="button" ry="5" rx="5" y="6" x="6" height="38" width="38"
                fill="#f2f5e9" fill-opacity="0.5" stroke="#606060" stroke-width="1.0"/>
           <path id="arrow"
             d="M 11.500037,31.436501 C 11.940474,20.09759 22.043105,11.32322 32.158766,21.979434 L 37.068811,17.246167 C 37.068811,17.246167 37.088388,32 37.088388,32 L 22.160133,31.978069 C 22.160133,31.978069 26.997745,27.140456 26.997745,27.140456 C 18.528582,18.264221 13.291696,25.230495 11.500037,31.436501 z"
             style="fill:#404040;"/>
          </a>
         </g>
        </svg>
</svg>
