<?xml version="1.0" encoding="UTF-8" standalone="no"?>
<!DOCTYPE svg PUBLIC "-//W3C//DTD SVG 1.1//EN"
 "http://www.w3.org/Graphics/SVG/1.1/DTD/svg11.dtd">
<!-- Generated by graphviz version 2.40.1 (20161225.0304)
 -->
<!-- Title: carla::client::detail::Episode::SetPedestriansCrossFactor Pages: 1 -->
<svg width="377pt" height="50pt"
 viewBox="0.00 0.00 377.00 50.00" xmlns="http://www.w3.org/2000/svg" xmlns:xlink="http://www.w3.org/1999/xlink">
<g id="graph0" class="graph" transform="scale(1 1) rotate(0) translate(4 46)">
<title>carla::client::detail::Episode::SetPedestriansCrossFactor</title>
<polygon fill="#ffffff" stroke="transparent" points="-4,4 -4,-46 373,-46 373,4 -4,4"/>
<!-- Node122 -->
<g id="node1" class="node">
<title>Node122</title>
<polygon fill="#bfbfbf" stroke="#000000" points="0,-.5 0,-41.5 167,-41.5 167,-.5 0,-.5"/>
<text text-anchor="start" x="8" y="-29.5" font-family="Helvetica,sans-Serif" font-size="10.00" fill="#000000">carla::client::detail</text>
<text text-anchor="start" x="8" y="-18.5" font-family="Helvetica,sans-Serif" font-size="10.00" fill="#000000">::Episode::SetPedestriansCross</text>
<text text-anchor="middle" x="83.5" y="-7.5" font-family="Helvetica,sans-Serif" font-size="10.00" fill="#000000">Factor</text>
</g>
<!-- Node123 -->
<g id="node2" class="node">
<title>Node123</title>
<g id="a_node2"><a xlink:href="../../d1/db6/classcarla_1_1client_1_1detail_1_1Episode.html#a920f2689d9a7d78b98f178d742dc2f2f" target="_top" xlink:title="carla::client::detail\l::Episode::RemoveLightUpdate\lChangeEvent">
<polygon fill="#ffffff" stroke="#000000" points="203,-.5 203,-41.5 369,-41.5 369,-.5 203,-.5"/>
<text text-anchor="start" x="211" y="-29.5" font-family="Helvetica,sans-Serif" font-size="10.00" fill="#000000">carla::client::detail</text>
<text text-anchor="start" x="211" y="-18.5" font-family="Helvetica,sans-Serif" font-size="10.00" fill="#000000">::Episode::RemoveLightUpdate</text>
<text text-anchor="middle" x="286" y="-7.5" font-family="Helvetica,sans-Serif" font-size="10.00" fill="#000000">ChangeEvent</text>
</a>
</g>
</g>
<!-- Node122&#45;&gt;Node123 -->
<g id="edge1" class="edge">
<title>Node122&#45;&gt;Node123</title>
<path fill="none" stroke="#191970" d="M177.1178,-21C185.7501,-21 194.4568,-21 202.985,-21"/>
<polygon fill="#191970" stroke="#191970" points="177.0337,-17.5001 167.0336,-21 177.0336,-24.5001 177.0337,-17.5001"/>
</g>
</g>
</svg>
