<?xml version="1.0" encoding="UTF-8" standalone="no"?>
<!DOCTYPE svg PUBLIC "-//W3C//DTD SVG 1.1//EN"
 "http://www.w3.org/Graphics/SVG/1.1/DTD/svg11.dtd">
<!-- Generated by graphviz version 2.40.1 (20161225.0304)
 -->
<!-- Title: carla::client::detail::Episode::~Episode Pages: 1 -->
<svg width="483pt" height="83pt"
 viewBox="0.00 0.00 483.00 83.00" xmlns="http://www.w3.org/2000/svg" xmlns:xlink="http://www.w3.org/1999/xlink">
<g id="graph0" class="graph" transform="scale(1 1) rotate(0) translate(4 79)">
<title>carla::client::detail::Episode::~Episode</title>
<polygon fill="#ffffff" stroke="transparent" points="-4,4 -4,-79 479,-79 479,4 -4,4"/>
<!-- Node3 -->
<g id="node1" class="node">
<title>Node3</title>
<polygon fill="#bfbfbf" stroke="#000000" points="0,-22.5 0,-52.5 113,-52.5 113,-22.5 0,-22.5"/>
<text text-anchor="start" x="8" y="-40.5" font-family="Helvetica,sans-Serif" font-size="10.00" fill="#000000">carla::client::detail</text>
<text text-anchor="middle" x="56.5" y="-29.5" font-family="Helvetica,sans-Serif" font-size="10.00" fill="#000000">::Episode::~Episode</text>
</g>
<!-- Node4 -->
<g id="node2" class="node">
<title>Node4</title>
<g id="a_node2"><a xlink:href="../../d9/d36/namespacecarla.html#a7673dfc76e17f5856b798de6d0384b56" target="_top" xlink:title="carla::log_error">
<polygon fill="#ffffff" stroke="#000000" points="192.5,-50 192.5,-69 282.5,-69 282.5,-50 192.5,-50"/>
<text text-anchor="middle" x="237.5" y="-57" font-family="Helvetica,sans-Serif" font-size="10.00" fill="#000000">carla::log_error</text>
</a>
</g>
</g>
<!-- Node3&#45;&gt;Node4 -->
<g id="edge1" class="edge">
<title>Node3&#45;&gt;Node4</title>
<path fill="none" stroke="#191970" d="M113.2729,-44.4006C135.29,-47.0767 160.4149,-50.1305 182.2816,-52.7884"/>
<polygon fill="#191970" stroke="#191970" points="182.0511,-56.286 192.4004,-54.0183 182.8958,-49.3372 182.0511,-56.286"/>
</g>
<!-- Node6 -->
<g id="node4" class="node">
<title>Node6</title>
<g id="a_node4"><a xlink:href="../../dd/ddd/classcarla_1_1client_1_1detail_1_1Client.html#a47675d8d967a68f2ff71ed7e3763be24" target="_top" xlink:title="carla::client::detail\l::Client::UnSubscribeFromStream">
<polygon fill="#ffffff" stroke="#000000" points="149,-.5 149,-30.5 326,-30.5 326,-.5 149,-.5"/>
<text text-anchor="start" x="157" y="-18.5" font-family="Helvetica,sans-Serif" font-size="10.00" fill="#000000">carla::client::detail</text>
<text text-anchor="middle" x="237.5" y="-7.5" font-family="Helvetica,sans-Serif" font-size="10.00" fill="#000000">::Client::UnSubscribeFromStream</text>
</a>
</g>
</g>
<!-- Node3&#45;&gt;Node6 -->
<g id="edge3" class="edge">
<title>Node3&#45;&gt;Node6</title>
<path fill="none" stroke="#191970" d="M113.2729,-30.5994C121.3952,-29.6122 129.9404,-28.5735 138.5889,-27.5223"/>
<polygon fill="#191970" stroke="#191970" points="139.2653,-30.966 148.7699,-26.2849 138.4206,-24.0171 139.2653,-30.966"/>
</g>
<!-- Node5 -->
<g id="node3" class="node">
<title>Node5</title>
<g id="a_node3"><a xlink:href="../../d2/d8c/namespacecarla_1_1logging.html#a4193666236852fb6a6977299a31445d8" target="_top" xlink:title="carla::logging::write\l_to_stream">
<polygon fill="#ffffff" stroke="#000000" points="362,-44.5 362,-74.5 475,-74.5 475,-44.5 362,-44.5"/>
<text text-anchor="start" x="370" y="-62.5" font-family="Helvetica,sans-Serif" font-size="10.00" fill="#000000">carla::logging::write</text>
<text text-anchor="middle" x="418.5" y="-51.5" font-family="Helvetica,sans-Serif" font-size="10.00" fill="#000000">_to_stream</text>
</a>
</g>
</g>
<!-- Node4&#45;&gt;Node5 -->
<g id="edge2" class="edge">
<title>Node4&#45;&gt;Node5</title>
<path fill="none" stroke="#191970" d="M282.707,-59.5C303.5944,-59.5 328.8188,-59.5 351.83,-59.5"/>
<polygon fill="#191970" stroke="#191970" points="351.8792,-63.0001 361.8792,-59.5 351.8791,-56.0001 351.8792,-63.0001"/>
</g>
</g>
</svg>
