<?xml version="1.0" encoding="UTF-8" standalone="no"?>
<!DOCTYPE svg PUBLIC "-//W3C//DTD SVG 1.1//EN"
 "http://www.w3.org/Graphics/SVG/1.1/DTD/svg11.dtd">
<!-- Generated by graphviz version 2.40.1 (20161225.0304)
 -->
<!-- Title: carla::client::detail::Episode::AddPendingException Pages: 1 -->
<svg width="566pt" height="247pt"
 viewBox="0.00 0.00 566.00 247.00" xmlns="http://www.w3.org/2000/svg" xmlns:xlink="http://www.w3.org/1999/xlink">
<g id="graph0" class="graph" transform="scale(1 1) rotate(0) translate(4 243)">
<title>carla::client::detail::Episode::AddPendingException</title>
<polygon fill="#ffffff" stroke="transparent" points="-4,4 -4,-243 562,-243 562,4 -4,4"/>
<!-- Node10 -->
<g id="node1" class="node">
<title>Node10</title>
<polygon fill="#bfbfbf" stroke="#000000" points="0,-125.5 0,-155.5 173,-155.5 173,-125.5 0,-125.5"/>
<text text-anchor="start" x="8" y="-143.5" font-family="Helvetica,sans-Serif" font-size="10.00" fill="#000000">carla::client::detail</text>
<text text-anchor="middle" x="86.5" y="-132.5" font-family="Helvetica,sans-Serif" font-size="10.00" fill="#000000">::Episode::AddPendingException</text>
</g>
<!-- Node11 -->
<g id="node2" class="node">
<title>Node11</title>
<g id="a_node2"><a xlink:href="../../d1/db6/classcarla_1_1client_1_1detail_1_1Episode.html#af4a32debc3fbaa33247b4287c97c1403" target="_top" xlink:title="carla::client::detail\l::Episode::Episode">
<polygon fill="#ffffff" stroke="#000000" points="243,-208.5 243,-238.5 350,-238.5 350,-208.5 243,-208.5"/>
<text text-anchor="start" x="251" y="-226.5" font-family="Helvetica,sans-Serif" font-size="10.00" fill="#000000">carla::client::detail</text>
<text text-anchor="middle" x="296.5" y="-215.5" font-family="Helvetica,sans-Serif" font-size="10.00" fill="#000000">::Episode::Episode</text>
</a>
</g>
</g>
<!-- Node10&#45;&gt;Node11 -->
<g id="edge1" class="edge">
<title>Node10&#45;&gt;Node11</title>
<path fill="none" stroke="#191970" d="M115.1255,-155.6975C139.5897,-168.2836 175.9696,-186.0579 209,-198.5 216.7574,-201.4221 225.0105,-204.1966 233.2303,-206.7612"/>
<polygon fill="#191970" stroke="#191970" points="232.2473,-210.1204 242.8327,-209.6717 234.2779,-203.4214 232.2473,-210.1204"/>
</g>
<!-- Node12 -->
<g id="node3" class="node">
<title>Node12</title>
<g id="a_node3"><a xlink:href="../../d1/db6/classcarla_1_1client_1_1detail_1_1Episode.html#acbda29a6ba9457c5ae1a99c8bd88387d" target="_top" xlink:title="carla::client::detail\l::Episode::HasMapChangedSince\lLastCall">
<polygon fill="#ffffff" stroke="#000000" points="209,-148 209,-189 384,-189 384,-148 209,-148"/>
<text text-anchor="start" x="217" y="-177" font-family="Helvetica,sans-Serif" font-size="10.00" fill="#000000">carla::client::detail</text>
<text text-anchor="start" x="217" y="-166" font-family="Helvetica,sans-Serif" font-size="10.00" fill="#000000">::Episode::HasMapChangedSince</text>
<text text-anchor="middle" x="296.5" y="-155" font-family="Helvetica,sans-Serif" font-size="10.00" fill="#000000">LastCall</text>
</a>
</g>
</g>
<!-- Node10&#45;&gt;Node12 -->
<g id="edge2" class="edge">
<title>Node10&#45;&gt;Node12</title>
<path fill="none" stroke="#191970" d="M173.1275,-152.0503C181.5729,-153.1764 190.182,-154.3243 198.7269,-155.4636"/>
<polygon fill="#191970" stroke="#191970" points="198.34,-158.9429 208.7149,-156.7953 199.2652,-152.0043 198.34,-158.9429"/>
</g>
<!-- Node13 -->
<g id="node4" class="node">
<title>Node13</title>
<g id="a_node4"><a xlink:href="../../d1/db6/classcarla_1_1client_1_1detail_1_1Episode.html#a5c09238d091858b3c72c761764efabc9" target="_top" xlink:title="carla::client::detail\l::Episode::OnEpisodeChanged">
<polygon fill="#ffffff" stroke="#000000" points="216,-98.5 216,-128.5 377,-128.5 377,-98.5 216,-98.5"/>
<text text-anchor="start" x="224" y="-116.5" font-family="Helvetica,sans-Serif" font-size="10.00" fill="#000000">carla::client::detail</text>
<text text-anchor="middle" x="296.5" y="-105.5" font-family="Helvetica,sans-Serif" font-size="10.00" fill="#000000">::Episode::OnEpisodeChanged</text>
</a>
</g>
</g>
<!-- Node10&#45;&gt;Node13 -->
<g id="edge3" class="edge">
<title>Node10&#45;&gt;Node13</title>
<path fill="none" stroke="#191970" d="M173.1275,-129.3622C183.8299,-127.9862 194.7951,-126.5763 205.5596,-125.1923"/>
<polygon fill="#191970" stroke="#191970" points="206.3316,-128.622 215.8036,-123.8753 205.4389,-121.6791 206.3316,-128.622"/>
</g>
<!-- Node15 -->
<g id="node6" class="node">
<title>Node15</title>
<g id="a_node6"><a xlink:href="../../d1/db6/classcarla_1_1client_1_1detail_1_1Episode.html#a953923f840afcfd19be46d816805f060" target="_top" xlink:title="carla::client::detail\l::Episode::OnEpisodeStarted">
<polygon fill="#ffffff" stroke="#000000" points="219.5,-49.5 219.5,-79.5 373.5,-79.5 373.5,-49.5 219.5,-49.5"/>
<text text-anchor="start" x="227.5" y="-67.5" font-family="Helvetica,sans-Serif" font-size="10.00" fill="#000000">carla::client::detail</text>
<text text-anchor="middle" x="296.5" y="-56.5" font-family="Helvetica,sans-Serif" font-size="10.00" fill="#000000">::Episode::OnEpisodeStarted</text>
</a>
</g>
</g>
<!-- Node10&#45;&gt;Node15 -->
<g id="edge5" class="edge">
<title>Node10&#45;&gt;Node15</title>
<path fill="none" stroke="#191970" d="M119.6297,-125.4767C144.0496,-114.7065 178.2299,-100.26 209,-89.5 215.8694,-87.0978 223.0997,-84.7507 230.3385,-82.5166"/>
<polygon fill="#191970" stroke="#191970" points="231.6197,-85.7859 240.1817,-79.5456 229.5969,-79.0845 231.6197,-85.7859"/>
</g>
<!-- Node14 -->
<g id="node5" class="node">
<title>Node14</title>
<g id="a_node5"><a xlink:href="../../df/d5a/classcarla_1_1traffic__manager_1_1TrafficManager.html#ae1ed940a391fc5a91d42c5a0e6e586ea" target="_top" xlink:title="carla::traffic_manager\l::TrafficManager::Reset">
<polygon fill="#ffffff" stroke="#000000" points="425.5,-98.5 425.5,-128.5 552.5,-128.5 552.5,-98.5 425.5,-98.5"/>
<text text-anchor="start" x="433.5" y="-116.5" font-family="Helvetica,sans-Serif" font-size="10.00" fill="#000000">carla::traffic_manager</text>
<text text-anchor="middle" x="489" y="-105.5" font-family="Helvetica,sans-Serif" font-size="10.00" fill="#000000">::TrafficManager::Reset</text>
</a>
</g>
</g>
<!-- Node13&#45;&gt;Node14 -->
<g id="edge4" class="edge">
<title>Node13&#45;&gt;Node14</title>
<path fill="none" stroke="#191970" d="M377.022,-113.5C389.6589,-113.5 402.6676,-113.5 415.1448,-113.5"/>
<polygon fill="#191970" stroke="#191970" points="415.4807,-117.0001 425.4807,-113.5 415.4807,-110.0001 415.4807,-117.0001"/>
</g>
<!-- Node16 -->
<g id="node7" class="node">
<title>Node16</title>
<g id="a_node7"><a xlink:href="../../de/dfc/classcarla_1_1client_1_1detail_1_1CachedActorList.html#a7563583112293f4d27d249bef0f2c614" target="_top" xlink:title="carla::client::detail\l::CachedActorList::Clear">
<polygon fill="#ffffff" stroke="#000000" points="422.5,-49.5 422.5,-79.5 555.5,-79.5 555.5,-49.5 422.5,-49.5"/>
<text text-anchor="start" x="430.5" y="-67.5" font-family="Helvetica,sans-Serif" font-size="10.00" fill="#000000">carla::client::detail</text>
<text text-anchor="middle" x="489" y="-56.5" font-family="Helvetica,sans-Serif" font-size="10.00" fill="#000000">::CachedActorList::Clear</text>
</a>
</g>
</g>
<!-- Node15&#45;&gt;Node16 -->
<g id="edge6" class="edge">
<title>Node15&#45;&gt;Node16</title>
<path fill="none" stroke="#191970" d="M373.6879,-64.5C386.3984,-64.5 399.5709,-64.5 412.2701,-64.5"/>
<polygon fill="#191970" stroke="#191970" points="412.3354,-68.0001 422.3354,-64.5 412.3353,-61.0001 412.3354,-68.0001"/>
</g>
<!-- Node17 -->
<g id="node8" class="node">
<title>Node17</title>
<g id="a_node8"><a xlink:href="../../df/d5a/classcarla_1_1traffic__manager_1_1TrafficManager.html#ab8b1ddabe257a4b75430eb645fdd7811" target="_top" xlink:title="carla::traffic_manager\l::TrafficManager::Release">
<polygon fill="#ffffff" stroke="#000000" points="420,-.5 420,-30.5 558,-30.5 558,-.5 420,-.5"/>
<text text-anchor="start" x="428" y="-18.5" font-family="Helvetica,sans-Serif" font-size="10.00" fill="#000000">carla::traffic_manager</text>
<text text-anchor="middle" x="489" y="-7.5" font-family="Helvetica,sans-Serif" font-size="10.00" fill="#000000">::TrafficManager::Release</text>
</a>
</g>
</g>
<!-- Node15&#45;&gt;Node17 -->
<g id="edge7" class="edge">
<title>Node15&#45;&gt;Node17</title>
<path fill="none" stroke="#191970" d="M355.5646,-49.4654C375.9823,-44.2682 399.0381,-38.3994 420.17,-33.0204"/>
<polygon fill="#191970" stroke="#191970" points="421.2196,-36.3649 430.0471,-30.5062 419.4927,-29.5812 421.2196,-36.3649"/>
</g>
</g>
</svg>
