<?xml version="1.0" encoding="UTF-8" standalone="no"?>
<!DOCTYPE svg PUBLIC "-//W3C//DTD SVG 1.1//EN"
 "http://www.w3.org/Graphics/SVG/1.1/DTD/svg11.dtd">
<!-- Generated by graphviz version 2.43.0 (0)
 -->
<!-- Title: geometry_msgs::msg::PosePubSubType::PosePubSubType Pages: 1 -->
<svg width="427pt" height="137pt"
 viewBox="0.00 0.00 427.00 137.00" xmlns="http://www.w3.org/2000/svg" xmlns:xlink="http://www.w3.org/1999/xlink">
<g id="graph0" class="graph" transform="scale(1 1) rotate(0) translate(4 133)">
<title>geometry_msgs::msg::PosePubSubType::PosePubSubType</title>
<polygon fill="white" stroke="transparent" points="-4,4 -4,-133 423,-133 423,4 -4,4"/>
<!-- Node1 -->
<g id="node1" class="node">
<title>Node1</title>
<g id="a_node1"><a xlink:title=" ">
<polygon fill="#bfbfbf" stroke="black" points="0,-49.5 0,-79.5 192,-79.5 192,-49.5 0,-49.5"/>
<text text-anchor="start" x="8" y="-67.5" font-family="Helvetica,sans-Serif" font-size="10.00">geometry_msgs::msg</text>
<text text-anchor="middle" x="96" y="-56.5" font-family="Helvetica,sans-Serif" font-size="10.00">::PosePubSubType::PosePubSubType</text>
</a>
</g>
</g>
<!-- Node2 -->
<g id="node2" class="node">
<title>Node2</title>
<g id="a_node2"><a xlink:href="../../d1/d6d/classgeometry__msgs_1_1msg_1_1Pose.html#abc69720f747615c6e0f41eac496d6f04" target="_top" xlink:title="This function returns the maximum serialized size of the Key of an object depending on the buffer ali...">
<polygon fill="white" stroke="black" points="228,-98.5 228,-128.5 419,-128.5 419,-98.5 228,-98.5"/>
<text text-anchor="start" x="236" y="-116.5" font-family="Helvetica,sans-Serif" font-size="10.00">geometry_msgs::msg</text>
<text text-anchor="middle" x="323.5" y="-105.5" font-family="Helvetica,sans-Serif" font-size="10.00">::Pose::getKeyMaxCdrSerializedSize</text>
</a>
</g>
</g>
<!-- Node1&#45;&gt;Node2 -->
<g id="edge1" class="edge">
<title>Node1&#45;&gt;Node2</title>
<path fill="none" stroke="midnightblue" d="M166.19,-79.53C190.65,-84.85 218.34,-90.87 243.55,-96.34"/>
<polygon fill="midnightblue" stroke="midnightblue" points="242.93,-99.79 253.44,-98.49 244.41,-92.95 242.93,-99.79"/>
</g>
<!-- Node3 -->
<g id="node3" class="node">
<title>Node3</title>
<g id="a_node3"><a xlink:href="../../d1/d6d/classgeometry__msgs_1_1msg_1_1Pose.html#a45beabc0a2d1b055596fc2180c7450e8" target="_top" xlink:title="This function returns the maximum serialized size of an object depending on the buffer alignment.">
<polygon fill="white" stroke="black" points="237,-49.5 237,-79.5 410,-79.5 410,-49.5 237,-49.5"/>
<text text-anchor="start" x="245" y="-67.5" font-family="Helvetica,sans-Serif" font-size="10.00">geometry_msgs::msg</text>
<text text-anchor="middle" x="323.5" y="-56.5" font-family="Helvetica,sans-Serif" font-size="10.00">::Pose::getMaxCdrSerializedSize</text>
</a>
</g>
</g>
<!-- Node1&#45;&gt;Node3 -->
<g id="edge2" class="edge">
<title>Node1&#45;&gt;Node3</title>
<path fill="none" stroke="midnightblue" d="M192.31,-64.5C203.63,-64.5 215.19,-64.5 226.51,-64.5"/>
<polygon fill="midnightblue" stroke="midnightblue" points="226.84,-68 236.84,-64.5 226.84,-61 226.84,-68"/>
</g>
<!-- Node4 -->
<g id="node4" class="node">
<title>Node4</title>
<g id="a_node4"><a xlink:href="../../d1/d6d/classgeometry__msgs_1_1msg_1_1Pose.html#a058d3c1ba2e2188c11f87f96f6bff769" target="_top" xlink:title="This function tells you if the Key has been defined for this type.">
<polygon fill="white" stroke="black" points="262.5,-0.5 262.5,-30.5 384.5,-30.5 384.5,-0.5 262.5,-0.5"/>
<text text-anchor="start" x="270.5" y="-18.5" font-family="Helvetica,sans-Serif" font-size="10.00">geometry_msgs::msg</text>
<text text-anchor="middle" x="323.5" y="-7.5" font-family="Helvetica,sans-Serif" font-size="10.00">::Pose::isKeyDefined</text>
</a>
</g>
</g>
<!-- Node1&#45;&gt;Node4 -->
<g id="edge3" class="edge">
<title>Node1&#45;&gt;Node4</title>
<path fill="none" stroke="midnightblue" d="M166.19,-49.47C193.52,-43.53 224.88,-36.71 252.3,-30.75"/>
<polygon fill="midnightblue" stroke="midnightblue" points="253.19,-34.14 262.22,-28.6 251.7,-27.3 253.19,-34.14"/>
</g>
</g>
</svg>
