<?xml version="1.0" encoding="UTF-8" standalone="no"?>
<!DOCTYPE svg PUBLIC "-//W3C//DTD SVG 1.1//EN"
 "http://www.w3.org/Graphics/SVG/1.1/DTD/svg11.dtd">
<!-- Generated by graphviz version 2.38.0 (20140413.2041)
 -->
<!-- Title: carla::client::detail::Client::Pimpl::RawCall Pages: 1 -->
<svg width="311pt" height="39pt"
 viewBox="0.00 0.00 311.00 39.00" xmlns="http://www.w3.org/2000/svg" xmlns:xlink="http://www.w3.org/1999/xlink">
<g id="graph0" class="graph" transform="scale(1 1) rotate(0) translate(4 35)">
<title>carla::client::detail::Client::Pimpl::RawCall</title>
<polygon fill="white" stroke="none" points="-4,4 -4,-35 307,-35 307,4 -4,4"/>
<!-- Node1 -->
<g id="node1" class="node"><title>Node1</title>
<polygon fill="#bfbfbf" stroke="black" points="0,-0.5 0,-30.5 124,-30.5 124,-0.5 0,-0.5"/>
<text text-anchor="start" x="8" y="-18.5" font-family="Helvetica,sans-Serif" font-size="10.00">carla::client::detail</text>
<text text-anchor="middle" x="62" y="-7.5" font-family="Helvetica,sans-Serif" font-size="10.00">::Client::Pimpl::RawCall</text>
</g>
<!-- Node2 -->
<g id="node2" class="node"><title>Node2</title>
<g id="a_node2"><a xlink:href="../../dc/de1/classcarla_1_1client_1_1detail_1_1Client_1_1Pimpl.html#a72502b9e7407daf6cb5b930f9992fdc3" target="_top" xlink:title="carla::client::detail\l::Client::Pimpl::CallAndWait">
<polygon fill="white" stroke="black" points="160,-0.5 160,-30.5 303,-30.5 303,-0.5 160,-0.5"/>
<text text-anchor="start" x="168" y="-18.5" font-family="Helvetica,sans-Serif" font-size="10.00">carla::client::detail</text>
<text text-anchor="middle" x="231.5" y="-7.5" font-family="Helvetica,sans-Serif" font-size="10.00">::Client::Pimpl::CallAndWait</text>
</a>
</g>
</g>
<!-- Node1&#45;&gt;Node2 -->
<g id="edge1" class="edge"><title>Node1&#45;&gt;Node2</title>
<path fill="none" stroke="midnightblue" d="M134.507,-15.5C142.864,-15.5 151.386,-15.5 159.732,-15.5"/>
<polygon fill="midnightblue" stroke="midnightblue" points="134.42,-12.0001 124.42,-15.5 134.42,-19.0001 134.42,-12.0001"/>
</g>
</g>
</svg>
