<?xml version="1.0" encoding="UTF-8" standalone="no"?>
<!DOCTYPE svg PUBLIC "-//W3C//DTD SVG 1.1//EN"
 "http://www.w3.org/Graphics/SVG/1.1/DTD/svg11.dtd">
<!-- Generated by graphviz version 2.38.0 (20140413.2041)
 -->
<!-- Title: carla::client::detail::ActorVariant::Get Pages: 1 -->
<svg width="597pt" height="88pt"
 viewBox="0.00 0.00 597.00 88.00" xmlns="http://www.w3.org/2000/svg" xmlns:xlink="http://www.w3.org/1999/xlink">
<g id="graph0" class="graph" transform="scale(1 1) rotate(0) translate(4 84)">
<title>carla::client::detail::ActorVariant::Get</title>
<polygon fill="white" stroke="none" points="-4,4 -4,-84 593,-84 593,4 -4,4"/>
<!-- Node1 -->
<g id="node1" class="node"><title>Node1</title>
<polygon fill="#bfbfbf" stroke="black" points="0,-24.5 0,-54.5 105,-54.5 105,-24.5 0,-24.5"/>
<text text-anchor="start" x="8" y="-42.5" font-family="Helvetica,sans-Serif" font-size="10.00">carla::client::detail</text>
<text text-anchor="middle" x="52.5" y="-31.5" font-family="Helvetica,sans-Serif" font-size="10.00">::ActorVariant::Get</text>
</g>
<!-- Node2 -->
<g id="node2" class="node"><title>Node2</title>
<g id="a_node2"><a xlink:href="../../d4/dad/classcarla_1_1client_1_1detail_1_1ActorVariant.html#a8558a12a5ee445728408ae5916d8d963" target="_top" xlink:title="carla::client::detail\l::ActorVariant::MakeActor">
<polygon fill="white" stroke="black" points="141,-24.5 141,-54.5 280,-54.5 280,-24.5 141,-24.5"/>
<text text-anchor="start" x="149" y="-42.5" font-family="Helvetica,sans-Serif" font-size="10.00">carla::client::detail</text>
<text text-anchor="middle" x="210.5" y="-31.5" font-family="Helvetica,sans-Serif" font-size="10.00">::ActorVariant::MakeActor</text>
</a>
</g>
</g>
<!-- Node1&#45;&gt;Node2 -->
<g id="edge1" class="edge"><title>Node1&#45;&gt;Node2</title>
<path fill="none" stroke="midnightblue" d="M105.013,-39.5C113.241,-39.5 121.916,-39.5 130.606,-39.5"/>
<polygon fill="midnightblue" stroke="midnightblue" points="130.788,-43.0001 140.788,-39.5 130.788,-36.0001 130.788,-43.0001"/>
</g>
<!-- Node3 -->
<g id="node3" class="node"><title>Node3</title>
<g id="a_node3"><a xlink:href="../../d8/d4b/classcarla_1_1client_1_1detail_1_1ActorFactory.html#a35ca6b1f59d086fa27630c9f818cf843" target="_top" xlink:title="Create an Actor based on the provided actor_description. ">
<polygon fill="white" stroke="black" points="316,-24.5 316,-54.5 455,-54.5 455,-24.5 316,-24.5"/>
<text text-anchor="start" x="324" y="-42.5" font-family="Helvetica,sans-Serif" font-size="10.00">carla::client::detail</text>
<text text-anchor="middle" x="385.5" y="-31.5" font-family="Helvetica,sans-Serif" font-size="10.00">::ActorFactory::MakeActor</text>
</a>
</g>
</g>
<!-- Node2&#45;&gt;Node3 -->
<g id="edge2" class="edge"><title>Node2&#45;&gt;Node3</title>
<path fill="none" stroke="midnightblue" d="M280.371,-39.5C288.678,-39.5 297.211,-39.5 305.647,-39.5"/>
<polygon fill="midnightblue" stroke="midnightblue" points="305.866,-43.0001 315.866,-39.5 305.866,-36.0001 305.866,-43.0001"/>
</g>
<!-- Node4 -->
<g id="node4" class="node"><title>Node4</title>
<g id="a_node4"><a xlink:href="../../db/dfd/classcarla_1_1rpc_1_1Actor.html#add4056ed57cab459243952d7e54260b3" target="_top" xlink:title="carla::rpc::Actor::\lHasAStream">
<polygon fill="white" stroke="black" points="491,-49.5 491,-79.5 589,-79.5 589,-49.5 491,-49.5"/>
<text text-anchor="start" x="499" y="-67.5" font-family="Helvetica,sans-Serif" font-size="10.00">carla::rpc::Actor::</text>
<text text-anchor="middle" x="540" y="-56.5" font-family="Helvetica,sans-Serif" font-size="10.00">HasAStream</text>
</a>
</g>
</g>
<!-- Node3&#45;&gt;Node4 -->
<g id="edge3" class="edge"><title>Node3&#45;&gt;Node4</title>
<path fill="none" stroke="midnightblue" d="M455.166,-50.7567C463.709,-52.1572 472.381,-53.5788 480.745,-54.9501"/>
<polygon fill="midnightblue" stroke="midnightblue" points="480.333,-58.4291 490.768,-56.5931 481.466,-51.5213 480.333,-58.4291"/>
</g>
<!-- Node5 -->
<g id="node5" class="node"><title>Node5</title>
<g id="a_node5"><a xlink:href="../../de/d93/classcarla_1_1StringUtil.html#afa9750d2d007ece06fb6f51311a4d7ba" target="_top" xlink:title="carla::StringUtil::\lStartsWith">
<polygon fill="white" stroke="black" points="492,-0.5 492,-30.5 588,-30.5 588,-0.5 492,-0.5"/>
<text text-anchor="start" x="500" y="-18.5" font-family="Helvetica,sans-Serif" font-size="10.00">carla::StringUtil::</text>
<text text-anchor="middle" x="540" y="-7.5" font-family="Helvetica,sans-Serif" font-size="10.00">StartsWith</text>
</a>
</g>
</g>
<!-- Node3&#45;&gt;Node5 -->
<g id="edge4" class="edge"><title>Node3&#45;&gt;Node5</title>
<path fill="none" stroke="midnightblue" d="M455.166,-28.6936C464.03,-27.2985 473.033,-25.8817 481.688,-24.5197"/>
<polygon fill="midnightblue" stroke="midnightblue" points="482.325,-27.9626 491.659,-22.9504 481.236,-21.0477 482.325,-27.9626"/>
</g>
</g>
</svg>
