<?xml version="1.0" encoding="UTF-8" standalone="no"?>
<!DOCTYPE svg PUBLIC "-//W3C//DTD SVG 1.1//EN"
 "http://www.w3.org/Graphics/SVG/1.1/DTD/svg11.dtd">
<!-- Generated by graphviz version 2.40.1 (20161225.0304)
 -->
<!-- Title: FActorRegistry::Num Pages: 1 -->
<svg width="1648pt" height="107pt"
 viewBox="0.00 0.00 1648.00 107.00" xmlns="http://www.w3.org/2000/svg" xmlns:xlink="http://www.w3.org/1999/xlink">
<g id="graph0" class="graph" transform="scale(1 1) rotate(0) translate(4 103)">
<title>FActorRegistry::Num</title>
<polygon fill="#ffffff" stroke="transparent" points="-4,4 -4,-103 1644,-103 1644,4 -4,4"/>
<!-- Node387 -->
<g id="node1" class="node">
<title>Node387</title>
<polygon fill="#bfbfbf" stroke="#000000" points="0,-19.5 0,-38.5 115,-38.5 115,-19.5 0,-19.5"/>
<text text-anchor="middle" x="57.5" y="-26.5" font-family="Helvetica,sans-Serif" font-size="10.00" fill="#000000">FActorRegistry::Num</text>
</g>
<!-- Node388 -->
<g id="node2" class="node">
<title>Node388</title>
<g id="a_node2"><a xlink:href="../../d9/de7/WorldObserver_8cpp.html#a55e677eb5bd393082eef8383920b2fde" target="_top" xlink:title="FWorldObserver_Serialize">
<polygon fill="#ffffff" stroke="#000000" points="151,-38.5 151,-57.5 292,-57.5 292,-38.5 151,-38.5"/>
<text text-anchor="middle" x="221.5" y="-45.5" font-family="Helvetica,sans-Serif" font-size="10.00" fill="#000000">FWorldObserver_Serialize</text>
</a>
</g>
</g>
<!-- Node387&#45;&gt;Node388 -->
<g id="edge1" class="edge">
<title>Node387&#45;&gt;Node388</title>
<path fill="none" stroke="#191970" d="M125.4674,-36.8743C133.8894,-37.85 142.5149,-38.8493 150.9742,-39.8293"/>
<polygon fill="#191970" stroke="#191970" points="125.6566,-33.3729 115.3203,-35.6987 124.851,-40.3264 125.6566,-33.3729"/>
</g>
<!-- Node399 -->
<g id="node13" class="node">
<title>Node399</title>
<g id="a_node13"><a xlink:href="../../df/db5/classFActorRegistry.html#a45ea64818b977c10404024171a79f48e" target="_top" xlink:title="FActorRegistry::IsEmpty">
<polygon fill="#ffffff" stroke="#000000" points="156,-.5 156,-19.5 287,-19.5 287,-.5 156,-.5"/>
<text text-anchor="middle" x="221.5" y="-7.5" font-family="Helvetica,sans-Serif" font-size="10.00" fill="#000000">FActorRegistry::IsEmpty</text>
</a>
</g>
</g>
<!-- Node387&#45;&gt;Node399 -->
<g id="edge13" class="edge">
<title>Node387&#45;&gt;Node399</title>
<path fill="none" stroke="#191970" d="M125.2875,-21.1466C135.3771,-19.9777 145.7627,-18.7744 155.8081,-17.6106"/>
<polygon fill="#191970" stroke="#191970" points="124.851,-17.6736 115.3203,-22.3013 125.6566,-24.6271 124.851,-17.6736"/>
</g>
<!-- Node389 -->
<g id="node3" class="node">
<title>Node389</title>
<g id="a_node3"><a xlink:href="../../da/d9b/classFWorldObserver.html#ad866b204499b7d2252661e39bcff1811" target="_top" xlink:title="Send a message to every connected client with the info about the given Episode. ">
<polygon fill="#ffffff" stroke="#000000" points="328,-38.5 328,-57.5 497,-57.5 497,-38.5 328,-38.5"/>
<text text-anchor="middle" x="412.5" y="-45.5" font-family="Helvetica,sans-Serif" font-size="10.00" fill="#000000">FWorldObserver::BroadcastTick</text>
</a>
</g>
</g>
<!-- Node388&#45;&gt;Node389 -->
<g id="edge2" class="edge">
<title>Node388&#45;&gt;Node389</title>
<path fill="none" stroke="#191970" d="M302.3312,-48C310.8161,-48 319.4592,-48 327.984,-48"/>
<polygon fill="#191970" stroke="#191970" points="302.0787,-44.5001 292.0787,-48 302.0787,-51.5001 302.0787,-44.5001"/>
</g>
<!-- Node390 -->
<g id="node4" class="node">
<title>Node390</title>
<g id="a_node4"><a xlink:href="../../dc/d49/classFCarlaEngine.html#aff440c7ba9d004e4c5b60125cc4d709b" target="_top" xlink:title="FCarlaEngine::OnPostTick">
<polygon fill="#ffffff" stroke="#000000" points="535.5,-57.5 535.5,-76.5 676.5,-76.5 676.5,-57.5 535.5,-57.5"/>
<text text-anchor="middle" x="606" y="-64.5" font-family="Helvetica,sans-Serif" font-size="10.00" fill="#000000">FCarlaEngine::OnPostTick</text>
</a>
</g>
</g>
<!-- Node389&#45;&gt;Node390 -->
<g id="edge3" class="edge">
<title>Node389&#45;&gt;Node390</title>
<path fill="none" stroke="#191970" d="M507.0428,-57.2833C516.6183,-58.2235 526.2225,-59.1666 535.4802,-60.0756"/>
<polygon fill="#191970" stroke="#191970" points="507.3846,-53.8001 497.0904,-56.306 506.7005,-60.7666 507.3846,-53.8001"/>
</g>
<!-- Node398 -->
<g id="node12" class="node">
<title>Node398</title>
<g id="a_node12"><a xlink:href="../../da/d9b/classFWorldObserver.html#a6a9ceda97152eb6931a1d4f20123a2ac" target="_top" xlink:title="Return the token that allows subscribing to this sensor&#39;s stream. ">
<polygon fill="#ffffff" stroke="#000000" points="533,-19.5 533,-38.5 679,-38.5 679,-19.5 533,-19.5"/>
<text text-anchor="middle" x="606" y="-26.5" font-family="Helvetica,sans-Serif" font-size="10.00" fill="#000000">FWorldObserver::GetToken</text>
</a>
</g>
</g>
<!-- Node389&#45;&gt;Node398 -->
<g id="edge12" class="edge">
<title>Node389&#45;&gt;Node398</title>
<path fill="none" stroke="#191970" d="M507.1724,-38.704C515.7833,-37.8585 524.4162,-37.0108 532.798,-36.1878"/>
<polygon fill="#191970" stroke="#191970" points="506.7005,-35.2334 497.0904,-39.694 507.3846,-42.1999 506.7005,-35.2334"/>
</g>
<!-- Node391 -->
<g id="node5" class="node">
<title>Node391</title>
<g id="a_node5"><a xlink:href="../../dc/d49/classFCarlaEngine.html#ab8d13063cde985781237dd7da308227e" target="_top" xlink:title="FCarlaEngine::NotifyInitGame">
<polygon fill="#ffffff" stroke="#000000" points="715,-79.5 715,-98.5 876,-98.5 876,-79.5 715,-79.5"/>
<text text-anchor="middle" x="795.5" y="-86.5" font-family="Helvetica,sans-Serif" font-size="10.00" fill="#000000">FCarlaEngine::NotifyInitGame</text>
</a>
</g>
</g>
<!-- Node390&#45;&gt;Node391 -->
<g id="edge4" class="edge">
<title>Node390&#45;&gt;Node391</title>
<path fill="none" stroke="#191970" d="M686.6514,-76.3632C696.0336,-77.4524 705.6044,-78.5636 714.9847,-79.6526"/>
<polygon fill="#191970" stroke="#191970" points="686.8997,-72.8686 676.5628,-75.192 686.0924,-79.8219 686.8997,-72.8686"/>
</g>
<!-- Node392 -->
<g id="node6" class="node">
<title>Node392</title>
<g id="a_node6"><a xlink:href="../../dc/d49/classFCarlaEngine.html#a4dfd3b01c0b1413b4f69fda71efc25ce" target="_top" xlink:title="FCarlaEngine::ResetFrame\lCounter">
<polygon fill="#ffffff" stroke="#000000" points="724,-30 724,-60 867,-60 867,-30 724,-30"/>
<text text-anchor="start" x="732" y="-48" font-family="Helvetica,sans-Serif" font-size="10.00" fill="#000000">FCarlaEngine::ResetFrame</text>
<text text-anchor="middle" x="795.5" y="-37" font-family="Helvetica,sans-Serif" font-size="10.00" fill="#000000">Counter</text>
</a>
</g>
</g>
<!-- Node390&#45;&gt;Node392 -->
<g id="edge5" class="edge">
<title>Node390&#45;&gt;Node392</title>
<path fill="none" stroke="#191970" d="M686.8276,-57.6163C699.1602,-56.1846 711.8144,-54.7155 723.9299,-53.3089"/>
<polygon fill="#191970" stroke="#191970" points="686.0924,-54.1781 676.5628,-58.808 686.8997,-61.1314 686.0924,-54.1781"/>
</g>
<!-- Node393 -->
<g id="node7" class="node">
<title>Node393</title>
<g id="a_node7"><a xlink:href="../../dc/d49/classFCarlaEngine.html#ab4c918e4d4855a26ab57c4bb79ad4645" target="_top" xlink:title="FCarlaEngine::NotifyBegin\lEpisode">
<polygon fill="#ffffff" stroke="#000000" points="922.5,-52 922.5,-82 1066.5,-82 1066.5,-52 922.5,-52"/>
<text text-anchor="start" x="930.5" y="-70" font-family="Helvetica,sans-Serif" font-size="10.00" fill="#000000">FCarlaEngine::NotifyBegin</text>
<text text-anchor="middle" x="994.5" y="-59" font-family="Helvetica,sans-Serif" font-size="10.00" fill="#000000">Episode</text>
</a>
</g>
</g>
<!-- Node392&#45;&gt;Node393 -->
<g id="edge6" class="edge">
<title>Node392&#45;&gt;Node393</title>
<path fill="none" stroke="#191970" d="M877.2756,-54.0405C892.1792,-55.6882 907.631,-57.3964 922.2349,-59.0109"/>
<polygon fill="#191970" stroke="#191970" points="877.3865,-50.5315 867.0624,-52.9114 876.6172,-57.4891 877.3865,-50.5315"/>
</g>
<!-- Node394 -->
<g id="node8" class="node">
<title>Node394</title>
<g id="a_node8"><a xlink:href="../../de/db4/classFFrameData.html#a58809cab8ccb22f75c9765869ae136ae" target="_top" xlink:title="FFrameData::SetFrameCounter">
<polygon fill="#ffffff" stroke="#000000" points="912,-13.5 912,-32.5 1077,-32.5 1077,-13.5 912,-13.5"/>
<text text-anchor="middle" x="994.5" y="-20.5" font-family="Helvetica,sans-Serif" font-size="10.00" fill="#000000">FFrameData::SetFrameCounter</text>
</a>
</g>
</g>
<!-- Node392&#45;&gt;Node394 -->
<g id="edge7" class="edge">
<title>Node392&#45;&gt;Node394</title>
<path fill="none" stroke="#191970" d="M877.0246,-35.9872C888.4753,-34.7213 900.2545,-33.4191 911.7281,-32.1507"/>
<polygon fill="#191970" stroke="#191970" points="876.6172,-32.5108 867.0624,-37.0886 877.3865,-39.4685 876.6172,-32.5108"/>
</g>
<!-- Node395 -->
<g id="node9" class="node">
<title>Node395</title>
<g id="a_node9"><a xlink:href="../../de/db4/classFFrameData.html#aa23cccda1659af6f10264e73a73c1e27" target="_top" xlink:title="FFrameData::PlayFrameData">
<polygon fill="#ffffff" stroke="#000000" points="1113,-32.5 1113,-51.5 1268,-51.5 1268,-32.5 1113,-32.5"/>
<text text-anchor="middle" x="1190.5" y="-39.5" font-family="Helvetica,sans-Serif" font-size="10.00" fill="#000000">FFrameData::PlayFrameData</text>
</a>
</g>
</g>
<!-- Node394&#45;&gt;Node395 -->
<g id="edge8" class="edge">
<title>Node394&#45;&gt;Node395</title>
<path fill="none" stroke="#191970" d="M1087.0856,-31.9751C1095.6666,-32.807 1104.3032,-33.6442 1112.731,-34.4612"/>
<polygon fill="#191970" stroke="#191970" points="1087.3447,-28.4839 1077.0536,-31.0026 1086.6692,-35.4513 1087.3447,-28.4839"/>
</g>
<!-- Node396 -->
<g id="node10" class="node">
<title>Node396</title>
<g id="a_node10"><a xlink:href="../../de/db4/classFFrameData.html#ab520e8c971f0fa7e95258e6675c6e10c" target="_top" xlink:title="FFrameData::SetEpisode">
<polygon fill="#ffffff" stroke="#000000" points="1304,-13.5 1304,-32.5 1439,-32.5 1439,-13.5 1304,-13.5"/>
<text text-anchor="middle" x="1371.5" y="-20.5" font-family="Helvetica,sans-Serif" font-size="10.00" fill="#000000">FFrameData::SetEpisode</text>
</a>
</g>
</g>
<!-- Node394&#45;&gt;Node396 -->
<g id="edge11" class="edge">
<title>Node394&#45;&gt;Node396</title>
<path fill="none" stroke="#191970" d="M1087.3751,-23C1154.3937,-23 1243.3487,-23 1303.7454,-23"/>
<polygon fill="#191970" stroke="#191970" points="1087.2343,-19.5001 1077.2342,-23 1087.2342,-26.5001 1087.2343,-19.5001"/>
</g>
<!-- Node395&#45;&gt;Node396 -->
<g id="edge9" class="edge">
<title>Node395&#45;&gt;Node396</title>
<path fill="none" stroke="#191970" d="M1278.1403,-32.8002C1286.7671,-31.8946 1295.4285,-30.9854 1303.8107,-30.1055"/>
<polygon fill="#191970" stroke="#191970" points="1277.6279,-29.3347 1268.048,-33.8596 1278.3587,-36.2964 1277.6279,-29.3347"/>
</g>
<!-- Node397 -->
<g id="node11" class="node">
<title>Node397</title>
<g id="a_node11"><a xlink:href="../../dc/d84/classUCarlaEpisode.html#a2f0288d27d5fd7c84c33ebad36621cc7" target="_top" xlink:title="UCarlaEpisode::UCarlaEpisode">
<polygon fill="#ffffff" stroke="#000000" points="1475,-13.5 1475,-32.5 1640,-32.5 1640,-13.5 1475,-13.5"/>
<text text-anchor="middle" x="1557.5" y="-20.5" font-family="Helvetica,sans-Serif" font-size="10.00" fill="#000000">UCarlaEpisode::UCarlaEpisode</text>
</a>
</g>
</g>
<!-- Node396&#45;&gt;Node397 -->
<g id="edge10" class="edge">
<title>Node396&#45;&gt;Node397</title>
<path fill="none" stroke="#191970" d="M1449.3889,-23C1457.8469,-23 1466.4762,-23 1474.9869,-23"/>
<polygon fill="#191970" stroke="#191970" points="1449.1765,-19.5001 1439.1764,-23 1449.1764,-26.5001 1449.1765,-19.5001"/>
</g>
</g>
</svg>
