<?xml version="1.0" encoding="UTF-8" standalone="no"?>
<!DOCTYPE svg PUBLIC "-//W3C//DTD SVG 1.1//EN"
 "http://www.w3.org/Graphics/SVG/1.1/DTD/svg11.dtd">
<!-- Generated by graphviz version 2.38.0 (20140413.2041)
 -->
<!-- Title: carla::rpc::Command::ApplyVehicleControl Pages: 1 -->
<!--zoomable 182 -->
<svg id="main" version="1.1" xmlns="http://www.w3.org/2000/svg" xmlns:xlink="http://www.w3.org/1999/xlink" xml:space="preserve" onload="init(evt)">
<style type="text/css"><![CDATA[
.edge:hover path { stroke: red; }
.edge:hover polygon { stroke: red; fill: red; }
]]></style>
<script type="text/javascript"><![CDATA[
var edges = document.getElementsByTagName('g');
if (edges && edges.length) {
  for (var i=0;i<edges.length;i++) {
    if (edges[i].id.substr(0,4)=='edge') {
      edges[i].setAttribute('class','edge');
    }
  }
}
]]></script>
        <defs>
                <circle id="rim" cx="0" cy="0" r="7"/>
                <circle id="rim2" cx="0" cy="0" r="3.5"/>
                <g id="zoomPlus">
                        <use xlink:href="#rim" fill="#404040">
                                <set attributeName="fill" to="#808080" begin="zoomplus.mouseover" end="zoomplus.mouseout"/>
                        </use>
                        <path d="M-4,0h8M0,-4v8" fill="none" stroke="white" stroke-width="1.5" pointer-events="none"/>
                </g>
                <g id="zoomMin">
                        <use xlink:href="#rim" fill="#404040">
                                <set attributeName="fill" to="#808080" begin="zoomminus.mouseover" end="zoomminus.mouseout"/>
                        </use>
                        <path d="M-4,0h8" fill="none" stroke="white" stroke-width="1.5" pointer-events="none"/>
                </g>
                <g id="dirArrow">
                        <path fill="none" stroke="white" stroke-width="1.5" d="M0,-3.0v7 M-2.5,-0.5L0,-3.0L2.5,-0.5"/>
                </g>
               <g id="resetDef">
                       <use xlink:href="#rim2" fill="#404040">
                               <set attributeName="fill" to="#808080" begin="reset.mouseover" end="reset.mouseout"/>
                       </use>
               </g>
        </defs>

<script type="text/javascript">
var viewWidth = 648;
var viewHeight = 182;
var sectionId = 'dynsection-1';
</script>
<script xlink:href="../../svgpan.js"/>
<svg id="graph" class="graph">
<g id="viewport">
<title>carla::rpc::Command::ApplyVehicleControl</title>
<polygon fill="white" stroke="none" points="-4,4 -4,-177.5 644,-177.5 644,4 -4,4"/>
<!-- Node1 -->
<g id="node1" class="node"><title>Node1</title>
<polygon fill="#bfbfbf" stroke="black" points="523,-61 523,-91 640,-91 640,-61 523,-61"/>
<text text-anchor="start" x="531" y="-79" font-family="Helvetica,sans-Serif" font-size="10.00">carla::rpc::Command</text>
<text text-anchor="middle" x="581.5" y="-68" font-family="Helvetica,sans-Serif" font-size="10.00">::ApplyVehicleControl</text>
</g>
<!-- Node2 -->
<g id="node2" class="node"><title>Node2</title>
<g id="a_node2"><a xlink:href="../../d0/d4c/structcarla_1_1rpc_1_1Command_1_1CommandBase.html" target="_top" xlink:title="carla::rpc::Command\l::CommandBase\&lt; ApplyVehicle\lControl \&gt;">
<polygon fill="white" stroke="black" points="282,-124.5 282,-165.5 450,-165.5 450,-124.5 282,-124.5"/>
<text text-anchor="start" x="290" y="-153.5" font-family="Helvetica,sans-Serif" font-size="10.00">carla::rpc::Command</text>
<text text-anchor="start" x="290" y="-142.5" font-family="Helvetica,sans-Serif" font-size="10.00">::CommandBase&lt; ApplyVehicle</text>
<text text-anchor="middle" x="366" y="-131.5" font-family="Helvetica,sans-Serif" font-size="10.00">Control &gt;</text>
</a>
</g>
</g>
<!-- Node2&#45;&gt;Node1 -->
<g id="edge1" class="edge"><title>Node2&#45;&gt;Node1</title>
<path fill="none" stroke="midnightblue" d="M440.379,-121.285C471.369,-111.269 506.531,-99.9056 533.879,-91.0671"/>
<polygon fill="midnightblue" stroke="midnightblue" points="438.918,-118.079 430.479,-124.485 441.071,-124.74 438.918,-118.079"/>
</g>
<!-- Node3 -->
<g id="node3" class="node"><title>Node3</title>
<g id="a_node3"><a xlink:href="../../d0/d4c/structcarla_1_1rpc_1_1Command_1_1CommandBase.html" target="_top" xlink:title="carla::rpc::Command\l::CommandBase\&lt; T \&gt;">
<polygon fill="white" stroke="black" points="0,-143 0,-173 125,-173 125,-143 0,-143"/>
<text text-anchor="start" x="8" y="-161" font-family="Helvetica,sans-Serif" font-size="10.00">carla::rpc::Command</text>
<text text-anchor="middle" x="62.5" y="-150" font-family="Helvetica,sans-Serif" font-size="10.00">::CommandBase&lt; T &gt;</text>
</a>
</g>
</g>
<!-- Node3&#45;&gt;Node2 -->
<g id="edge2" class="edge"><title>Node3&#45;&gt;Node2</title>
<path fill="none" stroke="orange" stroke-dasharray="5,2" d="M135.295,-154.904C179.343,-153.005 235.92,-150.566 281.902,-148.583"/>
<polygon fill="orange" stroke="orange" points="135.08,-151.41 125.241,-155.338 135.382,-158.404 135.08,-151.41"/>
<text text-anchor="middle" x="203.5" y="-158" font-family="Helvetica,sans-Serif" font-size="10.00"> &lt; ApplyVehicleControl &gt;</text>
</g>
<!-- Node4 -->
<g id="node4" class="node"><title>Node4</title>
<g id="a_node4"><a xlink:href="../../d3/d9c/classcarla_1_1rpc_1_1VehicleControl.html" target="_top" xlink:title="carla::rpc::VehicleControl">
<polygon fill="white" stroke="black" points="298.5,-66.5 298.5,-85.5 433.5,-85.5 433.5,-66.5 298.5,-66.5"/>
<text text-anchor="middle" x="366" y="-73.5" font-family="Helvetica,sans-Serif" font-size="10.00">carla::rpc::VehicleControl</text>
</a>
</g>
</g>
<!-- Node4&#45;&gt;Node1 -->
<g id="edge3" class="edge"><title>Node4&#45;&gt;Node1</title>
<path fill="none" stroke="#9a32cd" stroke-dasharray="5,2" d="M443.909,-76C469.992,-76 498.66,-76 522.969,-76"/>
<polygon fill="#9a32cd" stroke="#9a32cd" points="443.675,-72.5001 433.675,-76 443.674,-79.5001 443.675,-72.5001"/>
<text text-anchor="middle" x="486.5" y="-79" font-family="Helvetica,sans-Serif" font-size="10.00"> control</text>
</g>
<!-- Node5 -->
<g id="node5" class="node"><title>Node5</title>
<polygon fill="white" stroke="#bfbfbf" points="43.5,-93.5 43.5,-112.5 81.5,-112.5 81.5,-93.5 43.5,-93.5"/>
<text text-anchor="middle" x="62.5" y="-100.5" font-family="Helvetica,sans-Serif" font-size="10.00">float</text>
</g>
<!-- Node5&#45;&gt;Node4 -->
<g id="edge4" class="edge"><title>Node5&#45;&gt;Node4</title>
<path fill="none" stroke="#9a32cd" stroke-dasharray="5,2" d="M91.9729,-100.45C138.946,-96.2436 233.897,-87.7406 298.477,-81.9573"/>
<polygon fill="#9a32cd" stroke="#9a32cd" points="91.5542,-96.9736 81.9063,-101.352 92.1787,-103.946 91.5542,-96.9736"/>
<text text-anchor="middle" x="203.5" y="-121" font-family="Helvetica,sans-Serif" font-size="10.00"> brake</text>
<text text-anchor="middle" x="203.5" y="-110" font-family="Helvetica,sans-Serif" font-size="10.00">steer</text>
<text text-anchor="middle" x="203.5" y="-99" font-family="Helvetica,sans-Serif" font-size="10.00">throttle</text>
</g>
<!-- Node6 -->
<g id="node6" class="node"><title>Node6</title>
<polygon fill="white" stroke="#bfbfbf" points="37.5,-55.5 37.5,-74.5 87.5,-74.5 87.5,-55.5 37.5,-55.5"/>
<text text-anchor="middle" x="62.5" y="-62.5" font-family="Helvetica,sans-Serif" font-size="10.00">int32_t</text>
</g>
<!-- Node6&#45;&gt;Node4 -->
<g id="edge5" class="edge"><title>Node6&#45;&gt;Node4</title>
<path fill="none" stroke="#9a32cd" stroke-dasharray="5,2" d="M97.837,-65.1712C137.779,-65.4896 205.696,-66.3995 264,-69 275.15,-69.4973 286.983,-70.1786 298.474,-70.922"/>
<polygon fill="#9a32cd" stroke="#9a32cd" points="97.6103,-61.6696 87.5854,-65.0977 97.5601,-68.6694 97.6103,-61.6696"/>
<text text-anchor="middle" x="203.5" y="-72" font-family="Helvetica,sans-Serif" font-size="10.00"> gear</text>
</g>
<!-- Node7 -->
<g id="node7" class="node"><title>Node7</title>
<polygon fill="white" stroke="#bfbfbf" points="44,-0.5 44,-19.5 81,-19.5 81,-0.5 44,-0.5"/>
<text text-anchor="middle" x="62.5" y="-7.5" font-family="Helvetica,sans-Serif" font-size="10.00">bool</text>
</g>
<!-- Node7&#45;&gt;Node4 -->
<g id="edge6" class="edge"><title>Node7&#45;&gt;Node4</title>
<path fill="none" stroke="#9a32cd" stroke-dasharray="5,2" d="M91.2343,-5.44742C132.237,-0.208345 209.994,3.88634 264,-29 276.636,-36.6944 269.893,-48.4977 282,-57 287.444,-60.823 293.538,-63.8891 299.887,-66.3462"/>
<polygon fill="#9a32cd" stroke="#9a32cd" points="90.5853,-2.004 81.1657,-6.85378 91.5537,-8.9367 90.5853,-2.004"/>
<text text-anchor="middle" x="203.5" y="-54" font-family="Helvetica,sans-Serif" font-size="10.00"> reverse</text>
<text text-anchor="middle" x="203.5" y="-43" font-family="Helvetica,sans-Serif" font-size="10.00">hand_brake</text>
<text text-anchor="middle" x="203.5" y="-32" font-family="Helvetica,sans-Serif" font-size="10.00">manual_gear_shift</text>
</g>
<!-- Node8 -->
<g id="node8" class="node"><title>Node8</title>
<polygon fill="white" stroke="#bfbfbf" points="338,-28.5 338,-47.5 394,-47.5 394,-28.5 338,-28.5"/>
<text text-anchor="middle" x="366" y="-35.5" font-family="Helvetica,sans-Serif" font-size="10.00">uint32_t</text>
</g>
<!-- Node8&#45;&gt;Node1 -->
<g id="edge7" class="edge"><title>Node8&#45;&gt;Node1</title>
<path fill="none" stroke="#9a32cd" stroke-dasharray="5,2" d="M404.094,-43.8628C431.907,-48.3362 470.889,-54.7705 505,-61 510.784,-62.0564 516.811,-63.1928 522.825,-64.3504"/>
<polygon fill="#9a32cd" stroke="#9a32cd" points="404.443,-40.3741 394.015,-42.2489 403.336,-47.286 404.443,-40.3741"/>
<text text-anchor="middle" x="486.5" y="-64" font-family="Helvetica,sans-Serif" font-size="10.00"> actor</text>
</g>
</g>
</svg>
        <g id="navigator" transform="translate(0 0)" fill="#404254">
                <rect fill="#f2f5e9" fill-opacity="0.5" stroke="#606060" stroke-width=".5" x="0" y="0" width="60" height="60"/>
                <use id="zoomplus" xlink:href="#zoomPlus" x="17" y="9" onmousedown="handleZoom(evt,'in')"/>
                <use id="zoomminus" xlink:href="#zoomMin" x="42" y="9" onmousedown="handleZoom(evt,'out')"/>
                <use id="reset" xlink:href="#resetDef" x="30" y="36" onmousedown="handleReset()"/>
                <g id="arrowUp" xlink:href="#dirArrow" transform="translate(30 24)" onmousedown="handlePan(0,-1)">
                  <use xlink:href="#rim" fill="#404040">
                        <set attributeName="fill" to="#808080" begin="arrowUp.mouseover" end="arrowUp.mouseout"/>
                  </use>
                  <path fill="none" stroke="white" stroke-width="1.5" d="M0,-3.0v7 M-2.5,-0.5L0,-3.0L2.5,-0.5"/>
                </g>
                <g id="arrowRight" xlink:href="#dirArrow" transform="rotate(90) translate(36 -43)" onmousedown="handlePan(1,0)">
                  <use xlink:href="#rim" fill="#404040">
                        <set attributeName="fill" to="#808080" begin="arrowRight.mouseover" end="arrowRight.mouseout"/>
                  </use>
                  <path fill="none" stroke="white" stroke-width="1.5" d="M0,-3.0v7 M-2.5,-0.5L0,-3.0L2.5,-0.5"/>
                </g>
                <g id="arrowDown" xlink:href="#dirArrow" transform="rotate(180) translate(-30 -48)" onmousedown="handlePan(0,1)">
                  <use xlink:href="#rim" fill="#404040">
                        <set attributeName="fill" to="#808080" begin="arrowDown.mouseover" end="arrowDown.mouseout"/>
                  </use>
                  <path fill="none" stroke="white" stroke-width="1.5" d="M0,-3.0v7 M-2.5,-0.5L0,-3.0L2.5,-0.5"/>
                </g>
                <g id="arrowLeft" xlink:href="#dirArrow" transform="rotate(270) translate(-36 17)" onmousedown="handlePan(-1,0)">
                  <use xlink:href="#rim" fill="#404040">
                        <set attributeName="fill" to="#808080" begin="arrowLeft.mouseover" end="arrowLeft.mouseout"/>
                  </use>
                  <path fill="none" stroke="white" stroke-width="1.5" d="M0,-3.0v7 M-2.5,-0.5L0,-3.0L2.5,-0.5"/>
                </g>
        </g>
        <svg viewBox="0 0 15 15" width="100%" height="30px" preserveAspectRatio="xMaxYMin meet">
         <g id="arrow_out" transform="scale(0.3 0.3)">
          <a xlink:href="structcarla_1_1rpc_1_1Command_1_1ApplyVehicleControl__coll__graph_org.svg" target="_base">
           <rect id="button" ry="5" rx="5" y="6" x="6" height="38" width="38"
                fill="#f2f5e9" fill-opacity="0.5" stroke="#606060" stroke-width="1.0"/>
           <path id="arrow"
             d="M 11.500037,31.436501 C 11.940474,20.09759 22.043105,11.32322 32.158766,21.979434 L 37.068811,17.246167 C 37.068811,17.246167 37.088388,32 37.088388,32 L 22.160133,31.978069 C 22.160133,31.978069 26.997745,27.140456 26.997745,27.140456 C 18.528582,18.264221 13.291696,25.230495 11.500037,31.436501 z"
             style="fill:#404040;"/>
          </a>
         </g>
        </svg>
</svg>
