<?xml version="1.0" encoding="UTF-8" standalone="no"?>
<!DOCTYPE svg PUBLIC "-//W3C//DTD SVG 1.1//EN"
 "http://www.w3.org/Graphics/SVG/1.1/DTD/svg11.dtd">
<!-- Generated by graphviz version 2.43.0 (0)
 -->
<!-- Title: carla::sensor::s11n::LidarSerializer::GetHeaderOffset Pages: 1 -->
<svg width="808pt" height="50pt"
 viewBox="0.00 0.00 808.00 50.00" xmlns="http://www.w3.org/2000/svg" xmlns:xlink="http://www.w3.org/1999/xlink">
<g id="graph0" class="graph" transform="scale(1 1) rotate(0) translate(4 46)">
<title>carla::sensor::s11n::LidarSerializer::GetHeaderOffset</title>
<polygon fill="white" stroke="transparent" points="-4,4 -4,-46 804,-46 804,4 -4,4"/>
<!-- Node1 -->
<g id="node1" class="node">
<title>Node1</title>
<g id="a_node1"><a xlink:title=" ">
<polygon fill="#bfbfbf" stroke="black" points="0,-0.5 0,-41.5 151,-41.5 151,-0.5 0,-0.5"/>
<text text-anchor="start" x="8" y="-29.5" font-family="Helvetica,sans-Serif" font-size="10.00">carla::sensor::s11n</text>
<text text-anchor="start" x="8" y="-18.5" font-family="Helvetica,sans-Serif" font-size="10.00">::LidarSerializer::GetHeader</text>
<text text-anchor="middle" x="75.5" y="-7.5" font-family="Helvetica,sans-Serif" font-size="10.00">Offset</text>
</a>
</g>
</g>
<!-- Node2 -->
<g id="node2" class="node">
<title>Node2</title>
<g id="a_node2"><a xlink:href="../../dc/d6a/classcarla_1_1sensor_1_1s11n_1_1LidarSerializer.html#ae5a49baca70ce28ef427df4e6a9c9be1" target="_top" xlink:title=" ">
<polygon fill="white" stroke="black" points="187,-0.5 187,-41.5 340,-41.5 340,-0.5 187,-0.5"/>
<text text-anchor="start" x="195" y="-29.5" font-family="Helvetica,sans-Serif" font-size="10.00">carla::sensor::s11n</text>
<text text-anchor="start" x="195" y="-18.5" font-family="Helvetica,sans-Serif" font-size="10.00">::LidarSerializer::Deserialize</text>
<text text-anchor="middle" x="263.5" y="-7.5" font-family="Helvetica,sans-Serif" font-size="10.00">Header</text>
</a>
</g>
</g>
<!-- Node1&#45;&gt;Node2 -->
<g id="edge1" class="edge">
<title>Node1&#45;&gt;Node2</title>
<path fill="none" stroke="midnightblue" d="M151.08,-21C159.58,-21 168.29,-21 176.92,-21"/>
<polygon fill="midnightblue" stroke="midnightblue" points="176.99,-24.5 186.99,-21 176.99,-17.5 176.99,-24.5"/>
</g>
<!-- Node3 -->
<g id="node3" class="node">
<title>Node3</title>
<g id="a_node3"><a xlink:href="../../d3/da0/classcarla_1_1sensor_1_1RawData.html#ad29c6a9698aa66f593286f5e6fc601ea" target="_top" xlink:title="Begin iterator to the data generated by the sensor.">
<polygon fill="white" stroke="black" points="376,-6 376,-36 505,-36 505,-6 376,-6"/>
<text text-anchor="start" x="384" y="-24" font-family="Helvetica,sans-Serif" font-size="10.00">carla::sensor::RawData</text>
<text text-anchor="middle" x="440.5" y="-13" font-family="Helvetica,sans-Serif" font-size="10.00">::begin</text>
</a>
</g>
</g>
<!-- Node2&#45;&gt;Node3 -->
<g id="edge2" class="edge">
<title>Node2&#45;&gt;Node3</title>
<path fill="none" stroke="midnightblue" d="M340.24,-21C348.71,-21 357.33,-21 365.78,-21"/>
<polygon fill="midnightblue" stroke="midnightblue" points="365.97,-24.5 375.97,-21 365.97,-17.5 365.97,-24.5"/>
</g>
<!-- Node4 -->
<g id="node4" class="node">
<title>Node4</title>
<g id="a_node4"><a xlink:href="../../d0/d0a/classcarla_1_1Buffer.html#a0afeda4355e6196d808ddf25142d5dbd" target="_top" xlink:title=" ">
<polygon fill="white" stroke="black" points="541,-11.5 541,-30.5 650,-30.5 650,-11.5 541,-11.5"/>
<text text-anchor="middle" x="595.5" y="-18.5" font-family="Helvetica,sans-Serif" font-size="10.00">carla::Buffer::begin</text>
</a>
</g>
</g>
<!-- Node3&#45;&gt;Node4 -->
<g id="edge3" class="edge">
<title>Node3&#45;&gt;Node4</title>
<path fill="none" stroke="midnightblue" d="M505.06,-21C513.46,-21 522.08,-21 530.49,-21"/>
<polygon fill="midnightblue" stroke="midnightblue" points="530.63,-24.5 540.63,-21 530.63,-17.5 530.63,-24.5"/>
</g>
<!-- Node5 -->
<g id="node5" class="node">
<title>Node5</title>
<g id="a_node5"><a xlink:href="../../d0/d0a/classcarla_1_1Buffer.html#acbf9f37162db2ddffaf2ae2bfb9fd8a5" target="_top" xlink:title=" ">
<polygon fill="white" stroke="black" points="686,-11.5 686,-30.5 800,-30.5 800,-11.5 686,-11.5"/>
<text text-anchor="middle" x="743" y="-18.5" font-family="Helvetica,sans-Serif" font-size="10.00">carla::Buffer::cbegin</text>
</a>
</g>
</g>
<!-- Node4&#45;&gt;Node5 -->
<g id="edge4" class="edge">
<title>Node4&#45;&gt;Node5</title>
<path fill="none" stroke="midnightblue" d="M650.27,-21C658.44,-21 666.95,-21 675.36,-21"/>
<polygon fill="midnightblue" stroke="midnightblue" points="675.53,-24.5 685.53,-21 675.53,-17.5 675.53,-24.5"/>
</g>
</g>
</svg>
