<?xml version="1.0" encoding="UTF-8" standalone="no"?>
<!DOCTYPE svg PUBLIC "-//W3C//DTD SVG 1.1//EN"
 "http://www.w3.org/Graphics/SVG/1.1/DTD/svg11.dtd">
<!-- Generated by graphviz version 2.40.1 (20161225.0304)
 -->
<!-- Title: FHttpDownloader::Run Pages: 1 -->
<svg width="655pt" height="56pt"
 viewBox="0.00 0.00 655.00 55.50" xmlns="http://www.w3.org/2000/svg" xmlns:xlink="http://www.w3.org/1999/xlink">
<g id="graph0" class="graph" transform="scale(1 1) rotate(0) translate(4 51.5)">
<title>FHttpDownloader::Run</title>
<polygon fill="#ffffff" stroke="transparent" points="-4,4 -4,-51.5 651,-51.5 651,4 -4,4"/>
<!-- Node8 -->
<g id="node1" class="node">
<title>Node8</title>
<polygon fill="#bfbfbf" stroke="#000000" points="0,-28 0,-47 125,-47 125,-28 0,-28"/>
<text text-anchor="middle" x="62.5" y="-35" font-family="Helvetica,sans-Serif" font-size="10.00" fill="#000000">FHttpDownloader::Run</text>
</g>
<!-- Node9 -->
<g id="node2" class="node">
<title>Node9</title>
<g id="a_node2"><a xlink:href="../../d8/dcd/namespacecarla_1_1client_1_1detail.html#a09f3c7aea15fa736fb973b5c4bb90083" target="_top" xlink:title="carla::client::detail::Get">
<polygon fill="#ffffff" stroke="#000000" points="343,-28 343,-47 474,-47 474,-28 343,-28"/>
<text text-anchor="middle" x="408.5" y="-35" font-family="Helvetica,sans-Serif" font-size="10.00" fill="#000000">carla::client::detail::Get</text>
</a>
</g>
</g>
<!-- Node8&#45;&gt;Node9 -->
<g id="edge1" class="edge">
<title>Node8&#45;&gt;Node9</title>
<path fill="none" stroke="#191970" d="M125.0221,-39.6909C136.9649,-40.0282 149.3675,-40.3229 161,-40.5 225.8814,-41.4878 242.1182,-41.4586 307,-40.5 315.362,-40.3765 324.1101,-40.1957 332.8143,-39.9831"/>
<polygon fill="#191970" stroke="#191970" points="333.0799,-43.4775 342.9862,-39.7206 332.8992,-36.4799 333.0799,-43.4775"/>
</g>
<!-- Node11 -->
<g id="node4" class="node">
<title>Node11</title>
<g id="a_node4"><a xlink:href="../../de/dee/classFHttpDownloader.html#a826d17359f27de1bfbfcf4f8e8b4e5e5" target="_top" xlink:title="Delegate called when the request completes. ">
<polygon fill="#ffffff" stroke="#000000" points="161,-.5 161,-30.5 307,-30.5 307,-.5 161,-.5"/>
<text text-anchor="start" x="169" y="-18.5" font-family="Helvetica,sans-Serif" font-size="10.00" fill="#000000">FHttpDownloader::Request</text>
<text text-anchor="middle" x="234" y="-7.5" font-family="Helvetica,sans-Serif" font-size="10.00" fill="#000000">Complete</text>
</a>
</g>
</g>
<!-- Node8&#45;&gt;Node11 -->
<g id="edge3" class="edge">
<title>Node8&#45;&gt;Node11</title>
<path fill="none" stroke="#191970" d="M125.3864,-29.4329C133.7005,-28.3664 142.3238,-27.2602 150.9115,-26.1586"/>
<polygon fill="#191970" stroke="#191970" points="151.4824,-29.6141 160.9558,-24.8701 150.5917,-22.671 151.4824,-29.6141"/>
</g>
<!-- Node10 -->
<g id="node3" class="node">
<title>Node10</title>
<g id="a_node3"><a xlink:href="../../dd/db9/classcarla_1_1rpc_1_1Response.html#aa9345a8a76966377c592f2e324f72446" target="_top" xlink:title="carla::rpc::Response::Get">
<polygon fill="#ffffff" stroke="#000000" points="510,-28 510,-47 647,-47 647,-28 510,-28"/>
<text text-anchor="middle" x="578.5" y="-35" font-family="Helvetica,sans-Serif" font-size="10.00" fill="#000000">carla::rpc::Response::Get</text>
</a>
</g>
</g>
<!-- Node9&#45;&gt;Node10 -->
<g id="edge2" class="edge">
<title>Node9&#45;&gt;Node10</title>
<path fill="none" stroke="#191970" d="M474.2264,-37.5C482.6209,-37.5 491.28,-37.5 499.8525,-37.5"/>
<polygon fill="#191970" stroke="#191970" points="499.8551,-41.0001 509.855,-37.5 499.855,-34.0001 499.8551,-41.0001"/>
</g>
<!-- Node11&#45;&gt;Node9 -->
<g id="edge4" class="edge">
<title>Node11&#45;&gt;Node9</title>
<path fill="none" stroke="#191970" d="M307.2452,-24.7344C315.759,-25.8077 324.4554,-26.9041 332.9987,-27.9812"/>
<polygon fill="#191970" stroke="#191970" points="332.5781,-31.4558 342.9374,-29.2342 333.4537,-24.5108 332.5781,-31.4558"/>
</g>
</g>
</svg>
