<?xml version="1.0" encoding="UTF-8" standalone="no"?>
<!DOCTYPE svg PUBLIC "-//W3C//DTD SVG 1.1//EN"
 "http://www.w3.org/Graphics/SVG/1.1/DTD/svg11.dtd">
<!-- Generated by graphviz version 2.40.1 (20161225.0304)
 -->
<!-- Title: carla::client::detail::CallbackList&lt; InputsT &gt; Pages: 1 -->
<svg width="240pt" height="185pt"
 viewBox="0.00 0.00 240.00 185.00" xmlns="http://www.w3.org/2000/svg" xmlns:xlink="http://www.w3.org/1999/xlink">
<g id="graph0" class="graph" transform="scale(1 1) rotate(0) translate(4 181)">
<title>carla::client::detail::CallbackList&lt; InputsT &gt;</title>
<polygon fill="#ffffff" stroke="transparent" points="-4,4 -4,-181 236,-181 236,4 -4,4"/>
<!-- Node0 -->
<g id="node1" class="node">
<title>Node0</title>
<polygon fill="#bfbfbf" stroke="#000000" points="0,-89.5 0,-119.5 140,-119.5 140,-89.5 0,-89.5"/>
<text text-anchor="start" x="8" y="-107.5" font-family="Helvetica,sans-Serif" font-size="10.00" fill="#000000">carla::client::detail</text>
<text text-anchor="middle" x="70" y="-96.5" font-family="Helvetica,sans-Serif" font-size="10.00" fill="#000000">::CallbackList&lt; InputsT &gt;</text>
</g>
<!-- Node2 -->
<g id="node3" class="node">
<title>Node2</title>
<g id="a_node3"><a xlink:href="../../d1/dff/classcarla_1_1client_1_1detail_1_1CallbackList.html" target="_top" xlink:title="carla::client::detail\l::CallbackList\&lt; carla\l::client::WorldSnapshot \&gt;">
<polygon fill="#ffffff" stroke="#000000" points="0,-.5 0,-41.5 140,-41.5 140,-.5 0,-.5"/>
<text text-anchor="start" x="8" y="-29.5" font-family="Helvetica,sans-Serif" font-size="10.00" fill="#000000">carla::client::detail</text>
<text text-anchor="start" x="8" y="-18.5" font-family="Helvetica,sans-Serif" font-size="10.00" fill="#000000">::CallbackList&lt; carla</text>
<text text-anchor="middle" x="70" y="-7.5" font-family="Helvetica,sans-Serif" font-size="10.00" fill="#000000">::client::WorldSnapshot &gt;</text>
</a>
</g>
</g>
<!-- Node0&#45;&gt;Node2 -->
<g id="edge2" class="edge">
<title>Node0&#45;&gt;Node2</title>
<path fill="none" stroke="#ffa500" stroke-dasharray="5,2" d="M70,-78.9112C70,-66.9282 70,-52.8447 70,-41.5668"/>
<polygon fill="#ffa500" stroke="#ffa500" points="66.5001,-79.1848 70,-89.1848 73.5001,-79.1848 66.5001,-79.1848"/>
<text text-anchor="middle" x="151" y="-63" font-family="Helvetica,sans-Serif" font-size="10.00" fill="#000000"> &lt; carla::client::WorldSnapshot &gt;</text>
</g>
<!-- Node1 -->
<g id="node2" class="node">
<title>Node1</title>
<g id="a_node2"><a xlink:href="../../d4/d8b/classcarla_1_1NonCopyable.html" target="_top" xlink:title="Inherit (privately) to suppress copy/move construction and assignment. ">
<polygon fill="#ffffff" stroke="#000000" points="14,-157.5 14,-176.5 126,-176.5 126,-157.5 14,-157.5"/>
<text text-anchor="middle" x="70" y="-164.5" font-family="Helvetica,sans-Serif" font-size="10.00" fill="#000000">carla::NonCopyable</text>
</a>
</g>
</g>
<!-- Node1&#45;&gt;Node0 -->
<g id="edge1" class="edge">
<title>Node1&#45;&gt;Node0</title>
<path fill="none" stroke="#8b1a1a" d="M70,-147.0501C70,-138.2205 70,-128.0001 70,-119.7892"/>
<polygon fill="#8b1a1a" stroke="#8b1a1a" points="66.5001,-147.2343 70,-157.2344 73.5001,-147.2344 66.5001,-147.2343"/>
</g>
</g>
</svg>
