<?xml version="1.0" encoding="UTF-8" standalone="no"?>
<!DOCTYPE svg PUBLIC "-//W3C//DTD SVG 1.1//EN"
 "http://www.w3.org/Graphics/SVG/1.1/DTD/svg11.dtd">
<!-- Generated by graphviz version 2.40.1 (20161225.0304)
 -->
<!-- Title: ACollisionSensor::OnCollisionEvent Pages: 1 -->
<!--zoomable 385 -->
<svg id="main" version="1.1" xmlns="http://www.w3.org/2000/svg" xmlns:xlink="http://www.w3.org/1999/xlink" xml:space="preserve" onload="init(evt)">
<style type="text/css"><![CDATA[
.edge:hover path { stroke: red; }
.edge:hover polygon { stroke: red; fill: red; }
]]></style>
<script type="text/javascript"><![CDATA[
var edges = document.getElementsByTagName('g');
if (edges && edges.length) {
  for (var i=0;i<edges.length;i++) {
    if (edges[i].id.substr(0,4)=='edge') {
      edges[i].setAttribute('class','edge');
    }
  }
}
]]></script>
        <defs>
                <circle id="rim" cx="0" cy="0" r="7"/>
                <circle id="rim2" cx="0" cy="0" r="3.5"/>
                <g id="zoomPlus">
                        <use xlink:href="#rim" fill="#404040">
                                <set attributeName="fill" to="#808080" begin="zoomplus.mouseover" end="zoomplus.mouseout"/>
                        </use>
                        <path d="M-4,0h8M0,-4v8" fill="none" stroke="white" stroke-width="1.5" pointer-events="none"/>
                </g>
                <g id="zoomMin">
                        <use xlink:href="#rim" fill="#404040">
                                <set attributeName="fill" to="#808080" begin="zoomminus.mouseover" end="zoomminus.mouseout"/>
                        </use>
                        <path d="M-4,0h8" fill="none" stroke="white" stroke-width="1.5" pointer-events="none"/>
                </g>
                <g id="dirArrow">
                        <path fill="none" stroke="white" stroke-width="1.5" d="M0,-3.0v7 M-2.5,-0.5L0,-3.0L2.5,-0.5"/>
                </g>
               <g id="resetDef">
                       <use xlink:href="#rim2" fill="#404040">
                               <set attributeName="fill" to="#808080" begin="reset.mouseover" end="reset.mouseout"/>
                       </use>
               </g>
        </defs>

<script type="text/javascript">
var viewWidth = 588;
var viewHeight = 385;
var sectionId = 'dynsection-3';
</script>
<script xlink:href="../../svgpan.js"/>
<svg id="graph" class="graph">
<g id="viewport">
<title>ACollisionSensor::OnCollisionEvent</title>
<polygon fill="#ffffff" stroke="transparent" points="-4,4 -4,-381 584,-381 584,4 -4,4"/>
<!-- Node7 -->
<g id="node1" class="node">
<title>Node7</title>
<polygon fill="#bfbfbf" stroke="#000000" points="0,-150.5 0,-180.5 160,-180.5 160,-150.5 0,-150.5"/>
<text text-anchor="start" x="8" y="-168.5" font-family="Helvetica,sans-Serif" font-size="10.00" fill="#000000">ACollisionSensor::OnCollision</text>
<text text-anchor="middle" x="80" y="-157.5" font-family="Helvetica,sans-Serif" font-size="10.00" fill="#000000">Event</text>
</g>
<!-- Node8 -->
<g id="node2" class="node">
<title>Node8</title>
<g id="a_node2"><a xlink:href="../../dd/db9/classACarlaRecorder.html#a9841c0fd6fc07ed2f3a6e98808d50189" target="_top" xlink:title="ACarlaRecorder::AddCollision">
<polygon fill="#ffffff" stroke="#000000" points="203,-289 203,-308 361,-308 361,-289 203,-289"/>
<text text-anchor="middle" x="282" y="-296" font-family="Helvetica,sans-Serif" font-size="10.00" fill="#000000">ACarlaRecorder::AddCollision</text>
</a>
</g>
</g>
<!-- Node7&#45;&gt;Node8 -->
<g id="edge1" class="edge">
<title>Node7&#45;&gt;Node8</title>
<path fill="none" stroke="#191970" d="M90.9215,-180.7919C109.5186,-205.6243 149.8363,-254.456 196,-279.5 200.2295,-281.7945 204.7186,-283.812 209.3397,-285.5859"/>
<polygon fill="#191970" stroke="#191970" points="208.3748,-288.9552 218.9695,-288.8958 210.6502,-282.3353 208.3748,-288.9552"/>
</g>
<!-- Node14 -->
<g id="node8" class="node">
<title>Node14</title>
<g id="a_node8"><a xlink:href="../../d3/d01/classASensor.html#a8fa217c0d68d5c774510d5e941ae0ade" target="_top" xlink:title="Return the FDataStream associated with this sensor. ">
<polygon fill="#ffffff" stroke="#000000" points="213,-251 213,-270 351,-270 351,-251 213,-251"/>
<text text-anchor="middle" x="282" y="-258" font-family="Helvetica,sans-Serif" font-size="10.00" fill="#000000">ASensor::GetDataStream</text>
</a>
</g>
</g>
<!-- Node7&#45;&gt;Node14 -->
<g id="edge7" class="edge">
<title>Node7&#45;&gt;Node14</title>
<path fill="none" stroke="#191970" d="M98.4837,-180.7005C120.4161,-197.9733 158.7246,-225.7964 196,-241.5 202.1539,-244.0925 208.7109,-246.3535 215.3545,-248.3205"/>
<polygon fill="#191970" stroke="#191970" points="214.5435,-251.7273 225.1131,-250.9965 216.3947,-244.9765 214.5435,-251.7273"/>
</g>
<!-- Node15 -->
<g id="node9" class="node">
<title>Node15</title>
<g id="a_node9"><a xlink:href="../../d3/d01/classASensor.html#a20ab55bcdde93c4e8683678934d86a66" target="_top" xlink:title="ASensor::GetEpisode">
<polygon fill="#ffffff" stroke="#000000" points="223,-213 223,-232 341,-232 341,-213 223,-213"/>
<text text-anchor="middle" x="282" y="-220" font-family="Helvetica,sans-Serif" font-size="10.00" fill="#000000">ASensor::GetEpisode</text>
</a>
</g>
</g>
<!-- Node7&#45;&gt;Node15 -->
<g id="edge8" class="edge">
<title>Node7&#45;&gt;Node15</title>
<path fill="none" stroke="#191970" d="M122.39,-180.5053C144.2242,-187.9483 171.3686,-196.7625 196,-203.5 205.3044,-206.0451 215.2456,-208.4896 224.9447,-210.7286"/>
<polygon fill="#191970" stroke="#191970" points="224.4024,-214.1942 234.9278,-212.9831 225.9444,-207.3661 224.4024,-214.1942"/>
</g>
<!-- Node16 -->
<g id="node10" class="node">
<title>Node16</title>
<g id="a_node10"><a xlink:href="../../dc/d49/classFCarlaEngine.html#a2b0720522df3521eb48575585568dfe1" target="_top" xlink:title="FCarlaEngine::GetFrameCounter">
<polygon fill="#ffffff" stroke="#000000" points="196,-175 196,-194 368,-194 368,-175 196,-175"/>
<text text-anchor="middle" x="282" y="-182" font-family="Helvetica,sans-Serif" font-size="10.00" fill="#000000">FCarlaEngine::GetFrameCounter</text>
</a>
</g>
</g>
<!-- Node7&#45;&gt;Node16 -->
<g id="edge9" class="edge">
<title>Node7&#45;&gt;Node16</title>
<path fill="none" stroke="#191970" d="M160.1259,-173.0366C168.5972,-173.8334 177.2733,-174.6495 185.9016,-175.461"/>
<polygon fill="#191970" stroke="#191970" points="185.7096,-178.9583 195.9934,-176.4103 186.3652,-171.9891 185.7096,-178.9583"/>
</g>
<!-- Node17 -->
<g id="node11" class="node">
<title>Node17</title>
<g id="a_node11"><a xlink:href="../../dc/d84/classUCarlaEpisode.html#ab6081a116845077b540db44238ce367d" target="_top" xlink:title="UCarlaEpisode::GetRecorder">
<polygon fill="#ffffff" stroke="#000000" points="205,-137 205,-156 359,-156 359,-137 205,-137"/>
<text text-anchor="middle" x="282" y="-144" font-family="Helvetica,sans-Serif" font-size="10.00" fill="#000000">UCarlaEpisode::GetRecorder</text>
</a>
</g>
</g>
<!-- Node7&#45;&gt;Node17 -->
<g id="edge10" class="edge">
<title>Node7&#45;&gt;Node17</title>
<path fill="none" stroke="#191970" d="M160.1259,-157.9634C171.542,-156.8896 183.3301,-155.7808 194.8719,-154.6952"/>
<polygon fill="#191970" stroke="#191970" points="195.3074,-158.1698 204.9357,-153.7486 194.6518,-151.2006 195.3074,-158.1698"/>
</g>
<!-- Node18 -->
<g id="node12" class="node">
<title>Node18</title>
<g id="a_node12"><a xlink:href="../../dd/db9/classACarlaRecorder.html#a108ec0290436ace8c053d4ddf996eda8" target="_top" xlink:title="ACarlaRecorder::IsEnabled">
<polygon fill="#ffffff" stroke="#000000" points="209.5,-99 209.5,-118 354.5,-118 354.5,-99 209.5,-99"/>
<text text-anchor="middle" x="282" y="-106" font-family="Helvetica,sans-Serif" font-size="10.00" fill="#000000">ACarlaRecorder::IsEnabled</text>
</a>
</g>
</g>
<!-- Node7&#45;&gt;Node18 -->
<g id="edge11" class="edge">
<title>Node7&#45;&gt;Node18</title>
<path fill="none" stroke="#191970" d="M122.39,-150.4947C144.2242,-143.0517 171.3686,-134.2375 196,-127.5 205.3044,-124.9549 215.2456,-122.5104 224.9447,-120.2714"/>
<polygon fill="#191970" stroke="#191970" points="225.9444,-123.6339 234.9278,-118.0169 224.4024,-116.8058 225.9444,-123.6339"/>
</g>
<!-- Node19 -->
<g id="node13" class="node">
<title>Node19</title>
<g id="a_node13"><a xlink:href="../../dc/db5/classFAsyncDataStreamTmpl.html#ad04c08e1aee4c873ff7bd03b778b622a" target="_top" xlink:title="Send some data down the stream. ">
<polygon fill="#ffffff" stroke="#000000" points="215,-.5 215,-30.5 349,-30.5 349,-.5 215,-.5"/>
<text text-anchor="start" x="223" y="-18.5" font-family="Helvetica,sans-Serif" font-size="10.00" fill="#000000">FAsyncDataStreamTmpl</text>
<text text-anchor="middle" x="282" y="-7.5" font-family="Helvetica,sans-Serif" font-size="10.00" fill="#000000">::Send</text>
</a>
</g>
</g>
<!-- Node7&#45;&gt;Node19 -->
<g id="edge12" class="edge">
<title>Node7&#45;&gt;Node19</title>
<path fill="none" stroke="#191970" d="M89.8295,-150.156C107.6869,-123.538 148.074,-68.8455 196,-39.5 198.9992,-37.6635 202.1423,-35.9641 205.3802,-34.3918"/>
<polygon fill="#191970" stroke="#191970" points="206.9686,-37.5169 214.7153,-30.2892 204.1522,-31.1084 206.9686,-37.5169"/>
</g>
<!-- Node21 -->
<g id="node15" class="node">
<title>Node21</title>
<g id="a_node15"><a xlink:href="../../dc/d84/classUCarlaEpisode.html#a16930a678420a1e83d8c136ccbf2e40d" target="_top" xlink:title="Create a serializable object describing the actor. ">
<polygon fill="#ffffff" stroke="#000000" points="214,-49.5 214,-79.5 350,-79.5 350,-49.5 214,-49.5"/>
<text text-anchor="start" x="222" y="-67.5" font-family="Helvetica,sans-Serif" font-size="10.00" fill="#000000">UCarlaEpisode::Serialize</text>
<text text-anchor="middle" x="282" y="-56.5" font-family="Helvetica,sans-Serif" font-size="10.00" fill="#000000">Actor</text>
</a>
</g>
</g>
<!-- Node7&#45;&gt;Node21 -->
<g id="edge14" class="edge">
<title>Node7&#45;&gt;Node21</title>
<path fill="none" stroke="#191970" d="M99.0695,-150.4266C121.2412,-133.5332 159.4772,-106.3143 196,-89.5 201.0316,-87.1836 206.3282,-85.0277 211.7187,-83.0326"/>
<polygon fill="#191970" stroke="#191970" points="213.203,-86.2214 221.4859,-79.615 210.891,-79.6142 213.203,-86.2214"/>
</g>
<!-- Node9 -->
<g id="node3" class="node">
<title>Node9</title>
<g id="a_node3"><a xlink:href="../../da/d6e/classCarlaRecorderCollisions.html#a52c30eabdc9136f3abd5a5a3bf8bbd0f" target="_top" xlink:title="CarlaRecorderCollisions::Add">
<polygon fill="#ffffff" stroke="#000000" points="413.5,-232 413.5,-251 570.5,-251 570.5,-232 413.5,-232"/>
<text text-anchor="middle" x="492" y="-239" font-family="Helvetica,sans-Serif" font-size="10.00" fill="#000000">CarlaRecorderCollisions::Add</text>
</a>
</g>
</g>
<!-- Node8&#45;&gt;Node9 -->
<g id="edge2" class="edge">
<title>Node8&#45;&gt;Node9</title>
<path fill="none" stroke="#191970" d="M335.8556,-288.9304C346.6537,-286.3643 357.8076,-283.2382 368,-279.5 384.9853,-273.2704 386.9998,-266.6889 404,-260.5 411.2287,-257.8684 418.9306,-255.5464 426.6567,-253.5122"/>
<polygon fill="#191970" stroke="#191970" points="427.56,-256.8943 436.4221,-251.0879 425.8733,-250.1005 427.56,-256.8943"/>
</g>
<!-- Node10 -->
<g id="node4" class="node">
<title>Node10</title>
<g id="a_node4"><a xlink:href="../../df/db5/classFActorRegistry.html#a167889de345ae2da68d5e9fcc08f58f7" target="_top" xlink:title="FActorRegistry::FindCarla\lActor">
<polygon fill="#ffffff" stroke="#000000" points="423.5,-346.5 423.5,-376.5 560.5,-376.5 560.5,-346.5 423.5,-346.5"/>
<text text-anchor="start" x="431.5" y="-364.5" font-family="Helvetica,sans-Serif" font-size="10.00" fill="#000000">FActorRegistry::FindCarla</text>
<text text-anchor="middle" x="492" y="-353.5" font-family="Helvetica,sans-Serif" font-size="10.00" fill="#000000">Actor</text>
</a>
</g>
</g>
<!-- Node8&#45;&gt;Node10 -->
<g id="edge3" class="edge">
<title>Node8&#45;&gt;Node10</title>
<path fill="none" stroke="#191970" d="M312.0178,-308.0807C336.6734,-315.8943 372.5325,-327.1311 404,-336.5 411.7918,-338.8199 419.9858,-341.2115 428.1099,-343.5535"/>
<polygon fill="#191970" stroke="#191970" points="427.3754,-346.9839 437.9529,-346.3774 429.3059,-340.2553 427.3754,-346.9839"/>
</g>
<!-- Node11 -->
<g id="node5" class="node">
<title>Node11</title>
<g id="a_node5"><a xlink:href="../../dc/dde/classFCarlaActor.html#aca3d1a4bfcb5e0ae1974b7206933d665" target="_top" xlink:title="FCarlaActor::GetActorId">
<polygon fill="#ffffff" stroke="#000000" points="426.5,-308 426.5,-327 557.5,-327 557.5,-308 426.5,-308"/>
<text text-anchor="middle" x="492" y="-315" font-family="Helvetica,sans-Serif" font-size="10.00" fill="#000000">FCarlaActor::GetActorId</text>
</a>
</g>
</g>
<!-- Node8&#45;&gt;Node11 -->
<g id="edge4" class="edge">
<title>Node8&#45;&gt;Node11</title>
<path fill="none" stroke="#191970" d="M361.0928,-305.656C379.1573,-307.2904 398.313,-309.0236 416.2342,-310.645"/>
<polygon fill="#191970" stroke="#191970" points="416.0612,-314.1436 426.3359,-311.559 416.692,-307.172 416.0612,-314.1436"/>
</g>
<!-- Node12 -->
<g id="node6" class="node">
<title>Node12</title>
<g id="a_node6"><a xlink:href="../../dc/dde/classFCarlaActor.html#a242fc800c820c11808a55be4bff97fa2" target="_top" xlink:title="FCarlaActor::GetActorInfo">
<polygon fill="#ffffff" stroke="#000000" points="422,-153 422,-172 562,-172 562,-153 422,-153"/>
<text text-anchor="middle" x="492" y="-160" font-family="Helvetica,sans-Serif" font-size="10.00" fill="#000000">FCarlaActor::GetActorInfo</text>
</a>
</g>
</g>
<!-- Node8&#45;&gt;Node12 -->
<g id="edge5" class="edge">
<title>Node8&#45;&gt;Node12</title>
<path fill="none" stroke="#191970" d="M349.9259,-288.9482C356.3418,-286.4672 362.495,-283.3677 368,-279.5 392.5168,-262.2749 383.1881,-244.0556 404,-222.5 421.7995,-204.0645 446.1168,-188.0055 464.6787,-177.1527"/>
<polygon fill="#191970" stroke="#191970" points="466.5757,-180.1002 473.5348,-172.1114 463.1127,-174.0168 466.5757,-180.1002"/>
</g>
<!-- Node13 -->
<g id="node7" class="node">
<title>Node13</title>
<g id="a_node7"><a xlink:href="../../dc/d84/classUCarlaEpisode.html#a955ce4876accf63ea1a1df5fda70c31d" target="_top" xlink:title="UCarlaEpisode::GetActorRegistry">
<polygon fill="#ffffff" stroke="#000000" points="404,-270 404,-289 580,-289 580,-270 404,-270"/>
<text text-anchor="middle" x="492" y="-277" font-family="Helvetica,sans-Serif" font-size="10.00" fill="#000000">UCarlaEpisode::GetActorRegistry</text>
</a>
</g>
</g>
<!-- Node8&#45;&gt;Node13 -->
<g id="edge6" class="edge">
<title>Node8&#45;&gt;Node13</title>
<path fill="none" stroke="#191970" d="M361.0928,-291.344C371.7748,-290.3775 382.8384,-289.3765 393.8026,-288.3845"/>
<polygon fill="#191970" stroke="#191970" points="394.1862,-291.8642 403.8301,-287.4773 393.5554,-284.8927 394.1862,-291.8642"/>
</g>
<!-- Node20 -->
<g id="node14" class="node">
<title>Node20</title>
<g id="a_node14"><a xlink:href="../../d3/d81/classcarla_1_1sensor_1_1CompositeSerializer.html#a69dc7c61b631b59bcc50ffb08f4a6972" target="_top" xlink:title="Serialize the arguments provided into a Buffer by calling to the serializer registered for the given ...">
<polygon fill="#ffffff" stroke="#000000" points="423.5,-.5 423.5,-30.5 560.5,-30.5 560.5,-.5 423.5,-.5"/>
<text text-anchor="start" x="431.5" y="-18.5" font-family="Helvetica,sans-Serif" font-size="10.00" fill="#000000">carla::sensor::Composite</text>
<text text-anchor="middle" x="492" y="-7.5" font-family="Helvetica,sans-Serif" font-size="10.00" fill="#000000">Serializer::Serialize</text>
</a>
</g>
</g>
<!-- Node19&#45;&gt;Node20 -->
<g id="edge13" class="edge">
<title>Node19&#45;&gt;Node20</title>
<path fill="none" stroke="#191970" d="M349.0227,-15.5C369.4474,-15.5 392.0879,-15.5 413.2154,-15.5"/>
<polygon fill="#191970" stroke="#191970" points="413.4493,-19.0001 423.4493,-15.5 413.4493,-12.0001 413.4493,-19.0001"/>
</g>
<!-- Node21&#45;&gt;Node12 -->
<g id="edge15" class="edge">
<title>Node21&#45;&gt;Node12</title>
<path fill="none" stroke="#191970" d="M340.9796,-79.5222C350.1603,-82.4654 359.4347,-85.8028 368,-89.5 405.6246,-105.7406 445.9464,-131.1424 470.0594,-147.2959"/>
<polygon fill="#191970" stroke="#191970" points="468.2266,-150.2818 478.4679,-152.9957 472.1543,-144.4876 468.2266,-150.2818"/>
</g>
<!-- Node22 -->
<g id="node16" class="node">
<title>Node22</title>
<g id="a_node16"><a xlink:href="../../dc/dde/classFCarlaActor.html#a2dfbb1c5a2b20bf4249cdb5445f18447" target="_top" xlink:title="FCarlaActor::GetParent">
<polygon fill="#ffffff" stroke="#000000" points="428.5,-55 428.5,-74 555.5,-74 555.5,-55 428.5,-55"/>
<text text-anchor="middle" x="492" y="-62" font-family="Helvetica,sans-Serif" font-size="10.00" fill="#000000">FCarlaActor::GetParent</text>
</a>
</g>
</g>
<!-- Node21&#45;&gt;Node22 -->
<g id="edge16" class="edge">
<title>Node21&#45;&gt;Node22</title>
<path fill="none" stroke="#191970" d="M350.181,-64.5C371.9909,-64.5 396.2276,-64.5 418.4055,-64.5"/>
<polygon fill="#191970" stroke="#191970" points="418.4344,-68.0001 428.4343,-64.5 418.4343,-61.0001 418.4344,-68.0001"/>
</g>
</g>
</svg>
        <g id="navigator" transform="translate(0 0)" fill="#404254">
                <rect fill="#f2f5e9" fill-opacity="0.5" stroke="#606060" stroke-width=".5" x="0" y="0" width="60" height="60"/>
                <use id="zoomplus" xlink:href="#zoomPlus" x="17" y="9" onmousedown="handleZoom(evt,'in')"/>
                <use id="zoomminus" xlink:href="#zoomMin" x="42" y="9" onmousedown="handleZoom(evt,'out')"/>
                <use id="reset" xlink:href="#resetDef" x="30" y="36" onmousedown="handleReset()"/>
                <g id="arrowUp" xlink:href="#dirArrow" transform="translate(30 24)" onmousedown="handlePan(0,-1)">
                  <use xlink:href="#rim" fill="#404040">
                        <set attributeName="fill" to="#808080" begin="arrowUp.mouseover" end="arrowUp.mouseout"/>
                  </use>
                  <path fill="none" stroke="white" stroke-width="1.5" d="M0,-3.0v7 M-2.5,-0.5L0,-3.0L2.5,-0.5"/>
                </g>
                <g id="arrowRight" xlink:href="#dirArrow" transform="rotate(90) translate(36 -43)" onmousedown="handlePan(1,0)">
                  <use xlink:href="#rim" fill="#404040">
                        <set attributeName="fill" to="#808080" begin="arrowRight.mouseover" end="arrowRight.mouseout"/>
                  </use>
                  <path fill="none" stroke="white" stroke-width="1.5" d="M0,-3.0v7 M-2.5,-0.5L0,-3.0L2.5,-0.5"/>
                </g>
                <g id="arrowDown" xlink:href="#dirArrow" transform="rotate(180) translate(-30 -48)" onmousedown="handlePan(0,1)">
                  <use xlink:href="#rim" fill="#404040">
                        <set attributeName="fill" to="#808080" begin="arrowDown.mouseover" end="arrowDown.mouseout"/>
                  </use>
                  <path fill="none" stroke="white" stroke-width="1.5" d="M0,-3.0v7 M-2.5,-0.5L0,-3.0L2.5,-0.5"/>
                </g>
                <g id="arrowLeft" xlink:href="#dirArrow" transform="rotate(270) translate(-36 17)" onmousedown="handlePan(-1,0)">
                  <use xlink:href="#rim" fill="#404040">
                        <set attributeName="fill" to="#808080" begin="arrowLeft.mouseover" end="arrowLeft.mouseout"/>
                  </use>
                  <path fill="none" stroke="white" stroke-width="1.5" d="M0,-3.0v7 M-2.5,-0.5L0,-3.0L2.5,-0.5"/>
                </g>
        </g>
        <svg viewBox="0 0 15 15" width="100%" height="30px" preserveAspectRatio="xMaxYMin meet">
         <g id="arrow_out" transform="scale(0.3 0.3)">
          <a xlink:href="classACollisionSensor_ab4fa46f2abc1fbc290f967bb18e7e13e_cgraph_org.svg" target="_base">
           <rect id="button" ry="5" rx="5" y="6" x="6" height="38" width="38"
                fill="#f2f5e9" fill-opacity="0.5" stroke="#606060" stroke-width="1.0"/>
           <path id="arrow"
             d="M 11.500037,31.436501 C 11.940474,20.09759 22.043105,11.32322 32.158766,21.979434 L 37.068811,17.246167 C 37.068811,17.246167 37.088388,32 37.088388,32 L 22.160133,31.978069 C 22.160133,31.978069 26.997745,27.140456 26.997745,27.140456 C 18.528582,18.264221 13.291696,25.230495 11.500037,31.436501 z"
             style="fill:#404040;"/>
          </a>
         </g>
        </svg>
</svg>
