<?xml version="1.0" encoding="UTF-8" standalone="no"?>
<!DOCTYPE svg PUBLIC "-//W3C//DTD SVG 1.1//EN"
 "http://www.w3.org/Graphics/SVG/1.1/DTD/svg11.dtd">
<!-- Generated by graphviz version 2.40.1 (20161225.0304)
 -->
<!-- Title: FCarlaEngine_SetFixedDeltaSeconds Pages: 1 -->
<svg width="752pt" height="78pt"
 viewBox="0.00 0.00 752.00 77.50" xmlns="http://www.w3.org/2000/svg" xmlns:xlink="http://www.w3.org/1999/xlink">
<g id="graph0" class="graph" transform="scale(1 1) rotate(0) translate(4 73.5)">
<title>FCarlaEngine_SetFixedDeltaSeconds</title>
<polygon fill="#ffffff" stroke="transparent" points="-4,4 -4,-73.5 748,-73.5 748,4 -4,4"/>
<!-- Node7 -->
<g id="node1" class="node">
<title>Node7</title>
<polygon fill="#bfbfbf" stroke="#000000" points="0,-22.5 0,-52.5 153,-52.5 153,-22.5 0,-22.5"/>
<text text-anchor="start" x="8" y="-40.5" font-family="Helvetica,sans-Serif" font-size="10.00" fill="#000000">FCarlaEngine_SetFixedDelta</text>
<text text-anchor="middle" x="76.5" y="-29.5" font-family="Helvetica,sans-Serif" font-size="10.00" fill="#000000">Seconds</text>
</g>
<!-- Node8 -->
<g id="node2" class="node">
<title>Node8</title>
<g id="a_node2"><a xlink:href="../../dc/d49/classFCarlaEngine.html#a066406637bc234c9988a34b83ab5ca43" target="_top" xlink:title="FCarlaEngine::OnEpisodeSettings\lChanged">
<polygon fill="#ffffff" stroke="#000000" points="189,-22.5 189,-52.5 367,-52.5 367,-22.5 189,-22.5"/>
<text text-anchor="start" x="197" y="-40.5" font-family="Helvetica,sans-Serif" font-size="10.00" fill="#000000">FCarlaEngine::OnEpisodeSettings</text>
<text text-anchor="middle" x="278" y="-29.5" font-family="Helvetica,sans-Serif" font-size="10.00" fill="#000000">Changed</text>
</a>
</g>
</g>
<!-- Node7&#45;&gt;Node8 -->
<g id="edge1" class="edge">
<title>Node7&#45;&gt;Node8</title>
<path fill="none" stroke="#191970" d="M163.4784,-37.5C171.9281,-37.5 180.5095,-37.5 188.9788,-37.5"/>
<polygon fill="#191970" stroke="#191970" points="163.2534,-34.0001 153.2533,-37.5 163.2533,-41.0001 163.2534,-34.0001"/>
</g>
<!-- Node9 -->
<g id="node3" class="node">
<title>Node9</title>
<g id="a_node3"><a xlink:href="../../dc/d49/classFCarlaEngine.html#ab8d13063cde985781237dd7da308227e" target="_top" xlink:title="FCarlaEngine::NotifyInitGame">
<polygon fill="#ffffff" stroke="#000000" points="403,-50 403,-69 564,-69 564,-50 403,-50"/>
<text text-anchor="middle" x="483.5" y="-57" font-family="Helvetica,sans-Serif" font-size="10.00" fill="#000000">FCarlaEngine::NotifyInitGame</text>
</a>
</g>
</g>
<!-- Node8&#45;&gt;Node9 -->
<g id="edge2" class="edge">
<title>Node8&#45;&gt;Node9</title>
<path fill="none" stroke="#191970" d="M377.2439,-48.1246C385.7915,-49.0397 394.3715,-49.9583 402.747,-50.8549"/>
<polygon fill="#191970" stroke="#191970" points="377.5545,-44.638 367.2387,-47.0535 376.8093,-51.5982 377.5545,-44.638"/>
</g>
<!-- Node10 -->
<g id="node4" class="node">
<title>Node10</title>
<g id="a_node4"><a xlink:href="../../dc/d49/classFCarlaEngine.html#a4dfd3b01c0b1413b4f69fda71efc25ce" target="_top" xlink:title="FCarlaEngine::ResetFrame\lCounter">
<polygon fill="#ffffff" stroke="#000000" points="412,-.5 412,-30.5 555,-30.5 555,-.5 412,-.5"/>
<text text-anchor="start" x="420" y="-18.5" font-family="Helvetica,sans-Serif" font-size="10.00" fill="#000000">FCarlaEngine::ResetFrame</text>
<text text-anchor="middle" x="483.5" y="-7.5" font-family="Helvetica,sans-Serif" font-size="10.00" fill="#000000">Counter</text>
</a>
</g>
</g>
<!-- Node8&#45;&gt;Node10 -->
<g id="edge3" class="edge">
<title>Node8&#45;&gt;Node10</title>
<path fill="none" stroke="#191970" d="M377.4433,-26.854C389.0892,-25.6072 400.7917,-24.3544 411.9517,-23.1597"/>
<polygon fill="#191970" stroke="#191970" points="376.8093,-23.4018 367.2387,-27.9465 377.5545,-30.362 376.8093,-23.4018"/>
</g>
<!-- Node11 -->
<g id="node5" class="node">
<title>Node11</title>
<g id="a_node5"><a xlink:href="../../dc/d49/classFCarlaEngine.html#ab4c918e4d4855a26ab57c4bb79ad4645" target="_top" xlink:title="FCarlaEngine::NotifyBegin\lEpisode">
<polygon fill="#ffffff" stroke="#000000" points="600,-.5 600,-30.5 744,-30.5 744,-.5 600,-.5"/>
<text text-anchor="start" x="608" y="-18.5" font-family="Helvetica,sans-Serif" font-size="10.00" fill="#000000">FCarlaEngine::NotifyBegin</text>
<text text-anchor="middle" x="672" y="-7.5" font-family="Helvetica,sans-Serif" font-size="10.00" fill="#000000">Episode</text>
</a>
</g>
</g>
<!-- Node10&#45;&gt;Node11 -->
<g id="edge4" class="edge">
<title>Node10&#45;&gt;Node11</title>
<path fill="none" stroke="#191970" d="M565.1165,-15.5C576.6875,-15.5 588.5172,-15.5 599.891,-15.5"/>
<polygon fill="#191970" stroke="#191970" points="565.0326,-12.0001 555.0325,-15.5 565.0325,-19.0001 565.0326,-12.0001"/>
</g>
</g>
</svg>
