<?xml version="1.0" encoding="UTF-8" standalone="no"?>
<!DOCTYPE svg PUBLIC "-//W3C//DTD SVG 1.1//EN"
 "http://www.w3.org/Graphics/SVG/1.1/DTD/svg11.dtd">
<!-- Generated by graphviz version 2.38.0 (20140413.2041)
 -->
<!-- Title: carla::road::element::GeometryArc Pages: 1 -->
<svg width="315pt" height="353pt"
 viewBox="0.00 0.00 315.00 353.00" xmlns="http://www.w3.org/2000/svg" xmlns:xlink="http://www.w3.org/1999/xlink">
<g id="graph0" class="graph" transform="scale(1 1) rotate(0) translate(4 349)">
<title>carla::road::element::GeometryArc</title>
<polygon fill="white" stroke="none" points="-4,4 -4,-349 311,-349 311,4 -4,4"/>
<!-- Node1 -->
<g id="node1" class="node"><title>Node1</title>
<polygon fill="#bfbfbf" stroke="black" points="0,-0.5 0,-30.5 103,-30.5 103,-0.5 0,-0.5"/>
<text text-anchor="start" x="8" y="-18.5" font-family="Helvetica,sans-Serif" font-size="10.00">carla::road::element</text>
<text text-anchor="middle" x="51.5" y="-7.5" font-family="Helvetica,sans-Serif" font-size="10.00">::GeometryArc</text>
</g>
<!-- Node2 -->
<g id="node2" class="node"><title>Node2</title>
<g id="a_node2"><a xlink:href="../../d6/db0/classcarla_1_1road_1_1element_1_1Geometry.html" target="_top" xlink:title="carla::road::element\l::Geometry">
<polygon fill="white" stroke="black" points="83,-68.5 83,-98.5 186,-98.5 186,-68.5 83,-68.5"/>
<text text-anchor="start" x="91" y="-86.5" font-family="Helvetica,sans-Serif" font-size="10.00">carla::road::element</text>
<text text-anchor="middle" x="134.5" y="-75.5" font-family="Helvetica,sans-Serif" font-size="10.00">::Geometry</text>
</a>
</g>
</g>
<!-- Node2&#45;&gt;Node1 -->
<g id="edge1" class="edge"><title>Node2&#45;&gt;Node1</title>
<path fill="none" stroke="midnightblue" d="M108.48,-61.8094C95.6945,-51.6426 80.6207,-39.6562 69.1895,-30.5663"/>
<polygon fill="midnightblue" stroke="midnightblue" points="106.485,-64.6945 116.49,-68.179 110.842,-59.2155 106.485,-64.6945"/>
</g>
<!-- Node3 -->
<g id="node3" class="node"><title>Node3</title>
<polygon fill="white" stroke="#bfbfbf" points="9,-179.5 9,-198.5 54,-198.5 54,-179.5 9,-179.5"/>
<text text-anchor="middle" x="31.5" y="-186.5" font-family="Helvetica,sans-Serif" font-size="10.00">double</text>
</g>
<!-- Node3&#45;&gt;Node1 -->
<g id="edge7" class="edge"><title>Node3&#45;&gt;Node1</title>
<path fill="none" stroke="#9a32cd" stroke-dasharray="5,2" d="M27.092,-169.606C22.1369,-145.788 15.8419,-103.161 24.5,-68 27.831,-54.4727 35.4166,-40.5642 41.702,-30.6164"/>
<polygon fill="#9a32cd" stroke="#9a32cd" points="23.6845,-170.407 29.2807,-179.403 30.5161,-168.881 23.6845,-170.407"/>
<text text-anchor="middle" x="49" y="-81" font-family="Helvetica,sans-Serif" font-size="10.00"> _curvature</text>
</g>
<!-- Node3&#45;&gt;Node2 -->
<g id="edge2" class="edge"><title>Node3&#45;&gt;Node2</title>
<path fill="none" stroke="#9a32cd" stroke-dasharray="5,2" d="M36.9958,-169.888C42.5363,-154.212 52.4416,-131.795 67.5,-117 75.1541,-109.48 84.8879,-103.419 94.5483,-98.6631"/>
<polygon fill="#9a32cd" stroke="#9a32cd" points="33.6384,-168.894 33.8477,-179.487 40.2898,-171.076 33.6384,-168.894"/>
<text text-anchor="middle" x="99.5" y="-153" font-family="Helvetica,sans-Serif" font-size="10.00"> _length</text>
<text text-anchor="middle" x="99.5" y="-142" font-family="Helvetica,sans-Serif" font-size="10.00">_heading</text>
<text text-anchor="start" x="67.5" y="-131" font-family="Helvetica,sans-Serif" font-size="10.00">_start_position</text>
<text text-anchor="middle" x="99.5" y="-120" font-family="Helvetica,sans-Serif" font-size="10.00">_offset</text>
</g>
<!-- Node4 -->
<g id="node4" class="node"><title>Node4</title>
<polygon fill="white" stroke="#bfbfbf" points="95,-179.5 95,-198.5 176,-198.5 176,-179.5 95,-179.5"/>
<text text-anchor="middle" x="135.5" y="-186.5" font-family="Helvetica,sans-Serif" font-size="10.00">GeometryType</text>
</g>
<!-- Node4&#45;&gt;Node2 -->
<g id="edge3" class="edge"><title>Node4&#45;&gt;Node2</title>
<path fill="none" stroke="#9a32cd" stroke-dasharray="5,2" d="M135.316,-168.996C135.121,-148.736 134.815,-117.109 134.639,-98.8403"/>
<polygon fill="#9a32cd" stroke="#9a32cd" points="131.818,-169.21 135.415,-179.176 138.818,-169.142 131.818,-169.21"/>
<text text-anchor="middle" x="149.5" y="-136.5" font-family="Helvetica,sans-Serif" font-size="10.00"> _type</text>
</g>
<!-- Node5 -->
<g id="node5" class="node"><title>Node5</title>
<g id="a_node5"><a xlink:href="../../de/d23/classcarla_1_1geom_1_1Location.html" target="_top" xlink:title="carla::geom::Location">
<polygon fill="white" stroke="black" points="194.5,-179.5 194.5,-198.5 304.5,-198.5 304.5,-179.5 194.5,-179.5"/>
<text text-anchor="middle" x="249.5" y="-186.5" font-family="Helvetica,sans-Serif" font-size="10.00">carla::geom::Location</text>
</a>
</g>
</g>
<!-- Node5&#45;&gt;Node2 -->
<g id="edge4" class="edge"><title>Node5&#45;&gt;Node2</title>
<path fill="none" stroke="#9a32cd" stroke-dasharray="5,2" d="M232.031,-172.278C209.842,-152.308 171.865,-118.128 150.434,-98.8403"/>
<polygon fill="#9a32cd" stroke="#9a32cd" points="229.921,-175.088 239.695,-179.176 234.604,-169.884 229.921,-175.088"/>
<text text-anchor="middle" x="253" y="-136.5" font-family="Helvetica,sans-Serif" font-size="10.00"> _start_position</text>
</g>
<!-- Node6 -->
<g id="node6" class="node"><title>Node6</title>
<g id="a_node6"><a xlink:href="../../d9/dfe/classcarla_1_1geom_1_1Vector3D.html" target="_top" xlink:title="carla::geom::Vector3D">
<polygon fill="white" stroke="black" points="192,-236.5 192,-255.5 307,-255.5 307,-236.5 192,-236.5"/>
<text text-anchor="middle" x="249.5" y="-243.5" font-family="Helvetica,sans-Serif" font-size="10.00">carla::geom::Vector3D</text>
</a>
</g>
</g>
<!-- Node6&#45;&gt;Node5 -->
<g id="edge5" class="edge"><title>Node6&#45;&gt;Node5</title>
<path fill="none" stroke="midnightblue" d="M249.5,-226.117C249.5,-216.817 249.5,-206.056 249.5,-198.715"/>
<polygon fill="midnightblue" stroke="midnightblue" points="246,-226.406 249.5,-236.406 253,-226.406 246,-226.406"/>
</g>
<!-- Node7 -->
<g id="node7" class="node"><title>Node7</title>
<polygon fill="white" stroke="#bfbfbf" points="232,-325.5 232,-344.5 267,-344.5 267,-325.5 232,-325.5"/>
<text text-anchor="middle" x="249.5" y="-332.5" font-family="Helvetica,sans-Serif" font-size="10.00">float</text>
</g>
<!-- Node7&#45;&gt;Node6 -->
<g id="edge6" class="edge"><title>Node7&#45;&gt;Node6</title>
<path fill="none" stroke="#9a32cd" stroke-dasharray="5,2" d="M249.5,-315.195C249.5,-296.738 249.5,-269.412 249.5,-255.625"/>
<polygon fill="#9a32cd" stroke="#9a32cd" points="246,-315.34 249.5,-325.34 253,-315.34 246,-315.34"/>
<text text-anchor="middle" x="254" y="-299" font-family="Helvetica,sans-Serif" font-size="10.00"> x</text>
<text text-anchor="middle" x="254" y="-288" font-family="Helvetica,sans-Serif" font-size="10.00">y</text>
<text text-anchor="middle" x="254" y="-277" font-family="Helvetica,sans-Serif" font-size="10.00">z</text>
</g>
</g>
</svg>
