<?xml version="1.0" encoding="UTF-8" standalone="no"?>
<!DOCTYPE svg PUBLIC "-//W3C//DTD SVG 1.1//EN"
 "http://www.w3.org/Graphics/SVG/1.1/DTD/svg11.dtd">
<!-- Generated by graphviz version 2.38.0 (20140413.2041)
 -->
<!-- Title: carla::traffic_manager::TrafficManager Pages: 1 -->
<svg width="321pt" height="128pt"
 viewBox="0.00 0.00 321.00 128.00" xmlns="http://www.w3.org/2000/svg" xmlns:xlink="http://www.w3.org/1999/xlink">
<g id="graph0" class="graph" transform="scale(1 1) rotate(0) translate(4 124)">
<title>carla::traffic_manager::TrafficManager</title>
<polygon fill="white" stroke="none" points="-4,4 -4,-124 317,-124 317,4 -4,4"/>
<!-- Node1 -->
<g id="node1" class="node"><title>Node1</title>
<polygon fill="#bfbfbf" stroke="black" points="158.5,-0.5 158.5,-30.5 280.5,-30.5 280.5,-0.5 158.5,-0.5"/>
<text text-anchor="start" x="166.5" y="-18.5" font-family="Helvetica,sans-Serif" font-size="10.00">carla::traffic_manager</text>
<text text-anchor="middle" x="219.5" y="-7.5" font-family="Helvetica,sans-Serif" font-size="10.00">::TrafficManager</text>
</g>
<!-- Node2 -->
<g id="node2" class="node"><title>Node2</title>
<polygon fill="white" stroke="#bfbfbf" points="0,-78.5 0,-119.5 173,-119.5 173,-78.5 0,-78.5"/>
<text text-anchor="start" x="8" y="-107.5" font-family="Helvetica,sans-Serif" font-size="10.00">map&lt; uint16_t, carla</text>
<text text-anchor="start" x="8" y="-96.5" font-family="Helvetica,sans-Serif" font-size="10.00">::traffic_manager::TrafficManager</text>
<text text-anchor="middle" x="86.5" y="-85.5" font-family="Helvetica,sans-Serif" font-size="10.00">Base * &gt;</text>
</g>
<!-- Node2&#45;&gt;Node1 -->
<g id="edge1" class="edge"><title>Node2&#45;&gt;Node1</title>
<path fill="none" stroke="#9a32cd" stroke-dasharray="5,2" d="M127.157,-73.0862C149.971,-59.106 177.591,-42.1809 196.647,-30.5038"/>
<polygon fill="#9a32cd" stroke="#9a32cd" points="125.055,-70.2695 118.357,-78.4787 128.712,-76.2381 125.055,-70.2695"/>
<text text-anchor="middle" x="190" y="-52" font-family="Helvetica,sans-Serif" font-size="10.00"> _tm_map</text>
</g>
<!-- Node3 -->
<g id="node3" class="node"><title>Node3</title>
<polygon fill="white" stroke="#bfbfbf" points="191.5,-89.5 191.5,-108.5 247.5,-108.5 247.5,-89.5 191.5,-89.5"/>
<text text-anchor="middle" x="219.5" y="-96.5" font-family="Helvetica,sans-Serif" font-size="10.00">uint16_t</text>
</g>
<!-- Node3&#45;&gt;Node1 -->
<g id="edge2" class="edge"><title>Node3&#45;&gt;Node1</title>
<path fill="none" stroke="#9a32cd" stroke-dasharray="5,2" d="M219.5,-79.229C219.5,-64.4075 219.5,-44.0505 219.5,-30.5974"/>
<polygon fill="#9a32cd" stroke="#9a32cd" points="216,-79.278 219.5,-89.2781 223,-79.2781 216,-79.278"/>
<text text-anchor="middle" x="233.5" y="-52" font-family="Helvetica,sans-Serif" font-size="10.00"> _port</text>
</g>
<!-- Node4 -->
<g id="node4" class="node"><title>Node4</title>
<polygon fill="white" stroke="#bfbfbf" points="266,-89.5 266,-108.5 313,-108.5 313,-89.5 266,-89.5"/>
<text text-anchor="middle" x="289.5" y="-96.5" font-family="Helvetica,sans-Serif" font-size="10.00">mutex</text>
</g>
<!-- Node4&#45;&gt;Node1 -->
<g id="edge3" class="edge"><title>Node4&#45;&gt;Node1</title>
<path fill="none" stroke="#9a32cd" stroke-dasharray="5,2" d="M277.187,-81.1231C269.97,-71.4904 260.523,-59.3162 251.5,-49 246.078,-42.8014 239.781,-36.2754 234.213,-30.711"/>
<polygon fill="#9a32cd" stroke="#9a32cd" points="274.576,-83.4786 283.337,-89.4363 280.204,-79.3155 274.576,-83.4786"/>
<text text-anchor="middle" x="280.5" y="-52" font-family="Helvetica,sans-Serif" font-size="10.00"> _mutex</text>
</g>
</g>
</svg>
