<?xml version="1.0" encoding="UTF-8" standalone="no"?>
<!DOCTYPE svg PUBLIC "-//W3C//DTD SVG 1.1//EN"
 "http://www.w3.org/Graphics/SVG/1.1/DTD/svg11.dtd">
<!-- Generated by graphviz version 2.38.0 (20140413.2041)
 -->
<!-- Title: Object.h Pages: 1 -->
<svg width="672pt" height="252pt"
 viewBox="0.00 0.00 671.50 252.00" xmlns="http://www.w3.org/2000/svg" xmlns:xlink="http://www.w3.org/1999/xlink">
<g id="graph0" class="graph" transform="scale(1 1) rotate(0) translate(4 248)">
<title>Object.h</title>
<polygon fill="white" stroke="none" points="-4,4 -4,-248 667.5,-248 667.5,4 -4,4"/>
<!-- Node1 -->
<g id="node1" class="node"><title>Node1</title>
<polygon fill="#bfbfbf" stroke="black" points="494.5,-224.5 494.5,-243.5 550.5,-243.5 550.5,-224.5 494.5,-224.5"/>
<text text-anchor="middle" x="522.5" y="-231.5" font-family="Helvetica,sans-Serif" font-size="10.00">Object.h</text>
</g>
<!-- Node2 -->
<g id="node2" class="node"><title>Node2</title>
<g id="a_node2"><a xlink:href="../../dd/d67/TrafficLightController_8h.html" target="_top" xlink:title="TrafficLightController.h">
<polygon fill="white" stroke="black" points="379.5,-168.5 379.5,-187.5 501.5,-187.5 501.5,-168.5 379.5,-168.5"/>
<text text-anchor="middle" x="440.5" y="-175.5" font-family="Helvetica,sans-Serif" font-size="10.00">TrafficLightController.h</text>
</a>
</g>
</g>
<!-- Node1&#45;&gt;Node2 -->
<g id="edge1" class="edge"><title>Node1&#45;&gt;Node2</title>
<path fill="none" stroke="midnightblue" d="M500.667,-218.622C485.687,-208.757 466.303,-195.992 453.642,-187.655"/>
<polygon fill="midnightblue" stroke="midnightblue" points="499.049,-221.747 509.325,-224.324 502.899,-215.901 499.049,-221.747"/>
</g>
<!-- Node10 -->
<g id="node10" class="node"><title>Node10</title>
<g id="a_node10"><a xlink:href="../../d7/d6d/TrafficLightInterface_8h.html" target="_top" xlink:title="TrafficLightInterface.h">
<polygon fill="white" stroke="black" points="545.5,-168.5 545.5,-187.5 663.5,-187.5 663.5,-168.5 545.5,-168.5"/>
<text text-anchor="middle" x="604.5" y="-175.5" font-family="Helvetica,sans-Serif" font-size="10.00">TrafficLightInterface.h</text>
</a>
</g>
</g>
<!-- Node1&#45;&gt;Node10 -->
<g id="edge12" class="edge"><title>Node1&#45;&gt;Node10</title>
<path fill="none" stroke="midnightblue" d="M544.333,-218.622C559.313,-208.757 578.697,-195.992 591.358,-187.655"/>
<polygon fill="midnightblue" stroke="midnightblue" points="542.101,-215.901 535.675,-224.324 545.951,-221.747 542.101,-215.901"/>
</g>
<!-- Node3 -->
<g id="node3" class="node"><title>Node3</title>
<g id="a_node3"><a xlink:href="../../d9/de7/WorldObserver_8cpp.html" target="_top" xlink:title="WorldObserver.cpp">
<polygon fill="white" stroke="black" points="0,-56.5 0,-75.5 105,-75.5 105,-56.5 0,-56.5"/>
<text text-anchor="middle" x="52.5" y="-63.5" font-family="Helvetica,sans-Serif" font-size="10.00">WorldObserver.cpp</text>
</a>
</g>
</g>
<!-- Node2&#45;&gt;Node3 -->
<g id="edge2" class="edge"><title>Node2&#45;&gt;Node3</title>
<path fill="none" stroke="midnightblue" d="M368.996,-167.23C322.173,-159.863 259.976,-148.231 206.5,-132 155.127,-116.407 97.5804,-89.4056 69.6115,-75.6278"/>
<polygon fill="midnightblue" stroke="midnightblue" points="368.628,-170.714 379.046,-168.783 369.697,-163.796 368.628,-170.714"/>
</g>
<!-- Node4 -->
<g id="node4" class="node"><title>Node4</title>
<g id="a_node4"><a xlink:href="../../de/da0/TrafficLightGroup_8h.html" target="_top" xlink:title="TrafficLightGroup.h">
<polygon fill="white" stroke="black" points="216,-112.5 216,-131.5 321,-131.5 321,-112.5 216,-112.5"/>
<text text-anchor="middle" x="268.5" y="-119.5" font-family="Helvetica,sans-Serif" font-size="10.00">TrafficLightGroup.h</text>
</a>
</g>
</g>
<!-- Node2&#45;&gt;Node4 -->
<g id="edge3" class="edge"><title>Node2&#45;&gt;Node4</title>
<path fill="none" stroke="midnightblue" d="M403.668,-165.436C371.238,-155.255 324.763,-140.664 295.626,-131.516"/>
<polygon fill="midnightblue" stroke="midnightblue" points="402.657,-168.787 413.246,-168.444 404.754,-162.109 402.657,-168.787"/>
</g>
<!-- Node5 -->
<g id="node5" class="node"><title>Node5</title>
<g id="a_node5"><a xlink:href="../../d3/dcd/TrafficLightComponent_8cpp.html" target="_top" xlink:title="TrafficLightComponent.cpp">
<polygon fill="white" stroke="black" points="316,-0.5 316,-19.5 459,-19.5 459,-0.5 316,-0.5"/>
<text text-anchor="middle" x="387.5" y="-7.5" font-family="Helvetica,sans-Serif" font-size="10.00">TrafficLightComponent.cpp</text>
</a>
</g>
</g>
<!-- Node2&#45;&gt;Node5 -->
<g id="edge10" class="edge"><title>Node2&#45;&gt;Node5</title>
<path fill="none" stroke="midnightblue" d="M440.356,-158.354C439.554,-133.91 435.988,-90.134 421.5,-56 415.532,-41.939 404.212,-28.3047 396.279,-19.7984"/>
<polygon fill="midnightblue" stroke="midnightblue" points="436.857,-158.471 440.561,-168.398 443.856,-158.328 436.857,-158.471"/>
</g>
<!-- Node9 -->
<g id="node9" class="node"><title>Node9</title>
<g id="a_node9"><a xlink:href="../../d7/d63/TrafficLightController_8cpp.html" target="_top" xlink:title="TrafficLightController.cpp">
<polygon fill="white" stroke="black" points="469,-112.5 469,-131.5 602,-131.5 602,-112.5 469,-112.5"/>
<text text-anchor="middle" x="535.5" y="-119.5" font-family="Helvetica,sans-Serif" font-size="10.00">TrafficLightController.cpp</text>
</a>
</g>
</g>
<!-- Node2&#45;&gt;Node9 -->
<g id="edge11" class="edge"><title>Node2&#45;&gt;Node9</title>
<path fill="none" stroke="midnightblue" d="M464.818,-163.177C482.299,-153.241 505.33,-140.149 520.274,-131.655"/>
<polygon fill="midnightblue" stroke="midnightblue" points="462.727,-160.339 455.763,-168.324 466.187,-166.425 462.727,-160.339"/>
</g>
<!-- Node4&#45;&gt;Node3 -->
<g id="edge4" class="edge"><title>Node4&#45;&gt;Node3</title>
<path fill="none" stroke="midnightblue" d="M224.336,-109.959C183.539,-99.7598 123.787,-84.8217 86.5657,-75.5164"/>
<polygon fill="midnightblue" stroke="midnightblue" points="223.724,-113.414 234.274,-112.444 225.422,-106.623 223.724,-113.414"/>
</g>
<!-- Node4&#45;&gt;Node5 -->
<g id="edge5" class="edge"><title>Node4&#45;&gt;Node5</title>
<path fill="none" stroke="midnightblue" d="M269.799,-102.244C271.687,-88.0542 276.294,-68.8761 287.5,-56 303.623,-37.4745 328.889,-26.1927 349.99,-19.5584"/>
<polygon fill="midnightblue" stroke="midnightblue" points="266.302,-102.042 268.793,-112.34 273.267,-102.736 266.302,-102.042"/>
</g>
<!-- Node6 -->
<g id="node6" class="node"><title>Node6</title>
<g id="a_node6"><a xlink:href="../../da/ddb/TrafficLightManager_8h.html" target="_top" xlink:title="TrafficLightManager.h">
<polygon fill="white" stroke="black" points="123,-56.5 123,-75.5 240,-75.5 240,-56.5 123,-56.5"/>
<text text-anchor="middle" x="181.5" y="-63.5" font-family="Helvetica,sans-Serif" font-size="10.00">TrafficLightManager.h</text>
</a>
</g>
</g>
<!-- Node4&#45;&gt;Node6 -->
<g id="edge6" class="edge"><title>Node4&#45;&gt;Node6</title>
<path fill="none" stroke="midnightblue" d="M245.784,-106.901C229.831,-96.9986 209.003,-84.0705 195.443,-75.6545"/>
<polygon fill="midnightblue" stroke="midnightblue" points="244.18,-110.024 254.522,-112.324 247.871,-104.077 244.18,-110.024"/>
</g>
<!-- Node8 -->
<g id="node8" class="node"><title>Node8</title>
<g id="a_node8"><a xlink:href="../../db/d9a/TrafficLightGroup_8cpp.html" target="_top" xlink:title="TrafficLightGroup.cpp">
<polygon fill="white" stroke="black" points="296.5,-56.5 296.5,-75.5 412.5,-75.5 412.5,-56.5 296.5,-56.5"/>
<text text-anchor="middle" x="354.5" y="-63.5" font-family="Helvetica,sans-Serif" font-size="10.00">TrafficLightGroup.cpp</text>
</a>
</g>
</g>
<!-- Node4&#45;&gt;Node8 -->
<g id="edge9" class="edge"><title>Node4&#45;&gt;Node8</title>
<path fill="none" stroke="midnightblue" d="M290.955,-106.901C306.724,-96.9986 327.314,-84.0705 340.717,-75.6545"/>
<polygon fill="midnightblue" stroke="midnightblue" points="288.925,-104.042 282.317,-112.324 292.648,-109.97 288.925,-104.042"/>
</g>
<!-- Node6&#45;&gt;Node5 -->
<g id="edge7" class="edge"><title>Node6&#45;&gt;Node5</title>
<path fill="none" stroke="midnightblue" d="M224.115,-53.8291C263.01,-43.6333 319.664,-28.7823 355.011,-19.5164"/>
<polygon fill="midnightblue" stroke="midnightblue" points="222.927,-50.5222 214.141,-56.4435 224.702,-57.2934 222.927,-50.5222"/>
</g>
<!-- Node7 -->
<g id="node7" class="node"><title>Node7</title>
<g id="a_node7"><a xlink:href="../../d6/d3f/TrafficLightManager_8cpp.html" target="_top" xlink:title="TrafficLightManager.cpp">
<polygon fill="white" stroke="black" points="117.5,-0.5 117.5,-19.5 245.5,-19.5 245.5,-0.5 117.5,-0.5"/>
<text text-anchor="middle" x="181.5" y="-7.5" font-family="Helvetica,sans-Serif" font-size="10.00">TrafficLightManager.cpp</text>
</a>
</g>
</g>
<!-- Node6&#45;&gt;Node7 -->
<g id="edge8" class="edge"><title>Node6&#45;&gt;Node7</title>
<path fill="none" stroke="midnightblue" d="M181.5,-45.8045C181.5,-36.9102 181.5,-26.7798 181.5,-19.7511"/>
<polygon fill="midnightblue" stroke="midnightblue" points="178,-46.083 181.5,-56.083 185,-46.083 178,-46.083"/>
</g>
<!-- Node10&#45;&gt;Node5 -->
<g id="edge13" class="edge"><title>Node10&#45;&gt;Node5</title>
<path fill="none" stroke="midnightblue" d="M611.926,-158.734C616.297,-144.837 619.408,-125.813 610.5,-112 574.395,-56.0117 498.898,-30.7206 445.785,-19.5255"/>
<polygon fill="midnightblue" stroke="midnightblue" points="608.616,-157.597 608.516,-168.191 615.201,-159.971 608.616,-157.597"/>
</g>
</g>
</svg>
