<?xml version="1.0" encoding="UTF-8" standalone="no"?>
<!DOCTYPE svg PUBLIC "-//W3C//DTD SVG 1.1//EN"
 "http://www.w3.org/Graphics/SVG/1.1/DTD/svg11.dtd">
<!-- Generated by graphviz version 2.40.1 (20161225.0304)
 -->
<!-- Title: carla::client::detail::Simulator::EnableForROS Pages: 1 -->
<!--zoomable 161 -->
<svg id="main" version="1.1" xmlns="http://www.w3.org/2000/svg" xmlns:xlink="http://www.w3.org/1999/xlink" xml:space="preserve" onload="init(evt)">
<style type="text/css"><![CDATA[
.edge:hover path { stroke: red; }
.edge:hover polygon { stroke: red; fill: red; }
]]></style>
<script type="text/javascript"><![CDATA[
var edges = document.getElementsByTagName('g');
if (edges && edges.length) {
  for (var i=0;i<edges.length;i++) {
    if (edges[i].id.substr(0,4)=='edge') {
      edges[i].setAttribute('class','edge');
    }
  }
}
]]></script>
        <defs>
                <circle id="rim" cx="0" cy="0" r="7"/>
                <circle id="rim2" cx="0" cy="0" r="3.5"/>
                <g id="zoomPlus">
                        <use xlink:href="#rim" fill="#404040">
                                <set attributeName="fill" to="#808080" begin="zoomplus.mouseover" end="zoomplus.mouseout"/>
                        </use>
                        <path d="M-4,0h8M0,-4v8" fill="none" stroke="white" stroke-width="1.5" pointer-events="none"/>
                </g>
                <g id="zoomMin">
                        <use xlink:href="#rim" fill="#404040">
                                <set attributeName="fill" to="#808080" begin="zoomminus.mouseover" end="zoomminus.mouseout"/>
                        </use>
                        <path d="M-4,0h8" fill="none" stroke="white" stroke-width="1.5" pointer-events="none"/>
                </g>
                <g id="dirArrow">
                        <path fill="none" stroke="white" stroke-width="1.5" d="M0,-3.0v7 M-2.5,-0.5L0,-3.0L2.5,-0.5"/>
                </g>
               <g id="resetDef">
                       <use xlink:href="#rim2" fill="#404040">
                               <set attributeName="fill" to="#808080" begin="reset.mouseover" end="reset.mouseout"/>
                       </use>
               </g>
        </defs>

<script type="text/javascript">
var viewWidth = 555;
var viewHeight = 161;
var sectionId = 'dynsection-35';
</script>
<script xlink:href="../../svgpan.js"/>
<svg id="graph" class="graph">
<g id="viewport">
<title>carla::client::detail::Simulator::EnableForROS</title>
<polygon fill="#ffffff" stroke="transparent" points="-4,4 -4,-157 551,-157 551,4 -4,4"/>
<!-- Node185 -->
<g id="node1" class="node">
<title>Node185</title>
<polygon fill="#bfbfbf" stroke="#000000" points="0,-73.5 0,-103.5 144,-103.5 144,-73.5 0,-73.5"/>
<text text-anchor="start" x="8" y="-91.5" font-family="Helvetica,sans-Serif" font-size="10.00" fill="#000000">carla::client::detail</text>
<text text-anchor="middle" x="72" y="-80.5" font-family="Helvetica,sans-Serif" font-size="10.00" fill="#000000">::Simulator::EnableForROS</text>
</g>
<!-- Node186 -->
<g id="node2" class="node">
<title>Node186</title>
<g id="a_node2"><a xlink:href="../../dd/ddd/classcarla_1_1client_1_1detail_1_1Client.html#a97d3f719b5d2191fd408ea87747d13c2" target="_top" xlink:title="carla::client::detail\l::Client::EnableForROS">
<polygon fill="#ffffff" stroke="#000000" points="206.5,-122.5 206.5,-152.5 331.5,-152.5 331.5,-122.5 206.5,-122.5"/>
<text text-anchor="start" x="214.5" y="-140.5" font-family="Helvetica,sans-Serif" font-size="10.00" fill="#000000">carla::client::detail</text>
<text text-anchor="middle" x="269" y="-129.5" font-family="Helvetica,sans-Serif" font-size="10.00" fill="#000000">::Client::EnableForROS</text>
</a>
</g>
</g>
<!-- Node185&#45;&gt;Node186 -->
<g id="edge1" class="edge">
<title>Node185&#45;&gt;Node186</title>
<path fill="none" stroke="#191970" d="M132.4453,-103.5346C153.4348,-108.7554 177.1487,-114.6537 198.8544,-120.0526"/>
<polygon fill="#191970" stroke="#191970" points="198.1198,-123.4765 208.669,-122.4938 199.8095,-116.6835 198.1198,-123.4765"/>
</g>
<!-- Node188 -->
<g id="node4" class="node">
<title>Node188</title>
<g id="a_node4"><a xlink:href="../../d2/d06/classcarla_1_1client_1_1detail_1_1ActorState.html#a422ca0b4e5f22343a507b66aa25d6d3e" target="_top" xlink:title="carla::client::detail\l::ActorState::GetActorDescription">
<polygon fill="#ffffff" stroke="#000000" points="180,-73.5 180,-103.5 358,-103.5 358,-73.5 180,-73.5"/>
<text text-anchor="start" x="188" y="-91.5" font-family="Helvetica,sans-Serif" font-size="10.00" fill="#000000">carla::client::detail</text>
<text text-anchor="middle" x="269" y="-80.5" font-family="Helvetica,sans-Serif" font-size="10.00" fill="#000000">::ActorState::GetActorDescription</text>
</a>
</g>
</g>
<!-- Node185&#45;&gt;Node188 -->
<g id="edge3" class="edge">
<title>Node185&#45;&gt;Node188</title>
<path fill="none" stroke="#191970" d="M144.2369,-88.5C152.5243,-88.5 161.0792,-88.5 169.6428,-88.5"/>
<polygon fill="#191970" stroke="#191970" points="169.6842,-92.0001 179.6842,-88.5 169.6841,-85.0001 169.6842,-92.0001"/>
</g>
<!-- Node189 -->
<g id="node5" class="node">
<title>Node189</title>
<g id="a_node5"><a xlink:href="../../db/dfd/classcarla_1_1rpc_1_1Actor.html#a3d76c1c72f6f45601a8d6c564c5d68d2" target="_top" xlink:title="carla::rpc::Actor::\lGetStreamToken">
<polygon fill="#ffffff" stroke="#000000" points="219.5,-24.5 219.5,-54.5 318.5,-54.5 318.5,-24.5 219.5,-24.5"/>
<text text-anchor="start" x="227.5" y="-42.5" font-family="Helvetica,sans-Serif" font-size="10.00" fill="#000000">carla::rpc::Actor::</text>
<text text-anchor="middle" x="269" y="-31.5" font-family="Helvetica,sans-Serif" font-size="10.00" fill="#000000">GetStreamToken</text>
</a>
</g>
</g>
<!-- Node185&#45;&gt;Node189 -->
<g id="edge4" class="edge">
<title>Node185&#45;&gt;Node189</title>
<path fill="none" stroke="#191970" d="M132.4453,-73.4654C156.8995,-67.3829 185.0516,-60.3806 209.4177,-54.32"/>
<polygon fill="#191970" stroke="#191970" points="210.3943,-57.6838 219.2538,-51.8734 208.7046,-50.8908 210.3943,-57.6838"/>
</g>
<!-- Node187 -->
<g id="node3" class="node">
<title>Node187</title>
<g id="a_node3"><a xlink:href="../../df/de1/classcarla_1_1streaming_1_1detail_1_1token__type.html#a988d3d550de94327c015c6d630e19c36" target="_top" xlink:title="carla::streaming::detail\l::token_type::get_stream_id">
<polygon fill="#ffffff" stroke="#000000" points="394,-122.5 394,-152.5 547,-152.5 547,-122.5 394,-122.5"/>
<text text-anchor="start" x="402" y="-140.5" font-family="Helvetica,sans-Serif" font-size="10.00" fill="#000000">carla::streaming::detail</text>
<text text-anchor="middle" x="470.5" y="-129.5" font-family="Helvetica,sans-Serif" font-size="10.00" fill="#000000">::token_type::get_stream_id</text>
</a>
</g>
</g>
<!-- Node186&#45;&gt;Node187 -->
<g id="edge2" class="edge">
<title>Node186&#45;&gt;Node187</title>
<path fill="none" stroke="#191970" d="M331.6513,-137.5C348.0691,-137.5 366.0697,-137.5 383.5098,-137.5"/>
<polygon fill="#191970" stroke="#191970" points="383.6973,-141.0001 393.6972,-137.5 383.6972,-134.0001 383.6973,-141.0001"/>
</g>
<!-- Node190 -->
<g id="node6" class="node">
<title>Node190</title>
<g id="a_node6"><a xlink:href="../../db/dfd/classcarla_1_1rpc_1_1Actor.html#a427ab77ca916ac215a38a6e984356326" target="_top" xlink:title="carla::rpc::Actor::\lHasAStream">
<polygon fill="#ffffff" stroke="#000000" points="421,-49.5 421,-79.5 520,-79.5 520,-49.5 421,-49.5"/>
<text text-anchor="start" x="429" y="-67.5" font-family="Helvetica,sans-Serif" font-size="10.00" fill="#000000">carla::rpc::Actor::</text>
<text text-anchor="middle" x="470.5" y="-56.5" font-family="Helvetica,sans-Serif" font-size="10.00" fill="#000000">HasAStream</text>
</a>
</g>
</g>
<!-- Node189&#45;&gt;Node190 -->
<g id="edge5" class="edge">
<title>Node189&#45;&gt;Node190</title>
<path fill="none" stroke="#191970" d="M318.5505,-45.6477C346.382,-49.1007 381.3129,-53.4346 410.6634,-57.0761"/>
<polygon fill="#191970" stroke="#191970" points="410.4366,-60.5747 420.7915,-58.3327 411.2986,-53.628 410.4366,-60.5747"/>
</g>
<!-- Node191 -->
<g id="node7" class="node">
<title>Node191</title>
<g id="a_node7"><a xlink:href="../../db/dfd/classcarla_1_1rpc_1_1Actor.html#a455f61302cb062e6fee446d2c9adbeb9" target="_top" xlink:title="carla::rpc::Actor::\lMSGPACK_DEFINE_ARRAY">
<polygon fill="#ffffff" stroke="#000000" points="400,-.5 400,-30.5 541,-30.5 541,-.5 400,-.5"/>
<text text-anchor="start" x="408" y="-18.5" font-family="Helvetica,sans-Serif" font-size="10.00" fill="#000000">carla::rpc::Actor::</text>
<text text-anchor="middle" x="470.5" y="-7.5" font-family="Helvetica,sans-Serif" font-size="10.00" fill="#000000">MSGPACK_DEFINE_ARRAY</text>
</a>
</g>
</g>
<!-- Node189&#45;&gt;Node191 -->
<g id="edge6" class="edge">
<title>Node189&#45;&gt;Node191</title>
<path fill="none" stroke="#191970" d="M318.5505,-33.5982C339.9625,-31.0479 365.5766,-27.9971 389.6187,-25.1335"/>
<polygon fill="#191970" stroke="#191970" points="390.2936,-28.5779 399.8095,-23.9197 389.4657,-21.6271 390.2936,-28.5779"/>
</g>
</g>
</svg>
        <g id="navigator" transform="translate(0 0)" fill="#404254">
                <rect fill="#f2f5e9" fill-opacity="0.5" stroke="#606060" stroke-width=".5" x="0" y="0" width="60" height="60"/>
                <use id="zoomplus" xlink:href="#zoomPlus" x="17" y="9" onmousedown="handleZoom(evt,'in')"/>
                <use id="zoomminus" xlink:href="#zoomMin" x="42" y="9" onmousedown="handleZoom(evt,'out')"/>
                <use id="reset" xlink:href="#resetDef" x="30" y="36" onmousedown="handleReset()"/>
                <g id="arrowUp" xlink:href="#dirArrow" transform="translate(30 24)" onmousedown="handlePan(0,-1)">
                  <use xlink:href="#rim" fill="#404040">
                        <set attributeName="fill" to="#808080" begin="arrowUp.mouseover" end="arrowUp.mouseout"/>
                  </use>
                  <path fill="none" stroke="white" stroke-width="1.5" d="M0,-3.0v7 M-2.5,-0.5L0,-3.0L2.5,-0.5"/>
                </g>
                <g id="arrowRight" xlink:href="#dirArrow" transform="rotate(90) translate(36 -43)" onmousedown="handlePan(1,0)">
                  <use xlink:href="#rim" fill="#404040">
                        <set attributeName="fill" to="#808080" begin="arrowRight.mouseover" end="arrowRight.mouseout"/>
                  </use>
                  <path fill="none" stroke="white" stroke-width="1.5" d="M0,-3.0v7 M-2.5,-0.5L0,-3.0L2.5,-0.5"/>
                </g>
                <g id="arrowDown" xlink:href="#dirArrow" transform="rotate(180) translate(-30 -48)" onmousedown="handlePan(0,1)">
                  <use xlink:href="#rim" fill="#404040">
                        <set attributeName="fill" to="#808080" begin="arrowDown.mouseover" end="arrowDown.mouseout"/>
                  </use>
                  <path fill="none" stroke="white" stroke-width="1.5" d="M0,-3.0v7 M-2.5,-0.5L0,-3.0L2.5,-0.5"/>
                </g>
                <g id="arrowLeft" xlink:href="#dirArrow" transform="rotate(270) translate(-36 17)" onmousedown="handlePan(-1,0)">
                  <use xlink:href="#rim" fill="#404040">
                        <set attributeName="fill" to="#808080" begin="arrowLeft.mouseover" end="arrowLeft.mouseout"/>
                  </use>
                  <path fill="none" stroke="white" stroke-width="1.5" d="M0,-3.0v7 M-2.5,-0.5L0,-3.0L2.5,-0.5"/>
                </g>
        </g>
        <svg viewBox="0 0 15 15" width="100%" height="30px" preserveAspectRatio="xMaxYMin meet">
         <g id="arrow_out" transform="scale(0.3 0.3)">
          <a xlink:href="classcarla_1_1client_1_1detail_1_1Simulator_a37e820807ac1f611d7e917f4ebca5880_cgraph_org.svg" target="_base">
           <rect id="button" ry="5" rx="5" y="6" x="6" height="38" width="38"
                fill="#f2f5e9" fill-opacity="0.5" stroke="#606060" stroke-width="1.0"/>
           <path id="arrow"
             d="M 11.500037,31.436501 C 11.940474,20.09759 22.043105,11.32322 32.158766,21.979434 L 37.068811,17.246167 C 37.068811,17.246167 37.088388,32 37.088388,32 L 22.160133,31.978069 C 22.160133,31.978069 26.997745,27.140456 26.997745,27.140456 C 18.528582,18.264221 13.291696,25.230495 11.500037,31.436501 z"
             style="fill:#404040;"/>
          </a>
         </g>
        </svg>
</svg>
