<?xml version="1.0" encoding="UTF-8" standalone="no"?>
<!DOCTYPE svg PUBLIC "-//W3C//DTD SVG 1.1//EN"
 "http://www.w3.org/Graphics/SVG/1.1/DTD/svg11.dtd">
<!-- Generated by graphviz version 2.38.0 (20140413.2041)
 -->
<!-- Title: carla::client::detail::Simulator::LoadEpisode Pages: 1 -->
<!--zoomable 448 -->
<svg id="main" version="1.1" xmlns="http://www.w3.org/2000/svg" xmlns:xlink="http://www.w3.org/1999/xlink" xml:space="preserve" onload="init(evt)">
<style type="text/css"><![CDATA[
.edge:hover path { stroke: red; }
.edge:hover polygon { stroke: red; fill: red; }
]]></style>
<script type="text/javascript"><![CDATA[
var edges = document.getElementsByTagName('g');
if (edges && edges.length) {
  for (var i=0;i<edges.length;i++) {
    if (edges[i].id.substr(0,4)=='edge') {
      edges[i].setAttribute('class','edge');
    }
  }
}
]]></script>
        <defs>
                <circle id="rim" cx="0" cy="0" r="7"/>
                <circle id="rim2" cx="0" cy="0" r="3.5"/>
                <g id="zoomPlus">
                        <use xlink:href="#rim" fill="#404040">
                                <set attributeName="fill" to="#808080" begin="zoomplus.mouseover" end="zoomplus.mouseout"/>
                        </use>
                        <path d="M-4,0h8M0,-4v8" fill="none" stroke="white" stroke-width="1.5" pointer-events="none"/>
                </g>
                <g id="zoomMin">
                        <use xlink:href="#rim" fill="#404040">
                                <set attributeName="fill" to="#808080" begin="zoomminus.mouseover" end="zoomminus.mouseout"/>
                        </use>
                        <path d="M-4,0h8" fill="none" stroke="white" stroke-width="1.5" pointer-events="none"/>
                </g>
                <g id="dirArrow">
                        <path fill="none" stroke="white" stroke-width="1.5" d="M0,-3.0v7 M-2.5,-0.5L0,-3.0L2.5,-0.5"/>
                </g>
               <g id="resetDef">
                       <use xlink:href="#rim2" fill="#404040">
                               <set attributeName="fill" to="#808080" begin="reset.mouseover" end="reset.mouseout"/>
                       </use>
               </g>
        </defs>

<script type="text/javascript">
var viewWidth = 1199;
var viewHeight = 448;
var sectionId = 'dynsection-41';
</script>
<script xlink:href="../../svgpan.js"/>
<svg id="graph" class="graph">
<g id="viewport">
<title>carla::client::detail::Simulator::LoadEpisode</title>
<polygon fill="white" stroke="none" points="-4,4 -4,-444 1195,-444 1195,4 -4,4"/>
<!-- Node1 -->
<g id="node1" class="node"><title>Node1</title>
<polygon fill="#bfbfbf" stroke="black" points="0,-120.5 0,-150.5 126,-150.5 126,-120.5 0,-120.5"/>
<text text-anchor="start" x="8" y="-138.5" font-family="Helvetica,sans-Serif" font-size="10.00">carla::client::detail</text>
<text text-anchor="middle" x="63" y="-127.5" font-family="Helvetica,sans-Serif" font-size="10.00">::Simulator::LoadEpisode</text>
</g>
<!-- Node2 -->
<g id="node2" class="node"><title>Node2</title>
<g id="a_node2"><a xlink:href="../../df/df3/classcarla_1_1client_1_1detail_1_1Simulator.html#af6e35986ac6ca31bfa0f99df4be2b8d3" target="_top" xlink:title="carla::client::detail\l::Simulator::GetCurrentEpisode">
<polygon fill="white" stroke="black" points="162,-235.5 162,-265.5 315,-265.5 315,-235.5 162,-235.5"/>
<text text-anchor="start" x="170" y="-253.5" font-family="Helvetica,sans-Serif" font-size="10.00">carla::client::detail</text>
<text text-anchor="middle" x="238.5" y="-242.5" font-family="Helvetica,sans-Serif" font-size="10.00">::Simulator::GetCurrentEpisode</text>
</a>
</g>
</g>
<!-- Node1&#45;&gt;Node2 -->
<g id="edge1" class="edge"><title>Node1&#45;&gt;Node2</title>
<path fill="none" stroke="midnightblue" d="M86.6821,-150.534C117.206,-170.766 171.639,-206.845 206.087,-229.679"/>
<polygon fill="midnightblue" stroke="midnightblue" points="204.543,-232.855 214.812,-235.462 208.411,-227.02 204.543,-232.855"/>
</g>
<!-- Node12 -->
<g id="node12" class="node"><title>Node12</title>
<g id="a_node12"><a xlink:href="../../dd/ddd/classcarla_1_1client_1_1detail_1_1Client.html#ada5a992f509d6f064e11222fe12bbf55" target="_top" xlink:title="carla::client::detail\l::Client::GetTimeout">
<polygon fill="white" stroke="black" points="377,-357.5 377,-387.5 482,-387.5 482,-357.5 377,-357.5"/>
<text text-anchor="start" x="385" y="-375.5" font-family="Helvetica,sans-Serif" font-size="10.00">carla::client::detail</text>
<text text-anchor="middle" x="429.5" y="-364.5" font-family="Helvetica,sans-Serif" font-size="10.00">::Client::GetTimeout</text>
</a>
</g>
</g>
<!-- Node1&#45;&gt;Node12 -->
<g id="edge20" class="edge"><title>Node1&#45;&gt;Node12</title>
<path fill="none" stroke="midnightblue" d="M70.9032,-150.79C84.4503,-179.19 117.151,-240.38 162,-275.5 222.797,-323.109 309.124,-348.79 366.881,-361.542"/>
<polygon fill="midnightblue" stroke="midnightblue" points="366.453,-365.03 376.964,-363.701 367.919,-358.185 366.453,-365.03"/>
</g>
<!-- Node17 -->
<g id="node17" class="node"><title>Node17</title>
<g id="a_node17"><a xlink:href="../../d9/d36/namespacecarla.html#a23602ab663165210a7757d6108f6b3cd" target="_top" xlink:title="carla::throw_exception">
<polygon fill="white" stroke="black" points="564.5,-136 564.5,-155 679.5,-155 679.5,-136 564.5,-136"/>
<text text-anchor="middle" x="622" y="-143" font-family="Helvetica,sans-Serif" font-size="10.00">carla::throw_exception</text>
</a>
</g>
</g>
<!-- Node1&#45;&gt;Node17 -->
<g id="edge23" class="edge"><title>Node1&#45;&gt;Node17</title>
<path fill="none" stroke="midnightblue" d="M126.211,-136.797C138.092,-137.037 150.43,-137.281 162,-137.5 301.504,-140.139 464.864,-142.91 554.21,-144.398"/>
<polygon fill="midnightblue" stroke="midnightblue" points="554.412,-147.902 564.469,-144.569 554.528,-140.903 554.412,-147.902"/>
</g>
<!-- Node19 -->
<g id="node19" class="node"><title>Node19</title>
<g id="a_node19"><a xlink:href="../../d1/dd3/classcarla_1_1client_1_1detail_1_1EpisodeProxyImpl.html#a16a9f0470711044c68276fec17d31f1e" target="_top" xlink:title="carla::client::detail\l::EpisodeProxyImpl::GetId">
<polygon fill="white" stroke="black" points="172.5,-98.5 172.5,-128.5 304.5,-128.5 304.5,-98.5 172.5,-98.5"/>
<text text-anchor="start" x="180.5" y="-116.5" font-family="Helvetica,sans-Serif" font-size="10.00">carla::client::detail</text>
<text text-anchor="middle" x="238.5" y="-105.5" font-family="Helvetica,sans-Serif" font-size="10.00">::EpisodeProxyImpl::GetId</text>
</a>
</g>
</g>
<!-- Node1&#45;&gt;Node19 -->
<g id="edge19" class="edge"><title>Node1&#45;&gt;Node19</title>
<path fill="none" stroke="midnightblue" d="M126.147,-127.62C137.846,-126.136 150.195,-124.57 162.243,-123.043"/>
<polygon fill="midnightblue" stroke="midnightblue" points="162.792,-126.501 172.272,-121.771 161.911,-119.557 162.792,-126.501"/>
</g>
<!-- Node20 -->
<g id="node20" class="node"><title>Node20</title>
<g id="a_node20"><a xlink:href="../../dd/ddd/classcarla_1_1client_1_1detail_1_1Client.html#a46e6dae5df3207f448787ef9a289c652" target="_top" xlink:title="carla::client::detail\l::Client::LoadEpisode">
<polygon fill="white" stroke="black" points="183.5,-49.5 183.5,-79.5 293.5,-79.5 293.5,-49.5 183.5,-49.5"/>
<text text-anchor="start" x="191.5" y="-67.5" font-family="Helvetica,sans-Serif" font-size="10.00">carla::client::detail</text>
<text text-anchor="middle" x="238.5" y="-56.5" font-family="Helvetica,sans-Serif" font-size="10.00">::Client::LoadEpisode</text>
</a>
</g>
</g>
<!-- Node1&#45;&gt;Node20 -->
<g id="edge21" class="edge"><title>Node1&#45;&gt;Node20</title>
<path fill="none" stroke="midnightblue" d="M92.6871,-120.435C111.977,-110.632 138.144,-97.9587 162,-88.5 166.831,-86.5847 171.88,-84.712 176.978,-82.911"/>
<polygon fill="midnightblue" stroke="midnightblue" points="178.473,-86.0983 186.797,-79.5437 176.203,-79.4768 178.473,-86.0983"/>
</g>
<!-- Node21 -->
<g id="node21" class="node"><title>Node21</title>
<g id="a_node21"><a xlink:href="../../d2/d2e/classcarla_1_1time__duration.html#ab6435c6f89dc71d1e33f4ac384c007ad" target="_top" xlink:title="carla::time_duration\l::milliseconds">
<polygon fill="white" stroke="black" points="187.5,-0.5 187.5,-30.5 289.5,-30.5 289.5,-0.5 187.5,-0.5"/>
<text text-anchor="start" x="195.5" y="-18.5" font-family="Helvetica,sans-Serif" font-size="10.00">carla::time_duration</text>
<text text-anchor="middle" x="238.5" y="-7.5" font-family="Helvetica,sans-Serif" font-size="10.00">::milliseconds</text>
</a>
</g>
</g>
<!-- Node1&#45;&gt;Node21 -->
<g id="edge22" class="edge"><title>Node1&#45;&gt;Node21</title>
<path fill="none" stroke="midnightblue" d="M75.6312,-120.279C92.482,-99.2261 125.669,-61.3486 162,-39.5 166.984,-36.503 172.38,-33.8413 177.918,-31.4858"/>
<polygon fill="midnightblue" stroke="midnightblue" points="179.286,-34.7092 187.323,-27.8059 176.735,-28.1905 179.286,-34.7092"/>
</g>
<!-- Node3 -->
<g id="node3" class="node"><title>Node3</title>
<g id="a_node3"><a xlink:href="../../df/df3/classcarla_1_1client_1_1detail_1_1Simulator.html#ae51eef7fae1a55b31ed1a272d35efbf6" target="_top" xlink:title="carla::client::detail\l::Simulator::GetEpisodeSettings">
<polygon fill="white" stroke="black" points="351,-235.5 351,-265.5 508,-265.5 508,-235.5 351,-235.5"/>
<text text-anchor="start" x="359" y="-253.5" font-family="Helvetica,sans-Serif" font-size="10.00">carla::client::detail</text>
<text text-anchor="middle" x="429.5" y="-242.5" font-family="Helvetica,sans-Serif" font-size="10.00">::Simulator::GetEpisodeSettings</text>
</a>
</g>
</g>
<!-- Node2&#45;&gt;Node3 -->
<g id="edge2" class="edge"><title>Node2&#45;&gt;Node3</title>
<path fill="none" stroke="midnightblue" d="M315.013,-250.5C323.511,-250.5 332.224,-250.5 340.859,-250.5"/>
<polygon fill="midnightblue" stroke="midnightblue" points="340.944,-254 350.944,-250.5 340.944,-247 340.944,-254"/>
</g>
<!-- Node2&#45;&gt;Node12 -->
<g id="edge11" class="edge"><title>Node2&#45;&gt;Node12</title>
<path fill="none" stroke="midnightblue" d="M256.231,-265.901C284.665,-291.969 340.376,-342.548 351,-348.5 356.117,-351.367 361.62,-353.936 367.247,-356.228"/>
<polygon fill="midnightblue" stroke="midnightblue" points="366.198,-359.573 376.79,-359.829 368.67,-353.024 366.198,-359.573"/>
</g>
<!-- Node13 -->
<g id="node13" class="node"><title>Node13</title>
<g id="a_node13"><a xlink:href="../../d8/dcd/namespacecarla_1_1client_1_1detail.html#a097188ada46523ae4f48d6e1b2add828" target="_top" xlink:title="carla::client::detail\l::ValidateVersions">
<polygon fill="white" stroke="black" points="381.5,-308.5 381.5,-338.5 477.5,-338.5 477.5,-308.5 381.5,-308.5"/>
<text text-anchor="start" x="389.5" y="-326.5" font-family="Helvetica,sans-Serif" font-size="10.00">carla::client::detail</text>
<text text-anchor="middle" x="429.5" y="-315.5" font-family="Helvetica,sans-Serif" font-size="10.00">::ValidateVersions</text>
</a>
</g>
</g>
<!-- Node2&#45;&gt;Node13 -->
<g id="edge12" class="edge"><title>Node2&#45;&gt;Node13</title>
<path fill="none" stroke="midnightblue" d="M278.661,-265.626C308.057,-276.98 348.484,-292.594 379.938,-304.743"/>
<polygon fill="midnightblue" stroke="midnightblue" points="378.8,-308.056 389.389,-308.394 381.322,-301.526 378.8,-308.056"/>
</g>
<!-- Node16 -->
<g id="node16" class="node"><title>Node16</title>
<g id="a_node16"><a xlink:href="../../df/df3/classcarla_1_1client_1_1detail_1_1Simulator.html#a002b29bb5445982c00d7566e5cfa0439" target="_top" xlink:title="carla::client::detail\l::Simulator::WaitForTick">
<polygon fill="white" stroke="black" points="368,-186.5 368,-216.5 491,-216.5 491,-186.5 368,-186.5"/>
<text text-anchor="start" x="376" y="-204.5" font-family="Helvetica,sans-Serif" font-size="10.00">carla::client::detail</text>
<text text-anchor="middle" x="429.5" y="-193.5" font-family="Helvetica,sans-Serif" font-size="10.00">::Simulator::WaitForTick</text>
</a>
</g>
</g>
<!-- Node2&#45;&gt;Node16 -->
<g id="edge16" class="edge"><title>Node2&#45;&gt;Node16</title>
<path fill="none" stroke="midnightblue" d="M297.491,-235.465C317.537,-230.268 340.174,-224.399 360.921,-219.02"/>
<polygon fill="midnightblue" stroke="midnightblue" points="361.817,-222.404 370.619,-216.506 360.061,-215.628 361.817,-222.404"/>
</g>
<!-- Node4 -->
<g id="node4" class="node"><title>Node4</title>
<g id="a_node4"><a xlink:href="../../dd/ddd/classcarla_1_1client_1_1detail_1_1Client.html#af24b90fee0483f3819213b2513406099" target="_top" xlink:title="carla::client::detail\l::Client::GetEpisodeSettings">
<polygon fill="white" stroke="black" points="551.5,-272.5 551.5,-302.5 692.5,-302.5 692.5,-272.5 551.5,-272.5"/>
<text text-anchor="start" x="559.5" y="-290.5" font-family="Helvetica,sans-Serif" font-size="10.00">carla::client::detail</text>
<text text-anchor="middle" x="622" y="-279.5" font-family="Helvetica,sans-Serif" font-size="10.00">::Client::GetEpisodeSettings</text>
</a>
</g>
</g>
<!-- Node3&#45;&gt;Node4 -->
<g id="edge3" class="edge"><title>Node3&#45;&gt;Node4</title>
<path fill="none" stroke="midnightblue" d="M507.984,-265.549C518.946,-267.679 530.234,-269.871 541.239,-272.008"/>
<polygon fill="midnightblue" stroke="midnightblue" points="540.764,-275.481 551.248,-273.952 542.099,-268.61 540.764,-275.481"/>
</g>
<!-- Node5 -->
<g id="node5" class="node"><title>Node5</title>
<g id="a_node5"><a xlink:href="../../df/df3/classcarla_1_1client_1_1detail_1_1Simulator.html#aa15510e1d3c571a2bb988ea41014dbb4" target="_top" xlink:title="carla::client::detail\l::Simulator::SetEpisodeSettings">
<polygon fill="white" stroke="black" points="544,-223.5 544,-253.5 700,-253.5 700,-223.5 544,-223.5"/>
<text text-anchor="start" x="552" y="-241.5" font-family="Helvetica,sans-Serif" font-size="10.00">carla::client::detail</text>
<text text-anchor="middle" x="622" y="-230.5" font-family="Helvetica,sans-Serif" font-size="10.00">::Simulator::SetEpisodeSettings</text>
</a>
</g>
</g>
<!-- Node3&#45;&gt;Node5 -->
<g id="edge4" class="edge"><title>Node3&#45;&gt;Node5</title>
<path fill="none" stroke="midnightblue" d="M508.258,-245.602C516.597,-245.077 525.12,-244.54 533.561,-244.008"/>
<polygon fill="midnightblue" stroke="midnightblue" points="534.038,-247.485 543.798,-243.363 533.598,-240.499 534.038,-247.485"/>
</g>
<!-- Node6 -->
<g id="node6" class="node"><title>Node6</title>
<g id="a_node6"><a xlink:href="../../d9/d36/namespacecarla.html#ab5b4f5a751b3db89ca01aeb4cbfb7e78" target="_top" xlink:title="carla::log_warning">
<polygon fill="white" stroke="black" points="758.5,-337 758.5,-356 853.5,-356 853.5,-337 758.5,-337"/>
<text text-anchor="middle" x="806" y="-344" font-family="Helvetica,sans-Serif" font-size="10.00">carla::log_warning</text>
</a>
</g>
</g>
<!-- Node5&#45;&gt;Node6 -->
<g id="edge5" class="edge"><title>Node5&#45;&gt;Node6</title>
<path fill="none" stroke="midnightblue" d="M677.852,-253.634C685.473,-256.5 693.061,-259.786 700,-263.5 718.038,-273.154 760.942,-308.799 785.969,-330.11"/>
<polygon fill="midnightblue" stroke="midnightblue" points="783.834,-332.89 793.709,-336.73 788.384,-327.571 783.834,-332.89"/>
</g>
<!-- Node8 -->
<g id="node8" class="node"><title>Node8</title>
<g id="a_node8"><a xlink:href="../../dd/ddd/classcarla_1_1client_1_1detail_1_1Client.html#a55868beb61f377d53d6a87a939c23fd1" target="_top" xlink:title="carla::client::detail\l::Client::SetEpisodeSettings">
<polygon fill="white" stroke="black" points="736,-199.5 736,-229.5 876,-229.5 876,-199.5 736,-199.5"/>
<text text-anchor="start" x="744" y="-217.5" font-family="Helvetica,sans-Serif" font-size="10.00">carla::client::detail</text>
<text text-anchor="middle" x="806" y="-206.5" font-family="Helvetica,sans-Serif" font-size="10.00">::Client::SetEpisodeSettings</text>
</a>
</g>
</g>
<!-- Node5&#45;&gt;Node8 -->
<g id="edge7" class="edge"><title>Node5&#45;&gt;Node8</title>
<path fill="none" stroke="midnightblue" d="M700.184,-228.322C708.68,-227.202 717.34,-226.06 725.859,-224.936"/>
<polygon fill="midnightblue" stroke="midnightblue" points="726.319,-228.406 735.776,-223.628 725.404,-221.466 726.319,-228.406"/>
</g>
<!-- Node9 -->
<g id="node9" class="node"><title>Node9</title>
<g id="a_node9"><a xlink:href="../../d8/dcd/namespacecarla_1_1client_1_1detail.html#aa008867c2874aa8192589c3f6959eec2" target="_top" xlink:title="carla::client::detail\l::SynchronizeFrame">
<polygon fill="white" stroke="black" points="754,-248.5 754,-278.5 858,-278.5 858,-248.5 754,-248.5"/>
<text text-anchor="start" x="762" y="-266.5" font-family="Helvetica,sans-Serif" font-size="10.00">carla::client::detail</text>
<text text-anchor="middle" x="806" y="-255.5" font-family="Helvetica,sans-Serif" font-size="10.00">::SynchronizeFrame</text>
</a>
</g>
</g>
<!-- Node5&#45;&gt;Node9 -->
<g id="edge8" class="edge"><title>Node5&#45;&gt;Node9</title>
<path fill="none" stroke="midnightblue" d="M700.184,-249.102C714.763,-251.105 729.826,-253.174 743.829,-255.097"/>
<polygon fill="midnightblue" stroke="midnightblue" points="743.433,-258.576 753.817,-256.469 744.386,-251.641 743.433,-258.576"/>
</g>
<!-- Node7 -->
<g id="node7" class="node"><title>Node7</title>
<g id="a_node7"><a xlink:href="../../d2/d8c/namespacecarla_1_1logging.html#a1824b914c5dc7221a1098a469e8ce612" target="_top" xlink:title="carla::logging::write\l_to_stream">
<polygon fill="white" stroke="black" points="913,-331.5 913,-361.5 1014,-361.5 1014,-331.5 913,-331.5"/>
<text text-anchor="start" x="921" y="-349.5" font-family="Helvetica,sans-Serif" font-size="10.00">carla::logging::write</text>
<text text-anchor="middle" x="963.5" y="-338.5" font-family="Helvetica,sans-Serif" font-size="10.00">_to_stream</text>
</a>
</g>
</g>
<!-- Node6&#45;&gt;Node7 -->
<g id="edge6" class="edge"><title>Node6&#45;&gt;Node7</title>
<path fill="none" stroke="midnightblue" d="M853.655,-346.5C868.993,-346.5 886.263,-346.5 902.452,-346.5"/>
<polygon fill="midnightblue" stroke="midnightblue" points="902.903,-350 912.903,-346.5 902.903,-343 902.903,-350"/>
</g>
<!-- Node10 -->
<g id="node10" class="node"><title>Node10</title>
<g id="a_node10"><a xlink:href="../../d1/db6/classcarla_1_1client_1_1detail_1_1Episode.html#a8b55daa93e4615da757774034cc8625e" target="_top" xlink:title="carla::client::detail\l::Episode::GetState">
<polygon fill="white" stroke="black" points="912,-248.5 912,-278.5 1015,-278.5 1015,-248.5 912,-248.5"/>
<text text-anchor="start" x="920" y="-266.5" font-family="Helvetica,sans-Serif" font-size="10.00">carla::client::detail</text>
<text text-anchor="middle" x="963.5" y="-255.5" font-family="Helvetica,sans-Serif" font-size="10.00">::Episode::GetState</text>
</a>
</g>
</g>
<!-- Node9&#45;&gt;Node10 -->
<g id="edge9" class="edge"><title>Node9&#45;&gt;Node10</title>
<path fill="none" stroke="midnightblue" d="M858.347,-263.5C872.158,-263.5 887.229,-263.5 901.508,-263.5"/>
<polygon fill="midnightblue" stroke="midnightblue" points="901.737,-267 911.736,-263.5 901.736,-260 901.737,-267"/>
</g>
<!-- Node11 -->
<g id="node11" class="node"><title>Node11</title>
<g id="a_node11"><a xlink:href="../../d1/db6/classcarla_1_1client_1_1detail_1_1Episode.html#a52e8266588be7d58d4a3f70149d5fa59" target="_top" xlink:title="carla::client::detail\l::Episode::CreateNavigation\lIfMissing">
<polygon fill="white" stroke="black" points="1051,-243 1051,-284 1191,-284 1191,-243 1051,-243"/>
<text text-anchor="start" x="1059" y="-272" font-family="Helvetica,sans-Serif" font-size="10.00">carla::client::detail</text>
<text text-anchor="start" x="1059" y="-261" font-family="Helvetica,sans-Serif" font-size="10.00">::Episode::CreateNavigation</text>
<text text-anchor="middle" x="1121" y="-250" font-family="Helvetica,sans-Serif" font-size="10.00">IfMissing</text>
</a>
</g>
</g>
<!-- Node10&#45;&gt;Node11 -->
<g id="edge10" class="edge"><title>Node10&#45;&gt;Node11</title>
<path fill="none" stroke="midnightblue" d="M1015.42,-263.5C1023.57,-263.5 1032.16,-263.5 1040.78,-263.5"/>
<polygon fill="midnightblue" stroke="midnightblue" points="1040.89,-267 1050.89,-263.5 1040.89,-260 1040.89,-267"/>
</g>
<!-- Node13&#45;&gt;Node6 -->
<g id="edge15" class="edge"><title>Node13&#45;&gt;Node6</title>
<path fill="none" stroke="midnightblue" d="M477.717,-338.445C487.736,-341.696 498.234,-345.163 508,-348.5 524.097,-354.001 527.243,-358.567 544,-361.5 613.721,-373.703 695.353,-365.472 748.512,-357.174"/>
<polygon fill="midnightblue" stroke="midnightblue" points="749.109,-360.623 758.424,-355.575 747.994,-353.713 749.109,-360.623"/>
</g>
<!-- Node14 -->
<g id="node14" class="node"><title>Node14</title>
<g id="a_node14"><a xlink:href="../../dd/ddd/classcarla_1_1client_1_1detail_1_1Client.html#a083c9ce60bfce3cad7b237e1706abc60" target="_top" xlink:title="carla::client::detail\l::Client::GetClientVersion">
<polygon fill="white" stroke="black" points="558,-321.5 558,-351.5 686,-351.5 686,-321.5 558,-321.5"/>
<text text-anchor="start" x="566" y="-339.5" font-family="Helvetica,sans-Serif" font-size="10.00">carla::client::detail</text>
<text text-anchor="middle" x="622" y="-328.5" font-family="Helvetica,sans-Serif" font-size="10.00">::Client::GetClientVersion</text>
</a>
</g>
</g>
<!-- Node13&#45;&gt;Node14 -->
<g id="edge13" class="edge"><title>Node13&#45;&gt;Node14</title>
<path fill="none" stroke="midnightblue" d="M477.59,-326.713C498.8,-328.161 524.333,-329.903 547.94,-331.514"/>
<polygon fill="midnightblue" stroke="midnightblue" points="547.707,-335.006 557.922,-332.195 548.183,-328.023 547.707,-335.006"/>
</g>
<!-- Node15 -->
<g id="node15" class="node"><title>Node15</title>
<g id="a_node15"><a xlink:href="../../dd/ddd/classcarla_1_1client_1_1detail_1_1Client.html#abec87413d3549054d3e18d9ca041529d" target="_top" xlink:title="carla::client::detail\l::Client::GetServerVersion">
<polygon fill="white" stroke="black" points="556.5,-409.5 556.5,-439.5 687.5,-439.5 687.5,-409.5 556.5,-409.5"/>
<text text-anchor="start" x="564.5" y="-427.5" font-family="Helvetica,sans-Serif" font-size="10.00">carla::client::detail</text>
<text text-anchor="middle" x="622" y="-416.5" font-family="Helvetica,sans-Serif" font-size="10.00">::Client::GetServerVersion</text>
</a>
</g>
</g>
<!-- Node13&#45;&gt;Node15 -->
<g id="edge14" class="edge"><title>Node13&#45;&gt;Node15</title>
<path fill="none" stroke="midnightblue" d="M477.685,-333.797C488.231,-337.402 498.958,-342.188 508,-348.5 529.288,-363.359 523.163,-379.014 544,-394.5 549.416,-398.525 555.44,-402.083 561.667,-405.211"/>
<polygon fill="midnightblue" stroke="midnightblue" points="560.344,-408.455 570.888,-409.49 563.29,-402.106 560.344,-408.455"/>
</g>
<!-- Node16&#45;&gt;Node17 -->
<g id="edge17" class="edge"><title>Node16&#45;&gt;Node17</title>
<path fill="none" stroke="midnightblue" d="M475.895,-186.495C496.59,-179.811 521.455,-171.998 544,-165.5 553.259,-162.831 563.19,-160.132 572.739,-157.616"/>
<polygon fill="midnightblue" stroke="midnightblue" points="573.714,-160.979 582.508,-155.071 571.948,-154.206 573.714,-160.979"/>
</g>
<!-- Node18 -->
<g id="node18" class="node"><title>Node18</title>
<g id="a_node18"><a xlink:href="../../dd/ddd/classcarla_1_1client_1_1detail_1_1Client.html#afa6dfcf357e5a02061d2907139f6fb1f" target="_top" xlink:title="carla::client::detail\l::Client::GetEndpoint">
<polygon fill="white" stroke="black" points="568,-174.5 568,-204.5 676,-204.5 676,-174.5 568,-174.5"/>
<text text-anchor="start" x="576" y="-192.5" font-family="Helvetica,sans-Serif" font-size="10.00">carla::client::detail</text>
<text text-anchor="middle" x="622" y="-181.5" font-family="Helvetica,sans-Serif" font-size="10.00">::Client::GetEndpoint</text>
</a>
</g>
</g>
<!-- Node16&#45;&gt;Node18 -->
<g id="edge18" class="edge"><title>Node16&#45;&gt;Node18</title>
<path fill="none" stroke="midnightblue" d="M491.037,-197.687C512.293,-196.348 536.221,-194.84 557.698,-193.488"/>
<polygon fill="midnightblue" stroke="midnightblue" points="557.937,-196.98 567.697,-192.858 557.496,-189.993 557.937,-196.98"/>
</g>
</g>
</svg>
        <g id="navigator" transform="translate(0 0)" fill="#404254">
                <rect fill="#f2f5e9" fill-opacity="0.5" stroke="#606060" stroke-width=".5" x="0" y="0" width="60" height="60"/>
                <use id="zoomplus" xlink:href="#zoomPlus" x="17" y="9" onmousedown="handleZoom(evt,'in')"/>
                <use id="zoomminus" xlink:href="#zoomMin" x="42" y="9" onmousedown="handleZoom(evt,'out')"/>
                <use id="reset" xlink:href="#resetDef" x="30" y="36" onmousedown="handleReset()"/>
                <g id="arrowUp" xlink:href="#dirArrow" transform="translate(30 24)" onmousedown="handlePan(0,-1)">
                  <use xlink:href="#rim" fill="#404040">
                        <set attributeName="fill" to="#808080" begin="arrowUp.mouseover" end="arrowUp.mouseout"/>
                  </use>
                  <path fill="none" stroke="white" stroke-width="1.5" d="M0,-3.0v7 M-2.5,-0.5L0,-3.0L2.5,-0.5"/>
                </g>
                <g id="arrowRight" xlink:href="#dirArrow" transform="rotate(90) translate(36 -43)" onmousedown="handlePan(1,0)">
                  <use xlink:href="#rim" fill="#404040">
                        <set attributeName="fill" to="#808080" begin="arrowRight.mouseover" end="arrowRight.mouseout"/>
                  </use>
                  <path fill="none" stroke="white" stroke-width="1.5" d="M0,-3.0v7 M-2.5,-0.5L0,-3.0L2.5,-0.5"/>
                </g>
                <g id="arrowDown" xlink:href="#dirArrow" transform="rotate(180) translate(-30 -48)" onmousedown="handlePan(0,1)">
                  <use xlink:href="#rim" fill="#404040">
                        <set attributeName="fill" to="#808080" begin="arrowDown.mouseover" end="arrowDown.mouseout"/>
                  </use>
                  <path fill="none" stroke="white" stroke-width="1.5" d="M0,-3.0v7 M-2.5,-0.5L0,-3.0L2.5,-0.5"/>
                </g>
                <g id="arrowLeft" xlink:href="#dirArrow" transform="rotate(270) translate(-36 17)" onmousedown="handlePan(-1,0)">
                  <use xlink:href="#rim" fill="#404040">
                        <set attributeName="fill" to="#808080" begin="arrowLeft.mouseover" end="arrowLeft.mouseout"/>
                  </use>
                  <path fill="none" stroke="white" stroke-width="1.5" d="M0,-3.0v7 M-2.5,-0.5L0,-3.0L2.5,-0.5"/>
                </g>
        </g>
        <svg viewBox="0 0 15 15" width="100%" height="30px" preserveAspectRatio="xMaxYMin meet">
         <g id="arrow_out" transform="scale(0.3 0.3)">
          <a xlink:href="classcarla_1_1client_1_1detail_1_1Simulator_aae535158608ae86be295af28c4d38a15_cgraph_org.svg" target="_base">
           <rect id="button" ry="5" rx="5" y="6" x="6" height="38" width="38"
                fill="#f2f5e9" fill-opacity="0.5" stroke="#606060" stroke-width="1.0"/>
           <path id="arrow"
             d="M 11.500037,31.436501 C 11.940474,20.09759 22.043105,11.32322 32.158766,21.979434 L 37.068811,17.246167 C 37.068811,17.246167 37.088388,32 37.088388,32 L 22.160133,31.978069 C 22.160133,31.978069 26.997745,27.140456 26.997745,27.140456 C 18.528582,18.264221 13.291696,25.230495 11.500037,31.436501 z"
             style="fill:#404040;"/>
          </a>
         </g>
        </svg>
</svg>
