<?xml version="1.0" encoding="UTF-8" standalone="no"?>
<!DOCTYPE svg PUBLIC "-//W3C//DTD SVG 1.1//EN"
 "http://www.w3.org/Graphics/SVG/1.1/DTD/svg11.dtd">
<!-- Generated by graphviz version 2.40.1 (20161225.0304)
 -->
<!-- Title: carla::client::detail::Simulator::ShowRecorderCollisions Pages: 1 -->
<svg width="409pt" height="39pt"
 viewBox="0.00 0.00 409.00 39.00" xmlns="http://www.w3.org/2000/svg" xmlns:xlink="http://www.w3.org/1999/xlink">
<g id="graph0" class="graph" transform="scale(1 1) rotate(0) translate(4 35)">
<title>carla::client::detail::Simulator::ShowRecorderCollisions</title>
<polygon fill="#ffffff" stroke="transparent" points="-4,4 -4,-35 405,-35 405,4 -4,4"/>
<!-- Node575 -->
<g id="node1" class="node">
<title>Node575</title>
<polygon fill="#bfbfbf" stroke="#000000" points="0,-.5 0,-30.5 192,-30.5 192,-.5 0,-.5"/>
<text text-anchor="start" x="8" y="-18.5" font-family="Helvetica,sans-Serif" font-size="10.00" fill="#000000">carla::client::detail</text>
<text text-anchor="middle" x="96" y="-7.5" font-family="Helvetica,sans-Serif" font-size="10.00" fill="#000000">::Simulator::ShowRecorderCollisions</text>
</g>
<!-- Node576 -->
<g id="node2" class="node">
<title>Node576</title>
<g id="a_node2"><a xlink:href="../../dd/ddd/classcarla_1_1client_1_1detail_1_1Client.html#a851a05cef7c862826be6ff9d430784d3" target="_top" xlink:title="carla::client::detail\l::Client::ShowRecorderCollisions">
<polygon fill="#ffffff" stroke="#000000" points="228,-.5 228,-30.5 401,-30.5 401,-.5 228,-.5"/>
<text text-anchor="start" x="236" y="-18.5" font-family="Helvetica,sans-Serif" font-size="10.00" fill="#000000">carla::client::detail</text>
<text text-anchor="middle" x="314.5" y="-7.5" font-family="Helvetica,sans-Serif" font-size="10.00" fill="#000000">::Client::ShowRecorderCollisions</text>
</a>
</g>
</g>
<!-- Node575&#45;&gt;Node576 -->
<g id="edge1" class="edge">
<title>Node575&#45;&gt;Node576</title>
<path fill="none" stroke="#191970" d="M192.1552,-15.5C200.6206,-15.5 209.1925,-15.5 217.6634,-15.5"/>
<polygon fill="#191970" stroke="#191970" points="217.9322,-19.0001 227.9322,-15.5 217.9321,-12.0001 217.9322,-19.0001"/>
</g>
</g>
</svg>
