<?xml version="1.0" encoding="UTF-8" standalone="no"?>
<!DOCTYPE svg PUBLIC "-//W3C//DTD SVG 1.1//EN"
 "http://www.w3.org/Graphics/SVG/1.1/DTD/svg11.dtd">
<!-- Generated by graphviz version 2.40.1 (20161225.0304)
 -->
<!-- Title: carla::client::detail::Simulator::GetEpisodeSettings Pages: 1 -->
<svg width="1237pt" height="176pt"
 viewBox="0.00 0.00 1237.00 176.00" xmlns="http://www.w3.org/2000/svg" xmlns:xlink="http://www.w3.org/1999/xlink">
<g id="graph0" class="graph" transform="scale(1 1) rotate(0) translate(4 172)">
<title>carla::client::detail::Simulator::GetEpisodeSettings</title>
<polygon fill="#ffffff" stroke="transparent" points="-4,4 -4,-172 1233,-172 1233,4 -4,4"/>
<!-- Node307 -->
<g id="node1" class="node">
<title>Node307</title>
<polygon fill="#bfbfbf" stroke="#000000" points="0,-66.5 0,-96.5 171,-96.5 171,-66.5 0,-66.5"/>
<text text-anchor="start" x="8" y="-84.5" font-family="Helvetica,sans-Serif" font-size="10.00" fill="#000000">carla::client::detail</text>
<text text-anchor="middle" x="85.5" y="-73.5" font-family="Helvetica,sans-Serif" font-size="10.00" fill="#000000">::Simulator::GetEpisodeSettings</text>
</g>
<!-- Node308 -->
<g id="node2" class="node">
<title>Node308</title>
<g id="a_node2"><a xlink:href="../../df/df3/classcarla_1_1client_1_1detail_1_1Simulator.html#af6e35986ac6ca31bfa0f99df4be2b8d3" target="_top" xlink:title="carla::client::detail\l::Simulator::GetCurrentEpisode">
<polygon fill="#ffffff" stroke="#000000" points="207,-66.5 207,-96.5 374,-96.5 374,-66.5 207,-66.5"/>
<text text-anchor="start" x="215" y="-84.5" font-family="Helvetica,sans-Serif" font-size="10.00" fill="#000000">carla::client::detail</text>
<text text-anchor="middle" x="290.5" y="-73.5" font-family="Helvetica,sans-Serif" font-size="10.00" fill="#000000">::Simulator::GetCurrentEpisode</text>
</a>
</g>
</g>
<!-- Node307&#45;&gt;Node308 -->
<g id="edge1" class="edge">
<title>Node307&#45;&gt;Node308</title>
<path fill="none" stroke="#191970" d="M181.4913,-81.5C189.9235,-81.5 198.4146,-81.5 206.7352,-81.5"/>
<polygon fill="#191970" stroke="#191970" points="181.2507,-78.0001 171.2507,-81.5 181.2506,-85.0001 181.2507,-78.0001"/>
</g>
<!-- Node309 -->
<g id="node3" class="node">
<title>Node309</title>
<g id="a_node3"><a xlink:href="../../df/df3/classcarla_1_1client_1_1detail_1_1Simulator.html#ac043311176629fbaef63014c752ee0a4" target="_top" xlink:title="carla::client::detail\l::Simulator::GetCurrentEpisodeId">
<polygon fill="#ffffff" stroke="#000000" points="410,-137.5 410,-167.5 586,-167.5 586,-137.5 410,-137.5"/>
<text text-anchor="start" x="418" y="-155.5" font-family="Helvetica,sans-Serif" font-size="10.00" fill="#000000">carla::client::detail</text>
<text text-anchor="middle" x="498" y="-144.5" font-family="Helvetica,sans-Serif" font-size="10.00" fill="#000000">::Simulator::GetCurrentEpisodeId</text>
</a>
</g>
</g>
<!-- Node308&#45;&gt;Node309 -->
<g id="edge2" class="edge">
<title>Node308&#45;&gt;Node309</title>
<path fill="none" stroke="#191970" d="M335.2079,-100.4159C357.476,-109.495 384.934,-120.1798 410,-128.5 419.3183,-131.593 429.2846,-134.5956 439.0386,-137.37"/>
<polygon fill="#191970" stroke="#191970" points="336.2674,-97.0674 325.6876,-96.5037 333.6067,-103.542 336.2674,-97.0674"/>
</g>
<!-- Node310 -->
<g id="node4" class="node">
<title>Node310</title>
<g id="a_node4"><a xlink:href="../../df/df3/classcarla_1_1client_1_1detail_1_1Simulator.html#ab5481628a75cf422d65b88d557fa57ff" target="_top" xlink:title="carla::client::detail\l::Simulator::LoadEpisode">
<polygon fill="#ffffff" stroke="#000000" points="429.5,-88.5 429.5,-118.5 566.5,-118.5 566.5,-88.5 429.5,-88.5"/>
<text text-anchor="start" x="437.5" y="-106.5" font-family="Helvetica,sans-Serif" font-size="10.00" fill="#000000">carla::client::detail</text>
<text text-anchor="middle" x="498" y="-95.5" font-family="Helvetica,sans-Serif" font-size="10.00" fill="#000000">::Simulator::LoadEpisode</text>
</a>
</g>
</g>
<!-- Node308&#45;&gt;Node310 -->
<g id="edge3" class="edge">
<title>Node308&#45;&gt;Node310</title>
<path fill="none" stroke="#191970" d="M383.9676,-91.4098C399.2207,-93.027 414.7732,-94.6759 429.2888,-96.215"/>
<polygon fill="#191970" stroke="#191970" points="384.3146,-87.9271 374.0013,-90.3531 383.5765,-94.8881 384.3146,-87.9271"/>
</g>
<!-- Node314 -->
<g id="node8" class="node">
<title>Node314</title>
<g id="a_node8"><a xlink:href="../../df/df3/classcarla_1_1client_1_1detail_1_1Simulator.html#a34a1a9a4da90d7fb8be630dd6be2365c" target="_top" xlink:title="Creates an actor instance out of a description of an existing actor. ">
<polygon fill="#ffffff" stroke="#000000" points="652.5,-19.5 652.5,-49.5 780.5,-49.5 780.5,-19.5 652.5,-19.5"/>
<text text-anchor="start" x="660.5" y="-37.5" font-family="Helvetica,sans-Serif" font-size="10.00" fill="#000000">carla::client::detail</text>
<text text-anchor="middle" x="716.5" y="-26.5" font-family="Helvetica,sans-Serif" font-size="10.00" fill="#000000">::Simulator::MakeActor</text>
</a>
</g>
</g>
<!-- Node308&#45;&gt;Node314 -->
<g id="edge7" class="edge">
<title>Node308&#45;&gt;Node314</title>
<path fill="none" stroke="#191970" d="M384.4033,-71.1398C465.7797,-62.1616 581.3338,-49.4127 652.4759,-41.5637"/>
<polygon fill="#191970" stroke="#191970" points="383.7114,-67.6948 374.1556,-72.2704 384.4791,-74.6526 383.7114,-67.6948"/>
</g>
<!-- Node317 -->
<g id="node11" class="node">
<title>Node317</title>
<g id="a_node11"><a xlink:href="../../df/df3/classcarla_1_1client_1_1detail_1_1Simulator.html#a594f70df9844d547a3812d88aa4988c8" target="_top" xlink:title="Spawns an actor into the simulation. ">
<polygon fill="#ffffff" stroke="#000000" points="431,-.5 431,-30.5 565,-30.5 565,-.5 431,-.5"/>
<text text-anchor="start" x="439" y="-18.5" font-family="Helvetica,sans-Serif" font-size="10.00" fill="#000000">carla::client::detail</text>
<text text-anchor="middle" x="498" y="-7.5" font-family="Helvetica,sans-Serif" font-size="10.00" fill="#000000">::Simulator::SpawnActor</text>
</a>
</g>
</g>
<!-- Node308&#45;&gt;Node317 -->
<g id="edge10" class="edge">
<title>Node308&#45;&gt;Node317</title>
<path fill="none" stroke="#191970" d="M347.6139,-63.3337C379.9425,-53.0508 419.8998,-40.3415 450.5,-30.6084"/>
<polygon fill="#191970" stroke="#191970" points="346.3133,-60.0745 337.8446,-66.441 348.4351,-66.7452 346.3133,-60.0745"/>
</g>
<!-- Node311 -->
<g id="node5" class="node">
<title>Node311</title>
<g id="a_node5"><a xlink:href="../../df/df3/classcarla_1_1client_1_1detail_1_1Simulator.html#a9c02ba42b0f621acadcedde6cece26f7" target="_top" xlink:title="carla::client::detail\l::Simulator::LoadOpenDriveEpisode">
<polygon fill="#ffffff" stroke="#000000" points="622,-127.5 622,-157.5 811,-157.5 811,-127.5 622,-127.5"/>
<text text-anchor="start" x="630" y="-145.5" font-family="Helvetica,sans-Serif" font-size="10.00" fill="#000000">carla::client::detail</text>
<text text-anchor="middle" x="716.5" y="-134.5" font-family="Helvetica,sans-Serif" font-size="10.00" fill="#000000">::Simulator::LoadOpenDriveEpisode</text>
</a>
</g>
</g>
<!-- Node310&#45;&gt;Node311 -->
<g id="edge4" class="edge">
<title>Node310&#45;&gt;Node311</title>
<path fill="none" stroke="#191970" d="M576.4882,-117.5093C594.6579,-120.7524 614.0636,-124.2162 632.4604,-127.4998"/>
<polygon fill="#191970" stroke="#191970" points="576.9947,-114.0445 566.5353,-115.7328 575.7647,-120.9356 576.9947,-114.0445"/>
</g>
<!-- Node313 -->
<g id="node7" class="node">
<title>Node313</title>
<g id="a_node7"><a xlink:href="../../df/df3/classcarla_1_1client_1_1detail_1_1Simulator.html#a3456d71f81301522bdfb013838bc4589" target="_top" xlink:title="carla::client::detail\l::Simulator::ReloadEpisode">
<polygon fill="#ffffff" stroke="#000000" points="643,-78.5 643,-108.5 790,-108.5 790,-78.5 643,-78.5"/>
<text text-anchor="start" x="651" y="-96.5" font-family="Helvetica,sans-Serif" font-size="10.00" fill="#000000">carla::client::detail</text>
<text text-anchor="middle" x="716.5" y="-85.5" font-family="Helvetica,sans-Serif" font-size="10.00" fill="#000000">::Simulator::ReloadEpisode</text>
</a>
</g>
</g>
<!-- Node310&#45;&gt;Node313 -->
<g id="edge6" class="edge">
<title>Node310&#45;&gt;Node313</title>
<path fill="none" stroke="#191970" d="M576.6544,-99.9003C598.2593,-98.9115 621.6005,-97.8432 642.909,-96.868"/>
<polygon fill="#191970" stroke="#191970" points="576.3648,-96.4098 566.5353,-100.3634 576.6849,-103.4024 576.3648,-96.4098"/>
</g>
<!-- Node312 -->
<g id="node6" class="node">
<title>Node312</title>
<g id="a_node6"><a xlink:href="../../df/df3/classcarla_1_1client_1_1detail_1_1Simulator.html#a2e6e7d6a26ff8ed4726d782bd6e8012b" target="_top" xlink:title="carla::client::detail\l::Simulator::UnloadLevelLayer">
<polygon fill="#ffffff" stroke="#000000" points="847,-127.5 847,-157.5 1011,-157.5 1011,-127.5 847,-127.5"/>
<text text-anchor="start" x="855" y="-145.5" font-family="Helvetica,sans-Serif" font-size="10.00" fill="#000000">carla::client::detail</text>
<text text-anchor="middle" x="929" y="-134.5" font-family="Helvetica,sans-Serif" font-size="10.00" fill="#000000">::Simulator::UnloadLevelLayer</text>
</a>
</g>
</g>
<!-- Node311&#45;&gt;Node312 -->
<g id="edge5" class="edge">
<title>Node311&#45;&gt;Node312</title>
<path fill="none" stroke="#191970" d="M821.2772,-142.5C829.8329,-142.5 838.4014,-142.5 846.7606,-142.5"/>
<polygon fill="#191970" stroke="#191970" points="821.2527,-139.0001 811.2527,-142.5 821.2527,-146.0001 821.2527,-139.0001"/>
</g>
<!-- Node315 -->
<g id="node9" class="node">
<title>Node315</title>
<g id="a_node9"><a xlink:href="../../df/df3/classcarla_1_1client_1_1detail_1_1Simulator.html#a961f59d6b4998debd50c4d5aa931806c" target="_top" xlink:title="carla::client::detail\l::Simulator::GetSpectator">
<polygon fill="#ffffff" stroke="#000000" points="859,-19.5 859,-49.5 999,-49.5 999,-19.5 859,-19.5"/>
<text text-anchor="start" x="867" y="-37.5" font-family="Helvetica,sans-Serif" font-size="10.00" fill="#000000">carla::client::detail</text>
<text text-anchor="middle" x="929" y="-26.5" font-family="Helvetica,sans-Serif" font-size="10.00" fill="#000000">::Simulator::GetSpectator</text>
</a>
</g>
</g>
<!-- Node314&#45;&gt;Node315 -->
<g id="edge8" class="edge">
<title>Node314&#45;&gt;Node315</title>
<path fill="none" stroke="#191970" d="M790.5571,-34.5C812.6975,-34.5 836.8974,-34.5 858.7834,-34.5"/>
<polygon fill="#191970" stroke="#191970" points="790.5452,-31.0001 780.5452,-34.5 790.5451,-38.0001 790.5452,-31.0001"/>
</g>
<!-- Node316 -->
<g id="node10" class="node">
<title>Node316</title>
<g id="a_node10"><a xlink:href="../../df/df3/classcarla_1_1client_1_1detail_1_1Simulator.html#a13475b151d85c3b83245f47a2b6c13fa" target="_top" xlink:title="carla::client::detail\l::Simulator::AddPendingException">
<polygon fill="#ffffff" stroke="#000000" points="1047,-19.5 1047,-49.5 1229,-49.5 1229,-19.5 1047,-19.5"/>
<text text-anchor="start" x="1055" y="-37.5" font-family="Helvetica,sans-Serif" font-size="10.00" fill="#000000">carla::client::detail</text>
<text text-anchor="middle" x="1138" y="-26.5" font-family="Helvetica,sans-Serif" font-size="10.00" fill="#000000">::Simulator::AddPendingException</text>
</a>
</g>
</g>
<!-- Node315&#45;&gt;Node316 -->
<g id="edge9" class="edge">
<title>Node315&#45;&gt;Node316</title>
<path fill="none" stroke="#191970" d="M1009.357,-34.5C1021.6287,-34.5 1034.3702,-34.5 1046.8533,-34.5"/>
<polygon fill="#191970" stroke="#191970" points="1009.1754,-31.0001 999.1754,-34.5 1009.1754,-38.0001 1009.1754,-31.0001"/>
</g>
<!-- Node317&#45;&gt;Node314 -->
<g id="edge11" class="edge">
<title>Node317&#45;&gt;Node314</title>
<path fill="none" stroke="#191970" d="M575.2864,-22.2206C600.451,-24.4088 628.0966,-26.8127 652.2046,-28.9091"/>
<polygon fill="#191970" stroke="#191970" points="575.3078,-18.7093 565.0421,-21.3297 574.7013,-25.683 575.3078,-18.7093"/>
</g>
</g>
</svg>
