<?xml version="1.0" encoding="UTF-8" standalone="no"?>
<!DOCTYPE svg PUBLIC "-//W3C//DTD SVG 1.1//EN"
 "http://www.w3.org/Graphics/SVG/1.1/DTD/svg11.dtd">
<!-- Generated by graphviz version 2.43.0 (0)
 -->
<!-- Title: carla::client::detail::Simulator::GetSpectator Pages: 1 -->
<!--zoomable 313 -->
<svg id="main" version="1.1" xmlns="http://www.w3.org/2000/svg" xmlns:xlink="http://www.w3.org/1999/xlink" xml:space="preserve" onload="init(evt)">
<style type="text/css"><![CDATA[
.edge:hover path { stroke: red; }
.edge:hover polygon { stroke: red; fill: red; }
]]></style>
<script type="text/javascript"><![CDATA[
var edges = document.getElementsByTagName('g');
if (edges && edges.length) {
  for (var i=0;i<edges.length;i++) {
    if (edges[i].id.substr(0,4)=='edge') {
      edges[i].setAttribute('class','edge');
    }
  }
}
]]></script>
        <defs>
                <circle id="rim" cx="0" cy="0" r="7"/>
                <circle id="rim2" cx="0" cy="0" r="3.5"/>
                <g id="zoomPlus">
                        <use xlink:href="#rim" fill="#404040">
                                <set attributeName="fill" to="#808080" begin="zoomplus.mouseover" end="zoomplus.mouseout"/>
                        </use>
                        <path d="M-4,0h8M0,-4v8" fill="none" stroke="white" stroke-width="1.5" pointer-events="none"/>
                </g>
                <g id="zoomMin">
                        <use xlink:href="#rim" fill="#404040">
                                <set attributeName="fill" to="#808080" begin="zoomminus.mouseover" end="zoomminus.mouseout"/>
                        </use>
                        <path d="M-4,0h8" fill="none" stroke="white" stroke-width="1.5" pointer-events="none"/>
                </g>
                <g id="dirArrow">
                        <path fill="none" stroke="white" stroke-width="1.5" d="M0,-3.0v7 M-2.5,-0.5L0,-3.0L2.5,-0.5"/>
                </g>
               <g id="resetDef">
                       <use xlink:href="#rim2" fill="#404040">
                               <set attributeName="fill" to="#808080" begin="reset.mouseover" end="reset.mouseout"/>
                       </use>
               </g>
        </defs>

<script type="text/javascript">
var viewWidth = 1255;
var viewHeight = 313;
var sectionId = 'dynsection-66';
</script>
<script xlink:href="../../svgpan.js"/>
<svg id="graph" class="graph">
<g id="viewport">
<title>carla::client::detail::Simulator::GetSpectator</title>
<polygon fill="white" stroke="transparent" points="-4,4 -4,-308.5 1251,-308.5 1251,4 -4,4"/>
<!-- Node1 -->
<g id="node1" class="node">
<title>Node1</title>
<g id="a_node1"><a xlink:title=" ">
<polygon fill="#bfbfbf" stroke="black" points="0,-194 0,-224 140,-224 140,-194 0,-194"/>
<text text-anchor="start" x="8" y="-212" font-family="Helvetica,sans-Serif" font-size="10.00">carla::client::detail</text>
<text text-anchor="middle" x="70" y="-201" font-family="Helvetica,sans-Serif" font-size="10.00">::Simulator::GetSpectator</text>
</a>
</g>
</g>
<!-- Node2 -->
<g id="node2" class="node">
<title>Node2</title>
<g id="a_node2"><a xlink:href="../../dd/ddd/classcarla_1_1client_1_1detail_1_1Client.html#a9c7dfba54fba9a77cb24ed6eeadedef4" target="_top" xlink:title=" ">
<polygon fill="white" stroke="black" points="179.5,-219 179.5,-249 300.5,-249 300.5,-219 179.5,-219"/>
<text text-anchor="start" x="187.5" y="-237" font-family="Helvetica,sans-Serif" font-size="10.00">carla::client::detail</text>
<text text-anchor="middle" x="240" y="-226" font-family="Helvetica,sans-Serif" font-size="10.00">::Client::GetSpectator</text>
</a>
</g>
</g>
<!-- Node1&#45;&gt;Node2 -->
<g id="edge1" class="edge">
<title>Node1&#45;&gt;Node2</title>
<path fill="none" stroke="midnightblue" d="M140.3,-219.31C149.79,-220.73 159.54,-222.18 169.05,-223.59"/>
<polygon fill="midnightblue" stroke="midnightblue" points="168.83,-227.1 179.24,-225.11 169.86,-220.17 168.83,-227.1"/>
</g>
<!-- Node3 -->
<g id="node3" class="node">
<title>Node3</title>
<g id="a_node3"><a xlink:href="../../df/df3/classcarla_1_1client_1_1detail_1_1Simulator.html#a34a1a9a4da90d7fb8be630dd6be2365c" target="_top" xlink:title="Creates an actor instance out of a description of an existing actor.">
<polygon fill="white" stroke="black" points="176,-170 176,-200 304,-200 304,-170 176,-170"/>
<text text-anchor="start" x="184" y="-188" font-family="Helvetica,sans-Serif" font-size="10.00">carla::client::detail</text>
<text text-anchor="middle" x="240" y="-177" font-family="Helvetica,sans-Serif" font-size="10.00">::Simulator::MakeActor</text>
</a>
</g>
</g>
<!-- Node1&#45;&gt;Node3 -->
<g id="edge2" class="edge">
<title>Node1&#45;&gt;Node3</title>
<path fill="none" stroke="midnightblue" d="M140.3,-199.1C148.66,-197.91 157.21,-196.68 165.62,-195.48"/>
<polygon fill="midnightblue" stroke="midnightblue" points="166.38,-198.91 175.78,-194.03 165.39,-191.98 166.38,-198.91"/>
</g>
<!-- Node4 -->
<g id="node4" class="node">
<title>Node4</title>
<g id="a_node4"><a xlink:href="../../df/df3/classcarla_1_1client_1_1detail_1_1Simulator.html#af6e35986ac6ca31bfa0f99df4be2b8d3" target="_top" xlink:title=" ">
<polygon fill="white" stroke="black" points="340,-198 340,-228 507,-228 507,-198 340,-198"/>
<text text-anchor="start" x="348" y="-216" font-family="Helvetica,sans-Serif" font-size="10.00">carla::client::detail</text>
<text text-anchor="middle" x="423.5" y="-205" font-family="Helvetica,sans-Serif" font-size="10.00">::Simulator::GetCurrentEpisode</text>
</a>
</g>
</g>
<!-- Node3&#45;&gt;Node4 -->
<g id="edge3" class="edge">
<title>Node3&#45;&gt;Node4</title>
<path fill="none" stroke="midnightblue" d="M304.23,-194.75C312.46,-196.02 321.03,-197.35 329.63,-198.67"/>
<polygon fill="midnightblue" stroke="midnightblue" points="329.29,-202.16 339.71,-200.23 330.36,-195.24 329.29,-202.16"/>
</g>
<!-- Node18 -->
<g id="node18" class="node">
<title>Node18</title>
<g id="a_node18"><a xlink:href="../../d8/d4b/classcarla_1_1client_1_1detail_1_1ActorFactory.html#a35ca6b1f59d086fa27630c9f818cf843" target="_top" xlink:title="Create an Actor based on the provided actor_description.">
<polygon fill="white" stroke="black" points="353.5,-146 353.5,-176 493.5,-176 493.5,-146 353.5,-146"/>
<text text-anchor="start" x="361.5" y="-164" font-family="Helvetica,sans-Serif" font-size="10.00">carla::client::detail</text>
<text text-anchor="middle" x="423.5" y="-153" font-family="Helvetica,sans-Serif" font-size="10.00">::ActorFactory::MakeActor</text>
</a>
</g>
</g>
<!-- Node3&#45;&gt;Node18 -->
<g id="edge17" class="edge">
<title>Node3&#45;&gt;Node18</title>
<path fill="none" stroke="midnightblue" d="M304.23,-176.64C316.86,-174.97 330.28,-173.19 343.38,-171.46"/>
<polygon fill="midnightblue" stroke="midnightblue" points="343.85,-174.93 353.31,-170.15 342.94,-167.99 343.85,-174.93"/>
</g>
<!-- Node5 -->
<g id="node5" class="node">
<title>Node5</title>
<g id="a_node5"><a xlink:href="../../df/df3/classcarla_1_1client_1_1detail_1_1Simulator.html#a57c33e4d297be5e0285a14fc8bac65b2" target="_top" xlink:title=" ">
<polygon fill="white" stroke="black" points="543,-195.5 543,-236.5 703,-236.5 703,-195.5 543,-195.5"/>
<text text-anchor="start" x="551" y="-224.5" font-family="Helvetica,sans-Serif" font-size="10.00">carla::client::detail</text>
<text text-anchor="start" x="551" y="-213.5" font-family="Helvetica,sans-Serif" font-size="10.00">::Simulator::GetReadyCurrent</text>
<text text-anchor="middle" x="623" y="-202.5" font-family="Helvetica,sans-Serif" font-size="10.00">Episode</text>
</a>
</g>
</g>
<!-- Node4&#45;&gt;Node5 -->
<g id="edge4" class="edge">
<title>Node4&#45;&gt;Node5</title>
<path fill="none" stroke="midnightblue" d="M507.11,-214.25C515.62,-214.38 524.3,-214.52 532.87,-214.65"/>
<polygon fill="midnightblue" stroke="midnightblue" points="532.83,-218.15 542.88,-214.8 532.93,-211.15 532.83,-218.15"/>
</g>
<!-- Node6 -->
<g id="node6" class="node">
<title>Node6</title>
<g id="a_node6"><a xlink:href="../../df/df3/classcarla_1_1client_1_1detail_1_1Simulator.html#ae51eef7fae1a55b31ed1a272d35efbf6" target="_top" xlink:title=" ">
<polygon fill="white" stroke="black" points="739,-274 739,-304 910,-304 910,-274 739,-274"/>
<text text-anchor="start" x="747" y="-292" font-family="Helvetica,sans-Serif" font-size="10.00">carla::client::detail</text>
<text text-anchor="middle" x="824.5" y="-281" font-family="Helvetica,sans-Serif" font-size="10.00">::Simulator::GetEpisodeSettings</text>
</a>
</g>
</g>
<!-- Node5&#45;&gt;Node6 -->
<g id="edge5" class="edge">
<title>Node5&#45;&gt;Node6</title>
<path fill="none" stroke="midnightblue" d="M668.54,-236.53C689.65,-245.86 715.37,-256.65 739,-265 744.85,-267.07 750.98,-269.08 757.14,-271.01"/>
<polygon fill="midnightblue" stroke="midnightblue" points="756.24,-274.4 766.83,-273.97 758.28,-267.7 756.24,-274.4"/>
</g>
<!-- Node8 -->
<g id="node8" class="node">
<title>Node8</title>
<g id="a_node8"><a xlink:href="../../dd/ddd/classcarla_1_1client_1_1detail_1_1Client.html#af34fe04817ab044b2326c18dee2ee8fd" target="_top" xlink:title=" ">
<polygon fill="white" stroke="black" points="767,-225 767,-255 882,-255 882,-225 767,-225"/>
<text text-anchor="start" x="775" y="-243" font-family="Helvetica,sans-Serif" font-size="10.00">carla::client::detail</text>
<text text-anchor="middle" x="824.5" y="-232" font-family="Helvetica,sans-Serif" font-size="10.00">::Client::GetTimeout</text>
</a>
</g>
</g>
<!-- Node5&#45;&gt;Node8 -->
<g id="edge7" class="edge">
<title>Node5&#45;&gt;Node8</title>
<path fill="none" stroke="midnightblue" d="M703.13,-225.52C720.96,-227.66 739.7,-229.92 756.95,-231.99"/>
<polygon fill="midnightblue" stroke="midnightblue" points="756.57,-235.47 766.91,-233.19 757.4,-228.52 756.57,-235.47"/>
</g>
<!-- Node9 -->
<g id="node9" class="node">
<title>Node9</title>
<g id="a_node9"><a xlink:href="../../d8/dcd/namespacecarla_1_1client_1_1detail.html#a097188ada46523ae4f48d6e1b2add828" target="_top" xlink:title=" ">
<polygon fill="white" stroke="black" points="771,-176 771,-206 878,-206 878,-176 771,-176"/>
<text text-anchor="start" x="779" y="-194" font-family="Helvetica,sans-Serif" font-size="10.00">carla::client::detail</text>
<text text-anchor="middle" x="824.5" y="-183" font-family="Helvetica,sans-Serif" font-size="10.00">::ValidateVersions</text>
</a>
</g>
</g>
<!-- Node5&#45;&gt;Node9 -->
<g id="edge8" class="edge">
<title>Node5&#45;&gt;Node9</title>
<path fill="none" stroke="midnightblue" d="M703.13,-206.08C722.32,-203.68 742.57,-201.14 760.87,-198.85"/>
<polygon fill="midnightblue" stroke="midnightblue" points="761.33,-202.32 770.82,-197.6 760.46,-195.37 761.33,-202.32"/>
</g>
<!-- Node14 -->
<g id="node14" class="node">
<title>Node14</title>
<g id="a_node14"><a xlink:href="../../df/df3/classcarla_1_1client_1_1detail_1_1Simulator.html#a002b29bb5445982c00d7566e5cfa0439" target="_top" xlink:title=" ">
<polygon fill="white" stroke="black" points="758,-64 758,-94 891,-94 891,-64 758,-64"/>
<text text-anchor="start" x="766" y="-82" font-family="Helvetica,sans-Serif" font-size="10.00">carla::client::detail</text>
<text text-anchor="middle" x="824.5" y="-71" font-family="Helvetica,sans-Serif" font-size="10.00">::Simulator::WaitForTick</text>
</a>
</g>
</g>
<!-- Node5&#45;&gt;Node14 -->
<g id="edge13" class="edge">
<title>Node5&#45;&gt;Node14</title>
<path fill="none" stroke="midnightblue" d="M685.03,-195.42C691.25,-192.56 697.35,-189.42 703,-186 742.13,-162.3 780.44,-125.22 803,-101.53"/>
<polygon fill="midnightblue" stroke="midnightblue" points="805.74,-103.73 810.03,-94.04 800.64,-98.93 805.74,-103.73"/>
</g>
<!-- Node7 -->
<g id="node7" class="node">
<title>Node7</title>
<g id="a_node7"><a xlink:href="../../dd/ddd/classcarla_1_1client_1_1detail_1_1Client.html#af24b90fee0483f3819213b2513406099" target="_top" xlink:title=" ">
<polygon fill="white" stroke="black" points="946,-274 946,-304 1098,-304 1098,-274 946,-274"/>
<text text-anchor="start" x="954" y="-292" font-family="Helvetica,sans-Serif" font-size="10.00">carla::client::detail</text>
<text text-anchor="middle" x="1022" y="-281" font-family="Helvetica,sans-Serif" font-size="10.00">::Client::GetEpisodeSettings</text>
</a>
</g>
</g>
<!-- Node6&#45;&gt;Node7 -->
<g id="edge6" class="edge">
<title>Node6&#45;&gt;Node7</title>
<path fill="none" stroke="midnightblue" d="M910.11,-289C918.55,-289 927.12,-289 935.56,-289"/>
<polygon fill="midnightblue" stroke="midnightblue" points="935.79,-292.5 945.79,-289 935.79,-285.5 935.79,-292.5"/>
</g>
<!-- Node10 -->
<g id="node10" class="node">
<title>Node10</title>
<g id="a_node10"><a xlink:href="../../dd/ddd/classcarla_1_1client_1_1detail_1_1Client.html#a083c9ce60bfce3cad7b237e1706abc60" target="_top" xlink:title=" ">
<polygon fill="white" stroke="black" points="952.5,-225 952.5,-255 1091.5,-255 1091.5,-225 952.5,-225"/>
<text text-anchor="start" x="960.5" y="-243" font-family="Helvetica,sans-Serif" font-size="10.00">carla::client::detail</text>
<text text-anchor="middle" x="1022" y="-232" font-family="Helvetica,sans-Serif" font-size="10.00">::Client::GetClientVersion</text>
</a>
</g>
</g>
<!-- Node9&#45;&gt;Node10 -->
<g id="edge9" class="edge">
<title>Node9&#45;&gt;Node10</title>
<path fill="none" stroke="midnightblue" d="M878.15,-204.2C900.61,-209.83 927.15,-216.48 951.21,-222.51"/>
<polygon fill="midnightblue" stroke="midnightblue" points="950.45,-225.93 961,-224.96 952.15,-219.14 950.45,-225.93"/>
</g>
<!-- Node11 -->
<g id="node11" class="node">
<title>Node11</title>
<g id="a_node11"><a xlink:href="../../dd/ddd/classcarla_1_1client_1_1detail_1_1Client.html#abec87413d3549054d3e18d9ca041529d" target="_top" xlink:title=" ">
<polygon fill="white" stroke="black" points="951,-176 951,-206 1093,-206 1093,-176 951,-176"/>
<text text-anchor="start" x="959" y="-194" font-family="Helvetica,sans-Serif" font-size="10.00">carla::client::detail</text>
<text text-anchor="middle" x="1022" y="-183" font-family="Helvetica,sans-Serif" font-size="10.00">::Client::GetServerVersion</text>
</a>
</g>
</g>
<!-- Node9&#45;&gt;Node11 -->
<g id="edge10" class="edge">
<title>Node9&#45;&gt;Node11</title>
<path fill="none" stroke="midnightblue" d="M878.15,-191C897.39,-191 919.62,-191 940.73,-191"/>
<polygon fill="midnightblue" stroke="midnightblue" points="940.98,-194.5 950.98,-191 940.98,-187.5 940.98,-194.5"/>
</g>
<!-- Node12 -->
<g id="node12" class="node">
<title>Node12</title>
<g id="a_node12"><a xlink:href="../../d9/d36/namespacecarla.html#aca0bf2b2b37178b5e39c9bdbb5fadeb6" target="_top" xlink:title=" ">
<polygon fill="white" stroke="black" points="969,-137.5 969,-156.5 1075,-156.5 1075,-137.5 969,-137.5"/>
<text text-anchor="middle" x="1022" y="-144.5" font-family="Helvetica,sans-Serif" font-size="10.00">carla::log_warning</text>
</a>
</g>
</g>
<!-- Node9&#45;&gt;Node12 -->
<g id="edge11" class="edge">
<title>Node9&#45;&gt;Node12</title>
<path fill="none" stroke="midnightblue" d="M878.15,-179.15C906.25,-172.83 940.72,-165.07 968.76,-158.76"/>
<polygon fill="midnightblue" stroke="midnightblue" points="969.79,-162.11 978.78,-156.5 968.25,-155.28 969.79,-162.11"/>
</g>
<!-- Node13 -->
<g id="node13" class="node">
<title>Node13</title>
<g id="a_node13"><a xlink:href="../../d2/d8c/namespacecarla_1_1logging.html#a4193666236852fb6a6977299a31445d8" target="_top" xlink:title=" ">
<polygon fill="white" stroke="black" points="1134,-132 1134,-162 1247,-162 1247,-132 1134,-132"/>
<text text-anchor="start" x="1142" y="-150" font-family="Helvetica,sans-Serif" font-size="10.00">carla::logging::write</text>
<text text-anchor="middle" x="1190.5" y="-139" font-family="Helvetica,sans-Serif" font-size="10.00">_to_stream</text>
</a>
</g>
</g>
<!-- Node12&#45;&gt;Node13 -->
<g id="edge12" class="edge">
<title>Node12&#45;&gt;Node13</title>
<path fill="none" stroke="midnightblue" d="M1075.22,-147C1090.48,-147 1107.36,-147 1123.35,-147"/>
<polygon fill="midnightblue" stroke="midnightblue" points="1123.71,-150.5 1133.71,-147 1123.71,-143.5 1123.71,-150.5"/>
</g>
<!-- Node15 -->
<g id="node15" class="node">
<title>Node15</title>
<g id="a_node15"><a xlink:href="../../dd/ddd/classcarla_1_1client_1_1detail_1_1Client.html#a0a5a097fb68fdf8a588a99c06433c3a4" target="_top" xlink:title=" ">
<polygon fill="white" stroke="black" points="963.5,-88 963.5,-118 1080.5,-118 1080.5,-88 963.5,-88"/>
<text text-anchor="start" x="971.5" y="-106" font-family="Helvetica,sans-Serif" font-size="10.00">carla::client::detail</text>
<text text-anchor="middle" x="1022" y="-95" font-family="Helvetica,sans-Serif" font-size="10.00">::Client::GetEndpoint</text>
</a>
</g>
</g>
<!-- Node14&#45;&gt;Node15 -->
<g id="edge14" class="edge">
<title>Node14&#45;&gt;Node15</title>
<path fill="none" stroke="midnightblue" d="M891.14,-87.06C911.17,-89.52 933.21,-92.22 953.36,-94.7"/>
<polygon fill="midnightblue" stroke="midnightblue" points="953.04,-98.18 963.4,-95.93 953.9,-91.24 953.04,-98.18"/>
</g>
<!-- Node16 -->
<g id="node16" class="node">
<title>Node16</title>
<g id="a_node16"><a xlink:href="../../df/df3/classcarla_1_1client_1_1detail_1_1Simulator.html#a11e83fc493dc1c68258f1d66e8a384df" target="_top" xlink:title=" ">
<polygon fill="white" stroke="black" points="947.5,-39 947.5,-69 1096.5,-69 1096.5,-39 947.5,-39"/>
<text text-anchor="start" x="955.5" y="-57" font-family="Helvetica,sans-Serif" font-size="10.00">carla::client::detail</text>
<text text-anchor="middle" x="1022" y="-46" font-family="Helvetica,sans-Serif" font-size="10.00">::Simulator::NavigationTick</text>
</a>
</g>
</g>
<!-- Node14&#45;&gt;Node16 -->
<g id="edge15" class="edge">
<title>Node14&#45;&gt;Node16</title>
<path fill="none" stroke="midnightblue" d="M891.14,-70.61C905.97,-68.71 921.92,-66.67 937.38,-64.69"/>
<polygon fill="midnightblue" stroke="midnightblue" points="937.97,-68.15 947.45,-63.41 937.09,-61.2 937.97,-68.15"/>
</g>
<!-- Node17 -->
<g id="node17" class="node">
<title>Node17</title>
<g id="a_node17"><a xlink:href="../../d9/d36/namespacecarla.html#a23602ab663165210a7757d6108f6b3cd" target="_top" xlink:title=" ">
<polygon fill="white" stroke="black" points="958,-0.5 958,-19.5 1086,-19.5 1086,-0.5 958,-0.5"/>
<text text-anchor="middle" x="1022" y="-7.5" font-family="Helvetica,sans-Serif" font-size="10.00">carla::throw_exception</text>
</a>
</g>
</g>
<!-- Node14&#45;&gt;Node17 -->
<g id="edge16" class="edge">
<title>Node14&#45;&gt;Node17</title>
<path fill="none" stroke="midnightblue" d="M858.25,-63.89C882.22,-53.21 915.69,-39.07 946,-29 953.35,-26.56 961.19,-24.25 968.93,-22.15"/>
<polygon fill="midnightblue" stroke="midnightblue" points="969.86,-25.52 978.64,-19.59 968.08,-18.75 969.86,-25.52"/>
</g>
<!-- Node19 -->
<g id="node19" class="node">
<title>Node19</title>
<g id="a_node19"><a xlink:href="../../db/dfd/classcarla_1_1rpc_1_1Actor.html#a427ab77ca916ac215a38a6e984356326" target="_top" xlink:title=" ">
<polygon fill="white" stroke="black" points="573.5,-146 573.5,-176 672.5,-176 672.5,-146 573.5,-146"/>
<text text-anchor="start" x="581.5" y="-164" font-family="Helvetica,sans-Serif" font-size="10.00">carla::rpc::Actor::</text>
<text text-anchor="middle" x="623" y="-153" font-family="Helvetica,sans-Serif" font-size="10.00">HasAStream</text>
</a>
</g>
</g>
<!-- Node18&#45;&gt;Node19 -->
<g id="edge18" class="edge">
<title>Node18&#45;&gt;Node19</title>
<path fill="none" stroke="midnightblue" d="M493.58,-161C516.33,-161 541.41,-161 563.32,-161"/>
<polygon fill="midnightblue" stroke="midnightblue" points="563.47,-164.5 573.47,-161 563.47,-157.5 563.47,-164.5"/>
</g>
<!-- Node20 -->
<g id="node20" class="node">
<title>Node20</title>
<g id="a_node20"><a xlink:href="../../de/d93/classcarla_1_1StringUtil.html#afa9750d2d007ece06fb6f51311a4d7ba" target="_top" xlink:title=" ">
<polygon fill="white" stroke="black" points="574,-97 574,-127 672,-127 672,-97 574,-97"/>
<text text-anchor="start" x="582" y="-115" font-family="Helvetica,sans-Serif" font-size="10.00">carla::StringUtil::</text>
<text text-anchor="middle" x="623" y="-104" font-family="Helvetica,sans-Serif" font-size="10.00">StartsWith</text>
</a>
</g>
</g>
<!-- Node18&#45;&gt;Node20 -->
<g id="edge19" class="edge">
<title>Node18&#45;&gt;Node20</title>
<path fill="none" stroke="midnightblue" d="M485.1,-145.97C510.11,-139.76 538.99,-132.6 563.75,-126.45"/>
<polygon fill="midnightblue" stroke="midnightblue" points="564.87,-129.78 573.73,-123.98 563.18,-122.99 564.87,-129.78"/>
</g>
</g>
</svg>
        <g id="navigator" transform="translate(0 0)" fill="#404254">
                <rect fill="#f2f5e9" fill-opacity="0.5" stroke="#606060" stroke-width=".5" x="0" y="0" width="60" height="60"/>
                <use id="zoomplus" xlink:href="#zoomPlus" x="17" y="9" onmousedown="handleZoom(evt,'in')"/>
                <use id="zoomminus" xlink:href="#zoomMin" x="42" y="9" onmousedown="handleZoom(evt,'out')"/>
                <use id="reset" xlink:href="#resetDef" x="30" y="36" onmousedown="handleReset()"/>
                <g id="arrowUp" xlink:href="#dirArrow" transform="translate(30 24)" onmousedown="handlePan(0,-1)">
                  <use xlink:href="#rim" fill="#404040">
                        <set attributeName="fill" to="#808080" begin="arrowUp.mouseover" end="arrowUp.mouseout"/>
                  </use>
                  <path fill="none" stroke="white" stroke-width="1.5" d="M0,-3.0v7 M-2.5,-0.5L0,-3.0L2.5,-0.5"/>
                </g>
                <g id="arrowRight" xlink:href="#dirArrow" transform="rotate(90) translate(36 -43)" onmousedown="handlePan(1,0)">
                  <use xlink:href="#rim" fill="#404040">
                        <set attributeName="fill" to="#808080" begin="arrowRight.mouseover" end="arrowRight.mouseout"/>
                  </use>
                  <path fill="none" stroke="white" stroke-width="1.5" d="M0,-3.0v7 M-2.5,-0.5L0,-3.0L2.5,-0.5"/>
                </g>
                <g id="arrowDown" xlink:href="#dirArrow" transform="rotate(180) translate(-30 -48)" onmousedown="handlePan(0,1)">
                  <use xlink:href="#rim" fill="#404040">
                        <set attributeName="fill" to="#808080" begin="arrowDown.mouseover" end="arrowDown.mouseout"/>
                  </use>
                  <path fill="none" stroke="white" stroke-width="1.5" d="M0,-3.0v7 M-2.5,-0.5L0,-3.0L2.5,-0.5"/>
                </g>
                <g id="arrowLeft" xlink:href="#dirArrow" transform="rotate(270) translate(-36 17)" onmousedown="handlePan(-1,0)">
                  <use xlink:href="#rim" fill="#404040">
                        <set attributeName="fill" to="#808080" begin="arrowLeft.mouseover" end="arrowLeft.mouseout"/>
                  </use>
                  <path fill="none" stroke="white" stroke-width="1.5" d="M0,-3.0v7 M-2.5,-0.5L0,-3.0L2.5,-0.5"/>
                </g>
        </g>
        <svg viewBox="0 0 15 15" width="100%" height="30px" preserveAspectRatio="xMaxYMin meet">
         <g id="arrow_out" transform="scale(0.3 0.3)">
          <a xlink:href="classcarla_1_1client_1_1detail_1_1Simulator_a961f59d6b4998debd50c4d5aa931806c_cgraph_org.svg" target="_base">
           <rect id="button" ry="5" rx="5" y="6" x="6" height="38" width="38"
                fill="#f2f5e9" fill-opacity="0.5" stroke="#606060" stroke-width="1.0"/>
           <path id="arrow"
             d="M 11.500037,31.436501 C 11.940474,20.09759 22.043105,11.32322 32.158766,21.979434 L 37.068811,17.246167 C 37.068811,17.246167 37.088388,32 37.088388,32 L 22.160133,31.978069 C 22.160133,31.978069 26.997745,27.140456 26.997745,27.140456 C 18.528582,18.264221 13.291696,25.230495 11.500037,31.436501 z"
             style="fill:#404040;"/>
          </a>
         </g>
        </svg>
</svg>
