<?xml version="1.0" encoding="UTF-8" standalone="no"?>
<!DOCTYPE svg PUBLIC "-//W3C//DTD SVG 1.1//EN"
 "http://www.w3.org/Graphics/SVG/1.1/DTD/svg11.dtd">
<!-- Generated by graphviz version 2.43.0 (0)
 -->
<!-- Title: carla::client::detail::Simulator::SetTrafficLightRedTime Pages: 1 -->
<svg width="359pt" height="88pt"
 viewBox="0.00 0.00 359.00 88.00" xmlns="http://www.w3.org/2000/svg" xmlns:xlink="http://www.w3.org/1999/xlink">
<g id="graph0" class="graph" transform="scale(1 1) rotate(0) translate(4 84)">
<title>carla::client::detail::Simulator::SetTrafficLightRedTime</title>
<polygon fill="white" stroke="transparent" points="-4,4 -4,-84 355,-84 355,4 -4,4"/>
<!-- Node1 -->
<g id="node1" class="node">
<title>Node1</title>
<g id="a_node1"><a xlink:title=" ">
<polygon fill="#bfbfbf" stroke="black" points="0,-19 0,-60 145,-60 145,-19 0,-19"/>
<text text-anchor="start" x="8" y="-48" font-family="Helvetica,sans-Serif" font-size="10.00">carla::client::detail</text>
<text text-anchor="start" x="8" y="-37" font-family="Helvetica,sans-Serif" font-size="10.00">::Simulator::SetTrafficLight</text>
<text text-anchor="middle" x="72.5" y="-26" font-family="Helvetica,sans-Serif" font-size="10.00">RedTime</text>
</a>
</g>
</g>
<!-- Node2 -->
<g id="node2" class="node">
<title>Node2</title>
<g id="a_node2"><a xlink:href="../../d2/d06/classcarla_1_1client_1_1detail_1_1ActorState.html#a1affb3c32be5ebbacff4200f46cd38ec" target="_top" xlink:title=" ">
<polygon fill="white" stroke="black" points="212.5,-49.5 212.5,-79.5 319.5,-79.5 319.5,-49.5 212.5,-49.5"/>
<text text-anchor="start" x="220.5" y="-67.5" font-family="Helvetica,sans-Serif" font-size="10.00">carla::client::detail</text>
<text text-anchor="middle" x="266" y="-56.5" font-family="Helvetica,sans-Serif" font-size="10.00">::ActorState::GetId</text>
</a>
</g>
</g>
<!-- Node1&#45;&gt;Node2 -->
<g id="edge1" class="edge">
<title>Node1&#45;&gt;Node2</title>
<path fill="none" stroke="midnightblue" d="M145.08,-48.84C163.9,-51.3 184.06,-53.93 202.37,-56.32"/>
<polygon fill="midnightblue" stroke="midnightblue" points="201.97,-59.8 212.34,-57.63 202.88,-52.86 201.97,-59.8"/>
</g>
<!-- Node3 -->
<g id="node3" class="node">
<title>Node3</title>
<g id="a_node3"><a xlink:href="../../dd/ddd/classcarla_1_1client_1_1detail_1_1Client.html#a04c8734375496bb11034f2a3e6e60bea" target="_top" xlink:title=" ">
<polygon fill="white" stroke="black" points="181,-0.5 181,-30.5 351,-30.5 351,-0.5 181,-0.5"/>
<text text-anchor="start" x="189" y="-18.5" font-family="Helvetica,sans-Serif" font-size="10.00">carla::client::detail</text>
<text text-anchor="middle" x="266" y="-7.5" font-family="Helvetica,sans-Serif" font-size="10.00">::Client::SetTrafficLightRedTime</text>
</a>
</g>
</g>
<!-- Node1&#45;&gt;Node3 -->
<g id="edge2" class="edge">
<title>Node1&#45;&gt;Node3</title>
<path fill="none" stroke="midnightblue" d="M145.08,-30.53C153.48,-29.48 162.14,-28.39 170.79,-27.31"/>
<polygon fill="midnightblue" stroke="midnightblue" points="171.43,-30.75 180.92,-26.04 170.56,-23.81 171.43,-30.75"/>
</g>
</g>
</svg>
