<?xml version="1.0" encoding="UTF-8" standalone="no"?>
<!DOCTYPE svg PUBLIC "-//W3C//DTD SVG 1.1//EN"
 "http://www.w3.org/Graphics/SVG/1.1/DTD/svg11.dtd">
<!-- Generated by graphviz version 2.40.1 (20161225.0304)
 -->
<!-- Title: carla::client::detail::Simulator::GetCurrentEpisodeId Pages: 1 -->
<!--zoomable 400 -->
<svg id="main" version="1.1" xmlns="http://www.w3.org/2000/svg" xmlns:xlink="http://www.w3.org/1999/xlink" xml:space="preserve" onload="init(evt)">
<style type="text/css"><![CDATA[
.edge:hover path { stroke: red; }
.edge:hover polygon { stroke: red; fill: red; }
]]></style>
<script type="text/javascript"><![CDATA[
var edges = document.getElementsByTagName('g');
if (edges && edges.length) {
  for (var i=0;i<edges.length;i++) {
    if (edges[i].id.substr(0,4)=='edge') {
      edges[i].setAttribute('class','edge');
    }
  }
}
]]></script>
        <defs>
                <circle id="rim" cx="0" cy="0" r="7"/>
                <circle id="rim2" cx="0" cy="0" r="3.5"/>
                <g id="zoomPlus">
                        <use xlink:href="#rim" fill="#404040">
                                <set attributeName="fill" to="#808080" begin="zoomplus.mouseover" end="zoomplus.mouseout"/>
                        </use>
                        <path d="M-4,0h8M0,-4v8" fill="none" stroke="white" stroke-width="1.5" pointer-events="none"/>
                </g>
                <g id="zoomMin">
                        <use xlink:href="#rim" fill="#404040">
                                <set attributeName="fill" to="#808080" begin="zoomminus.mouseover" end="zoomminus.mouseout"/>
                        </use>
                        <path d="M-4,0h8" fill="none" stroke="white" stroke-width="1.5" pointer-events="none"/>
                </g>
                <g id="dirArrow">
                        <path fill="none" stroke="white" stroke-width="1.5" d="M0,-3.0v7 M-2.5,-0.5L0,-3.0L2.5,-0.5"/>
                </g>
               <g id="resetDef">
                       <use xlink:href="#rim2" fill="#404040">
                               <set attributeName="fill" to="#808080" begin="reset.mouseover" end="reset.mouseout"/>
                       </use>
               </g>
        </defs>

<script type="text/javascript">
var viewWidth = 1335;
var viewHeight = 400;
var sectionId = 'dynsection-45';
</script>
<script xlink:href="../../svgpan.js"/>
<svg id="graph" class="graph">
<g id="viewport">
<title>carla::client::detail::Simulator::GetCurrentEpisodeId</title>
<polygon fill="#ffffff" stroke="transparent" points="-4,4 -4,-395.5 1331,-395.5 1331,4 -4,4"/>
<!-- Node255 -->
<g id="node1" class="node">
<title>Node255</title>
<polygon fill="#bfbfbf" stroke="#000000" points="0,-156 0,-186 176,-186 176,-156 0,-156"/>
<text text-anchor="start" x="8" y="-174" font-family="Helvetica,sans-Serif" font-size="10.00" fill="#000000">carla::client::detail</text>
<text text-anchor="middle" x="88" y="-163" font-family="Helvetica,sans-Serif" font-size="10.00" fill="#000000">::Simulator::GetCurrentEpisodeId</text>
</g>
<!-- Node256 -->
<g id="node2" class="node">
<title>Node256</title>
<g id="a_node2"><a xlink:href="../../df/df3/classcarla_1_1client_1_1detail_1_1Simulator.html#af6e35986ac6ca31bfa0f99df4be2b8d3" target="_top" xlink:title="carla::client::detail\l::Simulator::GetCurrentEpisode">
<polygon fill="#ffffff" stroke="#000000" points="212,-156 212,-186 379,-186 379,-156 212,-156"/>
<text text-anchor="start" x="220" y="-174" font-family="Helvetica,sans-Serif" font-size="10.00" fill="#000000">carla::client::detail</text>
<text text-anchor="middle" x="295.5" y="-163" font-family="Helvetica,sans-Serif" font-size="10.00" fill="#000000">::Simulator::GetCurrentEpisode</text>
</a>
</g>
</g>
<!-- Node255&#45;&gt;Node256 -->
<g id="edge1" class="edge">
<title>Node255&#45;&gt;Node256</title>
<path fill="none" stroke="#191970" d="M176.2996,-171C184.6905,-171 193.2194,-171 201.66,-171"/>
<polygon fill="#191970" stroke="#191970" points="201.8967,-174.5001 211.8966,-171 201.8966,-167.5001 201.8967,-174.5001"/>
</g>
<!-- Node257 -->
<g id="node3" class="node">
<title>Node257</title>
<g id="a_node3"><a xlink:href="../../df/df3/classcarla_1_1client_1_1detail_1_1Simulator.html#ae51eef7fae1a55b31ed1a272d35efbf6" target="_top" xlink:title="carla::client::detail\l::Simulator::GetEpisodeSettings">
<polygon fill="#ffffff" stroke="#000000" points="415,-230 415,-260 586,-260 586,-230 415,-230"/>
<text text-anchor="start" x="423" y="-248" font-family="Helvetica,sans-Serif" font-size="10.00" fill="#000000">carla::client::detail</text>
<text text-anchor="middle" x="500.5" y="-237" font-family="Helvetica,sans-Serif" font-size="10.00" fill="#000000">::Simulator::GetEpisodeSettings</text>
</a>
</g>
</g>
<!-- Node256&#45;&gt;Node257 -->
<g id="edge2" class="edge">
<title>Node256&#45;&gt;Node257</title>
<path fill="none" stroke="#191970" d="M329.3899,-186.0059C353.1161,-196.2367 385.6891,-209.7371 415,-220 421.8238,-222.3893 429.0067,-224.7397 436.1899,-226.9856"/>
<polygon fill="#191970" stroke="#191970" points="435.365,-230.3935 445.9517,-229.9775 437.4163,-223.7008 435.365,-230.3935"/>
</g>
<!-- Node268 -->
<g id="node14" class="node">
<title>Node268</title>
<g id="a_node14"><a xlink:href="../../dd/ddd/classcarla_1_1client_1_1detail_1_1Client.html#af34fe04817ab044b2326c18dee2ee8fd" target="_top" xlink:title="carla::client::detail\l::Client::GetTimeout">
<polygon fill="#ffffff" stroke="#000000" points="443,-181 443,-211 558,-211 558,-181 443,-181"/>
<text text-anchor="start" x="451" y="-199" font-family="Helvetica,sans-Serif" font-size="10.00" fill="#000000">carla::client::detail</text>
<text text-anchor="middle" x="500.5" y="-188" font-family="Helvetica,sans-Serif" font-size="10.00" fill="#000000">::Client::GetTimeout</text>
</a>
</g>
</g>
<!-- Node256&#45;&gt;Node268 -->
<g id="edge13" class="edge">
<title>Node256&#45;&gt;Node268</title>
<path fill="none" stroke="#191970" d="M379.177,-181.2045C396.872,-183.3624 415.342,-185.6149 432.3788,-187.6925"/>
<polygon fill="#191970" stroke="#191970" points="432.4315,-191.2248 442.7817,-188.9612 433.279,-184.2763 432.4315,-191.2248"/>
</g>
<!-- Node269 -->
<g id="node15" class="node">
<title>Node269</title>
<g id="a_node15"><a xlink:href="../../d8/dcd/namespacecarla_1_1client_1_1detail.html#a097188ada46523ae4f48d6e1b2add828" target="_top" xlink:title="carla::client::detail\l::ValidateVersions">
<polygon fill="#ffffff" stroke="#000000" points="447,-132 447,-162 554,-162 554,-132 447,-132"/>
<text text-anchor="start" x="455" y="-150" font-family="Helvetica,sans-Serif" font-size="10.00" fill="#000000">carla::client::detail</text>
<text text-anchor="middle" x="500.5" y="-139" font-family="Helvetica,sans-Serif" font-size="10.00" fill="#000000">::ValidateVersions</text>
</a>
</g>
</g>
<!-- Node256&#45;&gt;Node269 -->
<g id="edge14" class="edge">
<title>Node256&#45;&gt;Node269</title>
<path fill="none" stroke="#191970" d="M379.177,-161.2037C398.3311,-158.9612 418.3934,-156.6125 436.563,-154.4853"/>
<polygon fill="#191970" stroke="#191970" points="437.2066,-157.9339 446.7318,-153.2948 436.3926,-150.9814 437.2066,-157.9339"/>
</g>
<!-- Node272 -->
<g id="node18" class="node">
<title>Node272</title>
<g id="a_node18"><a xlink:href="../../df/df3/classcarla_1_1client_1_1detail_1_1Simulator.html#a002b29bb5445982c00d7566e5cfa0439" target="_top" xlink:title="carla::client::detail\l::Simulator::WaitForTick">
<polygon fill="#ffffff" stroke="#000000" points="434,-39 434,-69 567,-69 567,-39 434,-39"/>
<text text-anchor="start" x="442" y="-57" font-family="Helvetica,sans-Serif" font-size="10.00" fill="#000000">carla::client::detail</text>
<text text-anchor="middle" x="500.5" y="-46" font-family="Helvetica,sans-Serif" font-size="10.00" fill="#000000">::Simulator::WaitForTick</text>
</a>
</g>
</g>
<!-- Node256&#45;&gt;Node272 -->
<g id="edge18" class="edge">
<title>Node256&#45;&gt;Node272</title>
<path fill="none" stroke="#191970" d="M321.8805,-155.9438C358.3749,-135.1153 424.3625,-97.4541 465.1081,-74.1993"/>
<polygon fill="#191970" stroke="#191970" points="466.9459,-77.1804 473.8961,-69.1837 463.4761,-71.1008 466.9459,-77.1804"/>
</g>
<!-- Node258 -->
<g id="node4" class="node">
<title>Node258</title>
<g id="a_node4"><a xlink:href="../../dd/ddd/classcarla_1_1client_1_1detail_1_1Client.html#af24b90fee0483f3819213b2513406099" target="_top" xlink:title="carla::client::detail\l::Client::GetEpisodeSettings">
<polygon fill="#ffffff" stroke="#000000" points="631,-225 631,-255 783,-255 783,-225 631,-225"/>
<text text-anchor="start" x="639" y="-243" font-family="Helvetica,sans-Serif" font-size="10.00" fill="#000000">carla::client::detail</text>
<text text-anchor="middle" x="707" y="-232" font-family="Helvetica,sans-Serif" font-size="10.00" fill="#000000">::Client::GetEpisodeSettings</text>
</a>
</g>
</g>
<!-- Node257&#45;&gt;Node258 -->
<g id="edge3" class="edge">
<title>Node257&#45;&gt;Node258</title>
<path fill="none" stroke="#191970" d="M586.2806,-242.923C597.5644,-242.6498 609.1348,-242.3696 620.4316,-242.0961"/>
<polygon fill="#191970" stroke="#191970" points="620.8009,-245.5883 630.7132,-241.8471 620.6314,-238.5903 620.8009,-245.5883"/>
</g>
<!-- Node259 -->
<g id="node5" class="node">
<title>Node259</title>
<g id="a_node5"><a xlink:href="../../df/df3/classcarla_1_1client_1_1detail_1_1Simulator.html#aa15510e1d3c571a2bb988ea41014dbb4" target="_top" xlink:title="carla::client::detail\l::Simulator::SetEpisodeSettings">
<polygon fill="#ffffff" stroke="#000000" points="622,-274 622,-304 792,-304 792,-274 622,-274"/>
<text text-anchor="start" x="630" y="-292" font-family="Helvetica,sans-Serif" font-size="10.00" fill="#000000">carla::client::detail</text>
<text text-anchor="middle" x="707" y="-281" font-family="Helvetica,sans-Serif" font-size="10.00" fill="#000000">::Simulator::SetEpisodeSettings</text>
</a>
</g>
</g>
<!-- Node257&#45;&gt;Node259 -->
<g id="edge4" class="edge">
<title>Node257&#45;&gt;Node259</title>
<path fill="none" stroke="#191970" d="M570.988,-260.0192C588.9141,-263.8388 608.3101,-267.9716 626.6853,-271.8869"/>
<polygon fill="#191970" stroke="#191970" points="625.9694,-275.3129 636.4793,-273.9738 627.4283,-268.4666 625.9694,-275.3129"/>
</g>
<!-- Node260 -->
<g id="node6" class="node">
<title>Node260</title>
<g id="a_node6"><a xlink:href="../../d9/d36/namespacecarla.html#aca0bf2b2b37178b5e39c9bdbb5fadeb6" target="_top" xlink:title="carla::log_warning">
<polygon fill="#ffffff" stroke="#000000" points="850.5,-208.5 850.5,-227.5 956.5,-227.5 956.5,-208.5 850.5,-208.5"/>
<text text-anchor="middle" x="903.5" y="-215.5" font-family="Helvetica,sans-Serif" font-size="10.00" fill="#000000">carla::log_warning</text>
</a>
</g>
</g>
<!-- Node259&#45;&gt;Node260 -->
<g id="edge5" class="edge">
<title>Node259&#45;&gt;Node260</title>
<path fill="none" stroke="#191970" d="M761.2324,-273.977C771.5126,-270.8679 782.1344,-267.475 792,-264 819.6998,-254.2431 850.5136,-241.3708 872.7161,-231.7249"/>
<polygon fill="#191970" stroke="#191970" points="874.2114,-234.891 881.969,-227.6751 871.4047,-228.4783 874.2114,-234.891"/>
</g>
<!-- Node262 -->
<g id="node8" class="node">
<title>Node262</title>
<g id="a_node8"><a xlink:href="../../dd/ddd/classcarla_1_1client_1_1detail_1_1Client.html#a55868beb61f377d53d6a87a939c23fd1" target="_top" xlink:title="carla::client::detail\l::Client::SetEpisodeSettings">
<polygon fill="#ffffff" stroke="#000000" points="828,-263 828,-293 979,-293 979,-263 828,-263"/>
<text text-anchor="start" x="836" y="-281" font-family="Helvetica,sans-Serif" font-size="10.00" fill="#000000">carla::client::detail</text>
<text text-anchor="middle" x="903.5" y="-270" font-family="Helvetica,sans-Serif" font-size="10.00" fill="#000000">::Client::SetEpisodeSettings</text>
</a>
</g>
</g>
<!-- Node259&#45;&gt;Node262 -->
<g id="edge7" class="edge">
<title>Node259&#45;&gt;Node262</title>
<path fill="none" stroke="#191970" d="M792.0449,-284.2392C800.6183,-283.7593 809.3283,-283.2717 817.9074,-282.7914"/>
<polygon fill="#191970" stroke="#191970" points="818.1136,-286.2855 827.9023,-282.2319 817.7223,-279.2964 818.1136,-286.2855"/>
</g>
<!-- Node263 -->
<g id="node9" class="node">
<title>Node263</title>
<g id="a_node9"><a xlink:href="../../d8/dcd/namespacecarla_1_1client_1_1detail.html#aa7ddfc27eda1358995eda21f325892ca" target="_top" xlink:title="carla::client::detail\l::SynchronizeFrame">
<polygon fill="#ffffff" stroke="#000000" points="847.5,-312 847.5,-342 959.5,-342 959.5,-312 847.5,-312"/>
<text text-anchor="start" x="855.5" y="-330" font-family="Helvetica,sans-Serif" font-size="10.00" fill="#000000">carla::client::detail</text>
<text text-anchor="middle" x="903.5" y="-319" font-family="Helvetica,sans-Serif" font-size="10.00" fill="#000000">::SynchronizeFrame</text>
</a>
</g>
</g>
<!-- Node259&#45;&gt;Node263 -->
<g id="edge8" class="edge">
<title>Node259&#45;&gt;Node263</title>
<path fill="none" stroke="#191970" d="M784.662,-304.0186C801.9853,-307.3687 820.2028,-310.8916 837.027,-314.1452"/>
<polygon fill="#191970" stroke="#191970" points="836.8193,-317.6698 847.302,-316.1322 838.1484,-310.7971 836.8193,-317.6698"/>
</g>
<!-- Node261 -->
<g id="node7" class="node">
<title>Node261</title>
<g id="a_node7"><a xlink:href="../../d2/d8c/namespacecarla_1_1logging.html#a4193666236852fb6a6977299a31445d8" target="_top" xlink:title="carla::logging::write\l_to_stream">
<polygon fill="#ffffff" stroke="#000000" points="1020.5,-203 1020.5,-233 1133.5,-233 1133.5,-203 1020.5,-203"/>
<text text-anchor="start" x="1028.5" y="-221" font-family="Helvetica,sans-Serif" font-size="10.00" fill="#000000">carla::logging::write</text>
<text text-anchor="middle" x="1077" y="-210" font-family="Helvetica,sans-Serif" font-size="10.00" fill="#000000">_to_stream</text>
</a>
</g>
</g>
<!-- Node260&#45;&gt;Node261 -->
<g id="edge6" class="edge">
<title>Node260&#45;&gt;Node261</title>
<path fill="none" stroke="#191970" d="M956.9714,-218C973.7843,-218 992.5628,-218 1010.1817,-218"/>
<polygon fill="#191970" stroke="#191970" points="1010.3978,-221.5001 1020.3978,-218 1010.3978,-214.5001 1010.3978,-221.5001"/>
</g>
<!-- Node264 -->
<g id="node10" class="node">
<title>Node264</title>
<g id="a_node10"><a xlink:href="../../d1/db6/classcarla_1_1client_1_1detail_1_1Episode.html#a5d1d1214b88d657487ec59ca171527bf" target="_top" xlink:title="carla::client::detail\l::Episode::GetState">
<polygon fill="#ffffff" stroke="#000000" points="1022,-312 1022,-342 1132,-342 1132,-312 1022,-312"/>
<text text-anchor="start" x="1030" y="-330" font-family="Helvetica,sans-Serif" font-size="10.00" fill="#000000">carla::client::detail</text>
<text text-anchor="middle" x="1077" y="-319" font-family="Helvetica,sans-Serif" font-size="10.00" fill="#000000">::Episode::GetState</text>
</a>
</g>
</g>
<!-- Node263&#45;&gt;Node264 -->
<g id="edge9" class="edge">
<title>Node263&#45;&gt;Node264</title>
<path fill="none" stroke="#191970" d="M959.8305,-327C976.3005,-327 994.4456,-327 1011.4357,-327"/>
<polygon fill="#191970" stroke="#191970" points="1011.84,-330.5001 1021.84,-327 1011.8399,-323.5001 1011.84,-330.5001"/>
</g>
<!-- Node266 -->
<g id="node12" class="node">
<title>Node266</title>
<g id="a_node12"><a xlink:href="../../df/d5a/classcarla_1_1traffic__manager_1_1TrafficManager.html#ab2c6feb02978392726bb256f93a4eb63" target="_top" xlink:title="carla::traffic_manager\l::TrafficManager::Tick">
<polygon fill="#ffffff" stroke="#000000" points="1015,-263 1015,-293 1139,-293 1139,-263 1015,-263"/>
<text text-anchor="start" x="1023" y="-281" font-family="Helvetica,sans-Serif" font-size="10.00" fill="#000000">carla::traffic_manager</text>
<text text-anchor="middle" x="1077" y="-270" font-family="Helvetica,sans-Serif" font-size="10.00" fill="#000000">::TrafficManager::Tick</text>
</a>
</g>
</g>
<!-- Node263&#45;&gt;Node266 -->
<g id="edge11" class="edge">
<title>Node263&#45;&gt;Node266</title>
<path fill="none" stroke="#191970" d="M956.9714,-311.8986C975.0312,-306.7981 995.359,-301.0571 1014.0814,-295.7695"/>
<polygon fill="#191970" stroke="#191970" points="1015.0329,-299.1378 1023.7051,-293.0516 1013.1303,-292.4013 1015.0329,-299.1378"/>
</g>
<!-- Node267 -->
<g id="node13" class="node">
<title>Node267</title>
<g id="a_node13"><a xlink:href="../../d2/d2e/classcarla_1_1time__duration.html#af66703163258b65c0ca8a0ef071e3b73" target="_top" xlink:title="carla::time_duration\l::to_chrono">
<polygon fill="#ffffff" stroke="#000000" points="1019.5,-361 1019.5,-391 1134.5,-391 1134.5,-361 1019.5,-361"/>
<text text-anchor="start" x="1027.5" y="-379" font-family="Helvetica,sans-Serif" font-size="10.00" fill="#000000">carla::time_duration</text>
<text text-anchor="middle" x="1077" y="-368" font-family="Helvetica,sans-Serif" font-size="10.00" fill="#000000">::to_chrono</text>
</a>
</g>
</g>
<!-- Node263&#45;&gt;Node267 -->
<g id="edge12" class="edge">
<title>Node263&#45;&gt;Node267</title>
<path fill="none" stroke="#191970" d="M956.9714,-342.1014C975.0312,-347.2019 995.359,-352.9429 1014.0814,-358.2305"/>
<polygon fill="#191970" stroke="#191970" points="1013.1303,-361.5987 1023.7051,-360.9484 1015.0329,-354.8622 1013.1303,-361.5987"/>
</g>
<!-- Node265 -->
<g id="node11" class="node">
<title>Node265</title>
<g id="a_node11"><a xlink:href="../../d1/db6/classcarla_1_1client_1_1detail_1_1Episode.html#a52e8266588be7d58d4a3f70149d5fa59" target="_top" xlink:title="carla::client::detail\l::Episode::CreateNavigation\lIfMissing">
<polygon fill="#ffffff" stroke="#000000" points="1175,-306.5 1175,-347.5 1327,-347.5 1327,-306.5 1175,-306.5"/>
<text text-anchor="start" x="1183" y="-335.5" font-family="Helvetica,sans-Serif" font-size="10.00" fill="#000000">carla::client::detail</text>
<text text-anchor="start" x="1183" y="-324.5" font-family="Helvetica,sans-Serif" font-size="10.00" fill="#000000">::Episode::CreateNavigation</text>
<text text-anchor="middle" x="1251" y="-313.5" font-family="Helvetica,sans-Serif" font-size="10.00" fill="#000000">IfMissing</text>
</a>
</g>
</g>
<!-- Node264&#45;&gt;Node265 -->
<g id="edge10" class="edge">
<title>Node264&#45;&gt;Node265</title>
<path fill="none" stroke="#191970" d="M1132.0547,-327C1142.498,-327 1153.6544,-327 1164.7935,-327"/>
<polygon fill="#191970" stroke="#191970" points="1164.9975,-330.5001 1174.9975,-327 1164.9974,-323.5001 1164.9975,-330.5001"/>
</g>
<!-- Node269&#45;&gt;Node260 -->
<g id="edge17" class="edge">
<title>Node269&#45;&gt;Node260</title>
<path fill="none" stroke="#191970" d="M554.1142,-160.8495C575.1876,-166.0165 599.6444,-171.6727 622,-176 696.5957,-190.4394 783.1402,-202.6856 840.3661,-210.1638"/>
<polygon fill="#191970" stroke="#191970" points="839.9807,-213.6431 850.3479,-211.4587 840.8813,-206.7012 839.9807,-213.6431"/>
</g>
<!-- Node270 -->
<g id="node16" class="node">
<title>Node270</title>
<g id="a_node16"><a xlink:href="../../dd/ddd/classcarla_1_1client_1_1detail_1_1Client.html#a083c9ce60bfce3cad7b237e1706abc60" target="_top" xlink:title="carla::client::detail\l::Client::GetClientVersion">
<polygon fill="#ffffff" stroke="#000000" points="637.5,-88 637.5,-118 776.5,-118 776.5,-88 637.5,-88"/>
<text text-anchor="start" x="645.5" y="-106" font-family="Helvetica,sans-Serif" font-size="10.00" fill="#000000">carla::client::detail</text>
<text text-anchor="middle" x="707" y="-95" font-family="Helvetica,sans-Serif" font-size="10.00" fill="#000000">::Client::GetClientVersion</text>
</a>
</g>
</g>
<!-- Node269&#45;&gt;Node270 -->
<g id="edge15" class="edge">
<title>Node269&#45;&gt;Node270</title>
<path fill="none" stroke="#191970" d="M554.2164,-135.5544C576.483,-130.8099 602.7775,-125.2072 627.2193,-119.9993"/>
<polygon fill="#191970" stroke="#191970" points="628.15,-123.3796 637.201,-117.8724 626.6911,-116.5333 628.15,-123.3796"/>
</g>
<!-- Node271 -->
<g id="node17" class="node">
<title>Node271</title>
<g id="a_node17"><a xlink:href="../../dd/ddd/classcarla_1_1client_1_1detail_1_1Client.html#abec87413d3549054d3e18d9ca041529d" target="_top" xlink:title="carla::client::detail\l::Client::GetServerVersion">
<polygon fill="#ffffff" stroke="#000000" points="636,-137 636,-167 778,-167 778,-137 636,-137"/>
<text text-anchor="start" x="644" y="-155" font-family="Helvetica,sans-Serif" font-size="10.00" fill="#000000">carla::client::detail</text>
<text text-anchor="middle" x="707" y="-144" font-family="Helvetica,sans-Serif" font-size="10.00" fill="#000000">::Client::GetServerVersion</text>
</a>
</g>
</g>
<!-- Node269&#45;&gt;Node271 -->
<g id="edge16" class="edge">
<title>Node269&#45;&gt;Node271</title>
<path fill="none" stroke="#191970" d="M554.2164,-148.3006C575.9657,-148.8273 601.5581,-149.4469 625.5131,-150.027"/>
<polygon fill="#191970" stroke="#191970" points="625.5815,-153.5295 635.6633,-150.2727 625.751,-146.5316 625.5815,-153.5295"/>
</g>
<!-- Node273 -->
<g id="node19" class="node">
<title>Node273</title>
<g id="a_node19"><a xlink:href="../../d9/d36/namespacecarla.html#a23602ab663165210a7757d6108f6b3cd" target="_top" xlink:title="carla::throw_exception">
<polygon fill="#ffffff" stroke="#000000" points="643,-.5 643,-19.5 771,-19.5 771,-.5 643,-.5"/>
<text text-anchor="middle" x="707" y="-7.5" font-family="Helvetica,sans-Serif" font-size="10.00" fill="#000000">carla::throw_exception</text>
</a>
</g>
</g>
<!-- Node272&#45;&gt;Node273 -->
<g id="edge19" class="edge">
<title>Node272&#45;&gt;Node273</title>
<path fill="none" stroke="#191970" d="M567.2595,-39.7752C594.7226,-33.9235 626.1385,-27.2296 652.218,-21.6727"/>
<polygon fill="#191970" stroke="#191970" points="653.2489,-25.0317 662.2999,-19.5245 651.79,-18.1854 653.2489,-25.0317"/>
</g>
<!-- Node274 -->
<g id="node20" class="node">
<title>Node274</title>
<g id="a_node20"><a xlink:href="../../dd/ddd/classcarla_1_1client_1_1detail_1_1Client.html#a0a5a097fb68fdf8a588a99c06433c3a4" target="_top" xlink:title="carla::client::detail\l::Client::GetEndpoint">
<polygon fill="#ffffff" stroke="#000000" points="648.5,-39 648.5,-69 765.5,-69 765.5,-39 648.5,-39"/>
<text text-anchor="start" x="656.5" y="-57" font-family="Helvetica,sans-Serif" font-size="10.00" fill="#000000">carla::client::detail</text>
<text text-anchor="middle" x="707" y="-46" font-family="Helvetica,sans-Serif" font-size="10.00" fill="#000000">::Client::GetEndpoint</text>
</a>
</g>
</g>
<!-- Node272&#45;&gt;Node274 -->
<g id="edge20" class="edge">
<title>Node272&#45;&gt;Node274</title>
<path fill="none" stroke="#191970" d="M567.2595,-54C589.9447,-54 615.327,-54 638.1709,-54"/>
<polygon fill="#191970" stroke="#191970" points="638.4693,-57.5001 648.4693,-54 638.4693,-50.5001 638.4693,-57.5001"/>
</g>
</g>
</svg>
        <g id="navigator" transform="translate(0 0)" fill="#404254">
                <rect fill="#f2f5e9" fill-opacity="0.5" stroke="#606060" stroke-width=".5" x="0" y="0" width="60" height="60"/>
                <use id="zoomplus" xlink:href="#zoomPlus" x="17" y="9" onmousedown="handleZoom(evt,'in')"/>
                <use id="zoomminus" xlink:href="#zoomMin" x="42" y="9" onmousedown="handleZoom(evt,'out')"/>
                <use id="reset" xlink:href="#resetDef" x="30" y="36" onmousedown="handleReset()"/>
                <g id="arrowUp" xlink:href="#dirArrow" transform="translate(30 24)" onmousedown="handlePan(0,-1)">
                  <use xlink:href="#rim" fill="#404040">
                        <set attributeName="fill" to="#808080" begin="arrowUp.mouseover" end="arrowUp.mouseout"/>
                  </use>
                  <path fill="none" stroke="white" stroke-width="1.5" d="M0,-3.0v7 M-2.5,-0.5L0,-3.0L2.5,-0.5"/>
                </g>
                <g id="arrowRight" xlink:href="#dirArrow" transform="rotate(90) translate(36 -43)" onmousedown="handlePan(1,0)">
                  <use xlink:href="#rim" fill="#404040">
                        <set attributeName="fill" to="#808080" begin="arrowRight.mouseover" end="arrowRight.mouseout"/>
                  </use>
                  <path fill="none" stroke="white" stroke-width="1.5" d="M0,-3.0v7 M-2.5,-0.5L0,-3.0L2.5,-0.5"/>
                </g>
                <g id="arrowDown" xlink:href="#dirArrow" transform="rotate(180) translate(-30 -48)" onmousedown="handlePan(0,1)">
                  <use xlink:href="#rim" fill="#404040">
                        <set attributeName="fill" to="#808080" begin="arrowDown.mouseover" end="arrowDown.mouseout"/>
                  </use>
                  <path fill="none" stroke="white" stroke-width="1.5" d="M0,-3.0v7 M-2.5,-0.5L0,-3.0L2.5,-0.5"/>
                </g>
                <g id="arrowLeft" xlink:href="#dirArrow" transform="rotate(270) translate(-36 17)" onmousedown="handlePan(-1,0)">
                  <use xlink:href="#rim" fill="#404040">
                        <set attributeName="fill" to="#808080" begin="arrowLeft.mouseover" end="arrowLeft.mouseout"/>
                  </use>
                  <path fill="none" stroke="white" stroke-width="1.5" d="M0,-3.0v7 M-2.5,-0.5L0,-3.0L2.5,-0.5"/>
                </g>
        </g>
        <svg viewBox="0 0 15 15" width="100%" height="30px" preserveAspectRatio="xMaxYMin meet">
         <g id="arrow_out" transform="scale(0.3 0.3)">
          <a xlink:href="classcarla_1_1client_1_1detail_1_1Simulator_ac043311176629fbaef63014c752ee0a4_cgraph_org.svg" target="_base">
           <rect id="button" ry="5" rx="5" y="6" x="6" height="38" width="38"
                fill="#f2f5e9" fill-opacity="0.5" stroke="#606060" stroke-width="1.0"/>
           <path id="arrow"
             d="M 11.500037,31.436501 C 11.940474,20.09759 22.043105,11.32322 32.158766,21.979434 L 37.068811,17.246167 C 37.068811,17.246167 37.088388,32 37.088388,32 L 22.160133,31.978069 C 22.160133,31.978069 26.997745,27.140456 26.997745,27.140456 C 18.528582,18.264221 13.291696,25.230495 11.500037,31.436501 z"
             style="fill:#404040;"/>
          </a>
         </g>
        </svg>
</svg>
