<?xml version="1.0" encoding="UTF-8" standalone="no"?>
<!DOCTYPE svg PUBLIC "-//W3C//DTD SVG 1.1//EN"
 "http://www.w3.org/Graphics/SVG/1.1/DTD/svg11.dtd">
<!-- Generated by graphviz version 2.43.0 (0)
 -->
<!-- Title: PointCloud2PubSubTypes.h Pages: 1 -->
<!--zoomable 274 -->
<svg id="main" version="1.1" xmlns="http://www.w3.org/2000/svg" xmlns:xlink="http://www.w3.org/1999/xlink" xml:space="preserve" onload="init(evt)">
<style type="text/css"><![CDATA[
.edge:hover path { stroke: red; }
.edge:hover polygon { stroke: red; fill: red; }
]]></style>
<script type="text/javascript"><![CDATA[
var edges = document.getElementsByTagName('g');
if (edges && edges.length) {
  for (var i=0;i<edges.length;i++) {
    if (edges[i].id.substr(0,4)=='edge') {
      edges[i].setAttribute('class','edge');
    }
  }
}
]]></script>
        <defs>
                <circle id="rim" cx="0" cy="0" r="7"/>
                <circle id="rim2" cx="0" cy="0" r="3.5"/>
                <g id="zoomPlus">
                        <use xlink:href="#rim" fill="#404040">
                                <set attributeName="fill" to="#808080" begin="zoomplus.mouseover" end="zoomplus.mouseout"/>
                        </use>
                        <path d="M-4,0h8M0,-4v8" fill="none" stroke="white" stroke-width="1.5" pointer-events="none"/>
                </g>
                <g id="zoomMin">
                        <use xlink:href="#rim" fill="#404040">
                                <set attributeName="fill" to="#808080" begin="zoomminus.mouseover" end="zoomminus.mouseout"/>
                        </use>
                        <path d="M-4,0h8" fill="none" stroke="white" stroke-width="1.5" pointer-events="none"/>
                </g>
                <g id="dirArrow">
                        <path fill="none" stroke="white" stroke-width="1.5" d="M0,-3.0v7 M-2.5,-0.5L0,-3.0L2.5,-0.5"/>
                </g>
               <g id="resetDef">
                       <use xlink:href="#rim2" fill="#404040">
                               <set attributeName="fill" to="#808080" begin="reset.mouseover" end="reset.mouseout"/>
                       </use>
               </g>
        </defs>

<script type="text/javascript">
var viewWidth = 961;
var viewHeight = 274;
var sectionId = 'dynsection-0';
</script>
<script xlink:href="../../svgpan.js"/>
<svg id="graph" class="graph">
<g id="viewport">
<title>PointCloud2PubSubTypes.h</title>
<polygon fill="white" stroke="transparent" points="-4,4 -4,-270 956.5,-270 956.5,4 -4,4"/>
<!-- Node1 -->
<g id="node1" class="node">
<title>Node1</title>
<g id="a_node1"><a xlink:title=" ">
<polygon fill="#bfbfbf" stroke="black" points="195.5,-246.5 195.5,-265.5 343.5,-265.5 343.5,-246.5 195.5,-246.5"/>
<text text-anchor="middle" x="269.5" y="-253.5" font-family="Helvetica,sans-Serif" font-size="10.00">PointCloud2PubSubTypes.h</text>
</a>
</g>
</g>
<!-- Node2 -->
<g id="node2" class="node">
<title>Node2</title>
<g id="a_node2"><a xlink:title=" ">
<polygon fill="white" stroke="#bfbfbf" points="0,-123.5 0,-153.5 151,-153.5 151,-123.5 0,-123.5"/>
<text text-anchor="start" x="8" y="-141.5" font-family="Helvetica,sans-Serif" font-size="10.00">fastdds/dds/topic/TopicData</text>
<text text-anchor="middle" x="75.5" y="-130.5" font-family="Helvetica,sans-Serif" font-size="10.00">Type.hpp</text>
</a>
</g>
</g>
<!-- Node1&#45;&gt;Node2 -->
<g id="edge1" class="edge">
<title>Node1&#45;&gt;Node2</title>
<path fill="none" stroke="midnightblue" d="M195.16,-252.62C160.4,-247.72 120.94,-236.13 94.5,-210 82.39,-198.02 77.75,-179.2 76.09,-164.01"/>
<polygon fill="midnightblue" stroke="midnightblue" points="79.56,-163.46 75.33,-153.74 72.58,-163.97 79.56,-163.46"/>
</g>
<!-- Node3 -->
<g id="node3" class="node">
<title>Node3</title>
<g id="a_node3"><a xlink:title=" ">
<polygon fill="white" stroke="#bfbfbf" points="207.5,-129 207.5,-148 319.5,-148 319.5,-129 207.5,-129"/>
<text text-anchor="middle" x="263.5" y="-136" font-family="Helvetica,sans-Serif" font-size="10.00">fastrtps/utils/md5.h</text>
</a>
</g>
</g>
<!-- Node1&#45;&gt;Node3 -->
<g id="edge2" class="edge">
<title>Node1&#45;&gt;Node3</title>
<path fill="none" stroke="midnightblue" d="M269.05,-246.32C268.08,-227.76 265.8,-183.84 264.49,-158.47"/>
<polygon fill="midnightblue" stroke="midnightblue" points="267.97,-158.09 263.96,-148.28 260.98,-158.45 267.97,-158.09"/>
</g>
<!-- Node4 -->
<g id="node4" class="node">
<title>Node4</title>
<g id="a_node4"><a xlink:href="../../da/d6c/PointCloud2_8h.html" target="_top" xlink:title=" ">
<polygon fill="white" stroke="black" points="594.5,-190.5 594.5,-209.5 678.5,-209.5 678.5,-190.5 594.5,-190.5"/>
<text text-anchor="middle" x="636.5" y="-197.5" font-family="Helvetica,sans-Serif" font-size="10.00">PointCloud2.h</text>
</a>
</g>
</g>
<!-- Node1&#45;&gt;Node4 -->
<g id="edge3" class="edge">
<title>Node1&#45;&gt;Node4</title>
<path fill="none" stroke="midnightblue" d="M327.65,-246.44C398.3,-236.05 516.44,-218.67 584.3,-208.68"/>
<polygon fill="midnightblue" stroke="midnightblue" points="584.95,-212.12 594.33,-207.2 583.93,-205.2 584.95,-212.12"/>
</g>
<!-- Node15 -->
<g id="node15" class="node">
<title>Node15</title>
<g id="a_node15"><a xlink:href="../../d0/dda/HeaderPubSubTypes_8h.html" target="_top" xlink:title=" ">
<polygon fill="white" stroke="black" points="298,-190.5 298,-209.5 423,-209.5 423,-190.5 298,-190.5"/>
<text text-anchor="middle" x="360.5" y="-197.5" font-family="Helvetica,sans-Serif" font-size="10.00">HeaderPubSubTypes.h</text>
</a>
</g>
</g>
<!-- Node1&#45;&gt;Node15 -->
<g id="edge35" class="edge">
<title>Node1&#45;&gt;Node15</title>
<path fill="none" stroke="midnightblue" d="M284.12,-246.32C298.45,-237.82 320.51,-224.73 337.25,-214.8"/>
<polygon fill="midnightblue" stroke="midnightblue" points="339.1,-217.77 345.92,-209.65 335.53,-211.75 339.1,-217.77"/>
</g>
<!-- Node16 -->
<g id="node16" class="node">
<title>Node16</title>
<g id="a_node16"><a xlink:href="../../db/d35/PointFieldPubSubTypes_8h.html" target="_top" xlink:title=" ">
<polygon fill="white" stroke="black" points="104,-190.5 104,-209.5 241,-209.5 241,-190.5 104,-190.5"/>
<text text-anchor="middle" x="172.5" y="-197.5" font-family="Helvetica,sans-Serif" font-size="10.00">PointFieldPubSubTypes.h</text>
</a>
</g>
</g>
<!-- Node1&#45;&gt;Node16 -->
<g id="edge39" class="edge">
<title>Node1&#45;&gt;Node16</title>
<path fill="none" stroke="midnightblue" d="M253.92,-246.32C238.5,-237.74 214.69,-224.49 196.79,-214.52"/>
<polygon fill="midnightblue" stroke="midnightblue" points="198.49,-211.46 188.05,-209.65 195.08,-217.58 198.49,-211.46"/>
</g>
<!-- Node5 -->
<g id="node5" class="node">
<title>Node5</title>
<g id="a_node5"><a xlink:href="../../d3/d6a/Header_8h.html" target="_top" xlink:title=" ">
<polygon fill="white" stroke="black" points="634.5,-129 634.5,-148 694.5,-148 694.5,-129 634.5,-129"/>
<text text-anchor="middle" x="664.5" y="-136" font-family="Helvetica,sans-Serif" font-size="10.00">Header.h</text>
</a>
</g>
</g>
<!-- Node4&#45;&gt;Node5 -->
<g id="edge4" class="edge">
<title>Node4&#45;&gt;Node5</title>
<path fill="none" stroke="midnightblue" d="M640.51,-190.48C644.59,-181.82 651.02,-168.15 656.2,-157.15"/>
<polygon fill="midnightblue" stroke="midnightblue" points="659.4,-158.55 660.5,-148.01 653.07,-155.57 659.4,-158.55"/>
</g>
<!-- Node7 -->
<g id="node7" class="node">
<title>Node7</title>
<g id="a_node7"><a xlink:title=" ">
<polygon fill="white" stroke="#bfbfbf" points="620.5,-0.5 620.5,-30.5 724.5,-30.5 724.5,-0.5 620.5,-0.5"/>
<text text-anchor="start" x="628.5" y="-18.5" font-family="Helvetica,sans-Serif" font-size="10.00">fastrtps/utils/fixed</text>
<text text-anchor="middle" x="672.5" y="-7.5" font-family="Helvetica,sans-Serif" font-size="10.00">_size_string.hpp</text>
</a>
</g>
</g>
<!-- Node4&#45;&gt;Node7 -->
<g id="edge28" class="edge">
<title>Node4&#45;&gt;Node7</title>
<path fill="none" stroke="midnightblue" d="M653.01,-190.39C681.25,-174.52 737.44,-137.58 754.5,-87 757.34,-78.58 758.83,-74.76 754.5,-67 746.88,-53.35 733.88,-42.93 720.45,-35.21"/>
<polygon fill="midnightblue" stroke="midnightblue" points="722.09,-32.12 711.62,-30.52 718.81,-38.3 722.09,-32.12"/>
</g>
<!-- Node8 -->
<g id="node8" class="node">
<title>Node8</title>
<g id="a_node8"><a xlink:title=" ">
<polygon fill="white" stroke="#bfbfbf" points="799,-6 799,-25 852,-25 852,-6 799,-6"/>
<text text-anchor="middle" x="825.5" y="-13" font-family="Helvetica,sans-Serif" font-size="10.00">stdint.h</text>
</a>
</g>
</g>
<!-- Node4&#45;&gt;Node8 -->
<g id="edge29" class="edge">
<title>Node4&#45;&gt;Node8</title>
<path fill="none" stroke="midnightblue" d="M678.68,-192.16C704.9,-186.02 737.81,-174.66 760.5,-154 796.51,-121.21 814.37,-64.3 821.54,-35.04"/>
<polygon fill="midnightblue" stroke="midnightblue" points="824.96,-35.82 823.78,-25.29 818.13,-34.25 824.96,-35.82"/>
</g>
<!-- Node9 -->
<g id="node9" class="node">
<title>Node9</title>
<g id="a_node9"><a xlink:title=" ">
<polygon fill="white" stroke="#bfbfbf" points="560.5,-6 560.5,-25 602.5,-25 602.5,-6 560.5,-6"/>
<text text-anchor="middle" x="581.5" y="-13" font-family="Helvetica,sans-Serif" font-size="10.00">array</text>
</a>
</g>
</g>
<!-- Node4&#45;&gt;Node9 -->
<g id="edge30" class="edge">
<title>Node4&#45;&gt;Node9</title>
<path fill="none" stroke="midnightblue" d="M626.27,-190.45C606.63,-173.28 564.18,-132.34 548.5,-87 541.92,-67.96 554.19,-47.19 565.59,-33.16"/>
<polygon fill="midnightblue" stroke="midnightblue" points="568.45,-35.2 572.4,-25.37 563.18,-30.6 568.45,-35.2"/>
</g>
<!-- Node10 -->
<g id="node10" class="node">
<title>Node10</title>
<g id="a_node10"><a xlink:title=" ">
<polygon fill="white" stroke="#bfbfbf" points="498.5,-6 498.5,-25 542.5,-25 542.5,-6 498.5,-6"/>
<text text-anchor="middle" x="520.5" y="-13" font-family="Helvetica,sans-Serif" font-size="10.00">string</text>
</a>
</g>
</g>
<!-- Node4&#45;&gt;Node10 -->
<g id="edge31" class="edge">
<title>Node4&#45;&gt;Node10</title>
<path fill="none" stroke="midnightblue" d="M613.68,-190.36C597.23,-183.03 575.69,-170.98 562.5,-154 534.64,-118.14 525.17,-63.8 522.02,-35.36"/>
<polygon fill="midnightblue" stroke="midnightblue" points="525.48,-34.82 521.04,-25.2 518.51,-35.49 525.48,-34.82"/>
</g>
<!-- Node11 -->
<g id="node11" class="node">
<title>Node11</title>
<g id="a_node11"><a xlink:title=" ">
<polygon fill="white" stroke="#bfbfbf" points="433,-6 433,-25 480,-25 480,-6 433,-6"/>
<text text-anchor="middle" x="456.5" y="-13" font-family="Helvetica,sans-Serif" font-size="10.00">vector</text>
</a>
</g>
</g>
<!-- Node4&#45;&gt;Node11 -->
<g id="edge32" class="edge">
<title>Node4&#45;&gt;Node11</title>
<path fill="none" stroke="midnightblue" d="M608.25,-190.45C587.93,-183.23 560.82,-171.28 541.5,-154 502.92,-119.49 475.81,-63.34 463.67,-34.64"/>
<polygon fill="midnightblue" stroke="midnightblue" points="466.79,-33.01 459.76,-25.08 460.31,-35.67 466.79,-33.01"/>
</g>
<!-- Node12 -->
<g id="node12" class="node">
<title>Node12</title>
<g id="a_node12"><a xlink:title=" ">
<polygon fill="white" stroke="#bfbfbf" points="742.5,-6 742.5,-25 780.5,-25 780.5,-6 742.5,-6"/>
<text text-anchor="middle" x="761.5" y="-13" font-family="Helvetica,sans-Serif" font-size="10.00">map</text>
</a>
</g>
</g>
<!-- Node4&#45;&gt;Node12 -->
<g id="edge33" class="edge">
<title>Node4&#45;&gt;Node12</title>
<path fill="none" stroke="midnightblue" d="M667,-190.49C687.74,-183.45 714.73,-171.7 733.5,-154 763.95,-125.29 772.78,-108.72 769.5,-67 768.66,-56.31 766.83,-44.47 765.14,-34.95"/>
<polygon fill="midnightblue" stroke="midnightblue" points="768.56,-34.21 763.27,-25.03 761.68,-35.5 768.56,-34.21"/>
</g>
<!-- Node13 -->
<g id="node13" class="node">
<title>Node13</title>
<g id="a_node13"><a xlink:title=" ">
<polygon fill="white" stroke="#bfbfbf" points="908.5,-6 908.5,-25 952.5,-25 952.5,-6 908.5,-6"/>
<text text-anchor="middle" x="930.5" y="-13" font-family="Helvetica,sans-Serif" font-size="10.00">bitset</text>
</a>
</g>
</g>
<!-- Node4&#45;&gt;Node13 -->
<g id="edge34" class="edge">
<title>Node4&#45;&gt;Node13</title>
<path fill="none" stroke="midnightblue" d="M678.73,-191.86C710.03,-185.3 752.89,-173.55 786.5,-154 843.09,-121.08 894.77,-61.6 917.83,-32.89"/>
<polygon fill="midnightblue" stroke="midnightblue" points="920.58,-35.05 924.04,-25.03 915.09,-30.71 920.58,-35.05"/>
</g>
<!-- Node14 -->
<g id="node14" class="node">
<title>Node14</title>
<g id="a_node14"><a xlink:href="../../dc/d5c/PointField_8h.html" target="_top" xlink:title=" ">
<polygon fill="white" stroke="black" points="565.5,-67.5 565.5,-86.5 639.5,-86.5 639.5,-67.5 565.5,-67.5"/>
<text text-anchor="middle" x="602.5" y="-74.5" font-family="Helvetica,sans-Serif" font-size="10.00">PointField.h</text>
</a>
</g>
</g>
<!-- Node4&#45;&gt;Node14 -->
<g id="edge20" class="edge">
<title>Node4&#45;&gt;Node14</title>
<path fill="none" stroke="midnightblue" d="M634.05,-190.3C628.57,-170.76 615.16,-123.06 607.71,-96.55"/>
<polygon fill="midnightblue" stroke="midnightblue" points="611,-95.3 604.92,-86.62 604.26,-97.2 611,-95.3"/>
</g>
<!-- Node6 -->
<g id="node6" class="node">
<title>Node6</title>
<g id="a_node6"><a xlink:href="../../d9/d3d/ros2_2types_2Time_8h.html" target="_top" xlink:title=" ">
<polygon fill="white" stroke="black" points="695.5,-67.5 695.5,-86.5 745.5,-86.5 745.5,-67.5 695.5,-67.5"/>
<text text-anchor="middle" x="720.5" y="-74.5" font-family="Helvetica,sans-Serif" font-size="10.00">Time.h</text>
</a>
</g>
</g>
<!-- Node5&#45;&gt;Node6 -->
<g id="edge5" class="edge">
<title>Node5&#45;&gt;Node6</title>
<path fill="none" stroke="midnightblue" d="M672.52,-128.98C681.09,-119.87 694.86,-105.24 705.46,-93.98"/>
<polygon fill="midnightblue" stroke="midnightblue" points="708.19,-96.19 712.49,-86.51 703.09,-91.39 708.19,-96.19"/>
</g>
<!-- Node5&#45;&gt;Node7 -->
<g id="edge13" class="edge">
<title>Node5&#45;&gt;Node7</title>
<path fill="none" stroke="midnightblue" d="M665.08,-128.8C666.28,-110.6 669.1,-67.98 670.89,-40.79"/>
<polygon fill="midnightblue" stroke="midnightblue" points="674.4,-40.75 671.57,-30.54 667.42,-40.29 674.4,-40.75"/>
</g>
<!-- Node5&#45;&gt;Node8 -->
<g id="edge14" class="edge">
<title>Node5&#45;&gt;Node8</title>
<path fill="none" stroke="midnightblue" d="M691.1,-128.98C714.04,-120.74 747.2,-106.61 771.5,-87 789.98,-72.08 805.77,-49.6 815.42,-34.05"/>
<polygon fill="midnightblue" stroke="midnightblue" points="818.47,-35.77 820.6,-25.39 812.46,-32.17 818.47,-35.77"/>
</g>
<!-- Node5&#45;&gt;Node9 -->
<g id="edge15" class="edge">
<title>Node5&#45;&gt;Node9</title>
<path fill="none" stroke="midnightblue" d="M634.38,-132.53C608.76,-126.54 573.5,-113.72 556.5,-87 545.88,-70.31 556.76,-48.51 567.31,-33.6"/>
<polygon fill="midnightblue" stroke="midnightblue" points="570.35,-35.38 573.64,-25.31 564.78,-31.13 570.35,-35.38"/>
</g>
<!-- Node5&#45;&gt;Node10 -->
<g id="edge16" class="edge">
<title>Node5&#45;&gt;Node10</title>
<path fill="none" stroke="midnightblue" d="M634.37,-131.21C608.5,-124.38 571.8,-111.07 548.5,-87 534.64,-72.68 527.39,-50.67 523.77,-35.05"/>
<polygon fill="midnightblue" stroke="midnightblue" points="527.15,-34.12 521.73,-25.01 520.29,-35.51 527.15,-34.12"/>
</g>
<!-- Node5&#45;&gt;Node11 -->
<g id="edge17" class="edge">
<title>Node5&#45;&gt;Node11</title>
<path fill="none" stroke="midnightblue" d="M634.42,-129.58C606.64,-121.46 564.89,-107.16 532.5,-87 508.52,-72.08 485.38,-48.96 471.06,-33.3"/>
<polygon fill="midnightblue" stroke="midnightblue" points="473.34,-30.59 464.06,-25.46 468.12,-35.25 473.34,-30.59"/>
</g>
<!-- Node5&#45;&gt;Node12 -->
<g id="edge18" class="edge">
<title>Node5&#45;&gt;Node12</title>
<path fill="none" stroke="midnightblue" d="M694.3,-128.88C714.77,-121.31 740.67,-108.14 754.5,-87 764.48,-71.74 765.25,-50.52 764.13,-35.35"/>
<polygon fill="midnightblue" stroke="midnightblue" points="767.58,-34.7 763.02,-25.14 760.62,-35.45 767.58,-34.7"/>
</g>
<!-- Node5&#45;&gt;Node13 -->
<g id="edge19" class="edge">
<title>Node5&#45;&gt;Node13</title>
<path fill="none" stroke="midnightblue" d="M688.78,-128.96C715.14,-119.48 758.31,-103.35 794.5,-87 834.43,-68.96 879.3,-44.94 906.21,-30.11"/>
<polygon fill="midnightblue" stroke="midnightblue" points="908.22,-32.99 915.27,-25.09 904.82,-26.87 908.22,-32.99"/>
</g>
<!-- Node6&#45;&gt;Node7 -->
<g id="edge6" class="edge">
<title>Node6&#45;&gt;Node7</title>
<path fill="none" stroke="midnightblue" d="M713.62,-67.48C707.55,-59.94 698.42,-48.63 690.3,-38.57"/>
<polygon fill="midnightblue" stroke="midnightblue" points="692.82,-36.11 683.81,-30.52 687.37,-40.5 692.82,-36.11"/>
</g>
<!-- Node6&#45;&gt;Node8 -->
<g id="edge7" class="edge">
<title>Node6&#45;&gt;Node8</title>
<path fill="none" stroke="midnightblue" d="M735.54,-67.48C752.78,-57.71 781.24,-41.58 801.53,-30.08"/>
<polygon fill="midnightblue" stroke="midnightblue" points="803.51,-32.98 810.48,-25.01 800.06,-26.89 803.51,-32.98"/>
</g>
<!-- Node6&#45;&gt;Node9 -->
<g id="edge8" class="edge">
<title>Node6&#45;&gt;Node9</title>
<path fill="none" stroke="midnightblue" d="M698.62,-67.41C676.5,-58.62 641.4,-44.38 611.5,-31 610.34,-30.48 609.16,-29.95 607.97,-29.4"/>
<polygon fill="midnightblue" stroke="midnightblue" points="609.41,-26.21 598.87,-25.11 606.42,-32.54 609.41,-26.21"/>
</g>
<!-- Node6&#45;&gt;Node10 -->
<g id="edge9" class="edge">
<title>Node6&#45;&gt;Node10</title>
<path fill="none" stroke="midnightblue" d="M695.45,-70.79C662.07,-63.52 601.43,-49.16 551.5,-31 549.89,-30.41 548.24,-29.77 546.6,-29.1"/>
<polygon fill="midnightblue" stroke="midnightblue" points="547.89,-25.85 537.33,-25.03 545.07,-32.26 547.89,-25.85"/>
</g>
<!-- Node6&#45;&gt;Node11 -->
<g id="edge10" class="edge">
<title>Node6&#45;&gt;Node11</title>
<path fill="none" stroke="midnightblue" d="M695.44,-72.97C652.55,-67.38 562.61,-53.87 489.5,-31 487.57,-30.4 485.61,-29.72 483.65,-28.99"/>
<polygon fill="midnightblue" stroke="midnightblue" points="484.62,-25.6 474.03,-25.06 481.97,-32.08 484.62,-25.6"/>
</g>
<!-- Node6&#45;&gt;Node12 -->
<g id="edge11" class="edge">
<title>Node6&#45;&gt;Node12</title>
<path fill="none" stroke="midnightblue" d="M726.37,-67.48C732.46,-58.64 742.14,-44.59 749.8,-33.48"/>
<polygon fill="midnightblue" stroke="midnightblue" points="752.84,-35.23 755.64,-25.01 747.08,-31.26 752.84,-35.23"/>
</g>
<!-- Node6&#45;&gt;Node13 -->
<g id="edge12" class="edge">
<title>Node6&#45;&gt;Node13</title>
<path fill="none" stroke="midnightblue" d="M745.83,-68.82C784.13,-57.97 856.72,-37.4 898.58,-25.54"/>
<polygon fill="midnightblue" stroke="midnightblue" points="899.6,-28.89 908.27,-22.8 897.7,-22.16 899.6,-28.89"/>
</g>
<!-- Node14&#45;&gt;Node7 -->
<g id="edge21" class="edge">
<title>Node14&#45;&gt;Node7</title>
<path fill="none" stroke="midnightblue" d="M612.53,-67.48C621.83,-59.57 636.05,-47.48 648.3,-37.07"/>
<polygon fill="midnightblue" stroke="midnightblue" points="650.65,-39.67 656,-30.52 646.12,-34.33 650.65,-39.67"/>
</g>
<!-- Node14&#45;&gt;Node8 -->
<g id="edge22" class="edge">
<title>Node14&#45;&gt;Node8</title>
<path fill="none" stroke="midnightblue" d="M639.84,-68.7C677.91,-60.87 738.45,-47.33 789.5,-31 791.77,-30.27 794.11,-29.47 796.44,-28.62"/>
<polygon fill="midnightblue" stroke="midnightblue" points="797.8,-31.85 805.88,-25.01 795.29,-25.32 797.8,-31.85"/>
</g>
<!-- Node14&#45;&gt;Node9 -->
<g id="edge23" class="edge">
<title>Node14&#45;&gt;Node9</title>
<path fill="none" stroke="midnightblue" d="M599.49,-67.48C596.47,-58.9 591.71,-45.43 587.85,-34.48"/>
<polygon fill="midnightblue" stroke="midnightblue" points="591.13,-33.27 584.5,-25.01 584.53,-35.6 591.13,-33.27"/>
</g>
<!-- Node14&#45;&gt;Node10 -->
<g id="edge24" class="edge">
<title>Node14&#45;&gt;Node10</title>
<path fill="none" stroke="midnightblue" d="M590.75,-67.48C577.72,-58.02 556.46,-42.6 540.74,-31.19"/>
<polygon fill="midnightblue" stroke="midnightblue" points="542.38,-28.05 532.23,-25.01 538.27,-33.71 542.38,-28.05"/>
</g>
<!-- Node14&#45;&gt;Node11 -->
<g id="edge25" class="edge">
<title>Node14&#45;&gt;Node11</title>
<path fill="none" stroke="midnightblue" d="M580.32,-67.43C557.47,-58.54 520.86,-44.13 489.5,-31 488.09,-30.41 486.65,-29.8 485.2,-29.18"/>
<polygon fill="midnightblue" stroke="midnightblue" points="486.21,-25.81 475.65,-25.05 483.43,-32.23 486.21,-25.81"/>
</g>
<!-- Node14&#45;&gt;Node12 -->
<g id="edge26" class="edge">
<title>Node14&#45;&gt;Node12</title>
<path fill="none" stroke="midnightblue" d="M631.32,-67.44C658.17,-59.15 699.12,-45.71 733.5,-31 734.53,-30.56 735.58,-30.09 736.63,-29.62"/>
<polygon fill="midnightblue" stroke="midnightblue" points="738.55,-32.57 746,-25.04 735.48,-26.28 738.55,-32.57"/>
</g>
<!-- Node14&#45;&gt;Node13 -->
<g id="edge27" class="edge">
<title>Node14&#45;&gt;Node13</title>
<path fill="none" stroke="midnightblue" d="M639.89,-69.93C690.31,-61.64 782.84,-46.09 861.5,-31 873.56,-28.69 886.76,-25.96 898.36,-23.5"/>
<polygon fill="midnightblue" stroke="midnightblue" points="899.43,-26.85 908.48,-21.33 897.97,-20 899.43,-26.85"/>
</g>
<!-- Node15&#45;&gt;Node2 -->
<g id="edge36" class="edge">
<title>Node15&#45;&gt;Node2</title>
<path fill="none" stroke="midnightblue" d="M319.67,-190.48C276.2,-181.4 206.39,-166.83 152.53,-155.58"/>
<polygon fill="midnightblue" stroke="midnightblue" points="153.17,-152.14 142.67,-153.52 151.74,-158.99 153.17,-152.14"/>
</g>
<!-- Node15&#45;&gt;Node3 -->
<g id="edge37" class="edge">
<title>Node15&#45;&gt;Node3</title>
<path fill="none" stroke="midnightblue" d="M346.6,-190.48C330.83,-180.8 304.86,-164.87 286.15,-153.39"/>
<polygon fill="midnightblue" stroke="midnightblue" points="287.73,-150.25 277.37,-148.01 284.07,-156.22 287.73,-150.25"/>
</g>
<!-- Node15&#45;&gt;Node5 -->
<g id="edge38" class="edge">
<title>Node15&#45;&gt;Node5</title>
<path fill="none" stroke="midnightblue" d="M404.06,-190.48C462.94,-178.95 567.14,-158.56 624.26,-147.38"/>
<polygon fill="midnightblue" stroke="midnightblue" points="625.22,-150.75 634.36,-145.4 623.87,-143.89 625.22,-150.75"/>
</g>
<!-- Node16&#45;&gt;Node2 -->
<g id="edge40" class="edge">
<title>Node16&#45;&gt;Node2</title>
<path fill="none" stroke="midnightblue" d="M158.6,-190.48C145.22,-182.27 124.5,-169.56 107.1,-158.88"/>
<polygon fill="midnightblue" stroke="midnightblue" points="108.72,-155.77 98.36,-153.52 105.06,-161.74 108.72,-155.77"/>
</g>
<!-- Node16&#45;&gt;Node3 -->
<g id="edge41" class="edge">
<title>Node16&#45;&gt;Node3</title>
<path fill="none" stroke="midnightblue" d="M185.54,-190.48C200.27,-180.84 224.47,-165.02 242.01,-153.55"/>
<polygon fill="midnightblue" stroke="midnightblue" points="244.03,-156.41 250.49,-148.01 240.2,-150.55 244.03,-156.41"/>
</g>
<!-- Node16&#45;&gt;Node14 -->
<g id="edge42" class="edge">
<title>Node16&#45;&gt;Node14</title>
<path fill="none" stroke="midnightblue" d="M172.65,-190.27C173.43,-174.13 177.61,-139.75 198.5,-123 252.42,-79.75 460.41,-76.34 555.08,-77.12"/>
<polygon fill="midnightblue" stroke="midnightblue" points="555.2,-80.63 565.24,-77.23 555.27,-73.63 555.2,-80.63"/>
</g>
</g>
</svg>
        <g id="navigator" transform="translate(0 0)" fill="#404254">
                <rect fill="#f2f5e9" fill-opacity="0.5" stroke="#606060" stroke-width=".5" x="0" y="0" width="60" height="60"/>
                <use id="zoomplus" xlink:href="#zoomPlus" x="17" y="9" onmousedown="handleZoom(evt,'in')"/>
                <use id="zoomminus" xlink:href="#zoomMin" x="42" y="9" onmousedown="handleZoom(evt,'out')"/>
                <use id="reset" xlink:href="#resetDef" x="30" y="36" onmousedown="handleReset()"/>
                <g id="arrowUp" xlink:href="#dirArrow" transform="translate(30 24)" onmousedown="handlePan(0,-1)">
                  <use xlink:href="#rim" fill="#404040">
                        <set attributeName="fill" to="#808080" begin="arrowUp.mouseover" end="arrowUp.mouseout"/>
                  </use>
                  <path fill="none" stroke="white" stroke-width="1.5" d="M0,-3.0v7 M-2.5,-0.5L0,-3.0L2.5,-0.5"/>
                </g>
                <g id="arrowRight" xlink:href="#dirArrow" transform="rotate(90) translate(36 -43)" onmousedown="handlePan(1,0)">
                  <use xlink:href="#rim" fill="#404040">
                        <set attributeName="fill" to="#808080" begin="arrowRight.mouseover" end="arrowRight.mouseout"/>
                  </use>
                  <path fill="none" stroke="white" stroke-width="1.5" d="M0,-3.0v7 M-2.5,-0.5L0,-3.0L2.5,-0.5"/>
                </g>
                <g id="arrowDown" xlink:href="#dirArrow" transform="rotate(180) translate(-30 -48)" onmousedown="handlePan(0,1)">
                  <use xlink:href="#rim" fill="#404040">
                        <set attributeName="fill" to="#808080" begin="arrowDown.mouseover" end="arrowDown.mouseout"/>
                  </use>
                  <path fill="none" stroke="white" stroke-width="1.5" d="M0,-3.0v7 M-2.5,-0.5L0,-3.0L2.5,-0.5"/>
                </g>
                <g id="arrowLeft" xlink:href="#dirArrow" transform="rotate(270) translate(-36 17)" onmousedown="handlePan(-1,0)">
                  <use xlink:href="#rim" fill="#404040">
                        <set attributeName="fill" to="#808080" begin="arrowLeft.mouseover" end="arrowLeft.mouseout"/>
                  </use>
                  <path fill="none" stroke="white" stroke-width="1.5" d="M0,-3.0v7 M-2.5,-0.5L0,-3.0L2.5,-0.5"/>
                </g>
        </g>
        <svg viewBox="0 0 15 15" width="100%" height="30px" preserveAspectRatio="xMaxYMin meet">
         <g id="arrow_out" transform="scale(0.3 0.3)">
          <a xlink:href="PointCloud2PubSubTypes_8h__incl_org.svg" target="_base">
           <rect id="button" ry="5" rx="5" y="6" x="6" height="38" width="38"
                fill="#f2f5e9" fill-opacity="0.5" stroke="#606060" stroke-width="1.0"/>
           <path id="arrow"
             d="M 11.500037,31.436501 C 11.940474,20.09759 22.043105,11.32322 32.158766,21.979434 L 37.068811,17.246167 C 37.068811,17.246167 37.088388,32 37.088388,32 L 22.160133,31.978069 C 22.160133,31.978069 26.997745,27.140456 26.997745,27.140456 C 18.528582,18.264221 13.291696,25.230495 11.500037,31.436501 z"
             style="fill:#404040;"/>
          </a>
         </g>
        </svg>
</svg>
