<?xml version="1.0" encoding="UTF-8" standalone="no"?>
<!DOCTYPE svg PUBLIC "-//W3C//DTD SVG 1.1//EN"
 "http://www.w3.org/Graphics/SVG/1.1/DTD/svg11.dtd">
<!-- Generated by graphviz version 2.43.0 (0)
 -->
<!-- Title: carla::PythonUtil::ThisThreadHasTheGIL Pages: 1 -->
<svg width="329pt" height="88pt"
 viewBox="0.00 0.00 329.00 88.00" xmlns="http://www.w3.org/2000/svg" xmlns:xlink="http://www.w3.org/1999/xlink">
<g id="graph0" class="graph" transform="scale(1 1) rotate(0) translate(4 84)">
<title>carla::PythonUtil::ThisThreadHasTheGIL</title>
<polygon fill="white" stroke="transparent" points="-4,4 -4,-84 325,-84 325,4 -4,4"/>
<!-- Node1 -->
<g id="node1" class="node">
<title>Node1</title>
<g id="a_node1"><a xlink:title=" ">
<polygon fill="#bfbfbf" stroke="black" points="198,-24.5 198,-54.5 321,-54.5 321,-24.5 198,-24.5"/>
<text text-anchor="start" x="206" y="-42.5" font-family="Helvetica,sans-Serif" font-size="10.00">carla::PythonUtil::</text>
<text text-anchor="middle" x="259.5" y="-31.5" font-family="Helvetica,sans-Serif" font-size="10.00">ThisThreadHasTheGIL</text>
</a>
</g>
</g>
<!-- Node2 -->
<g id="node2" class="node">
<title>Node2</title>
<g id="a_node2"><a xlink:href="../../d9/d9c/classcarla_1_1PythonUtil_1_1AcquireGILDeleter.html#a669b8f478cc6551e4073958731548d9a" target="_top" xlink:title=" ">
<polygon fill="white" stroke="black" points="1,-49.5 1,-79.5 161,-79.5 161,-49.5 1,-49.5"/>
<text text-anchor="start" x="9" y="-67.5" font-family="Helvetica,sans-Serif" font-size="10.00">carla::PythonUtil::</text>
<text text-anchor="middle" x="81" y="-56.5" font-family="Helvetica,sans-Serif" font-size="10.00">AcquireGILDeleter::operator()</text>
</a>
</g>
</g>
<!-- Node1&#45;&gt;Node2 -->
<g id="edge1" class="edge">
<title>Node1&#45;&gt;Node2</title>
<path fill="none" stroke="midnightblue" d="M187.68,-49.53C178.98,-50.76 170.05,-52.03 161.24,-53.28"/>
<polygon fill="midnightblue" stroke="midnightblue" points="188.35,-52.97 197.76,-48.1 187.37,-46.04 188.35,-52.97"/>
</g>
<!-- Node3 -->
<g id="node3" class="node">
<title>Node3</title>
<g id="a_node3"><a xlink:href="../../de/d96/classcarla_1_1PythonUtil_1_1ReleaseGILDeleter.html#a5473d54ce3f806d112ee7e84f43ec67c" target="_top" xlink:title=" ">
<polygon fill="white" stroke="black" points="0,-0.5 0,-30.5 162,-30.5 162,-0.5 0,-0.5"/>
<text text-anchor="start" x="8" y="-18.5" font-family="Helvetica,sans-Serif" font-size="10.00">carla::PythonUtil::</text>
<text text-anchor="middle" x="81" y="-7.5" font-family="Helvetica,sans-Serif" font-size="10.00">ReleaseGILDeleter::operator()</text>
</a>
</g>
</g>
<!-- Node1&#45;&gt;Node3 -->
<g id="edge2" class="edge">
<title>Node1&#45;&gt;Node3</title>
<path fill="none" stroke="midnightblue" d="M187.66,-29.87C179.28,-28.73 170.68,-27.56 162.18,-26.4"/>
<polygon fill="midnightblue" stroke="midnightblue" points="187.38,-33.36 197.76,-31.24 188.32,-26.43 187.38,-33.36"/>
</g>
</g>
</svg>
