<?xml version="1.0" encoding="UTF-8" standalone="no"?>
<!DOCTYPE svg PUBLIC "-//W3C//DTD SVG 1.1//EN"
 "http://www.w3.org/Graphics/SVG/1.1/DTD/svg11.dtd">
<!-- Generated by graphviz version 2.38.0 (20140413.2041)
 -->
<!-- Title: carla::geom::LatLonAddMeters Pages: 1 -->
<svg width="663pt" height="110pt"
 viewBox="0.00 0.00 663.00 109.50" xmlns="http://www.w3.org/2000/svg" xmlns:xlink="http://www.w3.org/1999/xlink">
<g id="graph0" class="graph" transform="scale(1 1) rotate(0) translate(4 105.5)">
<title>carla::geom::LatLonAddMeters</title>
<polygon fill="white" stroke="none" points="-4,4 -4,-105.5 659,-105.5 659,4 -4,4"/>
<!-- Node1 -->
<g id="node1" class="node"><title>Node1</title>
<polygon fill="#bfbfbf" stroke="black" points="0,-38.5 0,-57.5 164,-57.5 164,-38.5 0,-38.5"/>
<text text-anchor="middle" x="82" y="-45.5" font-family="Helvetica,sans-Serif" font-size="10.00">carla::geom::LatLonAddMeters</text>
</g>
<!-- Node2 -->
<g id="node2" class="node"><title>Node2</title>
<g id="a_node2"><a xlink:href="../../dc/dda/namespacecarla_1_1geom.html#a4d327b593c8f26a8e7c03f13816366e6" target="_top" xlink:title="Converts lat/lon/scale to mx/my (mx/my in meters if correct scale is given). ">
<polygon fill="white" stroke="black" points="200,-38.5 200,-57.5 364,-57.5 364,-38.5 200,-38.5"/>
<text text-anchor="middle" x="282" y="-45.5" font-family="Helvetica,sans-Serif" font-size="10.00">carla::geom::LatLonToMercator</text>
</a>
</g>
</g>
<!-- Node1&#45;&gt;Node2 -->
<g id="edge1" class="edge"><title>Node1&#45;&gt;Node2</title>
<path fill="none" stroke="midnightblue" d="M164.105,-48C172.457,-48 180.985,-48 189.44,-48"/>
<polygon fill="midnightblue" stroke="midnightblue" points="189.7,-51.5001 199.7,-48 189.7,-44.5001 189.7,-51.5001"/>
</g>
<!-- Node7 -->
<g id="node7" class="node"><title>Node7</title>
<g id="a_node7"><a xlink:href="../../dc/dda/namespacecarla_1_1geom.html#a3c277daefc89cfd431359716d8190551" target="_top" xlink:title="Convert latitude to scale, which is needed by mercator transformations. ">
<polygon fill="white" stroke="black" points="216.5,-76.5 216.5,-95.5 347.5,-95.5 347.5,-76.5 216.5,-76.5"/>
<text text-anchor="middle" x="282" y="-83.5" font-family="Helvetica,sans-Serif" font-size="10.00">carla::geom::LatToScale</text>
</a>
</g>
</g>
<!-- Node1&#45;&gt;Node7 -->
<g id="edge6" class="edge"><title>Node1&#45;&gt;Node7</title>
<path fill="none" stroke="midnightblue" d="M132.708,-57.54C159.541,-62.6896 192.859,-69.084 221.113,-74.5065"/>
<polygon fill="midnightblue" stroke="midnightblue" points="220.791,-78.0085 231.271,-76.4561 222.11,-71.134 220.791,-78.0085"/>
</g>
<!-- Node8 -->
<g id="node8" class="node"><title>Node8</title>
<g id="a_node8"><a xlink:href="../../dc/dda/namespacecarla_1_1geom.html#a812320ece05307ebf6e8ec577cbbc05f" target="_top" xlink:title="Converts mx/my/scale to lat/lon (mx/my in meters if correct scale is given). ">
<polygon fill="white" stroke="black" points="200,-0.5 200,-19.5 364,-19.5 364,-0.5 200,-0.5"/>
<text text-anchor="middle" x="282" y="-7.5" font-family="Helvetica,sans-Serif" font-size="10.00">carla::geom::MercatorToLatLon</text>
</a>
</g>
</g>
<!-- Node1&#45;&gt;Node8 -->
<g id="edge8" class="edge"><title>Node1&#45;&gt;Node8</title>
<path fill="none" stroke="midnightblue" d="M132.708,-38.46C159.541,-33.3104 192.859,-26.916 221.113,-21.4935"/>
<polygon fill="midnightblue" stroke="midnightblue" points="222.11,-24.866 231.271,-19.5439 220.791,-17.9915 222.11,-24.866"/>
</g>
<!-- Node3 -->
<g id="node3" class="node"><title>Node3</title>
<g id="a_node3"><a xlink:href="../../d0/dea/classcarla_1_1geom_1_1Math.html#a2bd79912876dfbab9354c0bb841320e4" target="_top" xlink:title="carla::geom::Math::\lToRadians">
<polygon fill="white" stroke="black" points="400,-71 400,-101 510,-101 510,-71 400,-71"/>
<text text-anchor="start" x="408" y="-89" font-family="Helvetica,sans-Serif" font-size="10.00">carla::geom::Math::</text>
<text text-anchor="middle" x="455" y="-78" font-family="Helvetica,sans-Serif" font-size="10.00">ToRadians</text>
</a>
</g>
</g>
<!-- Node2&#45;&gt;Node3 -->
<g id="edge2" class="edge"><title>Node2&#45;&gt;Node3</title>
<path fill="none" stroke="midnightblue" d="M326.151,-57.589C345.454,-61.8786 368.61,-67.0245 389.88,-71.7512"/>
<polygon fill="midnightblue" stroke="midnightblue" points="389.3,-75.2075 399.821,-73.9603 390.819,-68.3742 389.3,-75.2075"/>
</g>
<!-- Node4 -->
<g id="node4" class="node"><title>Node4</title>
<g id="a_node4"><a xlink:href="../../d2/d8c/namespacecarla_1_1logging.html#ae07934b6d40b8775aa16ac0a369b1ef9" target="_top" xlink:title="carla::logging::log">
<polygon fill="white" stroke="black" points="404.5,-32.5 404.5,-51.5 505.5,-51.5 505.5,-32.5 404.5,-32.5"/>
<text text-anchor="middle" x="455" y="-39.5" font-family="Helvetica,sans-Serif" font-size="10.00">carla::logging::log</text>
</a>
</g>
</g>
<!-- Node2&#45;&gt;Node4 -->
<g id="edge3" class="edge"><title>Node2&#45;&gt;Node4</title>
<path fill="none" stroke="midnightblue" d="M364.243,-45.1494C374.242,-44.7985 384.319,-44.445 393.924,-44.1079"/>
<polygon fill="midnightblue" stroke="midnightblue" points="394.266,-47.5982 404.137,-43.7496 394.02,-40.6025 394.266,-47.5982"/>
</g>
<!-- Node5 -->
<g id="node5" class="node"><title>Node5</title>
<g id="a_node5"><a xlink:href="../../d2/d8c/namespacecarla_1_1logging.html#a1824b914c5dc7221a1098a469e8ce612" target="_top" xlink:title="carla::logging::write\l_to_stream">
<polygon fill="white" stroke="black" points="546,-49 546,-79 655,-79 655,-49 546,-49"/>
<text text-anchor="start" x="554" y="-67" font-family="Helvetica,sans-Serif" font-size="10.00">carla::logging::write</text>
<text text-anchor="middle" x="600.5" y="-56" font-family="Helvetica,sans-Serif" font-size="10.00">_to_stream</text>
</a>
</g>
</g>
<!-- Node4&#45;&gt;Node5 -->
<g id="edge4" class="edge"><title>Node4&#45;&gt;Node5</title>
<path fill="none" stroke="midnightblue" d="M505.787,-49.6328C515.501,-51.122 525.809,-52.7024 535.899,-54.2494"/>
<polygon fill="midnightblue" stroke="midnightblue" points="535.472,-57.7247 545.887,-55.7806 536.533,-50.8056 535.472,-57.7247"/>
</g>
<!-- Node6 -->
<g id="node6" class="node"><title>Node6</title>
<g id="a_node6"><a xlink:href="../../d9/d36/namespacecarla.html#a435a71fa9b5a48bb8f77239f97d3f77c" target="_top" xlink:title="carla::log_debug">
<polygon fill="white" stroke="black" points="553,-10.5 553,-29.5 648,-29.5 648,-10.5 553,-10.5"/>
<text text-anchor="middle" x="600.5" y="-17.5" font-family="Helvetica,sans-Serif" font-size="10.00">carla::log_debug</text>
</a>
</g>
</g>
<!-- Node4&#45;&gt;Node6 -->
<g id="edge5" class="edge"><title>Node4&#45;&gt;Node6</title>
<path fill="none" stroke="midnightblue" d="M505.787,-34.3672C517.676,-32.5444 530.456,-30.5851 542.637,-28.7176"/>
<polygon fill="midnightblue" stroke="midnightblue" points="543.342,-32.1506 552.696,-27.1756 542.281,-25.2315 543.342,-32.1506"/>
</g>
<!-- Node7&#45;&gt;Node3 -->
<g id="edge7" class="edge"><title>Node7&#45;&gt;Node3</title>
<path fill="none" stroke="midnightblue" d="M347.648,-86C361.365,-86 375.844,-86 389.553,-86"/>
<polygon fill="midnightblue" stroke="midnightblue" points="389.862,-89.5001 399.862,-86 389.861,-82.5001 389.862,-89.5001"/>
</g>
</g>
</svg>
