<?xml version="1.0" encoding="UTF-8" standalone="no"?>
<!DOCTYPE svg PUBLIC "-//W3C//DTD SVG 1.1//EN"
 "http://www.w3.org/Graphics/SVG/1.1/DTD/svg11.dtd">
<!-- Generated by graphviz version 2.38.0 (20140413.2041)
 -->
<!-- Title: pugi::xpath_query::evaluate_node Pages: 1 -->
<svg width="304pt" height="78pt"
 viewBox="0.00 0.00 304.00 77.50" xmlns="http://www.w3.org/2000/svg" xmlns:xlink="http://www.w3.org/1999/xlink">
<g id="graph0" class="graph" transform="scale(1 1) rotate(0) translate(4 73.5)">
<title>pugi::xpath_query::evaluate_node</title>
<polygon fill="white" stroke="none" points="-4,4 -4,-73.5 300,-73.5 300,4 -4,4"/>
<!-- Node1 -->
<g id="node1" class="node"><title>Node1</title>
<polygon fill="#bfbfbf" stroke="black" points="0,-22.5 0,-52.5 107,-52.5 107,-22.5 0,-22.5"/>
<text text-anchor="start" x="8" y="-40.5" font-family="Helvetica,sans-Serif" font-size="10.00">pugi::xpath_query::</text>
<text text-anchor="middle" x="53.5" y="-29.5" font-family="Helvetica,sans-Serif" font-size="10.00">evaluate_node</text>
</g>
<!-- Node2 -->
<g id="node2" class="node"><title>Node2</title>
<g id="a_node2"><a xlink:href="../../db/d65/classpugi_1_1xml__node.html#a87dc7d267f7aab02865c3f7a9705ad82" target="_top" xlink:title="pugi::xml_node::select_node">
<polygon fill="white" stroke="black" points="143,-50 143,-69 296,-69 296,-50 143,-50"/>
<text text-anchor="middle" x="219.5" y="-57" font-family="Helvetica,sans-Serif" font-size="10.00">pugi::xml_node::select_node</text>
</a>
</g>
</g>
<!-- Node1&#45;&gt;Node2 -->
<g id="edge1" class="edge"><title>Node1&#45;&gt;Node2</title>
<path fill="none" stroke="midnightblue" d="M117.408,-45.9389C127.275,-47.2625 137.532,-48.6384 147.564,-49.9842"/>
<polygon fill="midnightblue" stroke="midnightblue" points="117.67,-42.4427 107.293,-44.582 116.739,-49.3806 117.67,-42.4427"/>
</g>
<!-- Node3 -->
<g id="node3" class="node"><title>Node3</title>
<g id="a_node3"><a xlink:href="../../db/d65/classpugi_1_1xml__node.html#a51ae1ebf6d78f80f9e91f5d64c143d78" target="_top" xlink:title="pugi::xml_node::select\l_single_node">
<polygon fill="white" stroke="black" points="157.5,-0.5 157.5,-30.5 281.5,-30.5 281.5,-0.5 157.5,-0.5"/>
<text text-anchor="start" x="165.5" y="-18.5" font-family="Helvetica,sans-Serif" font-size="10.00">pugi::xml_node::select</text>
<text text-anchor="middle" x="219.5" y="-7.5" font-family="Helvetica,sans-Serif" font-size="10.00">_single_node</text>
</a>
</g>
</g>
<!-- Node1&#45;&gt;Node3 -->
<g id="edge2" class="edge"><title>Node1&#45;&gt;Node3</title>
<path fill="none" stroke="midnightblue" d="M117.565,-29.04C130.587,-27.2932 144.283,-25.456 157.239,-23.7179"/>
<polygon fill="midnightblue" stroke="midnightblue" points="116.739,-25.6194 107.293,-30.418 117.67,-32.5573 116.739,-25.6194"/>
</g>
</g>
</svg>
