<?xml version="1.0" encoding="UTF-8" standalone="no"?>
<!DOCTYPE svg PUBLIC "-//W3C//DTD SVG 1.1//EN"
 "http://www.w3.org/Graphics/SVG/1.1/DTD/svg11.dtd">
<!-- Generated by graphviz version 2.40.1 (20161225.0304)
 -->
<!-- Title: FAckermannController::RunControlAcceleration Pages: 1 -->
<svg width="291pt" height="66pt"
 viewBox="0.00 0.00 291.00 66.00" xmlns="http://www.w3.org/2000/svg" xmlns:xlink="http://www.w3.org/1999/xlink">
<g id="graph0" class="graph" transform="scale(1 1) rotate(0) translate(4 62)">
<title>FAckermannController::RunControlAcceleration</title>
<polygon fill="#ffffff" stroke="transparent" points="-4,4 -4,-62 287,-62 287,4 -4,4"/>
<!-- Node11 -->
<g id="node1" class="node">
<title>Node11</title>
<polygon fill="#bfbfbf" stroke="#000000" points="0,-14 0,-44 137,-44 137,-14 0,-14"/>
<text text-anchor="start" x="8" y="-32" font-family="Helvetica,sans-Serif" font-size="10.00" fill="#000000">FAckermannController</text>
<text text-anchor="middle" x="68.5" y="-21" font-family="Helvetica,sans-Serif" font-size="10.00" fill="#000000">::RunControlAcceleration</text>
</g>
<!-- Node12 -->
<g id="node2" class="node">
<title>Node12</title>
<g id="a_node2"><a xlink:href="../../d8/da9/classPID.html#af6256fb4ab458508e5cf647cce699e00" target="_top" xlink:title="PID::Run">
<polygon fill="#ffffff" stroke="#000000" points="199.5,-38.5 199.5,-57.5 256.5,-57.5 256.5,-38.5 199.5,-38.5"/>
<text text-anchor="middle" x="228" y="-45.5" font-family="Helvetica,sans-Serif" font-size="10.00" fill="#000000">PID::Run</text>
</a>
</g>
</g>
<!-- Node11&#45;&gt;Node12 -->
<g id="edge1" class="edge">
<title>Node11&#45;&gt;Node12</title>
<path fill="none" stroke="#191970" d="M137.068,-37.168C154.7674,-39.2764 173.2164,-41.4741 188.8343,-43.3345"/>
<polygon fill="#191970" stroke="#191970" points="188.8066,-46.8559 199.1504,-44.5634 189.6346,-39.905 188.8066,-46.8559"/>
</g>
<!-- Node13 -->
<g id="node3" class="node">
<title>Node13</title>
<g id="a_node3"><a xlink:href="../../d8/da9/classPID.html#abea9156ba28794984e3145dcf02f976a" target="_top" xlink:title="PID::SetTargetPoint">
<polygon fill="#ffffff" stroke="#000000" points="173,-.5 173,-19.5 283,-19.5 283,-.5 173,-.5"/>
<text text-anchor="middle" x="228" y="-7.5" font-family="Helvetica,sans-Serif" font-size="10.00" fill="#000000">PID::SetTargetPoint</text>
</a>
</g>
</g>
<!-- Node11&#45;&gt;Node13 -->
<g id="edge2" class="edge">
<title>Node11&#45;&gt;Node13</title>
<path fill="none" stroke="#191970" d="M137.068,-20.832C145.5918,-19.8166 154.2895,-18.7806 162.7611,-17.7714"/>
<polygon fill="#191970" stroke="#191970" points="163.4399,-21.2154 172.9556,-16.557 162.6118,-14.2645 163.4399,-21.2154"/>
</g>
</g>
</svg>
