<?xml version="1.0" encoding="UTF-8" standalone="no"?>
<!DOCTYPE svg PUBLIC "-//W3C//DTD SVG 1.1//EN"
 "http://www.w3.org/Graphics/SVG/1.1/DTD/svg11.dtd">
<!-- Generated by graphviz version 2.38.0 (20140413.2041)
 -->
<!-- Title: ASceneCaptureSensor::SetExposureMinBrightness Pages: 1 -->
<svg width="543pt" height="66pt"
 viewBox="0.00 0.00 543.00 66.00" xmlns="http://www.w3.org/2000/svg" xmlns:xlink="http://www.w3.org/1999/xlink">
<g id="graph0" class="graph" transform="scale(1 1) rotate(0) translate(4 62)">
<title>ASceneCaptureSensor::SetExposureMinBrightness</title>
<polygon fill="white" stroke="none" points="-4,4 -4,-62 539,-62 539,4 -4,4"/>
<!-- Node1 -->
<g id="node1" class="node"><title>Node1</title>
<polygon fill="#bfbfbf" stroke="black" points="0,-14 0,-44 151,-44 151,-14 0,-14"/>
<text text-anchor="start" x="8" y="-32" font-family="Helvetica,sans-Serif" font-size="10.00">ASceneCaptureSensor</text>
<text text-anchor="middle" x="75.5" y="-21" font-family="Helvetica,sans-Serif" font-size="10.00">::SetExposureMinBrightness</text>
</g>
<!-- Node2 -->
<g id="node2" class="node"><title>Node2</title>
<g id="a_node2"><a xlink:href="../../dd/da3/classUActorBlueprintFunctionLibrary.html#a6a1fcb0b47cb61691281c6ca5693908f" target="_top" xlink:title="UActorBlueprintFunctionLibrary\l::SetCamera">
<polygon fill="white" stroke="black" points="187,-14 187,-44 351,-44 351,-14 187,-14"/>
<text text-anchor="start" x="195" y="-32" font-family="Helvetica,sans-Serif" font-size="10.00">UActorBlueprintFunctionLibrary</text>
<text text-anchor="middle" x="269" y="-21" font-family="Helvetica,sans-Serif" font-size="10.00">::SetCamera</text>
</a>
</g>
</g>
<!-- Node1&#45;&gt;Node2 -->
<g id="edge1" class="edge"><title>Node1&#45;&gt;Node2</title>
<path fill="none" stroke="midnightblue" d="M161.101,-29C169.693,-29 178.407,-29 186.96,-29"/>
<polygon fill="midnightblue" stroke="midnightblue" points="161.087,-25.5001 151.087,-29 161.087,-32.5001 161.087,-25.5001"/>
</g>
<!-- Node3 -->
<g id="node3" class="node"><title>Node3</title>
<g id="a_node3"><a xlink:href="../../d4/d60/classASceneCaptureSensor.html#a1a574afa79fb5ecf6425b0f8f48aa9d0" target="_top" xlink:title="ASceneCaptureSensor::Set">
<polygon fill="white" stroke="black" points="387,-38.5 387,-57.5 535,-57.5 535,-38.5 387,-38.5"/>
<text text-anchor="middle" x="461" y="-45.5" font-family="Helvetica,sans-Serif" font-size="10.00">ASceneCaptureSensor::Set</text>
</a>
</g>
</g>
<!-- Node2&#45;&gt;Node3 -->
<g id="edge2" class="edge"><title>Node2&#45;&gt;Node3</title>
<path fill="none" stroke="midnightblue" d="M361.224,-38.1224C369.854,-38.9854 378.527,-39.8527 386.955,-40.6955"/>
<polygon fill="midnightblue" stroke="midnightblue" points="361.427,-34.6253 351.128,-37.1128 360.73,-41.5906 361.427,-34.6253"/>
</g>
<!-- Node4 -->
<g id="node4" class="node"><title>Node4</title>
<g id="a_node4"><a xlink:href="../../da/dd3/classAShaderBasedSensor.html#a35a622b1b796b8e91569888c649c43d1" target="_top" xlink:title="AShaderBasedSensor::Set">
<polygon fill="white" stroke="black" points="389,-0.5 389,-19.5 533,-19.5 533,-0.5 389,-0.5"/>
<text text-anchor="middle" x="461" y="-7.5" font-family="Helvetica,sans-Serif" font-size="10.00">AShaderBasedSensor::Set</text>
</a>
</g>
</g>
<!-- Node2&#45;&gt;Node4 -->
<g id="edge3" class="edge"><title>Node2&#45;&gt;Node4</title>
<path fill="none" stroke="midnightblue" d="M361.147,-19.8853C370.414,-18.9586 379.729,-18.0271 388.74,-17.126"/>
<polygon fill="midnightblue" stroke="midnightblue" points="360.73,-16.4094 351.128,-20.8872 361.427,-23.3747 360.73,-16.4094"/>
</g>
</g>
</svg>
