<?xml version="1.0" encoding="UTF-8" standalone="no"?>
<!DOCTYPE svg PUBLIC "-//W3C//DTD SVG 1.1//EN"
 "http://www.w3.org/Graphics/SVG/1.1/DTD/svg11.dtd">
<!-- Generated by graphviz version 2.38.0 (20140413.2041)
 -->
<!-- Title: CarlaRecorderEventsAdd::Add Pages: 1 -->
<svg width="1337pt" height="78pt"
 viewBox="0.00 0.00 1337.00 77.50" xmlns="http://www.w3.org/2000/svg" xmlns:xlink="http://www.w3.org/1999/xlink">
<g id="graph0" class="graph" transform="scale(1 1) rotate(0) translate(4 73.5)">
<title>CarlaRecorderEventsAdd::Add</title>
<polygon fill="white" stroke="none" points="-4,4 -4,-73.5 1333,-73.5 1333,4 -4,4"/>
<!-- Node1 -->
<g id="node1" class="node"><title>Node1</title>
<polygon fill="#bfbfbf" stroke="black" points="0,-28 0,-47 151,-47 151,-28 0,-28"/>
<text text-anchor="middle" x="75.5" y="-35" font-family="Helvetica,sans-Serif" font-size="10.00">CarlaRecorderEventsAdd::Add</text>
</g>
<!-- Node2 -->
<g id="node2" class="node"><title>Node2</title>
<g id="a_node2"><a xlink:href="../../dd/db9/classACarlaRecorder.html#a2565ab46b0e9395dd1eec1922d7f0034" target="_top" xlink:title="ACarlaRecorder::AddEvent">
<polygon fill="white" stroke="black" points="187,-28 187,-47 322,-47 322,-28 187,-28"/>
<text text-anchor="middle" x="254.5" y="-35" font-family="Helvetica,sans-Serif" font-size="10.00">ACarlaRecorder::AddEvent</text>
</a>
</g>
</g>
<!-- Node1&#45;&gt;Node2 -->
<g id="edge1" class="edge"><title>Node1&#45;&gt;Node2</title>
<path fill="none" stroke="midnightblue" d="M161.157,-37.5C169.802,-37.5 178.497,-37.5 186.909,-37.5"/>
<polygon fill="midnightblue" stroke="midnightblue" points="161.051,-34.0001 151.051,-37.5 161.051,-41.0001 161.051,-34.0001"/>
</g>
<!-- Node3 -->
<g id="node3" class="node"><title>Node3</title>
<g id="a_node3"><a xlink:href="../../dc/d84/classUCarlaEpisode.html#ae77f6a5502448d47ee01881265c22335" target="_top" xlink:title="Attach Child to Parent. ">
<polygon fill="white" stroke="black" points="555,-50 555,-69 701,-69 701,-50 555,-50"/>
<text text-anchor="middle" x="628" y="-57" font-family="Helvetica,sans-Serif" font-size="10.00">UCarlaEpisode::AttachActors</text>
</a>
</g>
</g>
<!-- Node2&#45;&gt;Node3 -->
<g id="edge2" class="edge"><title>Node2&#45;&gt;Node3</title>
<path fill="none" stroke="midnightblue" d="M332.594,-42.0655C397.985,-45.9379 491.083,-51.4511 554.984,-55.2353"/>
<polygon fill="midnightblue" stroke="midnightblue" points="332.535,-38.5559 322.346,-41.4586 332.121,-45.5437 332.535,-38.5559"/>
</g>
<!-- Node6 -->
<g id="node6" class="node"><title>Node6</title>
<g id="a_node6"><a xlink:href="../../dd/db9/classACarlaRecorder.html#acdf4f82056d66973371c281304a3a154" target="_top" xlink:title="ACarlaRecorder::CreateRecorder\lEventAdd">
<polygon fill="white" stroke="black" points="358,-0.5 358,-30.5 519,-30.5 519,-0.5 358,-0.5"/>
<text text-anchor="start" x="366" y="-18.5" font-family="Helvetica,sans-Serif" font-size="10.00">ACarlaRecorder::CreateRecorder</text>
<text text-anchor="middle" x="438.5" y="-7.5" font-family="Helvetica,sans-Serif" font-size="10.00">EventAdd</text>
</a>
</g>
</g>
<!-- Node2&#45;&gt;Node6 -->
<g id="edge5" class="edge"><title>Node2&#45;&gt;Node6</title>
<path fill="none" stroke="midnightblue" d="M332.387,-28.2059C340.793,-27.1899 349.362,-26.154 357.8,-25.134"/>
<polygon fill="midnightblue" stroke="midnightblue" points="331.744,-24.7581 322.237,-29.4329 332.584,-31.7075 331.744,-24.7581"/>
</g>
<!-- Node4 -->
<g id="node4" class="node"><title>Node4</title>
<g id="a_node4"><a xlink:href="../../d7/d97/classFCarlaServer_1_1FPimpl.html#a675a6b572112a21e8bc011dddfd0de86" target="_top" xlink:title="FCarlaServer::FPimpl\l::BindActions">
<polygon fill="white" stroke="black" points="1071,-23.5 1071,-53.5 1182,-53.5 1182,-23.5 1071,-23.5"/>
<text text-anchor="start" x="1079" y="-41.5" font-family="Helvetica,sans-Serif" font-size="10.00">FCarlaServer::FPimpl</text>
<text text-anchor="middle" x="1126.5" y="-30.5" font-family="Helvetica,sans-Serif" font-size="10.00">::BindActions</text>
</a>
</g>
</g>
<!-- Node3&#45;&gt;Node4 -->
<g id="edge3" class="edge"><title>Node3&#45;&gt;Node4</title>
<path fill="none" stroke="midnightblue" d="M711.443,-56.013C813.325,-51.7038 983.846,-44.4914 1070.84,-40.8118"/>
<polygon fill="midnightblue" stroke="midnightblue" points="711.038,-52.5269 701.195,-56.4464 711.334,-59.5206 711.038,-52.5269"/>
</g>
<!-- Node5 -->
<g id="node5" class="node"><title>Node5</title>
<g id="a_node5"><a xlink:href="../../d7/d97/classFCarlaServer_1_1FPimpl.html#a5521999cb8b42460143ad4b1cd869398" target="_top" xlink:title="FCarlaServer::FPimpl\l::FPimpl">
<polygon fill="white" stroke="black" points="1218,-23.5 1218,-53.5 1329,-53.5 1329,-23.5 1218,-23.5"/>
<text text-anchor="start" x="1226" y="-41.5" font-family="Helvetica,sans-Serif" font-size="10.00">FCarlaServer::FPimpl</text>
<text text-anchor="middle" x="1273.5" y="-30.5" font-family="Helvetica,sans-Serif" font-size="10.00">::FPimpl</text>
</a>
</g>
</g>
<!-- Node4&#45;&gt;Node5 -->
<g id="edge4" class="edge"><title>Node4&#45;&gt;Node5</title>
<path fill="none" stroke="midnightblue" d="M1192.46,-38.5C1200.86,-38.5 1209.39,-38.5 1217.6,-38.5"/>
<polygon fill="midnightblue" stroke="midnightblue" points="1192.32,-35.0001 1182.32,-38.5 1192.32,-42.0001 1192.32,-35.0001"/>
</g>
<!-- Node7 -->
<g id="node7" class="node"><title>Node7</title>
<g id="a_node7"><a xlink:href="../../dd/db9/classACarlaRecorder.html#a820569404a522e28f6c4d3d638712214" target="_top" xlink:title="ACarlaRecorder::AddExisting\lActors">
<polygon fill="white" stroke="black" points="555.5,-0.5 555.5,-30.5 700.5,-30.5 700.5,-0.5 555.5,-0.5"/>
<text text-anchor="start" x="563.5" y="-18.5" font-family="Helvetica,sans-Serif" font-size="10.00">ACarlaRecorder::AddExisting</text>
<text text-anchor="middle" x="628" y="-7.5" font-family="Helvetica,sans-Serif" font-size="10.00">Actors</text>
</a>
</g>
</g>
<!-- Node6&#45;&gt;Node7 -->
<g id="edge6" class="edge"><title>Node6&#45;&gt;Node7</title>
<path fill="none" stroke="midnightblue" d="M529.265,-15.5C538.029,-15.5 546.839,-15.5 555.389,-15.5"/>
<polygon fill="midnightblue" stroke="midnightblue" points="529.017,-12.0001 519.017,-15.5 529.017,-19.0001 529.017,-12.0001"/>
</g>
<!-- Node8 -->
<g id="node8" class="node"><title>Node8</title>
<g id="a_node8"><a xlink:href="../../dd/db9/classACarlaRecorder.html#a7e65ace2743fdb8e3a21cec33857af76" target="_top" xlink:title="ACarlaRecorder::Start">
<polygon fill="white" stroke="black" points="737,-9 737,-28 850,-28 850,-9 737,-9"/>
<text text-anchor="middle" x="793.5" y="-16" font-family="Helvetica,sans-Serif" font-size="10.00">ACarlaRecorder::Start</text>
</a>
</g>
</g>
<!-- Node7&#45;&gt;Node8 -->
<g id="edge7" class="edge"><title>Node7&#45;&gt;Node8</title>
<path fill="none" stroke="midnightblue" d="M710.895,-17.0027C719.587,-17.1621 728.277,-17.3216 736.572,-17.4738"/>
<polygon fill="midnightblue" stroke="midnightblue" points="710.776,-13.5 700.713,-16.8158 710.648,-20.4988 710.776,-13.5"/>
</g>
<!-- Node9 -->
<g id="node9" class="node"><title>Node9</title>
<g id="a_node9"><a xlink:href="../../dc/d84/classUCarlaEpisode.html#a74547d3e3536fe8d1b30b1db8e1c7704" target="_top" xlink:title="UCarlaEpisode::StartRecorder">
<polygon fill="white" stroke="black" points="886,-10 886,-29 1035,-29 1035,-10 886,-10"/>
<text text-anchor="middle" x="960.5" y="-17" font-family="Helvetica,sans-Serif" font-size="10.00">UCarlaEpisode::StartRecorder</text>
</a>
</g>
</g>
<!-- Node8&#45;&gt;Node9 -->
<g id="edge8" class="edge"><title>Node8&#45;&gt;Node9</title>
<path fill="none" stroke="midnightblue" d="M860.419,-18.8995C868.781,-18.9502 877.379,-19.0023 885.852,-19.0536"/>
<polygon fill="midnightblue" stroke="midnightblue" points="860.383,-15.3993 850.361,-18.8386 860.34,-22.3992 860.383,-15.3993"/>
</g>
<!-- Node9&#45;&gt;Node4 -->
<g id="edge9" class="edge"><title>Node9&#45;&gt;Node4</title>
<path fill="none" stroke="midnightblue" d="M1045.42,-29.2224C1054.01,-30.2176 1062.57,-31.2097 1070.73,-32.1547"/>
<polygon fill="midnightblue" stroke="midnightblue" points="1045.68,-25.7293 1035.34,-28.0551 1044.87,-32.6828 1045.68,-25.7293"/>
</g>
</g>
</svg>
