<?xml version="1.0" encoding="UTF-8" standalone="no"?>
<!DOCTYPE svg PUBLIC "-//W3C//DTD SVG 1.1//EN"
 "http://www.w3.org/Graphics/SVG/1.1/DTD/svg11.dtd">
<!-- Generated by graphviz version 2.38.0 (20140413.2041)
 -->
<!-- Title: convert_buffer_latin1 Pages: 1 -->
<svg width="1422pt" height="276pt"
 viewBox="0.00 0.00 1422.00 276.00" xmlns="http://www.w3.org/2000/svg" xmlns:xlink="http://www.w3.org/1999/xlink">
<g id="graph0" class="graph" transform="scale(1 1) rotate(0) translate(4 272)">
<title>convert_buffer_latin1</title>
<polygon fill="white" stroke="none" points="-4,4 -4,-272 1418,-272 1418,4 -4,4"/>
<!-- Node1 -->
<g id="node1" class="node"><title>Node1</title>
<polygon fill="#bfbfbf" stroke="black" points="0,-166 0,-185 107,-185 107,-166 0,-166"/>
<text text-anchor="middle" x="53.5" y="-173" font-family="Helvetica,sans-Serif" font-size="10.00">convert_buffer_latin1</text>
</g>
<!-- Node2 -->
<g id="node2" class="node"><title>Node2</title>
<g id="a_node2"><a xlink:href="../../db/d20/pugixml_8cpp.html#a307f5fbb9d87b5938c0b442458185ca6" target="_top" xlink:title="convert_buffer">
<polygon fill="white" stroke="black" points="143,-147 143,-166 222,-166 222,-147 143,-147"/>
<text text-anchor="middle" x="182.5" y="-154" font-family="Helvetica,sans-Serif" font-size="10.00">convert_buffer</text>
</a>
</g>
</g>
<!-- Node1&#45;&gt;Node2 -->
<g id="edge1" class="edge"><title>Node1&#45;&gt;Node2</title>
<path fill="none" stroke="midnightblue" d="M117.345,-166.098C125.979,-164.806 134.628,-163.512 142.656,-162.311"/>
<polygon fill="midnightblue" stroke="midnightblue" points="116.628,-162.666 107.256,-167.607 117.664,-169.589 116.628,-162.666"/>
</g>
<!-- Node3 -->
<g id="node3" class="node"><title>Node3</title>
<g id="a_node3"><a xlink:href="../../db/d20/pugixml_8cpp.html#a23609126eff5820342411bf83b280225" target="_top" xlink:title="get_mutable_buffer">
<polygon fill="white" stroke="black" points="258,-166 258,-185 358,-185 358,-166 258,-166"/>
<text text-anchor="middle" x="308" y="-173" font-family="Helvetica,sans-Serif" font-size="10.00">get_mutable_buffer</text>
</a>
</g>
</g>
<!-- Node2&#45;&gt;Node3 -->
<g id="edge2" class="edge"><title>Node2&#45;&gt;Node3</title>
<path fill="none" stroke="midnightblue" d="M232.42,-157.407C249.121,-159.631 267.132,-162.74 281.27,-165.939"/>
<polygon fill="midnightblue" stroke="midnightblue" points="232.592,-153.902 222.237,-156.145 231.731,-160.849 232.592,-153.902"/>
</g>
<!-- Node4 -->
<g id="node4" class="node"><title>Node4</title>
<g id="a_node4"><a xlink:href="../../db/d20/pugixml_8cpp.html#a0d9bcb567b8ceb20206147857f03c187" target="_top" xlink:title="load_buffer_impl">
<polygon fill="white" stroke="black" points="264,-128 264,-147 352,-147 352,-128 264,-128"/>
<text text-anchor="middle" x="308" y="-135" font-family="Helvetica,sans-Serif" font-size="10.00">load_buffer_impl</text>
</a>
</g>
</g>
<!-- Node2&#45;&gt;Node4 -->
<g id="edge5" class="edge"><title>Node2&#45;&gt;Node4</title>
<path fill="none" stroke="midnightblue" d="M232.365,-148.982C242.706,-147.391 253.552,-145.723 263.672,-144.166"/>
<polygon fill="midnightblue" stroke="midnightblue" points="231.589,-145.56 222.237,-150.54 232.653,-152.479 231.589,-145.56"/>
</g>
<!-- Node3&#45;&gt;Node1 -->
<g id="edge3" class="edge"><title>Node3&#45;&gt;Node1</title>
<path fill="none" stroke="midnightblue" d="M247.639,-175.5C205.025,-175.5 148.116,-175.5 107.125,-175.5"/>
<polygon fill="midnightblue" stroke="midnightblue" points="247.871,-179 257.871,-175.5 247.871,-172 247.871,-179"/>
</g>
<!-- Node3&#45;&gt;Node2 -->
<g id="edge4" class="edge"><title>Node3&#45;&gt;Node2</title>
<path fill="none" stroke="midnightblue" d="M248.067,-173.177C234.356,-171.129 220.46,-168.607 209.089,-166.03"/>
<polygon fill="midnightblue" stroke="midnightblue" points="247.587,-176.644 257.979,-174.579 248.568,-169.713 247.587,-176.644"/>
</g>
<!-- Node5 -->
<g id="node5" class="node"><title>Node5</title>
<g id="a_node5"><a xlink:href="../../db/d20/pugixml_8cpp.html#ae84338a5107019d1ae2a491168dad821" target="_top" xlink:title="load_file_impl">
<polygon fill="white" stroke="black" points="421,-238 421,-257 497,-257 497,-238 421,-238"/>
<text text-anchor="middle" x="459" y="-245" font-family="Helvetica,sans-Serif" font-size="10.00">load_file_impl</text>
</a>
</g>
</g>
<!-- Node4&#45;&gt;Node5 -->
<g id="edge6" class="edge"><title>Node4&#45;&gt;Node5</title>
<path fill="none" stroke="midnightblue" d="M352.4,-152.184C354.378,-153.507 356.26,-154.943 358,-156.5 383.777,-179.564 367.78,-202.94 394,-225.5 401.659,-232.09 411.395,-236.735 420.948,-239.999"/>
<polygon fill="midnightblue" stroke="midnightblue" points="353.691,-148.897 343.254,-147.079 350.279,-155.009 353.691,-148.897"/>
</g>
<!-- Node8 -->
<g id="node8" class="node"><title>Node8</title>
<g id="a_node8"><a xlink:href="../../db/d20/pugixml_8cpp.html#a9a1f27967fef419fecd466f904c165e0" target="_top" xlink:title="load_stream_impl">
<polygon fill="white" stroke="black" points="412.5,-197 412.5,-216 505.5,-216 505.5,-197 412.5,-197"/>
<text text-anchor="middle" x="459" y="-204" font-family="Helvetica,sans-Serif" font-size="10.00">load_stream_impl</text>
</a>
</g>
</g>
<!-- Node4&#45;&gt;Node8 -->
<g id="edge9" class="edge"><title>Node4&#45;&gt;Node8</title>
<path fill="none" stroke="midnightblue" d="M347.868,-151.133C351.371,-152.788 354.8,-154.58 358,-156.5 376.106,-167.363 375.468,-177.382 394,-187.5 400.918,-191.277 408.676,-194.388 416.34,-196.92"/>
<polygon fill="midnightblue" stroke="midnightblue" points="349.098,-147.851 338.532,-147.076 346.308,-154.271 349.098,-147.851"/>
</g>
<!-- Node10 -->
<g id="node10" class="node"><title>Node10</title>
<g id="a_node10"><a xlink:href="../../db/d65/classpugi_1_1xml__node.html#a7e0126c503dcfba5111121ec4a94c11e" target="_top" xlink:title="pugi::xml_node::append\l_buffer">
<polygon fill="white" stroke="black" points="399,-147.5 399,-177.5 519,-177.5 519,-147.5 399,-147.5"/>
<text text-anchor="start" x="407" y="-165.5" font-family="Helvetica,sans-Serif" font-size="10.00">pugi::xml_node::append</text>
<text text-anchor="middle" x="459" y="-154.5" font-family="Helvetica,sans-Serif" font-size="10.00">_buffer</text>
</a>
</g>
</g>
<!-- Node4&#45;&gt;Node10 -->
<g id="edge11" class="edge"><title>Node4&#45;&gt;Node10</title>
<path fill="none" stroke="midnightblue" d="M362.298,-146.443C374.174,-148.435 386.834,-150.559 398.927,-152.588"/>
<polygon fill="midnightblue" stroke="midnightblue" points="362.538,-142.934 352.097,-144.731 361.38,-149.838 362.538,-142.934"/>
</g>
<!-- Node11 -->
<g id="node11" class="node"><title>Node11</title>
<g id="a_node11"><a xlink:href="../../d8/d8d/classpugi_1_1xml__document.html#ab29840790e26b2166a395c63a2b2d9bd" target="_top" xlink:title="pugi::xml_document\l::load_buffer">
<polygon fill="white" stroke="black" points="407,-98.5 407,-128.5 511,-128.5 511,-98.5 407,-98.5"/>
<text text-anchor="start" x="415" y="-116.5" font-family="Helvetica,sans-Serif" font-size="10.00">pugi::xml_document</text>
<text text-anchor="middle" x="459" y="-105.5" font-family="Helvetica,sans-Serif" font-size="10.00">::load_buffer</text>
</a>
</g>
</g>
<!-- Node4&#45;&gt;Node11 -->
<g id="edge12" class="edge"><title>Node4&#45;&gt;Node11</title>
<path fill="none" stroke="midnightblue" d="M361.972,-128.968C376.558,-126.618 392.349,-124.075 406.832,-121.742"/>
<polygon fill="midnightblue" stroke="midnightblue" points="361.413,-125.512 352.097,-130.558 362.526,-132.423 361.413,-125.512"/>
</g>
<!-- Node21 -->
<g id="node21" class="node"><title>Node21</title>
<g id="a_node21"><a xlink:href="../../d8/d8d/classpugi_1_1xml__document.html#a3e20650182ccbdd175ca069dd5e08632" target="_top" xlink:title="pugi::xml_document\l::load_buffer_inplace">
<polygon fill="white" stroke="black" points="405.5,-49.5 405.5,-79.5 512.5,-79.5 512.5,-49.5 405.5,-49.5"/>
<text text-anchor="start" x="413.5" y="-67.5" font-family="Helvetica,sans-Serif" font-size="10.00">pugi::xml_document</text>
<text text-anchor="middle" x="459" y="-56.5" font-family="Helvetica,sans-Serif" font-size="10.00">::load_buffer_inplace</text>
</a>
</g>
</g>
<!-- Node4&#45;&gt;Node21 -->
<g id="edge22" class="edge"><title>Node4&#45;&gt;Node21</title>
<path fill="none" stroke="midnightblue" d="M332.927,-122.781C349.698,-112.766 372.815,-99.5571 394,-89.5 401.328,-86.0213 409.278,-82.6267 417.004,-79.517"/>
<polygon fill="midnightblue" stroke="midnightblue" points="331.07,-119.814 324.315,-127.976 334.686,-125.808 331.07,-119.814"/>
</g>
<!-- Node22 -->
<g id="node22" class="node"><title>Node22</title>
<g id="a_node22"><a xlink:href="../../d8/d8d/classpugi_1_1xml__document.html#a9da4bdcdc4ad914fb0f4680b02983502" target="_top" xlink:title="pugi::xml_document\l::load_buffer_inplace_own">
<polygon fill="white" stroke="black" points="394,-0.5 394,-30.5 524,-30.5 524,-0.5 394,-0.5"/>
<text text-anchor="start" x="402" y="-18.5" font-family="Helvetica,sans-Serif" font-size="10.00">pugi::xml_document</text>
<text text-anchor="middle" x="459" y="-7.5" font-family="Helvetica,sans-Serif" font-size="10.00">::load_buffer_inplace_own</text>
</a>
</g>
</g>
<!-- Node4&#45;&gt;Node22 -->
<g id="edge23" class="edge"><title>Node4&#45;&gt;Node22</title>
<path fill="none" stroke="midnightblue" d="M320.725,-119.099C335.439,-97.3428 362.589,-61.3389 394,-39.5 398.872,-36.1129 404.282,-33.1334 409.834,-30.5315"/>
<polygon fill="midnightblue" stroke="midnightblue" points="317.618,-117.454 315.036,-127.729 323.462,-121.306 317.618,-117.454"/>
</g>
<!-- Node6 -->
<g id="node6" class="node"><title>Node6</title>
<g id="a_node6"><a xlink:href="../../d8/d8d/classpugi_1_1xml__document.html#aad350209a4a91589fbd7e8cdaf79e010" target="_top" xlink:title="pugi::xml_document\l::load_file">
<polygon fill="white" stroke="black" points="560,-237.5 560,-267.5 664,-267.5 664,-237.5 560,-237.5"/>
<text text-anchor="start" x="568" y="-255.5" font-family="Helvetica,sans-Serif" font-size="10.00">pugi::xml_document</text>
<text text-anchor="middle" x="612" y="-244.5" font-family="Helvetica,sans-Serif" font-size="10.00">::load_file</text>
</a>
</g>
</g>
<!-- Node5&#45;&gt;Node6 -->
<g id="edge7" class="edge"><title>Node5&#45;&gt;Node6</title>
<path fill="none" stroke="midnightblue" d="M507.4,-249.07C524.079,-249.622 542.892,-250.245 559.865,-250.807"/>
<polygon fill="midnightblue" stroke="midnightblue" points="507.436,-245.569 497.326,-248.736 507.205,-252.565 507.436,-245.569"/>
</g>
<!-- Node7 -->
<g id="node7" class="node"><title>Node7</title>
<g id="a_node7"><a xlink:href="../../d1/dc0/test__opendrive_8cpp.html#ad3c77eb93e568426e72ddb84a31031a7" target="_top" xlink:title="TEST">
<polygon fill="white" stroke="black" points="748,-243 748,-262 790,-262 790,-243 748,-243"/>
<text text-anchor="middle" x="769" y="-250" font-family="Helvetica,sans-Serif" font-size="10.00">TEST</text>
</a>
</g>
</g>
<!-- Node6&#45;&gt;Node7 -->
<g id="edge8" class="edge"><title>Node6&#45;&gt;Node7</title>
<path fill="none" stroke="midnightblue" d="M674.42,-252.5C700.541,-252.5 729.211,-252.5 747.843,-252.5"/>
<polygon fill="midnightblue" stroke="midnightblue" points="674.182,-249 664.182,-252.5 674.182,-256 674.182,-249"/>
</g>
<!-- Node9 -->
<g id="node9" class="node"><title>Node9</title>
<g id="a_node9"><a xlink:href="../../d8/d8d/classpugi_1_1xml__document.html#abb7db3882f94ac35b870510789a87778" target="_top" xlink:title="pugi::xml_document\l::load">
<polygon fill="white" stroke="black" points="560,-188.5 560,-218.5 664,-218.5 664,-188.5 560,-188.5"/>
<text text-anchor="start" x="568" y="-206.5" font-family="Helvetica,sans-Serif" font-size="10.00">pugi::xml_document</text>
<text text-anchor="middle" x="612" y="-195.5" font-family="Helvetica,sans-Serif" font-size="10.00">::load</text>
</a>
</g>
</g>
<!-- Node8&#45;&gt;Node9 -->
<g id="edge10" class="edge"><title>Node8&#45;&gt;Node9</title>
<path fill="none" stroke="midnightblue" d="M515.979,-205.388C530.368,-205.102 545.772,-204.796 559.899,-204.515"/>
<polygon fill="midnightblue" stroke="midnightblue" points="515.643,-201.894 505.715,-205.592 515.782,-208.892 515.643,-201.894"/>
</g>
<!-- Node12 -->
<g id="node12" class="node"><title>Node12</title>
<g id="a_node12"><a xlink:href="../../d8/d8d/classpugi_1_1xml__document.html#a706a276ee3d5010f2bb8c7eacb75a891" target="_top" xlink:title="pugi::xml_document\l::load_string">
<polygon fill="white" stroke="black" points="560,-98.5 560,-128.5 664,-128.5 664,-98.5 560,-98.5"/>
<text text-anchor="start" x="568" y="-116.5" font-family="Helvetica,sans-Serif" font-size="10.00">pugi::xml_document</text>
<text text-anchor="middle" x="612" y="-105.5" font-family="Helvetica,sans-Serif" font-size="10.00">::load_string</text>
</a>
</g>
</g>
<!-- Node11&#45;&gt;Node12 -->
<g id="edge13" class="edge"><title>Node11&#45;&gt;Node12</title>
<path fill="none" stroke="midnightblue" d="M521.266,-113.5C534.104,-113.5 547.512,-113.5 559.931,-113.5"/>
<polygon fill="midnightblue" stroke="midnightblue" points="521.122,-110 511.122,-113.5 521.122,-117 521.122,-110"/>
</g>
<!-- Node13 -->
<g id="node13" class="node"><title>Node13</title>
<g id="a_node13"><a xlink:href="../../de/d5a/classcarla_1_1opendrive_1_1OpenDriveParser.html#a599fd6174f30aaee59590c16503afd8a" target="_top" xlink:title="carla::opendrive::OpenDrive\lParser::Load">
<polygon fill="white" stroke="black" points="700,-123.5 700,-153.5 838,-153.5 838,-123.5 700,-123.5"/>
<text text-anchor="start" x="708" y="-141.5" font-family="Helvetica,sans-Serif" font-size="10.00">carla::opendrive::OpenDrive</text>
<text text-anchor="middle" x="769" y="-130.5" font-family="Helvetica,sans-Serif" font-size="10.00">Parser::Load</text>
</a>
</g>
</g>
<!-- Node12&#45;&gt;Node13 -->
<g id="edge14" class="edge"><title>Node12&#45;&gt;Node13</title>
<path fill="none" stroke="midnightblue" d="M674.234,-123.376C682.605,-124.727 691.242,-126.12 699.728,-127.488"/>
<polygon fill="midnightblue" stroke="midnightblue" points="674.612,-119.892 664.182,-121.755 673.497,-126.803 674.612,-119.892"/>
</g>
<!-- Node20 -->
<g id="node20" class="node"><title>Node20</title>
<g id="a_node20"><a xlink:href="../../d8/d8d/classpugi_1_1xml__document.html#ae17a77772fa21a40f3d91d9c79e60d0b" target="_top" xlink:title="pugi::xml_document\l::load">
<polygon fill="white" stroke="black" points="717,-74.5 717,-104.5 821,-104.5 821,-74.5 717,-74.5"/>
<text text-anchor="start" x="725" y="-92.5" font-family="Helvetica,sans-Serif" font-size="10.00">pugi::xml_document</text>
<text text-anchor="middle" x="769" y="-81.5" font-family="Helvetica,sans-Serif" font-size="10.00">::load</text>
</a>
</g>
</g>
<!-- Node12&#45;&gt;Node20 -->
<g id="edge21" class="edge"><title>Node12&#45;&gt;Node20</title>
<path fill="none" stroke="midnightblue" d="M674.292,-104.01C688.396,-101.826 703.251,-99.5257 716.871,-97.4167"/>
<polygon fill="midnightblue" stroke="midnightblue" points="673.529,-100.586 664.182,-105.575 674.6,-107.504 673.529,-100.586"/>
</g>
<!-- Node14 -->
<g id="node14" class="node"><title>Node14</title>
<g id="a_node14"><a xlink:href="../../db/de5/classACarlaGameModeBase.html#a5caddc59713354578997de90542ddd93" target="_top" xlink:title="ACarlaGameModeBase\l::InitGame">
<polygon fill="white" stroke="black" points="890.5,-186.5 890.5,-216.5 1009.5,-216.5 1009.5,-186.5 890.5,-186.5"/>
<text text-anchor="start" x="898.5" y="-204.5" font-family="Helvetica,sans-Serif" font-size="10.00">ACarlaGameModeBase</text>
<text text-anchor="middle" x="950" y="-193.5" font-family="Helvetica,sans-Serif" font-size="10.00">::InitGame</text>
</a>
</g>
</g>
<!-- Node13&#45;&gt;Node14 -->
<g id="edge15" class="edge"><title>Node13&#45;&gt;Node14</title>
<path fill="none" stroke="midnightblue" d="M820.166,-157.158C837.214,-163.411 856.402,-170.353 874,-176.5 883.329,-179.759 893.344,-183.162 902.92,-186.37"/>
<polygon fill="midnightblue" stroke="midnightblue" points="820.997,-153.734 810.403,-153.567 818.58,-160.304 820.997,-153.734"/>
</g>
<!-- Node15 -->
<g id="node15" class="node"><title>Node15</title>
<g id="a_node15"><a xlink:href="../../d2/daf/namespacecarla_1_1client.html#a228b83c6429f8e3406a93a1b41eb1565" target="_top" xlink:title="carla::client::MakeMap">
<polygon fill="white" stroke="black" points="892,-148 892,-167 1008,-167 1008,-148 892,-148"/>
<text text-anchor="middle" x="950" y="-155" font-family="Helvetica,sans-Serif" font-size="10.00">carla::client::MakeMap</text>
</a>
</g>
</g>
<!-- Node13&#45;&gt;Node15 -->
<g id="edge16" class="edge"><title>Node13&#45;&gt;Node15</title>
<path fill="none" stroke="midnightblue" d="M848.235,-146.804C862.878,-148.359 877.93,-149.956 891.789,-151.427"/>
<polygon fill="midnightblue" stroke="midnightblue" points="848.496,-143.312 838.183,-145.737 847.758,-150.273 848.496,-143.312"/>
</g>
<!-- Node16 -->
<g id="node16" class="node"><title>Node16</title>
<g id="a_node16"><a xlink:href="../../d0/d2d/classAOpenDriveActor.html#ac8678af2b371c3a3faca8775ab1e4816" target="_top" xlink:title="AOpenDriveActor::BuildRoutes">
<polygon fill="white" stroke="black" points="874,-110 874,-129 1026,-129 1026,-110 874,-110"/>
<text text-anchor="middle" x="950" y="-117" font-family="Helvetica,sans-Serif" font-size="10.00">AOpenDriveActor::BuildRoutes</text>
</a>
</g>
</g>
<!-- Node13&#45;&gt;Node16 -->
<g id="edge17" class="edge"><title>Node13&#45;&gt;Node16</title>
<path fill="none" stroke="midnightblue" d="M848.401,-130.178C856.849,-129.281 865.431,-128.37 873.84,-127.478"/>
<polygon fill="midnightblue" stroke="midnightblue" points="847.758,-126.727 838.183,-131.263 848.496,-133.688 847.758,-126.727"/>
</g>
<!-- Node17 -->
<g id="node17" class="node"><title>Node17</title>
<g id="a_node17"><a xlink:href="../../d8/dfe/classUOpenDriveMap.html#a0ce422ee1f79211e6957bab1d2048348" target="_top" xlink:title="Load this map with an OpenDrive (XODR) file. ">
<polygon fill="white" stroke="black" points="892,-72 892,-91 1008,-91 1008,-72 892,-72"/>
<text text-anchor="middle" x="950" y="-79" font-family="Helvetica,sans-Serif" font-size="10.00">UOpenDriveMap::Load</text>
</a>
</g>
</g>
<!-- Node13&#45;&gt;Node17 -->
<g id="edge18" class="edge"><title>Node13&#45;&gt;Node17</title>
<path fill="none" stroke="midnightblue" d="M822.981,-119.984C828.065,-118.152 833.136,-116.304 838,-114.5 854.096,-108.531 857.648,-105.729 874,-100.5 884.747,-97.0634 896.516,-93.8364 907.48,-91.0514"/>
<polygon fill="midnightblue" stroke="midnightblue" points="821.477,-116.805 813.241,-123.469 823.836,-123.395 821.477,-116.805"/>
</g>
<!-- Node18 -->
<g id="node18" class="node"><title>Node18</title>
<g id="a_node18"><a xlink:href="../../d1/d1b/classUOpenDrive.html#ac05b8dc3f340e373582945f9215081d9" target="_top" xlink:title="Load OpenDriveMap associated to the given MapName. ">
<polygon fill="white" stroke="black" points="1062,-72 1062,-91 1225,-91 1225,-72 1062,-72"/>
<text text-anchor="middle" x="1143.5" y="-79" font-family="Helvetica,sans-Serif" font-size="10.00">UOpenDrive::LoadOpenDriveMap</text>
</a>
</g>
</g>
<!-- Node17&#45;&gt;Node18 -->
<g id="edge19" class="edge"><title>Node17&#45;&gt;Node18</title>
<path fill="none" stroke="midnightblue" d="M1018.28,-81.5C1032.37,-81.5 1047.36,-81.5 1061.88,-81.5"/>
<polygon fill="midnightblue" stroke="midnightblue" points="1018.2,-78.0001 1008.2,-81.5 1018.2,-85.0001 1018.2,-78.0001"/>
</g>
<!-- Node19 -->
<g id="node19" class="node"><title>Node19</title>
<g id="a_node19"><a xlink:href="../../d1/d1b/classUOpenDrive.html#a4486c7ee9d4a8bf6cd2a7ca5ad7e4ece" target="_top" xlink:title="Load OpenDriveMap associated to the currently loaded map. ">
<polygon fill="white" stroke="black" points="1261,-66.5 1261,-96.5 1414,-96.5 1414,-66.5 1261,-66.5"/>
<text text-anchor="start" x="1269" y="-84.5" font-family="Helvetica,sans-Serif" font-size="10.00">UOpenDrive::LoadCurrentOpen</text>
<text text-anchor="middle" x="1337.5" y="-73.5" font-family="Helvetica,sans-Serif" font-size="10.00">DriveMap</text>
</a>
</g>
</g>
<!-- Node18&#45;&gt;Node19 -->
<g id="edge20" class="edge"><title>Node18&#45;&gt;Node19</title>
<path fill="none" stroke="midnightblue" d="M1235.11,-81.5C1243.68,-81.5 1252.3,-81.5 1260.71,-81.5"/>
<polygon fill="midnightblue" stroke="midnightblue" points="1235.09,-78.0001 1225.09,-81.5 1235.09,-85.0001 1235.09,-78.0001"/>
</g>
</g>
</svg>
