<?xml version="1.0" encoding="UTF-8" standalone="no"?>
<!DOCTYPE svg PUBLIC "-//W3C//DTD SVG 1.1//EN"
 "http://www.w3.org/Graphics/SVG/1.1/DTD/svg11.dtd">
<!-- Generated by graphviz version 2.40.1 (20161225.0304)
 -->
<!-- Title: convert_buffer Pages: 1 -->
<svg width="710pt" height="140pt"
 viewBox="0.00 0.00 710.00 140.04" xmlns="http://www.w3.org/2000/svg" xmlns:xlink="http://www.w3.org/1999/xlink">
<g id="graph0" class="graph" transform="scale(1 1) rotate(0) translate(4 136.0384)">
<title>convert_buffer</title>
<polygon fill="#ffffff" stroke="transparent" points="-4,4 -4,-136.0384 706,-136.0384 706,4 -4,4"/>
<!-- Node180 -->
<g id="node1" class="node">
<title>Node180</title>
<polygon fill="#bfbfbf" stroke="#000000" points="0,-11.1195 0,-30.1195 87,-30.1195 87,-11.1195 0,-11.1195"/>
<text text-anchor="middle" x="43.5" y="-18.1195" font-family="Helvetica,sans-Serif" font-size="10.00" fill="#000000">convert_buffer</text>
</g>
<!-- Node181 -->
<g id="node2" class="node">
<title>Node181</title>
<g id="a_node2"><a xlink:href="../../db/d20/pugixml_8cpp.html#a23b4972626f6fbf738ccb6ce4f719e27" target="_top" xlink:title="convert_buffer_generic">
<polygon fill="#ffffff" stroke="#000000" points="447,-107.1195 447,-126.1195 575,-126.1195 575,-107.1195 447,-107.1195"/>
<text text-anchor="middle" x="511" y="-114.1195" font-family="Helvetica,sans-Serif" font-size="10.00" fill="#000000">convert_buffer_generic</text>
</a>
</g>
</g>
<!-- Node180&#45;&gt;Node181 -->
<g id="edge1" class="edge">
<title>Node180&#45;&gt;Node181</title>
<path fill="none" stroke="#191970" d="M52.3099,-30.2331C66.0325,-44.6298 93.9654,-71.6898 123,-86.6195 222.3943,-137.7281 355.3475,-135.3118 436.9853,-127.2041"/>
<polygon fill="#191970" stroke="#191970" points="437.5914,-130.6598 447.172,-126.1363 436.8616,-123.698 437.5914,-130.6598"/>
</g>
<!-- Node182 -->
<g id="node3" class="node">
<title>Node182</title>
<g id="a_node3"><a xlink:href="../../db/d20/pugixml_8cpp.html#aab8dd109bccbb59a8a2c3f5b638cd16a" target="_top" xlink:title="convert_buffer_latin1">
<polygon fill="#ffffff" stroke="#000000" points="123,-58.1195 123,-77.1195 243,-77.1195 243,-58.1195 123,-58.1195"/>
<text text-anchor="middle" x="183" y="-65.1195" font-family="Helvetica,sans-Serif" font-size="10.00" fill="#000000">convert_buffer_latin1</text>
</a>
</g>
</g>
<!-- Node180&#45;&gt;Node182 -->
<g id="edge2" class="edge">
<title>Node180&#45;&gt;Node182</title>
<path fill="none" stroke="#191970" d="M71.7299,-30.1306C92.7679,-37.2187 121.7292,-46.9763 144.8313,-54.7598"/>
<polygon fill="#191970" stroke="#191970" points="143.7392,-58.085 154.3333,-57.9611 145.9742,-51.4514 143.7392,-58.085"/>
</g>
<!-- Node184 -->
<g id="node5" class="node">
<title>Node184</title>
<g id="a_node5"><a xlink:href="../../db/d20/pugixml_8cpp.html#a23609126eff5820342411bf83b280225" target="_top" xlink:title="get_mutable_buffer">
<polygon fill="#ffffff" stroke="#000000" points="289,-11.1195 289,-30.1195 401,-30.1195 401,-11.1195 289,-11.1195"/>
<text text-anchor="middle" x="345" y="-18.1195" font-family="Helvetica,sans-Serif" font-size="10.00" fill="#000000">get_mutable_buffer</text>
</a>
</g>
</g>
<!-- Node180&#45;&gt;Node184 -->
<g id="edge11" class="edge">
<title>Node180&#45;&gt;Node184</title>
<path fill="none" stroke="#191970" d="M87.0187,-15.7051C137.247,-13.5572 220.4048,-13.2943 278.6956,-14.9163"/>
<polygon fill="#191970" stroke="#191970" points="278.8114,-18.4213 288.9138,-15.2288 279.0255,-11.4246 278.8114,-18.4213"/>
</g>
<!-- Node186 -->
<g id="node7" class="node">
<title>Node186</title>
<g id="a_node7"><a xlink:href="../../db/d20/pugixml_8cpp.html#a282e2854710450f313ea03bb59a8f681" target="_top" xlink:title="is_little_endian">
<polygon fill="#ffffff" stroke="#000000" points="611,-2.1195 611,-21.1195 702,-21.1195 702,-2.1195 611,-2.1195"/>
<text text-anchor="middle" x="656.5" y="-9.1195" font-family="Helvetica,sans-Serif" font-size="10.00" fill="#000000">is_little_endian</text>
</a>
</g>
</g>
<!-- Node180&#45;&gt;Node186 -->
<g id="edge12" class="edge">
<title>Node180&#45;&gt;Node186</title>
<path fill="none" stroke="#191970" d="M87.2739,-16.0273C134.5135,-11.3199 211.9895,-4.3183 279,-1.6195 393.3381,2.9854 527.2458,-3.3374 600.888,-7.8275"/>
<polygon fill="#191970" stroke="#191970" points="600.6732,-11.3208 610.871,-8.4476 601.1072,-4.3343 600.6732,-11.3208"/>
</g>
<!-- Node183 -->
<g id="node4" class="node">
<title>Node183</title>
<g id="a_node4"><a xlink:href="../../db/d20/pugixml_8cpp.html#a0c28347bb885f60693b5d594cfc3dbd5" target="_top" xlink:title="get_latin1_7bit_prefix\l_length">
<polygon fill="#ffffff" stroke="#000000" points="284,-87.6195 284,-117.6195 406,-117.6195 406,-87.6195 284,-87.6195"/>
<text text-anchor="start" x="292" y="-105.6195" font-family="Helvetica,sans-Serif" font-size="10.00" fill="#000000">get_latin1_7bit_prefix</text>
<text text-anchor="middle" x="345" y="-94.6195" font-family="Helvetica,sans-Serif" font-size="10.00" fill="#000000">_length</text>
</a>
</g>
</g>
<!-- Node182&#45;&gt;Node183 -->
<g id="edge3" class="edge">
<title>Node182&#45;&gt;Node183</title>
<path fill="none" stroke="#191970" d="M227.2672,-77.1834C241.6972,-80.3009 258.1004,-83.8449 273.9836,-87.2764"/>
<polygon fill="#191970" stroke="#191970" points="273.27,-90.7029 283.7836,-89.3937 274.7483,-83.8608 273.27,-90.7029"/>
</g>
<!-- Node182&#45;&gt;Node184 -->
<g id="edge4" class="edge">
<title>Node182&#45;&gt;Node184</title>
<path fill="none" stroke="#191970" d="M215.8706,-58.0014C234.4052,-52.5858 257.9893,-45.7078 279,-39.6195 286.4057,-37.4735 294.2812,-35.1994 301.9166,-32.9988"/>
<polygon fill="#191970" stroke="#191970" points="303.1153,-36.2959 311.7561,-30.1651 301.178,-29.5693 303.1153,-36.2959"/>
</g>
<!-- Node187 -->
<g id="node8" class="node">
<title>Node187</title>
<g id="a_node8"><a xlink:href="../../de/dcd/structlatin1__decoder.html#acf3e6f85693d539919dec3bfb9cee66f" target="_top" xlink:title="latin1_decoder::process">
<polygon fill="#ffffff" stroke="#000000" points="279,-49.1195 279,-68.1195 411,-68.1195 411,-49.1195 279,-49.1195"/>
<text text-anchor="middle" x="345" y="-56.1195" font-family="Helvetica,sans-Serif" font-size="10.00" fill="#000000">latin1_decoder::process</text>
</a>
</g>
</g>
<!-- Node182&#45;&gt;Node187 -->
<g id="edge10" class="edge">
<title>Node182&#45;&gt;Node187</title>
<path fill="none" stroke="#191970" d="M243.3228,-64.2682C251.6637,-63.8048 260.318,-63.324 268.8988,-62.8473"/>
<polygon fill="#191970" stroke="#191970" points="269.1245,-66.3403 278.9149,-62.2909 268.7361,-59.351 269.1245,-66.3403"/>
</g>
<!-- Node184&#45;&gt;Node180 -->
<g id="edge6" class="edge">
<title>Node184&#45;&gt;Node180</title>
<path fill="none" stroke="#191970" d="M288.9138,-26.0101C234.0456,-27.8508 151.0744,-27.8221 97.0817,-25.9241"/>
<polygon fill="#191970" stroke="#191970" points="97.1469,-22.4241 87.0187,-25.5338 96.8755,-29.4188 97.1469,-22.4241"/>
</g>
<!-- Node184&#45;&gt;Node181 -->
<g id="edge5" class="edge">
<title>Node184&#45;&gt;Node181</title>
<path fill="none" stroke="#191970" d="M387.514,-30.1503C395.5396,-32.6972 403.6994,-35.826 411,-39.6195 429.2314,-49.0926 430.7793,-56.0094 447,-68.6195 460.9412,-79.4574 476.8207,-91.3696 489.2745,-100.6158"/>
<polygon fill="#191970" stroke="#191970" points="487.5408,-103.687 497.6607,-106.8237 491.7057,-98.0608 487.5408,-103.687"/>
</g>
<!-- Node185 -->
<g id="node6" class="node">
<title>Node185</title>
<g id="a_node6"><a xlink:href="../../db/d20/pugixml_8cpp.html#a1d386e9425e75d35b01373e46f186b9c" target="_top" xlink:title="get_wchar_encoding">
<polygon fill="#ffffff" stroke="#000000" points="453,-40.1195 453,-59.1195 569,-59.1195 569,-40.1195 453,-40.1195"/>
<text text-anchor="middle" x="511" y="-47.1195" font-family="Helvetica,sans-Serif" font-size="10.00" fill="#000000">get_wchar_encoding</text>
</a>
</g>
</g>
<!-- Node184&#45;&gt;Node185 -->
<g id="edge7" class="edge">
<title>Node184&#45;&gt;Node185</title>
<path fill="none" stroke="#191970" d="M399.8147,-30.1955C414.7661,-32.8075 431.1021,-35.6614 446.5369,-38.3578"/>
<polygon fill="#191970" stroke="#191970" points="446.0728,-41.8297 456.526,-40.1029 447.2775,-34.9341 446.0728,-41.8297"/>
</g>
<!-- Node184&#45;&gt;Node186 -->
<g id="edge9" class="edge">
<title>Node184&#45;&gt;Node186</title>
<path fill="none" stroke="#191970" d="M401.0497,-19C457.4449,-17.3707 543.9261,-14.872 600.3552,-13.2416"/>
<polygon fill="#191970" stroke="#191970" points="600.6332,-16.7351 610.5279,-12.9477 600.431,-9.7381 600.6332,-16.7351"/>
</g>
<!-- Node185&#45;&gt;Node186 -->
<g id="edge8" class="edge">
<title>Node185&#45;&gt;Node186</title>
<path fill="none" stroke="#191970" d="M547.7158,-40.0305C566.6566,-35.0837 589.9572,-28.9983 610.1285,-23.7302"/>
<polygon fill="#191970" stroke="#191970" points="611.2572,-27.0529 620.0482,-21.1395 609.4883,-20.2801 611.2572,-27.0529"/>
</g>
</g>
</svg>
