<?xml version="1.0" encoding="UTF-8" standalone="no"?>
<!DOCTYPE svg PUBLIC "-//W3C//DTD SVG 1.1//EN"
 "http://www.w3.org/Graphics/SVG/1.1/DTD/svg11.dtd">
<!-- Generated by graphviz version 2.38.0 (20140413.2041)
 -->
<!-- Title: is_text_node Pages: 1 -->
<!--zoomable 619 -->
<svg id="main" version="1.1" xmlns="http://www.w3.org/2000/svg" xmlns:xlink="http://www.w3.org/1999/xlink" xml:space="preserve" onload="init(evt)">
<style type="text/css"><![CDATA[
.edge:hover path { stroke: red; }
.edge:hover polygon { stroke: red; fill: red; }
]]></style>
<script type="text/javascript"><![CDATA[
var edges = document.getElementsByTagName('g');
if (edges && edges.length) {
  for (var i=0;i<edges.length;i++) {
    if (edges[i].id.substr(0,4)=='edge') {
      edges[i].setAttribute('class','edge');
    }
  }
}
]]></script>
        <defs>
                <circle id="rim" cx="0" cy="0" r="7"/>
                <circle id="rim2" cx="0" cy="0" r="3.5"/>
                <g id="zoomPlus">
                        <use xlink:href="#rim" fill="#404040">
                                <set attributeName="fill" to="#808080" begin="zoomplus.mouseover" end="zoomplus.mouseout"/>
                        </use>
                        <path d="M-4,0h8M0,-4v8" fill="none" stroke="white" stroke-width="1.5" pointer-events="none"/>
                </g>
                <g id="zoomMin">
                        <use xlink:href="#rim" fill="#404040">
                                <set attributeName="fill" to="#808080" begin="zoomminus.mouseover" end="zoomminus.mouseout"/>
                        </use>
                        <path d="M-4,0h8" fill="none" stroke="white" stroke-width="1.5" pointer-events="none"/>
                </g>
                <g id="dirArrow">
                        <path fill="none" stroke="white" stroke-width="1.5" d="M0,-3.0v7 M-2.5,-0.5L0,-3.0L2.5,-0.5"/>
                </g>
               <g id="resetDef">
                       <use xlink:href="#rim2" fill="#404040">
                               <set attributeName="fill" to="#808080" begin="reset.mouseover" end="reset.mouseout"/>
                       </use>
               </g>
        </defs>

<script type="text/javascript">
var viewWidth = 1243;
var viewHeight = 619;
var sectionId = 'dynsection-101';
</script>
<script xlink:href="../../svgpan.js"/>
<svg id="graph" class="graph">
<g id="viewport">
<title>is_text_node</title>
<polygon fill="white" stroke="none" points="-4,4 -4,-614.5 1239,-614.5 1239,4 -4,4"/>
<!-- Node1 -->
<g id="node1" class="node"><title>Node1</title>
<polygon fill="#bfbfbf" stroke="black" points="0,-210 0,-229 77,-229 77,-210 0,-210"/>
<text text-anchor="middle" x="38.5" y="-217" font-family="Helvetica,sans-Serif" font-size="10.00">is_text_node</text>
</g>
<!-- Node2 -->
<g id="node2" class="node"><title>Node2</title>
<g id="a_node2"><a xlink:href="../../d6/dd6/classpugi_1_1xml__text.html#a1ebd50e1d52f0e6c4d0dfdaa63dd3dc4" target="_top" xlink:title="pugi::xml_text::_data">
<polygon fill="white" stroke="black" points="113,-339 113,-358 230,-358 230,-339 113,-339"/>
<text text-anchor="middle" x="171.5" y="-346" font-family="Helvetica,sans-Serif" font-size="10.00">pugi::xml_text::_data</text>
</a>
</g>
</g>
<!-- Node1&#45;&gt;Node2 -->
<g id="edge1" class="edge"><title>Node1&#45;&gt;Node2</title>
<path fill="none" stroke="midnightblue" d="M56.7604,-236.497C84.5497,-263.862 138.335,-316.826 160.539,-338.692"/>
<polygon fill="midnightblue" stroke="midnightblue" points="58.9273,-233.719 49.3463,-229.196 54.0158,-238.706 58.9273,-233.719"/>
</g>
<!-- Node17 -->
<g id="node17" class="node"><title>Node17</title>
<g id="a_node17"><a xlink:href="../../db/d65/classpugi_1_1xml__node.html#a1c824a58d4c591c0da8f5dc39938456f" target="_top" xlink:title="pugi::xml_node::child\l_value">
<polygon fill="white" stroke="black" points="113,-76.5 113,-106.5 230,-106.5 230,-76.5 113,-76.5"/>
<text text-anchor="start" x="121" y="-94.5" font-family="Helvetica,sans-Serif" font-size="10.00">pugi::xml_node::child</text>
<text text-anchor="middle" x="171.5" y="-83.5" font-family="Helvetica,sans-Serif" font-size="10.00">_value</text>
</a>
</g>
</g>
<!-- Node1&#45;&gt;Node17 -->
<g id="edge16" class="edge"><title>Node1&#45;&gt;Node17</title>
<path fill="none" stroke="midnightblue" d="M56.5295,-202.86C82.1663,-177.811 130.297,-130.782 155.003,-106.642"/>
<polygon fill="midnightblue" stroke="midnightblue" points="54.0528,-200.387 49.3463,-209.879 58.9449,-205.394 54.0528,-200.387"/>
</g>
<!-- Node3 -->
<g id="node3" class="node"><title>Node3</title>
<g id="a_node3"><a xlink:href="../../d6/dd6/classpugi_1_1xml__text.html#a3681b33febe5fc3acbe59ee7afbfb018" target="_top" xlink:title="pugi::xml_text::_data_new">
<polygon fill="white" stroke="black" points="271.5,-591 271.5,-610 412.5,-610 412.5,-591 271.5,-591"/>
<text text-anchor="middle" x="342" y="-598" font-family="Helvetica,sans-Serif" font-size="10.00">pugi::xml_text::_data_new</text>
</a>
</g>
</g>
<!-- Node2&#45;&gt;Node3 -->
<g id="edge2" class="edge"><title>Node2&#45;&gt;Node3</title>
<path fill="none" stroke="midnightblue" d="M174.5,-368.464C180.116,-413.582 200.206,-523.952 266,-581.5 270.449,-585.391 275.583,-588.506 281.037,-590.996"/>
<polygon fill="midnightblue" stroke="midnightblue" points="177.945,-367.785 173.341,-358.242 170.99,-368.573 177.945,-367.785"/>
</g>
<!-- Node6 -->
<g id="node6" class="node"><title>Node6</title>
<g id="a_node6"><a xlink:href="../../d6/dd6/classpugi_1_1xml__text.html#a549820a92ece6ed347f721d7676822e5" target="_top" xlink:title="pugi::xml_text::operator\l unspecified_bool_type">
<polygon fill="white" stroke="black" points="276.5,-541.5 276.5,-571.5 407.5,-571.5 407.5,-541.5 276.5,-541.5"/>
<text text-anchor="start" x="284.5" y="-559.5" font-family="Helvetica,sans-Serif" font-size="10.00">pugi::xml_text::operator</text>
<text text-anchor="middle" x="342" y="-548.5" font-family="Helvetica,sans-Serif" font-size="10.00"> unspecified_bool_type</text>
</a>
</g>
</g>
<!-- Node2&#45;&gt;Node6 -->
<g id="edge5" class="edge"><title>Node2&#45;&gt;Node6</title>
<path fill="none" stroke="midnightblue" d="M177.209,-368.12C187.149,-405.367 213.777,-486.604 266,-531.5 270.475,-535.347 275.563,-538.608 280.932,-541.37"/>
<polygon fill="midnightblue" stroke="midnightblue" points="180.508,-366.89 174.65,-358.062 173.724,-368.616 180.508,-366.89"/>
</g>
<!-- Node7 -->
<g id="node7" class="node"><title>Node7</title>
<g id="a_node7"><a xlink:href="../../d6/dd6/classpugi_1_1xml__text.html#ab75d176a3c799a4638ac298390dbed4c" target="_top" xlink:title="pugi::xml_text::operator!">
<polygon fill="white" stroke="black" points="274.5,-503 274.5,-522 409.5,-522 409.5,-503 274.5,-503"/>
<text text-anchor="middle" x="342" y="-510" font-family="Helvetica,sans-Serif" font-size="10.00">pugi::xml_text::operator!</text>
</a>
</g>
</g>
<!-- Node2&#45;&gt;Node7 -->
<g id="edge6" class="edge"><title>Node2&#45;&gt;Node7</title>
<path fill="none" stroke="midnightblue" d="M179.488,-367.771C191.88,-399.134 220.741,-460.978 266,-493.5 271.345,-497.341 277.391,-500.407 283.675,-502.855"/>
<polygon fill="midnightblue" stroke="midnightblue" points="182.617,-366.151 175.792,-358.047 176.074,-368.638 182.617,-366.151"/>
</g>
<!-- Node8 -->
<g id="node8" class="node"><title>Node8</title>
<g id="a_node8"><a xlink:href="../../d6/dd6/classpugi_1_1xml__text.html#a673a7eac0048e7bcdfd32ee6a5820798" target="_top" xlink:title="pugi::xml_text::empty">
<polygon fill="white" stroke="black" points="281.5,-465 281.5,-484 402.5,-484 402.5,-465 281.5,-465"/>
<text text-anchor="middle" x="342" y="-472" font-family="Helvetica,sans-Serif" font-size="10.00">pugi::xml_text::empty</text>
</a>
</g>
</g>
<!-- Node2&#45;&gt;Node8 -->
<g id="edge7" class="edge"><title>Node2&#45;&gt;Node8</title>
<path fill="none" stroke="midnightblue" d="M183.428,-366.796C198.788,-390.886 229.061,-432.833 266,-455.5 272.297,-459.364 279.35,-462.444 286.543,-464.9"/>
<polygon fill="midnightblue" stroke="midnightblue" points="186.363,-364.888 178.119,-358.233 180.414,-368.576 186.363,-364.888"/>
</g>
<!-- Node9 -->
<g id="node9" class="node"><title>Node9</title>
<g id="a_node9"><a xlink:href="../../d6/dd6/classpugi_1_1xml__text.html#acf75854306f4756904b6ef140ba1b53f" target="_top" xlink:title="pugi::xml_text::get">
<polygon fill="white" stroke="black" points="289,-427 289,-446 395,-446 395,-427 289,-427"/>
<text text-anchor="middle" x="342" y="-434" font-family="Helvetica,sans-Serif" font-size="10.00">pugi::xml_text::get</text>
</a>
</g>
</g>
<!-- Node2&#45;&gt;Node9 -->
<g id="edge8" class="edge"><title>Node2&#45;&gt;Node9</title>
<path fill="none" stroke="midnightblue" d="M190.406,-365.063C208.278,-380.742 237.164,-403.857 266,-417.5 274.014,-421.292 282.88,-424.391 291.627,-426.903"/>
<polygon fill="midnightblue" stroke="midnightblue" points="192.348,-362.104 182.565,-358.036 187.677,-367.317 192.348,-362.104"/>
</g>
<!-- Node10 -->
<g id="node10" class="node"><title>Node10</title>
<g id="a_node10"><a xlink:href="../../d6/dd6/classpugi_1_1xml__text.html#ac817e480d7ab09b3c6390622423a701b" target="_top" xlink:title="pugi::xml_text::as\l_string">
<polygon fill="white" stroke="black" points="291.5,-377.5 291.5,-407.5 392.5,-407.5 392.5,-377.5 291.5,-377.5"/>
<text text-anchor="start" x="299.5" y="-395.5" font-family="Helvetica,sans-Serif" font-size="10.00">pugi::xml_text::as</text>
<text text-anchor="middle" x="342" y="-384.5" font-family="Helvetica,sans-Serif" font-size="10.00">_string</text>
</a>
</g>
</g>
<!-- Node2&#45;&gt;Node10 -->
<g id="edge9" class="edge"><title>Node2&#45;&gt;Node10</title>
<path fill="none" stroke="midnightblue" d="M218.741,-360.575C241.287,-366.462 268.427,-373.549 291.404,-379.549"/>
<polygon fill="midnightblue" stroke="midnightblue" points="219.622,-357.188 209.062,-358.047 217.853,-363.96 219.622,-357.188"/>
</g>
<!-- Node11 -->
<g id="node11" class="node"><title>Node11</title>
<g id="a_node11"><a xlink:href="../../d6/dd6/classpugi_1_1xml__text.html#a71d4c7ed3d12dc6e8ee2a81d293fe9f4" target="_top" xlink:title="pugi::xml_text::as_int">
<polygon fill="white" stroke="black" points="282.5,-339 282.5,-358 401.5,-358 401.5,-339 282.5,-339"/>
<text text-anchor="middle" x="342" y="-346" font-family="Helvetica,sans-Serif" font-size="10.00">pugi::xml_text::as_int</text>
</a>
</g>
</g>
<!-- Node2&#45;&gt;Node11 -->
<g id="edge10" class="edge"><title>Node2&#45;&gt;Node11</title>
<path fill="none" stroke="midnightblue" d="M240.064,-348.5C254.049,-348.5 268.673,-348.5 282.31,-348.5"/>
<polygon fill="midnightblue" stroke="midnightblue" points="240.017,-345 230.017,-348.5 240.017,-352 240.017,-345"/>
</g>
<!-- Node12 -->
<g id="node12" class="node"><title>Node12</title>
<g id="a_node12"><a xlink:href="../../d6/dd6/classpugi_1_1xml__text.html#a9eb828629c4ca107d06d28a60f5bb114" target="_top" xlink:title="pugi::xml_text::as_uint">
<polygon fill="white" stroke="black" points="279.5,-301 279.5,-320 404.5,-320 404.5,-301 279.5,-301"/>
<text text-anchor="middle" x="342" y="-308" font-family="Helvetica,sans-Serif" font-size="10.00">pugi::xml_text::as_uint</text>
</a>
</g>
</g>
<!-- Node2&#45;&gt;Node12 -->
<g id="edge11" class="edge"><title>Node2&#45;&gt;Node12</title>
<path fill="none" stroke="midnightblue" d="M224.931,-336.676C248.687,-331.318 276.399,-325.069 298.786,-320.02"/>
<polygon fill="midnightblue" stroke="midnightblue" points="224.005,-333.297 215.02,-338.911 225.545,-340.125 224.005,-333.297"/>
</g>
<!-- Node13 -->
<g id="node13" class="node"><title>Node13</title>
<g id="a_node13"><a xlink:href="../../d6/dd6/classpugi_1_1xml__text.html#aa6722fcf1c4e10ee11b6df73bef11cee" target="_top" xlink:title="pugi::xml_text::as\l_double">
<polygon fill="white" stroke="black" points="291.5,-251.5 291.5,-281.5 392.5,-281.5 392.5,-251.5 291.5,-251.5"/>
<text text-anchor="start" x="299.5" y="-269.5" font-family="Helvetica,sans-Serif" font-size="10.00">pugi::xml_text::as</text>
<text text-anchor="middle" x="342" y="-258.5" font-family="Helvetica,sans-Serif" font-size="10.00">_double</text>
</a>
</g>
</g>
<!-- Node2&#45;&gt;Node13 -->
<g id="edge12" class="edge"><title>Node2&#45;&gt;Node13</title>
<path fill="none" stroke="midnightblue" d="M194.185,-333.334C212.652,-320.903 240.215,-303.47 266,-291.5 273.967,-287.801 282.639,-284.39 291.164,-281.352"/>
<polygon fill="midnightblue" stroke="midnightblue" points="192.186,-330.462 185.898,-338.989 196.131,-336.244 192.186,-330.462"/>
</g>
<!-- Node14 -->
<g id="node14" class="node"><title>Node14</title>
<g id="a_node14"><a xlink:href="../../d6/dd6/classpugi_1_1xml__text.html#a158482df06cd778542d7cedb1c33e39f" target="_top" xlink:title="pugi::xml_text::as\l_float">
<polygon fill="white" stroke="black" points="291.5,-202.5 291.5,-232.5 392.5,-232.5 392.5,-202.5 291.5,-202.5"/>
<text text-anchor="start" x="299.5" y="-220.5" font-family="Helvetica,sans-Serif" font-size="10.00">pugi::xml_text::as</text>
<text text-anchor="middle" x="342" y="-209.5" font-family="Helvetica,sans-Serif" font-size="10.00">_float</text>
</a>
</g>
</g>
<!-- Node2&#45;&gt;Node14 -->
<g id="edge13" class="edge"><title>Node2&#45;&gt;Node14</title>
<path fill="none" stroke="midnightblue" d="M184.169,-330.106C199.99,-306.582 230.394,-266.076 266,-242.5 273.667,-237.423 282.459,-233.291 291.26,-229.957"/>
<polygon fill="midnightblue" stroke="midnightblue" points="181.042,-328.491 178.485,-338.773 186.896,-332.33 181.042,-328.491"/>
</g>
<!-- Node15 -->
<g id="node15" class="node"><title>Node15</title>
<g id="a_node15"><a xlink:href="../../d6/dd6/classpugi_1_1xml__text.html#ab591c10f3adc62024cf8ffc53c4e372e" target="_top" xlink:title="pugi::xml_text::as_bool">
<polygon fill="white" stroke="black" points="278.5,-164 278.5,-183 405.5,-183 405.5,-164 278.5,-164"/>
<text text-anchor="middle" x="342" y="-171" font-family="Helvetica,sans-Serif" font-size="10.00">pugi::xml_text::as_bool</text>
</a>
</g>
</g>
<!-- Node2&#45;&gt;Node15 -->
<g id="edge14" class="edge"><title>Node2&#45;&gt;Node15</title>
<path fill="none" stroke="midnightblue" d="M178.83,-328.893C190.548,-295.784 218.82,-228.944 266,-193.5 271.818,-189.129 278.519,-185.712 285.471,-183.042"/>
<polygon fill="midnightblue" stroke="midnightblue" points="175.39,-328.14 175.487,-338.734 182.018,-330.391 175.39,-328.14"/>
</g>
<!-- Node16 -->
<g id="node16" class="node"><title>Node16</title>
<g id="a_node16"><a xlink:href="../../d6/dd6/classpugi_1_1xml__text.html#a30ca257f1614159c625d2904a6285224" target="_top" xlink:title="pugi::xml_text::data">
<polygon fill="white" stroke="black" points="286,-126 286,-145 398,-145 398,-126 286,-126"/>
<text text-anchor="middle" x="342" y="-133" font-family="Helvetica,sans-Serif" font-size="10.00">pugi::xml_text::data</text>
</a>
</g>
</g>
<!-- Node2&#45;&gt;Node16 -->
<g id="edge15" class="edge"><title>Node2&#45;&gt;Node16</title>
<path fill="none" stroke="midnightblue" d="M176.253,-328.677C184.792,-289.215 209.479,-200.666 266,-154.5 271.826,-149.742 278.691,-146.156 285.864,-143.457"/>
<polygon fill="midnightblue" stroke="midnightblue" points="172.791,-328.137 174.22,-338.635 179.65,-329.537 172.791,-328.137"/>
</g>
<!-- Node4 -->
<g id="node4" class="node"><title>Node4</title>
<g id="a_node4"><a xlink:href="../../d6/dd6/classpugi_1_1xml__text.html#ab31930ff4f5ad568549f85dbb697e60e" target="_top" xlink:title="pugi::xml_text::set">
<polygon fill="white" stroke="black" points="476,-591 476,-610 581,-610 581,-591 476,-591"/>
<text text-anchor="middle" x="528.5" y="-598" font-family="Helvetica,sans-Serif" font-size="10.00">pugi::xml_text::set</text>
</a>
</g>
</g>
<!-- Node3&#45;&gt;Node4 -->
<g id="edge3" class="edge"><title>Node3&#45;&gt;Node4</title>
<path fill="none" stroke="midnightblue" d="M422.91,-600.5C440.82,-600.5 459.363,-600.5 475.771,-600.5"/>
<polygon fill="midnightblue" stroke="midnightblue" points="422.752,-597 412.752,-600.5 422.752,-604 422.752,-597"/>
</g>
<!-- Node5 -->
<g id="node5" class="node"><title>Node5</title>
<g id="a_node5"><a xlink:href="../../d6/dd6/classpugi_1_1xml__text.html#a0d75ccc7ede3b3d590352267a0f0fcb9" target="_top" xlink:title="pugi::xml_text::set">
<polygon fill="white" stroke="black" points="679,-591 679,-610 784,-610 784,-591 679,-591"/>
<text text-anchor="middle" x="731.5" y="-598" font-family="Helvetica,sans-Serif" font-size="10.00">pugi::xml_text::set</text>
</a>
</g>
</g>
<!-- Node4&#45;&gt;Node5 -->
<g id="edge4" class="edge"><title>Node4&#45;&gt;Node5</title>
<path fill="none" stroke="midnightblue" d="M591.105,-600.5C619.172,-600.5 652.024,-600.5 678.783,-600.5"/>
<polygon fill="midnightblue" stroke="midnightblue" points="591.002,-597 581.001,-600.5 591.001,-604 591.002,-597"/>
</g>
<!-- Node18 -->
<g id="node18" class="node"><title>Node18</title>
<g id="a_node18"><a xlink:href="../../d1/dae/classcarla_1_1opendrive_1_1parser_1_1GeoReferenceParser.html#abbd0edc0b3507042c5a0af753473192b" target="_top" xlink:title="carla::opendrive::parser\l::GeoReferenceParser::Parse">
<polygon fill="white" stroke="black" points="266,-76.5 266,-106.5 418,-106.5 418,-76.5 266,-76.5"/>
<text text-anchor="start" x="274" y="-94.5" font-family="Helvetica,sans-Serif" font-size="10.00">carla::opendrive::parser</text>
<text text-anchor="middle" x="342" y="-83.5" font-family="Helvetica,sans-Serif" font-size="10.00">::GeoReferenceParser::Parse</text>
</a>
</g>
</g>
<!-- Node17&#45;&gt;Node18 -->
<g id="edge17" class="edge"><title>Node17&#45;&gt;Node18</title>
<path fill="none" stroke="midnightblue" d="M240.184,-91.5C248.632,-91.5 257.312,-91.5 265.866,-91.5"/>
<polygon fill="midnightblue" stroke="midnightblue" points="240.017,-88.0001 230.017,-91.5 240.017,-95.0001 240.017,-88.0001"/>
</g>
<!-- Node29 -->
<g id="node29" class="node"><title>Node29</title>
<g id="a_node29"><a xlink:href="../../db/d65/classpugi_1_1xml__node.html#ad091dcc0ff970fb2920b8b2942154c94" target="_top" xlink:title="pugi::xml_node::child\l_value">
<polygon fill="white" stroke="black" points="283.5,-27.5 283.5,-57.5 400.5,-57.5 400.5,-27.5 283.5,-27.5"/>
<text text-anchor="start" x="291.5" y="-45.5" font-family="Helvetica,sans-Serif" font-size="10.00">pugi::xml_node::child</text>
<text text-anchor="middle" x="342" y="-34.5" font-family="Helvetica,sans-Serif" font-size="10.00">_value</text>
</a>
</g>
</g>
<!-- Node17&#45;&gt;Node29 -->
<g id="edge28" class="edge"><title>Node17&#45;&gt;Node29</title>
<path fill="none" stroke="midnightblue" d="M234.034,-73.6059C252.157,-68.3356 271.796,-62.6245 289.241,-57.5516"/>
<polygon fill="midnightblue" stroke="midnightblue" points="233.055,-70.2454 224.43,-76.3986 235.01,-76.9669 233.055,-70.2454"/>
</g>
<!-- Node19 -->
<g id="node19" class="node"><title>Node19</title>
<g id="a_node19"><a xlink:href="../../de/d5a/classcarla_1_1opendrive_1_1OpenDriveParser.html#a599fd6174f30aaee59590c16503afd8a" target="_top" xlink:title="carla::opendrive::OpenDrive\lParser::Load">
<polygon fill="white" stroke="black" points="454,-76.5 454,-106.5 603,-106.5 603,-76.5 454,-76.5"/>
<text text-anchor="start" x="462" y="-94.5" font-family="Helvetica,sans-Serif" font-size="10.00">carla::opendrive::OpenDrive</text>
<text text-anchor="middle" x="528.5" y="-83.5" font-family="Helvetica,sans-Serif" font-size="10.00">Parser::Load</text>
</a>
</g>
</g>
<!-- Node18&#45;&gt;Node19 -->
<g id="edge18" class="edge"><title>Node18&#45;&gt;Node19</title>
<path fill="none" stroke="midnightblue" d="M428.05,-91.5C436.623,-91.5 445.278,-91.5 453.719,-91.5"/>
<polygon fill="midnightblue" stroke="midnightblue" points="428.043,-88.0001 418.043,-91.5 428.043,-95.0001 428.043,-88.0001"/>
</g>
<!-- Node20 -->
<g id="node20" class="node"><title>Node20</title>
<g id="a_node20"><a xlink:href="../../dc/d84/classUCarlaEpisode.html#aab4cecf082fe278f719b2676047350c0" target="_top" xlink:title="Load a new map generating the mesh from OpenDRIVE data and start a new episode. ">
<polygon fill="white" stroke="black" points="639,-169.5 639,-199.5 824,-199.5 824,-169.5 639,-169.5"/>
<text text-anchor="start" x="647" y="-187.5" font-family="Helvetica,sans-Serif" font-size="10.00">UCarlaEpisode::LoadNewOpendrive</text>
<text text-anchor="middle" x="731.5" y="-176.5" font-family="Helvetica,sans-Serif" font-size="10.00">Episode</text>
</a>
</g>
</g>
<!-- Node19&#45;&gt;Node20 -->
<g id="edge19" class="edge"><title>Node19&#45;&gt;Node20</title>
<path fill="none" stroke="midnightblue" d="M557.718,-112.684C579.076,-127.851 609.651,-147.765 639,-160.5 646.683,-163.834 654.937,-166.792 663.229,-169.392"/>
<polygon fill="midnightblue" stroke="midnightblue" points="559.6,-109.726 549.442,-106.716 555.506,-115.404 559.6,-109.726"/>
</g>
<!-- Node23 -->
<g id="node23" class="node"><title>Node23</title>
<g id="a_node23"><a xlink:href="../../db/de5/classACarlaGameModeBase.html#a5caddc59713354578997de90542ddd93" target="_top" xlink:title="ACarlaGameModeBase\l::InitGame">
<polygon fill="white" stroke="black" points="667.5,-120.5 667.5,-150.5 795.5,-150.5 795.5,-120.5 667.5,-120.5"/>
<text text-anchor="start" x="675.5" y="-138.5" font-family="Helvetica,sans-Serif" font-size="10.00">ACarlaGameModeBase</text>
<text text-anchor="middle" x="731.5" y="-127.5" font-family="Helvetica,sans-Serif" font-size="10.00">::InitGame</text>
</a>
</g>
</g>
<!-- Node19&#45;&gt;Node23 -->
<g id="edge22" class="edge"><title>Node19&#45;&gt;Node23</title>
<path fill="none" stroke="midnightblue" d="M607.957,-108.675C627.615,-112.978 648.456,-117.54 667.268,-121.658"/>
<polygon fill="midnightblue" stroke="midnightblue" points="608.628,-105.239 598.111,-106.519 607.131,-112.077 608.628,-105.239"/>
</g>
<!-- Node24 -->
<g id="node24" class="node"><title>Node24</title>
<g id="a_node24"><a xlink:href="../../d2/daf/namespacecarla_1_1client.html#a228b83c6429f8e3406a93a1b41eb1565" target="_top" xlink:title="carla::client::MakeMap">
<polygon fill="white" stroke="black" points="670,-82 670,-101 793,-101 793,-82 670,-82"/>
<text text-anchor="middle" x="731.5" y="-89" font-family="Helvetica,sans-Serif" font-size="10.00">carla::client::MakeMap</text>
</a>
</g>
</g>
<!-- Node19&#45;&gt;Node24 -->
<g id="edge23" class="edge"><title>Node19&#45;&gt;Node24</title>
<path fill="none" stroke="midnightblue" d="M613.352,-91.5C632.351,-91.5 652.167,-91.5 669.98,-91.5"/>
<polygon fill="midnightblue" stroke="midnightblue" points="613.204,-88.0001 603.204,-91.5 613.204,-95.0001 613.204,-88.0001"/>
</g>
<!-- Node25 -->
<g id="node25" class="node"><title>Node25</title>
<g id="a_node25"><a xlink:href="../../d0/d2d/classAOpenDriveActor.html#ac8678af2b371c3a3faca8775ab1e4816" target="_top" xlink:title="AOpenDriveActor::BuildRoutes">
<polygon fill="white" stroke="black" points="651,-44 651,-63 812,-63 812,-44 651,-44"/>
<text text-anchor="middle" x="731.5" y="-51" font-family="Helvetica,sans-Serif" font-size="10.00">AOpenDriveActor::BuildRoutes</text>
</a>
</g>
</g>
<!-- Node19&#45;&gt;Node25 -->
<g id="edge24" class="edge"><title>Node19&#45;&gt;Node25</title>
<path fill="none" stroke="midnightblue" d="M613.191,-75.6778C635.898,-71.385 659.783,-66.8694 680.031,-63.0415"/>
<polygon fill="midnightblue" stroke="midnightblue" points="612.379,-72.2692 603.204,-77.566 613.68,-79.1473 612.379,-72.2692"/>
</g>
<!-- Node26 -->
<g id="node26" class="node"><title>Node26</title>
<g id="a_node26"><a xlink:href="../../d8/dfe/classUOpenDriveMap.html#a0ce422ee1f79211e6957bab1d2048348" target="_top" xlink:title="Load this map with an OpenDrive (XODR) file. ">
<polygon fill="white" stroke="black" points="669.5,-6 669.5,-25 793.5,-25 793.5,-6 669.5,-6"/>
<text text-anchor="middle" x="731.5" y="-13" font-family="Helvetica,sans-Serif" font-size="10.00">UOpenDriveMap::Load</text>
</a>
</g>
</g>
<!-- Node19&#45;&gt;Node26 -->
<g id="edge25" class="edge"><title>Node19&#45;&gt;Node26</title>
<path fill="none" stroke="midnightblue" d="M562.733,-71.1322C583.898,-58.9462 612.27,-44.0261 639,-34.5 649.545,-30.7419 661.053,-27.6294 672.239,-25.0875"/>
<polygon fill="midnightblue" stroke="midnightblue" points="560.702,-68.2651 553.839,-76.3362 564.238,-74.3068 560.702,-68.2651"/>
</g>
<!-- Node21 -->
<g id="node21" class="node"><title>Node21</title>
<g id="a_node21"><a xlink:href="../../d7/d97/classFCarlaServer_1_1FPimpl.html#a675a6b572112a21e8bc011dddfd0de86" target="_top" xlink:title="FCarlaServer::FPimpl\l::BindActions">
<polygon fill="white" stroke="black" points="889,-169.5 889,-199.5 1005,-199.5 1005,-169.5 889,-169.5"/>
<text text-anchor="start" x="897" y="-187.5" font-family="Helvetica,sans-Serif" font-size="10.00">FCarlaServer::FPimpl</text>
<text text-anchor="middle" x="947" y="-176.5" font-family="Helvetica,sans-Serif" font-size="10.00">::BindActions</text>
</a>
</g>
</g>
<!-- Node20&#45;&gt;Node21 -->
<g id="edge20" class="edge"><title>Node20&#45;&gt;Node21</title>
<path fill="none" stroke="midnightblue" d="M834.349,-184.5C853.082,-184.5 872.016,-184.5 888.839,-184.5"/>
<polygon fill="midnightblue" stroke="midnightblue" points="834.282,-181 824.282,-184.5 834.282,-188 834.282,-181"/>
</g>
<!-- Node22 -->
<g id="node22" class="node"><title>Node22</title>
<g id="a_node22"><a xlink:href="../../d7/d97/classFCarlaServer_1_1FPimpl.html#a5521999cb8b42460143ad4b1cd869398" target="_top" xlink:title="FCarlaServer::FPimpl\l::FPimpl">
<polygon fill="white" stroke="black" points="1094.5,-169.5 1094.5,-199.5 1210.5,-199.5 1210.5,-169.5 1094.5,-169.5"/>
<text text-anchor="start" x="1102.5" y="-187.5" font-family="Helvetica,sans-Serif" font-size="10.00">FCarlaServer::FPimpl</text>
<text text-anchor="middle" x="1152.5" y="-176.5" font-family="Helvetica,sans-Serif" font-size="10.00">::FPimpl</text>
</a>
</g>
</g>
<!-- Node21&#45;&gt;Node22 -->
<g id="edge21" class="edge"><title>Node21&#45;&gt;Node22</title>
<path fill="none" stroke="midnightblue" d="M1015.23,-184.5C1040.84,-184.5 1069.76,-184.5 1094.35,-184.5"/>
<polygon fill="midnightblue" stroke="midnightblue" points="1015.23,-181 1005.23,-184.5 1015.23,-188 1015.23,-181"/>
</g>
<!-- Node27 -->
<g id="node27" class="node"><title>Node27</title>
<g id="a_node27"><a xlink:href="../../d1/d1b/classUOpenDrive.html#ac05b8dc3f340e373582945f9215081d9" target="_top" xlink:title="Load OpenDriveMap associated to the given MapName. ">
<polygon fill="white" stroke="black" points="860,-6 860,-25 1034,-25 1034,-6 860,-6"/>
<text text-anchor="middle" x="947" y="-13" font-family="Helvetica,sans-Serif" font-size="10.00">UOpenDrive::LoadOpenDriveMap</text>
</a>
</g>
</g>
<!-- Node26&#45;&gt;Node27 -->
<g id="edge26" class="edge"><title>Node26&#45;&gt;Node27</title>
<path fill="none" stroke="midnightblue" d="M803.765,-15.5C821.709,-15.5 841.163,-15.5 859.754,-15.5"/>
<polygon fill="midnightblue" stroke="midnightblue" points="803.681,-12.0001 793.681,-15.5 803.68,-19.0001 803.681,-12.0001"/>
</g>
<!-- Node28 -->
<g id="node28" class="node"><title>Node28</title>
<g id="a_node28"><a xlink:href="../../d1/d1b/classUOpenDrive.html#a4486c7ee9d4a8bf6cd2a7ca5ad7e4ece" target="_top" xlink:title="Load OpenDriveMap associated to the currently loaded map. ">
<polygon fill="white" stroke="black" points="1070,-0.5 1070,-30.5 1235,-30.5 1235,-0.5 1070,-0.5"/>
<text text-anchor="start" x="1078" y="-18.5" font-family="Helvetica,sans-Serif" font-size="10.00">UOpenDrive::LoadCurrentOpen</text>
<text text-anchor="middle" x="1152.5" y="-7.5" font-family="Helvetica,sans-Serif" font-size="10.00">DriveMap</text>
</a>
</g>
</g>
<!-- Node27&#45;&gt;Node28 -->
<g id="edge27" class="edge"><title>Node27&#45;&gt;Node28</title>
<path fill="none" stroke="midnightblue" d="M1044.04,-15.5C1052.62,-15.5 1061.25,-15.5 1069.69,-15.5"/>
<polygon fill="midnightblue" stroke="midnightblue" points="1044.01,-12.0001 1034.01,-15.5 1044.01,-19.0001 1044.01,-12.0001"/>
</g>
</g>
</svg>
        <g id="navigator" transform="translate(0 0)" fill="#404254">
                <rect fill="#f2f5e9" fill-opacity="0.5" stroke="#606060" stroke-width=".5" x="0" y="0" width="60" height="60"/>
                <use id="zoomplus" xlink:href="#zoomPlus" x="17" y="9" onmousedown="handleZoom(evt,'in')"/>
                <use id="zoomminus" xlink:href="#zoomMin" x="42" y="9" onmousedown="handleZoom(evt,'out')"/>
                <use id="reset" xlink:href="#resetDef" x="30" y="36" onmousedown="handleReset()"/>
                <g id="arrowUp" xlink:href="#dirArrow" transform="translate(30 24)" onmousedown="handlePan(0,-1)">
                  <use xlink:href="#rim" fill="#404040">
                        <set attributeName="fill" to="#808080" begin="arrowUp.mouseover" end="arrowUp.mouseout"/>
                  </use>
                  <path fill="none" stroke="white" stroke-width="1.5" d="M0,-3.0v7 M-2.5,-0.5L0,-3.0L2.5,-0.5"/>
                </g>
                <g id="arrowRight" xlink:href="#dirArrow" transform="rotate(90) translate(36 -43)" onmousedown="handlePan(1,0)">
                  <use xlink:href="#rim" fill="#404040">
                        <set attributeName="fill" to="#808080" begin="arrowRight.mouseover" end="arrowRight.mouseout"/>
                  </use>
                  <path fill="none" stroke="white" stroke-width="1.5" d="M0,-3.0v7 M-2.5,-0.5L0,-3.0L2.5,-0.5"/>
                </g>
                <g id="arrowDown" xlink:href="#dirArrow" transform="rotate(180) translate(-30 -48)" onmousedown="handlePan(0,1)">
                  <use xlink:href="#rim" fill="#404040">
                        <set attributeName="fill" to="#808080" begin="arrowDown.mouseover" end="arrowDown.mouseout"/>
                  </use>
                  <path fill="none" stroke="white" stroke-width="1.5" d="M0,-3.0v7 M-2.5,-0.5L0,-3.0L2.5,-0.5"/>
                </g>
                <g id="arrowLeft" xlink:href="#dirArrow" transform="rotate(270) translate(-36 17)" onmousedown="handlePan(-1,0)">
                  <use xlink:href="#rim" fill="#404040">
                        <set attributeName="fill" to="#808080" begin="arrowLeft.mouseover" end="arrowLeft.mouseout"/>
                  </use>
                  <path fill="none" stroke="white" stroke-width="1.5" d="M0,-3.0v7 M-2.5,-0.5L0,-3.0L2.5,-0.5"/>
                </g>
        </g>
        <svg viewBox="0 0 15 15" width="100%" height="30px" preserveAspectRatio="xMaxYMin meet">
         <g id="arrow_out" transform="scale(0.3 0.3)">
          <a xlink:href="pugixml_8cpp_a78cb6a1f92159f3649ac191400feb3a2_icgraph_org.svg" target="_base">
           <rect id="button" ry="5" rx="5" y="6" x="6" height="38" width="38"
                fill="#f2f5e9" fill-opacity="0.5" stroke="#606060" stroke-width="1.0"/>
           <path id="arrow"
             d="M 11.500037,31.436501 C 11.940474,20.09759 22.043105,11.32322 32.158766,21.979434 L 37.068811,17.246167 C 37.068811,17.246167 37.088388,32 37.088388,32 L 22.160133,31.978069 C 22.160133,31.978069 26.997745,27.140456 26.997745,27.140456 C 18.528582,18.264221 13.291696,25.230495 11.500037,31.436501 z"
             style="fill:#404040;"/>
          </a>
         </g>
        </svg>
</svg>
