<?xml version="1.0" encoding="UTF-8" standalone="no"?>
<!DOCTYPE svg PUBLIC "-//W3C//DTD SVG 1.1//EN"
 "http://www.w3.org/Graphics/SVG/1.1/DTD/svg11.dtd">
<!-- Generated by graphviz version 2.40.1 (20161225.0304)
 -->
<!-- Title: translate_table Pages: 1 -->
<svg width="609pt" height="233pt"
 viewBox="0.00 0.00 609.00 232.50" xmlns="http://www.w3.org/2000/svg" xmlns:xlink="http://www.w3.org/1999/xlink">
<g id="graph0" class="graph" transform="scale(1 1) rotate(0) translate(4 228.5)">
<title>translate_table</title>
<polygon fill="#ffffff" stroke="transparent" points="-4,4 -4,-228.5 605,-228.5 605,4 -4,4"/>
<!-- Node2050 -->
<g id="node1" class="node">
<title>Node2050</title>
<polygon fill="#bfbfbf" stroke="#000000" points="0,-75.5 0,-94.5 90,-94.5 90,-75.5 0,-75.5"/>
<text text-anchor="middle" x="45" y="-82.5" font-family="Helvetica,sans-Serif" font-size="10.00" fill="#000000">translate_table</text>
</g>
<!-- Node2051 -->
<g id="node2" class="node">
<title>Node2051</title>
<g id="a_node2"><a xlink:href="../../d3/dc5/classxpath__ast__node.html#a6b675237a590548b68d0e0b97518b6df" target="_top" xlink:title="xpath_ast_node::eval\l_string">
<polygon fill="#ffffff" stroke="#000000" points="126,-70 126,-100 247,-100 247,-70 126,-70"/>
<text text-anchor="start" x="134" y="-88" font-family="Helvetica,sans-Serif" font-size="10.00" fill="#000000">xpath_ast_node::eval</text>
<text text-anchor="middle" x="186.5" y="-77" font-family="Helvetica,sans-Serif" font-size="10.00" fill="#000000">_string</text>
</a>
</g>
</g>
<!-- Node2050&#45;&gt;Node2051 -->
<g id="edge1" class="edge">
<title>Node2050&#45;&gt;Node2051</title>
<path fill="none" stroke="#191970" d="M100.1995,-85C108.5819,-85 117.2708,-85 125.7632,-85"/>
<polygon fill="#191970" stroke="#191970" points="100.1606,-81.5001 90.1605,-85 100.1605,-88.5001 100.1606,-81.5001"/>
</g>
<!-- Node2051&#45;&gt;Node2051 -->
<g id="edge15" class="edge">
<title>Node2051&#45;&gt;Node2051</title>
<path fill="none" stroke="#191970" d="M161.6237,-110.4579C164.7112,-115.179 173.0033,-118.5 186.5,-118.5 208.6484,-118.5 216.7811,-109.5566 210.8979,-100.159"/>
<polygon fill="#191970" stroke="#191970" points="165.1342,-110.3107 162.1021,-100.159 158.1418,-109.9858 165.1342,-110.3107"/>
</g>
<!-- Node2052 -->
<g id="node3" class="node">
<title>Node2052</title>
<g id="a_node3"><a xlink:href="../../d3/dc5/classxpath__ast__node.html#a98dd7f6e67fe2c56c63056eed835d6a4" target="_top" xlink:title="xpath_ast_node::compare_eq">
<polygon fill="#ffffff" stroke="#000000" points="440.5,-137.5 440.5,-156.5 600.5,-156.5 600.5,-137.5 440.5,-137.5"/>
<text text-anchor="middle" x="520.5" y="-144.5" font-family="Helvetica,sans-Serif" font-size="10.00" fill="#000000">xpath_ast_node::compare_eq</text>
</a>
</g>
</g>
<!-- Node2051&#45;&gt;Node2052 -->
<g id="edge2" class="edge">
<title>Node2051&#45;&gt;Node2052</title>
<path fill="none" stroke="#191970" d="M222.8179,-104.7034C240.4722,-113.3546 262.305,-122.7265 283,-128 334.3069,-141.0739 393.6819,-145.8239 440.2301,-147.3054"/>
<polygon fill="#191970" stroke="#191970" points="223.9798,-101.3699 213.4737,-100.0019 220.8336,-107.6231 223.9798,-101.3699"/>
</g>
<!-- Node2053 -->
<g id="node4" class="node">
<title>Node2053</title>
<g id="a_node4"><a xlink:href="../../d3/dc5/classxpath__ast__node.html#ab7f965a92023bc2704b8e6fd9f3d7c14" target="_top" xlink:title="xpath_ast_node::eval\l_boolean">
<polygon fill="#ffffff" stroke="#000000" points="283,-176 283,-206 404,-206 404,-176 283,-176"/>
<text text-anchor="start" x="291" y="-194" font-family="Helvetica,sans-Serif" font-size="10.00" fill="#000000">xpath_ast_node::eval</text>
<text text-anchor="middle" x="343.5" y="-183" font-family="Helvetica,sans-Serif" font-size="10.00" fill="#000000">_boolean</text>
</a>
</g>
</g>
<!-- Node2051&#45;&gt;Node2053 -->
<g id="edge3" class="edge">
<title>Node2051&#45;&gt;Node2053</title>
<path fill="none" stroke="#191970" d="M211.2961,-106.8737C230.1866,-122.9436 257.2486,-144.7212 283,-161 291.4234,-166.3248 300.9229,-171.421 309.8553,-175.8533"/>
<polygon fill="#191970" stroke="#191970" points="213.3417,-104.0167 203.4773,-100.1509 208.7779,-109.3244 213.3417,-104.0167"/>
</g>
<!-- Node2055 -->
<g id="node6" class="node">
<title>Node2055</title>
<g id="a_node6"><a xlink:href="../../d3/dc5/classxpath__ast__node.html#a92dd7048e28d486bc7f382d1fc6f1de6" target="_top" xlink:title="xpath_ast_node::eval\l_number">
<polygon fill="#ffffff" stroke="#000000" points="283,-70 283,-100 404,-100 404,-70 283,-70"/>
<text text-anchor="start" x="291" y="-88" font-family="Helvetica,sans-Serif" font-size="10.00" fill="#000000">xpath_ast_node::eval</text>
<text text-anchor="middle" x="343.5" y="-77" font-family="Helvetica,sans-Serif" font-size="10.00" fill="#000000">_number</text>
</a>
</g>
</g>
<!-- Node2051&#45;&gt;Node2055 -->
<g id="edge7" class="edge">
<title>Node2051&#45;&gt;Node2055</title>
<path fill="none" stroke="#191970" d="M257.2098,-78.2796C265.807,-78.214 274.5301,-78.2573 282.9611,-78.4096"/>
<polygon fill="#191970" stroke="#191970" points="257.155,-74.7799 247.2003,-78.4067 257.2439,-81.7794 257.155,-74.7799"/>
</g>
<!-- Node2059 -->
<g id="node10" class="node">
<title>Node2059</title>
<g id="a_node10"><a xlink:href="../../d3/dc5/classxpath__ast__node.html#aaf931a091af0fb91c25e90b205363b4e" target="_top" xlink:title="xpath_ast_node::eval\l_string_concat">
<polygon fill="#ffffff" stroke="#000000" points="283,-21 283,-51 404,-51 404,-21 283,-21"/>
<text text-anchor="start" x="291" y="-39" font-family="Helvetica,sans-Serif" font-size="10.00" fill="#000000">xpath_ast_node::eval</text>
<text text-anchor="middle" x="343.5" y="-28" font-family="Helvetica,sans-Serif" font-size="10.00" fill="#000000">_string_concat</text>
</a>
</g>
</g>
<!-- Node2051&#45;&gt;Node2059 -->
<g id="edge14" class="edge">
<title>Node2051&#45;&gt;Node2059</title>
<path fill="none" stroke="#191970" d="M244.5353,-66.8871C261.2263,-61.6778 279.2443,-56.0543 295.2735,-51.0516"/>
<polygon fill="#191970" stroke="#191970" points="243.3894,-63.5781 234.8862,-69.8986 245.4749,-70.2603 243.3894,-63.5781"/>
</g>
<!-- Node2053&#45;&gt;Node2052 -->
<g id="edge4" class="edge">
<title>Node2053&#45;&gt;Node2052</title>
<path fill="none" stroke="#191970" d="M413.8622,-173.4985C422.6627,-171.3101 431.5399,-169.103 440,-167 453.6958,-163.5956 468.7026,-159.8667 482.0097,-156.5608"/>
<polygon fill="#191970" stroke="#191970" points="412.8447,-170.1448 403.9849,-175.9547 414.534,-176.9379 412.8447,-170.1448"/>
</g>
<!-- Node2053&#45;&gt;Node2053 -->
<g id="edge6" class="edge">
<title>Node2053&#45;&gt;Node2053</title>
<path fill="none" stroke="#191970" d="M315.7807,-216.4579C319.221,-221.179 328.4608,-224.5 343.5,-224.5 368.1797,-224.5 377.2418,-215.5566 370.6862,-206.159"/>
<polygon fill="#191970" stroke="#191970" points="319.2921,-216.3266 316.3138,-206.159 312.3014,-215.9647 319.2921,-216.3266"/>
</g>
<!-- Node2054 -->
<g id="node5" class="node">
<title>Node2054</title>
<g id="a_node5"><a xlink:href="../../d3/dc5/classxpath__ast__node.html#ab4e5bbd3f2e83c86a43349374b4bfc22" target="_top" xlink:title="xpath_ast_node::apply\l_predicate_boolean">
<polygon fill="#ffffff" stroke="#000000" points="457,-176 457,-206 584,-206 584,-176 457,-176"/>
<text text-anchor="start" x="465" y="-194" font-family="Helvetica,sans-Serif" font-size="10.00" fill="#000000">xpath_ast_node::apply</text>
<text text-anchor="middle" x="520.5" y="-183" font-family="Helvetica,sans-Serif" font-size="10.00" fill="#000000">_predicate_boolean</text>
</a>
</g>
</g>
<!-- Node2053&#45;&gt;Node2054 -->
<g id="edge5" class="edge">
<title>Node2053&#45;&gt;Node2054</title>
<path fill="none" stroke="#191970" d="M414.4653,-191C428.4464,-191 443.0358,-191 456.7611,-191"/>
<polygon fill="#191970" stroke="#191970" points="414.4134,-187.5001 404.4134,-191 414.4133,-194.5001 414.4134,-187.5001"/>
</g>
<!-- Node2055&#45;&gt;Node2051 -->
<g id="edge13" class="edge">
<title>Node2055&#45;&gt;Node2051</title>
<path fill="none" stroke="#191970" d="M272.9547,-91.7191C264.3591,-91.7861 255.635,-91.7442 247.2003,-91.5933"/>
<polygon fill="#191970" stroke="#191970" points="273.007,-95.2188 282.9611,-91.5904 272.9169,-88.2194 273.007,-95.2188"/>
</g>
<!-- Node2055&#45;&gt;Node2052 -->
<g id="edge8" class="edge">
<title>Node2055&#45;&gt;Node2052</title>
<path fill="none" stroke="#191970" d="M382.5652,-104.4108C399.8657,-112.4806 420.6447,-121.4679 440,-128 450.6125,-131.5816 462.2312,-134.7445 473.2577,-137.4114"/>
<polygon fill="#191970" stroke="#191970" points="383.8786,-101.1602 373.3428,-100.0434 380.8826,-107.4867 383.8786,-101.1602"/>
</g>
<!-- Node2055&#45;&gt;Node2055 -->
<g id="edge12" class="edge">
<title>Node2055&#45;&gt;Node2055</title>
<path fill="none" stroke="#191970" d="M315.7807,-110.4579C319.221,-115.179 328.4608,-118.5 343.5,-118.5 368.1797,-118.5 377.2418,-109.5566 370.6862,-100.159"/>
<polygon fill="#191970" stroke="#191970" points="319.2921,-110.3266 316.3138,-100.159 312.3014,-109.9647 319.2921,-110.3266"/>
</g>
<!-- Node2056 -->
<g id="node7" class="node">
<title>Node2056</title>
<g id="a_node7"><a xlink:href="../../d3/dc5/classxpath__ast__node.html#abb6e4c529276eaf882233dbb6e04e111" target="_top" xlink:title="xpath_ast_node::compare_rel">
<polygon fill="#ffffff" stroke="#000000" points="440,-.5 440,-19.5 601,-19.5 601,-.5 440,-.5"/>
<text text-anchor="middle" x="520.5" y="-7.5" font-family="Helvetica,sans-Serif" font-size="10.00" fill="#000000">xpath_ast_node::compare_rel</text>
</a>
</g>
</g>
<!-- Node2055&#45;&gt;Node2056 -->
<g id="edge9" class="edge">
<title>Node2055&#45;&gt;Node2056</title>
<path fill="none" stroke="#191970" d="M394.1576,-65.5158C397.5505,-63.7709 400.8629,-61.9294 404,-60 421.9855,-48.9388 421.1878,-38.5879 440,-29 447.5484,-25.1529 455.8933,-22.0698 464.2666,-19.603"/>
<polygon fill="#191970" stroke="#191970" points="392.542,-62.4091 385.053,-69.9035 395.581,-68.7151 392.542,-62.4091"/>
</g>
<!-- Node2057 -->
<g id="node8" class="node">
<title>Node2057</title>
<g id="a_node8"><a xlink:href="../../d3/dc5/classxpath__ast__node.html#abf2d4b745493f63aebc1c89d9fde8eed" target="_top" xlink:title="xpath_ast_node::apply\l_predicate_number">
<polygon fill="#ffffff" stroke="#000000" points="457,-88 457,-118 584,-118 584,-88 457,-88"/>
<text text-anchor="start" x="465" y="-106" font-family="Helvetica,sans-Serif" font-size="10.00" fill="#000000">xpath_ast_node::apply</text>
<text text-anchor="middle" x="520.5" y="-95" font-family="Helvetica,sans-Serif" font-size="10.00" fill="#000000">_predicate_number</text>
</a>
</g>
</g>
<!-- Node2055&#45;&gt;Node2057 -->
<g id="edge10" class="edge">
<title>Node2055&#45;&gt;Node2057</title>
<path fill="none" stroke="#191970" d="M414.4653,-92.2168C428.4464,-93.6386 443.0358,-95.1223 456.7611,-96.5181"/>
<polygon fill="#191970" stroke="#191970" points="414.7162,-88.7244 404.4134,-91.1946 414.0079,-95.6884 414.7162,-88.7244"/>
</g>
<!-- Node2058 -->
<g id="node9" class="node">
<title>Node2058</title>
<g id="a_node9"><a xlink:href="../../d3/dc5/classxpath__ast__node.html#a8cedd7e15623b9fa431788b8843f1463" target="_top" xlink:title="xpath_ast_node::apply\l_predicate_number_const">
<polygon fill="#ffffff" stroke="#000000" points="449.5,-39 449.5,-69 591.5,-69 591.5,-39 449.5,-39"/>
<text text-anchor="start" x="457.5" y="-57" font-family="Helvetica,sans-Serif" font-size="10.00" fill="#000000">xpath_ast_node::apply</text>
<text text-anchor="middle" x="520.5" y="-46" font-family="Helvetica,sans-Serif" font-size="10.00" fill="#000000">_predicate_number_const</text>
</a>
</g>
</g>
<!-- Node2055&#45;&gt;Node2058 -->
<g id="edge11" class="edge">
<title>Node2055&#45;&gt;Node2058</title>
<path fill="none" stroke="#191970" d="M414.4171,-72.5795C425.9457,-70.5604 437.8892,-68.4686 449.4217,-66.4487"/>
<polygon fill="#191970" stroke="#191970" points="413.6596,-69.1588 404.4134,-74.3316 414.8673,-76.0538 413.6596,-69.1588"/>
</g>
</g>
</svg>
