<?xml version="1.0" encoding="UTF-8" standalone="no"?>
<!DOCTYPE svg PUBLIC "-//W3C//DTD SVG 1.1//EN"
 "http://www.w3.org/Graphics/SVG/1.1/DTD/svg11.dtd">
<!-- Generated by graphviz version 2.40.1 (20161225.0304)
 -->
<!-- Title: round_nearest_nzero Pages: 1 -->
<!--zoomable 245 -->
<svg id="main" version="1.1" xmlns="http://www.w3.org/2000/svg" xmlns:xlink="http://www.w3.org/1999/xlink" xml:space="preserve" onload="init(evt)">
<style type="text/css"><![CDATA[
.edge:hover path { stroke: red; }
.edge:hover polygon { stroke: red; fill: red; }
]]></style>
<script type="text/javascript"><![CDATA[
var edges = document.getElementsByTagName('g');
if (edges && edges.length) {
  for (var i=0;i<edges.length;i++) {
    if (edges[i].id.substr(0,4)=='edge') {
      edges[i].setAttribute('class','edge');
    }
  }
}
]]></script>
        <defs>
                <circle id="rim" cx="0" cy="0" r="7"/>
                <circle id="rim2" cx="0" cy="0" r="3.5"/>
                <g id="zoomPlus">
                        <use xlink:href="#rim" fill="#404040">
                                <set attributeName="fill" to="#808080" begin="zoomplus.mouseover" end="zoomplus.mouseout"/>
                        </use>
                        <path d="M-4,0h8M0,-4v8" fill="none" stroke="white" stroke-width="1.5" pointer-events="none"/>
                </g>
                <g id="zoomMin">
                        <use xlink:href="#rim" fill="#404040">
                                <set attributeName="fill" to="#808080" begin="zoomminus.mouseover" end="zoomminus.mouseout"/>
                        </use>
                        <path d="M-4,0h8" fill="none" stroke="white" stroke-width="1.5" pointer-events="none"/>
                </g>
                <g id="dirArrow">
                        <path fill="none" stroke="white" stroke-width="1.5" d="M0,-3.0v7 M-2.5,-0.5L0,-3.0L2.5,-0.5"/>
                </g>
               <g id="resetDef">
                       <use xlink:href="#rim2" fill="#404040">
                               <set attributeName="fill" to="#808080" begin="reset.mouseover" end="reset.mouseout"/>
                       </use>
               </g>
        </defs>

<script type="text/javascript">
var viewWidth = 834;
var viewHeight = 245;
var sectionId = 'dynsection-169';
</script>
<script xlink:href="../../svgpan.js"/>
<svg id="graph" class="graph">
<g id="viewport">
<title>round_nearest_nzero</title>
<polygon fill="#ffffff" stroke="transparent" points="-4,4 -4,-240.6554 830,-240.6554 830,4 -4,4"/>
<!-- Node1547 -->
<g id="node1" class="node">
<title>Node1547</title>
<polygon fill="#bfbfbf" stroke="#000000" points="0,-121 0,-140 119,-140 119,-121 0,-121"/>
<text text-anchor="middle" x="59.5" y="-128" font-family="Helvetica,sans-Serif" font-size="10.00" fill="#000000">round_nearest_nzero</text>
</g>
<!-- Node1548 -->
<g id="node2" class="node">
<title>Node1548</title>
<g id="a_node2"><a xlink:href="../../d3/dc5/classxpath__ast__node.html#a92dd7048e28d486bc7f382d1fc6f1de6" target="_top" xlink:title="xpath_ast_node::eval\l_number">
<polygon fill="#ffffff" stroke="#000000" points="155,-115.5 155,-145.5 276,-145.5 276,-115.5 155,-115.5"/>
<text text-anchor="start" x="163" y="-133.5" font-family="Helvetica,sans-Serif" font-size="10.00" fill="#000000">xpath_ast_node::eval</text>
<text text-anchor="middle" x="215.5" y="-122.5" font-family="Helvetica,sans-Serif" font-size="10.00" fill="#000000">_number</text>
</a>
</g>
</g>
<!-- Node1547&#45;&gt;Node1548 -->
<g id="edge1" class="edge">
<title>Node1547&#45;&gt;Node1548</title>
<path fill="none" stroke="#191970" d="M129.5419,-130.5C137.9557,-130.5 146.4943,-130.5 154.7606,-130.5"/>
<polygon fill="#191970" stroke="#191970" points="129.3676,-127.0001 119.3675,-130.5 129.3675,-134.0001 129.3676,-127.0001"/>
</g>
<!-- Node1548&#45;&gt;Node1548 -->
<g id="edge6" class="edge">
<title>Node1548&#45;&gt;Node1548</title>
<path fill="none" stroke="#191970" d="M187.7807,-155.9579C191.221,-160.679 200.4608,-164 215.5,-164 240.1797,-164 249.2418,-155.0566 242.6862,-145.659"/>
<polygon fill="#191970" stroke="#191970" points="191.2921,-155.8266 188.3138,-145.659 184.3014,-155.4647 191.2921,-155.8266"/>
</g>
<!-- Node1549 -->
<g id="node3" class="node">
<title>Node1549</title>
<g id="a_node3"><a xlink:href="../../d3/dc5/classxpath__ast__node.html#a98dd7f6e67fe2c56c63056eed835d6a4" target="_top" xlink:title="xpath_ast_node::compare_eq">
<polygon fill="#ffffff" stroke="#000000" points="666,-117 666,-136 826,-136 826,-117 666,-117"/>
<text text-anchor="middle" x="746" y="-124" font-family="Helvetica,sans-Serif" font-size="10.00" fill="#000000">xpath_ast_node::compare_eq</text>
</a>
</g>
</g>
<!-- Node1548&#45;&gt;Node1549 -->
<g id="edge2" class="edge">
<title>Node1548&#45;&gt;Node1549</title>
<path fill="none" stroke="#191970" d="M232.4044,-153.6143C249.6576,-175.0598 278.591,-205.5542 312,-218.5 468.2045,-279.0285 672.2603,-170.2969 730.1035,-136.2235"/>
<polygon fill="#191970" stroke="#191970" points="235.0766,-151.3494 226.168,-145.6147 229.556,-155.6532 235.0766,-151.3494"/>
</g>
<!-- Node1550 -->
<g id="node4" class="node">
<title>Node1550</title>
<g id="a_node4"><a xlink:href="../../d3/dc5/classxpath__ast__node.html#abb6e4c529276eaf882233dbb6e04e111" target="_top" xlink:title="xpath_ast_node::compare_rel">
<polygon fill="#ffffff" stroke="#000000" points="312,-190 312,-209 473,-209 473,-190 312,-190"/>
<text text-anchor="middle" x="392.5" y="-197" font-family="Helvetica,sans-Serif" font-size="10.00" fill="#000000">xpath_ast_node::compare_rel</text>
</a>
</g>
</g>
<!-- Node1548&#45;&gt;Node1550 -->
<g id="edge3" class="edge">
<title>Node1548&#45;&gt;Node1550</title>
<path fill="none" stroke="#191970" d="M249.4987,-150.7373C267.5718,-160.8133 290.4549,-172.5152 312,-180.5 321.9639,-184.1927 332.8938,-187.3382 343.3986,-189.9442"/>
<polygon fill="#191970" stroke="#191970" points="250.9438,-147.5332 240.5187,-145.6447 247.4907,-153.6223 250.9438,-147.5332"/>
</g>
<!-- Node1551 -->
<g id="node5" class="node">
<title>Node1551</title>
<g id="a_node5"><a xlink:href="../../d3/dc5/classxpath__ast__node.html#abf2d4b745493f63aebc1c89d9fde8eed" target="_top" xlink:title="xpath_ast_node::apply\l_predicate_number">
<polygon fill="#ffffff" stroke="#000000" points="329,-140.5 329,-170.5 456,-170.5 456,-140.5 329,-140.5"/>
<text text-anchor="start" x="337" y="-158.5" font-family="Helvetica,sans-Serif" font-size="10.00" fill="#000000">xpath_ast_node::apply</text>
<text text-anchor="middle" x="392.5" y="-147.5" font-family="Helvetica,sans-Serif" font-size="10.00" fill="#000000">_predicate_number</text>
</a>
</g>
</g>
<!-- Node1548&#45;&gt;Node1551 -->
<g id="edge4" class="edge">
<title>Node1548&#45;&gt;Node1551</title>
<path fill="none" stroke="#191970" d="M286.4653,-140.5233C300.4464,-142.4981 315.0358,-144.5587 328.7611,-146.4973"/>
<polygon fill="#191970" stroke="#191970" points="286.8046,-137.0366 276.4134,-139.1036 285.8256,-143.9678 286.8046,-137.0366"/>
</g>
<!-- Node1552 -->
<g id="node6" class="node">
<title>Node1552</title>
<g id="a_node6"><a xlink:href="../../d3/dc5/classxpath__ast__node.html#a8cedd7e15623b9fa431788b8843f1463" target="_top" xlink:title="xpath_ast_node::apply\l_predicate_number_const">
<polygon fill="#ffffff" stroke="#000000" points="321.5,-91.5 321.5,-121.5 463.5,-121.5 463.5,-91.5 321.5,-91.5"/>
<text text-anchor="start" x="329.5" y="-109.5" font-family="Helvetica,sans-Serif" font-size="10.00" fill="#000000">xpath_ast_node::apply</text>
<text text-anchor="middle" x="392.5" y="-98.5" font-family="Helvetica,sans-Serif" font-size="10.00" fill="#000000">_predicate_number_const</text>
</a>
</g>
</g>
<!-- Node1548&#45;&gt;Node1552 -->
<g id="edge5" class="edge">
<title>Node1548&#45;&gt;Node1552</title>
<path fill="none" stroke="#191970" d="M286.4171,-120.8841C297.9457,-119.3209 309.8892,-117.7015 321.4217,-116.1377"/>
<polygon fill="#191970" stroke="#191970" points="285.8524,-117.4286 276.4134,-122.2406 286.793,-124.3651 285.8524,-117.4286"/>
</g>
<!-- Node1553 -->
<g id="node7" class="node">
<title>Node1553</title>
<g id="a_node7"><a xlink:href="../../d3/dc5/classxpath__ast__node.html#a6b675237a590548b68d0e0b97518b6df" target="_top" xlink:title="xpath_ast_node::eval\l_string">
<polygon fill="#ffffff" stroke="#000000" points="332,-24.5 332,-54.5 453,-54.5 453,-24.5 332,-24.5"/>
<text text-anchor="start" x="340" y="-42.5" font-family="Helvetica,sans-Serif" font-size="10.00" fill="#000000">xpath_ast_node::eval</text>
<text text-anchor="middle" x="392.5" y="-31.5" font-family="Helvetica,sans-Serif" font-size="10.00" fill="#000000">_string</text>
</a>
</g>
</g>
<!-- Node1548&#45;&gt;Node1553 -->
<g id="edge7" class="edge">
<title>Node1548&#45;&gt;Node1553</title>
<path fill="none" stroke="#191970" d="M245.0574,-110.1164C274.305,-93.2174 319.3011,-69.886 351.8944,-54.5955"/>
<polygon fill="#191970" stroke="#191970" points="242.9933,-107.27 236.1506,-115.3587 246.544,-113.3027 242.9933,-107.27"/>
</g>
<!-- Node1553&#45;&gt;Node1548 -->
<g id="edge13" class="edge">
<title>Node1553&#45;&gt;Node1548</title>
<path fill="none" stroke="#191970" d="M362.9666,-59.8697C333.7202,-76.7695 288.7094,-100.109 256.1074,-115.4037"/>
<polygon fill="#191970" stroke="#191970" points="365.0301,-62.7165 371.8725,-54.6274 361.4792,-56.6839 365.0301,-62.7165"/>
</g>
<!-- Node1553&#45;&gt;Node1549 -->
<g id="edge8" class="edge">
<title>Node1553&#45;&gt;Node1549</title>
<path fill="none" stroke="#191970" d="M432.7851,-59.2554C445.8108,-65.9759 460.1923,-73.7539 473,-81.5 489.6683,-91.5809 490.6721,-99.9013 509,-106.5 559.1175,-124.5441 618.9053,-129.4816 665.8917,-129.9397"/>
<polygon fill="#191970" stroke="#191970" points="434.0807,-55.9873 423.5818,-54.5642 430.9017,-62.2238 434.0807,-55.9873"/>
</g>
<!-- Node1553&#45;&gt;Node1553 -->
<g id="edge15" class="edge">
<title>Node1553&#45;&gt;Node1553</title>
<path fill="none" stroke="#191970" d="M361.2269,-64.9579C365.1084,-69.679 375.5327,-73 392.5,-73 420.3438,-73 430.5676,-64.0566 423.1716,-54.659"/>
<polygon fill="#191970" stroke="#191970" points="364.7393,-64.8461 361.8284,-54.659 357.7512,-64.4379 364.7393,-64.8461"/>
</g>
<!-- Node1554 -->
<g id="node8" class="node">
<title>Node1554</title>
<g id="a_node8"><a xlink:href="../../d3/dc5/classxpath__ast__node.html#ab7f965a92023bc2704b8e6fd9f3d7c14" target="_top" xlink:title="xpath_ast_node::eval\l_boolean">
<polygon fill="#ffffff" stroke="#000000" points="509,-49.5 509,-79.5 630,-79.5 630,-49.5 509,-49.5"/>
<text text-anchor="start" x="517" y="-67.5" font-family="Helvetica,sans-Serif" font-size="10.00" fill="#000000">xpath_ast_node::eval</text>
<text text-anchor="middle" x="569.5" y="-56.5" font-family="Helvetica,sans-Serif" font-size="10.00" fill="#000000">_boolean</text>
</a>
</g>
</g>
<!-- Node1553&#45;&gt;Node1554 -->
<g id="edge9" class="edge">
<title>Node1553&#45;&gt;Node1554</title>
<path fill="none" stroke="#191970" d="M463.6364,-49.5475C478.5939,-51.6602 494.2402,-53.8701 508.7743,-55.9229"/>
<polygon fill="#191970" stroke="#191970" points="463.8046,-46.0366 453.4134,-48.1036 462.8256,-52.9678 463.8046,-46.0366"/>
</g>
<!-- Node1556 -->
<g id="node10" class="node">
<title>Node1556</title>
<g id="a_node10"><a xlink:href="../../d3/dc5/classxpath__ast__node.html#aaf931a091af0fb91c25e90b205363b4e" target="_top" xlink:title="xpath_ast_node::eval\l_string_concat">
<polygon fill="#ffffff" stroke="#000000" points="509,-.5 509,-30.5 630,-30.5 630,-.5 509,-.5"/>
<text text-anchor="start" x="517" y="-18.5" font-family="Helvetica,sans-Serif" font-size="10.00" fill="#000000">xpath_ast_node::eval</text>
<text text-anchor="middle" x="569.5" y="-7.5" font-family="Helvetica,sans-Serif" font-size="10.00" fill="#000000">_string_concat</text>
</a>
</g>
</g>
<!-- Node1553&#45;&gt;Node1556 -->
<g id="edge14" class="edge">
<title>Node1553&#45;&gt;Node1556</title>
<path fill="none" stroke="#191970" d="M463.6364,-29.8544C478.5939,-27.8263 494.2402,-25.7047 508.7743,-23.734"/>
<polygon fill="#191970" stroke="#191970" points="462.8524,-26.4286 453.4134,-31.2406 463.793,-33.3651 462.8524,-26.4286"/>
</g>
<!-- Node1554&#45;&gt;Node1549 -->
<g id="edge10" class="edge">
<title>Node1554&#45;&gt;Node1549</title>
<path fill="none" stroke="#191970" d="M621.8392,-82.8854C653.6686,-94.0663 693.0121,-107.8867 718.7695,-116.9346"/>
<polygon fill="#191970" stroke="#191970" points="622.8206,-79.5206 612.2257,-79.5085 620.5006,-86.1249 622.8206,-79.5206"/>
</g>
<!-- Node1554&#45;&gt;Node1554 -->
<g id="edge12" class="edge">
<title>Node1554&#45;&gt;Node1554</title>
<path fill="none" stroke="#191970" d="M538.2269,-89.9579C542.1084,-94.679 552.5327,-98 569.5,-98 597.3438,-98 607.5676,-89.0566 600.1716,-79.659"/>
<polygon fill="#191970" stroke="#191970" points="541.7393,-89.8461 538.8284,-79.659 534.7512,-89.4379 541.7393,-89.8461"/>
</g>
<!-- Node1555 -->
<g id="node9" class="node">
<title>Node1555</title>
<g id="a_node9"><a xlink:href="../../d3/dc5/classxpath__ast__node.html#ab4e5bbd3f2e83c86a43349374b4bfc22" target="_top" xlink:title="xpath_ast_node::apply\l_predicate_boolean">
<polygon fill="#ffffff" stroke="#000000" points="682.5,-49.5 682.5,-79.5 809.5,-79.5 809.5,-49.5 682.5,-49.5"/>
<text text-anchor="start" x="690.5" y="-67.5" font-family="Helvetica,sans-Serif" font-size="10.00" fill="#000000">xpath_ast_node::apply</text>
<text text-anchor="middle" x="746" y="-56.5" font-family="Helvetica,sans-Serif" font-size="10.00" fill="#000000">_predicate_boolean</text>
</a>
</g>
</g>
<!-- Node1554&#45;&gt;Node1555 -->
<g id="edge11" class="edge">
<title>Node1554&#45;&gt;Node1555</title>
<path fill="none" stroke="#191970" d="M640.2648,-64.5C654.2065,-64.5 668.7547,-64.5 682.4412,-64.5"/>
<polygon fill="#191970" stroke="#191970" points="640.2413,-61.0001 630.2413,-64.5 640.2413,-68.0001 640.2413,-61.0001"/>
</g>
</g>
</svg>
        <g id="navigator" transform="translate(0 0)" fill="#404254">
                <rect fill="#f2f5e9" fill-opacity="0.5" stroke="#606060" stroke-width=".5" x="0" y="0" width="60" height="60"/>
                <use id="zoomplus" xlink:href="#zoomPlus" x="17" y="9" onmousedown="handleZoom(evt,'in')"/>
                <use id="zoomminus" xlink:href="#zoomMin" x="42" y="9" onmousedown="handleZoom(evt,'out')"/>
                <use id="reset" xlink:href="#resetDef" x="30" y="36" onmousedown="handleReset()"/>
                <g id="arrowUp" xlink:href="#dirArrow" transform="translate(30 24)" onmousedown="handlePan(0,-1)">
                  <use xlink:href="#rim" fill="#404040">
                        <set attributeName="fill" to="#808080" begin="arrowUp.mouseover" end="arrowUp.mouseout"/>
                  </use>
                  <path fill="none" stroke="white" stroke-width="1.5" d="M0,-3.0v7 M-2.5,-0.5L0,-3.0L2.5,-0.5"/>
                </g>
                <g id="arrowRight" xlink:href="#dirArrow" transform="rotate(90) translate(36 -43)" onmousedown="handlePan(1,0)">
                  <use xlink:href="#rim" fill="#404040">
                        <set attributeName="fill" to="#808080" begin="arrowRight.mouseover" end="arrowRight.mouseout"/>
                  </use>
                  <path fill="none" stroke="white" stroke-width="1.5" d="M0,-3.0v7 M-2.5,-0.5L0,-3.0L2.5,-0.5"/>
                </g>
                <g id="arrowDown" xlink:href="#dirArrow" transform="rotate(180) translate(-30 -48)" onmousedown="handlePan(0,1)">
                  <use xlink:href="#rim" fill="#404040">
                        <set attributeName="fill" to="#808080" begin="arrowDown.mouseover" end="arrowDown.mouseout"/>
                  </use>
                  <path fill="none" stroke="white" stroke-width="1.5" d="M0,-3.0v7 M-2.5,-0.5L0,-3.0L2.5,-0.5"/>
                </g>
                <g id="arrowLeft" xlink:href="#dirArrow" transform="rotate(270) translate(-36 17)" onmousedown="handlePan(-1,0)">
                  <use xlink:href="#rim" fill="#404040">
                        <set attributeName="fill" to="#808080" begin="arrowLeft.mouseover" end="arrowLeft.mouseout"/>
                  </use>
                  <path fill="none" stroke="white" stroke-width="1.5" d="M0,-3.0v7 M-2.5,-0.5L0,-3.0L2.5,-0.5"/>
                </g>
        </g>
        <svg viewBox="0 0 15 15" width="100%" height="30px" preserveAspectRatio="xMaxYMin meet">
         <g id="arrow_out" transform="scale(0.3 0.3)">
          <a xlink:href="pugixml_8cpp_a08148576c17009ae574e2fc8cd3d17a9_icgraph_org.svg" target="_base">
           <rect id="button" ry="5" rx="5" y="6" x="6" height="38" width="38"
                fill="#f2f5e9" fill-opacity="0.5" stroke="#606060" stroke-width="1.0"/>
           <path id="arrow"
             d="M 11.500037,31.436501 C 11.940474,20.09759 22.043105,11.32322 32.158766,21.979434 L 37.068811,17.246167 C 37.068811,17.246167 37.088388,32 37.088388,32 L 22.160133,31.978069 C 22.160133,31.978069 26.997745,27.140456 26.997745,27.140456 C 18.528582,18.264221 13.291696,25.230495 11.500037,31.436501 z"
             style="fill:#404040;"/>
          </a>
         </g>
        </svg>
</svg>
