<?xml version="1.0" encoding="UTF-8" standalone="no"?>
<!DOCTYPE svg PUBLIC "-//W3C//DTD SVG 1.1//EN"
 "http://www.w3.org/Graphics/SVG/1.1/DTD/svg11.dtd">
<!-- Generated by graphviz version 2.43.0 (0)
 -->
<!-- Title: string_value Pages: 1 -->
<svg width="596pt" height="116pt"
 viewBox="0.00 0.00 596.00 115.50" xmlns="http://www.w3.org/2000/svg" xmlns:xlink="http://www.w3.org/1999/xlink">
<g id="graph0" class="graph" transform="scale(1 1) rotate(0) translate(4 111.5)">
<title>string_value</title>
<polygon fill="white" stroke="transparent" points="-4,4 -4,-111.5 592,-111.5 592,4 -4,4"/>
<!-- Node1 -->
<g id="node1" class="node">
<title>Node1</title>
<g id="a_node1"><a xlink:title=" ">
<polygon fill="#bfbfbf" stroke="black" points="0,-28 0,-47 77,-47 77,-28 0,-28"/>
<text text-anchor="middle" x="38.5" y="-35" font-family="Helvetica,sans-Serif" font-size="10.00">string_value</text>
</a>
</g>
</g>
<!-- Node2 -->
<g id="node2" class="node">
<title>Node2</title>
<g id="a_node2"><a xlink:href="../../dd/d5c/classxpath__string.html#aab0d867c56d390213cf0fbe7334e1cc0" target="_top" xlink:title=" ">
<polygon fill="white" stroke="black" points="113,-50 113,-69 232,-69 232,-50 113,-50"/>
<text text-anchor="middle" x="172.5" y="-57" font-family="Helvetica,sans-Serif" font-size="10.00">xpath_string::append</text>
</a>
</g>
</g>
<!-- Node1&#45;&gt;Node2 -->
<g id="edge1" class="edge">
<title>Node1&#45;&gt;Node2</title>
<path fill="none" stroke="midnightblue" d="M77.33,-43.8C85.83,-45.22 95.1,-46.77 104.4,-48.32"/>
<polygon fill="midnightblue" stroke="midnightblue" points="104.03,-51.8 114.47,-50 105.18,-44.9 104.03,-51.8"/>
</g>
<!-- Node7 -->
<g id="node7" class="node">
<title>Node7</title>
<g id="a_node7"><a xlink:href="../../dd/d5c/classxpath__string.html#a6dce01c6b3a949c3c4c886e6be44931e" target="_top" xlink:title=" ">
<polygon fill="white" stroke="black" points="119,-0.5 119,-30.5 226,-30.5 226,-0.5 119,-0.5"/>
<text text-anchor="start" x="127" y="-18.5" font-family="Helvetica,sans-Serif" font-size="10.00">xpath_string::from</text>
<text text-anchor="middle" x="172.5" y="-7.5" font-family="Helvetica,sans-Serif" font-size="10.00">_const</text>
</a>
</g>
</g>
<!-- Node1&#45;&gt;Node7 -->
<g id="edge6" class="edge">
<title>Node1&#45;&gt;Node7</title>
<path fill="none" stroke="midnightblue" d="M77.33,-31.2C87.24,-29.54 98.2,-27.72 109.03,-25.91"/>
<polygon fill="midnightblue" stroke="midnightblue" points="109.63,-29.36 118.91,-24.26 108.47,-22.46 109.63,-29.36"/>
</g>
<!-- Node3 -->
<g id="node3" class="node">
<title>Node3</title>
<g id="a_node3"><a xlink:href="../../dd/d5c/classxpath__string.html#a8469bd7512df66adabd3f5144c4b2ef7" target="_top" xlink:title=" ">
<polygon fill="white" stroke="black" points="284.5,-88 284.5,-107 398.5,-107 398.5,-88 284.5,-88"/>
<text text-anchor="middle" x="341.5" y="-95" font-family="Helvetica,sans-Serif" font-size="10.00">xpath_string::length</text>
</a>
</g>
</g>
<!-- Node2&#45;&gt;Node3 -->
<g id="edge2" class="edge">
<title>Node2&#45;&gt;Node3</title>
<path fill="none" stroke="midnightblue" d="M215.64,-69.09C237.88,-74.15 265.35,-80.4 288.86,-85.75"/>
<polygon fill="midnightblue" stroke="midnightblue" points="288.13,-89.17 298.66,-87.98 289.69,-82.35 288.13,-89.17"/>
</g>
<!-- Node5 -->
<g id="node5" class="node">
<title>Node5</title>
<g id="a_node5"><a xlink:href="../../d3/d89/structxpath__allocator.html#a4dd502389202ec8e7420832112a571e5" target="_top" xlink:title=" ">
<polygon fill="white" stroke="black" points="268,-50 268,-69 415,-69 415,-50 268,-50"/>
<text text-anchor="middle" x="341.5" y="-57" font-family="Helvetica,sans-Serif" font-size="10.00">xpath_allocator::reallocate</text>
</a>
</g>
</g>
<!-- Node2&#45;&gt;Node5 -->
<g id="edge4" class="edge">
<title>Node2&#45;&gt;Node5</title>
<path fill="none" stroke="midnightblue" d="M232.38,-59.5C240.61,-59.5 249.2,-59.5 257.77,-59.5"/>
<polygon fill="midnightblue" stroke="midnightblue" points="257.81,-63 267.81,-59.5 257.81,-56 257.81,-63"/>
</g>
<!-- Node4 -->
<g id="node4" class="node">
<title>Node4</title>
<g id="a_node4"><a xlink:href="../../db/d20/pugixml_8cpp.html#aab9e1f034d085b663d146fcceabb1c48" target="_top" xlink:title=" ">
<polygon fill="white" stroke="black" points="489.5,-88 489.5,-107 549.5,-107 549.5,-88 489.5,-88"/>
<text text-anchor="middle" x="519.5" y="-95" font-family="Helvetica,sans-Serif" font-size="10.00">strlength</text>
</a>
</g>
</g>
<!-- Node3&#45;&gt;Node4 -->
<g id="edge3" class="edge">
<title>Node3&#45;&gt;Node4</title>
<path fill="none" stroke="midnightblue" d="M398.67,-97.5C424.96,-97.5 455.63,-97.5 479.36,-97.5"/>
<polygon fill="midnightblue" stroke="midnightblue" points="479.4,-101 489.4,-97.5 479.4,-94 479.4,-101"/>
</g>
<!-- Node6 -->
<g id="node6" class="node">
<title>Node6</title>
<g id="a_node6"><a xlink:href="../../d3/d89/structxpath__allocator.html#aad95aa445f2fdc7c3d1c19b1f3d67cb1" target="_top" xlink:title=" ">
<polygon fill="white" stroke="black" points="451,-50 451,-69 588,-69 588,-50 451,-50"/>
<text text-anchor="middle" x="519.5" y="-57" font-family="Helvetica,sans-Serif" font-size="10.00">xpath_allocator::allocate</text>
</a>
</g>
</g>
<!-- Node5&#45;&gt;Node6 -->
<g id="edge5" class="edge">
<title>Node5&#45;&gt;Node6</title>
<path fill="none" stroke="midnightblue" d="M415.1,-59.5C423.52,-59.5 432.13,-59.5 440.61,-59.5"/>
<polygon fill="midnightblue" stroke="midnightblue" points="440.87,-63 450.87,-59.5 440.87,-56 440.87,-63"/>
</g>
<!-- Node8 -->
<g id="node8" class="node">
<title>Node8</title>
<g id="a_node8"><a xlink:href="../../dd/d5c/classxpath__string.html#a6c415f55011c6b816446d7454d1e9d2c" target="_top" xlink:title=" ">
<polygon fill="white" stroke="black" points="286,-0.5 286,-30.5 397,-30.5 397,-0.5 286,-0.5"/>
<text text-anchor="start" x="294" y="-18.5" font-family="Helvetica,sans-Serif" font-size="10.00">xpath_string::xpath</text>
<text text-anchor="middle" x="341.5" y="-7.5" font-family="Helvetica,sans-Serif" font-size="10.00">_string</text>
</a>
</g>
</g>
<!-- Node7&#45;&gt;Node8 -->
<g id="edge7" class="edge">
<title>Node7&#45;&gt;Node8</title>
<path fill="none" stroke="midnightblue" d="M226.34,-15.5C242.09,-15.5 259.52,-15.5 275.93,-15.5"/>
<polygon fill="midnightblue" stroke="midnightblue" points="275.99,-19 285.99,-15.5 275.99,-12 275.99,-19"/>
</g>
</g>
</svg>
