<?xml version="1.0" encoding="UTF-8" standalone="no"?>
<!DOCTYPE svg PUBLIC "-//W3C//DTD SVG 1.1//EN"
 "http://www.w3.org/Graphics/SVG/1.1/DTD/svg11.dtd">
<!-- Generated by graphviz version 2.38.0 (20140413.2041)
 -->
<!-- Title: load_file_impl Pages: 1 -->
<svg width="315pt" height="39pt"
 viewBox="0.00 0.00 315.00 39.00" xmlns="http://www.w3.org/2000/svg" xmlns:xlink="http://www.w3.org/1999/xlink">
<g id="graph0" class="graph" transform="scale(1 1) rotate(0) translate(4 35)">
<title>load_file_impl</title>
<polygon fill="white" stroke="none" points="-4,4 -4,-35 311,-35 311,4 -4,4"/>
<!-- Node1 -->
<g id="node1" class="node"><title>Node1</title>
<polygon fill="#bfbfbf" stroke="black" points="0,-6 0,-25 81,-25 81,-6 0,-6"/>
<text text-anchor="middle" x="40.5" y="-13" font-family="Helvetica,sans-Serif" font-size="10.00">load_file_impl</text>
</g>
<!-- Node2 -->
<g id="node2" class="node"><title>Node2</title>
<g id="a_node2"><a xlink:href="../../d8/d8d/classpugi_1_1xml__document.html#aad350209a4a91589fbd7e8cdaf79e010" target="_top" xlink:title="pugi::xml_document\l::load_file">
<polygon fill="white" stroke="black" points="117,-0.5 117,-30.5 231,-30.5 231,-0.5 117,-0.5"/>
<text text-anchor="start" x="125" y="-18.5" font-family="Helvetica,sans-Serif" font-size="10.00">pugi::xml_document</text>
<text text-anchor="middle" x="174" y="-7.5" font-family="Helvetica,sans-Serif" font-size="10.00">::load_file</text>
</a>
</g>
</g>
<!-- Node1&#45;&gt;Node2 -->
<g id="edge1" class="edge"><title>Node1&#45;&gt;Node2</title>
<path fill="none" stroke="midnightblue" d="M91.5484,-15.5C99.8123,-15.5 108.428,-15.5 116.83,-15.5"/>
<polygon fill="midnightblue" stroke="midnightblue" points="91.3112,-12.0001 81.3112,-15.5 91.3112,-19.0001 91.3112,-12.0001"/>
</g>
<!-- Node3 -->
<g id="node3" class="node"><title>Node3</title>
<g id="a_node3"><a xlink:href="../../d1/dc0/test__opendrive_8cpp.html#ad3c77eb93e568426e72ddb84a31031a7" target="_top" xlink:title="TEST">
<polygon fill="white" stroke="black" points="267,-6 267,-25 307,-25 307,-6 267,-6"/>
<text text-anchor="middle" x="287" y="-13" font-family="Helvetica,sans-Serif" font-size="10.00">TEST</text>
</a>
</g>
</g>
<!-- Node2&#45;&gt;Node3 -->
<g id="edge2" class="edge"><title>Node2&#45;&gt;Node3</title>
<path fill="none" stroke="midnightblue" d="M241.372,-15.5C250.687,-15.5 259.576,-15.5 266.934,-15.5"/>
<polygon fill="midnightblue" stroke="midnightblue" points="241.15,-12.0001 231.15,-15.5 241.15,-19.0001 241.15,-12.0001"/>
</g>
</g>
</svg>
