<?xml version="1.0" encoding="UTF-8" standalone="no"?>
<!DOCTYPE svg PUBLIC "-//W3C//DTD SVG 1.1//EN"
 "http://www.w3.org/Graphics/SVG/1.1/DTD/svg11.dtd">
<!-- Generated by graphviz version 2.38.0 (20140413.2041)
 -->
<!-- Title: strcpy_insitu_allow Pages: 1 -->
<!--zoomable 804 -->
<svg id="main" version="1.1" xmlns="http://www.w3.org/2000/svg" xmlns:xlink="http://www.w3.org/1999/xlink" xml:space="preserve" onload="init(evt)">
<style type="text/css"><![CDATA[
.edge:hover path { stroke: red; }
.edge:hover polygon { stroke: red; fill: red; }
]]></style>
<script type="text/javascript"><![CDATA[
var edges = document.getElementsByTagName('g');
if (edges && edges.length) {
  for (var i=0;i<edges.length;i++) {
    if (edges[i].id.substr(0,4)=='edge') {
      edges[i].setAttribute('class','edge');
    }
  }
}
]]></script>
        <defs>
                <circle id="rim" cx="0" cy="0" r="7"/>
                <circle id="rim2" cx="0" cy="0" r="3.5"/>
                <g id="zoomPlus">
                        <use xlink:href="#rim" fill="#404040">
                                <set attributeName="fill" to="#808080" begin="zoomplus.mouseover" end="zoomplus.mouseout"/>
                        </use>
                        <path d="M-4,0h8M0,-4v8" fill="none" stroke="white" stroke-width="1.5" pointer-events="none"/>
                </g>
                <g id="zoomMin">
                        <use xlink:href="#rim" fill="#404040">
                                <set attributeName="fill" to="#808080" begin="zoomminus.mouseover" end="zoomminus.mouseout"/>
                        </use>
                        <path d="M-4,0h8" fill="none" stroke="white" stroke-width="1.5" pointer-events="none"/>
                </g>
                <g id="dirArrow">
                        <path fill="none" stroke="white" stroke-width="1.5" d="M0,-3.0v7 M-2.5,-0.5L0,-3.0L2.5,-0.5"/>
                </g>
               <g id="resetDef">
                       <use xlink:href="#rim2" fill="#404040">
                               <set attributeName="fill" to="#808080" begin="reset.mouseover" end="reset.mouseout"/>
                       </use>
               </g>
        </defs>

<script type="text/javascript">
var viewWidth = 974;
var viewHeight = 804;
var sectionId = 'dynsection-191';
</script>
<script xlink:href="../../svgpan.js"/>
<svg id="graph" class="graph">
<g id="viewport">
<title>strcpy_insitu_allow</title>
<polygon fill="white" stroke="none" points="-4,4 -4,-800 970,-800 970,4 -4,4"/>
<!-- Node1 -->
<g id="node1" class="node"><title>Node1</title>
<polygon fill="#bfbfbf" stroke="black" points="0,-187 0,-206 105,-206 105,-187 0,-187"/>
<text text-anchor="middle" x="52.5" y="-194" font-family="Helvetica,sans-Serif" font-size="10.00">strcpy_insitu_allow</text>
</g>
<!-- Node2 -->
<g id="node2" class="node"><title>Node2</title>
<g id="a_node2"><a xlink:href="../../db/d20/pugixml_8cpp.html#add4b0e8189d4e27898f1cf863cda4f80" target="_top" xlink:title="strcpy_insitu">
<polygon fill="white" stroke="black" points="141,-187 141,-206 218,-206 218,-187 141,-187"/>
<text text-anchor="middle" x="179.5" y="-194" font-family="Helvetica,sans-Serif" font-size="10.00">strcpy_insitu</text>
</a>
</g>
</g>
<!-- Node1&#45;&gt;Node2 -->
<g id="edge1" class="edge"><title>Node1&#45;&gt;Node2</title>
<path fill="none" stroke="midnightblue" d="M115.255,-196.5C123.978,-196.5 132.72,-196.5 140.803,-196.5"/>
<polygon fill="midnightblue" stroke="midnightblue" points="115.064,-193 105.064,-196.5 115.064,-200 115.064,-193"/>
</g>
<!-- Node3 -->
<g id="node3" class="node"><title>Node3</title>
<g id="a_node3"><a xlink:href="../../db/d20/pugixml_8cpp.html#a05e81501deb4a3abe96a3da900711eb6" target="_top" xlink:title="node_copy_string">
<polygon fill="white" stroke="black" points="275,-618 275,-637 376,-637 376,-618 275,-618"/>
<text text-anchor="middle" x="325.5" y="-625" font-family="Helvetica,sans-Serif" font-size="10.00">node_copy_string</text>
</a>
</g>
</g>
<!-- Node2&#45;&gt;Node3 -->
<g id="edge2" class="edge"><title>Node2&#45;&gt;Node3</title>
<path fill="none" stroke="midnightblue" d="M182.974,-216.167C189.756,-266.488 211.062,-403.416 254,-509.5 271.459,-552.635 303.226,-598.522 317.373,-617.941"/>
<polygon fill="midnightblue" stroke="midnightblue" points="186.417,-215.502 181.651,-206.04 179.476,-216.409 186.417,-215.502"/>
</g>
<!-- Node16 -->
<g id="node16" class="node"><title>Node16</title>
<g id="a_node16"><a xlink:href="../../d6/dd6/classpugi_1_1xml__text.html#ab31930ff4f5ad568549f85dbb697e60e" target="_top" xlink:title="pugi::xml_text::set">
<polygon fill="white" stroke="black" points="273,-225 273,-244 378,-244 378,-225 273,-225"/>
<text text-anchor="middle" x="325.5" y="-232" font-family="Helvetica,sans-Serif" font-size="10.00">pugi::xml_text::set</text>
</a>
</g>
</g>
<!-- Node2&#45;&gt;Node16 -->
<g id="edge15" class="edge"><title>Node2&#45;&gt;Node16</title>
<path fill="none" stroke="midnightblue" d="M226.672,-208.684C246.664,-213.96 269.719,-220.044 288.424,-224.98"/>
<polygon fill="midnightblue" stroke="midnightblue" points="227.399,-205.256 216.837,-206.089 225.613,-212.025 227.399,-205.256"/>
</g>
<!-- Node18 -->
<g id="node18" class="node"><title>Node18</title>
<g id="a_node18"><a xlink:href="../../de/d7c/classpugi_1_1xml__attribute.html#ae8ffb5ef48338f27015337a6f57b6595" target="_top" xlink:title="pugi::xml_attribute\l::set_name">
<polygon fill="white" stroke="black" points="272,-470.5 272,-500.5 379,-500.5 379,-470.5 272,-470.5"/>
<text text-anchor="start" x="280" y="-488.5" font-family="Helvetica,sans-Serif" font-size="10.00">pugi::xml_attribute</text>
<text text-anchor="middle" x="325.5" y="-477.5" font-family="Helvetica,sans-Serif" font-size="10.00">::set_name</text>
</a>
</g>
</g>
<!-- Node2&#45;&gt;Node18 -->
<g id="edge17" class="edge"><title>Node2&#45;&gt;Node18</title>
<path fill="none" stroke="midnightblue" d="M189.792,-215.149C216.404,-268.557 292.554,-421.386 316.91,-470.268"/>
<polygon fill="midnightblue" stroke="midnightblue" points="192.884,-213.505 185.291,-206.116 186.618,-216.627 192.884,-213.505"/>
</g>
<!-- Node23 -->
<g id="node23" class="node"><title>Node23</title>
<g id="a_node23"><a xlink:href="../../db/d65/classpugi_1_1xml__node.html#a9d688489fcf0960e945a12480419e434" target="_top" xlink:title="pugi::xml_node::set_name">
<polygon fill="white" stroke="black" points="254,-280 254,-299 397,-299 397,-280 254,-280"/>
<text text-anchor="middle" x="325.5" y="-287" font-family="Helvetica,sans-Serif" font-size="10.00">pugi::xml_node::set_name</text>
</a>
</g>
</g>
<!-- Node2&#45;&gt;Node23 -->
<g id="edge22" class="edge"><title>Node2&#45;&gt;Node23</title>
<path fill="none" stroke="midnightblue" d="M199.19,-212.58C213.633,-224.606 234.401,-241.052 254,-253.5 269.893,-263.595 288.966,-273.195 303.264,-279.939"/>
<polygon fill="midnightblue" stroke="midnightblue" points="201.376,-209.845 191.474,-206.074 196.863,-215.196 201.376,-209.845"/>
</g>
<!-- Node32 -->
<g id="node32" class="node"><title>Node32</title>
<g id="a_node32"><a xlink:href="../../de/d7c/classpugi_1_1xml__attribute.html#af2ca1f0d13ee8f661bc17524bedc13d7" target="_top" xlink:title="pugi::xml_attribute\l::set_value">
<polygon fill="white" stroke="black" points="272,-88.5 272,-118.5 379,-118.5 379,-88.5 272,-88.5"/>
<text text-anchor="start" x="280" y="-106.5" font-family="Helvetica,sans-Serif" font-size="10.00">pugi::xml_attribute</text>
<text text-anchor="middle" x="325.5" y="-95.5" font-family="Helvetica,sans-Serif" font-size="10.00">::set_value</text>
</a>
</g>
</g>
<!-- Node2&#45;&gt;Node32 -->
<g id="edge31" class="edge"><title>Node2&#45;&gt;Node32</title>
<path fill="none" stroke="midnightblue" d="M195.321,-178.846C209.115,-163.405 230.961,-141.341 254,-127.5 259.542,-124.171 265.608,-121.227 271.782,-118.644"/>
<polygon fill="midnightblue" stroke="midnightblue" points="192.454,-176.808 188.529,-186.649 197.735,-181.404 192.454,-176.808"/>
</g>
<!-- Node36 -->
<g id="node36" class="node"><title>Node36</title>
<g id="a_node36"><a xlink:href="../../db/d65/classpugi_1_1xml__node.html#a160f1fa7a0eda1e5ad9d19d45f6b0e4e" target="_top" xlink:title="pugi::xml_node::set\l_value">
<polygon fill="white" stroke="black" points="270.5,-137.5 270.5,-167.5 380.5,-167.5 380.5,-137.5 270.5,-137.5"/>
<text text-anchor="start" x="278.5" y="-155.5" font-family="Helvetica,sans-Serif" font-size="10.00">pugi::xml_node::set</text>
<text text-anchor="middle" x="325.5" y="-144.5" font-family="Helvetica,sans-Serif" font-size="10.00">_value</text>
</a>
</g>
</g>
<!-- Node2&#45;&gt;Node36 -->
<g id="edge35" class="edge"><title>Node2&#45;&gt;Node36</title>
<path fill="none" stroke="midnightblue" d="M221.734,-183.901C238.405,-178.807 257.786,-172.885 275.195,-167.565"/>
<polygon fill="midnightblue" stroke="midnightblue" points="220.287,-180.683 211.746,-186.953 222.332,-187.378 220.287,-180.683"/>
</g>
<!-- Node37 -->
<g id="node37" class="node"><title>Node37</title>
<g id="a_node37"><a xlink:href="../../db/d20/pugixml_8cpp.html#ac697150045f8a021e42c1c1a028740fd" target="_top" xlink:title="set_value_ascii">
<polygon fill="white" stroke="black" points="281,-50 281,-69 370,-69 370,-50 281,-50"/>
<text text-anchor="middle" x="325.5" y="-57" font-family="Helvetica,sans-Serif" font-size="10.00">set_value_ascii</text>
</a>
</g>
</g>
<!-- Node2&#45;&gt;Node37 -->
<g id="edge36" class="edge"><title>Node2&#45;&gt;Node37</title>
<path fill="none" stroke="midnightblue" d="M187.284,-177.238C197.558,-150.907 219.592,-104.037 254,-78.5 261.838,-72.6828 271.339,-68.6461 280.793,-65.8451"/>
<polygon fill="midnightblue" stroke="midnightblue" points="183.917,-176.25 183.706,-186.842 190.477,-178.694 183.917,-176.25"/>
</g>
<!-- Node41 -->
<g id="node41" class="node"><title>Node41</title>
<g id="a_node41"><a xlink:href="../../db/d20/pugixml_8cpp.html#a36fe7c523cde4627c23a7ae75ec7e954" target="_top" xlink:title="set_value_bool">
<polygon fill="white" stroke="black" points="281.5,-187 281.5,-206 369.5,-206 369.5,-187 281.5,-187"/>
<text text-anchor="middle" x="325.5" y="-194" font-family="Helvetica,sans-Serif" font-size="10.00">set_value_bool</text>
</a>
</g>
</g>
<!-- Node2&#45;&gt;Node41 -->
<g id="edge40" class="edge"><title>Node2&#45;&gt;Node41</title>
<path fill="none" stroke="midnightblue" d="M228.642,-196.5C245.677,-196.5 264.722,-196.5 281.32,-196.5"/>
<polygon fill="midnightblue" stroke="midnightblue" points="228.334,-193 218.334,-196.5 228.334,-200 228.334,-193"/>
</g>
<!-- Node42 -->
<g id="node42" class="node"><title>Node42</title>
<g id="a_node42"><a xlink:href="../../db/d20/pugixml_8cpp.html#a237750ca33ed3f13b1c3f80d0aadc93e" target="_top" xlink:title="set_value_integer">
<polygon fill="white" stroke="black" points="275,-12 275,-31 376,-31 376,-12 275,-12"/>
<text text-anchor="middle" x="325.5" y="-19" font-family="Helvetica,sans-Serif" font-size="10.00">set_value_integer</text>
</a>
</g>
</g>
<!-- Node2&#45;&gt;Node42 -->
<g id="edge43" class="edge"><title>Node2&#45;&gt;Node42</title>
<path fill="none" stroke="midnightblue" d="M184.193,-176.853C191.478,-143.661 210.89,-76.5814 254,-40.5 260.027,-35.4557 267.27,-31.7404 274.786,-29.006"/>
<polygon fill="midnightblue" stroke="midnightblue" points="180.75,-176.218 182.171,-186.717 187.608,-177.624 180.75,-176.218"/>
</g>
<!-- Node4 -->
<g id="node4" class="node"><title>Node4</title>
<g id="a_node4"><a xlink:href="../../db/d20/pugixml_8cpp.html#a1ebf3f9e23bb17f7cc6f4ae26e5abdb8" target="_top" xlink:title="node_copy_attribute">
<polygon fill="white" stroke="black" points="443,-678 443,-697 558,-697 558,-678 443,-678"/>
<text text-anchor="middle" x="500.5" y="-685" font-family="Helvetica,sans-Serif" font-size="10.00">node_copy_attribute</text>
</a>
</g>
</g>
<!-- Node3&#45;&gt;Node4 -->
<g id="edge3" class="edge"><title>Node3&#45;&gt;Node4</title>
<path fill="none" stroke="midnightblue" d="M363.517,-640.338C396.03,-651.614 442.598,-667.765 471.93,-677.938"/>
<polygon fill="midnightblue" stroke="midnightblue" points="364.507,-636.977 353.912,-637.007 362.213,-643.591 364.507,-636.977"/>
</g>
<!-- Node10 -->
<g id="node10" class="node"><title>Node10</title>
<g id="a_node10"><a xlink:href="../../db/d20/pugixml_8cpp.html#a2b5c5c36dd22c98e54dbe1d1269f6e9b" target="_top" xlink:title="node_copy_contents">
<polygon fill="white" stroke="black" points="442.5,-618 442.5,-637 558.5,-637 558.5,-618 442.5,-618"/>
<text text-anchor="middle" x="500.5" y="-625" font-family="Helvetica,sans-Serif" font-size="10.00">node_copy_contents</text>
</a>
</g>
</g>
<!-- Node3&#45;&gt;Node10 -->
<g id="edge9" class="edge"><title>Node3&#45;&gt;Node10</title>
<path fill="none" stroke="midnightblue" d="M386.246,-627.5C404.403,-627.5 424.303,-627.5 442.289,-627.5"/>
<polygon fill="midnightblue" stroke="midnightblue" points="386.075,-624 376.075,-627.5 386.075,-631 386.075,-624"/>
</g>
<!-- Node5 -->
<g id="node5" class="node"><title>Node5</title>
<g id="a_node5"><a xlink:href="../../db/d65/classpugi_1_1xml__node.html#a4c151e6665c6bfa614fe80d177fd5396" target="_top" xlink:title="pugi::xml_node::append_copy">
<polygon fill="white" stroke="black" points="606,-771 606,-790 765,-790 765,-771 606,-771"/>
<text text-anchor="middle" x="685.5" y="-778" font-family="Helvetica,sans-Serif" font-size="10.00">pugi::xml_node::append_copy</text>
</a>
</g>
</g>
<!-- Node4&#45;&gt;Node5 -->
<g id="edge4" class="edge"><title>Node4&#45;&gt;Node5</title>
<path fill="none" stroke="midnightblue" d="M519.408,-703.849C538.845,-720.732 571.481,-746.643 604,-761.5 612.359,-765.319 621.57,-768.416 630.684,-770.913"/>
<polygon fill="midnightblue" stroke="midnightblue" points="521.495,-701.023 511.689,-697.013 516.854,-706.263 521.495,-701.023"/>
</g>
<!-- Node7 -->
<g id="node7" class="node"><title>Node7</title>
<g id="a_node7"><a xlink:href="../../db/d65/classpugi_1_1xml__node.html#ab5fd2ccada30141544b12c6ef554d8f4" target="_top" xlink:title="pugi::xml_node::insert\l_copy_after">
<polygon fill="white" stroke="black" points="624.5,-721.5 624.5,-751.5 746.5,-751.5 746.5,-721.5 624.5,-721.5"/>
<text text-anchor="start" x="632.5" y="-739.5" font-family="Helvetica,sans-Serif" font-size="10.00">pugi::xml_node::insert</text>
<text text-anchor="middle" x="685.5" y="-728.5" font-family="Helvetica,sans-Serif" font-size="10.00">_copy_after</text>
</a>
</g>
</g>
<!-- Node4&#45;&gt;Node7 -->
<g id="edge6" class="edge"><title>Node4&#45;&gt;Node7</title>
<path fill="none" stroke="midnightblue" d="M547.024,-699.69C571.641,-706.281 602.255,-714.478 628.342,-721.463"/>
<polygon fill="midnightblue" stroke="midnightblue" points="547.784,-696.27 537.219,-697.064 545.973,-703.031 547.784,-696.27"/>
</g>
<!-- Node8 -->
<g id="node8" class="node"><title>Node8</title>
<g id="a_node8"><a xlink:href="../../db/d65/classpugi_1_1xml__node.html#ac81f8aded4b53a9b8c98d131986cb535" target="_top" xlink:title="pugi::xml_node::insert\l_copy_before">
<polygon fill="white" stroke="black" points="624.5,-672.5 624.5,-702.5 746.5,-702.5 746.5,-672.5 624.5,-672.5"/>
<text text-anchor="start" x="632.5" y="-690.5" font-family="Helvetica,sans-Serif" font-size="10.00">pugi::xml_node::insert</text>
<text text-anchor="middle" x="685.5" y="-679.5" font-family="Helvetica,sans-Serif" font-size="10.00">_copy_before</text>
</a>
</g>
</g>
<!-- Node4&#45;&gt;Node8 -->
<g id="edge7" class="edge"><title>Node4&#45;&gt;Node8</title>
<path fill="none" stroke="midnightblue" d="M568.423,-687.5C586.768,-687.5 606.536,-687.5 624.468,-687.5"/>
<polygon fill="midnightblue" stroke="midnightblue" points="568.399,-684 558.399,-687.5 568.399,-691 568.399,-684"/>
</g>
<!-- Node9 -->
<g id="node9" class="node"><title>Node9</title>
<g id="a_node9"><a xlink:href="../../db/d65/classpugi_1_1xml__node.html#abd0f80e4d5bc938a27b50d37a0c7865b" target="_top" xlink:title="pugi::xml_node::prepend_copy">
<polygon fill="white" stroke="black" points="604,-634 604,-653 767,-653 767,-634 604,-634"/>
<text text-anchor="middle" x="685.5" y="-641" font-family="Helvetica,sans-Serif" font-size="10.00">pugi::xml_node::prepend_copy</text>
</a>
</g>
</g>
<!-- Node4&#45;&gt;Node9 -->
<g id="edge8" class="edge"><title>Node4&#45;&gt;Node9</title>
<path fill="none" stroke="midnightblue" d="M551.28,-675.531C580.695,-668.459 617.429,-659.626 644.869,-653.029"/>
<polygon fill="midnightblue" stroke="midnightblue" points="550.113,-672.212 541.208,-677.953 551.749,-679.018 550.113,-672.212"/>
</g>
<!-- Node6 -->
<g id="node6" class="node"><title>Node6</title>
<g id="a_node6"><a xlink:href="../../d8/d8d/classpugi_1_1xml__document.html#a4230de3de88f4fe481c4c3d5312aa5cf" target="_top" xlink:title="pugi::xml_document\l::reset">
<polygon fill="white" stroke="black" points="827.5,-765.5 827.5,-795.5 941.5,-795.5 941.5,-765.5 827.5,-765.5"/>
<text text-anchor="start" x="835.5" y="-783.5" font-family="Helvetica,sans-Serif" font-size="10.00">pugi::xml_document</text>
<text text-anchor="middle" x="884.5" y="-772.5" font-family="Helvetica,sans-Serif" font-size="10.00">::reset</text>
</a>
</g>
</g>
<!-- Node5&#45;&gt;Node6 -->
<g id="edge5" class="edge"><title>Node5&#45;&gt;Node6</title>
<path fill="none" stroke="midnightblue" d="M775.524,-780.5C793.153,-780.5 811.19,-780.5 827.349,-780.5"/>
<polygon fill="midnightblue" stroke="midnightblue" points="775.209,-777 765.209,-780.5 775.209,-784 775.209,-777"/>
</g>
<!-- Node11 -->
<g id="node11" class="node"><title>Node11</title>
<g id="a_node11"><a xlink:href="../../db/d20/pugixml_8cpp.html#a25fed5bc5932c710ca03917ac173f6d1" target="_top" xlink:title="node_copy_tree">
<polygon fill="white" stroke="black" points="639,-596 639,-615 732,-615 732,-596 639,-596"/>
<text text-anchor="middle" x="685.5" y="-603" font-family="Helvetica,sans-Serif" font-size="10.00">node_copy_tree</text>
</a>
</g>
</g>
<!-- Node10&#45;&gt;Node11 -->
<g id="edge10" class="edge"><title>Node10&#45;&gt;Node11</title>
<path fill="none" stroke="midnightblue" d="M568.817,-619.407C592.102,-616.608 617.637,-613.538 638.78,-610.996"/>
<polygon fill="midnightblue" stroke="midnightblue" points="568.16,-615.961 558.65,-620.63 568.996,-622.911 568.16,-615.961"/>
</g>
<!-- Node12 -->
<g id="node12" class="node"><title>Node12</title>
<g id="a_node12"><a xlink:href="../../db/d65/classpugi_1_1xml__node.html#a17971e2b69c4dd4f45c461ebffe96732" target="_top" xlink:title="pugi::xml_node::append_copy">
<polygon fill="white" stroke="black" points="805,-618 805,-637 964,-637 964,-618 805,-618"/>
<text text-anchor="middle" x="884.5" y="-625" font-family="Helvetica,sans-Serif" font-size="10.00">pugi::xml_node::append_copy</text>
</a>
</g>
</g>
<!-- Node11&#45;&gt;Node12 -->
<g id="edge11" class="edge"><title>Node11&#45;&gt;Node12</title>
<path fill="none" stroke="midnightblue" d="M742.373,-611.74C761.792,-613.908 783.95,-616.383 804.862,-618.718"/>
<polygon fill="midnightblue" stroke="midnightblue" points="742.518,-608.234 732.191,-610.603 741.741,-615.191 742.518,-608.234"/>
</g>
<!-- Node13 -->
<g id="node13" class="node"><title>Node13</title>
<g id="a_node13"><a xlink:href="../../db/d65/classpugi_1_1xml__node.html#a106a600eac7d08608f797d034b331fa8" target="_top" xlink:title="pugi::xml_node::insert\l_copy_after">
<polygon fill="white" stroke="black" points="823.5,-568.5 823.5,-598.5 945.5,-598.5 945.5,-568.5 823.5,-568.5"/>
<text text-anchor="start" x="831.5" y="-586.5" font-family="Helvetica,sans-Serif" font-size="10.00">pugi::xml_node::insert</text>
<text text-anchor="middle" x="884.5" y="-575.5" font-family="Helvetica,sans-Serif" font-size="10.00">_copy_after</text>
</a>
</g>
</g>
<!-- Node11&#45;&gt;Node13 -->
<g id="edge12" class="edge"><title>Node11&#45;&gt;Node13</title>
<path fill="none" stroke="midnightblue" d="M742.371,-599.261C767.699,-596.432 797.686,-593.083 823.491,-590.202"/>
<polygon fill="midnightblue" stroke="midnightblue" points="741.741,-595.809 732.191,-600.397 742.518,-602.766 741.741,-595.809"/>
</g>
<!-- Node14 -->
<g id="node14" class="node"><title>Node14</title>
<g id="a_node14"><a xlink:href="../../db/d65/classpugi_1_1xml__node.html#a21134448747e00888df7ecfb174032d3" target="_top" xlink:title="pugi::xml_node::insert\l_copy_before">
<polygon fill="white" stroke="black" points="823.5,-519.5 823.5,-549.5 945.5,-549.5 945.5,-519.5 823.5,-519.5"/>
<text text-anchor="start" x="831.5" y="-537.5" font-family="Helvetica,sans-Serif" font-size="10.00">pugi::xml_node::insert</text>
<text text-anchor="middle" x="884.5" y="-526.5" font-family="Helvetica,sans-Serif" font-size="10.00">_copy_before</text>
</a>
</g>
</g>
<!-- Node11&#45;&gt;Node14 -->
<g id="edge13" class="edge"><title>Node11&#45;&gt;Node14</title>
<path fill="none" stroke="midnightblue" d="M718.895,-591.954C742.135,-582.421 774.285,-569.612 803,-559.5 812.662,-556.097 823.059,-552.686 833.067,-549.526"/>
<polygon fill="midnightblue" stroke="midnightblue" points="717.427,-588.773 709.517,-595.821 720.096,-595.244 717.427,-588.773"/>
</g>
<!-- Node15 -->
<g id="node15" class="node"><title>Node15</title>
<g id="a_node15"><a xlink:href="../../db/d65/classpugi_1_1xml__node.html#a29cc787ee2270e3a71e1d511164621e6" target="_top" xlink:title="pugi::xml_node::prepend_copy">
<polygon fill="white" stroke="black" points="803,-656 803,-675 966,-675 966,-656 803,-656"/>
<text text-anchor="middle" x="884.5" y="-663" font-family="Helvetica,sans-Serif" font-size="10.00">pugi::xml_node::prepend_copy</text>
</a>
</g>
</g>
<!-- Node11&#45;&gt;Node15 -->
<g id="edge14" class="edge"><title>Node11&#45;&gt;Node15</title>
<path fill="none" stroke="midnightblue" d="M742.25,-616.22C750.683,-618.537 759.173,-621.281 767,-624.5 784.342,-631.632 785.658,-639.368 803,-646.5 812.164,-650.269 822.235,-653.386 832.06,-655.929"/>
<polygon fill="midnightblue" stroke="midnightblue" points="742.977,-612.793 732.42,-613.694 741.234,-619.573 742.977,-612.793"/>
</g>
<!-- Node17 -->
<g id="node17" class="node"><title>Node17</title>
<g id="a_node17"><a xlink:href="../../d6/dd6/classpugi_1_1xml__text.html#a0d75ccc7ede3b3d590352267a0f0fcb9" target="_top" xlink:title="pugi::xml_text::set">
<polygon fill="white" stroke="black" points="448,-187 448,-206 553,-206 553,-187 448,-187"/>
<text text-anchor="middle" x="500.5" y="-194" font-family="Helvetica,sans-Serif" font-size="10.00">pugi::xml_text::set</text>
</a>
</g>
</g>
<!-- Node16&#45;&gt;Node17 -->
<g id="edge16" class="edge"><title>Node16&#45;&gt;Node17</title>
<path fill="none" stroke="midnightblue" d="M380.005,-222.747C404.467,-217.374 433.071,-211.091 456.159,-206.02"/>
<polygon fill="midnightblue" stroke="midnightblue" points="379.171,-219.347 370.155,-224.911 380.673,-226.184 379.171,-219.347"/>
</g>
<!-- Node19 -->
<g id="node19" class="node"><title>Node19</title>
<g id="a_node19"><a xlink:href="../../db/d65/classpugi_1_1xml__node.html#a417eb03f034b432bb2800e54e38022aa" target="_top" xlink:title="pugi::xml_node::append\l_attribute">
<polygon fill="white" stroke="black" points="435,-470.5 435,-500.5 566,-500.5 566,-470.5 435,-470.5"/>
<text text-anchor="start" x="443" y="-488.5" font-family="Helvetica,sans-Serif" font-size="10.00">pugi::xml_node::append</text>
<text text-anchor="middle" x="500.5" y="-477.5" font-family="Helvetica,sans-Serif" font-size="10.00">_attribute</text>
</a>
</g>
</g>
<!-- Node18&#45;&gt;Node19 -->
<g id="edge18" class="edge"><title>Node18&#45;&gt;Node19</title>
<path fill="none" stroke="midnightblue" d="M389.389,-485.5C404.159,-485.5 419.924,-485.5 434.774,-485.5"/>
<polygon fill="midnightblue" stroke="midnightblue" points="389.346,-482 379.346,-485.5 389.346,-489 389.346,-482"/>
</g>
<!-- Node20 -->
<g id="node20" class="node"><title>Node20</title>
<g id="a_node20"><a xlink:href="../../db/d65/classpugi_1_1xml__node.html#a7d70631d6cb3624cdfc4cf9ef4abad06" target="_top" xlink:title="pugi::xml_node::prepend\l_attribute">
<polygon fill="white" stroke="black" points="433,-421.5 433,-451.5 568,-451.5 568,-421.5 433,-421.5"/>
<text text-anchor="start" x="441" y="-439.5" font-family="Helvetica,sans-Serif" font-size="10.00">pugi::xml_node::prepend</text>
<text text-anchor="middle" x="500.5" y="-428.5" font-family="Helvetica,sans-Serif" font-size="10.00">_attribute</text>
</a>
</g>
</g>
<!-- Node18&#45;&gt;Node20 -->
<g id="edge19" class="edge"><title>Node18&#45;&gt;Node20</title>
<path fill="none" stroke="midnightblue" d="M389.007,-467.796C407.807,-462.471 428.25,-456.681 446.382,-451.545"/>
<polygon fill="midnightblue" stroke="midnightblue" points="388.013,-464.439 379.346,-470.532 389.921,-471.174 388.013,-464.439"/>
</g>
<!-- Node21 -->
<g id="node21" class="node"><title>Node21</title>
<g id="a_node21"><a xlink:href="../../db/d65/classpugi_1_1xml__node.html#a74ab20fa84dffde317f8899af628f041" target="_top" xlink:title="pugi::xml_node::insert\l_attribute_after">
<polygon fill="white" stroke="black" points="439.5,-568.5 439.5,-598.5 561.5,-598.5 561.5,-568.5 439.5,-568.5"/>
<text text-anchor="start" x="447.5" y="-586.5" font-family="Helvetica,sans-Serif" font-size="10.00">pugi::xml_node::insert</text>
<text text-anchor="middle" x="500.5" y="-575.5" font-family="Helvetica,sans-Serif" font-size="10.00">_attribute_after</text>
</a>
</g>
</g>
<!-- Node18&#45;&gt;Node21 -->
<g id="edge20" class="edge"><title>Node18&#45;&gt;Node21</title>
<path fill="none" stroke="midnightblue" d="M353.216,-507.008C374.039,-523.024 404.167,-544.606 433,-559.5 439.216,-562.711 445.961,-565.682 452.69,-568.36"/>
<polygon fill="midnightblue" stroke="midnightblue" points="355.206,-504.121 345.167,-500.736 350.904,-509.643 355.206,-504.121"/>
</g>
<!-- Node22 -->
<g id="node22" class="node"><title>Node22</title>
<g id="a_node22"><a xlink:href="../../db/d65/classpugi_1_1xml__node.html#a742898bc2342d943a4c49916ac3a64b8" target="_top" xlink:title="pugi::xml_node::insert\l_attribute_before">
<polygon fill="white" stroke="black" points="439.5,-519.5 439.5,-549.5 561.5,-549.5 561.5,-519.5 439.5,-519.5"/>
<text text-anchor="start" x="447.5" y="-537.5" font-family="Helvetica,sans-Serif" font-size="10.00">pugi::xml_node::insert</text>
<text text-anchor="middle" x="500.5" y="-526.5" font-family="Helvetica,sans-Serif" font-size="10.00">_attribute_before</text>
</a>
</g>
</g>
<!-- Node18&#45;&gt;Node22 -->
<g id="edge21" class="edge"><title>Node18&#45;&gt;Node22</title>
<path fill="none" stroke="midnightblue" d="M389.007,-503.204C407.807,-508.529 428.25,-514.319 446.382,-519.455"/>
<polygon fill="midnightblue" stroke="midnightblue" points="389.921,-499.826 379.346,-500.468 388.013,-506.561 389.921,-499.826"/>
</g>
<!-- Node24 -->
<g id="node24" class="node"><title>Node24</title>
<g id="a_node24"><a xlink:href="../../db/d65/classpugi_1_1xml__node.html#a190f4851bb4bc4bb61c89fffb663a9af" target="_top" xlink:title="pugi::xml_node::append\l_child">
<polygon fill="white" stroke="black" points="435,-274.5 435,-304.5 566,-304.5 566,-274.5 435,-274.5"/>
<text text-anchor="start" x="443" y="-292.5" font-family="Helvetica,sans-Serif" font-size="10.00">pugi::xml_node::append</text>
<text text-anchor="middle" x="500.5" y="-281.5" font-family="Helvetica,sans-Serif" font-size="10.00">_child</text>
</a>
</g>
</g>
<!-- Node23&#45;&gt;Node24 -->
<g id="edge23" class="edge"><title>Node23&#45;&gt;Node24</title>
<path fill="none" stroke="midnightblue" d="M407.623,-289.5C416.759,-289.5 425.975,-289.5 434.861,-289.5"/>
<polygon fill="midnightblue" stroke="midnightblue" points="407.365,-286 397.365,-289.5 407.365,-293 407.365,-286"/>
</g>
<!-- Node26 -->
<g id="node26" class="node"><title>Node26</title>
<g id="a_node26"><a xlink:href="../../db/d65/classpugi_1_1xml__node.html#a9e0a6dddfe1fefc74bb2b7689376989c" target="_top" xlink:title="pugi::xml_node::prepend\l_child">
<polygon fill="white" stroke="black" points="433,-225.5 433,-255.5 568,-255.5 568,-225.5 433,-225.5"/>
<text text-anchor="start" x="441" y="-243.5" font-family="Helvetica,sans-Serif" font-size="10.00">pugi::xml_node::prepend</text>
<text text-anchor="middle" x="500.5" y="-232.5" font-family="Helvetica,sans-Serif" font-size="10.00">_child</text>
</a>
</g>
</g>
<!-- Node23&#45;&gt;Node26 -->
<g id="edge25" class="edge"><title>Node23&#45;&gt;Node26</title>
<path fill="none" stroke="midnightblue" d="M370.159,-277.134C393.322,-270.574 421.969,-262.46 446.41,-255.537"/>
<polygon fill="midnightblue" stroke="midnightblue" points="368.935,-273.843 360.267,-279.936 370.842,-280.578 368.935,-273.843"/>
</g>
<!-- Node28 -->
<g id="node28" class="node"><title>Node28</title>
<g id="a_node28"><a xlink:href="../../db/d65/classpugi_1_1xml__node.html#afe89f53c01eac8209b06f9fe7f84e7c1" target="_top" xlink:title="pugi::xml_node::insert\l_child_before">
<polygon fill="white" stroke="black" points="439.5,-372.5 439.5,-402.5 561.5,-402.5 561.5,-372.5 439.5,-372.5"/>
<text text-anchor="start" x="447.5" y="-390.5" font-family="Helvetica,sans-Serif" font-size="10.00">pugi::xml_node::insert</text>
<text text-anchor="middle" x="500.5" y="-379.5" font-family="Helvetica,sans-Serif" font-size="10.00">_child_before</text>
</a>
</g>
</g>
<!-- Node23&#45;&gt;Node28 -->
<g id="edge27" class="edge"><title>Node23&#45;&gt;Node28</title>
<path fill="none" stroke="midnightblue" d="M346.39,-305.309C367.121,-321.252 400.992,-345.827 433,-362.5 439.891,-366.09 447.418,-369.427 454.851,-372.418"/>
<polygon fill="midnightblue" stroke="midnightblue" points="348.395,-302.434 338.354,-299.053 344.095,-307.958 348.395,-302.434"/>
</g>
<!-- Node30 -->
<g id="node30" class="node"><title>Node30</title>
<g id="a_node30"><a xlink:href="../../db/d65/classpugi_1_1xml__node.html#a4dd8d25c02560a2692c43cc4779fb7e3" target="_top" xlink:title="pugi::xml_node::insert\l_child_after">
<polygon fill="white" stroke="black" points="439.5,-323.5 439.5,-353.5 561.5,-353.5 561.5,-323.5 439.5,-323.5"/>
<text text-anchor="start" x="447.5" y="-341.5" font-family="Helvetica,sans-Serif" font-size="10.00">pugi::xml_node::insert</text>
<text text-anchor="middle" x="500.5" y="-330.5" font-family="Helvetica,sans-Serif" font-size="10.00">_child_after</text>
</a>
</g>
</g>
<!-- Node23&#45;&gt;Node30 -->
<g id="edge29" class="edge"><title>Node23&#45;&gt;Node30</title>
<path fill="none" stroke="midnightblue" d="M370.159,-301.866C393.322,-308.426 421.969,-316.54 446.41,-323.463"/>
<polygon fill="midnightblue" stroke="midnightblue" points="370.842,-298.422 360.267,-299.064 368.935,-305.157 370.842,-298.422"/>
</g>
<!-- Node25 -->
<g id="node25" class="node"><title>Node25</title>
<g id="a_node25"><a xlink:href="../../db/d65/classpugi_1_1xml__node.html#a448342425806a4ad8068bf98fd4ff462" target="_top" xlink:title="pugi::xml_node::append\l_child">
<polygon fill="white" stroke="black" points="620,-274.5 620,-304.5 751,-304.5 751,-274.5 620,-274.5"/>
<text text-anchor="start" x="628" y="-292.5" font-family="Helvetica,sans-Serif" font-size="10.00">pugi::xml_node::append</text>
<text text-anchor="middle" x="685.5" y="-281.5" font-family="Helvetica,sans-Serif" font-size="10.00">_child</text>
</a>
</g>
</g>
<!-- Node24&#45;&gt;Node25 -->
<g id="edge24" class="edge"><title>Node24&#45;&gt;Node25</title>
<path fill="none" stroke="midnightblue" d="M576.413,-289.5C590.855,-289.5 605.868,-289.5 619.947,-289.5"/>
<polygon fill="midnightblue" stroke="midnightblue" points="576.019,-286 566.019,-289.5 576.019,-293 576.019,-286"/>
</g>
<!-- Node27 -->
<g id="node27" class="node"><title>Node27</title>
<g id="a_node27"><a xlink:href="../../db/d65/classpugi_1_1xml__node.html#afa78286431f99a0f35b18185e11e28e8" target="_top" xlink:title="pugi::xml_node::prepend\l_child">
<polygon fill="white" stroke="black" points="618,-225.5 618,-255.5 753,-255.5 753,-225.5 618,-225.5"/>
<text text-anchor="start" x="626" y="-243.5" font-family="Helvetica,sans-Serif" font-size="10.00">pugi::xml_node::prepend</text>
<text text-anchor="middle" x="685.5" y="-232.5" font-family="Helvetica,sans-Serif" font-size="10.00">_child</text>
</a>
</g>
</g>
<!-- Node26&#45;&gt;Node27 -->
<g id="edge26" class="edge"><title>Node26&#45;&gt;Node27</title>
<path fill="none" stroke="midnightblue" d="M578.108,-240.5C591.349,-240.5 605.018,-240.5 617.965,-240.5"/>
<polygon fill="midnightblue" stroke="midnightblue" points="578.085,-237 568.085,-240.5 578.085,-244 578.085,-237"/>
</g>
<!-- Node29 -->
<g id="node29" class="node"><title>Node29</title>
<g id="a_node29"><a xlink:href="../../db/d65/classpugi_1_1xml__node.html#a70fa68762aed11c82a1b913571df4394" target="_top" xlink:title="pugi::xml_node::insert\l_child_before">
<polygon fill="white" stroke="black" points="624.5,-372.5 624.5,-402.5 746.5,-402.5 746.5,-372.5 624.5,-372.5"/>
<text text-anchor="start" x="632.5" y="-390.5" font-family="Helvetica,sans-Serif" font-size="10.00">pugi::xml_node::insert</text>
<text text-anchor="middle" x="685.5" y="-379.5" font-family="Helvetica,sans-Serif" font-size="10.00">_child_before</text>
</a>
</g>
</g>
<!-- Node28&#45;&gt;Node29 -->
<g id="edge28" class="edge"><title>Node28&#45;&gt;Node29</title>
<path fill="none" stroke="midnightblue" d="M571.735,-387.5C589.069,-387.5 607.48,-387.5 624.289,-387.5"/>
<polygon fill="midnightblue" stroke="midnightblue" points="571.675,-384 561.675,-387.5 571.674,-391 571.675,-384"/>
</g>
<!-- Node31 -->
<g id="node31" class="node"><title>Node31</title>
<g id="a_node31"><a xlink:href="../../db/d65/classpugi_1_1xml__node.html#a778c2246fef9964b2d947253a86f2982" target="_top" xlink:title="pugi::xml_node::insert\l_child_after">
<polygon fill="white" stroke="black" points="624.5,-323.5 624.5,-353.5 746.5,-353.5 746.5,-323.5 624.5,-323.5"/>
<text text-anchor="start" x="632.5" y="-341.5" font-family="Helvetica,sans-Serif" font-size="10.00">pugi::xml_node::insert</text>
<text text-anchor="middle" x="685.5" y="-330.5" font-family="Helvetica,sans-Serif" font-size="10.00">_child_after</text>
</a>
</g>
</g>
<!-- Node30&#45;&gt;Node31 -->
<g id="edge30" class="edge"><title>Node30&#45;&gt;Node31</title>
<path fill="none" stroke="midnightblue" d="M571.735,-338.5C589.069,-338.5 607.48,-338.5 624.289,-338.5"/>
<polygon fill="midnightblue" stroke="midnightblue" points="571.675,-335 561.675,-338.5 571.674,-342 571.675,-335"/>
</g>
<!-- Node33 -->
<g id="node33" class="node"><title>Node33</title>
<g id="a_node33"><a xlink:href="../../de/d7c/classpugi_1_1xml__attribute.html#a957f7613ba25623fa3bdf1c50346b869" target="_top" xlink:title="pugi::xml_attribute\l::operator=">
<polygon fill="white" stroke="black" points="447,-88.5 447,-118.5 554,-118.5 554,-88.5 447,-88.5"/>
<text text-anchor="start" x="455" y="-106.5" font-family="Helvetica,sans-Serif" font-size="10.00">pugi::xml_attribute</text>
<text text-anchor="middle" x="500.5" y="-95.5" font-family="Helvetica,sans-Serif" font-size="10.00">::operator=</text>
</a>
</g>
</g>
<!-- Node32&#45;&gt;Node33 -->
<g id="edge32" class="edge"><title>Node32&#45;&gt;Node33</title>
<path fill="none" stroke="midnightblue" d="M389.36,-103.5C408.27,-103.5 428.812,-103.5 446.978,-103.5"/>
<polygon fill="midnightblue" stroke="midnightblue" points="389.346,-100 379.346,-103.5 389.346,-107 389.346,-100"/>
</g>
<!-- Node35 -->
<g id="node35" class="node"><title>Node35</title>
<g id="a_node35"><a xlink:href="../../de/d7c/classpugi_1_1xml__attribute.html#a33ab85a706a18f88241081ab8b0f823f" target="_top" xlink:title="pugi::xml_attribute\l::set_value">
<polygon fill="white" stroke="black" points="447,-137.5 447,-167.5 554,-167.5 554,-137.5 447,-137.5"/>
<text text-anchor="start" x="455" y="-155.5" font-family="Helvetica,sans-Serif" font-size="10.00">pugi::xml_attribute</text>
<text text-anchor="middle" x="500.5" y="-144.5" font-family="Helvetica,sans-Serif" font-size="10.00">::set_value</text>
</a>
</g>
</g>
<!-- Node32&#45;&gt;Node35 -->
<g id="edge34" class="edge"><title>Node32&#45;&gt;Node35</title>
<path fill="none" stroke="midnightblue" d="M389.099,-121.23C408.08,-126.607 428.729,-132.455 446.978,-137.624"/>
<polygon fill="midnightblue" stroke="midnightblue" points="389.921,-117.826 379.346,-118.468 388.013,-124.561 389.921,-117.826"/>
</g>
<!-- Node34 -->
<g id="node34" class="node"><title>Node34</title>
<g id="a_node34"><a xlink:href="../../de/d7c/classpugi_1_1xml__attribute.html#ae23d29ab032d5ff7c875f5bbe4d6ab3c" target="_top" xlink:title="pugi::xml_attribute\l::operator=">
<polygon fill="white" stroke="black" points="632,-88.5 632,-118.5 739,-118.5 739,-88.5 632,-88.5"/>
<text text-anchor="start" x="640" y="-106.5" font-family="Helvetica,sans-Serif" font-size="10.00">pugi::xml_attribute</text>
<text text-anchor="middle" x="685.5" y="-95.5" font-family="Helvetica,sans-Serif" font-size="10.00">::operator=</text>
</a>
</g>
</g>
<!-- Node33&#45;&gt;Node34 -->
<g id="edge33" class="edge"><title>Node33&#45;&gt;Node34</title>
<path fill="none" stroke="midnightblue" d="M564.615,-103.5C586.478,-103.5 610.741,-103.5 631.688,-103.5"/>
<polygon fill="midnightblue" stroke="midnightblue" points="564.431,-100 554.431,-103.5 564.431,-107 564.431,-100"/>
</g>
<!-- Node38 -->
<g id="node38" class="node"><title>Node38</title>
<g id="a_node38"><a xlink:href="../../db/d20/pugixml_8cpp.html#a920fbf56eb3b5360583952e8c08000b3" target="_top" xlink:title="set_value_convert">
<polygon fill="white" stroke="black" points="448.5,-50 448.5,-69 552.5,-69 552.5,-50 448.5,-50"/>
<text text-anchor="middle" x="500.5" y="-57" font-family="Helvetica,sans-Serif" font-size="10.00">set_value_convert</text>
</a>
</g>
</g>
<!-- Node37&#45;&gt;Node38 -->
<g id="edge37" class="edge"><title>Node37&#45;&gt;Node38</title>
<path fill="none" stroke="midnightblue" d="M380.225,-59.5C401.99,-59.5 427.004,-59.5 448.486,-59.5"/>
<polygon fill="midnightblue" stroke="midnightblue" points="380.155,-56.0001 370.155,-59.5 380.155,-63.0001 380.155,-56.0001"/>
</g>
<!-- Node39 -->
<g id="node39" class="node"><title>Node39</title>
<g id="a_node39"><a xlink:href="../../d6/dd6/classpugi_1_1xml__text.html#a5de352282b5673bf5c98d22831f946a7" target="_top" xlink:title="pugi::xml_text::set">
<polygon fill="white" stroke="black" points="633,-50 633,-69 738,-69 738,-50 633,-50"/>
<text text-anchor="middle" x="685.5" y="-57" font-family="Helvetica,sans-Serif" font-size="10.00">pugi::xml_text::set</text>
</a>
</g>
</g>
<!-- Node38&#45;&gt;Node39 -->
<g id="edge38" class="edge"><title>Node38&#45;&gt;Node39</title>
<path fill="none" stroke="midnightblue" d="M563.142,-59.5C585.766,-59.5 611.126,-59.5 632.79,-59.5"/>
<polygon fill="midnightblue" stroke="midnightblue" points="562.963,-56.0001 552.963,-59.5 562.963,-63.0001 562.963,-56.0001"/>
</g>
<!-- Node40 -->
<g id="node40" class="node"><title>Node40</title>
<g id="a_node40"><a xlink:href="../../de/d7c/classpugi_1_1xml__attribute.html#a5e58f7565792ba3afd432325f824f1b3" target="_top" xlink:title="pugi::xml_attribute\l::set_value">
<polygon fill="white" stroke="black" points="632,-0.5 632,-30.5 739,-30.5 739,-0.5 632,-0.5"/>
<text text-anchor="start" x="640" y="-18.5" font-family="Helvetica,sans-Serif" font-size="10.00">pugi::xml_attribute</text>
<text text-anchor="middle" x="685.5" y="-7.5" font-family="Helvetica,sans-Serif" font-size="10.00">::set_value</text>
</a>
</g>
</g>
<!-- Node38&#45;&gt;Node40 -->
<g id="edge39" class="edge"><title>Node38&#45;&gt;Node40</title>
<path fill="none" stroke="midnightblue" d="M551.185,-47.5538C576.114,-41.5601 606.318,-34.298 631.669,-28.2026"/>
<polygon fill="midnightblue" stroke="midnightblue" points="550.113,-44.2118 541.208,-49.9527 551.749,-51.0179 550.113,-44.2118"/>
</g>
<!-- Node41&#45;&gt;Node17 -->
<g id="edge41" class="edge"><title>Node41&#45;&gt;Node17</title>
<path fill="none" stroke="midnightblue" d="M379.739,-196.5C401.427,-196.5 426.406,-196.5 447.921,-196.5"/>
<polygon fill="midnightblue" stroke="midnightblue" points="379.709,-193 369.709,-196.5 379.709,-200 379.709,-193"/>
</g>
<!-- Node41&#45;&gt;Node35 -->
<g id="edge42" class="edge"><title>Node41&#45;&gt;Node35</title>
<path fill="none" stroke="midnightblue" d="M373.77,-184.478C396.425,-178.716 423.636,-171.795 446.941,-165.868"/>
<polygon fill="midnightblue" stroke="midnightblue" points="372.867,-181.096 364.038,-186.953 374.593,-187.88 372.867,-181.096"/>
</g>
</g>
</svg>
        <g id="navigator" transform="translate(0 0)" fill="#404254">
                <rect fill="#f2f5e9" fill-opacity="0.5" stroke="#606060" stroke-width=".5" x="0" y="0" width="60" height="60"/>
                <use id="zoomplus" xlink:href="#zoomPlus" x="17" y="9" onmousedown="handleZoom(evt,'in')"/>
                <use id="zoomminus" xlink:href="#zoomMin" x="42" y="9" onmousedown="handleZoom(evt,'out')"/>
                <use id="reset" xlink:href="#resetDef" x="30" y="36" onmousedown="handleReset()"/>
                <g id="arrowUp" xlink:href="#dirArrow" transform="translate(30 24)" onmousedown="handlePan(0,-1)">
                  <use xlink:href="#rim" fill="#404040">
                        <set attributeName="fill" to="#808080" begin="arrowUp.mouseover" end="arrowUp.mouseout"/>
                  </use>
                  <path fill="none" stroke="white" stroke-width="1.5" d="M0,-3.0v7 M-2.5,-0.5L0,-3.0L2.5,-0.5"/>
                </g>
                <g id="arrowRight" xlink:href="#dirArrow" transform="rotate(90) translate(36 -43)" onmousedown="handlePan(1,0)">
                  <use xlink:href="#rim" fill="#404040">
                        <set attributeName="fill" to="#808080" begin="arrowRight.mouseover" end="arrowRight.mouseout"/>
                  </use>
                  <path fill="none" stroke="white" stroke-width="1.5" d="M0,-3.0v7 M-2.5,-0.5L0,-3.0L2.5,-0.5"/>
                </g>
                <g id="arrowDown" xlink:href="#dirArrow" transform="rotate(180) translate(-30 -48)" onmousedown="handlePan(0,1)">
                  <use xlink:href="#rim" fill="#404040">
                        <set attributeName="fill" to="#808080" begin="arrowDown.mouseover" end="arrowDown.mouseout"/>
                  </use>
                  <path fill="none" stroke="white" stroke-width="1.5" d="M0,-3.0v7 M-2.5,-0.5L0,-3.0L2.5,-0.5"/>
                </g>
                <g id="arrowLeft" xlink:href="#dirArrow" transform="rotate(270) translate(-36 17)" onmousedown="handlePan(-1,0)">
                  <use xlink:href="#rim" fill="#404040">
                        <set attributeName="fill" to="#808080" begin="arrowLeft.mouseover" end="arrowLeft.mouseout"/>
                  </use>
                  <path fill="none" stroke="white" stroke-width="1.5" d="M0,-3.0v7 M-2.5,-0.5L0,-3.0L2.5,-0.5"/>
                </g>
        </g>
        <svg viewBox="0 0 15 15" width="100%" height="30px" preserveAspectRatio="xMaxYMin meet">
         <g id="arrow_out" transform="scale(0.3 0.3)">
          <a xlink:href="pugixml_8cpp_afeaebb026671399f617b36e27fa92234_icgraph_org.svg" target="_base">
           <rect id="button" ry="5" rx="5" y="6" x="6" height="38" width="38"
                fill="#f2f5e9" fill-opacity="0.5" stroke="#606060" stroke-width="1.0"/>
           <path id="arrow"
             d="M 11.500037,31.436501 C 11.940474,20.09759 22.043105,11.32322 32.158766,21.979434 L 37.068811,17.246167 C 37.068811,17.246167 37.088388,32 37.088388,32 L 22.160133,31.978069 C 22.160133,31.978069 26.997745,27.140456 26.997745,27.140456 C 18.528582,18.264221 13.291696,25.230495 11.500037,31.436501 z"
             style="fill:#404040;"/>
          </a>
         </g>
        </svg>
</svg>
