<?xml version="1.0" encoding="UTF-8" standalone="no"?>
<!DOCTYPE svg PUBLIC "-//W3C//DTD SVG 1.1//EN"
 "http://www.w3.org/Graphics/SVG/1.1/DTD/svg11.dtd">
<!-- Generated by graphviz version 2.38.0 (20140413.2041)
 -->
<!-- Title: get_write_native_encoding Pages: 1 -->
<svg width="424pt" height="28pt"
 viewBox="0.00 0.00 424.00 28.00" xmlns="http://www.w3.org/2000/svg" xmlns:xlink="http://www.w3.org/1999/xlink">
<g id="graph0" class="graph" transform="scale(1 1) rotate(0) translate(4 24)">
<title>get_write_native_encoding</title>
<polygon fill="white" stroke="none" points="-4,4 -4,-24 420,-24 420,4 -4,4"/>
<!-- Node1 -->
<g id="node1" class="node"><title>Node1</title>
<polygon fill="#bfbfbf" stroke="black" points="0,-0.5 0,-19.5 143,-19.5 143,-0.5 0,-0.5"/>
<text text-anchor="middle" x="71.5" y="-7.5" font-family="Helvetica,sans-Serif" font-size="10.00">get_write_native_encoding</text>
</g>
<!-- Node2 -->
<g id="node2" class="node"><title>Node2</title>
<g id="a_node2"><a xlink:href="../../db/d20/pugixml_8cpp.html#a1d386e9425e75d35b01373e46f186b9c" target="_top" xlink:title="get_wchar_encoding">
<polygon fill="white" stroke="black" points="179,-0.5 179,-19.5 293,-19.5 293,-0.5 179,-0.5"/>
<text text-anchor="middle" x="236" y="-7.5" font-family="Helvetica,sans-Serif" font-size="10.00">get_wchar_encoding</text>
</a>
</g>
</g>
<!-- Node1&#45;&gt;Node2 -->
<g id="edge1" class="edge"><title>Node1&#45;&gt;Node2</title>
<path fill="none" stroke="midnightblue" d="M143.302,-10C151.693,-10 160.236,-10 168.563,-10"/>
<polygon fill="midnightblue" stroke="midnightblue" points="168.589,-13.5001 178.589,-10 168.589,-6.5001 168.589,-13.5001"/>
</g>
<!-- Node3 -->
<g id="node3" class="node"><title>Node3</title>
<g id="a_node3"><a xlink:href="../../db/d20/pugixml_8cpp.html#a282e2854710450f313ea03bb59a8f681" target="_top" xlink:title="is_little_endian">
<polygon fill="white" stroke="black" points="329,-0.5 329,-19.5 416,-19.5 416,-0.5 329,-0.5"/>
<text text-anchor="middle" x="372.5" y="-7.5" font-family="Helvetica,sans-Serif" font-size="10.00">is_little_endian</text>
</a>
</g>
</g>
<!-- Node2&#45;&gt;Node3 -->
<g id="edge2" class="edge"><title>Node2&#45;&gt;Node3</title>
<path fill="none" stroke="midnightblue" d="M293.261,-10C301.756,-10 310.492,-10 318.906,-10"/>
<polygon fill="midnightblue" stroke="midnightblue" points="318.972,-13.5001 328.972,-10 318.972,-6.5001 318.972,-13.5001"/>
</g>
</g>
</svg>
