<?xml version="1.0" encoding="UTF-8" standalone="no"?>
<!DOCTYPE svg PUBLIC "-//W3C//DTD SVG 1.1//EN"
 "http://www.w3.org/Graphics/SVG/1.1/DTD/svg11.dtd">
<!-- Generated by graphviz version 2.38.0 (20140413.2041)
 -->
<!-- Title: get_latin1_7bit_prefix_length Pages: 1 -->
<!--zoomable 276 -->
<svg id="main" version="1.1" xmlns="http://www.w3.org/2000/svg" xmlns:xlink="http://www.w3.org/1999/xlink" xml:space="preserve" onload="init(evt)">
<style type="text/css"><![CDATA[
.edge:hover path { stroke: red; }
.edge:hover polygon { stroke: red; fill: red; }
]]></style>
<script type="text/javascript"><![CDATA[
var edges = document.getElementsByTagName('g');
if (edges && edges.length) {
  for (var i=0;i<edges.length;i++) {
    if (edges[i].id.substr(0,4)=='edge') {
      edges[i].setAttribute('class','edge');
    }
  }
}
]]></script>
        <defs>
                <circle id="rim" cx="0" cy="0" r="7"/>
                <circle id="rim2" cx="0" cy="0" r="3.5"/>
                <g id="zoomPlus">
                        <use xlink:href="#rim" fill="#404040">
                                <set attributeName="fill" to="#808080" begin="zoomplus.mouseover" end="zoomplus.mouseout"/>
                        </use>
                        <path d="M-4,0h8M0,-4v8" fill="none" stroke="white" stroke-width="1.5" pointer-events="none"/>
                </g>
                <g id="zoomMin">
                        <use xlink:href="#rim" fill="#404040">
                                <set attributeName="fill" to="#808080" begin="zoomminus.mouseover" end="zoomminus.mouseout"/>
                        </use>
                        <path d="M-4,0h8" fill="none" stroke="white" stroke-width="1.5" pointer-events="none"/>
                </g>
                <g id="dirArrow">
                        <path fill="none" stroke="white" stroke-width="1.5" d="M0,-3.0v7 M-2.5,-0.5L0,-3.0L2.5,-0.5"/>
                </g>
               <g id="resetDef">
                       <use xlink:href="#rim2" fill="#404040">
                               <set attributeName="fill" to="#808080" begin="reset.mouseover" end="reset.mouseout"/>
                       </use>
               </g>
        </defs>

<script type="text/javascript">
var viewWidth = 1567;
var viewHeight = 276;
var sectionId = 'dynsection-68';
</script>
<script xlink:href="../../svgpan.js"/>
<svg id="graph" class="graph">
<g id="viewport">
<title>get_latin1_7bit_prefix_length</title>
<polygon fill="white" stroke="none" points="-4,4 -4,-272 1563,-272 1563,4 -4,4"/>
<!-- Node1 -->
<g id="node1" class="node"><title>Node1</title>
<polygon fill="#bfbfbf" stroke="black" points="0,-160.5 0,-190.5 109,-190.5 109,-160.5 0,-160.5"/>
<text text-anchor="start" x="8" y="-178.5" font-family="Helvetica,sans-Serif" font-size="10.00">get_latin1_7bit_prefix</text>
<text text-anchor="middle" x="54.5" y="-167.5" font-family="Helvetica,sans-Serif" font-size="10.00">_length</text>
</g>
<!-- Node2 -->
<g id="node2" class="node"><title>Node2</title>
<g id="a_node2"><a xlink:href="../../db/d20/pugixml_8cpp.html#aab8dd109bccbb59a8a2c3f5b638cd16a" target="_top" xlink:title="convert_buffer_latin1">
<polygon fill="white" stroke="black" points="145,-166 145,-185 252,-185 252,-166 145,-166"/>
<text text-anchor="middle" x="198.5" y="-173" font-family="Helvetica,sans-Serif" font-size="10.00">convert_buffer_latin1</text>
</a>
</g>
</g>
<!-- Node1&#45;&gt;Node2 -->
<g id="edge1" class="edge"><title>Node1&#45;&gt;Node2</title>
<path fill="none" stroke="midnightblue" d="M119.397,-175.5C127.851,-175.5 136.441,-175.5 144.681,-175.5"/>
<polygon fill="midnightblue" stroke="midnightblue" points="119.184,-172 109.184,-175.5 119.184,-179 119.184,-172"/>
</g>
<!-- Node3 -->
<g id="node3" class="node"><title>Node3</title>
<g id="a_node3"><a xlink:href="../../db/d20/pugixml_8cpp.html#a307f5fbb9d87b5938c0b442458185ca6" target="_top" xlink:title="convert_buffer">
<polygon fill="white" stroke="black" points="288,-147 288,-166 367,-166 367,-147 288,-147"/>
<text text-anchor="middle" x="327.5" y="-154" font-family="Helvetica,sans-Serif" font-size="10.00">convert_buffer</text>
</a>
</g>
</g>
<!-- Node2&#45;&gt;Node3 -->
<g id="edge2" class="edge"><title>Node2&#45;&gt;Node3</title>
<path fill="none" stroke="midnightblue" d="M262.345,-166.098C270.979,-164.806 279.628,-163.512 287.656,-162.311"/>
<polygon fill="midnightblue" stroke="midnightblue" points="261.628,-162.666 252.256,-167.607 262.664,-169.589 261.628,-162.666"/>
</g>
<!-- Node4 -->
<g id="node4" class="node"><title>Node4</title>
<g id="a_node4"><a xlink:href="../../db/d20/pugixml_8cpp.html#a23609126eff5820342411bf83b280225" target="_top" xlink:title="get_mutable_buffer">
<polygon fill="white" stroke="black" points="403,-166 403,-185 503,-185 503,-166 403,-166"/>
<text text-anchor="middle" x="453" y="-173" font-family="Helvetica,sans-Serif" font-size="10.00">get_mutable_buffer</text>
</a>
</g>
</g>
<!-- Node3&#45;&gt;Node4 -->
<g id="edge3" class="edge"><title>Node3&#45;&gt;Node4</title>
<path fill="none" stroke="midnightblue" d="M377.42,-157.407C394.121,-159.631 412.132,-162.74 426.27,-165.939"/>
<polygon fill="midnightblue" stroke="midnightblue" points="377.592,-153.902 367.237,-156.145 376.731,-160.849 377.592,-153.902"/>
</g>
<!-- Node5 -->
<g id="node5" class="node"><title>Node5</title>
<g id="a_node5"><a xlink:href="../../db/d20/pugixml_8cpp.html#a0d9bcb567b8ceb20206147857f03c187" target="_top" xlink:title="load_buffer_impl">
<polygon fill="white" stroke="black" points="409,-128 409,-147 497,-147 497,-128 409,-128"/>
<text text-anchor="middle" x="453" y="-135" font-family="Helvetica,sans-Serif" font-size="10.00">load_buffer_impl</text>
</a>
</g>
</g>
<!-- Node3&#45;&gt;Node5 -->
<g id="edge6" class="edge"><title>Node3&#45;&gt;Node5</title>
<path fill="none" stroke="midnightblue" d="M377.365,-148.982C387.706,-147.391 398.552,-145.723 408.672,-144.166"/>
<polygon fill="midnightblue" stroke="midnightblue" points="376.589,-145.56 367.237,-150.54 377.653,-152.479 376.589,-145.56"/>
</g>
<!-- Node4&#45;&gt;Node2 -->
<g id="edge4" class="edge"><title>Node4&#45;&gt;Node2</title>
<path fill="none" stroke="midnightblue" d="M392.639,-175.5C350.025,-175.5 293.116,-175.5 252.125,-175.5"/>
<polygon fill="midnightblue" stroke="midnightblue" points="392.871,-179 402.871,-175.5 392.871,-172 392.871,-179"/>
</g>
<!-- Node4&#45;&gt;Node3 -->
<g id="edge5" class="edge"><title>Node4&#45;&gt;Node3</title>
<path fill="none" stroke="midnightblue" d="M393.067,-173.177C379.356,-171.129 365.46,-168.607 354.089,-166.03"/>
<polygon fill="midnightblue" stroke="midnightblue" points="392.587,-176.644 402.979,-174.579 393.568,-169.713 392.587,-176.644"/>
</g>
<!-- Node6 -->
<g id="node6" class="node"><title>Node6</title>
<g id="a_node6"><a xlink:href="../../db/d20/pugixml_8cpp.html#ae84338a5107019d1ae2a491168dad821" target="_top" xlink:title="load_file_impl">
<polygon fill="white" stroke="black" points="566,-238 566,-257 642,-257 642,-238 566,-238"/>
<text text-anchor="middle" x="604" y="-245" font-family="Helvetica,sans-Serif" font-size="10.00">load_file_impl</text>
</a>
</g>
</g>
<!-- Node5&#45;&gt;Node6 -->
<g id="edge7" class="edge"><title>Node5&#45;&gt;Node6</title>
<path fill="none" stroke="midnightblue" d="M497.4,-152.184C499.378,-153.507 501.26,-154.943 503,-156.5 528.777,-179.564 512.78,-202.94 539,-225.5 546.659,-232.09 556.395,-236.735 565.948,-239.999"/>
<polygon fill="midnightblue" stroke="midnightblue" points="498.691,-148.897 488.254,-147.079 495.279,-155.009 498.691,-148.897"/>
</g>
<!-- Node9 -->
<g id="node9" class="node"><title>Node9</title>
<g id="a_node9"><a xlink:href="../../db/d20/pugixml_8cpp.html#a9a1f27967fef419fecd466f904c165e0" target="_top" xlink:title="load_stream_impl">
<polygon fill="white" stroke="black" points="557.5,-197 557.5,-216 650.5,-216 650.5,-197 557.5,-197"/>
<text text-anchor="middle" x="604" y="-204" font-family="Helvetica,sans-Serif" font-size="10.00">load_stream_impl</text>
</a>
</g>
</g>
<!-- Node5&#45;&gt;Node9 -->
<g id="edge10" class="edge"><title>Node5&#45;&gt;Node9</title>
<path fill="none" stroke="midnightblue" d="M492.868,-151.133C496.371,-152.788 499.8,-154.58 503,-156.5 521.106,-167.363 520.468,-177.382 539,-187.5 545.918,-191.277 553.676,-194.388 561.34,-196.92"/>
<polygon fill="midnightblue" stroke="midnightblue" points="494.098,-147.851 483.532,-147.076 491.308,-154.271 494.098,-147.851"/>
</g>
<!-- Node11 -->
<g id="node11" class="node"><title>Node11</title>
<g id="a_node11"><a xlink:href="../../db/d65/classpugi_1_1xml__node.html#a7e0126c503dcfba5111121ec4a94c11e" target="_top" xlink:title="pugi::xml_node::append\l_buffer">
<polygon fill="white" stroke="black" points="544,-147.5 544,-177.5 664,-177.5 664,-147.5 544,-147.5"/>
<text text-anchor="start" x="552" y="-165.5" font-family="Helvetica,sans-Serif" font-size="10.00">pugi::xml_node::append</text>
<text text-anchor="middle" x="604" y="-154.5" font-family="Helvetica,sans-Serif" font-size="10.00">_buffer</text>
</a>
</g>
</g>
<!-- Node5&#45;&gt;Node11 -->
<g id="edge12" class="edge"><title>Node5&#45;&gt;Node11</title>
<path fill="none" stroke="midnightblue" d="M507.298,-146.443C519.174,-148.435 531.834,-150.559 543.927,-152.588"/>
<polygon fill="midnightblue" stroke="midnightblue" points="507.538,-142.934 497.097,-144.731 506.38,-149.838 507.538,-142.934"/>
</g>
<!-- Node12 -->
<g id="node12" class="node"><title>Node12</title>
<g id="a_node12"><a xlink:href="../../d8/d8d/classpugi_1_1xml__document.html#ab29840790e26b2166a395c63a2b2d9bd" target="_top" xlink:title="pugi::xml_document\l::load_buffer">
<polygon fill="white" stroke="black" points="552,-98.5 552,-128.5 656,-128.5 656,-98.5 552,-98.5"/>
<text text-anchor="start" x="560" y="-116.5" font-family="Helvetica,sans-Serif" font-size="10.00">pugi::xml_document</text>
<text text-anchor="middle" x="604" y="-105.5" font-family="Helvetica,sans-Serif" font-size="10.00">::load_buffer</text>
</a>
</g>
</g>
<!-- Node5&#45;&gt;Node12 -->
<g id="edge13" class="edge"><title>Node5&#45;&gt;Node12</title>
<path fill="none" stroke="midnightblue" d="M506.972,-128.968C521.558,-126.618 537.349,-124.075 551.832,-121.742"/>
<polygon fill="midnightblue" stroke="midnightblue" points="506.413,-125.512 497.097,-130.558 507.526,-132.423 506.413,-125.512"/>
</g>
<!-- Node21 -->
<g id="node21" class="node"><title>Node21</title>
<g id="a_node21"><a xlink:href="../../d8/d8d/classpugi_1_1xml__document.html#a3e20650182ccbdd175ca069dd5e08632" target="_top" xlink:title="pugi::xml_document\l::load_buffer_inplace">
<polygon fill="white" stroke="black" points="550.5,-49.5 550.5,-79.5 657.5,-79.5 657.5,-49.5 550.5,-49.5"/>
<text text-anchor="start" x="558.5" y="-67.5" font-family="Helvetica,sans-Serif" font-size="10.00">pugi::xml_document</text>
<text text-anchor="middle" x="604" y="-56.5" font-family="Helvetica,sans-Serif" font-size="10.00">::load_buffer_inplace</text>
</a>
</g>
</g>
<!-- Node5&#45;&gt;Node21 -->
<g id="edge22" class="edge"><title>Node5&#45;&gt;Node21</title>
<path fill="none" stroke="midnightblue" d="M477.927,-122.781C494.698,-112.766 517.815,-99.5571 539,-89.5 546.328,-86.0213 554.278,-82.6267 562.004,-79.517"/>
<polygon fill="midnightblue" stroke="midnightblue" points="476.07,-119.814 469.315,-127.976 479.686,-125.808 476.07,-119.814"/>
</g>
<!-- Node22 -->
<g id="node22" class="node"><title>Node22</title>
<g id="a_node22"><a xlink:href="../../d8/d8d/classpugi_1_1xml__document.html#a9da4bdcdc4ad914fb0f4680b02983502" target="_top" xlink:title="pugi::xml_document\l::load_buffer_inplace_own">
<polygon fill="white" stroke="black" points="539,-0.5 539,-30.5 669,-30.5 669,-0.5 539,-0.5"/>
<text text-anchor="start" x="547" y="-18.5" font-family="Helvetica,sans-Serif" font-size="10.00">pugi::xml_document</text>
<text text-anchor="middle" x="604" y="-7.5" font-family="Helvetica,sans-Serif" font-size="10.00">::load_buffer_inplace_own</text>
</a>
</g>
</g>
<!-- Node5&#45;&gt;Node22 -->
<g id="edge23" class="edge"><title>Node5&#45;&gt;Node22</title>
<path fill="none" stroke="midnightblue" d="M465.725,-119.099C480.439,-97.3428 507.589,-61.3389 539,-39.5 543.872,-36.1129 549.282,-33.1334 554.834,-30.5315"/>
<polygon fill="midnightblue" stroke="midnightblue" points="462.618,-117.454 460.036,-127.729 468.462,-121.306 462.618,-117.454"/>
</g>
<!-- Node7 -->
<g id="node7" class="node"><title>Node7</title>
<g id="a_node7"><a xlink:href="../../d8/d8d/classpugi_1_1xml__document.html#aad350209a4a91589fbd7e8cdaf79e010" target="_top" xlink:title="pugi::xml_document\l::load_file">
<polygon fill="white" stroke="black" points="705,-237.5 705,-267.5 809,-267.5 809,-237.5 705,-237.5"/>
<text text-anchor="start" x="713" y="-255.5" font-family="Helvetica,sans-Serif" font-size="10.00">pugi::xml_document</text>
<text text-anchor="middle" x="757" y="-244.5" font-family="Helvetica,sans-Serif" font-size="10.00">::load_file</text>
</a>
</g>
</g>
<!-- Node6&#45;&gt;Node7 -->
<g id="edge8" class="edge"><title>Node6&#45;&gt;Node7</title>
<path fill="none" stroke="midnightblue" d="M652.4,-249.07C669.079,-249.622 687.892,-250.245 704.865,-250.807"/>
<polygon fill="midnightblue" stroke="midnightblue" points="652.436,-245.569 642.326,-248.736 652.205,-252.565 652.436,-245.569"/>
</g>
<!-- Node8 -->
<g id="node8" class="node"><title>Node8</title>
<g id="a_node8"><a xlink:href="../../d1/dc0/test__opendrive_8cpp.html#ad3c77eb93e568426e72ddb84a31031a7" target="_top" xlink:title="TEST">
<polygon fill="white" stroke="black" points="893,-243 893,-262 935,-262 935,-243 893,-243"/>
<text text-anchor="middle" x="914" y="-250" font-family="Helvetica,sans-Serif" font-size="10.00">TEST</text>
</a>
</g>
</g>
<!-- Node7&#45;&gt;Node8 -->
<g id="edge9" class="edge"><title>Node7&#45;&gt;Node8</title>
<path fill="none" stroke="midnightblue" d="M819.42,-252.5C845.541,-252.5 874.211,-252.5 892.843,-252.5"/>
<polygon fill="midnightblue" stroke="midnightblue" points="819.182,-249 809.182,-252.5 819.182,-256 819.182,-249"/>
</g>
<!-- Node10 -->
<g id="node10" class="node"><title>Node10</title>
<g id="a_node10"><a xlink:href="../../d8/d8d/classpugi_1_1xml__document.html#abb7db3882f94ac35b870510789a87778" target="_top" xlink:title="pugi::xml_document\l::load">
<polygon fill="white" stroke="black" points="705,-188.5 705,-218.5 809,-218.5 809,-188.5 705,-188.5"/>
<text text-anchor="start" x="713" y="-206.5" font-family="Helvetica,sans-Serif" font-size="10.00">pugi::xml_document</text>
<text text-anchor="middle" x="757" y="-195.5" font-family="Helvetica,sans-Serif" font-size="10.00">::load</text>
</a>
</g>
</g>
<!-- Node9&#45;&gt;Node10 -->
<g id="edge11" class="edge"><title>Node9&#45;&gt;Node10</title>
<path fill="none" stroke="midnightblue" d="M660.979,-205.388C675.368,-205.102 690.772,-204.796 704.899,-204.515"/>
<polygon fill="midnightblue" stroke="midnightblue" points="660.643,-201.894 650.715,-205.592 660.782,-208.892 660.643,-201.894"/>
</g>
<!-- Node13 -->
<g id="node13" class="node"><title>Node13</title>
<g id="a_node13"><a xlink:href="../../d8/d8d/classpugi_1_1xml__document.html#a706a276ee3d5010f2bb8c7eacb75a891" target="_top" xlink:title="pugi::xml_document\l::load_string">
<polygon fill="white" stroke="black" points="705,-98.5 705,-128.5 809,-128.5 809,-98.5 705,-98.5"/>
<text text-anchor="start" x="713" y="-116.5" font-family="Helvetica,sans-Serif" font-size="10.00">pugi::xml_document</text>
<text text-anchor="middle" x="757" y="-105.5" font-family="Helvetica,sans-Serif" font-size="10.00">::load_string</text>
</a>
</g>
</g>
<!-- Node12&#45;&gt;Node13 -->
<g id="edge14" class="edge"><title>Node12&#45;&gt;Node13</title>
<path fill="none" stroke="midnightblue" d="M666.266,-113.5C679.104,-113.5 692.512,-113.5 704.931,-113.5"/>
<polygon fill="midnightblue" stroke="midnightblue" points="666.122,-110 656.122,-113.5 666.122,-117 666.122,-110"/>
</g>
<!-- Node14 -->
<g id="node14" class="node"><title>Node14</title>
<g id="a_node14"><a xlink:href="../../de/d5a/classcarla_1_1opendrive_1_1OpenDriveParser.html#a599fd6174f30aaee59590c16503afd8a" target="_top" xlink:title="carla::opendrive::OpenDrive\lParser::Load">
<polygon fill="white" stroke="black" points="845,-123.5 845,-153.5 983,-153.5 983,-123.5 845,-123.5"/>
<text text-anchor="start" x="853" y="-141.5" font-family="Helvetica,sans-Serif" font-size="10.00">carla::opendrive::OpenDrive</text>
<text text-anchor="middle" x="914" y="-130.5" font-family="Helvetica,sans-Serif" font-size="10.00">Parser::Load</text>
</a>
</g>
</g>
<!-- Node13&#45;&gt;Node14 -->
<g id="edge15" class="edge"><title>Node13&#45;&gt;Node14</title>
<path fill="none" stroke="midnightblue" d="M819.234,-123.376C827.605,-124.727 836.242,-126.12 844.728,-127.488"/>
<polygon fill="midnightblue" stroke="midnightblue" points="819.612,-119.892 809.182,-121.755 818.497,-126.803 819.612,-119.892"/>
</g>
<!-- Node20 -->
<g id="node20" class="node"><title>Node20</title>
<g id="a_node20"><a xlink:href="../../d8/d8d/classpugi_1_1xml__document.html#ae17a77772fa21a40f3d91d9c79e60d0b" target="_top" xlink:title="pugi::xml_document\l::load">
<polygon fill="white" stroke="black" points="862,-74.5 862,-104.5 966,-104.5 966,-74.5 862,-74.5"/>
<text text-anchor="start" x="870" y="-92.5" font-family="Helvetica,sans-Serif" font-size="10.00">pugi::xml_document</text>
<text text-anchor="middle" x="914" y="-81.5" font-family="Helvetica,sans-Serif" font-size="10.00">::load</text>
</a>
</g>
</g>
<!-- Node13&#45;&gt;Node20 -->
<g id="edge21" class="edge"><title>Node13&#45;&gt;Node20</title>
<path fill="none" stroke="midnightblue" d="M819.292,-104.01C833.396,-101.826 848.251,-99.5257 861.871,-97.4167"/>
<polygon fill="midnightblue" stroke="midnightblue" points="818.529,-100.586 809.182,-105.575 819.6,-107.504 818.529,-100.586"/>
</g>
<!-- Node15 -->
<g id="node15" class="node"><title>Node15</title>
<g id="a_node15"><a xlink:href="../../d2/daf/namespacecarla_1_1client.html#a228b83c6429f8e3406a93a1b41eb1565" target="_top" xlink:title="carla::client::MakeMap">
<polygon fill="white" stroke="black" points="1037,-167 1037,-186 1153,-186 1153,-167 1037,-167"/>
<text text-anchor="middle" x="1095" y="-174" font-family="Helvetica,sans-Serif" font-size="10.00">carla::client::MakeMap</text>
</a>
</g>
</g>
<!-- Node14&#45;&gt;Node15 -->
<g id="edge16" class="edge"><title>Node14&#45;&gt;Node15</title>
<path fill="none" stroke="midnightblue" d="M993.096,-155.079C1012.21,-159.137 1032.03,-163.345 1049,-166.946"/>
<polygon fill="midnightblue" stroke="midnightblue" points="993.692,-151.628 983.183,-152.975 992.238,-158.475 993.692,-151.628"/>
</g>
<!-- Node16 -->
<g id="node16" class="node"><title>Node16</title>
<g id="a_node16"><a xlink:href="../../d0/d2d/classAOpenDriveActor.html#ac8678af2b371c3a3faca8775ab1e4816" target="_top" xlink:title="AOpenDriveActor::BuildRoutes">
<polygon fill="white" stroke="black" points="1019,-129 1019,-148 1171,-148 1171,-129 1019,-129"/>
<text text-anchor="middle" x="1095" y="-136" font-family="Helvetica,sans-Serif" font-size="10.00">AOpenDriveActor::BuildRoutes</text>
</a>
</g>
</g>
<!-- Node14&#45;&gt;Node16 -->
<g id="edge17" class="edge"><title>Node14&#45;&gt;Node16</title>
<path fill="none" stroke="midnightblue" d="M993.401,-138.5C1001.85,-138.5 1010.43,-138.5 1018.84,-138.5"/>
<polygon fill="midnightblue" stroke="midnightblue" points="993.183,-135 983.183,-138.5 993.183,-142 993.183,-135"/>
</g>
<!-- Node17 -->
<g id="node17" class="node"><title>Node17</title>
<g id="a_node17"><a xlink:href="../../d8/dfe/classUOpenDriveMap.html#a0ce422ee1f79211e6957bab1d2048348" target="_top" xlink:title="Load this map with an OpenDrive (XODR) file. ">
<polygon fill="white" stroke="black" points="1037,-91 1037,-110 1153,-110 1153,-91 1037,-91"/>
<text text-anchor="middle" x="1095" y="-98" font-family="Helvetica,sans-Serif" font-size="10.00">UOpenDriveMap::Load</text>
</a>
</g>
</g>
<!-- Node14&#45;&gt;Node17 -->
<g id="edge18" class="edge"><title>Node14&#45;&gt;Node17</title>
<path fill="none" stroke="midnightblue" d="M993.096,-121.921C1012.21,-117.863 1032.03,-113.655 1049,-110.054"/>
<polygon fill="midnightblue" stroke="midnightblue" points="992.238,-118.525 983.183,-124.025 993.692,-125.372 992.238,-118.525"/>
</g>
<!-- Node18 -->
<g id="node18" class="node"><title>Node18</title>
<g id="a_node18"><a xlink:href="../../d1/d1b/classUOpenDrive.html#ac05b8dc3f340e373582945f9215081d9" target="_top" xlink:title="Load OpenDriveMap associated to the given MapName. ">
<polygon fill="white" stroke="black" points="1207,-91 1207,-110 1370,-110 1370,-91 1207,-91"/>
<text text-anchor="middle" x="1288.5" y="-98" font-family="Helvetica,sans-Serif" font-size="10.00">UOpenDrive::LoadOpenDriveMap</text>
</a>
</g>
</g>
<!-- Node17&#45;&gt;Node18 -->
<g id="edge19" class="edge"><title>Node17&#45;&gt;Node18</title>
<path fill="none" stroke="midnightblue" d="M1163.28,-100.5C1177.37,-100.5 1192.36,-100.5 1206.88,-100.5"/>
<polygon fill="midnightblue" stroke="midnightblue" points="1163.2,-97.0001 1153.2,-100.5 1163.2,-104 1163.2,-97.0001"/>
</g>
<!-- Node19 -->
<g id="node19" class="node"><title>Node19</title>
<g id="a_node19"><a xlink:href="../../d1/d1b/classUOpenDrive.html#a4486c7ee9d4a8bf6cd2a7ca5ad7e4ece" target="_top" xlink:title="Load OpenDriveMap associated to the currently loaded map. ">
<polygon fill="white" stroke="black" points="1406,-85.5 1406,-115.5 1559,-115.5 1559,-85.5 1406,-85.5"/>
<text text-anchor="start" x="1414" y="-103.5" font-family="Helvetica,sans-Serif" font-size="10.00">UOpenDrive::LoadCurrentOpen</text>
<text text-anchor="middle" x="1482.5" y="-92.5" font-family="Helvetica,sans-Serif" font-size="10.00">DriveMap</text>
</a>
</g>
</g>
<!-- Node18&#45;&gt;Node19 -->
<g id="edge20" class="edge"><title>Node18&#45;&gt;Node19</title>
<path fill="none" stroke="midnightblue" d="M1380.11,-100.5C1388.68,-100.5 1397.3,-100.5 1405.71,-100.5"/>
<polygon fill="midnightblue" stroke="midnightblue" points="1380.09,-97.0001 1370.09,-100.5 1380.09,-104 1380.09,-97.0001"/>
</g>
</g>
</svg>
        <g id="navigator" transform="translate(0 0)" fill="#404254">
                <rect fill="#f2f5e9" fill-opacity="0.5" stroke="#606060" stroke-width=".5" x="0" y="0" width="60" height="60"/>
                <use id="zoomplus" xlink:href="#zoomPlus" x="17" y="9" onmousedown="handleZoom(evt,'in')"/>
                <use id="zoomminus" xlink:href="#zoomMin" x="42" y="9" onmousedown="handleZoom(evt,'out')"/>
                <use id="reset" xlink:href="#resetDef" x="30" y="36" onmousedown="handleReset()"/>
                <g id="arrowUp" xlink:href="#dirArrow" transform="translate(30 24)" onmousedown="handlePan(0,-1)">
                  <use xlink:href="#rim" fill="#404040">
                        <set attributeName="fill" to="#808080" begin="arrowUp.mouseover" end="arrowUp.mouseout"/>
                  </use>
                  <path fill="none" stroke="white" stroke-width="1.5" d="M0,-3.0v7 M-2.5,-0.5L0,-3.0L2.5,-0.5"/>
                </g>
                <g id="arrowRight" xlink:href="#dirArrow" transform="rotate(90) translate(36 -43)" onmousedown="handlePan(1,0)">
                  <use xlink:href="#rim" fill="#404040">
                        <set attributeName="fill" to="#808080" begin="arrowRight.mouseover" end="arrowRight.mouseout"/>
                  </use>
                  <path fill="none" stroke="white" stroke-width="1.5" d="M0,-3.0v7 M-2.5,-0.5L0,-3.0L2.5,-0.5"/>
                </g>
                <g id="arrowDown" xlink:href="#dirArrow" transform="rotate(180) translate(-30 -48)" onmousedown="handlePan(0,1)">
                  <use xlink:href="#rim" fill="#404040">
                        <set attributeName="fill" to="#808080" begin="arrowDown.mouseover" end="arrowDown.mouseout"/>
                  </use>
                  <path fill="none" stroke="white" stroke-width="1.5" d="M0,-3.0v7 M-2.5,-0.5L0,-3.0L2.5,-0.5"/>
                </g>
                <g id="arrowLeft" xlink:href="#dirArrow" transform="rotate(270) translate(-36 17)" onmousedown="handlePan(-1,0)">
                  <use xlink:href="#rim" fill="#404040">
                        <set attributeName="fill" to="#808080" begin="arrowLeft.mouseover" end="arrowLeft.mouseout"/>
                  </use>
                  <path fill="none" stroke="white" stroke-width="1.5" d="M0,-3.0v7 M-2.5,-0.5L0,-3.0L2.5,-0.5"/>
                </g>
        </g>
        <svg viewBox="0 0 15 15" width="100%" height="30px" preserveAspectRatio="xMaxYMin meet">
         <g id="arrow_out" transform="scale(0.3 0.3)">
          <a xlink:href="pugixml_8cpp_a0c28347bb885f60693b5d594cfc3dbd5_icgraph_org.svg" target="_base">
           <rect id="button" ry="5" rx="5" y="6" x="6" height="38" width="38"
                fill="#f2f5e9" fill-opacity="0.5" stroke="#606060" stroke-width="1.0"/>
           <path id="arrow"
             d="M 11.500037,31.436501 C 11.940474,20.09759 22.043105,11.32322 32.158766,21.979434 L 37.068811,17.246167 C 37.068811,17.246167 37.088388,32 37.088388,32 L 22.160133,31.978069 C 22.160133,31.978069 26.997745,27.140456 26.997745,27.140456 C 18.528582,18.264221 13.291696,25.230495 11.500037,31.436501 z"
             style="fill:#404040;"/>
          </a>
         </g>
        </svg>
</svg>
