<?xml version="1.0" encoding="UTF-8" standalone="no"?>
<!DOCTYPE svg PUBLIC "-//W3C//DTD SVG 1.1//EN"
 "http://www.w3.org/Graphics/SVG/1.1/DTD/svg11.dtd">
<!-- Generated by graphviz version 2.38.0 (20140413.2041)
 -->
<!-- Title: get_value_bool Pages: 1 -->
<svg width="244pt" height="78pt"
 viewBox="0.00 0.00 244.00 77.50" xmlns="http://www.w3.org/2000/svg" xmlns:xlink="http://www.w3.org/1999/xlink">
<g id="graph0" class="graph" transform="scale(1 1) rotate(0) translate(4 73.5)">
<title>get_value_bool</title>
<polygon fill="white" stroke="none" points="-4,4 -4,-73.5 240,-73.5 240,4 -4,4"/>
<!-- Node1 -->
<g id="node1" class="node"><title>Node1</title>
<polygon fill="#bfbfbf" stroke="black" points="0,-22.5 0,-41.5 82,-41.5 82,-22.5 0,-22.5"/>
<text text-anchor="middle" x="41" y="-29.5" font-family="Helvetica,sans-Serif" font-size="10.00">get_value_bool</text>
</g>
<!-- Node2 -->
<g id="node2" class="node"><title>Node2</title>
<g id="a_node2"><a xlink:href="../../de/d7c/classpugi_1_1xml__attribute.html#a715646ddcfcd9f327934f9083f949796" target="_top" xlink:title="pugi::xml_attribute\l::as_bool">
<polygon fill="white" stroke="black" points="128.5,-39 128.5,-69 225.5,-69 225.5,-39 128.5,-39"/>
<text text-anchor="start" x="136.5" y="-57" font-family="Helvetica,sans-Serif" font-size="10.00">pugi::xml_attribute</text>
<text text-anchor="middle" x="177" y="-46" font-family="Helvetica,sans-Serif" font-size="10.00">::as_bool</text>
</a>
</g>
</g>
<!-- Node1&#45;&gt;Node2 -->
<g id="edge1" class="edge"><title>Node1&#45;&gt;Node2</title>
<path fill="none" stroke="midnightblue" d="M92.3238,-40.2621C104.099,-42.1954 116.609,-44.2492 128.267,-46.1633"/>
<polygon fill="midnightblue" stroke="midnightblue" points="92.6394,-36.7671 82.2044,-38.6007 91.5052,-43.6747 92.6394,-36.7671"/>
</g>
<!-- Node3 -->
<g id="node3" class="node"><title>Node3</title>
<g id="a_node3"><a xlink:href="../../d6/dd6/classpugi_1_1xml__text.html#ab591c10f3adc62024cf8ffc53c4e372e" target="_top" xlink:title="pugi::xml_text::as_bool">
<polygon fill="white" stroke="black" points="118,-0.5 118,-19.5 236,-19.5 236,-0.5 118,-0.5"/>
<text text-anchor="middle" x="177" y="-7.5" font-family="Helvetica,sans-Serif" font-size="10.00">pugi::xml_text::as_bool</text>
</a>
</g>
</g>
<!-- Node1&#45;&gt;Node3 -->
<g id="edge2" class="edge"><title>Node1&#45;&gt;Node3</title>
<path fill="none" stroke="midnightblue" d="M92.2289,-23.7535C100.632,-22.3739 109.411,-20.9325 117.99,-19.5241"/>
<polygon fill="midnightblue" stroke="midnightblue" points="91.5052,-20.3253 82.2044,-25.3993 92.6394,-27.2329 91.5052,-20.3253"/>
</g>
</g>
</svg>
