<?xml version="1.0" encoding="UTF-8" standalone="no"?>
<!DOCTYPE svg PUBLIC "-//W3C//DTD SVG 1.1//EN"
 "http://www.w3.org/Graphics/SVG/1.1/DTD/svg11.dtd">
<!-- Generated by graphviz version 2.40.1 (20161225.0304)
 -->
<!-- Title: rosgraph::msg::ClockPubSubType::ClockPubSubType Pages: 1 -->
<svg width="360pt" height="137pt"
 viewBox="0.00 0.00 360.00 137.00" xmlns="http://www.w3.org/2000/svg" xmlns:xlink="http://www.w3.org/1999/xlink">
<g id="graph0" class="graph" transform="scale(1 1) rotate(0) translate(4 133)">
<title>rosgraph::msg::ClockPubSubType::ClockPubSubType</title>
<polygon fill="#ffffff" stroke="transparent" points="-4,4 -4,-133 356,-133 356,4 -4,4"/>
<!-- Node0 -->
<g id="node1" class="node">
<title>Node0</title>
<polygon fill="#bfbfbf" stroke="#000000" points="0,-49.5 0,-79.5 155,-79.5 155,-49.5 0,-49.5"/>
<text text-anchor="start" x="8" y="-67.5" font-family="Helvetica,sans-Serif" font-size="10.00" fill="#000000">rosgraph::msg::ClockPubSub</text>
<text text-anchor="middle" x="77.5" y="-56.5" font-family="Helvetica,sans-Serif" font-size="10.00" fill="#000000">Type::ClockPubSubType</text>
</g>
<!-- Node1 -->
<g id="node2" class="node">
<title>Node1</title>
<g id="a_node2"><a xlink:href="../../d7/dea/classrosgraph_1_1msg_1_1Clock.html#a16ac2e141e45989a372d83a7e66e03e3" target="_top" xlink:title="This function returns the maximum serialized size of the Key of an object depending on the buffer ali...">
<polygon fill="#ffffff" stroke="#000000" points="191,-98.5 191,-128.5 352,-128.5 352,-98.5 191,-98.5"/>
<text text-anchor="start" x="199" y="-116.5" font-family="Helvetica,sans-Serif" font-size="10.00" fill="#000000">rosgraph::msg::Clock</text>
<text text-anchor="middle" x="271.5" y="-105.5" font-family="Helvetica,sans-Serif" font-size="10.00" fill="#000000">::getKeyMaxCdrSerializedSize</text>
</a>
</g>
</g>
<!-- Node0&#45;&gt;Node1 -->
<g id="edge1" class="edge">
<title>Node0&#45;&gt;Node1</title>
<path fill="none" stroke="#191970" d="M137.0248,-79.5346C157.6016,-84.7318 180.8371,-90.6006 202.1336,-95.9796"/>
<polygon fill="#191970" stroke="#191970" points="201.5351,-99.4383 212.0878,-98.4938 203.2494,-92.6514 201.5351,-99.4383"/>
</g>
<!-- Node2 -->
<g id="node3" class="node">
<title>Node2</title>
<g id="a_node3"><a xlink:href="../../d7/dea/classrosgraph_1_1msg_1_1Clock.html#a1cca79ea9ff7cefe572d3d5ef150ca95" target="_top" xlink:title="This function returns the maximum serialized size of an object depending on the buffer alignment...">
<polygon fill="#ffffff" stroke="#000000" points="200,-49.5 200,-79.5 343,-79.5 343,-49.5 200,-49.5"/>
<text text-anchor="start" x="208" y="-67.5" font-family="Helvetica,sans-Serif" font-size="10.00" fill="#000000">rosgraph::msg::Clock</text>
<text text-anchor="middle" x="271.5" y="-56.5" font-family="Helvetica,sans-Serif" font-size="10.00" fill="#000000">::getMaxCdrSerializedSize</text>
</a>
</g>
</g>
<!-- Node0&#45;&gt;Node2 -->
<g id="edge2" class="edge">
<title>Node0&#45;&gt;Node2</title>
<path fill="none" stroke="#191970" d="M155.0103,-64.5C166.4383,-64.5 178.2428,-64.5 189.7533,-64.5"/>
<polygon fill="#191970" stroke="#191970" points="189.7762,-68.0001 199.7762,-64.5 189.7761,-61.0001 189.7762,-68.0001"/>
</g>
<!-- Node3 -->
<g id="node4" class="node">
<title>Node3</title>
<g id="a_node4"><a xlink:href="../../d7/dea/classrosgraph_1_1msg_1_1Clock.html#aacb1826d3981523033990daf9ccc3e67" target="_top" xlink:title="This function tells you if the Key has been defined for this type. ">
<polygon fill="#ffffff" stroke="#000000" points="212,-.5 212,-30.5 331,-30.5 331,-.5 212,-.5"/>
<text text-anchor="start" x="220" y="-18.5" font-family="Helvetica,sans-Serif" font-size="10.00" fill="#000000">rosgraph::msg::Clock</text>
<text text-anchor="middle" x="271.5" y="-7.5" font-family="Helvetica,sans-Serif" font-size="10.00" fill="#000000">::isKeyDefined</text>
</a>
</g>
</g>
<!-- Node0&#45;&gt;Node3 -->
<g id="edge3" class="edge">
<title>Node0&#45;&gt;Node3</title>
<path fill="none" stroke="#191970" d="M137.0248,-49.4654C157.6016,-44.2682 180.8371,-38.3994 202.1336,-33.0204"/>
<polygon fill="#191970" stroke="#191970" points="203.2494,-36.3486 212.0878,-30.5062 201.5351,-29.5617 203.2494,-36.3486"/>
</g>
</g>
</svg>
