<?xml version="1.0" encoding="UTF-8" standalone="no"?>
<!DOCTYPE svg PUBLIC "-//W3C//DTD SVG 1.1//EN"
 "http://www.w3.org/Graphics/SVG/1.1/DTD/svg11.dtd">
<!-- Generated by graphviz version 2.40.1 (20161225.0304)
 -->
<!-- Title: CarlaRecorderAnimVehicles::Add Pages: 1 -->
<!--zoomable 182 -->
<svg id="main" version="1.1" xmlns="http://www.w3.org/2000/svg" xmlns:xlink="http://www.w3.org/1999/xlink" xml:space="preserve" onload="init(evt)">
<style type="text/css"><![CDATA[
.edge:hover path { stroke: red; }
.edge:hover polygon { stroke: red; fill: red; }
]]></style>
<script type="text/javascript"><![CDATA[
var edges = document.getElementsByTagName('g');
if (edges && edges.length) {
  for (var i=0;i<edges.length;i++) {
    if (edges[i].id.substr(0,4)=='edge') {
      edges[i].setAttribute('class','edge');
    }
  }
}
]]></script>
        <defs>
                <circle id="rim" cx="0" cy="0" r="7"/>
                <circle id="rim2" cx="0" cy="0" r="3.5"/>
                <g id="zoomPlus">
                        <use xlink:href="#rim" fill="#404040">
                                <set attributeName="fill" to="#808080" begin="zoomplus.mouseover" end="zoomplus.mouseout"/>
                        </use>
                        <path d="M-4,0h8M0,-4v8" fill="none" stroke="white" stroke-width="1.5" pointer-events="none"/>
                </g>
                <g id="zoomMin">
                        <use xlink:href="#rim" fill="#404040">
                                <set attributeName="fill" to="#808080" begin="zoomminus.mouseover" end="zoomminus.mouseout"/>
                        </use>
                        <path d="M-4,0h8" fill="none" stroke="white" stroke-width="1.5" pointer-events="none"/>
                </g>
                <g id="dirArrow">
                        <path fill="none" stroke="white" stroke-width="1.5" d="M0,-3.0v7 M-2.5,-0.5L0,-3.0L2.5,-0.5"/>
                </g>
               <g id="resetDef">
                       <use xlink:href="#rim2" fill="#404040">
                               <set attributeName="fill" to="#808080" begin="reset.mouseover" end="reset.mouseout"/>
                       </use>
               </g>
        </defs>

<script type="text/javascript">
var viewWidth = 1944;
var viewHeight = 182;
var sectionId = 'dynsection-1';
</script>
<script xlink:href="../../svgpan.js"/>
<svg id="graph" class="graph">
<g id="viewport">
<title>CarlaRecorderAnimVehicles::Add</title>
<polygon fill="#ffffff" stroke="transparent" points="-4,4 -4,-178 1940,-178 1940,4 -4,4"/>
<!-- Node1 -->
<g id="node1" class="node">
<title>Node1</title>
<polygon fill="#bfbfbf" stroke="#000000" points="0,-88.5 0,-107.5 176,-107.5 176,-88.5 0,-88.5"/>
<text text-anchor="middle" x="88" y="-95.5" font-family="Helvetica,sans-Serif" font-size="10.00" fill="#000000">CarlaRecorderAnimVehicles::Add</text>
</g>
<!-- Node2 -->
<g id="node2" class="node">
<title>Node2</title>
<g id="a_node2"><a xlink:href="../../de/db4/classFFrameData.html#a0968375c2cbc8c3c287f2d33e7e57de4" target="_top" xlink:title="FFrameData::AddAnimVehicle">
<polygon fill="#ffffff" stroke="#000000" points="220,-110.5 220,-129.5 381,-129.5 381,-110.5 220,-110.5"/>
<text text-anchor="middle" x="300.5" y="-117.5" font-family="Helvetica,sans-Serif" font-size="10.00" fill="#000000">FFrameData::AddAnimVehicle</text>
</a>
</g>
</g>
<!-- Node1&#45;&gt;Node2 -->
<g id="edge1" class="edge">
<title>Node1&#45;&gt;Node2</title>
<path fill="none" stroke="#191970" d="M186.5169,-108.1994C197.7223,-109.3595 209.0431,-110.5315 219.9771,-111.6635"/>
<polygon fill="#191970" stroke="#191970" points="186.5803,-104.6873 176.273,-107.1389 185.8594,-111.6501 186.5803,-104.6873"/>
</g>
<!-- Node13 -->
<g id="node13" class="node">
<title>Node13</title>
<g id="a_node13"><a xlink:href="../../dd/db9/classACarlaRecorder.html#aad147b3215cc84832562392e8e29c142" target="_top" xlink:title="ACarlaRecorder::AddAnimVehicle">
<polygon fill="#ffffff" stroke="#000000" points="212,-69.5 212,-88.5 389,-88.5 389,-69.5 212,-69.5"/>
<text text-anchor="middle" x="300.5" y="-76.5" font-family="Helvetica,sans-Serif" font-size="10.00" fill="#000000">ACarlaRecorder::AddAnimVehicle</text>
</a>
</g>
</g>
<!-- Node1&#45;&gt;Node13 -->
<g id="edge16" class="edge">
<title>Node1&#45;&gt;Node13</title>
<path fill="none" stroke="#191970" d="M186.2414,-89.2161C194.7714,-88.4534 203.3707,-87.6845 211.8175,-86.9293"/>
<polygon fill="#191970" stroke="#191970" points="185.9216,-85.7306 176.273,-90.1074 186.545,-92.7028 185.9216,-85.7306"/>
</g>
<!-- Node3 -->
<g id="node3" class="node">
<title>Node3</title>
<g id="a_node3"><a xlink:href="../../de/db4/classFFrameData.html#a5f5d2e536798d5e505749766112d6342" target="_top" xlink:title="FFrameData::AddVehicleAnimation">
<polygon fill="#ffffff" stroke="#000000" points="425,-110.5 425,-129.5 610,-129.5 610,-110.5 425,-110.5"/>
<text text-anchor="middle" x="517.5" y="-117.5" font-family="Helvetica,sans-Serif" font-size="10.00" fill="#000000">FFrameData::AddVehicleAnimation</text>
</a>
</g>
</g>
<!-- Node2&#45;&gt;Node3 -->
<g id="edge2" class="edge">
<title>Node2&#45;&gt;Node3</title>
<path fill="none" stroke="#191970" d="M391.3989,-120C402.4845,-120 413.8219,-120 424.9316,-120"/>
<polygon fill="#191970" stroke="#191970" points="391.3028,-116.5001 381.3028,-120 391.3028,-123.5001 391.3028,-116.5001"/>
</g>
<!-- Node11 -->
<g id="node11" class="node">
<title>Node11</title>
<g id="a_node11"><a xlink:href="../../de/db4/classFFrameData.html#ab520e8c971f0fa7e95258e6675c6e10c" target="_top" xlink:title="FFrameData::SetEpisode">
<polygon fill="#ffffff" stroke="#000000" points="1600,-88.5 1600,-107.5 1735,-107.5 1735,-88.5 1600,-88.5"/>
<text text-anchor="middle" x="1667.5" y="-95.5" font-family="Helvetica,sans-Serif" font-size="10.00" fill="#000000">FFrameData::SetEpisode</text>
</a>
</g>
</g>
<!-- Node2&#45;&gt;Node11 -->
<g id="edge15" class="edge">
<title>Node2&#45;&gt;Node11</title>
<path fill="none" stroke="#191970" d="M355.0318,-131.5024C435.0963,-147.3597 589.3452,-174 722,-174 722,-174 722,-174 1290.5,-174 1413.2232,-174 1444.9405,-165.7629 1564,-136 1592.9694,-128.7581 1625.0658,-116.2315 1645.7207,-107.55"/>
<polygon fill="#191970" stroke="#191970" points="355.6657,-128.0599 345.1733,-129.5298 354.2923,-134.9238 355.6657,-128.0599"/>
</g>
<!-- Node4 -->
<g id="node4" class="node">
<title>Node4</title>
<g id="a_node4"><a xlink:href="../../de/db4/classFFrameData.html#a0e24864c0604fad2cd3a5fc74345db4c" target="_top" xlink:title="FFrameData::GetFrameData">
<polygon fill="#ffffff" stroke="#000000" points="646,-88.5 646,-107.5 798,-107.5 798,-88.5 646,-88.5"/>
<text text-anchor="middle" x="722" y="-95.5" font-family="Helvetica,sans-Serif" font-size="10.00" fill="#000000">FFrameData::GetFrameData</text>
</a>
</g>
</g>
<!-- Node3&#45;&gt;Node4 -->
<g id="edge3" class="edge">
<title>Node3&#45;&gt;Node4</title>
<path fill="none" stroke="#191970" d="M616.01,-109.4023C626.0431,-108.323 636.1243,-107.2385 645.8665,-106.1904"/>
<polygon fill="#191970" stroke="#191970" points="615.5755,-105.9288 606.0073,-110.4784 616.3243,-112.8886 615.5755,-105.9288"/>
</g>
<!-- Node3&#45;&gt;Node11 -->
<g id="edge14" class="edge">
<title>Node3&#45;&gt;Node11</title>
<path fill="none" stroke="#191970" d="M620.4195,-126.571C698.3711,-130.9855 808.1277,-136 904.5,-136 904.5,-136 904.5,-136 1290.5,-136 1403.8113,-136 1535.3181,-118.7963 1609.2354,-107.54"/>
<polygon fill="#191970" stroke="#191970" points="620.3002,-123.0585 610.1163,-125.9806 619.8996,-130.0471 620.3002,-123.0585"/>
</g>
<!-- Node5 -->
<g id="node5" class="node">
<title>Node5</title>
<g id="a_node5"><a xlink:href="../../dc/d49/classFCarlaEngine.html#aff440c7ba9d004e4c5b60125cc4d709b" target="_top" xlink:title="FCarlaEngine::OnPostTick">
<polygon fill="#ffffff" stroke="#000000" points="834,-50.5 834,-69.5 975,-69.5 975,-50.5 834,-50.5"/>
<text text-anchor="middle" x="904.5" y="-57.5" font-family="Helvetica,sans-Serif" font-size="10.00" fill="#000000">FCarlaEngine::OnPostTick</text>
</a>
</g>
</g>
<!-- Node4&#45;&gt;Node5 -->
<g id="edge4" class="edge">
<title>Node4&#45;&gt;Node5</title>
<path fill="none" stroke="#191970" d="M778.0995,-86.319C803.9804,-80.9301 834.3146,-74.6139 858.7787,-69.5201"/>
<polygon fill="#191970" stroke="#191970" points="777.129,-82.9459 768.0525,-88.411 778.556,-89.799 777.129,-82.9459"/>
</g>
<!-- Node4&#45;&gt;Node11 -->
<g id="edge13" class="edge">
<title>Node4&#45;&gt;Node11</title>
<path fill="none" stroke="#191970" d="M808.3937,-98C883.2775,-98 994.544,-98 1091.5,-98 1091.5,-98 1091.5,-98 1290.5,-98 1398.6584,-98 1524.2711,-98 1599.7369,-98"/>
<polygon fill="#191970" stroke="#191970" points="808.0741,-94.5001 798.074,-98 808.074,-101.5001 808.0741,-94.5001"/>
</g>
<!-- Node6 -->
<g id="node6" class="node">
<title>Node6</title>
<g id="a_node6"><a xlink:href="../../dc/d49/classFCarlaEngine.html#ab8d13063cde985781237dd7da308227e" target="_top" xlink:title="FCarlaEngine::NotifyInitGame">
<polygon fill="#ffffff" stroke="#000000" points="1011,-50.5 1011,-69.5 1172,-69.5 1172,-50.5 1011,-50.5"/>
<text text-anchor="middle" x="1091.5" y="-57.5" font-family="Helvetica,sans-Serif" font-size="10.00" fill="#000000">FCarlaEngine::NotifyInitGame</text>
</a>
</g>
</g>
<!-- Node5&#45;&gt;Node6 -->
<g id="edge5" class="edge">
<title>Node5&#45;&gt;Node6</title>
<path fill="none" stroke="#191970" d="M985.4396,-60C993.9095,-60 1002.5195,-60 1010.9848,-60"/>
<polygon fill="#191970" stroke="#191970" points="985.1967,-56.5001 975.1967,-60 985.1966,-63.5001 985.1967,-56.5001"/>
</g>
<!-- Node7 -->
<g id="node7" class="node">
<title>Node7</title>
<g id="a_node7"><a xlink:href="../../dc/d49/classFCarlaEngine.html#a4dfd3b01c0b1413b4f69fda71efc25ce" target="_top" xlink:title="FCarlaEngine::ResetFrame\lCounter">
<polygon fill="#ffffff" stroke="#000000" points="1020,-1 1020,-31 1163,-31 1163,-1 1020,-1"/>
<text text-anchor="start" x="1028" y="-19" font-family="Helvetica,sans-Serif" font-size="10.00" fill="#000000">FCarlaEngine::ResetFrame</text>
<text text-anchor="middle" x="1091.5" y="-8" font-family="Helvetica,sans-Serif" font-size="10.00" fill="#000000">Counter</text>
</a>
</g>
</g>
<!-- Node5&#45;&gt;Node7 -->
<g id="edge6" class="edge">
<title>Node5&#45;&gt;Node7</title>
<path fill="none" stroke="#191970" d="M955.0072,-48.116C977.3155,-42.8669 1003.7979,-36.6358 1027.4722,-31.0654"/>
<polygon fill="#191970" stroke="#191970" points="954.0087,-44.7552 945.0762,-50.4527 955.6121,-51.5691 954.0087,-44.7552"/>
</g>
<!-- Node8 -->
<g id="node8" class="node">
<title>Node8</title>
<g id="a_node8"><a xlink:href="../../dc/d49/classFCarlaEngine.html#ab4c918e4d4855a26ab57c4bb79ad4645" target="_top" xlink:title="FCarlaEngine::NotifyBegin\lEpisode">
<polygon fill="#ffffff" stroke="#000000" points="1218.5,-39 1218.5,-69 1362.5,-69 1362.5,-39 1218.5,-39"/>
<text text-anchor="start" x="1226.5" y="-57" font-family="Helvetica,sans-Serif" font-size="10.00" fill="#000000">FCarlaEngine::NotifyBegin</text>
<text text-anchor="middle" x="1290.5" y="-46" font-family="Helvetica,sans-Serif" font-size="10.00" fill="#000000">Episode</text>
</a>
</g>
</g>
<!-- Node7&#45;&gt;Node8 -->
<g id="edge7" class="edge">
<title>Node7&#45;&gt;Node8</title>
<path fill="none" stroke="#191970" d="M1173.2756,-31.6154C1188.1792,-34.4614 1203.631,-37.412 1218.2349,-40.2006"/>
<polygon fill="#191970" stroke="#191970" points="1173.5414,-28.103 1163.0624,-29.6652 1172.2284,-34.9788 1173.5414,-28.103"/>
</g>
<!-- Node9 -->
<g id="node9" class="node">
<title>Node9</title>
<g id="a_node9"><a xlink:href="../../de/db4/classFFrameData.html#a58809cab8ccb22f75c9765869ae136ae" target="_top" xlink:title="FFrameData::SetFrameCounter">
<polygon fill="#ffffff" stroke="#000000" points="1208,-.5 1208,-19.5 1373,-19.5 1373,-.5 1208,-.5"/>
<text text-anchor="middle" x="1290.5" y="-7.5" font-family="Helvetica,sans-Serif" font-size="10.00" fill="#000000">FFrameData::SetFrameCounter</text>
</a>
</g>
</g>
<!-- Node7&#45;&gt;Node9 -->
<g id="edge8" class="edge">
<title>Node7&#45;&gt;Node9</title>
<path fill="none" stroke="#191970" d="M1173.3717,-13.5315C1184.7132,-13.1896 1196.3703,-12.8381 1207.7281,-12.4956"/>
<polygon fill="#191970" stroke="#191970" points="1172.9524,-10.0425 1163.0624,-13.8423 1173.1634,-17.0393 1172.9524,-10.0425"/>
</g>
<!-- Node10 -->
<g id="node10" class="node">
<title>Node10</title>
<g id="a_node10"><a xlink:href="../../de/db4/classFFrameData.html#aa23cccda1659af6f10264e73a73c1e27" target="_top" xlink:title="FFrameData::PlayFrameData">
<polygon fill="#ffffff" stroke="#000000" points="1409,-47.5 1409,-66.5 1564,-66.5 1564,-47.5 1409,-47.5"/>
<text text-anchor="middle" x="1486.5" y="-54.5" font-family="Helvetica,sans-Serif" font-size="10.00" fill="#000000">FFrameData::PlayFrameData</text>
</a>
</g>
</g>
<!-- Node9&#45;&gt;Node10 -->
<g id="edge9" class="edge">
<title>Node9&#45;&gt;Node10</title>
<path fill="none" stroke="#191970" d="M1342.4594,-21.8372C1352.5947,-24.1827 1363.1351,-26.6474 1373,-29 1398.171,-35.0029 1426.4231,-41.9718 1448.4435,-47.4554"/>
<polygon fill="#191970" stroke="#191970" points="1343.0301,-18.377 1332.4993,-19.5401 1341.4569,-25.198 1343.0301,-18.377"/>
</g>
<!-- Node9&#45;&gt;Node11 -->
<g id="edge12" class="edge">
<title>Node9&#45;&gt;Node11</title>
<path fill="none" stroke="#191970" d="M1383.3676,-9.8481C1437.2595,-12.1218 1505.7791,-19.1128 1564,-38 1599.5612,-49.5362 1636.2833,-74.5127 1654.9528,-88.3258"/>
<polygon fill="#191970" stroke="#191970" points="1383.2606,-6.3417 1373.1367,-9.4653 1382.9989,-13.3368 1383.2606,-6.3417"/>
</g>
<!-- Node10&#45;&gt;Node11 -->
<g id="edge10" class="edge">
<title>Node10&#45;&gt;Node11</title>
<path fill="none" stroke="#191970" d="M1538.3574,-68.7467C1565.9603,-74.9993 1599.4682,-82.5895 1625.4345,-88.4714"/>
<polygon fill="#191970" stroke="#191970" points="1539.0062,-65.3051 1528.48,-66.5093 1537.4596,-72.1321 1539.0062,-65.3051"/>
</g>
<!-- Node12 -->
<g id="node12" class="node">
<title>Node12</title>
<g id="a_node12"><a xlink:href="../../dc/d84/classUCarlaEpisode.html#a2f0288d27d5fd7c84c33ebad36621cc7" target="_top" xlink:title="UCarlaEpisode::UCarlaEpisode">
<polygon fill="#ffffff" stroke="#000000" points="1771,-88.5 1771,-107.5 1936,-107.5 1936,-88.5 1771,-88.5"/>
<text text-anchor="middle" x="1853.5" y="-95.5" font-family="Helvetica,sans-Serif" font-size="10.00" fill="#000000">UCarlaEpisode::UCarlaEpisode</text>
</a>
</g>
</g>
<!-- Node11&#45;&gt;Node12 -->
<g id="edge11" class="edge">
<title>Node11&#45;&gt;Node12</title>
<path fill="none" stroke="#191970" d="M1745.3889,-98C1753.8469,-98 1762.4762,-98 1770.9869,-98"/>
<polygon fill="#191970" stroke="#191970" points="1745.1765,-94.5001 1735.1764,-98 1745.1764,-101.5001 1745.1765,-94.5001"/>
</g>
<!-- Node14 -->
<g id="node14" class="node">
<title>Node14</title>
<g id="a_node14"><a xlink:href="../../dd/db9/classACarlaRecorder.html#a9ee35cdd255a82f0fe191fb5295ad09c" target="_top" xlink:title="ACarlaRecorder::AddVehicle\lAnimation">
<polygon fill="#ffffff" stroke="#000000" points="441.5,-53 441.5,-83 593.5,-83 593.5,-53 441.5,-53"/>
<text text-anchor="start" x="449.5" y="-71" font-family="Helvetica,sans-Serif" font-size="10.00" fill="#000000">ACarlaRecorder::AddVehicle</text>
<text text-anchor="middle" x="517.5" y="-60" font-family="Helvetica,sans-Serif" font-size="10.00" fill="#000000">Animation</text>
</a>
</g>
</g>
<!-- Node13&#45;&gt;Node14 -->
<g id="edge17" class="edge">
<title>Node13&#45;&gt;Node14</title>
<path fill="none" stroke="#191970" d="M399.3047,-73.9915C413.4258,-73.2756 427.7677,-72.5486 441.3634,-71.8595"/>
<polygon fill="#191970" stroke="#191970" points="398.8851,-70.5081 389.0752,-74.51 399.2396,-77.4992 398.8851,-70.5081"/>
</g>
<!-- Node15 -->
<g id="node15" class="node">
<title>Node15</title>
<g id="a_node15"><a xlink:href="../../dd/db9/classACarlaRecorder.html#a1074f19dfe5b16a9e10b24ef35b26abc" target="_top" xlink:title="ACarlaRecorder::Ticking">
<polygon fill="#ffffff" stroke="#000000" points="655.5,-50.5 655.5,-69.5 788.5,-69.5 788.5,-50.5 655.5,-50.5"/>
<text text-anchor="middle" x="722" y="-57.5" font-family="Helvetica,sans-Serif" font-size="10.00" fill="#000000">ACarlaRecorder::Ticking</text>
</a>
</g>
</g>
<!-- Node14&#45;&gt;Node15 -->
<g id="edge18" class="edge">
<title>Node14&#45;&gt;Node15</title>
<path fill="none" stroke="#191970" d="M603.6996,-64.6279C620.9191,-63.9543 638.7614,-63.2563 655.2071,-62.6129"/>
<polygon fill="#191970" stroke="#191970" points="603.5038,-61.1328 593.6483,-65.0211 603.7775,-68.1274 603.5038,-61.1328"/>
</g>
<!-- Node15&#45;&gt;Node5 -->
<g id="edge19" class="edge">
<title>Node15&#45;&gt;Node5</title>
<path fill="none" stroke="#191970" d="M798.7488,-60C810.3437,-60 822.2592,-60 833.7204,-60"/>
<polygon fill="#191970" stroke="#191970" points="798.6614,-56.5001 788.6614,-60 798.6613,-63.5001 798.6614,-56.5001"/>
</g>
</g>
</svg>
        <g id="navigator" transform="translate(0 0)" fill="#404254">
                <rect fill="#f2f5e9" fill-opacity="0.5" stroke="#606060" stroke-width=".5" x="0" y="0" width="60" height="60"/>
                <use id="zoomplus" xlink:href="#zoomPlus" x="17" y="9" onmousedown="handleZoom(evt,'in')"/>
                <use id="zoomminus" xlink:href="#zoomMin" x="42" y="9" onmousedown="handleZoom(evt,'out')"/>
                <use id="reset" xlink:href="#resetDef" x="30" y="36" onmousedown="handleReset()"/>
                <g id="arrowUp" xlink:href="#dirArrow" transform="translate(30 24)" onmousedown="handlePan(0,-1)">
                  <use xlink:href="#rim" fill="#404040">
                        <set attributeName="fill" to="#808080" begin="arrowUp.mouseover" end="arrowUp.mouseout"/>
                  </use>
                  <path fill="none" stroke="white" stroke-width="1.5" d="M0,-3.0v7 M-2.5,-0.5L0,-3.0L2.5,-0.5"/>
                </g>
                <g id="arrowRight" xlink:href="#dirArrow" transform="rotate(90) translate(36 -43)" onmousedown="handlePan(1,0)">
                  <use xlink:href="#rim" fill="#404040">
                        <set attributeName="fill" to="#808080" begin="arrowRight.mouseover" end="arrowRight.mouseout"/>
                  </use>
                  <path fill="none" stroke="white" stroke-width="1.5" d="M0,-3.0v7 M-2.5,-0.5L0,-3.0L2.5,-0.5"/>
                </g>
                <g id="arrowDown" xlink:href="#dirArrow" transform="rotate(180) translate(-30 -48)" onmousedown="handlePan(0,1)">
                  <use xlink:href="#rim" fill="#404040">
                        <set attributeName="fill" to="#808080" begin="arrowDown.mouseover" end="arrowDown.mouseout"/>
                  </use>
                  <path fill="none" stroke="white" stroke-width="1.5" d="M0,-3.0v7 M-2.5,-0.5L0,-3.0L2.5,-0.5"/>
                </g>
                <g id="arrowLeft" xlink:href="#dirArrow" transform="rotate(270) translate(-36 17)" onmousedown="handlePan(-1,0)">
                  <use xlink:href="#rim" fill="#404040">
                        <set attributeName="fill" to="#808080" begin="arrowLeft.mouseover" end="arrowLeft.mouseout"/>
                  </use>
                  <path fill="none" stroke="white" stroke-width="1.5" d="M0,-3.0v7 M-2.5,-0.5L0,-3.0L2.5,-0.5"/>
                </g>
        </g>
        <svg viewBox="0 0 15 15" width="100%" height="30px" preserveAspectRatio="xMaxYMin meet">
         <g id="arrow_out" transform="scale(0.3 0.3)">
          <a xlink:href="classCarlaRecorderAnimVehicles_ad99fb49da3ef3cfb504d08728d4e910b_icgraph_org.svg" target="_base">
           <rect id="button" ry="5" rx="5" y="6" x="6" height="38" width="38"
                fill="#f2f5e9" fill-opacity="0.5" stroke="#606060" stroke-width="1.0"/>
           <path id="arrow"
             d="M 11.500037,31.436501 C 11.940474,20.09759 22.043105,11.32322 32.158766,21.979434 L 37.068811,17.246167 C 37.068811,17.246167 37.088388,32 37.088388,32 L 22.160133,31.978069 C 22.160133,31.978069 26.997745,27.140456 26.997745,27.140456 C 18.528582,18.264221 13.291696,25.230495 11.500037,31.436501 z"
             style="fill:#404040;"/>
          </a>
         </g>
        </svg>
</svg>
