<?xml version="1.0" encoding="UTF-8" standalone="no"?>
<!DOCTYPE svg PUBLIC "-//W3C//DTD SVG 1.1//EN"
 "http://www.w3.org/Graphics/SVG/1.1/DTD/svg11.dtd">
<!-- Generated by graphviz version 2.38.0 (20140413.2041)
 -->
<!-- Title: gap::push Pages: 1 -->
<svg width="386pt" height="284pt"
 viewBox="0.00 0.00 386.00 283.50" xmlns="http://www.w3.org/2000/svg" xmlns:xlink="http://www.w3.org/1999/xlink">
<g id="graph0" class="graph" transform="scale(1 1) rotate(0) translate(4 279.5)">
<title>gap::push</title>
<polygon fill="white" stroke="none" points="-4,4 -4,-279.5 382,-279.5 382,4 -4,4"/>
<!-- Node1 -->
<g id="node1" class="node"><title>Node1</title>
<polygon fill="#bfbfbf" stroke="black" points="0,-114.5 0,-133.5 59,-133.5 59,-114.5 0,-114.5"/>
<text text-anchor="middle" x="29.5" y="-121.5" font-family="Helvetica,sans-Serif" font-size="10.00">gap::push</text>
</g>
<!-- Node2 -->
<g id="node2" class="node"><title>Node2</title>
<g id="a_node2"><a xlink:href="../../db/dcc/structstrconv__pcdata__impl.html#a0bd2c80c1df06c93d77332a4bb63b5b8" target="_top" xlink:title="strconv_pcdata_impl\l::parse">
<polygon fill="white" stroke="black" points="248.5,-245 248.5,-275 355.5,-275 355.5,-245 248.5,-245"/>
<text text-anchor="start" x="256.5" y="-263" font-family="Helvetica,sans-Serif" font-size="10.00">strconv_pcdata_impl</text>
<text text-anchor="middle" x="302" y="-252" font-family="Helvetica,sans-Serif" font-size="10.00">::parse</text>
</a>
</g>
</g>
<!-- Node1&#45;&gt;Node2 -->
<g id="edge1" class="edge"><title>Node1&#45;&gt;Node2</title>
<path fill="none" stroke="midnightblue" d="M40.0068,-142.809C50.7394,-162.11 70.0116,-191.571 95,-208 141.231,-238.396 204.01,-251.024 248.072,-256.271"/>
<polygon fill="midnightblue" stroke="midnightblue" points="42.9791,-140.944 35.1877,-133.765 36.8013,-144.236 42.9791,-140.944"/>
</g>
<!-- Node3 -->
<g id="node3" class="node"><title>Node3</title>
<g id="a_node3"><a xlink:href="../../d3/d81/structstrconv__attribute__impl.html#a0f57ee9d69b9d626765f4a9c8af6df2e" target="_top" xlink:title="strconv_attribute_impl\l::parse_eol">
<polygon fill="white" stroke="black" points="245.5,-196 245.5,-226 358.5,-226 358.5,-196 245.5,-196"/>
<text text-anchor="start" x="253.5" y="-214" font-family="Helvetica,sans-Serif" font-size="10.00">strconv_attribute_impl</text>
<text text-anchor="middle" x="302" y="-203" font-family="Helvetica,sans-Serif" font-size="10.00">::parse_eol</text>
</a>
</g>
</g>
<!-- Node1&#45;&gt;Node3 -->
<g id="edge2" class="edge"><title>Node1&#45;&gt;Node3</title>
<path fill="none" stroke="midnightblue" d="M44.684,-141.066C56.6604,-154.24 75.0156,-171.733 95,-181 142.542,-203.045 202.316,-209.742 245.213,-211.404"/>
<polygon fill="midnightblue" stroke="midnightblue" points="47.3127,-138.755 38.0938,-133.534 42.0445,-143.364 47.3127,-138.755"/>
</g>
<!-- Node4 -->
<g id="node4" class="node"><title>Node4</title>
<g id="a_node4"><a xlink:href="../../d3/d81/structstrconv__attribute__impl.html#a2d39998b79896af7c53c5f3dc22a526b" target="_top" xlink:title="strconv_attribute_impl\l::parse_wconv">
<polygon fill="white" stroke="black" points="245.5,-98 245.5,-128 358.5,-128 358.5,-98 245.5,-98"/>
<text text-anchor="start" x="253.5" y="-116" font-family="Helvetica,sans-Serif" font-size="10.00">strconv_attribute_impl</text>
<text text-anchor="middle" x="302" y="-105" font-family="Helvetica,sans-Serif" font-size="10.00">::parse_wconv</text>
</a>
</g>
</g>
<!-- Node1&#45;&gt;Node4 -->
<g id="edge3" class="edge"><title>Node1&#45;&gt;Node4</title>
<path fill="none" stroke="midnightblue" d="M69.3934,-122.418C115.591,-120.54 192.991,-117.392 245.478,-115.258"/>
<polygon fill="midnightblue" stroke="midnightblue" points="69.0416,-118.93 59.1921,-122.833 69.3261,-125.924 69.0416,-118.93"/>
</g>
<!-- Node5 -->
<g id="node5" class="node"><title>Node5</title>
<g id="a_node5"><a xlink:href="../../d3/d81/structstrconv__attribute__impl.html#a9b7f8b1e860c5d022dbd29f9a89e9e27" target="_top" xlink:title="strconv_attribute_impl\l::parse_wnorm">
<polygon fill="white" stroke="black" points="245.5,-49 245.5,-79 358.5,-79 358.5,-49 245.5,-49"/>
<text text-anchor="start" x="253.5" y="-67" font-family="Helvetica,sans-Serif" font-size="10.00">strconv_attribute_impl</text>
<text text-anchor="middle" x="302" y="-56" font-family="Helvetica,sans-Serif" font-size="10.00">::parse_wnorm</text>
</a>
</g>
</g>
<!-- Node1&#45;&gt;Node5 -->
<g id="edge4" class="edge"><title>Node1&#45;&gt;Node5</title>
<path fill="none" stroke="midnightblue" d="M69.1021,-115.438C115.265,-105.198 192.881,-87.9821 245.478,-76.3155"/>
<polygon fill="midnightblue" stroke="midnightblue" points="68.1969,-112.053 59.1921,-117.636 69.7128,-118.887 68.1969,-112.053"/>
</g>
<!-- Node6 -->
<g id="node6" class="node"><title>Node6</title>
<g id="a_node6"><a xlink:href="../../db/d20/pugixml_8cpp.html#a9caa489db9fff49dc8819a48849627c0" target="_top" xlink:title="strconv_cdata">
<polygon fill="white" stroke="black" points="103.5,-0.5 103.5,-19.5 181.5,-19.5 181.5,-0.5 103.5,-0.5"/>
<text text-anchor="middle" x="142.5" y="-7.5" font-family="Helvetica,sans-Serif" font-size="10.00">strconv_cdata</text>
</a>
</g>
</g>
<!-- Node1&#45;&gt;Node6 -->
<g id="edge5" class="edge"><title>Node1&#45;&gt;Node6</title>
<path fill="none" stroke="midnightblue" d="M39.1419,-105.031C49.6347,-83.8885 69.1802,-49.9274 95,-29 99.607,-25.266 105.047,-22.1751 110.553,-19.6491"/>
<polygon fill="midnightblue" stroke="midnightblue" points="35.8822,-103.735 34.7304,-114.267 42.1986,-106.752 35.8822,-103.735"/>
</g>
<!-- Node8 -->
<g id="node8" class="node"><title>Node8</title>
<g id="a_node8"><a xlink:href="../../db/d20/pugixml_8cpp.html#acd89f6b92cd5a83b4e8a56bff9e55118" target="_top" xlink:title="strconv_comment">
<polygon fill="white" stroke="black" points="95,-38.5 95,-57.5 190,-57.5 190,-38.5 95,-38.5"/>
<text text-anchor="middle" x="142.5" y="-45.5" font-family="Helvetica,sans-Serif" font-size="10.00">strconv_comment</text>
</a>
</g>
</g>
<!-- Node1&#45;&gt;Node8 -->
<g id="edge7" class="edge"><title>Node1&#45;&gt;Node8</title>
<path fill="none" stroke="midnightblue" d="M48.789,-107.593C61.3047,-96.7907 78.55,-82.7186 95,-72 103.068,-66.7428 112.427,-61.7245 120.625,-57.6486"/>
<polygon fill="midnightblue" stroke="midnightblue" points="46.1599,-105.243 40.9478,-114.467 50.7745,-110.507 46.1599,-105.243"/>
</g>
<!-- Node9 -->
<g id="node9" class="node"><title>Node9</title>
<g id="a_node9"><a xlink:href="../../db/d20/pugixml_8cpp.html#a7cf2b6da7b109a11f8cb1c7e1a09bf7e" target="_top" xlink:title="strconv_escape">
<polygon fill="white" stroke="black" points="99.5,-152.5 99.5,-171.5 185.5,-171.5 185.5,-152.5 99.5,-152.5"/>
<text text-anchor="middle" x="142.5" y="-159.5" font-family="Helvetica,sans-Serif" font-size="10.00">strconv_escape</text>
</a>
</g>
</g>
<!-- Node1&#45;&gt;Node9 -->
<g id="edge9" class="edge"><title>Node1&#45;&gt;Node9</title>
<path fill="none" stroke="midnightblue" d="M68.3913,-136.972C83.1795,-142.034 99.8285,-147.734 113.499,-152.414"/>
<polygon fill="midnightblue" stroke="midnightblue" points="69.1046,-133.517 58.51,-133.589 66.8373,-140.139 69.1046,-133.517"/>
</g>
<!-- Node7 -->
<g id="node7" class="node"><title>Node7</title>
<g id="a_node7"><a xlink:href="../../db/db4/structxml__parser.html#a40da52e4b27a0a06752930a0edf16fe9" target="_top" xlink:title="xml_parser::parse_exclamation">
<polygon fill="white" stroke="black" points="226,-5.5 226,-24.5 378,-24.5 378,-5.5 226,-5.5"/>
<text text-anchor="middle" x="302" y="-12.5" font-family="Helvetica,sans-Serif" font-size="10.00">xml_parser::parse_exclamation</text>
</a>
</g>
</g>
<!-- Node6&#45;&gt;Node7 -->
<g id="edge6" class="edge"><title>Node6&#45;&gt;Node7</title>
<path fill="none" stroke="midnightblue" d="M191.696,-11.53C202.525,-11.8738 214.266,-12.2465 225.901,-12.6159"/>
<polygon fill="midnightblue" stroke="midnightblue" points="191.732,-8.02952 181.626,-11.2104 191.51,-15.026 191.732,-8.02952"/>
</g>
<!-- Node8&#45;&gt;Node7 -->
<g id="edge8" class="edge"><title>Node8&#45;&gt;Node7</title>
<path fill="none" stroke="midnightblue" d="M198.844,-36.4041C217.392,-32.5179 237.845,-28.2325 255.547,-24.5235"/>
<polygon fill="midnightblue" stroke="midnightblue" points="198.125,-32.9786 189.056,-38.455 199.561,-39.8299 198.125,-32.9786"/>
</g>
<!-- Node9&#45;&gt;Node2 -->
<g id="edge10" class="edge"><title>Node9&#45;&gt;Node2</title>
<path fill="none" stroke="midnightblue" d="M159.394,-179.676C174.952,-196.038 200.04,-220.031 226,-235 232.896,-238.977 240.517,-242.435 248.181,-245.405"/>
<polygon fill="midnightblue" stroke="midnightblue" points="161.543,-176.847 152.173,-171.904 156.415,-181.612 161.543,-176.847"/>
</g>
<!-- Node9&#45;&gt;Node3 -->
<g id="edge11" class="edge"><title>Node9&#45;&gt;Node3</title>
<path fill="none" stroke="midnightblue" d="M183.816,-174.543C204.803,-181.072 230.615,-189.102 252.667,-195.963"/>
<polygon fill="midnightblue" stroke="midnightblue" points="184.83,-171.193 174.241,-171.564 182.75,-177.877 184.83,-171.193"/>
</g>
<!-- Node9&#45;&gt;Node4 -->
<g id="edge13" class="edge"><title>Node9&#45;&gt;Node4</title>
<path fill="none" stroke="midnightblue" d="M183.816,-149.457C204.803,-142.928 230.615,-134.898 252.667,-128.037"/>
<polygon fill="midnightblue" stroke="midnightblue" points="182.75,-146.123 174.241,-152.436 184.83,-152.807 182.75,-146.123"/>
</g>
<!-- Node9&#45;&gt;Node5 -->
<g id="edge14" class="edge"><title>Node9&#45;&gt;Node5</title>
<path fill="none" stroke="midnightblue" d="M158.381,-144.995C173.791,-128.338 199.317,-103.293 226,-88 232.049,-84.533 238.665,-81.4949 245.381,-78.8524"/>
<polygon fill="midnightblue" stroke="midnightblue" points="155.779,-142.654 151.667,-152.419 160.971,-147.349 155.779,-142.654"/>
</g>
<!-- Node10 -->
<g id="node10" class="node"><title>Node10</title>
<g id="a_node10"><a xlink:href="../../d3/d81/structstrconv__attribute__impl.html#a8358dc980178e55c8669b9dcd04872d7" target="_top" xlink:title="strconv_attribute_impl\l::parse_simple">
<polygon fill="white" stroke="black" points="245.5,-147 245.5,-177 358.5,-177 358.5,-147 245.5,-147"/>
<text text-anchor="start" x="253.5" y="-165" font-family="Helvetica,sans-Serif" font-size="10.00">strconv_attribute_impl</text>
<text text-anchor="middle" x="302" y="-154" font-family="Helvetica,sans-Serif" font-size="10.00">::parse_simple</text>
</a>
</g>
</g>
<!-- Node9&#45;&gt;Node10 -->
<g id="edge12" class="edge"><title>Node9&#45;&gt;Node10</title>
<path fill="none" stroke="midnightblue" d="M195.876,-162C211.754,-162 229.249,-162 245.335,-162"/>
<polygon fill="midnightblue" stroke="midnightblue" points="195.707,-158.5 185.707,-162 195.707,-165.5 195.707,-158.5"/>
</g>
</g>
</svg>
