<?xml version="1.0" encoding="UTF-8" standalone="no"?>
<!DOCTYPE svg PUBLIC "-//W3C//DTD SVG 1.1//EN"
 "http://www.w3.org/Graphics/SVG/1.1/DTD/svg11.dtd">
<!-- Generated by graphviz version 2.43.0 (0)
 -->
<!-- Title: carla::traffic_manager::Parameters Pages: 1 -->
<!--zoomable 699 -->
<svg id="main" version="1.1" xmlns="http://www.w3.org/2000/svg" xmlns:xlink="http://www.w3.org/1999/xlink" xml:space="preserve" onload="init(evt)">
<style type="text/css"><![CDATA[
.edge:hover path { stroke: red; }
.edge:hover polygon { stroke: red; fill: red; }
]]></style>
<script type="text/javascript"><![CDATA[
var edges = document.getElementsByTagName('g');
if (edges && edges.length) {
  for (var i=0;i<edges.length;i++) {
    if (edges[i].id.substr(0,4)=='edge') {
      edges[i].setAttribute('class','edge');
    }
  }
}
]]></script>
        <defs>
                <circle id="rim" cx="0" cy="0" r="7"/>
                <circle id="rim2" cx="0" cy="0" r="3.5"/>
                <g id="zoomPlus">
                        <use xlink:href="#rim" fill="#404040">
                                <set attributeName="fill" to="#808080" begin="zoomplus.mouseover" end="zoomplus.mouseout"/>
                        </use>
                        <path d="M-4,0h8M0,-4v8" fill="none" stroke="white" stroke-width="1.5" pointer-events="none"/>
                </g>
                <g id="zoomMin">
                        <use xlink:href="#rim" fill="#404040">
                                <set attributeName="fill" to="#808080" begin="zoomminus.mouseover" end="zoomminus.mouseout"/>
                        </use>
                        <path d="M-4,0h8" fill="none" stroke="white" stroke-width="1.5" pointer-events="none"/>
                </g>
                <g id="dirArrow">
                        <path fill="none" stroke="white" stroke-width="1.5" d="M0,-3.0v7 M-2.5,-0.5L0,-3.0L2.5,-0.5"/>
                </g>
               <g id="resetDef">
                       <use xlink:href="#rim2" fill="#404040">
                               <set attributeName="fill" to="#808080" begin="reset.mouseover" end="reset.mouseout"/>
                       </use>
               </g>
        </defs>

<script type="text/javascript">
var viewWidth = 1128;
var viewHeight = 699;
var sectionId = 'dynsection-0';
</script>
<script xlink:href="../../svgpan.js"/>
<svg id="graph" class="graph">
<g id="viewport">
<title>carla::traffic_manager::Parameters</title>
<polygon fill="white" stroke="transparent" points="-4,4 -4,-695.27 1124,-695.27 1124,4 -4,4"/>
<!-- Node1 -->
<g id="node1" class="node">
<title>Node1</title>
<g id="a_node1"><a xlink:title=" ">
<polygon fill="#bfbfbf" stroke="black" points="996,-338.27 996,-368.27 1120,-368.27 1120,-338.27 996,-338.27"/>
<text text-anchor="start" x="1004" y="-356.27" font-family="Helvetica,sans-Serif" font-size="10.00">carla::traffic_manager</text>
<text text-anchor="middle" x="1058" y="-345.27" font-family="Helvetica,sans-Serif" font-size="10.00">::Parameters</text>
</a>
</g>
</g>
<!-- Node2 -->
<g id="node2" class="node">
<title>Node2</title>
<g id="a_node2"><a xlink:href="../../d7/d02/classcarla_1_1traffic__manager_1_1AtomicMap.html" target="_top" xlink:title=" ">
<polygon fill="white" stroke="black" points="646.5,-603.77 646.5,-644.77 773.5,-644.77 773.5,-603.77 646.5,-603.77"/>
<text text-anchor="start" x="654.5" y="-632.77" font-family="Helvetica,sans-Serif" font-size="10.00">carla::traffic_manager</text>
<text text-anchor="start" x="654.5" y="-621.77" font-family="Helvetica,sans-Serif" font-size="10.00">::AtomicMap&lt; ActorId,</text>
<text text-anchor="middle" x="710" y="-610.77" font-family="Helvetica,sans-Serif" font-size="10.00"> Route &gt;</text>
</a>
</g>
</g>
<!-- Node2&#45;&gt;Node1 -->
<g id="edge1" class="edge">
<title>Node2&#45;&gt;Node1</title>
<path fill="none" stroke="#9a32cd" stroke-dasharray="5,2" d="M760.34,-649.03C818.57,-674.32 915.37,-703.63 978,-655.27 1024.87,-619.09 1049.28,-424.67 1055.43,-368.48"/>
<polygon fill="#9a32cd" stroke="#9a32cd" points="761.55,-645.73 750.99,-644.85 758.7,-652.12 761.55,-645.73"/>
<text text-anchor="middle" x="904" y="-683.27" font-family="Helvetica,sans-Serif" font-size="10.00"> custom_route</text>
</g>
<!-- Node3 -->
<g id="node3" class="node">
<title>Node3</title>
<g id="a_node3"><a xlink:title=" ">
<polygon fill="white" stroke="#bfbfbf" points="38.5,-353.77 38.5,-372.77 86.5,-372.77 86.5,-353.77 38.5,-353.77"/>
<text text-anchor="middle" x="62.5" y="-360.77" font-family="Helvetica,sans-Serif" font-size="10.00">mutex</text>
</a>
</g>
</g>
<!-- Node3&#45;&gt;Node2 -->
<g id="edge2" class="edge">
<title>Node3&#45;&gt;Node2</title>
<path fill="none" stroke="#9a32cd" stroke-dasharray="5,2" d="M71.6,-382.25C84.04,-409.82 109.89,-461.57 143,-497.27 172.51,-529.09 182.75,-537.03 223,-553.27 366.72,-611.27 551.33,-622.7 646.33,-624.45"/>
<polygon fill="#9a32cd" stroke="#9a32cd" points="74.74,-380.69 67.51,-372.95 68.34,-383.51 74.74,-380.69"/>
<text text-anchor="middle" x="325" y="-608.27" font-family="Helvetica,sans-Serif" font-size="10.00"> map_mutex</text>
</g>
<!-- Node5 -->
<g id="node5" class="node">
<title>Node5</title>
<g id="a_node5"><a xlink:href="../../d7/d02/classcarla_1_1traffic__manager_1_1AtomicMap.html" target="_top" xlink:title=" ">
<polygon fill="white" stroke="black" points="249,-330.27 249,-360.27 401,-360.27 401,-330.27 249,-330.27"/>
<text text-anchor="start" x="257" y="-348.27" font-family="Helvetica,sans-Serif" font-size="10.00">carla::traffic_manager</text>
<text text-anchor="middle" x="325" y="-337.27" font-family="Helvetica,sans-Serif" font-size="10.00">::AtomicMap&lt; Key, Value &gt;</text>
</a>
</g>
</g>
<!-- Node3&#45;&gt;Node5 -->
<g id="edge6" class="edge">
<title>Node3&#45;&gt;Node5</title>
<path fill="none" stroke="#9a32cd" stroke-dasharray="5,2" d="M96.66,-360.98C134.78,-358.34 198.57,-353.94 248.9,-350.46"/>
<polygon fill="#9a32cd" stroke="#9a32cd" points="96.35,-357.49 86.62,-361.67 96.84,-364.47 96.35,-357.49"/>
<text text-anchor="middle" x="174" y="-360.27" font-family="Helvetica,sans-Serif" font-size="10.00"> map_mutex</text>
</g>
<!-- Node7 -->
<g id="node7" class="node">
<title>Node7</title>
<g id="a_node7"><a xlink:href="../../d7/d02/classcarla_1_1traffic__manager_1_1AtomicMap.html" target="_top" xlink:title=" ">
<polygon fill="white" stroke="black" points="646.5,-505.77 646.5,-546.77 773.5,-546.77 773.5,-505.77 646.5,-505.77"/>
<text text-anchor="start" x="654.5" y="-534.77" font-family="Helvetica,sans-Serif" font-size="10.00">carla::traffic_manager</text>
<text text-anchor="start" x="654.5" y="-523.77" font-family="Helvetica,sans-Serif" font-size="10.00">::AtomicMap&lt; ActorId,</text>
<text text-anchor="middle" x="710" y="-512.77" font-family="Helvetica,sans-Serif" font-size="10.00"> float &gt;</text>
</a>
</g>
</g>
<!-- Node3&#45;&gt;Node7 -->
<g id="edge9" class="edge">
<title>Node3&#45;&gt;Node7</title>
<path fill="none" stroke="#9a32cd" stroke-dasharray="5,2" d="M75.44,-381.19C99.02,-414.83 155.17,-486.67 223,-516.27 297.06,-548.59 532.27,-538.15 646.1,-530.84"/>
<polygon fill="#9a32cd" stroke="#9a32cd" points="78.22,-379.05 69.67,-372.79 72.45,-383.01 78.22,-379.05"/>
<text text-anchor="middle" x="325" y="-541.27" font-family="Helvetica,sans-Serif" font-size="10.00"> map_mutex</text>
</g>
<!-- Node11 -->
<g id="node11" class="node">
<title>Node11</title>
<g id="a_node11"><a xlink:href="../../d7/d02/classcarla_1_1traffic__manager_1_1AtomicMap.html" target="_top" xlink:title=" ">
<polygon fill="white" stroke="black" points="608,-241.27 608,-293.27 812,-293.27 812,-241.27 608,-241.27"/>
<text text-anchor="start" x="616" y="-281.27" font-family="Helvetica,sans-Serif" font-size="10.00">carla::traffic_manager</text>
<text text-anchor="start" x="616" y="-270.27" font-family="Helvetica,sans-Serif" font-size="10.00">::AtomicMap&lt; ActorId,</text>
<text text-anchor="start" x="616" y="-259.27" font-family="Helvetica,sans-Serif" font-size="10.00"> std::shared_ptr&lt; carla</text>
<text text-anchor="middle" x="710" y="-248.27" font-family="Helvetica,sans-Serif" font-size="10.00">::traffic_manager::AtomicActorSet &gt; &gt;</text>
</a>
</g>
</g>
<!-- Node3&#45;&gt;Node11 -->
<g id="edge15" class="edge">
<title>Node3&#45;&gt;Node11</title>
<path fill="none" stroke="#9a32cd" stroke-dasharray="5,2" d="M96.53,-356.75C106.21,-353.89 116.47,-349.87 125,-344.27 135.28,-337.52 134.47,-332.12 143,-323.27 176.59,-288.38 177.9,-266.93 223,-249.27 290.56,-222.81 486.47,-240 607.94,-254.15"/>
<polygon fill="#9a32cd" stroke="#9a32cd" points="95.53,-353.39 86.75,-359.32 97.31,-360.16 95.53,-353.39"/>
<text text-anchor="middle" x="325" y="-252.27" font-family="Helvetica,sans-Serif" font-size="10.00"> map_mutex</text>
</g>
<!-- Node14 -->
<g id="node14" class="node">
<title>Node14</title>
<g id="a_node14"><a xlink:href="../../d7/d02/classcarla_1_1traffic__manager_1_1AtomicMap.html" target="_top" xlink:title=" ">
<polygon fill="white" stroke="black" points="646.5,-175.77 646.5,-216.77 773.5,-216.77 773.5,-175.77 646.5,-175.77"/>
<text text-anchor="start" x="654.5" y="-204.77" font-family="Helvetica,sans-Serif" font-size="10.00">carla::traffic_manager</text>
<text text-anchor="start" x="654.5" y="-193.77" font-family="Helvetica,sans-Serif" font-size="10.00">::AtomicMap&lt; ActorId,</text>
<text text-anchor="middle" x="710" y="-182.77" font-family="Helvetica,sans-Serif" font-size="10.00"> bool &gt;</text>
</a>
</g>
</g>
<!-- Node3&#45;&gt;Node14 -->
<g id="edge19" class="edge">
<title>Node3&#45;&gt;Node14</title>
<path fill="none" stroke="#9a32cd" stroke-dasharray="5,2" d="M96.56,-359.77C106.99,-357.08 117.69,-352.39 125,-344.27 152.59,-313.64 116.84,-285.13 143,-253.27 167.41,-223.54 185.49,-228.76 223,-220.27 371.93,-186.56 552.83,-188.49 646.31,-192.53"/>
<polygon fill="#9a32cd" stroke="#9a32cd" points="95.85,-356.34 86.77,-361.79 97.27,-363.2 95.85,-356.34"/>
<text text-anchor="middle" x="325" y="-223.27" font-family="Helvetica,sans-Serif" font-size="10.00"> map_mutex</text>
</g>
<!-- Node16 -->
<g id="node16" class="node">
<title>Node16</title>
<g id="a_node16"><a xlink:href="../../d7/d02/classcarla_1_1traffic__manager_1_1AtomicMap.html" target="_top" xlink:title=" ">
<polygon fill="white" stroke="black" points="646.5,-59.27 646.5,-111.27 773.5,-111.27 773.5,-59.27 646.5,-59.27"/>
<text text-anchor="start" x="654.5" y="-99.27" font-family="Helvetica,sans-Serif" font-size="10.00">carla::traffic_manager</text>
<text text-anchor="start" x="654.5" y="-88.27" font-family="Helvetica,sans-Serif" font-size="10.00">::AtomicMap&lt; ActorId,</text>
<text text-anchor="start" x="654.5" y="-77.27" font-family="Helvetica,sans-Serif" font-size="10.00"> carla::traffic_manager</text>
<text text-anchor="middle" x="710" y="-66.27" font-family="Helvetica,sans-Serif" font-size="10.00">::ChangeLaneInfo &gt;</text>
</a>
</g>
</g>
<!-- Node3&#45;&gt;Node16 -->
<g id="edge23" class="edge">
<title>Node3&#45;&gt;Node16</title>
<path fill="none" stroke="#9a32cd" stroke-dasharray="5,2" d="M96.57,-360.05C107.09,-357.38 117.85,-352.64 125,-344.27 161.46,-301.6 127.23,-273.14 143,-219.27 167.14,-136.81 150.76,-89.79 223,-43.27 356.33,42.58 554.63,-19.63 651.52,-59.23"/>
<polygon fill="#9a32cd" stroke="#9a32cd" points="95.79,-356.63 86.67,-362.02 97.16,-363.5 95.79,-356.63"/>
<text text-anchor="middle" x="325" y="-46.27" font-family="Helvetica,sans-Serif" font-size="10.00"> map_mutex</text>
</g>
<!-- Node19 -->
<g id="node19" class="node">
<title>Node19</title>
<g id="a_node19"><a xlink:href="../../d7/d02/classcarla_1_1traffic__manager_1_1AtomicMap.html" target="_top" xlink:title=" ">
<polygon fill="white" stroke="black" points="646.5,-350.77 646.5,-391.77 773.5,-391.77 773.5,-350.77 646.5,-350.77"/>
<text text-anchor="start" x="654.5" y="-379.77" font-family="Helvetica,sans-Serif" font-size="10.00">carla::traffic_manager</text>
<text text-anchor="start" x="654.5" y="-368.77" font-family="Helvetica,sans-Serif" font-size="10.00">::AtomicMap&lt; ActorId,</text>
<text text-anchor="middle" x="710" y="-357.77" font-family="Helvetica,sans-Serif" font-size="10.00"> Path &gt;</text>
</a>
</g>
</g>
<!-- Node3&#45;&gt;Node19 -->
<g id="edge29" class="edge">
<title>Node3&#45;&gt;Node19</title>
<path fill="none" stroke="#9a32cd" stroke-dasharray="5,2" d="M97.02,-367.79C111.18,-369.51 127.87,-371.29 143,-372.27 341.26,-385.1 391.38,-382.27 590,-377.27 608.3,-376.81 628.17,-375.95 646.34,-375.02"/>
<polygon fill="#9a32cd" stroke="#9a32cd" points="97.11,-364.27 86.75,-366.5 96.24,-371.22 97.11,-364.27"/>
<text text-anchor="middle" x="325" y="-384.27" font-family="Helvetica,sans-Serif" font-size="10.00"> map_mutex</text>
</g>
<!-- Node4 -->
<g id="node4" class="node">
<title>Node4</title>
<g id="a_node4"><a xlink:title=" ">
<polygon fill="white" stroke="#bfbfbf" points="254,-632.27 254,-662.27 396,-662.27 396,-632.27 254,-632.27"/>
<text text-anchor="start" x="262" y="-650.27" font-family="Helvetica,sans-Serif" font-size="10.00">unordered_map&lt; ActorId,</text>
<text text-anchor="middle" x="325" y="-639.27" font-family="Helvetica,sans-Serif" font-size="10.00"> Route &gt;</text>
</a>
</g>
</g>
<!-- Node4&#45;&gt;Node2 -->
<g id="edge3" class="edge">
<title>Node4&#45;&gt;Node2</title>
<path fill="none" stroke="#9a32cd" stroke-dasharray="5,2" d="M406.56,-642.43C478.06,-638.14 581.05,-631.95 646.49,-628.02"/>
<polygon fill="#9a32cd" stroke="#9a32cd" points="406.02,-638.96 396.25,-643.05 406.44,-645.95 406.02,-638.96"/>
<text text-anchor="middle" x="517.5" y="-642.27" font-family="Helvetica,sans-Serif" font-size="10.00"> map</text>
</g>
<!-- Node5&#45;&gt;Node2 -->
<g id="edge4" class="edge">
<title>Node5&#45;&gt;Node2</title>
<path fill="none" stroke="orange" stroke-dasharray="5,2" d="M410.05,-361.18C416.43,-364.96 422.22,-369.59 427,-375.27 471.35,-428.01 401.47,-475.85 445,-529.27 487.88,-581.89 526.18,-554.13 590,-577.27 612.76,-585.52 637.71,-595.27 658.86,-603.74"/>
<polygon fill="orange" stroke="orange" points="411.53,-358.01 401.04,-356.55 408.33,-364.24 411.53,-358.01"/>
<text text-anchor="middle" x="517.5" y="-580.27" font-family="Helvetica,sans-Serif" font-size="10.00"> &lt; ActorId, Route &gt;</text>
</g>
<!-- Node5&#45;&gt;Node7 -->
<g id="edge10" class="edge">
<title>Node5&#45;&gt;Node7</title>
<path fill="none" stroke="orange" stroke-dasharray="5,2" d="M410.4,-362.46C416.52,-365.98 422.16,-370.2 427,-375.27 450.07,-399.45 421.62,-424.39 445,-448.27 491.69,-495.95 526.05,-468.2 590,-487.27 609.06,-492.95 629.7,-499.56 648.35,-505.69"/>
<polygon fill="orange" stroke="orange" points="411.67,-359.18 401.16,-357.8 408.51,-365.43 411.67,-359.18"/>
<text text-anchor="middle" x="517.5" y="-490.27" font-family="Helvetica,sans-Serif" font-size="10.00"> &lt; ActorId, float &gt;</text>
</g>
<!-- Node5&#45;&gt;Node11 -->
<g id="edge16" class="edge">
<title>Node5&#45;&gt;Node11</title>
<path fill="none" stroke="orange" stroke-dasharray="5,2" d="M396.51,-327.84C419.05,-322.32 439.6,-317.36 445,-316.27 508.97,-303.42 525.88,-305.35 590,-293.27 595.82,-292.17 601.79,-291.01 607.81,-289.8"/>
<polygon fill="orange" stroke="orange" points="395.64,-324.45 386.77,-330.23 397.31,-331.25 395.64,-324.45"/>
<text text-anchor="start" x="448.5" y="-341.27" font-family="Helvetica,sans-Serif" font-size="10.00"> &lt; ActorId, std::shared</text>
<text text-anchor="start" x="448.5" y="-330.27" font-family="Helvetica,sans-Serif" font-size="10.00">_ptr&lt; carla::traffic_manager</text>
<text text-anchor="middle" x="517.5" y="-319.27" font-family="Helvetica,sans-Serif" font-size="10.00">::AtomicActorSet &gt; &gt;</text>
</g>
<!-- Node5&#45;&gt;Node14 -->
<g id="edge21" class="edge">
<title>Node5&#45;&gt;Node14</title>
<path fill="none" stroke="orange" stroke-dasharray="5,2" d="M410.24,-332.1C416.36,-328.91 422.06,-325.02 427,-320.27 447.69,-300.39 424.19,-278.03 445,-258.27 473.59,-231.12 577.79,-212.96 646.41,-203.64"/>
<polygon fill="orange" stroke="orange" points="408.67,-328.96 401,-336.27 411.56,-335.34 408.67,-328.96"/>
<text text-anchor="middle" x="517.5" y="-261.27" font-family="Helvetica,sans-Serif" font-size="10.00"> &lt; ActorId, bool &gt;</text>
</g>
<!-- Node5&#45;&gt;Node16 -->
<g id="edge25" class="edge">
<title>Node5&#45;&gt;Node16</title>
<path fill="none" stroke="orange" stroke-dasharray="5,2" d="M410.5,-333.53C416.7,-330.06 422.34,-325.71 427,-320.27 456.05,-286.4 414.12,-152.48 445,-120.27 451.93,-113.04 570.39,-99.57 646.25,-91.61"/>
<polygon fill="orange" stroke="orange" points="408.58,-330.56 401.05,-338.01 411.59,-336.89 408.58,-330.56"/>
<text text-anchor="start" x="445" y="-134.27" font-family="Helvetica,sans-Serif" font-size="10.00"> &lt; ActorId, carla::traffic</text>
<text text-anchor="middle" x="517.5" y="-123.27" font-family="Helvetica,sans-Serif" font-size="10.00">_manager::ChangeLaneInfo &gt;</text>
</g>
<!-- Node5&#45;&gt;Node19 -->
<g id="edge30" class="edge">
<title>Node5&#45;&gt;Node19</title>
<path fill="none" stroke="orange" stroke-dasharray="5,2" d="M411.5,-351.07C482.67,-355.91 582.36,-362.67 646.31,-367.01"/>
<polygon fill="orange" stroke="orange" points="411.43,-347.56 401.21,-350.38 410.95,-354.54 411.43,-347.56"/>
<text text-anchor="middle" x="517.5" y="-365.27" font-family="Helvetica,sans-Serif" font-size="10.00"> &lt; ActorId, Path &gt;</text>
</g>
<!-- Node6 -->
<g id="node6" class="node">
<title>Node6</title>
<g id="a_node6"><a xlink:title=" ">
<polygon fill="white" stroke="#bfbfbf" points="0,-304.27 0,-334.27 125,-334.27 125,-304.27 0,-304.27"/>
<text text-anchor="start" x="8" y="-322.27" font-family="Helvetica,sans-Serif" font-size="10.00">unordered_map&lt; Key,</text>
<text text-anchor="middle" x="62.5" y="-311.27" font-family="Helvetica,sans-Serif" font-size="10.00"> Value &gt;</text>
</a>
</g>
</g>
<!-- Node6&#45;&gt;Node5 -->
<g id="edge5" class="edge">
<title>Node6&#45;&gt;Node5</title>
<path fill="none" stroke="#9a32cd" stroke-dasharray="5,2" d="M135.45,-326.45C170.69,-329.97 213.1,-334.2 248.77,-337.76"/>
<polygon fill="#9a32cd" stroke="#9a32cd" points="135.53,-322.94 125.23,-325.43 134.84,-329.91 135.53,-322.94"/>
<text text-anchor="middle" x="174" y="-335.27" font-family="Helvetica,sans-Serif" font-size="10.00"> map</text>
</g>
<!-- Node7&#45;&gt;Node1 -->
<g id="edge7" class="edge">
<title>Node7&#45;&gt;Node1</title>
<path fill="none" stroke="#9a32cd" stroke-dasharray="5,2" d="M783.86,-530.18C851.82,-532.42 947.19,-531.53 978,-511.27 1028.99,-477.74 1048.45,-400.87 1054.58,-368.29"/>
<polygon fill="#9a32cd" stroke="#9a32cd" points="783.75,-526.68 773.63,-529.81 783.5,-533.67 783.75,-526.68"/>
<text text-anchor="middle" x="904" y="-643.27" font-family="Helvetica,sans-Serif" font-size="10.00"> exact_desired_speed</text>
<text text-anchor="middle" x="904" y="-632.27" font-family="Helvetica,sans-Serif" font-size="10.00">perc_ignore_walkers</text>
<text text-anchor="middle" x="904" y="-621.27" font-family="Helvetica,sans-Serif" font-size="10.00">perc_run_traffic_sign</text>
<text text-anchor="middle" x="904" y="-610.27" font-family="Helvetica,sans-Serif" font-size="10.00">perc_run_traffic_light</text>
<text text-anchor="middle" x="904" y="-599.27" font-family="Helvetica,sans-Serif" font-size="10.00">distance_to_leading_vehicle</text>
<text text-anchor="middle" x="904" y="-588.27" font-family="Helvetica,sans-Serif" font-size="10.00">lane_offset</text>
<text text-anchor="middle" x="904" y="-577.27" font-family="Helvetica,sans-Serif" font-size="10.00">perc_ignore_vehicles</text>
<text text-anchor="middle" x="904" y="-566.27" font-family="Helvetica,sans-Serif" font-size="10.00">perc_keep_right</text>
<text text-anchor="middle" x="904" y="-555.27" font-family="Helvetica,sans-Serif" font-size="10.00">perc_random_left</text>
<text text-anchor="middle" x="904" y="-544.27" font-family="Helvetica,sans-Serif" font-size="10.00">perc_random_right</text>
<text text-anchor="middle" x="904" y="-533.27" font-family="Helvetica,sans-Serif" font-size="10.00">...</text>
</g>
<!-- Node8 -->
<g id="node8" class="node">
<title>Node8</title>
<g id="a_node8"><a xlink:title=" ">
<polygon fill="white" stroke="#bfbfbf" points="254,-476.27 254,-506.27 396,-506.27 396,-476.27 254,-476.27"/>
<text text-anchor="start" x="262" y="-494.27" font-family="Helvetica,sans-Serif" font-size="10.00">unordered_map&lt; ActorId,</text>
<text text-anchor="middle" x="325" y="-483.27" font-family="Helvetica,sans-Serif" font-size="10.00"> float &gt;</text>
</a>
</g>
</g>
<!-- Node8&#45;&gt;Node7 -->
<g id="edge8" class="edge">
<title>Node8&#45;&gt;Node7</title>
<path fill="none" stroke="#9a32cd" stroke-dasharray="5,2" d="M406.56,-498.63C478.06,-505.17 581.05,-514.58 646.49,-520.56"/>
<polygon fill="#9a32cd" stroke="#9a32cd" points="406.53,-495.11 396.25,-497.69 405.89,-502.09 406.53,-495.11"/>
<text text-anchor="middle" x="517.5" y="-517.27" font-family="Helvetica,sans-Serif" font-size="10.00"> map</text>
</g>
<!-- Node9 -->
<g id="node9" class="node">
<title>Node9</title>
<g id="a_node9"><a xlink:title=" ">
<polygon fill="white" stroke="#bfbfbf" points="691,-460.77 691,-479.77 729,-479.77 729,-460.77 691,-460.77"/>
<text text-anchor="middle" x="710" y="-467.77" font-family="Helvetica,sans-Serif" font-size="10.00">float</text>
</a>
</g>
</g>
<!-- Node9&#45;&gt;Node1 -->
<g id="edge11" class="edge">
<title>Node9&#45;&gt;Node1</title>
<path fill="none" stroke="#9a32cd" stroke-dasharray="5,2" d="M739.41,-466.89C803.79,-459.1 956.84,-439.73 978,-429.27 1007,-414.93 1032.32,-386.12 1046.06,-368.38"/>
<polygon fill="#9a32cd" stroke="#9a32cd" points="738.68,-463.46 729.17,-468.13 739.52,-470.41 738.68,-463.46"/>
<text text-anchor="start" x="830" y="-501.27" font-family="Helvetica,sans-Serif" font-size="10.00"> global_percentage_difference</text>
<text text-anchor="middle" x="904" y="-490.27" font-family="Helvetica,sans-Serif" font-size="10.00">_from_limit</text>
<text text-anchor="middle" x="904" y="-479.27" font-family="Helvetica,sans-Serif" font-size="10.00">min_lower_bound</text>
<text text-anchor="middle" x="904" y="-468.27" font-family="Helvetica,sans-Serif" font-size="10.00">max_upper_bound</text>
<text text-anchor="middle" x="904" y="-457.27" font-family="Helvetica,sans-Serif" font-size="10.00">global_lane_offset</text>
</g>
<!-- Node10 -->
<g id="node10" class="node">
<title>Node10</title>
<g id="a_node10"><a xlink:title=" ">
<polygon fill="white" stroke="#bfbfbf" points="649,-411.27 649,-441.27 771,-441.27 771,-411.27 649,-411.27"/>
<text text-anchor="start" x="657" y="-429.27" font-family="Helvetica,sans-Serif" font-size="10.00">duration&lt; double, std</text>
<text text-anchor="middle" x="710" y="-418.27" font-family="Helvetica,sans-Serif" font-size="10.00">::milli &gt;</text>
</a>
</g>
</g>
<!-- Node10&#45;&gt;Node1 -->
<g id="edge12" class="edge">
<title>Node10&#45;&gt;Node1</title>
<path fill="none" stroke="#9a32cd" stroke-dasharray="5,2" d="M781.24,-420.53C835.67,-414.93 912.58,-404.53 978,-386.27 994.18,-381.75 1011.47,-374.8 1025.73,-368.43"/>
<polygon fill="#9a32cd" stroke="#9a32cd" points="780.61,-417.07 771.01,-421.55 781.3,-424.04 780.61,-417.07"/>
<text text-anchor="middle" x="904" y="-417.27" font-family="Helvetica,sans-Serif" font-size="10.00"> synchronous_time_out</text>
</g>
<!-- Node11&#45;&gt;Node1 -->
<g id="edge13" class="edge">
<title>Node11&#45;&gt;Node1</title>
<path fill="none" stroke="#9a32cd" stroke-dasharray="5,2" d="M822.61,-270.97C882.73,-274.22 950.14,-280.22 978,-291.27 1004.09,-301.62 1028.61,-323.47 1043.22,-338.27"/>
<polygon fill="#9a32cd" stroke="#9a32cd" points="822.43,-267.46 812.26,-270.44 822.07,-274.45 822.43,-267.46"/>
<text text-anchor="middle" x="904" y="-294.27" font-family="Helvetica,sans-Serif" font-size="10.00"> ignore_collision</text>
</g>
<!-- Node12 -->
<g id="node12" class="node">
<title>Node12</title>
<g id="a_node12"><a xlink:title=" ">
<polygon fill="white" stroke="#bfbfbf" points="223,-269.77 223,-310.77 427,-310.77 427,-269.77 223,-269.77"/>
<text text-anchor="start" x="231" y="-298.77" font-family="Helvetica,sans-Serif" font-size="10.00">unordered_map&lt; ActorId,</text>
<text text-anchor="start" x="231" y="-287.77" font-family="Helvetica,sans-Serif" font-size="10.00"> std::shared_ptr&lt; carla</text>
<text text-anchor="middle" x="325" y="-276.77" font-family="Helvetica,sans-Serif" font-size="10.00">::traffic_manager::AtomicActorSet &gt; &gt;</text>
</a>
</g>
</g>
<!-- Node12&#45;&gt;Node11 -->
<g id="edge14" class="edge">
<title>Node12&#45;&gt;Node11</title>
<path fill="none" stroke="#9a32cd" stroke-dasharray="5,2" d="M437.32,-282.75C439.91,-282.59 442.47,-282.43 445,-282.27 498.72,-278.94 558.61,-275.51 607.75,-272.78"/>
<polygon fill="#9a32cd" stroke="#9a32cd" points="437.03,-279.26 427.27,-283.39 437.47,-286.25 437.03,-279.26"/>
<text text-anchor="middle" x="517.5" y="-285.27" font-family="Helvetica,sans-Serif" font-size="10.00"> map</text>
</g>
<!-- Node13 -->
<g id="node13" class="node">
<title>Node13</title>
<g id="a_node13"><a xlink:title=" ">
<polygon fill="white" stroke="#bfbfbf" points="662.5,-312.77 662.5,-331.77 757.5,-331.77 757.5,-312.77 662.5,-312.77"/>
<text text-anchor="middle" x="710" y="-319.77" font-family="Helvetica,sans-Serif" font-size="10.00">atomic&lt; float &gt;</text>
</a>
</g>
</g>
<!-- Node13&#45;&gt;Node1 -->
<g id="edge17" class="edge">
<title>Node13&#45;&gt;Node1</title>
<path fill="none" stroke="#9a32cd" stroke-dasharray="5,2" d="M768.11,-313.66C822.68,-307.2 906.92,-301.84 978,-317.27 996.71,-321.33 1016.29,-330.22 1031.29,-338.15"/>
<polygon fill="#9a32cd" stroke="#9a32cd" points="767.43,-310.22 757.94,-314.92 768.29,-317.17 767.43,-310.22"/>
<text text-anchor="middle" x="904" y="-353.27" font-family="Helvetica,sans-Serif" font-size="10.00"> hybrid_physics_radius</text>
<text text-anchor="middle" x="904" y="-342.27" font-family="Helvetica,sans-Serif" font-size="10.00">distance_margin</text>
<text text-anchor="middle" x="904" y="-331.27" font-family="Helvetica,sans-Serif" font-size="10.00">respawn_lower_bound</text>
<text text-anchor="middle" x="904" y="-320.27" font-family="Helvetica,sans-Serif" font-size="10.00">respawn_upper_bound</text>
</g>
<!-- Node14&#45;&gt;Node1 -->
<g id="edge18" class="edge">
<title>Node14&#45;&gt;Node1</title>
<path fill="none" stroke="#9a32cd" stroke-dasharray="5,2" d="M783.98,-192.96C851.77,-191.24 946.8,-192.71 978,-212.27 1024.36,-241.33 1045.93,-307.93 1053.58,-338.02"/>
<polygon fill="#9a32cd" stroke="#9a32cd" points="783.67,-189.47 773.77,-193.25 783.86,-196.47 783.67,-189.47"/>
<text text-anchor="middle" x="904" y="-259.27" font-family="Helvetica,sans-Serif" font-size="10.00"> upload_route</text>
<text text-anchor="start" x="853" y="-248.27" font-family="Helvetica,sans-Serif" font-size="10.00">auto_update_vehicle</text>
<text text-anchor="middle" x="904" y="-237.27" font-family="Helvetica,sans-Serif" font-size="10.00">_lights</text>
<text text-anchor="middle" x="904" y="-226.27" font-family="Helvetica,sans-Serif" font-size="10.00">upload_path</text>
<text text-anchor="middle" x="904" y="-215.27" font-family="Helvetica,sans-Serif" font-size="10.00">auto_lane_change</text>
</g>
<!-- Node15 -->
<g id="node15" class="node">
<title>Node15</title>
<g id="a_node15"><a xlink:title=" ">
<polygon fill="white" stroke="#bfbfbf" points="254,-124.27 254,-154.27 396,-154.27 396,-124.27 254,-124.27"/>
<text text-anchor="start" x="262" y="-142.27" font-family="Helvetica,sans-Serif" font-size="10.00">unordered_map&lt; ActorId,</text>
<text text-anchor="middle" x="325" y="-131.27" font-family="Helvetica,sans-Serif" font-size="10.00"> bool &gt;</text>
</a>
</g>
</g>
<!-- Node15&#45;&gt;Node14 -->
<g id="edge20" class="edge">
<title>Node15&#45;&gt;Node14</title>
<path fill="none" stroke="#9a32cd" stroke-dasharray="5,2" d="M406.46,-143.37C459.01,-146.9 528.94,-153.25 590,-164.27 608.53,-167.61 628.38,-172.44 646.45,-177.33"/>
<polygon fill="#9a32cd" stroke="#9a32cd" points="406.4,-139.85 396.19,-142.69 405.95,-146.84 406.4,-139.85"/>
<text text-anchor="middle" x="517.5" y="-167.27" font-family="Helvetica,sans-Serif" font-size="10.00"> map</text>
</g>
<!-- Node16&#45;&gt;Node1 -->
<g id="edge22" class="edge">
<title>Node16&#45;&gt;Node1</title>
<path fill="none" stroke="#9a32cd" stroke-dasharray="5,2" d="M783.46,-73.02C842.23,-67.34 923.9,-69.64 978,-113.27 1049.54,-170.96 1056.9,-294.96 1057.21,-338.1"/>
<polygon fill="#9a32cd" stroke="#9a32cd" points="783.08,-69.54 773.51,-74.08 783.82,-76.5 783.08,-69.54"/>
<text text-anchor="middle" x="904" y="-116.27" font-family="Helvetica,sans-Serif" font-size="10.00"> force_lane_change</text>
</g>
<!-- Node17 -->
<g id="node17" class="node">
<title>Node17</title>
<g id="a_node17"><a xlink:title=" ">
<polygon fill="white" stroke="#bfbfbf" points="254,-63.77 254,-104.77 396,-104.77 396,-63.77 254,-63.77"/>
<text text-anchor="start" x="262" y="-92.77" font-family="Helvetica,sans-Serif" font-size="10.00">unordered_map&lt; ActorId,</text>
<text text-anchor="start" x="262" y="-81.77" font-family="Helvetica,sans-Serif" font-size="10.00"> carla::traffic_manager</text>
<text text-anchor="middle" x="325" y="-70.77" font-family="Helvetica,sans-Serif" font-size="10.00">::ChangeLaneInfo &gt;</text>
</a>
</g>
</g>
<!-- Node17&#45;&gt;Node16 -->
<g id="edge24" class="edge">
<title>Node17&#45;&gt;Node16</title>
<path fill="none" stroke="#9a32cd" stroke-dasharray="5,2" d="M406.56,-84.48C478.06,-84.67 581.05,-84.94 646.49,-85.11"/>
<polygon fill="#9a32cd" stroke="#9a32cd" points="406.26,-80.98 396.25,-84.45 406.24,-87.98 406.26,-80.98"/>
<text text-anchor="middle" x="517.5" y="-88.27" font-family="Helvetica,sans-Serif" font-size="10.00"> map</text>
</g>
<!-- Node18 -->
<g id="node18" class="node">
<title>Node18</title>
<g id="a_node18"><a xlink:title=" ">
<polygon fill="white" stroke="#bfbfbf" points="663,-131.77 663,-150.77 757,-150.77 757,-131.77 663,-131.77"/>
<text text-anchor="middle" x="710" y="-138.77" font-family="Helvetica,sans-Serif" font-size="10.00">atomic&lt; bool &gt;</text>
</a>
</g>
</g>
<!-- Node18&#45;&gt;Node1 -->
<g id="edge26" class="edge">
<title>Node18&#45;&gt;Node1</title>
<path fill="none" stroke="#9a32cd" stroke-dasharray="5,2" d="M767.35,-134.69C835.52,-127.95 945.25,-121.37 978,-144.27 1043.64,-190.18 1054.79,-298.01 1056.64,-338"/>
<polygon fill="#9a32cd" stroke="#9a32cd" points="766.79,-131.23 757.19,-135.73 767.5,-138.2 766.79,-131.23"/>
<text text-anchor="middle" x="904" y="-180.27" font-family="Helvetica,sans-Serif" font-size="10.00"> osm_mode</text>
<text text-anchor="middle" x="904" y="-169.27" font-family="Helvetica,sans-Serif" font-size="10.00">synchronous_mode</text>
<text text-anchor="middle" x="904" y="-158.27" font-family="Helvetica,sans-Serif" font-size="10.00">hybrid_physics_mode</text>
<text text-anchor="middle" x="904" y="-147.27" font-family="Helvetica,sans-Serif" font-size="10.00">respawn_dormant_vehicles</text>
</g>
<!-- Node19&#45;&gt;Node1 -->
<g id="edge27" class="edge">
<title>Node19&#45;&gt;Node1</title>
<path fill="none" stroke="#9a32cd" stroke-dasharray="5,2" d="M783.83,-372.15C837.58,-372.19 912.47,-370.96 978,-365.27 983.8,-364.77 989.83,-364.1 995.85,-363.35"/>
<polygon fill="#9a32cd" stroke="#9a32cd" points="783.71,-368.65 773.7,-372.13 783.7,-375.65 783.71,-368.65"/>
<text text-anchor="middle" x="904" y="-374.27" font-family="Helvetica,sans-Serif" font-size="10.00"> custom_path</text>
</g>
<!-- Node20 -->
<g id="node20" class="node">
<title>Node20</title>
<g id="a_node20"><a xlink:title=" ">
<polygon fill="white" stroke="#bfbfbf" points="254,-427.27 254,-457.27 396,-457.27 396,-427.27 254,-427.27"/>
<text text-anchor="start" x="262" y="-445.27" font-family="Helvetica,sans-Serif" font-size="10.00">unordered_map&lt; ActorId,</text>
<text text-anchor="middle" x="325" y="-434.27" font-family="Helvetica,sans-Serif" font-size="10.00"> Path &gt;</text>
</a>
</g>
</g>
<!-- Node20&#45;&gt;Node19 -->
<g id="edge28" class="edge">
<title>Node20&#45;&gt;Node19</title>
<path fill="none" stroke="#9a32cd" stroke-dasharray="5,2" d="M406.29,-440.04C459.37,-436.83 529.97,-429.2 590,-411.27 598.57,-408.71 599.7,-405.59 608,-402.27 620.26,-397.36 633.61,-392.76 646.48,-388.69"/>
<polygon fill="#9a32cd" stroke="#9a32cd" points="406.04,-436.55 396.26,-440.61 406.44,-443.54 406.04,-436.55"/>
<text text-anchor="middle" x="517.5" y="-439.27" font-family="Helvetica,sans-Serif" font-size="10.00"> map</text>
</g>
</g>
</svg>
        <g id="navigator" transform="translate(0 0)" fill="#404254">
                <rect fill="#f2f5e9" fill-opacity="0.5" stroke="#606060" stroke-width=".5" x="0" y="0" width="60" height="60"/>
                <use id="zoomplus" xlink:href="#zoomPlus" x="17" y="9" onmousedown="handleZoom(evt,'in')"/>
                <use id="zoomminus" xlink:href="#zoomMin" x="42" y="9" onmousedown="handleZoom(evt,'out')"/>
                <use id="reset" xlink:href="#resetDef" x="30" y="36" onmousedown="handleReset()"/>
                <g id="arrowUp" xlink:href="#dirArrow" transform="translate(30 24)" onmousedown="handlePan(0,-1)">
                  <use xlink:href="#rim" fill="#404040">
                        <set attributeName="fill" to="#808080" begin="arrowUp.mouseover" end="arrowUp.mouseout"/>
                  </use>
                  <path fill="none" stroke="white" stroke-width="1.5" d="M0,-3.0v7 M-2.5,-0.5L0,-3.0L2.5,-0.5"/>
                </g>
                <g id="arrowRight" xlink:href="#dirArrow" transform="rotate(90) translate(36 -43)" onmousedown="handlePan(1,0)">
                  <use xlink:href="#rim" fill="#404040">
                        <set attributeName="fill" to="#808080" begin="arrowRight.mouseover" end="arrowRight.mouseout"/>
                  </use>
                  <path fill="none" stroke="white" stroke-width="1.5" d="M0,-3.0v7 M-2.5,-0.5L0,-3.0L2.5,-0.5"/>
                </g>
                <g id="arrowDown" xlink:href="#dirArrow" transform="rotate(180) translate(-30 -48)" onmousedown="handlePan(0,1)">
                  <use xlink:href="#rim" fill="#404040">
                        <set attributeName="fill" to="#808080" begin="arrowDown.mouseover" end="arrowDown.mouseout"/>
                  </use>
                  <path fill="none" stroke="white" stroke-width="1.5" d="M0,-3.0v7 M-2.5,-0.5L0,-3.0L2.5,-0.5"/>
                </g>
                <g id="arrowLeft" xlink:href="#dirArrow" transform="rotate(270) translate(-36 17)" onmousedown="handlePan(-1,0)">
                  <use xlink:href="#rim" fill="#404040">
                        <set attributeName="fill" to="#808080" begin="arrowLeft.mouseover" end="arrowLeft.mouseout"/>
                  </use>
                  <path fill="none" stroke="white" stroke-width="1.5" d="M0,-3.0v7 M-2.5,-0.5L0,-3.0L2.5,-0.5"/>
                </g>
        </g>
        <svg viewBox="0 0 15 15" width="100%" height="30px" preserveAspectRatio="xMaxYMin meet">
         <g id="arrow_out" transform="scale(0.3 0.3)">
          <a xlink:href="classcarla_1_1traffic__manager_1_1Parameters__coll__graph_org.svg" target="_base">
           <rect id="button" ry="5" rx="5" y="6" x="6" height="38" width="38"
                fill="#f2f5e9" fill-opacity="0.5" stroke="#606060" stroke-width="1.0"/>
           <path id="arrow"
             d="M 11.500037,31.436501 C 11.940474,20.09759 22.043105,11.32322 32.158766,21.979434 L 37.068811,17.246167 C 37.068811,17.246167 37.088388,32 37.088388,32 L 22.160133,31.978069 C 22.160133,31.978069 26.997745,27.140456 26.997745,27.140456 C 18.528582,18.264221 13.291696,25.230495 11.500037,31.436501 z"
             style="fill:#404040;"/>
          </a>
         </g>
        </svg>
</svg>
