<?xml version="1.0" encoding="UTF-8" standalone="no"?>
<!DOCTYPE svg PUBLIC "-//W3C//DTD SVG 1.1//EN"
 "http://www.w3.org/Graphics/SVG/1.1/DTD/svg11.dtd">
<!-- Generated by graphviz version 2.38.0 (20140413.2041)
 -->
<!-- Title: CityMapMeshTag.cpp Pages: 1 -->
<svg width="484pt" height="140pt"
 viewBox="0.00 0.00 483.50 140.00" xmlns="http://www.w3.org/2000/svg" xmlns:xlink="http://www.w3.org/1999/xlink">
<g id="graph0" class="graph" transform="scale(1 1) rotate(0) translate(4 136)">
<title>CityMapMeshTag.cpp</title>
<polygon fill="white" stroke="none" points="-4,4 -4,-136 479.5,-136 479.5,4 -4,4"/>
<!-- Node1 -->
<g id="node1" class="node"><title>Node1</title>
<polygon fill="#bfbfbf" stroke="black" points="274,-112.5 274,-131.5 390,-131.5 390,-112.5 274,-112.5"/>
<text text-anchor="middle" x="332" y="-119.5" font-family="Helvetica,sans-Serif" font-size="10.00">CityMapMeshTag.cpp</text>
</g>
<!-- Node2 -->
<g id="node2" class="node"><title>Node2</title>
<g id="a_node2"><a xlink:href="../../d7/d7d/Carla_8h.html" target="_top" xlink:title="Carla.h">
<polygon fill="white" stroke="black" points="160,-56.5 160,-75.5 210,-75.5 210,-56.5 160,-56.5"/>
<text text-anchor="middle" x="185" y="-63.5" font-family="Helvetica,sans-Serif" font-size="10.00">Carla.h</text>
</a>
</g>
</g>
<!-- Node1&#45;&gt;Node2 -->
<g id="edge1" class="edge"><title>Node1&#45;&gt;Node2</title>
<path fill="none" stroke="midnightblue" d="M308.707,-112.444C284.193,-103.438 245.404,-89.1891 217.8,-79.049"/>
<polygon fill="midnightblue" stroke="midnightblue" points="218.777,-75.6793 208.184,-75.5164 216.363,-82.25 218.777,-75.6793"/>
</g>
<!-- Node6 -->
<g id="node6" class="node"><title>Node6</title>
<g id="a_node6"><a xlink:href="../../d4/d83/CityMapMeshTag_8h.html" target="_top" xlink:title="CityMapMeshTag.h">
<polygon fill="white" stroke="black" points="228.5,-56.5 228.5,-75.5 333.5,-75.5 333.5,-56.5 228.5,-56.5"/>
<text text-anchor="middle" x="281" y="-63.5" font-family="Helvetica,sans-Serif" font-size="10.00">CityMapMeshTag.h</text>
</a>
</g>
</g>
<!-- Node1&#45;&gt;Node6 -->
<g id="edge5" class="edge"><title>Node1&#45;&gt;Node6</title>
<path fill="none" stroke="midnightblue" d="M323.578,-112.083C316.152,-104.22 305.148,-92.5688 296.188,-83.0813"/>
<polygon fill="midnightblue" stroke="midnightblue" points="298.676,-80.618 289.265,-75.7511 293.587,-85.4244 298.676,-80.618"/>
</g>
<!-- Node7 -->
<g id="node7" class="node"><title>Node7</title>
<polygon fill="white" stroke="#bfbfbf" points="351.5,-56.5 351.5,-75.5 416.5,-75.5 416.5,-56.5 351.5,-56.5"/>
<text text-anchor="middle" x="384" y="-63.5" font-family="Helvetica,sans-Serif" font-size="10.00">Package.h</text>
</g>
<!-- Node1&#45;&gt;Node7 -->
<g id="edge6" class="edge"><title>Node1&#45;&gt;Node7</title>
<path fill="none" stroke="midnightblue" d="M340.587,-112.083C348.159,-104.22 359.378,-92.5688 368.514,-83.0813"/>
<polygon fill="midnightblue" stroke="midnightblue" points="371.158,-85.3821 375.573,-75.7511 366.115,-80.5266 371.158,-85.3821"/>
</g>
<!-- Node8 -->
<g id="node8" class="node"><title>Node8</title>
<polygon fill="white" stroke="#bfbfbf" points="434.5,-56.5 434.5,-75.5 475.5,-75.5 475.5,-56.5 434.5,-56.5"/>
<text text-anchor="middle" x="455" y="-63.5" font-family="Helvetica,sans-Serif" font-size="10.00">array</text>
</g>
<!-- Node1&#45;&gt;Node8 -->
<g id="edge7" class="edge"><title>Node1&#45;&gt;Node8</title>
<path fill="none" stroke="midnightblue" d="M351.49,-112.444C371.642,-103.596 403.323,-89.6875 426.331,-79.5865"/>
<polygon fill="midnightblue" stroke="midnightblue" points="427.852,-82.7411 435.601,-75.5164 425.038,-76.3316 427.852,-82.7411"/>
</g>
<!-- Node3 -->
<g id="node3" class="node"><title>Node3</title>
<g id="a_node3"><a xlink:href="../../d4/d57/Unreal_2CarlaUE4_2Plugins_2Carla_2Source_2Carla_2Util_2NonCopyable_8h.html" target="_top" xlink:title="Util/NonCopyable.h">
<polygon fill="white" stroke="black" points="0,-0.5 0,-19.5 108,-19.5 108,-0.5 0,-0.5"/>
<text text-anchor="middle" x="54" y="-7.5" font-family="Helvetica,sans-Serif" font-size="10.00">Util/NonCopyable.h</text>
</a>
</g>
</g>
<!-- Node2&#45;&gt;Node3 -->
<g id="edge2" class="edge"><title>Node2&#45;&gt;Node3</title>
<path fill="none" stroke="midnightblue" d="M164.243,-56.4435C142.684,-47.5566 108.737,-33.5632 84.2062,-23.4514"/>
<polygon fill="midnightblue" stroke="midnightblue" points="85.2394,-20.0917 74.6602,-19.5164 82.5717,-26.5634 85.2394,-20.0917"/>
</g>
<!-- Node4 -->
<g id="node4" class="node"><title>Node4</title>
<polygon fill="white" stroke="#bfbfbf" points="126,-0.5 126,-19.5 244,-19.5 244,-0.5 126,-0.5"/>
<text text-anchor="middle" x="185" y="-7.5" font-family="Helvetica,sans-Serif" font-size="10.00">Logging/LogMacros.h</text>
</g>
<!-- Node2&#45;&gt;Node4 -->
<g id="edge3" class="edge"><title>Node2&#45;&gt;Node4</title>
<path fill="none" stroke="midnightblue" d="M185,-56.083C185,-49.0059 185,-38.8611 185,-29.9865"/>
<polygon fill="midnightblue" stroke="midnightblue" points="188.5,-29.751 185,-19.7511 181.5,-29.7511 188.5,-29.751"/>
</g>
<!-- Node5 -->
<g id="node5" class="node"><title>Node5</title>
<polygon fill="white" stroke="#bfbfbf" points="262.5,-0.5 262.5,-19.5 407.5,-19.5 407.5,-0.5 262.5,-0.5"/>
<text text-anchor="middle" x="335" y="-7.5" font-family="Helvetica,sans-Serif" font-size="10.00">Modules/ModuleInterface.h</text>
</g>
<!-- Node2&#45;&gt;Node5 -->
<g id="edge4" class="edge"><title>Node2&#45;&gt;Node5</title>
<path fill="none" stroke="midnightblue" d="M208.768,-56.4435C233.893,-47.3986 273.711,-33.064 301.9,-22.9158"/>
<polygon fill="midnightblue" stroke="midnightblue" points="303.12,-26.1968 311.343,-19.5164 300.749,-19.6106 303.12,-26.1968"/>
</g>
</g>
</svg>
