<?xml version="1.0" encoding="UTF-8" standalone="no"?>
<!DOCTYPE svg PUBLIC "-//W3C//DTD SVG 1.1//EN"
 "http://www.w3.org/Graphics/SVG/1.1/DTD/svg11.dtd">
<!-- Generated by graphviz version 2.38.0 (20140413.2041)
 -->
<!-- Title: RoadInfoMarkTypeLine.h Pages: 1 -->
<svg width="407pt" height="162pt"
 viewBox="0.00 0.00 407.00 162.00" xmlns="http://www.w3.org/2000/svg" xmlns:xlink="http://www.w3.org/1999/xlink">
<g id="graph0" class="graph" transform="scale(1 1) rotate(0) translate(4 158)">
<title>RoadInfoMarkTypeLine.h</title>
<polygon fill="white" stroke="none" points="-4,4 -4,-158 403,-158 403,4 -4,4"/>
<!-- Node1 -->
<g id="node1" class="node"><title>Node1</title>
<polygon fill="#bfbfbf" stroke="black" points="255.5,-134.5 255.5,-153.5 381.5,-153.5 381.5,-134.5 255.5,-134.5"/>
<text text-anchor="middle" x="318.5" y="-141.5" font-family="Helvetica,sans-Serif" font-size="10.00">RoadInfoMarkTypeLine.h</text>
</g>
<!-- Node2 -->
<g id="node2" class="node"><title>Node2</title>
<g id="a_node2"><a xlink:href="../../de/d3a/RoadInfo_8h.html" target="_top" xlink:title="carla/road/element\l/RoadInfo.h">
<polygon fill="white" stroke="black" points="221,-67.5 221,-97.5 318,-97.5 318,-67.5 221,-67.5"/>
<text text-anchor="start" x="229" y="-85.5" font-family="Helvetica,sans-Serif" font-size="10.00">carla/road/element</text>
<text text-anchor="middle" x="269.5" y="-74.5" font-family="Helvetica,sans-Serif" font-size="10.00">/RoadInfo.h</text>
</a>
</g>
</g>
<!-- Node1&#45;&gt;Node2 -->
<g id="edge1" class="edge"><title>Node1&#45;&gt;Node2</title>
<path fill="none" stroke="midnightblue" d="M311.479,-134.475C305.215,-126.869 295.77,-115.399 287.424,-105.265"/>
<polygon fill="midnightblue" stroke="midnightblue" points="290.107,-103.017 281.048,-97.523 284.704,-107.467 290.107,-103.017"/>
</g>
<!-- Node6 -->
<g id="node6" class="node"><title>Node6</title>
<polygon fill="white" stroke="#bfbfbf" points="358,-6 358,-25 399,-25 399,-6 358,-6"/>
<text text-anchor="middle" x="378.5" y="-13" font-family="Helvetica,sans-Serif" font-size="10.00">string</text>
</g>
<!-- Node1&#45;&gt;Node6 -->
<g id="edge7" class="edge"><title>Node1&#45;&gt;Node6</title>
<path fill="none" stroke="midnightblue" d="M322.624,-134.305C332.343,-113.813 356.85,-62.1451 369.943,-34.5416"/>
<polygon fill="midnightblue" stroke="midnightblue" points="373.224,-35.7908 374.347,-25.2557 366.899,-32.791 373.224,-35.7908"/>
</g>
<!-- Node3 -->
<g id="node3" class="node"><title>Node3</title>
<g id="a_node3"><a xlink:href="../../d6/d67/RoadInfoVisitor_8h.html" target="_top" xlink:title="carla/road/element\l/RoadInfoVisitor.h">
<polygon fill="white" stroke="black" points="0,-0.5 0,-30.5 97,-30.5 97,-0.5 0,-0.5"/>
<text text-anchor="start" x="8" y="-18.5" font-family="Helvetica,sans-Serif" font-size="10.00">carla/road/element</text>
<text text-anchor="middle" x="48.5" y="-7.5" font-family="Helvetica,sans-Serif" font-size="10.00">/RoadInfoVisitor.h</text>
</a>
</g>
</g>
<!-- Node2&#45;&gt;Node3 -->
<g id="edge2" class="edge"><title>Node2&#45;&gt;Node3</title>
<path fill="none" stroke="midnightblue" d="M221.818,-67.476C187.951,-57.5149 142.293,-44.0862 106.342,-33.5123"/>
<polygon fill="midnightblue" stroke="midnightblue" points="107.058,-30.0749 96.4771,-30.6109 105.083,-36.7904 107.058,-30.0749"/>
</g>
<!-- Node4 -->
<g id="node4" class="node"><title>Node4</title>
<g id="a_node4"><a xlink:href="../../d4/dd8/LibCarla_2source_2carla_2NonCopyable_8h.html" target="_top" xlink:title="carla/NonCopyable.h">
<polygon fill="white" stroke="black" points="115.5,-6 115.5,-25 223.5,-25 223.5,-6 115.5,-6"/>
<text text-anchor="middle" x="169.5" y="-13" font-family="Helvetica,sans-Serif" font-size="10.00">carla/NonCopyable.h</text>
</a>
</g>
</g>
<!-- Node2&#45;&gt;Node4 -->
<g id="edge3" class="edge"><title>Node2&#45;&gt;Node4</title>
<path fill="none" stroke="midnightblue" d="M247.801,-67.396C231.032,-56.4956 207.929,-41.4787 191.167,-30.5835"/>
<polygon fill="midnightblue" stroke="midnightblue" points="192.88,-27.5224 182.588,-25.007 189.065,-33.3915 192.88,-27.5224"/>
</g>
<!-- Node5 -->
<g id="node5" class="node"><title>Node5</title>
<polygon fill="white" stroke="#bfbfbf" points="242,-6 242,-25 277,-25 277,-6 242,-6"/>
<text text-anchor="middle" x="259.5" y="-13" font-family="Helvetica,sans-Serif" font-size="10.00">map</text>
</g>
<!-- Node2&#45;&gt;Node5 -->
<g id="edge4" class="edge"><title>Node2&#45;&gt;Node5</title>
<path fill="none" stroke="midnightblue" d="M267.33,-67.396C265.879,-57.9635 263.954,-45.4484 262.375,-35.1891"/>
<polygon fill="midnightblue" stroke="midnightblue" points="265.818,-34.546 260.838,-25.1945 258.899,-35.6105 265.818,-34.546"/>
</g>
<!-- Node2&#45;&gt;Node6 -->
<g id="edge5" class="edge"><title>Node2&#45;&gt;Node6</title>
<path fill="none" stroke="midnightblue" d="M293.151,-67.396C311.684,-56.3442 337.314,-41.0607 355.64,-30.1319"/>
<polygon fill="midnightblue" stroke="midnightblue" points="357.438,-33.1349 364.234,-25.007 353.853,-27.1227 357.438,-33.1349"/>
</g>
<!-- Node7 -->
<g id="node7" class="node"><title>Node7</title>
<polygon fill="white" stroke="#bfbfbf" points="295.5,-6 295.5,-25 339.5,-25 339.5,-6 295.5,-6"/>
<text text-anchor="middle" x="317.5" y="-13" font-family="Helvetica,sans-Serif" font-size="10.00">vector</text>
</g>
<!-- Node2&#45;&gt;Node7 -->
<g id="edge6" class="edge"><title>Node2&#45;&gt;Node7</title>
<path fill="none" stroke="midnightblue" d="M279.915,-67.396C287.325,-57.3614 297.312,-43.8382 305.128,-33.2535"/>
<polygon fill="midnightblue" stroke="midnightblue" points="307.954,-35.3181 311.079,-25.1945 302.323,-31.1597 307.954,-35.3181"/>
</g>
</g>
</svg>
