<?xml version="1.0" encoding="UTF-8" standalone="no"?>
<!DOCTYPE svg PUBLIC "-//W3C//DTD SVG 1.1//EN"
 "http://www.w3.org/Graphics/SVG/1.1/DTD/svg11.dtd">
<!-- Generated by graphviz version 2.38.0 (20140413.2041)
 -->
<!-- Title: UCarlaSettingsDelegate::SetAllActorsDrawDistance Pages: 1 -->
<svg width="446pt" height="61pt"
 viewBox="0.00 0.00 446.00 61.00" xmlns="http://www.w3.org/2000/svg" xmlns:xlink="http://www.w3.org/1999/xlink">
<g id="graph0" class="graph" transform="scale(1 1) rotate(0) translate(4 57)">
<title>UCarlaSettingsDelegate::SetAllActorsDrawDistance</title>
<polygon fill="white" stroke="none" points="-4,4 -4,-57 442,-57 442,4 -4,4"/>
<!-- Node1 -->
<g id="node1" class="node"><title>Node1</title>
<polygon fill="#bfbfbf" stroke="black" points="0,-22.5 0,-52.5 140,-52.5 140,-22.5 0,-22.5"/>
<text text-anchor="start" x="8" y="-40.5" font-family="Helvetica,sans-Serif" font-size="10.00">UCarlaSettingsDelegate</text>
<text text-anchor="middle" x="70" y="-29.5" font-family="Helvetica,sans-Serif" font-size="10.00">::SetAllActorsDrawDistance</text>
</g>
<!-- Node2 -->
<g id="node2" class="node"><title>Node2</title>
<g id="a_node2"><a xlink:href="../../d2/d40/TrafficLightBase_8cpp.html#a1459952e95242b0c926376d0bb4692b8" target="_top" xlink:title="IsValid">
<polygon fill="white" stroke="black" points="391,-28 391,-47 438,-47 438,-28 391,-28"/>
<text text-anchor="middle" x="414.5" y="-35" font-family="Helvetica,sans-Serif" font-size="10.00">IsValid</text>
</a>
</g>
</g>
<!-- Node1&#45;&gt;Node2 -->
<g id="edge1" class="edge"><title>Node1&#45;&gt;Node2</title>
<path fill="none" stroke="midnightblue" d="M140.182,-39.7573C152.126,-40.0667 164.421,-40.3346 176,-40.5 255.547,-41.6362 275.471,-42.5379 355,-40.5 363.292,-40.2875 372.238,-39.9059 380.581,-39.4845"/>
<polygon fill="midnightblue" stroke="midnightblue" points="380.932,-42.9708 390.73,-38.9392 380.556,-35.9809 380.932,-42.9708"/>
</g>
<!-- Node3 -->
<g id="node3" class="node"><title>Node3</title>
<g id="a_node3"><a xlink:href="../../d4/d74/classUCarlaSettingsDelegate.html#a135eb68bb1b8f44fe49330d12108581c" target="_top" xlink:title="UCarlaSettingsDelegate\l::SetActorComponentsDrawDistance">
<polygon fill="white" stroke="black" points="176,-0.5 176,-30.5 355,-30.5 355,-0.5 176,-0.5"/>
<text text-anchor="start" x="184" y="-18.5" font-family="Helvetica,sans-Serif" font-size="10.00">UCarlaSettingsDelegate</text>
<text text-anchor="middle" x="265.5" y="-7.5" font-family="Helvetica,sans-Serif" font-size="10.00">::SetActorComponentsDrawDistance</text>
</a>
</g>
</g>
<!-- Node1&#45;&gt;Node3 -->
<g id="edge2" class="edge"><title>Node1&#45;&gt;Node3</title>
<path fill="none" stroke="midnightblue" d="M140.038,-29.6507C148.386,-28.7016 157.033,-27.7185 165.703,-26.7328"/>
<polygon fill="midnightblue" stroke="midnightblue" points="166.333,-30.1838 175.873,-25.5764 165.542,-23.2286 166.333,-30.1838"/>
</g>
<!-- Node3&#45;&gt;Node2 -->
<g id="edge3" class="edge"><title>Node3&#45;&gt;Node2</title>
<path fill="none" stroke="midnightblue" d="M355.402,-28.805C364.381,-30.1488 373.038,-31.4445 380.806,-32.607"/>
<polygon fill="midnightblue" stroke="midnightblue" points="380.385,-36.0829 390.793,-34.1017 381.421,-29.16 380.385,-36.0829"/>
</g>
</g>
</svg>
