<?xml version="1.0" encoding="UTF-8" standalone="no"?>
<!DOCTYPE svg PUBLIC "-//W3C//DTD SVG 1.1//EN"
 "http://www.w3.org/Graphics/SVG/1.1/DTD/svg11.dtd">
<!-- Generated by graphviz version 2.40.1 (20161225.0304)
 -->
<!-- Title: UTrafficLightController::GetElapsedTime Pages: 1 -->
<svg width="2027pt" height="152pt"
 viewBox="0.00 0.00 2027.00 152.00" xmlns="http://www.w3.org/2000/svg" xmlns:xlink="http://www.w3.org/1999/xlink">
<g id="graph0" class="graph" transform="scale(1 1) rotate(0) translate(4 148)">
<title>UTrafficLightController::GetElapsedTime</title>
<polygon fill="#ffffff" stroke="transparent" points="-4,4 -4,-148 2023,-148 2023,4 -4,4"/>
<!-- Node39 -->
<g id="node1" class="node">
<title>Node39</title>
<polygon fill="#bfbfbf" stroke="#000000" points="0,-39 0,-69 125,-69 125,-39 0,-39"/>
<text text-anchor="start" x="8" y="-57" font-family="Helvetica,sans-Serif" font-size="10.00" fill="#000000">UTrafficLightController</text>
<text text-anchor="middle" x="62.5" y="-46" font-family="Helvetica,sans-Serif" font-size="10.00" fill="#000000">::GetElapsedTime</text>
</g>
<!-- Node40 -->
<g id="node2" class="node">
<title>Node40</title>
<g id="a_node2"><a xlink:href="../../de/db4/classFFrameData.html#af1cb1a1751af8708255aeecfa9918045" target="_top" xlink:title="FFrameData::AddTrafficLight\lState">
<polygon fill="#ffffff" stroke="#000000" points="168,-83 168,-113 321,-113 321,-83 168,-83"/>
<text text-anchor="start" x="176" y="-101" font-family="Helvetica,sans-Serif" font-size="10.00" fill="#000000">FFrameData::AddTrafficLight</text>
<text text-anchor="middle" x="244.5" y="-90" font-family="Helvetica,sans-Serif" font-size="10.00" fill="#000000">State</text>
</a>
</g>
</g>
<!-- Node39&#45;&gt;Node40 -->
<g id="edge1" class="edge">
<title>Node39&#45;&gt;Node40</title>
<path fill="none" stroke="#191970" d="M134.3771,-71.3769C150.2374,-75.2112 166.9094,-79.2418 182.3462,-82.9738"/>
<polygon fill="#191970" stroke="#191970" points="135.1675,-67.9672 124.625,-69.0192 133.5225,-74.7712 135.1675,-67.9672"/>
</g>
<!-- Node53 -->
<g id="node15" class="node">
<title>Node53</title>
<g id="a_node15"><a xlink:href="../../dd/db9/classACarlaRecorder.html#aaf01c02f79e7335c224dcab7f2c18bb1" target="_top" xlink:title="ACarlaRecorder::AddTraffic\lLightState">
<polygon fill="#ffffff" stroke="#000000" points="367,-39 367,-69 513,-69 513,-39 367,-39"/>
<text text-anchor="start" x="375" y="-57" font-family="Helvetica,sans-Serif" font-size="10.00" fill="#000000">ACarlaRecorder::AddTraffic</text>
<text text-anchor="middle" x="440" y="-46" font-family="Helvetica,sans-Serif" font-size="10.00" fill="#000000">LightState</text>
</a>
</g>
</g>
<!-- Node39&#45;&gt;Node53 -->
<g id="edge16" class="edge">
<title>Node39&#45;&gt;Node53</title>
<path fill="none" stroke="#191970" d="M135.2615,-54C201.8743,-54 299.9632,-54 366.7342,-54"/>
<polygon fill="#191970" stroke="#191970" points="135.2602,-50.5001 125.2602,-54 135.2602,-57.5001 135.2602,-50.5001"/>
</g>
<!-- Node55 -->
<g id="node17" class="node">
<title>Node55</title>
<g id="a_node17"><a xlink:href="../../d9/de7/WorldObserver_8cpp.html#a101723de0d64fc2d5570dfab556edc7f" target="_top" xlink:title="FWorldObserver_GetActorState">
<polygon fill="#ffffff" stroke="#000000" points="161,-3.5 161,-22.5 328,-22.5 328,-3.5 161,-3.5"/>
<text text-anchor="middle" x="244.5" y="-10.5" font-family="Helvetica,sans-Serif" font-size="10.00" fill="#000000">FWorldObserver_GetActorState</text>
</a>
</g>
</g>
<!-- Node39&#45;&gt;Node55 -->
<g id="edge19" class="edge">
<title>Node39&#45;&gt;Node55</title>
<path fill="none" stroke="#191970" d="M135.0997,-37.6451C157.8277,-32.5251 182.1538,-27.045 202.0821,-22.5557"/>
<polygon fill="#191970" stroke="#191970" points="134.1204,-34.2779 125.1341,-39.8901 135.6588,-41.1068 134.1204,-34.2779"/>
</g>
<!-- Node41 -->
<g id="node3" class="node">
<title>Node41</title>
<g id="a_node3"><a xlink:href="../../de/db4/classFFrameData.html#a13396099d7e1c32df563893f7d0b35be" target="_top" xlink:title="FFrameData::GetFrameData">
<polygon fill="#ffffff" stroke="#000000" points="364,-88.5 364,-107.5 516,-107.5 516,-88.5 364,-88.5"/>
<text text-anchor="middle" x="440" y="-95.5" font-family="Helvetica,sans-Serif" font-size="10.00" fill="#000000">FFrameData::GetFrameData</text>
</a>
</g>
</g>
<!-- Node40&#45;&gt;Node41 -->
<g id="edge2" class="edge">
<title>Node40&#45;&gt;Node41</title>
<path fill="none" stroke="#191970" d="M331.4765,-98C342.264,-98 353.2286,-98 363.8362,-98"/>
<polygon fill="#191970" stroke="#191970" points="331.2057,-94.5001 321.2057,-98 331.2056,-101.5001 331.2057,-94.5001"/>
</g>
<!-- Node51 -->
<g id="node13" class="node">
<title>Node51</title>
<g id="a_node13"><a xlink:href="../../de/db4/classFFrameData.html#ab520e8c971f0fa7e95258e6675c6e10c" target="_top" xlink:title="FFrameData::SetEpisode">
<polygon fill="#ffffff" stroke="#000000" points="569,-124.5 569,-143.5 704,-143.5 704,-124.5 569,-124.5"/>
<text text-anchor="middle" x="636.5" y="-131.5" font-family="Helvetica,sans-Serif" font-size="10.00" fill="#000000">FFrameData::SetEpisode</text>
</a>
</g>
</g>
<!-- Node40&#45;&gt;Node51 -->
<g id="edge15" class="edge">
<title>Node40&#45;&gt;Node51</title>
<path fill="none" stroke="#191970" d="M331.2314,-112.7839C342.24,-114.3674 353.3691,-115.826 364,-117 433.6118,-124.6876 513.6407,-129.1642 568.8746,-131.5754"/>
<polygon fill="#191970" stroke="#191970" points="331.5771,-109.2971 321.1731,-111.2991 330.5548,-116.222 331.5771,-109.2971"/>
</g>
<!-- Node42 -->
<g id="node4" class="node">
<title>Node42</title>
<g id="a_node4"><a xlink:href="../../dc/d49/classFCarlaEngine.html#aff440c7ba9d004e4c5b60125cc4d709b" target="_top" xlink:title="FCarlaEngine::OnPostTick">
<polygon fill="#ffffff" stroke="#000000" points="769,-44.5 769,-63.5 910,-63.5 910,-44.5 769,-44.5"/>
<text text-anchor="middle" x="839.5" y="-51.5" font-family="Helvetica,sans-Serif" font-size="10.00" fill="#000000">FCarlaEngine::OnPostTick</text>
</a>
</g>
</g>
<!-- Node41&#45;&gt;Node42 -->
<g id="edge3" class="edge">
<title>Node41&#45;&gt;Node42</title>
<path fill="none" stroke="#191970" d="M526.361,-91.8944C582.0293,-87.5695 655.9143,-81.1029 721,-73 742.0896,-70.3744 765.1856,-66.8248 785.3411,-63.5043"/>
<polygon fill="#191970" stroke="#191970" points="525.8868,-88.4204 516.1847,-92.6769 526.4236,-95.3998 525.8868,-88.4204"/>
</g>
<!-- Node41&#45;&gt;Node51 -->
<g id="edge13" class="edge">
<title>Node41&#45;&gt;Node51</title>
<path fill="none" stroke="#191970" d="M501.8254,-109.3268C528.3394,-114.1843 558.9761,-119.7971 584.3238,-124.441"/>
<polygon fill="#191970" stroke="#191970" points="502.3521,-105.8651 491.8851,-107.5057 501.0906,-112.7505 502.3521,-105.8651"/>
</g>
<!-- Node43 -->
<g id="node5" class="node">
<title>Node43</title>
<g id="a_node5"><a xlink:href="../../dc/d49/classFCarlaEngine.html#a30d1221bfa4d98b62a21cc93d02c594d" target="_top" xlink:title="FCarlaEngine::GetSecondary\lServer">
<polygon fill="#ffffff" stroke="#000000" points="961,-61 961,-91 1116,-91 1116,-61 961,-61"/>
<text text-anchor="start" x="969" y="-79" font-family="Helvetica,sans-Serif" font-size="10.00" fill="#000000">FCarlaEngine::GetSecondary</text>
<text text-anchor="middle" x="1038.5" y="-68" font-family="Helvetica,sans-Serif" font-size="10.00" fill="#000000">Server</text>
</a>
</g>
</g>
<!-- Node42&#45;&gt;Node43 -->
<g id="edge4" class="edge">
<title>Node42&#45;&gt;Node43</title>
<path fill="none" stroke="#191970" d="M920.3523,-62.9384C933.7431,-64.4188 947.6012,-65.9509 960.9092,-67.4221"/>
<polygon fill="#191970" stroke="#191970" points="920.5443,-59.4384 910.2203,-61.8183 919.7751,-66.396 920.5443,-59.4384"/>
</g>
<!-- Node50 -->
<g id="node12" class="node">
<title>Node50</title>
<g id="a_node12"><a xlink:href="../../dc/d49/classFCarlaEngine.html#ab8d13063cde985781237dd7da308227e" target="_top" xlink:title="FCarlaEngine::NotifyInitGame">
<polygon fill="#ffffff" stroke="#000000" points="958,-22.5 958,-41.5 1119,-41.5 1119,-22.5 958,-22.5"/>
<text text-anchor="middle" x="1038.5" y="-29.5" font-family="Helvetica,sans-Serif" font-size="10.00" fill="#000000">FCarlaEngine::NotifyInitGame</text>
</a>
</g>
</g>
<!-- Node42&#45;&gt;Node50 -->
<g id="edge12" class="edge">
<title>Node42&#45;&gt;Node50</title>
<path fill="none" stroke="#191970" d="M920.4649,-45.0491C932.7917,-43.6863 945.512,-42.2801 957.8325,-40.918"/>
<polygon fill="#191970" stroke="#191970" points="919.7751,-41.604 910.2203,-46.1817 920.5443,-48.5616 919.7751,-41.604"/>
</g>
<!-- Node44 -->
<g id="node6" class="node">
<title>Node44</title>
<g id="a_node6"><a xlink:href="../../dc/d84/classUCarlaEpisode.html#ade49c565b15265f72bb0da9704573a14" target="_top" xlink:title="Load a new map and start a new episode. ">
<polygon fill="#ffffff" stroke="#000000" points="1155,-66.5 1155,-85.5 1332,-85.5 1332,-66.5 1155,-66.5"/>
<text text-anchor="middle" x="1243.5" y="-73.5" font-family="Helvetica,sans-Serif" font-size="10.00" fill="#000000">UCarlaEpisode::LoadNewEpisode</text>
</a>
</g>
</g>
<!-- Node43&#45;&gt;Node44 -->
<g id="edge5" class="edge">
<title>Node43&#45;&gt;Node44</title>
<path fill="none" stroke="#191970" d="M1126.2207,-76C1135.7154,-76 1145.3829,-76 1154.888,-76"/>
<polygon fill="#191970" stroke="#191970" points="1126.0017,-72.5001 1116.0017,-76 1126.0017,-79.5001 1126.0017,-72.5001"/>
</g>
<!-- Node45 -->
<g id="node7" class="node">
<title>Node45</title>
<g id="a_node7"><a xlink:href="../../d7/d97/classFCarlaServer_1_1FPimpl.html#a675a6b572112a21e8bc011dddfd0de86" target="_top" xlink:title="FCarlaServer::FPimpl\l::BindActions">
<polygon fill="#ffffff" stroke="#000000" points="1747,-80 1747,-110 1865,-110 1865,-80 1747,-80"/>
<text text-anchor="start" x="1755" y="-98" font-family="Helvetica,sans-Serif" font-size="10.00" fill="#000000">FCarlaServer::FPimpl</text>
<text text-anchor="middle" x="1806" y="-87" font-family="Helvetica,sans-Serif" font-size="10.00" fill="#000000">::BindActions</text>
</a>
</g>
</g>
<!-- Node44&#45;&gt;Node45 -->
<g id="edge6" class="edge">
<title>Node44&#45;&gt;Node45</title>
<path fill="none" stroke="#191970" d="M1342.2274,-70.3688C1437.0371,-66.2895 1584.1711,-63.4415 1711,-76 1722.7165,-77.1602 1735.1285,-79.1065 1746.9796,-81.3222"/>
<polygon fill="#191970" stroke="#191970" points="1341.9106,-66.8793 1332.0755,-70.8189 1342.2207,-73.8724 1341.9106,-66.8793"/>
</g>
<!-- Node47 -->
<g id="node9" class="node">
<title>Node47</title>
<g id="a_node9"><a xlink:href="../../dc/dc6/classCarlaReplayer.html#a480fd94fedc2367d7f7f58f17f3cd5a4" target="_top" xlink:title="CarlaReplayer::ReplayFile">
<polygon fill="#ffffff" stroke="#000000" points="1368,-85.5 1368,-104.5 1508,-104.5 1508,-85.5 1368,-85.5"/>
<text text-anchor="middle" x="1438" y="-92.5" font-family="Helvetica,sans-Serif" font-size="10.00" fill="#000000">CarlaReplayer::ReplayFile</text>
</a>
</g>
</g>
<!-- Node44&#45;&gt;Node47 -->
<g id="edge8" class="edge">
<title>Node44&#45;&gt;Node47</title>
<path fill="none" stroke="#191970" d="M1342.297,-85.6511C1350.8949,-86.491 1359.4767,-87.3293 1367.7735,-88.1398"/>
<polygon fill="#191970" stroke="#191970" points="1342.5054,-82.1549 1332.2124,-84.666 1341.8247,-89.1217 1342.5054,-82.1549"/>
</g>
<!-- Node46 -->
<g id="node8" class="node">
<title>Node46</title>
<g id="a_node8"><a xlink:href="../../d7/d97/classFCarlaServer_1_1FPimpl.html#ab9ff29fc81bd2f9a14677941c7f7b62d" target="_top" xlink:title="FCarlaServer::FPimpl\l::FPimpl">
<polygon fill="#ffffff" stroke="#000000" points="1901,-80 1901,-110 2019,-110 2019,-80 1901,-80"/>
<text text-anchor="start" x="1909" y="-98" font-family="Helvetica,sans-Serif" font-size="10.00" fill="#000000">FCarlaServer::FPimpl</text>
<text text-anchor="middle" x="1960" y="-87" font-family="Helvetica,sans-Serif" font-size="10.00" fill="#000000">::FPimpl</text>
</a>
</g>
</g>
<!-- Node45&#45;&gt;Node46 -->
<g id="edge7" class="edge">
<title>Node45&#45;&gt;Node46</title>
<path fill="none" stroke="#191970" d="M1875.3691,-95C1883.8618,-95 1892.4796,-95 1900.8037,-95"/>
<polygon fill="#191970" stroke="#191970" points="1875.1,-91.5001 1865.1,-95 1875.1,-98.5001 1875.1,-91.5001"/>
</g>
<!-- Node48 -->
<g id="node10" class="node">
<title>Node48</title>
<g id="a_node10"><a xlink:href="../../dd/db9/classACarlaRecorder.html#a5dc891241c275eedcf6b1f189751520b" target="_top" xlink:title="ACarlaRecorder::ReplayFile">
<polygon fill="#ffffff" stroke="#000000" points="1554,-123.5 1554,-142.5 1701,-142.5 1701,-123.5 1554,-123.5"/>
<text text-anchor="middle" x="1627.5" y="-130.5" font-family="Helvetica,sans-Serif" font-size="10.00" fill="#000000">ACarlaRecorder::ReplayFile</text>
</a>
</g>
</g>
<!-- Node47&#45;&gt;Node48 -->
<g id="edge9" class="edge">
<title>Node47&#45;&gt;Node48</title>
<path fill="none" stroke="#191970" d="M1495.8948,-106.6095C1522.846,-112.014 1554.5102,-118.3635 1580.025,-123.4799"/>
<polygon fill="#191970" stroke="#191970" points="1496.3118,-103.1235 1485.8189,-104.589 1494.9355,-109.9869 1496.3118,-103.1235"/>
</g>
<!-- Node49 -->
<g id="node11" class="node">
<title>Node49</title>
<g id="a_node11"><a xlink:href="../../dc/dc6/classCarlaReplayer.html#a6dadadd7719c5e660d2e3d99b22f5961" target="_top" xlink:title="CarlaReplayer::~CarlaReplayer">
<polygon fill="#ffffff" stroke="#000000" points="1544,-85.5 1544,-104.5 1711,-104.5 1711,-85.5 1544,-85.5"/>
<text text-anchor="middle" x="1627.5" y="-92.5" font-family="Helvetica,sans-Serif" font-size="10.00" fill="#000000">CarlaReplayer::~CarlaReplayer</text>
</a>
</g>
</g>
<!-- Node47&#45;&gt;Node49 -->
<g id="edge11" class="edge">
<title>Node47&#45;&gt;Node49</title>
<path fill="none" stroke="#191970" d="M1518.2898,-95C1526.7857,-95 1535.4405,-95 1543.9721,-95"/>
<polygon fill="#191970" stroke="#191970" points="1518.0244,-91.5001 1508.0244,-95 1518.0244,-98.5001 1518.0244,-91.5001"/>
</g>
<!-- Node48&#45;&gt;Node45 -->
<g id="edge10" class="edge">
<title>Node48&#45;&gt;Node45</title>
<path fill="none" stroke="#191970" d="M1682.5949,-121.2711C1702.9481,-116.9382 1726.0921,-112.0112 1746.7945,-107.604"/>
<polygon fill="#191970" stroke="#191970" points="1681.5951,-117.9054 1672.5431,-123.411 1683.0527,-124.752 1681.5951,-117.9054"/>
</g>
<!-- Node52 -->
<g id="node14" class="node">
<title>Node52</title>
<g id="a_node14"><a xlink:href="../../dc/d84/classUCarlaEpisode.html#a2f0288d27d5fd7c84c33ebad36621cc7" target="_top" xlink:title="UCarlaEpisode::UCarlaEpisode">
<polygon fill="#ffffff" stroke="#000000" points="757,-124.5 757,-143.5 922,-143.5 922,-124.5 757,-124.5"/>
<text text-anchor="middle" x="839.5" y="-131.5" font-family="Helvetica,sans-Serif" font-size="10.00" fill="#000000">UCarlaEpisode::UCarlaEpisode</text>
</a>
</g>
</g>
<!-- Node51&#45;&gt;Node52 -->
<g id="edge14" class="edge">
<title>Node51&#45;&gt;Node52</title>
<path fill="none" stroke="#191970" d="M714.1076,-134C728.0335,-134 742.5955,-134 756.6622,-134"/>
<polygon fill="#191970" stroke="#191970" points="714.0961,-130.5001 704.0961,-134 714.096,-137.5001 714.0961,-130.5001"/>
</g>
<!-- Node54 -->
<g id="node16" class="node">
<title>Node54</title>
<g id="a_node16"><a xlink:href="../../dd/db9/classACarlaRecorder.html#a1074f19dfe5b16a9e10b24ef35b26abc" target="_top" xlink:title="ACarlaRecorder::Ticking">
<polygon fill="#ffffff" stroke="#000000" points="570,-44.5 570,-63.5 703,-63.5 703,-44.5 570,-44.5"/>
<text text-anchor="middle" x="636.5" y="-51.5" font-family="Helvetica,sans-Serif" font-size="10.00" fill="#000000">ACarlaRecorder::Ticking</text>
</a>
</g>
</g>
<!-- Node53&#45;&gt;Node54 -->
<g id="edge17" class="edge">
<title>Node53&#45;&gt;Node54</title>
<path fill="none" stroke="#191970" d="M523.2759,-54C538.7928,-54 554.8199,-54 569.7599,-54"/>
<polygon fill="#191970" stroke="#191970" points="523.1694,-50.5001 513.1693,-54 523.1693,-57.5001 523.1694,-50.5001"/>
</g>
<!-- Node54&#45;&gt;Node42 -->
<g id="edge18" class="edge">
<title>Node54&#45;&gt;Node42</title>
<path fill="none" stroke="#191970" d="M713.2592,-54C731.5139,-54 750.9055,-54 768.8711,-54"/>
<polygon fill="#191970" stroke="#191970" points="713.251,-50.5001 703.251,-54 713.2509,-57.5001 713.251,-50.5001"/>
</g>
<!-- Node56 -->
<g id="node18" class="node">
<title>Node56</title>
<g id="a_node18"><a xlink:href="../../d9/de7/WorldObserver_8cpp.html#a55e677eb5bd393082eef8383920b2fde" target="_top" xlink:title="FWorldObserver_Serialize">
<polygon fill="#ffffff" stroke="#000000" points="369.5,-.5 369.5,-19.5 510.5,-19.5 510.5,-.5 369.5,-.5"/>
<text text-anchor="middle" x="440" y="-7.5" font-family="Helvetica,sans-Serif" font-size="10.00" fill="#000000">FWorldObserver_Serialize</text>
</a>
</g>
</g>
<!-- Node55&#45;&gt;Node56 -->
<g id="edge20" class="edge">
<title>Node55&#45;&gt;Node56</title>
<path fill="none" stroke="#191970" d="M338.5732,-11.5564C348.9215,-11.3976 359.3249,-11.238 369.3185,-11.0846"/>
<polygon fill="#191970" stroke="#191970" points="338.2055,-8.0616 328.2604,-11.7147 338.3129,-15.0607 338.2055,-8.0616"/>
</g>
<!-- Node57 -->
<g id="node19" class="node">
<title>Node57</title>
<g id="a_node19"><a xlink:href="../../da/d9b/classFWorldObserver.html#ad866b204499b7d2252661e39bcff1811" target="_top" xlink:title="Send a message to every connected client with the info about the given Episode. ">
<polygon fill="#ffffff" stroke="#000000" points="552,-3.5 552,-22.5 721,-22.5 721,-3.5 552,-3.5"/>
<text text-anchor="middle" x="636.5" y="-10.5" font-family="Helvetica,sans-Serif" font-size="10.00" fill="#000000">FWorldObserver::BroadcastTick</text>
</a>
</g>
</g>
<!-- Node56&#45;&gt;Node57 -->
<g id="edge21" class="edge">
<title>Node56&#45;&gt;Node57</title>
<path fill="none" stroke="#191970" d="M520.7693,-11.2331C530.979,-11.389 541.449,-11.5488 551.7188,-11.7056"/>
<polygon fill="#191970" stroke="#191970" points="520.7157,-7.732 510.6634,-11.0788 520.6088,-14.7312 520.7157,-7.732"/>
</g>
<!-- Node57&#45;&gt;Node42 -->
<g id="edge23" class="edge">
<title>Node57&#45;&gt;Node42</title>
<path fill="none" stroke="#191970" d="M693.442,-24.5006C724.628,-30.7993 762.816,-38.5121 792.3216,-44.4714"/>
<polygon fill="#191970" stroke="#191970" points="694.0775,-21.0584 683.5825,-22.5093 692.6917,-27.9198 694.0775,-21.0584"/>
</g>
<!-- Node58 -->
<g id="node20" class="node">
<title>Node58</title>
<g id="a_node20"><a xlink:href="../../da/d9b/classFWorldObserver.html#a6a9ceda97152eb6931a1d4f20123a2ac" target="_top" xlink:title="Return the token that allows subscribing to this sensor&#39;s stream. ">
<polygon fill="#ffffff" stroke="#000000" points="766.5,-3.5 766.5,-22.5 912.5,-22.5 912.5,-3.5 766.5,-3.5"/>
<text text-anchor="middle" x="839.5" y="-10.5" font-family="Helvetica,sans-Serif" font-size="10.00" fill="#000000">FWorldObserver::GetToken</text>
</a>
</g>
</g>
<!-- Node57&#45;&gt;Node58 -->
<g id="edge22" class="edge">
<title>Node57&#45;&gt;Node58</title>
<path fill="none" stroke="#191970" d="M731.3868,-13C743.122,-13 754.9756,-13 766.3166,-13"/>
<polygon fill="#191970" stroke="#191970" points="731.1204,-9.5001 721.1203,-13 731.1203,-16.5001 731.1204,-9.5001"/>
</g>
</g>
</svg>
