<?xml version="1.0" encoding="UTF-8" standalone="no"?>
<!DOCTYPE svg PUBLIC "-//W3C//DTD SVG 1.1//EN"
 "http://www.w3.org/Graphics/SVG/1.1/DTD/svg11.dtd">
<!-- Generated by graphviz version 2.40.1 (20161225.0304)
 -->
<!-- Title: geometry_msgs::msg::Point::getKeyMaxCdrSerializedSize Pages: 1 -->
<svg width="391pt" height="100pt"
 viewBox="0.00 0.00 391.00 99.50" xmlns="http://www.w3.org/2000/svg" xmlns:xlink="http://www.w3.org/1999/xlink">
<g id="graph0" class="graph" transform="scale(1 1) rotate(0) translate(4 95.5)">
<title>geometry_msgs::msg::Point::getKeyMaxCdrSerializedSize</title>
<polygon fill="#ffffff" stroke="transparent" points="-4,4 -4,-95.5 387,-95.5 387,4 -4,4"/>
<!-- Node21 -->
<g id="node1" class="node">
<title>Node21</title>
<polygon fill="#bfbfbf" stroke="#000000" points="0,-33 0,-63 192,-63 192,-33 0,-33"/>
<text text-anchor="start" x="8" y="-51" font-family="Helvetica,sans-Serif" font-size="10.00" fill="#000000">geometry_msgs::msg</text>
<text text-anchor="middle" x="96" y="-40" font-family="Helvetica,sans-Serif" font-size="10.00" fill="#000000">::Point::getKeyMaxCdrSerializedSize</text>
</g>
<!-- Node22 -->
<g id="node2" class="node">
<title>Node22</title>
<g id="a_node2"><a xlink:href="../../df/d78/classgeometry__msgs_1_1msg_1_1PointPubSubType.html#af1c868462624f0b6182076b139fc28a0" target="_top" xlink:title="geometry_msgs::msg\l::PointPubSubType::getKey">
<polygon fill="#ffffff" stroke="#000000" points="232.5,-61 232.5,-91 378.5,-91 378.5,-61 232.5,-61"/>
<text text-anchor="start" x="240.5" y="-79" font-family="Helvetica,sans-Serif" font-size="10.00" fill="#000000">geometry_msgs::msg</text>
<text text-anchor="middle" x="305.5" y="-68" font-family="Helvetica,sans-Serif" font-size="10.00" fill="#000000">::PointPubSubType::getKey</text>
</a>
</g>
</g>
<!-- Node21&#45;&gt;Node22 -->
<g id="edge1" class="edge">
<title>Node21&#45;&gt;Node22</title>
<path fill="none" stroke="#191970" d="M202.3527,-62.2142C212.5472,-63.5767 222.7214,-64.9365 232.489,-66.242"/>
<polygon fill="#191970" stroke="#191970" points="202.5413,-58.7084 192.1658,-60.8527 201.614,-65.6467 202.5413,-58.7084"/>
</g>
<!-- Node23 -->
<g id="node3" class="node">
<title>Node23</title>
<g id="a_node3"><a xlink:href="../../df/d78/classgeometry__msgs_1_1msg_1_1PointPubSubType.html#a7aaebfe88594e569d7bda7c9a7afd338" target="_top" xlink:title="geometry_msgs::msg\l::PointPubSubType::PointPub\lSubType">
<polygon fill="#ffffff" stroke="#000000" points="228,-.5 228,-41.5 383,-41.5 383,-.5 228,-.5"/>
<text text-anchor="start" x="236" y="-29.5" font-family="Helvetica,sans-Serif" font-size="10.00" fill="#000000">geometry_msgs::msg</text>
<text text-anchor="start" x="236" y="-18.5" font-family="Helvetica,sans-Serif" font-size="10.00" fill="#000000">::PointPubSubType::PointPub</text>
<text text-anchor="middle" x="305.5" y="-7.5" font-family="Helvetica,sans-Serif" font-size="10.00" fill="#000000">SubType</text>
</a>
</g>
</g>
<!-- Node21&#45;&gt;Node23 -->
<g id="edge2" class="edge">
<title>Node21&#45;&gt;Node23</title>
<path fill="none" stroke="#191970" d="M202.2617,-34.3052C210.8684,-33.196 219.4615,-32.0885 227.8086,-31.0127"/>
<polygon fill="#191970" stroke="#191970" points="201.6364,-30.8567 192.1658,-35.6063 202.5312,-37.7993 201.6364,-30.8567"/>
</g>
</g>
</svg>
