<?xml version="1.0" encoding="UTF-8" standalone="no"?>
<!DOCTYPE svg PUBLIC "-//W3C//DTD SVG 1.1//EN"
 "http://www.w3.org/Graphics/SVG/1.1/DTD/svg11.dtd">
<!-- Generated by graphviz version 2.40.1 (20161225.0304)
 -->
<!-- Title: carla::geom::Rotation::GetUpVector Pages: 1 -->
<svg width="421pt" height="39pt"
 viewBox="0.00 0.00 421.00 39.00" xmlns="http://www.w3.org/2000/svg" xmlns:xlink="http://www.w3.org/1999/xlink">
<g id="graph0" class="graph" transform="scale(1 1) rotate(0) translate(4 35)">
<title>carla::geom::Rotation::GetUpVector</title>
<polygon fill="#ffffff" stroke="transparent" points="-4,4 -4,-35 417,-35 417,4 -4,4"/>
<!-- Node29 -->
<g id="node1" class="node">
<title>Node29</title>
<polygon fill="#bfbfbf" stroke="#000000" points="0,-.5 0,-30.5 121,-30.5 121,-.5 0,-.5"/>
<text text-anchor="start" x="8" y="-18.5" font-family="Helvetica,sans-Serif" font-size="10.00" fill="#000000">carla::geom::Rotation</text>
<text text-anchor="middle" x="60.5" y="-7.5" font-family="Helvetica,sans-Serif" font-size="10.00" fill="#000000">::GetUpVector</text>
</g>
<!-- Node30 -->
<g id="node2" class="node">
<title>Node30</title>
<g id="a_node2"><a xlink:href="../../d0/dea/classcarla_1_1geom_1_1Math.html#a6c1efa00251804c14320df1b9e38ac8a" target="_top" xlink:title="Compute the unit vector pointing towards the Y&#45;axis of rotation. ">
<polygon fill="#ffffff" stroke="#000000" points="157,-.5 157,-30.5 267,-30.5 267,-.5 157,-.5"/>
<text text-anchor="start" x="165" y="-18.5" font-family="Helvetica,sans-Serif" font-size="10.00" fill="#000000">carla::geom::Math::</text>
<text text-anchor="middle" x="212" y="-7.5" font-family="Helvetica,sans-Serif" font-size="10.00" fill="#000000">GetUpVector</text>
</a>
</g>
</g>
<!-- Node29&#45;&gt;Node30 -->
<g id="edge1" class="edge">
<title>Node29&#45;&gt;Node30</title>
<path fill="none" stroke="#191970" d="M121.2479,-15.5C129.5585,-15.5 138.12,-15.5 146.5105,-15.5"/>
<polygon fill="#191970" stroke="#191970" points="146.6318,-19.0001 156.6318,-15.5 146.6317,-12.0001 146.6318,-19.0001"/>
</g>
<!-- Node31 -->
<g id="node3" class="node">
<title>Node31</title>
<g id="a_node3"><a xlink:href="../../d0/dea/classcarla_1_1geom_1_1Math.html#a2bd79912876dfbab9354c0bb841320e4" target="_top" xlink:title="carla::geom::Math::\lToRadians">
<polygon fill="#ffffff" stroke="#000000" points="303,-.5 303,-30.5 413,-30.5 413,-.5 303,-.5"/>
<text text-anchor="start" x="311" y="-18.5" font-family="Helvetica,sans-Serif" font-size="10.00" fill="#000000">carla::geom::Math::</text>
<text text-anchor="middle" x="358" y="-7.5" font-family="Helvetica,sans-Serif" font-size="10.00" fill="#000000">ToRadians</text>
</a>
</g>
</g>
<!-- Node30&#45;&gt;Node31 -->
<g id="edge2" class="edge">
<title>Node30&#45;&gt;Node31</title>
<path fill="none" stroke="#191970" d="M267.1963,-15.5C275.4633,-15.5 284.0546,-15.5 292.5101,-15.5"/>
<polygon fill="#191970" stroke="#191970" points="292.7256,-19.0001 302.7256,-15.5 292.7256,-12.0001 292.7256,-19.0001"/>
</g>
</g>
</svg>
