<?xml version="1.0" encoding="UTF-8" standalone="no"?>
<!DOCTYPE svg PUBLIC "-//W3C//DTD SVG 1.1//EN"
 "http://www.w3.org/Graphics/SVG/1.1/DTD/svg11.dtd">
<!-- Generated by graphviz version 2.43.0 (0)
 -->
<!-- Title: CarlaLineInvasion.h Pages: 1 -->
<svg width="515pt" height="207pt"
 viewBox="0.00 0.00 514.50 207.00" xmlns="http://www.w3.org/2000/svg" xmlns:xlink="http://www.w3.org/1999/xlink">
<g id="graph0" class="graph" transform="scale(1 1) rotate(0) translate(4 203)">
<title>CarlaLineInvasion.h</title>
<polygon fill="white" stroke="transparent" points="-4,4 -4,-203 510.5,-203 510.5,4 -4,4"/>
<!-- Node1 -->
<g id="node1" class="node">
<title>Node1</title>
<g id="a_node1"><a xlink:title=" ">
<polygon fill="#bfbfbf" stroke="black" points="266.5,-179.5 266.5,-198.5 379.5,-198.5 379.5,-179.5 266.5,-179.5"/>
<text text-anchor="middle" x="323" y="-186.5" font-family="Helvetica,sans-Serif" font-size="10.00">CarlaLineInvasion.h</text>
</a>
</g>
</g>
<!-- Node2 -->
<g id="node2" class="node">
<title>Node2</title>
<g id="a_node2"><a xlink:href="../../d3/d6a/Header_8h.html" target="_top" xlink:title=" ">
<polygon fill="white" stroke="black" points="248,-123.5 248,-142.5 308,-142.5 308,-123.5 248,-123.5"/>
<text text-anchor="middle" x="278" y="-130.5" font-family="Helvetica,sans-Serif" font-size="10.00">Header.h</text>
</a>
</g>
</g>
<!-- Node1&#45;&gt;Node2 -->
<g id="edge1" class="edge">
<title>Node1&#45;&gt;Node2</title>
<path fill="none" stroke="midnightblue" d="M315.57,-179.08C309.15,-171.38 299.69,-160.03 291.88,-150.65"/>
<polygon fill="midnightblue" stroke="midnightblue" points="294.38,-148.19 285.29,-142.75 289.01,-152.67 294.38,-148.19"/>
</g>
<!-- Node4 -->
<g id="node4" class="node">
<title>Node4</title>
<g id="a_node4"><a xlink:title=" ">
<polygon fill="white" stroke="#bfbfbf" points="0,-0.5 0,-30.5 104,-30.5 104,-0.5 0,-0.5"/>
<text text-anchor="start" x="8" y="-18.5" font-family="Helvetica,sans-Serif" font-size="10.00">fastrtps/utils/fixed</text>
<text text-anchor="middle" x="52" y="-7.5" font-family="Helvetica,sans-Serif" font-size="10.00">_size_string.hpp</text>
</a>
</g>
</g>
<!-- Node1&#45;&gt;Node4 -->
<g id="edge17" class="edge">
<title>Node1&#45;&gt;Node4</title>
<path fill="none" stroke="midnightblue" d="M290.81,-179.5C265.38,-172.01 229.56,-159.68 201,-143 149.84,-113.12 99.16,-65.16 72.1,-37.68"/>
<polygon fill="midnightblue" stroke="midnightblue" points="74.6,-35.23 65.12,-30.5 69.58,-40.11 74.6,-35.23"/>
</g>
<!-- Node5 -->
<g id="node5" class="node">
<title>Node5</title>
<g id="a_node5"><a xlink:title=" ">
<polygon fill="white" stroke="#bfbfbf" points="122.5,-6 122.5,-25 175.5,-25 175.5,-6 122.5,-6"/>
<text text-anchor="middle" x="149" y="-13" font-family="Helvetica,sans-Serif" font-size="10.00">stdint.h</text>
</a>
</g>
</g>
<!-- Node1&#45;&gt;Node5 -->
<g id="edge18" class="edge">
<title>Node1&#45;&gt;Node5</title>
<path fill="none" stroke="midnightblue" d="M291.76,-179.48C270.47,-172.44 242.68,-160.69 223,-143 188.74,-112.2 165.93,-61.69 155.5,-34.76"/>
<polygon fill="midnightblue" stroke="midnightblue" points="158.67,-33.23 151.9,-25.08 152.11,-35.67 158.67,-33.23"/>
</g>
<!-- Node6 -->
<g id="node6" class="node">
<title>Node6</title>
<g id="a_node6"><a xlink:title=" ">
<polygon fill="white" stroke="#bfbfbf" points="194,-6 194,-25 236,-25 236,-6 194,-6"/>
<text text-anchor="middle" x="215" y="-13" font-family="Helvetica,sans-Serif" font-size="10.00">array</text>
</a>
</g>
</g>
<!-- Node1&#45;&gt;Node6 -->
<g id="edge19" class="edge">
<title>Node1&#45;&gt;Node6</title>
<path fill="none" stroke="midnightblue" d="M294.45,-179.46C276.01,-172.51 252.93,-160.88 239,-143 214.46,-111.51 212.48,-62.4 213.52,-35.57"/>
<polygon fill="midnightblue" stroke="midnightblue" points="217.04,-35.44 214.12,-25.26 210.05,-35.04 217.04,-35.44"/>
</g>
<!-- Node7 -->
<g id="node7" class="node">
<title>Node7</title>
<g id="a_node7"><a xlink:title=" ">
<polygon fill="white" stroke="#bfbfbf" points="385,-6 385,-25 429,-25 429,-6 385,-6"/>
<text text-anchor="middle" x="407" y="-13" font-family="Helvetica,sans-Serif" font-size="10.00">string</text>
</a>
</g>
</g>
<!-- Node1&#45;&gt;Node7 -->
<g id="edge20" class="edge">
<title>Node1&#45;&gt;Node7</title>
<path fill="none" stroke="midnightblue" d="M350.66,-179.45C367.97,-172.54 389.02,-160.97 400,-143 420.38,-109.65 415.84,-61.65 411.16,-35.4"/>
<polygon fill="midnightblue" stroke="midnightblue" points="414.53,-34.42 409.15,-25.3 407.66,-35.79 414.53,-34.42"/>
</g>
<!-- Node8 -->
<g id="node8" class="node">
<title>Node8</title>
<g id="a_node8"><a xlink:title=" ">
<polygon fill="white" stroke="#bfbfbf" points="459.5,-6 459.5,-25 506.5,-25 506.5,-6 459.5,-6"/>
<text text-anchor="middle" x="483" y="-13" font-family="Helvetica,sans-Serif" font-size="10.00">vector</text>
</a>
</g>
</g>
<!-- Node1&#45;&gt;Node8 -->
<g id="edge21" class="edge">
<title>Node1&#45;&gt;Node8</title>
<path fill="none" stroke="midnightblue" d="M352.97,-179.45C373.33,-172.4 399.78,-160.65 418,-143 450.12,-111.9 469.32,-61.52 477.81,-34.68"/>
<polygon fill="midnightblue" stroke="midnightblue" points="481.18,-35.63 480.71,-25.04 474.48,-33.61 481.18,-35.63"/>
</g>
<!-- Node9 -->
<g id="node9" class="node">
<title>Node9</title>
<g id="a_node9"><a xlink:title=" ">
<polygon fill="white" stroke="#bfbfbf" points="317,-6 317,-25 355,-25 355,-6 317,-6"/>
<text text-anchor="middle" x="336" y="-13" font-family="Helvetica,sans-Serif" font-size="10.00">map</text>
</a>
</g>
</g>
<!-- Node1&#45;&gt;Node9 -->
<g id="edge22" class="edge">
<title>Node1&#45;&gt;Node9</title>
<path fill="none" stroke="midnightblue" d="M342.3,-179.48C356.43,-172.08 374.56,-159.89 383,-143 398.11,-112.79 395.36,-98.43 383,-67 377.53,-53.1 366.25,-40.77 356.1,-31.76"/>
<polygon fill="midnightblue" stroke="midnightblue" points="358.27,-29.01 348.34,-25.29 353.78,-34.39 358.27,-29.01"/>
</g>
<!-- Node10 -->
<g id="node10" class="node">
<title>Node10</title>
<g id="a_node10"><a xlink:title=" ">
<polygon fill="white" stroke="#bfbfbf" points="255,-6 255,-25 299,-25 299,-6 255,-6"/>
<text text-anchor="middle" x="277" y="-13" font-family="Helvetica,sans-Serif" font-size="10.00">bitset</text>
</a>
</g>
</g>
<!-- Node1&#45;&gt;Node10 -->
<g id="edge23" class="edge">
<title>Node1&#45;&gt;Node10</title>
<path fill="none" stroke="midnightblue" d="M323.68,-179.47C324.98,-159.23 326.54,-107.05 312,-67 307.43,-54.41 298.92,-42.02 291.44,-32.67"/>
<polygon fill="midnightblue" stroke="midnightblue" points="294.11,-30.41 285,-25.01 288.76,-34.91 294.11,-30.41"/>
</g>
<!-- Node3 -->
<g id="node3" class="node">
<title>Node3</title>
<g id="a_node3"><a xlink:href="../../d9/d3d/ros2_2types_2Time_8h.html" target="_top" xlink:title=" ">
<polygon fill="white" stroke="black" points="253,-67.5 253,-86.5 303,-86.5 303,-67.5 253,-67.5"/>
<text text-anchor="middle" x="278" y="-74.5" font-family="Helvetica,sans-Serif" font-size="10.00">Time.h</text>
</a>
</g>
</g>
<!-- Node2&#45;&gt;Node3 -->
<g id="edge2" class="edge">
<title>Node2&#45;&gt;Node3</title>
<path fill="none" stroke="midnightblue" d="M278,-123.08C278,-116.01 278,-105.86 278,-96.99"/>
<polygon fill="midnightblue" stroke="midnightblue" points="281.5,-96.75 278,-86.75 274.5,-96.75 281.5,-96.75"/>
</g>
<!-- Node2&#45;&gt;Node4 -->
<g id="edge10" class="edge">
<title>Node2&#45;&gt;Node4</title>
<path fill="none" stroke="midnightblue" d="M261.01,-123.32C224.56,-104.69 138.13,-60.52 88.58,-35.19"/>
<polygon fill="midnightblue" stroke="midnightblue" points="89.98,-31.98 79.48,-30.55 86.79,-38.21 89.98,-31.98"/>
</g>
<!-- Node2&#45;&gt;Node5 -->
<g id="edge11" class="edge">
<title>Node2&#45;&gt;Node5</title>
<path fill="none" stroke="midnightblue" d="M267.32,-123.17C256.54,-114.19 239.44,-99.82 225,-87 204.33,-68.65 181.11,-46.95 165.84,-32.52"/>
<polygon fill="midnightblue" stroke="midnightblue" points="167.91,-29.65 158.24,-25.32 163.09,-34.74 167.91,-29.65"/>
</g>
<!-- Node2&#45;&gt;Node6 -->
<g id="edge12" class="edge">
<title>Node2&#45;&gt;Node6</title>
<path fill="none" stroke="midnightblue" d="M268.17,-123.24C259.19,-114.76 246.12,-101.14 238,-87 228.6,-70.63 222.43,-49.88 218.86,-35.14"/>
<polygon fill="midnightblue" stroke="midnightblue" points="222.24,-34.21 216.64,-25.22 215.41,-35.74 222.24,-34.21"/>
</g>
<!-- Node2&#45;&gt;Node7 -->
<g id="edge13" class="edge">
<title>Node2&#45;&gt;Node7</title>
<path fill="none" stroke="midnightblue" d="M288.04,-123.46C298.57,-114.46 315.55,-99.86 330,-87 350.79,-68.49 374.34,-46.82 389.87,-32.44"/>
<polygon fill="midnightblue" stroke="midnightblue" points="392.65,-34.64 397.59,-25.27 387.88,-29.51 392.65,-34.64"/>
</g>
<!-- Node2&#45;&gt;Node8 -->
<g id="edge14" class="edge">
<title>Node2&#45;&gt;Node8</title>
<path fill="none" stroke="midnightblue" d="M293.41,-123.32C328.81,-103.37 416.2,-54.14 458.83,-30.12"/>
<polygon fill="midnightblue" stroke="midnightblue" points="460.7,-33.08 467.69,-25.12 457.26,-26.98 460.7,-33.08"/>
</g>
<!-- Node2&#45;&gt;Node9 -->
<g id="edge15" class="edge">
<title>Node2&#45;&gt;Node9</title>
<path fill="none" stroke="midnightblue" d="M285.95,-123.27C293.5,-114.61 304.75,-100.67 312,-87 320.88,-70.25 327.46,-49.56 331.46,-34.94"/>
<polygon fill="midnightblue" stroke="midnightblue" points="334.89,-35.66 334.02,-25.11 328.12,-33.9 334.89,-35.66"/>
</g>
<!-- Node2&#45;&gt;Node10 -->
<g id="edge16" class="edge">
<title>Node2&#45;&gt;Node10</title>
<path fill="none" stroke="midnightblue" d="M268.71,-123.39C260.42,-115.02 248.86,-101.48 244,-87 237.6,-67.9 249.84,-47.14 261.18,-33.13"/>
<polygon fill="midnightblue" stroke="midnightblue" points="264.03,-35.19 267.96,-25.35 258.75,-30.6 264.03,-35.19"/>
</g>
<!-- Node3&#45;&gt;Node4 -->
<g id="edge3" class="edge">
<title>Node3&#45;&gt;Node4</title>
<path fill="none" stroke="midnightblue" d="M252.95,-69.41C219.65,-60.64 159.69,-44.85 113.9,-32.8"/>
<polygon fill="midnightblue" stroke="midnightblue" points="114.63,-29.37 104.07,-30.21 112.85,-36.14 114.63,-29.37"/>
</g>
<!-- Node3&#45;&gt;Node5 -->
<g id="edge4" class="edge">
<title>Node3&#45;&gt;Node5</title>
<path fill="none" stroke="midnightblue" d="M259.52,-67.48C237.87,-57.49 201.79,-40.85 176.77,-29.31"/>
<polygon fill="midnightblue" stroke="midnightblue" points="177.99,-26.02 167.45,-25.01 175.06,-32.38 177.99,-26.02"/>
</g>
<!-- Node3&#45;&gt;Node6 -->
<g id="edge5" class="edge">
<title>Node3&#45;&gt;Node6</title>
<path fill="none" stroke="midnightblue" d="M268.97,-67.48C259.24,-58.28 243.54,-43.46 231.58,-32.16"/>
<polygon fill="midnightblue" stroke="midnightblue" points="233.68,-29.33 224.01,-25.01 228.88,-34.42 233.68,-29.33"/>
</g>
<!-- Node3&#45;&gt;Node7 -->
<g id="edge6" class="edge">
<title>Node3&#45;&gt;Node7</title>
<path fill="none" stroke="midnightblue" d="M296.48,-67.48C318.13,-57.49 354.21,-40.85 379.23,-29.31"/>
<polygon fill="midnightblue" stroke="midnightblue" points="380.94,-32.38 388.55,-25.01 378.01,-26.02 380.94,-32.38"/>
</g>
<!-- Node3&#45;&gt;Node8 -->
<g id="edge7" class="edge">
<title>Node3&#45;&gt;Node8</title>
<path fill="none" stroke="midnightblue" d="M303.03,-69.27C334.59,-60.72 390.48,-45.33 438,-31 441.78,-29.86 445.73,-28.64 449.65,-27.4"/>
<polygon fill="midnightblue" stroke="midnightblue" points="450.77,-30.72 459.23,-24.34 448.64,-24.05 450.77,-30.72"/>
</g>
<!-- Node3&#45;&gt;Node9 -->
<g id="edge8" class="edge">
<title>Node3&#45;&gt;Node9</title>
<path fill="none" stroke="midnightblue" d="M286.31,-67.48C295.18,-58.37 309.45,-43.74 320.42,-32.48"/>
<polygon fill="midnightblue" stroke="midnightblue" points="323.23,-34.61 327.71,-25.01 318.22,-29.73 323.23,-34.61"/>
</g>
<!-- Node3&#45;&gt;Node10 -->
<g id="edge9" class="edge">
<title>Node3&#45;&gt;Node10</title>
<path fill="none" stroke="midnightblue" d="M277.86,-67.48C277.72,-59.08 277.5,-45.98 277.31,-35.16"/>
<polygon fill="midnightblue" stroke="midnightblue" points="280.81,-34.95 277.14,-25.01 273.81,-35.07 280.81,-34.95"/>
</g>
</g>
</svg>
