<?xml version="1.0" encoding="UTF-8" standalone="no"?>
<!DOCTYPE svg PUBLIC "-//W3C//DTD SVG 1.1//EN"
 "http://www.w3.org/Graphics/SVG/1.1/DTD/svg11.dtd">
<!-- Generated by graphviz version 2.38.0 (20140413.2041)
 -->
<!-- Title: LockTexture Pages: 1 -->
<svg width="162pt" height="95pt"
 viewBox="0.00 0.00 161.50 95.00" xmlns="http://www.w3.org/2000/svg" xmlns:xlink="http://www.w3.org/1999/xlink">
<g id="graph0" class="graph" transform="scale(1 1) rotate(0) translate(4 91)">
<title>LockTexture</title>
<polygon fill="white" stroke="none" points="-4,4 -4,-91 157.5,-91 157.5,4 -4,4"/>
<!-- Node1 -->
<g id="node1" class="node"><title>Node1</title>
<polygon fill="#bfbfbf" stroke="black" points="27,-0.5 27,-19.5 100,-19.5 100,-0.5 27,-0.5"/>
<text text-anchor="middle" x="63.5" y="-7.5" font-family="Helvetica,sans-Serif" font-size="10.00">LockTexture</text>
</g>
<!-- Node2 -->
<g id="node2" class="node"><title>Node2</title>
<polygon fill="white" stroke="#bfbfbf" points="0,-67.5 0,-86.5 41,-86.5 41,-67.5 0,-67.5"/>
<text text-anchor="middle" x="20.5" y="-74.5" font-family="Helvetica,sans-Serif" font-size="10.00">uint8</text>
</g>
<!-- Node2&#45;&gt;Node1 -->
<g id="edge1" class="edge"><title>Node2&#45;&gt;Node1</title>
<path fill="none" stroke="#9a32cd" stroke-dasharray="5,2" d="M32.054,-58.5347C40.3793,-45.9499 51.2568,-29.5072 57.7927,-19.6273"/>
<polygon fill="#9a32cd" stroke="#9a32cd" points="28.8975,-56.9625 26.2992,-67.2338 34.7356,-60.8247 28.8975,-56.9625"/>
<text text-anchor="middle" x="64" y="-41" font-family="Helvetica,sans-Serif" font-size="10.00"> Source</text>
</g>
<!-- Node3 -->
<g id="node3" class="node"><title>Node3</title>
<polygon fill="white" stroke="#bfbfbf" points="59.5,-67.5 59.5,-86.5 153.5,-86.5 153.5,-67.5 59.5,-67.5"/>
<text text-anchor="middle" x="106.5" y="-74.5" font-family="Helvetica,sans-Serif" font-size="10.00">FRHITexture2D *</text>
</g>
<!-- Node3&#45;&gt;Node1 -->
<g id="edge2" class="edge"><title>Node3&#45;&gt;Node1</title>
<path fill="none" stroke="#9a32cd" stroke-dasharray="5,2" d="M97.0705,-58.5714C93.346,-52.0024 88.9074,-44.5412 84.5,-38 80.2526,-31.6963 75.0026,-24.9463 70.8144,-19.7722"/>
<polygon fill="#9a32cd" stroke="#9a32cd" points="94.0233,-60.2935 101.93,-67.3462 100.147,-56.9024 94.0233,-60.2935"/>
<text text-anchor="middle" x="110.5" y="-41" font-family="Helvetica,sans-Serif" font-size="10.00"> Texture</text>
</g>
</g>
</svg>
