<?xml version="1.0" encoding="UTF-8" standalone="no"?>
<!DOCTYPE svg PUBLIC "-//W3C//DTD SVG 1.1//EN"
 "http://www.w3.org/Graphics/SVG/1.1/DTD/svg11.dtd">
<!-- Generated by graphviz version 2.40.1 (20161225.0304)
 -->
<!-- Title: carla::traffic_manager::VehicleLightStage::Update Pages: 1 -->
<!--zoomable 140 -->
<svg id="main" version="1.1" xmlns="http://www.w3.org/2000/svg" xmlns:xlink="http://www.w3.org/1999/xlink" xml:space="preserve" onload="init(evt)">
<style type="text/css"><![CDATA[
.edge:hover path { stroke: red; }
.edge:hover polygon { stroke: red; fill: red; }
]]></style>
<script type="text/javascript"><![CDATA[
var edges = document.getElementsByTagName('g');
if (edges && edges.length) {
  for (var i=0;i<edges.length;i++) {
    if (edges[i].id.substr(0,4)=='edge') {
      edges[i].setAttribute('class','edge');
    }
  }
}
]]></script>
        <defs>
                <circle id="rim" cx="0" cy="0" r="7"/>
                <circle id="rim2" cx="0" cy="0" r="3.5"/>
                <g id="zoomPlus">
                        <use xlink:href="#rim" fill="#404040">
                                <set attributeName="fill" to="#808080" begin="zoomplus.mouseover" end="zoomplus.mouseout"/>
                        </use>
                        <path d="M-4,0h8M0,-4v8" fill="none" stroke="white" stroke-width="1.5" pointer-events="none"/>
                </g>
                <g id="zoomMin">
                        <use xlink:href="#rim" fill="#404040">
                                <set attributeName="fill" to="#808080" begin="zoomminus.mouseover" end="zoomminus.mouseout"/>
                        </use>
                        <path d="M-4,0h8" fill="none" stroke="white" stroke-width="1.5" pointer-events="none"/>
                </g>
                <g id="dirArrow">
                        <path fill="none" stroke="white" stroke-width="1.5" d="M0,-3.0v7 M-2.5,-0.5L0,-3.0L2.5,-0.5"/>
                </g>
               <g id="resetDef">
                       <use xlink:href="#rim2" fill="#404040">
                               <set attributeName="fill" to="#808080" begin="reset.mouseover" end="reset.mouseout"/>
                       </use>
               </g>
        </defs>

<script type="text/javascript">
var viewWidth = 531;
var viewHeight = 140;
var sectionId = 'dynsection-3';
</script>
<script xlink:href="../../svgpan.js"/>
<svg id="graph" class="graph">
<g id="viewport">
<title>carla::traffic_manager::VehicleLightStage::Update</title>
<polygon fill="#ffffff" stroke="transparent" points="-4,4 -4,-136 527,-136 527,4 -4,4"/>
<!-- Node13 -->
<g id="node1" class="node">
<title>Node13</title>
<polygon fill="#bfbfbf" stroke="#000000" points="0,-73.5 0,-103.5 151,-103.5 151,-73.5 0,-73.5"/>
<text text-anchor="start" x="8" y="-91.5" font-family="Helvetica,sans-Serif" font-size="10.00" fill="#000000">carla::traffic_manager</text>
<text text-anchor="middle" x="75.5" y="-80.5" font-family="Helvetica,sans-Serif" font-size="10.00" fill="#000000">::VehicleLightStage::Update</text>
</g>
<!-- Node14 -->
<g id="node2" class="node">
<title>Node14</title>
<g id="a_node2"><a xlink:href="../../d0/dea/classcarla_1_1geom_1_1Math.html#a8bd4b72e239a23e9eb0bca4604dfa63e" target="_top" xlink:title="carla::geom::Math::\lDistanceSquared">
<polygon fill="#ffffff" stroke="#000000" points="218,-101.5 218,-131.5 328,-131.5 328,-101.5 218,-101.5"/>
<text text-anchor="start" x="226" y="-119.5" font-family="Helvetica,sans-Serif" font-size="10.00" fill="#000000">carla::geom::Math::</text>
<text text-anchor="middle" x="273" y="-108.5" font-family="Helvetica,sans-Serif" font-size="10.00" fill="#000000">DistanceSquared</text>
</a>
</g>
</g>
<!-- Node13&#45;&gt;Node14 -->
<g id="edge1" class="edge">
<title>Node13&#45;&gt;Node14</title>
<path fill="none" stroke="#191970" d="M151.0117,-99.2055C169.7555,-101.8628 189.6835,-104.688 207.8812,-107.268"/>
<polygon fill="#191970" stroke="#191970" points="207.4021,-110.735 217.7945,-108.6734 208.3848,-103.8043 207.4021,-110.735"/>
</g>
<!-- Node16 -->
<g id="node4" class="node">
<title>Node16</title>
<g id="a_node4"><a xlink:href="../../d6/ddb/classcarla_1_1traffic__manager_1_1Parameters.html#ace80f88f1cb214b5d35b33830cedb922" target="_top" xlink:title="Method to get if the vehicle lights should be updates automatically. ">
<polygon fill="#ffffff" stroke="#000000" points="187,-41 187,-82 359,-82 359,-41 187,-41"/>
<text text-anchor="start" x="195" y="-70" font-family="Helvetica,sans-Serif" font-size="10.00" fill="#000000">carla::traffic_manager</text>
<text text-anchor="start" x="195" y="-59" font-family="Helvetica,sans-Serif" font-size="10.00" fill="#000000">::Parameters::GetUpdateVehicle</text>
<text text-anchor="middle" x="273" y="-48" font-family="Helvetica,sans-Serif" font-size="10.00" fill="#000000">Lights</text>
</a>
</g>
</g>
<!-- Node13&#45;&gt;Node16 -->
<g id="edge3" class="edge">
<title>Node13&#45;&gt;Node16</title>
<path fill="none" stroke="#191970" d="M151.0117,-78.1769C159.4648,-77.0213 168.1587,-75.8327 176.8262,-74.6478"/>
<polygon fill="#191970" stroke="#191970" points="177.5391,-78.083 186.9728,-73.2607 176.5909,-71.1475 177.5391,-78.083"/>
</g>
<!-- Node15 -->
<g id="node3" class="node">
<title>Node15</title>
<g id="a_node3"><a xlink:href="../../d0/dea/classcarla_1_1geom_1_1Math.html#ac1644f7af375c05619c27851731cea87" target="_top" xlink:title="carla::geom::Math::\lSquare">
<polygon fill="#ffffff" stroke="#000000" points="404,-101.5 404,-131.5 514,-131.5 514,-101.5 404,-101.5"/>
<text text-anchor="start" x="412" y="-119.5" font-family="Helvetica,sans-Serif" font-size="10.00" fill="#000000">carla::geom::Math::</text>
<text text-anchor="middle" x="459" y="-108.5" font-family="Helvetica,sans-Serif" font-size="10.00" fill="#000000">Square</text>
</a>
</g>
</g>
<!-- Node14&#45;&gt;Node15 -->
<g id="edge2" class="edge">
<title>Node14&#45;&gt;Node15</title>
<path fill="none" stroke="#191970" d="M328.0512,-116.5C348.6736,-116.5 372.3009,-116.5 393.758,-116.5"/>
<polygon fill="#191970" stroke="#191970" points="393.7687,-120.0001 403.7687,-116.5 393.7686,-113.0001 393.7687,-120.0001"/>
</g>
<!-- Node17 -->
<g id="node5" class="node">
<title>Node17</title>
<g id="a_node5"><a xlink:href="../../d7/d02/classcarla_1_1traffic__manager_1_1AtomicMap.html#a8225c0bae4d9cfecae85b18f1381d951" target="_top" xlink:title="carla::traffic_manager\l::AtomicMap::Contains">
<polygon fill="#ffffff" stroke="#000000" points="396,-49.5 396,-79.5 522,-79.5 522,-49.5 396,-49.5"/>
<text text-anchor="start" x="404" y="-67.5" font-family="Helvetica,sans-Serif" font-size="10.00" fill="#000000">carla::traffic_manager</text>
<text text-anchor="middle" x="459" y="-56.5" font-family="Helvetica,sans-Serif" font-size="10.00" fill="#000000">::AtomicMap::Contains</text>
</a>
</g>
</g>
<!-- Node16&#45;&gt;Node17 -->
<g id="edge4" class="edge">
<title>Node16&#45;&gt;Node17</title>
<path fill="none" stroke="#191970" d="M359.1939,-62.8902C368.073,-63.0334 377.0354,-63.178 385.7548,-63.3186"/>
<polygon fill="#191970" stroke="#191970" points="385.8044,-66.8198 395.8596,-63.4816 385.9174,-59.8207 385.8044,-66.8198"/>
</g>
<!-- Node18 -->
<g id="node6" class="node">
<title>Node18</title>
<g id="a_node6"><a xlink:href="../../d7/d02/classcarla_1_1traffic__manager_1_1AtomicMap.html#a45e1ddd9fd3708310ebdb8e504f4c507" target="_top" xlink:title="carla::traffic_manager\l::AtomicMap::GetValue">
<polygon fill="#ffffff" stroke="#000000" points="395,-.5 395,-30.5 523,-30.5 523,-.5 395,-.5"/>
<text text-anchor="start" x="403" y="-18.5" font-family="Helvetica,sans-Serif" font-size="10.00" fill="#000000">carla::traffic_manager</text>
<text text-anchor="middle" x="459" y="-7.5" font-family="Helvetica,sans-Serif" font-size="10.00" fill="#000000">::AtomicMap::GetValue</text>
</a>
</g>
</g>
<!-- Node16&#45;&gt;Node18 -->
<g id="edge5" class="edge">
<title>Node16&#45;&gt;Node18</title>
<path fill="none" stroke="#191970" d="M355.9365,-40.9888C366.7282,-38.3199 377.7028,-35.6058 388.2699,-32.9924"/>
<polygon fill="#191970" stroke="#191970" points="389.3898,-36.321 398.257,-30.5225 387.7092,-29.5257 389.3898,-36.321"/>
</g>
</g>
</svg>
        <g id="navigator" transform="translate(0 0)" fill="#404254">
                <rect fill="#f2f5e9" fill-opacity="0.5" stroke="#606060" stroke-width=".5" x="0" y="0" width="60" height="60"/>
                <use id="zoomplus" xlink:href="#zoomPlus" x="17" y="9" onmousedown="handleZoom(evt,'in')"/>
                <use id="zoomminus" xlink:href="#zoomMin" x="42" y="9" onmousedown="handleZoom(evt,'out')"/>
                <use id="reset" xlink:href="#resetDef" x="30" y="36" onmousedown="handleReset()"/>
                <g id="arrowUp" xlink:href="#dirArrow" transform="translate(30 24)" onmousedown="handlePan(0,-1)">
                  <use xlink:href="#rim" fill="#404040">
                        <set attributeName="fill" to="#808080" begin="arrowUp.mouseover" end="arrowUp.mouseout"/>
                  </use>
                  <path fill="none" stroke="white" stroke-width="1.5" d="M0,-3.0v7 M-2.5,-0.5L0,-3.0L2.5,-0.5"/>
                </g>
                <g id="arrowRight" xlink:href="#dirArrow" transform="rotate(90) translate(36 -43)" onmousedown="handlePan(1,0)">
                  <use xlink:href="#rim" fill="#404040">
                        <set attributeName="fill" to="#808080" begin="arrowRight.mouseover" end="arrowRight.mouseout"/>
                  </use>
                  <path fill="none" stroke="white" stroke-width="1.5" d="M0,-3.0v7 M-2.5,-0.5L0,-3.0L2.5,-0.5"/>
                </g>
                <g id="arrowDown" xlink:href="#dirArrow" transform="rotate(180) translate(-30 -48)" onmousedown="handlePan(0,1)">
                  <use xlink:href="#rim" fill="#404040">
                        <set attributeName="fill" to="#808080" begin="arrowDown.mouseover" end="arrowDown.mouseout"/>
                  </use>
                  <path fill="none" stroke="white" stroke-width="1.5" d="M0,-3.0v7 M-2.5,-0.5L0,-3.0L2.5,-0.5"/>
                </g>
                <g id="arrowLeft" xlink:href="#dirArrow" transform="rotate(270) translate(-36 17)" onmousedown="handlePan(-1,0)">
                  <use xlink:href="#rim" fill="#404040">
                        <set attributeName="fill" to="#808080" begin="arrowLeft.mouseover" end="arrowLeft.mouseout"/>
                  </use>
                  <path fill="none" stroke="white" stroke-width="1.5" d="M0,-3.0v7 M-2.5,-0.5L0,-3.0L2.5,-0.5"/>
                </g>
        </g>
        <svg viewBox="0 0 15 15" width="100%" height="30px" preserveAspectRatio="xMaxYMin meet">
         <g id="arrow_out" transform="scale(0.3 0.3)">
          <a xlink:href="classcarla_1_1traffic__manager_1_1VehicleLightStage_acd3322c1515bebbc505b44490d4ffb05_cgraph_org.svg" target="_base">
           <rect id="button" ry="5" rx="5" y="6" x="6" height="38" width="38"
                fill="#f2f5e9" fill-opacity="0.5" stroke="#606060" stroke-width="1.0"/>
           <path id="arrow"
             d="M 11.500037,31.436501 C 11.940474,20.09759 22.043105,11.32322 32.158766,21.979434 L 37.068811,17.246167 C 37.068811,17.246167 37.088388,32 37.088388,32 L 22.160133,31.978069 C 22.160133,31.978069 26.997745,27.140456 26.997745,27.140456 C 18.528582,18.264221 13.291696,25.230495 11.500037,31.436501 z"
             style="fill:#404040;"/>
          </a>
         </g>
        </svg>
</svg>
