<?xml version="1.0" encoding="UTF-8" standalone="no"?>
<!DOCTYPE svg PUBLIC "-//W3C//DTD SVG 1.1//EN"
 "http://www.w3.org/Graphics/SVG/1.1/DTD/svg11.dtd">
<!-- Generated by graphviz version 2.40.1 (20161225.0304)
 -->
<!-- Title: carla::client::TrafficSign::GetSignId Pages: 1 -->
<!--zoomable 235 -->
<svg id="main" version="1.1" xmlns="http://www.w3.org/2000/svg" xmlns:xlink="http://www.w3.org/1999/xlink" xml:space="preserve" onload="init(evt)">
<style type="text/css"><![CDATA[
.edge:hover path { stroke: red; }
.edge:hover polygon { stroke: red; fill: red; }
]]></style>
<script type="text/javascript"><![CDATA[
var edges = document.getElementsByTagName('g');
if (edges && edges.length) {
  for (var i=0;i<edges.length;i++) {
    if (edges[i].id.substr(0,4)=='edge') {
      edges[i].setAttribute('class','edge');
    }
  }
}
]]></script>
        <defs>
                <circle id="rim" cx="0" cy="0" r="7"/>
                <circle id="rim2" cx="0" cy="0" r="3.5"/>
                <g id="zoomPlus">
                        <use xlink:href="#rim" fill="#404040">
                                <set attributeName="fill" to="#808080" begin="zoomplus.mouseover" end="zoomplus.mouseout"/>
                        </use>
                        <path d="M-4,0h8M0,-4v8" fill="none" stroke="white" stroke-width="1.5" pointer-events="none"/>
                </g>
                <g id="zoomMin">
                        <use xlink:href="#rim" fill="#404040">
                                <set attributeName="fill" to="#808080" begin="zoomminus.mouseover" end="zoomminus.mouseout"/>
                        </use>
                        <path d="M-4,0h8" fill="none" stroke="white" stroke-width="1.5" pointer-events="none"/>
                </g>
                <g id="dirArrow">
                        <path fill="none" stroke="white" stroke-width="1.5" d="M0,-3.0v7 M-2.5,-0.5L0,-3.0L2.5,-0.5"/>
                </g>
               <g id="resetDef">
                       <use xlink:href="#rim2" fill="#404040">
                               <set attributeName="fill" to="#808080" begin="reset.mouseover" end="reset.mouseout"/>
                       </use>
               </g>
        </defs>

<script type="text/javascript">
var viewWidth = 744;
var viewHeight = 235;
var sectionId = 'dynsection-3';
</script>
<script xlink:href="../../svgpan.js"/>
<svg id="graph" class="graph">
<g id="viewport">
<title>carla::client::TrafficSign::GetSignId</title>
<polygon fill="#ffffff" stroke="transparent" points="-4,4 -4,-231 740,-231 740,4 -4,4"/>
<!-- Node4 -->
<g id="node1" class="node">
<title>Node4</title>
<polygon fill="#bfbfbf" stroke="#000000" points="0,-73.5 0,-103.5 130,-103.5 130,-73.5 0,-73.5"/>
<text text-anchor="start" x="8" y="-91.5" font-family="Helvetica,sans-Serif" font-size="10.00" fill="#000000">carla::client::TrafficSign</text>
<text text-anchor="middle" x="65" y="-80.5" font-family="Helvetica,sans-Serif" font-size="10.00" fill="#000000">::GetSignId</text>
</g>
<!-- Node5 -->
<g id="node2" class="node">
<title>Node5</title>
<g id="a_node2"><a xlink:href="../../db/d1f/classcarla_1_1client_1_1World.html#a4772c8468347fcee02678a9a6a8396d1" target="_top" xlink:title="carla::client::World\l::GetTrafficLight">
<polygon fill="#ffffff" stroke="#000000" points="199,-147.5 199,-177.5 306,-177.5 306,-147.5 199,-147.5"/>
<text text-anchor="start" x="207" y="-165.5" font-family="Helvetica,sans-Serif" font-size="10.00" fill="#000000">carla::client::World</text>
<text text-anchor="middle" x="252.5" y="-154.5" font-family="Helvetica,sans-Serif" font-size="10.00" fill="#000000">::GetTrafficLight</text>
</a>
</g>
</g>
<!-- Node4&#45;&gt;Node5 -->
<g id="edge1" class="edge">
<title>Node4&#45;&gt;Node5</title>
<path fill="none" stroke="#191970" d="M100.7069,-108.2424C119.7079,-118.2147 143.698,-129.9737 166,-138.5 176.4811,-142.507 187.9089,-146.1586 198.9218,-149.3376"/>
<polygon fill="#191970" stroke="#191970" points="102.2819,-105.1159 91.8091,-103.5124 98.9961,-111.2968 102.2819,-105.1159"/>
</g>
<!-- Node10 -->
<g id="node7" class="node">
<title>Node10</title>
<g id="a_node7"><a xlink:href="../../db/d1f/classcarla_1_1client_1_1World.html#ae95977f3a764f0d7e669e84630565447" target="_top" xlink:title="carla::client::World\l::GetTrafficLightFromOpenDRIVE">
<polygon fill="#ffffff" stroke="#000000" points="166,-49.5 166,-79.5 339,-79.5 339,-49.5 166,-49.5"/>
<text text-anchor="start" x="174" y="-67.5" font-family="Helvetica,sans-Serif" font-size="10.00" fill="#000000">carla::client::World</text>
<text text-anchor="middle" x="252.5" y="-56.5" font-family="Helvetica,sans-Serif" font-size="10.00" fill="#000000">::GetTrafficLightFromOpenDRIVE</text>
</a>
</g>
</g>
<!-- Node4&#45;&gt;Node10 -->
<g id="edge6" class="edge">
<title>Node4&#45;&gt;Node10</title>
<path fill="none" stroke="#191970" d="M140.1914,-78.8755C148.6039,-77.7987 157.2241,-76.6953 165.7662,-75.6019"/>
<polygon fill="#191970" stroke="#191970" points="139.5269,-75.4319 130.0522,-80.1733 140.4157,-82.3753 139.5269,-75.4319"/>
</g>
<!-- Node12 -->
<g id="node9" class="node">
<title>Node12</title>
<g id="a_node9"><a xlink:href="../../db/d1f/classcarla_1_1client_1_1World.html#ad6366a7909dc11fc8ebb883a3434a551" target="_top" xlink:title="carla::client::World\l::GetTrafficSign">
<polygon fill="#ffffff" stroke="#000000" points="199,-98.5 199,-128.5 306,-128.5 306,-98.5 199,-98.5"/>
<text text-anchor="start" x="207" y="-116.5" font-family="Helvetica,sans-Serif" font-size="10.00" fill="#000000">carla::client::World</text>
<text text-anchor="middle" x="252.5" y="-105.5" font-family="Helvetica,sans-Serif" font-size="10.00" fill="#000000">::GetTrafficSign</text>
</a>
</g>
</g>
<!-- Node4&#45;&gt;Node12 -->
<g id="edge10" class="edge">
<title>Node4&#45;&gt;Node12</title>
<path fill="none" stroke="#191970" d="M140.1787,-98.5238C159.7766,-101.1369 180.5024,-103.9003 198.7426,-106.3323"/>
<polygon fill="#191970" stroke="#191970" points="140.4271,-95.026 130.0522,-97.1736 139.5019,-101.9646 140.4271,-95.026"/>
</g>
<!-- Node13 -->
<g id="node10" class="node">
<title>Node13</title>
<g id="a_node10"><a xlink:href="../../dc/d5c/classcarla_1_1client_1_1TrafficSign.html#a9a793381304c4ca089c1948fe39b5b0b" target="_top" xlink:title="carla::client::TrafficSign\l::GetTriggerVolume">
<polygon fill="#ffffff" stroke="#000000" points="187.5,-.5 187.5,-30.5 317.5,-30.5 317.5,-.5 187.5,-.5"/>
<text text-anchor="start" x="195.5" y="-18.5" font-family="Helvetica,sans-Serif" font-size="10.00" fill="#000000">carla::client::TrafficSign</text>
<text text-anchor="middle" x="252.5" y="-7.5" font-family="Helvetica,sans-Serif" font-size="10.00" fill="#000000">::GetTriggerVolume</text>
</a>
</g>
</g>
<!-- Node4&#45;&gt;Node13 -->
<g id="edge12" class="edge">
<title>Node4&#45;&gt;Node13</title>
<path fill="none" stroke="#191970" d="M102.7067,-68.7882C121.4263,-59.4667 144.5701,-48.6275 166,-40.5 175.3543,-36.9523 185.4377,-33.6159 195.301,-30.607"/>
<polygon fill="#191970" stroke="#191970" points="100.9831,-65.7374 93.6271,-73.3624 104.1326,-71.9889 100.9831,-65.7374"/>
</g>
<!-- Node6 -->
<g id="node3" class="node">
<title>Node6</title>
<g id="a_node3"><a xlink:href="../../dd/df9/classcarla_1_1traffic__manager_1_1MotionPlanStage.html#ad4e3360d597c8dfc048065460264ebe0" target="_top" xlink:title="carla::traffic_manager\l::MotionPlanStage::MotionPlanStage">
<polygon fill="#ffffff" stroke="#000000" points="375,-196.5 375,-226.5 567,-226.5 567,-196.5 375,-196.5"/>
<text text-anchor="start" x="383" y="-214.5" font-family="Helvetica,sans-Serif" font-size="10.00" fill="#000000">carla::traffic_manager</text>
<text text-anchor="middle" x="471" y="-203.5" font-family="Helvetica,sans-Serif" font-size="10.00" fill="#000000">::MotionPlanStage::MotionPlanStage</text>
</a>
</g>
</g>
<!-- Node5&#45;&gt;Node6 -->
<g id="edge2" class="edge">
<title>Node5&#45;&gt;Node6</title>
<path fill="none" stroke="#191970" d="M316.1377,-176.7712C343.6506,-182.9411 375.8674,-190.1659 403.7699,-196.4232"/>
<polygon fill="#191970" stroke="#191970" points="316.7545,-173.3226 306.231,-174.5495 315.2227,-180.153 316.7545,-173.3226"/>
</g>
<!-- Node7 -->
<g id="node4" class="node">
<title>Node7</title>
<g id="a_node4"><a xlink:href="../../db/d1f/classcarla_1_1client_1_1World.html#a965fcaf99f563c9634c40f3b8e2910b5" target="_top" xlink:title="carla::client::World\l::GetTrafficLightsFromWaypoint">
<polygon fill="#ffffff" stroke="#000000" points="387,-147.5 387,-177.5 555,-177.5 555,-147.5 387,-147.5"/>
<text text-anchor="start" x="395" y="-165.5" font-family="Helvetica,sans-Serif" font-size="10.00" fill="#000000">carla::client::World</text>
<text text-anchor="middle" x="471" y="-154.5" font-family="Helvetica,sans-Serif" font-size="10.00" fill="#000000">::GetTrafficLightsFromWaypoint</text>
</a>
</g>
</g>
<!-- Node5&#45;&gt;Node7 -->
<g id="edge3" class="edge">
<title>Node5&#45;&gt;Node7</title>
<path fill="none" stroke="#191970" d="M316.4425,-162.5C338.4455,-162.5 363.4285,-162.5 386.7957,-162.5"/>
<polygon fill="#191970" stroke="#191970" points="316.231,-159.0001 306.231,-162.5 316.2309,-166.0001 316.231,-159.0001"/>
</g>
<!-- Node9 -->
<g id="node6" class="node">
<title>Node9</title>
<g id="a_node6"><a xlink:href="../../db/d1f/classcarla_1_1client_1_1World.html#a435074f61ff57c04c55aba5e0363bd19" target="_top" xlink:title="Get the id of the episode associated with this world. ">
<polygon fill="#ffffff" stroke="#000000" points="417.5,-98.5 417.5,-128.5 524.5,-128.5 524.5,-98.5 417.5,-98.5"/>
<text text-anchor="start" x="425.5" y="-116.5" font-family="Helvetica,sans-Serif" font-size="10.00" fill="#000000">carla::client::World</text>
<text text-anchor="middle" x="471" y="-105.5" font-family="Helvetica,sans-Serif" font-size="10.00" fill="#000000">::GetId</text>
</a>
</g>
</g>
<!-- Node5&#45;&gt;Node9 -->
<g id="edge5" class="edge">
<title>Node5&#45;&gt;Node9</title>
<path fill="none" stroke="#191970" d="M315.9948,-148.2609C348.1766,-141.0439 386.8234,-132.3771 417.4768,-125.5029"/>
<polygon fill="#191970" stroke="#191970" points="315.2227,-144.847 306.231,-150.4505 316.7545,-151.6774 315.2227,-144.847"/>
</g>
<!-- Node8 -->
<g id="node5" class="node">
<title>Node8</title>
<g id="a_node5"><a xlink:href="../../db/d1f/classcarla_1_1client_1_1World.html#a7f8ac088ee306da68a4d535ed272455d" target="_top" xlink:title="carla::client::World\l::GetEpisode">
<polygon fill="#ffffff" stroke="#000000" points="616,-98.5 616,-128.5 723,-128.5 723,-98.5 616,-98.5"/>
<text text-anchor="start" x="624" y="-116.5" font-family="Helvetica,sans-Serif" font-size="10.00" fill="#000000">carla::client::World</text>
<text text-anchor="middle" x="669.5" y="-105.5" font-family="Helvetica,sans-Serif" font-size="10.00" fill="#000000">::GetEpisode</text>
</a>
</g>
</g>
<!-- Node7&#45;&gt;Node8 -->
<g id="edge4" class="edge">
<title>Node7&#45;&gt;Node8</title>
<path fill="none" stroke="#191970" d="M541.8113,-145.0201C566.1621,-139.0091 593.0074,-132.3823 615.7733,-126.7625"/>
<polygon fill="#191970" stroke="#191970" points="540.7753,-141.6707 531.9055,-147.4654 542.4529,-148.4667 540.7753,-141.6707"/>
</g>
<!-- Node10&#45;&gt;Node9 -->
<g id="edge9" class="edge">
<title>Node10&#45;&gt;Node9</title>
<path fill="none" stroke="#191970" d="M329.6331,-81.7976C358.5943,-88.2923 390.8604,-95.5282 417.2461,-101.4453"/>
<polygon fill="#191970" stroke="#191970" points="330.0657,-78.3077 319.5421,-79.5346 328.5339,-85.1381 330.0657,-78.3077"/>
</g>
<!-- Node11 -->
<g id="node8" class="node">
<title>Node11</title>
<g id="a_node8"><a xlink:href="../../db/d1f/classcarla_1_1client_1_1World.html#a82a6e3a2fe7a3d8ccd5de3aa95049788" target="_top" xlink:title="carla::client::World\l::GetTrafficLightsInJunction">
<polygon fill="#ffffff" stroke="#000000" points="398,-49.5 398,-79.5 544,-79.5 544,-49.5 398,-49.5"/>
<text text-anchor="start" x="406" y="-67.5" font-family="Helvetica,sans-Serif" font-size="10.00" fill="#000000">carla::client::World</text>
<text text-anchor="middle" x="471" y="-56.5" font-family="Helvetica,sans-Serif" font-size="10.00" fill="#000000">::GetTrafficLightsInJunction</text>
</a>
</g>
</g>
<!-- Node10&#45;&gt;Node11 -->
<g id="edge7" class="edge">
<title>Node10&#45;&gt;Node11</title>
<path fill="none" stroke="#191970" d="M349.2598,-64.5C365.5627,-64.5 382.2415,-64.5 397.8184,-64.5"/>
<polygon fill="#191970" stroke="#191970" points="349.1708,-61.0001 339.1708,-64.5 349.1708,-68.0001 349.1708,-61.0001"/>
</g>
<!-- Node11&#45;&gt;Node8 -->
<g id="edge8" class="edge">
<title>Node11&#45;&gt;Node8</title>
<path fill="none" stroke="#191970" d="M541.8113,-81.9799C566.1621,-87.9909 593.0074,-94.6177 615.7733,-100.2375"/>
<polygon fill="#191970" stroke="#191970" points="542.4529,-78.5333 531.9055,-79.5346 540.7753,-85.3293 542.4529,-78.5333"/>
</g>
<!-- Node12&#45;&gt;Node9 -->
<g id="edge11" class="edge">
<title>Node12&#45;&gt;Node9</title>
<path fill="none" stroke="#191970" d="M316.4113,-113.5C348.5096,-113.5 386.9555,-113.5 417.4768,-113.5"/>
<polygon fill="#191970" stroke="#191970" points="316.231,-110.0001 306.231,-113.5 316.2309,-117.0001 316.231,-110.0001"/>
</g>
<!-- Node14 -->
<g id="node11" class="node">
<title>Node14</title>
<g id="a_node11"><a xlink:href="../../df/def/classcarla_1_1client_1_1TrafficLight.html#ae658ff882df9b877a9730c879c028ba9" target="_top" xlink:title="carla::client::TrafficLight\l::GetStopWaypoints">
<polygon fill="#ffffff" stroke="#000000" points="404.5,-.5 404.5,-30.5 537.5,-30.5 537.5,-.5 404.5,-.5"/>
<text text-anchor="start" x="412.5" y="-18.5" font-family="Helvetica,sans-Serif" font-size="10.00" fill="#000000">carla::client::TrafficLight</text>
<text text-anchor="middle" x="471" y="-7.5" font-family="Helvetica,sans-Serif" font-size="10.00" fill="#000000">::GetStopWaypoints</text>
</a>
</g>
</g>
<!-- Node13&#45;&gt;Node14 -->
<g id="edge13" class="edge">
<title>Node13&#45;&gt;Node14</title>
<path fill="none" stroke="#191970" d="M327.8525,-15.5C352.6605,-15.5 380.0569,-15.5 404.1841,-15.5"/>
<polygon fill="#191970" stroke="#191970" points="327.7613,-12.0001 317.7612,-15.5 327.7612,-19.0001 327.7613,-12.0001"/>
</g>
<!-- Node15 -->
<g id="node12" class="node">
<title>Node15</title>
<g id="a_node12"><a xlink:href="../../df/def/classcarla_1_1client_1_1TrafficLight.html#ade7612b955116660825d753363dd5842" target="_top" xlink:title="carla::client::TrafficLight\l::TrafficLight">
<polygon fill="#ffffff" stroke="#000000" points="603,-.5 603,-30.5 736,-30.5 736,-.5 603,-.5"/>
<text text-anchor="start" x="611" y="-18.5" font-family="Helvetica,sans-Serif" font-size="10.00" fill="#000000">carla::client::TrafficLight</text>
<text text-anchor="middle" x="669.5" y="-7.5" font-family="Helvetica,sans-Serif" font-size="10.00" fill="#000000">::TrafficLight</text>
</a>
</g>
</g>
<!-- Node14&#45;&gt;Node15 -->
<g id="edge14" class="edge">
<title>Node14&#45;&gt;Node15</title>
<path fill="none" stroke="#191970" d="M547.8651,-15.5C565.9518,-15.5 585.0848,-15.5 602.6882,-15.5"/>
<polygon fill="#191970" stroke="#191970" points="547.6499,-12.0001 537.6498,-15.5 547.6498,-19.0001 547.6499,-12.0001"/>
</g>
</g>
</svg>
        <g id="navigator" transform="translate(0 0)" fill="#404254">
                <rect fill="#f2f5e9" fill-opacity="0.5" stroke="#606060" stroke-width=".5" x="0" y="0" width="60" height="60"/>
                <use id="zoomplus" xlink:href="#zoomPlus" x="17" y="9" onmousedown="handleZoom(evt,'in')"/>
                <use id="zoomminus" xlink:href="#zoomMin" x="42" y="9" onmousedown="handleZoom(evt,'out')"/>
                <use id="reset" xlink:href="#resetDef" x="30" y="36" onmousedown="handleReset()"/>
                <g id="arrowUp" xlink:href="#dirArrow" transform="translate(30 24)" onmousedown="handlePan(0,-1)">
                  <use xlink:href="#rim" fill="#404040">
                        <set attributeName="fill" to="#808080" begin="arrowUp.mouseover" end="arrowUp.mouseout"/>
                  </use>
                  <path fill="none" stroke="white" stroke-width="1.5" d="M0,-3.0v7 M-2.5,-0.5L0,-3.0L2.5,-0.5"/>
                </g>
                <g id="arrowRight" xlink:href="#dirArrow" transform="rotate(90) translate(36 -43)" onmousedown="handlePan(1,0)">
                  <use xlink:href="#rim" fill="#404040">
                        <set attributeName="fill" to="#808080" begin="arrowRight.mouseover" end="arrowRight.mouseout"/>
                  </use>
                  <path fill="none" stroke="white" stroke-width="1.5" d="M0,-3.0v7 M-2.5,-0.5L0,-3.0L2.5,-0.5"/>
                </g>
                <g id="arrowDown" xlink:href="#dirArrow" transform="rotate(180) translate(-30 -48)" onmousedown="handlePan(0,1)">
                  <use xlink:href="#rim" fill="#404040">
                        <set attributeName="fill" to="#808080" begin="arrowDown.mouseover" end="arrowDown.mouseout"/>
                  </use>
                  <path fill="none" stroke="white" stroke-width="1.5" d="M0,-3.0v7 M-2.5,-0.5L0,-3.0L2.5,-0.5"/>
                </g>
                <g id="arrowLeft" xlink:href="#dirArrow" transform="rotate(270) translate(-36 17)" onmousedown="handlePan(-1,0)">
                  <use xlink:href="#rim" fill="#404040">
                        <set attributeName="fill" to="#808080" begin="arrowLeft.mouseover" end="arrowLeft.mouseout"/>
                  </use>
                  <path fill="none" stroke="white" stroke-width="1.5" d="M0,-3.0v7 M-2.5,-0.5L0,-3.0L2.5,-0.5"/>
                </g>
        </g>
        <svg viewBox="0 0 15 15" width="100%" height="30px" preserveAspectRatio="xMaxYMin meet">
         <g id="arrow_out" transform="scale(0.3 0.3)">
          <a xlink:href="classcarla_1_1client_1_1TrafficSign_a4da25f7dd11cdf6c92401145cb50ffba_icgraph_org.svg" target="_base">
           <rect id="button" ry="5" rx="5" y="6" x="6" height="38" width="38"
                fill="#f2f5e9" fill-opacity="0.5" stroke="#606060" stroke-width="1.0"/>
           <path id="arrow"
             d="M 11.500037,31.436501 C 11.940474,20.09759 22.043105,11.32322 32.158766,21.979434 L 37.068811,17.246167 C 37.068811,17.246167 37.088388,32 37.088388,32 L 22.160133,31.978069 C 22.160133,31.978069 26.997745,27.140456 26.997745,27.140456 C 18.528582,18.264221 13.291696,25.230495 11.500037,31.436501 z"
             style="fill:#404040;"/>
          </a>
         </g>
        </svg>
</svg>
