<?xml version="1.0" encoding="UTF-8" standalone="no"?>
<!DOCTYPE svg PUBLIC "-//W3C//DTD SVG 1.1//EN"
 "http://www.w3.org/Graphics/SVG/1.1/DTD/svg11.dtd">
<!-- Generated by graphviz version 2.40.1 (20161225.0304)
 -->
<!-- Title: ATrafficLightManager::GenerateSignalsAndTrafficLights Pages: 1 -->
<svg width="318pt" height="50pt"
 viewBox="0.00 0.00 318.00 50.00" xmlns="http://www.w3.org/2000/svg" xmlns:xlink="http://www.w3.org/1999/xlink">
<g id="graph0" class="graph" transform="scale(1 1) rotate(0) translate(4 46)">
<title>ATrafficLightManager::GenerateSignalsAndTrafficLights</title>
<polygon fill="#ffffff" stroke="transparent" points="-4,4 -4,-46 314,-46 314,4 -4,4"/>
<!-- Node32 -->
<g id="node1" class="node">
<title>Node32</title>
<polygon fill="#bfbfbf" stroke="#000000" points="0,-.5 0,-41.5 151,-41.5 151,-.5 0,-.5"/>
<text text-anchor="start" x="8" y="-29.5" font-family="Helvetica,sans-Serif" font-size="10.00" fill="#000000">ATrafficLightManager</text>
<text text-anchor="start" x="8" y="-18.5" font-family="Helvetica,sans-Serif" font-size="10.00" fill="#000000">::GenerateSignalsAndTraffic</text>
<text text-anchor="middle" x="75.5" y="-7.5" font-family="Helvetica,sans-Serif" font-size="10.00" fill="#000000">Lights</text>
</g>
<!-- Node33 -->
<g id="node2" class="node">
<title>Node33</title>
<g id="a_node2"><a xlink:href="../../df/da5/classATrafficLightManager.html#a597d552d266a41c4f45c1740d1ce7c40" target="_top" xlink:title="ATrafficLightManager\l::InitializeTrafficLights">
<polygon fill="#ffffff" stroke="#000000" points="187,-6 187,-36 310,-36 310,-6 187,-6"/>
<text text-anchor="start" x="195" y="-24" font-family="Helvetica,sans-Serif" font-size="10.00" fill="#000000">ATrafficLightManager</text>
<text text-anchor="middle" x="248.5" y="-13" font-family="Helvetica,sans-Serif" font-size="10.00" fill="#000000">::InitializeTrafficLights</text>
</a>
</g>
</g>
<!-- Node32&#45;&gt;Node33 -->
<g id="edge1" class="edge">
<title>Node32&#45;&gt;Node33</title>
<path fill="none" stroke="#191970" d="M161.2241,-21C169.8454,-21 178.4769,-21 186.7762,-21"/>
<polygon fill="#191970" stroke="#191970" points="161.1287,-17.5001 151.1286,-21 161.1286,-24.5001 161.1287,-17.5001"/>
</g>
</g>
</svg>
