<?xml version="1.0" encoding="UTF-8" standalone="no"?>
<!DOCTYPE svg PUBLIC "-//W3C//DTD SVG 1.1//EN"
 "http://www.w3.org/Graphics/SVG/1.1/DTD/svg11.dtd">
<!-- Generated by graphviz version 2.40.1 (20161225.0304)
 -->
<!-- Title: carla::traffic_manager::SimpleWaypoint::Distance Pages: 1 -->
<svg width="800pt" height="88pt"
 viewBox="0.00 0.00 800.00 88.00" xmlns="http://www.w3.org/2000/svg" xmlns:xlink="http://www.w3.org/1999/xlink">
<g id="graph0" class="graph" transform="scale(1 1) rotate(0) translate(4 84)">
<title>carla::traffic_manager::SimpleWaypoint::Distance</title>
<polygon fill="#ffffff" stroke="transparent" points="-4,4 -4,-84 796,-84 796,4 -4,4"/>
<!-- Node8 -->
<g id="node1" class="node">
<title>Node8</title>
<polygon fill="#bfbfbf" stroke="#000000" points="0,-24.5 0,-54.5 151,-54.5 151,-24.5 0,-24.5"/>
<text text-anchor="start" x="8" y="-42.5" font-family="Helvetica,sans-Serif" font-size="10.00" fill="#000000">carla::traffic_manager</text>
<text text-anchor="middle" x="75.5" y="-31.5" font-family="Helvetica,sans-Serif" font-size="10.00" fill="#000000">::SimpleWaypoint::Distance</text>
</g>
<!-- Node9 -->
<g id="node2" class="node">
<title>Node9</title>
<g id="a_node2"><a xlink:href="../../de/d23/classcarla_1_1geom_1_1Location.html#a9b52bea810e3f0551d87126fc6840045" target="_top" xlink:title="carla::geom::Location\l::Distance">
<polygon fill="#ffffff" stroke="#000000" points="209.5,-49.5 209.5,-79.5 331.5,-79.5 331.5,-49.5 209.5,-49.5"/>
<text text-anchor="start" x="217.5" y="-67.5" font-family="Helvetica,sans-Serif" font-size="10.00" fill="#000000">carla::geom::Location</text>
<text text-anchor="middle" x="270.5" y="-56.5" font-family="Helvetica,sans-Serif" font-size="10.00" fill="#000000">::Distance</text>
</a>
</g>
</g>
<!-- Node8&#45;&gt;Node9 -->
<g id="edge1" class="edge">
<title>Node8&#45;&gt;Node9</title>
<path fill="none" stroke="#191970" d="M151.1712,-49.2014C166.9788,-51.2281 183.5934,-53.3581 199.2348,-55.3634"/>
<polygon fill="#191970" stroke="#191970" points="198.9907,-58.8607 209.3546,-56.6608 199.8809,-51.9175 198.9907,-58.8607"/>
</g>
<!-- Node13 -->
<g id="node6" class="node">
<title>Node13</title>
<g id="a_node6"><a xlink:href="../../dc/d04/classcarla_1_1traffic__manager_1_1SimpleWaypoint.html#ad250e1a36284a8637d0b278d66967a51" target="_top" xlink:title="Returns the location object for this waypoint. ">
<polygon fill="#ffffff" stroke="#000000" points="187,-.5 187,-30.5 354,-30.5 354,-.5 187,-.5"/>
<text text-anchor="start" x="195" y="-18.5" font-family="Helvetica,sans-Serif" font-size="10.00" fill="#000000">carla::traffic_manager</text>
<text text-anchor="middle" x="270.5" y="-7.5" font-family="Helvetica,sans-Serif" font-size="10.00" fill="#000000">::SimpleWaypoint::GetLocation</text>
</a>
</g>
</g>
<!-- Node8&#45;&gt;Node13 -->
<g id="edge5" class="edge">
<title>Node8&#45;&gt;Node13</title>
<path fill="none" stroke="#191970" d="M151.1712,-30.1866C159.5584,-29.1543 168.1728,-28.0941 176.7485,-27.0386"/>
<polygon fill="#191970" stroke="#191970" points="177.2844,-30.4992 186.7819,-25.8038 176.4292,-23.5516 177.2844,-30.4992"/>
</g>
<!-- Node10 -->
<g id="node3" class="node">
<title>Node10</title>
<g id="a_node3"><a xlink:href="../../d0/dea/classcarla_1_1geom_1_1Math.html#adc0c40d67bed1ab82405838c7981aff1" target="_top" xlink:title="carla::geom::Math::\lDistance">
<polygon fill="#ffffff" stroke="#000000" points="390,-49.5 390,-79.5 500,-79.5 500,-49.5 390,-49.5"/>
<text text-anchor="start" x="398" y="-67.5" font-family="Helvetica,sans-Serif" font-size="10.00" fill="#000000">carla::geom::Math::</text>
<text text-anchor="middle" x="445" y="-56.5" font-family="Helvetica,sans-Serif" font-size="10.00" fill="#000000">Distance</text>
</a>
</g>
</g>
<!-- Node9&#45;&gt;Node10 -->
<g id="edge2" class="edge">
<title>Node9&#45;&gt;Node10</title>
<path fill="none" stroke="#191970" d="M331.5316,-64.5C347.0918,-64.5 363.8784,-64.5 379.6452,-64.5"/>
<polygon fill="#191970" stroke="#191970" points="379.8358,-68.0001 389.8358,-64.5 379.8357,-61.0001 379.8358,-68.0001"/>
</g>
<!-- Node11 -->
<g id="node4" class="node">
<title>Node11</title>
<g id="a_node4"><a xlink:href="../../d0/dea/classcarla_1_1geom_1_1Math.html#a8bd4b72e239a23e9eb0bca4604dfa63e" target="_top" xlink:title="carla::geom::Math::\lDistanceSquared">
<polygon fill="#ffffff" stroke="#000000" points="536,-49.5 536,-79.5 646,-79.5 646,-49.5 536,-49.5"/>
<text text-anchor="start" x="544" y="-67.5" font-family="Helvetica,sans-Serif" font-size="10.00" fill="#000000">carla::geom::Math::</text>
<text text-anchor="middle" x="591" y="-56.5" font-family="Helvetica,sans-Serif" font-size="10.00" fill="#000000">DistanceSquared</text>
</a>
</g>
</g>
<!-- Node10&#45;&gt;Node11 -->
<g id="edge3" class="edge">
<title>Node10&#45;&gt;Node11</title>
<path fill="none" stroke="#191970" d="M500.1963,-64.5C508.4633,-64.5 517.0546,-64.5 525.5101,-64.5"/>
<polygon fill="#191970" stroke="#191970" points="525.7256,-68.0001 535.7256,-64.5 525.7256,-61.0001 525.7256,-68.0001"/>
</g>
<!-- Node12 -->
<g id="node5" class="node">
<title>Node12</title>
<g id="a_node5"><a xlink:href="../../d0/dea/classcarla_1_1geom_1_1Math.html#ac1644f7af375c05619c27851731cea87" target="_top" xlink:title="carla::geom::Math::\lSquare">
<polygon fill="#ffffff" stroke="#000000" points="682,-49.5 682,-79.5 792,-79.5 792,-49.5 682,-49.5"/>
<text text-anchor="start" x="690" y="-67.5" font-family="Helvetica,sans-Serif" font-size="10.00" fill="#000000">carla::geom::Math::</text>
<text text-anchor="middle" x="737" y="-56.5" font-family="Helvetica,sans-Serif" font-size="10.00" fill="#000000">Square</text>
</a>
</g>
</g>
<!-- Node11&#45;&gt;Node12 -->
<g id="edge4" class="edge">
<title>Node11&#45;&gt;Node12</title>
<path fill="none" stroke="#191970" d="M646.1963,-64.5C654.4633,-64.5 663.0546,-64.5 671.5101,-64.5"/>
<polygon fill="#191970" stroke="#191970" points="671.7256,-68.0001 681.7256,-64.5 671.7256,-61.0001 671.7256,-68.0001"/>
</g>
</g>
</svg>
