<?xml version="1.0" encoding="UTF-8" standalone="no"?>
<!DOCTYPE svg PUBLIC "-//W3C//DTD SVG 1.1//EN"
 "http://www.w3.org/Graphics/SVG/1.1/DTD/svg11.dtd">
<!-- Generated by graphviz version 2.40.1 (20161225.0304)
 -->
<!-- Title: pugi::xml_node::previous_sibling Pages: 1 -->
<svg width="317pt" height="88pt"
 viewBox="0.00 0.00 317.00 88.00" xmlns="http://www.w3.org/2000/svg" xmlns:xlink="http://www.w3.org/1999/xlink">
<g id="graph0" class="graph" transform="scale(1 1) rotate(0) translate(4 84)">
<title>pugi::xml_node::previous_sibling</title>
<polygon fill="#ffffff" stroke="transparent" points="-4,4 -4,-84 313,-84 313,4 -4,4"/>
<!-- Node927 -->
<g id="node1" class="node">
<title>Node927</title>
<polygon fill="#bfbfbf" stroke="#000000" points="0,-24.5 0,-54.5 140,-54.5 140,-24.5 0,-24.5"/>
<text text-anchor="start" x="8" y="-42.5" font-family="Helvetica,sans-Serif" font-size="10.00" fill="#000000">pugi::xml_node::previous</text>
<text text-anchor="middle" x="70" y="-31.5" font-family="Helvetica,sans-Serif" font-size="10.00" fill="#000000">_sibling</text>
</g>
<!-- Node928 -->
<g id="node2" class="node">
<title>Node928</title>
<g id="a_node2"><a xlink:href="../../da/d9a/classpugi_1_1xml__node__iterator.html#a83ff5311f3d71c127e89a5cf6bf9d361" target="_top" xlink:title="pugi::xml_node_iterator\l::operator&#45;&#45;">
<polygon fill="#ffffff" stroke="#000000" points="176,-49.5 176,-79.5 309,-79.5 309,-49.5 176,-49.5"/>
<text text-anchor="start" x="184" y="-67.5" font-family="Helvetica,sans-Serif" font-size="10.00" fill="#000000">pugi::xml_node_iterator</text>
<text text-anchor="middle" x="242.5" y="-56.5" font-family="Helvetica,sans-Serif" font-size="10.00" fill="#000000">::operator&#45;&#45;</text>
</a>
</g>
</g>
<!-- Node927&#45;&gt;Node928 -->
<g id="edge1" class="edge">
<title>Node927&#45;&gt;Node928</title>
<path fill="none" stroke="#191970" d="M150.1565,-51.1169C158.7189,-52.3578 167.3617,-53.6104 175.7453,-54.8254"/>
<polygon fill="#191970" stroke="#191970" points="150.561,-47.639 140.1624,-49.6685 149.5569,-54.5666 150.561,-47.639"/>
</g>
<!-- Node929 -->
<g id="node3" class="node">
<title>Node929</title>
<g id="a_node3"><a xlink:href="../../d3/de2/classpugi_1_1xml__named__node__iterator.html#aaee9df71be9b3a08f871cbf420d8384d" target="_top" xlink:title="pugi::xml_named_node\l_iterator::operator&#45;&#45;">
<polygon fill="#ffffff" stroke="#000000" points="177,-.5 177,-30.5 308,-30.5 308,-.5 177,-.5"/>
<text text-anchor="start" x="185" y="-18.5" font-family="Helvetica,sans-Serif" font-size="10.00" fill="#000000">pugi::xml_named_node</text>
<text text-anchor="middle" x="242.5" y="-7.5" font-family="Helvetica,sans-Serif" font-size="10.00" fill="#000000">_iterator::operator&#45;&#45;</text>
</a>
</g>
</g>
<!-- Node927&#45;&gt;Node929 -->
<g id="edge2" class="edge">
<title>Node927&#45;&gt;Node929</title>
<path fill="none" stroke="#191970" d="M150.1875,-28.3435C159.1179,-27.101 168.1355,-25.8464 176.8546,-24.6333"/>
<polygon fill="#191970" stroke="#191970" points="149.5846,-24.8936 140.1624,-29.7383 150.5493,-31.8268 149.5846,-24.8936"/>
</g>
</g>
</svg>
