<?xml version="1.0" encoding="UTF-8" standalone="no"?>
<!DOCTYPE svg PUBLIC "-//W3C//DTD SVG 1.1//EN"
 "http://www.w3.org/Graphics/SVG/1.1/DTD/svg11.dtd">
<!-- Generated by graphviz version 2.38.0 (20140413.2041)
 -->
<!-- Title: pugi::xml_node::prepend_child Pages: 1 -->
<!--zoomable 281 -->
<svg id="main" version="1.1" xmlns="http://www.w3.org/2000/svg" xmlns:xlink="http://www.w3.org/1999/xlink" xml:space="preserve" onload="init(evt)">
<style type="text/css"><![CDATA[
.edge:hover path { stroke: red; }
.edge:hover polygon { stroke: red; fill: red; }
]]></style>
<script type="text/javascript"><![CDATA[
var edges = document.getElementsByTagName('g');
if (edges && edges.length) {
  for (var i=0;i<edges.length;i++) {
    if (edges[i].id.substr(0,4)=='edge') {
      edges[i].setAttribute('class','edge');
    }
  }
}
]]></script>
        <defs>
                <circle id="rim" cx="0" cy="0" r="7"/>
                <circle id="rim2" cx="0" cy="0" r="3.5"/>
                <g id="zoomPlus">
                        <use xlink:href="#rim" fill="#404040">
                                <set attributeName="fill" to="#808080" begin="zoomplus.mouseover" end="zoomplus.mouseout"/>
                        </use>
                        <path d="M-4,0h8M0,-4v8" fill="none" stroke="white" stroke-width="1.5" pointer-events="none"/>
                </g>
                <g id="zoomMin">
                        <use xlink:href="#rim" fill="#404040">
                                <set attributeName="fill" to="#808080" begin="zoomminus.mouseover" end="zoomminus.mouseout"/>
                        </use>
                        <path d="M-4,0h8" fill="none" stroke="white" stroke-width="1.5" pointer-events="none"/>
                </g>
                <g id="dirArrow">
                        <path fill="none" stroke="white" stroke-width="1.5" d="M0,-3.0v7 M-2.5,-0.5L0,-3.0L2.5,-0.5"/>
                </g>
               <g id="resetDef">
                       <use xlink:href="#rim2" fill="#404040">
                               <set attributeName="fill" to="#808080" begin="reset.mouseover" end="reset.mouseout"/>
                       </use>
               </g>
        </defs>

<script type="text/javascript">
var viewWidth = 858;
var viewHeight = 281;
var sectionId = 'dynsection-67';
</script>
<script xlink:href="../../svgpan.js"/>
<svg id="graph" class="graph">
<g id="viewport">
<title>pugi::xml_node::prepend_child</title>
<polygon fill="white" stroke="none" points="-4,4 -4,-276.5 854,-276.5 854,4 -4,4"/>
<!-- Node1 -->
<g id="node1" class="node"><title>Node1</title>
<polygon fill="#bfbfbf" stroke="black" points="0,-79 0,-109 123,-109 123,-79 0,-79"/>
<text text-anchor="start" x="8" y="-97" font-family="Helvetica,sans-Serif" font-size="10.00">pugi::xml_node::prepend</text>
<text text-anchor="middle" x="61.5" y="-86" font-family="Helvetica,sans-Serif" font-size="10.00">_child</text>
</g>
<!-- Node2 -->
<g id="node2" class="node"><title>Node2</title>
<g id="a_node2"><a xlink:href="../../db/d65/classpugi_1_1xml__node.html#a9e0a6dddfe1fefc74bb2b7689376989c" target="_top" xlink:title="pugi::xml_node::prepend\l_child">
<polygon fill="white" stroke="black" points="159,-109 159,-139 282,-139 282,-109 159,-109"/>
<text text-anchor="start" x="167" y="-127" font-family="Helvetica,sans-Serif" font-size="10.00">pugi::xml_node::prepend</text>
<text text-anchor="middle" x="220.5" y="-116" font-family="Helvetica,sans-Serif" font-size="10.00">_child</text>
</a>
</g>
</g>
<!-- Node1&#45;&gt;Node2 -->
<g id="edge1" class="edge"><title>Node1&#45;&gt;Node2</title>
<path fill="none" stroke="midnightblue" d="M123.2,-105.599C131.635,-107.211 140.359,-108.878 148.955,-110.52"/>
<polygon fill="midnightblue" stroke="midnightblue" points="148.482,-113.993 158.961,-112.432 149.796,-107.117 148.482,-113.993"/>
</g>
<!-- Node8 -->
<g id="node8" class="node"><title>Node8</title>
<g id="a_node8"><a xlink:href="../../db/d65/classpugi_1_1xml__node.html#a9d688489fcf0960e945a12480419e434" target="_top" xlink:title="pugi::xml_node::set_name">
<polygon fill="white" stroke="black" points="318,-19.5 318,-38.5 449,-38.5 449,-19.5 318,-19.5"/>
<text text-anchor="middle" x="383.5" y="-26.5" font-family="Helvetica,sans-Serif" font-size="10.00">pugi::xml_node::set_name</text>
</a>
</g>
</g>
<!-- Node1&#45;&gt;Node8 -->
<g id="edge17" class="edge"><title>Node1&#45;&gt;Node8</title>
<path fill="none" stroke="midnightblue" d="M123.066,-81.6976C181.353,-69.8579 268.81,-52.0934 325.772,-40.5228"/>
<polygon fill="midnightblue" stroke="midnightblue" points="326.587,-43.9289 335.69,-38.5082 325.194,-37.069 326.587,-43.9289"/>
</g>
<!-- Node3 -->
<g id="node3" class="node"><title>Node3</title>
<g id="a_node3"><a xlink:href="../../db/d20/pugixml_8cpp.html#a6e4b9f37c4ab9fb598758530d69d8611" target="_top" xlink:title="allocate_node">
<polygon fill="white" stroke="black" points="345,-247.5 345,-266.5 422,-266.5 422,-247.5 345,-247.5"/>
<text text-anchor="middle" x="383.5" y="-254.5" font-family="Helvetica,sans-Serif" font-size="10.00">allocate_node</text>
</a>
</g>
</g>
<!-- Node2&#45;&gt;Node3 -->
<g id="edge2" class="edge"><title>Node2&#45;&gt;Node3</title>
<path fill="none" stroke="midnightblue" d="M230.135,-139.004C244.958,-163.423 277.588,-211.673 318,-238 323.263,-241.429 329.164,-244.256 335.202,-246.582"/>
<polygon fill="midnightblue" stroke="midnightblue" points="334.135,-249.917 344.73,-249.841 336.4,-243.293 334.135,-249.917"/>
</g>
<!-- Node5 -->
<g id="node5" class="node"><title>Node5</title>
<g id="a_node5"><a xlink:href="../../db/d20/pugixml_8cpp.html#a1f237625a55da3b758cf381931fa2a1a" target="_top" xlink:title="allow_insert_child">
<polygon fill="white" stroke="black" points="336.5,-209.5 336.5,-228.5 430.5,-228.5 430.5,-209.5 336.5,-209.5"/>
<text text-anchor="middle" x="383.5" y="-216.5" font-family="Helvetica,sans-Serif" font-size="10.00">allow_insert_child</text>
</a>
</g>
</g>
<!-- Node2&#45;&gt;Node5 -->
<g id="edge4" class="edge"><title>Node2&#45;&gt;Node5</title>
<path fill="none" stroke="midnightblue" d="M236.908,-139.244C254.933,-156.294 286.358,-183.656 318,-200 322.311,-202.227 326.922,-204.231 331.622,-206.027"/>
<polygon fill="midnightblue" stroke="midnightblue" points="330.733,-209.424 341.328,-209.424 333.046,-202.817 330.733,-209.424"/>
</g>
<!-- Node6 -->
<g id="node6" class="node"><title>Node6</title>
<g id="a_node6"><a xlink:href="../../db/d20/pugixml_8cpp.html#a7858deaa5ac596573f126e360221e499" target="_top" xlink:title="get_allocator">
<polygon fill="white" stroke="black" points="347.5,-171.5 347.5,-190.5 419.5,-190.5 419.5,-171.5 347.5,-171.5"/>
<text text-anchor="middle" x="383.5" y="-178.5" font-family="Helvetica,sans-Serif" font-size="10.00">get_allocator</text>
</a>
</g>
</g>
<!-- Node2&#45;&gt;Node6 -->
<g id="edge5" class="edge"><title>Node2&#45;&gt;Node6</title>
<path fill="none" stroke="midnightblue" d="M257.419,-139.021C275.458,-146.34 297.735,-155.041 318,-162 324.454,-164.216 331.323,-166.411 338.081,-168.479"/>
<polygon fill="midnightblue" stroke="midnightblue" points="337.259,-171.886 347.843,-171.404 339.269,-165.181 337.259,-171.886"/>
</g>
<!-- Node7 -->
<g id="node7" class="node"><title>Node7</title>
<g id="a_node7"><a xlink:href="../../db/d20/pugixml_8cpp.html#a58bfa3efcb99bbbdb6489461de3814da" target="_top" xlink:title="prepend_node">
<polygon fill="white" stroke="black" points="345,-133.5 345,-152.5 422,-152.5 422,-133.5 345,-133.5"/>
<text text-anchor="middle" x="383.5" y="-140.5" font-family="Helvetica,sans-Serif" font-size="10.00">prepend_node</text>
</a>
</g>
</g>
<!-- Node2&#45;&gt;Node7 -->
<g id="edge6" class="edge"><title>Node2&#45;&gt;Node7</title>
<path fill="none" stroke="midnightblue" d="M282.367,-131.183C299.77,-133.237 318.477,-135.445 334.957,-137.389"/>
<polygon fill="midnightblue" stroke="midnightblue" points="334.557,-140.866 344.899,-138.563 335.378,-133.915 334.557,-140.866"/>
</g>
<!-- Node2&#45;&gt;Node8 -->
<g id="edge7" class="edge"><title>Node2&#45;&gt;Node8</title>
<path fill="none" stroke="midnightblue" d="M241.84,-108.89C253.662,-100.02 268.787,-88.5199 282,-78 298.294,-65.0272 299.629,-57.813 318,-48 322.218,-45.7467 326.739,-43.7279 331.356,-41.9264"/>
<polygon fill="midnightblue" stroke="midnightblue" points="332.657,-45.1786 340.904,-38.5282 330.31,-38.5838 332.657,-45.1786"/>
</g>
<!-- Node15 -->
<g id="node15" class="node"><title>Node15</title>
<g id="a_node15"><a xlink:href="../../db/d65/classpugi_1_1xml__node.html#ab881e8c41edc84bf7507591d1ad8ead4" target="_top" xlink:title="pugi::xml_node::type">
<polygon fill="white" stroke="black" points="330,-95.5 330,-114.5 437,-114.5 437,-95.5 330,-95.5"/>
<text text-anchor="middle" x="383.5" y="-102.5" font-family="Helvetica,sans-Serif" font-size="10.00">pugi::xml_node::type</text>
</a>
</g>
</g>
<!-- Node2&#45;&gt;Node15 -->
<g id="edge15" class="edge"><title>Node2&#45;&gt;Node15</title>
<path fill="none" stroke="midnightblue" d="M282.367,-116.817C294.611,-115.372 307.501,-113.851 319.806,-112.399"/>
<polygon fill="midnightblue" stroke="midnightblue" points="320.457,-115.846 329.978,-111.198 319.636,-108.895 320.457,-115.846"/>
</g>
<!-- Node16 -->
<g id="node16" class="node"><title>Node16</title>
<g id="a_node16"><a xlink:href="../../db/d65/classpugi_1_1xml__node.html#a36ec0eb8b399d71f6b55be0e181c69f9" target="_top" xlink:title="pugi::xml_node::xml_node">
<polygon fill="white" stroke="black" points="318,-57.5 318,-76.5 449,-76.5 449,-57.5 318,-57.5"/>
<text text-anchor="middle" x="383.5" y="-64.5" font-family="Helvetica,sans-Serif" font-size="10.00">pugi::xml_node::xml_node</text>
</a>
</g>
</g>
<!-- Node2&#45;&gt;Node16 -->
<g id="edge16" class="edge"><title>Node2&#45;&gt;Node16</title>
<path fill="none" stroke="midnightblue" d="M257.419,-108.979C275.458,-101.66 297.735,-92.9594 318,-86 324.454,-83.7837 331.323,-81.5889 338.081,-79.5214"/>
<polygon fill="midnightblue" stroke="midnightblue" points="339.269,-82.8193 347.843,-76.5955 337.259,-76.114 339.269,-82.8193"/>
</g>
<!-- Node4 -->
<g id="node4" class="node"><title>Node4</title>
<g id="a_node4"><a xlink:href="../../d3/dae/structxml__allocator.html#a5c7a0614c72c3e73f561bb3f98c314e0" target="_top" xlink:title="xml_allocator::allocate\l_object">
<polygon fill="white" stroke="black" points="485,-242 485,-272 599,-272 599,-242 485,-242"/>
<text text-anchor="start" x="493" y="-260" font-family="Helvetica,sans-Serif" font-size="10.00">xml_allocator::allocate</text>
<text text-anchor="middle" x="542" y="-249" font-family="Helvetica,sans-Serif" font-size="10.00">_object</text>
</a>
</g>
</g>
<!-- Node3&#45;&gt;Node4 -->
<g id="edge3" class="edge"><title>Node3&#45;&gt;Node4</title>
<path fill="none" stroke="midnightblue" d="M422.384,-257C438.038,-257 456.659,-257 474.454,-257"/>
<polygon fill="midnightblue" stroke="midnightblue" points="474.807,-260.5 484.807,-257 474.807,-253.5 474.807,-260.5"/>
</g>
<!-- Node9 -->
<g id="node9" class="node"><title>Node9</title>
<g id="a_node9"><a xlink:href="../../db/d20/pugixml_8cpp.html#add4b0e8189d4e27898f1cf863cda4f80" target="_top" xlink:title="strcpy_insitu">
<polygon fill="white" stroke="black" points="506,-57.5 506,-76.5 578,-76.5 578,-57.5 506,-57.5"/>
<text text-anchor="middle" x="542" y="-64.5" font-family="Helvetica,sans-Serif" font-size="10.00">strcpy_insitu</text>
</a>
</g>
</g>
<!-- Node8&#45;&gt;Node9 -->
<g id="edge8" class="edge"><title>Node8&#45;&gt;Node9</title>
<path fill="none" stroke="midnightblue" d="M423.992,-38.589C445.92,-43.9134 473.28,-50.5569 496.029,-56.0806"/>
<polygon fill="midnightblue" stroke="midnightblue" points="495.25,-59.4929 505.793,-58.4513 496.901,-52.6905 495.25,-59.4929"/>
</g>
<!-- Node14 -->
<g id="node14" class="node"><title>Node14</title>
<g id="a_node14"><a xlink:href="../../db/d20/pugixml_8cpp.html#aab9e1f034d085b663d146fcceabb1c48" target="_top" xlink:title="strlength">
<polygon fill="white" stroke="black" points="796,-0.5 796,-19.5 850,-19.5 850,-0.5 796,-0.5"/>
<text text-anchor="middle" x="823" y="-7.5" font-family="Helvetica,sans-Serif" font-size="10.00">strlength</text>
</a>
</g>
</g>
<!-- Node8&#45;&gt;Node14 -->
<g id="edge14" class="edge"><title>Node8&#45;&gt;Node14</title>
<path fill="none" stroke="midnightblue" d="M449.04,-22.7548C499.585,-18.1908 571.695,-12.3973 635,-10 687.263,-8.0208 747.802,-8.53257 785.504,-9.18401"/>
<polygon fill="midnightblue" stroke="midnightblue" points="785.908,-12.692 795.972,-9.37875 786.039,-5.69325 785.908,-12.692"/>
</g>
<!-- Node10 -->
<g id="node10" class="node"><title>Node10</title>
<g id="a_node10"><a xlink:href="../../d3/dae/structxml__allocator.html#ac5ec2b5d41672d6494a2742e95e525b3" target="_top" xlink:title="xml_allocator::allocate\l_string">
<polygon fill="white" stroke="black" points="640.5,-145 640.5,-175 754.5,-175 754.5,-145 640.5,-145"/>
<text text-anchor="start" x="648.5" y="-163" font-family="Helvetica,sans-Serif" font-size="10.00">xml_allocator::allocate</text>
<text text-anchor="middle" x="697.5" y="-152" font-family="Helvetica,sans-Serif" font-size="10.00">_string</text>
</a>
</g>
</g>
<!-- Node9&#45;&gt;Node10 -->
<g id="edge9" class="edge"><title>Node9&#45;&gt;Node10</title>
<path fill="none" stroke="midnightblue" d="M553.658,-76.5342C570.144,-90.9106 603.248,-118.332 635,-136 637.995,-137.667 641.13,-139.271 644.331,-140.806"/>
<polygon fill="midnightblue" stroke="midnightblue" points="642.911,-144.005 653.465,-144.938 645.796,-137.628 642.911,-144.005"/>
</g>
<!-- Node11 -->
<g id="node11" class="node"><title>Node11</title>
<g id="a_node11"><a xlink:href="../../d3/dae/structxml__allocator.html#af32c538db4d562c2d0bfe15f7c0aa879" target="_top" xlink:title="xml_allocator::deallocate\l_string">
<polygon fill="white" stroke="black" points="635,-96 635,-126 760,-126 760,-96 635,-96"/>
<text text-anchor="start" x="643" y="-114" font-family="Helvetica,sans-Serif" font-size="10.00">xml_allocator::deallocate</text>
<text text-anchor="middle" x="697.5" y="-103" font-family="Helvetica,sans-Serif" font-size="10.00">_string</text>
</a>
</g>
</g>
<!-- Node9&#45;&gt;Node11 -->
<g id="edge10" class="edge"><title>Node9&#45;&gt;Node11</title>
<path fill="none" stroke="midnightblue" d="M576.307,-76.5473C593.204,-81.3906 614.289,-87.4346 634.06,-93.102"/>
<polygon fill="midnightblue" stroke="midnightblue" points="633.365,-96.5436 643.942,-95.9346 635.294,-89.8146 633.365,-96.5436"/>
</g>
<!-- Node12 -->
<g id="node12" class="node"><title>Node12</title>
<g id="a_node12"><a xlink:href="../../d3/dae/structxml__allocator.html#ac831a283ec3bcbe22fd3ce3be98ec347" target="_top" xlink:title="xml_allocator::reserve">
<polygon fill="white" stroke="black" points="641,-57.5 641,-76.5 754,-76.5 754,-57.5 641,-57.5"/>
<text text-anchor="middle" x="697.5" y="-64.5" font-family="Helvetica,sans-Serif" font-size="10.00">xml_allocator::reserve</text>
</a>
</g>
</g>
<!-- Node9&#45;&gt;Node12 -->
<g id="edge11" class="edge"><title>Node9&#45;&gt;Node12</title>
<path fill="none" stroke="midnightblue" d="M578.216,-67C593.827,-67 612.718,-67 630.777,-67"/>
<polygon fill="midnightblue" stroke="midnightblue" points="630.99,-70.5001 640.99,-67 630.99,-63.5001 630.99,-70.5001"/>
</g>
<!-- Node13 -->
<g id="node13" class="node"><title>Node13</title>
<g id="a_node13"><a xlink:href="../../db/d20/pugixml_8cpp.html#afeaebb026671399f617b36e27fa92234" target="_top" xlink:title="strcpy_insitu_allow">
<polygon fill="white" stroke="black" points="647.5,-19.5 647.5,-38.5 747.5,-38.5 747.5,-19.5 647.5,-19.5"/>
<text text-anchor="middle" x="697.5" y="-26.5" font-family="Helvetica,sans-Serif" font-size="10.00">strcpy_insitu_allow</text>
</a>
</g>
</g>
<!-- Node9&#45;&gt;Node13 -->
<g id="edge12" class="edge"><title>Node9&#45;&gt;Node13</title>
<path fill="none" stroke="midnightblue" d="M578.216,-58.282C598.957,-53.1475 625.488,-46.5795 648.166,-40.9655"/>
<polygon fill="midnightblue" stroke="midnightblue" points="649.083,-44.3441 657.949,-38.5436 647.401,-37.5493 649.083,-44.3441"/>
</g>
<!-- Node13&#45;&gt;Node14 -->
<g id="edge13" class="edge"><title>Node13&#45;&gt;Node14</title>
<path fill="none" stroke="midnightblue" d="M747.665,-21.4361C760.36,-19.4831 773.795,-17.4161 785.701,-15.5845"/>
<polygon fill="midnightblue" stroke="midnightblue" points="786.361,-19.0243 795.712,-14.0443 785.296,-12.1057 786.361,-19.0243"/>
</g>
</g>
</svg>
        <g id="navigator" transform="translate(0 0)" fill="#404254">
                <rect fill="#f2f5e9" fill-opacity="0.5" stroke="#606060" stroke-width=".5" x="0" y="0" width="60" height="60"/>
                <use id="zoomplus" xlink:href="#zoomPlus" x="17" y="9" onmousedown="handleZoom(evt,'in')"/>
                <use id="zoomminus" xlink:href="#zoomMin" x="42" y="9" onmousedown="handleZoom(evt,'out')"/>
                <use id="reset" xlink:href="#resetDef" x="30" y="36" onmousedown="handleReset()"/>
                <g id="arrowUp" xlink:href="#dirArrow" transform="translate(30 24)" onmousedown="handlePan(0,-1)">
                  <use xlink:href="#rim" fill="#404040">
                        <set attributeName="fill" to="#808080" begin="arrowUp.mouseover" end="arrowUp.mouseout"/>
                  </use>
                  <path fill="none" stroke="white" stroke-width="1.5" d="M0,-3.0v7 M-2.5,-0.5L0,-3.0L2.5,-0.5"/>
                </g>
                <g id="arrowRight" xlink:href="#dirArrow" transform="rotate(90) translate(36 -43)" onmousedown="handlePan(1,0)">
                  <use xlink:href="#rim" fill="#404040">
                        <set attributeName="fill" to="#808080" begin="arrowRight.mouseover" end="arrowRight.mouseout"/>
                  </use>
                  <path fill="none" stroke="white" stroke-width="1.5" d="M0,-3.0v7 M-2.5,-0.5L0,-3.0L2.5,-0.5"/>
                </g>
                <g id="arrowDown" xlink:href="#dirArrow" transform="rotate(180) translate(-30 -48)" onmousedown="handlePan(0,1)">
                  <use xlink:href="#rim" fill="#404040">
                        <set attributeName="fill" to="#808080" begin="arrowDown.mouseover" end="arrowDown.mouseout"/>
                  </use>
                  <path fill="none" stroke="white" stroke-width="1.5" d="M0,-3.0v7 M-2.5,-0.5L0,-3.0L2.5,-0.5"/>
                </g>
                <g id="arrowLeft" xlink:href="#dirArrow" transform="rotate(270) translate(-36 17)" onmousedown="handlePan(-1,0)">
                  <use xlink:href="#rim" fill="#404040">
                        <set attributeName="fill" to="#808080" begin="arrowLeft.mouseover" end="arrowLeft.mouseout"/>
                  </use>
                  <path fill="none" stroke="white" stroke-width="1.5" d="M0,-3.0v7 M-2.5,-0.5L0,-3.0L2.5,-0.5"/>
                </g>
        </g>
        <svg viewBox="0 0 15 15" width="100%" height="30px" preserveAspectRatio="xMaxYMin meet">
         <g id="arrow_out" transform="scale(0.3 0.3)">
          <a xlink:href="classpugi_1_1xml__node_afa78286431f99a0f35b18185e11e28e8_cgraph_org.svg" target="_base">
           <rect id="button" ry="5" rx="5" y="6" x="6" height="38" width="38"
                fill="#f2f5e9" fill-opacity="0.5" stroke="#606060" stroke-width="1.0"/>
           <path id="arrow"
             d="M 11.500037,31.436501 C 11.940474,20.09759 22.043105,11.32322 32.158766,21.979434 L 37.068811,17.246167 C 37.068811,17.246167 37.088388,32 37.088388,32 L 22.160133,31.978069 C 22.160133,31.978069 26.997745,27.140456 26.997745,27.140456 C 18.528582,18.264221 13.291696,25.230495 11.500037,31.436501 z"
             style="fill:#404040;"/>
          </a>
         </g>
        </svg>
</svg>
