<?xml version="1.0" encoding="UTF-8" standalone="no"?>
<!DOCTYPE svg PUBLIC "-//W3C//DTD SVG 1.1//EN"
 "http://www.w3.org/Graphics/SVG/1.1/DTD/svg11.dtd">
<!-- Generated by graphviz version 2.38.0 (20140413.2041)
 -->
<!-- Title: carla::opendrive::parser::GeoReferenceParser::Parse Pages: 1 -->
<!--zoomable 348 -->
<svg id="main" version="1.1" xmlns="http://www.w3.org/2000/svg" xmlns:xlink="http://www.w3.org/1999/xlink" xml:space="preserve" onload="init(evt)">
<style type="text/css"><![CDATA[
.edge:hover path { stroke: red; }
.edge:hover polygon { stroke: red; fill: red; }
]]></style>
<script type="text/javascript"><![CDATA[
var edges = document.getElementsByTagName('g');
if (edges && edges.length) {
  for (var i=0;i<edges.length;i++) {
    if (edges[i].id.substr(0,4)=='edge') {
      edges[i].setAttribute('class','edge');
    }
  }
}
]]></script>
        <defs>
                <circle id="rim" cx="0" cy="0" r="7"/>
                <circle id="rim2" cx="0" cy="0" r="3.5"/>
                <g id="zoomPlus">
                        <use xlink:href="#rim" fill="#404040">
                                <set attributeName="fill" to="#808080" begin="zoomplus.mouseover" end="zoomplus.mouseout"/>
                        </use>
                        <path d="M-4,0h8M0,-4v8" fill="none" stroke="white" stroke-width="1.5" pointer-events="none"/>
                </g>
                <g id="zoomMin">
                        <use xlink:href="#rim" fill="#404040">
                                <set attributeName="fill" to="#808080" begin="zoomminus.mouseover" end="zoomminus.mouseout"/>
                        </use>
                        <path d="M-4,0h8" fill="none" stroke="white" stroke-width="1.5" pointer-events="none"/>
                </g>
                <g id="dirArrow">
                        <path fill="none" stroke="white" stroke-width="1.5" d="M0,-3.0v7 M-2.5,-0.5L0,-3.0L2.5,-0.5"/>
                </g>
               <g id="resetDef">
                       <use xlink:href="#rim2" fill="#404040">
                               <set attributeName="fill" to="#808080" begin="reset.mouseover" end="reset.mouseout"/>
                       </use>
               </g>
        </defs>

<script type="text/javascript">
var viewWidth = 1312;
var viewHeight = 348;
var sectionId = 'dynsection-1';
</script>
<script xlink:href="../../svgpan.js"/>
<svg id="graph" class="graph">
<g id="viewport">
<title>carla::opendrive::parser::GeoReferenceParser::Parse</title>
<polygon fill="white" stroke="none" points="-4,4 -4,-343.78 1308,-343.78 1308,4 -4,4"/>
<!-- Node1 -->
<g id="node1" class="node"><title>Node1</title>
<polygon fill="#bfbfbf" stroke="black" points="0,-110.5 0,-140.5 152,-140.5 152,-110.5 0,-110.5"/>
<text text-anchor="start" x="8" y="-128.5" font-family="Helvetica,sans-Serif" font-size="10.00">carla::opendrive::parser</text>
<text text-anchor="middle" x="76" y="-117.5" font-family="Helvetica,sans-Serif" font-size="10.00">::GeoReferenceParser::Parse</text>
</g>
<!-- Node2 -->
<g id="node2" class="node"><title>Node2</title>
<g id="a_node2"><a xlink:href="../../de/d5a/classcarla_1_1opendrive_1_1OpenDriveParser.html#a599fd6174f30aaee59590c16503afd8a" target="_top" xlink:title="carla::opendrive::OpenDrive\lParser::Load">
<polygon fill="white" stroke="black" points="188,-110.5 188,-140.5 337,-140.5 337,-110.5 188,-110.5"/>
<text text-anchor="start" x="196" y="-128.5" font-family="Helvetica,sans-Serif" font-size="10.00">carla::opendrive::OpenDrive</text>
<text text-anchor="middle" x="262.5" y="-117.5" font-family="Helvetica,sans-Serif" font-size="10.00">Parser::Load</text>
</a>
</g>
</g>
<!-- Node1&#45;&gt;Node2 -->
<g id="edge1" class="edge"><title>Node1&#45;&gt;Node2</title>
<path fill="none" stroke="midnightblue" d="M162.05,-125.5C170.623,-125.5 179.278,-125.5 187.719,-125.5"/>
<polygon fill="midnightblue" stroke="midnightblue" points="162.043,-122 152.043,-125.5 162.043,-129 162.043,-122"/>
</g>
<!-- Node3 -->
<g id="node3" class="node"><title>Node3</title>
<g id="a_node3"><a xlink:href="../../d0/d2d/classAOpenDriveActor.html#ac8678af2b371c3a3faca8775ab1e4816" target="_top" xlink:title="AOpenDriveActor::BuildRoutes">
<polygon fill="white" stroke="black" points="385,-234 385,-253 546,-253 546,-234 385,-234"/>
<text text-anchor="middle" x="465.5" y="-241" font-family="Helvetica,sans-Serif" font-size="10.00">AOpenDriveActor::BuildRoutes</text>
</a>
</g>
</g>
<!-- Node2&#45;&gt;Node3 -->
<g id="edge2" class="edge"><title>Node2&#45;&gt;Node3</title>
<path fill="none" stroke="midnightblue" d="M282.696,-148.536C302.836,-171.151 336.584,-204.882 373,-223.5 381.542,-227.867 391.007,-231.284 400.515,-233.956"/>
<polygon fill="midnightblue" stroke="midnightblue" points="285.121,-145.993 275.911,-140.756 279.846,-150.593 285.121,-145.993"/>
</g>
<!-- Node4 -->
<g id="node4" class="node"><title>Node4</title>
<g id="a_node4"><a xlink:href="../../df/da5/classATrafficLightManager.html#a94926005e8cd881102dec94e331b70b4" target="_top" xlink:title="ATrafficLightManager\l::GetMap">
<polygon fill="white" stroke="black" points="408,-184.5 408,-214.5 523,-214.5 523,-184.5 408,-184.5"/>
<text text-anchor="start" x="416" y="-202.5" font-family="Helvetica,sans-Serif" font-size="10.00">ATrafficLightManager</text>
<text text-anchor="middle" x="465.5" y="-191.5" font-family="Helvetica,sans-Serif" font-size="10.00">::GetMap</text>
</a>
</g>
</g>
<!-- Node2&#45;&gt;Node4 -->
<g id="edge3" class="edge"><title>Node2&#45;&gt;Node4</title>
<path fill="none" stroke="midnightblue" d="M312.803,-144.105C331.622,-151.169 353.287,-159.255 373,-166.5 389.167,-172.442 406.977,-178.888 422.554,-184.493"/>
<polygon fill="midnightblue" stroke="midnightblue" points="313.839,-140.756 303.246,-140.515 311.376,-147.308 313.839,-140.756"/>
</g>
<!-- Node11 -->
<g id="node11" class="node"><title>Node11</title>
<g id="a_node11"><a xlink:href="../../d8/dfe/classUOpenDriveMap.html#a0ce422ee1f79211e6957bab1d2048348" target="_top" xlink:title="Load this map with an OpenDrive (XODR) file. ">
<polygon fill="white" stroke="black" points="403.5,-138 403.5,-157 527.5,-157 527.5,-138 403.5,-138"/>
<text text-anchor="middle" x="465.5" y="-145" font-family="Helvetica,sans-Serif" font-size="10.00">UOpenDriveMap::Load</text>
</a>
</g>
</g>
<!-- Node2&#45;&gt;Node11 -->
<g id="edge14" class="edge"><title>Node2&#45;&gt;Node11</title>
<path fill="none" stroke="midnightblue" d="M347.247,-134.666C366.05,-136.724 385.657,-138.87 403.336,-140.805"/>
<polygon fill="midnightblue" stroke="midnightblue" points="347.525,-131.176 337.204,-133.567 346.763,-138.134 347.525,-131.176"/>
</g>
<!-- Node14 -->
<g id="node14" class="node"><title>Node14</title>
<g id="a_node14"><a xlink:href="../../dc/d84/classUCarlaEpisode.html#a3eeed56e0cc3cf04d266b86c5a88c3ed" target="_top" xlink:title="Load a new map generating the mesh from OpenDRIVE data and start a new episode. ">
<polygon fill="white" stroke="black" points="373,-88.5 373,-118.5 558,-118.5 558,-88.5 373,-88.5"/>
<text text-anchor="start" x="381" y="-106.5" font-family="Helvetica,sans-Serif" font-size="10.00">UCarlaEpisode::LoadNewOpendrive</text>
<text text-anchor="middle" x="465.5" y="-95.5" font-family="Helvetica,sans-Serif" font-size="10.00">Episode</text>
</a>
</g>
</g>
<!-- Node2&#45;&gt;Node14 -->
<g id="edge17" class="edge"><title>Node2&#45;&gt;Node14</title>
<path fill="none" stroke="midnightblue" d="M347.322,-116.325C355.696,-115.409 364.228,-114.475 372.678,-113.55"/>
<polygon fill="midnightblue" stroke="midnightblue" points="346.763,-112.866 337.204,-117.433 347.525,-119.824 346.763,-112.866"/>
</g>
<!-- Node17 -->
<g id="node17" class="node"><title>Node17</title>
<g id="a_node17"><a xlink:href="../../d2/daf/namespacecarla_1_1client.html#a228b83c6429f8e3406a93a1b41eb1565" target="_top" xlink:title="carla::client::MakeMap">
<polygon fill="white" stroke="black" points="404,-50 404,-69 527,-69 527,-50 404,-50"/>
<text text-anchor="middle" x="465.5" y="-57" font-family="Helvetica,sans-Serif" font-size="10.00">carla::client::MakeMap</text>
</a>
</g>
</g>
<!-- Node2&#45;&gt;Node17 -->
<g id="edge20" class="edge"><title>Node2&#45;&gt;Node17</title>
<path fill="none" stroke="midnightblue" d="M303.33,-106.113C323.783,-96.7495 349.322,-85.9567 373,-78.5 384.606,-74.8449 397.266,-71.7007 409.365,-69.0817"/>
<polygon fill="midnightblue" stroke="midnightblue" points="301.618,-103.048 294.023,-110.434 304.567,-109.397 301.618,-103.048"/>
</g>
<!-- Node18 -->
<g id="node18" class="node"><title>Node18</title>
<g id="a_node18"><a xlink:href="../../db/de5/classACarlaGameModeBase.html#a1af30553066dc3940a5b4f7eb900b8bf" target="_top" xlink:title="ACarlaGameModeBase\l::ParseOpenDrive">
<polygon fill="white" stroke="black" points="401.5,-0.5 401.5,-30.5 529.5,-30.5 529.5,-0.5 401.5,-0.5"/>
<text text-anchor="start" x="409.5" y="-18.5" font-family="Helvetica,sans-Serif" font-size="10.00">ACarlaGameModeBase</text>
<text text-anchor="middle" x="465.5" y="-7.5" font-family="Helvetica,sans-Serif" font-size="10.00">::ParseOpenDrive</text>
</a>
</g>
</g>
<!-- Node2&#45;&gt;Node18 -->
<g id="edge21" class="edge"><title>Node2&#45;&gt;Node18</title>
<path fill="none" stroke="midnightblue" d="M286.253,-103.437C307.211,-84.2484 339.976,-57.002 373,-40.5 381.839,-36.0834 391.56,-32.3638 401.266,-29.2571"/>
<polygon fill="midnightblue" stroke="midnightblue" points="283.755,-100.981 278.823,-110.358 288.526,-106.103 283.755,-100.981"/>
</g>
<!-- Node5 -->
<g id="node5" class="node"><title>Node5</title>
<g id="a_node5"><a xlink:href="../../df/da5/classATrafficLightManager.html#a36642e119565d7c4263fc48dbe149d5a" target="_top" xlink:title="ATrafficLightManager\l::BeginPlay">
<polygon fill="white" stroke="black" points="1189,-249.5 1189,-279.5 1304,-279.5 1304,-249.5 1189,-249.5"/>
<text text-anchor="start" x="1197" y="-267.5" font-family="Helvetica,sans-Serif" font-size="10.00">ATrafficLightManager</text>
<text text-anchor="middle" x="1246.5" y="-256.5" font-family="Helvetica,sans-Serif" font-size="10.00">::BeginPlay</text>
</a>
</g>
</g>
<!-- Node4&#45;&gt;Node5 -->
<g id="edge4" class="edge"><title>Node4&#45;&gt;Node5</title>
<path fill="none" stroke="midnightblue" d="M532.908,-211.347C541.837,-214.696 550.493,-218.991 558,-224.5 581.854,-242.005 568.187,-266.038 594,-280.5 796.595,-394.003 1093.12,-315.217 1202.73,-279.519"/>
<polygon fill="midnightblue" stroke="midnightblue" points="533.746,-207.936 523.152,-208.072 531.518,-214.572 533.746,-207.936"/>
</g>
<!-- Node6 -->
<g id="node6" class="node"><title>Node6</title>
<g id="a_node6"><a xlink:href="../../df/da5/classATrafficLightManager.html#a45e03eb4b0d473a7e25ab1825078ee17" target="_top" xlink:title="ATrafficLightManager\l::RegisterLightComponent">
<polygon fill="white" stroke="black" points="611,-241.5 611,-271.5 751,-271.5 751,-241.5 611,-241.5"/>
<text text-anchor="start" x="619" y="-259.5" font-family="Helvetica,sans-Serif" font-size="10.00">ATrafficLightManager</text>
<text text-anchor="middle" x="681" y="-248.5" font-family="Helvetica,sans-Serif" font-size="10.00">::RegisterLightComponent</text>
</a>
</g>
</g>
<!-- Node4&#45;&gt;Node6 -->
<g id="edge5" class="edge"><title>Node4&#45;&gt;Node6</title>
<path fill="none" stroke="midnightblue" d="M532.574,-217.14C561.76,-224.933 595.718,-233.998 623.681,-241.464"/>
<polygon fill="midnightblue" stroke="midnightblue" points="533.438,-213.749 522.874,-214.551 531.633,-220.512 533.438,-213.749"/>
</g>
<!-- Node8 -->
<g id="node8" class="node"><title>Node8</title>
<g id="a_node8"><a xlink:href="../../df/da5/classATrafficLightManager.html#a86d8da5023cf7523924fa33e0feb2e0f" target="_top" xlink:title="ATrafficLightManager\l::SpawnTrafficLights">
<polygon fill="white" stroke="black" points="829,-208.5 829,-238.5 944,-238.5 944,-208.5 829,-208.5"/>
<text text-anchor="start" x="837" y="-226.5" font-family="Helvetica,sans-Serif" font-size="10.00">ATrafficLightManager</text>
<text text-anchor="middle" x="886.5" y="-215.5" font-family="Helvetica,sans-Serif" font-size="10.00">::SpawnTrafficLights</text>
</a>
</g>
</g>
<!-- Node4&#45;&gt;Node8 -->
<g id="edge13" class="edge"><title>Node4&#45;&gt;Node8</title>
<path fill="none" stroke="midnightblue" d="M533.184,-203.32C614.927,-208.002 752.032,-215.855 828.885,-220.257"/>
<polygon fill="midnightblue" stroke="midnightblue" points="533.192,-199.814 523.008,-202.737 532.792,-206.803 533.192,-199.814"/>
</g>
<!-- Node10 -->
<g id="node10" class="node"><title>Node10</title>
<g id="a_node10"><a xlink:href="../../df/da5/classATrafficLightManager.html#a1ed532138f13a06c64aaa7b513114832" target="_top" xlink:title="ATrafficLightManager\l::SpawnSignals">
<polygon fill="white" stroke="black" points="829,-159.5 829,-189.5 944,-189.5 944,-159.5 829,-159.5"/>
<text text-anchor="start" x="837" y="-177.5" font-family="Helvetica,sans-Serif" font-size="10.00">ATrafficLightManager</text>
<text text-anchor="middle" x="886.5" y="-166.5" font-family="Helvetica,sans-Serif" font-size="10.00">::SpawnSignals</text>
</a>
</g>
</g>
<!-- Node4&#45;&gt;Node10 -->
<g id="edge11" class="edge"><title>Node4&#45;&gt;Node10</title>
<path fill="none" stroke="midnightblue" d="M533.184,-195.521C614.927,-190.644 752.032,-182.463 828.885,-177.878"/>
<polygon fill="midnightblue" stroke="midnightblue" points="532.782,-192.039 523.008,-196.128 533.199,-199.026 532.782,-192.039"/>
</g>
<!-- Node7 -->
<g id="node7" class="node"><title>Node7</title>
<g id="a_node7"><a xlink:href="../../df/da5/classATrafficLightManager.html#a10e0e7b8640c0665fa1cef32939c0437" target="_top" xlink:title="ATrafficLightManager\l::ResetTrafficLightObjects">
<polygon fill="white" stroke="black" points="1011.5,-249.5 1011.5,-279.5 1146.5,-279.5 1146.5,-249.5 1011.5,-249.5"/>
<text text-anchor="start" x="1019.5" y="-267.5" font-family="Helvetica,sans-Serif" font-size="10.00">ATrafficLightManager</text>
<text text-anchor="middle" x="1079" y="-256.5" font-family="Helvetica,sans-Serif" font-size="10.00">::ResetTrafficLightObjects</text>
</a>
</g>
</g>
<!-- Node6&#45;&gt;Node7 -->
<g id="edge6" class="edge"><title>Node6&#45;&gt;Node7</title>
<path fill="none" stroke="midnightblue" d="M761.538,-258.107C834.833,-259.588 942.377,-261.76 1011.29,-263.152"/>
<polygon fill="midnightblue" stroke="midnightblue" points="761.5,-254.605 751.431,-257.903 761.358,-261.604 761.5,-254.605"/>
</g>
<!-- Node6&#45;&gt;Node8 -->
<g id="edge8" class="edge"><title>Node6&#45;&gt;Node8</title>
<path fill="none" stroke="midnightblue" d="M761.072,-243.678C783.62,-240.021 807.734,-236.111 828.673,-232.715"/>
<polygon fill="midnightblue" stroke="midnightblue" points="760.491,-240.226 751.18,-245.282 761.611,-247.136 760.491,-240.226"/>
</g>
<!-- Node7&#45;&gt;Node5 -->
<g id="edge7" class="edge"><title>Node7&#45;&gt;Node5</title>
<path fill="none" stroke="midnightblue" d="M1157.03,-264.5C1167.72,-264.5 1178.54,-264.5 1188.77,-264.5"/>
<polygon fill="midnightblue" stroke="midnightblue" points="1156.84,-261 1146.84,-264.5 1156.84,-268 1156.84,-261"/>
</g>
<!-- Node9 -->
<g id="node9" class="node"><title>Node9</title>
<g id="a_node9"><a xlink:href="../../df/da5/classATrafficLightManager.html#ae473e1bb0e60e5c2db5684efc72a1e89" target="_top" xlink:title="ATrafficLightManager\l::GenerateSignalsAndTraffic\lLights">
<polygon fill="white" stroke="black" points="1005,-190 1005,-231 1153,-231 1153,-190 1005,-190"/>
<text text-anchor="start" x="1013" y="-219" font-family="Helvetica,sans-Serif" font-size="10.00">ATrafficLightManager</text>
<text text-anchor="start" x="1013" y="-208" font-family="Helvetica,sans-Serif" font-size="10.00">::GenerateSignalsAndTraffic</text>
<text text-anchor="middle" x="1079" y="-197" font-family="Helvetica,sans-Serif" font-size="10.00">Lights</text>
</a>
</g>
</g>
<!-- Node8&#45;&gt;Node9 -->
<g id="edge9" class="edge"><title>Node8&#45;&gt;Node9</title>
<path fill="none" stroke="midnightblue" d="M954.181,-218.95C970.598,-217.829 988.263,-216.624 1004.96,-215.484"/>
<polygon fill="midnightblue" stroke="midnightblue" points="953.879,-215.462 944.141,-219.635 954.356,-222.446 953.879,-215.462"/>
</g>
<!-- Node9&#45;&gt;Node5 -->
<g id="edge10" class="edge"><title>Node9&#45;&gt;Node5</title>
<path fill="none" stroke="midnightblue" d="M1152.8,-234.254C1168.62,-239.414 1184.92,-244.734 1199.36,-249.446"/>
<polygon fill="midnightblue" stroke="midnightblue" points="1153.63,-230.844 1143.04,-231.069 1151.46,-237.498 1153.63,-230.844"/>
</g>
<!-- Node10&#45;&gt;Node9 -->
<g id="edge12" class="edge"><title>Node10&#45;&gt;Node9</title>
<path fill="none" stroke="midnightblue" d="M954.181,-187.101C970.598,-190.204 988.263,-193.542 1004.96,-196.698"/>
<polygon fill="midnightblue" stroke="midnightblue" points="954.617,-183.622 944.141,-185.204 953.317,-190.5 954.617,-183.622"/>
</g>
<!-- Node12 -->
<g id="node12" class="node"><title>Node12</title>
<g id="a_node12"><a xlink:href="../../d1/d1b/classUOpenDrive.html#ac05b8dc3f340e373582945f9215081d9" target="_top" xlink:title="Load OpenDriveMap associated to the given MapName. ">
<polygon fill="white" stroke="black" points="594,-121 594,-140 768,-140 768,-121 594,-121"/>
<text text-anchor="middle" x="681" y="-128" font-family="Helvetica,sans-Serif" font-size="10.00">UOpenDrive::LoadOpenDriveMap</text>
</a>
</g>
</g>
<!-- Node11&#45;&gt;Node12 -->
<g id="edge15" class="edge"><title>Node11&#45;&gt;Node12</title>
<path fill="none" stroke="midnightblue" d="M537.765,-141.825C555.709,-140.397 575.163,-138.848 593.754,-137.367"/>
<polygon fill="midnightblue" stroke="midnightblue" points="537.371,-138.346 527.681,-142.628 537.927,-145.324 537.371,-138.346"/>
</g>
<!-- Node13 -->
<g id="node13" class="node"><title>Node13</title>
<g id="a_node13"><a xlink:href="../../d1/d1b/classUOpenDrive.html#a4486c7ee9d4a8bf6cd2a7ca5ad7e4ece" target="_top" xlink:title="Load OpenDriveMap associated to the currently loaded map. ">
<polygon fill="white" stroke="black" points="804,-110.5 804,-140.5 969,-140.5 969,-110.5 804,-110.5"/>
<text text-anchor="start" x="812" y="-128.5" font-family="Helvetica,sans-Serif" font-size="10.00">UOpenDrive::LoadCurrentOpen</text>
<text text-anchor="middle" x="886.5" y="-117.5" font-family="Helvetica,sans-Serif" font-size="10.00">DriveMap</text>
</a>
</g>
</g>
<!-- Node12&#45;&gt;Node13 -->
<g id="edge16" class="edge"><title>Node12&#45;&gt;Node13</title>
<path fill="none" stroke="midnightblue" d="M778.038,-128.14C786.617,-127.93 795.249,-127.717 803.691,-127.51"/>
<polygon fill="midnightblue" stroke="midnightblue" points="777.918,-124.642 768.007,-128.387 778.09,-131.64 777.918,-124.642"/>
</g>
<!-- Node15 -->
<g id="node15" class="node"><title>Node15</title>
<g id="a_node15"><a xlink:href="../../d7/d97/classFCarlaServer_1_1FPimpl.html#a675a6b572112a21e8bc011dddfd0de86" target="_top" xlink:title="FCarlaServer::FPimpl\l::BindActions">
<polygon fill="white" stroke="black" points="623,-66.5 623,-96.5 739,-96.5 739,-66.5 623,-66.5"/>
<text text-anchor="start" x="631" y="-84.5" font-family="Helvetica,sans-Serif" font-size="10.00">FCarlaServer::FPimpl</text>
<text text-anchor="middle" x="681" y="-73.5" font-family="Helvetica,sans-Serif" font-size="10.00">::BindActions</text>
</a>
</g>
</g>
<!-- Node14&#45;&gt;Node15 -->
<g id="edge18" class="edge"><title>Node14&#45;&gt;Node15</title>
<path fill="none" stroke="midnightblue" d="M568.349,-93.005C587.082,-91.0747 606.016,-89.1236 622.839,-87.3902"/>
<polygon fill="midnightblue" stroke="midnightblue" points="567.871,-89.5357 558.282,-94.0423 568.588,-96.4988 567.871,-89.5357"/>
</g>
<!-- Node16 -->
<g id="node16" class="node"><title>Node16</title>
<g id="a_node16"><a xlink:href="../../d7/d97/classFCarlaServer_1_1FPimpl.html#a5521999cb8b42460143ad4b1cd869398" target="_top" xlink:title="FCarlaServer::FPimpl\l::FPimpl">
<polygon fill="white" stroke="black" points="828.5,-61.5 828.5,-91.5 944.5,-91.5 944.5,-61.5 828.5,-61.5"/>
<text text-anchor="start" x="836.5" y="-79.5" font-family="Helvetica,sans-Serif" font-size="10.00">FCarlaServer::FPimpl</text>
<text text-anchor="middle" x="886.5" y="-68.5" font-family="Helvetica,sans-Serif" font-size="10.00">::FPimpl</text>
</a>
</g>
</g>
<!-- Node15&#45;&gt;Node16 -->
<g id="edge19" class="edge"><title>Node15&#45;&gt;Node16</title>
<path fill="none" stroke="midnightblue" d="M749.233,-79.8481C774.843,-79.2188 803.762,-78.5083 828.35,-77.9042"/>
<polygon fill="midnightblue" stroke="midnightblue" points="749.139,-76.3492 739.228,-80.0939 749.311,-83.3471 749.139,-76.3492"/>
</g>
<!-- Node19 -->
<g id="node19" class="node"><title>Node19</title>
<g id="a_node19"><a xlink:href="../../db/de5/classACarlaGameModeBase.html#a5caddc59713354578997de90542ddd93" target="_top" xlink:title="ACarlaGameModeBase\l::InitGame">
<polygon fill="white" stroke="black" points="617,-0.5 617,-30.5 745,-30.5 745,-0.5 617,-0.5"/>
<text text-anchor="start" x="625" y="-18.5" font-family="Helvetica,sans-Serif" font-size="10.00">ACarlaGameModeBase</text>
<text text-anchor="middle" x="681" y="-7.5" font-family="Helvetica,sans-Serif" font-size="10.00">::InitGame</text>
</a>
</g>
</g>
<!-- Node18&#45;&gt;Node19 -->
<g id="edge22" class="edge"><title>Node18&#45;&gt;Node19</title>
<path fill="none" stroke="midnightblue" d="M539.885,-15.5C564.967,-15.5 592.78,-15.5 616.972,-15.5"/>
<polygon fill="midnightblue" stroke="midnightblue" points="539.691,-12.0001 529.69,-15.5 539.69,-19.0001 539.691,-12.0001"/>
</g>
</g>
</svg>
        <g id="navigator" transform="translate(0 0)" fill="#404254">
                <rect fill="#f2f5e9" fill-opacity="0.5" stroke="#606060" stroke-width=".5" x="0" y="0" width="60" height="60"/>
                <use id="zoomplus" xlink:href="#zoomPlus" x="17" y="9" onmousedown="handleZoom(evt,'in')"/>
                <use id="zoomminus" xlink:href="#zoomMin" x="42" y="9" onmousedown="handleZoom(evt,'out')"/>
                <use id="reset" xlink:href="#resetDef" x="30" y="36" onmousedown="handleReset()"/>
                <g id="arrowUp" xlink:href="#dirArrow" transform="translate(30 24)" onmousedown="handlePan(0,-1)">
                  <use xlink:href="#rim" fill="#404040">
                        <set attributeName="fill" to="#808080" begin="arrowUp.mouseover" end="arrowUp.mouseout"/>
                  </use>
                  <path fill="none" stroke="white" stroke-width="1.5" d="M0,-3.0v7 M-2.5,-0.5L0,-3.0L2.5,-0.5"/>
                </g>
                <g id="arrowRight" xlink:href="#dirArrow" transform="rotate(90) translate(36 -43)" onmousedown="handlePan(1,0)">
                  <use xlink:href="#rim" fill="#404040">
                        <set attributeName="fill" to="#808080" begin="arrowRight.mouseover" end="arrowRight.mouseout"/>
                  </use>
                  <path fill="none" stroke="white" stroke-width="1.5" d="M0,-3.0v7 M-2.5,-0.5L0,-3.0L2.5,-0.5"/>
                </g>
                <g id="arrowDown" xlink:href="#dirArrow" transform="rotate(180) translate(-30 -48)" onmousedown="handlePan(0,1)">
                  <use xlink:href="#rim" fill="#404040">
                        <set attributeName="fill" to="#808080" begin="arrowDown.mouseover" end="arrowDown.mouseout"/>
                  </use>
                  <path fill="none" stroke="white" stroke-width="1.5" d="M0,-3.0v7 M-2.5,-0.5L0,-3.0L2.5,-0.5"/>
                </g>
                <g id="arrowLeft" xlink:href="#dirArrow" transform="rotate(270) translate(-36 17)" onmousedown="handlePan(-1,0)">
                  <use xlink:href="#rim" fill="#404040">
                        <set attributeName="fill" to="#808080" begin="arrowLeft.mouseover" end="arrowLeft.mouseout"/>
                  </use>
                  <path fill="none" stroke="white" stroke-width="1.5" d="M0,-3.0v7 M-2.5,-0.5L0,-3.0L2.5,-0.5"/>
                </g>
        </g>
        <svg viewBox="0 0 15 15" width="100%" height="30px" preserveAspectRatio="xMaxYMin meet">
         <g id="arrow_out" transform="scale(0.3 0.3)">
          <a xlink:href="classcarla_1_1opendrive_1_1parser_1_1GeoReferenceParser_abbd0edc0b3507042c5a0af753473192b_icgraph_org.svg" target="_base">
           <rect id="button" ry="5" rx="5" y="6" x="6" height="38" width="38"
                fill="#f2f5e9" fill-opacity="0.5" stroke="#606060" stroke-width="1.0"/>
           <path id="arrow"
             d="M 11.500037,31.436501 C 11.940474,20.09759 22.043105,11.32322 32.158766,21.979434 L 37.068811,17.246167 C 37.068811,17.246167 37.088388,32 37.088388,32 L 22.160133,31.978069 C 22.160133,31.978069 26.997745,27.140456 26.997745,27.140456 C 18.528582,18.264221 13.291696,25.230495 11.500037,31.436501 z"
             style="fill:#404040;"/>
          </a>
         </g>
        </svg>
</svg>
