<?xml version="1.0" encoding="UTF-8" standalone="no"?>
<!DOCTYPE svg PUBLIC "-//W3C//DTD SVG 1.1//EN"
 "http://www.w3.org/Graphics/SVG/1.1/DTD/svg11.dtd">
<!-- Generated by graphviz version 2.40.1 (20161225.0304)
 -->
<!-- Title: sensor_msgs::msg::PointCloud2::getKeyMaxCdrSerializedSize Pages: 1 -->
<svg width="414pt" height="88pt"
 viewBox="0.00 0.00 414.00 88.00" xmlns="http://www.w3.org/2000/svg" xmlns:xlink="http://www.w3.org/1999/xlink">
<g id="graph0" class="graph" transform="scale(1 1) rotate(0) translate(4 84)">
<title>sensor_msgs::msg::PointCloud2::getKeyMaxCdrSerializedSize</title>
<polygon fill="#ffffff" stroke="transparent" points="-4,4 -4,-84 410,-84 410,4 -4,4"/>
<!-- Node44 -->
<g id="node1" class="node">
<title>Node44</title>
<polygon fill="#bfbfbf" stroke="#000000" points="0,-24.5 0,-54.5 172,-54.5 172,-24.5 0,-24.5"/>
<text text-anchor="start" x="8" y="-42.5" font-family="Helvetica,sans-Serif" font-size="10.00" fill="#000000">sensor_msgs::msg::PointCloud2</text>
<text text-anchor="middle" x="86" y="-31.5" font-family="Helvetica,sans-Serif" font-size="10.00" fill="#000000">::getKeyMaxCdrSerializedSize</text>
</g>
<!-- Node45 -->
<g id="node2" class="node">
<title>Node45</title>
<g id="a_node2"><a xlink:href="../../d8/dd0/classsensor__msgs_1_1msg_1_1PointCloud2PubSubType.html#a7cea3b38a25d1e673dbbb894781e0720" target="_top" xlink:title="sensor_msgs::msg::PointCloud2\lPubSubType::getKey">
<polygon fill="#ffffff" stroke="#000000" points="221,-49.5 221,-79.5 393,-79.5 393,-49.5 221,-49.5"/>
<text text-anchor="start" x="229" y="-67.5" font-family="Helvetica,sans-Serif" font-size="10.00" fill="#000000">sensor_msgs::msg::PointCloud2</text>
<text text-anchor="middle" x="307" y="-56.5" font-family="Helvetica,sans-Serif" font-size="10.00" fill="#000000">PubSubType::getKey</text>
</a>
</g>
</g>
<!-- Node44&#45;&gt;Node45 -->
<g id="edge1" class="edge">
<title>Node44&#45;&gt;Node45</title>
<path fill="none" stroke="#191970" d="M182.2835,-50.3918C195.0959,-51.8412 208.1677,-53.3199 220.7942,-54.7482"/>
<polygon fill="#191970" stroke="#191970" points="182.4073,-46.8836 172.0772,-49.2372 181.6204,-53.8392 182.4073,-46.8836"/>
</g>
<!-- Node46 -->
<g id="node3" class="node">
<title>Node46</title>
<g id="a_node3"><a xlink:href="../../d8/dd0/classsensor__msgs_1_1msg_1_1PointCloud2PubSubType.html#aebfff9c6fc5e5f1634b9e37209097a38" target="_top" xlink:title="sensor_msgs::msg::PointCloud2\lPubSubType::PointCloud2PubSubType">
<polygon fill="#ffffff" stroke="#000000" points="208,-.5 208,-30.5 406,-30.5 406,-.5 208,-.5"/>
<text text-anchor="start" x="216" y="-18.5" font-family="Helvetica,sans-Serif" font-size="10.00" fill="#000000">sensor_msgs::msg::PointCloud2</text>
<text text-anchor="middle" x="307" y="-7.5" font-family="Helvetica,sans-Serif" font-size="10.00" fill="#000000">PubSubType::PointCloud2PubSubType</text>
</a>
</g>
</g>
<!-- Node44&#45;&gt;Node46 -->
<g id="edge2" class="edge">
<title>Node44&#45;&gt;Node46</title>
<path fill="none" stroke="#191970" d="M182.0759,-29.0664C190.6503,-28.1353 199.3425,-27.1913 207.9413,-26.2575"/>
<polygon fill="#191970" stroke="#191970" points="181.6408,-25.593 172.0772,-30.1523 182.3966,-32.5521 181.6408,-25.593"/>
</g>
</g>
</svg>
