<?xml version="1.0" encoding="UTF-8" standalone="no"?>
<!DOCTYPE svg PUBLIC "-//W3C//DTD SVG 1.1//EN"
 "http://www.w3.org/Graphics/SVG/1.1/DTD/svg11.dtd">
<!-- Generated by graphviz version 2.40.1 (20161225.0304)
 -->
<!-- Title: CarlaReplayer::ProcessAnimWalker Pages: 1 -->
<!--zoomable 431 -->
<svg id="main" version="1.1" xmlns="http://www.w3.org/2000/svg" xmlns:xlink="http://www.w3.org/1999/xlink" xml:space="preserve" onload="init(evt)">
<style type="text/css"><![CDATA[
.edge:hover path { stroke: red; }
.edge:hover polygon { stroke: red; fill: red; }
]]></style>
<script type="text/javascript"><![CDATA[
var edges = document.getElementsByTagName('g');
if (edges && edges.length) {
  for (var i=0;i<edges.length;i++) {
    if (edges[i].id.substr(0,4)=='edge') {
      edges[i].setAttribute('class','edge');
    }
  }
}
]]></script>
        <defs>
                <circle id="rim" cx="0" cy="0" r="7"/>
                <circle id="rim2" cx="0" cy="0" r="3.5"/>
                <g id="zoomPlus">
                        <use xlink:href="#rim" fill="#404040">
                                <set attributeName="fill" to="#808080" begin="zoomplus.mouseover" end="zoomplus.mouseout"/>
                        </use>
                        <path d="M-4,0h8M0,-4v8" fill="none" stroke="white" stroke-width="1.5" pointer-events="none"/>
                </g>
                <g id="zoomMin">
                        <use xlink:href="#rim" fill="#404040">
                                <set attributeName="fill" to="#808080" begin="zoomminus.mouseover" end="zoomminus.mouseout"/>
                        </use>
                        <path d="M-4,0h8" fill="none" stroke="white" stroke-width="1.5" pointer-events="none"/>
                </g>
                <g id="dirArrow">
                        <path fill="none" stroke="white" stroke-width="1.5" d="M0,-3.0v7 M-2.5,-0.5L0,-3.0L2.5,-0.5"/>
                </g>
               <g id="resetDef">
                       <use xlink:href="#rim2" fill="#404040">
                               <set attributeName="fill" to="#808080" begin="reset.mouseover" end="reset.mouseout"/>
                       </use>
               </g>
        </defs>

<script type="text/javascript">
var viewWidth = 1854;
var viewHeight = 431;
var sectionId = 'dynsection-14';
</script>
<script xlink:href="../../svgpan.js"/>
<svg id="graph" class="graph">
<g id="viewport">
<title>CarlaReplayer::ProcessAnimWalker</title>
<polygon fill="#ffffff" stroke="transparent" points="-4,4 -4,-427 1850,-427 1850,4 -4,4"/>
<!-- Node474 -->
<g id="node1" class="node">
<title>Node474</title>
<polygon fill="#bfbfbf" stroke="#000000" points="0,-278 0,-308 154,-308 154,-278 0,-278"/>
<text text-anchor="start" x="8" y="-296" font-family="Helvetica,sans-Serif" font-size="10.00" fill="#000000">CarlaReplayer::ProcessAnim</text>
<text text-anchor="middle" x="77" y="-285" font-family="Helvetica,sans-Serif" font-size="10.00" fill="#000000">Walker</text>
</g>
<!-- Node475 -->
<g id="node2" class="node">
<title>Node475</title>
<g id="a_node2"><a xlink:href="../../dc/dc6/classCarlaReplayer.html#ae0a5643d88257bdceb9e12d5c33194cb" target="_top" xlink:title="CarlaReplayer::ProcessToTime">
<polygon fill="#ffffff" stroke="#000000" points="190,-283.5 190,-302.5 354,-302.5 354,-283.5 190,-283.5"/>
<text text-anchor="middle" x="272" y="-290.5" font-family="Helvetica,sans-Serif" font-size="10.00" fill="#000000">CarlaReplayer::ProcessToTime</text>
</a>
</g>
</g>
<!-- Node474&#45;&gt;Node475 -->
<g id="edge1" class="edge">
<title>Node474&#45;&gt;Node475</title>
<path fill="none" stroke="#191970" d="M164.31,-293C172.7618,-293 181.317,-293 189.7175,-293"/>
<polygon fill="#191970" stroke="#191970" points="164.0692,-289.5001 154.0692,-293 164.0691,-296.5001 164.0692,-289.5001"/>
</g>
<!-- Node476 -->
<g id="node3" class="node">
<title>Node476</title>
<g id="a_node3"><a xlink:href="../../dc/dc6/classCarlaReplayer.html#af627917f2c95135fb11b59af4f65dbf7" target="_top" xlink:title="CarlaReplayer::Stop">
<polygon fill="#ffffff" stroke="#000000" points="390,-283.5 390,-302.5 503,-302.5 503,-283.5 390,-283.5"/>
<text text-anchor="middle" x="446.5" y="-290.5" font-family="Helvetica,sans-Serif" font-size="10.00" fill="#000000">CarlaReplayer::Stop</text>
</a>
</g>
</g>
<!-- Node475&#45;&gt;Node476 -->
<g id="edge2" class="edge">
<title>Node475&#45;&gt;Node476</title>
<path fill="none" stroke="#191970" d="M364.2944,-286.26C372.9357,-286.2945 381.5107,-286.4174 389.679,-286.6289"/>
<polygon fill="#191970" stroke="#191970" points="364.1402,-282.7599 354.1403,-286.2603 364.1404,-289.7599 364.1402,-282.7599"/>
</g>
<!-- Node484 -->
<g id="node11" class="node">
<title>Node484</title>
<g id="a_node11"><a xlink:href="../../dc/dc6/classCarlaReplayer.html#a480fd94fedc2367d7f7f58f17f3cd5a4" target="_top" xlink:title="CarlaReplayer::ReplayFile">
<polygon fill="#ffffff" stroke="#000000" points="540,-403.5 540,-422.5 680,-422.5 680,-403.5 540,-403.5"/>
<text text-anchor="middle" x="610" y="-410.5" font-family="Helvetica,sans-Serif" font-size="10.00" fill="#000000">CarlaReplayer::ReplayFile</text>
</a>
</g>
</g>
<!-- Node475&#45;&gt;Node484 -->
<g id="edge23" class="edge">
<title>Node475&#45;&gt;Node484</title>
<path fill="none" stroke="#191970" d="M308.3021,-305.8883C376.638,-330.1496 522.9169,-382.0829 583.1924,-403.4825"/>
<polygon fill="#191970" stroke="#191970" points="309.3995,-302.564 298.8048,-302.5165 307.0575,-309.1606 309.3995,-302.564"/>
</g>
<!-- Node487 -->
<g id="node14" class="node">
<title>Node487</title>
<g id="a_node14"><a xlink:href="../../dc/dc6/classCarlaReplayer.html#ac70d3dbe1f79ffd25a695ec3bd2485e6" target="_top" xlink:title="CarlaReplayer::CheckPlay\lAfterMapLoaded">
<polygon fill="#ffffff" stroke="#000000" points="539,-190 539,-220 681,-220 681,-190 539,-190"/>
<text text-anchor="start" x="547" y="-208" font-family="Helvetica,sans-Serif" font-size="10.00" fill="#000000">CarlaReplayer::CheckPlay</text>
<text text-anchor="middle" x="610" y="-197" font-family="Helvetica,sans-Serif" font-size="10.00" fill="#000000">AfterMapLoaded</text>
</a>
</g>
</g>
<!-- Node475&#45;&gt;Node487 -->
<g id="edge24" class="edge">
<title>Node475&#45;&gt;Node487</title>
<path fill="none" stroke="#191970" d="M318.2154,-280.9676C379.0899,-265.1186 486.1422,-237.247 552.2745,-220.0291"/>
<polygon fill="#191970" stroke="#191970" points="317.2886,-277.5921 308.4931,-283.4988 319.0523,-284.3663 317.2886,-277.5921"/>
</g>
<!-- Node492 -->
<g id="node19" class="node">
<title>Node492</title>
<g id="a_node19"><a xlink:href="../../dc/dc6/classCarlaReplayer.html#a4aeceb13aaa5dfcbf3ee42d7582262a4" target="_top" xlink:title="CarlaReplayer::Tick">
<polygon fill="#ffffff" stroke="#000000" points="391,-110.5 391,-129.5 502,-129.5 502,-110.5 391,-110.5"/>
<text text-anchor="middle" x="446.5" y="-117.5" font-family="Helvetica,sans-Serif" font-size="10.00" fill="#000000">CarlaReplayer::Tick</text>
</a>
</g>
</g>
<!-- Node475&#45;&gt;Node492 -->
<g id="edge25" class="edge">
<title>Node475&#45;&gt;Node492</title>
<path fill="none" stroke="#191970" d="M288.9484,-276.1973C324.9631,-240.4921 408.1489,-158.0215 436.6842,-129.7314"/>
<polygon fill="#191970" stroke="#191970" points="286.2678,-273.9263 281.6304,-283.4523 291.1962,-278.8974 286.2678,-273.9263"/>
</g>
<!-- Node476&#45;&gt;Node475 -->
<g id="edge21" class="edge">
<title>Node476&#45;&gt;Node475</title>
<path fill="none" stroke="#191970" d="M379.6486,-299.5833C371.2999,-299.7221 362.6873,-299.7742 354.1403,-299.7397"/>
<polygon fill="#191970" stroke="#191970" points="379.7553,-303.0819 389.679,-299.3711 379.6072,-296.0835 379.7553,-303.0819"/>
</g>
<!-- Node477 -->
<g id="node4" class="node">
<title>Node477</title>
<g id="a_node4"><a xlink:href="../../dc/d84/classUCarlaEpisode.html#a04380aa760fc6891f1c51cdbe7ddb856" target="_top" xlink:title="UCarlaEpisode::EndPlay">
<polygon fill="#ffffff" stroke="#000000" points="543.5,-283.5 543.5,-302.5 676.5,-302.5 676.5,-283.5 543.5,-283.5"/>
<text text-anchor="middle" x="610" y="-290.5" font-family="Helvetica,sans-Serif" font-size="10.00" fill="#000000">UCarlaEpisode::EndPlay</text>
</a>
</g>
</g>
<!-- Node476&#45;&gt;Node477 -->
<g id="edge3" class="edge">
<title>Node476&#45;&gt;Node477</title>
<path fill="none" stroke="#191970" d="M513.3711,-293C523.2349,-293 533.3977,-293 543.2588,-293"/>
<polygon fill="#191970" stroke="#191970" points="513.2255,-289.5001 503.2255,-293 513.2255,-296.5001 513.2255,-289.5001"/>
</g>
<!-- Node479 -->
<g id="node6" class="node">
<title>Node479</title>
<g id="a_node6"><a xlink:href="../../dd/db9/classACarlaRecorder.html#a33fb5180defd8c9c1d3063eff52c7a37" target="_top" xlink:title="ACarlaRecorder::StopReplayer">
<polygon fill="#ffffff" stroke="#000000" points="920,-314.5 920,-333.5 1082,-333.5 1082,-314.5 920,-314.5"/>
<text text-anchor="middle" x="1001" y="-321.5" font-family="Helvetica,sans-Serif" font-size="10.00" fill="#000000">ACarlaRecorder::StopReplayer</text>
</a>
</g>
</g>
<!-- Node476&#45;&gt;Node479 -->
<g id="edge5" class="edge">
<title>Node476&#45;&gt;Node479</title>
<path fill="none" stroke="#191970" d="M495.3529,-304.6399C509.3676,-307.5413 524.7206,-310.3051 539,-312 671.6607,-327.746 827.1885,-328.086 919.7218,-326.3992"/>
<polygon fill="#191970" stroke="#191970" points="495.9297,-301.1842 485.419,-302.5162 494.4663,-308.0295 495.9297,-301.1842"/>
</g>
<!-- Node482 -->
<g id="node9" class="node">
<title>Node482</title>
<g id="a_node9"><a xlink:href="../../dd/db9/classACarlaRecorder.html#aba719596bd56c72a39f902f6e9a5d290" target="_top" xlink:title="ACarlaRecorder::Start">
<polygon fill="#ffffff" stroke="#000000" points="549.5,-242.5 549.5,-261.5 670.5,-261.5 670.5,-242.5 549.5,-242.5"/>
<text text-anchor="middle" x="610" y="-249.5" font-family="Helvetica,sans-Serif" font-size="10.00" fill="#000000">ACarlaRecorder::Start</text>
</a>
</g>
</g>
<!-- Node476&#45;&gt;Node482 -->
<g id="edge8" class="edge">
<title>Node476&#45;&gt;Node482</title>
<path fill="none" stroke="#191970" d="M494.3305,-281.0058C519.073,-274.8013 548.8545,-267.3331 572.0016,-261.5286"/>
<polygon fill="#191970" stroke="#191970" points="493.2695,-277.6634 484.4211,-283.4907 494.9722,-284.4532 493.2695,-277.6634"/>
</g>
<!-- Node476&#45;&gt;Node484 -->
<g id="edge11" class="edge">
<title>Node476&#45;&gt;Node484</title>
<path fill="none" stroke="#191970" d="M461.5361,-310.4919C482.9088,-335.0124 521.4262,-377.8602 539,-389 548.6709,-395.1303 560.0827,-399.8819 570.8958,-403.4784"/>
<polygon fill="#191970" stroke="#191970" points="463.9477,-307.9303 454.7538,-302.665 458.6575,-312.5145 463.9477,-307.9303"/>
</g>
<!-- Node486 -->
<g id="node13" class="node">
<title>Node486</title>
<g id="a_node13"><a xlink:href="../../dc/dc6/classCarlaReplayer.html#a6dadadd7719c5e660d2e3d99b22f5961" target="_top" xlink:title="CarlaReplayer::~CarlaReplayer">
<polygon fill="#ffffff" stroke="#000000" points="717,-365.5 717,-384.5 884,-384.5 884,-365.5 717,-365.5"/>
<text text-anchor="middle" x="800.5" y="-372.5" font-family="Helvetica,sans-Serif" font-size="10.00" fill="#000000">CarlaReplayer::~CarlaReplayer</text>
</a>
</g>
</g>
<!-- Node476&#45;&gt;Node486 -->
<g id="edge22" class="edge">
<title>Node476&#45;&gt;Node486</title>
<path fill="none" stroke="#191970" d="M465.7408,-308.8821C483.5509,-322.6088 511.3759,-341.6678 539,-351 596.3374,-370.3701 664.5267,-376.1048 716.8954,-377.137"/>
<polygon fill="#191970" stroke="#191970" points="467.8612,-306.0968 457.8469,-302.6379 463.5184,-311.5868 467.8612,-306.0968"/>
</g>
<!-- Node476&#45;&gt;Node487 -->
<g id="edge15" class="edge">
<title>Node476&#45;&gt;Node487</title>
<path fill="none" stroke="#191970" d="M467.6714,-277.5201C485.9608,-264.5805 513.4068,-246.1791 539,-233 548.0707,-228.3291 558.1082,-223.9349 567.7102,-220.0735"/>
<polygon fill="#191970" stroke="#191970" points="465.5705,-274.7197 459.4768,-283.3867 469.6453,-280.4115 465.5705,-274.7197"/>
</g>
<!-- Node478 -->
<g id="node5" class="node">
<title>Node478</title>
<g id="a_node5"><a xlink:href="../../db/de5/classACarlaGameModeBase.html#a8e61df047eac428453a627a6de9ace75" target="_top" xlink:title="ACarlaGameModeBase\l::EndPlay">
<polygon fill="#ffffff" stroke="#000000" points="736.5,-278 736.5,-308 864.5,-308 864.5,-278 736.5,-278"/>
<text text-anchor="start" x="744.5" y="-296" font-family="Helvetica,sans-Serif" font-size="10.00" fill="#000000">ACarlaGameModeBase</text>
<text text-anchor="middle" x="800.5" y="-285" font-family="Helvetica,sans-Serif" font-size="10.00" fill="#000000">::EndPlay</text>
</a>
</g>
</g>
<!-- Node477&#45;&gt;Node478 -->
<g id="edge4" class="edge">
<title>Node477&#45;&gt;Node478</title>
<path fill="none" stroke="#191970" d="M686.7777,-293C703.2687,-293 720.5278,-293 736.4741,-293"/>
<polygon fill="#191970" stroke="#191970" points="686.6277,-289.5001 676.6277,-293 686.6276,-296.5001 686.6277,-289.5001"/>
</g>
<!-- Node480 -->
<g id="node7" class="node">
<title>Node480</title>
<g id="a_node7"><a xlink:href="../../d7/d97/classFCarlaServer_1_1FPimpl.html#a675a6b572112a21e8bc011dddfd0de86" target="_top" xlink:title="FCarlaServer::FPimpl\l::BindActions">
<polygon fill="#ffffff" stroke="#000000" points="1141.5,-284 1141.5,-314 1259.5,-314 1259.5,-284 1141.5,-284"/>
<text text-anchor="start" x="1149.5" y="-302" font-family="Helvetica,sans-Serif" font-size="10.00" fill="#000000">FCarlaServer::FPimpl</text>
<text text-anchor="middle" x="1200.5" y="-291" font-family="Helvetica,sans-Serif" font-size="10.00" fill="#000000">::BindActions</text>
</a>
</g>
</g>
<!-- Node479&#45;&gt;Node480 -->
<g id="edge6" class="edge">
<title>Node479&#45;&gt;Node480</title>
<path fill="none" stroke="#191970" d="M1087.1019,-313.2103C1105.446,-310.9115 1124.4177,-308.5341 1141.4721,-306.397"/>
<polygon fill="#191970" stroke="#191970" points="1086.4787,-309.7609 1076.9915,-314.4773 1087.3491,-316.7066 1086.4787,-309.7609"/>
</g>
<!-- Node481 -->
<g id="node8" class="node">
<title>Node481</title>
<g id="a_node8"><a xlink:href="../../d7/d97/classFCarlaServer_1_1FPimpl.html#ab9ff29fc81bd2f9a14677941c7f7b62d" target="_top" xlink:title="FCarlaServer::FPimpl\l::FPimpl">
<polygon fill="#ffffff" stroke="#000000" points="1337.5,-284 1337.5,-314 1455.5,-314 1455.5,-284 1337.5,-284"/>
<text text-anchor="start" x="1345.5" y="-302" font-family="Helvetica,sans-Serif" font-size="10.00" fill="#000000">FCarlaServer::FPimpl</text>
<text text-anchor="middle" x="1396.5" y="-291" font-family="Helvetica,sans-Serif" font-size="10.00" fill="#000000">::FPimpl</text>
</a>
</g>
</g>
<!-- Node480&#45;&gt;Node481 -->
<g id="edge7" class="edge">
<title>Node480&#45;&gt;Node481</title>
<path fill="none" stroke="#191970" d="M1269.8495,-299C1291.857,-299 1315.9781,-299 1337.2105,-299"/>
<polygon fill="#191970" stroke="#191970" points="1269.5723,-295.5001 1259.5723,-299 1269.5722,-302.5001 1269.5723,-295.5001"/>
</g>
<!-- Node483 -->
<g id="node10" class="node">
<title>Node483</title>
<g id="a_node10"><a xlink:href="../../dc/d84/classUCarlaEpisode.html#a1059ce6d102804115b3243de46d46bec" target="_top" xlink:title="UCarlaEpisode::StartRecorder">
<polygon fill="#ffffff" stroke="#000000" points="921,-264.5 921,-283.5 1081,-283.5 1081,-264.5 921,-264.5"/>
<text text-anchor="middle" x="1001" y="-271.5" font-family="Helvetica,sans-Serif" font-size="10.00" fill="#000000">UCarlaEpisode::StartRecorder</text>
</a>
</g>
</g>
<!-- Node482&#45;&gt;Node483 -->
<g id="edge9" class="edge">
<title>Node482&#45;&gt;Node483</title>
<path fill="none" stroke="#191970" d="M680.8032,-255.9838C748.4481,-259.7899 850.2787,-265.5195 920.8667,-269.4912"/>
<polygon fill="#191970" stroke="#191970" points="680.8456,-252.4808 670.6647,-255.4134 680.4523,-259.4697 680.8456,-252.4808"/>
</g>
<!-- Node483&#45;&gt;Node480 -->
<g id="edge10" class="edge">
<title>Node483&#45;&gt;Node480</title>
<path fill="none" stroke="#191970" d="M1087.1019,-284.7897C1105.446,-287.0885 1124.4177,-289.4659 1141.4721,-291.603"/>
<polygon fill="#191970" stroke="#191970" points="1087.3491,-281.2934 1076.9915,-283.5227 1086.4787,-288.2391 1087.3491,-281.2934"/>
</g>
<!-- Node485 -->
<g id="node12" class="node">
<title>Node485</title>
<g id="a_node12"><a xlink:href="../../dd/db9/classACarlaRecorder.html#a5dc891241c275eedcf6b1f189751520b" target="_top" xlink:title="ACarlaRecorder::ReplayFile">
<polygon fill="#ffffff" stroke="#000000" points="927.5,-377.5 927.5,-396.5 1074.5,-396.5 1074.5,-377.5 927.5,-377.5"/>
<text text-anchor="middle" x="1001" y="-384.5" font-family="Helvetica,sans-Serif" font-size="10.00" fill="#000000">ACarlaRecorder::ReplayFile</text>
</a>
</g>
</g>
<!-- Node484&#45;&gt;Node485 -->
<g id="edge12" class="edge">
<title>Node484&#45;&gt;Node485</title>
<path fill="none" stroke="#191970" d="M690.3897,-407.6544C759.9405,-403.0295 859.6809,-396.3972 927.2253,-391.9057"/>
<polygon fill="#191970" stroke="#191970" points="690.1003,-404.1658 680.3545,-408.3217 690.5648,-411.1504 690.1003,-404.1658"/>
</g>
<!-- Node484&#45;&gt;Node486 -->
<g id="edge14" class="edge">
<title>Node484&#45;&gt;Node486</title>
<path fill="none" stroke="#191970" d="M668.2003,-401.3905C695.2938,-395.986 727.125,-389.6365 752.7745,-384.5201"/>
<polygon fill="#191970" stroke="#191970" points="667.1933,-398.0223 658.0712,-403.411 668.5627,-404.8871 667.1933,-398.0223"/>
</g>
<!-- Node485&#45;&gt;Node480 -->
<g id="edge13" class="edge">
<title>Node485&#45;&gt;Node480</title>
<path fill="none" stroke="#191970" d="M1032.3313,-373.1797C1068.7102,-357.1328 1128.5202,-330.7505 1166.1427,-314.1551"/>
<polygon fill="#191970" stroke="#191970" points="1030.4666,-370.1767 1022.7298,-377.4149 1033.2918,-376.5813 1030.4666,-370.1767"/>
</g>
<!-- Node488 -->
<g id="node15" class="node">
<title>Node488</title>
<g id="a_node15"><a xlink:href="../../db/de5/classACarlaGameModeBase.html#a3909b055b351f69d7ad1e39a42e72e3d" target="_top" xlink:title="ACarlaGameModeBase\l::BeginPlay">
<polygon fill="#ffffff" stroke="#000000" points="736.5,-190 736.5,-220 864.5,-220 864.5,-190 736.5,-190"/>
<text text-anchor="start" x="744.5" y="-208" font-family="Helvetica,sans-Serif" font-size="10.00" fill="#000000">ACarlaGameModeBase</text>
<text text-anchor="middle" x="800.5" y="-197" font-family="Helvetica,sans-Serif" font-size="10.00" fill="#000000">::BeginPlay</text>
</a>
</g>
</g>
<!-- Node487&#45;&gt;Node488 -->
<g id="edge16" class="edge">
<title>Node487&#45;&gt;Node488</title>
<path fill="none" stroke="#191970" d="M691.4829,-205C706.4612,-205 721.9036,-205 736.286,-205"/>
<polygon fill="#191970" stroke="#191970" points="691.2061,-201.5001 681.2061,-205 691.206,-208.5001 691.2061,-201.5001"/>
</g>
<!-- Node489 -->
<g id="node16" class="node">
<title>Node489</title>
<g id="a_node16"><a xlink:href="../../dc/d49/classFCarlaEngine.html#ab4c918e4d4855a26ab57c4bb79ad4645" target="_top" xlink:title="FCarlaEngine::NotifyBegin\lEpisode">
<polygon fill="#ffffff" stroke="#000000" points="1128.5,-102 1128.5,-132 1272.5,-132 1272.5,-102 1128.5,-102"/>
<text text-anchor="start" x="1136.5" y="-120" font-family="Helvetica,sans-Serif" font-size="10.00" fill="#000000">FCarlaEngine::NotifyBegin</text>
<text text-anchor="middle" x="1200.5" y="-109" font-family="Helvetica,sans-Serif" font-size="10.00" fill="#000000">Episode</text>
</a>
</g>
</g>
<!-- Node487&#45;&gt;Node489 -->
<g id="edge17" class="edge">
<title>Node487&#45;&gt;Node489</title>
<path fill="none" stroke="#191970" d="M678.6561,-187.6431C691.35,-184.8093 704.5337,-182.1141 717,-180 877.8491,-152.7225 920.7636,-165.8861 1082,-141 1098.1811,-138.5025 1115.5027,-135.2989 1131.7677,-132.0513"/>
<polygon fill="#191970" stroke="#191970" points="677.5745,-184.2998 668.6038,-189.9369 679.1319,-191.1244 677.5745,-184.2998"/>
</g>
<!-- Node490 -->
<g id="node17" class="node">
<title>Node490</title>
<g id="a_node17"><a xlink:href="../../dc/dc6/classCarlaReplayer.html#a47b21aa77b6cdedc32211364843a3173" target="_top" xlink:title="CarlaReplayer::SetIgnoreHero">
<polygon fill="#ffffff" stroke="#000000" points="720,-110.5 720,-129.5 881,-129.5 881,-110.5 720,-110.5"/>
<text text-anchor="middle" x="800.5" y="-117.5" font-family="Helvetica,sans-Serif" font-size="10.00" fill="#000000">CarlaReplayer::SetIgnoreHero</text>
</a>
</g>
</g>
<!-- Node487&#45;&gt;Node490 -->
<g id="edge18" class="edge">
<title>Node487&#45;&gt;Node490</title>
<path fill="none" stroke="#191970" d="M643.5801,-184.7232C664.2745,-172.7554 691.6213,-157.8718 717,-147 732.8252,-140.2207 750.9489,-134.1656 766.2584,-129.5162"/>
<polygon fill="#191970" stroke="#191970" points="641.7244,-181.7538 634.8578,-189.8223 645.2573,-187.7969 641.7244,-181.7538"/>
</g>
<!-- Node491 -->
<g id="node18" class="node">
<title>Node491</title>
<g id="a_node18"><a xlink:href="../../dd/db9/classACarlaRecorder.html#aa4e9ff291f4b6b58c2313b4985b94443" target="_top" xlink:title="ACarlaRecorder::SetReplayer\lIgnoreHero">
<polygon fill="#ffffff" stroke="#000000" points="923,-102 923,-132 1079,-132 1079,-102 923,-102"/>
<text text-anchor="start" x="931" y="-120" font-family="Helvetica,sans-Serif" font-size="10.00" fill="#000000">ACarlaRecorder::SetReplayer</text>
<text text-anchor="middle" x="1001" y="-109" font-family="Helvetica,sans-Serif" font-size="10.00" fill="#000000">IgnoreHero</text>
</a>
</g>
</g>
<!-- Node490&#45;&gt;Node491 -->
<g id="edge19" class="edge">
<title>Node490&#45;&gt;Node491</title>
<path fill="none" stroke="#191970" d="M891.2201,-118.6426C901.7488,-118.4851 912.4189,-118.3254 922.7603,-118.1707"/>
<polygon fill="#191970" stroke="#191970" points="891.1308,-115.1434 881.1843,-118.7928 891.2356,-122.1427 891.1308,-115.1434"/>
</g>
<!-- Node491&#45;&gt;Node480 -->
<g id="edge20" class="edge">
<title>Node491&#45;&gt;Node480</title>
<path fill="none" stroke="#191970" d="M1025.0698,-138.9585C1066.1643,-176.4481 1148.8226,-251.8557 1184.0216,-283.9671"/>
<polygon fill="#191970" stroke="#191970" points="1027.4127,-136.3581 1017.6661,-132.2042 1022.6949,-141.5295 1027.4127,-136.3581"/>
</g>
<!-- Node492&#45;&gt;Node490 -->
<g id="edge36" class="edge">
<title>Node492&#45;&gt;Node490</title>
<path fill="none" stroke="#191970" d="M512.4611,-120C571.1165,-120 657.0625,-120 719.8013,-120"/>
<polygon fill="#191970" stroke="#191970" points="512.202,-116.5001 502.2019,-120 512.2019,-123.5001 512.202,-116.5001"/>
</g>
<!-- Node493 -->
<g id="node20" class="node">
<title>Node493</title>
<g id="a_node20"><a xlink:href="../../dd/db9/classACarlaRecorder.html#a1074f19dfe5b16a9e10b24ef35b26abc" target="_top" xlink:title="ACarlaRecorder::Ticking">
<polygon fill="#ffffff" stroke="#000000" points="543.5,-69.5 543.5,-88.5 676.5,-88.5 676.5,-69.5 543.5,-69.5"/>
<text text-anchor="middle" x="610" y="-76.5" font-family="Helvetica,sans-Serif" font-size="10.00" fill="#000000">ACarlaRecorder::Ticking</text>
</a>
</g>
</g>
<!-- Node492&#45;&gt;Node493 -->
<g id="edge26" class="edge">
<title>Node492&#45;&gt;Node493</title>
<path fill="none" stroke="#191970" d="M494.3305,-108.0058C519.073,-101.8013 548.8545,-94.3331 572.0016,-88.5286"/>
<polygon fill="#191970" stroke="#191970" points="493.2695,-104.6634 484.4211,-110.4907 494.9722,-111.4532 493.2695,-104.6634"/>
</g>
<!-- Node494 -->
<g id="node21" class="node">
<title>Node494</title>
<g id="a_node21"><a xlink:href="../../dc/d49/classFCarlaEngine.html#aff440c7ba9d004e4c5b60125cc4d709b" target="_top" xlink:title="FCarlaEngine::OnPostTick">
<polygon fill="#ffffff" stroke="#000000" points="730,-63.5 730,-82.5 871,-82.5 871,-63.5 730,-63.5"/>
<text text-anchor="middle" x="800.5" y="-70.5" font-family="Helvetica,sans-Serif" font-size="10.00" fill="#000000">FCarlaEngine::OnPostTick</text>
</a>
</g>
</g>
<!-- Node493&#45;&gt;Node494 -->
<g id="edge27" class="edge">
<title>Node493&#45;&gt;Node494</title>
<path fill="none" stroke="#191970" d="M686.8241,-76.5803C700.9904,-76.1342 715.7221,-75.6702 729.7002,-75.2299"/>
<polygon fill="#191970" stroke="#191970" points="686.5125,-73.0883 676.6277,-76.9015 686.7329,-80.0849 686.5125,-73.0883"/>
</g>
<!-- Node495 -->
<g id="node22" class="node">
<title>Node495</title>
<g id="a_node22"><a xlink:href="../../dc/d49/classFCarlaEngine.html#ab8d13063cde985781237dd7da308227e" target="_top" xlink:title="FCarlaEngine::NotifyInitGame">
<polygon fill="#ffffff" stroke="#000000" points="920.5,-63.5 920.5,-82.5 1081.5,-82.5 1081.5,-63.5 920.5,-63.5"/>
<text text-anchor="middle" x="1001" y="-70.5" font-family="Helvetica,sans-Serif" font-size="10.00" fill="#000000">FCarlaEngine::NotifyInitGame</text>
</a>
</g>
</g>
<!-- Node494&#45;&gt;Node495 -->
<g id="edge28" class="edge">
<title>Node494&#45;&gt;Node495</title>
<path fill="none" stroke="#191970" d="M881.377,-73C894.2199,-73 907.5038,-73 920.3416,-73"/>
<polygon fill="#191970" stroke="#191970" points="881.1888,-69.5001 871.1888,-73 881.1888,-76.5001 881.1888,-69.5001"/>
</g>
<!-- Node496 -->
<g id="node23" class="node">
<title>Node496</title>
<g id="a_node23"><a xlink:href="../../dc/d49/classFCarlaEngine.html#a4dfd3b01c0b1413b4f69fda71efc25ce" target="_top" xlink:title="FCarlaEngine::ResetFrame\lCounter">
<polygon fill="#ffffff" stroke="#000000" points="929.5,-14 929.5,-44 1072.5,-44 1072.5,-14 929.5,-14"/>
<text text-anchor="start" x="937.5" y="-32" font-family="Helvetica,sans-Serif" font-size="10.00" fill="#000000">FCarlaEngine::ResetFrame</text>
<text text-anchor="middle" x="1001" y="-21" font-family="Helvetica,sans-Serif" font-size="10.00" fill="#000000">Counter</text>
</a>
</g>
</g>
<!-- Node494&#45;&gt;Node496 -->
<g id="edge29" class="edge">
<title>Node494&#45;&gt;Node496</title>
<path fill="none" stroke="#191970" d="M854.0081,-61.2576C878.0604,-55.9793 906.7378,-49.686 932.3499,-44.0654"/>
<polygon fill="#191970" stroke="#191970" points="853.0228,-57.8904 844.0055,-63.4527 854.5233,-64.7277 853.0228,-57.8904"/>
</g>
<!-- Node496&#45;&gt;Node489 -->
<g id="edge30" class="edge">
<title>Node496&#45;&gt;Node489</title>
<path fill="none" stroke="#191970" d="M1064.9203,-47.4781C1070.7469,-49.5372 1076.5154,-51.7198 1082,-54 1115.3473,-67.8639 1151.7543,-88.0348 1175.2911,-101.7929"/>
<polygon fill="#191970" stroke="#191970" points="1065.6942,-44.0443 1055.0997,-44.134 1063.4377,-50.6707 1065.6942,-44.0443"/>
</g>
<!-- Node497 -->
<g id="node24" class="node">
<title>Node497</title>
<g id="a_node24"><a xlink:href="../../de/db4/classFFrameData.html#a58809cab8ccb22f75c9765869ae136ae" target="_top" xlink:title="FFrameData::SetFrameCounter">
<polygon fill="#ffffff" stroke="#000000" points="1118,-19.5 1118,-38.5 1283,-38.5 1283,-19.5 1118,-19.5"/>
<text text-anchor="middle" x="1200.5" y="-26.5" font-family="Helvetica,sans-Serif" font-size="10.00" fill="#000000">FFrameData::SetFrameCounter</text>
</a>
</g>
</g>
<!-- Node496&#45;&gt;Node497 -->
<g id="edge31" class="edge">
<title>Node496&#45;&gt;Node497</title>
<path fill="none" stroke="#191970" d="M1082.807,-29C1094.3763,-29 1106.2785,-29 1117.8632,-29"/>
<polygon fill="#191970" stroke="#191970" points="1082.7423,-25.5001 1072.7422,-29 1082.7422,-32.5001 1082.7423,-25.5001"/>
</g>
<!-- Node498 -->
<g id="node25" class="node">
<title>Node498</title>
<g id="a_node25"><a xlink:href="../../de/db4/classFFrameData.html#aa23cccda1659af6f10264e73a73c1e27" target="_top" xlink:title="FFrameData::PlayFrameData">
<polygon fill="#ffffff" stroke="#000000" points="1319,-.5 1319,-19.5 1474,-19.5 1474,-.5 1319,-.5"/>
<text text-anchor="middle" x="1396.5" y="-7.5" font-family="Helvetica,sans-Serif" font-size="10.00" fill="#000000">FFrameData::PlayFrameData</text>
</a>
</g>
</g>
<!-- Node497&#45;&gt;Node498 -->
<g id="edge32" class="edge">
<title>Node497&#45;&gt;Node498</title>
<path fill="none" stroke="#191970" d="M1293.0856,-20.0249C1301.6666,-19.193 1310.3032,-18.3558 1318.731,-17.5388"/>
<polygon fill="#191970" stroke="#191970" points="1292.6692,-16.5487 1283.0536,-20.9974 1293.3447,-23.5161 1292.6692,-16.5487"/>
</g>
<!-- Node499 -->
<g id="node26" class="node">
<title>Node499</title>
<g id="a_node26"><a xlink:href="../../de/db4/classFFrameData.html#ab520e8c971f0fa7e95258e6675c6e10c" target="_top" xlink:title="FFrameData::SetEpisode">
<polygon fill="#ffffff" stroke="#000000" points="1510,-19.5 1510,-38.5 1645,-38.5 1645,-19.5 1510,-19.5"/>
<text text-anchor="middle" x="1577.5" y="-26.5" font-family="Helvetica,sans-Serif" font-size="10.00" fill="#000000">FFrameData::SetEpisode</text>
</a>
</g>
</g>
<!-- Node497&#45;&gt;Node499 -->
<g id="edge35" class="edge">
<title>Node497&#45;&gt;Node499</title>
<path fill="none" stroke="#191970" d="M1293.3751,-29C1360.3937,-29 1449.3487,-29 1509.7454,-29"/>
<polygon fill="#191970" stroke="#191970" points="1293.2343,-25.5001 1283.2342,-29 1293.2342,-32.5001 1293.2343,-25.5001"/>
</g>
<!-- Node498&#45;&gt;Node499 -->
<g id="edge33" class="edge">
<title>Node498&#45;&gt;Node499</title>
<path fill="none" stroke="#191970" d="M1484.1403,-19.1998C1492.7671,-20.1054 1501.4285,-21.0146 1509.8107,-21.8945"/>
<polygon fill="#191970" stroke="#191970" points="1484.3587,-15.7036 1474.048,-18.1404 1483.6279,-22.6653 1484.3587,-15.7036"/>
</g>
<!-- Node500 -->
<g id="node27" class="node">
<title>Node500</title>
<g id="a_node27"><a xlink:href="../../dc/d84/classUCarlaEpisode.html#a2f0288d27d5fd7c84c33ebad36621cc7" target="_top" xlink:title="UCarlaEpisode::UCarlaEpisode">
<polygon fill="#ffffff" stroke="#000000" points="1681,-19.5 1681,-38.5 1846,-38.5 1846,-19.5 1681,-19.5"/>
<text text-anchor="middle" x="1763.5" y="-26.5" font-family="Helvetica,sans-Serif" font-size="10.00" fill="#000000">UCarlaEpisode::UCarlaEpisode</text>
</a>
</g>
</g>
<!-- Node499&#45;&gt;Node500 -->
<g id="edge34" class="edge">
<title>Node499&#45;&gt;Node500</title>
<path fill="none" stroke="#191970" d="M1655.3889,-29C1663.8469,-29 1672.4762,-29 1680.9869,-29"/>
<polygon fill="#191970" stroke="#191970" points="1655.1765,-25.5001 1645.1764,-29 1655.1764,-32.5001 1655.1765,-25.5001"/>
</g>
</g>
</svg>
        <g id="navigator" transform="translate(0 0)" fill="#404254">
                <rect fill="#f2f5e9" fill-opacity="0.5" stroke="#606060" stroke-width=".5" x="0" y="0" width="60" height="60"/>
                <use id="zoomplus" xlink:href="#zoomPlus" x="17" y="9" onmousedown="handleZoom(evt,'in')"/>
                <use id="zoomminus" xlink:href="#zoomMin" x="42" y="9" onmousedown="handleZoom(evt,'out')"/>
                <use id="reset" xlink:href="#resetDef" x="30" y="36" onmousedown="handleReset()"/>
                <g id="arrowUp" xlink:href="#dirArrow" transform="translate(30 24)" onmousedown="handlePan(0,-1)">
                  <use xlink:href="#rim" fill="#404040">
                        <set attributeName="fill" to="#808080" begin="arrowUp.mouseover" end="arrowUp.mouseout"/>
                  </use>
                  <path fill="none" stroke="white" stroke-width="1.5" d="M0,-3.0v7 M-2.5,-0.5L0,-3.0L2.5,-0.5"/>
                </g>
                <g id="arrowRight" xlink:href="#dirArrow" transform="rotate(90) translate(36 -43)" onmousedown="handlePan(1,0)">
                  <use xlink:href="#rim" fill="#404040">
                        <set attributeName="fill" to="#808080" begin="arrowRight.mouseover" end="arrowRight.mouseout"/>
                  </use>
                  <path fill="none" stroke="white" stroke-width="1.5" d="M0,-3.0v7 M-2.5,-0.5L0,-3.0L2.5,-0.5"/>
                </g>
                <g id="arrowDown" xlink:href="#dirArrow" transform="rotate(180) translate(-30 -48)" onmousedown="handlePan(0,1)">
                  <use xlink:href="#rim" fill="#404040">
                        <set attributeName="fill" to="#808080" begin="arrowDown.mouseover" end="arrowDown.mouseout"/>
                  </use>
                  <path fill="none" stroke="white" stroke-width="1.5" d="M0,-3.0v7 M-2.5,-0.5L0,-3.0L2.5,-0.5"/>
                </g>
                <g id="arrowLeft" xlink:href="#dirArrow" transform="rotate(270) translate(-36 17)" onmousedown="handlePan(-1,0)">
                  <use xlink:href="#rim" fill="#404040">
                        <set attributeName="fill" to="#808080" begin="arrowLeft.mouseover" end="arrowLeft.mouseout"/>
                  </use>
                  <path fill="none" stroke="white" stroke-width="1.5" d="M0,-3.0v7 M-2.5,-0.5L0,-3.0L2.5,-0.5"/>
                </g>
        </g>
        <svg viewBox="0 0 15 15" width="100%" height="30px" preserveAspectRatio="xMaxYMin meet">
         <g id="arrow_out" transform="scale(0.3 0.3)">
          <a xlink:href="classCarlaReplayer_aaea1d59cb968cbf79045a141601195d5_icgraph_org.svg" target="_base">
           <rect id="button" ry="5" rx="5" y="6" x="6" height="38" width="38"
                fill="#f2f5e9" fill-opacity="0.5" stroke="#606060" stroke-width="1.0"/>
           <path id="arrow"
             d="M 11.500037,31.436501 C 11.940474,20.09759 22.043105,11.32322 32.158766,21.979434 L 37.068811,17.246167 C 37.068811,17.246167 37.088388,32 37.088388,32 L 22.160133,31.978069 C 22.160133,31.978069 26.997745,27.140456 26.997745,27.140456 C 18.528582,18.264221 13.291696,25.230495 11.500037,31.436501 z"
             style="fill:#404040;"/>
          </a>
         </g>
        </svg>
</svg>
