<?xml version="1.0" encoding="UTF-8" standalone="no"?>
<!DOCTYPE svg PUBLIC "-//W3C//DTD SVG 1.1//EN"
 "http://www.w3.org/Graphics/SVG/1.1/DTD/svg11.dtd">
<!-- Generated by graphviz version 2.40.1 (20161225.0304)
 -->
<!-- Title: CarlaReplayer::ProcessEventsParent Pages: 1 -->
<svg width="1980pt" height="401pt"
 viewBox="0.00 0.00 1980.00 400.50" xmlns="http://www.w3.org/2000/svg" xmlns:xlink="http://www.w3.org/1999/xlink">
<g id="graph0" class="graph" transform="scale(1 1) rotate(0) translate(4 396.5)">
<title>CarlaReplayer::ProcessEventsParent</title>
<polygon fill="#ffffff" stroke="transparent" points="-4,4 -4,-396.5 1976,-396.5 1976,4 -4,4"/>
<!-- Node825 -->
<g id="node1" class="node">
<title>Node825</title>
<polygon fill="#bfbfbf" stroke="#000000" points="0,-200.5 0,-230.5 161,-230.5 161,-200.5 0,-200.5"/>
<text text-anchor="start" x="8" y="-218.5" font-family="Helvetica,sans-Serif" font-size="10.00" fill="#000000">CarlaReplayer::ProcessEvents</text>
<text text-anchor="middle" x="80.5" y="-207.5" font-family="Helvetica,sans-Serif" font-size="10.00" fill="#000000">Parent</text>
</g>
<!-- Node826 -->
<g id="node2" class="node">
<title>Node826</title>
<g id="a_node2"><a xlink:href="../../dc/dc6/classCarlaReplayer.html#ae0a5643d88257bdceb9e12d5c33194cb" target="_top" xlink:title="CarlaReplayer::ProcessToTime">
<polygon fill="#ffffff" stroke="#000000" points="197,-206 197,-225 361,-225 361,-206 197,-206"/>
<text text-anchor="middle" x="279" y="-213" font-family="Helvetica,sans-Serif" font-size="10.00" fill="#000000">CarlaReplayer::ProcessToTime</text>
</a>
</g>
</g>
<!-- Node825&#45;&gt;Node826 -->
<g id="edge1" class="edge">
<title>Node825&#45;&gt;Node826</title>
<path fill="none" stroke="#191970" d="M171.456,-215.5C179.8794,-215.5 188.3831,-215.5 196.722,-215.5"/>
<polygon fill="#191970" stroke="#191970" points="171.2376,-212.0001 161.2375,-215.5 171.2375,-219.0001 171.2376,-212.0001"/>
</g>
<!-- Node827 -->
<g id="node3" class="node">
<title>Node827</title>
<g id="a_node3"><a xlink:href="../../dc/dc6/classCarlaReplayer.html#af627917f2c95135fb11b59af4f65dbf7" target="_top" xlink:title="CarlaReplayer::Stop">
<polygon fill="#ffffff" stroke="#000000" points="914,-253 914,-272 1027,-272 1027,-253 914,-253"/>
<text text-anchor="middle" x="970.5" y="-260" font-family="Helvetica,sans-Serif" font-size="10.00" fill="#000000">CarlaReplayer::Stop</text>
</a>
</g>
</g>
<!-- Node826&#45;&gt;Node827 -->
<g id="edge2" class="edge">
<title>Node826&#45;&gt;Node827</title>
<path fill="none" stroke="#191970" d="M371.311,-218.031C379.9876,-218.9118 388.6546,-219.7655 397,-220.5 586.007,-237.1347 810.8275,-247.2705 913.8437,-255.0736"/>
<polygon fill="#191970" stroke="#191970" points="371.4441,-214.5264 361.1397,-216.9902 370.7314,-221.49 371.4441,-214.5264"/>
</g>
<!-- Node835 -->
<g id="node11" class="node">
<title>Node835</title>
<g id="a_node11"><a xlink:href="../../dc/dc6/classCarlaReplayer.html#a480fd94fedc2367d7f7f58f17f3cd5a4" target="_top" xlink:title="CarlaReplayer::ReplayFile">
<polygon fill="#ffffff" stroke="#000000" points="1310.5,-73 1310.5,-92 1450.5,-92 1450.5,-73 1310.5,-73"/>
<text text-anchor="middle" x="1380.5" y="-80" font-family="Helvetica,sans-Serif" font-size="10.00" fill="#000000">CarlaReplayer::ReplayFile</text>
</a>
</g>
</g>
<!-- Node826&#45;&gt;Node835 -->
<g id="edge23" class="edge">
<title>Node826&#45;&gt;Node835</title>
<path fill="none" stroke="#191970" d="M311.7414,-202.1225C370.5209,-179.352 498.2871,-135.5 610.5,-135.5 610.5,-135.5 610.5,-135.5 970.5,-135.5 1104.5357,-135.5 1261.2006,-107.2956 1336.1507,-92.0365"/>
<polygon fill="#191970" stroke="#191970" points="310.2777,-198.937 302.249,-205.8501 312.8364,-205.4526 310.2777,-198.937"/>
</g>
<!-- Node838 -->
<g id="node14" class="node">
<title>Node838</title>
<g id="a_node14"><a xlink:href="../../dc/dc6/classCarlaReplayer.html#ac70d3dbe1f79ffd25a695ec3bd2485e6" target="_top" xlink:title="CarlaReplayer::CheckPlay\lAfterMapLoaded">
<polygon fill="#ffffff" stroke="#000000" points="1104.5,-202.5 1104.5,-232.5 1246.5,-232.5 1246.5,-202.5 1104.5,-202.5"/>
<text text-anchor="start" x="1112.5" y="-220.5" font-family="Helvetica,sans-Serif" font-size="10.00" fill="#000000">CarlaReplayer::CheckPlay</text>
<text text-anchor="middle" x="1175.5" y="-209.5" font-family="Helvetica,sans-Serif" font-size="10.00" fill="#000000">AfterMapLoaded</text>
</a>
</g>
</g>
<!-- Node826&#45;&gt;Node838 -->
<g id="edge24" class="edge">
<title>Node826&#45;&gt;Node838</title>
<path fill="none" stroke="#191970" d="M371.1177,-215.5C437.6373,-215.5 529.6188,-215.5 610.5,-215.5 610.5,-215.5 610.5,-215.5 783.5,-215.5 895.623,-215.5 1025.7832,-216.3283 1104.3276,-216.9188"/>
<polygon fill="#191970" stroke="#191970" points="371.0797,-212.0001 361.0797,-215.5 371.0797,-219.0001 371.0797,-212.0001"/>
</g>
<!-- Node843 -->
<g id="node19" class="node">
<title>Node843</title>
<g id="a_node19"><a xlink:href="../../dc/dc6/classCarlaReplayer.html#a4aeceb13aaa5dfcbf3ee42d7582262a4" target="_top" xlink:title="CarlaReplayer::Tick">
<polygon fill="#ffffff" stroke="#000000" points="397,-88 397,-107 508,-107 508,-88 397,-88"/>
<text text-anchor="middle" x="452.5" y="-95" font-family="Helvetica,sans-Serif" font-size="10.00" fill="#000000">CarlaReplayer::Tick</text>
</a>
</g>
</g>
<!-- Node826&#45;&gt;Node843 -->
<g id="edge25" class="edge">
<title>Node826&#45;&gt;Node843</title>
<path fill="none" stroke="#191970" d="M296.6328,-198.962C318.7833,-178.7977 358.5638,-144.5612 397,-121.5 406.2718,-115.937 417.0671,-110.9654 426.659,-107.0097"/>
<polygon fill="#191970" stroke="#191970" points="294.0312,-196.5998 289.0462,-205.9486 298.7732,-201.749 294.0312,-196.5998"/>
</g>
<!-- Node827&#45;&gt;Node826 -->
<g id="edge21" class="edge">
<title>Node827&#45;&gt;Node826</title>
<path fill="none" stroke="#191970" d="M903.8339,-265.6183C796.8112,-264.6306 580.1005,-254.6149 397,-238.5 363.0919,-235.5157 323.8738,-230.5625 300.2768,-225.0083"/>
<polygon fill="#191970" stroke="#191970" points="903.8204,-269.1182 913.8437,-265.6856 903.8675,-262.1183 903.8204,-269.1182"/>
</g>
<!-- Node828 -->
<g id="node4" class="node">
<title>Node828</title>
<g id="a_node4"><a xlink:href="../../dc/d84/classUCarlaEpisode.html#a04380aa760fc6891f1c51cdbe7ddb856" target="_top" xlink:title="UCarlaEpisode::EndPlay">
<polygon fill="#ffffff" stroke="#000000" points="1109,-253 1109,-272 1242,-272 1242,-253 1109,-253"/>
<text text-anchor="middle" x="1175.5" y="-260" font-family="Helvetica,sans-Serif" font-size="10.00" fill="#000000">UCarlaEpisode::EndPlay</text>
</a>
</g>
</g>
<!-- Node827&#45;&gt;Node828 -->
<g id="edge3" class="edge">
<title>Node827&#45;&gt;Node828</title>
<path fill="none" stroke="#191970" d="M1037.0856,-262.5C1060.1193,-262.5 1085.9229,-262.5 1108.9534,-262.5"/>
<polygon fill="#191970" stroke="#191970" points="1037.0599,-259.0001 1027.0598,-262.5 1037.0598,-266.0001 1037.0599,-259.0001"/>
</g>
<!-- Node830 -->
<g id="node6" class="node">
<title>Node830</title>
<g id="a_node6"><a xlink:href="../../dd/db9/classACarlaRecorder.html#a33fb5180defd8c9c1d3063eff52c7a37" target="_top" xlink:title="ACarlaRecorder::StopReplayer">
<polygon fill="#ffffff" stroke="#000000" points="1499.5,-301 1499.5,-320 1661.5,-320 1661.5,-301 1499.5,-301"/>
<text text-anchor="middle" x="1580.5" y="-308" font-family="Helvetica,sans-Serif" font-size="10.00" fill="#000000">ACarlaRecorder::StopReplayer</text>
</a>
</g>
</g>
<!-- Node827&#45;&gt;Node830 -->
<g id="edge5" class="edge">
<title>Node827&#45;&gt;Node830</title>
<path fill="none" stroke="#191970" d="M998.8842,-276.4646C1021.9826,-287.024 1055.7584,-300.666 1087,-306.5 1230.1808,-333.2374 1400.8227,-326.2281 1499.3142,-318.5013"/>
<polygon fill="#191970" stroke="#191970" points="1000.2183,-273.2247 989.6771,-272.1596 997.2533,-279.5658 1000.2183,-273.2247"/>
</g>
<!-- Node833 -->
<g id="node9" class="node">
<title>Node833</title>
<g id="a_node9"><a xlink:href="../../dd/db9/classACarlaRecorder.html#aba719596bd56c72a39f902f6e9a5d290" target="_top" xlink:title="ACarlaRecorder::Start">
<polygon fill="#ffffff" stroke="#000000" points="1115,-373 1115,-392 1236,-392 1236,-373 1115,-373"/>
<text text-anchor="middle" x="1175.5" y="-380" font-family="Helvetica,sans-Serif" font-size="10.00" fill="#000000">ACarlaRecorder::Start</text>
</a>
</g>
</g>
<!-- Node827&#45;&gt;Node833 -->
<g id="edge8" class="edge">
<title>Node827&#45;&gt;Node833</title>
<path fill="none" stroke="#191970" d="M986.6287,-279.6991C1007.7193,-301.1981 1046.7426,-337.6937 1087,-358.5 1099.021,-364.7128 1112.816,-369.4458 1125.8817,-372.9968"/>
<polygon fill="#191970" stroke="#191970" points="988.9175,-277.0302 979.4584,-272.2577 983.8767,-281.8873 988.9175,-277.0302"/>
</g>
<!-- Node827&#45;&gt;Node835 -->
<g id="edge11" class="edge">
<title>Node827&#45;&gt;Node835</title>
<path fill="none" stroke="#191970" d="M991.6019,-247.1189C1014.1789,-231.3267 1051.5449,-207.061 1087,-192.5 1161.8855,-161.7455 1196.4092,-194.0551 1264,-149.5 1286.2645,-134.8234 1277.6876,-116.1037 1300,-101.5 1305.8873,-97.6467 1312.4702,-94.5724 1319.2665,-92.12"/>
<polygon fill="#191970" stroke="#191970" points="989.561,-244.2754 983.4319,-252.9174 993.6125,-249.9838 989.561,-244.2754"/>
</g>
<!-- Node837 -->
<g id="node13" class="node">
<title>Node837</title>
<g id="a_node13"><a xlink:href="../../dc/dc6/classCarlaReplayer.html#a6dadadd7719c5e660d2e3d99b22f5961" target="_top" xlink:title="CarlaReplayer::~CarlaReplayer">
<polygon fill="#ffffff" stroke="#000000" points="1497,-229 1497,-248 1664,-248 1664,-229 1497,-229"/>
<text text-anchor="middle" x="1580.5" y="-236" font-family="Helvetica,sans-Serif" font-size="10.00" fill="#000000">CarlaReplayer::~CarlaReplayer</text>
</a>
</g>
</g>
<!-- Node827&#45;&gt;Node837 -->
<g id="edge22" class="edge">
<title>Node827&#45;&gt;Node837</title>
<path fill="none" stroke="#191970" d="M1025.1691,-273.8896C1116.4309,-290.9936 1305.1726,-318.2073 1461,-287.5 1499.2797,-279.9566 1540.7289,-260.0307 1563.3549,-248.0397"/>
<polygon fill="#191970" stroke="#191970" points="1025.8021,-270.4473 1015.3235,-272.0122 1024.4909,-277.3234 1025.8021,-270.4473"/>
</g>
<!-- Node827&#45;&gt;Node838 -->
<g id="edge15" class="edge">
<title>Node827&#45;&gt;Node838</title>
<path fill="none" stroke="#191970" d="M1023.8002,-250.8C1049.227,-245.2185 1079.9492,-238.4746 1107.0777,-232.5195"/>
<polygon fill="#191970" stroke="#191970" points="1022.9922,-247.3939 1013.9752,-252.9567 1024.4931,-254.2311 1022.9922,-247.3939"/>
</g>
<!-- Node829 -->
<g id="node5" class="node">
<title>Node829</title>
<g id="a_node5"><a xlink:href="../../db/de5/classACarlaGameModeBase.html#a8e61df047eac428453a627a6de9ace75" target="_top" xlink:title="ACarlaGameModeBase\l::EndPlay">
<polygon fill="#ffffff" stroke="#000000" points="1316.5,-247.5 1316.5,-277.5 1444.5,-277.5 1444.5,-247.5 1316.5,-247.5"/>
<text text-anchor="start" x="1324.5" y="-265.5" font-family="Helvetica,sans-Serif" font-size="10.00" fill="#000000">ACarlaGameModeBase</text>
<text text-anchor="middle" x="1380.5" y="-254.5" font-family="Helvetica,sans-Serif" font-size="10.00" fill="#000000">::EndPlay</text>
</a>
</g>
</g>
<!-- Node828&#45;&gt;Node829 -->
<g id="edge4" class="edge">
<title>Node828&#45;&gt;Node829</title>
<path fill="none" stroke="#191970" d="M1252.2786,-262.5C1273.3885,-262.5 1296.0545,-262.5 1316.3703,-262.5"/>
<polygon fill="#191970" stroke="#191970" points="1252.0577,-259.0001 1242.0576,-262.5 1252.0576,-266.0001 1252.0577,-259.0001"/>
</g>
<!-- Node831 -->
<g id="node7" class="node">
<title>Node831</title>
<g id="a_node7"><a xlink:href="../../d7/d97/classFCarlaServer_1_1FPimpl.html#a675a6b572112a21e8bc011dddfd0de86" target="_top" xlink:title="FCarlaServer::FPimpl\l::BindActions">
<polygon fill="#ffffff" stroke="#000000" points="1700,-111.5 1700,-141.5 1818,-141.5 1818,-111.5 1700,-111.5"/>
<text text-anchor="start" x="1708" y="-129.5" font-family="Helvetica,sans-Serif" font-size="10.00" fill="#000000">FCarlaServer::FPimpl</text>
<text text-anchor="middle" x="1759" y="-118.5" font-family="Helvetica,sans-Serif" font-size="10.00" fill="#000000">::BindActions</text>
</a>
</g>
</g>
<!-- Node830&#45;&gt;Node831 -->
<g id="edge6" class="edge">
<title>Node830&#45;&gt;Node831</title>
<path fill="none" stroke="#191970" d="M1608.816,-296.0863C1625.9248,-286.5516 1647.5326,-272.9789 1664,-257.5 1702.4842,-221.326 1735.6788,-167.6334 1750.5982,-141.6615"/>
<polygon fill="#191970" stroke="#191970" points="1606.9587,-293.1119 1599.8352,-300.9544 1610.2946,-299.266 1606.9587,-293.1119"/>
</g>
<!-- Node832 -->
<g id="node8" class="node">
<title>Node832</title>
<g id="a_node8"><a xlink:href="../../d7/d97/classFCarlaServer_1_1FPimpl.html#ab9ff29fc81bd2f9a14677941c7f7b62d" target="_top" xlink:title="FCarlaServer::FPimpl\l::FPimpl">
<polygon fill="#ffffff" stroke="#000000" points="1854,-111.5 1854,-141.5 1972,-141.5 1972,-111.5 1854,-111.5"/>
<text text-anchor="start" x="1862" y="-129.5" font-family="Helvetica,sans-Serif" font-size="10.00" fill="#000000">FCarlaServer::FPimpl</text>
<text text-anchor="middle" x="1913" y="-118.5" font-family="Helvetica,sans-Serif" font-size="10.00" fill="#000000">::FPimpl</text>
</a>
</g>
</g>
<!-- Node831&#45;&gt;Node832 -->
<g id="edge7" class="edge">
<title>Node831&#45;&gt;Node832</title>
<path fill="none" stroke="#191970" d="M1828.3691,-126.5C1836.8618,-126.5 1845.4796,-126.5 1853.8037,-126.5"/>
<polygon fill="#191970" stroke="#191970" points="1828.1,-123.0001 1818.1,-126.5 1828.1,-130.0001 1828.1,-123.0001"/>
</g>
<!-- Node834 -->
<g id="node10" class="node">
<title>Node834</title>
<g id="a_node10"><a xlink:href="../../dc/d84/classUCarlaEpisode.html#a1059ce6d102804115b3243de46d46bec" target="_top" xlink:title="UCarlaEpisode::StartRecorder">
<polygon fill="#ffffff" stroke="#000000" points="1500.5,-356 1500.5,-375 1660.5,-375 1660.5,-356 1500.5,-356"/>
<text text-anchor="middle" x="1580.5" y="-363" font-family="Helvetica,sans-Serif" font-size="10.00" fill="#000000">UCarlaEpisode::StartRecorder</text>
</a>
</g>
</g>
<!-- Node833&#45;&gt;Node834 -->
<g id="edge9" class="edge">
<title>Node833&#45;&gt;Node834</title>
<path fill="none" stroke="#191970" d="M1246.3094,-379.5278C1317.2152,-376.5515 1426.1596,-371.9785 1500.2345,-368.8692"/>
<polygon fill="#191970" stroke="#191970" points="1245.977,-376.0385 1236.1326,-379.9549 1246.2706,-383.0324 1245.977,-376.0385"/>
</g>
<!-- Node834&#45;&gt;Node831 -->
<g id="edge10" class="edge">
<title>Node834&#45;&gt;Node831</title>
<path fill="none" stroke="#191970" d="M1627.0267,-352.3642C1640.1765,-346.9296 1653.6954,-339.4935 1664,-329.5 1720.8434,-274.3726 1747.3452,-178.6133 1755.8245,-141.6555"/>
<polygon fill="#191970" stroke="#191970" points="1625.6618,-349.1388 1617.5681,-355.9757 1628.1588,-355.6784 1625.6618,-349.1388"/>
</g>
<!-- Node836 -->
<g id="node12" class="node">
<title>Node836</title>
<g id="a_node12"><a xlink:href="../../dd/db9/classACarlaRecorder.html#a5dc891241c275eedcf6b1f189751520b" target="_top" xlink:title="ACarlaRecorder::ReplayFile">
<polygon fill="#ffffff" stroke="#000000" points="1507,-73 1507,-92 1654,-92 1654,-73 1507,-73"/>
<text text-anchor="middle" x="1580.5" y="-80" font-family="Helvetica,sans-Serif" font-size="10.00" fill="#000000">ACarlaRecorder::ReplayFile</text>
</a>
</g>
</g>
<!-- Node835&#45;&gt;Node836 -->
<g id="edge12" class="edge">
<title>Node835&#45;&gt;Node836</title>
<path fill="none" stroke="#191970" d="M1461.0581,-82.5C1476.142,-82.5 1491.8396,-82.5 1506.7059,-82.5"/>
<polygon fill="#191970" stroke="#191970" points="1460.7313,-79.0001 1450.7313,-82.5 1460.7313,-86.0001 1460.7313,-79.0001"/>
</g>
<!-- Node835&#45;&gt;Node837 -->
<g id="edge14" class="edge">
<title>Node835&#45;&gt;Node837</title>
<path fill="none" stroke="#191970" d="M1451.125,-95.9575C1454.5666,-97.598 1457.8825,-99.4375 1461,-101.5 1483.5377,-116.4105 1479.6655,-129.7687 1497,-150.5 1521.9929,-180.3904 1554.4696,-213.0363 1570.5616,-228.8453"/>
<polygon fill="#191970" stroke="#191970" points="1452.348,-92.6755 1441.7709,-92.0631 1449.6576,-99.1378 1452.348,-92.6755"/>
</g>
<!-- Node836&#45;&gt;Node831 -->
<g id="edge13" class="edge">
<title>Node836&#45;&gt;Node831</title>
<path fill="none" stroke="#191970" d="M1633.793,-94.3454C1643.8418,-96.6586 1654.2536,-99.1094 1664,-101.5 1676.6712,-104.608 1690.2527,-108.0909 1703.0689,-111.4471"/>
<polygon fill="#191970" stroke="#191970" points="1634.4317,-90.9012 1623.9033,-92.0855 1632.8723,-97.7253 1634.4317,-90.9012"/>
</g>
<!-- Node839 -->
<g id="node15" class="node">
<title>Node839</title>
<g id="a_node15"><a xlink:href="../../db/de5/classACarlaGameModeBase.html#a3909b055b351f69d7ad1e39a42e72e3d" target="_top" xlink:title="ACarlaGameModeBase\l::BeginPlay">
<polygon fill="#ffffff" stroke="#000000" points="1316.5,-149.5 1316.5,-179.5 1444.5,-179.5 1444.5,-149.5 1316.5,-149.5"/>
<text text-anchor="start" x="1324.5" y="-167.5" font-family="Helvetica,sans-Serif" font-size="10.00" fill="#000000">ACarlaGameModeBase</text>
<text text-anchor="middle" x="1380.5" y="-156.5" font-family="Helvetica,sans-Serif" font-size="10.00" fill="#000000">::BeginPlay</text>
</a>
</g>
</g>
<!-- Node838&#45;&gt;Node839 -->
<g id="edge16" class="edge">
<title>Node838&#45;&gt;Node839</title>
<path fill="none" stroke="#191970" d="M1243.6375,-199.884C1269.0673,-193.3094 1297.6883,-185.9099 1322.1581,-179.5835"/>
<polygon fill="#191970" stroke="#191970" points="1242.502,-196.5624 1233.6964,-202.4541 1244.2542,-203.3395 1242.502,-196.5624"/>
</g>
<!-- Node840 -->
<g id="node16" class="node">
<title>Node840</title>
<g id="a_node16"><a xlink:href="../../dc/d49/classFCarlaEngine.html#ab4c918e4d4855a26ab57c4bb79ad4645" target="_top" xlink:title="FCarlaEngine::NotifyBegin\lEpisode">
<polygon fill="#ffffff" stroke="#000000" points="1308.5,-198.5 1308.5,-228.5 1452.5,-228.5 1452.5,-198.5 1308.5,-198.5"/>
<text text-anchor="start" x="1316.5" y="-216.5" font-family="Helvetica,sans-Serif" font-size="10.00" fill="#000000">FCarlaEngine::NotifyBegin</text>
<text text-anchor="middle" x="1380.5" y="-205.5" font-family="Helvetica,sans-Serif" font-size="10.00" fill="#000000">Episode</text>
</a>
</g>
</g>
<!-- Node838&#45;&gt;Node840 -->
<g id="edge17" class="edge">
<title>Node838&#45;&gt;Node840</title>
<path fill="none" stroke="#191970" d="M1257.0781,-215.9082C1274.0631,-215.5768 1291.8485,-215.2298 1308.46,-214.9057"/>
<polygon fill="#191970" stroke="#191970" points="1256.5535,-212.4177 1246.6237,-216.1122 1256.6901,-219.4164 1256.5535,-212.4177"/>
</g>
<!-- Node841 -->
<g id="node17" class="node">
<title>Node841</title>
<g id="a_node17"><a xlink:href="../../dc/dc6/classCarlaReplayer.html#a47b21aa77b6cdedc32211364843a3173" target="_top" xlink:title="CarlaReplayer::SetIgnoreHero">
<polygon fill="#ffffff" stroke="#000000" points="1300,-111 1300,-130 1461,-130 1461,-111 1300,-111"/>
<text text-anchor="middle" x="1380.5" y="-118" font-family="Helvetica,sans-Serif" font-size="10.00" fill="#000000">CarlaReplayer::SetIgnoreHero</text>
</a>
</g>
</g>
<!-- Node838&#45;&gt;Node841 -->
<g id="edge18" class="edge">
<title>Node838&#45;&gt;Node841</title>
<path fill="none" stroke="#191970" d="M1245.1634,-198.4714C1251.8121,-195.3234 1258.2197,-191.6885 1264,-187.5 1285.5935,-171.8529 1277.6876,-154.1037 1300,-139.5 1305.8873,-135.6467 1312.4702,-132.5724 1319.2665,-130.12"/>
<polygon fill="#191970" stroke="#191970" points="1243.7552,-195.2671 1235.984,-202.4684 1246.5498,-201.685 1243.7552,-195.2671"/>
</g>
<!-- Node842 -->
<g id="node18" class="node">
<title>Node842</title>
<g id="a_node18"><a xlink:href="../../dd/db9/classACarlaRecorder.html#aa4e9ff291f4b6b58c2313b4985b94443" target="_top" xlink:title="ACarlaRecorder::SetReplayer\lIgnoreHero">
<polygon fill="#ffffff" stroke="#000000" points="1502.5,-111.5 1502.5,-141.5 1658.5,-141.5 1658.5,-111.5 1502.5,-111.5"/>
<text text-anchor="start" x="1510.5" y="-129.5" font-family="Helvetica,sans-Serif" font-size="10.00" fill="#000000">ACarlaRecorder::SetReplayer</text>
<text text-anchor="middle" x="1580.5" y="-118.5" font-family="Helvetica,sans-Serif" font-size="10.00" fill="#000000">IgnoreHero</text>
</a>
</g>
</g>
<!-- Node841&#45;&gt;Node842 -->
<g id="edge19" class="edge">
<title>Node841&#45;&gt;Node842</title>
<path fill="none" stroke="#191970" d="M1471.5103,-123.2303C1481.8085,-123.5393 1492.235,-123.852 1502.348,-124.1554"/>
<polygon fill="#191970" stroke="#191970" points="1471.3717,-119.7247 1461.2712,-122.9231 1471.1617,-126.7215 1471.3717,-119.7247"/>
</g>
<!-- Node842&#45;&gt;Node831 -->
<g id="edge20" class="edge">
<title>Node842&#45;&gt;Node831</title>
<path fill="none" stroke="#191970" d="M1668.666,-126.5C1679.2616,-126.5 1689.8776,-126.5 1699.9165,-126.5"/>
<polygon fill="#191970" stroke="#191970" points="1668.5331,-123.0001 1658.533,-126.5 1668.533,-130.0001 1668.5331,-123.0001"/>
</g>
<!-- Node843&#45;&gt;Node841 -->
<g id="edge33" class="edge">
<title>Node843&#45;&gt;Node841</title>
<path fill="none" stroke="#191970" d="M518.5124,-97.5C585.3201,-97.5 691.5881,-97.5 783.5,-97.5 783.5,-97.5 783.5,-97.5 970.5,-97.5 1084.9244,-97.5 1217.0301,-106.5406 1299.6696,-113.2858"/>
<polygon fill="#191970" stroke="#191970" points="518.1372,-94.0001 508.1372,-97.5 518.1372,-101.0001 518.1372,-94.0001"/>
</g>
<!-- Node844 -->
<g id="node20" class="node">
<title>Node844</title>
<g id="a_node20"><a xlink:href="../../dd/db9/classACarlaRecorder.html#a1074f19dfe5b16a9e10b24ef35b26abc" target="_top" xlink:title="ACarlaRecorder::Ticking">
<polygon fill="#ffffff" stroke="#000000" points="544,-50 544,-69 677,-69 677,-50 544,-50"/>
<text text-anchor="middle" x="610.5" y="-57" font-family="Helvetica,sans-Serif" font-size="10.00" fill="#000000">ACarlaRecorder::Ticking</text>
</a>
</g>
</g>
<!-- Node843&#45;&gt;Node844 -->
<g id="edge26" class="edge">
<title>Node843&#45;&gt;Node844</title>
<path fill="none" stroke="#191970" d="M502.2616,-85.532C524.4029,-80.2069 550.1116,-74.0238 570.9166,-69.0201"/>
<polygon fill="#191970" stroke="#191970" points="501.2744,-82.1696 492.3701,-87.911 502.9113,-88.9755 501.2744,-82.1696"/>
</g>
<!-- Node845 -->
<g id="node21" class="node">
<title>Node845</title>
<g id="a_node21"><a xlink:href="../../dc/d49/classFCarlaEngine.html#aff440c7ba9d004e4c5b60125cc4d709b" target="_top" xlink:title="FCarlaEngine::OnPostTick">
<polygon fill="#ffffff" stroke="#000000" points="713,-50 713,-69 854,-69 854,-50 713,-50"/>
<text text-anchor="middle" x="783.5" y="-57" font-family="Helvetica,sans-Serif" font-size="10.00" fill="#000000">FCarlaEngine::OnPostTick</text>
</a>
</g>
</g>
<!-- Node844&#45;&gt;Node845 -->
<g id="edge27" class="edge">
<title>Node844&#45;&gt;Node845</title>
<path fill="none" stroke="#191970" d="M687.5486,-59.5C695.9465,-59.5 704.4647,-59.5 712.7814,-59.5"/>
<polygon fill="#191970" stroke="#191970" points="687.3864,-56.0001 677.3863,-59.5 687.3863,-63.0001 687.3864,-56.0001"/>
</g>
<!-- Node846 -->
<g id="node22" class="node">
<title>Node846</title>
<g id="a_node22"><a xlink:href="../../dc/d49/classFCarlaEngine.html#ab8d13063cde985781237dd7da308227e" target="_top" xlink:title="FCarlaEngine::NotifyInitGame">
<polygon fill="#ffffff" stroke="#000000" points="890,-50 890,-69 1051,-69 1051,-50 890,-50"/>
<text text-anchor="middle" x="970.5" y="-57" font-family="Helvetica,sans-Serif" font-size="10.00" fill="#000000">FCarlaEngine::NotifyInitGame</text>
</a>
</g>
</g>
<!-- Node845&#45;&gt;Node846 -->
<g id="edge28" class="edge">
<title>Node845&#45;&gt;Node846</title>
<path fill="none" stroke="#191970" d="M864.4396,-59.5C872.9095,-59.5 881.5195,-59.5 889.9848,-59.5"/>
<polygon fill="#191970" stroke="#191970" points="864.1967,-56.0001 854.1967,-59.5 864.1966,-63.0001 864.1967,-56.0001"/>
</g>
<!-- Node847 -->
<g id="node23" class="node">
<title>Node847</title>
<g id="a_node23"><a xlink:href="../../dc/d49/classFCarlaEngine.html#a30d1221bfa4d98b62a21cc93d02c594d" target="_top" xlink:title="FCarlaEngine::GetSecondary\lServer">
<polygon fill="#ffffff" stroke="#000000" points="893,-.5 893,-30.5 1048,-30.5 1048,-.5 893,-.5"/>
<text text-anchor="start" x="901" y="-18.5" font-family="Helvetica,sans-Serif" font-size="10.00" fill="#000000">FCarlaEngine::GetSecondary</text>
<text text-anchor="middle" x="970.5" y="-7.5" font-family="Helvetica,sans-Serif" font-size="10.00" fill="#000000">Server</text>
</a>
</g>
</g>
<!-- Node845&#45;&gt;Node847 -->
<g id="edge29" class="edge">
<title>Node845&#45;&gt;Node847</title>
<path fill="none" stroke="#191970" d="M834.0072,-47.616C856.3155,-42.3669 882.7979,-36.1358 906.4722,-30.5654"/>
<polygon fill="#191970" stroke="#191970" points="833.0087,-44.2552 824.0762,-49.9527 834.6121,-51.0691 833.0087,-44.2552"/>
</g>
<!-- Node848 -->
<g id="node24" class="node">
<title>Node848</title>
<g id="a_node24"><a xlink:href="../../dc/d84/classUCarlaEpisode.html#ade49c565b15265f72bb0da9704573a14" target="_top" xlink:title="Load a new map and start a new episode. ">
<polygon fill="#ffffff" stroke="#000000" points="1087,-35 1087,-54 1264,-54 1264,-35 1087,-35"/>
<text text-anchor="middle" x="1175.5" y="-42" font-family="Helvetica,sans-Serif" font-size="10.00" fill="#000000">UCarlaEpisode::LoadNewEpisode</text>
</a>
</g>
</g>
<!-- Node847&#45;&gt;Node848 -->
<g id="edge30" class="edge">
<title>Node847&#45;&gt;Node848</title>
<path fill="none" stroke="#191970" d="M1058.3344,-27.9254C1075.0661,-30.2923 1092.3301,-32.7345 1108.2933,-34.9927"/>
<polygon fill="#191970" stroke="#191970" points="1058.3934,-24.3989 1048.0017,-26.4637 1057.4129,-31.3299 1058.3934,-24.3989"/>
</g>
<!-- Node848&#45;&gt;Node831 -->
<g id="edge32" class="edge">
<title>Node848&#45;&gt;Node831</title>
<path fill="none" stroke="#191970" d="M1262.2081,-34.0466C1361.8189,-25.1578 1528.9078,-19.895 1664,-63.5 1694.51,-73.348 1724.4487,-95.9606 1742.3214,-111.2389"/>
<polygon fill="#191970" stroke="#191970" points="1261.8231,-30.5672 1252.1879,-34.9734 1262.4678,-37.5374 1261.8231,-30.5672"/>
</g>
<!-- Node848&#45;&gt;Node835 -->
<g id="edge31" class="edge">
<title>Node848&#45;&gt;Node835</title>
<path fill="none" stroke="#191970" d="M1237.0978,-55.9181C1266.4296,-61.3552 1301.107,-67.7832 1329.0133,-72.9561"/>
<polygon fill="#191970" stroke="#191970" points="1237.436,-52.4213 1226.9655,-54.04 1236.1601,-59.304 1237.436,-52.4213"/>
</g>
</g>
</svg>
