<?xml version="1.0" encoding="UTF-8" standalone="no"?>
<!DOCTYPE svg PUBLIC "-//W3C//DTD SVG 1.1//EN"
 "http://www.w3.org/Graphics/SVG/1.1/DTD/svg11.dtd">
<!-- Generated by graphviz version 2.40.1 (20161225.0304)
 -->
<!-- Title: CarlaReplayer::ProcessEventsDel Pages: 1 -->
<svg width="1448pt" height="418pt"
 viewBox="0.00 0.00 1448.00 417.50" xmlns="http://www.w3.org/2000/svg" xmlns:xlink="http://www.w3.org/1999/xlink">
<g id="graph0" class="graph" transform="scale(1 1) rotate(0) translate(4 413.5)">
<title>CarlaReplayer::ProcessEventsDel</title>
<polygon fill="#ffffff" stroke="transparent" points="-4,4 -4,-413.5 1444,-413.5 1444,4 -4,4"/>
<!-- Node589 -->
<g id="node1" class="node">
<title>Node589</title>
<polygon fill="#bfbfbf" stroke="#000000" points="0,-270 0,-289 178,-289 178,-270 0,-270"/>
<text text-anchor="middle" x="89" y="-277" font-family="Helvetica,sans-Serif" font-size="10.00" fill="#000000">CarlaReplayer::ProcessEventsDel</text>
</g>
<!-- Node590 -->
<g id="node2" class="node">
<title>Node590</title>
<g id="a_node2"><a xlink:href="../../dc/dc6/classCarlaReplayer.html#ae0a5643d88257bdceb9e12d5c33194cb" target="_top" xlink:title="CarlaReplayer::ProcessToTime">
<polygon fill="#ffffff" stroke="#000000" points="214,-270 214,-289 378,-289 378,-270 214,-270"/>
<text text-anchor="middle" x="296" y="-277" font-family="Helvetica,sans-Serif" font-size="10.00" fill="#000000">CarlaReplayer::ProcessToTime</text>
</a>
</g>
</g>
<!-- Node589&#45;&gt;Node590 -->
<g id="edge1" class="edge">
<title>Node589&#45;&gt;Node590</title>
<path fill="none" stroke="#191970" d="M188.3054,-279.5C196.8653,-279.5 205.4635,-279.5 213.8653,-279.5"/>
<polygon fill="#191970" stroke="#191970" points="188.2886,-276.0001 178.2886,-279.5 188.2885,-283.0001 188.2886,-276.0001"/>
</g>
<!-- Node591 -->
<g id="node3" class="node">
<title>Node591</title>
<g id="a_node3"><a xlink:href="../../dc/dc6/classCarlaReplayer.html#af627917f2c95135fb11b59af4f65dbf7" target="_top" xlink:title="CarlaReplayer::Stop">
<polygon fill="#ffffff" stroke="#000000" points="414,-270 414,-289 527,-289 527,-270 414,-270"/>
<text text-anchor="middle" x="470.5" y="-277" font-family="Helvetica,sans-Serif" font-size="10.00" fill="#000000">CarlaReplayer::Stop</text>
</a>
</g>
</g>
<!-- Node590&#45;&gt;Node591 -->
<g id="edge2" class="edge">
<title>Node590&#45;&gt;Node591</title>
<path fill="none" stroke="#191970" d="M388.2944,-272.76C396.9357,-272.7945 405.5107,-272.9174 413.679,-273.1289"/>
<polygon fill="#191970" stroke="#191970" points="388.1402,-269.2599 378.1403,-272.7603 388.1404,-276.2599 388.1402,-269.2599"/>
</g>
<!-- Node599 -->
<g id="node11" class="node">
<title>Node599</title>
<g id="a_node11"><a xlink:href="../../dc/dc6/classCarlaReplayer.html#a480fd94fedc2367d7f7f58f17f3cd5a4" target="_top" xlink:title="CarlaReplayer::ReplayFile">
<polygon fill="#ffffff" stroke="#000000" points="564,-390 564,-409 704,-409 704,-390 564,-390"/>
<text text-anchor="middle" x="634" y="-397" font-family="Helvetica,sans-Serif" font-size="10.00" fill="#000000">CarlaReplayer::ReplayFile</text>
</a>
</g>
</g>
<!-- Node590&#45;&gt;Node599 -->
<g id="edge23" class="edge">
<title>Node590&#45;&gt;Node599</title>
<path fill="none" stroke="#191970" d="M332.3021,-292.3883C400.638,-316.6496 546.9169,-368.5829 607.1924,-389.9825"/>
<polygon fill="#191970" stroke="#191970" points="333.3995,-289.064 322.8048,-289.0165 331.0575,-295.6606 333.3995,-289.064"/>
</g>
<!-- Node602 -->
<g id="node14" class="node">
<title>Node602</title>
<g id="a_node14"><a xlink:href="../../dc/dc6/classCarlaReplayer.html#ac70d3dbe1f79ffd25a695ec3bd2485e6" target="_top" xlink:title="CarlaReplayer::CheckPlay\lAfterMapLoaded">
<polygon fill="#ffffff" stroke="#000000" points="563,-176.5 563,-206.5 705,-206.5 705,-176.5 563,-176.5"/>
<text text-anchor="start" x="571" y="-194.5" font-family="Helvetica,sans-Serif" font-size="10.00" fill="#000000">CarlaReplayer::CheckPlay</text>
<text text-anchor="middle" x="634" y="-183.5" font-family="Helvetica,sans-Serif" font-size="10.00" fill="#000000">AfterMapLoaded</text>
</a>
</g>
</g>
<!-- Node590&#45;&gt;Node602 -->
<g id="edge24" class="edge">
<title>Node590&#45;&gt;Node602</title>
<path fill="none" stroke="#191970" d="M342.2154,-267.4676C403.0899,-251.6186 510.1422,-223.747 576.2745,-206.5291"/>
<polygon fill="#191970" stroke="#191970" points="341.2886,-264.0921 332.4931,-269.9988 343.0523,-270.8663 341.2886,-264.0921"/>
</g>
<!-- Node607 -->
<g id="node19" class="node">
<title>Node607</title>
<g id="a_node19"><a xlink:href="../../dc/dc6/classCarlaReplayer.html#a4aeceb13aaa5dfcbf3ee42d7582262a4" target="_top" xlink:title="CarlaReplayer::Tick">
<polygon fill="#ffffff" stroke="#000000" points="415,-97 415,-116 526,-116 526,-97 415,-97"/>
<text text-anchor="middle" x="470.5" y="-104" font-family="Helvetica,sans-Serif" font-size="10.00" fill="#000000">CarlaReplayer::Tick</text>
</a>
</g>
</g>
<!-- Node590&#45;&gt;Node607 -->
<g id="edge25" class="edge">
<title>Node590&#45;&gt;Node607</title>
<path fill="none" stroke="#191970" d="M312.9484,-262.6973C348.9631,-226.9921 432.1489,-144.5215 460.6842,-116.2314"/>
<polygon fill="#191970" stroke="#191970" points="310.2678,-260.4263 305.6304,-269.9523 315.1962,-265.3974 310.2678,-260.4263"/>
</g>
<!-- Node591&#45;&gt;Node590 -->
<g id="edge21" class="edge">
<title>Node591&#45;&gt;Node590</title>
<path fill="none" stroke="#191970" d="M403.6486,-286.0833C395.2999,-286.2221 386.6873,-286.2742 378.1403,-286.2397"/>
<polygon fill="#191970" stroke="#191970" points="403.7553,-289.5819 413.679,-285.8711 403.6072,-282.5835 403.7553,-289.5819"/>
</g>
<!-- Node592 -->
<g id="node4" class="node">
<title>Node592</title>
<g id="a_node4"><a xlink:href="../../dc/d84/classUCarlaEpisode.html#a04380aa760fc6891f1c51cdbe7ddb856" target="_top" xlink:title="UCarlaEpisode::EndPlay">
<polygon fill="#ffffff" stroke="#000000" points="567.5,-270 567.5,-289 700.5,-289 700.5,-270 567.5,-270"/>
<text text-anchor="middle" x="634" y="-277" font-family="Helvetica,sans-Serif" font-size="10.00" fill="#000000">UCarlaEpisode::EndPlay</text>
</a>
</g>
</g>
<!-- Node591&#45;&gt;Node592 -->
<g id="edge3" class="edge">
<title>Node591&#45;&gt;Node592</title>
<path fill="none" stroke="#191970" d="M537.3711,-279.5C547.2349,-279.5 557.3977,-279.5 567.2588,-279.5"/>
<polygon fill="#191970" stroke="#191970" points="537.2255,-276.0001 527.2255,-279.5 537.2255,-283.0001 537.2255,-276.0001"/>
</g>
<!-- Node594 -->
<g id="node6" class="node">
<title>Node594</title>
<g id="a_node6"><a xlink:href="../../dd/db9/classACarlaRecorder.html#a33fb5180defd8c9c1d3063eff52c7a37" target="_top" xlink:title="ACarlaRecorder::StopReplayer">
<polygon fill="#ffffff" stroke="#000000" points="944,-301 944,-320 1106,-320 1106,-301 944,-301"/>
<text text-anchor="middle" x="1025" y="-308" font-family="Helvetica,sans-Serif" font-size="10.00" fill="#000000">ACarlaRecorder::StopReplayer</text>
</a>
</g>
</g>
<!-- Node591&#45;&gt;Node594 -->
<g id="edge5" class="edge">
<title>Node591&#45;&gt;Node594</title>
<path fill="none" stroke="#191970" d="M519.3529,-291.1399C533.3676,-294.0413 548.7206,-296.8051 563,-298.5 695.6607,-314.246 851.1885,-314.586 943.7218,-312.8992"/>
<polygon fill="#191970" stroke="#191970" points="519.9297,-287.6842 509.419,-289.0162 518.4663,-294.5295 519.9297,-287.6842"/>
</g>
<!-- Node597 -->
<g id="node9" class="node">
<title>Node597</title>
<g id="a_node9"><a xlink:href="../../dd/db9/classACarlaRecorder.html#aba719596bd56c72a39f902f6e9a5d290" target="_top" xlink:title="ACarlaRecorder::Start">
<polygon fill="#ffffff" stroke="#000000" points="573.5,-229 573.5,-248 694.5,-248 694.5,-229 573.5,-229"/>
<text text-anchor="middle" x="634" y="-236" font-family="Helvetica,sans-Serif" font-size="10.00" fill="#000000">ACarlaRecorder::Start</text>
</a>
</g>
</g>
<!-- Node591&#45;&gt;Node597 -->
<g id="edge8" class="edge">
<title>Node591&#45;&gt;Node597</title>
<path fill="none" stroke="#191970" d="M518.3305,-267.5058C543.073,-261.3013 572.8545,-253.8331 596.0016,-248.0286"/>
<polygon fill="#191970" stroke="#191970" points="517.2695,-264.1634 508.4211,-269.9907 518.9722,-270.9532 517.2695,-264.1634"/>
</g>
<!-- Node591&#45;&gt;Node599 -->
<g id="edge11" class="edge">
<title>Node591&#45;&gt;Node599</title>
<path fill="none" stroke="#191970" d="M485.5361,-296.9919C506.9088,-321.5124 545.4262,-364.3602 563,-375.5 572.6709,-381.6303 584.0827,-386.3819 594.8958,-389.9784"/>
<polygon fill="#191970" stroke="#191970" points="487.9477,-294.4303 478.7538,-289.165 482.6575,-299.0145 487.9477,-294.4303"/>
</g>
<!-- Node601 -->
<g id="node13" class="node">
<title>Node601</title>
<g id="a_node13"><a xlink:href="../../dc/dc6/classCarlaReplayer.html#a6dadadd7719c5e660d2e3d99b22f5961" target="_top" xlink:title="CarlaReplayer::~CarlaReplayer">
<polygon fill="#ffffff" stroke="#000000" points="741,-352 741,-371 908,-371 908,-352 741,-352"/>
<text text-anchor="middle" x="824.5" y="-359" font-family="Helvetica,sans-Serif" font-size="10.00" fill="#000000">CarlaReplayer::~CarlaReplayer</text>
</a>
</g>
</g>
<!-- Node591&#45;&gt;Node601 -->
<g id="edge22" class="edge">
<title>Node591&#45;&gt;Node601</title>
<path fill="none" stroke="#191970" d="M489.7408,-295.3821C507.5509,-309.1088 535.3759,-328.1678 563,-337.5 620.3374,-356.8701 688.5267,-362.6048 740.8954,-363.637"/>
<polygon fill="#191970" stroke="#191970" points="491.8612,-292.5968 481.8469,-289.1379 487.5184,-298.0868 491.8612,-292.5968"/>
</g>
<!-- Node591&#45;&gt;Node602 -->
<g id="edge15" class="edge">
<title>Node591&#45;&gt;Node602</title>
<path fill="none" stroke="#191970" d="M491.6714,-264.0201C509.9608,-251.0805 537.4068,-232.6791 563,-219.5 572.0707,-214.8291 582.1082,-210.4349 591.7102,-206.5735"/>
<polygon fill="#191970" stroke="#191970" points="489.5705,-261.2197 483.4768,-269.8867 493.6453,-266.9115 489.5705,-261.2197"/>
</g>
<!-- Node593 -->
<g id="node5" class="node">
<title>Node593</title>
<g id="a_node5"><a xlink:href="../../db/de5/classACarlaGameModeBase.html#a8e61df047eac428453a627a6de9ace75" target="_top" xlink:title="ACarlaGameModeBase\l::EndPlay">
<polygon fill="#ffffff" stroke="#000000" points="760.5,-264.5 760.5,-294.5 888.5,-294.5 888.5,-264.5 760.5,-264.5"/>
<text text-anchor="start" x="768.5" y="-282.5" font-family="Helvetica,sans-Serif" font-size="10.00" fill="#000000">ACarlaGameModeBase</text>
<text text-anchor="middle" x="824.5" y="-271.5" font-family="Helvetica,sans-Serif" font-size="10.00" fill="#000000">::EndPlay</text>
</a>
</g>
</g>
<!-- Node592&#45;&gt;Node593 -->
<g id="edge4" class="edge">
<title>Node592&#45;&gt;Node593</title>
<path fill="none" stroke="#191970" d="M710.7777,-279.5C727.2687,-279.5 744.5278,-279.5 760.4741,-279.5"/>
<polygon fill="#191970" stroke="#191970" points="710.6277,-276.0001 700.6277,-279.5 710.6276,-283.0001 710.6277,-276.0001"/>
</g>
<!-- Node595 -->
<g id="node7" class="node">
<title>Node595</title>
<g id="a_node7"><a xlink:href="../../d7/d97/classFCarlaServer_1_1FPimpl.html#a675a6b572112a21e8bc011dddfd0de86" target="_top" xlink:title="FCarlaServer::FPimpl\l::BindActions">
<polygon fill="#ffffff" stroke="#000000" points="1155,-270.5 1155,-300.5 1273,-300.5 1273,-270.5 1155,-270.5"/>
<text text-anchor="start" x="1163" y="-288.5" font-family="Helvetica,sans-Serif" font-size="10.00" fill="#000000">FCarlaServer::FPimpl</text>
<text text-anchor="middle" x="1214" y="-277.5" font-family="Helvetica,sans-Serif" font-size="10.00" fill="#000000">::BindActions</text>
</a>
</g>
</g>
<!-- Node594&#45;&gt;Node595 -->
<g id="edge6" class="edge">
<title>Node594&#45;&gt;Node595</title>
<path fill="none" stroke="#191970" d="M1106.9336,-299.6622C1123.0308,-297.533 1139.6233,-295.3382 1154.7977,-293.331"/>
<polygon fill="#191970" stroke="#191970" points="1106.4466,-296.1961 1096.992,-300.9773 1107.3646,-303.1356 1106.4466,-296.1961"/>
</g>
<!-- Node596 -->
<g id="node8" class="node">
<title>Node596</title>
<g id="a_node8"><a xlink:href="../../d7/d97/classFCarlaServer_1_1FPimpl.html#a5521999cb8b42460143ad4b1cd869398" target="_top" xlink:title="FCarlaServer::FPimpl\l::FPimpl">
<polygon fill="#ffffff" stroke="#000000" points="1322,-270.5 1322,-300.5 1440,-300.5 1440,-270.5 1322,-270.5"/>
<text text-anchor="start" x="1330" y="-288.5" font-family="Helvetica,sans-Serif" font-size="10.00" fill="#000000">FCarlaServer::FPimpl</text>
<text text-anchor="middle" x="1381" y="-277.5" font-family="Helvetica,sans-Serif" font-size="10.00" fill="#000000">::FPimpl</text>
</a>
</g>
</g>
<!-- Node595&#45;&gt;Node596 -->
<g id="edge7" class="edge">
<title>Node595&#45;&gt;Node596</title>
<path fill="none" stroke="#191970" d="M1283.4589,-285.5C1296.2159,-285.5 1309.4231,-285.5 1321.8429,-285.5"/>
<polygon fill="#191970" stroke="#191970" points="1283.3482,-282.0001 1273.3482,-285.5 1283.3481,-289.0001 1283.3482,-282.0001"/>
</g>
<!-- Node598 -->
<g id="node10" class="node">
<title>Node598</title>
<g id="a_node10"><a xlink:href="../../dc/d84/classUCarlaEpisode.html#a1059ce6d102804115b3243de46d46bec" target="_top" xlink:title="UCarlaEpisode::StartRecorder">
<polygon fill="#ffffff" stroke="#000000" points="945,-251 945,-270 1105,-270 1105,-251 945,-251"/>
<text text-anchor="middle" x="1025" y="-258" font-family="Helvetica,sans-Serif" font-size="10.00" fill="#000000">UCarlaEpisode::StartRecorder</text>
</a>
</g>
</g>
<!-- Node597&#45;&gt;Node598 -->
<g id="edge9" class="edge">
<title>Node597&#45;&gt;Node598</title>
<path fill="none" stroke="#191970" d="M704.8032,-242.4838C772.4481,-246.2899 874.2787,-252.0195 944.8667,-255.9912"/>
<polygon fill="#191970" stroke="#191970" points="704.8456,-238.9808 694.6647,-241.9134 704.4523,-245.9697 704.8456,-238.9808"/>
</g>
<!-- Node598&#45;&gt;Node595 -->
<g id="edge10" class="edge">
<title>Node598&#45;&gt;Node595</title>
<path fill="none" stroke="#191970" d="M1106.9336,-271.3378C1123.0308,-273.467 1139.6233,-275.6618 1154.7977,-277.669"/>
<polygon fill="#191970" stroke="#191970" points="1107.3646,-267.8644 1096.992,-270.0227 1106.4466,-274.8039 1107.3646,-267.8644"/>
</g>
<!-- Node600 -->
<g id="node12" class="node">
<title>Node600</title>
<g id="a_node12"><a xlink:href="../../dd/db9/classACarlaRecorder.html#a5dc891241c275eedcf6b1f189751520b" target="_top" xlink:title="ACarlaRecorder::ReplayFile">
<polygon fill="#ffffff" stroke="#000000" points="951.5,-364 951.5,-383 1098.5,-383 1098.5,-364 951.5,-364"/>
<text text-anchor="middle" x="1025" y="-371" font-family="Helvetica,sans-Serif" font-size="10.00" fill="#000000">ACarlaRecorder::ReplayFile</text>
</a>
</g>
</g>
<!-- Node599&#45;&gt;Node600 -->
<g id="edge12" class="edge">
<title>Node599&#45;&gt;Node600</title>
<path fill="none" stroke="#191970" d="M714.3897,-394.1544C783.9405,-389.5295 883.6809,-382.8972 951.2253,-378.4057"/>
<polygon fill="#191970" stroke="#191970" points="714.1003,-390.6658 704.3545,-394.8217 714.5648,-397.6504 714.1003,-390.6658"/>
</g>
<!-- Node599&#45;&gt;Node601 -->
<g id="edge14" class="edge">
<title>Node599&#45;&gt;Node601</title>
<path fill="none" stroke="#191970" d="M692.2003,-387.8905C719.2938,-382.486 751.125,-376.1365 776.7745,-371.0201"/>
<polygon fill="#191970" stroke="#191970" points="691.1933,-384.5223 682.0712,-389.911 692.5627,-391.3871 691.1933,-384.5223"/>
</g>
<!-- Node600&#45;&gt;Node595 -->
<g id="edge13" class="edge">
<title>Node600&#45;&gt;Node595</title>
<path fill="none" stroke="#191970" d="M1054.6822,-359.6797C1089.1465,-343.6328 1145.8086,-317.2505 1181.4509,-300.6551"/>
<polygon fill="#191970" stroke="#191970" points="1053.1743,-356.521 1045.5861,-363.9149 1056.129,-362.8668 1053.1743,-356.521"/>
</g>
<!-- Node603 -->
<g id="node15" class="node">
<title>Node603</title>
<g id="a_node15"><a xlink:href="../../db/de5/classACarlaGameModeBase.html#a3909b055b351f69d7ad1e39a42e72e3d" target="_top" xlink:title="ACarlaGameModeBase\l::BeginPlay">
<polygon fill="#ffffff" stroke="#000000" points="760.5,-176.5 760.5,-206.5 888.5,-206.5 888.5,-176.5 760.5,-176.5"/>
<text text-anchor="start" x="768.5" y="-194.5" font-family="Helvetica,sans-Serif" font-size="10.00" fill="#000000">ACarlaGameModeBase</text>
<text text-anchor="middle" x="824.5" y="-183.5" font-family="Helvetica,sans-Serif" font-size="10.00" fill="#000000">::BeginPlay</text>
</a>
</g>
</g>
<!-- Node602&#45;&gt;Node603 -->
<g id="edge16" class="edge">
<title>Node602&#45;&gt;Node603</title>
<path fill="none" stroke="#191970" d="M715.4829,-191.5C730.4612,-191.5 745.9036,-191.5 760.286,-191.5"/>
<polygon fill="#191970" stroke="#191970" points="715.2061,-188.0001 705.2061,-191.5 715.206,-195.0001 715.2061,-188.0001"/>
</g>
<!-- Node604 -->
<g id="node16" class="node">
<title>Node604</title>
<g id="a_node16"><a xlink:href="../../dc/d49/classFCarlaEngine.html#ab4c918e4d4855a26ab57c4bb79ad4645" target="_top" xlink:title="FCarlaEngine::NotifyBegin\lEpisode">
<polygon fill="#ffffff" stroke="#000000" points="1142,-66.5 1142,-96.5 1286,-96.5 1286,-66.5 1142,-66.5"/>
<text text-anchor="start" x="1150" y="-84.5" font-family="Helvetica,sans-Serif" font-size="10.00" fill="#000000">FCarlaEngine::NotifyBegin</text>
<text text-anchor="middle" x="1214" y="-73.5" font-family="Helvetica,sans-Serif" font-size="10.00" fill="#000000">Episode</text>
</a>
</g>
</g>
<!-- Node602&#45;&gt;Node604 -->
<g id="edge17" class="edge">
<title>Node602&#45;&gt;Node604</title>
<path fill="none" stroke="#191970" d="M702.6561,-174.1431C715.35,-171.3093 728.5337,-168.6141 741,-166.5 901.8491,-139.2225 948.1115,-168.5817 1106,-127.5 1133.8097,-120.2641 1163.7482,-107.0444 1185.0341,-96.6276"/>
<polygon fill="#191970" stroke="#191970" points="701.5745,-170.7998 692.6038,-176.4369 703.1319,-177.6244 701.5745,-170.7998"/>
</g>
<!-- Node605 -->
<g id="node17" class="node">
<title>Node605</title>
<g id="a_node17"><a xlink:href="../../dc/dc6/classCarlaReplayer.html#a47b21aa77b6cdedc32211364843a3173" target="_top" xlink:title="CarlaReplayer::SetIgnoreHero">
<polygon fill="#ffffff" stroke="#000000" points="744,-97 744,-116 905,-116 905,-97 744,-97"/>
<text text-anchor="middle" x="824.5" y="-104" font-family="Helvetica,sans-Serif" font-size="10.00" fill="#000000">CarlaReplayer::SetIgnoreHero</text>
</a>
</g>
</g>
<!-- Node602&#45;&gt;Node605 -->
<g id="edge18" class="edge">
<title>Node602&#45;&gt;Node605</title>
<path fill="none" stroke="#191970" d="M667.5801,-171.2232C688.2745,-159.2554 715.6213,-144.3718 741,-133.5 756.8252,-126.7207 774.9489,-120.6656 790.2584,-116.0162"/>
<polygon fill="#191970" stroke="#191970" points="665.7244,-168.2538 658.8578,-176.3223 669.2573,-174.2969 665.7244,-168.2538"/>
</g>
<!-- Node606 -->
<g id="node18" class="node">
<title>Node606</title>
<g id="a_node18"><a xlink:href="../../dd/db9/classACarlaRecorder.html#aa4e9ff291f4b6b58c2313b4985b94443" target="_top" xlink:title="ACarlaRecorder::SetReplayer\lIgnoreHero">
<polygon fill="#ffffff" stroke="#000000" points="947,-88.5 947,-118.5 1103,-118.5 1103,-88.5 947,-88.5"/>
<text text-anchor="start" x="955" y="-106.5" font-family="Helvetica,sans-Serif" font-size="10.00" fill="#000000">ACarlaRecorder::SetReplayer</text>
<text text-anchor="middle" x="1025" y="-95.5" font-family="Helvetica,sans-Serif" font-size="10.00" fill="#000000">IgnoreHero</text>
</a>
</g>
</g>
<!-- Node605&#45;&gt;Node606 -->
<g id="edge19" class="edge">
<title>Node605&#45;&gt;Node606</title>
<path fill="none" stroke="#191970" d="M915.2201,-105.1426C925.7488,-104.9851 936.4189,-104.8254 946.7603,-104.6707"/>
<polygon fill="#191970" stroke="#191970" points="915.1308,-101.6434 905.1843,-105.2928 915.2356,-108.6427 915.1308,-101.6434"/>
</g>
<!-- Node606&#45;&gt;Node595 -->
<g id="edge20" class="edge">
<title>Node606&#45;&gt;Node595</title>
<path fill="none" stroke="#191970" d="M1048.0463,-125.6928C1087.06,-163.2615 1165.1118,-238.4224 1198.3889,-270.4671"/>
<polygon fill="#191970" stroke="#191970" points="1050.4199,-123.1195 1040.789,-118.7042 1045.5644,-128.1618 1050.4199,-123.1195"/>
</g>
<!-- Node607&#45;&gt;Node605 -->
<g id="edge31" class="edge">
<title>Node607&#45;&gt;Node605</title>
<path fill="none" stroke="#191970" d="M536.4611,-106.5C595.1165,-106.5 681.0625,-106.5 743.8013,-106.5"/>
<polygon fill="#191970" stroke="#191970" points="536.202,-103.0001 526.2019,-106.5 536.2019,-110.0001 536.202,-103.0001"/>
</g>
<!-- Node608 -->
<g id="node20" class="node">
<title>Node608</title>
<g id="a_node20"><a xlink:href="../../dd/db9/classACarlaRecorder.html#a1074f19dfe5b16a9e10b24ef35b26abc" target="_top" xlink:title="ACarlaRecorder::Ticking">
<polygon fill="#ffffff" stroke="#000000" points="567.5,-56 567.5,-75 700.5,-75 700.5,-56 567.5,-56"/>
<text text-anchor="middle" x="634" y="-63" font-family="Helvetica,sans-Serif" font-size="10.00" fill="#000000">ACarlaRecorder::Ticking</text>
</a>
</g>
</g>
<!-- Node607&#45;&gt;Node608 -->
<g id="edge26" class="edge">
<title>Node607&#45;&gt;Node608</title>
<path fill="none" stroke="#191970" d="M518.3305,-94.5058C543.073,-88.3013 572.8545,-80.8331 596.0016,-75.0286"/>
<polygon fill="#191970" stroke="#191970" points="517.2695,-91.1634 508.4211,-96.9907 518.9722,-97.9532 517.2695,-91.1634"/>
</g>
<!-- Node609 -->
<g id="node21" class="node">
<title>Node609</title>
<g id="a_node21"><a xlink:href="../../dc/d49/classFCarlaEngine.html#aff440c7ba9d004e4c5b60125cc4d709b" target="_top" xlink:title="FCarlaEngine::OnPostTick">
<polygon fill="#ffffff" stroke="#000000" points="754,-50 754,-69 895,-69 895,-50 754,-50"/>
<text text-anchor="middle" x="824.5" y="-57" font-family="Helvetica,sans-Serif" font-size="10.00" fill="#000000">FCarlaEngine::OnPostTick</text>
</a>
</g>
</g>
<!-- Node608&#45;&gt;Node609 -->
<g id="edge27" class="edge">
<title>Node608&#45;&gt;Node609</title>
<path fill="none" stroke="#191970" d="M710.8241,-63.0803C724.9904,-62.6342 739.7221,-62.1702 753.7002,-61.7299"/>
<polygon fill="#191970" stroke="#191970" points="710.5125,-59.5883 700.6277,-63.4015 710.7329,-66.5849 710.5125,-59.5883"/>
</g>
<!-- Node610 -->
<g id="node22" class="node">
<title>Node610</title>
<g id="a_node22"><a xlink:href="../../dc/d49/classFCarlaEngine.html#ab8d13063cde985781237dd7da308227e" target="_top" xlink:title="FCarlaEngine::NotifyInitGame">
<polygon fill="#ffffff" stroke="#000000" points="944.5,-50 944.5,-69 1105.5,-69 1105.5,-50 944.5,-50"/>
<text text-anchor="middle" x="1025" y="-57" font-family="Helvetica,sans-Serif" font-size="10.00" fill="#000000">FCarlaEngine::NotifyInitGame</text>
</a>
</g>
</g>
<!-- Node609&#45;&gt;Node610 -->
<g id="edge28" class="edge">
<title>Node609&#45;&gt;Node610</title>
<path fill="none" stroke="#191970" d="M905.377,-59.5C918.2199,-59.5 931.5038,-59.5 944.3416,-59.5"/>
<polygon fill="#191970" stroke="#191970" points="905.1888,-56.0001 895.1888,-59.5 905.1888,-63.0001 905.1888,-56.0001"/>
</g>
<!-- Node611 -->
<g id="node23" class="node">
<title>Node611</title>
<g id="a_node23"><a xlink:href="../../dc/d49/classFCarlaEngine.html#a4dfd3b01c0b1413b4f69fda71efc25ce" target="_top" xlink:title="FCarlaEngine::ResetFrame\lCounter">
<polygon fill="#ffffff" stroke="#000000" points="953.5,-.5 953.5,-30.5 1096.5,-30.5 1096.5,-.5 953.5,-.5"/>
<text text-anchor="start" x="961.5" y="-18.5" font-family="Helvetica,sans-Serif" font-size="10.00" fill="#000000">FCarlaEngine::ResetFrame</text>
<text text-anchor="middle" x="1025" y="-7.5" font-family="Helvetica,sans-Serif" font-size="10.00" fill="#000000">Counter</text>
</a>
</g>
</g>
<!-- Node609&#45;&gt;Node611 -->
<g id="edge29" class="edge">
<title>Node609&#45;&gt;Node611</title>
<path fill="none" stroke="#191970" d="M878.0081,-47.7576C902.0604,-42.4793 930.7378,-36.186 956.3499,-30.5654"/>
<polygon fill="#191970" stroke="#191970" points="877.0228,-44.3904 868.0055,-49.9527 878.5233,-51.2277 877.0228,-44.3904"/>
</g>
<!-- Node611&#45;&gt;Node604 -->
<g id="edge30" class="edge">
<title>Node611&#45;&gt;Node604</title>
<path fill="none" stroke="#191970" d="M1085.7183,-33.7809C1092.5799,-35.9828 1099.4543,-38.2499 1106,-40.5 1129.5183,-48.5844 1155.5921,-58.4564 1176.2279,-66.4875"/>
<polygon fill="#191970" stroke="#191970" points="1086.3046,-30.2952 1075.7145,-30.611 1084.1901,-36.9682 1086.3046,-30.2952"/>
</g>
</g>
</svg>
