<?xml version="1.0" encoding="UTF-8" standalone="no"?>
<!DOCTYPE svg PUBLIC "-//W3C//DTD SVG 1.1//EN"
 "http://www.w3.org/Graphics/SVG/1.1/DTD/svg11.dtd">
<!-- Generated by graphviz version 2.38.0 (20140413.2041)
 -->
<!-- Title: TrafficLightController.h Pages: 1 -->
<svg width="2236pt" height="520pt"
 viewBox="0.00 0.00 2235.50 520.00" xmlns="http://www.w3.org/2000/svg" xmlns:xlink="http://www.w3.org/1999/xlink">
<g id="graph0" class="graph" transform="scale(1 1) rotate(0) translate(4 516)">
<title>TrafficLightController.h</title>
<polygon fill="white" stroke="none" points="-4,4 -4,-516 2231.5,-516 2231.5,4 -4,4"/>
<!-- Node1 -->
<g id="node1" class="node"><title>Node1</title>
<polygon fill="#bfbfbf" stroke="black" points="1556.5,-492.5 1556.5,-511.5 1678.5,-511.5 1678.5,-492.5 1556.5,-492.5"/>
<text text-anchor="middle" x="1617.5" y="-499.5" font-family="Helvetica,sans-Serif" font-size="10.00">TrafficLightController.h</text>
</g>
<!-- Node2 -->
<g id="node2" class="node"><title>Node2</title>
<polygon fill="white" stroke="#bfbfbf" points="1600,-313.5 1600,-332.5 1685,-332.5 1685,-313.5 1600,-313.5"/>
<text text-anchor="middle" x="1642.5" y="-320.5" font-family="Helvetica,sans-Serif" font-size="10.00">CoreMinimal.h</text>
</g>
<!-- Node1&#45;&gt;Node2 -->
<g id="edge1" class="edge"><title>Node1&#45;&gt;Node2</title>
<path fill="none" stroke="midnightblue" d="M1620.68,-492.24C1626.77,-474.913 1639.91,-434.912 1644.5,-400 1646.29,-386.34 1644.81,-382.774 1644.5,-369 1644.31,-360.391 1643.91,-350.863 1643.52,-342.799"/>
<polygon fill="midnightblue" stroke="midnightblue" points="1647.01,-342.429 1643,-332.623 1640.02,-342.79 1647.01,-342.429"/>
</g>
<!-- Node3 -->
<g id="node3" class="node"><title>Node3</title>
<g id="a_node3"><a xlink:href="../../db/dbf/Object_8h.html" target="_top" xlink:title="Object.h">
<polygon fill="white" stroke="black" points="799.5,-118 799.5,-137 855.5,-137 855.5,-118 799.5,-118"/>
<text text-anchor="middle" x="827.5" y="-125" font-family="Helvetica,sans-Serif" font-size="10.00">Object.h</text>
</a>
</g>
</g>
<!-- Node1&#45;&gt;Node3 -->
<g id="edge2" class="edge"><title>Node1&#45;&gt;Node3</title>
<path fill="none" stroke="midnightblue" d="M1556.35,-498.796C1366.45,-491.149 799.5,-461.917 799.5,-385.5 799.5,-385.5 799.5,-385.5 799.5,-260.5 799.5,-219.074 812.86,-171.896 821.123,-146.678"/>
<polygon fill="midnightblue" stroke="midnightblue" points="824.503,-147.61 824.397,-137.016 817.873,-145.364 824.503,-147.61"/>
</g>
<!-- Node8 -->
<g id="node8" class="node"><title>Node8</title>
<g id="a_node8"><a xlink:href="../../df/d9b/Unreal_2CarlaUE4_2Plugins_2Carla_2Source_2Carla_2Traffic_2TrafficLightState_8h.html" target="_top" xlink:title="TrafficLightState.h">
<polygon fill="white" stroke="black" points="1440.5,-313.5 1440.5,-332.5 1542.5,-332.5 1542.5,-313.5 1440.5,-313.5"/>
<text text-anchor="middle" x="1491.5" y="-320.5" font-family="Helvetica,sans-Serif" font-size="10.00">TrafficLightState.h</text>
</a>
</g>
</g>
<!-- Node1&#45;&gt;Node8 -->
<g id="edge8" class="edge"><title>Node1&#45;&gt;Node8</title>
<path fill="none" stroke="midnightblue" d="M1559.4,-492.422C1508.26,-481.244 1437.93,-456.013 1411.5,-400 1405.62,-387.54 1404.54,-380.893 1411.5,-369 1420.36,-353.85 1436.41,-343.406 1451.81,-336.424"/>
<polygon fill="midnightblue" stroke="midnightblue" points="1453.35,-339.573 1461.25,-332.512 1450.67,-333.106 1453.35,-339.573"/>
</g>
<!-- Node10 -->
<g id="node10" class="node"><title>Node10</title>
<g id="a_node10"><a xlink:href="../../d8/dde/TrafficLightComponent_8h.html" target="_top" xlink:title="TrafficLightComponent.h">
<polygon fill="white" stroke="black" points="1488.5,-436.5 1488.5,-455.5 1620.5,-455.5 1620.5,-436.5 1488.5,-436.5"/>
<text text-anchor="middle" x="1554.5" y="-443.5" font-family="Helvetica,sans-Serif" font-size="10.00">TrafficLightComponent.h</text>
</a>
</g>
</g>
<!-- Node1&#45;&gt;Node10 -->
<g id="edge10" class="edge"><title>Node1&#45;&gt;Node10</title>
<path fill="none" stroke="midnightblue" d="M1607.38,-492.324C1597.97,-484.263 1583.76,-472.077 1572.43,-462.369"/>
<polygon fill="midnightblue" stroke="midnightblue" points="1574.68,-459.684 1564.81,-455.834 1570.12,-464.999 1574.68,-459.684"/>
</g>
<!-- Node49 -->
<g id="node49" class="node"><title>Node49</title>
<polygon fill="white" stroke="#bfbfbf" points="1709,-436.5 1709,-455.5 1810,-455.5 1810,-436.5 1709,-436.5"/>
<text text-anchor="middle" x="1759.5" y="-443.5" font-family="Helvetica,sans-Serif" font-size="10.00">Containers/Map.h</text>
</g>
<!-- Node1&#45;&gt;Node49 -->
<g id="edge68" class="edge"><title>Node1&#45;&gt;Node49</title>
<path fill="none" stroke="midnightblue" d="M1640,-492.444C1663.58,-483.478 1700.82,-469.314 1727.46,-459.183"/>
<polygon fill="midnightblue" stroke="midnightblue" points="1729,-462.342 1737.1,-455.516 1726.51,-455.8 1729,-462.342"/>
</g>
<!-- Node50 -->
<g id="node50" class="node"><title>Node50</title>
<polygon fill="white" stroke="#bfbfbf" points="1828.5,-436.5 1828.5,-455.5 2002.5,-455.5 2002.5,-436.5 1828.5,-436.5"/>
<text text-anchor="middle" x="1915.5" y="-443.5" font-family="Helvetica,sans-Serif" font-size="10.00">TrafficLightController.generated.h</text>
</g>
<!-- Node1&#45;&gt;Node50 -->
<g id="edge69" class="edge"><title>Node1&#45;&gt;Node50</title>
<path fill="none" stroke="midnightblue" d="M1664.72,-492.444C1717.25,-482.925 1802.11,-467.547 1858.35,-457.356"/>
<polygon fill="midnightblue" stroke="midnightblue" points="1859.29,-460.743 1868.5,-455.516 1858.04,-453.856 1859.29,-460.743"/>
</g>
<!-- Node4 -->
<g id="node4" class="node"><title>Node4</title>
<g id="a_node4"><a xlink:href="../../d4/dd8/LibCarla_2source_2carla_2NonCopyable_8h.html" target="_top" xlink:title="carla/NonCopyable.h">
<polygon fill="white" stroke="black" points="730.5,-56.5 730.5,-75.5 846.5,-75.5 846.5,-56.5 730.5,-56.5"/>
<text text-anchor="middle" x="788.5" y="-63.5" font-family="Helvetica,sans-Serif" font-size="10.00">carla/NonCopyable.h</text>
</a>
</g>
</g>
<!-- Node3&#45;&gt;Node4 -->
<g id="edge3" class="edge"><title>Node3&#45;&gt;Node4</title>
<path fill="none" stroke="midnightblue" d="M821.912,-117.975C816.12,-109.138 806.911,-95.0886 799.626,-83.975"/>
<polygon fill="midnightblue" stroke="midnightblue" points="802.487,-81.9539 794.077,-75.5091 796.632,-85.7913 802.487,-81.9539"/>
</g>
<!-- Node5 -->
<g id="node5" class="node"><title>Node5</title>
<g id="a_node5"><a xlink:href="../../d6/dbb/RoadTypes_8h.html" target="_top" xlink:title="carla/road/RoadTypes.h">
<polygon fill="white" stroke="black" points="902.5,-56.5 902.5,-75.5 1028.5,-75.5 1028.5,-56.5 902.5,-56.5"/>
<text text-anchor="middle" x="965.5" y="-63.5" font-family="Helvetica,sans-Serif" font-size="10.00">carla/road/RoadTypes.h</text>
</a>
</g>
</g>
<!-- Node3&#45;&gt;Node5 -->
<g id="edge4" class="edge"><title>Node3&#45;&gt;Node5</title>
<path fill="none" stroke="midnightblue" d="M847.272,-117.975C870.636,-107.901 909.714,-91.0525 936.503,-79.5023"/>
<polygon fill="midnightblue" stroke="midnightblue" points="937.968,-82.6824 945.765,-75.5091 935.196,-76.2544 937.968,-82.6824"/>
</g>
<!-- Node7 -->
<g id="node7" class="node"><title>Node7</title>
<polygon fill="white" stroke="#bfbfbf" points="943.5,-0.5 943.5,-19.5 987.5,-19.5 987.5,-0.5 943.5,-0.5"/>
<text text-anchor="middle" x="965.5" y="-7.5" font-family="Helvetica,sans-Serif" font-size="10.00">string</text>
</g>
<!-- Node3&#45;&gt;Node7 -->
<g id="edge7" class="edge"><title>Node3&#45;&gt;Node7</title>
<path fill="none" stroke="midnightblue" d="M834.572,-117.558C846.004,-103.446 869.678,-75.6006 893.5,-56 908.067,-44.015 926.061,-32.7675 940.417,-24.5151"/>
<polygon fill="midnightblue" stroke="midnightblue" points="942.252,-27.4989 949.253,-19.5469 938.821,-21.3973 942.252,-27.4989"/>
</g>
<!-- Node6 -->
<g id="node6" class="node"><title>Node6</title>
<polygon fill="white" stroke="#bfbfbf" points="1032,-0.5 1032,-19.5 1081,-19.5 1081,-0.5 1032,-0.5"/>
<text text-anchor="middle" x="1056.5" y="-7.5" font-family="Helvetica,sans-Serif" font-size="10.00">cstdint</text>
</g>
<!-- Node5&#45;&gt;Node6 -->
<g id="edge5" class="edge"><title>Node5&#45;&gt;Node6</title>
<path fill="none" stroke="midnightblue" d="M980.121,-56.324C994.449,-47.8215 1016.51,-34.7288 1033.25,-24.7975"/>
<polygon fill="midnightblue" stroke="midnightblue" points="1035.1,-27.7677 1041.92,-19.6545 1031.53,-21.7478 1035.1,-27.7677"/>
</g>
<!-- Node5&#45;&gt;Node7 -->
<g id="edge6" class="edge"><title>Node5&#45;&gt;Node7</title>
<path fill="none" stroke="midnightblue" d="M965.5,-56.083C965.5,-49.0059 965.5,-38.8611 965.5,-29.9865"/>
<polygon fill="midnightblue" stroke="midnightblue" points="969,-29.751 965.5,-19.7511 962,-29.7511 969,-29.751"/>
</g>
<!-- Node9 -->
<g id="node9" class="node"><title>Node9</title>
<polygon fill="white" stroke="#bfbfbf" points="1374,-252 1374,-271 1529,-271 1529,-252 1374,-252"/>
<text text-anchor="middle" x="1451.5" y="-259" font-family="Helvetica,sans-Serif" font-size="10.00">TrafficLightState.generated.h</text>
</g>
<!-- Node8&#45;&gt;Node9 -->
<g id="edge9" class="edge"><title>Node8&#45;&gt;Node9</title>
<path fill="none" stroke="midnightblue" d="M1485.77,-313.475C1479.83,-304.638 1470.38,-290.589 1462.91,-279.475"/>
<polygon fill="midnightblue" stroke="midnightblue" points="1465.7,-277.355 1457.22,-271.009 1459.89,-281.261 1465.7,-277.355"/>
</g>
<!-- Node10&#45;&gt;Node2 -->
<g id="edge11" class="edge"><title>Node10&#45;&gt;Node2</title>
<path fill="none" stroke="midnightblue" d="M1575.38,-436.482C1590.93,-429.084 1611.47,-416.89 1623.5,-400 1635.55,-383.079 1639.99,-359.293 1641.6,-342.858"/>
<polygon fill="midnightblue" stroke="midnightblue" points="1645.1,-343.057 1642.33,-332.83 1638.12,-342.55 1645.1,-343.057"/>
</g>
<!-- Node10&#45;&gt;Node8 -->
<g id="edge59" class="edge"><title>Node10&#45;&gt;Node8</title>
<path fill="none" stroke="midnightblue" d="M1488.49,-439.091C1462.97,-433.204 1436.19,-421.817 1420.5,-400 1412.46,-388.814 1413.86,-381.072 1420.5,-369 1428.39,-354.663 1442.99,-344.253 1456.9,-337.079"/>
<polygon fill="midnightblue" stroke="midnightblue" points="1458.79,-340.058 1466.34,-332.622 1455.8,-333.728 1458.79,-340.058"/>
</g>
<!-- Node11 -->
<g id="node11" class="node"><title>Node11</title>
<g id="a_node11"><a xlink:href="../../de/d8e/SignComponent_8h.html" target="_top" xlink:title="SignComponent.h">
<polygon fill="white" stroke="black" points="1730,-375 1730,-394 1833,-394 1833,-375 1730,-375"/>
<text text-anchor="middle" x="1781.5" y="-382" font-family="Helvetica,sans-Serif" font-size="10.00">SignComponent.h</text>
</a>
</g>
</g>
<!-- Node10&#45;&gt;Node11 -->
<g id="edge12" class="edge"><title>Node10&#45;&gt;Node11</title>
<path fill="none" stroke="midnightblue" d="M1587.02,-436.475C1627.06,-425.982 1695.14,-408.137 1739.2,-396.587"/>
<polygon fill="midnightblue" stroke="midnightblue" points="1740.25,-399.93 1749.04,-394.009 1738.48,-393.159 1740.25,-399.93"/>
</g>
<!-- Node42 -->
<g id="node42" class="node"><title>Node42</title>
<g id="a_node42"><a xlink:href="../../d2/d29/WheeledVehicleAIController_8h.html" target="_top" xlink:title="Carla/Vehicle/WheeledVehicle\lAIController.h">
<polygon fill="white" stroke="black" points="1098,-369.5 1098,-399.5 1253,-399.5 1253,-369.5 1098,-369.5"/>
<text text-anchor="start" x="1106" y="-387.5" font-family="Helvetica,sans-Serif" font-size="10.00">Carla/Vehicle/WheeledVehicle</text>
<text text-anchor="middle" x="1175.5" y="-376.5" font-family="Helvetica,sans-Serif" font-size="10.00">AIController.h</text>
</a>
</g>
</g>
<!-- Node10&#45;&gt;Node42 -->
<g id="edge60" class="edge"><title>Node10&#45;&gt;Node42</title>
<path fill="none" stroke="midnightblue" d="M1500.2,-436.475C1438.33,-426.762 1336.33,-410.75 1263.16,-399.262"/>
<polygon fill="midnightblue" stroke="midnightblue" points="1263.46,-395.766 1253.03,-397.672 1262.37,-402.681 1263.46,-395.766"/>
</g>
<!-- Node48 -->
<g id="node48" class="node"><title>Node48</title>
<polygon fill="white" stroke="#bfbfbf" points="1430,-375 1430,-394 1615,-394 1615,-375 1430,-375"/>
<text text-anchor="middle" x="1522.5" y="-382" font-family="Helvetica,sans-Serif" font-size="10.00">TrafficLightComponent.generated.h</text>
</g>
<!-- Node10&#45;&gt;Node48 -->
<g id="edge67" class="edge"><title>Node10&#45;&gt;Node48</title>
<path fill="none" stroke="midnightblue" d="M1549.92,-436.475C1545.26,-427.815 1537.91,-414.149 1531.99,-403.145"/>
<polygon fill="midnightblue" stroke="midnightblue" points="1534.9,-401.158 1527.08,-394.009 1528.73,-404.474 1534.9,-401.158"/>
</g>
<!-- Node11&#45;&gt;Node2 -->
<g id="edge13" class="edge"><title>Node11&#45;&gt;Node2</title>
<path fill="none" stroke="midnightblue" d="M1761.58,-374.975C1738.05,-364.901 1698.69,-348.053 1671.71,-336.502"/>
<polygon fill="midnightblue" stroke="midnightblue" points="1672.95,-333.227 1662.38,-332.509 1670.19,-339.662 1672.95,-333.227"/>
</g>
<!-- Node12 -->
<g id="node12" class="node"><title>Node12</title>
<polygon fill="white" stroke="#bfbfbf" points="2051.5,-313.5 2051.5,-332.5 2227.5,-332.5 2227.5,-313.5 2051.5,-313.5"/>
<text text-anchor="middle" x="2139.5" y="-320.5" font-family="Helvetica,sans-Serif" font-size="10.00">Components/SceneComponent.h</text>
</g>
<!-- Node11&#45;&gt;Node12 -->
<g id="edge14" class="edge"><title>Node11&#45;&gt;Node12</title>
<path fill="none" stroke="midnightblue" d="M1832.79,-374.975C1897.66,-364.194 2009.21,-345.654 2078.41,-334.153"/>
<polygon fill="midnightblue" stroke="midnightblue" points="2079.01,-337.601 2088.3,-332.509 2077.86,-330.696 2079.01,-337.601"/>
</g>
<!-- Node13 -->
<g id="node13" class="node"><title>Node13</title>
<g id="a_node13"><a xlink:href="../../d1/d9b/Unreal_2CarlaUE4_2Plugins_2Carla_2Source_2Carla_2OpenDrive_2OpenDrive_8h.html" target="_top" xlink:title="Carla/OpenDrive/OpenDrive.h">
<polygon fill="white" stroke="black" points="1703,-313.5 1703,-332.5 1860,-332.5 1860,-313.5 1703,-313.5"/>
<text text-anchor="middle" x="1781.5" y="-320.5" font-family="Helvetica,sans-Serif" font-size="10.00">Carla/OpenDrive/OpenDrive.h</text>
</a>
</g>
</g>
<!-- Node11&#45;&gt;Node13 -->
<g id="edge15" class="edge"><title>Node11&#45;&gt;Node13</title>
<path fill="none" stroke="midnightblue" d="M1781.5,-374.975C1781.5,-366.58 1781.5,-353.481 1781.5,-342.663"/>
<polygon fill="midnightblue" stroke="midnightblue" points="1785,-342.509 1781.5,-332.509 1778,-342.509 1785,-342.509"/>
</g>
<!-- Node41 -->
<g id="node41" class="node"><title>Node41</title>
<polygon fill="white" stroke="#bfbfbf" points="1878,-313.5 1878,-332.5 2033,-332.5 2033,-313.5 1878,-313.5"/>
<text text-anchor="middle" x="1955.5" y="-320.5" font-family="Helvetica,sans-Serif" font-size="10.00">SignComponent.generated.h</text>
</g>
<!-- Node11&#45;&gt;Node41 -->
<g id="edge58" class="edge"><title>Node11&#45;&gt;Node41</title>
<path fill="none" stroke="midnightblue" d="M1806.43,-374.975C1836.54,-364.68 1887.33,-347.31 1921.14,-335.75"/>
<polygon fill="midnightblue" stroke="midnightblue" points="1922.29,-339.056 1930.62,-332.509 1920.02,-332.433 1922.29,-339.056"/>
</g>
<!-- Node14 -->
<g id="node14" class="node"><title>Node14</title>
<g id="a_node14"><a xlink:href="../../d6/d95/OpenDriveMap_8h.html" target="_top" xlink:title="Carla/OpenDrive/OpenDrive\lMap.h">
<polygon fill="white" stroke="black" points="1547.5,-246.5 1547.5,-276.5 1695.5,-276.5 1695.5,-246.5 1547.5,-246.5"/>
<text text-anchor="start" x="1555.5" y="-264.5" font-family="Helvetica,sans-Serif" font-size="10.00">Carla/OpenDrive/OpenDrive</text>
<text text-anchor="middle" x="1621.5" y="-253.5" font-family="Helvetica,sans-Serif" font-size="10.00">Map.h</text>
</a>
</g>
</g>
<!-- Node13&#45;&gt;Node14 -->
<g id="edge16" class="edge"><title>Node13&#45;&gt;Node14</title>
<path fill="none" stroke="midnightblue" d="M1758.58,-313.475C1735.29,-304.814 1698.53,-291.145 1668.94,-280.141"/>
<polygon fill="midnightblue" stroke="midnightblue" points="1669.8,-276.728 1659.21,-276.523 1667.36,-283.289 1669.8,-276.728"/>
</g>
<!-- Node39 -->
<g id="node39" class="node"><title>Node39</title>
<polygon fill="white" stroke="#bfbfbf" points="1714,-246.5 1714,-276.5 1849,-276.5 1849,-246.5 1714,-246.5"/>
<text text-anchor="start" x="1722" y="-264.5" font-family="Helvetica,sans-Serif" font-size="10.00">Kismet/BlueprintFunction</text>
<text text-anchor="middle" x="1781.5" y="-253.5" font-family="Helvetica,sans-Serif" font-size="10.00">Library.h</text>
</g>
<!-- Node13&#45;&gt;Node39 -->
<g id="edge56" class="edge"><title>Node13&#45;&gt;Node39</title>
<path fill="none" stroke="midnightblue" d="M1781.5,-313.475C1781.5,-306.471 1781.5,-296.192 1781.5,-286.696"/>
<polygon fill="midnightblue" stroke="midnightblue" points="1785,-286.523 1781.5,-276.523 1778,-286.523 1785,-286.523"/>
</g>
<!-- Node40 -->
<g id="node40" class="node"><title>Node40</title>
<polygon fill="white" stroke="#bfbfbf" points="1867.5,-252 1867.5,-271 1995.5,-271 1995.5,-252 1867.5,-252"/>
<text text-anchor="middle" x="1931.5" y="-259" font-family="Helvetica,sans-Serif" font-size="10.00">OpenDrive.generated.h</text>
</g>
<!-- Node13&#45;&gt;Node40 -->
<g id="edge57" class="edge"><title>Node13&#45;&gt;Node40</title>
<path fill="none" stroke="midnightblue" d="M1802.99,-313.475C1828.61,-303.313 1871.61,-286.256 1900.74,-274.7"/>
<polygon fill="midnightblue" stroke="midnightblue" points="1902.04,-277.95 1910.05,-271.009 1899.46,-271.443 1902.04,-277.95"/>
</g>
<!-- Node15 -->
<g id="node15" class="node"><title>Node15</title>
<g id="a_node15"><a xlink:href="../../d2/d02/disable-ue4-macros_8h.html" target="_top" xlink:title="compiler/disable&#45;ue4\l&#45;macros.h">
<polygon fill="white" stroke="black" points="1713.5,-179.5 1713.5,-209.5 1829.5,-209.5 1829.5,-179.5 1713.5,-179.5"/>
<text text-anchor="start" x="1721.5" y="-197.5" font-family="Helvetica,sans-Serif" font-size="10.00">compiler/disable&#45;ue4</text>
<text text-anchor="middle" x="1771.5" y="-186.5" font-family="Helvetica,sans-Serif" font-size="10.00">&#45;macros.h</text>
</a>
</g>
</g>
<!-- Node14&#45;&gt;Node15 -->
<g id="edge17" class="edge"><title>Node14&#45;&gt;Node15</title>
<path fill="none" stroke="midnightblue" d="M1654.05,-246.396C1676.26,-236.771 1705.88,-223.936 1729.81,-213.564"/>
<polygon fill="midnightblue" stroke="midnightblue" points="1731.23,-216.764 1739.02,-209.577 1728.45,-210.341 1731.23,-216.764"/>
</g>
<!-- Node20 -->
<g id="node20" class="node"><title>Node20</title>
<g id="a_node20"><a xlink:href="../../df/d64/road_2Map_8h.html" target="_top" xlink:title="carla/road/Map.h">
<polygon fill="white" stroke="black" points="1119,-185 1119,-204 1216,-204 1216,-185 1119,-185"/>
<text text-anchor="middle" x="1167.5" y="-192" font-family="Helvetica,sans-Serif" font-size="10.00">carla/road/Map.h</text>
</a>
</g>
</g>
<!-- Node14&#45;&gt;Node20 -->
<g id="edge22" class="edge"><title>Node14&#45;&gt;Node20</title>
<path fill="none" stroke="midnightblue" d="M1547.32,-247.549C1544,-247.016 1540.72,-246.497 1537.5,-246 1427.66,-229.029 1299,-212.141 1225.99,-202.835"/>
<polygon fill="midnightblue" stroke="midnightblue" points="1226.43,-199.363 1216.06,-201.573 1225.54,-206.307 1226.43,-199.363"/>
</g>
<!-- Node37 -->
<g id="node37" class="node"><title>Node37</title>
<g id="a_node37"><a xlink:href="../../d9/da2/enable-ue4-macros_8h.html" target="_top" xlink:title="compiler/enable&#45;ue4\l&#45;macros.h">
<polygon fill="white" stroke="black" points="1414,-179.5 1414,-209.5 1529,-209.5 1529,-179.5 1414,-179.5"/>
<text text-anchor="start" x="1422" y="-197.5" font-family="Helvetica,sans-Serif" font-size="10.00">compiler/enable&#45;ue4</text>
<text text-anchor="middle" x="1471.5" y="-186.5" font-family="Helvetica,sans-Serif" font-size="10.00">&#45;macros.h</text>
</a>
</g>
</g>
<!-- Node14&#45;&gt;Node37 -->
<g id="edge54" class="edge"><title>Node14&#45;&gt;Node37</title>
<path fill="none" stroke="midnightblue" d="M1588.95,-246.396C1566.74,-236.771 1537.12,-223.936 1513.19,-213.564"/>
<polygon fill="midnightblue" stroke="midnightblue" points="1514.55,-210.341 1503.98,-209.577 1511.77,-216.764 1514.55,-210.341"/>
</g>
<!-- Node38 -->
<g id="node38" class="node"><title>Node38</title>
<polygon fill="white" stroke="#bfbfbf" points="1547,-185 1547,-204 1696,-204 1696,-185 1547,-185"/>
<text text-anchor="middle" x="1621.5" y="-192" font-family="Helvetica,sans-Serif" font-size="10.00">OpenDriveMap.generated.h</text>
</g>
<!-- Node14&#45;&gt;Node38 -->
<g id="edge55" class="edge"><title>Node14&#45;&gt;Node38</title>
<path fill="none" stroke="midnightblue" d="M1621.5,-246.396C1621.5,-237.064 1621.5,-224.714 1621.5,-214.517"/>
<polygon fill="midnightblue" stroke="midnightblue" points="1625,-214.195 1621.5,-204.195 1618,-214.195 1625,-214.195"/>
</g>
<!-- Node16 -->
<g id="node16" class="node"><title>Node16</title>
<g id="a_node16"><a xlink:href="../../d7/d7d/Carla_8h.html" target="_top" xlink:title="Carla.h">
<polygon fill="white" stroke="black" points="1746.5,-118 1746.5,-137 1796.5,-137 1796.5,-118 1746.5,-118"/>
<text text-anchor="middle" x="1771.5" y="-125" font-family="Helvetica,sans-Serif" font-size="10.00">Carla.h</text>
</a>
</g>
</g>
<!-- Node15&#45;&gt;Node16 -->
<g id="edge18" class="edge"><title>Node15&#45;&gt;Node16</title>
<path fill="none" stroke="midnightblue" d="M1771.5,-179.396C1771.5,-170.064 1771.5,-157.714 1771.5,-147.517"/>
<polygon fill="midnightblue" stroke="midnightblue" points="1775,-147.195 1771.5,-137.195 1768,-147.195 1775,-147.195"/>
</g>
<!-- Node17 -->
<g id="node17" class="node"><title>Node17</title>
<g id="a_node17"><a xlink:href="../../d4/d57/Unreal_2CarlaUE4_2Plugins_2Carla_2Source_2Carla_2Util_2NonCopyable_8h.html" target="_top" xlink:title="Util/NonCopyable.h">
<polygon fill="white" stroke="black" points="1717.5,-56.5 1717.5,-75.5 1825.5,-75.5 1825.5,-56.5 1717.5,-56.5"/>
<text text-anchor="middle" x="1771.5" y="-63.5" font-family="Helvetica,sans-Serif" font-size="10.00">Util/NonCopyable.h</text>
</a>
</g>
</g>
<!-- Node16&#45;&gt;Node17 -->
<g id="edge19" class="edge"><title>Node16&#45;&gt;Node17</title>
<path fill="none" stroke="midnightblue" d="M1771.5,-117.975C1771.5,-109.58 1771.5,-96.4806 1771.5,-85.6631"/>
<polygon fill="midnightblue" stroke="midnightblue" points="1775,-85.5091 1771.5,-75.5091 1768,-85.5091 1775,-85.5091"/>
</g>
<!-- Node18 -->
<g id="node18" class="node"><title>Node18</title>
<polygon fill="white" stroke="#bfbfbf" points="1843.5,-56.5 1843.5,-75.5 1961.5,-75.5 1961.5,-56.5 1843.5,-56.5"/>
<text text-anchor="middle" x="1902.5" y="-63.5" font-family="Helvetica,sans-Serif" font-size="10.00">Logging/LogMacros.h</text>
</g>
<!-- Node16&#45;&gt;Node18 -->
<g id="edge20" class="edge"><title>Node16&#45;&gt;Node18</title>
<path fill="none" stroke="midnightblue" d="M1790.27,-117.975C1812.35,-107.945 1849.22,-91.2002 1874.64,-79.6546"/>
<polygon fill="midnightblue" stroke="midnightblue" points="1876.11,-82.8313 1883.77,-75.5091 1873.21,-76.4579 1876.11,-82.8313"/>
</g>
<!-- Node19 -->
<g id="node19" class="node"><title>Node19</title>
<polygon fill="white" stroke="#bfbfbf" points="1554,-56.5 1554,-75.5 1699,-75.5 1699,-56.5 1554,-56.5"/>
<text text-anchor="middle" x="1626.5" y="-63.5" font-family="Helvetica,sans-Serif" font-size="10.00">Modules/ModuleInterface.h</text>
</g>
<!-- Node16&#45;&gt;Node19 -->
<g id="edge21" class="edge"><title>Node16&#45;&gt;Node19</title>
<path fill="none" stroke="midnightblue" d="M1750.73,-117.975C1726.07,-107.857 1684.75,-90.9046 1656.6,-79.3507"/>
<polygon fill="midnightblue" stroke="midnightblue" points="1657.82,-76.0674 1647.24,-75.5091 1655.16,-82.5434 1657.82,-76.0674"/>
</g>
<!-- Node20&#45;&gt;Node4 -->
<g id="edge23" class="edge"><title>Node20&#45;&gt;Node4</title>
<path fill="none" stroke="midnightblue" d="M1118.69,-194.438C1026.74,-195.057 833.2,-190.525 790.5,-143 776.679,-127.617 779.026,-102.596 782.928,-85.4959"/>
<polygon fill="midnightblue" stroke="midnightblue" points="786.377,-86.1474 785.563,-75.5838 779.611,-84.3493 786.377,-86.1474"/>
</g>
<!-- Node20&#45;&gt;Node5 -->
<g id="edge41" class="edge"><title>Node20&#45;&gt;Node5</title>
<path fill="none" stroke="midnightblue" d="M1118.98,-191.411C1050.13,-187.314 929.446,-175.566 902.5,-143 893.717,-132.385 896.196,-124.251 902.5,-112 909.577,-98.2475 923.021,-87.7663 935.678,-80.3942"/>
<polygon fill="midnightblue" stroke="midnightblue" points="937.499,-83.3888 944.653,-75.5733 934.187,-77.2221 937.499,-83.3888"/>
</g>
<!-- Node21 -->
<g id="node21" class="node"><title>Node21</title>
<g id="a_node21"><a xlink:href="../../de/d17/geom_2Transform_8h.html" target="_top" xlink:title="carla/geom/Transform.h">
<polygon fill="white" stroke="black" points="175.5,-118 175.5,-137 305.5,-137 305.5,-118 175.5,-118"/>
<text text-anchor="middle" x="240.5" y="-125" font-family="Helvetica,sans-Serif" font-size="10.00">carla/geom/Transform.h</text>
</a>
</g>
</g>
<!-- Node20&#45;&gt;Node21 -->
<g id="edge24" class="edge"><title>Node20&#45;&gt;Node21</title>
<path fill="none" stroke="midnightblue" d="M1118.97,-190.097C966.959,-179.438 499.302,-146.647 315.649,-133.769"/>
<polygon fill="midnightblue" stroke="midnightblue" points="315.762,-130.269 305.542,-133.061 315.272,-137.252 315.762,-130.269"/>
</g>
<!-- Node26 -->
<g id="node26" class="node"><title>Node26</title>
<g id="a_node26"><a xlink:href="../../d5/db7/MapData_8h.html" target="_top" xlink:title="carla/road/MapData.h">
<polygon fill="white" stroke="red" points="615.5,-118 615.5,-137 735.5,-137 735.5,-118 615.5,-118"/>
<text text-anchor="middle" x="675.5" y="-125" font-family="Helvetica,sans-Serif" font-size="10.00">carla/road/MapData.h</text>
</a>
</g>
</g>
<!-- Node20&#45;&gt;Node26 -->
<g id="edge32" class="edge"><title>Node20&#45;&gt;Node26</title>
<path fill="none" stroke="midnightblue" d="M1118.79,-188.337C1041.87,-179.997 887.649,-162.509 757.5,-143 749.074,-141.737 740.181,-140.287 731.483,-138.803"/>
<polygon fill="midnightblue" stroke="midnightblue" points="731.853,-135.315 721.402,-137.054 730.657,-142.212 731.853,-135.315"/>
</g>
<!-- Node30 -->
<g id="node30" class="node"><title>Node30</title>
<g id="a_node30"><a xlink:href="../../d9/d31/Mesh_8h.html" target="_top" xlink:title="carla/geom/Mesh.h">
<polygon fill="white" stroke="red" points="1306.5,-118 1306.5,-137 1414.5,-137 1414.5,-118 1306.5,-118"/>
<text text-anchor="middle" x="1360.5" y="-125" font-family="Helvetica,sans-Serif" font-size="10.00">carla/geom/Mesh.h</text>
</a>
</g>
</g>
<!-- Node20&#45;&gt;Node30 -->
<g id="edge39" class="edge"><title>Node20&#45;&gt;Node30</title>
<path fill="none" stroke="midnightblue" d="M1193.13,-184.869C1227.11,-173.424 1287.22,-153.181 1325.4,-140.322"/>
<polygon fill="midnightblue" stroke="midnightblue" points="1326.71,-143.572 1335.07,-137.064 1324.48,-136.939 1326.71,-143.572"/>
</g>
<!-- Node31 -->
<g id="node31" class="node"><title>Node31</title>
<polygon fill="white" stroke="#bfbfbf" points="1274,-56.5 1274,-75.5 1321,-75.5 1321,-56.5 1274,-56.5"/>
<text text-anchor="middle" x="1297.5" y="-63.5" font-family="Helvetica,sans-Serif" font-size="10.00">vector</text>
</g>
<!-- Node20&#45;&gt;Node31 -->
<g id="edge53" class="edge"><title>Node20&#45;&gt;Node31</title>
<path fill="none" stroke="midnightblue" d="M1216.06,-191.043C1282.85,-186.531 1397.75,-174.321 1423.5,-143 1432.25,-132.357 1431.44,-123.262 1423.5,-112 1402.73,-82.5318 1360.84,-72.2545 1331.06,-68.7299"/>
<polygon fill="midnightblue" stroke="midnightblue" points="1331.39,-65.245 1321.09,-67.7444 1330.7,-72.2111 1331.39,-65.245"/>
</g>
<!-- Node32 -->
<g id="node32" class="node"><title>Node32</title>
<g id="a_node32"><a xlink:href="../../d5/d4c/LaneMarking_8h.html" target="_top" xlink:title="carla/road/element\l/LaneMarking.h">
<polygon fill="white" stroke="black" points="1594,-112.5 1594,-142.5 1701,-142.5 1701,-112.5 1594,-112.5"/>
<text text-anchor="start" x="1602" y="-130.5" font-family="Helvetica,sans-Serif" font-size="10.00">carla/road/element</text>
<text text-anchor="middle" x="1647.5" y="-119.5" font-family="Helvetica,sans-Serif" font-size="10.00">/LaneMarking.h</text>
</a>
</g>
</g>
<!-- Node20&#45;&gt;Node32 -->
<g id="edge42" class="edge"><title>Node20&#45;&gt;Node32</title>
<path fill="none" stroke="midnightblue" d="M1216.03,-189.377C1292.37,-182.51 1445.31,-167.218 1583.86,-143.183"/>
<polygon fill="midnightblue" stroke="midnightblue" points="1584.56,-146.613 1593.81,-141.437 1583.35,-139.718 1584.56,-146.613"/>
</g>
<!-- Node33 -->
<g id="node33" class="node"><title>Node33</title>
<g id="a_node33"><a xlink:href="../../dd/d32/RoadInfoMarkRecord_8h.html" target="_top" xlink:title="carla/road/element\l/RoadInfoMarkRecord.h">
<polygon fill="white" stroke="red" points="1037,-112.5 1037,-142.5 1162,-142.5 1162,-112.5 1037,-112.5"/>
<text text-anchor="start" x="1045" y="-130.5" font-family="Helvetica,sans-Serif" font-size="10.00">carla/road/element</text>
<text text-anchor="middle" x="1099.5" y="-119.5" font-family="Helvetica,sans-Serif" font-size="10.00">/RoadInfoMarkRecord.h</text>
</a>
</g>
</g>
<!-- Node20&#45;&gt;Node33 -->
<g id="edge44" class="edge"><title>Node20&#45;&gt;Node33</title>
<path fill="none" stroke="midnightblue" d="M1158.33,-184.734C1148.96,-175.78 1134.07,-161.543 1121.61,-149.635"/>
<polygon fill="midnightblue" stroke="midnightblue" points="1123.89,-146.969 1114.24,-142.589 1119.05,-152.029 1123.89,-146.969"/>
</g>
<!-- Node34 -->
<g id="node34" class="node"><title>Node34</title>
<g id="a_node34"><a xlink:href="../../d3/dbb/road_2element_2Waypoint_8h.html" target="_top" xlink:title="carla/road/element\l/Waypoint.h">
<polygon fill="white" stroke="red" points="912,-112.5 912,-142.5 1019,-142.5 1019,-112.5 912,-112.5"/>
<text text-anchor="start" x="920" y="-130.5" font-family="Helvetica,sans-Serif" font-size="10.00">carla/road/element</text>
<text text-anchor="middle" x="965.5" y="-119.5" font-family="Helvetica,sans-Serif" font-size="10.00">/Waypoint.h</text>
</a>
</g>
</g>
<!-- Node20&#45;&gt;Node34 -->
<g id="edge47" class="edge"><title>Node20&#45;&gt;Node34</title>
<path fill="none" stroke="midnightblue" d="M1140.68,-184.869C1109.71,-174.904 1058.01,-158.268 1018.78,-145.644"/>
<polygon fill="midnightblue" stroke="midnightblue" points="1019.69,-142.26 1009.09,-142.528 1017.54,-148.923 1019.69,-142.26"/>
</g>
<!-- Node35 -->
<g id="node35" class="node"><title>Node35</title>
<g id="a_node35"><a xlink:href="../../d5/d30/Rtree_8h.html" target="_top" xlink:title="carla/geom/Rtree.h">
<polygon fill="white" stroke="red" points="1180.5,-118 1180.5,-137 1288.5,-137 1288.5,-118 1180.5,-118"/>
<text text-anchor="middle" x="1234.5" y="-125" font-family="Helvetica,sans-Serif" font-size="10.00">carla/geom/Rtree.h</text>
</a>
</g>
</g>
<!-- Node20&#45;&gt;Node35 -->
<g id="edge50" class="edge"><title>Node20&#45;&gt;Node35</title>
<path fill="none" stroke="midnightblue" d="M1176.54,-184.734C1187.18,-174.403 1205.08,-157.037 1218.18,-144.332"/>
<polygon fill="midnightblue" stroke="midnightblue" points="1220.87,-146.603 1225.61,-137.127 1215.99,-141.578 1220.87,-146.603"/>
</g>
<!-- Node36 -->
<g id="node36" class="node"><title>Node36</title>
<polygon fill="white" stroke="#bfbfbf" points="1470.5,-118 1470.5,-137 1576.5,-137 1576.5,-118 1470.5,-118"/>
<text text-anchor="middle" x="1523.5" y="-125" font-family="Helvetica,sans-Serif" font-size="10.00">boost/optional.hpp</text>
</g>
<!-- Node20&#45;&gt;Node36 -->
<g id="edge52" class="edge"><title>Node20&#45;&gt;Node36</title>
<path fill="none" stroke="midnightblue" d="M1216.19,-185.605C1273.72,-176.135 1372.27,-159.467 1456.5,-143 1462.63,-141.801 1469.07,-140.484 1475.42,-139.148"/>
<polygon fill="midnightblue" stroke="midnightblue" points="1476.24,-142.553 1485.29,-137.047 1474.78,-135.707 1476.24,-142.553"/>
</g>
<!-- Node22 -->
<g id="node22" class="node"><title>Node22</title>
<g id="a_node22"><a xlink:href="../../d9/d6f/MsgPack_8h.html" target="_top" xlink:title="carla/MsgPack.h">
<polygon fill="white" stroke="red" points="283,-0.5 283,-19.5 376,-19.5 376,-0.5 283,-0.5"/>
<text text-anchor="middle" x="329.5" y="-7.5" font-family="Helvetica,sans-Serif" font-size="10.00">carla/MsgPack.h</text>
</a>
</g>
</g>
<!-- Node21&#45;&gt;Node22 -->
<g id="edge25" class="edge"><title>Node21&#45;&gt;Node22</title>
<path fill="none" stroke="midnightblue" d="M258.331,-117.979C274.263,-109.481 297.097,-94.9698 310.5,-76 320.146,-62.3471 324.939,-43.8085 327.293,-30.0232"/>
<polygon fill="midnightblue" stroke="midnightblue" points="330.808,-30.1662 328.75,-19.7731 323.877,-29.1808 330.808,-30.1662"/>
</g>
<!-- Node23 -->
<g id="node23" class="node"><title>Node23</title>
<g id="a_node23"><a xlink:href="../../d9/d8b/geom_2Location_8h.html" target="_top" xlink:title="carla/geom/Location.h">
<polygon fill="white" stroke="red" points="0,-56.5 0,-75.5 123,-75.5 123,-56.5 0,-56.5"/>
<text text-anchor="middle" x="61.5" y="-63.5" font-family="Helvetica,sans-Serif" font-size="10.00">carla/geom/Location.h</text>
</a>
</g>
</g>
<!-- Node21&#45;&gt;Node23 -->
<g id="edge26" class="edge"><title>Node21&#45;&gt;Node23</title>
<path fill="none" stroke="midnightblue" d="M214.854,-117.975C183.883,-107.68 131.627,-90.3103 96.8494,-78.7502"/>
<polygon fill="midnightblue" stroke="midnightblue" points="97.6923,-75.3422 87.0988,-75.5091 95.4842,-81.9848 97.6923,-75.3422"/>
</g>
<!-- Node24 -->
<g id="node24" class="node"><title>Node24</title>
<g id="a_node24"><a xlink:href="../../db/d8a/Math_8h.html" target="_top" xlink:title="carla/geom/Math.h">
<polygon fill="white" stroke="red" points="98,-0.5 98,-19.5 205,-19.5 205,-0.5 98,-0.5"/>
<text text-anchor="middle" x="151.5" y="-7.5" font-family="Helvetica,sans-Serif" font-size="10.00">carla/geom/Math.h</text>
</a>
</g>
</g>
<!-- Node21&#45;&gt;Node24 -->
<g id="edge28" class="edge"><title>Node21&#45;&gt;Node24</title>
<path fill="none" stroke="midnightblue" d="M222.669,-117.979C206.737,-109.481 183.903,-94.9698 170.5,-76 160.854,-62.3471 156.061,-43.8085 153.707,-30.0232"/>
<polygon fill="midnightblue" stroke="midnightblue" points="157.123,-29.1808 152.25,-19.7731 150.192,-30.1662 157.123,-29.1808"/>
</g>
<!-- Node25 -->
<g id="node25" class="node"><title>Node25</title>
<g id="a_node25"><a xlink:href="../../d0/d8f/Rotation_8h.html" target="_top" xlink:title="carla/geom/Rotation.h">
<polygon fill="white" stroke="red" points="179.5,-56.5 179.5,-75.5 301.5,-75.5 301.5,-56.5 179.5,-56.5"/>
<text text-anchor="middle" x="240.5" y="-63.5" font-family="Helvetica,sans-Serif" font-size="10.00">carla/geom/Rotation.h</text>
</a>
</g>
</g>
<!-- Node21&#45;&gt;Node25 -->
<g id="edge29" class="edge"><title>Node21&#45;&gt;Node25</title>
<path fill="none" stroke="midnightblue" d="M240.5,-117.975C240.5,-109.58 240.5,-96.4806 240.5,-85.6631"/>
<polygon fill="midnightblue" stroke="midnightblue" points="244,-85.5091 240.5,-75.5091 237,-85.5091 244,-85.5091"/>
</g>
<!-- Node23&#45;&gt;Node24 -->
<g id="edge27" class="edge"><title>Node23&#45;&gt;Node24</title>
<path fill="none" stroke="midnightblue" d="M75.9601,-56.324C89.9996,-47.9002 111.548,-34.9709 128.043,-25.0741"/>
<polygon fill="midnightblue" stroke="midnightblue" points="130.302,-27.8007 137.076,-19.6545 126.7,-21.7983 130.302,-27.8007"/>
</g>
<!-- Node25&#45;&gt;Node22 -->
<g id="edge30" class="edge"><title>Node25&#45;&gt;Node22</title>
<path fill="none" stroke="midnightblue" d="M254.799,-56.324C268.683,-47.9002 289.992,-34.9709 306.304,-25.0741"/>
<polygon fill="midnightblue" stroke="midnightblue" points="308.502,-27.8341 315.236,-19.6545 304.871,-21.8495 308.502,-27.8341"/>
</g>
<!-- Node25&#45;&gt;Node24 -->
<g id="edge31" class="edge"><title>Node25&#45;&gt;Node24</title>
<path fill="none" stroke="midnightblue" d="M226.201,-56.324C212.317,-47.9002 191.008,-34.9709 174.696,-25.0741"/>
<polygon fill="midnightblue" stroke="midnightblue" points="176.129,-21.8495 165.764,-19.6545 172.498,-27.8341 176.129,-21.8495"/>
</g>
<!-- Node26&#45;&gt;Node4 -->
<g id="edge37" class="edge"><title>Node26&#45;&gt;Node4</title>
<path fill="none" stroke="midnightblue" d="M691.69,-117.975C710.402,-108.122 741.423,-91.7883 763.299,-80.2697"/>
<polygon fill="midnightblue" stroke="midnightblue" points="765.122,-83.2651 772.34,-75.5091 761.861,-77.0713 765.122,-83.2651"/>
</g>
<!-- Node26&#45;&gt;Node5 -->
<g id="edge38" class="edge"><title>Node26&#45;&gt;Node5</title>
<path fill="none" stroke="midnightblue" d="M717.05,-117.975C768.949,-107.327 857.741,-89.1092 913.931,-77.5806"/>
<polygon fill="midnightblue" stroke="midnightblue" points="914.935,-80.9476 924.027,-75.5091 913.528,-74.0904 914.935,-80.9476"/>
</g>
<!-- Node27 -->
<g id="node27" class="node"><title>Node27</title>
<g id="a_node27"><a xlink:href="../../d7/d86/GeoLocation_8h.html" target="_top" xlink:title="carla/geom/GeoLocation.h">
<polygon fill="white" stroke="black" points="358,-56.5 358,-75.5 501,-75.5 501,-56.5 358,-56.5"/>
<text text-anchor="middle" x="429.5" y="-63.5" font-family="Helvetica,sans-Serif" font-size="10.00">carla/geom/GeoLocation.h</text>
</a>
</g>
</g>
<!-- Node26&#45;&gt;Node27 -->
<g id="edge33" class="edge"><title>Node26&#45;&gt;Node27</title>
<path fill="none" stroke="midnightblue" d="M640.254,-117.975C596.595,-107.415 522.157,-89.411 474.437,-77.8689"/>
<polygon fill="midnightblue" stroke="midnightblue" points="475.223,-74.4582 464.68,-75.5091 473.577,-81.262 475.223,-74.4582"/>
</g>
<!-- Node28 -->
<g id="node28" class="node"><title>Node28</title>
<g id="a_node28"><a xlink:href="../../d7/ddd/Iterator_8h.html" target="_top" xlink:title="carla/Iterator.h">
<polygon fill="white" stroke="red" points="519.5,-56.5 519.5,-75.5 605.5,-75.5 605.5,-56.5 519.5,-56.5"/>
<text text-anchor="middle" x="562.5" y="-63.5" font-family="Helvetica,sans-Serif" font-size="10.00">carla/Iterator.h</text>
</a>
</g>
</g>
<!-- Node26&#45;&gt;Node28 -->
<g id="edge35" class="edge"><title>Node26&#45;&gt;Node28</title>
<path fill="none" stroke="midnightblue" d="M659.31,-117.975C640.598,-108.122 609.577,-91.7883 587.701,-80.2697"/>
<polygon fill="midnightblue" stroke="midnightblue" points="589.139,-77.0713 578.66,-75.5091 585.878,-83.2651 589.139,-77.0713"/>
</g>
<!-- Node29 -->
<g id="node29" class="node"><title>Node29</title>
<g id="a_node29"><a xlink:href="../../d4/d50/LibCarla_2source_2carla_2ListView_8h.html" target="_top" xlink:title="carla/ListView.h">
<polygon fill="white" stroke="red" points="624,-56.5 624,-75.5 713,-75.5 713,-56.5 624,-56.5"/>
<text text-anchor="middle" x="668.5" y="-63.5" font-family="Helvetica,sans-Serif" font-size="10.00">carla/ListView.h</text>
</a>
</g>
</g>
<!-- Node26&#45;&gt;Node29 -->
<g id="edge36" class="edge"><title>Node26&#45;&gt;Node29</title>
<path fill="none" stroke="midnightblue" d="M674.497,-117.975C673.509,-109.58 671.968,-96.4806 670.696,-85.6631"/>
<polygon fill="midnightblue" stroke="midnightblue" points="674.146,-85.0316 669.501,-75.5091 667.194,-85.8496 674.146,-85.0316"/>
</g>
<!-- Node27&#45;&gt;Node22 -->
<g id="edge34" class="edge"><title>Node27&#45;&gt;Node22</title>
<path fill="none" stroke="midnightblue" d="M413.433,-56.324C397.542,-47.7428 372.993,-34.486 354.542,-24.5224"/>
<polygon fill="midnightblue" stroke="midnightblue" points="355.989,-21.3264 345.527,-19.6545 352.663,-27.4857 355.989,-21.3264"/>
</g>
<!-- Node30&#45;&gt;Node31 -->
<g id="edge40" class="edge"><title>Node30&#45;&gt;Node31</title>
<path fill="none" stroke="midnightblue" d="M1351.47,-117.975C1341.74,-108.785 1326.04,-93.9563 1314.08,-82.656"/>
<polygon fill="midnightblue" stroke="midnightblue" points="1316.18,-79.8308 1306.51,-75.5091 1311.38,-84.9199 1316.18,-79.8308"/>
</g>
<!-- Node32&#45;&gt;Node6 -->
<g id="edge43" class="edge"><title>Node32&#45;&gt;Node6</title>
<path fill="none" stroke="midnightblue" d="M1593.74,-113.878C1590.96,-113.239 1588.2,-112.61 1585.5,-112 1471.9,-86.2935 1443.89,-77.9231 1329.5,-56 1244.1,-39.6318 1142.96,-23.9106 1091.05,-16.1063"/>
<polygon fill="midnightblue" stroke="midnightblue" points="1091.46,-12.6275 1081.05,-14.6084 1090.42,-19.5504 1091.46,-12.6275"/>
</g>
<!-- Node33&#45;&gt;Node7 -->
<g id="edge45" class="edge"><title>Node33&#45;&gt;Node7</title>
<path fill="none" stroke="midnightblue" d="M1089.13,-112.433C1077.59,-97.3696 1057.88,-73.3028 1037.5,-56 1023.21,-43.8681 1005.36,-32.6866 991.002,-24.5041"/>
<polygon fill="midnightblue" stroke="midnightblue" points="992.587,-21.3808 982.146,-19.5803 989.185,-27.4988 992.587,-21.3808"/>
</g>
<!-- Node33&#45;&gt;Node31 -->
<g id="edge46" class="edge"><title>Node33&#45;&gt;Node31</title>
<path fill="none" stroke="midnightblue" d="M1146.17,-112.475C1182.38,-101.593 1231.7,-86.7726 1264.05,-77.0504"/>
<polygon fill="midnightblue" stroke="midnightblue" points="1265.36,-80.3144 1273.92,-74.0845 1263.34,-73.6105 1265.36,-80.3144"/>
</g>
<!-- Node34&#45;&gt;Node5 -->
<g id="edge48" class="edge"><title>Node34&#45;&gt;Node5</title>
<path fill="none" stroke="midnightblue" d="M965.5,-112.399C965.5,-104.466 965.5,-94.458 965.5,-85.8583"/>
<polygon fill="midnightblue" stroke="midnightblue" points="969,-85.6577 965.5,-75.6578 962,-85.6578 969,-85.6577"/>
</g>
<!-- Node34&#45;&gt;Node6 -->
<g id="edge49" class="edge"><title>Node34&#45;&gt;Node6</title>
<path fill="none" stroke="midnightblue" d="M994.391,-112.341C1009.24,-103.719 1026.47,-91.3894 1037.5,-76 1047.24,-62.4116 1052.02,-43.8658 1054.35,-30.0614"/>
<polygon fill="midnightblue" stroke="midnightblue" points="1057.86,-30.1815 1055.78,-19.7938 1050.93,-29.2141 1057.86,-30.1815"/>
</g>
<!-- Node35&#45;&gt;Node31 -->
<g id="edge51" class="edge"><title>Node35&#45;&gt;Node31</title>
<path fill="none" stroke="midnightblue" d="M1243.53,-117.975C1253.26,-108.785 1268.96,-93.9563 1280.92,-82.656"/>
<polygon fill="midnightblue" stroke="midnightblue" points="1283.62,-84.9199 1288.49,-75.5091 1278.82,-79.8308 1283.62,-84.9199"/>
</g>
<!-- Node42&#45;&gt;Node8 -->
<g id="edge63" class="edge"><title>Node42&#45;&gt;Node8</title>
<path fill="none" stroke="midnightblue" d="M1249.99,-369.475C1307.12,-358.717 1384.7,-344.109 1436.35,-334.384"/>
<polygon fill="midnightblue" stroke="midnightblue" points="1437.14,-337.796 1446.32,-332.506 1435.85,-330.917 1437.14,-337.796"/>
</g>
<!-- Node43 -->
<g id="node43" class="node"><title>Node43</title>
<polygon fill="white" stroke="#bfbfbf" points="828,-313.5 828,-332.5 875,-332.5 875,-313.5 828,-313.5"/>
<text text-anchor="middle" x="851.5" y="-320.5" font-family="Helvetica,sans-Serif" font-size="10.00">queue</text>
</g>
<!-- Node42&#45;&gt;Node43 -->
<g id="edge61" class="edge"><title>Node42&#45;&gt;Node43</title>
<path fill="none" stroke="midnightblue" d="M1097.91,-372.308C1041.25,-363.619 962.413,-350.468 885.105,-333.196"/>
<polygon fill="midnightblue" stroke="midnightblue" points="885.722,-329.747 875.196,-330.958 884.179,-336.575 885.722,-329.747"/>
</g>
<!-- Node44 -->
<g id="node44" class="node"><title>Node44</title>
<polygon fill="white" stroke="#bfbfbf" points="893,-313.5 893,-332.5 1048,-332.5 1048,-313.5 893,-313.5"/>
<text text-anchor="middle" x="970.5" y="-320.5" font-family="Helvetica,sans-Serif" font-size="10.00">GameFramework/Controller.h</text>
</g>
<!-- Node42&#45;&gt;Node44 -->
<g id="edge62" class="edge"><title>Node42&#45;&gt;Node44</title>
<path fill="none" stroke="midnightblue" d="M1127.18,-369.475C1091.35,-359.075 1043.12,-345.078 1009.68,-335.372"/>
<polygon fill="midnightblue" stroke="midnightblue" points="1010.39,-331.933 999.808,-332.506 1008.44,-338.655 1010.39,-331.933"/>
</g>
<!-- Node45 -->
<g id="node45" class="node"><title>Node45</title>
<g id="a_node45"><a xlink:href="../../d4/dbd/Unreal_2CarlaUE4_2Plugins_2Carla_2Source_2Carla_2Vehicle_2VehicleControl_8h.html" target="_top" xlink:title="Vehicle/VehicleControl.h">
<polygon fill="white" stroke="black" points="1066,-313.5 1066,-332.5 1197,-332.5 1197,-313.5 1066,-313.5"/>
<text text-anchor="middle" x="1131.5" y="-320.5" font-family="Helvetica,sans-Serif" font-size="10.00">Vehicle/VehicleControl.h</text>
</a>
</g>
</g>
<!-- Node42&#45;&gt;Node45 -->
<g id="edge64" class="edge"><title>Node42&#45;&gt;Node45</title>
<path fill="none" stroke="midnightblue" d="M1165.07,-369.399C1158.74,-360.842 1150.63,-349.871 1143.97,-340.857"/>
<polygon fill="midnightblue" stroke="midnightblue" points="1146.66,-338.617 1137.9,-332.658 1141.03,-342.779 1146.66,-338.617"/>
</g>
<!-- Node47 -->
<g id="node47" class="node"><title>Node47</title>
<polygon fill="white" stroke="#bfbfbf" points="1215,-313.5 1215,-332.5 1422,-332.5 1422,-313.5 1215,-313.5"/>
<text text-anchor="middle" x="1318.5" y="-320.5" font-family="Helvetica,sans-Serif" font-size="10.00">WheeledVehicleAIController.generated.h</text>
</g>
<!-- Node42&#45;&gt;Node47 -->
<g id="edge66" class="edge"><title>Node42&#45;&gt;Node47</title>
<path fill="none" stroke="midnightblue" d="M1209.39,-369.399C1233.38,-359.416 1265.27,-346.147 1288.38,-336.534"/>
<polygon fill="midnightblue" stroke="midnightblue" points="1289.8,-339.731 1297.69,-332.658 1287.11,-333.268 1289.8,-339.731"/>
</g>
<!-- Node46 -->
<g id="node46" class="node"><title>Node46</title>
<polygon fill="white" stroke="#bfbfbf" points="1058.5,-252 1058.5,-271 1204.5,-271 1204.5,-252 1058.5,-252"/>
<text text-anchor="middle" x="1131.5" y="-259" font-family="Helvetica,sans-Serif" font-size="10.00">VehicleControl.generated.h</text>
</g>
<!-- Node45&#45;&gt;Node46 -->
<g id="edge65" class="edge"><title>Node45&#45;&gt;Node46</title>
<path fill="none" stroke="midnightblue" d="M1131.5,-313.475C1131.5,-305.08 1131.5,-291.981 1131.5,-281.163"/>
<polygon fill="midnightblue" stroke="midnightblue" points="1135,-281.009 1131.5,-271.009 1128,-281.009 1135,-281.009"/>
</g>
</g>
</svg>
