<?xml version="1.0" encoding="UTF-8" standalone="no"?>
<!DOCTYPE svg PUBLIC "-//W3C//DTD SVG 1.1//EN"
 "http://www.w3.org/Graphics/SVG/1.1/DTD/svg11.dtd">
<!-- Generated by graphviz version 2.38.0 (20140413.2041)
 -->
<!-- Title: pugi::as_utf8 Pages: 1 -->
<svg width="571pt" height="66pt"
 viewBox="0.00 0.00 571.00 66.00" xmlns="http://www.w3.org/2000/svg" xmlns:xlink="http://www.w3.org/1999/xlink">
<g id="graph0" class="graph" transform="scale(1 1) rotate(0) translate(4 62)">
<title>pugi::as_utf8</title>
<polygon fill="white" stroke="none" points="-4,4 -4,-62 567,-62 567,4 -4,4"/>
<!-- Node1 -->
<g id="node1" class="node"><title>Node1</title>
<polygon fill="#bfbfbf" stroke="black" points="0,-19.5 0,-38.5 73,-38.5 73,-19.5 0,-19.5"/>
<text text-anchor="middle" x="36.5" y="-26.5" font-family="Helvetica,sans-Serif" font-size="10.00">pugi::as_utf8</text>
</g>
<!-- Node2 -->
<g id="node2" class="node"><title>Node2</title>
<g id="a_node2"><a xlink:href="../../db/d20/pugixml_8cpp.html#a5ff37130284fc41f3cb91b7351392ca0" target="_top" xlink:title="as_utf8_impl">
<polygon fill="white" stroke="black" points="109,-19.5 109,-38.5 181,-38.5 181,-19.5 109,-19.5"/>
<text text-anchor="middle" x="145" y="-26.5" font-family="Helvetica,sans-Serif" font-size="10.00">as_utf8_impl</text>
</a>
</g>
</g>
<!-- Node1&#45;&gt;Node2 -->
<g id="edge1" class="edge"><title>Node1&#45;&gt;Node2</title>
<path fill="none" stroke="midnightblue" d="M73.2592,-29C81.4218,-29 90.2012,-29 98.7038,-29"/>
<polygon fill="midnightblue" stroke="midnightblue" points="98.8778,-32.5001 108.878,-29 98.8777,-25.5001 98.8778,-32.5001"/>
</g>
<!-- Node3 -->
<g id="node3" class="node"><title>Node3</title>
<g id="a_node3"><a xlink:href="../../db/d20/pugixml_8cpp.html#acf5b48bb1e377e9583eec8ba0e607898" target="_top" xlink:title="as_utf8_begin">
<polygon fill="white" stroke="black" points="217,-38.5 217,-57.5 294,-57.5 294,-38.5 217,-38.5"/>
<text text-anchor="middle" x="255.5" y="-45.5" font-family="Helvetica,sans-Serif" font-size="10.00">as_utf8_begin</text>
</a>
</g>
</g>
<!-- Node2&#45;&gt;Node3 -->
<g id="edge2" class="edge"><title>Node2&#45;&gt;Node3</title>
<path fill="none" stroke="midnightblue" d="M181.227,-35.1688C189.41,-36.6018 198.255,-38.1506 206.873,-39.6598"/>
<polygon fill="midnightblue" stroke="midnightblue" points="206.379,-43.1264 216.833,-41.4039 207.586,-36.2314 206.379,-43.1264"/>
</g>
<!-- Node6 -->
<g id="node6" class="node"><title>Node6</title>
<g id="a_node6"><a xlink:href="../../db/d20/pugixml_8cpp.html#a1bc09bbcdecde39207659ed351487999" target="_top" xlink:title="as_utf8_end">
<polygon fill="white" stroke="black" points="220.5,-0.5 220.5,-19.5 290.5,-19.5 290.5,-0.5 220.5,-0.5"/>
<text text-anchor="middle" x="255.5" y="-7.5" font-family="Helvetica,sans-Serif" font-size="10.00">as_utf8_end</text>
</a>
</g>
</g>
<!-- Node2&#45;&gt;Node6 -->
<g id="edge5" class="edge"><title>Node2&#45;&gt;Node6</title>
<path fill="none" stroke="midnightblue" d="M181.227,-22.8312C190.504,-21.2067 200.63,-19.4334 210.313,-17.7377"/>
<polygon fill="midnightblue" stroke="midnightblue" points="210.943,-21.1808 220.19,-16.0083 209.736,-14.2857 210.943,-21.1808"/>
</g>
<!-- Node4 -->
<g id="node4" class="node"><title>Node4</title>
<g id="a_node4"><a xlink:href="../../d4/d9e/structwchar__decoder.html#a965801bc1ce931281e10ee153586071c" target="_top" xlink:title="wchar_decoder::process">
<polygon fill="white" stroke="black" points="330,-19.5 330,-38.5 453,-38.5 453,-19.5 330,-19.5"/>
<text text-anchor="middle" x="391.5" y="-26.5" font-family="Helvetica,sans-Serif" font-size="10.00">wchar_decoder::process</text>
</a>
</g>
</g>
<!-- Node3&#45;&gt;Node4 -->
<g id="edge3" class="edge"><title>Node3&#45;&gt;Node4</title>
<path fill="none" stroke="midnightblue" d="M294.183,-42.6569C302.226,-41.5165 310.971,-40.2765 319.801,-39.0244"/>
<polygon fill="midnightblue" stroke="midnightblue" points="320.366,-42.4795 329.775,-37.6102 319.383,-35.5488 320.366,-42.4795"/>
</g>
<!-- Node5 -->
<g id="node5" class="node"><title>Node5</title>
<g id="a_node5"><a xlink:href="../../db/d20/pugixml_8cpp.html#a6d31b21cfa4167d79865a7797b33f3f1" target="_top" xlink:title="endian_swap">
<polygon fill="white" stroke="black" points="489,-19.5 489,-38.5 563,-38.5 563,-19.5 489,-19.5"/>
<text text-anchor="middle" x="526" y="-26.5" font-family="Helvetica,sans-Serif" font-size="10.00">endian_swap</text>
</a>
</g>
</g>
<!-- Node4&#45;&gt;Node5 -->
<g id="edge4" class="edge"><title>Node4&#45;&gt;Node5</title>
<path fill="none" stroke="midnightblue" d="M453.321,-29C461.835,-29 470.47,-29 478.658,-29"/>
<polygon fill="midnightblue" stroke="midnightblue" points="478.747,-32.5001 488.747,-29 478.747,-25.5001 478.747,-32.5001"/>
</g>
<!-- Node6&#45;&gt;Node4 -->
<g id="edge6" class="edge"><title>Node6&#45;&gt;Node4</title>
<path fill="none" stroke="midnightblue" d="M290.661,-14.8437C299.617,-16.1135 309.613,-17.5309 319.724,-18.9645"/>
<polygon fill="midnightblue" stroke="midnightblue" points="319.446,-22.4602 329.839,-20.3988 320.429,-15.5295 319.446,-22.4602"/>
</g>
</g>
</svg>
