<?xml version="1.0" encoding="UTF-8" standalone="no"?>
<!DOCTYPE svg PUBLIC "-//W3C//DTD SVG 1.1//EN"
 "http://www.w3.org/Graphics/SVG/1.1/DTD/svg11.dtd">
<!-- Generated by graphviz version 2.40.1 (20161225.0304)
 -->
<!-- Title: moodycamel::ConcurrentQueue&lt; T, Traits &gt;::ImplicitProducerKVP Pages: 1 -->
<svg width="1929pt" height="1064pt"
 viewBox="0.00 0.00 1929.00 1064.20" xmlns="http://www.w3.org/2000/svg" xmlns:xlink="http://www.w3.org/1999/xlink">
<g id="graph0" class="graph" transform="scale(1 1) rotate(0) translate(4 1060.2031)">
<title>moodycamel::ConcurrentQueue&lt; T, Traits &gt;::ImplicitProducerKVP</title>
<polygon fill="#ffffff" stroke="transparent" points="-4,4 -4,-1060.2031 1925,-1060.2031 1925,4 -4,4"/>
<!-- Node1 -->
<g id="node1" class="node">
<title>Node1</title>
<polygon fill="#bfbfbf" stroke="#000000" points="301,-1017.2031 301,-1047.2031 483,-1047.2031 483,-1017.2031 301,-1017.2031"/>
<text text-anchor="start" x="309" y="-1035.2031" font-family="Helvetica,sans-Serif" font-size="10.00" fill="#000000">moodycamel::ConcurrentQueue</text>
<text text-anchor="middle" x="392" y="-1024.2031" font-family="Helvetica,sans-Serif" font-size="10.00" fill="#000000">&lt; T, Traits &gt;::ImplicitProducerKVP</text>
</g>
<!-- Node28 -->
<g id="node28" class="node">
<title>Node28</title>
<g id="a_node28"><a xlink:href="../../d8/d1f/structmoodycamel_1_1ConcurrentQueue_1_1ImplicitProducerHash.html" target="_top" xlink:title="moodycamel::ConcurrentQueue\l\&lt; T, Traits \&gt;::ImplicitProducerHash">
<polygon fill="#ffffff" stroke="#000000" points="720,-898.2031 720,-928.2031 908,-928.2031 908,-898.2031 720,-898.2031"/>
<text text-anchor="start" x="728" y="-916.2031" font-family="Helvetica,sans-Serif" font-size="10.00" fill="#000000">moodycamel::ConcurrentQueue</text>
<text text-anchor="middle" x="814" y="-905.2031" font-family="Helvetica,sans-Serif" font-size="10.00" fill="#000000">&lt; T, Traits &gt;::ImplicitProducerHash</text>
</a>
</g>
</g>
<!-- Node1&#45;&gt;Node28 -->
<g id="edge37" class="edge">
<title>Node1&#45;&gt;Node28</title>
<path fill="none" stroke="#9a32cd" stroke-dasharray="5,2" d="M455.2675,-1014.3622C538.3636,-990.9299 682.8173,-950.1954 760.6553,-928.2458"/>
<polygon fill="#9a32cd" stroke="#9a32cd" points="454.1213,-1011.0489 445.4466,-1017.1316 456.0212,-1017.7861 454.1213,-1011.0489"/>
<text text-anchor="middle" x="594.5" y="-1004.2031" font-family="Helvetica,sans-Serif" font-size="10.00" fill="#000000"> entries</text>
</g>
<!-- Node2 -->
<g id="node2" class="node">
<title>Node2</title>
<polygon fill="#ffffff" stroke="#bfbfbf" points="0,-1017.2031 0,-1047.2031 132,-1047.2031 132,-1017.2031 0,-1017.2031"/>
<text text-anchor="start" x="8" y="-1035.2031" font-family="Helvetica,sans-Serif" font-size="10.00" fill="#000000">atomic&lt; details::thread</text>
<text text-anchor="middle" x="66" y="-1024.2031" font-family="Helvetica,sans-Serif" font-size="10.00" fill="#000000">_id_t &gt;</text>
</g>
<!-- Node2&#45;&gt;Node1 -->
<g id="edge1" class="edge">
<title>Node2&#45;&gt;Node1</title>
<path fill="none" stroke="#9a32cd" stroke-dasharray="5,2" d="M142.5501,-1032.2031C189.8728,-1032.2031 250.8756,-1032.2031 300.7095,-1032.2031"/>
<polygon fill="#9a32cd" stroke="#9a32cd" points="142.3639,-1028.7032 132.3639,-1032.2031 142.3639,-1035.7032 142.3639,-1028.7032"/>
<text text-anchor="middle" x="216.5" y="-1035.2031" font-family="Helvetica,sans-Serif" font-size="10.00" fill="#000000"> key</text>
</g>
<!-- Node3 -->
<g id="node3" class="node">
<title>Node3</title>
<g id="a_node3"><a xlink:href="../../d4/d1f/structmoodycamel_1_1ConcurrentQueue_1_1ImplicitProducer.html" target="_top" xlink:title="moodycamel::ConcurrentQueue\l\&lt; T, Traits \&gt;::ImplicitProducer">
<polygon fill="#ffffff" stroke="#000000" points="1750,-933.2031 1750,-963.2031 1921,-963.2031 1921,-933.2031 1750,-933.2031"/>
<text text-anchor="start" x="1758" y="-951.2031" font-family="Helvetica,sans-Serif" font-size="10.00" fill="#000000">moodycamel::ConcurrentQueue</text>
<text text-anchor="middle" x="1835.5" y="-940.2031" font-family="Helvetica,sans-Serif" font-size="10.00" fill="#000000">&lt; T, Traits &gt;::ImplicitProducer</text>
</a>
</g>
</g>
<!-- Node3&#45;&gt;Node1 -->
<g id="edge2" class="edge">
<title>Node3&#45;&gt;Node1</title>
<path fill="none" stroke="#9a32cd" stroke-dasharray="5,2" d="M1797.0428,-967.8909C1737.9986,-996.2435 1620.7329,-1045.2031 1515,-1045.2031 814,-1045.2031 814,-1045.2031 814,-1045.2031 700.0206,-1045.2031 568.8067,-1040.4066 483.3495,-1036.6406"/>
<polygon fill="#9a32cd" stroke="#9a32cd" points="1798.8915,-970.8837 1806.3504,-963.3593 1795.8273,-964.5899 1798.8915,-970.8837"/>
<text text-anchor="middle" x="1185.5" y="-1048.2031" font-family="Helvetica,sans-Serif" font-size="10.00" fill="#000000"> value</text>
</g>
<!-- Node4 -->
<g id="node4" class="node">
<title>Node4</title>
<g id="a_node4"><a xlink:href="../../d4/dea/structmoodycamel_1_1ConcurrentQueue_1_1ProducerBase.html" target="_top" xlink:title="moodycamel::ConcurrentQueue\l\&lt; T, Traits \&gt;::ProducerBase">
<polygon fill="#ffffff" stroke="#000000" points="1429.5,-550.2031 1429.5,-580.2031 1600.5,-580.2031 1600.5,-550.2031 1429.5,-550.2031"/>
<text text-anchor="start" x="1437.5" y="-568.2031" font-family="Helvetica,sans-Serif" font-size="10.00" fill="#000000">moodycamel::ConcurrentQueue</text>
<text text-anchor="middle" x="1515" y="-557.2031" font-family="Helvetica,sans-Serif" font-size="10.00" fill="#000000">&lt; T, Traits &gt;::ProducerBase</text>
</a>
</g>
</g>
<!-- Node4&#45;&gt;Node3 -->
<g id="edge3" class="edge">
<title>Node4&#45;&gt;Node3</title>
<path fill="none" stroke="#191970" d="M1534.1881,-588.133C1593.529,-659.0459 1773.0591,-873.5857 1822.6746,-932.8766"/>
<polygon fill="#191970" stroke="#191970" points="1536.6658,-585.64 1527.564,-580.2171 1531.2974,-590.1324 1536.6658,-585.64"/>
</g>
<!-- Node5 -->
<g id="node5" class="node">
<title>Node5</title>
<g id="a_node5"><a xlink:href="../../d2/ddf/structmoodycamel_1_1details_1_1ConcurrentQueueProducerTypelessBase.html" target="_top" xlink:title="moodycamel::details\l::ConcurrentQueueProducerTypelessBase">
<polygon fill="#ffffff" stroke="#000000" points="706,-3.2031 706,-33.2031 922,-33.2031 922,-3.2031 706,-3.2031"/>
<text text-anchor="start" x="714" y="-21.2031" font-family="Helvetica,sans-Serif" font-size="10.00" fill="#000000">moodycamel::details</text>
<text text-anchor="middle" x="814" y="-10.2031" font-family="Helvetica,sans-Serif" font-size="10.00" fill="#000000">::ConcurrentQueueProducerTypelessBase</text>
</a>
</g>
</g>
<!-- Node5&#45;&gt;Node4 -->
<g id="edge4" class="edge">
<title>Node5&#45;&gt;Node4</title>
<path fill="none" stroke="#191970" d="M856.1243,-37.7026C960.1824,-87.4479 1233.7047,-227.9728 1410,-408.2031 1454.483,-453.6789 1491.8458,-520.3924 1507.3343,-550.0393"/>
<polygon fill="#191970" stroke="#191970" points="857.4166,-34.4417 846.8823,-33.3107 854.4121,-40.7641 857.4166,-34.4417"/>
</g>
<!-- Node5&#45;&gt;Node5 -->
<g id="edge5" class="edge">
<title>Node5&#45;&gt;Node5</title>
<path fill="none" stroke="#9a32cd" stroke-dasharray="5,2" d="M779.1732,-43.661C783.4957,-48.382 795.1046,-51.7031 814,-51.7031 845.0078,-51.7031 856.3935,-42.7597 848.157,-33.3621"/>
<polygon fill="#9a32cd" stroke="#9a32cd" points="782.6865,-43.5682 779.843,-33.3621 775.7013,-43.1138 782.6865,-43.5682"/>
<text text-anchor="middle" x="814" y="-54.7031" font-family="Helvetica,sans-Serif" font-size="10.00" fill="#000000"> next</text>
</g>
<!-- Node7 -->
<g id="node7" class="node">
<title>Node7</title>
<g id="a_node7"><a xlink:href="../../d1/dbb/structmoodycamel_1_1ProducerToken.html" target="_top" xlink:title="moodycamel::ProducerToken">
<polygon fill="#ffffff" stroke="#000000" points="1106.5,-8.7031 1106.5,-27.7031 1264.5,-27.7031 1264.5,-8.7031 1106.5,-8.7031"/>
<text text-anchor="middle" x="1185.5" y="-15.7031" font-family="Helvetica,sans-Serif" font-size="10.00" fill="#000000">moodycamel::ProducerToken</text>
</a>
</g>
</g>
<!-- Node5&#45;&gt;Node7 -->
<g id="edge8" class="edge">
<title>Node5&#45;&gt;Node7</title>
<path fill="none" stroke="#9a32cd" stroke-dasharray="5,2" d="M932.2765,-3.7061C934.8734,-3.5226 937.4504,-3.3543 940,-3.2031 1003.0004,.5338 1019.0522,1.3347 1082,-3.2031 1097.6647,-4.3323 1114.5601,-6.411 1130.0661,-8.6685"/>
<polygon fill="#9a32cd" stroke="#9a32cd" points="931.8795,-.2262 922.1785,-4.4854 932.4182,-7.2055 931.8795,-.2262"/>
<text text-anchor="middle" x="1011" y="-6.2031" font-family="Helvetica,sans-Serif" font-size="10.00" fill="#000000"> producer</text>
</g>
<!-- Node6 -->
<g id="node6" class="node">
<title>Node6</title>
<polygon fill="#ffffff" stroke="#bfbfbf" points="345,-168.7031 345,-187.7031 439,-187.7031 439,-168.7031 345,-168.7031"/>
<text text-anchor="middle" x="392" y="-175.7031" font-family="Helvetica,sans-Serif" font-size="10.00" fill="#000000">atomic&lt; bool &gt;</text>
</g>
<!-- Node6&#45;&gt;Node5 -->
<g id="edge6" class="edge">
<title>Node6&#45;&gt;Node5</title>
<path fill="none" stroke="#9a32cd" stroke-dasharray="5,2" d="M423.8147,-164.6809C445.4826,-155.567 474.8657,-143.3942 501,-133.2031 597.1412,-95.7125 711.1464,-54.6763 771.5276,-33.2082"/>
<polygon fill="#9a32cd" stroke="#9a32cd" points="422.2948,-161.5233 414.4414,-168.635 425.0156,-167.9729 422.2948,-161.5233"/>
<text text-anchor="middle" x="594.5" y="-136.2031" font-family="Helvetica,sans-Serif" font-size="10.00" fill="#000000"> inactive</text>
</g>
<!-- Node8 -->
<g id="node8" class="node">
<title>Node8</title>
<g id="a_node8"><a xlink:href="../../dc/dde/structmoodycamel_1_1ConcurrentQueue_1_1Block.html" target="_top" xlink:title="moodycamel::ConcurrentQueue\l\&lt; T, Traits \&gt;::Block">
<polygon fill="#ffffff" stroke="#000000" points="728.5,-281.2031 728.5,-311.2031 899.5,-311.2031 899.5,-281.2031 728.5,-281.2031"/>
<text text-anchor="start" x="736.5" y="-299.2031" font-family="Helvetica,sans-Serif" font-size="10.00" fill="#000000">moodycamel::ConcurrentQueue</text>
<text text-anchor="middle" x="814" y="-288.2031" font-family="Helvetica,sans-Serif" font-size="10.00" fill="#000000">&lt; T, Traits &gt;::Block</text>
</a>
</g>
</g>
<!-- Node6&#45;&gt;Node8 -->
<g id="edge16" class="edge">
<title>Node6&#45;&gt;Node8</title>
<path fill="none" stroke="#9a32cd" stroke-dasharray="5,2" d="M449.3151,-177.91C510.2583,-179.2901 608.6077,-186.4162 688,-215.2031 730.2945,-230.5386 772.9671,-262.1383 796.1916,-281.0167"/>
<polygon fill="#9a32cd" stroke="#9a32cd" points="449.1865,-174.4071 439.1246,-177.725 449.0595,-181.406 449.1865,-174.4071"/>
<text text-anchor="middle" x="594.5" y="-229.2031" font-family="Helvetica,sans-Serif" font-size="10.00" fill="#000000"> shouldBeOnFreeList</text>
<text text-anchor="middle" x="594.5" y="-218.2031" font-family="Helvetica,sans-Serif" font-size="10.00" fill="#000000">emptyFlags</text>
</g>
<!-- Node7&#45;&gt;Node5 -->
<g id="edge7" class="edge">
<title>Node7&#45;&gt;Node5</title>
<path fill="none" stroke="#9a32cd" stroke-dasharray="5,2" d="M1096.1995,-18.2031C1043.9723,-18.2031 977.6667,-18.2031 922.4519,-18.2031"/>
<polygon fill="#9a32cd" stroke="#9a32cd" points="1096.4498,-21.7032 1106.4498,-18.2031 1096.4498,-14.7032 1096.4498,-21.7032"/>
<text text-anchor="middle" x="1011" y="-21.2031" font-family="Helvetica,sans-Serif" font-size="10.00" fill="#000000"> token</text>
</g>
<!-- Node8&#45;&gt;Node4 -->
<g id="edge9" class="edge">
<title>Node8&#45;&gt;Node4</title>
<path fill="none" stroke="#9a32cd" stroke-dasharray="5,2" d="M909.8918,-292.1603C961.8595,-292.5574 1026.5962,-297.2949 1082,-314.2031 1257.7706,-367.8448 1438.6562,-504.1745 1496.2311,-549.9495"/>
<polygon fill="#9a32cd" stroke="#9a32cd" points="909.6833,-288.6599 899.6751,-292.1365 909.6669,-295.6599 909.6833,-288.6599"/>
<text text-anchor="middle" x="1185.5" y="-400.2031" font-family="Helvetica,sans-Serif" font-size="10.00" fill="#000000"> tailBlock</text>
</g>
<!-- Node8&#45;&gt;Node8 -->
<g id="edge13" class="edge">
<title>Node8&#45;&gt;Node8</title>
<path fill="none" stroke="#9a32cd" stroke-dasharray="5,2" d="M779.1732,-321.661C783.4957,-326.382 795.1046,-329.7031 814,-329.7031 845.0078,-329.7031 856.3935,-320.7597 848.157,-311.3621"/>
<polygon fill="#9a32cd" stroke="#9a32cd" points="782.6865,-321.5682 779.843,-311.3621 775.7013,-321.1138 782.6865,-321.5682"/>
<text text-anchor="middle" x="814" y="-332.7031" font-family="Helvetica,sans-Serif" font-size="10.00" fill="#000000"> next</text>
</g>
<!-- Node19 -->
<g id="node19" class="node">
<title>Node19</title>
<g id="a_node19"><a xlink:href="../../d8/dc8/classmoodycamel_1_1ConcurrentQueue.html" target="_top" xlink:title="moodycamel::ConcurrentQueue\l\&lt; T, Traits \&gt;">
<polygon fill="#ffffff" stroke="#000000" points="1100,-583.2031 1100,-613.2031 1271,-613.2031 1271,-583.2031 1100,-583.2031"/>
<text text-anchor="start" x="1108" y="-601.2031" font-family="Helvetica,sans-Serif" font-size="10.00" fill="#000000">moodycamel::ConcurrentQueue</text>
<text text-anchor="middle" x="1185.5" y="-590.2031" font-family="Helvetica,sans-Serif" font-size="10.00" fill="#000000">&lt; T, Traits &gt;</text>
</a>
</g>
</g>
<!-- Node8&#45;&gt;Node19 -->
<g id="edge27" class="edge">
<title>Node8&#45;&gt;Node19</title>
<path fill="none" stroke="#9a32cd" stroke-dasharray="5,2" d="M909.6342,-310.9029C984.1535,-322.7971 1075.9989,-338.6145 1082,-345.2031 1112.7942,-379.0118 1075.191,-511.7866 1100,-550.2031 1109.512,-564.9323 1125.2106,-575.5794 1140.5777,-583.0448"/>
<polygon fill="#9a32cd" stroke="#9a32cd" points="910.1365,-307.4389 899.711,-309.3257 909.0376,-314.3521 910.1365,-307.4389"/>
<text text-anchor="middle" x="1011" y="-348.2031" font-family="Helvetica,sans-Serif" font-size="10.00" fill="#000000"> initialBlockPool</text>
</g>
<!-- Node9 -->
<g id="node9" class="node">
<title>Node9</title>
<polygon fill="#ffffff" stroke="#bfbfbf" points="341.5,-103.7031 341.5,-122.7031 442.5,-122.7031 442.5,-103.7031 341.5,-103.7031"/>
<text text-anchor="middle" x="392" y="-110.7031" font-family="Helvetica,sans-Serif" font-size="10.00" fill="#000000">atomic&lt; size_t &gt;</text>
</g>
<!-- Node9&#45;&gt;Node8 -->
<g id="edge10" class="edge">
<title>Node9&#45;&gt;Node8</title>
<path fill="none" stroke="#9a32cd" stroke-dasharray="5,2" d="M430.5314,-125.7906C451.2262,-132.1359 477.2905,-139.4685 501,-144.2031 583.0641,-160.5905 612.9798,-129.1217 688,-166.2031 742.0992,-192.9435 785.9246,-252.6983 804.4561,-280.9044"/>
<polygon fill="#9a32cd" stroke="#9a32cd" points="431.4259,-122.4034 420.8374,-122.7706 429.3438,-129.0866 431.4259,-122.4034"/>
<text text-anchor="middle" x="594.5" y="-169.2031" font-family="Helvetica,sans-Serif" font-size="10.00" fill="#000000"> elementsCompletelyDequeued</text>
</g>
<!-- Node9&#45;&gt;Node19 -->
<g id="edge23" class="edge">
<title>Node9&#45;&gt;Node19</title>
<path fill="none" stroke="#9a32cd" stroke-dasharray="5,2" d="M452.7338,-105.047C513.2555,-98.8105 608.3923,-94.1549 688,-113.2031 878.9888,-158.9021 972.9965,-149.8526 1082,-313.2031 1111.3176,-357.1378 1071.6078,-505.6648 1100,-550.2031 1109.4251,-564.9881 1125.1067,-575.646 1140.4846,-583.1045"/>
<polygon fill="#9a32cd" stroke="#9a32cd" points="452.1544,-101.5891 442.5872,-106.1409 452.9048,-108.5487 452.1544,-101.5891"/>
<text text-anchor="middle" x="814" y="-185.2031" font-family="Helvetica,sans-Serif" font-size="10.00" fill="#000000"> implicitProducerHashCount</text>
<text text-anchor="middle" x="814" y="-174.2031" font-family="Helvetica,sans-Serif" font-size="10.00" fill="#000000">initialBlockPoolIndex</text>
</g>
<!-- Node10 -->
<g id="node10" class="node">
<title>Node10</title>
<polygon fill="#ffffff" stroke="#bfbfbf" points="312,-681.2031 312,-711.2031 472,-711.2031 472,-681.2031 312,-681.2031"/>
<text text-anchor="start" x="320" y="-699.2031" font-family="Helvetica,sans-Serif" font-size="10.00" fill="#000000">atomic&lt; moodycamel</text>
<text text-anchor="middle" x="392" y="-688.2031" font-family="Helvetica,sans-Serif" font-size="10.00" fill="#000000">::ConcurrentQueue::Block * &gt;</text>
</g>
<!-- Node10&#45;&gt;Node8 -->
<g id="edge11" class="edge">
<title>Node10&#45;&gt;Node8</title>
<path fill="none" stroke="#9a32cd" stroke-dasharray="5,2" d="M399.7843,-671.5144C422.7165,-599.1074 489.1545,-391.7728 501,-382.2031 533.5684,-355.8917 647.9158,-371.2964 688,-359.2031 725.4633,-347.9005 765.3162,-326.1167 789.9377,-311.3684"/>
<polygon fill="#9a32cd" stroke="#9a32cd" points="396.4062,-670.5889 396.7282,-681.1788 403.0804,-672.6995 396.4062,-670.5889"/>
<text text-anchor="middle" x="594.5" y="-385.2031" font-family="Helvetica,sans-Serif" font-size="10.00" fill="#000000"> freeListNext</text>
</g>
<!-- Node23 -->
<g id="node23" class="node">
<title>Node23</title>
<g id="a_node23"><a xlink:href="../../db/d08/structmoodycamel_1_1ConcurrentQueue_1_1FreeList.html" target="_top" xlink:title="moodycamel::ConcurrentQueue\l\&lt; T, Traits \&gt;::FreeList\l\&lt; moodycamel::ConcurrentQueue\l::Block \&gt;">
<polygon fill="#ffffff" stroke="#000000" points="723,-741.2031 723,-793.2031 905,-793.2031 905,-741.2031 723,-741.2031"/>
<text text-anchor="start" x="731" y="-781.2031" font-family="Helvetica,sans-Serif" font-size="10.00" fill="#000000">moodycamel::ConcurrentQueue</text>
<text text-anchor="start" x="731" y="-770.2031" font-family="Helvetica,sans-Serif" font-size="10.00" fill="#000000">&lt; T, Traits &gt;::FreeList</text>
<text text-anchor="start" x="731" y="-759.2031" font-family="Helvetica,sans-Serif" font-size="10.00" fill="#000000">&lt; moodycamel::ConcurrentQueue</text>
<text text-anchor="middle" x="814" y="-748.2031" font-family="Helvetica,sans-Serif" font-size="10.00" fill="#000000">::Block &gt;</text>
</a>
</g>
</g>
<!-- Node10&#45;&gt;Node23 -->
<g id="edge30" class="edge">
<title>Node10&#45;&gt;Node23</title>
<path fill="none" stroke="#9a32cd" stroke-dasharray="5,2" d="M482.1614,-705.8505C541.012,-712.7707 619.3743,-723.1628 688,-736.2031 699.287,-738.3478 711.0775,-740.8684 722.723,-743.5298"/>
<polygon fill="#9a32cd" stroke="#9a32cd" points="482.487,-702.3648 472.1492,-704.6844 481.6772,-709.3178 482.487,-702.3648"/>
<text text-anchor="middle" x="594.5" y="-739.2031" font-family="Helvetica,sans-Serif" font-size="10.00" fill="#000000"> freeListHead</text>
</g>
<!-- Node11 -->
<g id="node11" class="node">
<title>Node11</title>
<polygon fill="#ffffff" stroke="#bfbfbf" points="373,-307.7031 373,-326.7031 411,-326.7031 411,-307.7031 373,-307.7031"/>
<text text-anchor="middle" x="392" y="-314.7031" font-family="Helvetica,sans-Serif" font-size="10.00" fill="#000000">char</text>
</g>
<!-- Node11&#45;&gt;Node8 -->
<g id="edge12" class="edge">
<title>Node11&#45;&gt;Node8</title>
<path fill="none" stroke="#9a32cd" stroke-dasharray="5,2" d="M421.5731,-315.7314C484.316,-312.6091 632.8065,-305.2198 728.0715,-300.4791"/>
<polygon fill="#9a32cd" stroke="#9a32cd" points="421.0427,-312.2534 411.229,-316.2462 421.3907,-319.2447 421.0427,-312.2534"/>
<text text-anchor="middle" x="594.5" y="-315.2031" font-family="Helvetica,sans-Serif" font-size="10.00" fill="#000000"> elements</text>
</g>
<!-- Node12 -->
<g id="node12" class="node">
<title>Node12</title>
<polygon fill="#ffffff" stroke="#bfbfbf" points="343,-269.7031 343,-288.7031 441,-288.7031 441,-269.7031 343,-269.7031"/>
<text text-anchor="middle" x="392" y="-276.7031" font-family="Helvetica,sans-Serif" font-size="10.00" fill="#000000">anonymous:@12</text>
</g>
<!-- Node12&#45;&gt;Node8 -->
<g id="edge14" class="edge">
<title>Node12&#45;&gt;Node8</title>
<path fill="none" stroke="#9a32cd" stroke-dasharray="5,2" d="M451.048,-277.2716C510.8445,-275.8165 605.9531,-274.8754 688,-280.2031 701.0926,-281.0532 714.9057,-282.3725 728.3971,-283.8969"/>
<polygon fill="#9a32cd" stroke="#9a32cd" points="450.9411,-273.7731 441.034,-277.5282 451.1204,-280.7708 450.9411,-273.7731"/>
<text text-anchor="middle" x="594.5" y="-283.2031" font-family="Helvetica,sans-Serif" font-size="10.00" fill="#000000"> @12</text>
</g>
<!-- Node13 -->
<g id="node13" class="node">
<title>Node13</title>
<polygon fill="#ffffff" stroke="#bfbfbf" points="373,-837.7031 373,-856.7031 411,-856.7031 411,-837.7031 373,-837.7031"/>
<text text-anchor="middle" x="392" y="-844.7031" font-family="Helvetica,sans-Serif" font-size="10.00" fill="#000000">bool</text>
</g>
<!-- Node13&#45;&gt;Node4 -->
<g id="edge43" class="edge">
<title>Node13&#45;&gt;Node4</title>
<path fill="none" stroke="#9a32cd" stroke-dasharray="5,2" d="M421.4976,-848.2643C518.6808,-850.8752 836.5968,-852.3427 1082,-772.2031 1244.3717,-719.1785 1424.3565,-618.3372 1489.625,-580.2627"/>
<polygon fill="#9a32cd" stroke="#9a32cd" points="421.3608,-844.7588 411.2618,-847.9619 421.1541,-851.7557 421.3608,-844.7588"/>
<text text-anchor="middle" x="1011" y="-812.2031" font-family="Helvetica,sans-Serif" font-size="10.00" fill="#000000"> isExplicit</text>
</g>
<!-- Node13&#45;&gt;Node8 -->
<g id="edge15" class="edge">
<title>Node13&#45;&gt;Node8</title>
<path fill="none" stroke="#9a32cd" stroke-dasharray="5,2" d="M421.4461,-847.6983C441.9197,-846.336 468.1126,-840.8612 483,-823.2031 512.3343,-788.4093 483.7135,-661.3016 501,-619.2031 550.5205,-498.6035 617.9982,-503.1862 688,-393.2031 698.0343,-377.4377 693.1719,-368.7925 706,-355.2031 724.4794,-335.627 750.931,-321.0284 773.0305,-311.2499"/>
<polygon fill="#9a32cd" stroke="#9a32cd" points="421.2124,-844.2045 411.3512,-848.0786 421.4759,-851.1996 421.2124,-844.2045"/>
<text text-anchor="middle" x="594.5" y="-622.2031" font-family="Helvetica,sans-Serif" font-size="10.00" fill="#000000"> dynamicallyAllocated</text>
</g>
<!-- Node14 -->
<g id="node14" class="node">
<title>Node14</title>
<polygon fill="#ffffff" stroke="#bfbfbf" points="325,-388.7031 325,-407.7031 459,-407.7031 459,-388.7031 325,-388.7031"/>
<text text-anchor="middle" x="392" y="-395.7031" font-family="Helvetica,sans-Serif" font-size="10.00" fill="#000000">atomic&lt; std::uint32_t &gt;</text>
</g>
<!-- Node14&#45;&gt;Node8 -->
<g id="edge17" class="edge">
<title>Node14&#45;&gt;Node8</title>
<path fill="none" stroke="#9a32cd" stroke-dasharray="5,2" d="M417.5852,-383.7243C439.1449,-372.2045 471.1634,-356.661 501,-348.2031 581.563,-325.3654 605.5314,-339.7247 688,-325.2031 709.7752,-321.3688 733.4473,-316.1918 754.3329,-311.273"/>
<polygon fill="#9a32cd" stroke="#9a32cd" points="415.8516,-380.683 408.7419,-388.5381 419.1984,-386.8311 415.8516,-380.683"/>
<text text-anchor="middle" x="594.5" y="-351.2031" font-family="Helvetica,sans-Serif" font-size="10.00" fill="#000000"> freeListRefs</text>
</g>
<!-- Node14&#45;&gt;Node19 -->
<g id="edge41" class="edge">
<title>Node14&#45;&gt;Node19</title>
<path fill="none" stroke="#9a32cd" stroke-dasharray="5,2" d="M429.5447,-410.779C450.3387,-417.0847 476.805,-424.0395 501,-427.2031 583.4096,-437.9784 618.4149,-472.6493 688,-427.2031 704.6622,-416.3209 689.3845,-397.1563 706,-386.2031 792.8338,-328.9608 835.9972,-384.6475 940,-384.2031 1003.1105,-383.9334 1035.0299,-342.0508 1082,-384.2031 1109.6153,-408.9858 1079.5531,-519.24 1100,-550.2031 1109.7558,-564.9764 1125.6958,-575.6683 1141.1853,-583.1567"/>
<polygon fill="#9a32cd" stroke="#9a32cd" points="430.4155,-407.3845 419.8272,-407.7551 428.3356,-414.0684 430.4155,-407.3845"/>
<text text-anchor="middle" x="814" y="-411.2031" font-family="Helvetica,sans-Serif" font-size="10.00" fill="#000000"> nextExplicitConsumerId</text>
<text text-anchor="middle" x="814" y="-400.2031" font-family="Helvetica,sans-Serif" font-size="10.00" fill="#000000">globalExplicitConsumerOffset</text>
<text text-anchor="middle" x="814" y="-389.2031" font-family="Helvetica,sans-Serif" font-size="10.00" fill="#000000">producerCount</text>
</g>
<!-- Node15 -->
<g id="node15" class="node">
<title>Node15</title>
<g id="a_node15"><a xlink:href="../../d9/d3b/unionmoodycamel_1_1details_1_1max__align__t.html" target="_top" xlink:title="moodycamel::details\l::max_align_t">
<polygon fill="#ffffff" stroke="#000000" points="332.5,-220.2031 332.5,-250.2031 451.5,-250.2031 451.5,-220.2031 332.5,-220.2031"/>
<text text-anchor="start" x="340.5" y="-238.2031" font-family="Helvetica,sans-Serif" font-size="10.00" fill="#000000">moodycamel::details</text>
<text text-anchor="middle" x="392" y="-227.2031" font-family="Helvetica,sans-Serif" font-size="10.00" fill="#000000">::max_align_t</text>
</a>
</g>
</g>
<!-- Node15&#45;&gt;Node8 -->
<g id="edge18" class="edge">
<title>Node15&#45;&gt;Node8</title>
<path fill="none" stroke="#9a32cd" stroke-dasharray="5,2" d="M461.8395,-237.7257C522.1259,-240.7615 611.3456,-247.3113 688,-261.2031 714.8073,-266.0612 744.1683,-274.0553 767.7986,-281.1779"/>
<polygon fill="#9a32cd" stroke="#9a32cd" points="461.8328,-234.2214 451.6751,-237.2334 461.4941,-241.2132 461.8328,-234.2214"/>
<text text-anchor="middle" x="594.5" y="-264.2031" font-family="Helvetica,sans-Serif" font-size="10.00" fill="#000000"> dummy</text>
</g>
<!-- Node16 -->
<g id="node16" class="node">
<title>Node16</title>
<polygon fill="#ffffff" stroke="#bfbfbf" points="35,-187.7031 35,-206.7031 97,-206.7031 97,-187.7031 35,-187.7031"/>
<text text-anchor="middle" x="66" y="-194.7031" font-family="Helvetica,sans-Serif" font-size="10.00" fill="#000000">long long</text>
</g>
<!-- Node16&#45;&gt;Node15 -->
<g id="edge19" class="edge">
<title>Node16&#45;&gt;Node15</title>
<path fill="none" stroke="#9a32cd" stroke-dasharray="5,2" d="M107.2606,-201.1902C150.9472,-205.5021 221.8984,-212.7626 283,-220.2031 299.0228,-222.1542 316.3438,-224.4516 332.3602,-226.654"/>
<polygon fill="#9a32cd" stroke="#9a32cd" points="107.5928,-197.7061 97.2985,-200.2114 106.9083,-204.6725 107.5928,-197.7061"/>
<text text-anchor="middle" x="216.5" y="-223.2031" font-family="Helvetica,sans-Serif" font-size="10.00" fill="#000000"> y</text>
</g>
<!-- Node17 -->
<g id="node17" class="node">
<title>Node17</title>
<polygon fill="#ffffff" stroke="#bfbfbf" points="27.5,-263.7031 27.5,-282.7031 104.5,-282.7031 104.5,-263.7031 27.5,-263.7031"/>
<text text-anchor="middle" x="66" y="-270.7031" font-family="Helvetica,sans-Serif" font-size="10.00" fill="#000000">max_align_t</text>
</g>
<!-- Node17&#45;&gt;Node15 -->
<g id="edge20" class="edge">
<title>Node17&#45;&gt;Node15</title>
<path fill="none" stroke="#9a32cd" stroke-dasharray="5,2" d="M114.9871,-268.4507C159.0008,-264.076 225.38,-257.2196 283,-250.2031 299.0228,-248.2519 316.3438,-245.9546 332.3602,-243.7521"/>
<polygon fill="#9a32cd" stroke="#9a32cd" points="114.4555,-264.9861 104.8487,-269.4537 115.1448,-271.9521 114.4555,-264.9861"/>
<text text-anchor="middle" x="216.5" y="-268.2031" font-family="Helvetica,sans-Serif" font-size="10.00" fill="#000000"> x</text>
</g>
<!-- Node18 -->
<g id="node18" class="node">
<title>Node18</title>
<polygon fill="#ffffff" stroke="#bfbfbf" points="43,-225.7031 43,-244.7031 89,-244.7031 89,-225.7031 43,-225.7031"/>
<text text-anchor="middle" x="66" y="-232.7031" font-family="Helvetica,sans-Serif" font-size="10.00" fill="#000000">void *</text>
</g>
<!-- Node18&#45;&gt;Node15 -->
<g id="edge21" class="edge">
<title>Node18&#45;&gt;Node15</title>
<path fill="none" stroke="#9a32cd" stroke-dasharray="5,2" d="M99.3836,-235.2031C154.1906,-235.2031 263.9744,-235.2031 332.3851,-235.2031"/>
<polygon fill="#9a32cd" stroke="#9a32cd" points="99.1838,-231.7032 89.1838,-235.2031 99.1837,-238.7032 99.1838,-231.7032"/>
<text text-anchor="middle" x="216.5" y="-238.2031" font-family="Helvetica,sans-Serif" font-size="10.00" fill="#000000"> z</text>
</g>
<!-- Node19&#45;&gt;Node4 -->
<g id="edge22" class="edge">
<title>Node19&#45;&gt;Node4</title>
<path fill="none" stroke="#9a32cd" stroke-dasharray="5,2" d="M1281.0444,-588.9825C1320.9145,-585.0978 1367.7057,-580.4908 1410,-576.2031 1416.2912,-575.5653 1422.7938,-574.8996 1429.3364,-574.2252"/>
<polygon fill="#9a32cd" stroke="#9a32cd" points="1280.6778,-585.5016 1271.064,-589.9539 1281.356,-592.4686 1280.6778,-585.5016"/>
<text text-anchor="middle" x="1349.5" y="-591.2031" font-family="Helvetica,sans-Serif" font-size="10.00" fill="#000000"> parent</text>
</g>
<!-- Node20 -->
<g id="node20" class="node">
<title>Node20</title>
<polygon fill="#ffffff" stroke="#bfbfbf" points="736,-680.7031 736,-721.7031 892,-721.7031 892,-680.7031 736,-680.7031"/>
<text text-anchor="start" x="744" y="-709.7031" font-family="Helvetica,sans-Serif" font-size="10.00" fill="#000000">atomic&lt; moodycamel</text>
<text text-anchor="start" x="744" y="-698.7031" font-family="Helvetica,sans-Serif" font-size="10.00" fill="#000000">::ConcurrentQueue::Producer</text>
<text text-anchor="middle" x="814" y="-687.7031" font-family="Helvetica,sans-Serif" font-size="10.00" fill="#000000">Base * &gt;</text>
</g>
<!-- Node20&#45;&gt;Node19 -->
<g id="edge24" class="edge">
<title>Node20&#45;&gt;Node19</title>
<path fill="none" stroke="#9a32cd" stroke-dasharray="5,2" d="M902.296,-699.61C955.7395,-696.2415 1024.4558,-687.5725 1082,-666.2031 1115.0543,-653.9281 1148.2342,-629.4732 1167.8133,-613.4816"/>
<polygon fill="#9a32cd" stroke="#9a32cd" points="901.9411,-696.1246 892.1603,-700.1972 902.346,-703.1129 901.9411,-696.1246"/>
<text text-anchor="middle" x="1011" y="-699.2031" font-family="Helvetica,sans-Serif" font-size="10.00" fill="#000000"> producerListTail</text>
</g>
<!-- Node21 -->
<g id="node21" class="node">
<title>Node21</title>
<polygon fill="#ffffff" stroke="#bfbfbf" points="720.5,-571.2031 720.5,-623.2031 907.5,-623.2031 907.5,-571.2031 720.5,-571.2031"/>
<text text-anchor="start" x="728.5" y="-611.2031" font-family="Helvetica,sans-Serif" font-size="10.00" fill="#000000">array&lt; moodycamel::</text>
<text text-anchor="start" x="728.5" y="-600.2031" font-family="Helvetica,sans-Serif" font-size="10.00" fill="#000000">ConcurrentQueue::ImplicitProducer</text>
<text text-anchor="start" x="728.5" y="-589.2031" font-family="Helvetica,sans-Serif" font-size="10.00" fill="#000000">KVP, INITIAL_IMPLICIT_PRODUCER</text>
<text text-anchor="middle" x="814" y="-578.2031" font-family="Helvetica,sans-Serif" font-size="10.00" fill="#000000">_HASH_SIZE &gt;</text>
</g>
<!-- Node21&#45;&gt;Node19 -->
<g id="edge25" class="edge">
<title>Node21&#45;&gt;Node19</title>
<path fill="none" stroke="#9a32cd" stroke-dasharray="5,2" d="M917.9243,-597.4828C975.2514,-597.6371 1045.5742,-597.8264 1099.7383,-597.9722"/>
<polygon fill="#9a32cd" stroke="#9a32cd" points="917.7546,-593.9824 907.7451,-597.4554 917.7356,-600.9824 917.7546,-593.9824"/>
<text text-anchor="start" x="943" y="-612.2031" font-family="Helvetica,sans-Serif" font-size="10.00" fill="#000000"> initialImplicitProducerHash</text>
<text text-anchor="middle" x="1011" y="-601.2031" font-family="Helvetica,sans-Serif" font-size="10.00" fill="#000000">Entries</text>
</g>
<!-- Node22 -->
<g id="node22" class="node">
<title>Node22</title>
<polygon fill="#ffffff" stroke="#bfbfbf" points="38,-735.7031 38,-754.7031 94,-754.7031 94,-735.7031 38,-735.7031"/>
<text text-anchor="middle" x="66" y="-742.7031" font-family="Helvetica,sans-Serif" font-size="10.00" fill="#000000">uint32_t</text>
</g>
<!-- Node22&#45;&gt;Node19 -->
<g id="edge26" class="edge">
<title>Node22&#45;&gt;Node19</title>
<path fill="none" stroke="#9a32cd" stroke-dasharray="5,2" d="M99.0371,-731.9591C143.9306,-714.6248 227.0915,-684.8497 301,-671.2031 642.9588,-608.0632 738.329,-677.2379 1082,-624.2031 1099.0286,-621.5752 1117.3441,-617.4254 1133.7641,-613.2062"/>
<polygon fill="#9a32cd" stroke="#9a32cd" points="97.574,-728.7729 89.5284,-735.6663 100.1168,-735.2948 97.574,-728.7729"/>
<text text-anchor="start" x="501" y="-660.2031" font-family="Helvetica,sans-Serif" font-size="10.00" fill="#000000"> EXPLICIT_CONSUMER_CONSUMPTION</text>
<text text-anchor="middle" x="594.5" y="-649.2031" font-family="Helvetica,sans-Serif" font-size="10.00" fill="#000000">_QUOTA_BEFORE_ROTATE</text>
</g>
<!-- Node22&#45;&gt;Node23 -->
<g id="edge29" class="edge">
<title>Node22&#45;&gt;Node23</title>
<path fill="none" stroke="#9a32cd" stroke-dasharray="5,2" d="M100.44,-758.1323C115.4418,-763.1683 133.3663,-768.3962 150,-771.2031 385.8363,-811 449.3062,-798.2976 688,-783.2031 699.3335,-782.4864 711.2062,-781.4105 722.9426,-780.149"/>
<polygon fill="#9a32cd" stroke="#9a32cd" points="101.1675,-754.6801 90.5727,-754.7087 98.8729,-761.2934 101.1675,-754.6801"/>
<text text-anchor="middle" x="392" y="-812.2031" font-family="Helvetica,sans-Serif" font-size="10.00" fill="#000000"> SHOULD_BE_ON_FREELIST</text>
<text text-anchor="middle" x="392" y="-801.2031" font-family="Helvetica,sans-Serif" font-size="10.00" fill="#000000">REFS_MASK</text>
</g>
<!-- Node24 -->
<g id="node24" class="node">
<title>Node24</title>
<g id="a_node24"><a xlink:href="../../db/d08/structmoodycamel_1_1ConcurrentQueue_1_1FreeList.html" target="_top" xlink:title="moodycamel::ConcurrentQueue\l\&lt; T, Traits \&gt;::FreeList\&lt; N \&gt;">
<polygon fill="#ffffff" stroke="#000000" points="306.5,-730.2031 306.5,-760.2031 477.5,-760.2031 477.5,-730.2031 306.5,-730.2031"/>
<text text-anchor="start" x="314.5" y="-748.2031" font-family="Helvetica,sans-Serif" font-size="10.00" fill="#000000">moodycamel::ConcurrentQueue</text>
<text text-anchor="middle" x="392" y="-737.2031" font-family="Helvetica,sans-Serif" font-size="10.00" fill="#000000">&lt; T, Traits &gt;::FreeList&lt; N &gt;</text>
</a>
</g>
</g>
<!-- Node22&#45;&gt;Node24 -->
<g id="edge32" class="edge">
<title>Node22&#45;&gt;Node24</title>
<path fill="none" stroke="#9a32cd" stroke-dasharray="5,2" d="M104.3003,-745.2031C153.6278,-745.2031 240.7962,-745.2031 306.2957,-745.2031"/>
<polygon fill="#9a32cd" stroke="#9a32cd" points="104.0768,-741.7032 94.0767,-745.2031 104.0767,-748.7032 104.0768,-741.7032"/>
<text text-anchor="middle" x="216.5" y="-759.2031" font-family="Helvetica,sans-Serif" font-size="10.00" fill="#000000"> SHOULD_BE_ON_FREELIST</text>
<text text-anchor="middle" x="216.5" y="-748.2031" font-family="Helvetica,sans-Serif" font-size="10.00" fill="#000000">REFS_MASK</text>
</g>
<!-- Node23&#45;&gt;Node19 -->
<g id="edge28" class="edge">
<title>Node23&#45;&gt;Node19</title>
<path fill="none" stroke="#9a32cd" stroke-dasharray="5,2" d="M915.2235,-760.9217C967.7579,-754.0982 1031.3596,-740.0381 1082,-711.2031 1125.0002,-686.7185 1160.1527,-638.1611 1176.1616,-613.437"/>
<polygon fill="#9a32cd" stroke="#9a32cd" points="914.7085,-757.4586 905.2104,-762.1529 915.5628,-764.4063 914.7085,-757.4586"/>
<text text-anchor="middle" x="1011" y="-760.2031" font-family="Helvetica,sans-Serif" font-size="10.00" fill="#000000"> freeList</text>
</g>
<!-- Node24&#45;&gt;Node23 -->
<g id="edge31" class="edge">
<title>Node24&#45;&gt;Node23</title>
<path fill="none" stroke="#ffa500" stroke-dasharray="5,2" d="M487.8718,-750.2011C558.3948,-753.8777 653.6482,-758.8435 722.9964,-762.4588"/>
<polygon fill="#ffa500" stroke="#ffa500" points="487.8209,-746.6938 477.6522,-749.6684 487.4564,-753.6843 487.8209,-746.6938"/>
<text text-anchor="start" x="525.5" y="-774.2031" font-family="Helvetica,sans-Serif" font-size="10.00" fill="#000000"> &lt; moodycamel::Concurrent</text>
<text text-anchor="middle" x="594.5" y="-763.2031" font-family="Helvetica,sans-Serif" font-size="10.00" fill="#000000">Queue::Block &gt;</text>
</g>
<!-- Node25 -->
<g id="node25" class="node">
<title>Node25</title>
<polygon fill="#ffffff" stroke="#bfbfbf" points="21.5,-616.7031 21.5,-635.7031 110.5,-635.7031 110.5,-616.7031 21.5,-616.7031"/>
<text text-anchor="middle" x="66" y="-623.7031" font-family="Helvetica,sans-Serif" font-size="10.00" fill="#000000">atomic&lt; N * &gt;</text>
</g>
<!-- Node25&#45;&gt;Node24 -->
<g id="edge33" class="edge">
<title>Node25&#45;&gt;Node24</title>
<path fill="none" stroke="#9a32cd" stroke-dasharray="5,2" d="M96.7829,-639.8086C141.2909,-659.1825 226.4596,-695.1442 301,-720.2031 311.405,-723.701 322.5969,-727.0804 333.451,-730.1637"/>
<polygon fill="#9a32cd" stroke="#9a32cd" points="97.9691,-636.5074 87.4044,-635.7093 95.1656,-642.9215 97.9691,-636.5074"/>
<text text-anchor="middle" x="216.5" y="-717.2031" font-family="Helvetica,sans-Serif" font-size="10.00" fill="#000000"> freeListHead</text>
</g>
<!-- Node26 -->
<g id="node26" class="node">
<title>Node26</title>
<polygon fill="#ffffff" stroke="#bfbfbf" points="739,-510.7031 739,-551.7031 889,-551.7031 889,-510.7031 739,-510.7031"/>
<text text-anchor="start" x="747" y="-539.7031" font-family="Helvetica,sans-Serif" font-size="10.00" fill="#000000">atomic&lt; moodycamel</text>
<text text-anchor="start" x="747" y="-528.7031" font-family="Helvetica,sans-Serif" font-size="10.00" fill="#000000">::ConcurrentQueue::Implicit</text>
<text text-anchor="middle" x="814" y="-517.7031" font-family="Helvetica,sans-Serif" font-size="10.00" fill="#000000">ProducerHash * &gt;</text>
</g>
<!-- Node26&#45;&gt;Node19 -->
<g id="edge34" class="edge">
<title>Node26&#45;&gt;Node19</title>
<path fill="none" stroke="#9a32cd" stroke-dasharray="5,2" d="M899.0143,-550.837C912.6905,-553.7814 926.7146,-556.6741 940,-559.2031 992.8874,-569.2705 1052.5281,-578.7873 1099.7814,-585.8994"/>
<polygon fill="#9a32cd" stroke="#9a32cd" points="899.6484,-547.3931 889.133,-548.6883 898.1609,-554.2333 899.6484,-547.3931"/>
<text text-anchor="middle" x="1011" y="-586.2031" font-family="Helvetica,sans-Serif" font-size="10.00" fill="#000000"> implicitProducerHash</text>
</g>
<!-- Node27 -->
<g id="node27" class="node">
<title>Node27</title>
<polygon fill="#ffffff" stroke="#bfbfbf" points="777,-472.7031 777,-491.7031 851,-491.7031 851,-472.7031 777,-472.7031"/>
<text text-anchor="middle" x="814" y="-479.7031" font-family="Helvetica,sans-Serif" font-size="10.00" fill="#000000">atomic_flag</text>
</g>
<!-- Node27&#45;&gt;Node19 -->
<g id="edge35" class="edge">
<title>Node27&#45;&gt;Node19</title>
<path fill="none" stroke="#9a32cd" stroke-dasharray="5,2" d="M861.2949,-485.8496C880.6742,-488.5248 902.9729,-493.1627 922,-501.2031 931.09,-505.0443 930.8329,-510.5496 940,-514.2031 999.1491,-537.7765 1024.5255,-505.7987 1082,-533.2031 1091.9326,-537.939 1091.1358,-543.6829 1100,-550.2031 1117.0039,-562.7105 1137.5952,-574.363 1154.3092,-583.0544"/>
<polygon fill="#9a32cd" stroke="#9a32cd" points="861.5207,-482.3508 851.165,-484.589 860.6562,-489.2972 861.5207,-482.3508"/>
<text text-anchor="start" x="941.5" y="-547.2031" font-family="Helvetica,sans-Serif" font-size="10.00" fill="#000000"> implicitProducerHashResize</text>
<text text-anchor="middle" x="1011" y="-536.2031" font-family="Helvetica,sans-Serif" font-size="10.00" fill="#000000">InProgress</text>
</g>
<!-- Node28&#45;&gt;Node19 -->
<g id="edge36" class="edge">
<title>Node28&#45;&gt;Node19</title>
<path fill="none" stroke="#9a32cd" stroke-dasharray="5,2" d="M918.5246,-925.6893C972.5892,-926.524 1036.5827,-918.0551 1082,-882.2031 1126.6917,-846.9238 1169.9839,-667.3939 1182.1373,-613.5122"/>
<polygon fill="#9a32cd" stroke="#9a32cd" points="918.2917,-922.182 908.2027,-925.4168 918.1069,-929.1796 918.2917,-922.182"/>
<text text-anchor="middle" x="1011" y="-929.2031" font-family="Helvetica,sans-Serif" font-size="10.00" fill="#000000"> initialImplicitProducerHash</text>
</g>
<!-- Node28&#45;&gt;Node28 -->
<g id="edge38" class="edge">
<title>Node28&#45;&gt;Node28</title>
<path fill="none" stroke="#9a32cd" stroke-dasharray="5,2" d="M779.1732,-938.661C783.4957,-943.382 795.1046,-946.7031 814,-946.7031 845.0078,-946.7031 856.3935,-937.7597 848.157,-928.3621"/>
<polygon fill="#9a32cd" stroke="#9a32cd" points="782.6865,-938.5682 779.843,-928.3621 775.7013,-938.1138 782.6865,-938.5682"/>
<text text-anchor="middle" x="814" y="-949.7031" font-family="Helvetica,sans-Serif" font-size="10.00" fill="#000000"> prev</text>
</g>
<!-- Node29 -->
<g id="node29" class="node">
<title>Node29</title>
<polygon fill="#ffffff" stroke="#bfbfbf" points="369.5,-903.7031 369.5,-922.7031 414.5,-922.7031 414.5,-903.7031 369.5,-903.7031"/>
<text text-anchor="middle" x="392" y="-910.7031" font-family="Helvetica,sans-Serif" font-size="10.00" fill="#000000">size_t</text>
</g>
<!-- Node29&#45;&gt;Node3 -->
<g id="edge47" class="edge">
<title>Node29&#45;&gt;Node3</title>
<path fill="none" stroke="#9a32cd" stroke-dasharray="5,2" d="M424.6657,-922.7934C495.1209,-942.603 666.8992,-986.2031 814,-986.2031 814,-986.2031 814,-986.2031 1515,-986.2031 1596.8069,-986.2031 1689.5474,-973.8433 1754.1422,-963.2217"/>
<polygon fill="#9a32cd" stroke="#9a32cd" points="425.2094,-919.3093 414.6334,-919.9399 423.2943,-926.0423 425.2094,-919.3093"/>
<text text-anchor="middle" x="1185.5" y="-989.2031" font-family="Helvetica,sans-Serif" font-size="10.00" fill="#000000"> nextBlockIndexCapacity</text>
</g>
<!-- Node29&#45;&gt;Node19 -->
<g id="edge40" class="edge">
<title>Node29&#45;&gt;Node19</title>
<path fill="none" stroke="#9a32cd" stroke-dasharray="5,2" d="M425.0913,-909.3192C482.328,-902.6215 603.5264,-888.5279 706,-877.2031 789.5186,-867.9731 1014.3051,-886.982 1082,-837.2031 1158.3168,-781.0842 1179.0396,-656.7549 1184.0499,-613.44"/>
<polygon fill="#9a32cd" stroke="#9a32cd" points="424.3689,-905.8798 414.8439,-910.5193 425.1832,-912.8323 424.3689,-905.8798"/>
<text text-anchor="middle" x="814" y="-880.2031" font-family="Helvetica,sans-Serif" font-size="10.00" fill="#000000"> initialBlockPoolSize</text>
</g>
<!-- Node29&#45;&gt;Node28 -->
<g id="edge39" class="edge">
<title>Node29&#45;&gt;Node28</title>
<path fill="none" stroke="#9a32cd" stroke-dasharray="5,2" d="M424.7688,-913.2031C487.3907,-913.2031 626.1596,-913.2031 719.9186,-913.2031"/>
<polygon fill="#9a32cd" stroke="#9a32cd" points="424.6886,-909.7032 414.6886,-913.2031 424.6885,-916.7032 424.6886,-909.7032"/>
<text text-anchor="middle" x="594.5" y="-916.2031" font-family="Helvetica,sans-Serif" font-size="10.00" fill="#000000"> capacity</text>
</g>
<!-- Node30 -->
<g id="node30" class="node">
<title>Node30</title>
<polygon fill="#ffffff" stroke="#bfbfbf" points="762,-428.7031 762,-447.7031 866,-447.7031 866,-428.7031 762,-428.7031"/>
<text text-anchor="middle" x="814" y="-435.7031" font-family="Helvetica,sans-Serif" font-size="10.00" fill="#000000">static const size_t</text>
</g>
<!-- Node30&#45;&gt;Node19 -->
<g id="edge42" class="edge">
<title>Node30&#45;&gt;Node19</title>
<path fill="none" stroke="#9a32cd" stroke-dasharray="5,2" d="M876.0879,-429.3116C891.5346,-425.7859 907.7437,-420.9121 922,-414.2031 931.1702,-409.8875 930.4137,-403.4922 940,-400.2031 969.8476,-389.9621 1058.395,-379.2613 1082,-400.2031 1107.1138,-422.4833 1081.3402,-522.2939 1100,-550.2031 1109.84,-564.9205 1125.7958,-575.6019 1141.2744,-583.0976"/>
<polygon fill="#9a32cd" stroke="#9a32cd" points="875.1295,-425.937 866.0756,-431.4395 876.5848,-432.7841 875.1295,-425.937"/>
<text text-anchor="middle" x="1011" y="-502.2031" font-family="Helvetica,sans-Serif" font-size="10.00" fill="#000000"> MAX_SUBQUEUE_SIZE</text>
<text text-anchor="start" x="940" y="-491.2031" font-family="Helvetica,sans-Serif" font-size="10.00" fill="#000000">INITIAL_IMPLICIT_PRODUCER</text>
<text text-anchor="middle" x="1011" y="-480.2031" font-family="Helvetica,sans-Serif" font-size="10.00" fill="#000000">_HASH_SIZE</text>
<text text-anchor="start" x="940" y="-469.2031" font-family="Helvetica,sans-Serif" font-size="10.00" fill="#000000">IMPLICIT_INITIAL_INDEX</text>
<text text-anchor="middle" x="1011" y="-458.2031" font-family="Helvetica,sans-Serif" font-size="10.00" fill="#000000">_SIZE</text>
<text text-anchor="start" x="940" y="-447.2031" font-family="Helvetica,sans-Serif" font-size="10.00" fill="#000000">EXPLICIT_INITIAL_INDEX</text>
<text text-anchor="middle" x="1011" y="-436.2031" font-family="Helvetica,sans-Serif" font-size="10.00" fill="#000000">_SIZE</text>
<text text-anchor="middle" x="1011" y="-425.2031" font-family="Helvetica,sans-Serif" font-size="10.00" fill="#000000">BLOCK_SIZE</text>
<text text-anchor="start" x="940" y="-414.2031" font-family="Helvetica,sans-Serif" font-size="10.00" fill="#000000">EXPLICIT_BLOCK_EMPTY</text>
<text text-anchor="middle" x="1011" y="-403.2031" font-family="Helvetica,sans-Serif" font-size="10.00" fill="#000000">_COUNTER_THRESHOLD</text>
</g>
<!-- Node31 -->
<g id="node31" class="node">
<title>Node31</title>
<polygon fill="#ffffff" stroke="#bfbfbf" points="1131,-521.7031 1131,-540.7031 1240,-540.7031 1240,-521.7031 1131,-521.7031"/>
<text text-anchor="middle" x="1185.5" y="-528.7031" font-family="Helvetica,sans-Serif" font-size="10.00" fill="#000000">atomic&lt; index_t &gt;</text>
</g>
<!-- Node31&#45;&gt;Node4 -->
<g id="edge44" class="edge">
<title>Node31&#45;&gt;Node4</title>
<path fill="none" stroke="#9a32cd" stroke-dasharray="5,2" d="M1250.5997,-524.1154C1295.6781,-520.7201 1356.8894,-519.1192 1410,-528.2031 1434.576,-532.4065 1461.0458,-541.7687 1481.2604,-550.0233"/>
<polygon fill="#9a32cd" stroke="#9a32cd" points="1250.0582,-520.6475 1240.3707,-524.9373 1250.6189,-527.625 1250.0582,-520.6475"/>
<text text-anchor="middle" x="1349.5" y="-564.2031" font-family="Helvetica,sans-Serif" font-size="10.00" fill="#000000"> tailIndex</text>
<text text-anchor="middle" x="1349.5" y="-553.2031" font-family="Helvetica,sans-Serif" font-size="10.00" fill="#000000">headIndex</text>
<text text-anchor="middle" x="1349.5" y="-542.2031" font-family="Helvetica,sans-Serif" font-size="10.00" fill="#000000">dequeueOvercommit</text>
<text text-anchor="middle" x="1349.5" y="-531.2031" font-family="Helvetica,sans-Serif" font-size="10.00" fill="#000000">dequeueOptimisticCount</text>
</g>
<!-- Node32 -->
<g id="node32" class="node">
<title>Node32</title>
<polygon fill="#ffffff" stroke="#bfbfbf" points="1459,-938.7031 1459,-957.7031 1571,-957.7031 1571,-938.7031 1459,-938.7031"/>
<text text-anchor="middle" x="1515" y="-945.7031" font-family="Helvetica,sans-Serif" font-size="10.00" fill="#000000">static const index_t</text>
</g>
<!-- Node32&#45;&gt;Node3 -->
<g id="edge45" class="edge">
<title>Node32&#45;&gt;Node3</title>
<path fill="none" stroke="#9a32cd" stroke-dasharray="5,2" d="M1581.3247,-948.2031C1630.1334,-948.2031 1696.9081,-948.2031 1749.7674,-948.2031"/>
<polygon fill="#9a32cd" stroke="#9a32cd" points="1581.1936,-944.7032 1571.1936,-948.2031 1581.1936,-951.7032 1581.1936,-944.7032"/>
<text text-anchor="middle" x="1676" y="-951.2031" font-family="Helvetica,sans-Serif" font-size="10.00" fill="#000000"> INVALID_BLOCK_BASE</text>
</g>
<!-- Node33 -->
<g id="node33" class="node">
<title>Node33</title>
<polygon fill="#ffffff" stroke="#bfbfbf" points="1428,-878.7031 1428,-919.7031 1602,-919.7031 1602,-878.7031 1428,-878.7031"/>
<text text-anchor="start" x="1436" y="-907.7031" font-family="Helvetica,sans-Serif" font-size="10.00" fill="#000000">atomic&lt; moodycamel</text>
<text text-anchor="start" x="1436" y="-896.7031" font-family="Helvetica,sans-Serif" font-size="10.00" fill="#000000">::ConcurrentQueue::Implicit</text>
<text text-anchor="middle" x="1515" y="-885.7031" font-family="Helvetica,sans-Serif" font-size="10.00" fill="#000000">Producer::BlockIndexHeader * &gt;</text>
</g>
<!-- Node33&#45;&gt;Node3 -->
<g id="edge46" class="edge">
<title>Node33&#45;&gt;Node3</title>
<path fill="none" stroke="#9a32cd" stroke-dasharray="5,2" d="M1612.2524,-914.0716C1656.079,-920.7721 1707.3825,-928.6157 1749.7497,-935.093"/>
<polygon fill="#9a32cd" stroke="#9a32cd" points="1612.5688,-910.5794 1602.1547,-912.5278 1611.5108,-917.499 1612.5688,-910.5794"/>
<text text-anchor="middle" x="1676" y="-936.2031" font-family="Helvetica,sans-Serif" font-size="10.00" fill="#000000"> blockIndex</text>
</g>
</g>
</svg>
