<?xml version="1.0" encoding="UTF-8" standalone="no"?>
<!DOCTYPE svg PUBLIC "-//W3C//DTD SVG 1.1//EN"
 "http://www.w3.org/Graphics/SVG/1.1/DTD/svg11.dtd">
<!-- Generated by graphviz version 2.40.1 (20161225.0304)
 -->
<!-- Title: carla::traffic_manager::SimulationState::GetTLS Pages: 1 -->
<!--zoomable 137 -->
<svg id="main" version="1.1" xmlns="http://www.w3.org/2000/svg" xmlns:xlink="http://www.w3.org/1999/xlink" xml:space="preserve" onload="init(evt)">
<style type="text/css"><![CDATA[
.edge:hover path { stroke: red; }
.edge:hover polygon { stroke: red; fill: red; }
]]></style>
<script type="text/javascript"><![CDATA[
var edges = document.getElementsByTagName('g');
if (edges && edges.length) {
  for (var i=0;i<edges.length;i++) {
    if (edges[i].id.substr(0,4)=='edge') {
      edges[i].setAttribute('class','edge');
    }
  }
}
]]></script>
        <defs>
                <circle id="rim" cx="0" cy="0" r="7"/>
                <circle id="rim2" cx="0" cy="0" r="3.5"/>
                <g id="zoomPlus">
                        <use xlink:href="#rim" fill="#404040">
                                <set attributeName="fill" to="#808080" begin="zoomplus.mouseover" end="zoomplus.mouseout"/>
                        </use>
                        <path d="M-4,0h8M0,-4v8" fill="none" stroke="white" stroke-width="1.5" pointer-events="none"/>
                </g>
                <g id="zoomMin">
                        <use xlink:href="#rim" fill="#404040">
                                <set attributeName="fill" to="#808080" begin="zoomminus.mouseover" end="zoomminus.mouseout"/>
                        </use>
                        <path d="M-4,0h8" fill="none" stroke="white" stroke-width="1.5" pointer-events="none"/>
                </g>
                <g id="dirArrow">
                        <path fill="none" stroke="white" stroke-width="1.5" d="M0,-3.0v7 M-2.5,-0.5L0,-3.0L2.5,-0.5"/>
                </g>
               <g id="resetDef">
                       <use xlink:href="#rim2" fill="#404040">
                               <set attributeName="fill" to="#808080" begin="reset.mouseover" end="reset.mouseout"/>
                       </use>
               </g>
        </defs>

<script type="text/javascript">
var viewWidth = 1053;
var viewHeight = 137;
var sectionId = 'dynsection-9';
</script>
<script xlink:href="../../svgpan.js"/>
<svg id="graph" class="graph">
<g id="viewport">
<title>carla::traffic_manager::SimulationState::GetTLS</title>
<polygon fill="#ffffff" stroke="transparent" points="-4,4 -4,-133 1049,-133 1049,4 -4,4"/>
<!-- Node99 -->
<g id="node1" class="node">
<title>Node99</title>
<polygon fill="#bfbfbf" stroke="#000000" points="0,-49.5 0,-79.5 141,-79.5 141,-49.5 0,-49.5"/>
<text text-anchor="start" x="8" y="-67.5" font-family="Helvetica,sans-Serif" font-size="10.00" fill="#000000">carla::traffic_manager</text>
<text text-anchor="middle" x="70.5" y="-56.5" font-family="Helvetica,sans-Serif" font-size="10.00" fill="#000000">::SimulationState::GetTLS</text>
</g>
<!-- Node100 -->
<g id="node2" class="node">
<title>Node100</title>
<g id="a_node2"><a xlink:href="../../d2/d75/classcarla_1_1traffic__manager_1_1ALSM.html#a8960baa40ebe29297764a3418a7c83f9" target="_top" xlink:title="carla::traffic_manager\l::ALSM::IsVehicleStuck">
<polygon fill="#ffffff" stroke="#000000" points="208.5,-98.5 208.5,-128.5 333.5,-128.5 333.5,-98.5 208.5,-98.5"/>
<text text-anchor="start" x="216.5" y="-116.5" font-family="Helvetica,sans-Serif" font-size="10.00" fill="#000000">carla::traffic_manager</text>
<text text-anchor="middle" x="271" y="-105.5" font-family="Helvetica,sans-Serif" font-size="10.00" fill="#000000">::ALSM::IsVehicleStuck</text>
</a>
</g>
</g>
<!-- Node99&#45;&gt;Node100 -->
<g id="edge1" class="edge">
<title>Node99&#45;&gt;Node100</title>
<path fill="none" stroke="#191970" d="M142.0122,-81.9768C164.111,-87.3775 188.2448,-93.2755 209.5971,-98.4938"/>
<polygon fill="#191970" stroke="#191970" points="142.5642,-78.5088 132.0192,-79.5346 140.9024,-85.3087 142.5642,-78.5088"/>
</g>
<!-- Node106 -->
<g id="node8" class="node">
<title>Node106</title>
<g id="a_node8"><a xlink:href="../../d1/d26/classcarla_1_1traffic__manager_1_1CollisionStage.html#af9c0740908fbcb2f077fb513224b2b4e" target="_top" xlink:title="carla::traffic_manager\l::CollisionStage::NegotiateCollision">
<polygon fill="#ffffff" stroke="#000000" points="177,-49.5 177,-79.5 365,-79.5 365,-49.5 177,-49.5"/>
<text text-anchor="start" x="185" y="-67.5" font-family="Helvetica,sans-Serif" font-size="10.00" fill="#000000">carla::traffic_manager</text>
<text text-anchor="middle" x="271" y="-56.5" font-family="Helvetica,sans-Serif" font-size="10.00" fill="#000000">::CollisionStage::NegotiateCollision</text>
</a>
</g>
</g>
<!-- Node99&#45;&gt;Node106 -->
<g id="edge7" class="edge">
<title>Node99&#45;&gt;Node106</title>
<path fill="none" stroke="#191970" d="M151.2878,-64.5C159.6572,-64.5 168.2148,-64.5 176.715,-64.5"/>
<polygon fill="#191970" stroke="#191970" points="151.1888,-61.0001 141.1888,-64.5 151.1888,-68.0001 151.1888,-61.0001"/>
</g>
<!-- Node108 -->
<g id="node10" class="node">
<title>Node108</title>
<g id="a_node10"><a xlink:href="../../d5/db3/classcarla_1_1traffic__manager_1_1TrafficLightStage.html#a3566443b6d621479786b1906f76094d4" target="_top" xlink:title="carla::traffic_manager\l::TrafficLightStage::Update">
<polygon fill="#ffffff" stroke="#000000" points="401,-.5 401,-30.5 546,-30.5 546,-.5 401,-.5"/>
<text text-anchor="start" x="409" y="-18.5" font-family="Helvetica,sans-Serif" font-size="10.00" fill="#000000">carla::traffic_manager</text>
<text text-anchor="middle" x="473.5" y="-7.5" font-family="Helvetica,sans-Serif" font-size="10.00" fill="#000000">::TrafficLightStage::Update</text>
</a>
</g>
</g>
<!-- Node99&#45;&gt;Node108 -->
<g id="edge10" class="edge">
<title>Node99&#45;&gt;Node108</title>
<path fill="none" stroke="#191970" d="M137.2764,-47.2128C150.3775,-44.2788 164.067,-41.5297 177,-39.5 252.8916,-27.5898 340.6946,-21.4175 400.9437,-18.3363"/>
<polygon fill="#191970" stroke="#191970" points="136.357,-43.8328 127.395,-49.4837 137.9248,-50.655 136.357,-43.8328"/>
</g>
<!-- Node101 -->
<g id="node3" class="node">
<title>Node101</title>
<g id="a_node3"><a xlink:href="../../d2/d75/classcarla_1_1traffic__manager_1_1ALSM.html#a0a506446f6810014b6da12d0dcba0748" target="_top" xlink:title="carla::traffic_manager\l::ALSM::Update">
<polygon fill="#ffffff" stroke="#000000" points="411.5,-98.5 411.5,-128.5 535.5,-128.5 535.5,-98.5 411.5,-98.5"/>
<text text-anchor="start" x="419.5" y="-116.5" font-family="Helvetica,sans-Serif" font-size="10.00" fill="#000000">carla::traffic_manager</text>
<text text-anchor="middle" x="473.5" y="-105.5" font-family="Helvetica,sans-Serif" font-size="10.00" fill="#000000">::ALSM::Update</text>
</a>
</g>
</g>
<!-- Node100&#45;&gt;Node101 -->
<g id="edge2" class="edge">
<title>Node100&#45;&gt;Node101</title>
<path fill="none" stroke="#191970" d="M343.7174,-113.5C365.8934,-113.5 390.0577,-113.5 411.4582,-113.5"/>
<polygon fill="#191970" stroke="#191970" points="343.6855,-110.0001 333.6855,-113.5 343.6854,-117.0001 343.6855,-110.0001"/>
</g>
<!-- Node102 -->
<g id="node4" class="node">
<title>Node102</title>
<g id="a_node4"><a xlink:href="../../da/d0f/classcarla_1_1traffic__manager_1_1TrafficManagerLocal.html#a6d67cce3d0e5a48056645270364fe637" target="_top" xlink:title="Initiates thread to run the TrafficManager sequentially. ">
<polygon fill="#ffffff" stroke="#000000" points="582,-49.5 582,-79.5 725,-79.5 725,-49.5 582,-49.5"/>
<text text-anchor="start" x="590" y="-67.5" font-family="Helvetica,sans-Serif" font-size="10.00" fill="#000000">carla::traffic_manager</text>
<text text-anchor="middle" x="653.5" y="-56.5" font-family="Helvetica,sans-Serif" font-size="10.00" fill="#000000">::TrafficManagerLocal::Run</text>
</a>
</g>
</g>
<!-- Node101&#45;&gt;Node102 -->
<g id="edge3" class="edge">
<title>Node101&#45;&gt;Node102</title>
<path fill="none" stroke="#191970" d="M538.6985,-95.7515C558.2069,-90.4409 579.4016,-84.6712 598.2085,-79.5516"/>
<polygon fill="#191970" stroke="#191970" points="537.7042,-92.3947 528.9747,-98.3986 539.5429,-99.149 537.7042,-92.3947"/>
</g>
<!-- Node103 -->
<g id="node5" class="node">
<title>Node103</title>
<g id="a_node5"><a xlink:href="../../da/d0f/classcarla_1_1traffic__manager_1_1TrafficManagerLocal.html#a1ffbdb0bed64f385437d2820a90286d0" target="_top" xlink:title="To start the TrafficManager. ">
<polygon fill="#ffffff" stroke="#000000" points="761,-44 761,-85 885,-85 885,-44 761,-44"/>
<text text-anchor="start" x="769" y="-73" font-family="Helvetica,sans-Serif" font-size="10.00" fill="#000000">carla::traffic_manager</text>
<text text-anchor="start" x="769" y="-62" font-family="Helvetica,sans-Serif" font-size="10.00" fill="#000000">::TrafficManagerLocal</text>
<text text-anchor="middle" x="823" y="-51" font-family="Helvetica,sans-Serif" font-size="10.00" fill="#000000">::Start</text>
</a>
</g>
</g>
<!-- Node102&#45;&gt;Node103 -->
<g id="edge4" class="edge">
<title>Node102&#45;&gt;Node103</title>
<path fill="none" stroke="#191970" d="M735.4164,-64.5C743.9963,-64.5 752.615,-64.5 760.9201,-64.5"/>
<polygon fill="#191970" stroke="#191970" points="735.3833,-61.0001 725.3833,-64.5 735.3832,-68.0001 735.3833,-61.0001"/>
</g>
<!-- Node104 -->
<g id="node6" class="node">
<title>Node104</title>
<g id="a_node6"><a xlink:href="../../da/d0f/classcarla_1_1traffic__manager_1_1TrafficManagerLocal.html#a75976d36f4213ab24e79e3ea2dcd280a" target="_top" xlink:title="Private constructor for singleton lifecycle management. ">
<polygon fill="#ffffff" stroke="#000000" points="921,-74 921,-115 1045,-115 1045,-74 921,-74"/>
<text text-anchor="start" x="929" y="-103" font-family="Helvetica,sans-Serif" font-size="10.00" fill="#000000">carla::traffic_manager</text>
<text text-anchor="start" x="929" y="-92" font-family="Helvetica,sans-Serif" font-size="10.00" fill="#000000">::TrafficManagerLocal</text>
<text text-anchor="middle" x="983" y="-81" font-family="Helvetica,sans-Serif" font-size="10.00" fill="#000000">::TrafficManagerLocal</text>
</a>
</g>
</g>
<!-- Node103&#45;&gt;Node104 -->
<g id="edge5" class="edge">
<title>Node103&#45;&gt;Node104</title>
<path fill="none" stroke="#191970" d="M895.2667,-78.05C903.8078,-79.6515 912.4676,-81.2752 920.8518,-82.8472"/>
<polygon fill="#191970" stroke="#191970" points="895.7921,-74.5876 885.3183,-76.1847 894.502,-81.4677 895.7921,-74.5876"/>
</g>
<!-- Node105 -->
<g id="node7" class="node">
<title>Node105</title>
<g id="a_node7"><a xlink:href="../../da/d0f/classcarla_1_1traffic__manager_1_1TrafficManagerLocal.html#a1639db97ccf27a801b92fadabd611755" target="_top" xlink:title="To reset the traffic manager. ">
<polygon fill="#ffffff" stroke="#000000" points="921,-14 921,-55 1045,-55 1045,-14 921,-14"/>
<text text-anchor="start" x="929" y="-43" font-family="Helvetica,sans-Serif" font-size="10.00" fill="#000000">carla::traffic_manager</text>
<text text-anchor="start" x="929" y="-32" font-family="Helvetica,sans-Serif" font-size="10.00" fill="#000000">::TrafficManagerLocal</text>
<text text-anchor="middle" x="983" y="-21" font-family="Helvetica,sans-Serif" font-size="10.00" fill="#000000">::Reset</text>
</a>
</g>
</g>
<!-- Node103&#45;&gt;Node105 -->
<g id="edge6" class="edge">
<title>Node103&#45;&gt;Node105</title>
<path fill="none" stroke="#191970" d="M895.2667,-50.95C903.8078,-49.3485 912.4676,-47.7248 920.8518,-46.1528"/>
<polygon fill="#191970" stroke="#191970" points="894.502,-47.5323 885.3183,-52.8153 895.7921,-54.4124 894.502,-47.5323"/>
</g>
<!-- Node107 -->
<g id="node9" class="node">
<title>Node107</title>
<g id="a_node9"><a xlink:href="../../d1/d26/classcarla_1_1traffic__manager_1_1CollisionStage.html#ac446efd585519bce8de5740158758158" target="_top" xlink:title="carla::traffic_manager\l::CollisionStage::Update">
<polygon fill="#ffffff" stroke="#000000" points="406.5,-49.5 406.5,-79.5 540.5,-79.5 540.5,-49.5 406.5,-49.5"/>
<text text-anchor="start" x="414.5" y="-67.5" font-family="Helvetica,sans-Serif" font-size="10.00" fill="#000000">carla::traffic_manager</text>
<text text-anchor="middle" x="473.5" y="-56.5" font-family="Helvetica,sans-Serif" font-size="10.00" fill="#000000">::CollisionStage::Update</text>
</a>
</g>
</g>
<!-- Node106&#45;&gt;Node107 -->
<g id="edge8" class="edge">
<title>Node106&#45;&gt;Node107</title>
<path fill="none" stroke="#191970" d="M375.2835,-64.5C385.869,-64.5 396.4103,-64.5 406.4439,-64.5"/>
<polygon fill="#191970" stroke="#191970" points="375.1361,-61.0001 365.1361,-64.5 375.136,-68.0001 375.1361,-61.0001"/>
</g>
<!-- Node107&#45;&gt;Node102 -->
<g id="edge9" class="edge">
<title>Node107&#45;&gt;Node102</title>
<path fill="none" stroke="#191970" d="M550.7634,-64.5C561.0985,-64.5 571.6622,-64.5 581.8946,-64.5"/>
<polygon fill="#191970" stroke="#191970" points="550.5254,-61.0001 540.5254,-64.5 550.5253,-68.0001 550.5254,-61.0001"/>
</g>
<!-- Node108&#45;&gt;Node102 -->
<g id="edge11" class="edge">
<title>Node108&#45;&gt;Node102</title>
<path fill="none" stroke="#191970" d="M538.6985,-33.2485C558.2069,-38.5591 579.4016,-44.3288 598.2085,-49.4484"/>
<polygon fill="#191970" stroke="#191970" points="539.5429,-29.851 528.9747,-30.6014 537.7042,-36.6053 539.5429,-29.851"/>
</g>
</g>
</svg>
        <g id="navigator" transform="translate(0 0)" fill="#404254">
                <rect fill="#f2f5e9" fill-opacity="0.5" stroke="#606060" stroke-width=".5" x="0" y="0" width="60" height="60"/>
                <use id="zoomplus" xlink:href="#zoomPlus" x="17" y="9" onmousedown="handleZoom(evt,'in')"/>
                <use id="zoomminus" xlink:href="#zoomMin" x="42" y="9" onmousedown="handleZoom(evt,'out')"/>
                <use id="reset" xlink:href="#resetDef" x="30" y="36" onmousedown="handleReset()"/>
                <g id="arrowUp" xlink:href="#dirArrow" transform="translate(30 24)" onmousedown="handlePan(0,-1)">
                  <use xlink:href="#rim" fill="#404040">
                        <set attributeName="fill" to="#808080" begin="arrowUp.mouseover" end="arrowUp.mouseout"/>
                  </use>
                  <path fill="none" stroke="white" stroke-width="1.5" d="M0,-3.0v7 M-2.5,-0.5L0,-3.0L2.5,-0.5"/>
                </g>
                <g id="arrowRight" xlink:href="#dirArrow" transform="rotate(90) translate(36 -43)" onmousedown="handlePan(1,0)">
                  <use xlink:href="#rim" fill="#404040">
                        <set attributeName="fill" to="#808080" begin="arrowRight.mouseover" end="arrowRight.mouseout"/>
                  </use>
                  <path fill="none" stroke="white" stroke-width="1.5" d="M0,-3.0v7 M-2.5,-0.5L0,-3.0L2.5,-0.5"/>
                </g>
                <g id="arrowDown" xlink:href="#dirArrow" transform="rotate(180) translate(-30 -48)" onmousedown="handlePan(0,1)">
                  <use xlink:href="#rim" fill="#404040">
                        <set attributeName="fill" to="#808080" begin="arrowDown.mouseover" end="arrowDown.mouseout"/>
                  </use>
                  <path fill="none" stroke="white" stroke-width="1.5" d="M0,-3.0v7 M-2.5,-0.5L0,-3.0L2.5,-0.5"/>
                </g>
                <g id="arrowLeft" xlink:href="#dirArrow" transform="rotate(270) translate(-36 17)" onmousedown="handlePan(-1,0)">
                  <use xlink:href="#rim" fill="#404040">
                        <set attributeName="fill" to="#808080" begin="arrowLeft.mouseover" end="arrowLeft.mouseout"/>
                  </use>
                  <path fill="none" stroke="white" stroke-width="1.5" d="M0,-3.0v7 M-2.5,-0.5L0,-3.0L2.5,-0.5"/>
                </g>
        </g>
        <svg viewBox="0 0 15 15" width="100%" height="30px" preserveAspectRatio="xMaxYMin meet">
         <g id="arrow_out" transform="scale(0.3 0.3)">
          <a xlink:href="classcarla_1_1traffic__manager_1_1SimulationState_ada5c1aa54442baac2a2beda50a916d63_icgraph_org.svg" target="_base">
           <rect id="button" ry="5" rx="5" y="6" x="6" height="38" width="38"
                fill="#f2f5e9" fill-opacity="0.5" stroke="#606060" stroke-width="1.0"/>
           <path id="arrow"
             d="M 11.500037,31.436501 C 11.940474,20.09759 22.043105,11.32322 32.158766,21.979434 L 37.068811,17.246167 C 37.068811,17.246167 37.088388,32 37.088388,32 L 22.160133,31.978069 C 22.160133,31.978069 26.997745,27.140456 26.997745,27.140456 C 18.528582,18.264221 13.291696,25.230495 11.500037,31.436501 z"
             style="fill:#404040;"/>
          </a>
         </g>
        </svg>
</svg>
