<?xml version="1.0" encoding="UTF-8" standalone="no"?>
<!DOCTYPE svg PUBLIC "-//W3C//DTD SVG 1.1//EN"
 "http://www.w3.org/Graphics/SVG/1.1/DTD/svg11.dtd">
<!-- Generated by graphviz version 2.40.1 (20161225.0304)
 -->
<!-- Title: carla::client::TrafficLight::GetElapsedTime Pages: 1 -->
<svg width="310pt" height="39pt"
 viewBox="0.00 0.00 310.00 39.00" xmlns="http://www.w3.org/2000/svg" xmlns:xlink="http://www.w3.org/1999/xlink">
<g id="graph0" class="graph" transform="scale(1 1) rotate(0) translate(4 35)">
<title>carla::client::TrafficLight::GetElapsedTime</title>
<polygon fill="#ffffff" stroke="transparent" points="-4,4 -4,-35 306,-35 306,4 -4,4"/>
<!-- Node47 -->
<g id="node1" class="node">
<title>Node47</title>
<polygon fill="#bfbfbf" stroke="#000000" points="0,-.5 0,-30.5 133,-30.5 133,-.5 0,-.5"/>
<text text-anchor="start" x="8" y="-18.5" font-family="Helvetica,sans-Serif" font-size="10.00" fill="#000000">carla::client::TrafficLight</text>
<text text-anchor="middle" x="66.5" y="-7.5" font-family="Helvetica,sans-Serif" font-size="10.00" fill="#000000">::GetElapsedTime</text>
</g>
<!-- Node48 -->
<g id="node2" class="node">
<title>Node48</title>
<g id="a_node2"><a xlink:href="../../df/def/classcarla_1_1client_1_1TrafficLight.html#ade7612b955116660825d753363dd5842" target="_top" xlink:title="carla::client::TrafficLight\l::TrafficLight">
<polygon fill="#ffffff" stroke="#000000" points="169,-.5 169,-30.5 302,-30.5 302,-.5 169,-.5"/>
<text text-anchor="start" x="177" y="-18.5" font-family="Helvetica,sans-Serif" font-size="10.00" fill="#000000">carla::client::TrafficLight</text>
<text text-anchor="middle" x="235.5" y="-7.5" font-family="Helvetica,sans-Serif" font-size="10.00" fill="#000000">::TrafficLight</text>
</a>
</g>
</g>
<!-- Node47&#45;&gt;Node48 -->
<g id="edge1" class="edge">
<title>Node47&#45;&gt;Node48</title>
<path fill="none" stroke="#191970" d="M143.5505,-15.5C152.0194,-15.5 160.589,-15.5 168.9152,-15.5"/>
<polygon fill="#191970" stroke="#191970" points="143.2933,-12.0001 133.2933,-15.5 143.2932,-19.0001 143.2933,-12.0001"/>
</g>
</g>
</svg>
