<?xml version="1.0" encoding="UTF-8" standalone="no"?>
<!DOCTYPE svg PUBLIC "-//W3C//DTD SVG 1.1//EN"
 "http://www.w3.org/Graphics/SVG/1.1/DTD/svg11.dtd">
<!-- Generated by graphviz version 2.38.0 (20140413.2041)
 -->
<!-- Title: xml_buffered_writer Pages: 1 -->
<!--zoomable 106 -->
<svg id="main" version="1.1" xmlns="http://www.w3.org/2000/svg" xmlns:xlink="http://www.w3.org/1999/xlink" xml:space="preserve" onload="init(evt)">
<style type="text/css"><![CDATA[
.edge:hover path { stroke: red; }
.edge:hover polygon { stroke: red; fill: red; }
]]></style>
<script type="text/javascript"><![CDATA[
var edges = document.getElementsByTagName('g');
if (edges && edges.length) {
  for (var i=0;i<edges.length;i++) {
    if (edges[i].id.substr(0,4)=='edge') {
      edges[i].setAttribute('class','edge');
    }
  }
}
]]></script>
        <defs>
                <circle id="rim" cx="0" cy="0" r="7"/>
                <circle id="rim2" cx="0" cy="0" r="3.5"/>
                <g id="zoomPlus">
                        <use xlink:href="#rim" fill="#404040">
                                <set attributeName="fill" to="#808080" begin="zoomplus.mouseover" end="zoomplus.mouseout"/>
                        </use>
                        <path d="M-4,0h8M0,-4v8" fill="none" stroke="white" stroke-width="1.5" pointer-events="none"/>
                </g>
                <g id="zoomMin">
                        <use xlink:href="#rim" fill="#404040">
                                <set attributeName="fill" to="#808080" begin="zoomminus.mouseover" end="zoomminus.mouseout"/>
                        </use>
                        <path d="M-4,0h8" fill="none" stroke="white" stroke-width="1.5" pointer-events="none"/>
                </g>
                <g id="dirArrow">
                        <path fill="none" stroke="white" stroke-width="1.5" d="M0,-3.0v7 M-2.5,-0.5L0,-3.0L2.5,-0.5"/>
                </g>
               <g id="resetDef">
                       <use xlink:href="#rim2" fill="#404040">
                               <set attributeName="fill" to="#808080" begin="reset.mouseover" end="reset.mouseout"/>
                       </use>
               </g>
        </defs>

<script type="text/javascript">
var viewWidth = 661;
var viewHeight = 106;
var sectionId = 'dynsection-0';
</script>
<script xlink:href="../../svgpan.js"/>
<svg id="graph" class="graph">
<g id="viewport">
<title>xml_buffered_writer</title>
<polygon fill="white" stroke="none" points="-4,4 -4,-102 657,-102 657,4 -4,4"/>
<!-- Node1 -->
<g id="node1" class="node"><title>Node1</title>
<polygon fill="#bfbfbf" stroke="black" points="271.5,-0.5 271.5,-19.5 381.5,-19.5 381.5,-0.5 271.5,-0.5"/>
<text text-anchor="middle" x="326.5" y="-7.5" font-family="Helvetica,sans-Serif" font-size="10.00">xml_buffered_writer</text>
</g>
<!-- Node2 -->
<g id="node2" class="node"><title>Node2</title>
<polygon fill="white" stroke="#bfbfbf" points="0,-78.5 0,-97.5 111,-97.5 111,-78.5 0,-78.5"/>
<text text-anchor="middle" x="55.5" y="-85.5" font-family="Helvetica,sans-Serif" font-size="10.00">anonymous:scratch</text>
</g>
<!-- Node2&#45;&gt;Node1 -->
<g id="edge1" class="edge"><title>Node2&#45;&gt;Node1</title>
<path fill="none" stroke="#9a32cd" stroke-dasharray="5,2" d="M71.6695,-71.2645C84.2076,-60.052 102.585,-45.6603 121.5,-38 169.579,-18.5289 228.696,-12.4364 271.071,-10.823"/>
<polygon fill="#9a32cd" stroke="#9a32cd" points="68.934,-69.0283 63.9872,-78.3974 73.697,-74.1581 68.934,-69.0283"/>
<text text-anchor="middle" x="141" y="-46.5" font-family="Helvetica,sans-Serif" font-size="10.00"> scratch</text>
</g>
<!-- Node3 -->
<g id="node3" class="node"><title>Node3</title>
<polygon fill="white" stroke="#bfbfbf" points="128.5,-78.5 128.5,-97.5 184.5,-97.5 184.5,-78.5 128.5,-78.5"/>
<text text-anchor="middle" x="156.5" y="-85.5" font-family="Helvetica,sans-Serif" font-size="10.00">uint16_t</text>
</g>
<!-- Node3&#45;&gt;Node1 -->
<g id="edge2" class="edge"><title>Node3&#45;&gt;Node1</title>
<path fill="none" stroke="#9a32cd" stroke-dasharray="5,2" d="M160.766,-68.2864C164.122,-57.8132 169.889,-45.41 179.5,-38 193.782,-26.989 235.892,-19.9752 271.401,-15.8642"/>
<polygon fill="#9a32cd" stroke="#9a32cd" points="157.314,-67.6446 158.082,-78.2115 164.071,-69.472 157.314,-67.6446"/>
<text text-anchor="middle" x="204" y="-46.5" font-family="Helvetica,sans-Serif" font-size="10.00"> data_u16</text>
</g>
<!-- Node4 -->
<g id="node4" class="node"><title>Node4</title>
<polygon fill="white" stroke="#bfbfbf" points="202.5,-78.5 202.5,-97.5 246.5,-97.5 246.5,-78.5 202.5,-78.5"/>
<text text-anchor="middle" x="224.5" y="-85.5" font-family="Helvetica,sans-Serif" font-size="10.00">size_t</text>
</g>
<!-- Node4&#45;&gt;Node1 -->
<g id="edge3" class="edge"><title>Node4&#45;&gt;Node1</title>
<path fill="none" stroke="#9a32cd" stroke-dasharray="5,2" d="M228.785,-68.7907C232.065,-58.4918 237.584,-46.0946 246.5,-38 255.942,-29.4278 268.206,-23.5636 280.283,-19.557"/>
<polygon fill="#9a32cd" stroke="#9a32cd" points="225.393,-67.9262 226.128,-78.4955 232.144,-69.7745 225.393,-67.9262"/>
<text text-anchor="middle" x="265" y="-46.5" font-family="Helvetica,sans-Serif" font-size="10.00"> bufsize</text>
</g>
<!-- Node5 -->
<g id="node5" class="node"><title>Node5</title>
<polygon fill="white" stroke="#bfbfbf" points="264.5,-78.5 264.5,-97.5 320.5,-97.5 320.5,-78.5 264.5,-78.5"/>
<text text-anchor="middle" x="292.5" y="-85.5" font-family="Helvetica,sans-Serif" font-size="10.00">uint32_t</text>
</g>
<!-- Node5&#45;&gt;Node1 -->
<g id="edge4" class="edge"><title>Node5&#45;&gt;Node1</title>
<path fill="none" stroke="#9a32cd" stroke-dasharray="5,2" d="M288.162,-68.1417C286.933,-58.6444 286.968,-47.2206 291.5,-38 295.292,-30.2863 302.465,-24.1541 309.335,-19.6961"/>
<polygon fill="#9a32cd" stroke="#9a32cd" points="284.752,-68.9496 289.991,-78.1582 291.638,-67.6921 284.752,-68.9496"/>
<text text-anchor="middle" x="316" y="-46.5" font-family="Helvetica,sans-Serif" font-size="10.00"> data_u32</text>
</g>
<!-- Node6 -->
<g id="node6" class="node"><title>Node6</title>
<polygon fill="white" stroke="#bfbfbf" points="339,-78.5 339,-97.5 386,-97.5 386,-78.5 339,-78.5"/>
<text text-anchor="middle" x="362.5" y="-85.5" font-family="Helvetica,sans-Serif" font-size="10.00">char_t</text>
</g>
<!-- Node6&#45;&gt;Node1 -->
<g id="edge5" class="edge"><title>Node6&#45;&gt;Node1</title>
<path fill="none" stroke="#9a32cd" stroke-dasharray="5,2" d="M354.655,-68.8775C350.56,-59.5872 345.394,-48.1263 340.5,-38 337.559,-31.9147 334.059,-25.1647 331.294,-19.9361"/>
<polygon fill="#9a32cd" stroke="#9a32cd" points="351.542,-70.4945 358.752,-78.2574 357.956,-67.6925 351.542,-70.4945"/>
<text text-anchor="middle" x="375" y="-52" font-family="Helvetica,sans-Serif" font-size="10.00"> buffer</text>
<text text-anchor="middle" x="375" y="-41" font-family="Helvetica,sans-Serif" font-size="10.00">data_char</text>
</g>
<!-- Node7 -->
<g id="node7" class="node"><title>Node7</title>
<polygon fill="white" stroke="#bfbfbf" points="406.5,-78.5 406.5,-97.5 456.5,-97.5 456.5,-78.5 406.5,-78.5"/>
<text text-anchor="middle" x="431.5" y="-85.5" font-family="Helvetica,sans-Serif" font-size="10.00">uint8_t</text>
</g>
<!-- Node7&#45;&gt;Node1 -->
<g id="edge6" class="edge"><title>Node7&#45;&gt;Node1</title>
<path fill="none" stroke="#9a32cd" stroke-dasharray="5,2" d="M424.994,-69.1173C420.409,-58.7561 413.325,-46.1827 403.5,-38 393.268,-29.4782 380.168,-23.5742 367.687,-19.5147"/>
<polygon fill="#9a32cd" stroke="#9a32cd" points="421.784,-70.5173 428.754,-78.4967 428.281,-67.9124 421.784,-70.5173"/>
<text text-anchor="middle" x="442" y="-46.5" font-family="Helvetica,sans-Serif" font-size="10.00"> data_u8</text>
</g>
<!-- Node8 -->
<g id="node8" class="node"><title>Node8</title>
<polygon fill="white" stroke="#bfbfbf" points="475,-78.5 475,-97.5 552,-97.5 552,-78.5 475,-78.5"/>
<text text-anchor="middle" x="513.5" y="-85.5" font-family="Helvetica,sans-Serif" font-size="10.00">xml_writer &amp;</text>
</g>
<!-- Node8&#45;&gt;Node1 -->
<g id="edge7" class="edge"><title>Node8&#45;&gt;Node1</title>
<path fill="none" stroke="#9a32cd" stroke-dasharray="5,2" d="M501.806,-69.8222C493.505,-58.9894 481.396,-45.6472 467.5,-38 441.406,-23.6402 408.95,-16.8034 381.756,-13.5951"/>
<polygon fill="#9a32cd" stroke="#9a32cd" points="499.139,-72.1059 507.84,-78.1514 504.808,-67.9995 499.139,-72.1059"/>
<text text-anchor="middle" x="508.5" y="-46.5" font-family="Helvetica,sans-Serif" font-size="10.00"> writer</text>
</g>
<!-- Node9 -->
<g id="node9" class="node"><title>Node9</title>
<polygon fill="white" stroke="#bfbfbf" points="570,-78.5 570,-97.5 653,-97.5 653,-78.5 570,-78.5"/>
<text text-anchor="middle" x="611.5" y="-85.5" font-family="Helvetica,sans-Serif" font-size="10.00">xml_encoding</text>
</g>
<!-- Node9&#45;&gt;Node1 -->
<g id="edge8" class="edge"><title>Node9&#45;&gt;Node1</title>
<path fill="none" stroke="#9a32cd" stroke-dasharray="5,2" d="M592.047,-72.6432C575.68,-61.3271 551.212,-46.1433 527.5,-38 479.881,-21.6465 422.744,-15.1382 381.58,-12.5789"/>
<polygon fill="#9a32cd" stroke="#9a32cd" points="590.07,-75.5315 600.251,-78.4628 594.12,-69.8222 590.07,-75.5315"/>
<text text-anchor="middle" x="594" y="-46.5" font-family="Helvetica,sans-Serif" font-size="10.00"> encoding</text>
</g>
</g>
</svg>
        <g id="navigator" transform="translate(0 0)" fill="#404254">
                <rect fill="#f2f5e9" fill-opacity="0.5" stroke="#606060" stroke-width=".5" x="0" y="0" width="60" height="60"/>
                <use id="zoomplus" xlink:href="#zoomPlus" x="17" y="9" onmousedown="handleZoom(evt,'in')"/>
                <use id="zoomminus" xlink:href="#zoomMin" x="42" y="9" onmousedown="handleZoom(evt,'out')"/>
                <use id="reset" xlink:href="#resetDef" x="30" y="36" onmousedown="handleReset()"/>
                <g id="arrowUp" xlink:href="#dirArrow" transform="translate(30 24)" onmousedown="handlePan(0,-1)">
                  <use xlink:href="#rim" fill="#404040">
                        <set attributeName="fill" to="#808080" begin="arrowUp.mouseover" end="arrowUp.mouseout"/>
                  </use>
                  <path fill="none" stroke="white" stroke-width="1.5" d="M0,-3.0v7 M-2.5,-0.5L0,-3.0L2.5,-0.5"/>
                </g>
                <g id="arrowRight" xlink:href="#dirArrow" transform="rotate(90) translate(36 -43)" onmousedown="handlePan(1,0)">
                  <use xlink:href="#rim" fill="#404040">
                        <set attributeName="fill" to="#808080" begin="arrowRight.mouseover" end="arrowRight.mouseout"/>
                  </use>
                  <path fill="none" stroke="white" stroke-width="1.5" d="M0,-3.0v7 M-2.5,-0.5L0,-3.0L2.5,-0.5"/>
                </g>
                <g id="arrowDown" xlink:href="#dirArrow" transform="rotate(180) translate(-30 -48)" onmousedown="handlePan(0,1)">
                  <use xlink:href="#rim" fill="#404040">
                        <set attributeName="fill" to="#808080" begin="arrowDown.mouseover" end="arrowDown.mouseout"/>
                  </use>
                  <path fill="none" stroke="white" stroke-width="1.5" d="M0,-3.0v7 M-2.5,-0.5L0,-3.0L2.5,-0.5"/>
                </g>
                <g id="arrowLeft" xlink:href="#dirArrow" transform="rotate(270) translate(-36 17)" onmousedown="handlePan(-1,0)">
                  <use xlink:href="#rim" fill="#404040">
                        <set attributeName="fill" to="#808080" begin="arrowLeft.mouseover" end="arrowLeft.mouseout"/>
                  </use>
                  <path fill="none" stroke="white" stroke-width="1.5" d="M0,-3.0v7 M-2.5,-0.5L0,-3.0L2.5,-0.5"/>
                </g>
        </g>
        <svg viewBox="0 0 15 15" width="100%" height="30px" preserveAspectRatio="xMaxYMin meet">
         <g id="arrow_out" transform="scale(0.3 0.3)">
          <a xlink:href="classxml__buffered__writer__coll__graph_org.svg" target="_base">
           <rect id="button" ry="5" rx="5" y="6" x="6" height="38" width="38"
                fill="#f2f5e9" fill-opacity="0.5" stroke="#606060" stroke-width="1.0"/>
           <path id="arrow"
             d="M 11.500037,31.436501 C 11.940474,20.09759 22.043105,11.32322 32.158766,21.979434 L 37.068811,17.246167 C 37.068811,17.246167 37.088388,32 37.088388,32 L 22.160133,31.978069 C 22.160133,31.978069 26.997745,27.140456 26.997745,27.140456 C 18.528582,18.264221 13.291696,25.230495 11.500037,31.436501 z"
             style="fill:#404040;"/>
          </a>
         </g>
        </svg>
</svg>
