<?xml version="1.0" encoding="UTF-8" standalone="no"?>
<!DOCTYPE svg PUBLIC "-//W3C//DTD SVG 1.1//EN"
 "http://www.w3.org/Graphics/SVG/1.1/DTD/svg11.dtd">
<!-- Generated by graphviz version 2.40.1 (20161225.0304)
 -->
<!-- Title: carla::road::ForEachLaneImpl Pages: 1 -->
<svg width="737pt" height="134pt"
 viewBox="0.00 0.00 737.00 134.00" xmlns="http://www.w3.org/2000/svg" xmlns:xlink="http://www.w3.org/1999/xlink">
<g id="graph0" class="graph" transform="scale(1 1) rotate(0) translate(4 130)">
<title>carla::road::ForEachLaneImpl</title>
<polygon fill="#ffffff" stroke="transparent" points="-4,4 -4,-130 733,-130 733,4 -4,4"/>
<!-- Node108 -->
<g id="node1" class="node">
<title>Node108</title>
<polygon fill="#bfbfbf" stroke="#000000" points="0,-76 0,-95 158,-95 158,-76 0,-76"/>
<text text-anchor="middle" x="79" y="-83" font-family="Helvetica,sans-Serif" font-size="10.00" fill="#000000">carla::road::ForEachLaneImpl</text>
</g>
<!-- Node109 -->
<g id="node2" class="node">
<title>Node109</title>
<g id="a_node2"><a xlink:href="../../de/d26/namespacecarla_1_1road.html#a97ff50680bcc7e2ebdbb158005526b6e" target="_top" xlink:title="Return a waypoint for each lane of the specified type on each lane section of road. ">
<polygon fill="#ffffff" stroke="#000000" points="194,-76 194,-95 330,-95 330,-76 194,-76"/>
<text text-anchor="middle" x="262" y="-83" font-family="Helvetica,sans-Serif" font-size="10.00" fill="#000000">carla::road::ForEachLane</text>
</a>
</g>
</g>
<!-- Node108&#45;&gt;Node109 -->
<g id="edge1" class="edge">
<title>Node108&#45;&gt;Node109</title>
<path fill="none" stroke="#191970" d="M168.2757,-85.5C176.8828,-85.5 185.5161,-85.5 193.8708,-85.5"/>
<polygon fill="#191970" stroke="#191970" points="168.2022,-82.0001 158.2021,-85.5 168.2021,-89.0001 168.2022,-82.0001"/>
</g>
<!-- Node110 -->
<g id="node3" class="node">
<title>Node110</title>
<g id="a_node3"><a xlink:href="../../d0/d34/classcarla_1_1road_1_1Map.html#ad30ed42bc1a8089df7d63ec8cdfa3e72" target="_top" xlink:title="carla::road::Map::Create\lRtree">
<polygon fill="#ffffff" stroke="#000000" points="378,-95.5 378,-125.5 511,-125.5 511,-95.5 378,-95.5"/>
<text text-anchor="start" x="386" y="-113.5" font-family="Helvetica,sans-Serif" font-size="10.00" fill="#000000">carla::road::Map::Create</text>
<text text-anchor="middle" x="444.5" y="-102.5" font-family="Helvetica,sans-Serif" font-size="10.00" fill="#000000">Rtree</text>
</a>
</g>
</g>
<!-- Node109&#45;&gt;Node110 -->
<g id="edge2" class="edge">
<title>Node109&#45;&gt;Node110</title>
<path fill="none" stroke="#191970" d="M340.1917,-96.2112C352.7441,-97.9307 365.6331,-99.6963 377.8821,-101.3743"/>
<polygon fill="#191970" stroke="#191970" points="340.5983,-92.7343 330.2158,-94.8446 339.6482,-99.6695 340.5983,-92.7343"/>
</g>
<!-- Node112 -->
<g id="node5" class="node">
<title>Node112</title>
<g id="a_node5"><a xlink:href="../../d0/d34/classcarla_1_1road_1_1Map.html#adf1b3cb75595be020adbdbd325298638" target="_top" xlink:title="Generate waypoints of the junction. ">
<polygon fill="#ffffff" stroke="#000000" points="366,-46.5 366,-76.5 523,-76.5 523,-46.5 366,-46.5"/>
<text text-anchor="start" x="374" y="-64.5" font-family="Helvetica,sans-Serif" font-size="10.00" fill="#000000">carla::road::Map::GetJunction</text>
<text text-anchor="middle" x="444.5" y="-53.5" font-family="Helvetica,sans-Serif" font-size="10.00" fill="#000000">Waypoints</text>
</a>
</g>
</g>
<!-- Node109&#45;&gt;Node112 -->
<g id="edge4" class="edge">
<title>Node109&#45;&gt;Node112</title>
<path fill="none" stroke="#191970" d="M340.1482,-75.223C348.6859,-74.1002 357.3799,-72.9569 365.9228,-71.8334"/>
<polygon fill="#191970" stroke="#191970" points="339.6741,-71.7551 330.2158,-76.5292 340.5868,-78.6953 339.6741,-71.7551"/>
</g>
<!-- Node111 -->
<g id="node4" class="node">
<title>Node111</title>
<g id="a_node4"><a xlink:href="../../d0/d34/classcarla_1_1road_1_1Map.html#a8f7405072e937b732ea32c9b73bd116c" target="_top" xlink:title="======================================================================== – Constructor &#45;&#45;&#45;&#45;&#45;&#45;&#45;&#45;&#45;&#45;&#45;&#45;&#45;...">
<polygon fill="#ffffff" stroke="#000000" points="583.5,-101 583.5,-120 704.5,-120 704.5,-101 583.5,-101"/>
<text text-anchor="middle" x="644" y="-108" font-family="Helvetica,sans-Serif" font-size="10.00" fill="#000000">carla::road::Map::Map</text>
</a>
</g>
</g>
<!-- Node110&#45;&gt;Node111 -->
<g id="edge3" class="edge">
<title>Node110&#45;&gt;Node111</title>
<path fill="none" stroke="#191970" d="M521.478,-110.5C542.0057,-110.5 563.8927,-110.5 583.404,-110.5"/>
<polygon fill="#191970" stroke="#191970" points="521.208,-107.0001 511.208,-110.5 521.2079,-114.0001 521.208,-107.0001"/>
</g>
<!-- Node113 -->
<g id="node6" class="node">
<title>Node113</title>
<g id="a_node6"><a xlink:href="../../dd/d49/classcarla_1_1client_1_1Map.html#afdea683b9dd2fd832405e15053885488" target="_top" xlink:title="Returns a pair of waypoints (start and end) for each lane in the junction. ">
<polygon fill="#ffffff" stroke="#000000" points="579,-49.5 579,-79.5 709,-79.5 709,-49.5 579,-49.5"/>
<text text-anchor="start" x="587" y="-67.5" font-family="Helvetica,sans-Serif" font-size="10.00" fill="#000000">carla::client::Map</text>
<text text-anchor="middle" x="644" y="-56.5" font-family="Helvetica,sans-Serif" font-size="10.00" fill="#000000">::GetJunctionWaypoints</text>
</a>
</g>
</g>
<!-- Node112&#45;&gt;Node113 -->
<g id="edge5" class="edge">
<title>Node112&#45;&gt;Node113</title>
<path fill="none" stroke="#191970" d="M533.0773,-62.832C548.4209,-63.0627 564.1217,-63.2988 578.7027,-63.5181"/>
<polygon fill="#191970" stroke="#191970" points="533.1128,-59.3322 523.0613,-62.6814 533.0075,-66.3314 533.1128,-59.3322"/>
</g>
<!-- Node114 -->
<g id="node7" class="node">
<title>Node114</title>
<g id="a_node7"><a xlink:href="../../de/d16/classcarla_1_1road_1_1MapBuilder.html#ab0d9fe008defb1501769cf62f8cadf14" target="_top" xlink:title="Create the bounding boxes of each junction. ">
<polygon fill="#ffffff" stroke="#000000" points="559,-.5 559,-30.5 729,-30.5 729,-.5 559,-.5"/>
<text text-anchor="start" x="567" y="-18.5" font-family="Helvetica,sans-Serif" font-size="10.00" fill="#000000">carla::road::MapBuilder</text>
<text text-anchor="middle" x="644" y="-7.5" font-family="Helvetica,sans-Serif" font-size="10.00" fill="#000000">::CreateJunctionBoundingBoxes</text>
</a>
</g>
</g>
<!-- Node112&#45;&gt;Node114 -->
<g id="edge6" class="edge">
<title>Node112&#45;&gt;Node114</title>
<path fill="none" stroke="#191970" d="M519.5782,-44.1887C539.0811,-39.6918 559.9266,-34.8853 578.8704,-30.5174"/>
<polygon fill="#191970" stroke="#191970" points="518.7817,-40.7805 509.8238,-46.4379 520.3545,-47.6015 518.7817,-40.7805"/>
</g>
</g>
</svg>
