<?xml version="1.0" encoding="UTF-8" standalone="no"?>
<!DOCTYPE svg PUBLIC "-//W3C//DTD SVG 1.1//EN"
 "http://www.w3.org/Graphics/SVG/1.1/DTD/svg11.dtd">
<!-- Generated by graphviz version 2.38.0 (20140413.2041)
 -->
<!-- Title: carla::road::GetDistanceAtStartOfLane Pages: 1 -->
<!--zoomable 186 -->
<svg id="main" version="1.1" xmlns="http://www.w3.org/2000/svg" xmlns:xlink="http://www.w3.org/1999/xlink" xml:space="preserve" onload="init(evt)">
<style type="text/css"><![CDATA[
.edge:hover path { stroke: red; }
.edge:hover polygon { stroke: red; fill: red; }
]]></style>
<script type="text/javascript"><![CDATA[
var edges = document.getElementsByTagName('g');
if (edges && edges.length) {
  for (var i=0;i<edges.length;i++) {
    if (edges[i].id.substr(0,4)=='edge') {
      edges[i].setAttribute('class','edge');
    }
  }
}
]]></script>
        <defs>
                <circle id="rim" cx="0" cy="0" r="7"/>
                <circle id="rim2" cx="0" cy="0" r="3.5"/>
                <g id="zoomPlus">
                        <use xlink:href="#rim" fill="#404040">
                                <set attributeName="fill" to="#808080" begin="zoomplus.mouseover" end="zoomplus.mouseout"/>
                        </use>
                        <path d="M-4,0h8M0,-4v8" fill="none" stroke="white" stroke-width="1.5" pointer-events="none"/>
                </g>
                <g id="zoomMin">
                        <use xlink:href="#rim" fill="#404040">
                                <set attributeName="fill" to="#808080" begin="zoomminus.mouseover" end="zoomminus.mouseout"/>
                        </use>
                        <path d="M-4,0h8" fill="none" stroke="white" stroke-width="1.5" pointer-events="none"/>
                </g>
                <g id="dirArrow">
                        <path fill="none" stroke="white" stroke-width="1.5" d="M0,-3.0v7 M-2.5,-0.5L0,-3.0L2.5,-0.5"/>
                </g>
               <g id="resetDef">
                       <use xlink:href="#rim2" fill="#404040">
                               <set attributeName="fill" to="#808080" begin="reset.mouseover" end="reset.mouseout"/>
                       </use>
               </g>
        </defs>

<script type="text/javascript">
var viewWidth = 901;
var viewHeight = 186;
var sectionId = 'dynsection-17';
</script>
<script xlink:href="../../svgpan.js"/>
<svg id="graph" class="graph">
<g id="viewport">
<title>carla::road::GetDistanceAtStartOfLane</title>
<polygon fill="white" stroke="none" points="-4,4 -4,-182 897,-182 897,4 -4,4"/>
<!-- Node1 -->
<g id="node1" class="node"><title>Node1</title>
<polygon fill="#bfbfbf" stroke="black" points="0,-52.5 0,-82.5 123,-82.5 123,-52.5 0,-52.5"/>
<text text-anchor="start" x="8" y="-70.5" font-family="Helvetica,sans-Serif" font-size="10.00">carla::road::GetDistance</text>
<text text-anchor="middle" x="61.5" y="-59.5" font-family="Helvetica,sans-Serif" font-size="10.00">AtStartOfLane</text>
</g>
<!-- Node2 -->
<g id="node2" class="node"><title>Node2</title>
<g id="a_node2"><a xlink:href="../../de/d26/namespacecarla_1_1road.html#a869b49ad56392d9364ea1cd1ca78b3d6" target="_top" xlink:title="Return a waypoint for each drivable lane on lane_section. ">
<polygon fill="white" stroke="black" points="169,-98.5 169,-128.5 310,-128.5 310,-98.5 169,-98.5"/>
<text text-anchor="start" x="177" y="-116.5" font-family="Helvetica,sans-Serif" font-size="10.00">carla::road::ForEachDrivable</text>
<text text-anchor="middle" x="239.5" y="-105.5" font-family="Helvetica,sans-Serif" font-size="10.00">LaneImpl</text>
</a>
</g>
</g>
<!-- Node1&#45;&gt;Node2 -->
<g id="edge1" class="edge"><title>Node1&#45;&gt;Node2</title>
<path fill="none" stroke="midnightblue" d="M129.915,-85.1197C146.779,-89.5274 164.712,-94.2144 181.042,-98.4826"/>
<polygon fill="midnightblue" stroke="midnightblue" points="130.689,-81.7046 120.129,-82.5621 128.919,-88.4771 130.689,-81.7046"/>
</g>
<!-- Node9 -->
<g id="node9" class="node"><title>Node9</title>
<g id="a_node9"><a xlink:href="../../de/d26/namespacecarla_1_1road.html#aa3fd3e4fda3e33ba219f7a43869a1eb4" target="_top" xlink:title="carla::road::ForEachLaneImpl">
<polygon fill="white" stroke="black" points="167,-58 167,-77 312,-77 312,-58 167,-58"/>
<text text-anchor="middle" x="239.5" y="-65" font-family="Helvetica,sans-Serif" font-size="10.00">carla::road::ForEachLaneImpl</text>
</a>
</g>
</g>
<!-- Node1&#45;&gt;Node9 -->
<g id="edge8" class="edge"><title>Node1&#45;&gt;Node9</title>
<path fill="none" stroke="midnightblue" d="M133.148,-67.5C144.264,-67.5 155.765,-67.5 166.902,-67.5"/>
<polygon fill="midnightblue" stroke="midnightblue" points="133.069,-64.0001 123.069,-67.5 133.069,-71.0001 133.069,-64.0001"/>
</g>
<!-- Node14 -->
<g id="node14" class="node"><title>Node14</title>
<g id="a_node14"><a xlink:href="../../d0/d34/classcarla_1_1road_1_1Map.html#aae447bcc1c19c55030c6ba24d1f3ed56" target="_top" xlink:title="======================================================================== – Waypoint generation &#45;&#45;&#45;&#45;&#45;...">
<polygon fill="white" stroke="black" points="159,-20 159,-39 320,-39 320,-20 159,-20"/>
<text text-anchor="middle" x="239.5" y="-27" font-family="Helvetica,sans-Serif" font-size="10.00">carla::road::Map::GetSuccessors</text>
</a>
</g>
</g>
<!-- Node1&#45;&gt;Node14 -->
<g id="edge13" class="edge"><title>Node1&#45;&gt;Node14</title>
<path fill="none" stroke="midnightblue" d="M133.119,-52.2526C153.855,-47.7757 175.931,-43.0092 194.492,-39.0017"/>
<polygon fill="midnightblue" stroke="midnightblue" points="132.105,-48.8909 123.069,-54.4226 133.583,-55.7332 132.105,-48.8909"/>
</g>
<!-- Node3 -->
<g id="node3" class="node"><title>Node3</title>
<g id="a_node3"><a xlink:href="../../de/d26/namespacecarla_1_1road.html#a3a42ef4bdbd89afe9f2ca742b102a288" target="_top" xlink:title="Return a waypoint for each drivable lane on each lane section of road. ">
<polygon fill="white" stroke="black" points="356,-150 356,-169 518,-169 518,-150 356,-150"/>
<text text-anchor="middle" x="437" y="-157" font-family="Helvetica,sans-Serif" font-size="10.00">carla::road::ForEachDrivableLane</text>
</a>
</g>
</g>
<!-- Node2&#45;&gt;Node3 -->
<g id="edge2" class="edge"><title>Node2&#45;&gt;Node3</title>
<path fill="none" stroke="midnightblue" d="M314.499,-130.911C341.975,-137.376 372.115,-144.468 395.503,-149.971"/>
<polygon fill="midnightblue" stroke="midnightblue" points="315.05,-127.446 304.514,-128.562 313.447,-134.26 315.05,-127.446"/>
</g>
<!-- Node6 -->
<g id="node6" class="node"><title>Node6</title>
<g id="a_node6"><a xlink:href="../../de/d26/namespacecarla_1_1road.html#a849b3a1a27392303ff947dcf312f1fd3" target="_top" xlink:title="Return a waypoint for each drivable lane at distance on road. ">
<polygon fill="white" stroke="black" points="366.5,-98.5 366.5,-128.5 507.5,-128.5 507.5,-98.5 366.5,-98.5"/>
<text text-anchor="start" x="374.5" y="-116.5" font-family="Helvetica,sans-Serif" font-size="10.00">carla::road::ForEachDrivable</text>
<text text-anchor="middle" x="437" y="-105.5" font-family="Helvetica,sans-Serif" font-size="10.00">LaneAt</text>
</a>
</g>
</g>
<!-- Node2&#45;&gt;Node6 -->
<g id="edge5" class="edge"><title>Node2&#45;&gt;Node6</title>
<path fill="none" stroke="midnightblue" d="M320.622,-113.5C335.762,-113.5 351.486,-113.5 366.275,-113.5"/>
<polygon fill="midnightblue" stroke="midnightblue" points="320.252,-110 310.252,-113.5 320.252,-117 320.252,-110"/>
</g>
<!-- Node4 -->
<g id="node4" class="node"><title>Node4</title>
<g id="a_node4"><a xlink:href="../../d0/d34/classcarla_1_1road_1_1Map.html#abdc82435b148045f46846e87095ca154" target="_top" xlink:title="Generate the minimum set of waypoints that define the topology of map. ">
<polygon fill="white" stroke="black" points="560.5,-147.5 560.5,-177.5 693.5,-177.5 693.5,-147.5 560.5,-147.5"/>
<text text-anchor="start" x="568.5" y="-165.5" font-family="Helvetica,sans-Serif" font-size="10.00">carla::road::Map::Generate</text>
<text text-anchor="middle" x="627" y="-154.5" font-family="Helvetica,sans-Serif" font-size="10.00">Topology</text>
</a>
</g>
</g>
<!-- Node3&#45;&gt;Node4 -->
<g id="edge3" class="edge"><title>Node3&#45;&gt;Node4</title>
<path fill="none" stroke="midnightblue" d="M528.297,-160.941C539.075,-161.113 549.918,-161.286 560.259,-161.451"/>
<polygon fill="midnightblue" stroke="midnightblue" points="528.056,-157.437 518.002,-160.777 527.944,-164.436 528.056,-157.437"/>
</g>
<!-- Node5 -->
<g id="node5" class="node"><title>Node5</title>
<g id="a_node5"><a xlink:href="../../dd/d49/classcarla_1_1client_1_1Map.html#ae234b262e34998b133763c0041c15f2f" target="_top" xlink:title="carla::client::Map\l::GetTopology">
<polygon fill="white" stroke="black" points="768.5,-147.5 768.5,-177.5 860.5,-177.5 860.5,-147.5 768.5,-147.5"/>
<text text-anchor="start" x="776.5" y="-165.5" font-family="Helvetica,sans-Serif" font-size="10.00">carla::client::Map</text>
<text text-anchor="middle" x="814.5" y="-154.5" font-family="Helvetica,sans-Serif" font-size="10.00">::GetTopology</text>
</a>
</g>
</g>
<!-- Node4&#45;&gt;Node5 -->
<g id="edge4" class="edge"><title>Node4&#45;&gt;Node5</title>
<path fill="none" stroke="midnightblue" d="M703.93,-162.5C725.79,-162.5 748.939,-162.5 768.3,-162.5"/>
<polygon fill="midnightblue" stroke="midnightblue" points="703.661,-159 693.661,-162.5 703.661,-166 703.661,-159"/>
</g>
<!-- Node7 -->
<g id="node7" class="node"><title>Node7</title>
<g id="a_node7"><a xlink:href="../../d0/d34/classcarla_1_1road_1_1Map.html#a8420435716aefa060b0c235c75876100" target="_top" xlink:title="Generate all the waypoints in map separated by approx_distance. ">
<polygon fill="white" stroke="black" points="560.5,-98.5 560.5,-128.5 693.5,-128.5 693.5,-98.5 560.5,-98.5"/>
<text text-anchor="start" x="568.5" y="-116.5" font-family="Helvetica,sans-Serif" font-size="10.00">carla::road::Map::Generate</text>
<text text-anchor="middle" x="627" y="-105.5" font-family="Helvetica,sans-Serif" font-size="10.00">Waypoints</text>
</a>
</g>
</g>
<!-- Node6&#45;&gt;Node7 -->
<g id="edge6" class="edge"><title>Node6&#45;&gt;Node7</title>
<path fill="none" stroke="midnightblue" d="M517.955,-113.5C532.119,-113.5 546.718,-113.5 560.427,-113.5"/>
<polygon fill="midnightblue" stroke="midnightblue" points="517.737,-110 507.737,-113.5 517.737,-117 517.737,-110"/>
</g>
<!-- Node8 -->
<g id="node8" class="node"><title>Node8</title>
<g id="a_node8"><a xlink:href="../../dd/d49/classcarla_1_1client_1_1Map.html#ad6167ecd55805b9d5d39064e2ad62d62" target="_top" xlink:title="carla::client::Map\l::GenerateWaypoints">
<polygon fill="white" stroke="black" points="760,-98.5 760,-128.5 869,-128.5 869,-98.5 760,-98.5"/>
<text text-anchor="start" x="768" y="-116.5" font-family="Helvetica,sans-Serif" font-size="10.00">carla::client::Map</text>
<text text-anchor="middle" x="814.5" y="-105.5" font-family="Helvetica,sans-Serif" font-size="10.00">::GenerateWaypoints</text>
</a>
</g>
</g>
<!-- Node7&#45;&gt;Node8 -->
<g id="edge7" class="edge"><title>Node7&#45;&gt;Node8</title>
<path fill="none" stroke="midnightblue" d="M703.701,-113.5C722.531,-113.5 742.332,-113.5 759.853,-113.5"/>
<polygon fill="midnightblue" stroke="midnightblue" points="703.661,-110 693.661,-113.5 703.661,-117 703.661,-110"/>
</g>
<!-- Node10 -->
<g id="node10" class="node"><title>Node10</title>
<g id="a_node10"><a xlink:href="../../de/d26/namespacecarla_1_1road.html#a97ff50680bcc7e2ebdbb158005526b6e" target="_top" xlink:title="Return a waypoint for each drivable lane of the specified type on each lane section of road...">
<polygon fill="white" stroke="black" points="374,-57 374,-76 500,-76 500,-57 374,-57"/>
<text text-anchor="middle" x="437" y="-64" font-family="Helvetica,sans-Serif" font-size="10.00">carla::road::ForEachLane</text>
</a>
</g>
</g>
<!-- Node9&#45;&gt;Node10 -->
<g id="edge9" class="edge"><title>Node9&#45;&gt;Node10</title>
<path fill="none" stroke="midnightblue" d="M322.277,-67.0817C339.576,-66.9932 357.562,-66.9012 373.987,-66.8172"/>
<polygon fill="midnightblue" stroke="midnightblue" points="322.169,-63.5821 312.187,-67.1333 322.205,-70.582 322.169,-63.5821"/>
</g>
<!-- Node11 -->
<g id="node11" class="node"><title>Node11</title>
<g id="a_node11"><a xlink:href="../../d0/d34/classcarla_1_1road_1_1Map.html#a067395df8d68f9fbcdafd8751262d168" target="_top" xlink:title="Generate waypoints of the junction. ">
<polygon fill="white" stroke="black" points="554,-49.5 554,-79.5 700,-79.5 700,-49.5 554,-49.5"/>
<text text-anchor="start" x="562" y="-67.5" font-family="Helvetica,sans-Serif" font-size="10.00">carla::road::Map::GetJunction</text>
<text text-anchor="middle" x="627" y="-56.5" font-family="Helvetica,sans-Serif" font-size="10.00">Waypoints</text>
</a>
</g>
</g>
<!-- Node10&#45;&gt;Node11 -->
<g id="edge10" class="edge"><title>Node10&#45;&gt;Node11</title>
<path fill="none" stroke="midnightblue" d="M510.334,-65.7305C524.617,-65.5785 539.605,-65.4191 553.88,-65.2672"/>
<polygon fill="midnightblue" stroke="midnightblue" points="510.041,-62.2333 500.079,-65.8396 510.116,-69.2329 510.041,-62.2333"/>
</g>
<!-- Node12 -->
<g id="node12" class="node"><title>Node12</title>
<g id="a_node12"><a xlink:href="../../dd/d49/classcarla_1_1client_1_1Map.html#acd0021d67773e7eee0cafb664ae9fb87" target="_top" xlink:title="Returns a pair of waypoints (start and end) for each lane in the junction. ">
<polygon fill="white" stroke="black" points="753.5,-49.5 753.5,-79.5 875.5,-79.5 875.5,-49.5 753.5,-49.5"/>
<text text-anchor="start" x="761.5" y="-67.5" font-family="Helvetica,sans-Serif" font-size="10.00">carla::client::Map</text>
<text text-anchor="middle" x="814.5" y="-56.5" font-family="Helvetica,sans-Serif" font-size="10.00">::GetJunctionWaypoints</text>
</a>
</g>
</g>
<!-- Node11&#45;&gt;Node12 -->
<g id="edge11" class="edge"><title>Node11&#45;&gt;Node12</title>
<path fill="none" stroke="midnightblue" d="M710.661,-64.5C725.065,-64.5 739.798,-64.5 753.448,-64.5"/>
<polygon fill="midnightblue" stroke="midnightblue" points="710.25,-61.0001 700.25,-64.5 710.25,-68.0001 710.25,-61.0001"/>
</g>
<!-- Node13 -->
<g id="node13" class="node"><title>Node13</title>
<g id="a_node13"><a xlink:href="../../de/d16/classcarla_1_1road_1_1MapBuilder.html#ab0d9fe008defb1501769cf62f8cadf14" target="_top" xlink:title="Create the bounding boxes of each junction. ">
<polygon fill="white" stroke="black" points="736,-0.5 736,-30.5 893,-30.5 893,-0.5 736,-0.5"/>
<text text-anchor="start" x="744" y="-18.5" font-family="Helvetica,sans-Serif" font-size="10.00">carla::road::MapBuilder</text>
<text text-anchor="middle" x="814.5" y="-7.5" font-family="Helvetica,sans-Serif" font-size="10.00">::CreateJunctionBoundingBoxes</text>
</a>
</g>
</g>
<!-- Node11&#45;&gt;Node13 -->
<g id="edge12" class="edge"><title>Node11&#45;&gt;Node13</title>
<path fill="none" stroke="midnightblue" d="M694.715,-46.8771C715.01,-41.5163 737.114,-35.6775 756.691,-30.5062"/>
<polygon fill="midnightblue" stroke="midnightblue" points="693.691,-43.5275 684.917,-49.4654 695.479,-50.2953 693.691,-43.5275"/>
</g>
</g>
</svg>
        <g id="navigator" transform="translate(0 0)" fill="#404254">
                <rect fill="#f2f5e9" fill-opacity="0.5" stroke="#606060" stroke-width=".5" x="0" y="0" width="60" height="60"/>
                <use id="zoomplus" xlink:href="#zoomPlus" x="17" y="9" onmousedown="handleZoom(evt,'in')"/>
                <use id="zoomminus" xlink:href="#zoomMin" x="42" y="9" onmousedown="handleZoom(evt,'out')"/>
                <use id="reset" xlink:href="#resetDef" x="30" y="36" onmousedown="handleReset()"/>
                <g id="arrowUp" xlink:href="#dirArrow" transform="translate(30 24)" onmousedown="handlePan(0,-1)">
                  <use xlink:href="#rim" fill="#404040">
                        <set attributeName="fill" to="#808080" begin="arrowUp.mouseover" end="arrowUp.mouseout"/>
                  </use>
                  <path fill="none" stroke="white" stroke-width="1.5" d="M0,-3.0v7 M-2.5,-0.5L0,-3.0L2.5,-0.5"/>
                </g>
                <g id="arrowRight" xlink:href="#dirArrow" transform="rotate(90) translate(36 -43)" onmousedown="handlePan(1,0)">
                  <use xlink:href="#rim" fill="#404040">
                        <set attributeName="fill" to="#808080" begin="arrowRight.mouseover" end="arrowRight.mouseout"/>
                  </use>
                  <path fill="none" stroke="white" stroke-width="1.5" d="M0,-3.0v7 M-2.5,-0.5L0,-3.0L2.5,-0.5"/>
                </g>
                <g id="arrowDown" xlink:href="#dirArrow" transform="rotate(180) translate(-30 -48)" onmousedown="handlePan(0,1)">
                  <use xlink:href="#rim" fill="#404040">
                        <set attributeName="fill" to="#808080" begin="arrowDown.mouseover" end="arrowDown.mouseout"/>
                  </use>
                  <path fill="none" stroke="white" stroke-width="1.5" d="M0,-3.0v7 M-2.5,-0.5L0,-3.0L2.5,-0.5"/>
                </g>
                <g id="arrowLeft" xlink:href="#dirArrow" transform="rotate(270) translate(-36 17)" onmousedown="handlePan(-1,0)">
                  <use xlink:href="#rim" fill="#404040">
                        <set attributeName="fill" to="#808080" begin="arrowLeft.mouseover" end="arrowLeft.mouseout"/>
                  </use>
                  <path fill="none" stroke="white" stroke-width="1.5" d="M0,-3.0v7 M-2.5,-0.5L0,-3.0L2.5,-0.5"/>
                </g>
        </g>
        <svg viewBox="0 0 15 15" width="100%" height="30px" preserveAspectRatio="xMaxYMin meet">
         <g id="arrow_out" transform="scale(0.3 0.3)">
          <a xlink:href="namespacecarla_1_1road_aa758d1155efabd76bd25f2178c6e25e1_icgraph_org.svg" target="_base">
           <rect id="button" ry="5" rx="5" y="6" x="6" height="38" width="38"
                fill="#f2f5e9" fill-opacity="0.5" stroke="#606060" stroke-width="1.0"/>
           <path id="arrow"
             d="M 11.500037,31.436501 C 11.940474,20.09759 22.043105,11.32322 32.158766,21.979434 L 37.068811,17.246167 C 37.068811,17.246167 37.088388,32 37.088388,32 L 22.160133,31.978069 C 22.160133,31.978069 26.997745,27.140456 26.997745,27.140456 C 18.528582,18.264221 13.291696,25.230495 11.500037,31.436501 z"
             style="fill:#404040;"/>
          </a>
         </g>
        </svg>
</svg>
