<?xml version="1.0" encoding="UTF-8" standalone="no"?>
<!DOCTYPE svg PUBLIC "-//W3C//DTD SVG 1.1//EN"
 "http://www.w3.org/Graphics/SVG/1.1/DTD/svg11.dtd">
<!-- Generated by graphviz version 2.38.0 (20140413.2041)
 -->
<!-- Title: carla::traffic_manager::PipelineStage Pages: 1 -->
<!--zoomable 262 -->
<svg id="main" version="1.1" xmlns="http://www.w3.org/2000/svg" xmlns:xlink="http://www.w3.org/1999/xlink" xml:space="preserve" onload="init(evt)">
<style type="text/css"><![CDATA[
.edge:hover path { stroke: red; }
.edge:hover polygon { stroke: red; fill: red; }
]]></style>
<script type="text/javascript"><![CDATA[
var edges = document.getElementsByTagName('g');
if (edges && edges.length) {
  for (var i=0;i<edges.length;i++) {
    if (edges[i].id.substr(0,4)=='edge') {
      edges[i].setAttribute('class','edge');
    }
  }
}
]]></script>
        <defs>
                <circle id="rim" cx="0" cy="0" r="7"/>
                <circle id="rim2" cx="0" cy="0" r="3.5"/>
                <g id="zoomPlus">
                        <use xlink:href="#rim" fill="#404040">
                                <set attributeName="fill" to="#808080" begin="zoomplus.mouseover" end="zoomplus.mouseout"/>
                        </use>
                        <path d="M-4,0h8M0,-4v8" fill="none" stroke="white" stroke-width="1.5" pointer-events="none"/>
                </g>
                <g id="zoomMin">
                        <use xlink:href="#rim" fill="#404040">
                                <set attributeName="fill" to="#808080" begin="zoomminus.mouseover" end="zoomminus.mouseout"/>
                        </use>
                        <path d="M-4,0h8" fill="none" stroke="white" stroke-width="1.5" pointer-events="none"/>
                </g>
                <g id="dirArrow">
                        <path fill="none" stroke="white" stroke-width="1.5" d="M0,-3.0v7 M-2.5,-0.5L0,-3.0L2.5,-0.5"/>
                </g>
               <g id="resetDef">
                       <use xlink:href="#rim2" fill="#404040">
                               <set attributeName="fill" to="#808080" begin="reset.mouseover" end="reset.mouseout"/>
                       </use>
               </g>
        </defs>

<script type="text/javascript">
var viewWidth = 667;
var viewHeight = 262;
var sectionId = 'dynsection-1';
</script>
<script xlink:href="../../svgpan.js"/>
<svg id="graph" class="graph">
<g id="viewport">
<title>carla::traffic_manager::PipelineStage</title>
<polygon fill="white" stroke="none" points="-4,4 -4,-258 663,-258 663,4 -4,4"/>
<!-- Node1 -->
<g id="node1" class="node"><title>Node1</title>
<polygon fill="#bfbfbf" stroke="black" points="548,-56 548,-86 659,-86 659,-56 548,-56"/>
<text text-anchor="start" x="556" y="-74" font-family="Helvetica,sans-Serif" font-size="10.00">carla::traffic_manager</text>
<text text-anchor="middle" x="603.5" y="-63" font-family="Helvetica,sans-Serif" font-size="10.00">::PipelineStage</text>
</g>
<!-- Node2 -->
<g id="node2" class="node"><title>Node2</title>
<g id="a_node2"><a xlink:href="../../d5/d1a/classcarla_1_1traffic__manager_1_1PerformanceDiagnostics.html" target="_top" xlink:title="carla::traffic_manager\l::PerformanceDiagnostics">
<polygon fill="white" stroke="black" points="270,-146 270,-176 400,-176 400,-146 270,-146"/>
<text text-anchor="start" x="278" y="-164" font-family="Helvetica,sans-Serif" font-size="10.00">carla::traffic_manager</text>
<text text-anchor="middle" x="335" y="-153" font-family="Helvetica,sans-Serif" font-size="10.00">::PerformanceDiagnostics</text>
</a>
</g>
</g>
<!-- Node2&#45;&gt;Node1 -->
<g id="edge1" class="edge"><title>Node2&#45;&gt;Node1</title>
<path fill="none" stroke="#9a32cd" stroke-dasharray="5,2" d="M410.505,-144.45C447.08,-135.372 491.457,-122.918 530,-108 545.814,-101.879 562.733,-93.3667 576.246,-86.0497"/>
<polygon fill="#9a32cd" stroke="#9a32cd" points="409.289,-141.145 400.407,-146.921 410.952,-147.944 409.289,-141.145"/>
<text text-anchor="middle" x="474" y="-145" font-family="Helvetica,sans-Serif" font-size="10.00"> performance_diagnostics</text>
</g>
<!-- Node3 -->
<g id="node3" class="node"><title>Node3</title>
<polygon fill="white" stroke="#bfbfbf" points="43,-196.5 43,-215.5 94,-215.5 94,-196.5 43,-196.5"/>
<text text-anchor="middle" x="68.5" y="-203.5" font-family="Helvetica,sans-Serif" font-size="10.00">uint64_t</text>
</g>
<!-- Node3&#45;&gt;Node2 -->
<g id="edge2" class="edge"><title>Node3&#45;&gt;Node2</title>
<path fill="none" stroke="#9a32cd" stroke-dasharray="5,2" d="M104.423,-203.394C141.342,-200.266 201.152,-194.134 252,-184 262.73,-181.862 274.109,-179.038 284.864,-176.103"/>
<polygon fill="#9a32cd" stroke="#9a32cd" points="103.87,-199.927 94.1901,-204.233 104.443,-206.904 103.87,-199.927"/>
<text text-anchor="middle" x="203.5" y="-202" font-family="Helvetica,sans-Serif" font-size="10.00"> throughput_counter</text>
</g>
<!-- Node4 -->
<g id="node4" class="node"><title>Node4</title>
<polygon fill="white" stroke="#bfbfbf" points="0,-146 0,-176 137,-176 137,-146 0,-146"/>
<text text-anchor="start" x="8" y="-164" font-family="Helvetica,sans-Serif" font-size="10.00">time_point&lt; chr::system</text>
<text text-anchor="middle" x="68.5" y="-153" font-family="Helvetica,sans-Serif" font-size="10.00">_clock, chr::nanoseconds &gt;</text>
</g>
<!-- Node4&#45;&gt;Node2 -->
<g id="edge3" class="edge"><title>Node4&#45;&gt;Node2</title>
<path fill="none" stroke="#9a32cd" stroke-dasharray="5,2" d="M147.497,-161C186.36,-161 232.785,-161 269.593,-161"/>
<polygon fill="#9a32cd" stroke="#9a32cd" points="147.272,-157.5 137.272,-161 147.272,-164.5 147.272,-157.5"/>
<text text-anchor="middle" x="203.5" y="-175" font-family="Helvetica,sans-Serif" font-size="10.00"> throughput_clock</text>
<text text-anchor="middle" x="203.5" y="-164" font-family="Helvetica,sans-Serif" font-size="10.00">inter_update_clock</text>
</g>
<!-- Node5 -->
<g id="node5" class="node"><title>Node5</title>
<polygon fill="white" stroke="#bfbfbf" points="48,-96.5 48,-115.5 89,-115.5 89,-96.5 48,-96.5"/>
<text text-anchor="middle" x="68.5" y="-103.5" font-family="Helvetica,sans-Serif" font-size="10.00">string</text>
</g>
<!-- Node5&#45;&gt;Node1 -->
<g id="edge7" class="edge"><title>Node5&#45;&gt;Node1</title>
<path fill="none" stroke="#9a32cd" stroke-dasharray="5,2" d="M99.6417,-104.999C173.259,-102.401 368.044,-94.6079 530,-80 535.811,-79.4759 541.874,-78.8495 547.912,-78.1746"/>
<polygon fill="#9a32cd" stroke="#9a32cd" points="99.1558,-101.513 89.2832,-105.358 99.3985,-108.509 99.1558,-101.513"/>
<text text-anchor="middle" x="335" y="-101" font-family="Helvetica,sans-Serif" font-size="10.00"> stage_name</text>
</g>
<!-- Node5&#45;&gt;Node2 -->
<g id="edge4" class="edge"><title>Node5&#45;&gt;Node2</title>
<path fill="none" stroke="#9a32cd" stroke-dasharray="5,2" d="M99.304,-112.197C140.406,-120.744 215.547,-136.369 269.752,-147.64"/>
<polygon fill="#9a32cd" stroke="#9a32cd" points="99.8836,-108.743 89.3805,-110.134 98.4585,-115.597 99.8836,-108.743"/>
<text text-anchor="middle" x="203.5" y="-147" font-family="Helvetica,sans-Serif" font-size="10.00"> stage_name</text>
</g>
<!-- Node6 -->
<g id="node6" class="node"><title>Node6</title>
<polygon fill="white" stroke="#bfbfbf" points="24.5,-234.5 24.5,-253.5 112.5,-253.5 112.5,-234.5 24.5,-234.5"/>
<text text-anchor="middle" x="68.5" y="-241.5" font-family="Helvetica,sans-Serif" font-size="10.00">duration&lt; float &gt;</text>
</g>
<!-- Node6&#45;&gt;Node2 -->
<g id="edge5" class="edge"><title>Node6&#45;&gt;Node2</title>
<path fill="none" stroke="#9a32cd" stroke-dasharray="5,2" d="M122.975,-240.995C160.182,-237.528 210.381,-230.064 252,-214 275.721,-204.844 299.796,-188.222 315.667,-176.026"/>
<polygon fill="#9a32cd" stroke="#9a32cd" points="122.504,-237.523 112.843,-241.871 123.107,-244.497 122.504,-237.523"/>
<text text-anchor="middle" x="203.5" y="-239" font-family="Helvetica,sans-Serif" font-size="10.00"> inter_update_duration</text>
</g>
<!-- Node7 -->
<g id="node7" class="node"><title>Node7</title>
<polygon fill="white" stroke="#bfbfbf" points="272,-38.5 272,-57.5 398,-57.5 398,-38.5 272,-38.5"/>
<text text-anchor="middle" x="335" y="-45.5" font-family="Helvetica,sans-Serif" font-size="10.00">unique_ptr&lt; std::thread &gt;</text>
</g>
<!-- Node7&#45;&gt;Node1 -->
<g id="edge6" class="edge"><title>Node7&#45;&gt;Node1</title>
<path fill="none" stroke="#9a32cd" stroke-dasharray="5,2" d="M408.214,-54.2324C452.234,-58.0314 507.59,-62.8089 547.942,-66.2915"/>
<polygon fill="#9a32cd" stroke="#9a32cd" points="408.41,-50.7363 398.146,-53.3635 407.808,-57.7104 408.41,-50.7363"/>
<text text-anchor="middle" x="474" y="-68" font-family="Helvetica,sans-Serif" font-size="10.00"> worker_thread</text>
</g>
<!-- Node8 -->
<g id="node8" class="node"><title>Node8</title>
<polygon fill="white" stroke="#bfbfbf" points="294,-0.5 294,-19.5 376,-19.5 376,-0.5 294,-0.5"/>
<text text-anchor="middle" x="335" y="-7.5" font-family="Helvetica,sans-Serif" font-size="10.00">atomic&lt; bool &gt;</text>
</g>
<!-- Node8&#45;&gt;Node1 -->
<g id="edge8" class="edge"><title>Node8&#45;&gt;Node1</title>
<path fill="none" stroke="#9a32cd" stroke-dasharray="5,2" d="M386.287,-14.7695C425.867,-19.3015 482.142,-27.4765 530,-41 543.633,-44.8523 558.154,-50.5258 570.593,-55.905"/>
<polygon fill="#9a32cd" stroke="#9a32cd" points="386.672,-11.2908 376.347,-13.6676 385.901,-18.2481 386.672,-11.2908"/>
<text text-anchor="middle" x="474" y="-44" font-family="Helvetica,sans-Serif" font-size="10.00"> run_stage</text>
</g>
</g>
</svg>
        <g id="navigator" transform="translate(0 0)" fill="#404254">
                <rect fill="#f2f5e9" fill-opacity="0.5" stroke="#606060" stroke-width=".5" x="0" y="0" width="60" height="60"/>
                <use id="zoomplus" xlink:href="#zoomPlus" x="17" y="9" onmousedown="handleZoom(evt,'in')"/>
                <use id="zoomminus" xlink:href="#zoomMin" x="42" y="9" onmousedown="handleZoom(evt,'out')"/>
                <use id="reset" xlink:href="#resetDef" x="30" y="36" onmousedown="handleReset()"/>
                <g id="arrowUp" xlink:href="#dirArrow" transform="translate(30 24)" onmousedown="handlePan(0,-1)">
                  <use xlink:href="#rim" fill="#404040">
                        <set attributeName="fill" to="#808080" begin="arrowUp.mouseover" end="arrowUp.mouseout"/>
                  </use>
                  <path fill="none" stroke="white" stroke-width="1.5" d="M0,-3.0v7 M-2.5,-0.5L0,-3.0L2.5,-0.5"/>
                </g>
                <g id="arrowRight" xlink:href="#dirArrow" transform="rotate(90) translate(36 -43)" onmousedown="handlePan(1,0)">
                  <use xlink:href="#rim" fill="#404040">
                        <set attributeName="fill" to="#808080" begin="arrowRight.mouseover" end="arrowRight.mouseout"/>
                  </use>
                  <path fill="none" stroke="white" stroke-width="1.5" d="M0,-3.0v7 M-2.5,-0.5L0,-3.0L2.5,-0.5"/>
                </g>
                <g id="arrowDown" xlink:href="#dirArrow" transform="rotate(180) translate(-30 -48)" onmousedown="handlePan(0,1)">
                  <use xlink:href="#rim" fill="#404040">
                        <set attributeName="fill" to="#808080" begin="arrowDown.mouseover" end="arrowDown.mouseout"/>
                  </use>
                  <path fill="none" stroke="white" stroke-width="1.5" d="M0,-3.0v7 M-2.5,-0.5L0,-3.0L2.5,-0.5"/>
                </g>
                <g id="arrowLeft" xlink:href="#dirArrow" transform="rotate(270) translate(-36 17)" onmousedown="handlePan(-1,0)">
                  <use xlink:href="#rim" fill="#404040">
                        <set attributeName="fill" to="#808080" begin="arrowLeft.mouseover" end="arrowLeft.mouseout"/>
                  </use>
                  <path fill="none" stroke="white" stroke-width="1.5" d="M0,-3.0v7 M-2.5,-0.5L0,-3.0L2.5,-0.5"/>
                </g>
        </g>
        <svg viewBox="0 0 15 15" width="100%" height="30px" preserveAspectRatio="xMaxYMin meet">
         <g id="arrow_out" transform="scale(0.3 0.3)">
          <a xlink:href="classcarla_1_1traffic__manager_1_1PipelineStage__coll__graph_org.svg" target="_base">
           <rect id="button" ry="5" rx="5" y="6" x="6" height="38" width="38"
                fill="#f2f5e9" fill-opacity="0.5" stroke="#606060" stroke-width="1.0"/>
           <path id="arrow"
             d="M 11.500037,31.436501 C 11.940474,20.09759 22.043105,11.32322 32.158766,21.979434 L 37.068811,17.246167 C 37.068811,17.246167 37.088388,32 37.088388,32 L 22.160133,31.978069 C 22.160133,31.978069 26.997745,27.140456 26.997745,27.140456 C 18.528582,18.264221 13.291696,25.230495 11.500037,31.436501 z"
             style="fill:#404040;"/>
          </a>
         </g>
        </svg>
</svg>
