<?xml version="1.0" encoding="UTF-8" standalone="no"?>
<!DOCTYPE svg PUBLIC "-//W3C//DTD SVG 1.1//EN"
 "http://www.w3.org/Graphics/SVG/1.1/DTD/svg11.dtd">
<!-- Generated by graphviz version 2.40.1 (20161225.0304)
 -->
<!-- Title: pugi::xml_document::save Pages: 1 -->
<svg width="1033pt" height="526pt"
 viewBox="0.00 0.00 1033.00 525.81" xmlns="http://www.w3.org/2000/svg" xmlns:xlink="http://www.w3.org/1999/xlink">
<g id="graph0" class="graph" transform="scale(1 1) rotate(0) translate(4 521.8138)">
<title>pugi::xml_document::save</title>
<polygon fill="#ffffff" stroke="transparent" points="-4,4 -4,-521.8138 1029,-521.8138 1029,4 -4,4"/>
<!-- Node398 -->
<g id="node1" class="node">
<title>Node398</title>
<polygon fill="#bfbfbf" stroke="#000000" points="0,-355 0,-385 116,-385 116,-355 0,-355"/>
<text text-anchor="start" x="8" y="-373" font-family="Helvetica,sans-Serif" font-size="10.00" fill="#000000">pugi::xml_document</text>
<text text-anchor="middle" x="58" y="-362" font-family="Helvetica,sans-Serif" font-size="10.00" fill="#000000">::save</text>
</g>
<!-- Node399 -->
<g id="node2" class="node">
<title>Node399</title>
<g id="a_node2"><a xlink:href="../../db/d20/pugixml_8cpp.html#ac3649f7ad230da90f36590085fc5ca3b" target="_top" xlink:title="has_declaration">
<polygon fill="#ffffff" stroke="#000000" points="152,-379.5 152,-398.5 246,-398.5 246,-379.5 152,-379.5"/>
<text text-anchor="middle" x="199" y="-386.5" font-family="Helvetica,sans-Serif" font-size="10.00" fill="#000000">has_declaration</text>
</a>
</g>
</g>
<!-- Node398&#45;&gt;Node399 -->
<g id="edge1" class="edge">
<title>Node398&#45;&gt;Node399</title>
<path fill="none" stroke="#191970" d="M116.1642,-377.8377C124.5774,-378.9714 133.2326,-380.1377 141.6302,-381.2693"/>
<polygon fill="#191970" stroke="#191970" points="141.3341,-384.761 151.712,-382.6279 142.269,-377.8237 141.3341,-384.761"/>
</g>
<!-- Node400 -->
<g id="node3" class="node">
<title>Node400</title>
<g id="a_node3"><a xlink:href="../../db/d20/pugixml_8cpp.html#a2972dfcdf48725e48ce2901d08f7b4ae" target="_top" xlink:title="node_output">
<polygon fill="#ffffff" stroke="#000000" points="160.5,-341.5 160.5,-360.5 237.5,-360.5 237.5,-341.5 160.5,-341.5"/>
<text text-anchor="middle" x="199" y="-348.5" font-family="Helvetica,sans-Serif" font-size="10.00" fill="#000000">node_output</text>
</a>
</g>
</g>
<!-- Node398&#45;&gt;Node400 -->
<g id="edge2" class="edge">
<title>Node398&#45;&gt;Node400</title>
<path fill="none" stroke="#191970" d="M116.1642,-362.1623C127.4317,-360.644 139.1331,-359.0672 150.0684,-357.5936"/>
<polygon fill="#191970" stroke="#191970" points="150.8358,-361.0219 160.2788,-356.2178 149.9009,-354.0846 150.8358,-361.0219"/>
</g>
<!-- Node401 -->
<g id="node4" class="node">
<title>Node401</title>
<g id="a_node4"><a xlink:href="../../db/d20/pugixml_8cpp.html#a8113621e64072a3ad2225574db0d5449" target="_top" xlink:title="node_output_end">
<polygon fill="#ffffff" stroke="#000000" points="604,-465.5 604,-484.5 705,-484.5 705,-465.5 604,-465.5"/>
<text text-anchor="middle" x="654.5" y="-472.5" font-family="Helvetica,sans-Serif" font-size="10.00" fill="#000000">node_output_end</text>
</a>
</g>
</g>
<!-- Node400&#45;&gt;Node401 -->
<g id="edge3" class="edge">
<title>Node400&#45;&gt;Node401</title>
<path fill="none" stroke="#191970" d="M228.9964,-360.5588C234.9162,-363.1379 240.8758,-366.2719 246,-370 266.1548,-384.6635 260.8743,-399.7736 282,-413 378.5215,-473.4304 515.5546,-480.3984 593.6859,-478.6332"/>
<polygon fill="#191970" stroke="#191970" points="593.9472,-482.1273 603.8445,-478.3467 593.7497,-475.1301 593.9472,-482.1273"/>
</g>
<!-- Node402 -->
<g id="node5" class="node">
<title>Node402</title>
<g id="a_node5"><a xlink:href="../../db/dd3/classxml__buffered__writer.html#a1aa829bd551a69dd9005d2d46063308f" target="_top" xlink:title="xml_buffered_writer\l::write">
<polygon fill="#ffffff" stroke="#000000" points="910,-308 910,-338 1025,-338 1025,-308 910,-308"/>
<text text-anchor="start" x="918" y="-326" font-family="Helvetica,sans-Serif" font-size="10.00" fill="#000000">xml_buffered_writer</text>
<text text-anchor="middle" x="967.5" y="-315" font-family="Helvetica,sans-Serif" font-size="10.00" fill="#000000">::write</text>
</a>
</g>
</g>
<!-- Node400&#45;&gt;Node402 -->
<g id="edge39" class="edge">
<title>Node400&#45;&gt;Node402</title>
<path fill="none" stroke="#191970" d="M232.29,-360.6787C237.2831,-363.1517 242.0676,-366.2168 246,-370 274.098,-397.0315 252.5655,-424.4303 282,-450 357.8152,-515.8604 398.5733,-513 499,-513 499,-513 499,-513 654.5,-513 753.1519,-513 792.1054,-535.0043 874,-480 921.4597,-448.1238 948.4344,-383.3256 960.2465,-347.7523"/>
<polygon fill="#191970" stroke="#191970" points="963.6107,-348.7223 963.3063,-338.1318 956.9399,-346.6005 963.6107,-348.7223"/>
</g>
<!-- Node405 -->
<g id="node8" class="node">
<title>Node405</title>
<g id="a_node8"><a xlink:href="../../db/d20/pugixml_8cpp.html#aab9e1f034d085b663d146fcceabb1c48" target="_top" xlink:title="strlength">
<polygon fill="#ffffff" stroke="#000000" points="937.5,-6.5 937.5,-25.5 997.5,-25.5 997.5,-6.5 937.5,-6.5"/>
<text text-anchor="middle" x="967.5" y="-13.5" font-family="Helvetica,sans-Serif" font-size="10.00" fill="#000000">strlength</text>
</a>
</g>
</g>
<!-- Node400&#45;&gt;Node405 -->
<g id="edge37" class="edge">
<title>Node400&#45;&gt;Node405</title>
<path fill="none" stroke="#191970" d="M201.8368,-341.2459C218.9784,-284.5569 314.2251,0 499,0 499,0 499,0 654.5,0 752.539,0 867.6265,-7.9261 927.1969,-12.621"/>
<polygon fill="#191970" stroke="#191970" points="927.0638,-16.1215 937.3109,-13.4293 927.6215,-9.1437 927.0638,-16.1215"/>
</g>
<!-- Node406 -->
<g id="node9" class="node">
<title>Node406</title>
<g id="a_node9"><a xlink:href="../../db/d20/pugixml_8cpp.html#a2a7a7ce70701692e97923c850b3cc130" target="_top" xlink:title="node_output_simple">
<polygon fill="#ffffff" stroke="#000000" points="282,-265.5 282,-284.5 398,-284.5 398,-265.5 282,-265.5"/>
<text text-anchor="middle" x="340" y="-272.5" font-family="Helvetica,sans-Serif" font-size="10.00" fill="#000000">node_output_simple</text>
</a>
</g>
</g>
<!-- Node400&#45;&gt;Node406 -->
<g id="edge8" class="edge">
<title>Node400&#45;&gt;Node406</title>
<path fill="none" stroke="#191970" d="M216.8577,-341.3745C241.2251,-328.2403 285.0861,-304.599 313.3505,-289.3642"/>
<polygon fill="#191970" stroke="#191970" points="315.1452,-292.373 322.2872,-284.5473 311.8239,-286.2111 315.1452,-292.373"/>
</g>
<!-- Node411 -->
<g id="node14" class="node">
<title>Node411</title>
<g id="a_node14"><a xlink:href="../../db/d20/pugixml_8cpp.html#a804b556de6a32d00218a37496aef4630" target="_top" xlink:title="text_output_indent">
<polygon fill="#ffffff" stroke="#000000" points="600,-180.5 600,-199.5 709,-199.5 709,-180.5 600,-180.5"/>
<text text-anchor="middle" x="654.5" y="-187.5" font-family="Helvetica,sans-Serif" font-size="10.00" fill="#000000">text_output_indent</text>
</a>
</g>
</g>
<!-- Node400&#45;&gt;Node411 -->
<g id="edge38" class="edge">
<title>Node400&#45;&gt;Node411</title>
<path fill="none" stroke="#191970" d="M236.7812,-341.4592C277.0874,-330.9839 342.6216,-313.0974 398,-294 481.0859,-265.3475 576.3781,-224.5508 624.0246,-203.5882"/>
<polygon fill="#191970" stroke="#191970" points="625.4398,-206.7894 633.1742,-199.5485 622.6125,-200.3858 625.4398,-206.7894"/>
</g>
<!-- Node415 -->
<g id="node18" class="node">
<title>Node415</title>
<g id="a_node18"><a xlink:href="../../db/d20/pugixml_8cpp.html#abe15f1e5861695b34b8581805703d03a" target="_top" xlink:title="node_output_start">
<polygon fill="#ffffff" stroke="#000000" points="287.5,-180.5 287.5,-199.5 392.5,-199.5 392.5,-180.5 287.5,-180.5"/>
<text text-anchor="middle" x="340" y="-187.5" font-family="Helvetica,sans-Serif" font-size="10.00" fill="#000000">node_output_start</text>
</a>
</g>
</g>
<!-- Node400&#45;&gt;Node415 -->
<g id="edge32" class="edge">
<title>Node400&#45;&gt;Node415</title>
<path fill="none" stroke="#191970" d="M207.4742,-341.282C222.4811,-324.0766 254.7207,-287.1325 282,-256 296.3489,-239.6243 312.7276,-220.992 324.412,-207.7102"/>
<polygon fill="#191970" stroke="#191970" points="327.3655,-209.6518 331.3439,-199.8322 322.1103,-205.0276 327.3655,-209.6518"/>
</g>
<!-- Node401&#45;&gt;Node402 -->
<g id="edge4" class="edge">
<title>Node401&#45;&gt;Node402</title>
<path fill="none" stroke="#191970" d="M705.1161,-480.5816C752.0492,-483.3052 822.234,-480.9431 874,-451 915.092,-427.2311 943.2593,-377.3768 957.2623,-347.3834"/>
<polygon fill="#191970" stroke="#191970" points="960.555,-348.5951 961.4664,-338.0395 954.1714,-345.7229 960.555,-348.5951"/>
</g>
<!-- Node403 -->
<g id="node6" class="node">
<title>Node403</title>
<g id="a_node6"><a xlink:href="../../db/dd3/classxml__buffered__writer.html#a1699556c38e942f7c1db1b98ddf15642" target="_top" xlink:title="xml_buffered_writer\l::write_string">
<polygon fill="#ffffff" stroke="#000000" points="752,-55 752,-85 867,-85 867,-55 752,-55"/>
<text text-anchor="start" x="760" y="-73" font-family="Helvetica,sans-Serif" font-size="10.00" fill="#000000">xml_buffered_writer</text>
<text text-anchor="middle" x="809.5" y="-62" font-family="Helvetica,sans-Serif" font-size="10.00" fill="#000000">::write_string</text>
</a>
</g>
</g>
<!-- Node401&#45;&gt;Node403 -->
<g id="edge5" class="edge">
<title>Node401&#45;&gt;Node403</title>
<path fill="none" stroke="#191970" d="M656.5523,-465.2581C668.7982,-407.2871 732.1259,-109.7554 745,-95 746.1671,-93.6624 747.4144,-92.3959 748.7288,-91.1968"/>
<polygon fill="#191970" stroke="#191970" points="751.0194,-93.8532 756.899,-85.0395 746.8064,-88.2629 751.0194,-93.8532"/>
</g>
<!-- Node404 -->
<g id="node7" class="node">
<title>Node404</title>
<g id="a_node7"><a xlink:href="../../db/d20/pugixml_8cpp.html#a5dfd2dce8fc6dd9268a19ed553884234" target="_top" xlink:title="get_valid_length">
<polygon fill="#ffffff" stroke="#000000" points="918.5,-60.5 918.5,-79.5 1016.5,-79.5 1016.5,-60.5 918.5,-60.5"/>
<text text-anchor="middle" x="967.5" y="-67.5" font-family="Helvetica,sans-Serif" font-size="10.00" fill="#000000">get_valid_length</text>
</a>
</g>
</g>
<!-- Node403&#45;&gt;Node404 -->
<g id="edge6" class="edge">
<title>Node403&#45;&gt;Node404</title>
<path fill="none" stroke="#191970" d="M867.4362,-70C880.7709,-70 894.9694,-70 908.3547,-70"/>
<polygon fill="#191970" stroke="#191970" points="908.4043,-73.5001 918.4043,-70 908.4043,-66.5001 908.4043,-73.5001"/>
</g>
<!-- Node403&#45;&gt;Node405 -->
<g id="edge7" class="edge">
<title>Node403&#45;&gt;Node405</title>
<path fill="none" stroke="#191970" d="M853.5118,-54.958C877.5329,-46.7483 906.9623,-36.6901 929.9008,-28.8503"/>
<polygon fill="#191970" stroke="#191970" points="931.2886,-32.0749 939.6193,-25.5288 929.0248,-25.4511 931.2886,-32.0749"/>
</g>
<!-- Node406&#45;&gt;Node402 -->
<g id="edge30" class="edge">
<title>Node406&#45;&gt;Node402</title>
<path fill="none" stroke="#191970" d="M354.7108,-284.5969C372.7295,-295.9636 404.5028,-314.768 434,-326 566.6851,-376.5241 603.9634,-382.6694 745,-399 801.9528,-405.5946 819.9728,-418.188 874,-399 903.6672,-388.4636 930.7673,-364.0489 948.0652,-345.7153"/>
<polygon fill="#191970" stroke="#191970" points="950.6913,-348.03 954.8574,-338.2886 945.5258,-343.3058 950.6913,-348.03"/>
</g>
<!-- Node406&#45;&gt;Node403 -->
<g id="edge31" class="edge">
<title>Node406&#45;&gt;Node403</title>
<path fill="none" stroke="#191970" d="M349.9616,-265.4142C362.3209,-253.1555 383.5284,-230.885 398,-209 418.394,-178.1585 405.1804,-157.1634 434,-134 521.9879,-63.2808 659.5888,-58.4166 741.5187,-63.0267"/>
<polygon fill="#191970" stroke="#191970" points="741.518,-66.5334 751.7174,-63.6658 741.9559,-59.5471 741.518,-66.5334"/>
</g>
<!-- Node407 -->
<g id="node10" class="node">
<title>Node407</title>
<g id="a_node10"><a xlink:href="../../db/d20/pugixml_8cpp.html#ae35e737e5b408f763f6fe89874ec87cf" target="_top" xlink:title="node_output_attributes">
<polygon fill="#ffffff" stroke="#000000" points="434,-180.5 434,-199.5 564,-199.5 564,-180.5 434,-180.5"/>
<text text-anchor="middle" x="499" y="-187.5" font-family="Helvetica,sans-Serif" font-size="10.00" fill="#000000">node_output_attributes</text>
</a>
</g>
</g>
<!-- Node406&#45;&gt;Node407 -->
<g id="edge9" class="edge">
<title>Node406&#45;&gt;Node407</title>
<path fill="none" stroke="#191970" d="M352.8341,-265.3473C370.4393,-252.4219 403.3905,-229.3437 434,-214 442.0478,-209.9659 450.945,-206.2394 459.5073,-202.9854"/>
<polygon fill="#191970" stroke="#191970" points="460.782,-206.246 468.969,-199.5211 458.3752,-199.6727 460.782,-206.246"/>
</g>
<!-- Node408 -->
<g id="node11" class="node">
<title>Node408</title>
<g id="a_node11"><a xlink:href="../../db/d20/pugixml_8cpp.html#ad40396398fcbab11c9283b516f766413" target="_top" xlink:title="text_output">
<polygon fill="#ffffff" stroke="#000000" points="618,-104.5 618,-123.5 691,-123.5 691,-104.5 618,-104.5"/>
<text text-anchor="middle" x="654.5" y="-111.5" font-family="Helvetica,sans-Serif" font-size="10.00" fill="#000000">text_output</text>
</a>
</g>
</g>
<!-- Node406&#45;&gt;Node408 -->
<g id="edge26" class="edge">
<title>Node406&#45;&gt;Node408</title>
<path fill="none" stroke="#191970" d="M348.4203,-265.3852C370.4756,-240.2417 428.6059,-174.2497 434,-171 485.0598,-140.2384 506.301,-152.9736 564,-138 578.7012,-134.1849 594.727,-129.9575 609.1521,-126.127"/>
<polygon fill="#191970" stroke="#191970" points="610.0825,-129.5013 618.8469,-123.5485 608.2833,-122.7365 610.0825,-129.5013"/>
</g>
<!-- Node412 -->
<g id="node15" class="node">
<title>Node412</title>
<g id="a_node15"><a xlink:href="../../db/d20/pugixml_8cpp.html#a41713d70abc2d1fce3f8aca10f450a1d" target="_top" xlink:title="node_output_comment">
<polygon fill="#ffffff" stroke="#000000" points="745,-370.5 745,-389.5 874,-389.5 874,-370.5 745,-370.5"/>
<text text-anchor="middle" x="809.5" y="-377.5" font-family="Helvetica,sans-Serif" font-size="10.00" fill="#000000">node_output_comment</text>
</a>
</g>
</g>
<!-- Node406&#45;&gt;Node412 -->
<g id="edge20" class="edge">
<title>Node406&#45;&gt;Node412</title>
<path fill="none" stroke="#191970" d="M377.9103,-284.5043C395.0217,-288.7353 415.5041,-293.7184 434,-298 547.4656,-324.2662 680.7609,-352.8335 754.1016,-368.3544"/>
<polygon fill="#191970" stroke="#191970" points="753.5364,-371.8122 764.0441,-370.4562 754.9843,-364.9635 753.5364,-371.8122"/>
</g>
<!-- Node413 -->
<g id="node16" class="node">
<title>Node413</title>
<g id="a_node16"><a xlink:href="../../db/d20/pugixml_8cpp.html#a4738723860e1782016479760528efd62" target="_top" xlink:title="node_output_pi_value">
<polygon fill="#ffffff" stroke="#000000" points="747.5,-294.5 747.5,-313.5 871.5,-313.5 871.5,-294.5 747.5,-294.5"/>
<text text-anchor="middle" x="809.5" y="-301.5" font-family="Helvetica,sans-Serif" font-size="10.00" fill="#000000">node_output_pi_value</text>
</a>
</g>
</g>
<!-- Node406&#45;&gt;Node413 -->
<g id="edge23" class="edge">
<title>Node406&#45;&gt;Node413</title>
<path fill="none" stroke="#191970" d="M398.0408,-278.5851C483.7637,-283.88 644.1061,-293.784 737.3019,-299.5405"/>
<polygon fill="#191970" stroke="#191970" points="737.2955,-303.0467 747.4923,-300.1699 737.7271,-296.06 737.2955,-303.0467"/>
</g>
<!-- Node414 -->
<g id="node17" class="node">
<title>Node414</title>
<g id="a_node17"><a xlink:href="../../db/d20/pugixml_8cpp.html#a21f7b54b5d3837583ca0da632f7c27fc" target="_top" xlink:title="text_output_cdata">
<polygon fill="#ffffff" stroke="#000000" points="757,-180.5 757,-199.5 862,-199.5 862,-180.5 757,-180.5"/>
<text text-anchor="middle" x="809.5" y="-187.5" font-family="Helvetica,sans-Serif" font-size="10.00" fill="#000000">text_output_cdata</text>
</a>
</g>
</g>
<!-- Node406&#45;&gt;Node414 -->
<g id="edge27" class="edge">
<title>Node406&#45;&gt;Node414</title>
<path fill="none" stroke="#191970" d="M394.1156,-265.4929C466.0605,-252.8141 597.1508,-229.5751 709,-209 722.1512,-206.5808 736.2615,-203.9408 749.6287,-201.4192"/>
<polygon fill="#191970" stroke="#191970" points="750.5018,-204.8162 759.6777,-199.5197 749.2016,-197.9381 750.5018,-204.8162"/>
</g>
<!-- Node407&#45;&gt;Node402 -->
<g id="edge18" class="edge">
<title>Node407&#45;&gt;Node402</title>
<path fill="none" stroke="#191970" d="M545.1858,-199.546C616.5473,-214.7761 757.5412,-246.7851 874,-285 890.6824,-290.4742 908.6302,-297.4849 924.2969,-303.9906"/>
<polygon fill="#191970" stroke="#191970" points="923.1504,-307.3054 933.7252,-307.9578 925.8654,-300.8533 923.1504,-307.3054"/>
</g>
<!-- Node407&#45;&gt;Node403 -->
<g id="edge19" class="edge">
<title>Node407&#45;&gt;Node403</title>
<path fill="none" stroke="#191970" d="M545.7824,-180.3995C598.8569,-168.9725 681.5994,-149.3775 709,-133 728.9693,-121.0642 725.6828,-107.9646 745,-95 747.8794,-93.0675 750.9299,-91.2529 754.0761,-89.5542"/>
<polygon fill="#191970" stroke="#191970" points="755.7237,-92.644 763.1341,-85.072 752.6191,-86.3701 755.7237,-92.644"/>
</g>
<!-- Node407&#45;&gt;Node408 -->
<g id="edge10" class="edge">
<title>Node407&#45;&gt;Node408</title>
<path fill="none" stroke="#191970" d="M530.9419,-180.4042C541.7559,-176.5876 553.6963,-171.728 564,-166 581.7163,-156.1513 582.5929,-148.3854 600,-138 606.3481,-134.2126 613.4016,-130.6686 620.2712,-127.5276"/>
<polygon fill="#191970" stroke="#191970" points="621.6871,-130.7285 629.4414,-123.5091 618.8774,-124.3171 621.6871,-130.7285"/>
</g>
<!-- Node407&#45;&gt;Node411 -->
<g id="edge15" class="edge">
<title>Node407&#45;&gt;Node411</title>
<path fill="none" stroke="#191970" d="M564.045,-190C572.4468,-190 581.052,-190 589.4538,-190"/>
<polygon fill="#191970" stroke="#191970" points="589.574,-193.5001 599.574,-190 589.5739,-186.5001 589.574,-193.5001"/>
</g>
<!-- Node408&#45;&gt;Node403 -->
<g id="edge14" class="edge">
<title>Node408&#45;&gt;Node403</title>
<path fill="none" stroke="#191970" d="M688.1327,-104.4527C705.2722,-99.5872 726.6799,-93.5102 746.7235,-87.8204"/>
<polygon fill="#191970" stroke="#191970" points="747.7647,-91.1632 756.4288,-85.0654 745.8531,-84.4293 747.7647,-91.1632"/>
</g>
<!-- Node409 -->
<g id="node12" class="node">
<title>Node409</title>
<g id="a_node12"><a xlink:href="../../db/d20/pugixml_8cpp.html#affde71fa96c9fca0c49b21e22ba197c5" target="_top" xlink:title="text_output_escaped">
<polygon fill="#ffffff" stroke="#000000" points="750,-104.5 750,-123.5 869,-123.5 869,-104.5 750,-104.5"/>
<text text-anchor="middle" x="809.5" y="-111.5" font-family="Helvetica,sans-Serif" font-size="10.00" fill="#000000">text_output_escaped</text>
</a>
</g>
</g>
<!-- Node408&#45;&gt;Node409 -->
<g id="edge11" class="edge">
<title>Node408&#45;&gt;Node409</title>
<path fill="none" stroke="#191970" d="M691.2328,-114C705.6893,-114 722.7915,-114 739.4324,-114"/>
<polygon fill="#191970" stroke="#191970" points="739.7064,-117.5001 749.7063,-114 739.7063,-110.5001 739.7064,-117.5001"/>
</g>
<!-- Node409&#45;&gt;Node402 -->
<g id="edge12" class="edge">
<title>Node409&#45;&gt;Node402</title>
<path fill="none" stroke="#191970" d="M822.3914,-123.5264C836.1912,-134.126 858.2254,-152.2435 874,-171 908.5486,-212.0792 939.1582,-267.1733 955.3371,-298.4985"/>
<polygon fill="#191970" stroke="#191970" points="952.4109,-300.4651 960.0696,-307.7859 958.6479,-297.2869 952.4109,-300.4651"/>
</g>
<!-- Node410 -->
<g id="node13" class="node">
<title>Node410</title>
<g id="a_node13"><a xlink:href="../../db/dd3/classxml__buffered__writer.html#ae62b84beff660555acb76e277f967c0d" target="_top" xlink:title="xml_buffered_writer\l::write_buffer">
<polygon fill="#ffffff" stroke="#000000" points="910,-175 910,-205 1025,-205 1025,-175 910,-175"/>
<text text-anchor="start" x="918" y="-193" font-family="Helvetica,sans-Serif" font-size="10.00" fill="#000000">xml_buffered_writer</text>
<text text-anchor="middle" x="967.5" y="-182" font-family="Helvetica,sans-Serif" font-size="10.00" fill="#000000">::write_buffer</text>
</a>
</g>
</g>
<!-- Node409&#45;&gt;Node410 -->
<g id="edge13" class="edge">
<title>Node409&#45;&gt;Node410</title>
<path fill="none" stroke="#191970" d="M838.1359,-123.6031C849.4628,-127.6728 862.498,-132.6987 874,-138 894.3979,-147.4015 916.3871,-159.5234 933.9133,-169.6981"/>
<polygon fill="#191970" stroke="#191970" points="932.243,-172.776 942.6395,-174.8166 935.7847,-166.7381 932.243,-172.776"/>
</g>
<!-- Node411&#45;&gt;Node402 -->
<g id="edge16" class="edge">
<title>Node411&#45;&gt;Node402</title>
<path fill="none" stroke="#191970" d="M695.3473,-199.6027C749.7116,-212.7131 842.6351,-236.3674 874,-252 899.9436,-264.9306 925.9183,-285.4067 943.8827,-301.0539"/>
<polygon fill="#191970" stroke="#191970" points="941.7431,-303.8348 951.544,-307.8589 946.3917,-298.6012 941.7431,-303.8348"/>
</g>
<!-- Node411&#45;&gt;Node410 -->
<g id="edge17" class="edge">
<title>Node411&#45;&gt;Node410</title>
<path fill="none" stroke="#191970" d="M691.2137,-180.4909C707.5575,-176.726 727.1153,-172.8572 745,-171 802.0267,-165.0783 816.9545,-165.2626 874,-171 882.4106,-171.8459 891.1834,-173.1096 899.8399,-174.5908"/>
<polygon fill="#191970" stroke="#191970" points="899.4557,-178.0781 909.9196,-176.4176 900.7041,-171.1903 899.4557,-178.0781"/>
</g>
<!-- Node412&#45;&gt;Node402 -->
<g id="edge21" class="edge">
<title>Node412&#45;&gt;Node402</title>
<path fill="none" stroke="#191970" d="M835.9456,-370.4595C857.7748,-362.5844 889.4015,-351.1748 916.1743,-341.5162"/>
<polygon fill="#191970" stroke="#191970" points="917.5723,-344.7327 925.7912,-338.0468 915.1968,-338.1481 917.5723,-344.7327"/>
</g>
<!-- Node412&#45;&gt;Node410 -->
<g id="edge22" class="edge">
<title>Node412&#45;&gt;Node410</title>
<path fill="none" stroke="#191970" d="M822.1716,-370.283C835.7835,-359.5204 857.6583,-341.2645 874,-323 905.6196,-287.6602 936.0074,-241.4224 953.1615,-213.8119"/>
<polygon fill="#191970" stroke="#191970" points="956.1973,-215.5567 958.4543,-205.2051 950.2345,-211.8899 956.1973,-215.5567"/>
</g>
<!-- Node413&#45;&gt;Node402 -->
<g id="edge24" class="edge">
<title>Node413&#45;&gt;Node402</title>
<path fill="none" stroke="#191970" d="M871.9458,-311.5093C881.1308,-312.6138 890.6285,-313.756 899.9114,-314.8723"/>
<polygon fill="#191970" stroke="#191970" points="899.5287,-318.3514 909.8751,-316.0704 900.3645,-311.4014 899.5287,-318.3514"/>
</g>
<!-- Node413&#45;&gt;Node410 -->
<g id="edge25" class="edge">
<title>Node413&#45;&gt;Node410</title>
<path fill="none" stroke="#191970" d="M822.6992,-294.4765C847.9973,-276.2235 903.8538,-235.9219 938.3251,-211.0503"/>
<polygon fill="#191970" stroke="#191970" points="940.5349,-213.7718 946.5965,-205.0822 936.4391,-208.0951 940.5349,-213.7718"/>
</g>
<!-- Node414&#45;&gt;Node402 -->
<g id="edge28" class="edge">
<title>Node414&#45;&gt;Node402</title>
<path fill="none" stroke="#191970" d="M844.8982,-199.5487C854.8248,-203.1628 865.278,-207.917 874,-214 907.1835,-237.1435 935.8662,-274.7419 952.4212,-299.1715"/>
<polygon fill="#191970" stroke="#191970" points="949.7169,-301.4269 958.1564,-307.832 955.5532,-297.562 949.7169,-301.4269"/>
</g>
<!-- Node414&#45;&gt;Node410 -->
<g id="edge29" class="edge">
<title>Node414&#45;&gt;Node410</title>
<path fill="none" stroke="#191970" d="M862.1117,-190C874.2244,-190 887.2721,-190 899.9208,-190"/>
<polygon fill="#191970" stroke="#191970" points="899.9538,-193.5001 909.9538,-190 899.9537,-186.5001 899.9538,-193.5001"/>
</g>
<!-- Node415&#45;&gt;Node402 -->
<g id="edge35" class="edge">
<title>Node415&#45;&gt;Node402</title>
<path fill="none" stroke="#191970" d="M360.9185,-199.5196C419.8076,-225.7302 592.6336,-298.6222 745,-323 796.4879,-331.2378 855.54,-330.7882 899.864,-328.5224"/>
<polygon fill="#191970" stroke="#191970" points="900.1525,-332.0119 909.9432,-327.9631 899.7646,-325.0226 900.1525,-332.0119"/>
</g>
<!-- Node415&#45;&gt;Node403 -->
<g id="edge36" class="edge">
<title>Node415&#45;&gt;Node403</title>
<path fill="none" stroke="#191970" d="M343.5579,-180.195C353.3395,-154.9045 383.3288,-87.6555 434,-62 535.3276,-10.6965 672.6009,-32.9092 749.9981,-52.3487"/>
<polygon fill="#191970" stroke="#191970" points="749.4949,-55.8334 760.0523,-54.9434 751.2442,-49.0555 749.4949,-55.8334"/>
</g>
<!-- Node415&#45;&gt;Node407 -->
<g id="edge33" class="edge">
<title>Node415&#45;&gt;Node407</title>
<path fill="none" stroke="#191970" d="M392.5032,-190C402.5112,-190 413.167,-190 423.7232,-190"/>
<polygon fill="#191970" stroke="#191970" points="423.7892,-193.5001 433.7892,-190 423.7891,-186.5001 423.7892,-193.5001"/>
</g>
<!-- Node415&#45;&gt;Node408 -->
<g id="edge34" class="edge">
<title>Node415&#45;&gt;Node408</title>
<path fill="none" stroke="#191970" d="M353.2329,-180.4294C370.7564,-168.3022 403.0647,-147.8022 434,-138 491.8949,-119.6553 562.1448,-114.8049 607.5527,-113.7844"/>
<polygon fill="#191970" stroke="#191970" points="607.7554,-117.2816 617.6941,-113.6111 607.6357,-110.2826 607.7554,-117.2816"/>
</g>
</g>
</svg>
