<?xml version="1.0" encoding="UTF-8" standalone="no"?>
<!DOCTYPE svg PUBLIC "-//W3C//DTD SVG 1.1//EN"
 "http://www.w3.org/Graphics/SVG/1.1/DTD/svg11.dtd">
<!-- Generated by graphviz version 2.38.0 (20140413.2041)
 -->
<!-- Title: pugi::xml_document::_destroy Pages: 1 -->
<!--zoomable 284 -->
<svg id="main" version="1.1" xmlns="http://www.w3.org/2000/svg" xmlns:xlink="http://www.w3.org/1999/xlink" xml:space="preserve" onload="init(evt)">
<style type="text/css"><![CDATA[
.edge:hover path { stroke: red; }
.edge:hover polygon { stroke: red; fill: red; }
]]></style>
<script type="text/javascript"><![CDATA[
var edges = document.getElementsByTagName('g');
if (edges && edges.length) {
  for (var i=0;i<edges.length;i++) {
    if (edges[i].id.substr(0,4)=='edge') {
      edges[i].setAttribute('class','edge');
    }
  }
}
]]></script>
        <defs>
                <circle id="rim" cx="0" cy="0" r="7"/>
                <circle id="rim2" cx="0" cy="0" r="3.5"/>
                <g id="zoomPlus">
                        <use xlink:href="#rim" fill="#404040">
                                <set attributeName="fill" to="#808080" begin="zoomplus.mouseover" end="zoomplus.mouseout"/>
                        </use>
                        <path d="M-4,0h8M0,-4v8" fill="none" stroke="white" stroke-width="1.5" pointer-events="none"/>
                </g>
                <g id="zoomMin">
                        <use xlink:href="#rim" fill="#404040">
                                <set attributeName="fill" to="#808080" begin="zoomminus.mouseover" end="zoomminus.mouseout"/>
                        </use>
                        <path d="M-4,0h8" fill="none" stroke="white" stroke-width="1.5" pointer-events="none"/>
                </g>
                <g id="dirArrow">
                        <path fill="none" stroke="white" stroke-width="1.5" d="M0,-3.0v7 M-2.5,-0.5L0,-3.0L2.5,-0.5"/>
                </g>
               <g id="resetDef">
                       <use xlink:href="#rim2" fill="#404040">
                               <set attributeName="fill" to="#808080" begin="reset.mouseover" end="reset.mouseout"/>
                       </use>
               </g>
        </defs>

<script type="text/javascript">
var viewWidth = 1308;
var viewHeight = 284;
var sectionId = 'dynsection-7';
</script>
<script xlink:href="../../svgpan.js"/>
<svg id="graph" class="graph">
<g id="viewport">
<title>pugi::xml_document::_destroy</title>
<polygon fill="white" stroke="none" points="-4,4 -4,-280 1304,-280 1304,4 -4,4"/>
<!-- Node1 -->
<g id="node1" class="node"><title>Node1</title>
<polygon fill="#bfbfbf" stroke="black" points="0,-97.5 0,-127.5 104,-127.5 104,-97.5 0,-97.5"/>
<text text-anchor="start" x="8" y="-115.5" font-family="Helvetica,sans-Serif" font-size="10.00">pugi::xml_document</text>
<text text-anchor="middle" x="52" y="-104.5" font-family="Helvetica,sans-Serif" font-size="10.00">::_destroy</text>
</g>
<!-- Node2 -->
<g id="node2" class="node"><title>Node2</title>
<g id="a_node2"><a xlink:href="../../d8/d8d/classpugi_1_1xml__document.html#acf2b9daf1d12e12048796118b7a7685d" target="_top" xlink:title="pugi::xml_document\l::reset">
<polygon fill="white" stroke="black" points="140,-122.5 140,-152.5 244,-152.5 244,-122.5 140,-122.5"/>
<text text-anchor="start" x="148" y="-140.5" font-family="Helvetica,sans-Serif" font-size="10.00">pugi::xml_document</text>
<text text-anchor="middle" x="192" y="-129.5" font-family="Helvetica,sans-Serif" font-size="10.00">::reset</text>
</a>
</g>
</g>
<!-- Node1&#45;&gt;Node2 -->
<g id="edge1" class="edge"><title>Node1&#45;&gt;Node2</title>
<path fill="none" stroke="midnightblue" d="M114.496,-123.641C122.872,-125.158 131.398,-126.702 139.571,-128.183"/>
<polygon fill="midnightblue" stroke="midnightblue" points="114.85,-120.148 104.386,-121.809 113.602,-127.036 114.85,-120.148"/>
</g>
<!-- Node19 -->
<g id="node19" class="node"><title>Node19</title>
<g id="a_node19"><a xlink:href="../../d8/d8d/classpugi_1_1xml__document.html#af37d8a79f7465ad48d65c2bd13461580" target="_top" xlink:title="pugi::xml_document\l::~xml_document">
<polygon fill="white" stroke="black" points="140,-73.5 140,-103.5 244,-103.5 244,-73.5 140,-73.5"/>
<text text-anchor="start" x="148" y="-91.5" font-family="Helvetica,sans-Serif" font-size="10.00">pugi::xml_document</text>
<text text-anchor="middle" x="192" y="-80.5" font-family="Helvetica,sans-Serif" font-size="10.00">::~xml_document</text>
</a>
</g>
</g>
<!-- Node1&#45;&gt;Node19 -->
<g id="edge18" class="edge"><title>Node1&#45;&gt;Node19</title>
<path fill="none" stroke="midnightblue" d="M114.496,-101.805C122.872,-100.348 131.398,-98.8656 139.571,-97.4442"/>
<polygon fill="midnightblue" stroke="midnightblue" points="113.639,-98.4016 104.386,-103.563 114.838,-105.298 113.639,-98.4016"/>
</g>
<!-- Node3 -->
<g id="node3" class="node"><title>Node3</title>
<g id="a_node3"><a xlink:href="../../d8/d8d/classpugi_1_1xml__document.html#a4230de3de88f4fe481c4c3d5312aa5cf" target="_top" xlink:title="pugi::xml_document\l::reset">
<polygon fill="white" stroke="black" points="293,-245.5 293,-275.5 397,-275.5 397,-245.5 293,-245.5"/>
<text text-anchor="start" x="301" y="-263.5" font-family="Helvetica,sans-Serif" font-size="10.00">pugi::xml_document</text>
<text text-anchor="middle" x="345" y="-252.5" font-family="Helvetica,sans-Serif" font-size="10.00">::reset</text>
</a>
</g>
</g>
<!-- Node2&#45;&gt;Node3 -->
<g id="edge2" class="edge"><title>Node2&#45;&gt;Node3</title>
<path fill="none" stroke="midnightblue" d="M208.61,-161.171C224.307,-183.343 250.378,-216.047 280,-236.5 284.883,-239.871 290.299,-242.841 295.855,-245.438"/>
<polygon fill="midnightblue" stroke="midnightblue" points="211.296,-158.901 202.73,-152.666 205.538,-162.882 211.296,-158.901"/>
</g>
<!-- Node4 -->
<g id="node4" class="node"><title>Node4</title>
<g id="a_node4"><a xlink:href="../../d8/d8d/classpugi_1_1xml__document.html#abb7db3882f94ac35b870510789a87778" target="_top" xlink:title="pugi::xml_document\l::load">
<polygon fill="white" stroke="black" points="293,-196.5 293,-226.5 397,-226.5 397,-196.5 293,-196.5"/>
<text text-anchor="start" x="301" y="-214.5" font-family="Helvetica,sans-Serif" font-size="10.00">pugi::xml_document</text>
<text text-anchor="middle" x="345" y="-203.5" font-family="Helvetica,sans-Serif" font-size="10.00">::load</text>
</a>
</g>
</g>
<!-- Node2&#45;&gt;Node4 -->
<g id="edge3" class="edge"><title>Node2&#45;&gt;Node4</title>
<path fill="none" stroke="midnightblue" d="M225.772,-158.025C241.793,-167.618 261.556,-178.812 280,-187.5 286.656,-190.635 293.842,-193.659 300.911,-196.443"/>
<polygon fill="midnightblue" stroke="midnightblue" points="227.176,-154.783 216.81,-152.593 223.547,-160.77 227.176,-154.783"/>
</g>
<!-- Node5 -->
<g id="node5" class="node"><title>Node5</title>
<g id="a_node5"><a xlink:href="../../d8/d8d/classpugi_1_1xml__document.html#aad350209a4a91589fbd7e8cdaf79e010" target="_top" xlink:title="pugi::xml_document\l::load_file">
<polygon fill="white" stroke="black" points="293,-147.5 293,-177.5 397,-177.5 397,-147.5 293,-147.5"/>
<text text-anchor="start" x="301" y="-165.5" font-family="Helvetica,sans-Serif" font-size="10.00">pugi::xml_document</text>
<text text-anchor="middle" x="345" y="-154.5" font-family="Helvetica,sans-Serif" font-size="10.00">::load_file</text>
</a>
</g>
</g>
<!-- Node2&#45;&gt;Node5 -->
<g id="edge4" class="edge"><title>Node2&#45;&gt;Node5</title>
<path fill="none" stroke="midnightblue" d="M254.266,-147.643C267.104,-149.769 280.512,-151.989 292.931,-154.045"/>
<polygon fill="midnightblue" stroke="midnightblue" points="254.559,-144.144 244.122,-145.964 253.416,-151.05 254.559,-144.144"/>
</g>
<!-- Node7 -->
<g id="node7" class="node"><title>Node7</title>
<g id="a_node7"><a xlink:href="../../d8/d8d/classpugi_1_1xml__document.html#ab29840790e26b2166a395c63a2b2d9bd" target="_top" xlink:title="pugi::xml_document\l::load_buffer">
<polygon fill="white" stroke="black" points="293,-98.5 293,-128.5 397,-128.5 397,-98.5 293,-98.5"/>
<text text-anchor="start" x="301" y="-116.5" font-family="Helvetica,sans-Serif" font-size="10.00">pugi::xml_document</text>
<text text-anchor="middle" x="345" y="-105.5" font-family="Helvetica,sans-Serif" font-size="10.00">::load_buffer</text>
</a>
</g>
</g>
<!-- Node2&#45;&gt;Node7 -->
<g id="edge6" class="edge"><title>Node2&#45;&gt;Node7</title>
<path fill="none" stroke="midnightblue" d="M254.266,-127.762C267.104,-125.722 280.512,-123.591 292.931,-121.617"/>
<polygon fill="midnightblue" stroke="midnightblue" points="253.448,-124.348 244.122,-129.375 254.547,-131.262 253.448,-124.348"/>
</g>
<!-- Node17 -->
<g id="node17" class="node"><title>Node17</title>
<g id="a_node17"><a xlink:href="../../d8/d8d/classpugi_1_1xml__document.html#a3e20650182ccbdd175ca069dd5e08632" target="_top" xlink:title="pugi::xml_document\l::load_buffer_inplace">
<polygon fill="white" stroke="black" points="291.5,-49.5 291.5,-79.5 398.5,-79.5 398.5,-49.5 291.5,-49.5"/>
<text text-anchor="start" x="299.5" y="-67.5" font-family="Helvetica,sans-Serif" font-size="10.00">pugi::xml_document</text>
<text text-anchor="middle" x="345" y="-56.5" font-family="Helvetica,sans-Serif" font-size="10.00">::load_buffer_inplace</text>
</a>
</g>
</g>
<!-- Node2&#45;&gt;Node17 -->
<g id="edge16" class="edge"><title>Node2&#45;&gt;Node17</title>
<path fill="none" stroke="midnightblue" d="M235.816,-117.926C238.609,-116.473 241.358,-114.991 244,-113.5 260.746,-104.047 262.945,-98.3833 280,-89.5 286.877,-85.9181 294.387,-82.5435 301.767,-79.5017"/>
<polygon fill="midnightblue" stroke="midnightblue" points="234.19,-114.826 226.828,-122.445 237.335,-121.08 234.19,-114.826"/>
</g>
<!-- Node18 -->
<g id="node18" class="node"><title>Node18</title>
<g id="a_node18"><a xlink:href="../../d8/d8d/classpugi_1_1xml__document.html#a9da4bdcdc4ad914fb0f4680b02983502" target="_top" xlink:title="pugi::xml_document\l::load_buffer_inplace_own">
<polygon fill="white" stroke="black" points="280,-0.5 280,-30.5 410,-30.5 410,-0.5 280,-0.5"/>
<text text-anchor="start" x="288" y="-18.5" font-family="Helvetica,sans-Serif" font-size="10.00">pugi::xml_document</text>
<text text-anchor="middle" x="345" y="-7.5" font-family="Helvetica,sans-Serif" font-size="10.00">::load_buffer_inplace_own</text>
</a>
</g>
</g>
<!-- Node2&#45;&gt;Node18 -->
<g id="edge17" class="edge"><title>Node2&#45;&gt;Node18</title>
<path fill="none" stroke="midnightblue" d="M240.647,-116.539C241.812,-115.565 242.934,-114.553 244,-113.5 270.029,-87.8059 252.951,-64.1182 280,-39.5 283.774,-36.0654 288.085,-33.1075 292.648,-30.563"/>
<polygon fill="midnightblue" stroke="midnightblue" points="238.526,-113.752 232.417,-122.408 242.59,-119.451 238.526,-113.752"/>
</g>
<!-- Node6 -->
<g id="node6" class="node"><title>Node6</title>
<g id="a_node6"><a xlink:href="../../d1/dc0/test__opendrive_8cpp.html#ad3c77eb93e568426e72ddb84a31031a7" target="_top" xlink:title="TEST">
<polygon fill="white" stroke="black" points="477,-153 477,-172 519,-172 519,-153 477,-153"/>
<text text-anchor="middle" x="498" y="-160" font-family="Helvetica,sans-Serif" font-size="10.00">TEST</text>
</a>
</g>
</g>
<!-- Node5&#45;&gt;Node6 -->
<g id="edge5" class="edge"><title>Node5&#45;&gt;Node6</title>
<path fill="none" stroke="midnightblue" d="M407.249,-162.5C432.117,-162.5 459.126,-162.5 476.948,-162.5"/>
<polygon fill="midnightblue" stroke="midnightblue" points="407.122,-159 397.122,-162.5 407.122,-166 407.122,-159"/>
</g>
<!-- Node8 -->
<g id="node8" class="node"><title>Node8</title>
<g id="a_node8"><a xlink:href="../../d8/d8d/classpugi_1_1xml__document.html#a706a276ee3d5010f2bb8c7eacb75a891" target="_top" xlink:title="pugi::xml_document\l::load_string">
<polygon fill="white" stroke="black" points="446,-98.5 446,-128.5 550,-128.5 550,-98.5 446,-98.5"/>
<text text-anchor="start" x="454" y="-116.5" font-family="Helvetica,sans-Serif" font-size="10.00">pugi::xml_document</text>
<text text-anchor="middle" x="498" y="-105.5" font-family="Helvetica,sans-Serif" font-size="10.00">::load_string</text>
</a>
</g>
</g>
<!-- Node7&#45;&gt;Node8 -->
<g id="edge7" class="edge"><title>Node7&#45;&gt;Node8</title>
<path fill="none" stroke="midnightblue" d="M407.266,-113.5C420.104,-113.5 433.512,-113.5 445.931,-113.5"/>
<polygon fill="midnightblue" stroke="midnightblue" points="407.122,-110 397.122,-113.5 407.122,-117 407.122,-110"/>
</g>
<!-- Node9 -->
<g id="node9" class="node"><title>Node9</title>
<g id="a_node9"><a xlink:href="../../de/d5a/classcarla_1_1opendrive_1_1OpenDriveParser.html#a599fd6174f30aaee59590c16503afd8a" target="_top" xlink:title="carla::opendrive::OpenDrive\lParser::Load">
<polygon fill="white" stroke="black" points="586,-123.5 586,-153.5 724,-153.5 724,-123.5 586,-123.5"/>
<text text-anchor="start" x="594" y="-141.5" font-family="Helvetica,sans-Serif" font-size="10.00">carla::opendrive::OpenDrive</text>
<text text-anchor="middle" x="655" y="-130.5" font-family="Helvetica,sans-Serif" font-size="10.00">Parser::Load</text>
</a>
</g>
</g>
<!-- Node8&#45;&gt;Node9 -->
<g id="edge8" class="edge"><title>Node8&#45;&gt;Node9</title>
<path fill="none" stroke="midnightblue" d="M560.234,-123.376C568.605,-124.727 577.242,-126.12 585.728,-127.488"/>
<polygon fill="midnightblue" stroke="midnightblue" points="560.612,-119.892 550.182,-121.755 559.497,-126.803 560.612,-119.892"/>
</g>
<!-- Node16 -->
<g id="node16" class="node"><title>Node16</title>
<g id="a_node16"><a xlink:href="../../d8/d8d/classpugi_1_1xml__document.html#ae17a77772fa21a40f3d91d9c79e60d0b" target="_top" xlink:title="pugi::xml_document\l::load">
<polygon fill="white" stroke="black" points="603,-74.5 603,-104.5 707,-104.5 707,-74.5 603,-74.5"/>
<text text-anchor="start" x="611" y="-92.5" font-family="Helvetica,sans-Serif" font-size="10.00">pugi::xml_document</text>
<text text-anchor="middle" x="655" y="-81.5" font-family="Helvetica,sans-Serif" font-size="10.00">::load</text>
</a>
</g>
</g>
<!-- Node8&#45;&gt;Node16 -->
<g id="edge15" class="edge"><title>Node8&#45;&gt;Node16</title>
<path fill="none" stroke="midnightblue" d="M560.292,-104.01C574.396,-101.826 589.251,-99.5257 602.871,-97.4167"/>
<polygon fill="midnightblue" stroke="midnightblue" points="559.529,-100.586 550.182,-105.575 560.6,-107.504 559.529,-100.586"/>
</g>
<!-- Node10 -->
<g id="node10" class="node"><title>Node10</title>
<g id="a_node10"><a xlink:href="../../d0/d2d/classAOpenDriveActor.html#ac8678af2b371c3a3faca8775ab1e4816" target="_top" xlink:title="AOpenDriveActor::BuildRoutes">
<polygon fill="white" stroke="black" points="760,-195 760,-214 912,-214 912,-195 760,-195"/>
<text text-anchor="middle" x="836" y="-202" font-family="Helvetica,sans-Serif" font-size="10.00">AOpenDriveActor::BuildRoutes</text>
</a>
</g>
</g>
<!-- Node9&#45;&gt;Node10 -->
<g id="edge9" class="edge"><title>Node9&#45;&gt;Node10</title>
<path fill="none" stroke="midnightblue" d="M694.55,-157.884C713.869,-167.09 737.818,-177.746 760,-185.5 770.144,-189.046 781.272,-192.231 791.779,-194.935"/>
<polygon fill="midnightblue" stroke="midnightblue" points="695.994,-154.695 685.467,-153.501 692.952,-160.999 695.994,-154.695"/>
</g>
<!-- Node11 -->
<g id="node11" class="node"><title>Node11</title>
<g id="a_node11"><a xlink:href="../../db/de5/classACarlaGameModeBase.html#a5caddc59713354578997de90542ddd93" target="_top" xlink:title="ACarlaGameModeBase\l::InitGame">
<polygon fill="white" stroke="black" points="776.5,-145.5 776.5,-175.5 895.5,-175.5 895.5,-145.5 776.5,-145.5"/>
<text text-anchor="start" x="784.5" y="-163.5" font-family="Helvetica,sans-Serif" font-size="10.00">ACarlaGameModeBase</text>
<text text-anchor="middle" x="836" y="-152.5" font-family="Helvetica,sans-Serif" font-size="10.00">::InitGame</text>
</a>
</g>
</g>
<!-- Node9&#45;&gt;Node11 -->
<g id="edge10" class="edge"><title>Node9&#45;&gt;Node11</title>
<path fill="none" stroke="midnightblue" d="M734.363,-148.131C748.462,-149.864 762.936,-151.643 776.356,-153.292"/>
<polygon fill="midnightblue" stroke="midnightblue" points="734.535,-144.626 724.183,-146.88 733.681,-151.574 734.535,-144.626"/>
</g>
<!-- Node12 -->
<g id="node12" class="node"><title>Node12</title>
<g id="a_node12"><a xlink:href="../../d8/dfe/classUOpenDriveMap.html#a0ce422ee1f79211e6957bab1d2048348" target="_top" xlink:title="Load this map with an OpenDrive (XODR) file. ">
<polygon fill="white" stroke="black" points="778,-107 778,-126 894,-126 894,-107 778,-107"/>
<text text-anchor="middle" x="836" y="-114" font-family="Helvetica,sans-Serif" font-size="10.00">UOpenDriveMap::Load</text>
</a>
</g>
</g>
<!-- Node9&#45;&gt;Node12 -->
<g id="edge11" class="edge"><title>Node9&#45;&gt;Node12</title>
<path fill="none" stroke="midnightblue" d="M734.235,-128.884C748.878,-127.085 763.93,-125.235 777.789,-123.531"/>
<polygon fill="midnightblue" stroke="midnightblue" points="733.681,-125.426 724.183,-130.12 734.535,-132.374 733.681,-125.426"/>
</g>
<!-- Node15 -->
<g id="node15" class="node"><title>Node15</title>
<g id="a_node15"><a xlink:href="../../d2/daf/namespacecarla_1_1client.html#a228b83c6429f8e3406a93a1b41eb1565" target="_top" xlink:title="carla::client::MakeMap">
<polygon fill="white" stroke="black" points="778,-69 778,-88 894,-88 894,-69 778,-69"/>
<text text-anchor="middle" x="836" y="-76" font-family="Helvetica,sans-Serif" font-size="10.00">carla::client::MakeMap</text>
</a>
</g>
</g>
<!-- Node9&#45;&gt;Node15 -->
<g id="edge14" class="edge"><title>Node9&#45;&gt;Node15</title>
<path fill="none" stroke="midnightblue" d="M710.379,-119.866C715.009,-118.111 719.6,-116.31 724,-114.5 740.364,-107.769 743.346,-103.478 760,-97.5 769.987,-93.9148 780.953,-90.733 791.342,-88.047"/>
<polygon fill="midnightblue" stroke="midnightblue" points="709.029,-116.634 700.871,-123.393 711.464,-123.197 709.029,-116.634"/>
</g>
<!-- Node13 -->
<g id="node13" class="node"><title>Node13</title>
<g id="a_node13"><a xlink:href="../../d1/d1b/classUOpenDrive.html#ac05b8dc3f340e373582945f9215081d9" target="_top" xlink:title="Load OpenDriveMap associated to the given MapName. ">
<polygon fill="white" stroke="black" points="948,-107 948,-126 1111,-126 1111,-107 948,-107"/>
<text text-anchor="middle" x="1029.5" y="-114" font-family="Helvetica,sans-Serif" font-size="10.00">UOpenDrive::LoadOpenDriveMap</text>
</a>
</g>
</g>
<!-- Node12&#45;&gt;Node13 -->
<g id="edge12" class="edge"><title>Node12&#45;&gt;Node13</title>
<path fill="none" stroke="midnightblue" d="M904.277,-116.5C918.366,-116.5 933.361,-116.5 947.879,-116.5"/>
<polygon fill="midnightblue" stroke="midnightblue" points="904.197,-113 894.197,-116.5 904.197,-120 904.197,-113"/>
</g>
<!-- Node14 -->
<g id="node14" class="node"><title>Node14</title>
<g id="a_node14"><a xlink:href="../../d1/d1b/classUOpenDrive.html#a4486c7ee9d4a8bf6cd2a7ca5ad7e4ece" target="_top" xlink:title="Load OpenDriveMap associated to the currently loaded map. ">
<polygon fill="white" stroke="black" points="1147,-101.5 1147,-131.5 1300,-131.5 1300,-101.5 1147,-101.5"/>
<text text-anchor="start" x="1155" y="-119.5" font-family="Helvetica,sans-Serif" font-size="10.00">UOpenDrive::LoadCurrentOpen</text>
<text text-anchor="middle" x="1223.5" y="-108.5" font-family="Helvetica,sans-Serif" font-size="10.00">DriveMap</text>
</a>
</g>
</g>
<!-- Node13&#45;&gt;Node14 -->
<g id="edge13" class="edge"><title>Node13&#45;&gt;Node14</title>
<path fill="none" stroke="midnightblue" d="M1121.11,-116.5C1129.68,-116.5 1138.3,-116.5 1146.71,-116.5"/>
<polygon fill="midnightblue" stroke="midnightblue" points="1121.09,-113 1111.09,-116.5 1121.09,-120 1121.09,-113"/>
</g>
</g>
</svg>
        <g id="navigator" transform="translate(0 0)" fill="#404254">
                <rect fill="#f2f5e9" fill-opacity="0.5" stroke="#606060" stroke-width=".5" x="0" y="0" width="60" height="60"/>
                <use id="zoomplus" xlink:href="#zoomPlus" x="17" y="9" onmousedown="handleZoom(evt,'in')"/>
                <use id="zoomminus" xlink:href="#zoomMin" x="42" y="9" onmousedown="handleZoom(evt,'out')"/>
                <use id="reset" xlink:href="#resetDef" x="30" y="36" onmousedown="handleReset()"/>
                <g id="arrowUp" xlink:href="#dirArrow" transform="translate(30 24)" onmousedown="handlePan(0,-1)">
                  <use xlink:href="#rim" fill="#404040">
                        <set attributeName="fill" to="#808080" begin="arrowUp.mouseover" end="arrowUp.mouseout"/>
                  </use>
                  <path fill="none" stroke="white" stroke-width="1.5" d="M0,-3.0v7 M-2.5,-0.5L0,-3.0L2.5,-0.5"/>
                </g>
                <g id="arrowRight" xlink:href="#dirArrow" transform="rotate(90) translate(36 -43)" onmousedown="handlePan(1,0)">
                  <use xlink:href="#rim" fill="#404040">
                        <set attributeName="fill" to="#808080" begin="arrowRight.mouseover" end="arrowRight.mouseout"/>
                  </use>
                  <path fill="none" stroke="white" stroke-width="1.5" d="M0,-3.0v7 M-2.5,-0.5L0,-3.0L2.5,-0.5"/>
                </g>
                <g id="arrowDown" xlink:href="#dirArrow" transform="rotate(180) translate(-30 -48)" onmousedown="handlePan(0,1)">
                  <use xlink:href="#rim" fill="#404040">
                        <set attributeName="fill" to="#808080" begin="arrowDown.mouseover" end="arrowDown.mouseout"/>
                  </use>
                  <path fill="none" stroke="white" stroke-width="1.5" d="M0,-3.0v7 M-2.5,-0.5L0,-3.0L2.5,-0.5"/>
                </g>
                <g id="arrowLeft" xlink:href="#dirArrow" transform="rotate(270) translate(-36 17)" onmousedown="handlePan(-1,0)">
                  <use xlink:href="#rim" fill="#404040">
                        <set attributeName="fill" to="#808080" begin="arrowLeft.mouseover" end="arrowLeft.mouseout"/>
                  </use>
                  <path fill="none" stroke="white" stroke-width="1.5" d="M0,-3.0v7 M-2.5,-0.5L0,-3.0L2.5,-0.5"/>
                </g>
        </g>
        <svg viewBox="0 0 15 15" width="100%" height="30px" preserveAspectRatio="xMaxYMin meet">
         <g id="arrow_out" transform="scale(0.3 0.3)">
          <a xlink:href="classpugi_1_1xml__document_a5ae4c55b15c15eaa0640b4969948e0ea_icgraph_org.svg" target="_base">
           <rect id="button" ry="5" rx="5" y="6" x="6" height="38" width="38"
                fill="#f2f5e9" fill-opacity="0.5" stroke="#606060" stroke-width="1.0"/>
           <path id="arrow"
             d="M 11.500037,31.436501 C 11.940474,20.09759 22.043105,11.32322 32.158766,21.979434 L 37.068811,17.246167 C 37.068811,17.246167 37.088388,32 37.088388,32 L 22.160133,31.978069 C 22.160133,31.978069 26.997745,27.140456 26.997745,27.140456 C 18.528582,18.264221 13.291696,25.230495 11.500037,31.436501 z"
             style="fill:#404040;"/>
          </a>
         </g>
        </svg>
</svg>
