<?xml version="1.0" encoding="UTF-8" standalone="no"?>
<!DOCTYPE svg PUBLIC "-//W3C//DTD SVG 1.1//EN"
 "http://www.w3.org/Graphics/SVG/1.1/DTD/svg11.dtd">
<!-- Generated by graphviz version 2.38.0 (20140413.2041)
 -->
<!-- Title: pugi::xml_document::load_string Pages: 1 -->
<svg width="1279pt" height="360pt"
 viewBox="0.00 0.00 1279.00 360.00" xmlns="http://www.w3.org/2000/svg" xmlns:xlink="http://www.w3.org/1999/xlink">
<g id="graph0" class="graph" transform="scale(1 1) rotate(0) translate(4 356)">
<title>pugi::xml_document::load_string</title>
<polygon fill="white" stroke="none" points="-4,4 -4,-356 1275,-356 1275,4 -4,4"/>
<!-- Node1 -->
<g id="node1" class="node"><title>Node1</title>
<polygon fill="#bfbfbf" stroke="black" points="0,-85.5 0,-115.5 114,-115.5 114,-85.5 0,-85.5"/>
<text text-anchor="start" x="8" y="-103.5" font-family="Helvetica,sans-Serif" font-size="10.00">pugi::xml_document</text>
<text text-anchor="middle" x="57" y="-92.5" font-family="Helvetica,sans-Serif" font-size="10.00">::load_string</text>
</g>
<!-- Node2 -->
<g id="node2" class="node"><title>Node2</title>
<g id="a_node2"><a xlink:href="../../de/d5a/classcarla_1_1opendrive_1_1OpenDriveParser.html#a599fd6174f30aaee59590c16503afd8a" target="_top" xlink:title="carla::opendrive::OpenDrive\lParser::Load">
<polygon fill="white" stroke="black" points="150,-110.5 150,-140.5 299,-140.5 299,-110.5 150,-110.5"/>
<text text-anchor="start" x="158" y="-128.5" font-family="Helvetica,sans-Serif" font-size="10.00">carla::opendrive::OpenDrive</text>
<text text-anchor="middle" x="224.5" y="-117.5" font-family="Helvetica,sans-Serif" font-size="10.00">Parser::Load</text>
</a>
</g>
</g>
<!-- Node1&#45;&gt;Node2 -->
<g id="edge1" class="edge"><title>Node1&#45;&gt;Node2</title>
<path fill="none" stroke="midnightblue" d="M123.924,-110.458C132.469,-111.749 141.264,-113.078 149.923,-114.386"/>
<polygon fill="midnightblue" stroke="midnightblue" points="124.441,-106.997 114.031,-108.964 123.396,-113.918 124.441,-106.997"/>
</g>
<!-- Node22 -->
<g id="node22" class="node"><title>Node22</title>
<g id="a_node22"><a xlink:href="../../d8/d8d/classpugi_1_1xml__document.html#ae17a77772fa21a40f3d91d9c79e60d0b" target="_top" xlink:title="pugi::xml_document\l::load">
<polygon fill="white" stroke="black" points="167.5,-61.5 167.5,-91.5 281.5,-91.5 281.5,-61.5 167.5,-61.5"/>
<text text-anchor="start" x="175.5" y="-79.5" font-family="Helvetica,sans-Serif" font-size="10.00">pugi::xml_document</text>
<text text-anchor="middle" x="224.5" y="-68.5" font-family="Helvetica,sans-Serif" font-size="10.00">::load</text>
</a>
</g>
</g>
<!-- Node1&#45;&gt;Node22 -->
<g id="edge26" class="edge"><title>Node1&#45;&gt;Node22</title>
<path fill="none" stroke="midnightblue" d="M124.257,-90.8917C138.501,-88.8261 153.424,-86.662 167.246,-84.6577"/>
<polygon fill="midnightblue" stroke="midnightblue" points="123.425,-87.4757 114.031,-92.3747 124.43,-94.4032 123.425,-87.4757"/>
</g>
<!-- Node3 -->
<g id="node3" class="node"><title>Node3</title>
<g id="a_node3"><a xlink:href="../../d0/d2d/classAOpenDriveActor.html#ac8678af2b371c3a3faca8775ab1e4816" target="_top" xlink:title="AOpenDriveActor::BuildRoutes">
<polygon fill="white" stroke="black" points="347,-245 347,-264 508,-264 508,-245 347,-245"/>
<text text-anchor="middle" x="427.5" y="-252" font-family="Helvetica,sans-Serif" font-size="10.00">AOpenDriveActor::BuildRoutes</text>
</a>
</g>
</g>
<!-- Node2&#45;&gt;Node3 -->
<g id="edge2" class="edge"><title>Node2&#45;&gt;Node3</title>
<path fill="none" stroke="midnightblue" d="M242.179,-149.067C261.512,-174.52 295.785,-214.27 335,-235.5 342.134,-239.362 349.971,-242.44 357.966,-244.894"/>
<polygon fill="midnightblue" stroke="midnightblue" points="244.75,-146.658 235.98,-140.713 239.129,-150.83 244.75,-146.658"/>
</g>
<!-- Node4 -->
<g id="node4" class="node"><title>Node4</title>
<g id="a_node4"><a xlink:href="../../df/da5/classATrafficLightManager.html#a94926005e8cd881102dec94e331b70b4" target="_top" xlink:title="ATrafficLightManager\l::GetMap">
<polygon fill="white" stroke="black" points="370,-195.5 370,-225.5 485,-225.5 485,-195.5 370,-195.5"/>
<text text-anchor="start" x="378" y="-213.5" font-family="Helvetica,sans-Serif" font-size="10.00">ATrafficLightManager</text>
<text text-anchor="middle" x="427.5" y="-202.5" font-family="Helvetica,sans-Serif" font-size="10.00">::GetMap</text>
</a>
</g>
</g>
<!-- Node2&#45;&gt;Node4 -->
<g id="edge3" class="edge"><title>Node2&#45;&gt;Node4</title>
<path fill="none" stroke="midnightblue" d="M270.341,-144.463C306.637,-159.812 357.079,-181.143 390.706,-195.363"/>
<polygon fill="midnightblue" stroke="midnightblue" points="271.546,-141.172 260.972,-140.501 268.819,-147.619 271.546,-141.172"/>
</g>
<!-- Node13 -->
<g id="node13" class="node"><title>Node13</title>
<g id="a_node13"><a xlink:href="../../d8/dfe/classUOpenDriveMap.html#a0ce422ee1f79211e6957bab1d2048348" target="_top" xlink:title="Load this map with an OpenDrive (XODR) file. ">
<polygon fill="white" stroke="black" points="365.5,-138 365.5,-157 489.5,-157 489.5,-138 365.5,-138"/>
<text text-anchor="middle" x="427.5" y="-145" font-family="Helvetica,sans-Serif" font-size="10.00">UOpenDriveMap::Load</text>
</a>
</g>
</g>
<!-- Node2&#45;&gt;Node13 -->
<g id="edge17" class="edge"><title>Node2&#45;&gt;Node13</title>
<path fill="none" stroke="midnightblue" d="M309.247,-134.666C328.05,-136.724 347.657,-138.87 365.336,-140.805"/>
<polygon fill="midnightblue" stroke="midnightblue" points="309.525,-131.176 299.204,-133.567 308.763,-138.134 309.525,-131.176"/>
</g>
<!-- Node16 -->
<g id="node16" class="node"><title>Node16</title>
<g id="a_node16"><a xlink:href="../../dc/d84/classUCarlaEpisode.html#a1363935f77c8d3a4a0cdac29bbab3d96" target="_top" xlink:title="Load a new map generating the mesh from OpenDRIVE data and start a new episode. ">
<polygon fill="white" stroke="black" points="335,-88.5 335,-118.5 520,-118.5 520,-88.5 335,-88.5"/>
<text text-anchor="start" x="343" y="-106.5" font-family="Helvetica,sans-Serif" font-size="10.00">UCarlaEpisode::LoadNewOpendrive</text>
<text text-anchor="middle" x="427.5" y="-95.5" font-family="Helvetica,sans-Serif" font-size="10.00">Episode</text>
</a>
</g>
</g>
<!-- Node2&#45;&gt;Node16 -->
<g id="edge20" class="edge"><title>Node2&#45;&gt;Node16</title>
<path fill="none" stroke="midnightblue" d="M309.322,-116.325C317.696,-115.409 326.228,-114.475 334.678,-113.55"/>
<polygon fill="midnightblue" stroke="midnightblue" points="308.763,-112.866 299.204,-117.433 309.525,-119.824 308.763,-112.866"/>
</g>
<!-- Node19 -->
<g id="node19" class="node"><title>Node19</title>
<g id="a_node19"><a xlink:href="../../d2/daf/namespacecarla_1_1client.html#a228b83c6429f8e3406a93a1b41eb1565" target="_top" xlink:title="carla::client::MakeMap">
<polygon fill="white" stroke="black" points="366,-50 366,-69 489,-69 489,-50 366,-50"/>
<text text-anchor="middle" x="427.5" y="-57" font-family="Helvetica,sans-Serif" font-size="10.00">carla::client::MakeMap</text>
</a>
</g>
</g>
<!-- Node2&#45;&gt;Node19 -->
<g id="edge23" class="edge"><title>Node2&#45;&gt;Node19</title>
<path fill="none" stroke="midnightblue" d="M284.38,-106.777C289.381,-104.795 294.314,-102.696 299,-100.5 315.979,-92.5436 317.563,-85.3967 335,-78.5 344.656,-74.6809 355.202,-71.5839 365.591,-69.0865"/>
<polygon fill="midnightblue" stroke="midnightblue" points="282.834,-103.621 274.726,-110.441 285.317,-110.165 282.834,-103.621"/>
</g>
<!-- Node20 -->
<g id="node20" class="node"><title>Node20</title>
<g id="a_node20"><a xlink:href="../../db/de5/classACarlaGameModeBase.html#a1af30553066dc3940a5b4f7eb900b8bf" target="_top" xlink:title="ACarlaGameModeBase\l::ParseOpenDrive">
<polygon fill="white" stroke="black" points="363.5,-0.5 363.5,-30.5 491.5,-30.5 491.5,-0.5 363.5,-0.5"/>
<text text-anchor="start" x="371.5" y="-18.5" font-family="Helvetica,sans-Serif" font-size="10.00">ACarlaGameModeBase</text>
<text text-anchor="middle" x="427.5" y="-7.5" font-family="Helvetica,sans-Serif" font-size="10.00">::ParseOpenDrive</text>
</a>
</g>
</g>
<!-- Node2&#45;&gt;Node20 -->
<g id="edge24" class="edge"><title>Node2&#45;&gt;Node20</title>
<path fill="none" stroke="midnightblue" d="M291.834,-105.595C294.337,-104.021 296.739,-102.325 299,-100.5 323.199,-80.9669 310.216,-59.2843 335,-40.5 343.399,-34.134 353.318,-29.3884 363.471,-25.8511"/>
<polygon fill="midnightblue" stroke="midnightblue" points="290.045,-102.585 282.994,-110.493 293.438,-108.708 290.045,-102.585"/>
</g>
<!-- Node5 -->
<g id="node5" class="node"><title>Node5</title>
<g id="a_node5"><a xlink:href="../../df/da5/classATrafficLightManager.html#a53b3ceb17c3c9204924836331a440a0e" target="_top" xlink:title="ATrafficLightManager\l::GenerateTriggerBox">
<polygon fill="white" stroke="black" points="584.5,-195.5 584.5,-225.5 701.5,-225.5 701.5,-195.5 584.5,-195.5"/>
<text text-anchor="start" x="592.5" y="-213.5" font-family="Helvetica,sans-Serif" font-size="10.00">ATrafficLightManager</text>
<text text-anchor="middle" x="643" y="-202.5" font-family="Helvetica,sans-Serif" font-size="10.00">::GenerateTriggerBox</text>
</a>
</g>
</g>
<!-- Node4&#45;&gt;Node5 -->
<g id="edge4" class="edge"><title>Node4&#45;&gt;Node5</title>
<path fill="none" stroke="midnightblue" d="M495.443,-210.5C523.966,-210.5 556.915,-210.5 584.338,-210.5"/>
<polygon fill="midnightblue" stroke="midnightblue" points="495.154,-207 485.154,-210.5 495.154,-214 495.154,-207"/>
</g>
<!-- Node6 -->
<g id="node6" class="node"><title>Node6</title>
<g id="a_node6"><a xlink:href="../../df/da5/classATrafficLightManager.html#a5ad94ae5130a66011869bab507aafa52" target="_top" xlink:title="ATrafficLightManager\l::GenerateTriggerBoxesForTraffic\lLights">
<polygon fill="white" stroke="black" points="766,-174 766,-215 936,-215 936,-174 766,-174"/>
<text text-anchor="start" x="774" y="-203" font-family="Helvetica,sans-Serif" font-size="10.00">ATrafficLightManager</text>
<text text-anchor="start" x="774" y="-192" font-family="Helvetica,sans-Serif" font-size="10.00">::GenerateTriggerBoxesForTraffic</text>
<text text-anchor="middle" x="851" y="-181" font-family="Helvetica,sans-Serif" font-size="10.00">Lights</text>
</a>
</g>
</g>
<!-- Node4&#45;&gt;Node6 -->
<g id="edge8" class="edge"><title>Node4&#45;&gt;Node6</title>
<path fill="none" stroke="midnightblue" d="M495.291,-195.508C514.76,-191.796 536.138,-188.353 556,-186.5 632.999,-179.316 652.709,-183.927 730,-186.5 741.582,-186.886 753.782,-187.48 765.788,-188.175"/>
<polygon fill="midnightblue" stroke="midnightblue" points="494.442,-192.107 485.302,-197.466 495.788,-198.977 494.442,-192.107"/>
</g>
<!-- Node9 -->
<g id="node9" class="node"><title>Node9</title>
<g id="a_node9"><a xlink:href="../../df/da5/classATrafficLightManager.html#a45e03eb4b0d473a7e25ab1825078ee17" target="_top" xlink:title="ATrafficLightManager\l::RegisterLightComponent">
<polygon fill="white" stroke="black" points="573,-321.5 573,-351.5 713,-351.5 713,-321.5 573,-321.5"/>
<text text-anchor="start" x="581" y="-339.5" font-family="Helvetica,sans-Serif" font-size="10.00">ATrafficLightManager</text>
<text text-anchor="middle" x="643" y="-328.5" font-family="Helvetica,sans-Serif" font-size="10.00">::RegisterLightComponent</text>
</a>
</g>
</g>
<!-- Node4&#45;&gt;Node9 -->
<g id="edge9" class="edge"><title>Node4&#45;&gt;Node9</title>
<path fill="none" stroke="midnightblue" d="M494.806,-221.418C503.886,-224.897 512.612,-229.475 520,-235.5 547.419,-257.86 529.368,-283.209 556,-306.5 563.023,-312.642 571.376,-317.546 580.075,-321.457"/>
<polygon fill="midnightblue" stroke="midnightblue" points="495.85,-218.077 485.256,-218.178 493.601,-224.706 495.85,-218.077"/>
</g>
<!-- Node11 -->
<g id="node11" class="node"><title>Node11</title>
<g id="a_node11"><a xlink:href="../../df/da5/classATrafficLightManager.html#a86d8da5023cf7523924fa33e0feb2e0f" target="_top" xlink:title="ATrafficLightManager\l::SpawnTrafficLights">
<polygon fill="white" stroke="black" points="793.5,-282.5 793.5,-312.5 908.5,-312.5 908.5,-282.5 793.5,-282.5"/>
<text text-anchor="start" x="801.5" y="-300.5" font-family="Helvetica,sans-Serif" font-size="10.00">ATrafficLightManager</text>
<text text-anchor="middle" x="851" y="-289.5" font-family="Helvetica,sans-Serif" font-size="10.00">::SpawnTrafficLights</text>
</a>
</g>
</g>
<!-- Node4&#45;&gt;Node11 -->
<g id="edge16" class="edge"><title>Node4&#45;&gt;Node11</title>
<path fill="none" stroke="midnightblue" d="M494.882,-226.785C503.429,-229.42 511.988,-232.335 520,-235.5 536.827,-242.146 538.801,-248.888 556,-254.5 635.935,-280.584 733.268,-290.885 793.438,-294.926"/>
<polygon fill="midnightblue" stroke="midnightblue" points="495.85,-223.421 485.267,-223.929 493.857,-230.131 495.85,-223.421"/>
</g>
<!-- Node12 -->
<g id="node12" class="node"><title>Node12</title>
<g id="a_node12"><a xlink:href="../../df/da5/classATrafficLightManager.html#a1ed532138f13a06c64aaa7b513114832" target="_top" xlink:title="ATrafficLightManager\l::SpawnSignals">
<polygon fill="white" stroke="black" points="793.5,-233.5 793.5,-263.5 908.5,-263.5 908.5,-233.5 793.5,-233.5"/>
<text text-anchor="start" x="801.5" y="-251.5" font-family="Helvetica,sans-Serif" font-size="10.00">ATrafficLightManager</text>
<text text-anchor="middle" x="851" y="-240.5" font-family="Helvetica,sans-Serif" font-size="10.00">::SpawnSignals</text>
</a>
</g>
</g>
<!-- Node4&#45;&gt;Node12 -->
<g id="edge14" class="edge"><title>Node4&#45;&gt;Node12</title>
<path fill="none" stroke="midnightblue" d="M495.043,-225.497C514.588,-229.372 536.069,-233.119 556,-235.5 638.184,-245.318 734.087,-247.916 793.435,-248.5"/>
<polygon fill="midnightblue" stroke="midnightblue" points="495.513,-222.022 485.017,-223.466 494.123,-228.882 495.513,-222.022"/>
</g>
<!-- Node5&#45;&gt;Node6 -->
<g id="edge5" class="edge"><title>Node5&#45;&gt;Node6</title>
<path fill="none" stroke="midnightblue" d="M711.65,-205.246C728.949,-203.902 747.763,-202.441 765.783,-201.041"/>
<polygon fill="midnightblue" stroke="midnightblue" points="711.355,-201.758 701.656,-206.022 711.897,-208.737 711.355,-201.758"/>
</g>
<!-- Node7 -->
<g id="node7" class="node"><title>Node7</title>
<g id="a_node7"><a xlink:href="../../df/da5/classATrafficLightManager.html#ae473e1bb0e60e5c2db5684efc72a1e89" target="_top" xlink:title="ATrafficLightManager\l::GenerateSignalsAndTraffic\lLights">
<polygon fill="white" stroke="black" points="972,-238 972,-279 1120,-279 1120,-238 972,-238"/>
<text text-anchor="start" x="980" y="-267" font-family="Helvetica,sans-Serif" font-size="10.00">ATrafficLightManager</text>
<text text-anchor="start" x="980" y="-256" font-family="Helvetica,sans-Serif" font-size="10.00">::GenerateSignalsAndTraffic</text>
<text text-anchor="middle" x="1046" y="-245" font-family="Helvetica,sans-Serif" font-size="10.00">Lights</text>
</a>
</g>
</g>
<!-- Node6&#45;&gt;Node7 -->
<g id="edge6" class="edge"><title>Node6&#45;&gt;Node7</title>
<path fill="none" stroke="midnightblue" d="M923.363,-218.165C942.992,-224.674 964.113,-231.677 983.156,-237.992"/>
<polygon fill="midnightblue" stroke="midnightblue" points="924.456,-214.84 913.863,-215.014 922.253,-221.484 924.456,-214.84"/>
</g>
<!-- Node8 -->
<g id="node8" class="node"><title>Node8</title>
<g id="a_node8"><a xlink:href="../../df/da5/classATrafficLightManager.html#a36642e119565d7c4263fc48dbe149d5a" target="_top" xlink:title="ATrafficLightManager\l::BeginPlay">
<polygon fill="white" stroke="black" points="1156,-279.5 1156,-309.5 1271,-309.5 1271,-279.5 1156,-279.5"/>
<text text-anchor="start" x="1164" y="-297.5" font-family="Helvetica,sans-Serif" font-size="10.00">ATrafficLightManager</text>
<text text-anchor="middle" x="1213.5" y="-286.5" font-family="Helvetica,sans-Serif" font-size="10.00">::BeginPlay</text>
</a>
</g>
</g>
<!-- Node7&#45;&gt;Node8 -->
<g id="edge7" class="edge"><title>Node7&#45;&gt;Node8</title>
<path fill="none" stroke="midnightblue" d="M1129.92,-276.536C1138.65,-278.436 1147.38,-280.336 1155.73,-282.15"/>
<polygon fill="midnightblue" stroke="midnightblue" points="1130.59,-273.1 1120.07,-274.395 1129.1,-279.941 1130.59,-273.1"/>
</g>
<!-- Node10 -->
<g id="node10" class="node"><title>Node10</title>
<g id="a_node10"><a xlink:href="../../df/da5/classATrafficLightManager.html#a10e0e7b8640c0665fa1cef32939c0437" target="_top" xlink:title="ATrafficLightManager\l::ResetTrafficLightObjects">
<polygon fill="white" stroke="black" points="978.5,-316.5 978.5,-346.5 1113.5,-346.5 1113.5,-316.5 978.5,-316.5"/>
<text text-anchor="start" x="986.5" y="-334.5" font-family="Helvetica,sans-Serif" font-size="10.00">ATrafficLightManager</text>
<text text-anchor="middle" x="1046" y="-323.5" font-family="Helvetica,sans-Serif" font-size="10.00">::ResetTrafficLightObjects</text>
</a>
</g>
</g>
<!-- Node9&#45;&gt;Node10 -->
<g id="edge10" class="edge"><title>Node9&#45;&gt;Node10</title>
<path fill="none" stroke="midnightblue" d="M723.673,-335.507C798.266,-334.576 908.444,-333.203 978.456,-332.33"/>
<polygon fill="midnightblue" stroke="midnightblue" points="723.347,-332.01 713.391,-335.635 723.434,-339.01 723.347,-332.01"/>
</g>
<!-- Node9&#45;&gt;Node11 -->
<g id="edge12" class="edge"><title>Node9&#45;&gt;Node11</title>
<path fill="none" stroke="midnightblue" d="M723.08,-321.529C746.492,-317.096 771.65,-312.333 793.342,-308.226"/>
<polygon fill="midnightblue" stroke="midnightblue" points="722.342,-318.106 713.168,-323.405 723.645,-324.984 722.342,-318.106"/>
</g>
<!-- Node10&#45;&gt;Node8 -->
<g id="edge11" class="edge"><title>Node10&#45;&gt;Node8</title>
<path fill="none" stroke="midnightblue" d="M1123.7,-314.353C1134.5,-311.939 1145.44,-309.493 1155.77,-307.183"/>
<polygon fill="midnightblue" stroke="midnightblue" points="1122.83,-310.96 1113.84,-316.557 1124.36,-317.791 1122.83,-310.96"/>
</g>
<!-- Node11&#45;&gt;Node7 -->
<g id="edge13" class="edge"><title>Node11&#45;&gt;Node7</title>
<path fill="none" stroke="midnightblue" d="M918.548,-284.053C935.748,-280.577 954.357,-276.817 971.873,-273.277"/>
<polygon fill="midnightblue" stroke="midnightblue" points="917.711,-280.651 908.602,-286.062 919.097,-287.512 917.711,-280.651"/>
</g>
<!-- Node12&#45;&gt;Node7 -->
<g id="edge15" class="edge"><title>Node12&#45;&gt;Node7</title>
<path fill="none" stroke="midnightblue" d="M919.03,-251.973C936.095,-252.857 954.52,-253.812 971.873,-254.711"/>
<polygon fill="midnightblue" stroke="midnightblue" points="918.77,-248.455 908.602,-251.433 918.408,-255.446 918.77,-248.455"/>
</g>
<!-- Node14 -->
<g id="node14" class="node"><title>Node14</title>
<g id="a_node14"><a xlink:href="../../d1/d1b/classUOpenDrive.html#ac05b8dc3f340e373582945f9215081d9" target="_top" xlink:title="Load OpenDriveMap associated to the given MapName. ">
<polygon fill="white" stroke="black" points="556,-119 556,-138 730,-138 730,-119 556,-119"/>
<text text-anchor="middle" x="643" y="-126" font-family="Helvetica,sans-Serif" font-size="10.00">UOpenDrive::LoadOpenDriveMap</text>
</a>
</g>
</g>
<!-- Node13&#45;&gt;Node14 -->
<g id="edge18" class="edge"><title>Node13&#45;&gt;Node14</title>
<path fill="none" stroke="midnightblue" d="M499.765,-141.158C517.709,-139.561 537.163,-137.83 555.754,-136.175"/>
<polygon fill="midnightblue" stroke="midnightblue" points="499.331,-137.683 489.681,-142.055 499.951,-144.655 499.331,-137.683"/>
</g>
<!-- Node15 -->
<g id="node15" class="node"><title>Node15</title>
<g id="a_node15"><a xlink:href="../../d1/d1b/classUOpenDrive.html#a4486c7ee9d4a8bf6cd2a7ca5ad7e4ece" target="_top" xlink:title="Load OpenDriveMap associated to the currently loaded map. ">
<polygon fill="white" stroke="black" points="768.5,-115.5 768.5,-145.5 933.5,-145.5 933.5,-115.5 768.5,-115.5"/>
<text text-anchor="start" x="776.5" y="-133.5" font-family="Helvetica,sans-Serif" font-size="10.00">UOpenDrive::LoadCurrentOpen</text>
<text text-anchor="middle" x="851" y="-122.5" font-family="Helvetica,sans-Serif" font-size="10.00">DriveMap</text>
</a>
</g>
</g>
<!-- Node14&#45;&gt;Node15 -->
<g id="edge19" class="edge"><title>Node14&#45;&gt;Node15</title>
<path fill="none" stroke="midnightblue" d="M740.332,-129.435C749.738,-129.527 759.219,-129.619 768.459,-129.708"/>
<polygon fill="midnightblue" stroke="midnightblue" points="740.202,-125.934 730.169,-129.337 740.134,-132.934 740.202,-125.934"/>
</g>
<!-- Node17 -->
<g id="node17" class="node"><title>Node17</title>
<g id="a_node17"><a xlink:href="../../d7/d97/classFCarlaServer_1_1FPimpl.html#a675a6b572112a21e8bc011dddfd0de86" target="_top" xlink:title="FCarlaServer::FPimpl\l::BindActions">
<polygon fill="white" stroke="black" points="585,-67.5 585,-97.5 701,-97.5 701,-67.5 585,-67.5"/>
<text text-anchor="start" x="593" y="-85.5" font-family="Helvetica,sans-Serif" font-size="10.00">FCarlaServer::FPimpl</text>
<text text-anchor="middle" x="643" y="-74.5" font-family="Helvetica,sans-Serif" font-size="10.00">::BindActions</text>
</a>
</g>
</g>
<!-- Node16&#45;&gt;Node17 -->
<g id="edge21" class="edge"><title>Node16&#45;&gt;Node17</title>
<path fill="none" stroke="midnightblue" d="M530.349,-93.482C549.082,-91.6395 568.016,-89.7771 584.839,-88.1224"/>
<polygon fill="midnightblue" stroke="midnightblue" points="529.892,-90.0101 520.282,-94.4722 530.577,-96.9765 529.892,-90.0101"/>
</g>
<!-- Node18 -->
<g id="node18" class="node"><title>Node18</title>
<g id="a_node18"><a xlink:href="../../d7/d97/classFCarlaServer_1_1FPimpl.html#a5521999cb8b42460143ad4b1cd869398" target="_top" xlink:title="FCarlaServer::FPimpl\l::FPimpl">
<polygon fill="white" stroke="black" points="793,-66.5 793,-96.5 909,-96.5 909,-66.5 793,-66.5"/>
<text text-anchor="start" x="801" y="-84.5" font-family="Helvetica,sans-Serif" font-size="10.00">FCarlaServer::FPimpl</text>
<text text-anchor="middle" x="851" y="-73.5" font-family="Helvetica,sans-Serif" font-size="10.00">::FPimpl</text>
</a>
</g>
</g>
<!-- Node17&#45;&gt;Node18 -->
<g id="edge22" class="edge"><title>Node17&#45;&gt;Node18</title>
<path fill="none" stroke="midnightblue" d="M711.381,-82.1729C737.691,-82.0452 767.538,-81.9003 792.78,-81.7778"/>
<polygon fill="midnightblue" stroke="midnightblue" points="711.092,-78.6742 701.109,-82.2228 711.126,-85.6741 711.092,-78.6742"/>
</g>
<!-- Node21 -->
<g id="node21" class="node"><title>Node21</title>
<g id="a_node21"><a xlink:href="../../db/de5/classACarlaGameModeBase.html#a5caddc59713354578997de90542ddd93" target="_top" xlink:title="ACarlaGameModeBase\l::InitGame">
<polygon fill="white" stroke="black" points="579,-0.5 579,-30.5 707,-30.5 707,-0.5 579,-0.5"/>
<text text-anchor="start" x="587" y="-18.5" font-family="Helvetica,sans-Serif" font-size="10.00">ACarlaGameModeBase</text>
<text text-anchor="middle" x="643" y="-7.5" font-family="Helvetica,sans-Serif" font-size="10.00">::InitGame</text>
</a>
</g>
</g>
<!-- Node20&#45;&gt;Node21 -->
<g id="edge25" class="edge"><title>Node20&#45;&gt;Node21</title>
<path fill="none" stroke="midnightblue" d="M501.885,-15.5C526.967,-15.5 554.78,-15.5 578.972,-15.5"/>
<polygon fill="midnightblue" stroke="midnightblue" points="501.691,-12.0001 491.69,-15.5 501.69,-19.0001 501.691,-12.0001"/>
</g>
</g>
</svg>
