<?xml version="1.0" encoding="UTF-8" standalone="no"?>
<!DOCTYPE svg PUBLIC "-//W3C//DTD SVG 1.1//EN"
 "http://www.w3.org/Graphics/SVG/1.1/DTD/svg11.dtd">
<!-- Generated by graphviz version 2.38.0 (20140413.2041)
 -->
<!-- Title: carla::sensor::data::RssResponse Pages: 1 -->
<!--zoomable 541 -->
<svg id="main" version="1.1" xmlns="http://www.w3.org/2000/svg" xmlns:xlink="http://www.w3.org/1999/xlink" xml:space="preserve" onload="init(evt)">
<style type="text/css"><![CDATA[
.edge:hover path { stroke: red; }
.edge:hover polygon { stroke: red; fill: red; }
]]></style>
<script type="text/javascript"><![CDATA[
var edges = document.getElementsByTagName('g');
if (edges && edges.length) {
  for (var i=0;i<edges.length;i++) {
    if (edges[i].id.substr(0,4)=='edge') {
      edges[i].setAttribute('class','edge');
    }
  }
}
]]></script>
        <defs>
                <circle id="rim" cx="0" cy="0" r="7"/>
                <circle id="rim2" cx="0" cy="0" r="3.5"/>
                <g id="zoomPlus">
                        <use xlink:href="#rim" fill="#404040">
                                <set attributeName="fill" to="#808080" begin="zoomplus.mouseover" end="zoomplus.mouseout"/>
                        </use>
                        <path d="M-4,0h8M0,-4v8" fill="none" stroke="white" stroke-width="1.5" pointer-events="none"/>
                </g>
                <g id="zoomMin">
                        <use xlink:href="#rim" fill="#404040">
                                <set attributeName="fill" to="#808080" begin="zoomminus.mouseover" end="zoomminus.mouseout"/>
                        </use>
                        <path d="M-4,0h8" fill="none" stroke="white" stroke-width="1.5" pointer-events="none"/>
                </g>
                <g id="dirArrow">
                        <path fill="none" stroke="white" stroke-width="1.5" d="M0,-3.0v7 M-2.5,-0.5L0,-3.0L2.5,-0.5"/>
                </g>
               <g id="resetDef">
                       <use xlink:href="#rim2" fill="#404040">
                               <set attributeName="fill" to="#808080" begin="reset.mouseover" end="reset.mouseout"/>
                       </use>
               </g>
        </defs>

<script type="text/javascript">
var viewWidth = 1577;
var viewHeight = 541;
var sectionId = 'dynsection-1';
</script>
<script xlink:href="../../svgpan.js"/>
<svg id="graph" class="graph">
<g id="viewport">
<title>carla::sensor::data::RssResponse</title>
<polygon fill="white" stroke="none" points="-4,4 -4,-537.256 1573,-537.256 1573,4 -4,4"/>
<!-- Node1 -->
<g id="node1" class="node"><title>Node1</title>
<polygon fill="#bfbfbf" stroke="black" points="1463,-198.756 1463,-228.756 1569,-228.756 1569,-198.756 1463,-198.756"/>
<text text-anchor="start" x="1471" y="-216.756" font-family="Helvetica,sans-Serif" font-size="10.00">carla::sensor::data</text>
<text text-anchor="middle" x="1516" y="-205.756" font-family="Helvetica,sans-Serif" font-size="10.00">::RssResponse</text>
</g>
<!-- Node2 -->
<g id="node2" class="node"><title>Node2</title>
<g id="a_node2"><a xlink:href="../../df/d8c/classcarla_1_1sensor_1_1SensorData.html" target="_top" xlink:title="Base class for all the objects containing data generated by a sensor. ">
<polygon fill="white" stroke="black" points="858,-411.256 858,-430.256 999,-430.256 999,-411.256 858,-411.256"/>
<text text-anchor="middle" x="928.5" y="-418.256" font-family="Helvetica,sans-Serif" font-size="10.00">carla::sensor::SensorData</text>
</a>
</g>
</g>
<!-- Node2&#45;&gt;Node1 -->
<g id="edge1" class="edge"><title>Node2&#45;&gt;Node1</title>
<path fill="none" stroke="midnightblue" d="M1009.11,-420.688C1085.7,-418.513 1203.86,-409.565 1301,-377.756 1370.99,-354.838 1388.24,-342.689 1445,-295.756 1469.23,-275.718 1491.81,-246.665 1504.46,-229.06"/>
<polygon fill="midnightblue" stroke="midnightblue" points="1008.96,-417.19 999.051,-420.941 1009.14,-424.188 1008.96,-417.19"/>
</g>
<!-- Node3 -->
<g id="node3" class="node"><title>Node3</title>
<g id="a_node3"><a xlink:href="../../da/d05/classEnableSharedFromThis.html" target="_top" xlink:title="EnableSharedFromThis\l\&lt; SensorData \&gt;">
<polygon fill="white" stroke="black" points="585.5,-414.756 585.5,-444.756 711.5,-444.756 711.5,-414.756 585.5,-414.756"/>
<text text-anchor="start" x="593.5" y="-432.756" font-family="Helvetica,sans-Serif" font-size="10.00">EnableSharedFromThis</text>
<text text-anchor="middle" x="648.5" y="-421.756" font-family="Helvetica,sans-Serif" font-size="10.00">&lt; SensorData &gt;</text>
</a>
</g>
</g>
<!-- Node3&#45;&gt;Node2 -->
<g id="edge2" class="edge"><title>Node3&#45;&gt;Node2</title>
<path fill="none" stroke="midnightblue" d="M721.694,-427.419C763.664,-426.061 816.294,-424.357 857.826,-423.012"/>
<polygon fill="midnightblue" stroke="midnightblue" points="721.424,-423.926 711.543,-427.748 721.651,-430.922 721.424,-423.926"/>
</g>
<!-- Node4 -->
<g id="node4" class="node"><title>Node4</title>
<g id="a_node4"><a xlink:href="../../d4/d8b/classcarla_1_1NonCopyable.html" target="_top" xlink:title="Inherit (privately) to suppress copy/move construction and assignment. ">
<polygon fill="white" stroke="black" points="593.5,-376.256 593.5,-395.256 703.5,-395.256 703.5,-376.256 593.5,-376.256"/>
<text text-anchor="middle" x="648.5" y="-383.256" font-family="Helvetica,sans-Serif" font-size="10.00">carla::NonCopyable</text>
</a>
</g>
</g>
<!-- Node4&#45;&gt;Node2 -->
<g id="edge3" class="edge"><title>Node4&#45;&gt;Node2</title>
<path fill="none" stroke="#8b1a1a" d="M713.849,-393.858C756.94,-399.283 813.64,-406.422 857.799,-411.981"/>
<polygon fill="#8b1a1a" stroke="#8b1a1a" points="714.12,-390.365 703.761,-392.588 713.246,-397.31 714.12,-390.365"/>
</g>
<!-- Node5 -->
<g id="node5" class="node"><title>Node5</title>
<polygon fill="white" stroke="#bfbfbf" points="624,-245.256 624,-264.256 673,-264.256 673,-245.256 624,-245.256"/>
<text text-anchor="middle" x="648.5" y="-252.256" font-family="Helvetica,sans-Serif" font-size="10.00">double</text>
</g>
<!-- Node5&#45;&gt;Node2 -->
<g id="edge4" class="edge"><title>Node5&#45;&gt;Node2</title>
<path fill="none" stroke="#9a32cd" stroke-dasharray="5,2" d="M682.774,-267.431C700.086,-273.946 721.626,-281.93 741,-288.756 784.744,-304.169 808.542,-287.676 840,-321.756 862.665,-346.311 835.783,-369.795 858,-394.756 864.509,-402.07 873.279,-407.333 882.394,-411.118"/>
<polygon fill="#9a32cd" stroke="#9a32cd" points="683.709,-264.043 673.118,-263.784 681.236,-270.591 683.709,-264.043"/>
<text text-anchor="middle" x="790.5" y="-324.756" font-family="Helvetica,sans-Serif" font-size="10.00"> _timestamp</text>
</g>
<!-- Node16 -->
<g id="node16" class="node"><title>Node16</title>
<g id="a_node16"><a xlink:href="../../d1/d1b/structcarla_1_1rss_1_1EgoDynamicsOnRoute.html" target="_top" xlink:title="struct defining the ego vehicles current dynamics in respect to the current route ...">
<polygon fill="white" stroke="black" points="1156,-223.756 1156,-253.756 1301,-253.756 1301,-223.756 1156,-223.756"/>
<text text-anchor="start" x="1164" y="-241.756" font-family="Helvetica,sans-Serif" font-size="10.00">carla::rss::EgoDynamicsOn</text>
<text text-anchor="middle" x="1228.5" y="-230.756" font-family="Helvetica,sans-Serif" font-size="10.00">Route</text>
</a>
</g>
</g>
<!-- Node5&#45;&gt;Node16 -->
<g id="edge17" class="edge"><title>Node5&#45;&gt;Node16</title>
<path fill="none" stroke="#9a32cd" stroke-dasharray="5,2" d="M683.142,-246.409C700.339,-242.49 721.667,-238.161 741,-235.756 887.472,-217.541 1060.67,-225.592 1155.85,-232.537"/>
<polygon fill="#9a32cd" stroke="#9a32cd" points="681.963,-243.09 673.022,-248.775 683.557,-249.906 681.963,-243.09"/>
<text text-anchor="start" x="867" y="-262.756" font-family="Helvetica,sans-Serif" font-size="10.00"> time_since_epoch_check</text>
<text text-anchor="middle" x="928.5" y="-251.756" font-family="Helvetica,sans-Serif" font-size="10.00">_start_ms</text>
<text text-anchor="start" x="867" y="-240.756" font-family="Helvetica,sans-Serif" font-size="10.00">time_since_epoch_check</text>
<text text-anchor="middle" x="928.5" y="-229.756" font-family="Helvetica,sans-Serif" font-size="10.00">_end_ms</text>
</g>
<!-- Node21 -->
<g id="node21" class="node"><title>Node21</title>
<g id="a_node21"><a xlink:href="../../df/d2c/classcarla_1_1client_1_1Timestamp.html" target="_top" xlink:title="carla::client::Timestamp">
<polygon fill="white" stroke="black" points="863,-322.256 863,-341.256 994,-341.256 994,-322.256 863,-322.256"/>
<text text-anchor="middle" x="928.5" y="-329.256" font-family="Helvetica,sans-Serif" font-size="10.00">carla::client::Timestamp</text>
</a>
</g>
</g>
<!-- Node5&#45;&gt;Node21 -->
<g id="edge24" class="edge"><title>Node5&#45;&gt;Node21</title>
<path fill="none" stroke="#9a32cd" stroke-dasharray="5,2" d="M682.83,-244.095C724.01,-233.149 794.224,-222.023 840,-255.756 861.387,-271.517 838.852,-294.341 858,-312.756 861.967,-316.572 866.623,-319.637 871.615,-322.097"/>
<polygon fill="#9a32cd" stroke="#9a32cd" points="681.702,-240.776 673.019,-246.847 683.592,-247.516 681.702,-240.776"/>
<text text-anchor="middle" x="790.5" y="-280.756" font-family="Helvetica,sans-Serif" font-size="10.00"> delta_seconds</text>
<text text-anchor="middle" x="790.5" y="-269.756" font-family="Helvetica,sans-Serif" font-size="10.00">elapsed_seconds</text>
<text text-anchor="middle" x="790.5" y="-258.756" font-family="Helvetica,sans-Serif" font-size="10.00">platform_timestamp</text>
</g>
<!-- Node6 -->
<g id="node6" class="node"><title>Node6</title>
<polygon fill="white" stroke="#bfbfbf" points="574,-502.756 574,-532.756 723,-532.756 723,-502.756 574,-502.756"/>
<text text-anchor="start" x="582" y="-520.756" font-family="Helvetica,sans-Serif" font-size="10.00">EpisodeProxyImpl&lt; Episode</text>
<text text-anchor="middle" x="648.5" y="-509.756" font-family="Helvetica,sans-Serif" font-size="10.00">ProxyPointerType::Weak &gt;</text>
</g>
<!-- Node6&#45;&gt;Node2 -->
<g id="edge5" class="edge"><title>Node6&#45;&gt;Node2</title>
<path fill="none" stroke="#9a32cd" stroke-dasharray="5,2" d="M732.975,-504.446C766.93,-497.511 806.081,-487.533 840,-473.756 868.303,-462.261 898.072,-442.288 914.562,-430.418"/>
<polygon fill="#9a32cd" stroke="#9a32cd" points="732.208,-501.03 723.082,-506.411 733.572,-507.896 732.208,-501.03"/>
<text text-anchor="middle" x="790.5" y="-505.756" font-family="Helvetica,sans-Serif" font-size="10.00"> _episode</text>
</g>
<!-- Node7 -->
<g id="node7" class="node"><title>Node7</title>
<polygon fill="white" stroke="#bfbfbf" points="626.5,-336.256 626.5,-355.256 670.5,-355.256 670.5,-336.256 626.5,-336.256"/>
<text text-anchor="middle" x="648.5" y="-343.256" font-family="Helvetica,sans-Serif" font-size="10.00">size_t</text>
</g>
<!-- Node7&#45;&gt;Node2 -->
<g id="edge6" class="edge"><title>Node7&#45;&gt;Node2</title>
<path fill="none" stroke="#9a32cd" stroke-dasharray="5,2" d="M680.843,-348.602C719.391,-352.864 786.313,-362.765 840,-383.756 848.732,-387.171 849.571,-390.651 858,-394.756 870.856,-401.018 885.629,-406.738 898.241,-411.209"/>
<polygon fill="#9a32cd" stroke="#9a32cd" points="681.067,-345.107 670.757,-347.545 680.337,-352.069 681.067,-345.107"/>
<text text-anchor="middle" x="790.5" y="-386.756" font-family="Helvetica,sans-Serif" font-size="10.00"> _frame</text>
</g>
<!-- Node7&#45;&gt;Node21 -->
<g id="edge25" class="edge"><title>Node7&#45;&gt;Node21</title>
<path fill="none" stroke="#9a32cd" stroke-dasharray="5,2" d="M680.941,-344.173C724.907,-341.959 805.766,-337.887 862.879,-335.011"/>
<polygon fill="#9a32cd" stroke="#9a32cd" points="680.664,-340.683 670.853,-344.681 681.016,-347.674 680.664,-340.683"/>
<text text-anchor="middle" x="790.5" y="-344.756" font-family="Helvetica,sans-Serif" font-size="10.00"> frame</text>
</g>
<!-- Node8 -->
<g id="node8" class="node"><title>Node8</title>
<g id="a_node8"><a xlink:href="../../de/da4/classcarla_1_1geom_1_1Transform.html" target="_top" xlink:title="carla::geom::Transform">
<polygon fill="white" stroke="black" points="585,-464.256 585,-483.256 712,-483.256 712,-464.256 585,-464.256"/>
<text text-anchor="middle" x="648.5" y="-471.256" font-family="Helvetica,sans-Serif" font-size="10.00">carla::geom::Transform</text>
</a>
</g>
</g>
<!-- Node8&#45;&gt;Node2 -->
<g id="edge7" class="edge"><title>Node8&#45;&gt;Node2</title>
<path fill="none" stroke="#9a32cd" stroke-dasharray="5,2" d="M716.341,-462.453C752.929,-456.109 799.03,-447.858 840,-439.756 854.64,-436.862 870.604,-433.466 884.841,-430.352"/>
<polygon fill="#9a32cd" stroke="#9a32cd" points="715.544,-459.039 706.286,-464.191 716.736,-465.937 715.544,-459.039"/>
<text text-anchor="middle" x="790.5" y="-461.756" font-family="Helvetica,sans-Serif" font-size="10.00"> _sensor_transform</text>
</g>
<!-- Node9 -->
<g id="node9" class="node"><title>Node9</title>
<g id="a_node9"><a xlink:href="../../d8/dba/classcarla_1_1geom_1_1Rotation.html" target="_top" xlink:title="carla::geom::Rotation">
<polygon fill="white" stroke="black" points="240,-483.256 240,-502.256 359,-502.256 359,-483.256 240,-483.256"/>
<text text-anchor="middle" x="299.5" y="-490.256" font-family="Helvetica,sans-Serif" font-size="10.00">carla::geom::Rotation</text>
</a>
</g>
</g>
<!-- Node9&#45;&gt;Node8 -->
<g id="edge8" class="edge"><title>Node9&#45;&gt;Node8</title>
<path fill="none" stroke="#9a32cd" stroke-dasharray="5,2" d="M369.566,-488.975C432.331,-485.538 524.135,-480.511 584.824,-477.188"/>
<polygon fill="#9a32cd" stroke="#9a32cd" points="369.157,-485.492 359.364,-489.533 369.54,-492.481 369.157,-485.492"/>
<text text-anchor="middle" x="437" y="-491.756" font-family="Helvetica,sans-Serif" font-size="10.00"> rotation</text>
</g>
<!-- Node10 -->
<g id="node10" class="node"><title>Node10</title>
<polygon fill="white" stroke="#bfbfbf" points="0,-456.256 0,-475.256 38,-475.256 38,-456.256 0,-456.256"/>
<text text-anchor="middle" x="19" y="-463.256" font-family="Helvetica,sans-Serif" font-size="10.00">float</text>
</g>
<!-- Node10&#45;&gt;Node9 -->
<g id="edge9" class="edge"><title>Node10&#45;&gt;Node9</title>
<path fill="none" stroke="#9a32cd" stroke-dasharray="5,2" d="M48.2187,-470.677C50.8453,-471.069 53.4698,-471.437 56,-471.756 118.468,-479.654 190.368,-485.473 239.56,-488.957"/>
<polygon fill="#9a32cd" stroke="#9a32cd" points="48.7,-467.209 38.2732,-469.088 47.5962,-474.122 48.7,-467.209"/>
<text text-anchor="middle" x="68" y="-499.756" font-family="Helvetica,sans-Serif" font-size="10.00"> yaw</text>
<text text-anchor="middle" x="68" y="-488.756" font-family="Helvetica,sans-Serif" font-size="10.00">pitch</text>
<text text-anchor="middle" x="68" y="-477.756" font-family="Helvetica,sans-Serif" font-size="10.00">roll</text>
</g>
<!-- Node12 -->
<g id="node12" class="node"><title>Node12</title>
<g id="a_node12"><a xlink:href="../../d9/dfe/classcarla_1_1geom_1_1Vector3D.html" target="_top" xlink:title="carla::geom::Vector3D">
<polygon fill="white" stroke="black" points="98,-428.256 98,-447.256 222,-447.256 222,-428.256 98,-428.256"/>
<text text-anchor="middle" x="160" y="-435.256" font-family="Helvetica,sans-Serif" font-size="10.00">carla::geom::Vector3D</text>
</a>
</g>
</g>
<!-- Node10&#45;&gt;Node12 -->
<g id="edge12" class="edge"><title>Node10&#45;&gt;Node12</title>
<path fill="none" stroke="#9a32cd" stroke-dasharray="5,2" d="M37.276,-449.347C42.8336,-445.069 49.2988,-441.026 56,-438.756 69.1265,-434.31 83.7451,-432.464 97.7493,-432.052"/>
<polygon fill="#9a32cd" stroke="#9a32cd" points="34.7476,-446.902 29.3863,-456.04 39.2761,-452.24 34.7476,-446.902"/>
<text text-anchor="middle" x="68" y="-463.756" font-family="Helvetica,sans-Serif" font-size="10.00"> x</text>
<text text-anchor="middle" x="68" y="-452.756" font-family="Helvetica,sans-Serif" font-size="10.00">y</text>
<text text-anchor="middle" x="68" y="-441.756" font-family="Helvetica,sans-Serif" font-size="10.00">z</text>
</g>
<!-- Node11 -->
<g id="node11" class="node"><title>Node11</title>
<g id="a_node11"><a xlink:href="../../de/d23/classcarla_1_1geom_1_1Location.html" target="_top" xlink:title="carla::geom::Location">
<polygon fill="white" stroke="black" points="377,-431.256 377,-450.256 497,-450.256 497,-431.256 377,-431.256"/>
<text text-anchor="middle" x="437" y="-438.256" font-family="Helvetica,sans-Serif" font-size="10.00">carla::geom::Location</text>
</a>
</g>
</g>
<!-- Node11&#45;&gt;Node8 -->
<g id="edge10" class="edge"><title>Node11&#45;&gt;Node8</title>
<path fill="none" stroke="#9a32cd" stroke-dasharray="5,2" d="M507.269,-451.668C533.044,-455.728 562.068,-460.299 586.996,-464.226"/>
<polygon fill="#9a32cd" stroke="#9a32cd" points="507.617,-448.179 497.194,-450.081 506.528,-455.094 507.617,-448.179"/>
<text text-anchor="middle" x="535.5" y="-462.756" font-family="Helvetica,sans-Serif" font-size="10.00"> location</text>
</g>
<!-- Node12&#45;&gt;Node11 -->
<g id="edge11" class="edge"><title>Node12&#45;&gt;Node11</title>
<path fill="none" stroke="midnightblue" d="M232.264,-438.534C277.069,-439.023 334.201,-439.646 376.557,-440.108"/>
<polygon fill="midnightblue" stroke="midnightblue" points="232.069,-435.032 222.031,-438.422 231.993,-442.031 232.069,-435.032"/>
</g>
<!-- Node13 -->
<g id="node13" class="node"><title>Node13</title>
<polygon fill="white" stroke="#bfbfbf" points="1176,-185.256 1176,-204.256 1281,-204.256 1281,-185.256 1176,-185.256"/>
<text text-anchor="middle" x="1228.5" y="-192.256" font-family="Helvetica,sans-Serif" font-size="10.00">RssStateSnapshot</text>
</g>
<!-- Node13&#45;&gt;Node1 -->
<g id="edge13" class="edge"><title>Node13&#45;&gt;Node1</title>
<path fill="none" stroke="#9a32cd" stroke-dasharray="5,2" d="M1291.1,-193.93C1334.29,-193.972 1393.32,-195.271 1445,-200.756 1450.78,-201.37 1456.79,-202.196 1462.76,-203.136"/>
<polygon fill="#9a32cd" stroke="#9a32cd" points="1291.02,-190.43 1281.03,-193.943 1291.03,-197.43 1291.02,-190.43"/>
<text text-anchor="middle" x="1382" y="-203.756" font-family="Helvetica,sans-Serif" font-size="10.00"> _rss_state_snapshot</text>
</g>
<!-- Node14 -->
<g id="node14" class="node"><title>Node14</title>
<polygon fill="white" stroke="#bfbfbf" points="1181.5,-147.256 1181.5,-166.256 1275.5,-166.256 1275.5,-147.256 1181.5,-147.256"/>
<text text-anchor="middle" x="1228.5" y="-154.256" font-family="Helvetica,sans-Serif" font-size="10.00">ProperResponse</text>
</g>
<!-- Node14&#45;&gt;Node1 -->
<g id="edge14" class="edge"><title>Node14&#45;&gt;Node1</title>
<path fill="none" stroke="#9a32cd" stroke-dasharray="5,2" d="M1286.01,-157.485C1330.09,-159.312 1392.43,-164.683 1445,-179.756 1460.32,-184.151 1476.39,-191.718 1489.27,-198.599"/>
<polygon fill="#9a32cd" stroke="#9a32cd" points="1285.9,-153.978 1275.78,-157.11 1285.65,-160.974 1285.9,-153.978"/>
<text text-anchor="middle" x="1382" y="-182.756" font-family="Helvetica,sans-Serif" font-size="10.00"> _response</text>
</g>
<!-- Node15 -->
<g id="node15" class="node"><title>Node15</title>
<polygon fill="white" stroke="#bfbfbf" points="910,-366.256 910,-385.256 947,-385.256 947,-366.256 910,-366.256"/>
<text text-anchor="middle" x="928.5" y="-373.256" font-family="Helvetica,sans-Serif" font-size="10.00">bool</text>
</g>
<!-- Node15&#45;&gt;Node1 -->
<g id="edge15" class="edge"><title>Node15&#45;&gt;Node1</title>
<path fill="none" stroke="#9a32cd" stroke-dasharray="5,2" d="M957.159,-377.641C997.438,-379.726 1074.37,-381.206 1138,-367.756 1275.65,-338.66 1427.11,-261.743 1487.73,-228.933"/>
<polygon fill="#9a32cd" stroke="#9a32cd" points="957.227,-374.139 947.044,-377.064 956.828,-381.128 957.227,-374.139"/>
<text text-anchor="middle" x="1228.5" y="-365.756" font-family="Helvetica,sans-Serif" font-size="10.00"> _response_valid</text>
</g>
<!-- Node15&#45;&gt;Node16 -->
<g id="edge21" class="edge"><title>Node15&#45;&gt;Node16</title>
<path fill="none" stroke="#9a32cd" stroke-dasharray="5,2" d="M956.423,-365.412C973.573,-359.102 996.368,-351.225 1017,-345.756 1069.91,-331.733 1089.21,-347.586 1138,-322.756 1171.05,-305.938 1200.52,-273.176 1216.01,-253.914"/>
<polygon fill="#9a32cd" stroke="#9a32cd" points="955.181,-362.14 947.037,-368.917 957.629,-368.698 955.181,-362.14"/>
<text text-anchor="middle" x="1077.5" y="-359.756" font-family="Helvetica,sans-Serif" font-size="10.00"> ego_center_within_route</text>
<text text-anchor="middle" x="1077.5" y="-348.756" font-family="Helvetica,sans-Serif" font-size="10.00">crossing_border</text>
</g>
<!-- Node16&#45;&gt;Node1 -->
<g id="edge16" class="edge"><title>Node16&#45;&gt;Node1</title>
<path fill="none" stroke="#9a32cd" stroke-dasharray="5,2" d="M1311.38,-231.587C1360.06,-227.324 1420.36,-222.043 1462.67,-218.339"/>
<polygon fill="#9a32cd" stroke="#9a32cd" points="1310.83,-228.121 1301.18,-232.48 1311.44,-235.094 1310.83,-228.121"/>
<text text-anchor="middle" x="1382" y="-233.756" font-family="Helvetica,sans-Serif" font-size="10.00"> _ego_dynamics_on_route</text>
</g>
<!-- Node17 -->
<g id="node17" class="node"><title>Node17</title>
<polygon fill="white" stroke="#bfbfbf" points="897.5,-128.256 897.5,-147.256 959.5,-147.256 959.5,-128.256 897.5,-128.256"/>
<text text-anchor="middle" x="928.5" y="-135.256" font-family="Helvetica,sans-Serif" font-size="10.00">ENUPoint</text>
</g>
<!-- Node17&#45;&gt;Node16 -->
<g id="edge18" class="edge"><title>Node17&#45;&gt;Node16</title>
<path fill="none" stroke="#9a32cd" stroke-dasharray="5,2" d="M969.918,-134.05C1023.17,-130.065 1113.02,-126.733 1138,-146.756 1162.06,-166.042 1135.02,-191.163 1156,-213.756 1159.58,-217.611 1163.79,-220.871 1168.34,-223.629"/>
<polygon fill="#9a32cd" stroke="#9a32cd" points="969.479,-130.574 959.785,-134.849 970.03,-137.552 969.479,-130.574"/>
<text text-anchor="middle" x="1077.5" y="-160.756" font-family="Helvetica,sans-Serif" font-size="10.00"> route_nominal_center</text>
<text text-anchor="middle" x="1077.5" y="-149.756" font-family="Helvetica,sans-Serif" font-size="10.00">ego_center</text>
</g>
<!-- Node18 -->
<g id="node18" class="node"><title>Node18</title>
<polygon fill="white" stroke="#bfbfbf" points="905,-79.2565 905,-98.2565 952,-98.2565 952,-79.2565 905,-79.2565"/>
<text text-anchor="middle" x="928.5" y="-86.2565" font-family="Helvetica,sans-Serif" font-size="10.00">Speed</text>
</g>
<!-- Node18&#45;&gt;Node16 -->
<g id="edge19" class="edge"><title>Node18&#45;&gt;Node16</title>
<path fill="none" stroke="#9a32cd" stroke-dasharray="5,2" d="M962.334,-84.8232C1014.46,-79.3577 1112.83,-72.4657 1138,-94.7565 1178.05,-130.217 1121.86,-172.58 1156,-213.756 1159.19,-217.603 1163.01,-220.859 1167.2,-223.614"/>
<polygon fill="#9a32cd" stroke="#9a32cd" points="961.82,-81.3584 952.258,-85.9225 962.579,-88.3171 961.82,-81.3584"/>
<text text-anchor="middle" x="1077.5" y="-119.756" font-family="Helvetica,sans-Serif" font-size="10.00"> route_speed_lat</text>
<text text-anchor="middle" x="1077.5" y="-108.756" font-family="Helvetica,sans-Serif" font-size="10.00">ego_speed</text>
<text text-anchor="middle" x="1077.5" y="-97.7565" font-family="Helvetica,sans-Serif" font-size="10.00">route_speed_lon</text>
</g>
<!-- Node19 -->
<g id="node19" class="node"><title>Node19</title>
<polygon fill="white" stroke="#bfbfbf" points="890.5,-12.2565 890.5,-31.2565 966.5,-31.2565 966.5,-12.2565 890.5,-12.2565"/>
<text text-anchor="middle" x="928.5" y="-19.2565" font-family="Helvetica,sans-Serif" font-size="10.00">Acceleration</text>
</g>
<!-- Node19&#45;&gt;Node16 -->
<g id="edge20" class="edge"><title>Node19&#45;&gt;Node16</title>
<path fill="none" stroke="#9a32cd" stroke-dasharray="5,2" d="M970.306,-9.74272C1017.3,1.32184 1093.71,10.3464 1138,-31.7565 1167.46,-59.7575 1130.87,-181.813 1156,-213.756 1159.01,-217.581 1162.64,-220.822 1166.65,-223.568"/>
<polygon fill="#9a32cd" stroke="#9a32cd" points="969.319,-6.38134 960.46,-12.1919 971.009,-13.1743 969.319,-6.38134"/>
<text text-anchor="middle" x="1077.5" y="-67.7565" font-family="Helvetica,sans-Serif" font-size="10.00"> avg_route_accel_lon</text>
<text text-anchor="middle" x="1077.5" y="-56.7565" font-family="Helvetica,sans-Serif" font-size="10.00">avg_route_accel_lat</text>
<text text-anchor="middle" x="1077.5" y="-45.7565" font-family="Helvetica,sans-Serif" font-size="10.00">route_accel_lon</text>
<text text-anchor="middle" x="1077.5" y="-34.7565" font-family="Helvetica,sans-Serif" font-size="10.00">route_accel_lat</text>
</g>
<!-- Node20 -->
<g id="node20" class="node"><title>Node20</title>
<polygon fill="white" stroke="#bfbfbf" points="890,-284.256 890,-303.256 967,-303.256 967,-284.256 890,-284.256"/>
<text text-anchor="middle" x="928.5" y="-291.256" font-family="Helvetica,sans-Serif" font-size="10.00">ENUHeading</text>
</g>
<!-- Node20&#45;&gt;Node16 -->
<g id="edge22" class="edge"><title>Node20&#45;&gt;Node16</title>
<path fill="none" stroke="#9a32cd" stroke-dasharray="5,2" d="M973.904,-280.869C982.451,-277.713 991.173,-274 999,-269.756 1007.91,-264.926 1007.55,-259.429 1017,-255.756 1060.91,-238.684 1113.78,-234.467 1155.54,-234.502"/>
<polygon fill="#9a32cd" stroke="#9a32cd" points="972.671,-277.592 964.385,-284.194 974.98,-284.2 972.671,-277.592"/>
<text text-anchor="middle" x="1077.5" y="-280.756" font-family="Helvetica,sans-Serif" font-size="10.00"> ego_heading</text>
<text text-anchor="middle" x="1077.5" y="-269.756" font-family="Helvetica,sans-Serif" font-size="10.00">route_heading</text>
<text text-anchor="middle" x="1077.5" y="-258.756" font-family="Helvetica,sans-Serif" font-size="10.00">heading_diff</text>
</g>
<!-- Node21&#45;&gt;Node16 -->
<g id="edge23" class="edge"><title>Node21&#45;&gt;Node16</title>
<path fill="none" stroke="#9a32cd" stroke-dasharray="5,2" d="M979.908,-319.901C992.036,-317.141 1004.96,-314.275 1017,-311.756 1070.58,-300.545 1086.55,-307.458 1138,-288.756 1162.26,-279.94 1187.75,-265.07 1205.29,-253.833"/>
<polygon fill="#9a32cd" stroke="#9a32cd" points="978.911,-316.539 969.945,-322.185 980.475,-323.362 978.911,-316.539"/>
<text text-anchor="middle" x="1077.5" y="-314.756" font-family="Helvetica,sans-Serif" font-size="10.00"> timestamp</text>
</g>
<!-- Node22 -->
<g id="node22" class="node"><title>Node22</title>
<polygon fill="white" stroke="#bfbfbf" points="899,-166.256 899,-185.256 958,-185.256 958,-166.256 899,-166.256"/>
<text text-anchor="middle" x="928.5" y="-173.256" font-family="Helvetica,sans-Serif" font-size="10.00">Distance</text>
</g>
<!-- Node22&#45;&gt;Node16 -->
<g id="edge26" class="edge"><title>Node22&#45;&gt;Node16</title>
<path fill="none" stroke="#9a32cd" stroke-dasharray="5,2" d="M968.458,-172.405C1011.86,-170.281 1083.13,-171.683 1138,-196.756 1148.01,-201.33 1146.6,-208.037 1156,-213.756 1162.18,-217.516 1169,-220.814 1175.91,-223.675"/>
<polygon fill="#9a32cd" stroke="#9a32cd" points="968.098,-168.92 958.316,-172.991 968.502,-175.908 968.098,-168.92"/>
<text text-anchor="middle" x="1077.5" y="-199.756" font-family="Helvetica,sans-Serif" font-size="10.00"> min_stopping_distance</text>
</g>
<!-- Node23 -->
<g id="node23" class="node"><title>Node23</title>
<polygon fill="white" stroke="#bfbfbf" points="1166,-109.256 1166,-128.256 1291,-128.256 1291,-109.256 1166,-109.256"/>
<text text-anchor="middle" x="1228.5" y="-116.256" font-family="Helvetica,sans-Serif" font-size="10.00">AccelerationRestriction</text>
</g>
<!-- Node23&#45;&gt;Node1 -->
<g id="edge27" class="edge"><title>Node23&#45;&gt;Node1</title>
<path fill="none" stroke="#9a32cd" stroke-dasharray="5,2" d="M1301.66,-115.968C1345.14,-117.016 1400.53,-123.322 1445,-144.756 1470.52,-157.056 1492.37,-182.417 1504.59,-198.729"/>
<polygon fill="#9a32cd" stroke="#9a32cd" points="1301.49,-112.466 1291.44,-115.813 1301.38,-119.465 1301.49,-112.466"/>
<text text-anchor="middle" x="1382" y="-147.756" font-family="Helvetica,sans-Serif" font-size="10.00"> _acceleration_restriction</text>
</g>
</g>
</svg>
        <g id="navigator" transform="translate(0 0)" fill="#404254">
                <rect fill="#f2f5e9" fill-opacity="0.5" stroke="#606060" stroke-width=".5" x="0" y="0" width="60" height="60"/>
                <use id="zoomplus" xlink:href="#zoomPlus" x="17" y="9" onmousedown="handleZoom(evt,'in')"/>
                <use id="zoomminus" xlink:href="#zoomMin" x="42" y="9" onmousedown="handleZoom(evt,'out')"/>
                <use id="reset" xlink:href="#resetDef" x="30" y="36" onmousedown="handleReset()"/>
                <g id="arrowUp" xlink:href="#dirArrow" transform="translate(30 24)" onmousedown="handlePan(0,-1)">
                  <use xlink:href="#rim" fill="#404040">
                        <set attributeName="fill" to="#808080" begin="arrowUp.mouseover" end="arrowUp.mouseout"/>
                  </use>
                  <path fill="none" stroke="white" stroke-width="1.5" d="M0,-3.0v7 M-2.5,-0.5L0,-3.0L2.5,-0.5"/>
                </g>
                <g id="arrowRight" xlink:href="#dirArrow" transform="rotate(90) translate(36 -43)" onmousedown="handlePan(1,0)">
                  <use xlink:href="#rim" fill="#404040">
                        <set attributeName="fill" to="#808080" begin="arrowRight.mouseover" end="arrowRight.mouseout"/>
                  </use>
                  <path fill="none" stroke="white" stroke-width="1.5" d="M0,-3.0v7 M-2.5,-0.5L0,-3.0L2.5,-0.5"/>
                </g>
                <g id="arrowDown" xlink:href="#dirArrow" transform="rotate(180) translate(-30 -48)" onmousedown="handlePan(0,1)">
                  <use xlink:href="#rim" fill="#404040">
                        <set attributeName="fill" to="#808080" begin="arrowDown.mouseover" end="arrowDown.mouseout"/>
                  </use>
                  <path fill="none" stroke="white" stroke-width="1.5" d="M0,-3.0v7 M-2.5,-0.5L0,-3.0L2.5,-0.5"/>
                </g>
                <g id="arrowLeft" xlink:href="#dirArrow" transform="rotate(270) translate(-36 17)" onmousedown="handlePan(-1,0)">
                  <use xlink:href="#rim" fill="#404040">
                        <set attributeName="fill" to="#808080" begin="arrowLeft.mouseover" end="arrowLeft.mouseout"/>
                  </use>
                  <path fill="none" stroke="white" stroke-width="1.5" d="M0,-3.0v7 M-2.5,-0.5L0,-3.0L2.5,-0.5"/>
                </g>
        </g>
        <svg viewBox="0 0 15 15" width="100%" height="30px" preserveAspectRatio="xMaxYMin meet">
         <g id="arrow_out" transform="scale(0.3 0.3)">
          <a xlink:href="classcarla_1_1sensor_1_1data_1_1RssResponse__coll__graph_org.svg" target="_base">
           <rect id="button" ry="5" rx="5" y="6" x="6" height="38" width="38"
                fill="#f2f5e9" fill-opacity="0.5" stroke="#606060" stroke-width="1.0"/>
           <path id="arrow"
             d="M 11.500037,31.436501 C 11.940474,20.09759 22.043105,11.32322 32.158766,21.979434 L 37.068811,17.246167 C 37.068811,17.246167 37.088388,32 37.088388,32 L 22.160133,31.978069 C 22.160133,31.978069 26.997745,27.140456 26.997745,27.140456 C 18.528582,18.264221 13.291696,25.230495 11.500037,31.436501 z"
             style="fill:#404040;"/>
          </a>
         </g>
        </svg>
</svg>
