<?xml version="1.0" encoding="UTF-8" standalone="no"?>
<!DOCTYPE svg PUBLIC "-//W3C//DTD SVG 1.1//EN"
 "http://www.w3.org/Graphics/SVG/1.1/DTD/svg11.dtd">
<!-- Generated by graphviz version 2.38.0 (20140413.2041)
 -->
<!-- Title: ActorFactory.h Pages: 1 -->
<!--zoomable 140 -->
<svg id="main" version="1.1" xmlns="http://www.w3.org/2000/svg" xmlns:xlink="http://www.w3.org/1999/xlink" xml:space="preserve" onload="init(evt)">
<style type="text/css"><![CDATA[
.edge:hover path { stroke: red; }
.edge:hover polygon { stroke: red; fill: red; }
]]></style>
<script type="text/javascript"><![CDATA[
var edges = document.getElementsByTagName('g');
if (edges && edges.length) {
  for (var i=0;i<edges.length;i++) {
    if (edges[i].id.substr(0,4)=='edge') {
      edges[i].setAttribute('class','edge');
    }
  }
}
]]></script>
        <defs>
                <circle id="rim" cx="0" cy="0" r="7"/>
                <circle id="rim2" cx="0" cy="0" r="3.5"/>
                <g id="zoomPlus">
                        <use xlink:href="#rim" fill="#404040">
                                <set attributeName="fill" to="#808080" begin="zoomplus.mouseover" end="zoomplus.mouseout"/>
                        </use>
                        <path d="M-4,0h8M0,-4v8" fill="none" stroke="white" stroke-width="1.5" pointer-events="none"/>
                </g>
                <g id="zoomMin">
                        <use xlink:href="#rim" fill="#404040">
                                <set attributeName="fill" to="#808080" begin="zoomminus.mouseover" end="zoomminus.mouseout"/>
                        </use>
                        <path d="M-4,0h8" fill="none" stroke="white" stroke-width="1.5" pointer-events="none"/>
                </g>
                <g id="dirArrow">
                        <path fill="none" stroke="white" stroke-width="1.5" d="M0,-3.0v7 M-2.5,-0.5L0,-3.0L2.5,-0.5"/>
                </g>
               <g id="resetDef">
                       <use xlink:href="#rim2" fill="#404040">
                               <set attributeName="fill" to="#808080" begin="reset.mouseover" end="reset.mouseout"/>
                       </use>
               </g>
        </defs>

<script type="text/javascript">
var viewWidth = 1460;
var viewHeight = 140;
var sectionId = 'dynsection-1';
</script>
<script xlink:href="../../svgpan.js"/>
<svg id="graph" class="graph">
<g id="viewport">
<title>ActorFactory.h</title>
<polygon fill="white" stroke="none" points="-4,4 -4,-136 1456,-136 1456,4 -4,4"/>
<!-- Node1 -->
<g id="node1" class="node"><title>Node1</title>
<polygon fill="#bfbfbf" stroke="black" points="681,-112.5 681,-131.5 762,-131.5 762,-112.5 681,-112.5"/>
<text text-anchor="middle" x="721.5" y="-119.5" font-family="Helvetica,sans-Serif" font-size="10.00">ActorFactory.h</text>
</g>
<!-- Node2 -->
<g id="node2" class="node"><title>Node2</title>
<g id="a_node2"><a xlink:href="../../d6/d4a/Simulator_8h.html" target="_top" xlink:title="Simulator.h">
<polygon fill="white" stroke="black" points="600.5,-56.5 600.5,-75.5 666.5,-75.5 666.5,-56.5 600.5,-56.5"/>
<text text-anchor="middle" x="633.5" y="-63.5" font-family="Helvetica,sans-Serif" font-size="10.00">Simulator.h</text>
</a>
</g>
</g>
<!-- Node1&#45;&gt;Node2 -->
<g id="edge1" class="edge"><title>Node1&#45;&gt;Node2</title>
<path fill="none" stroke="midnightblue" d="M698.523,-106.901C682.387,-96.9986 661.319,-84.0705 647.604,-75.6545"/>
<polygon fill="midnightblue" stroke="midnightblue" points="697.007,-110.077 707.361,-112.324 700.669,-104.111 697.007,-110.077"/>
</g>
<!-- Node7 -->
<g id="node7" class="node"><title>Node7</title>
<g id="a_node7"><a xlink:href="../../d2/d0c/Simulator_8cpp.html" target="_top" xlink:title="Simulator.cpp">
<polygon fill="white" stroke="black" points="0,-0.5 0,-19.5 77,-19.5 77,-0.5 0,-0.5"/>
<text text-anchor="middle" x="38.5" y="-7.5" font-family="Helvetica,sans-Serif" font-size="10.00">Simulator.cpp</text>
</a>
</g>
</g>
<!-- Node1&#45;&gt;Node7 -->
<g id="edge19" class="edge"><title>Node1&#45;&gt;Node7</title>
<path fill="none" stroke="midnightblue" d="M670.925,-113.526C563.133,-97.4728 302.867,-58.0614 85.5,-20 82.7995,-19.5271 80.0142,-19.0266 77.2108,-18.5135"/>
<polygon fill="midnightblue" stroke="midnightblue" points="670.468,-116.996 680.874,-115.005 671.498,-110.072 670.468,-116.996"/>
</g>
<!-- Node17 -->
<g id="node17" class="node"><title>Node17</title>
<g id="a_node17"><a xlink:href="../../d9/d74/ActorList_8cpp.html" target="_top" xlink:title="ActorList.cpp">
<polygon fill="white" stroke="black" points="684.5,-56.5 684.5,-75.5 758.5,-75.5 758.5,-56.5 684.5,-56.5"/>
<text text-anchor="middle" x="721.5" y="-63.5" font-family="Helvetica,sans-Serif" font-size="10.00">ActorList.cpp</text>
</a>
</g>
</g>
<!-- Node1&#45;&gt;Node17 -->
<g id="edge16" class="edge"><title>Node1&#45;&gt;Node17</title>
<path fill="none" stroke="midnightblue" d="M721.5,-101.805C721.5,-92.9102 721.5,-82.7798 721.5,-75.7511"/>
<polygon fill="midnightblue" stroke="midnightblue" points="718,-102.083 721.5,-112.083 725,-102.083 718,-102.083"/>
</g>
<!-- Node18 -->
<g id="node18" class="node"><title>Node18</title>
<g id="a_node18"><a xlink:href="../../df/dd6/ActorFactory_8cpp.html" target="_top" xlink:title="ActorFactory.cpp">
<polygon fill="white" stroke="black" points="776.5,-56.5 776.5,-75.5 868.5,-75.5 868.5,-56.5 776.5,-56.5"/>
<text text-anchor="middle" x="822.5" y="-63.5" font-family="Helvetica,sans-Serif" font-size="10.00">ActorFactory.cpp</text>
</a>
</g>
</g>
<!-- Node1&#45;&gt;Node18 -->
<g id="edge17" class="edge"><title>Node1&#45;&gt;Node18</title>
<path fill="none" stroke="midnightblue" d="M746.583,-107.59C765.257,-97.6052 790.204,-84.2672 806.313,-75.6545"/>
<polygon fill="midnightblue" stroke="midnightblue" points="744.896,-104.522 737.727,-112.324 748.196,-110.696 744.896,-104.522"/>
</g>
<!-- Node19 -->
<g id="node19" class="node"><title>Node19</title>
<g id="a_node19"><a xlink:href="../../d2/dbb/ActorVariant_8cpp.html" target="_top" xlink:title="ActorVariant.cpp">
<polygon fill="white" stroke="black" points="887,-56.5 887,-75.5 976,-75.5 976,-56.5 887,-56.5"/>
<text text-anchor="middle" x="931.5" y="-63.5" font-family="Helvetica,sans-Serif" font-size="10.00">ActorVariant.cpp</text>
</a>
</g>
</g>
<!-- Node1&#45;&gt;Node19 -->
<g id="edge18" class="edge"><title>Node1&#45;&gt;Node19</title>
<path fill="none" stroke="midnightblue" d="M764.69,-109.894C804.347,-99.6966 862.27,-84.802 898.381,-75.5164"/>
<polygon fill="midnightblue" stroke="midnightblue" points="763.588,-106.563 754.775,-112.444 765.332,-113.343 763.588,-106.563"/>
</g>
<!-- Node3 -->
<g id="node3" class="node"><title>Node3</title>
<g id="a_node3"><a xlink:href="../../d4/d34/Actor_8cpp.html" target="_top" xlink:title="Actor.cpp">
<polygon fill="white" stroke="black" points="95,-0.5 95,-19.5 154,-19.5 154,-0.5 95,-0.5"/>
<text text-anchor="middle" x="124.5" y="-7.5" font-family="Helvetica,sans-Serif" font-size="10.00">Actor.cpp</text>
</a>
</g>
</g>
<!-- Node2&#45;&gt;Node3 -->
<g id="edge2" class="edge"><title>Node2&#45;&gt;Node3</title>
<path fill="none" stroke="midnightblue" d="M590.173,-62.7589C507.018,-58.0367 319.456,-45.3484 163.5,-20 160.482,-19.5095 157.35,-18.9217 154.231,-18.2846"/>
<polygon fill="midnightblue" stroke="midnightblue" points="590.079,-66.259 600.259,-63.3214 590.469,-59.2698 590.079,-66.259"/>
</g>
<!-- Node4 -->
<g id="node4" class="node"><title>Node4</title>
<g id="a_node4"><a xlink:href="../../dd/de3/client_2Client_8h.html" target="_top" xlink:title="Client.h">
<polygon fill="white" stroke="black" points="172.5,-0.5 172.5,-19.5 222.5,-19.5 222.5,-0.5 172.5,-0.5"/>
<text text-anchor="middle" x="197.5" y="-7.5" font-family="Helvetica,sans-Serif" font-size="10.00">Client.h</text>
</a>
</g>
</g>
<!-- Node2&#45;&gt;Node4 -->
<g id="edge3" class="edge"><title>Node2&#45;&gt;Node4</title>
<path fill="none" stroke="midnightblue" d="M590.106,-62.2471C516.063,-57.0817 360.781,-44.2102 231.5,-20 228.619,-19.4605 225.623,-18.8069 222.657,-18.101"/>
<polygon fill="midnightblue" stroke="midnightblue" points="590.212,-65.7625 600.428,-62.9538 590.691,-58.7789 590.212,-65.7625"/>
</g>
<!-- Node5 -->
<g id="node5" class="node"><title>Node5</title>
<g id="a_node5"><a xlink:href="../../d2/d01/DebugHelper_8cpp.html" target="_top" xlink:title="DebugHelper.cpp">
<polygon fill="white" stroke="black" points="240.5,-0.5 240.5,-19.5 332.5,-19.5 332.5,-0.5 240.5,-0.5"/>
<text text-anchor="middle" x="286.5" y="-7.5" font-family="Helvetica,sans-Serif" font-size="10.00">DebugHelper.cpp</text>
</a>
</g>
</g>
<!-- Node2&#45;&gt;Node5 -->
<g id="edge4" class="edge"><title>Node2&#45;&gt;Node5</title>
<path fill="none" stroke="midnightblue" d="M590.103,-58.4409C533.054,-49.7888 429.725,-34.0163 341.5,-20 338.633,-19.5446 335.683,-19.0723 332.708,-18.5933"/>
<polygon fill="midnightblue" stroke="midnightblue" points="589.791,-61.9335 600.203,-59.9715 590.84,-55.0125 589.791,-61.9335"/>
</g>
<!-- Node6 -->
<g id="node6" class="node"><title>Node6</title>
<g id="a_node6"><a xlink:href="../../d2/d6b/EpisodeProxy_8cpp.html" target="_top" xlink:title="EpisodeProxy.cpp">
<polygon fill="white" stroke="black" points="350.5,-0.5 350.5,-19.5 446.5,-19.5 446.5,-0.5 350.5,-0.5"/>
<text text-anchor="middle" x="398.5" y="-7.5" font-family="Helvetica,sans-Serif" font-size="10.00">EpisodeProxy.cpp</text>
</a>
</g>
</g>
<!-- Node2&#45;&gt;Node6 -->
<g id="edge5" class="edge"><title>Node2&#45;&gt;Node6</title>
<path fill="none" stroke="midnightblue" d="M590.436,-55.1045C546.132,-44.9239 477.825,-29.2278 435.768,-19.5637"/>
<polygon fill="midnightblue" stroke="midnightblue" points="589.799,-58.5492 600.329,-57.3776 591.367,-51.727 589.799,-58.5492"/>
</g>
<!-- Node2&#45;&gt;Node7 -->
<g id="edge6" class="edge"><title>Node2&#45;&gt;Node7</title>
<path fill="none" stroke="midnightblue" d="M590.182,-63.0253C497.341,-58.4462 272.428,-45.4975 85.5,-20 82.7835,-19.6295 79.9864,-19.2049 77.1746,-18.7464"/>
<polygon fill="midnightblue" stroke="midnightblue" points="590.16,-66.5283 600.318,-63.5177 590.499,-59.5365 590.16,-66.5283"/>
</g>
<!-- Node8 -->
<g id="node8" class="node"><title>Node8</title>
<g id="a_node8"><a xlink:href="../../df/de3/LibCarla_2source_2carla_2client_2GnssSensor_8cpp.html" target="_top" xlink:title="GnssSensor.cpp">
<polygon fill="white" stroke="black" points="465,-0.5 465,-19.5 554,-19.5 554,-0.5 465,-0.5"/>
<text text-anchor="middle" x="509.5" y="-7.5" font-family="Helvetica,sans-Serif" font-size="10.00">GnssSensor.cpp</text>
</a>
</g>
</g>
<!-- Node2&#45;&gt;Node8 -->
<g id="edge7" class="edge"><title>Node2&#45;&gt;Node8</title>
<path fill="none" stroke="midnightblue" d="M604.493,-52.3678C581.271,-42.2553 549.337,-28.3486 529.056,-19.5164"/>
<polygon fill="midnightblue" stroke="midnightblue" points="603.286,-55.6597 613.852,-56.4435 606.081,-49.2419 603.286,-55.6597"/>
</g>
<!-- Node9 -->
<g id="node9" class="node"><title>Node9</title>
<g id="a_node9"><a xlink:href="../../dd/dbc/LibCarla_2source_2carla_2client_2LaneInvasionSensor_8cpp.html" target="_top" xlink:title="LaneInvasionSensor.cpp">
<polygon fill="white" stroke="black" points="571.5,-0.5 571.5,-19.5 695.5,-19.5 695.5,-0.5 571.5,-0.5"/>
<text text-anchor="middle" x="633.5" y="-7.5" font-family="Helvetica,sans-Serif" font-size="10.00">LaneInvasionSensor.cpp</text>
</a>
</g>
</g>
<!-- Node2&#45;&gt;Node9 -->
<g id="edge8" class="edge"><title>Node2&#45;&gt;Node9</title>
<path fill="none" stroke="midnightblue" d="M633.5,-45.8045C633.5,-36.9102 633.5,-26.7798 633.5,-19.7511"/>
<polygon fill="midnightblue" stroke="midnightblue" points="630,-46.083 633.5,-56.083 637,-46.083 630,-46.083"/>
</g>
<!-- Node10 -->
<g id="node10" class="node"><title>Node10</title>
<g id="a_node10"><a xlink:href="../../d1/da0/ServerSideSensor_8cpp.html" target="_top" xlink:title="ServerSideSensor.cpp">
<polygon fill="white" stroke="black" points="713.5,-0.5 713.5,-19.5 827.5,-19.5 827.5,-0.5 713.5,-0.5"/>
<text text-anchor="middle" x="770.5" y="-7.5" font-family="Helvetica,sans-Serif" font-size="10.00">ServerSideSensor.cpp</text>
</a>
</g>
</g>
<!-- Node2&#45;&gt;Node10 -->
<g id="edge9" class="edge"><title>Node2&#45;&gt;Node10</title>
<path fill="none" stroke="midnightblue" d="M664.523,-52.772C690.257,-42.6287 726.186,-28.4669 748.894,-19.5164"/>
<polygon fill="midnightblue" stroke="midnightblue" points="663.228,-49.5203 655.208,-56.4435 665.795,-56.0326 663.228,-49.5203"/>
</g>
<!-- Node11 -->
<g id="node11" class="node"><title>Node11</title>
<g id="a_node11"><a xlink:href="../../dd/d90/TrafficLight_8cpp.html" target="_top" xlink:title="TrafficLight.cpp">
<polygon fill="white" stroke="black" points="845.5,-0.5 845.5,-19.5 929.5,-19.5 929.5,-0.5 845.5,-0.5"/>
<text text-anchor="middle" x="887.5" y="-7.5" font-family="Helvetica,sans-Serif" font-size="10.00">TrafficLight.cpp</text>
</a>
</g>
</g>
<!-- Node2&#45;&gt;Node11 -->
<g id="edge10" class="edge"><title>Node2&#45;&gt;Node11</title>
<path fill="none" stroke="midnightblue" d="M676.59,-55.7705C742.001,-41.8254 806.683,-28.1115 847.248,-19.5199"/>
<polygon fill="midnightblue" stroke="midnightblue" points="675.564,-52.4106 666.514,-57.9193 677.024,-59.2566 675.564,-52.4106"/>
</g>
<!-- Node12 -->
<g id="node12" class="node"><title>Node12</title>
<g id="a_node12"><a xlink:href="../../d0/d27/Vehicle_8cpp.html" target="_top" xlink:title="Vehicle.cpp">
<polygon fill="white" stroke="black" points="947.5,-0.5 947.5,-19.5 1015.5,-19.5 1015.5,-0.5 947.5,-0.5"/>
<text text-anchor="middle" x="981.5" y="-7.5" font-family="Helvetica,sans-Serif" font-size="10.00">Vehicle.cpp</text>
</a>
</g>
</g>
<!-- Node2&#45;&gt;Node12 -->
<g id="edge11" class="edge"><title>Node2&#45;&gt;Node12</title>
<path fill="none" stroke="midnightblue" d="M676.955,-55.8563C793.44,-35.8518 825.424,-39.5476 938.5,-20 941.356,-19.5063 944.311,-18.9608 947.274,-18.3899"/>
<polygon fill="midnightblue" stroke="midnightblue" points="676.179,-52.4386 666.926,-57.6007 677.378,-59.3351 676.179,-52.4386"/>
</g>
<!-- Node13 -->
<g id="node13" class="node"><title>Node13</title>
<g id="a_node13"><a xlink:href="../../d6/db6/Walker_8cpp.html" target="_top" xlink:title="Walker.cpp">
<polygon fill="white" stroke="black" points="1033.5,-0.5 1033.5,-19.5 1099.5,-19.5 1099.5,-0.5 1033.5,-0.5"/>
<text text-anchor="middle" x="1066.5" y="-7.5" font-family="Helvetica,sans-Serif" font-size="10.00">Walker.cpp</text>
</a>
</g>
</g>
<!-- Node2&#45;&gt;Node13 -->
<g id="edge12" class="edge"><title>Node2&#45;&gt;Node13</title>
<path fill="none" stroke="midnightblue" d="M677.224,-55.8848C831.33,-32.1584 873.791,-43.8485 1024.5,-20 1027.3,-19.5571 1030.19,-19.0474 1033.09,-18.5004"/>
<polygon fill="midnightblue" stroke="midnightblue" points="676.248,-52.4949 666.91,-57.4996 677.331,-59.4107 676.248,-52.4949"/>
</g>
<!-- Node14 -->
<g id="node14" class="node"><title>Node14</title>
<g id="a_node14"><a xlink:href="../../de/d69/WalkerAIController_8cpp.html" target="_top" xlink:title="WalkerAIController.cpp">
<polygon fill="white" stroke="black" points="1117.5,-0.5 1117.5,-19.5 1235.5,-19.5 1235.5,-0.5 1117.5,-0.5"/>
<text text-anchor="middle" x="1176.5" y="-7.5" font-family="Helvetica,sans-Serif" font-size="10.00">WalkerAIController.cpp</text>
</a>
</g>
</g>
<!-- Node2&#45;&gt;Node14 -->
<g id="edge13" class="edge"><title>Node2&#45;&gt;Node14</title>
<path fill="none" stroke="midnightblue" d="M677.005,-55.952C868.275,-28.1443 919.783,-40.3215 1108.5,-20 1111.34,-19.694 1114.25,-19.3663 1117.18,-19.0236"/>
<polygon fill="midnightblue" stroke="midnightblue" points="676.284,-52.5204 666.9,-57.4391 677.303,-59.4458 676.284,-52.5204"/>
</g>
<!-- Node15 -->
<g id="node15" class="node"><title>Node15</title>
<g id="a_node15"><a xlink:href="../../d7/dfe/World_8cpp.html" target="_top" xlink:title="World.cpp">
<polygon fill="white" stroke="black" points="1254,-0.5 1254,-19.5 1315,-19.5 1315,-0.5 1254,-0.5"/>
<text text-anchor="middle" x="1284.5" y="-7.5" font-family="Helvetica,sans-Serif" font-size="10.00">World.cpp</text>
</a>
</g>
</g>
<!-- Node2&#45;&gt;Node15 -->
<g id="edge14" class="edge"><title>Node2&#45;&gt;Node15</title>
<path fill="none" stroke="midnightblue" d="M677.06,-55.9907C928.318,-22.2577 996.972,-55.4502 1244.5,-20 1247.46,-19.5762 1250.52,-19.0492 1253.58,-18.4642"/>
<polygon fill="midnightblue" stroke="midnightblue" points="676.326,-52.5583 666.892,-57.3788 677.273,-59.494 676.326,-52.5583"/>
</g>
<!-- Node16 -->
<g id="node16" class="node"><title>Node16</title>
<g id="a_node16"><a xlink:href="../../d6/d75/LaneInvasionEvent_8cpp.html" target="_top" xlink:title="LaneInvasionEvent.cpp">
<polygon fill="white" stroke="black" points="1333,-0.5 1333,-19.5 1452,-19.5 1452,-0.5 1333,-0.5"/>
<text text-anchor="middle" x="1392.5" y="-7.5" font-family="Helvetica,sans-Serif" font-size="10.00">LaneInvasionEvent.cpp</text>
</a>
</g>
</g>
<!-- Node2&#45;&gt;Node16 -->
<g id="edge15" class="edge"><title>Node2&#45;&gt;Node16</title>
<path fill="none" stroke="midnightblue" d="M677.167,-55.9864C963.615,-18.2988 1040.24,-46.6558 1324.5,-20 1327.23,-19.7443 1330.01,-19.4619 1332.83,-19.1596"/>
<polygon fill="midnightblue" stroke="midnightblue" points="676.339,-52.5657 666.888,-57.3551 677.263,-59.5045 676.339,-52.5657"/>
</g>
</g>
</svg>
        <g id="navigator" transform="translate(0 0)" fill="#404254">
                <rect fill="#f2f5e9" fill-opacity="0.5" stroke="#606060" stroke-width=".5" x="0" y="0" width="60" height="60"/>
                <use id="zoomplus" xlink:href="#zoomPlus" x="17" y="9" onmousedown="handleZoom(evt,'in')"/>
                <use id="zoomminus" xlink:href="#zoomMin" x="42" y="9" onmousedown="handleZoom(evt,'out')"/>
                <use id="reset" xlink:href="#resetDef" x="30" y="36" onmousedown="handleReset()"/>
                <g id="arrowUp" xlink:href="#dirArrow" transform="translate(30 24)" onmousedown="handlePan(0,-1)">
                  <use xlink:href="#rim" fill="#404040">
                        <set attributeName="fill" to="#808080" begin="arrowUp.mouseover" end="arrowUp.mouseout"/>
                  </use>
                  <path fill="none" stroke="white" stroke-width="1.5" d="M0,-3.0v7 M-2.5,-0.5L0,-3.0L2.5,-0.5"/>
                </g>
                <g id="arrowRight" xlink:href="#dirArrow" transform="rotate(90) translate(36 -43)" onmousedown="handlePan(1,0)">
                  <use xlink:href="#rim" fill="#404040">
                        <set attributeName="fill" to="#808080" begin="arrowRight.mouseover" end="arrowRight.mouseout"/>
                  </use>
                  <path fill="none" stroke="white" stroke-width="1.5" d="M0,-3.0v7 M-2.5,-0.5L0,-3.0L2.5,-0.5"/>
                </g>
                <g id="arrowDown" xlink:href="#dirArrow" transform="rotate(180) translate(-30 -48)" onmousedown="handlePan(0,1)">
                  <use xlink:href="#rim" fill="#404040">
                        <set attributeName="fill" to="#808080" begin="arrowDown.mouseover" end="arrowDown.mouseout"/>
                  </use>
                  <path fill="none" stroke="white" stroke-width="1.5" d="M0,-3.0v7 M-2.5,-0.5L0,-3.0L2.5,-0.5"/>
                </g>
                <g id="arrowLeft" xlink:href="#dirArrow" transform="rotate(270) translate(-36 17)" onmousedown="handlePan(-1,0)">
                  <use xlink:href="#rim" fill="#404040">
                        <set attributeName="fill" to="#808080" begin="arrowLeft.mouseover" end="arrowLeft.mouseout"/>
                  </use>
                  <path fill="none" stroke="white" stroke-width="1.5" d="M0,-3.0v7 M-2.5,-0.5L0,-3.0L2.5,-0.5"/>
                </g>
        </g>
        <svg viewBox="0 0 15 15" width="100%" height="30px" preserveAspectRatio="xMaxYMin meet">
         <g id="arrow_out" transform="scale(0.3 0.3)">
          <a xlink:href="ActorFactory_8h__dep__incl_org.svg" target="_base">
           <rect id="button" ry="5" rx="5" y="6" x="6" height="38" width="38"
                fill="#f2f5e9" fill-opacity="0.5" stroke="#606060" stroke-width="1.0"/>
           <path id="arrow"
             d="M 11.500037,31.436501 C 11.940474,20.09759 22.043105,11.32322 32.158766,21.979434 L 37.068811,17.246167 C 37.068811,17.246167 37.088388,32 37.088388,32 L 22.160133,31.978069 C 22.160133,31.978069 26.997745,27.140456 26.997745,27.140456 C 18.528582,18.264221 13.291696,25.230495 11.500037,31.436501 z"
             style="fill:#404040;"/>
          </a>
         </g>
        </svg>
</svg>
