<?xml version="1.0" encoding="UTF-8" standalone="no"?>
<!DOCTYPE svg PUBLIC "-//W3C//DTD SVG 1.1//EN"
 "http://www.w3.org/Graphics/SVG/1.1/DTD/svg11.dtd">
<!-- Generated by graphviz version 2.43.0 (0)
 -->
<!-- Title: carla::client::Map::GetWaypoint Pages: 1 -->
<svg width="950pt" height="278pt"
 viewBox="0.00 0.00 950.00 277.50" xmlns="http://www.w3.org/2000/svg" xmlns:xlink="http://www.w3.org/1999/xlink">
<g id="graph0" class="graph" transform="scale(1 1) rotate(0) translate(4 273.5)">
<title>carla::client::Map::GetWaypoint</title>
<polygon fill="white" stroke="transparent" points="-4,4 -4,-273.5 946,-273.5 946,4 -4,4"/>
<!-- Node1 -->
<g id="node1" class="node">
<title>Node1</title>
<g id="a_node1"><a xlink:title=" ">
<polygon fill="#bfbfbf" stroke="black" points="0,-105 0,-135 101,-135 101,-105 0,-105"/>
<text text-anchor="start" x="8" y="-123" font-family="Helvetica,sans-Serif" font-size="10.00">carla::client::Map</text>
<text text-anchor="middle" x="50.5" y="-112" font-family="Helvetica,sans-Serif" font-size="10.00">::GetWaypoint</text>
</a>
</g>
</g>
<!-- Node2 -->
<g id="node2" class="node">
<title>Node2</title>
<g id="a_node2"><a xlink:href="../../d0/d34/classcarla_1_1road_1_1Map.html#a37ba4f58b767002274b6f4d86258986a" target="_top" xlink:title="========================================================================">
<polygon fill="white" stroke="black" points="141.5,-138 141.5,-168 296.5,-168 296.5,-138 141.5,-138"/>
<text text-anchor="start" x="149.5" y="-156" font-family="Helvetica,sans-Serif" font-size="10.00">carla::road::Map::GetClosest</text>
<text text-anchor="middle" x="219" y="-145" font-family="Helvetica,sans-Serif" font-size="10.00">WaypointOnRoad</text>
</a>
</g>
</g>
<!-- Node1&#45;&gt;Node2 -->
<g id="edge1" class="edge">
<title>Node1&#45;&gt;Node2</title>
<path fill="none" stroke="midnightblue" d="M101,-129.81C110.91,-131.78 121.59,-133.89 132.32,-136.02"/>
<polygon fill="midnightblue" stroke="midnightblue" points="131.68,-139.46 142.17,-137.97 133.04,-132.59 131.68,-139.46"/>
</g>
<!-- Node10 -->
<g id="node10" class="node">
<title>Node10</title>
<g id="a_node10"><a xlink:href="../../d0/d34/classcarla_1_1road_1_1Map.html#a39f0ccacb98f62b339de96c69621543b" target="_top" xlink:title=" ">
<polygon fill="white" stroke="black" points="137,-88.5 137,-107.5 301,-107.5 301,-88.5 137,-88.5"/>
<text text-anchor="middle" x="219" y="-95.5" font-family="Helvetica,sans-Serif" font-size="10.00">carla::road::Map::GetWaypoint</text>
</a>
</g>
</g>
<!-- Node1&#45;&gt;Node10 -->
<g id="edge10" class="edge">
<title>Node1&#45;&gt;Node10</title>
<path fill="none" stroke="midnightblue" d="M101,-113.46C112.01,-112 123.97,-110.42 135.9,-108.85"/>
<polygon fill="midnightblue" stroke="midnightblue" points="136.43,-112.31 145.88,-107.53 135.51,-105.37 136.43,-112.31"/>
</g>
<!-- Node3 -->
<g id="node3" class="node">
<title>Node3</title>
<g id="a_node3"><a xlink:href="../../d0/dea/classcarla_1_1geom_1_1Math.html#ab65c2226be8bc15f3ea8aab7ffa27443" target="_top" xlink:title="Returns a pair containing:">
<polygon fill="white" stroke="black" points="349,-151 349,-181 487,-181 487,-151 349,-151"/>
<text text-anchor="start" x="357" y="-169" font-family="Helvetica,sans-Serif" font-size="10.00">carla::geom::Math::</text>
<text text-anchor="middle" x="418" y="-158" font-family="Helvetica,sans-Serif" font-size="10.00">DistanceSegmentToPoint</text>
</a>
</g>
</g>
<!-- Node2&#45;&gt;Node3 -->
<g id="edge2" class="edge">
<title>Node2&#45;&gt;Node3</title>
<path fill="none" stroke="midnightblue" d="M296.73,-158.06C310.42,-158.97 324.7,-159.91 338.44,-160.82"/>
<polygon fill="midnightblue" stroke="midnightblue" points="338.61,-164.33 348.82,-161.5 339.07,-157.35 338.61,-164.33"/>
</g>
<!-- Node4 -->
<g id="node4" class="node">
<title>Node4</title>
<g id="a_node4"><a xlink:href="../../d0/dea/classcarla_1_1geom_1_1Math.html#a8f8eccc1a2bcc711250f2b47a21eb31f" target="_top" xlink:title=" ">
<polygon fill="white" stroke="black" points="535,-239 535,-269 646,-269 646,-239 535,-239"/>
<text text-anchor="start" x="543" y="-257" font-family="Helvetica,sans-Serif" font-size="10.00">carla::geom::Math::</text>
<text text-anchor="middle" x="590.5" y="-246" font-family="Helvetica,sans-Serif" font-size="10.00">Clamp</text>
</a>
</g>
</g>
<!-- Node3&#45;&gt;Node4 -->
<g id="edge3" class="edge">
<title>Node3&#45;&gt;Node4</title>
<path fill="none" stroke="midnightblue" d="M448.31,-181.13C476.7,-195.78 519.9,-218.08 551.04,-234.15"/>
<polygon fill="midnightblue" stroke="midnightblue" points="549.8,-237.45 560.29,-238.92 553.01,-231.23 549.8,-237.45"/>
</g>
<!-- Node6 -->
<g id="node6" class="node">
<title>Node6</title>
<g id="a_node6"><a xlink:href="../../d0/dea/classcarla_1_1geom_1_1Math.html#a71f0667271df699e511124559f61665e" target="_top" xlink:title=" ">
<polygon fill="white" stroke="black" points="535,-102 535,-132 646,-132 646,-102 535,-102"/>
<text text-anchor="start" x="543" y="-120" font-family="Helvetica,sans-Serif" font-size="10.00">carla::geom::Math::</text>
<text text-anchor="middle" x="590.5" y="-109" font-family="Helvetica,sans-Serif" font-size="10.00">Distance2D</text>
</a>
</g>
</g>
<!-- Node3&#45;&gt;Node6 -->
<g id="edge5" class="edge">
<title>Node3&#45;&gt;Node6</title>
<path fill="none" stroke="midnightblue" d="M471.55,-150.9C489.21,-145.82 509.09,-140.11 527.42,-134.84"/>
<polygon fill="midnightblue" stroke="midnightblue" points="528.48,-138.18 537.13,-132.05 526.55,-131.45 528.48,-138.18"/>
</g>
<!-- Node7 -->
<g id="node7" class="node">
<title>Node7</title>
<g id="a_node7"><a xlink:href="../../d0/dea/classcarla_1_1geom_1_1Math.html#a16bbc81c150eccc1f9407be9d9651766" target="_top" xlink:title=" ">
<polygon fill="white" stroke="black" points="682,-149 682,-179 795,-179 795,-149 682,-149"/>
<text text-anchor="start" x="690" y="-167" font-family="Helvetica,sans-Serif" font-size="10.00">carla::geom::Math::</text>
<text text-anchor="middle" x="738.5" y="-156" font-family="Helvetica,sans-Serif" font-size="10.00">DistanceSquared2D</text>
</a>
</g>
</g>
<!-- Node3&#45;&gt;Node7 -->
<g id="edge8" class="edge">
<title>Node3&#45;&gt;Node7</title>
<path fill="none" stroke="midnightblue" d="M477.03,-181.03C495.43,-185.12 515.95,-188.97 535,-191 584.06,-196.23 597.17,-198.05 646,-191 659.19,-189.09 673.13,-185.72 686.05,-181.98"/>
<polygon fill="midnightblue" stroke="midnightblue" points="687.13,-185.31 695.7,-179.08 685.11,-178.61 687.13,-185.31"/>
</g>
<!-- Node9 -->
<g id="node9" class="node">
<title>Node9</title>
<g id="a_node9"><a xlink:href="../../d0/dea/classcarla_1_1geom_1_1Math.html#ae6918fff45bd7adea4bef119065ce1ab" target="_top" xlink:title=" ">
<polygon fill="white" stroke="black" points="535,-151 535,-181 646,-181 646,-151 535,-151"/>
<text text-anchor="start" x="543" y="-169" font-family="Helvetica,sans-Serif" font-size="10.00">carla::geom::Math::</text>
<text text-anchor="middle" x="590.5" y="-158" font-family="Helvetica,sans-Serif" font-size="10.00">Dot2D</text>
</a>
</g>
</g>
<!-- Node3&#45;&gt;Node9 -->
<g id="edge9" class="edge">
<title>Node3&#45;&gt;Node9</title>
<path fill="none" stroke="midnightblue" d="M487.37,-166C499.67,-166 512.46,-166 524.66,-166"/>
<polygon fill="midnightblue" stroke="midnightblue" points="524.75,-169.5 534.75,-166 524.75,-162.5 524.75,-169.5"/>
</g>
<!-- Node5 -->
<g id="node5" class="node">
<title>Node5</title>
<g id="a_node5"><a xlink:href="../../d3/d33/Simplify_8h.html#a50798148e5016c5b85087d4009824f27" target="_top" xlink:title=" ">
<polygon fill="white" stroke="black" points="721,-244.5 721,-263.5 756,-263.5 756,-244.5 721,-244.5"/>
<text text-anchor="middle" x="738.5" y="-251.5" font-family="Helvetica,sans-Serif" font-size="10.00">min</text>
</a>
</g>
</g>
<!-- Node4&#45;&gt;Node5 -->
<g id="edge4" class="edge">
<title>Node4&#45;&gt;Node5</title>
<path fill="none" stroke="midnightblue" d="M646.28,-254C668.36,-254 692.82,-254 710.85,-254"/>
<polygon fill="midnightblue" stroke="midnightblue" points="710.91,-257.5 720.91,-254 710.91,-250.5 710.91,-257.5"/>
</g>
<!-- Node6&#45;&gt;Node7 -->
<g id="edge6" class="edge">
<title>Node6&#45;&gt;Node7</title>
<path fill="none" stroke="midnightblue" d="M638.1,-132C651.79,-136.41 666.92,-141.28 681.16,-145.86"/>
<polygon fill="midnightblue" stroke="midnightblue" points="680.25,-149.25 690.85,-148.98 682.4,-142.58 680.25,-149.25"/>
</g>
<!-- Node8 -->
<g id="node8" class="node">
<title>Node8</title>
<g id="a_node8"><a xlink:href="../../d0/dea/classcarla_1_1geom_1_1Math.html#ac1644f7af375c05619c27851731cea87" target="_top" xlink:title=" ">
<polygon fill="white" stroke="black" points="831,-149 831,-179 942,-179 942,-149 831,-149"/>
<text text-anchor="start" x="839" y="-167" font-family="Helvetica,sans-Serif" font-size="10.00">carla::geom::Math::</text>
<text text-anchor="middle" x="886.5" y="-156" font-family="Helvetica,sans-Serif" font-size="10.00">Square</text>
</a>
</g>
</g>
<!-- Node7&#45;&gt;Node8 -->
<g id="edge7" class="edge">
<title>Node7&#45;&gt;Node8</title>
<path fill="none" stroke="midnightblue" d="M795.11,-164C803.36,-164 811.93,-164 820.35,-164"/>
<polygon fill="midnightblue" stroke="midnightblue" points="820.52,-167.5 830.52,-164 820.52,-160.5 820.52,-167.5"/>
</g>
<!-- Node10&#45;&gt;Node6 -->
<g id="edge11" class="edge">
<title>Node10&#45;&gt;Node6</title>
<path fill="none" stroke="midnightblue" d="M301.09,-102.17C368.3,-105.63 462.58,-110.47 524.8,-113.67"/>
<polygon fill="midnightblue" stroke="midnightblue" points="524.72,-117.17 534.89,-114.19 525.08,-110.18 524.72,-117.17"/>
</g>
<!-- Node11 -->
<g id="node11" class="node">
<title>Node11</title>
<g id="a_node11"><a xlink:href="../../d4/db7/classcarla_1_1geom_1_1CubicPolynomial.html#a5d270a76228a4f47ae0bcfc2c866f5cd" target="_top" xlink:title="Evaluates f(x) = a + bx + cx^2 + dx^3.">
<polygon fill="white" stroke="black" points="337,-61 337,-91 499,-91 499,-61 337,-61"/>
<text text-anchor="start" x="345" y="-79" font-family="Helvetica,sans-Serif" font-size="10.00">carla::geom::CubicPolynomial</text>
<text text-anchor="middle" x="418" y="-68" font-family="Helvetica,sans-Serif" font-size="10.00">::Evaluate</text>
</a>
</g>
</g>
<!-- Node10&#45;&gt;Node11 -->
<g id="edge12" class="edge">
<title>Node10&#45;&gt;Node11</title>
<path fill="none" stroke="midnightblue" d="M301.26,-88.92C309.72,-87.98 318.35,-87.02 326.9,-86.06"/>
<polygon fill="midnightblue" stroke="midnightblue" points="327.33,-89.54 336.87,-84.95 326.55,-82.58 327.33,-89.54"/>
</g>
<!-- Node12 -->
<g id="node12" class="node">
<title>Node12</title>
<g id="a_node12"><a xlink:href="../../de/dbb/classcarla_1_1road_1_1element_1_1RoadInfoLaneWidth.html#a3a423d572fdd62580a144c59b4e046f6" target="_top" xlink:title=" ">
<polygon fill="white" stroke="black" points="356,-0.5 356,-41.5 480,-41.5 480,-0.5 356,-0.5"/>
<text text-anchor="start" x="364" y="-29.5" font-family="Helvetica,sans-Serif" font-size="10.00">carla::road::element</text>
<text text-anchor="start" x="364" y="-18.5" font-family="Helvetica,sans-Serif" font-size="10.00">::RoadInfoLaneWidth::</text>
<text text-anchor="middle" x="418" y="-7.5" font-family="Helvetica,sans-Serif" font-size="10.00">GetPolynomial</text>
</a>
</g>
</g>
<!-- Node10&#45;&gt;Node12 -->
<g id="edge13" class="edge">
<title>Node10&#45;&gt;Node12</title>
<path fill="none" stroke="midnightblue" d="M244.19,-88.45C267.84,-79.12 304.88,-64.54 337,-52 342.51,-49.85 348.24,-47.62 353.98,-45.39"/>
<polygon fill="midnightblue" stroke="midnightblue" points="355.57,-48.52 363.63,-41.64 353.04,-42 355.57,-48.52"/>
</g>
</g>
</svg>
