<?xml version="1.0" encoding="UTF-8" standalone="no"?>
<!DOCTYPE svg PUBLIC "-//W3C//DTD SVG 1.1//EN"
 "http://www.w3.org/Graphics/SVG/1.1/DTD/svg11.dtd">
<!-- Generated by graphviz version 2.38.0 (20140413.2041)
 -->
<!-- Title: VehicleControl.h Pages: 1 -->
<svg width="2090pt" height="308pt"
 viewBox="0.00 0.00 2090.00 308.00" xmlns="http://www.w3.org/2000/svg" xmlns:xlink="http://www.w3.org/1999/xlink">
<g id="graph0" class="graph" transform="scale(1 1) rotate(0) translate(4 304)">
<title>VehicleControl.h</title>
<polygon fill="white" stroke="none" points="-4,4 -4,-304 2086,-304 2086,4 -4,4"/>
<!-- Node1 -->
<g id="node1" class="node"><title>Node1</title>
<polygon fill="#bfbfbf" stroke="black" points="1539.5,-280.5 1539.5,-299.5 1628.5,-299.5 1628.5,-280.5 1539.5,-280.5"/>
<text text-anchor="middle" x="1584" y="-287.5" font-family="Helvetica,sans-Serif" font-size="10.00">VehicleControl.h</text>
</g>
<!-- Node2 -->
<g id="node2" class="node"><title>Node2</title>
<g id="a_node2"><a xlink:href="../../d3/d00/CarlaWheeledVehicle_8h.html" target="_top" xlink:title="CarlaWheeledVehicle.h">
<polygon fill="white" stroke="black" points="1324.5,-224.5 1324.5,-243.5 1443.5,-243.5 1443.5,-224.5 1324.5,-224.5"/>
<text text-anchor="middle" x="1384" y="-231.5" font-family="Helvetica,sans-Serif" font-size="10.00">CarlaWheeledVehicle.h</text>
</a>
</g>
</g>
<!-- Node1&#45;&gt;Node2 -->
<g id="edge1" class="edge"><title>Node1&#45;&gt;Node2</title>
<path fill="none" stroke="midnightblue" d="M1542.63,-277.829C1504.86,-267.633 1449.86,-252.782 1415.54,-243.516"/>
<polygon fill="midnightblue" stroke="midnightblue" points="1541.74,-281.216 1552.31,-280.444 1543.57,-274.458 1541.74,-281.216"/>
</g>
<!-- Node23 -->
<g id="node23" class="node"><title>Node23</title>
<g id="a_node23"><a xlink:href="../../d2/d29/WheeledVehicleAIController_8h.html" target="_top" xlink:title="WheeledVehicleAIController.h">
<polygon fill="white" stroke="black" points="1635.5,-224.5 1635.5,-243.5 1782.5,-243.5 1782.5,-224.5 1635.5,-224.5"/>
<text text-anchor="middle" x="1709" y="-231.5" font-family="Helvetica,sans-Serif" font-size="10.00">WheeledVehicleAIController.h</text>
</a>
</g>
</g>
<!-- Node1&#45;&gt;Node23 -->
<g id="edge23" class="edge"><title>Node1&#45;&gt;Node23</title>
<path fill="none" stroke="midnightblue" d="M1613.24,-276.368C1636.65,-266.255 1668.84,-252.349 1689.29,-243.516"/>
<polygon fill="midnightblue" stroke="midnightblue" points="1611.6,-273.265 1603.81,-280.444 1614.37,-279.691 1611.6,-273.265"/>
</g>
<!-- Node3 -->
<g id="node3" class="node"><title>Node3</title>
<g id="a_node3"><a xlink:href="../../d1/d1b/VehicleParameters_8h.html" target="_top" xlink:title="VehicleParameters.h">
<polygon fill="white" stroke="black" points="610.5,-168.5 610.5,-187.5 717.5,-187.5 717.5,-168.5 610.5,-168.5"/>
<text text-anchor="middle" x="664" y="-175.5" font-family="Helvetica,sans-Serif" font-size="10.00">VehicleParameters.h</text>
</a>
</g>
</g>
<!-- Node2&#45;&gt;Node3 -->
<g id="edge2" class="edge"><title>Node2&#45;&gt;Node3</title>
<path fill="none" stroke="midnightblue" d="M1314.48,-227.786C1171.28,-217.046 846.136,-192.66 717.666,-183.025"/>
<polygon fill="midnightblue" stroke="midnightblue" points="1314.23,-231.277 1324.47,-228.535 1314.76,-224.297 1314.23,-231.277"/>
</g>
<!-- Node11 -->
<g id="node11" class="node"><title>Node11</title>
<g id="a_node11"><a xlink:href="../../d7/d78/InertialMeasurementUnit_8cpp.html" target="_top" xlink:title="InertialMeasurementUnit.cpp">
<polygon fill="white" stroke="black" points="1152,-56.5 1152,-75.5 1294,-75.5 1294,-56.5 1152,-56.5"/>
<text text-anchor="middle" x="1223" y="-63.5" font-family="Helvetica,sans-Serif" font-size="10.00">InertialMeasurementUnit.cpp</text>
</a>
</g>
</g>
<!-- Node2&#45;&gt;Node11 -->
<g id="edge15" class="edge"><title>Node2&#45;&gt;Node11</title>
<path fill="none" stroke="midnightblue" d="M1314.21,-229.552C1211.31,-223.745 1028.87,-210.4 1009,-188 955.962,-128.217 1095.01,-91.1534 1173.51,-75.558"/>
<polygon fill="midnightblue" stroke="midnightblue" points="1314.03,-233.048 1324.21,-230.107 1314.42,-226.058 1314.03,-233.048"/>
</g>
<!-- Node16 -->
<g id="node16" class="node"><title>Node16</title>
<g id="a_node16"><a xlink:href="../../db/d6c/CarlaServer_8cpp.html" target="_top" xlink:title="CarlaServer.cpp">
<polygon fill="white" stroke="black" points="1018.5,-168.5 1018.5,-187.5 1105.5,-187.5 1105.5,-168.5 1018.5,-168.5"/>
<text text-anchor="middle" x="1062" y="-175.5" font-family="Helvetica,sans-Serif" font-size="10.00">CarlaServer.cpp</text>
</a>
</g>
</g>
<!-- Node2&#45;&gt;Node16 -->
<g id="edge16" class="edge"><title>Node2&#45;&gt;Node16</title>
<path fill="none" stroke="midnightblue" d="M1322.73,-222.795C1268.21,-213.702 1186.28,-200.014 1115,-188 1111.96,-187.488 1108.83,-186.959 1105.67,-186.425"/>
<polygon fill="midnightblue" stroke="midnightblue" points="1322.49,-226.302 1332.93,-224.494 1323.64,-219.397 1322.49,-226.302"/>
</g>
<!-- Node17 -->
<g id="node17" class="node"><title>Node17</title>
<g id="a_node17"><a xlink:href="../../de/d45/RoutePlanner_8cpp.html" target="_top" xlink:title="RoutePlanner.cpp">
<polygon fill="white" stroke="black" points="1542.5,-168.5 1542.5,-187.5 1637.5,-187.5 1637.5,-168.5 1542.5,-168.5"/>
<text text-anchor="middle" x="1590" y="-175.5" font-family="Helvetica,sans-Serif" font-size="10.00">RoutePlanner.cpp</text>
</a>
</g>
</g>
<!-- Node2&#45;&gt;Node17 -->
<g id="edge17" class="edge"><title>Node2&#45;&gt;Node17</title>
<path fill="none" stroke="midnightblue" d="M1426.62,-221.829C1465.51,-211.633 1522.16,-196.782 1557.51,-187.516"/>
<polygon fill="midnightblue" stroke="midnightblue" points="1425.43,-218.522 1416.64,-224.444 1427.2,-225.293 1425.43,-218.522"/>
</g>
<!-- Node18 -->
<g id="node18" class="node"><title>Node18</title>
<g id="a_node18"><a xlink:href="../../d2/d40/TrafficLightBase_8cpp.html" target="_top" xlink:title="TrafficLightBase.cpp">
<polygon fill="white" stroke="black" points="1655.5,-168.5 1655.5,-187.5 1762.5,-187.5 1762.5,-168.5 1655.5,-168.5"/>
<text text-anchor="middle" x="1709" y="-175.5" font-family="Helvetica,sans-Serif" font-size="10.00">TrafficLightBase.cpp</text>
</a>
</g>
</g>
<!-- Node2&#45;&gt;Node18 -->
<g id="edge18" class="edge"><title>Node2&#45;&gt;Node18</title>
<path fill="none" stroke="midnightblue" d="M1445.44,-222.791C1506.86,-212.587 1600.2,-197.078 1657.74,-187.516"/>
<polygon fill="midnightblue" stroke="midnightblue" points="1444.79,-219.352 1435.5,-224.444 1445.94,-226.257 1444.79,-219.352"/>
</g>
<!-- Node19 -->
<g id="node19" class="node"><title>Node19</title>
<g id="a_node19"><a xlink:href="../../d8/de2/FrictionTrigger_8cpp.html" target="_top" xlink:title="FrictionTrigger.cpp">
<polygon fill="white" stroke="black" points="1124,-168.5 1124,-187.5 1222,-187.5 1222,-168.5 1124,-168.5"/>
<text text-anchor="middle" x="1173" y="-175.5" font-family="Helvetica,sans-Serif" font-size="10.00">FrictionTrigger.cpp</text>
</a>
</g>
</g>
<!-- Node2&#45;&gt;Node19 -->
<g id="edge19" class="edge"><title>Node2&#45;&gt;Node19</title>
<path fill="none" stroke="midnightblue" d="M1340.86,-221.959C1301.01,-211.76 1242.64,-196.822 1206.28,-187.516"/>
<polygon fill="midnightblue" stroke="midnightblue" points="1340.01,-225.355 1350.57,-224.444 1341.75,-218.573 1340.01,-225.355"/>
</g>
<!-- Node20 -->
<g id="node20" class="node"><title>Node20</title>
<g id="a_node20"><a xlink:href="../../dd/dd8/BoundingBoxCalculator_8cpp.html" target="_top" xlink:title="BoundingBoxCalculator.cpp">
<polygon fill="white" stroke="black" points="1240.5,-168.5 1240.5,-187.5 1377.5,-187.5 1377.5,-168.5 1240.5,-168.5"/>
<text text-anchor="middle" x="1309" y="-175.5" font-family="Helvetica,sans-Serif" font-size="10.00">BoundingBoxCalculator.cpp</text>
</a>
</g>
</g>
<!-- Node2&#45;&gt;Node20 -->
<g id="edge20" class="edge"><title>Node2&#45;&gt;Node20</title>
<path fill="none" stroke="midnightblue" d="M1363.69,-218.38C1350.14,-208.62 1332.76,-196.106 1321.27,-187.834"/>
<polygon fill="midnightblue" stroke="midnightblue" points="1361.79,-221.321 1371.95,-224.324 1365.88,-215.641 1361.79,-221.321"/>
</g>
<!-- Node21 -->
<g id="node21" class="node"><title>Node21</title>
<g id="a_node21"><a xlink:href="../../dc/d65/CarlaWheeledVehicle_8cpp.html" target="_top" xlink:title="CarlaWheeledVehicle.cpp">
<polygon fill="white" stroke="black" points="1395.5,-168.5 1395.5,-187.5 1524.5,-187.5 1524.5,-168.5 1395.5,-168.5"/>
<text text-anchor="middle" x="1460" y="-175.5" font-family="Helvetica,sans-Serif" font-size="10.00">CarlaWheeledVehicle.cpp</text>
</a>
</g>
</g>
<!-- Node2&#45;&gt;Node21 -->
<g id="edge21" class="edge"><title>Node2&#45;&gt;Node21</title>
<path fill="none" stroke="midnightblue" d="M1404.58,-218.38C1418.31,-208.62 1435.93,-196.106 1447.57,-187.834"/>
<polygon fill="midnightblue" stroke="midnightblue" points="1402.34,-215.679 1396.21,-224.324 1406.39,-221.385 1402.34,-215.679"/>
</g>
<!-- Node22 -->
<g id="node22" class="node"><title>Node22</title>
<g id="a_node22"><a xlink:href="../../d8/de0/WheeledVehicleAIController_8cpp.html" target="_top" xlink:title="WheeledVehicleAIController.cpp">
<polygon fill="white" stroke="black" points="1780,-168.5 1780,-187.5 1938,-187.5 1938,-168.5 1780,-168.5"/>
<text text-anchor="middle" x="1859" y="-175.5" font-family="Helvetica,sans-Serif" font-size="10.00">WheeledVehicleAIController.cpp</text>
</a>
</g>
</g>
<!-- Node2&#45;&gt;Node22 -->
<g id="edge22" class="edge"><title>Node2&#45;&gt;Node22</title>
<path fill="none" stroke="midnightblue" d="M1453.85,-225.059C1542.09,-215.028 1693.3,-197.837 1783.93,-187.534"/>
<polygon fill="midnightblue" stroke="midnightblue" points="1453.22,-221.608 1443.68,-226.216 1454.01,-228.563 1453.22,-221.608"/>
</g>
<!-- Node4 -->
<g id="node4" class="node"><title>Node4</title>
<g id="a_node4"><a xlink:href="../../d7/dda/ActorBlueprintFunctionLibrary_8h.html" target="_top" xlink:title="ActorBlueprintFunctionLibrary.h">
<polygon fill="white" stroke="black" points="576.5,-112.5 576.5,-131.5 729.5,-131.5 729.5,-112.5 576.5,-112.5"/>
<text text-anchor="middle" x="653" y="-119.5" font-family="Helvetica,sans-Serif" font-size="10.00">ActorBlueprintFunctionLibrary.h</text>
</a>
</g>
</g>
<!-- Node3&#45;&gt;Node4 -->
<g id="edge3" class="edge"><title>Node3&#45;&gt;Node4</title>
<path fill="none" stroke="midnightblue" d="M660.15,-158.101C658.324,-149.136 656.23,-138.858 654.783,-131.751"/>
<polygon fill="midnightblue" stroke="midnightblue" points="656.758,-158.983 662.184,-168.083 663.617,-157.586 656.758,-158.983"/>
</g>
<!-- Node5 -->
<g id="node5" class="node"><title>Node5</title>
<g id="a_node5"><a xlink:href="../../dd/d08/ActorBlueprintFunctionLibrary_8cpp.html" target="_top" xlink:title="ActorBlueprintFunctionLibrary.cpp">
<polygon fill="white" stroke="black" points="704,-56.5 704,-75.5 868,-75.5 868,-56.5 704,-56.5"/>
<text text-anchor="middle" x="786" y="-63.5" font-family="Helvetica,sans-Serif" font-size="10.00">ActorBlueprintFunctionLibrary.cpp</text>
</a>
</g>
</g>
<!-- Node4&#45;&gt;Node5 -->
<g id="edge4" class="edge"><title>Node4&#45;&gt;Node5</title>
<path fill="none" stroke="midnightblue" d="M683.448,-108.638C708.407,-98.504 743.077,-84.4274 765.024,-75.5164"/>
<polygon fill="midnightblue" stroke="midnightblue" points="682.023,-105.439 674.074,-112.444 684.656,-111.924 682.023,-105.439"/>
</g>
<!-- Node6 -->
<g id="node6" class="node"><title>Node6</title>
<g id="a_node6"><a xlink:href="../../d0/d6a/ActorDispatcher_8cpp.html" target="_top" xlink:title="ActorDispatcher.cpp">
<polygon fill="white" stroke="black" points="886,-56.5 886,-75.5 992,-75.5 992,-56.5 886,-56.5"/>
<text text-anchor="middle" x="939" y="-63.5" font-family="Helvetica,sans-Serif" font-size="10.00">ActorDispatcher.cpp</text>
</a>
</g>
</g>
<!-- Node4&#45;&gt;Node6 -->
<g id="edge5" class="edge"><title>Node4&#45;&gt;Node6</title>
<path fill="none" stroke="midnightblue" d="M708.414,-110.537C762.466,-100.332 843.671,-84.9992 893.894,-75.5164"/>
<polygon fill="midnightblue" stroke="midnightblue" points="707.495,-107.149 698.318,-112.444 708.793,-114.027 707.495,-107.149"/>
</g>
<!-- Node7 -->
<g id="node7" class="node"><title>Node7</title>
<g id="a_node7"><a xlink:href="../../d5/db8/CarlaBlueprintRegistry_8h.html" target="_top" xlink:title="CarlaBlueprintRegistry.h">
<polygon fill="white" stroke="black" points="1010.5,-56.5 1010.5,-75.5 1133.5,-75.5 1133.5,-56.5 1010.5,-56.5"/>
<text text-anchor="middle" x="1072" y="-63.5" font-family="Helvetica,sans-Serif" font-size="10.00">CarlaBlueprintRegistry.h</text>
</a>
</g>
</g>
<!-- Node4&#45;&gt;Node7 -->
<g id="edge6" class="edge"><title>Node4&#45;&gt;Node7</title>
<path fill="none" stroke="midnightblue" d="M729.492,-111.142C810.184,-100.742 935.768,-84.5574 1010.35,-74.9449"/>
<polygon fill="midnightblue" stroke="midnightblue" points="728.862,-107.694 719.392,-112.444 729.757,-114.637 728.862,-107.694"/>
</g>
<!-- Node9 -->
<g id="node9" class="node"><title>Node9</title>
<g id="a_node9"><a xlink:href="../../d1/d50/AIControllerFactory_8cpp.html" target="_top" xlink:title="AIControllerFactory.cpp">
<polygon fill="white" stroke="black" points="0,-56.5 0,-75.5 120,-75.5 120,-56.5 0,-56.5"/>
<text text-anchor="middle" x="60" y="-63.5" font-family="Helvetica,sans-Serif" font-size="10.00">AIControllerFactory.cpp</text>
</a>
</g>
</g>
<!-- Node4&#45;&gt;Node9 -->
<g id="edge8" class="edge"><title>Node4&#45;&gt;Node9</title>
<path fill="none" stroke="midnightblue" d="M565.952,-114.703C461.888,-106.904 282.523,-92.5963 129,-76 126.117,-75.6884 123.169,-75.3561 120.192,-75.0098"/>
<polygon fill="midnightblue" stroke="midnightblue" points="565.861,-118.206 576.093,-115.461 566.382,-111.226 565.861,-118.206"/>
</g>
<!-- Node10 -->
<g id="node10" class="node"><title>Node10</title>
<g id="a_node10"><a xlink:href="../../da/df0/CollisionSensor_8cpp.html" target="_top" xlink:title="CollisionSensor.cpp">
<polygon fill="white" stroke="black" points="138,-56.5 138,-75.5 242,-75.5 242,-56.5 138,-56.5"/>
<text text-anchor="middle" x="190" y="-63.5" font-family="Helvetica,sans-Serif" font-size="10.00">CollisionSensor.cpp</text>
</a>
</g>
</g>
<!-- Node4&#45;&gt;Node10 -->
<g id="edge9" class="edge"><title>Node4&#45;&gt;Node10</title>
<path fill="none" stroke="midnightblue" d="M566,-112.149C484.506,-103.648 359.363,-90.0547 251,-76 248.134,-75.6282 245.193,-75.2348 242.227,-74.8283"/>
<polygon fill="midnightblue" stroke="midnightblue" points="565.903,-115.658 576.212,-113.212 566.628,-108.696 565.903,-115.658"/>
</g>
<!-- Node4&#45;&gt;Node11 -->
<g id="edge10" class="edge"><title>Node4&#45;&gt;Node11</title>
<path fill="none" stroke="midnightblue" d="M739.826,-113.509C837.628,-104.954 1001.3,-90.2889 1142,-76 1145.24,-75.6712 1148.55,-75.3288 1151.89,-74.978"/>
<polygon fill="midnightblue" stroke="midnightblue" points="739.352,-110.037 729.694,-114.394 739.961,-117.01 739.352,-110.037"/>
</g>
<!-- Node12 -->
<g id="node12" class="node"><title>Node12</title>
<g id="a_node12"><a xlink:href="../../d2/d70/ObstacleDetectionSensor_8cpp.html" target="_top" xlink:title="ObstacleDetectionSensor.cpp">
<polygon fill="white" stroke="black" points="260.5,-56.5 260.5,-75.5 407.5,-75.5 407.5,-56.5 260.5,-56.5"/>
<text text-anchor="middle" x="334" y="-63.5" font-family="Helvetica,sans-Serif" font-size="10.00">ObstacleDetectionSensor.cpp</text>
</a>
</g>
</g>
<!-- Node4&#45;&gt;Node12 -->
<g id="edge11" class="edge"><title>Node4&#45;&gt;Node12</title>
<path fill="none" stroke="midnightblue" d="M592.316,-110.727C532.034,-100.523 440.678,-85.0583 384.31,-75.5164"/>
<polygon fill="midnightblue" stroke="midnightblue" points="592.01,-114.225 602.454,-112.444 593.178,-107.324 592.01,-114.225"/>
</g>
<!-- Node13 -->
<g id="node13" class="node"><title>Node13</title>
<g id="a_node13"><a xlink:href="../../d5/d99/Radar_8cpp.html" target="_top" xlink:title="Radar.cpp">
<polygon fill="white" stroke="black" points="426,-56.5 426,-75.5 488,-75.5 488,-56.5 426,-56.5"/>
<text text-anchor="middle" x="457" y="-63.5" font-family="Helvetica,sans-Serif" font-size="10.00">Radar.cpp</text>
</a>
</g>
</g>
<!-- Node4&#45;&gt;Node13 -->
<g id="edge12" class="edge"><title>Node4&#45;&gt;Node13</title>
<path fill="none" stroke="midnightblue" d="M611.98,-109.699C574.989,-99.507 521.4,-84.7429 487.911,-75.5164"/>
<polygon fill="midnightblue" stroke="midnightblue" points="611.373,-113.162 621.943,-112.444 613.232,-106.413 611.373,-113.162"/>
</g>
<!-- Node14 -->
<g id="node14" class="node"><title>Node14</title>
<g id="a_node14"><a xlink:href="../../df/dec/RayCastLidar_8cpp.html" target="_top" xlink:title="RayCastLidar.cpp">
<polygon fill="white" stroke="black" points="506.5,-56.5 506.5,-75.5 601.5,-75.5 601.5,-56.5 506.5,-56.5"/>
<text text-anchor="middle" x="554" y="-63.5" font-family="Helvetica,sans-Serif" font-size="10.00">RayCastLidar.cpp</text>
</a>
</g>
</g>
<!-- Node4&#45;&gt;Node14 -->
<g id="edge13" class="edge"><title>Node4&#45;&gt;Node14</title>
<path fill="none" stroke="midnightblue" d="M628.163,-107.453C609.886,-97.4835 585.584,-84.2279 569.867,-75.6545"/>
<polygon fill="midnightblue" stroke="midnightblue" points="626.639,-110.608 637.094,-112.324 629.991,-104.463 626.639,-110.608"/>
</g>
<!-- Node15 -->
<g id="node15" class="node"><title>Node15</title>
<g id="a_node15"><a xlink:href="../../d7/d16/Sensor_8cpp.html" target="_top" xlink:title="Sensor.cpp">
<polygon fill="white" stroke="black" points="620,-56.5 620,-75.5 686,-75.5 686,-56.5 620,-56.5"/>
<text text-anchor="middle" x="653" y="-63.5" font-family="Helvetica,sans-Serif" font-size="10.00">Sensor.cpp</text>
</a>
</g>
</g>
<!-- Node4&#45;&gt;Node15 -->
<g id="edge14" class="edge"><title>Node4&#45;&gt;Node15</title>
<path fill="none" stroke="midnightblue" d="M653,-101.805C653,-92.9102 653,-82.7798 653,-75.7511"/>
<polygon fill="midnightblue" stroke="midnightblue" points="649.5,-102.083 653,-112.083 656.5,-102.083 649.5,-102.083"/>
</g>
<!-- Node8 -->
<g id="node8" class="node"><title>Node8</title>
<g id="a_node8"><a xlink:href="../../d0/d3b/CarlaBlueprintRegistry_8cpp.html" target="_top" xlink:title="CarlaBlueprintRegistry.cpp">
<polygon fill="white" stroke="black" points="1005,-0.5 1005,-19.5 1139,-19.5 1139,-0.5 1005,-0.5"/>
<text text-anchor="middle" x="1072" y="-7.5" font-family="Helvetica,sans-Serif" font-size="10.00">CarlaBlueprintRegistry.cpp</text>
</a>
</g>
</g>
<!-- Node7&#45;&gt;Node8 -->
<g id="edge7" class="edge"><title>Node7&#45;&gt;Node8</title>
<path fill="none" stroke="midnightblue" d="M1072,-45.8045C1072,-36.9102 1072,-26.7798 1072,-19.7511"/>
<polygon fill="midnightblue" stroke="midnightblue" points="1068.5,-46.083 1072,-56.083 1075.5,-46.083 1068.5,-46.083"/>
</g>
<!-- Node23&#45;&gt;Node17 -->
<g id="edge25" class="edge"><title>Node23&#45;&gt;Node17</title>
<path fill="none" stroke="midnightblue" d="M1680.86,-220.232C1658.6,-210.131 1628.14,-196.309 1608.77,-187.516"/>
<polygon fill="midnightblue" stroke="midnightblue" points="1679.59,-223.498 1690.14,-224.444 1682.48,-217.124 1679.59,-223.498"/>
</g>
<!-- Node23&#45;&gt;Node18 -->
<g id="edge26" class="edge"><title>Node23&#45;&gt;Node18</title>
<path fill="none" stroke="midnightblue" d="M1709,-213.805C1709,-204.91 1709,-194.78 1709,-187.751"/>
<polygon fill="midnightblue" stroke="midnightblue" points="1705.5,-214.083 1709,-224.083 1712.5,-214.083 1705.5,-214.083"/>
</g>
<!-- Node23&#45;&gt;Node22 -->
<g id="edge27" class="edge"><title>Node23&#45;&gt;Node22</title>
<path fill="none" stroke="midnightblue" d="M1742.22,-221.039C1770.45,-210.879 1810.26,-196.546 1835.34,-187.516"/>
<polygon fill="midnightblue" stroke="midnightblue" points="1740.99,-217.763 1732.77,-224.444 1743.36,-224.349 1740.99,-217.763"/>
</g>
<!-- Node24 -->
<g id="node24" class="node"><title>Node24</title>
<g id="a_node24"><a xlink:href="../../d2/d32/CarlaReplayerHelper_8cpp.html" target="_top" xlink:title="CarlaReplayerHelper.cpp">
<polygon fill="white" stroke="black" points="1956,-168.5 1956,-187.5 2082,-187.5 2082,-168.5 1956,-168.5"/>
<text text-anchor="middle" x="2019" y="-175.5" font-family="Helvetica,sans-Serif" font-size="10.00">CarlaReplayerHelper.cpp</text>
</a>
</g>
</g>
<!-- Node23&#45;&gt;Node24 -->
<g id="edge24" class="edge"><title>Node23&#45;&gt;Node24</title>
<path fill="none" stroke="midnightblue" d="M1768.34,-222.664C1826.92,-212.459 1915.45,-197.039 1970.11,-187.516"/>
<polygon fill="midnightblue" stroke="midnightblue" points="1767.37,-219.279 1758.12,-224.444 1768.57,-226.175 1767.37,-219.279"/>
</g>
</g>
</svg>
