<?xml version="1.0" encoding="UTF-8" standalone="no"?>
<!DOCTYPE svg PUBLIC "-//W3C//DTD SVG 1.1//EN"
 "http://www.w3.org/Graphics/SVG/1.1/DTD/svg11.dtd">
<!-- Generated by graphviz version 2.40.1 (20161225.0304)
 -->
<!-- Title: Road.cpp Pages: 1 -->
<svg width="2658pt" height="643pt"
 viewBox="0.00 0.00 2658.00 643.00" xmlns="http://www.w3.org/2000/svg" xmlns:xlink="http://www.w3.org/1999/xlink">
<g id="graph0" class="graph" transform="scale(1 1) rotate(0) translate(4 639)">
<title>Road.cpp</title>
<polygon fill="#ffffff" stroke="transparent" points="-4,4 -4,-639 2654,-639 2654,4 -4,4"/>
<!-- Node0 -->
<g id="node1" class="node">
<title>Node0</title>
<polygon fill="#bfbfbf" stroke="#000000" points="649.5,-615.5 649.5,-634.5 710.5,-634.5 710.5,-615.5 649.5,-615.5"/>
<text text-anchor="middle" x="680" y="-622.5" font-family="Helvetica,sans-Serif" font-size="10.00" fill="#000000">Road.cpp</text>
</g>
<!-- Node1 -->
<g id="node2" class="node">
<title>Node1</title>
<g id="a_node2"><a xlink:href="../../d8/d8a/Exception_8h.html" target="_top" xlink:title="carla/Exception.h">
<polygon fill="#ffffff" stroke="#000000" points="86.5,-.5 86.5,-19.5 187.5,-19.5 187.5,-.5 86.5,-.5"/>
<text text-anchor="middle" x="137" y="-7.5" font-family="Helvetica,sans-Serif" font-size="10.00" fill="#000000">carla/Exception.h</text>
</a>
</g>
</g>
<!-- Node0&#45;&gt;Node1 -->
<g id="edge1" class="edge">
<title>Node0&#45;&gt;Node1</title>
<path fill="none" stroke="#191970" d="M649.3763,-624.0727C531.6717,-620.3266 112.2802,-605.2412 59,-579 23.7034,-561.616 0,-552.3453 0,-513 0,-513 0,-513 0,-127.5 0,-74.849 59.0216,-40.6938 99.5854,-23.4373"/>
<polygon fill="#191970" stroke="#191970" points="101.0127,-26.635 108.9454,-19.6119 98.3645,-20.1552 101.0127,-26.635"/>
</g>
<!-- Node2 -->
<g id="node3" class="node">
<title>Node2</title>
<g id="a_node3"><a xlink:href="../../db/dee/CubicPolynomial_8h.html" target="_top" xlink:title="carla/geom/CubicPolynomial.h">
<polygon fill="#ffffff" stroke="#000000" points="361.5,-185 361.5,-204 526.5,-204 526.5,-185 361.5,-185"/>
<text text-anchor="middle" x="444" y="-192" font-family="Helvetica,sans-Serif" font-size="10.00" fill="#000000">carla/geom/CubicPolynomial.h</text>
</a>
</g>
</g>
<!-- Node0&#45;&gt;Node2 -->
<g id="edge2" class="edge">
<title>Node0&#45;&gt;Node2</title>
<path fill="none" stroke="#191970" d="M649.1674,-622.2091C531.0559,-611.1118 114,-568.0305 114,-513 114,-513 114,-513 114,-328.5 114,-283.9329 133.6318,-270.2867 171,-246 200.3305,-226.9372 284.0704,-212.9427 351.1446,-204.3931"/>
<polygon fill="#191970" stroke="#191970" points="351.8443,-207.833 361.3329,-203.1196 350.976,-200.8871 351.8443,-207.833"/>
</g>
<!-- Node4 -->
<g id="node5" class="node">
<title>Node4</title>
<polygon fill="#ffffff" stroke="#bfbfbf" points="239.5,-.5 239.5,-19.5 304.5,-19.5 304.5,-.5 239.5,-.5"/>
<text text-anchor="middle" x="272" y="-7.5" font-family="Helvetica,sans-Serif" font-size="10.00" fill="#000000">stdexcept</text>
</g>
<!-- Node0&#45;&gt;Node4 -->
<g id="edge130" class="edge">
<title>Node0&#45;&gt;Node4</title>
<path fill="none" stroke="#191970" d="M649.3019,-623.8057C537.0327,-619.2673 152.6944,-602.1705 103,-579 65.6861,-561.602 38,-554.1705 38,-513 38,-513 38,-513 38,-127.5 38,-85.1254 162.0984,-42.1543 229.5481,-21.9282"/>
<polygon fill="#191970" stroke="#191970" points="230.8663,-25.1883 239.4633,-18.9963 228.8813,-18.4756 230.8663,-25.1883"/>
</g>
<!-- Node7 -->
<g id="node8" class="node">
<title>Node7</title>
<g id="a_node8"><a xlink:href="../../d9/d8b/geom_2Location_8h.html" target="_top" xlink:title="carla/geom/Location.h">
<polygon fill="#ffffff" stroke="#000000" points="646.5,-185 646.5,-204 771.5,-204 771.5,-185 646.5,-185"/>
<text text-anchor="middle" x="709" y="-192" font-family="Helvetica,sans-Serif" font-size="10.00" fill="#000000">carla/geom/Location.h</text>
</a>
</g>
</g>
<!-- Node0&#45;&gt;Node7 -->
<g id="edge8" class="edge">
<title>Node0&#45;&gt;Node7</title>
<path fill="none" stroke="#191970" d="M687.1412,-615.3011C693.3774,-606.3376 702.1662,-592.4164 707,-579 753.091,-451.0723 745.0758,-412.538 756,-277 757.1069,-263.2668 760.9806,-258.846 756,-246 750.6827,-232.2857 739.8237,-219.9874 729.882,-210.8508"/>
<polygon fill="#191970" stroke="#191970" points="732.0829,-208.1269 722.229,-204.2346 727.5049,-213.4224 732.0829,-208.1269"/>
</g>
<!-- Node22 -->
<g id="node14" class="node">
<title>Node22</title>
<g id="a_node14"><a xlink:href="../../db/d8a/Math_8h.html" target="_top" xlink:title="carla/geom/Math.h">
<polygon fill="#ffffff" stroke="#000000" points="510.5,-118 510.5,-137 617.5,-137 617.5,-118 510.5,-118"/>
<text text-anchor="middle" x="564" y="-125" font-family="Helvetica,sans-Serif" font-size="10.00" fill="#000000">carla/geom/Math.h</text>
</a>
</g>
</g>
<!-- Node0&#45;&gt;Node22 -->
<g id="edge23" class="edge">
<title>Node0&#45;&gt;Node22</title>
<path fill="none" stroke="#191970" d="M649.2303,-623.528C557.813,-618.9174 288.9882,-603.5813 205,-579 143.1913,-560.9101 76,-577.4015 76,-513 76,-513 76,-513 76,-261.5 76,-174.4811 368.1879,-141.8984 500.3815,-131.6101"/>
<polygon fill="#191970" stroke="#191970" points="500.6733,-135.0981 510.3795,-130.8508 500.1432,-128.1182 500.6733,-135.0981"/>
</g>
<!-- Node24 -->
<g id="node17" class="node">
<title>Node24</title>
<g id="a_node17"><a xlink:href="../../d4/d50/LibCarla_2source_2carla_2ListView_8h.html" target="_top" xlink:title="carla/ListView.h">
<polygon fill="#ffffff" stroke="#000000" points="1619.5,-118 1619.5,-137 1712.5,-137 1712.5,-118 1619.5,-118"/>
<text text-anchor="middle" x="1666" y="-125" font-family="Helvetica,sans-Serif" font-size="10.00" fill="#000000">carla/ListView.h</text>
</a>
</g>
</g>
<!-- Node0&#45;&gt;Node24 -->
<g id="edge24" class="edge">
<title>Node0&#45;&gt;Node24</title>
<path fill="none" stroke="#191970" d="M710.7424,-623.8432C827.8122,-618.1739 1253.7154,-585.9206 1543,-411 1636.3784,-354.5373 1666.7622,-317.7516 1684,-210 1686.1765,-196.3952 1686.3054,-192.5835 1684,-179 1682.1145,-167.8909 1678.0941,-155.9848 1674.3302,-146.4217"/>
<polygon fill="#191970" stroke="#191970" points="1677.5309,-145.0029 1670.4599,-137.1129 1671.0673,-147.6903 1677.5309,-145.0029"/>
</g>
<!-- Node11 -->
<g id="node19" class="node">
<title>Node11</title>
<g id="a_node19"><a xlink:href="../../de/d87/Logging_8h.html" target="_top" xlink:title="carla/Logging.h">
<polygon fill="#ffffff" stroke="#000000" points="1539.5,-559.5 1539.5,-578.5 1630.5,-578.5 1630.5,-559.5 1539.5,-559.5"/>
<text text-anchor="middle" x="1585" y="-566.5" font-family="Helvetica,sans-Serif" font-size="10.00" fill="#000000">carla/Logging.h</text>
</a>
</g>
</g>
<!-- Node0&#45;&gt;Node11 -->
<g id="edge28" class="edge">
<title>Node0&#45;&gt;Node11</title>
<path fill="none" stroke="#191970" d="M710.7945,-624.5542C821.2958,-622.6931 1208.1053,-613.9248 1525,-579 1526.299,-578.8568 1527.6126,-578.7042 1528.9363,-578.5432"/>
<polygon fill="#191970" stroke="#191970" points="1529.763,-581.9639 1539.2103,-577.1681 1528.8343,-575.0257 1529.763,-581.9639"/>
</g>
<!-- Node26 -->
<g id="node22" class="node">
<title>Node26</title>
<g id="a_node22"><a xlink:href="../../d7/d90/RoadInfoElevation_8h.html" target="_top" xlink:title="carla/road/element\l/RoadInfoElevation.h">
<polygon fill="#ffffff" stroke="#000000" points="307.5,-246.5 307.5,-276.5 424.5,-276.5 424.5,-246.5 307.5,-246.5"/>
<text text-anchor="start" x="315.5" y="-264.5" font-family="Helvetica,sans-Serif" font-size="10.00" fill="#000000">carla/road/element</text>
<text text-anchor="middle" x="366" y="-253.5" font-family="Helvetica,sans-Serif" font-size="10.00" fill="#000000">/RoadInfoElevation.h</text>
</a>
</g>
</g>
<!-- Node0&#45;&gt;Node26 -->
<g id="edge31" class="edge">
<title>Node0&#45;&gt;Node26</title>
<path fill="none" stroke="#191970" d="M649.2764,-615.6972C608.0651,-601.0922 540,-568.5604 540,-513 540,-513 540,-513 540,-395.5 540,-336.5768 476.5909,-299.9619 426.3294,-280.1943"/>
<polygon fill="#191970" stroke="#191970" points="427.3871,-276.8523 416.7958,-276.5808 424.9061,-283.3979 427.3871,-276.8523"/>
</g>
<!-- Node33 -->
<g id="node29" class="node">
<title>Node33</title>
<g id="a_node29"><a xlink:href="../../d0/d8e/RoadInfoGeometry_8h.html" target="_top" xlink:title="carla/road/element\l/RoadInfoGeometry.h">
<polygon fill="#ffffff" stroke="#000000" points="306.5,-313.5 306.5,-343.5 425.5,-343.5 425.5,-313.5 306.5,-313.5"/>
<text text-anchor="start" x="314.5" y="-331.5" font-family="Helvetica,sans-Serif" font-size="10.00" fill="#000000">carla/road/element</text>
<text text-anchor="middle" x="366" y="-320.5" font-family="Helvetica,sans-Serif" font-size="10.00" fill="#000000">/RoadInfoGeometry.h</text>
</a>
</g>
</g>
<!-- Node0&#45;&gt;Node33 -->
<g id="edge39" class="edge">
<title>Node0&#45;&gt;Node33</title>
<path fill="none" stroke="#191970" d="M649.257,-618.9507C578.8621,-604.2202 412,-563.9317 412,-513 412,-513 412,-513 412,-457 412,-418.7597 393.7193,-377.6662 380.2063,-352.5138"/>
<polygon fill="#191970" stroke="#191970" points="383.2232,-350.7372 375.3088,-343.6935 377.1033,-354.1353 383.2232,-350.7372"/>
</g>
<!-- Node39 -->
<g id="node31" class="node">
<title>Node39</title>
<g id="a_node31"><a xlink:href="../../db/d26/RoadInfoLaneOffset_8h.html" target="_top" xlink:title="carla/road/element\l/RoadInfoLaneOffset.h">
<polygon fill="#ffffff" stroke="#000000" points="481,-246.5 481,-276.5 605,-276.5 605,-246.5 481,-246.5"/>
<text text-anchor="start" x="489" y="-264.5" font-family="Helvetica,sans-Serif" font-size="10.00" fill="#000000">carla/road/element</text>
<text text-anchor="middle" x="543" y="-253.5" font-family="Helvetica,sans-Serif" font-size="10.00" fill="#000000">/RoadInfoLaneOffset.h</text>
</a>
</g>
</g>
<!-- Node0&#45;&gt;Node39 -->
<g id="edge46" class="edge">
<title>Node0&#45;&gt;Node39</title>
<path fill="none" stroke="#191970" d="M677.1965,-615.2066C671.9113,-595.8521 661,-551.2612 661,-513 661,-513 661,-513 661,-395.5 661,-345.2054 613.6007,-304.8369 578.8845,-282.0151"/>
<polygon fill="#191970" stroke="#191970" points="580.6839,-279.0116 570.3682,-276.5956 576.9257,-284.9172 580.6839,-279.0116"/>
</g>
<!-- Node40 -->
<g id="node32" class="node">
<title>Node40</title>
<g id="a_node32"><a xlink:href="../../d1/d16/RoadInfoLaneWidth_8h.html" target="_top" xlink:title="carla/road/element\l/RoadInfoLaneWidth.h">
<polygon fill="#ffffff" stroke="#000000" points="623.5,-246.5 623.5,-276.5 746.5,-276.5 746.5,-246.5 623.5,-246.5"/>
<text text-anchor="start" x="631.5" y="-264.5" font-family="Helvetica,sans-Serif" font-size="10.00" fill="#000000">carla/road/element</text>
<text text-anchor="middle" x="685" y="-253.5" font-family="Helvetica,sans-Serif" font-size="10.00" fill="#000000">/RoadInfoLaneWidth.h</text>
</a>
</g>
</g>
<!-- Node0&#45;&gt;Node40 -->
<g id="edge49" class="edge">
<title>Node0&#45;&gt;Node40</title>
<path fill="none" stroke="#191970" d="M682.8035,-615.2066C688.0887,-595.8521 699,-551.2612 699,-513 699,-513 699,-513 699,-395.5 699,-357.4676 693.3522,-313.6903 689.231,-286.8086"/>
<polygon fill="#191970" stroke="#191970" points="692.6543,-286.0484 687.6333,-276.7189 685.7405,-287.1433 692.6543,-286.0484"/>
</g>
<!-- Node41 -->
<g id="node33" class="node">
<title>Node41</title>
<g id="a_node33"><a xlink:href="../../d8/d27/Lane_8h.html" target="_top" xlink:title="carla/road/Lane.h">
<polygon fill="#ffffff" stroke="#000000" points="1276.5,-319 1276.5,-338 1377.5,-338 1377.5,-319 1276.5,-319"/>
<text text-anchor="middle" x="1327" y="-326" font-family="Helvetica,sans-Serif" font-size="10.00" fill="#000000">carla/road/Lane.h</text>
</a>
</g>
</g>
<!-- Node0&#45;&gt;Node41 -->
<g id="edge52" class="edge">
<title>Node0&#45;&gt;Node41</title>
<path fill="none" stroke="#191970" d="M700.7941,-615.4707C795.2759,-572.1726 1184.3429,-393.8753 1296.5691,-342.4455"/>
<polygon fill="#191970" stroke="#191970" points="1298.3255,-345.4907 1305.9582,-338.1428 1295.4092,-339.1271 1298.3255,-345.4907"/>
</g>
<!-- Node51 -->
<g id="node40" class="node">
<title>Node51</title>
<g id="a_node40"><a xlink:href="../../d5/db7/MapData_8h.html" target="_top" xlink:title="carla/road/MapData.h">
<polygon fill="#ffffff" stroke="#000000" points="2151.5,-559.5 2151.5,-578.5 2272.5,-578.5 2272.5,-559.5 2151.5,-559.5"/>
<text text-anchor="middle" x="2212" y="-566.5" font-family="Helvetica,sans-Serif" font-size="10.00" fill="#000000">carla/road/MapData.h</text>
</a>
</g>
</g>
<!-- Node0&#45;&gt;Node51 -->
<g id="edge77" class="edge">
<title>Node0&#45;&gt;Node51</title>
<path fill="none" stroke="#191970" d="M710.6023,-623.8814C895.8847,-617.1087 1868.7326,-581.5476 2141.0836,-571.5922"/>
<polygon fill="#191970" stroke="#191970" points="2141.3736,-575.0841 2151.2391,-571.221 2141.1179,-568.0887 2141.3736,-575.0841"/>
</g>
<!-- Node61 -->
<g id="node47" class="node">
<title>Node61</title>
<g id="a_node47"><a xlink:href="../../db/d48/Road_8h.html" target="_top" xlink:title="carla/road/Road.h">
<polygon fill="#ffffff" stroke="#000000" points="1652.5,-503.5 1652.5,-522.5 1753.5,-522.5 1753.5,-503.5 1652.5,-503.5"/>
<text text-anchor="middle" x="1703" y="-510.5" font-family="Helvetica,sans-Serif" font-size="10.00" fill="#000000">carla/road/Road.h</text>
</a>
</g>
</g>
<!-- Node0&#45;&gt;Node61 -->
<g id="edge129" class="edge">
<title>Node0&#45;&gt;Node61</title>
<path fill="none" stroke="#191970" d="M710.5954,-624.8781C864.9065,-624.0843 1553.8126,-618.3465 1640,-579 1662.1643,-568.8815 1680.4374,-547.0962 1691.494,-531.3164"/>
<polygon fill="#191970" stroke="#191970" points="1694.5028,-533.1132 1697.1449,-522.853 1688.6812,-529.2261 1694.5028,-533.1132"/>
</g>
<!-- Node3 -->
<g id="node4" class="node">
<title>Node3</title>
<g id="a_node4"><a xlink:href="../../d4/deb/Debug_8h.html" target="_top" xlink:title="carla/Debug.h">
<polygon fill="#ffffff" stroke="#000000" points="324,-56.5 324,-75.5 408,-75.5 408,-56.5 324,-56.5"/>
<text text-anchor="middle" x="366" y="-63.5" font-family="Helvetica,sans-Serif" font-size="10.00" fill="#000000">carla/Debug.h</text>
</a>
</g>
</g>
<!-- Node2&#45;&gt;Node3 -->
<g id="edge3" class="edge">
<title>Node2&#45;&gt;Node3</title>
<path fill="none" stroke="#191970" d="M438.1373,-184.8416C425.2067,-163.5393 394.0559,-112.2203 377.2311,-84.5025"/>
<polygon fill="#191970" stroke="#191970" points="380.1116,-82.5027 371.9307,-75.7705 374.1277,-86.135 380.1116,-82.5027"/>
</g>
<!-- Node6 -->
<g id="node7" class="node">
<title>Node6</title>
<polygon fill="#ffffff" stroke="#bfbfbf" points="636,-118 636,-137 678,-137 678,-118 636,-118"/>
<text text-anchor="middle" x="657" y="-125" font-family="Helvetica,sans-Serif" font-size="10.00" fill="#000000">array</text>
</g>
<!-- Node2&#45;&gt;Node6 -->
<g id="edge7" class="edge">
<title>Node2&#45;&gt;Node6</title>
<path fill="none" stroke="#191970" d="M487.3317,-184.931C524.9327,-176.0117 580.4834,-161.3429 627,-143 628.1964,-142.5282 629.4081,-142.0235 630.6236,-141.4949"/>
<polygon fill="#191970" stroke="#191970" points="632.2939,-144.5764 639.8277,-137.1271 629.2928,-138.2523 632.2939,-144.5764"/>
</g>
<!-- Node3&#45;&gt;Node1 -->
<g id="edge4" class="edge">
<title>Node3&#45;&gt;Node1</title>
<path fill="none" stroke="#191970" d="M326.8937,-56.4369C287.8668,-46.8932 227.8035,-32.2052 185.7038,-21.9101"/>
<polygon fill="#191970" stroke="#191970" points="186.4902,-18.4993 175.945,-19.5237 184.8274,-25.299 186.4902,-18.4993"/>
</g>
<!-- Node3&#45;&gt;Node4 -->
<g id="edge5" class="edge">
<title>Node3&#45;&gt;Node4</title>
<path fill="none" stroke="#191970" d="M349.6264,-56.2455C335.0692,-47.5731 313.569,-34.7645 296.8848,-24.825"/>
<polygon fill="#191970" stroke="#191970" points="298.5683,-21.7539 288.1859,-19.6427 294.9856,-27.7676 298.5683,-21.7539"/>
</g>
<!-- Node5 -->
<g id="node6" class="node">
<title>Node5</title>
<polygon fill="#ffffff" stroke="#bfbfbf" points="340,-.5 340,-19.5 392,-19.5 392,-.5 340,-.5"/>
<text text-anchor="middle" x="366" y="-7.5" font-family="Helvetica,sans-Serif" font-size="10.00" fill="#000000">cassert</text>
</g>
<!-- Node3&#45;&gt;Node5 -->
<g id="edge6" class="edge">
<title>Node3&#45;&gt;Node5</title>
<path fill="none" stroke="#191970" d="M366,-56.2455C366,-48.9382 366,-38.6944 366,-29.7046"/>
<polygon fill="#191970" stroke="#191970" points="369.5001,-29.6426 366,-19.6427 362.5001,-29.6427 369.5001,-29.6426"/>
</g>
<!-- Node8 -->
<g id="node9" class="node">
<title>Node8</title>
<g id="a_node9"><a xlink:href="../../de/d70/geom_2Vector3D_8h.html" target="_top" xlink:title="carla/geom/Vector3D.h">
<polygon fill="#ffffff" stroke="#000000" points="809,-56.5 809,-75.5 937,-75.5 937,-56.5 809,-56.5"/>
<text text-anchor="middle" x="873" y="-63.5" font-family="Helvetica,sans-Serif" font-size="10.00" fill="#000000">carla/geom/Vector3D.h</text>
</a>
</g>
</g>
<!-- Node7&#45;&gt;Node8 -->
<g id="edge9" class="edge">
<title>Node7&#45;&gt;Node8</title>
<path fill="none" stroke="#191970" d="M714.7299,-184.9312C725.1254,-168.242 748.5744,-133.5395 776,-112 793.7244,-98.0796 816.3467,-87.0465 835.2853,-79.279"/>
<polygon fill="#191970" stroke="#191970" points="836.7934,-82.4464 844.8077,-75.5167 834.2212,-75.9362 836.7934,-82.4464"/>
</g>
<!-- Node21 -->
<g id="node13" class="node">
<title>Node21</title>
<g id="a_node13"><a xlink:href="../../d1/da4/Vector3DInt_8h.html" target="_top" xlink:title="carla/geom/Vector3DInt.h">
<polygon fill="#ffffff" stroke="#000000" points="651,-56.5 651,-75.5 791,-75.5 791,-56.5 651,-56.5"/>
<text text-anchor="middle" x="721" y="-63.5" font-family="Helvetica,sans-Serif" font-size="10.00" fill="#000000">carla/geom/Vector3DInt.h</text>
</a>
</g>
</g>
<!-- Node7&#45;&gt;Node21 -->
<g id="edge13" class="edge">
<title>Node7&#45;&gt;Node21</title>
<path fill="none" stroke="#191970" d="M709.902,-184.8416C711.8565,-163.9114 716.5171,-114.004 719.1345,-85.9762"/>
<polygon fill="#191970" stroke="#191970" points="722.6425,-86.0526 720.0876,-75.7705 715.6729,-85.4017 722.6425,-86.0526"/>
</g>
<!-- Node7&#45;&gt;Node22 -->
<g id="edge17" class="edge">
<title>Node7&#45;&gt;Node22</title>
<path fill="none" stroke="#191970" d="M688.225,-184.9005C663.5677,-173.5072 622.2549,-154.4178 594.0982,-141.4075"/>
<polygon fill="#191970" stroke="#191970" points="595.2823,-138.099 584.7364,-137.0817 592.3461,-144.4535 595.2823,-138.099"/>
</g>
<!-- Node9 -->
<g id="node10" class="node">
<title>Node9</title>
<g id="a_node10"><a xlink:href="../../d9/d6f/MsgPack_8h.html" target="_top" xlink:title="carla/MsgPack.h">
<polygon fill="#ffffff" stroke="#ff0000" points="1281.5,-.5 1281.5,-19.5 1376.5,-19.5 1376.5,-.5 1281.5,-.5"/>
<text text-anchor="middle" x="1329" y="-7.5" font-family="Helvetica,sans-Serif" font-size="10.00" fill="#000000">carla/MsgPack.h</text>
</a>
</g>
</g>
<!-- Node8&#45;&gt;Node9 -->
<g id="edge10" class="edge">
<title>Node8&#45;&gt;Node9</title>
<path fill="none" stroke="#191970" d="M937.3665,-58.0953C1026.4231,-47.1586 1185.877,-27.5765 1271.2704,-17.0896"/>
<polygon fill="#191970" stroke="#191970" points="1271.8085,-20.5499 1281.3073,-15.857 1270.9553,-13.6021 1271.8085,-20.5499"/>
</g>
<!-- Node20 -->
<g id="node11" class="node">
<title>Node20</title>
<polygon fill="#ffffff" stroke="#bfbfbf" points="697.5,-.5 697.5,-19.5 744.5,-19.5 744.5,-.5 697.5,-.5"/>
<text text-anchor="middle" x="721" y="-7.5" font-family="Helvetica,sans-Serif" font-size="10.00" fill="#000000">cmath</text>
</g>
<!-- Node8&#45;&gt;Node20 -->
<g id="edge11" class="edge">
<title>Node8&#45;&gt;Node20</title>
<path fill="none" stroke="#191970" d="M846.8703,-56.3733C821.3185,-46.9594 782.3014,-32.5847 754.4858,-22.3369"/>
<polygon fill="#191970" stroke="#191970" points="755.3839,-18.9378 744.7905,-18.7649 752.9639,-25.5062 755.3839,-18.9378"/>
</g>
<!-- Node16 -->
<g id="node12" class="node">
<title>Node16</title>
<polygon fill="#ffffff" stroke="#bfbfbf" points="807,-.5 807,-19.5 851,-19.5 851,-.5 807,-.5"/>
<text text-anchor="middle" x="829" y="-7.5" font-family="Helvetica,sans-Serif" font-size="10.00" fill="#000000">limits</text>
</g>
<!-- Node8&#45;&gt;Node16 -->
<g id="edge12" class="edge">
<title>Node8&#45;&gt;Node16</title>
<path fill="none" stroke="#191970" d="M865.3358,-56.2455C859.1527,-48.3761 850.2937,-37.101 842.8711,-27.6542"/>
<polygon fill="#191970" stroke="#191970" points="845.5068,-25.3435 836.5764,-19.6427 840.0025,-29.6683 845.5068,-25.3435"/>
</g>
<!-- Node21&#45;&gt;Node9 -->
<g id="edge14" class="edge">
<title>Node21&#45;&gt;Node9</title>
<path fill="none" stroke="#191970" d="M791.1946,-56.9697C794.1684,-56.6329 797.1132,-56.3081 800,-56 970.9173,-37.7583 1173.4879,-21.6868 1270.9339,-14.3011"/>
<polygon fill="#191970" stroke="#191970" points="1271.4525,-17.772 1281.1605,-13.5287 1270.9253,-10.7919 1271.4525,-17.772"/>
</g>
<!-- Node21&#45;&gt;Node20 -->
<g id="edge15" class="edge">
<title>Node21&#45;&gt;Node20</title>
<path fill="none" stroke="#191970" d="M721,-56.2455C721,-48.9382 721,-38.6944 721,-29.7046"/>
<polygon fill="#191970" stroke="#191970" points="724.5001,-29.6426 721,-19.6427 717.5001,-29.6427 724.5001,-29.6426"/>
</g>
<!-- Node21&#45;&gt;Node16 -->
<g id="edge16" class="edge">
<title>Node21&#45;&gt;Node16</title>
<path fill="none" stroke="#191970" d="M739.8122,-56.2455C756.8473,-47.4125 782.1575,-34.2887 801.4681,-24.2758"/>
<polygon fill="#191970" stroke="#191970" points="803.137,-27.353 810.4034,-19.6427 799.9147,-21.1388 803.137,-27.353"/>
</g>
<!-- Node22&#45;&gt;Node3 -->
<g id="edge18" class="edge">
<title>Node22&#45;&gt;Node3</title>
<path fill="none" stroke="#191970" d="M533.0625,-117.8906C498.9163,-107.2846 443.8326,-90.1753 406.3265,-78.5257"/>
<polygon fill="#191970" stroke="#191970" points="407.3084,-75.1658 396.7203,-75.5419 405.232,-81.8507 407.3084,-75.1658"/>
</g>
<!-- Node22&#45;&gt;Node8 -->
<g id="edge19" class="edge">
<title>Node22&#45;&gt;Node8</title>
<path fill="none" stroke="#191970" d="M601.23,-117.9717C609.6816,-115.9114 618.6332,-113.81 627,-112 687.7856,-98.8501 757.504,-86.0243 807.1624,-77.2712"/>
<polygon fill="#191970" stroke="#191970" points="807.8865,-80.6977 817.1307,-75.5213 806.6761,-73.8031 807.8865,-80.6977"/>
</g>
<!-- Node22&#45;&gt;Node20 -->
<g id="edge20" class="edge">
<title>Node22&#45;&gt;Node20</title>
<path fill="none" stroke="#191970" d="M563.1901,-117.833C562.4757,-102.7003 563.3995,-73.3569 579,-56 593.5675,-39.7925 650.2847,-25.0263 687.4806,-16.8031"/>
<polygon fill="#191970" stroke="#191970" points="688.3665,-20.1926 697.4029,-14.6615 686.8895,-13.3502 688.3665,-20.1926"/>
</g>
<!-- Node18 -->
<g id="node15" class="node">
<title>Node18</title>
<polygon fill="#ffffff" stroke="#bfbfbf" points="1518.5,-56.5 1518.5,-75.5 1587.5,-75.5 1587.5,-56.5 1518.5,-56.5"/>
<text text-anchor="middle" x="1553" y="-63.5" font-family="Helvetica,sans-Serif" font-size="10.00" fill="#000000">type_traits</text>
</g>
<!-- Node22&#45;&gt;Node18 -->
<g id="edge21" class="edge">
<title>Node22&#45;&gt;Node18</title>
<path fill="none" stroke="#191970" d="M597.7678,-117.9297C607.1608,-115.6137 617.4155,-113.4039 627,-112 800.1784,-86.6342 1347.3897,-71.1687 1508.1651,-67.0883"/>
<polygon fill="#191970" stroke="#191970" points="1508.2795,-70.5867 1518.1882,-66.8361 1508.1033,-63.5889 1508.2795,-70.5867"/>
</g>
<!-- Node23 -->
<g id="node16" class="node">
<title>Node23</title>
<polygon fill="#ffffff" stroke="#bfbfbf" points="587.5,-56.5 587.5,-75.5 632.5,-75.5 632.5,-56.5 587.5,-56.5"/>
<text text-anchor="middle" x="610" y="-63.5" font-family="Helvetica,sans-Serif" font-size="10.00" fill="#000000">utility</text>
</g>
<!-- Node22&#45;&gt;Node23 -->
<g id="edge22" class="edge">
<title>Node22&#45;&gt;Node23</title>
<path fill="none" stroke="#191970" d="M571.1875,-117.8906C577.9666,-108.8273 588.2978,-95.0149 596.5973,-83.9188"/>
<polygon fill="#191970" stroke="#191970" points="599.5243,-85.849 602.7112,-75.7449 593.9188,-81.6563 599.5243,-85.849"/>
</g>
<!-- Node24&#45;&gt;Node3 -->
<g id="edge25" class="edge">
<title>Node24&#45;&gt;Node3</title>
<path fill="none" stroke="#191970" d="M1619.4624,-122.8127C1583.7926,-119.3685 1533.33,-114.8162 1489,-112 1085.0535,-86.3377 983.3827,-93.4911 579,-76 524.1602,-73.628 461.3916,-70.649 418.2759,-68.5619"/>
<polygon fill="#191970" stroke="#191970" points="418.1851,-65.0535 408.0272,-68.0647 417.8458,-72.0452 418.1851,-65.0535"/>
</g>
<!-- Node24&#45;&gt;Node18 -->
<g id="edge26" class="edge">
<title>Node24&#45;&gt;Node18</title>
<path fill="none" stroke="#191970" d="M1648.3438,-117.8906C1629.8514,-107.8262 1600.599,-91.9057 1579.3692,-80.3514"/>
<polygon fill="#191970" stroke="#191970" points="1580.9888,-77.2481 1570.5323,-75.5419 1577.6425,-83.3965 1580.9888,-77.2481"/>
</g>
<!-- Node25 -->
<g id="node18" class="node">
<title>Node25</title>
<polygon fill="#ffffff" stroke="#bfbfbf" points="1622.5,-56.5 1622.5,-75.5 1675.5,-75.5 1675.5,-56.5 1622.5,-56.5"/>
<text text-anchor="middle" x="1649" y="-63.5" font-family="Helvetica,sans-Serif" font-size="10.00" fill="#000000">iterator</text>
</g>
<!-- Node24&#45;&gt;Node25 -->
<g id="edge27" class="edge">
<title>Node24&#45;&gt;Node25</title>
<path fill="none" stroke="#191970" d="M1663.3438,-117.8906C1660.9625,-109.276 1657.3952,-96.3708 1654.414,-85.5858"/>
<polygon fill="#191970" stroke="#191970" points="1657.7316,-84.4509 1651.6937,-75.7449 1650.9846,-86.3159 1657.7316,-84.4509"/>
</g>
<!-- Node12 -->
<g id="node20" class="node">
<title>Node12</title>
<g id="a_node20"><a xlink:href="../../d9/dd0/Platform_8h.html" target="_top" xlink:title="carla/Platform.h">
<polygon fill="#ffffff" stroke="#000000" points="1539.5,-503.5 1539.5,-522.5 1634.5,-522.5 1634.5,-503.5 1539.5,-503.5"/>
<text text-anchor="middle" x="1587" y="-510.5" font-family="Helvetica,sans-Serif" font-size="10.00" fill="#000000">carla/Platform.h</text>
</a>
</g>
</g>
<!-- Node11&#45;&gt;Node12 -->
<g id="edge29" class="edge">
<title>Node11&#45;&gt;Node12</title>
<path fill="none" stroke="#191970" d="M1585.3484,-559.2455C1585.6093,-551.9382 1585.9752,-541.6944 1586.2963,-532.7046"/>
<polygon fill="#191970" stroke="#191970" points="1589.7964,-532.7613 1586.6556,-522.6427 1582.8008,-532.5113 1589.7964,-532.7613"/>
</g>
<!-- Node13 -->
<g id="node21" class="node">
<title>Node13</title>
<polygon fill="#ffffff" stroke="#bfbfbf" points="993,-252 993,-271 1053,-271 1053,-252 993,-252"/>
<text text-anchor="middle" x="1023" y="-259" font-family="Helvetica,sans-Serif" font-size="10.00" fill="#000000">iostream</text>
</g>
<!-- Node11&#45;&gt;Node13 -->
<g id="edge30" class="edge">
<title>Node11&#45;&gt;Node13</title>
<path fill="none" stroke="#191970" d="M1539.0877,-564.4036C1407.9366,-550.6612 1041,-507.6836 1041,-457 1041,-457 1041,-457 1041,-395.5 1041,-354.6059 1032.6635,-307.3117 1027.3372,-281.2681"/>
<polygon fill="#191970" stroke="#191970" points="1030.6998,-280.2516 1025.2072,-271.1918 1023.8511,-281.6995 1030.6998,-280.2516"/>
</g>
<!-- Node26&#45;&gt;Node2 -->
<g id="edge38" class="edge">
<title>Node26&#45;&gt;Node2</title>
<path fill="none" stroke="#191970" d="M383.6994,-246.2967C396.0881,-235.6551 412.6135,-221.4602 425.2315,-210.6217"/>
<polygon fill="#191970" stroke="#191970" points="427.5712,-213.2259 432.8763,-204.055 423.01,-207.9159 427.5712,-213.2259"/>
</g>
<!-- Node27 -->
<g id="node23" class="node">
<title>Node27</title>
<g id="a_node23"><a xlink:href="../../de/d3a/RoadInfo_8h.html" target="_top" xlink:title="carla/road/element\l/RoadInfo.h">
<polygon fill="#ffffff" stroke="#000000" points="789.5,-179.5 789.5,-209.5 898.5,-209.5 898.5,-179.5 789.5,-179.5"/>
<text text-anchor="start" x="797.5" y="-197.5" font-family="Helvetica,sans-Serif" font-size="10.00" fill="#000000">carla/road/element</text>
<text text-anchor="middle" x="844" y="-186.5" font-family="Helvetica,sans-Serif" font-size="10.00" fill="#000000">/RoadInfo.h</text>
</a>
</g>
</g>
<!-- Node26&#45;&gt;Node27 -->
<g id="edge32" class="edge">
<title>Node26&#45;&gt;Node27</title>
<path fill="none" stroke="#191970" d="M424.5517,-252.6259C439.9723,-250.3743 456.6025,-248.0223 472,-246 605.872,-228.4176 643.2011,-234.2697 779.4691,-210.1524"/>
<polygon fill="#191970" stroke="#191970" points="780.2281,-213.5722 789.454,-208.3634 778.9935,-206.6819 780.2281,-213.5722"/>
</g>
<!-- Node28 -->
<g id="node24" class="node">
<title>Node28</title>
<g id="a_node24"><a xlink:href="../../d6/d67/RoadInfoVisitor_8h.html" target="_top" xlink:title="carla/road/element\l/RoadInfoVisitor.h">
<polygon fill="#ffffff" stroke="#000000" points="784.5,-112.5 784.5,-142.5 893.5,-142.5 893.5,-112.5 784.5,-112.5"/>
<text text-anchor="start" x="792.5" y="-130.5" font-family="Helvetica,sans-Serif" font-size="10.00" fill="#000000">carla/road/element</text>
<text text-anchor="middle" x="839" y="-119.5" font-family="Helvetica,sans-Serif" font-size="10.00" fill="#000000">/RoadInfoVisitor.h</text>
</a>
</g>
</g>
<!-- Node27&#45;&gt;Node28 -->
<g id="edge33" class="edge">
<title>Node27&#45;&gt;Node28</title>
<path fill="none" stroke="#191970" d="M842.8654,-179.2967C842.2837,-171.5013 841.5596,-161.7991 840.896,-152.9064"/>
<polygon fill="#191970" stroke="#191970" points="844.3647,-152.3549 840.1301,-142.6432 837.3841,-152.8759 844.3647,-152.3549"/>
</g>
<!-- Node29 -->
<g id="node25" class="node">
<title>Node29</title>
<g id="a_node25"><a xlink:href="../../d4/dd8/LibCarla_2source_2carla_2NonCopyable_8h.html" target="_top" xlink:title="carla/NonCopyable.h">
<polygon fill="#ffffff" stroke="#000000" points="1891,-118 1891,-137 2009,-137 2009,-118 1891,-118"/>
<text text-anchor="middle" x="1950" y="-125" font-family="Helvetica,sans-Serif" font-size="10.00" fill="#000000">carla/NonCopyable.h</text>
</a>
</g>
</g>
<!-- Node27&#45;&gt;Node29 -->
<g id="edge34" class="edge">
<title>Node27&#45;&gt;Node29</title>
<path fill="none" stroke="#191970" d="M898.8346,-187.6899C924.9023,-184.6529 956.5225,-181.2587 985,-179 1311.9194,-153.0706 1394.6119,-162.1225 1722,-143 1775.3924,-139.8814 1835.7754,-135.7492 1880.9819,-132.5357"/>
<polygon fill="#191970" stroke="#191970" points="1881.2432,-136.026 1890.9688,-131.8232 1880.745,-129.0438 1881.2432,-136.026"/>
</g>
<!-- Node30 -->
<g id="node26" class="node">
<title>Node30</title>
<polygon fill="#ffffff" stroke="#bfbfbf" points="912,-118 912,-137 950,-137 950,-118 912,-118"/>
<text text-anchor="middle" x="931" y="-125" font-family="Helvetica,sans-Serif" font-size="10.00" fill="#000000">map</text>
</g>
<!-- Node27&#45;&gt;Node30 -->
<g id="edge35" class="edge">
<title>Node27&#45;&gt;Node30</title>
<path fill="none" stroke="#191970" d="M863.7416,-179.2967C877.6915,-168.5537 896.3435,-154.1895 910.4668,-143.3129"/>
<polygon fill="#191970" stroke="#191970" points="912.8055,-145.9295 918.5928,-137.055 908.5344,-140.3835 912.8055,-145.9295"/>
</g>
<!-- Node31 -->
<g id="node27" class="node">
<title>Node31</title>
<polygon fill="#ffffff" stroke="#bfbfbf" points="2192,-118 2192,-137 2236,-137 2236,-118 2192,-118"/>
<text text-anchor="middle" x="2214" y="-125" font-family="Helvetica,sans-Serif" font-size="10.00" fill="#000000">string</text>
</g>
<!-- Node27&#45;&gt;Node31 -->
<g id="edge36" class="edge">
<title>Node27&#45;&gt;Node31</title>
<path fill="none" stroke="#191970" d="M898.821,-187.5113C924.8858,-184.4353 956.5075,-181.0597 985,-179 1443.1942,-145.878 1559.353,-169.1145 2018,-143 2075.7836,-139.7099 2143.0062,-133.9784 2181.815,-130.4829"/>
<polygon fill="#191970" stroke="#191970" points="2182.3337,-133.9503 2191.9762,-129.5602 2181.7006,-126.979 2182.3337,-133.9503"/>
</g>
<!-- Node32 -->
<g id="node28" class="node">
<title>Node32</title>
<polygon fill="#ffffff" stroke="#bfbfbf" points="1221.5,-118 1221.5,-137 1268.5,-137 1268.5,-118 1221.5,-118"/>
<text text-anchor="middle" x="1245" y="-125" font-family="Helvetica,sans-Serif" font-size="10.00" fill="#000000">vector</text>
</g>
<!-- Node27&#45;&gt;Node32 -->
<g id="edge37" class="edge">
<title>Node27&#45;&gt;Node32</title>
<path fill="none" stroke="#191970" d="M898.9165,-185.3244C983.1793,-171.2456 1141.8721,-144.7308 1211.1778,-133.1511"/>
<polygon fill="#191970" stroke="#191970" points="1211.8359,-136.5897 1221.1223,-131.4895 1210.6822,-129.6855 1211.8359,-136.5897"/>
</g>
<!-- Node33&#45;&gt;Node3 -->
<g id="edge40" class="edge">
<title>Node33&#45;&gt;Node3</title>
<path fill="none" stroke="#191970" d="M306.1294,-320.7386C255.113,-312.7511 187.5049,-298.4298 171,-277 109.6649,-197.3632 265.7313,-112.3544 334.9329,-79.7801"/>
<polygon fill="#191970" stroke="#191970" points="336.4873,-82.9174 344.0893,-75.5377 333.5445,-76.5659 336.4873,-82.9174"/>
</g>
<!-- Node33&#45;&gt;Node27 -->
<g id="edge45" class="edge">
<title>Node33&#45;&gt;Node27</title>
<path fill="none" stroke="#191970" d="M425.7979,-325.0768C520.1767,-318.9311 698.8261,-304.0717 756,-277 784.688,-263.4163 810.2536,-236.9974 826.3376,-217.7037"/>
<polygon fill="#191970" stroke="#191970" points="829.2671,-219.6473 832.8345,-209.6712 823.8245,-215.2452 829.2671,-219.6473"/>
</g>
<!-- Node34 -->
<g id="node30" class="node">
<title>Node34</title>
<g id="a_node30"><a xlink:href="../../d3/d8b/Geometry_8h.html" target="_top" xlink:title="carla/road/element\l/Geometry.h">
<polygon fill="#ffffff" stroke="#ff0000" points="180.5,-246.5 180.5,-276.5 289.5,-276.5 289.5,-246.5 180.5,-246.5"/>
<text text-anchor="start" x="188.5" y="-264.5" font-family="Helvetica,sans-Serif" font-size="10.00" fill="#000000">carla/road/element</text>
<text text-anchor="middle" x="235" y="-253.5" font-family="Helvetica,sans-Serif" font-size="10.00" fill="#000000">/Geometry.h</text>
</a>
</g>
</g>
<!-- Node33&#45;&gt;Node34 -->
<g id="edge41" class="edge">
<title>Node33&#45;&gt;Node34</title>
<path fill="none" stroke="#191970" d="M336.601,-313.4639C318.0226,-303.9619 293.809,-291.5779 273.6801,-281.283"/>
<polygon fill="#191970" stroke="#191970" points="275.251,-278.1552 264.7541,-276.7177 272.0635,-284.3874 275.251,-278.1552"/>
</g>
<!-- Node34&#45;&gt;Node2 -->
<g id="edge44" class="edge">
<title>Node34&#45;&gt;Node2</title>
<path fill="none" stroke="#191970" d="M281.9037,-246.4639C318.8183,-234.63 369.6777,-218.3258 404.5261,-207.1543"/>
<polygon fill="#191970" stroke="#191970" points="405.895,-210.391 414.3492,-204.0053 403.758,-203.7251 405.895,-210.391"/>
</g>
<!-- Node34&#45;&gt;Node7 -->
<g id="edge42" class="edge">
<title>Node34&#45;&gt;Node7</title>
<path fill="none" stroke="#191970" d="M289.5513,-247.666C292.4021,-247.0724 295.2311,-246.5123 298,-246 415.6035,-224.2414 553.8686,-209.0182 636.3136,-201.0222"/>
<polygon fill="#191970" stroke="#191970" points="636.7135,-204.5 646.3328,-200.0594 636.0439,-197.5321 636.7135,-204.5"/>
</g>
<!-- Node34&#45;&gt;Node22 -->
<g id="edge43" class="edge">
<title>Node34&#45;&gt;Node22</title>
<path fill="none" stroke="#191970" d="M251.9514,-246.3906C273.6399,-227.8408 313.0752,-196.6746 352,-179 399.4125,-157.4714 457.0416,-144.2132 500.2405,-136.5513"/>
<polygon fill="#191970" stroke="#191970" points="501.0769,-139.959 510.3392,-134.8151 499.8907,-133.0602 501.0769,-139.959"/>
</g>
<!-- Node39&#45;&gt;Node2 -->
<g id="edge48" class="edge">
<title>Node39&#45;&gt;Node2</title>
<path fill="none" stroke="#191970" d="M520.5354,-246.2967C504.3619,-235.351 482.6339,-220.6462 466.4612,-209.701"/>
<polygon fill="#191970" stroke="#191970" points="468.3619,-206.7612 458.1185,-204.055 464.4386,-212.5584 468.3619,-206.7612"/>
</g>
<!-- Node39&#45;&gt;Node27 -->
<g id="edge47" class="edge">
<title>Node39&#45;&gt;Node27</title>
<path fill="none" stroke="#191970" d="M605.2702,-248.0711C664.4043,-235.3124 747.9842,-217.2618 779.3597,-210.2955"/>
<polygon fill="#191970" stroke="#191970" points="780.4006,-213.6488 789.3867,-208.0363 778.862,-206.82 780.4006,-213.6488"/>
</g>
<!-- Node40&#45;&gt;Node2 -->
<g id="edge51" class="edge">
<title>Node40&#45;&gt;Node2</title>
<path fill="none" stroke="#191970" d="M630.9149,-246.4639C587.8002,-234.4776 528.1889,-217.9052 487.9748,-206.7254"/>
<polygon fill="#191970" stroke="#191970" points="488.7628,-203.3117 478.1907,-204.0053 486.8878,-210.056 488.7628,-203.3117"/>
</g>
<!-- Node40&#45;&gt;Node27 -->
<g id="edge50" class="edge">
<title>Node40&#45;&gt;Node27</title>
<path fill="none" stroke="#191970" d="M720.6827,-246.4639C743.7192,-236.7567 773.8941,-224.0415 798.6286,-213.6188"/>
<polygon fill="#191970" stroke="#191970" points="800.3055,-216.7103 808.1617,-209.6017 797.5873,-210.2596 800.3055,-216.7103"/>
</g>
<!-- Node41&#45;&gt;Node13 -->
<g id="edge75" class="edge">
<title>Node41&#45;&gt;Node13</title>
<path fill="none" stroke="#191970" d="M1283.7671,-318.9717C1224.9716,-306.0135 1120.5805,-283.0062 1063.331,-270.3887"/>
<polygon fill="#191970" stroke="#191970" points="1063.7304,-266.8928 1053.2114,-268.1584 1062.2237,-273.7288 1063.7304,-266.8928"/>
</g>
<!-- Node41&#45;&gt;Node32 -->
<g id="edge74" class="edge">
<title>Node41&#45;&gt;Node32</title>
<path fill="none" stroke="#191970" d="M1302.8469,-318.9646C1285.4101,-310.6841 1263.0624,-296.8734 1252,-277 1228.9158,-235.5298 1235.2103,-177.1257 1240.7111,-147.067"/>
<polygon fill="#191970" stroke="#191970" points="1244.1895,-147.5211 1242.7175,-137.029 1237.3252,-146.149 1244.1895,-147.5211"/>
</g>
<!-- Node42 -->
<g id="node34" class="node">
<title>Node42</title>
<g id="a_node34"><a xlink:href="../../d9/d31/Mesh_8h.html" target="_top" xlink:title="carla/geom/Mesh.h">
<polygon fill="#ffffff" stroke="#ff0000" points="993.5,-185 993.5,-204 1102.5,-204 1102.5,-185 993.5,-185"/>
<text text-anchor="middle" x="1048" y="-192" font-family="Helvetica,sans-Serif" font-size="10.00" fill="#000000">carla/geom/Mesh.h</text>
</a>
</g>
</g>
<!-- Node41&#45;&gt;Node42 -->
<g id="edge53" class="edge">
<title>Node41&#45;&gt;Node42</title>
<path fill="none" stroke="#191970" d="M1306.6836,-318.8459C1284.9657,-308.518 1249.5292,-291.6434 1219,-277 1169.093,-253.062 1111.0824,-225.0308 1077.0731,-208.5762"/>
<polygon fill="#191970" stroke="#191970" points="1078.2602,-205.2624 1067.7341,-204.0569 1075.2109,-211.5634 1078.2602,-205.2624"/>
</g>
<!-- Node44 -->
<g id="node35" class="node">
<title>Node44</title>
<g id="a_node35"><a xlink:href="../../de/d17/geom_2Transform_8h.html" target="_top" xlink:title="carla/geom/Transform.h">
<polygon fill="#ffffff" stroke="#ff0000" points="1261,-252 1261,-271 1393,-271 1393,-252 1261,-252"/>
<text text-anchor="middle" x="1327" y="-259" font-family="Helvetica,sans-Serif" font-size="10.00" fill="#000000">carla/geom/Transform.h</text>
</a>
</g>
</g>
<!-- Node41&#45;&gt;Node44 -->
<g id="edge56" class="edge">
<title>Node41&#45;&gt;Node44</title>
<path fill="none" stroke="#191970" d="M1327,-318.9005C1327,-309.149 1327,-293.7597 1327,-281.3695"/>
<polygon fill="#191970" stroke="#191970" points="1330.5001,-281.0816 1327,-271.0817 1323.5001,-281.0817 1330.5001,-281.0816"/>
</g>
<!-- Node46 -->
<g id="node36" class="node">
<title>Node46</title>
<g id="a_node36"><a xlink:href="../../d2/d56/InformationSet_8h.html" target="_top" xlink:title="carla/road/InformationSet.h">
<polygon fill="#ffffff" stroke="#ff0000" points="1487,-252 1487,-271 1637,-271 1637,-252 1487,-252"/>
<text text-anchor="middle" x="1562" y="-259" font-family="Helvetica,sans-Serif" font-size="10.00" fill="#000000">carla/road/InformationSet.h</text>
</a>
</g>
</g>
<!-- Node41&#45;&gt;Node46 -->
<g id="edge60" class="edge">
<title>Node41&#45;&gt;Node46</title>
<path fill="none" stroke="#191970" d="M1360.6698,-318.9005C1402.2021,-307.0594 1472.8914,-286.9054 1518.4987,-273.9025"/>
<polygon fill="#191970" stroke="#191970" points="1519.7356,-277.1894 1528.3927,-271.0817 1517.8162,-270.4577 1519.7356,-277.1894"/>
</g>
<!-- Node17 -->
<g id="node38" class="node">
<title>Node17</title>
<polygon fill="#ffffff" stroke="#bfbfbf" points="1422,-118 1422,-137 1480,-137 1480,-118 1422,-118"/>
<text text-anchor="middle" x="1451" y="-125" font-family="Helvetica,sans-Serif" font-size="10.00" fill="#000000">memory</text>
</g>
<!-- Node41&#45;&gt;Node17 -->
<g id="edge76" class="edge">
<title>Node41&#45;&gt;Node17</title>
<path fill="none" stroke="#191970" d="M1347.9596,-318.902C1364.7984,-310.192 1387.8906,-295.8362 1402,-277 1431.9111,-237.0686 1444.0844,-178.0073 1448.6043,-147.4458"/>
<polygon fill="#191970" stroke="#191970" points="1452.1144,-147.6058 1449.9829,-137.2276 1445.1772,-146.6698 1452.1144,-147.6058"/>
</g>
<!-- Node50 -->
<g id="node39" class="node">
<title>Node50</title>
<g id="a_node39"><a xlink:href="../../d6/dbb/RoadTypes_8h.html" target="_top" xlink:title="carla/road/RoadTypes.h">
<polygon fill="#ffffff" stroke="#ff0000" points="2111.5,-252 2111.5,-271 2240.5,-271 2240.5,-252 2111.5,-252"/>
<text text-anchor="middle" x="2176" y="-259" font-family="Helvetica,sans-Serif" font-size="10.00" fill="#000000">carla/road/RoadTypes.h</text>
</a>
</g>
</g>
<!-- Node41&#45;&gt;Node50 -->
<g id="edge72" class="edge">
<title>Node41&#45;&gt;Node50</title>
<path fill="none" stroke="#191970" d="M1377.5663,-324.5095C1521.0856,-313.1835 1931.5153,-280.7938 2101.1924,-267.4035"/>
<polygon fill="#191970" stroke="#191970" points="2101.5918,-270.883 2111.2854,-266.607 2101.041,-263.9047 2101.5918,-270.883"/>
</g>
<!-- Node42&#45;&gt;Node8 -->
<g id="edge55" class="edge">
<title>Node42&#45;&gt;Node8</title>
<path fill="none" stroke="#191970" d="M1039.3242,-184.9965C1024.1323,-168.7079 991.2523,-134.993 959,-112 941.7121,-99.6752 920.7273,-88.3881 903.8147,-80.0789"/>
<polygon fill="#191970" stroke="#191970" points="904.9152,-76.7245 894.3862,-75.5454 901.8818,-83.0331 904.9152,-76.7245"/>
</g>
<!-- Node42&#45;&gt;Node32 -->
<g id="edge54" class="edge">
<title>Node42&#45;&gt;Node32</title>
<path fill="none" stroke="#191970" d="M1076.2253,-184.9005C1112.0679,-172.7104 1173.8146,-151.7103 1211.8573,-138.7719"/>
<polygon fill="#191970" stroke="#191970" points="1213.1123,-142.042 1221.4527,-135.5085 1210.8583,-135.4148 1213.1123,-142.042"/>
</g>
<!-- Node44&#45;&gt;Node7 -->
<g id="edge58" class="edge">
<title>Node44&#45;&gt;Node7</title>
<path fill="none" stroke="#191970" d="M1260.713,-257.7788C1157.6558,-251.4245 952.9669,-236.5257 781,-210 773.8759,-208.9011 766.3979,-207.5346 759.0673,-206.0715"/>
<polygon fill="#191970" stroke="#191970" points="759.7111,-202.6306 749.2095,-204.0327 758.2933,-209.4856 759.7111,-202.6306"/>
</g>
<!-- Node44&#45;&gt;Node9 -->
<g id="edge57" class="edge">
<title>Node44&#45;&gt;Node9</title>
<path fill="none" stroke="#191970" d="M1393.3458,-255.1055C1489.957,-245.318 1660.4692,-226.0662 1684,-210 1722.5803,-183.6584 1735.445,-156.7387 1722,-112 1713.4145,-83.4314 1710.3105,-71.7879 1685,-56 1636.4902,-25.7411 1474.6358,-15.2268 1386.8339,-11.6981"/>
<polygon fill="#191970" stroke="#191970" points="1386.8916,-8.1978 1376.7645,-11.311 1386.6227,-15.1926 1386.8916,-8.1978"/>
</g>
<!-- Node44&#45;&gt;Node22 -->
<g id="edge59" class="edge">
<title>Node44&#45;&gt;Node22</title>
<path fill="none" stroke="#191970" d="M1307.74,-251.8936C1270.8261,-233.9894 1187.1026,-195.8135 1112,-179 901.0726,-131.7788 840.4676,-176.9382 627,-143 621.0139,-142.0483 614.7607,-140.8118 608.6172,-139.4523"/>
<polygon fill="#191970" stroke="#191970" points="608.9822,-135.9434 598.4482,-137.0769 607.3898,-142.7599 608.9822,-135.9434"/>
</g>
<!-- Node46&#45;&gt;Node27 -->
<g id="edge69" class="edge">
<title>Node46&#45;&gt;Node27</title>
<path fill="none" stroke="#191970" d="M1486.7258,-254.0443C1459.98,-251.4385 1429.6525,-248.533 1402,-246 1216.7528,-229.0313 1170.1337,-228.1647 985,-210 960.0162,-207.5487 932.5725,-204.5919 908.5893,-201.9209"/>
<polygon fill="#191970" stroke="#191970" points="908.8672,-198.4302 898.5399,-200.796 908.0885,-205.3868 908.8672,-198.4302"/>
</g>
<!-- Node46&#45;&gt;Node29 -->
<g id="edge61" class="edge">
<title>Node46&#45;&gt;Node29</title>
<path fill="none" stroke="#191970" d="M1604.6774,-251.9223C1644.1287,-242.6438 1704.1562,-227.4438 1755,-210 1815.0053,-189.413 1882.7263,-159.0902 1920.4905,-141.5139"/>
<polygon fill="#191970" stroke="#191970" points="1922.2969,-144.5328 1929.8699,-137.1234 1919.3292,-138.193 1922.2969,-144.5328"/>
</g>
<!-- Node46&#45;&gt;Node32 -->
<g id="edge70" class="edge">
<title>Node46&#45;&gt;Node32</title>
<path fill="none" stroke="#191970" d="M1539.4563,-251.9705C1484.0251,-228.539 1340.9459,-168.0576 1276.8629,-140.9688"/>
<polygon fill="#191970" stroke="#191970" points="1278.2145,-137.7404 1267.6409,-137.0706 1275.489,-144.188 1278.2145,-137.7404"/>
</g>
<!-- Node47 -->
<g id="node37" class="node">
<title>Node47</title>
<g id="a_node37"><a xlink:href="../../d3/d81/RoadElementSet_8h.html" target="_top" xlink:title="carla/road/RoadElementSet.h">
<polygon fill="#ffffff" stroke="#ff0000" points="1517,-185 1517,-204 1675,-204 1675,-185 1517,-185"/>
<text text-anchor="middle" x="1596" y="-192" font-family="Helvetica,sans-Serif" font-size="10.00" fill="#000000">carla/road/RoadElementSet.h</text>
</a>
</g>
</g>
<!-- Node46&#45;&gt;Node47 -->
<g id="edge62" class="edge">
<title>Node46&#45;&gt;Node47</title>
<path fill="none" stroke="#191970" d="M1566.8714,-251.9005C1571.9714,-241.8505 1580.1102,-225.8122 1586.49,-213.2403"/>
<polygon fill="#191970" stroke="#191970" points="1589.7334,-214.583 1591.1377,-204.0817 1583.4912,-211.4153 1589.7334,-214.583"/>
</g>
<!-- Node46&#45;&gt;Node17 -->
<g id="edge71" class="edge">
<title>Node46&#45;&gt;Node17</title>
<path fill="none" stroke="#191970" d="M1550.5931,-251.8546C1539.1899,-241.9386 1521.4615,-225.7619 1508,-210 1490.2566,-189.2245 1472.8465,-162.9166 1462.0293,-145.6672"/>
<polygon fill="#191970" stroke="#191970" points="1464.9736,-143.7737 1456.7377,-137.1088 1459.0197,-147.455 1464.9736,-143.7737"/>
</g>
<!-- Node47&#45;&gt;Node18 -->
<g id="edge68" class="edge">
<title>Node47&#45;&gt;Node18</title>
<path fill="none" stroke="#191970" d="M1592.2066,-184.6806C1588.2588,-174.3574 1581.9705,-157.6167 1577,-143 1570.3977,-123.585 1563.4949,-101.1835 1558.7961,-85.5667"/>
<polygon fill="#191970" stroke="#191970" points="1562.0152,-84.1144 1555.8001,-75.5341 1555.3079,-86.1175 1562.0152,-84.1144"/>
</g>
<!-- Node47&#45;&gt;Node24 -->
<g id="edge63" class="edge">
<title>Node47&#45;&gt;Node24</title>
<path fill="none" stroke="#191970" d="M1606.0293,-184.9005C1617.1531,-174.2535 1635.2987,-156.8856 1648.721,-144.0385"/>
<polygon fill="#191970" stroke="#191970" points="1651.1852,-146.5247 1655.9893,-137.0817 1646.345,-141.4678 1651.1852,-146.5247"/>
</g>
<!-- Node47&#45;&gt;Node25 -->
<g id="edge65" class="edge">
<title>Node47&#45;&gt;Node25</title>
<path fill="none" stroke="#191970" d="M1596.1909,-184.8758C1596.8394,-168.9791 1599.5856,-136.554 1611,-112 1615.978,-101.2917 1624.058,-90.9985 1631.4901,-82.8742"/>
<polygon fill="#191970" stroke="#191970" points="1634.1434,-85.1649 1638.5674,-75.5379 1629.1055,-80.3049 1634.1434,-85.1649"/>
</g>
<!-- Node47&#45;&gt;Node29 -->
<g id="edge64" class="edge">
<title>Node47&#45;&gt;Node29</title>
<path fill="none" stroke="#191970" d="M1646.3436,-184.9717C1710.3451,-172.8584 1820.7429,-151.9639 1889.3245,-138.9838"/>
<polygon fill="#191970" stroke="#191970" points="1890.3691,-142.3483 1899.5438,-137.0496 1889.0673,-135.4704 1890.3691,-142.3483"/>
</g>
<!-- Node47&#45;&gt;Node32 -->
<g id="edge67" class="edge">
<title>Node47&#45;&gt;Node32</title>
<path fill="none" stroke="#191970" d="M1546.083,-184.9717C1473.6217,-171.14 1341.1796,-145.8591 1278.9749,-133.9852"/>
<polygon fill="#191970" stroke="#191970" points="1279.3883,-130.501 1268.9094,-132.0639 1278.0758,-137.3769 1279.3883,-130.501"/>
</g>
<!-- Node47&#45;&gt;Node17 -->
<g id="edge66" class="edge">
<title>Node47&#45;&gt;Node17</title>
<path fill="none" stroke="#191970" d="M1575.225,-184.9005C1550.5677,-173.5072 1509.2549,-154.4178 1481.0982,-141.4075"/>
<polygon fill="#191970" stroke="#191970" points="1482.2823,-138.099 1471.7364,-137.0817 1479.3461,-144.4535 1482.2823,-138.099"/>
</g>
<!-- Node50&#45;&gt;Node31 -->
<g id="edge73" class="edge">
<title>Node50&#45;&gt;Node31</title>
<path fill="none" stroke="#191970" d="M2178.7329,-251.8631C2184.9499,-229.9398 2200.2503,-175.9858 2208.5063,-146.8727"/>
<polygon fill="#191970" stroke="#191970" points="2211.9308,-147.6252 2211.2919,-137.0496 2205.1964,-145.7154 2211.9308,-147.6252"/>
</g>
<!-- Node51&#45;&gt;Node24 -->
<g id="edge82" class="edge">
<title>Node51&#45;&gt;Node24</title>
<path fill="none" stroke="#191970" d="M2195.681,-559.5C2166.9379,-542.472 2105.8897,-504.972 2059,-467 1916.6038,-351.6854 1912.2057,-286.7459 1764,-179 1743.2922,-163.9454 1717.6017,-150.6144 1697.7201,-141.2891"/>
<polygon fill="#191970" stroke="#191970" points="1699.0222,-138.0357 1688.4739,-137.0431 1696.1008,-144.397 1699.0222,-138.0357"/>
</g>
<!-- Node51&#45;&gt;Node27 -->
<g id="edge87" class="edge">
<title>Node51&#45;&gt;Node27</title>
<path fill="none" stroke="#191970" d="M2151.3322,-566.7206C1911.0977,-557.354 1034.0942,-519.8131 922,-467 881.4876,-447.9126 851,-440.2837 851,-395.5 851,-395.5 851,-395.5 851,-328.5 851,-290.6219 848.1761,-246.8029 846.1155,-219.8702"/>
<polygon fill="#191970" stroke="#191970" points="849.5935,-219.4526 845.3166,-209.7594 842.6153,-220.004 849.5935,-219.4526"/>
</g>
<!-- Node51&#45;&gt;Node29 -->
<g id="edge83" class="edge">
<title>Node51&#45;&gt;Node29</title>
<path fill="none" stroke="#191970" d="M2217.607,-559.4834C2228.1774,-540.6141 2250,-496.8343 2250,-457 2250,-457 2250,-457 2250,-395.5 2250,-329.0556 2287.3694,-300.9399 2250,-246 2220.725,-202.9603 2075.7648,-159.9399 1998.5751,-139.6074"/>
<polygon fill="#191970" stroke="#191970" points="1999.1641,-136.1441 1988.6045,-137.008 1997.3981,-142.9177 1999.1641,-136.1441"/>
</g>
<!-- Node51&#45;&gt;Node50 -->
<g id="edge120" class="edge">
<title>Node51&#45;&gt;Node50</title>
<path fill="none" stroke="#191970" d="M2272.8561,-562.6869C2307.9727,-556.7425 2351.6405,-545.2359 2385,-523 2444.5456,-483.3098 2503.3474,-436.1632 2459,-380 2416.2447,-325.8531 2371.6443,-370.6328 2308,-344 2265.6293,-326.2694 2221.3367,-295.7178 2196.3502,-277.1844"/>
<polygon fill="#191970" stroke="#191970" points="2198.4484,-274.383 2188.3522,-271.1708 2194.2416,-279.978 2198.4484,-274.383"/>
</g>
<!-- Node52 -->
<g id="node41" class="node">
<title>Node52</title>
<g id="a_node41"><a xlink:href="../../d7/d86/GeoLocation_8h.html" target="_top" xlink:title="carla/geom/GeoLocation.h">
<polygon fill="#ffffff" stroke="#000000" points="2506,-503.5 2506,-522.5 2650,-522.5 2650,-503.5 2506,-503.5"/>
<text text-anchor="middle" x="2578" y="-510.5" font-family="Helvetica,sans-Serif" font-size="10.00" fill="#000000">carla/geom/GeoLocation.h</text>
</a>
</g>
</g>
<!-- Node51&#45;&gt;Node52 -->
<g id="edge78" class="edge">
<title>Node51&#45;&gt;Node52</title>
<path fill="none" stroke="#191970" d="M2272.8483,-559.6899C2336.845,-549.898 2437.5214,-534.494 2505.5689,-524.0824"/>
<polygon fill="#191970" stroke="#191970" points="2506.4255,-527.4921 2515.7811,-522.5198 2505.3668,-520.5726 2506.4255,-527.4921"/>
</g>
<!-- Node53 -->
<g id="node42" class="node">
<title>Node53</title>
<g id="a_node42"><a xlink:href="../../d7/ddd/Iterator_8h.html" target="_top" xlink:title="carla/Iterator.h">
<polygon fill="#ffffff" stroke="#000000" points="2316,-447.5 2316,-466.5 2404,-466.5 2404,-447.5 2316,-447.5"/>
<text text-anchor="middle" x="2360" y="-454.5" font-family="Helvetica,sans-Serif" font-size="10.00" fill="#000000">carla/Iterator.h</text>
</a>
</g>
</g>
<!-- Node51&#45;&gt;Node53 -->
<g id="edge80" class="edge">
<title>Node51&#45;&gt;Node53</title>
<path fill="none" stroke="#191970" d="M2236.7611,-559.3669C2255.7113,-551.306 2281.9175,-538.6235 2302,-523 2319.9467,-509.038 2336.6582,-488.9585 2347.4881,-474.6194"/>
<polygon fill="#191970" stroke="#191970" points="2350.3254,-476.669 2353.4297,-466.5391 2344.6859,-472.5221 2350.3254,-476.669"/>
</g>
<!-- Node54 -->
<g id="node43" class="node">
<title>Node54</title>
<polygon fill="#ffffff" stroke="#bfbfbf" points="2316,-380.5 2316,-410.5 2450,-410.5 2450,-380.5 2316,-380.5"/>
<text text-anchor="start" x="2324" y="-398.5" font-family="Helvetica,sans-Serif" font-size="10.00" fill="#000000">boost/iterator/transform</text>
<text text-anchor="middle" x="2383" y="-387.5" font-family="Helvetica,sans-Serif" font-size="10.00" fill="#000000">_iterator.hpp</text>
</g>
<!-- Node51&#45;&gt;Node54 -->
<g id="edge127" class="edge">
<title>Node51&#45;&gt;Node54</title>
<path fill="none" stroke="#191970" d="M2264.7966,-559.4631C2313.7636,-547.409 2383.3883,-521.2761 2413,-467 2421.4358,-451.5378 2413.4114,-433.2033 2403.549,-418.9718"/>
<polygon fill="#191970" stroke="#191970" points="2406.1225,-416.5719 2397.3015,-410.7032 2400.5375,-420.7918 2406.1225,-416.5719"/>
</g>
<!-- Node55 -->
<g id="node44" class="node">
<title>Node55</title>
<g id="a_node44"><a xlink:href="../../de/d4a/Controller_8h.html" target="_top" xlink:title="carla/road/Controller.h">
<polygon fill="#ffffff" stroke="#ff0000" points="2316.5,-319 2316.5,-338 2441.5,-338 2441.5,-319 2316.5,-319"/>
<text text-anchor="middle" x="2379" y="-326" font-family="Helvetica,sans-Serif" font-size="10.00" fill="#000000">carla/road/Controller.h</text>
</a>
</g>
</g>
<!-- Node51&#45;&gt;Node55 -->
<g id="edge84" class="edge">
<title>Node51&#45;&gt;Node55</title>
<path fill="none" stroke="#191970" d="M2226.8214,-559.3691C2238.5065,-551.0518 2254.3839,-538.0249 2264,-523 2299.7757,-467.1015 2268.3849,-433.9761 2307,-380 2318.1077,-364.4736 2335.3881,-351.8894 2350.2355,-343.0478"/>
<polygon fill="#191970" stroke="#191970" points="2352.1124,-346.0072 2359.0888,-338.0334 2348.6626,-339.9163 2352.1124,-346.0072"/>
</g>
<!-- Node57 -->
<g id="node45" class="node">
<title>Node57</title>
<g id="a_node45"><a xlink:href="../../d1/d3a/road_2Junction_8h.html" target="_top" xlink:title="carla/road/Junction.h">
<polygon fill="#ffffff" stroke="#ff0000" points="2068,-447.5 2068,-466.5 2184,-466.5 2184,-447.5 2068,-447.5"/>
<text text-anchor="middle" x="2126" y="-454.5" font-family="Helvetica,sans-Serif" font-size="10.00" fill="#000000">carla/road/Junction.h</text>
</a>
</g>
</g>
<!-- Node51&#45;&gt;Node57 -->
<g id="edge88" class="edge">
<title>Node51&#45;&gt;Node57</title>
<path fill="none" stroke="#191970" d="M2204.6677,-559.4509C2190.2604,-540.688 2158.0617,-498.7548 2139.6356,-474.758"/>
<polygon fill="#191970" stroke="#191970" points="2142.1801,-472.3248 2133.3138,-466.5249 2136.628,-476.588 2142.1801,-472.3248"/>
</g>
<!-- Node59 -->
<g id="node46" class="node">
<title>Node59</title>
<polygon fill="#ffffff" stroke="#bfbfbf" points="1845.5,-386 1845.5,-405 1938.5,-405 1938.5,-386 1845.5,-386"/>
<text text-anchor="middle" x="1892" y="-393" font-family="Helvetica,sans-Serif" font-size="10.00" fill="#000000">unordered_map</text>
</g>
<!-- Node51&#45;&gt;Node59 -->
<g id="edge128" class="edge">
<title>Node51&#45;&gt;Node59</title>
<path fill="none" stroke="#191970" d="M2151.3133,-562.0767C2113.4824,-555.8539 2064.7941,-544.2688 2026,-523 1974.1674,-494.5829 1927.5924,-441.1101 1905.5135,-413.3072"/>
<polygon fill="#191970" stroke="#191970" points="1908.1386,-410.9817 1899.2302,-405.2466 1902.6177,-415.2853 1908.1386,-410.9817"/>
</g>
<!-- Node51&#45;&gt;Node61 -->
<g id="edge94" class="edge">
<title>Node51&#45;&gt;Node61</title>
<path fill="none" stroke="#191970" d="M2151.3605,-562.3285C2053.4676,-551.5583 1861.7098,-530.4612 1763.7478,-519.6834"/>
<polygon fill="#191970" stroke="#191970" points="1764.0309,-516.1936 1753.7081,-518.5789 1763.2653,-523.1516 1764.0309,-516.1936"/>
</g>
<!-- Node64 -->
<g id="node50" class="node">
<title>Node64</title>
<g id="a_node50"><a xlink:href="../../d0/def/Signal_8h.html" target="_top" xlink:title="carla/road/Signal.h">
<polygon fill="#ffffff" stroke="#ff0000" points="1997.5,-319 1997.5,-338 2104.5,-338 2104.5,-319 1997.5,-319"/>
<text text-anchor="middle" x="2051" y="-326" font-family="Helvetica,sans-Serif" font-size="10.00" fill="#000000">carla/road/Signal.h</text>
</a>
</g>
</g>
<!-- Node51&#45;&gt;Node64 -->
<g id="edge121" class="edge">
<title>Node51&#45;&gt;Node64</title>
<path fill="none" stroke="#191970" d="M2212.7011,-559.3968C2213.8337,-537.7871 2214.1133,-484.3124 2193,-447 2165.9425,-399.1826 2111.6163,-362.3468 2078.562,-343.1752"/>
<polygon fill="#191970" stroke="#191970" points="2079.8698,-339.894 2069.4419,-338.0205 2076.4254,-345.988 2079.8698,-339.894"/>
</g>
<!-- Node52&#45;&gt;Node9 -->
<g id="edge79" class="edge">
<title>Node52&#45;&gt;Node9</title>
<path fill="none" stroke="#191970" d="M2573.6896,-503.4765C2565.1716,-483.7595 2547,-436.8508 2547,-395.5 2547,-395.5 2547,-395.5 2547,-127.5 2547,-68.4664 1628.5126,-23.3546 1386.7415,-12.5025"/>
<polygon fill="#191970" stroke="#191970" points="1386.8933,-9.0059 1376.747,-12.0562 1386.5809,-15.9989 1386.8933,-9.0059"/>
</g>
<!-- Node53&#45;&gt;Node54 -->
<g id="edge81" class="edge">
<title>Node53&#45;&gt;Node54</title>
<path fill="none" stroke="#191970" d="M2363.5938,-447.3906C2366.3318,-440.0692 2370.2289,-429.6488 2373.8132,-420.0647"/>
<polygon fill="#191970" stroke="#191970" points="2377.1489,-421.137 2377.3736,-410.5446 2370.5924,-418.685 2377.1489,-421.137"/>
</g>
<!-- Node55&#45;&gt;Node29 -->
<g id="edge85" class="edge">
<title>Node55&#45;&gt;Node29</title>
<path fill="none" stroke="#191970" d="M2375.9452,-318.7874C2366.8287,-291.5517 2337.0402,-214.1513 2283,-179 2240.6484,-151.4517 2103.8502,-137.633 2019.336,-131.5578"/>
<polygon fill="#191970" stroke="#191970" points="2019.5186,-128.0621 2009.2985,-130.855 2019.0295,-135.045 2019.5186,-128.0621"/>
</g>
<!-- Node55&#45;&gt;Node50 -->
<g id="edge86" class="edge">
<title>Node55&#45;&gt;Node50</title>
<path fill="none" stroke="#191970" d="M2349.915,-318.9005C2314.3396,-307.1589 2253.9992,-287.2436 2214.5755,-274.2318"/>
<polygon fill="#191970" stroke="#191970" points="2215.6241,-270.8923 2205.031,-271.0817 2213.4302,-277.5396 2215.6241,-270.8923"/>
</g>
<!-- Node57&#45;&gt;Node29 -->
<g id="edge89" class="edge">
<title>Node57&#45;&gt;Node29</title>
<path fill="none" stroke="#191970" d="M2119.2443,-447.4894C2107.8093,-431.8931 2083.3034,-400.5629 2057,-380 2030.0592,-358.9388 2007.1681,-372.9707 1989,-344 1950.013,-281.8317 2004.9034,-249.0366 1983,-179 1979.2049,-166.865 1971.7409,-154.8155 1964.8702,-145.4261"/>
<polygon fill="#191970" stroke="#191970" points="1967.49,-143.0924 1958.6037,-137.323 1961.9526,-147.3747 1967.49,-143.0924"/>
</g>
<!-- Node57&#45;&gt;Node31 -->
<g id="edge93" class="edge">
<title>Node57&#45;&gt;Node31</title>
<path fill="none" stroke="#191970" d="M2145.6905,-447.4073C2178.5184,-431.6931 2246.7798,-400.1972 2307,-380 2369.5457,-359.0228 2410.4014,-395.9977 2451,-344 2521.6308,-253.5378 2325.2461,-168.5127 2245.7435,-138.7201"/>
<polygon fill="#191970" stroke="#191970" points="2246.8074,-135.382 2236.214,-135.2044 2244.3845,-141.9493 2246.8074,-135.382"/>
</g>
<!-- Node57&#45;&gt;Node32 -->
<g id="edge92" class="edge">
<title>Node57&#45;&gt;Node32</title>
<path fill="none" stroke="#191970" d="M2107.237,-447.4463C2075.2806,-431.5049 2007.9235,-399.3279 1948,-380 1744.4785,-314.3556 1675.9837,-357.8247 1478,-277 1391.9538,-241.8726 1302.9548,-174.5111 1264.5606,-143.6561"/>
<polygon fill="#191970" stroke="#191970" points="1266.7116,-140.8942 1256.7409,-137.3116 1262.3012,-146.3301 1266.7116,-140.8942"/>
</g>
<!-- Node57&#45;&gt;Node50 -->
<g id="edge90" class="edge">
<title>Node57&#45;&gt;Node50</title>
<path fill="none" stroke="#191970" d="M2133.1117,-447.3746C2146.4566,-428.6437 2174.8223,-385.4828 2185,-344 2190.1819,-322.8795 2186.1246,-297.985 2181.9217,-281.1088"/>
<polygon fill="#191970" stroke="#191970" points="2185.2517,-280.0172 2179.2343,-271.297 2178.5003,-281.8663 2185.2517,-280.0172"/>
</g>
<!-- Node57&#45;&gt;Node59 -->
<g id="edge91" class="edge">
<title>Node57&#45;&gt;Node59</title>
<path fill="none" stroke="#191970" d="M2089.6942,-447.4581C2048.8781,-436.7308 1982.5162,-419.2895 1938.077,-407.61"/>
<polygon fill="#191970" stroke="#191970" points="1938.9522,-404.2212 1928.3909,-405.0643 1937.1728,-410.9913 1938.9522,-404.2212"/>
</g>
<!-- Node61&#45;&gt;Node24 -->
<g id="edge97" class="edge">
<title>Node61&#45;&gt;Node24</title>
<path fill="none" stroke="#191970" d="M1740.682,-503.3393C1759.2713,-496.4646 1780.0152,-485.137 1791,-467 1795.6049,-459.3969 1791.4484,-455.8776 1791,-447 1788.3299,-394.1314 1779,-381.436 1779,-328.5 1779,-328.5 1779,-328.5 1779,-261.5 1779,-207.8145 1725.3382,-164.486 1691.9732,-142.7343"/>
<polygon fill="#191970" stroke="#191970" points="1693.4883,-139.5521 1683.1623,-137.1808 1689.7558,-145.4739 1693.4883,-139.5521"/>
</g>
<!-- Node61&#45;&gt;Node27 -->
<g id="edge100" class="edge">
<title>Node61&#45;&gt;Node27</title>
<path fill="none" stroke="#191970" d="M1652.2025,-504.0173C1649.432,-503.644 1646.6844,-503.301 1644,-503 1500.4555,-486.9057 1131.9092,-513.0427 995,-467 941.1375,-448.886 889,-452.3268 889,-395.5 889,-395.5 889,-395.5 889,-328.5 889,-288.4604 870.7215,-245.0284 857.4634,-218.7917"/>
<polygon fill="#191970" stroke="#191970" points="860.4066,-216.8665 852.6765,-209.6211 854.2012,-220.1057 860.4066,-216.8665"/>
</g>
<!-- Node61&#45;&gt;Node29 -->
<g id="edge98" class="edge">
<title>Node61&#45;&gt;Node29</title>
<path fill="none" stroke="#191970" d="M1742.743,-503.4739C1764.029,-496.5399 1789.2425,-485.1134 1806,-467 1833.8756,-436.8688 1821.6299,-418.0617 1837,-380 1868.058,-303.0897 1880.3015,-285.7906 1914,-210 1923.6742,-188.2419 1934.5861,-163.1571 1941.8349,-146.4143"/>
<polygon fill="#191970" stroke="#191970" points="1945.0749,-147.7397 1945.8311,-137.1719 1938.6498,-144.9616 1945.0749,-147.7397"/>
</g>
<!-- Node61&#45;&gt;Node32 -->
<g id="edge119" class="edge">
<title>Node61&#45;&gt;Node32</title>
<path fill="none" stroke="#191970" d="M1652.3883,-503.9607C1597.5258,-493.8888 1513.6971,-477.6268 1483,-467 1366.7355,-426.7514 1311.6334,-440.2533 1235,-344 1189.1818,-286.4513 1205.059,-250.5833 1222,-179 1224.678,-167.6844 1229.8205,-155.7853 1234.5648,-146.2788"/>
<polygon fill="#191970" stroke="#191970" points="1237.6961,-147.844 1239.2449,-137.3629 1231.4981,-144.5905 1237.6961,-147.844"/>
</g>
<!-- Node61&#45;&gt;Node34 -->
<g id="edge99" class="edge">
<title>Node61&#45;&gt;Node34</title>
<path fill="none" stroke="#191970" d="M1652.2056,-503.9893C1649.4343,-503.6231 1646.6856,-503.2894 1644,-503 1303.8171,-466.3446 1210.9057,-532.08 875,-467 671.1832,-427.5116 632.6627,-373.2807 434,-313 409.0005,-305.4143 347.5039,-289.6599 299.4349,-277.5619"/>
<polygon fill="#191970" stroke="#191970" points="300.2589,-274.1602 289.7074,-275.1174 298.5528,-280.9491 300.2589,-274.1602"/>
</g>
<!-- Node61&#45;&gt;Node42 -->
<g id="edge95" class="edge">
<title>Node61&#45;&gt;Node42</title>
<path fill="none" stroke="#191970" d="M1652.1984,-504.0532C1649.429,-503.6706 1646.6827,-503.3158 1644,-503 1404.6761,-474.8292 1335.1013,-531.7961 1103,-467 1036.4672,-448.4259 965,-464.5768 965,-395.5 965,-395.5 965,-395.5 965,-328.5 965,-290.8735 964.0203,-277.8836 984,-246 993.2911,-231.1732 1008.3762,-218.7294 1021.5677,-209.7899"/>
<polygon fill="#191970" stroke="#191970" points="1023.7839,-212.5261 1030.3033,-204.1746 1019.9988,-206.6377 1023.7839,-212.5261"/>
</g>
<!-- Node61&#45;&gt;Node46 -->
<g id="edge101" class="edge">
<title>Node61&#45;&gt;Node46</title>
<path fill="none" stroke="#191970" d="M1665.6826,-503.4611C1634.1573,-494.6053 1592.5038,-480.7523 1582,-467 1539.5307,-411.3958 1550.1971,-321.1158 1557.6606,-281.3641"/>
<polygon fill="#191970" stroke="#191970" points="1561.1328,-281.8509 1559.6785,-271.3564 1554.2709,-280.4673 1561.1328,-281.8509"/>
</g>
<!-- Node61&#45;&gt;Node47 -->
<g id="edge116" class="edge">
<title>Node61&#45;&gt;Node47</title>
<path fill="none" stroke="#191970" d="M1666.1816,-503.3966C1647.6862,-496.5069 1626.9327,-485.1473 1616,-467 1602.7038,-444.9294 1623.1136,-435.5297 1631,-411 1653.8382,-339.9647 1694.7301,-313.0548 1662,-246 1654.3124,-230.2502 1639.2232,-217.9113 1625.411,-209.2644"/>
<polygon fill="#191970" stroke="#191970" points="1627.0084,-206.1441 1616.6094,-204.1166 1623.4744,-212.1865 1627.0084,-206.1441"/>
</g>
<!-- Node61&#45;&gt;Node50 -->
<g id="edge117" class="edge">
<title>Node61&#45;&gt;Node50</title>
<path fill="none" stroke="#191970" d="M1753.5623,-507.9581C1844.7998,-496.1529 2037.3684,-458.4137 2144,-344 2160.4709,-326.327 2168.7811,-299.2363 2172.7415,-280.9665"/>
<polygon fill="#191970" stroke="#191970" points="2176.1814,-281.6123 2174.6395,-271.1302 2169.3082,-280.2859 2176.1814,-281.6123"/>
</g>
<!-- Node61&#45;&gt;Node53 -->
<g id="edge96" class="edge">
<title>Node61&#45;&gt;Node53</title>
<path fill="none" stroke="#191970" d="M1753.7346,-508.6756C1875.0823,-498.3324 2181.2394,-472.2368 2305.9138,-461.6101"/>
<polygon fill="#191970" stroke="#191970" points="2306.3234,-465.088 2315.99,-460.7512 2305.7289,-458.1132 2306.3234,-465.088"/>
</g>
<!-- Node61&#45;&gt;Node57 -->
<g id="edge102" class="edge">
<title>Node61&#45;&gt;Node57</title>
<path fill="none" stroke="#191970" d="M1753.6035,-506.3007C1829.465,-496.2576 1972.8182,-477.2794 2057.8284,-466.0251"/>
<polygon fill="#191970" stroke="#191970" points="2058.4436,-469.4743 2067.8978,-464.692 2057.5249,-462.5348 2058.4436,-469.4743"/>
</g>
<!-- Node61&#45;&gt;Node59 -->
<g id="edge118" class="edge">
<title>Node61&#45;&gt;Node59</title>
<path fill="none" stroke="#191970" d="M1752.7263,-503.4996C1793.043,-494.9292 1845.7441,-481.4768 1862,-467 1877.0292,-453.6157 1884.7359,-431.4796 1888.547,-415.3781"/>
<polygon fill="#191970" stroke="#191970" points="1892.0176,-415.8771 1890.6052,-405.3768 1885.1613,-414.466 1892.0176,-415.8771"/>
</g>
<!-- Node62 -->
<g id="node48" class="node">
<title>Node62</title>
<g id="a_node48"><a xlink:href="../../d6/dfd/LaneSection_8h.html" target="_top" xlink:title="carla/road/LaneSection.h">
<polygon fill="#ffffff" stroke="#000000" points="1396.5,-386 1396.5,-405 1533.5,-405 1533.5,-386 1396.5,-386"/>
<text text-anchor="middle" x="1465" y="-393" font-family="Helvetica,sans-Serif" font-size="10.00" fill="#000000">carla/road/LaneSection.h</text>
</a>
</g>
</g>
<!-- Node61&#45;&gt;Node62 -->
<g id="edge103" class="edge">
<title>Node61&#45;&gt;Node62</title>
<path fill="none" stroke="#191970" d="M1652.8775,-503.4565C1598.4941,-492.7635 1517.7985,-475.7803 1506,-467 1488.485,-453.9656 1477.2839,-431.0698 1471.0922,-414.6977"/>
<polygon fill="#191970" stroke="#191970" points="1474.3262,-413.3417 1467.7308,-405.0501 1467.716,-415.6449 1474.3262,-413.3417"/>
</g>
<!-- Node63 -->
<g id="node49" class="node">
<title>Node63</title>
<g id="a_node49"><a xlink:href="../../df/d60/LaneSectionMap_8h.html" target="_top" xlink:title="carla/road/LaneSectionMap.h">
<polygon fill="#ffffff" stroke="#000000" points="1624.5,-447.5 1624.5,-466.5 1781.5,-466.5 1781.5,-447.5 1624.5,-447.5"/>
<text text-anchor="middle" x="1703" y="-454.5" font-family="Helvetica,sans-Serif" font-size="10.00" fill="#000000">carla/road/LaneSectionMap.h</text>
</a>
</g>
</g>
<!-- Node61&#45;&gt;Node63 -->
<g id="edge111" class="edge">
<title>Node61&#45;&gt;Node63</title>
<path fill="none" stroke="#191970" d="M1703,-503.2455C1703,-495.9382 1703,-485.6944 1703,-476.7046"/>
<polygon fill="#191970" stroke="#191970" points="1706.5001,-476.6426 1703,-466.6427 1699.5001,-476.6427 1706.5001,-476.6426"/>
</g>
<!-- Node62&#45;&gt;Node2 -->
<g id="edge104" class="edge">
<title>Node62&#45;&gt;Node2</title>
<path fill="none" stroke="#191970" d="M1396.4992,-389.3394C1177.7381,-369.4031 508.0782,-306.246 472,-277 453.2399,-261.7925 446.989,-233.4631 444.9412,-214.2952"/>
<polygon fill="#191970" stroke="#191970" points="448.4238,-213.9348 444.1583,-204.2366 441.4449,-214.4781 448.4238,-213.9348"/>
</g>
<!-- Node62&#45;&gt;Node29 -->
<g id="edge105" class="edge">
<title>Node62&#45;&gt;Node29</title>
<path fill="none" stroke="#191970" d="M1500.5152,-385.9621C1531.5333,-377.0148 1577.3559,-362.2881 1615,-344 1741.6255,-282.4834 1878.3984,-182.1399 1929.3494,-143.4295"/>
<polygon fill="#191970" stroke="#191970" points="1931.755,-145.9963 1937.578,-137.1451 1927.5063,-140.4331 1931.755,-145.9963"/>
</g>
<!-- Node62&#45;&gt;Node30 -->
<g id="edge109" class="edge">
<title>Node62&#45;&gt;Node30</title>
<path fill="none" stroke="#191970" d="M1398.5486,-385.964C1351.7747,-377.9751 1288.264,-364.527 1235,-344 1152.5429,-312.2225 1140.53,-286.522 1062,-246 1028.4282,-228.6767 1013.5434,-234.7474 985,-210 964.3744,-192.1175 948.4913,-164.501 939.4457,-146.2166"/>
<polygon fill="#191970" stroke="#191970" points="942.5873,-144.6728 935.1371,-137.1398 936.2635,-147.6746 942.5873,-144.6728"/>
</g>
<!-- Node62&#45;&gt;Node32 -->
<g id="edge110" class="edge">
<title>Node62&#45;&gt;Node32</title>
<path fill="none" stroke="#191970" d="M1407.0669,-385.9246C1356.885,-376.6477 1289.1217,-361.4488 1268,-344 1210.0594,-296.1348 1221.0551,-253.4936 1231,-179 1232.4431,-168.1902 1235.5187,-156.4337 1238.4206,-146.8862"/>
<polygon fill="#191970" stroke="#191970" points="1241.8016,-147.8049 1241.5269,-137.2137 1235.1368,-145.6646 1241.8016,-147.8049"/>
</g>
<!-- Node62&#45;&gt;Node41 -->
<g id="edge106" class="edge">
<title>Node62&#45;&gt;Node41</title>
<path fill="none" stroke="#191970" d="M1445.228,-385.9005C1421.8635,-374.5569 1382.7857,-355.5844 1355.997,-342.5783"/>
<polygon fill="#191970" stroke="#191970" points="1357.2598,-339.3007 1346.7354,-338.0817 1354.2025,-345.5978 1357.2598,-339.3007"/>
</g>
<!-- Node62&#45;&gt;Node47 -->
<g id="edge107" class="edge">
<title>Node62&#45;&gt;Node47</title>
<path fill="none" stroke="#191970" d="M1495.2405,-385.9671C1537.8523,-370.7055 1613.9406,-336.3082 1646,-277 1652.5517,-264.8797 1651.1783,-258.7676 1646,-246 1640.2523,-231.8284 1628.5253,-219.4093 1617.8725,-210.3189"/>
<polygon fill="#191970" stroke="#191970" points="1620.042,-207.5723 1610.0524,-204.0425 1615.6604,-213.0314 1620.042,-207.5723"/>
</g>
<!-- Node62&#45;&gt;Node50 -->
<g id="edge108" class="edge">
<title>Node62&#45;&gt;Node50</title>
<path fill="none" stroke="#191970" d="M1533.6436,-393.2322C1690.2112,-387.6077 2064.0769,-371.4521 2114,-344 2139.8026,-329.8115 2158.0288,-299.8376 2167.7718,-280.1947"/>
<polygon fill="#191970" stroke="#191970" points="2171.0057,-281.5421 2172.0887,-271.0028 2164.6697,-278.5664 2171.0057,-281.5421"/>
</g>
<!-- Node63&#45;&gt;Node29 -->
<g id="edge112" class="edge">
<title>Node63&#45;&gt;Node29</title>
<path fill="none" stroke="#191970" d="M1710.1259,-447.4941C1744.2829,-401.9282 1891.4594,-205.5937 1936.7111,-145.2274"/>
<polygon fill="#191970" stroke="#191970" points="1939.6477,-147.1453 1942.8452,-137.0445 1934.0466,-142.9467 1939.6477,-147.1453"/>
</g>
<!-- Node63&#45;&gt;Node30 -->
<g id="edge114" class="edge">
<title>Node63&#45;&gt;Node30</title>
<path fill="none" stroke="#191970" d="M1624.4187,-448.7996C1560.3345,-441.3297 1467.7064,-428.7451 1388,-411 1203.3461,-369.8904 1122.253,-406.1246 984,-277 946.7183,-242.1799 935.6399,-179.4689 932.3641,-147.4659"/>
<polygon fill="#191970" stroke="#191970" points="935.8228,-146.8353 931.4762,-137.1732 928.8487,-147.437 935.8228,-146.8353"/>
</g>
<!-- Node63&#45;&gt;Node59 -->
<g id="edge115" class="edge">
<title>Node63&#45;&gt;Node59</title>
<path fill="none" stroke="#191970" d="M1732.5313,-447.3906C1764.9866,-436.8298 1817.2581,-419.8208 1853.0486,-408.1747"/>
<polygon fill="#191970" stroke="#191970" points="1854.2499,-411.4645 1862.6761,-405.0419 1852.0839,-404.808 1854.2499,-411.4645"/>
</g>
<!-- Node63&#45;&gt;Node62 -->
<g id="edge113" class="edge">
<title>Node63&#45;&gt;Node62</title>
<path fill="none" stroke="#191970" d="M1666.0736,-447.4581C1624.5598,-436.7308 1557.0635,-419.2895 1511.8647,-407.61"/>
<polygon fill="#191970" stroke="#191970" points="1512.5707,-404.1775 1502.013,-405.0643 1510.8193,-410.9549 1512.5707,-404.1775"/>
</g>
<!-- Node64&#45;&gt;Node29 -->
<g id="edge122" class="edge">
<title>Node64&#45;&gt;Node29</title>
<path fill="none" stroke="#191970" d="M2051.3849,-318.8708C2051.9325,-293.7312 2050.4574,-224.8922 2021,-179 2010.9185,-163.2938 1994.2162,-150.8223 1979.5435,-142.0881"/>
<polygon fill="#191970" stroke="#191970" points="1981.1785,-138.9921 1970.7473,-137.1374 1977.7452,-145.0923 1981.1785,-138.9921"/>
</g>
<!-- Node64&#45;&gt;Node31 -->
<g id="edge125" class="edge">
<title>Node64&#45;&gt;Node31</title>
<path fill="none" stroke="#191970" d="M2056.2204,-318.9589C2065.0238,-303.1818 2083.7529,-270.9245 2103,-246 2133.0528,-207.0822 2173.6859,-166.1829 2196.5279,-144.0712"/>
<polygon fill="#191970" stroke="#191970" points="2199.0318,-146.5192 2203.819,-137.0676 2194.1825,-141.4709 2199.0318,-146.5192"/>
</g>
<!-- Node64&#45;&gt;Node32 -->
<g id="edge126" class="edge">
<title>Node64&#45;&gt;Node32</title>
<path fill="none" stroke="#191970" d="M1997.7106,-318.9524C1899.8585,-300.9614 1685.3071,-259.3761 1508,-210 1466.8394,-198.5377 1457.695,-192.019 1417,-179 1369.0371,-163.6559 1313.1118,-147.1685 1278.3746,-137.0915"/>
<polygon fill="#191970" stroke="#191970" points="1279.3138,-133.7198 1268.735,-134.302 1277.3679,-140.4439 1279.3138,-133.7198"/>
</g>
<!-- Node64&#45;&gt;Node44 -->
<g id="edge124" class="edge">
<title>Node64&#45;&gt;Node44</title>
<path fill="none" stroke="#191970" d="M1997.2602,-323.8984C1895.7563,-315.1561 1668.8876,-295.3747 1478,-277 1453.67,-274.658 1427.1488,-271.9784 1403.2178,-269.5133"/>
<polygon fill="#191970" stroke="#191970" points="1403.441,-266.0178 1393.1342,-268.4716 1402.7216,-272.9808 1403.441,-266.0178"/>
</g>
<!-- Node64&#45;&gt;Node50 -->
<g id="edge123" class="edge">
<title>Node64&#45;&gt;Node50</title>
<path fill="none" stroke="#191970" d="M2068.9095,-318.9005C2089.8873,-307.6564 2124.8496,-288.9166 2149.0935,-275.9219"/>
<polygon fill="#191970" stroke="#191970" points="2150.9635,-278.8907 2158.1238,-271.0817 2147.6565,-272.7211 2150.9635,-278.8907"/>
</g>
</g>
</svg>
