<?xml version="1.0" encoding="UTF-8" standalone="no"?>
<!DOCTYPE svg PUBLIC "-//W3C//DTD SVG 1.1//EN"
 "http://www.w3.org/Graphics/SVG/1.1/DTD/svg11.dtd">
<!-- Generated by graphviz version 2.40.1 (20161225.0304)
 -->
<!-- Title: FVehicleLightState Pages: 1 -->
<svg width="123pt" height="205pt"
 viewBox="0.00 0.00 122.50 205.00" xmlns="http://www.w3.org/2000/svg" xmlns:xlink="http://www.w3.org/1999/xlink">
<g id="graph0" class="graph" transform="scale(1 1) rotate(0) translate(4 201)">
<title>FVehicleLightState</title>
<polygon fill="#ffffff" stroke="transparent" points="-4,4 -4,-201 118.5,-201 118.5,4 -4,4"/>
<!-- Node1 -->
<g id="node1" class="node">
<title>Node1</title>
<polygon fill="#bfbfbf" stroke="#000000" points="0,-.5 0,-19.5 107,-19.5 107,-.5 0,-.5"/>
<text text-anchor="middle" x="53.5" y="-7.5" font-family="Helvetica,sans-Serif" font-size="10.00" fill="#000000">FVehicleLightState</text>
</g>
<!-- Node2 -->
<g id="node2" class="node">
<title>Node2</title>
<polygon fill="#ffffff" stroke="#bfbfbf" points="34.5,-177.5 34.5,-196.5 72.5,-196.5 72.5,-177.5 34.5,-177.5"/>
<text text-anchor="middle" x="53.5" y="-184.5" font-family="Helvetica,sans-Serif" font-size="10.00" fill="#000000">bool</text>
</g>
<!-- Node2&#45;&gt;Node1 -->
<g id="edge1" class="edge">
<title>Node2&#45;&gt;Node1</title>
<path fill="none" stroke="#9a32cd" stroke-dasharray="5,2" d="M53.5,-167.2171C53.5,-129.2545 53.5,-47.4758 53.5,-19.5633"/>
<polygon fill="#9a32cd" stroke="#9a32cd" points="50.0001,-167.4837 53.5,-177.4837 57.0001,-167.4837 50.0001,-167.4837"/>
<text text-anchor="middle" x="84" y="-151" font-family="Helvetica,sans-Serif" font-size="10.00" fill="#000000"> Special1</text>
<text text-anchor="middle" x="84" y="-140" font-family="Helvetica,sans-Serif" font-size="10.00" fill="#000000">Special2</text>
<text text-anchor="middle" x="84" y="-129" font-family="Helvetica,sans-Serif" font-size="10.00" fill="#000000">LowBeam</text>
<text text-anchor="middle" x="84" y="-118" font-family="Helvetica,sans-Serif" font-size="10.00" fill="#000000">Interior</text>
<text text-anchor="middle" x="84" y="-107" font-family="Helvetica,sans-Serif" font-size="10.00" fill="#000000">RightBlinker</text>
<text text-anchor="middle" x="84" y="-96" font-family="Helvetica,sans-Serif" font-size="10.00" fill="#000000">HighBeam</text>
<text text-anchor="middle" x="84" y="-85" font-family="Helvetica,sans-Serif" font-size="10.00" fill="#000000">Brake</text>
<text text-anchor="middle" x="84" y="-74" font-family="Helvetica,sans-Serif" font-size="10.00" fill="#000000">Position</text>
<text text-anchor="middle" x="84" y="-63" font-family="Helvetica,sans-Serif" font-size="10.00" fill="#000000">LeftBlinker</text>
<text text-anchor="middle" x="84" y="-52" font-family="Helvetica,sans-Serif" font-size="10.00" fill="#000000">Fog</text>
<text text-anchor="middle" x="84" y="-41" font-family="Helvetica,sans-Serif" font-size="10.00" fill="#000000">...</text>
</g>
</g>
</svg>
