<?xml version="1.0" encoding="UTF-8" standalone="no"?>
<!DOCTYPE svg PUBLIC "-//W3C//DTD SVG 1.1//EN"
 "http://www.w3.org/Graphics/SVG/1.1/DTD/svg11.dtd">
<!-- Generated by graphviz version 2.43.0 (0)
 -->
<!-- Title: FVehicleLightState Pages: 1 -->
<svg width="122pt" height="205pt"
 viewBox="0.00 0.00 121.50 205.00" xmlns="http://www.w3.org/2000/svg" xmlns:xlink="http://www.w3.org/1999/xlink">
<g id="graph0" class="graph" transform="scale(1 1) rotate(0) translate(4 201)">
<title>FVehicleLightState</title>
<polygon fill="white" stroke="transparent" points="-4,4 -4,-201 117.5,-201 117.5,4 -4,4"/>
<!-- Node1 -->
<g id="node1" class="node">
<title>Node1</title>
<g id="a_node1"><a xlink:title=" ">
<polygon fill="#bfbfbf" stroke="black" points="0,-0.5 0,-19.5 107,-19.5 107,-0.5 0,-0.5"/>
<text text-anchor="middle" x="53.5" y="-7.5" font-family="Helvetica,sans-Serif" font-size="10.00">FVehicleLightState</text>
</a>
</g>
</g>
<!-- Node2 -->
<g id="node2" class="node">
<title>Node2</title>
<g id="a_node2"><a xlink:title=" ">
<polygon fill="white" stroke="#bfbfbf" points="34.5,-177.5 34.5,-196.5 72.5,-196.5 72.5,-177.5 34.5,-177.5"/>
<text text-anchor="middle" x="53.5" y="-184.5" font-family="Helvetica,sans-Serif" font-size="10.00">bool</text>
</a>
</g>
</g>
<!-- Node2&#45;&gt;Node1 -->
<g id="edge1" class="edge">
<title>Node2&#45;&gt;Node1</title>
<path fill="none" stroke="#9a32cd" stroke-dasharray="5,2" d="M53.5,-166.95C53.5,-129.3 53.5,-46.65 53.5,-19.69"/>
<polygon fill="#9a32cd" stroke="#9a32cd" points="50,-167.08 53.5,-177.08 57,-167.08 50,-167.08"/>
<text text-anchor="middle" x="83.5" y="-151" font-family="Helvetica,sans-Serif" font-size="10.00"> Special1</text>
<text text-anchor="middle" x="83.5" y="-140" font-family="Helvetica,sans-Serif" font-size="10.00">Special2</text>
<text text-anchor="middle" x="83.5" y="-129" font-family="Helvetica,sans-Serif" font-size="10.00">LowBeam</text>
<text text-anchor="middle" x="83.5" y="-118" font-family="Helvetica,sans-Serif" font-size="10.00">Interior</text>
<text text-anchor="middle" x="83.5" y="-107" font-family="Helvetica,sans-Serif" font-size="10.00">RightBlinker</text>
<text text-anchor="middle" x="83.5" y="-96" font-family="Helvetica,sans-Serif" font-size="10.00">HighBeam</text>
<text text-anchor="middle" x="83.5" y="-85" font-family="Helvetica,sans-Serif" font-size="10.00">Brake</text>
<text text-anchor="middle" x="83.5" y="-74" font-family="Helvetica,sans-Serif" font-size="10.00">Position</text>
<text text-anchor="middle" x="83.5" y="-63" font-family="Helvetica,sans-Serif" font-size="10.00">LeftBlinker</text>
<text text-anchor="middle" x="83.5" y="-52" font-family="Helvetica,sans-Serif" font-size="10.00">Fog</text>
<text text-anchor="middle" x="83.5" y="-41" font-family="Helvetica,sans-Serif" font-size="10.00">...</text>
</g>
</g>
</svg>
