<?xml version="1.0" encoding="UTF-8" standalone="no"?>
<!DOCTYPE svg PUBLIC "-//W3C//DTD SVG 1.1//EN"
 "http://www.w3.org/Graphics/SVG/1.1/DTD/svg11.dtd">
<!-- Generated by graphviz version 2.40.1 (20161225.0304)
 -->
<!-- Title: carla::multigpu::PrimaryCommands::SendIsEnabledForROS Pages: 1 -->
<svg width="390pt" height="39pt"
 viewBox="0.00 0.00 390.00 39.00" xmlns="http://www.w3.org/2000/svg" xmlns:xlink="http://www.w3.org/1999/xlink">
<g id="graph0" class="graph" transform="scale(1 1) rotate(0) translate(4 35)">
<title>carla::multigpu::PrimaryCommands::SendIsEnabledForROS</title>
<polygon fill="#ffffff" stroke="transparent" points="-4,4 -4,-35 386,-35 386,4 -4,4"/>
<!-- Node61 -->
<g id="node1" class="node">
<title>Node61</title>
<polygon fill="#bfbfbf" stroke="#000000" points="0,-.5 0,-30.5 185,-30.5 185,-.5 0,-.5"/>
<text text-anchor="start" x="8" y="-18.5" font-family="Helvetica,sans-Serif" font-size="10.00" fill="#000000">carla::multigpu::Primary</text>
<text text-anchor="middle" x="92.5" y="-7.5" font-family="Helvetica,sans-Serif" font-size="10.00" fill="#000000">Commands::SendIsEnabledForROS</text>
</g>
<!-- Node62 -->
<g id="node2" class="node">
<title>Node62</title>
<g id="a_node2"><a xlink:href="../../da/da8/classcarla_1_1multigpu_1_1PrimaryCommands.html#ae1ae1b535bfab6d551ae46899e8ea8a1" target="_top" xlink:title="carla::multigpu::Primary\lCommands::IsEnabledForROS">
<polygon fill="#ffffff" stroke="#000000" points="221,-.5 221,-30.5 382,-30.5 382,-.5 221,-.5"/>
<text text-anchor="start" x="229" y="-18.5" font-family="Helvetica,sans-Serif" font-size="10.00" fill="#000000">carla::multigpu::Primary</text>
<text text-anchor="middle" x="301.5" y="-7.5" font-family="Helvetica,sans-Serif" font-size="10.00" fill="#000000">Commands::IsEnabledForROS</text>
</a>
</g>
</g>
<!-- Node61&#45;&gt;Node62 -->
<g id="edge1" class="edge">
<title>Node61&#45;&gt;Node62</title>
<path fill="none" stroke="#191970" d="M195.1605,-15.5C203.7634,-15.5 212.3829,-15.5 220.7857,-15.5"/>
<polygon fill="#191970" stroke="#191970" points="195.0832,-12.0001 185.0832,-15.5 195.0831,-19.0001 195.0832,-12.0001"/>
</g>
</g>
</svg>
