<?xml version="1.0" encoding="UTF-8" standalone="no"?>
<!DOCTYPE svg PUBLIC "-//W3C//DTD SVG 1.1//EN"
 "http://www.w3.org/Graphics/SVG/1.1/DTD/svg11.dtd">
<!-- Generated by graphviz version 2.40.1 (20161225.0304)
 -->
<!-- Title: carla::road::Lane::GetType Pages: 1 -->
<!--zoomable 208 -->
<svg id="main" version="1.1" xmlns="http://www.w3.org/2000/svg" xmlns:xlink="http://www.w3.org/1999/xlink" xml:space="preserve" onload="init(evt)">
<style type="text/css"><![CDATA[
.edge:hover path { stroke: red; }
.edge:hover polygon { stroke: red; fill: red; }
]]></style>
<script type="text/javascript"><![CDATA[
var edges = document.getElementsByTagName('g');
if (edges && edges.length) {
  for (var i=0;i<edges.length;i++) {
    if (edges[i].id.substr(0,4)=='edge') {
      edges[i].setAttribute('class','edge');
    }
  }
}
]]></script>
        <defs>
                <circle id="rim" cx="0" cy="0" r="7"/>
                <circle id="rim2" cx="0" cy="0" r="3.5"/>
                <g id="zoomPlus">
                        <use xlink:href="#rim" fill="#404040">
                                <set attributeName="fill" to="#808080" begin="zoomplus.mouseover" end="zoomplus.mouseout"/>
                        </use>
                        <path d="M-4,0h8M0,-4v8" fill="none" stroke="white" stroke-width="1.5" pointer-events="none"/>
                </g>
                <g id="zoomMin">
                        <use xlink:href="#rim" fill="#404040">
                                <set attributeName="fill" to="#808080" begin="zoomminus.mouseover" end="zoomminus.mouseout"/>
                        </use>
                        <path d="M-4,0h8" fill="none" stroke="white" stroke-width="1.5" pointer-events="none"/>
                </g>
                <g id="dirArrow">
                        <path fill="none" stroke="white" stroke-width="1.5" d="M0,-3.0v7 M-2.5,-0.5L0,-3.0L2.5,-0.5"/>
                </g>
               <g id="resetDef">
                       <use xlink:href="#rim2" fill="#404040">
                               <set attributeName="fill" to="#808080" begin="reset.mouseover" end="reset.mouseout"/>
                       </use>
               </g>
        </defs>

<script type="text/javascript">
var viewWidth = 819;
var viewHeight = 208;
var sectionId = 'dynsection-22';
</script>
<script xlink:href="../../svgpan.js"/>
<svg id="graph" class="graph">
<g id="viewport">
<title>carla::road::Lane::GetType</title>
<polygon fill="#ffffff" stroke="transparent" points="-4,4 -4,-203.5 815,-203.5 815,4 -4,4"/>
<!-- Node298 -->
<g id="node1" class="node">
<title>Node298</title>
<polygon fill="#bfbfbf" stroke="#000000" points="0,-71 0,-101 104,-101 104,-71 0,-71"/>
<text text-anchor="start" x="8" y="-89" font-family="Helvetica,sans-Serif" font-size="10.00" fill="#000000">carla::road::Lane::</text>
<text text-anchor="middle" x="52" y="-78" font-family="Helvetica,sans-Serif" font-size="10.00" fill="#000000">GetType</text>
</g>
<!-- Node299 -->
<g id="node2" class="node">
<title>Node299</title>
<g id="a_node2"><a xlink:href="../../d6/d3d/classcarla_1_1geom_1_1MeshFactory.html#a1e3c826505f82d1ddffd9f40c39cfa2a" target="_top" xlink:title="Generates a mesh that defines a lane from a given s start and end. ">
<polygon fill="#ffffff" stroke="#000000" points="303,-169 303,-199 444,-199 444,-169 303,-169"/>
<text text-anchor="start" x="311" y="-187" font-family="Helvetica,sans-Serif" font-size="10.00" fill="#000000">carla::geom::MeshFactory</text>
<text text-anchor="middle" x="373.5" y="-176" font-family="Helvetica,sans-Serif" font-size="10.00" fill="#000000">::Generate</text>
</a>
</g>
</g>
<!-- Node298&#45;&gt;Node299 -->
<g id="edge1" class="edge">
<title>Node298&#45;&gt;Node299</title>
<path fill="none" stroke="#191970" d="M73.739,-108.6302C90.3246,-124.3961 114.5833,-144.4254 140,-155 191.7647,-176.5366 255.1408,-183.316 302.7986,-184.9713"/>
<polygon fill="#191970" stroke="#191970" points="75.8369,-105.7861 66.2418,-101.2932 70.9408,-110.789 75.8369,-105.7861"/>
</g>
<!-- Node300 -->
<g id="node3" class="node">
<title>Node300</title>
<g id="a_node3"><a xlink:href="../../d6/d3d/classcarla_1_1geom_1_1MeshFactory.html#a202f9750d3be15d0af4b42b3a90f3662" target="_top" xlink:title="Generates a wall&#45;like mesh at the left side of the lane. ">
<polygon fill="#ffffff" stroke="#000000" points="303,-71 303,-101 444,-101 444,-71 303,-71"/>
<text text-anchor="start" x="311" y="-89" font-family="Helvetica,sans-Serif" font-size="10.00" fill="#000000">carla::geom::MeshFactory</text>
<text text-anchor="middle" x="373.5" y="-78" font-family="Helvetica,sans-Serif" font-size="10.00" fill="#000000">::GenerateLeftWall</text>
</a>
</g>
</g>
<!-- Node298&#45;&gt;Node300 -->
<g id="edge2" class="edge">
<title>Node298&#45;&gt;Node300</title>
<path fill="none" stroke="#191970" d="M114.1521,-86C168.2249,-86 246.5487,-86 302.9579,-86"/>
<polygon fill="#191970" stroke="#191970" points="114.0119,-82.5001 104.0119,-86 114.0118,-89.5001 114.0119,-82.5001"/>
</g>
<!-- Node303 -->
<g id="node6" class="node">
<title>Node303</title>
<g id="a_node6"><a xlink:href="../../d6/d3d/classcarla_1_1geom_1_1MeshFactory.html#a11c673db2f69ad3c21ebba4d068b8c6c" target="_top" xlink:title="Generates a wall&#45;like mesh at the right side of the lane. ">
<polygon fill="#ffffff" stroke="#000000" points="303,-22 303,-52 444,-52 444,-22 303,-22"/>
<text text-anchor="start" x="311" y="-40" font-family="Helvetica,sans-Serif" font-size="10.00" fill="#000000">carla::geom::MeshFactory</text>
<text text-anchor="middle" x="373.5" y="-29" font-family="Helvetica,sans-Serif" font-size="10.00" fill="#000000">::GenerateRightWall</text>
</a>
</g>
</g>
<!-- Node298&#45;&gt;Node303 -->
<g id="edge6" class="edge">
<title>Node298&#45;&gt;Node303</title>
<path fill="none" stroke="#191970" d="M114.1521,-76.5274C168.2249,-68.2861 246.5487,-56.3487 302.9579,-47.7514"/>
<polygon fill="#191970" stroke="#191970" points="113.3703,-73.106 104.0119,-78.0728 114.4251,-80.0261 113.3703,-73.106"/>
</g>
<!-- Node304 -->
<g id="node7" class="node">
<title>Node304</title>
<g id="a_node7"><a xlink:href="../../df/d85/classcarla_1_1road_1_1Lane.html#ae0d376fa422b14e54af3a702e1b8385a" target="_top" xlink:title="Computes the location of the edges given a s. ">
<polygon fill="#ffffff" stroke="#000000" points="148.5,-115 148.5,-145 258.5,-145 258.5,-115 148.5,-115"/>
<text text-anchor="start" x="156.5" y="-133" font-family="Helvetica,sans-Serif" font-size="10.00" fill="#000000">carla::road::Lane::</text>
<text text-anchor="middle" x="203.5" y="-122" font-family="Helvetica,sans-Serif" font-size="10.00" fill="#000000">GetCornerPositions</text>
</a>
</g>
</g>
<!-- Node298&#45;&gt;Node304 -->
<g id="edge9" class="edge">
<title>Node298&#45;&gt;Node304</title>
<path fill="none" stroke="#191970" d="M113.3292,-103.8118C126.0801,-107.515 139.3971,-111.3827 151.762,-114.9738"/>
<polygon fill="#191970" stroke="#191970" points="114.2934,-100.4472 103.714,-101.0192 112.341,-107.1695 114.2934,-100.4472"/>
</g>
<!-- Node307 -->
<g id="node10" class="node">
<title>Node307</title>
<g id="a_node10"><a xlink:href="../../df/d85/classcarla_1_1road_1_1Lane.html#a4bf9b3696e239c0fffc00c5bb785ad9f" target="_top" xlink:title="carla::road::Lane::Lane">
<polygon fill="#ffffff" stroke="#000000" points="140,-.5 140,-19.5 267,-19.5 267,-.5 140,-.5"/>
<text text-anchor="middle" x="203.5" y="-7.5" font-family="Helvetica,sans-Serif" font-size="10.00" fill="#000000">carla::road::Lane::Lane</text>
</a>
</g>
</g>
<!-- Node298&#45;&gt;Node307 -->
<g id="edge15" class="edge">
<title>Node298&#45;&gt;Node307</title>
<path fill="none" stroke="#191970" d="M83.5966,-65.5344C100.0418,-55.3483 120.6973,-43.2656 140,-34 151.156,-28.6449 163.8431,-23.6452 174.9285,-19.6102"/>
<polygon fill="#191970" stroke="#191970" points="81.5425,-62.6911 74.9288,-70.9682 85.2606,-68.6221 81.5425,-62.6911"/>
</g>
<!-- Node301 -->
<g id="node4" class="node">
<title>Node301</title>
<g id="a_node4"><a xlink:href="../../d6/d3d/classcarla_1_1geom_1_1MeshFactory.html#aec242ce8214cea646ba254c0cfc0176a" target="_top" xlink:title="Genrates a mesh representing a wall on the road corners to avoid cars falling down. ">
<polygon fill="#ffffff" stroke="#000000" points="480,-30 480,-60 621,-60 621,-30 480,-30"/>
<text text-anchor="start" x="488" y="-48" font-family="Helvetica,sans-Serif" font-size="10.00" fill="#000000">carla::geom::MeshFactory</text>
<text text-anchor="middle" x="550.5" y="-37" font-family="Helvetica,sans-Serif" font-size="10.00" fill="#000000">::GenerateWalls</text>
</a>
</g>
</g>
<!-- Node300&#45;&gt;Node301 -->
<g id="edge3" class="edge">
<title>Node300&#45;&gt;Node301</title>
<path fill="none" stroke="#191970" d="M448.261,-68.6825C460.6757,-65.8068 473.46,-62.8454 485.6046,-60.0323"/>
<polygon fill="#191970" stroke="#191970" points="447.3554,-65.2995 438.4032,-70.9659 448.9351,-72.1189 447.3554,-65.2995"/>
</g>
<!-- Node302 -->
<g id="node5" class="node">
<title>Node302</title>
<g id="a_node5"><a xlink:href="../../d6/d3d/classcarla_1_1geom_1_1MeshFactory.html#a5588f2f98ea42ade1082db0ef1c8ce7b" target="_top" xlink:title="Generates a list of meshes that defines a lane_section safety wall with a maximum length...">
<polygon fill="#ffffff" stroke="#000000" points="657,-30 657,-60 811,-60 811,-30 657,-30"/>
<text text-anchor="start" x="665" y="-48" font-family="Helvetica,sans-Serif" font-size="10.00" fill="#000000">carla::geom::MeshFactory</text>
<text text-anchor="middle" x="734" y="-37" font-family="Helvetica,sans-Serif" font-size="10.00" fill="#000000">::GenerateWallsWithMaxLen</text>
</a>
</g>
</g>
<!-- Node300&#45;&gt;Node302 -->
<g id="edge5" class="edge">
<title>Node300&#45;&gt;Node302</title>
<path fill="none" stroke="#191970" d="M454.309,-83.3219C502.8144,-81.0014 565.6468,-76.74 621,-69 637.2872,-66.7226 654.7342,-63.4417 670.927,-60.0339"/>
<polygon fill="#191970" stroke="#191970" points="454.0122,-79.8318 444.1838,-83.7882 454.3342,-86.8243 454.0122,-79.8318"/>
</g>
<!-- Node301&#45;&gt;Node302 -->
<g id="edge4" class="edge">
<title>Node301&#45;&gt;Node302</title>
<path fill="none" stroke="#191970" d="M631.4411,-45C639.9176,-45 648.5189,-45 656.9501,-45"/>
<polygon fill="#191970" stroke="#191970" points="631.1834,-41.5001 621.1834,-45 631.1834,-48.5001 631.1834,-41.5001"/>
</g>
<!-- Node303&#45;&gt;Node301 -->
<g id="edge7" class="edge">
<title>Node303&#45;&gt;Node301</title>
<path fill="none" stroke="#191970" d="M454.2142,-40.6481C462.7843,-41.0355 471.4526,-41.4272 479.8942,-41.8088"/>
<polygon fill="#191970" stroke="#191970" points="454.366,-37.1515 444.2182,-40.1963 454.0499,-44.1443 454.366,-37.1515"/>
</g>
<!-- Node303&#45;&gt;Node302 -->
<g id="edge8" class="edge">
<title>Node303&#45;&gt;Node302</title>
<path fill="none" stroke="#191970" d="M454.2122,-22.7429C462.8939,-21.6201 471.6153,-20.665 480,-20 542.4705,-15.0455 558.7043,-13.1912 621,-20 639.5753,-22.0302 659.5675,-25.8847 677.4957,-29.9701"/>
<polygon fill="#191970" stroke="#191970" points="453.4949,-19.3083 444.0613,-24.1308 454.4433,-26.2438 453.4949,-19.3083"/>
</g>
<!-- Node304&#45;&gt;Node299 -->
<g id="edge10" class="edge">
<title>Node304&#45;&gt;Node299</title>
<path fill="none" stroke="#191970" d="M260.4417,-148.0874C281.7633,-154.8601 305.738,-162.4756 326.1049,-168.9451"/>
<polygon fill="#191970" stroke="#191970" points="261.4448,-144.7337 250.8545,-145.042 259.3256,-151.4052 261.4448,-144.7337"/>
</g>
<!-- Node304&#45;&gt;Node300 -->
<g id="edge11" class="edge">
<title>Node304&#45;&gt;Node300</title>
<path fill="none" stroke="#191970" d="M268.6451,-113.1389C284.0237,-109.1586 300.3208,-104.9405 315.3663,-101.0464"/>
<polygon fill="#191970" stroke="#191970" points="267.4981,-109.8204 258.6941,-115.7145 269.2521,-116.5971 267.4981,-109.8204"/>
</g>
<!-- Node304&#45;&gt;Node303 -->
<g id="edge12" class="edge">
<title>Node304&#45;&gt;Node303</title>
<path fill="none" stroke="#191970" d="M230.4491,-108.7455C249.8202,-94.1923 277.0025,-75.2105 303,-62 310.178,-58.3525 318.0143,-55.0055 325.769,-52.0272"/>
<polygon fill="#191970" stroke="#191970" points="228.2263,-106.0388 222.3917,-114.8823 232.4677,-111.6075 228.2263,-106.0388"/>
</g>
<!-- Node305 -->
<g id="node8" class="node">
<title>Node305</title>
<g id="a_node8"><a xlink:href="../../df/d85/classcarla_1_1road_1_1Lane.html#a80044b7e6e4d0412983b1a1208ff14a2" target="_top" xlink:title="carla::road::Lane::\lGetPredecessor">
<polygon fill="#ffffff" stroke="#000000" points="321.5,-120 321.5,-150 425.5,-150 425.5,-120 321.5,-120"/>
<text text-anchor="start" x="329.5" y="-138" font-family="Helvetica,sans-Serif" font-size="10.00" fill="#000000">carla::road::Lane::</text>
<text text-anchor="middle" x="373.5" y="-127" font-family="Helvetica,sans-Serif" font-size="10.00" fill="#000000">GetPredecessor</text>
</a>
</g>
</g>
<!-- Node304&#45;&gt;Node305 -->
<g id="edge13" class="edge">
<title>Node304&#45;&gt;Node305</title>
<path fill="none" stroke="#191970" d="M268.8025,-131.9207C286.2411,-132.4336 304.8502,-132.9809 321.4694,-133.4697"/>
<polygon fill="#191970" stroke="#191970" points="268.7927,-128.419 258.6941,-131.6234 268.5869,-135.4159 268.7927,-128.419"/>
</g>
<!-- Node306 -->
<g id="node9" class="node">
<title>Node306</title>
<g id="a_node9"><a xlink:href="../../de/d16/classcarla_1_1road_1_1MapBuilder.html#ad84a5423baee8d92269aab9d8723c68a" target="_top" xlink:title="Return a list of pointers to all lanes from a lane (using road and junction info). ">
<polygon fill="#ffffff" stroke="#000000" points="486,-120 486,-150 615,-150 615,-120 486,-120"/>
<text text-anchor="start" x="494" y="-138" font-family="Helvetica,sans-Serif" font-size="10.00" fill="#000000">carla::road::MapBuilder</text>
<text text-anchor="middle" x="550.5" y="-127" font-family="Helvetica,sans-Serif" font-size="10.00" fill="#000000">::GetLaneNext</text>
</a>
</g>
</g>
<!-- Node305&#45;&gt;Node306 -->
<g id="edge14" class="edge">
<title>Node305&#45;&gt;Node306</title>
<path fill="none" stroke="#191970" d="M436.0509,-135C452.1963,-135 469.6057,-135 485.8554,-135"/>
<polygon fill="#191970" stroke="#191970" points="435.6485,-131.5001 425.6485,-135 435.6485,-138.5001 435.6485,-131.5001"/>
</g>
</g>
</svg>
        <g id="navigator" transform="translate(0 0)" fill="#404254">
                <rect fill="#f2f5e9" fill-opacity="0.5" stroke="#606060" stroke-width=".5" x="0" y="0" width="60" height="60"/>
                <use id="zoomplus" xlink:href="#zoomPlus" x="17" y="9" onmousedown="handleZoom(evt,'in')"/>
                <use id="zoomminus" xlink:href="#zoomMin" x="42" y="9" onmousedown="handleZoom(evt,'out')"/>
                <use id="reset" xlink:href="#resetDef" x="30" y="36" onmousedown="handleReset()"/>
                <g id="arrowUp" xlink:href="#dirArrow" transform="translate(30 24)" onmousedown="handlePan(0,-1)">
                  <use xlink:href="#rim" fill="#404040">
                        <set attributeName="fill" to="#808080" begin="arrowUp.mouseover" end="arrowUp.mouseout"/>
                  </use>
                  <path fill="none" stroke="white" stroke-width="1.5" d="M0,-3.0v7 M-2.5,-0.5L0,-3.0L2.5,-0.5"/>
                </g>
                <g id="arrowRight" xlink:href="#dirArrow" transform="rotate(90) translate(36 -43)" onmousedown="handlePan(1,0)">
                  <use xlink:href="#rim" fill="#404040">
                        <set attributeName="fill" to="#808080" begin="arrowRight.mouseover" end="arrowRight.mouseout"/>
                  </use>
                  <path fill="none" stroke="white" stroke-width="1.5" d="M0,-3.0v7 M-2.5,-0.5L0,-3.0L2.5,-0.5"/>
                </g>
                <g id="arrowDown" xlink:href="#dirArrow" transform="rotate(180) translate(-30 -48)" onmousedown="handlePan(0,1)">
                  <use xlink:href="#rim" fill="#404040">
                        <set attributeName="fill" to="#808080" begin="arrowDown.mouseover" end="arrowDown.mouseout"/>
                  </use>
                  <path fill="none" stroke="white" stroke-width="1.5" d="M0,-3.0v7 M-2.5,-0.5L0,-3.0L2.5,-0.5"/>
                </g>
                <g id="arrowLeft" xlink:href="#dirArrow" transform="rotate(270) translate(-36 17)" onmousedown="handlePan(-1,0)">
                  <use xlink:href="#rim" fill="#404040">
                        <set attributeName="fill" to="#808080" begin="arrowLeft.mouseover" end="arrowLeft.mouseout"/>
                  </use>
                  <path fill="none" stroke="white" stroke-width="1.5" d="M0,-3.0v7 M-2.5,-0.5L0,-3.0L2.5,-0.5"/>
                </g>
        </g>
        <svg viewBox="0 0 15 15" width="100%" height="30px" preserveAspectRatio="xMaxYMin meet">
         <g id="arrow_out" transform="scale(0.3 0.3)">
          <a xlink:href="classcarla_1_1road_1_1Lane_a2e63094ab14fe9b4ce21e3e08f8d5d24_icgraph_org.svg" target="_base">
           <rect id="button" ry="5" rx="5" y="6" x="6" height="38" width="38"
                fill="#f2f5e9" fill-opacity="0.5" stroke="#606060" stroke-width="1.0"/>
           <path id="arrow"
             d="M 11.500037,31.436501 C 11.940474,20.09759 22.043105,11.32322 32.158766,21.979434 L 37.068811,17.246167 C 37.068811,17.246167 37.088388,32 37.088388,32 L 22.160133,31.978069 C 22.160133,31.978069 26.997745,27.140456 26.997745,27.140456 C 18.528582,18.264221 13.291696,25.230495 11.500037,31.436501 z"
             style="fill:#404040;"/>
          </a>
         </g>
        </svg>
</svg>
