<?xml version="1.0" encoding="UTF-8" standalone="no"?>
<!DOCTYPE svg PUBLIC "-//W3C//DTD SVG 1.1//EN"
 "http://www.w3.org/Graphics/SVG/1.1/DTD/svg11.dtd">
<!-- Generated by graphviz version 2.40.1 (20161225.0304)
 -->
<!-- Title: carla::road::Lane::GetLaneSection Pages: 1 -->
<svg width="921pt" height="468pt"
 viewBox="0.00 0.00 921.00 468.00" xmlns="http://www.w3.org/2000/svg" xmlns:xlink="http://www.w3.org/1999/xlink">
<g id="graph0" class="graph" transform="scale(1 1) rotate(0) translate(4 464)">
<title>carla::road::Lane::GetLaneSection</title>
<polygon fill="#ffffff" stroke="transparent" points="-4,4 -4,-464 917,-464 917,4 -4,4"/>
<!-- Node200 -->
<g id="node1" class="node">
<title>Node200</title>
<polygon fill="#bfbfbf" stroke="#000000" points="0,-257.5 0,-287.5 104,-287.5 104,-257.5 0,-257.5"/>
<text text-anchor="start" x="8" y="-275.5" font-family="Helvetica,sans-Serif" font-size="10.00" fill="#000000">carla::road::Lane::</text>
<text text-anchor="middle" x="52" y="-264.5" font-family="Helvetica,sans-Serif" font-size="10.00" fill="#000000">GetLaneSection</text>
</g>
<!-- Node201 -->
<g id="node2" class="node">
<title>Node201</title>
<g id="a_node2"><a xlink:href="../../df/d85/classcarla_1_1road_1_1Lane.html#a5b6a44fb0e0cd41e21557e93f913f45a" target="_top" xlink:title="carla::road::Lane::\lComputeTransform">
<polygon fill="#ffffff" stroke="#000000" points="148.5,-379.5 148.5,-409.5 258.5,-409.5 258.5,-379.5 148.5,-379.5"/>
<text text-anchor="start" x="156.5" y="-397.5" font-family="Helvetica,sans-Serif" font-size="10.00" fill="#000000">carla::road::Lane::</text>
<text text-anchor="middle" x="203.5" y="-386.5" font-family="Helvetica,sans-Serif" font-size="10.00" fill="#000000">ComputeTransform</text>
</a>
</g>
</g>
<!-- Node200&#45;&gt;Node201 -->
<g id="edge1" class="edge">
<title>Node200&#45;&gt;Node201</title>
<path fill="none" stroke="#191970" d="M78.9613,-294.2114C109.4545,-318.767 158.3078,-358.1076 184.8567,-379.4869"/>
<polygon fill="#191970" stroke="#191970" points="80.8651,-291.2507 70.8813,-287.7047 76.4747,-296.7028 80.8651,-291.2507"/>
</g>
<!-- Node204 -->
<g id="node5" class="node">
<title>Node204</title>
<g id="a_node5"><a xlink:href="../../df/d85/classcarla_1_1road_1_1Lane.html#ae0d376fa422b14e54af3a702e1b8385a" target="_top" xlink:title="Computes the location of the edges given a s. ">
<polygon fill="#ffffff" stroke="#000000" points="148.5,-257.5 148.5,-287.5 258.5,-287.5 258.5,-257.5 148.5,-257.5"/>
<text text-anchor="start" x="156.5" y="-275.5" font-family="Helvetica,sans-Serif" font-size="10.00" fill="#000000">carla::road::Lane::</text>
<text text-anchor="middle" x="203.5" y="-264.5" font-family="Helvetica,sans-Serif" font-size="10.00" fill="#000000">GetCornerPositions</text>
</a>
</g>
</g>
<!-- Node200&#45;&gt;Node204 -->
<g id="edge4" class="edge">
<title>Node200&#45;&gt;Node204</title>
<path fill="none" stroke="#191970" d="M114.3635,-272.5C125.6565,-272.5 137.3595,-272.5 148.425,-272.5"/>
<polygon fill="#191970" stroke="#191970" points="114.1377,-269.0001 104.1377,-272.5 114.1377,-276.0001 114.1377,-269.0001"/>
</g>
<!-- Node222 -->
<g id="node23" class="node">
<title>Node222</title>
<g id="a_node23"><a xlink:href="../../df/d85/classcarla_1_1road_1_1Lane.html#a4bf9b3696e239c0fffc00c5bb785ad9f" target="_top" xlink:title="carla::road::Lane::Lane">
<polygon fill="#ffffff" stroke="#000000" points="140,-219 140,-238 267,-238 267,-219 140,-219"/>
<text text-anchor="middle" x="203.5" y="-226" font-family="Helvetica,sans-Serif" font-size="10.00" fill="#000000">carla::road::Lane::Lane</text>
</a>
</g>
</g>
<!-- Node200&#45;&gt;Node222 -->
<g id="edge28" class="edge">
<title>Node200&#45;&gt;Node222</title>
<path fill="none" stroke="#191970" d="M113.468,-254.6479C132.9861,-248.9793 153.8167,-242.9295 170.5202,-238.0783"/>
<polygon fill="#191970" stroke="#191970" points="112.341,-251.3305 103.714,-257.4808 114.2934,-258.0528 112.341,-251.3305"/>
</g>
<!-- Node202 -->
<g id="node3" class="node">
<title>Node202</title>
<g id="a_node3"><a xlink:href="../../df/d85/classcarla_1_1road_1_1Lane.html#a80044b7e6e4d0412983b1a1208ff14a2" target="_top" xlink:title="carla::road::Lane::\lGetPredecessor">
<polygon fill="#ffffff" stroke="#000000" points="353.5,-429.5 353.5,-459.5 457.5,-459.5 457.5,-429.5 353.5,-429.5"/>
<text text-anchor="start" x="361.5" y="-447.5" font-family="Helvetica,sans-Serif" font-size="10.00" fill="#000000">carla::road::Lane::</text>
<text text-anchor="middle" x="405.5" y="-436.5" font-family="Helvetica,sans-Serif" font-size="10.00" fill="#000000">GetPredecessor</text>
</a>
</g>
</g>
<!-- Node201&#45;&gt;Node202 -->
<g id="edge2" class="edge">
<title>Node201&#45;&gt;Node202</title>
<path fill="none" stroke="#191970" d="M268.6316,-411.7746C280.072,-414.7359 291.8745,-417.7444 303,-420.5 319.3211,-424.5425 337.1494,-428.779 353.2936,-432.5481"/>
<polygon fill="#191970" stroke="#191970" points="269.2562,-408.3207 258.6972,-409.1919 267.4949,-415.0955 269.2562,-408.3207"/>
</g>
<!-- Node203 -->
<g id="node4" class="node">
<title>Node203</title>
<g id="a_node4"><a xlink:href="../../de/d16/classcarla_1_1road_1_1MapBuilder.html#ad84a5423baee8d92269aab9d8723c68a" target="_top" xlink:title="Return a list of pointers to all lanes from a lane (using road and junction info). ">
<polygon fill="#ffffff" stroke="#000000" points="562.5,-429.5 562.5,-459.5 691.5,-459.5 691.5,-429.5 562.5,-429.5"/>
<text text-anchor="start" x="570.5" y="-447.5" font-family="Helvetica,sans-Serif" font-size="10.00" fill="#000000">carla::road::MapBuilder</text>
<text text-anchor="middle" x="627" y="-436.5" font-family="Helvetica,sans-Serif" font-size="10.00" fill="#000000">::GetLaneNext</text>
</a>
</g>
</g>
<!-- Node202&#45;&gt;Node203 -->
<g id="edge3" class="edge">
<title>Node202&#45;&gt;Node203</title>
<path fill="none" stroke="#191970" d="M467.9012,-444.5C497.4326,-444.5 532.6704,-444.5 562.4685,-444.5"/>
<polygon fill="#191970" stroke="#191970" points="467.712,-441.0001 457.7119,-444.5 467.7119,-448.0001 467.712,-441.0001"/>
</g>
<!-- Node204&#45;&gt;Node202 -->
<g id="edge26" class="edge">
<title>Node204&#45;&gt;Node202</title>
<path fill="none" stroke="#191970" d="M218.6736,-296.0281C245.0053,-336.7192 296.9457,-416.3183 303,-420.5 317.7373,-430.679 336.2123,-436.5818 353.4036,-439.9907"/>
<polygon fill="#191970" stroke="#191970" points="221.5374,-294.0112 213.1695,-287.5128 215.6586,-297.8111 221.5374,-294.0112"/>
</g>
<!-- Node205 -->
<g id="node6" class="node">
<title>Node205</title>
<g id="a_node6"><a xlink:href="../../d6/d3d/classcarla_1_1geom_1_1MeshFactory.html#a1e3c826505f82d1ddffd9f40c39cfa2a" target="_top" xlink:title="Generates a mesh that defines a lane from a given s start and end. ">
<polygon fill="#ffffff" stroke="#000000" points="335,-380.5 335,-410.5 476,-410.5 476,-380.5 335,-380.5"/>
<text text-anchor="start" x="343" y="-398.5" font-family="Helvetica,sans-Serif" font-size="10.00" fill="#000000">carla::geom::MeshFactory</text>
<text text-anchor="middle" x="405.5" y="-387.5" font-family="Helvetica,sans-Serif" font-size="10.00" fill="#000000">::Generate</text>
</a>
</g>
</g>
<!-- Node204&#45;&gt;Node205 -->
<g id="edge5" class="edge">
<title>Node204&#45;&gt;Node205</title>
<path fill="none" stroke="#191970" d="M220.4318,-295.6338C238.3733,-318.4332 268.7991,-352.5289 303,-371.5 312.8291,-376.9522 323.8512,-381.1698 334.9258,-384.4315"/>
<polygon fill="#191970" stroke="#191970" points="223.0532,-293.3009 214.185,-287.5039 217.5025,-297.5659 223.0532,-293.3009"/>
</g>
<!-- Node206 -->
<g id="node7" class="node">
<title>Node206</title>
<g id="a_node7"><a xlink:href="../../d6/d3d/classcarla_1_1geom_1_1MeshFactory.html#a4eff26d852b54c8b00d405b0c71a61cb" target="_top" xlink:title="carla::geom::MeshFactory\l::GenerateLaneMarksForCenterLine">
<polygon fill="#ffffff" stroke="#000000" points="311.5,-331.5 311.5,-361.5 499.5,-361.5 499.5,-331.5 311.5,-331.5"/>
<text text-anchor="start" x="319.5" y="-349.5" font-family="Helvetica,sans-Serif" font-size="10.00" fill="#000000">carla::geom::MeshFactory</text>
<text text-anchor="middle" x="405.5" y="-338.5" font-family="Helvetica,sans-Serif" font-size="10.00" fill="#000000">::GenerateLaneMarksForCenterLine</text>
</a>
</g>
</g>
<!-- Node204&#45;&gt;Node206 -->
<g id="edge6" class="edge">
<title>Node204&#45;&gt;Node206</title>
<path fill="none" stroke="#191970" d="M238.3675,-292.5662C257.0609,-302.6642 280.7662,-314.4387 303,-322.5 312.1923,-325.8329 322.0192,-328.8209 331.8139,-331.4626"/>
<polygon fill="#191970" stroke="#191970" points="239.8034,-289.3618 229.3532,-287.6175 236.4348,-295.498 239.8034,-289.3618"/>
</g>
<!-- Node209 -->
<g id="node10" class="node">
<title>Node209</title>
<g id="a_node10"><a xlink:href="../../d6/d3d/classcarla_1_1geom_1_1MeshFactory.html#ab48645244a90c73bda9f9ae337038fce" target="_top" xlink:title="carla::geom::MeshFactory\l::GenerateLaneMarksForNotCenterLine">
<polygon fill="#ffffff" stroke="#000000" points="303,-282.5 303,-312.5 508,-312.5 508,-282.5 303,-282.5"/>
<text text-anchor="start" x="311" y="-300.5" font-family="Helvetica,sans-Serif" font-size="10.00" fill="#000000">carla::geom::MeshFactory</text>
<text text-anchor="middle" x="405.5" y="-289.5" font-family="Helvetica,sans-Serif" font-size="10.00" fill="#000000">::GenerateLaneMarksForNotCenterLine</text>
</a>
</g>
</g>
<!-- Node204&#45;&gt;Node209 -->
<g id="edge9" class="edge">
<title>Node204&#45;&gt;Node209</title>
<path fill="none" stroke="#191970" d="M268.9465,-280.5998C279.8601,-281.9505 291.4086,-283.3798 302.9836,-284.8123"/>
<polygon fill="#191970" stroke="#191970" points="269.0516,-277.0862 258.6974,-279.3314 268.1918,-284.0332 269.0516,-277.0862"/>
</g>
<!-- Node210 -->
<g id="node11" class="node">
<title>Node210</title>
<g id="a_node11"><a xlink:href="../../d6/d3d/classcarla_1_1geom_1_1MeshFactory.html#a202f9750d3be15d0af4b42b3a90f3662" target="_top" xlink:title="Generates a wall&#45;like mesh at the left side of the lane. ">
<polygon fill="#ffffff" stroke="#000000" points="335,-233.5 335,-263.5 476,-263.5 476,-233.5 335,-233.5"/>
<text text-anchor="start" x="343" y="-251.5" font-family="Helvetica,sans-Serif" font-size="10.00" fill="#000000">carla::geom::MeshFactory</text>
<text text-anchor="middle" x="405.5" y="-240.5" font-family="Helvetica,sans-Serif" font-size="10.00" fill="#000000">::GenerateLeftWall</text>
</a>
</g>
</g>
<!-- Node204&#45;&gt;Node210 -->
<g id="edge11" class="edge">
<title>Node204&#45;&gt;Node210</title>
<path fill="none" stroke="#191970" d="M268.8322,-264.7378C289.9051,-262.234 313.3549,-259.4479 334.797,-256.9004"/>
<polygon fill="#191970" stroke="#191970" points="268.2146,-261.2864 258.6974,-265.9419 269.0405,-268.2375 268.2146,-261.2864"/>
</g>
<!-- Node213 -->
<g id="node14" class="node">
<title>Node213</title>
<g id="a_node14"><a xlink:href="../../d6/d3d/classcarla_1_1geom_1_1MeshFactory.html#a11c673db2f69ad3c21ebba4d068b8c6c" target="_top" xlink:title="Generates a wall&#45;like mesh at the right side of the lane. ">
<polygon fill="#ffffff" stroke="#000000" points="335,-184.5 335,-214.5 476,-214.5 476,-184.5 335,-184.5"/>
<text text-anchor="start" x="343" y="-202.5" font-family="Helvetica,sans-Serif" font-size="10.00" fill="#000000">carla::geom::MeshFactory</text>
<text text-anchor="middle" x="405.5" y="-191.5" font-family="Helvetica,sans-Serif" font-size="10.00" fill="#000000">::GenerateRightWall</text>
</a>
</g>
</g>
<!-- Node204&#45;&gt;Node213 -->
<g id="edge15" class="edge">
<title>Node204&#45;&gt;Node213</title>
<path fill="none" stroke="#191970" d="M254.6359,-253.377C258.8644,-251.4916 263.0342,-249.5235 267,-247.5 283.9125,-238.8708 285.5409,-231.9615 303,-224.5 313.0216,-220.217 323.9218,-216.5745 334.7508,-213.506"/>
<polygon fill="#191970" stroke="#191970" points="253.1536,-250.2043 245.3419,-257.3617 255.912,-256.6379 253.1536,-250.2043"/>
</g>
<!-- Node214 -->
<g id="node15" class="node">
<title>Node214</title>
<g id="a_node15"><a xlink:href="../../d6/d3d/classcarla_1_1geom_1_1MeshFactory.html#a307f715a3e409fd5db0ce50f45c40478" target="_top" xlink:title="carla::geom::MeshFactory\l::GenerateSidewalk">
<polygon fill="#ffffff" stroke="#000000" points="335,-135.5 335,-165.5 476,-165.5 476,-135.5 335,-135.5"/>
<text text-anchor="start" x="343" y="-153.5" font-family="Helvetica,sans-Serif" font-size="10.00" fill="#000000">carla::geom::MeshFactory</text>
<text text-anchor="middle" x="405.5" y="-142.5" font-family="Helvetica,sans-Serif" font-size="10.00" fill="#000000">::GenerateSidewalk</text>
</a>
</g>
</g>
<!-- Node204&#45;&gt;Node214 -->
<g id="edge18" class="edge">
<title>Node204&#45;&gt;Node214</title>
<path fill="none" stroke="#191970" d="M261.5869,-251.9065C263.4824,-250.5269 265.2956,-249.0597 267,-247.5 293.3935,-223.3467 275.0282,-197.8064 303,-175.5 312.2369,-168.134 323.326,-162.8927 334.7476,-159.1731"/>
<polygon fill="#191970" stroke="#191970" points="259.4344,-249.1255 252.831,-257.4108 263.1599,-255.0518 259.4344,-249.1255"/>
</g>
<!-- Node215 -->
<g id="node16" class="node">
<title>Node215</title>
<g id="a_node16"><a xlink:href="../../d6/d3d/classcarla_1_1geom_1_1MeshFactory.html#ae26205cfd730254bb1a35302386b497f" target="_top" xlink:title="Generates a mesh that defines a lane from a given s start and end with bigger tesselation. ">
<polygon fill="#ffffff" stroke="#000000" points="335,-86.5 335,-116.5 476,-116.5 476,-86.5 335,-86.5"/>
<text text-anchor="start" x="343" y="-104.5" font-family="Helvetica,sans-Serif" font-size="10.00" fill="#000000">carla::geom::MeshFactory</text>
<text text-anchor="middle" x="405.5" y="-93.5" font-family="Helvetica,sans-Serif" font-size="10.00" fill="#000000">::GenerateTesselated</text>
</a>
</g>
</g>
<!-- Node204&#45;&gt;Node215 -->
<g id="edge19" class="edge">
<title>Node204&#45;&gt;Node215</title>
<path fill="none" stroke="#191970" d="M263.1433,-251.2583C264.4984,-250.072 265.7884,-248.8204 267,-247.5 304.9343,-206.1594 262.3477,-165.1709 303,-126.5 311.8918,-118.0416 323.1502,-112.2982 334.9274,-108.4281"/>
<polygon fill="#191970" stroke="#191970" points="260.7857,-248.6457 254.7659,-257.3642 264.9088,-254.3026 260.7857,-248.6457"/>
</g>
<!-- Node221 -->
<g id="node22" class="node">
<title>Node221</title>
<g id="a_node22"><a xlink:href="../../d0/d34/classcarla_1_1road_1_1Map.html#a7e138a5646ce9218c2c765654b18a9d4" target="_top" xlink:title="carla::road::Map::GetTrees\lPosition">
<polygon fill="#ffffff" stroke="#000000" points="334,-37.5 334,-67.5 477,-67.5 477,-37.5 334,-37.5"/>
<text text-anchor="start" x="342" y="-55.5" font-family="Helvetica,sans-Serif" font-size="10.00" fill="#000000">carla::road::Map::GetTrees</text>
<text text-anchor="middle" x="405.5" y="-44.5" font-family="Helvetica,sans-Serif" font-size="10.00" fill="#000000">Position</text>
</a>
</g>
</g>
<!-- Node204&#45;&gt;Node221 -->
<g id="edge27" class="edge">
<title>Node204&#45;&gt;Node221</title>
<path fill="none" stroke="#191970" d="M263.3786,-251.3033C264.6581,-250.1041 265.8696,-248.8376 267,-247.5 317.1296,-188.1786 248.7034,-132.0326 303,-76.5 311.4329,-67.8751 322.3305,-62.1022 333.8614,-58.284"/>
<polygon fill="#191970" stroke="#191970" points="261.1774,-248.5809 255.3979,-257.4606 265.4534,-254.1231 261.1774,-248.5809"/>
</g>
<!-- Node207 -->
<g id="node8" class="node">
<title>Node207</title>
<g id="a_node8"><a xlink:href="../../d6/d3d/classcarla_1_1geom_1_1MeshFactory.html#a1b71b5d83a1cd367c97188482722c72a" target="_top" xlink:title="carla::geom::MeshFactory\l::GenerateLaneMarkForRoad">
<polygon fill="#ffffff" stroke="#000000" points="550,-322.5 550,-352.5 704,-352.5 704,-322.5 550,-322.5"/>
<text text-anchor="start" x="558" y="-340.5" font-family="Helvetica,sans-Serif" font-size="10.00" fill="#000000">carla::geom::MeshFactory</text>
<text text-anchor="middle" x="627" y="-329.5" font-family="Helvetica,sans-Serif" font-size="10.00" fill="#000000">::GenerateLaneMarkForRoad</text>
</a>
</g>
</g>
<!-- Node206&#45;&gt;Node207 -->
<g id="edge7" class="edge">
<title>Node206&#45;&gt;Node207</title>
<path fill="none" stroke="#191970" d="M509.9963,-342.2541C523.4346,-341.7081 536.9961,-341.157 549.8859,-340.6333"/>
<polygon fill="#191970" stroke="#191970" points="509.6067,-338.7669 499.7571,-342.6701 509.891,-345.7612 509.6067,-338.7669"/>
</g>
<!-- Node208 -->
<g id="node9" class="node">
<title>Node208</title>
<g id="a_node9"><a xlink:href="../../d0/d34/classcarla_1_1road_1_1Map.html#af81dcbdbdd79f0c7c6678df045bf281c" target="_top" xlink:title="Buids a list of meshes related with LineMarkings. ">
<polygon fill="#ffffff" stroke="#000000" points="756.5,-322.5 756.5,-352.5 902.5,-352.5 902.5,-322.5 756.5,-322.5"/>
<text text-anchor="start" x="764.5" y="-340.5" font-family="Helvetica,sans-Serif" font-size="10.00" fill="#000000">carla::road::Map::Generate</text>
<text text-anchor="middle" x="829.5" y="-329.5" font-family="Helvetica,sans-Serif" font-size="10.00" fill="#000000">LineMarkings</text>
</a>
</g>
</g>
<!-- Node207&#45;&gt;Node208 -->
<g id="edge8" class="edge">
<title>Node207&#45;&gt;Node208</title>
<path fill="none" stroke="#191970" d="M714.2501,-337.5C728.2525,-337.5 742.6191,-337.5 756.2508,-337.5"/>
<polygon fill="#191970" stroke="#191970" points="714.1343,-334.0001 704.1342,-337.5 714.1342,-341.0001 714.1343,-334.0001"/>
</g>
<!-- Node209&#45;&gt;Node207 -->
<g id="edge10" class="edge">
<title>Node209&#45;&gt;Node207</title>
<path fill="none" stroke="#191970" d="M498.5482,-314.3033C515.5635,-317.376 533.1511,-320.5521 549.6479,-323.5312"/>
<polygon fill="#191970" stroke="#191970" points="499.0715,-310.8412 488.6086,-312.5083 497.8274,-317.7298 499.0715,-310.8412"/>
</g>
<!-- Node211 -->
<g id="node12" class="node">
<title>Node211</title>
<g id="a_node12"><a xlink:href="../../d6/d3d/classcarla_1_1geom_1_1MeshFactory.html#aec242ce8214cea646ba254c0cfc0176a" target="_top" xlink:title="Genrates a mesh representing a wall on the road corners to avoid cars falling down. ">
<polygon fill="#ffffff" stroke="#000000" points="556.5,-227.5 556.5,-257.5 697.5,-257.5 697.5,-227.5 556.5,-227.5"/>
<text text-anchor="start" x="564.5" y="-245.5" font-family="Helvetica,sans-Serif" font-size="10.00" fill="#000000">carla::geom::MeshFactory</text>
<text text-anchor="middle" x="627" y="-234.5" font-family="Helvetica,sans-Serif" font-size="10.00" fill="#000000">::GenerateWalls</text>
</a>
</g>
</g>
<!-- Node210&#45;&gt;Node211 -->
<g id="edge12" class="edge">
<title>Node210&#45;&gt;Node211</title>
<path fill="none" stroke="#191970" d="M486.2334,-246.3131C509.156,-245.6922 533.9342,-245.021 556.2189,-244.4173"/>
<polygon fill="#191970" stroke="#191970" points="486.0945,-242.8155 476.193,-246.5851 486.2841,-249.8129 486.0945,-242.8155"/>
</g>
<!-- Node212 -->
<g id="node13" class="node">
<title>Node212</title>
<g id="a_node13"><a xlink:href="../../d6/d3d/classcarla_1_1geom_1_1MeshFactory.html#a5588f2f98ea42ade1082db0ef1c8ce7b" target="_top" xlink:title="Generates a list of meshes that defines a lane_section safety wall with a maximum length...">
<polygon fill="#ffffff" stroke="#000000" points="752.5,-227.5 752.5,-257.5 906.5,-257.5 906.5,-227.5 752.5,-227.5"/>
<text text-anchor="start" x="760.5" y="-245.5" font-family="Helvetica,sans-Serif" font-size="10.00" fill="#000000">carla::geom::MeshFactory</text>
<text text-anchor="middle" x="829.5" y="-234.5" font-family="Helvetica,sans-Serif" font-size="10.00" fill="#000000">::GenerateWallsWithMaxLen</text>
</a>
</g>
</g>
<!-- Node210&#45;&gt;Node212 -->
<g id="edge14" class="edge">
<title>Node210&#45;&gt;Node212</title>
<path fill="none" stroke="#191970" d="M486.1906,-261.4558C505.1058,-263.9685 525.2195,-266.2178 544,-267.5 617.6064,-272.5253 636.6141,-275.0941 710,-267.5 729.6073,-265.471 750.7394,-261.6169 769.7009,-257.5314"/>
<polygon fill="#191970" stroke="#191970" points="486.5048,-257.9663 476.1229,-260.0796 485.5567,-264.9018 486.5048,-257.9663"/>
</g>
<!-- Node211&#45;&gt;Node212 -->
<g id="edge13" class="edge">
<title>Node211&#45;&gt;Node212</title>
<path fill="none" stroke="#191970" d="M707.6218,-242.5C722.3475,-242.5 737.6811,-242.5 752.3042,-242.5"/>
<polygon fill="#191970" stroke="#191970" points="707.5404,-239.0001 697.5404,-242.5 707.5404,-246.0001 707.5404,-239.0001"/>
</g>
<!-- Node213&#45;&gt;Node211 -->
<g id="edge16" class="edge">
<title>Node213&#45;&gt;Node211</title>
<path fill="none" stroke="#191970" d="M486.2334,-215.1728C509.156,-219.6228 533.9342,-224.433 556.2189,-228.7592"/>
<polygon fill="#191970" stroke="#191970" points="486.6767,-211.6936 476.193,-213.2237 485.3427,-218.5654 486.6767,-211.6936"/>
</g>
<!-- Node213&#45;&gt;Node212 -->
<g id="edge17" class="edge">
<title>Node213&#45;&gt;Node212</title>
<path fill="none" stroke="#191970" d="M486.2494,-201.5512C547.7854,-203.8363 634.5057,-208.6102 710,-218.5 727.3098,-220.7676 745.8735,-224.0662 763.0854,-227.4957"/>
<polygon fill="#191970" stroke="#191970" points="486.3314,-198.052 476.2127,-201.1922 486.0812,-205.0475 486.3314,-198.052"/>
</g>
<!-- Node216 -->
<g id="node17" class="node">
<title>Node216</title>
<g id="a_node17"><a xlink:href="../../d0/d34/classcarla_1_1road_1_1Map.html#ac0ec16e74b7e804851332710dde75733" target="_top" xlink:title="carla::road::Map::Generate\lJunctions">
<polygon fill="#ffffff" stroke="#000000" points="554,-137.5 554,-167.5 700,-167.5 700,-137.5 554,-137.5"/>
<text text-anchor="start" x="562" y="-155.5" font-family="Helvetica,sans-Serif" font-size="10.00" fill="#000000">carla::road::Map::Generate</text>
<text text-anchor="middle" x="627" y="-144.5" font-family="Helvetica,sans-Serif" font-size="10.00" fill="#000000">Junctions</text>
</a>
</g>
</g>
<!-- Node215&#45;&gt;Node216 -->
<g id="edge20" class="edge">
<title>Node215&#45;&gt;Node216</title>
<path fill="none" stroke="#191970" d="M480.6928,-118.813C507.0322,-124.8776 536.3733,-131.6334 561.8247,-137.4935"/>
<polygon fill="#191970" stroke="#191970" points="481.2897,-115.3589 470.7593,-116.5258 479.719,-122.1805 481.2897,-115.3589"/>
</g>
<!-- Node218 -->
<g id="node19" class="node">
<title>Node218</title>
<g id="a_node19"><a xlink:href="../../d6/d3d/classcarla_1_1geom_1_1MeshFactory.html#ad6e08fdf5e167445abc19afc3670cc4a" target="_top" xlink:title="Generates a mesh that defines a lane section. ">
<polygon fill="#ffffff" stroke="#000000" points="544,-88.5 544,-118.5 710,-118.5 710,-88.5 544,-88.5"/>
<text text-anchor="start" x="552" y="-106.5" font-family="Helvetica,sans-Serif" font-size="10.00" fill="#000000">carla::geom::MeshFactory</text>
<text text-anchor="middle" x="627" y="-95.5" font-family="Helvetica,sans-Serif" font-size="10.00" fill="#000000">::GenerateLaneSectionOrdered</text>
</a>
</g>
</g>
<!-- Node215&#45;&gt;Node218 -->
<g id="edge22" class="edge">
<title>Node215&#45;&gt;Node218</title>
<path fill="none" stroke="#191970" d="M486.438,-102.2308C505.1327,-102.3996 525.0518,-102.5795 543.8397,-102.7491"/>
<polygon fill="#191970" stroke="#191970" points="486.2242,-98.7288 476.193,-102.1383 486.1609,-105.7286 486.2242,-98.7288"/>
</g>
<!-- Node219 -->
<g id="node20" class="node">
<title>Node219</title>
<g id="a_node20"><a xlink:href="../../d6/d3d/classcarla_1_1geom_1_1MeshFactory.html#acce620f6e7432999236d4dd2c7900e24" target="_top" xlink:title="Generates a list of meshes that defines a lane_section with a maximum length. ">
<polygon fill="#ffffff" stroke="#000000" points="746,-66.5 746,-96.5 913,-96.5 913,-66.5 746,-66.5"/>
<text text-anchor="start" x="754" y="-84.5" font-family="Helvetica,sans-Serif" font-size="10.00" fill="#000000">carla::geom::MeshFactory</text>
<text text-anchor="middle" x="829.5" y="-73.5" font-family="Helvetica,sans-Serif" font-size="10.00" fill="#000000">::GenerateOrderedWithMaxLen</text>
</a>
</g>
</g>
<!-- Node215&#45;&gt;Node219 -->
<g id="edge24" class="edge">
<title>Node215&#45;&gt;Node219</title>
<path fill="none" stroke="#191970" d="M486.1024,-85.819C505.0215,-82.7773 525.159,-80.0538 544,-78.5 617.5282,-72.4363 636.228,-77.5741 710,-78.5 721.6208,-78.6458 733.8758,-78.8714 745.9314,-79.1349"/>
<polygon fill="#191970" stroke="#191970" points="485.329,-82.3993 476.0345,-87.485 486.4718,-89.3054 485.329,-82.3993"/>
</g>
<!-- Node220 -->
<g id="node21" class="node">
<title>Node220</title>
<g id="a_node21"><a xlink:href="../../d6/d3d/classcarla_1_1geom_1_1MeshFactory.html#a27fb4c904ccf5679a3888a511609495b" target="_top" xlink:title="Generates a mesh that defines the whole lane with bigger tesselation. ">
<polygon fill="#ffffff" stroke="#000000" points="556.5,-.5 556.5,-30.5 697.5,-30.5 697.5,-.5 556.5,-.5"/>
<text text-anchor="start" x="564.5" y="-18.5" font-family="Helvetica,sans-Serif" font-size="10.00" fill="#000000">carla::geom::MeshFactory</text>
<text text-anchor="middle" x="627" y="-7.5" font-family="Helvetica,sans-Serif" font-size="10.00" fill="#000000">::GenerateTesselated</text>
</a>
</g>
</g>
<!-- Node215&#45;&gt;Node220 -->
<g id="edge25" class="edge">
<title>Node215&#45;&gt;Node220</title>
<path fill="none" stroke="#191970" d="M485.5523,-85.9291C493.3241,-83.2531 500.9362,-80.1334 508,-76.5 526.7764,-66.8421 525.7701,-56.1536 544,-45.5 553.9216,-39.7018 565.1537,-34.7261 576.0768,-30.5886"/>
<polygon fill="#191970" stroke="#191970" points="484.478,-82.598 476.0193,-88.9777 486.6103,-89.2653 484.478,-82.598"/>
</g>
<!-- Node217 -->
<g id="node18" class="node">
<title>Node217</title>
<g id="a_node18"><a xlink:href="../../d0/d34/classcarla_1_1road_1_1Map.html#a2adfdd0805fb2ef45824cc69b98d26fe" target="_top" xlink:title="carla::road::Map::Generate\lOrderedChunkedMesh">
<polygon fill="#ffffff" stroke="#000000" points="756.5,-137.5 756.5,-167.5 902.5,-167.5 902.5,-137.5 756.5,-137.5"/>
<text text-anchor="start" x="764.5" y="-155.5" font-family="Helvetica,sans-Serif" font-size="10.00" fill="#000000">carla::road::Map::Generate</text>
<text text-anchor="middle" x="829.5" y="-144.5" font-family="Helvetica,sans-Serif" font-size="10.00" fill="#000000">OrderedChunkedMesh</text>
</a>
</g>
</g>
<!-- Node216&#45;&gt;Node217 -->
<g id="edge21" class="edge">
<title>Node216&#45;&gt;Node217</title>
<path fill="none" stroke="#191970" d="M710.4891,-152.5C725.6366,-152.5 741.3316,-152.5 756.1602,-152.5"/>
<polygon fill="#191970" stroke="#191970" points="710.1072,-149.0001 700.1071,-152.5 710.1071,-156.0001 710.1072,-149.0001"/>
</g>
<!-- Node218&#45;&gt;Node219 -->
<g id="edge23" class="edge">
<title>Node218&#45;&gt;Node219</title>
<path fill="none" stroke="#191970" d="M720.2466,-93.3695C728.8125,-92.4389 737.4552,-91.4999 745.9275,-90.5795"/>
<polygon fill="#191970" stroke="#191970" points="719.8046,-89.8968 710.2411,-94.4565 720.5607,-96.8559 719.8046,-89.8968"/>
</g>
</g>
</svg>
