<?xml version="1.0" encoding="UTF-8" standalone="no"?>
<!DOCTYPE svg PUBLIC "-//W3C//DTD SVG 1.1//EN"
 "http://www.w3.org/Graphics/SVG/1.1/DTD/svg11.dtd">
<!-- Generated by graphviz version 2.40.1 (20161225.0304)
 -->
<!-- Title: carla::geom::BoundingBox::operator!= Pages: 1 -->
<svg width="336pt" height="88pt"
 viewBox="0.00 0.00 336.00 88.00" xmlns="http://www.w3.org/2000/svg" xmlns:xlink="http://www.w3.org/1999/xlink">
<g id="graph0" class="graph" transform="scale(1 1) rotate(0) translate(4 84)">
<title>carla::geom::BoundingBox::operator!=</title>
<polygon fill="#ffffff" stroke="transparent" points="-4,4 -4,-84 332,-84 332,4 -4,4"/>
<!-- Node30 -->
<g id="node1" class="node">
<title>Node30</title>
<polygon fill="#bfbfbf" stroke="#000000" points="0,-24.5 0,-54.5 145,-54.5 145,-24.5 0,-24.5"/>
<text text-anchor="start" x="8" y="-42.5" font-family="Helvetica,sans-Serif" font-size="10.00" fill="#000000">carla::geom::BoundingBox</text>
<text text-anchor="middle" x="72.5" y="-31.5" font-family="Helvetica,sans-Serif" font-size="10.00" fill="#000000">::operator!=</text>
</g>
<!-- Node31 -->
<g id="node2" class="node">
<title>Node31</title>
<g id="a_node2"><a xlink:href="../../d8/d68/classcarla_1_1geom_1_1BoundingBox.html#a34072bc73cee8414fcf08ae8dd39f23e" target="_top" xlink:title="carla::geom::BoundingBox\l::BoundingBox">
<polygon fill="#ffffff" stroke="#000000" points="182,-49.5 182,-79.5 327,-79.5 327,-49.5 182,-49.5"/>
<text text-anchor="start" x="190" y="-67.5" font-family="Helvetica,sans-Serif" font-size="10.00" fill="#000000">carla::geom::BoundingBox</text>
<text text-anchor="middle" x="254.5" y="-56.5" font-family="Helvetica,sans-Serif" font-size="10.00" fill="#000000">::BoundingBox</text>
</a>
</g>
</g>
<!-- Node30&#45;&gt;Node31 -->
<g id="edge1" class="edge">
<title>Node30&#45;&gt;Node31</title>
<path fill="none" stroke="#191970" d="M145.2159,-49.4884C153.9923,-50.694 163.0055,-51.9321 171.9103,-53.1553"/>
<polygon fill="#191970" stroke="#191970" points="171.5164,-56.6339 181.8997,-54.5274 172.469,-49.6991 171.5164,-56.6339"/>
</g>
<!-- Node32 -->
<g id="node3" class="node">
<title>Node32</title>
<g id="a_node3"><a xlink:href="../../d8/d68/classcarla_1_1geom_1_1BoundingBox.html#aa80a7a5bb2abfd845723d45ce7227d69" target="_top" xlink:title="carla::geom::BoundingBox\l::MSGPACK_DEFINE_ARRAY">
<polygon fill="#ffffff" stroke="#000000" points="181,-.5 181,-30.5 328,-30.5 328,-.5 181,-.5"/>
<text text-anchor="start" x="189" y="-18.5" font-family="Helvetica,sans-Serif" font-size="10.00" fill="#000000">carla::geom::BoundingBox</text>
<text text-anchor="middle" x="254.5" y="-7.5" font-family="Helvetica,sans-Serif" font-size="10.00" fill="#000000">::MSGPACK_DEFINE_ARRAY</text>
</a>
</g>
</g>
<!-- Node30&#45;&gt;Node32 -->
<g id="edge2" class="edge">
<title>Node30&#45;&gt;Node32</title>
<path fill="none" stroke="#191970" d="M145.2159,-29.9111C153.6133,-28.8037 162.2274,-27.6678 170.756,-26.5432"/>
<polygon fill="#191970" stroke="#191970" points="171.2538,-30.0079 180.7104,-25.2305 170.3386,-23.068 171.2538,-30.0079"/>
</g>
</g>
</svg>
