<?xml version="1.0" encoding="UTF-8" standalone="no"?>
<!DOCTYPE svg PUBLIC "-//W3C//DTD SVG 1.1//EN"
 "http://www.w3.org/Graphics/SVG/1.1/DTD/svg11.dtd">
<!-- Generated by graphviz version 2.38.0 (20140413.2041)
 -->
<!-- Title: UCarlaEpisode::InitializeAtBeginPlay Pages: 1 -->
<!--zoomable 280 -->
<svg id="main" version="1.1" xmlns="http://www.w3.org/2000/svg" xmlns:xlink="http://www.w3.org/1999/xlink" xml:space="preserve" onload="init(evt)">
<style type="text/css"><![CDATA[
.edge:hover path { stroke: red; }
.edge:hover polygon { stroke: red; fill: red; }
]]></style>
<script type="text/javascript"><![CDATA[
var edges = document.getElementsByTagName('g');
if (edges && edges.length) {
  for (var i=0;i<edges.length;i++) {
    if (edges[i].id.substr(0,4)=='edge') {
      edges[i].setAttribute('class','edge');
    }
  }
}
]]></script>
        <defs>
                <circle id="rim" cx="0" cy="0" r="7"/>
                <circle id="rim2" cx="0" cy="0" r="3.5"/>
                <g id="zoomPlus">
                        <use xlink:href="#rim" fill="#404040">
                                <set attributeName="fill" to="#808080" begin="zoomplus.mouseover" end="zoomplus.mouseout"/>
                        </use>
                        <path d="M-4,0h8M0,-4v8" fill="none" stroke="white" stroke-width="1.5" pointer-events="none"/>
                </g>
                <g id="zoomMin">
                        <use xlink:href="#rim" fill="#404040">
                                <set attributeName="fill" to="#808080" begin="zoomminus.mouseover" end="zoomminus.mouseout"/>
                        </use>
                        <path d="M-4,0h8" fill="none" stroke="white" stroke-width="1.5" pointer-events="none"/>
                </g>
                <g id="dirArrow">
                        <path fill="none" stroke="white" stroke-width="1.5" d="M0,-3.0v7 M-2.5,-0.5L0,-3.0L2.5,-0.5"/>
                </g>
               <g id="resetDef">
                       <use xlink:href="#rim2" fill="#404040">
                               <set attributeName="fill" to="#808080" begin="reset.mouseover" end="reset.mouseout"/>
                       </use>
               </g>
        </defs>

<script type="text/javascript">
var viewWidth = 1061;
var viewHeight = 280;
var sectionId = 'dynsection-21';
</script>
<script xlink:href="../../svgpan.js"/>
<svg id="graph" class="graph">
<g id="viewport">
<title>UCarlaEpisode::InitializeAtBeginPlay</title>
<polygon fill="white" stroke="none" points="-4,4 -4,-275.5 1057,-275.5 1057,4 -4,4"/>
<!-- Node1 -->
<g id="node1" class="node"><title>Node1</title>
<polygon fill="#bfbfbf" stroke="black" points="0,-149.5 0,-179.5 125,-179.5 125,-149.5 0,-149.5"/>
<text text-anchor="start" x="8" y="-167.5" font-family="Helvetica,sans-Serif" font-size="10.00">UCarlaEpisode::Initialize</text>
<text text-anchor="middle" x="62.5" y="-156.5" font-family="Helvetica,sans-Serif" font-size="10.00">AtBeginPlay</text>
</g>
<!-- Node2 -->
<g id="node2" class="node"><title>Node2</title>
<g id="a_node2"><a xlink:href="../../d3/df1/classATrafficSignBase.html#a0758a5a2304dd47b10287b9d4b02604b" target="_top" xlink:title="ATrafficSignBase::GetTraffic\lSignState">
<polygon fill="white" stroke="black" points="161,-198.5 161,-228.5 304,-228.5 304,-198.5 161,-198.5"/>
<text text-anchor="start" x="169" y="-216.5" font-family="Helvetica,sans-Serif" font-size="10.00">ATrafficSignBase::GetTraffic</text>
<text text-anchor="middle" x="232.5" y="-205.5" font-family="Helvetica,sans-Serif" font-size="10.00">SignState</text>
</a>
</g>
</g>
<!-- Node1&#45;&gt;Node2 -->
<g id="edge1" class="edge"><title>Node1&#45;&gt;Node2</title>
<path fill="none" stroke="midnightblue" d="M115.276,-179.601C132.603,-184.655 152.086,-190.338 170.077,-195.585"/>
<polygon fill="midnightblue" stroke="midnightblue" points="169.315,-199.008 179.895,-198.448 171.275,-192.288 169.315,-199.008"/>
</g>
<!-- Node3 -->
<g id="node3" class="node"><title>Node3</title>
<g id="a_node3"><a xlink:href="../../d7/d90/classUActorDispatcher.html#acb4fec0e9d4351b3ece285f93a2ef6a2" target="_top" xlink:title="Register an actor that was not created using &quot;SpawnActor&quot; function but that should be kept in the reg...">
<polygon fill="white" stroke="black" points="164,-149.5 164,-179.5 301,-179.5 301,-149.5 164,-149.5"/>
<text text-anchor="start" x="172" y="-167.5" font-family="Helvetica,sans-Serif" font-size="10.00">UActorDispatcher::Register</text>
<text text-anchor="middle" x="232.5" y="-156.5" font-family="Helvetica,sans-Serif" font-size="10.00">Actor</text>
</a>
</g>
</g>
<!-- Node1&#45;&gt;Node3 -->
<g id="edge2" class="edge"><title>Node1&#45;&gt;Node3</title>
<path fill="none" stroke="midnightblue" d="M125.103,-164.5C134.486,-164.5 144.271,-164.5 153.942,-164.5"/>
<polygon fill="midnightblue" stroke="midnightblue" points="153.957,-168 163.957,-164.5 153.956,-161 153.957,-168"/>
</g>
<!-- Node18 -->
<g id="node18" class="node"><title>Node18</title>
<g id="a_node18"><a xlink:href="../../d6/dd9/CarlaEpisode_8cpp.html#a9626820441bd7303706356f62d414849" target="_top" xlink:title="UCarlaEpisode_GetTraffic\lSignId">
<polygon fill="white" stroke="black" points="167,-100.5 167,-130.5 298,-130.5 298,-100.5 167,-100.5"/>
<text text-anchor="start" x="175" y="-118.5" font-family="Helvetica,sans-Serif" font-size="10.00">UCarlaEpisode_GetTraffic</text>
<text text-anchor="middle" x="232.5" y="-107.5" font-family="Helvetica,sans-Serif" font-size="10.00">SignId</text>
</a>
</g>
</g>
<!-- Node1&#45;&gt;Node18 -->
<g id="edge18" class="edge"><title>Node1&#45;&gt;Node18</title>
<path fill="none" stroke="midnightblue" d="M115.276,-149.399C132.603,-144.345 152.086,-138.662 170.077,-133.415"/>
<polygon fill="midnightblue" stroke="midnightblue" points="171.275,-136.712 179.895,-130.552 169.315,-129.992 171.275,-136.712"/>
</g>
<!-- Node4 -->
<g id="node4" class="node"><title>Node4</title>
<g id="a_node4"><a xlink:href="../../d7/d90/classUActorDispatcher.html#a03e325e791dd0449c82c264aa223d67a" target="_top" xlink:title="UActorDispatcher::OnActor\lDestroyed">
<polygon fill="white" stroke="black" points="340,-180.5 340,-210.5 477,-210.5 477,-180.5 340,-180.5"/>
<text text-anchor="start" x="348" y="-198.5" font-family="Helvetica,sans-Serif" font-size="10.00">UActorDispatcher::OnActor</text>
<text text-anchor="middle" x="408.5" y="-187.5" font-family="Helvetica,sans-Serif" font-size="10.00">Destroyed</text>
</a>
</g>
</g>
<!-- Node3&#45;&gt;Node4 -->
<g id="edge3" class="edge"><title>Node3&#45;&gt;Node4</title>
<path fill="none" stroke="midnightblue" d="M301.271,-176.574C310.69,-178.252 320.426,-179.987 330.006,-181.694"/>
<polygon fill="midnightblue" stroke="midnightblue" points="329.455,-185.15 339.914,-183.459 330.683,-178.259 329.455,-185.15"/>
</g>
<!-- Node9 -->
<g id="node9" class="node"><title>Node9</title>
<g id="a_node9"><a xlink:href="../../df/db5/classFActorRegistry.html#a748d2362d99d13e0cce07b03c2d5d53b" target="_top" xlink:title="Register the Actor in the database. ">
<polygon fill="white" stroke="black" points="346,-123 346,-142 471,-142 471,-123 346,-123"/>
<text text-anchor="middle" x="408.5" y="-130" font-family="Helvetica,sans-Serif" font-size="10.00">FActorRegistry::Register</text>
</a>
</g>
</g>
<!-- Node3&#45;&gt;Node9 -->
<g id="edge8" class="edge"><title>Node3&#45;&gt;Node9</title>
<path fill="none" stroke="midnightblue" d="M301.271,-152.036C315.86,-149.353 331.209,-146.531 345.563,-143.891"/>
<polygon fill="midnightblue" stroke="midnightblue" points="346.611,-147.257 355.813,-142.006 345.345,-140.372 346.611,-147.257"/>
</g>
<!-- Node5 -->
<g id="node5" class="node"><title>Node5</title>
<g id="a_node5"><a xlink:href="../../df/db5/classFActorRegistry.html#a9d941257df9af5f171a84eb297a8d0ba" target="_top" xlink:title="FActorRegistry::Deregister">
<polygon fill="white" stroke="black" points="513,-195 513,-214 647,-214 647,-195 513,-195"/>
<text text-anchor="middle" x="580" y="-202" font-family="Helvetica,sans-Serif" font-size="10.00">FActorRegistry::Deregister</text>
</a>
</g>
</g>
<!-- Node4&#45;&gt;Node5 -->
<g id="edge4" class="edge"><title>Node4&#45;&gt;Node5</title>
<path fill="none" stroke="midnightblue" d="M477.465,-199.109C485.781,-199.55 494.322,-200.004 502.749,-200.451"/>
<polygon fill="midnightblue" stroke="midnightblue" points="502.778,-203.958 512.949,-200.993 503.149,-196.967 502.778,-203.958"/>
</g>
<!-- Node6 -->
<g id="node6" class="node"><title>Node6</title>
<g id="a_node6"><a xlink:href="../../df/db5/classFActorRegistry.html#aae92b8091c5c54c78e37eec25143d9f7" target="_top" xlink:title="FActorRegistry::Contains">
<polygon fill="white" stroke="black" points="693.5,-252 693.5,-271 821.5,-271 821.5,-252 693.5,-252"/>
<text text-anchor="middle" x="757.5" y="-259" font-family="Helvetica,sans-Serif" font-size="10.00">FActorRegistry::Contains</text>
</a>
</g>
</g>
<!-- Node5&#45;&gt;Node6 -->
<g id="edge5" class="edge"><title>Node5&#45;&gt;Node6</title>
<path fill="none" stroke="midnightblue" d="M604.664,-214.112C625.184,-222.255 655.78,-233.937 683,-242.5 690.687,-244.918 698.894,-247.265 706.936,-249.437"/>
<polygon fill="midnightblue" stroke="midnightblue" points="706.053,-252.824 716.615,-251.992 707.84,-246.056 706.053,-252.824"/>
</g>
<!-- Node7 -->
<g id="node7" class="node"><title>Node7</title>
<g id="a_node7"><a xlink:href="../../df/db5/classFActorRegistry.html#a8f7b9bd6ddd4f608fb090aca5436101e" target="_top" xlink:title="FActorRegistry::Find">
<polygon fill="white" stroke="black" points="704,-214 704,-233 811,-233 811,-214 704,-214"/>
<text text-anchor="middle" x="757.5" y="-221" font-family="Helvetica,sans-Serif" font-size="10.00">FActorRegistry::Find</text>
</a>
</g>
</g>
<!-- Node5&#45;&gt;Node7 -->
<g id="edge6" class="edge"><title>Node5&#45;&gt;Node7</title>
<path fill="none" stroke="midnightblue" d="M647.349,-211.683C662.492,-213.322 678.54,-215.06 693.536,-216.683"/>
<polygon fill="midnightblue" stroke="midnightblue" points="693.407,-220.19 703.725,-217.786 694.16,-213.23 693.407,-220.19"/>
</g>
<!-- Node8 -->
<g id="node8" class="node"><title>Node8</title>
<g id="a_node8"><a xlink:href="../../da/db0/classFActorView.html#a247cd4e4659c22006f631d3ce2fffa22" target="_top" xlink:title="FActorView::GetActor">
<polygon fill="white" stroke="black" points="904,-176 904,-195 1017,-195 1017,-176 904,-176"/>
<text text-anchor="middle" x="960.5" y="-183" font-family="Helvetica,sans-Serif" font-size="10.00">FActorView::GetActor</text>
</a>
</g>
</g>
<!-- Node5&#45;&gt;Node8 -->
<g id="edge7" class="edge"><title>Node5&#45;&gt;Node8</title>
<path fill="none" stroke="midnightblue" d="M647.363,-201.169C716.634,-197.691 824.605,-192.271 893.675,-188.804"/>
<polygon fill="midnightblue" stroke="midnightblue" points="894.183,-192.283 903.994,-188.286 893.832,-185.292 894.183,-192.283"/>
</g>
<!-- Node10 -->
<g id="node10" class="node"><title>Node10</title>
<g id="a_node10"><a xlink:href="../../df/db5/classFActorRegistry.html#acec52f230529ac7d5c26ceeec4d18ec6" target="_top" xlink:title="FActorRegistry::MakeView">
<polygon fill="white" stroke="black" points="513,-94 513,-113 647,-113 647,-94 513,-94"/>
<text text-anchor="middle" x="580" y="-101" font-family="Helvetica,sans-Serif" font-size="10.00">FActorRegistry::MakeView</text>
</a>
</g>
</g>
<!-- Node9&#45;&gt;Node10 -->
<g id="edge9" class="edge"><title>Node9&#45;&gt;Node10</title>
<path fill="none" stroke="midnightblue" d="M465.47,-122.924C480.737,-120.312 497.418,-117.458 513.178,-114.762"/>
<polygon fill="midnightblue" stroke="midnightblue" points="514.111,-118.153 523.377,-113.017 512.93,-111.253 514.111,-118.153"/>
</g>
<!-- Node11 -->
<g id="node11" class="node"><title>Node11</title>
<g id="a_node11"><a xlink:href="../../d3/df3/ActorRegistry_8cpp.html#aa1c29a8ccf13cd17ce777706f0775521" target="_top" xlink:title="FActorRegistry_GetActorType">
<polygon fill="white" stroke="black" points="683,-138 683,-157 832,-157 832,-138 683,-138"/>
<text text-anchor="middle" x="757.5" y="-145" font-family="Helvetica,sans-Serif" font-size="10.00">FActorRegistry_GetActorType</text>
</a>
</g>
</g>
<!-- Node10&#45;&gt;Node11 -->
<g id="edge10" class="edge"><title>Node10&#45;&gt;Node11</title>
<path fill="none" stroke="midnightblue" d="M619.081,-113.047C645.298,-119.62 680.336,-128.405 708.47,-135.458"/>
<polygon fill="midnightblue" stroke="midnightblue" points="707.942,-138.934 718.493,-137.971 709.645,-132.144 707.942,-138.934"/>
</g>
<!-- Node13 -->
<g id="node13" class="node"><title>Node13</title>
<g id="a_node13"><a xlink:href="../../df/d02/classUBoundingBoxCalculator.html#aafce4965b4dd38eff29969f8c73f24da" target="_top" xlink:title="Compute the bounding box of the given Carla actor. ">
<polygon fill="white" stroke="black" points="694.5,-88.5 694.5,-118.5 820.5,-118.5 820.5,-88.5 694.5,-88.5"/>
<text text-anchor="start" x="702.5" y="-106.5" font-family="Helvetica,sans-Serif" font-size="10.00">UBoundingBoxCalculator</text>
<text text-anchor="middle" x="757.5" y="-95.5" font-family="Helvetica,sans-Serif" font-size="10.00">::GetActorBoundingBox</text>
</a>
</g>
</g>
<!-- Node10&#45;&gt;Node13 -->
<g id="edge13" class="edge"><title>Node10&#45;&gt;Node13</title>
<path fill="none" stroke="midnightblue" d="M647.349,-103.5C659.407,-103.5 672.038,-103.5 684.256,-103.5"/>
<polygon fill="midnightblue" stroke="midnightblue" points="684.4,-107 694.4,-103.5 684.399,-100 684.4,-107"/>
</g>
<!-- Node14 -->
<g id="node14" class="node"><title>Node14</title>
<g id="a_node14"><a xlink:href="../../d3/df3/ActorRegistry_8cpp.html#a8e48b3ef8d3e6ec6b570d117842348d9" target="_top" xlink:title="GetRelevantTagAsString">
<polygon fill="white" stroke="black" points="695,-50 695,-69 820,-69 820,-50 695,-50"/>
<text text-anchor="middle" x="757.5" y="-57" font-family="Helvetica,sans-Serif" font-size="10.00">GetRelevantTagAsString</text>
</a>
</g>
</g>
<!-- Node10&#45;&gt;Node14 -->
<g id="edge14" class="edge"><title>Node10&#45;&gt;Node14</title>
<path fill="none" stroke="midnightblue" d="M619.081,-93.9527C645.298,-87.3796 680.336,-78.5952 708.47,-71.5417"/>
<polygon fill="midnightblue" stroke="midnightblue" points="709.645,-74.8556 718.493,-69.0287 707.942,-68.0657 709.645,-74.8556"/>
</g>
<!-- Node16 -->
<g id="node16" class="node"><title>Node16</title>
<g id="a_node16"><a xlink:href="../../da/d86/classATagger.html#a6910b79c24ad20ed643e67fef0ca0349" target="_top" xlink:title="Retrieve the tags of an already tagged actor. ">
<polygon fill="white" stroke="black" points="687.5,-0.5 687.5,-30.5 827.5,-30.5 827.5,-0.5 687.5,-0.5"/>
<text text-anchor="start" x="695.5" y="-18.5" font-family="Helvetica,sans-Serif" font-size="10.00">ATagger::GetTagsOfTagged</text>
<text text-anchor="middle" x="757.5" y="-7.5" font-family="Helvetica,sans-Serif" font-size="10.00">Actor</text>
</a>
</g>
</g>
<!-- Node10&#45;&gt;Node16 -->
<g id="edge16" class="edge"><title>Node10&#45;&gt;Node16</title>
<path fill="none" stroke="midnightblue" d="M594.304,-93.9186C613.267,-80.5859 649.489,-56.2998 683,-40.5 687.68,-38.2933 692.61,-36.1862 697.608,-34.1985"/>
<polygon fill="midnightblue" stroke="midnightblue" points="699.156,-37.3545 707.259,-30.5284 696.668,-30.8116 699.156,-37.3545"/>
</g>
<!-- Node11&#45;&gt;Node8 -->
<g id="edge11" class="edge"><title>Node11&#45;&gt;Node8</title>
<path fill="none" stroke="midnightblue" d="M808.961,-157.04C836.32,-162.212 870.32,-168.64 899.082,-174.078"/>
<polygon fill="midnightblue" stroke="midnightblue" points="898.542,-177.537 909.018,-175.956 899.842,-170.659 898.542,-177.537"/>
</g>
<!-- Node12 -->
<g id="node12" class="node"><title>Node12</title>
<g id="a_node12"><a xlink:href="../../da/db0/classFActorView.html#a084e38764fa8138a284f561dbab391ab" target="_top" xlink:title="FActorView::IsValid">
<polygon fill="white" stroke="black" points="908.5,-138 908.5,-157 1012.5,-157 1012.5,-138 908.5,-138"/>
<text text-anchor="middle" x="960.5" y="-145" font-family="Helvetica,sans-Serif" font-size="10.00">FActorView::IsValid</text>
</a>
</g>
</g>
<!-- Node11&#45;&gt;Node12 -->
<g id="edge12" class="edge"><title>Node11&#45;&gt;Node12</title>
<path fill="none" stroke="midnightblue" d="M832.204,-147.5C853.964,-147.5 877.533,-147.5 898.407,-147.5"/>
<polygon fill="midnightblue" stroke="midnightblue" points="898.418,-151 908.418,-147.5 898.418,-144 898.418,-151"/>
</g>
<!-- Node15 -->
<g id="node15" class="node"><title>Node15</title>
<g id="a_node15"><a xlink:href="../../da/d86/classATagger.html#a04a40cbba268cf4acf5c618ebb60c63f" target="_top" xlink:title="ATagger::GetTagAsString">
<polygon fill="white" stroke="black" points="896,-50 896,-69 1025,-69 1025,-50 896,-50"/>
<text text-anchor="middle" x="960.5" y="-57" font-family="Helvetica,sans-Serif" font-size="10.00">ATagger::GetTagAsString</text>
</a>
</g>
</g>
<!-- Node14&#45;&gt;Node15 -->
<g id="edge15" class="edge"><title>Node14&#45;&gt;Node15</title>
<path fill="none" stroke="midnightblue" d="M820.173,-59.5C840.894,-59.5 864.218,-59.5 885.77,-59.5"/>
<polygon fill="midnightblue" stroke="midnightblue" points="885.859,-63.0001 895.859,-59.5 885.859,-56.0001 885.859,-63.0001"/>
</g>
<!-- Node17 -->
<g id="node17" class="node"><title>Node17</title>
<g id="a_node17"><a xlink:href="../../da/d86/classATagger.html#a13b049b71b25d0e61e3ee259651022b5" target="_top" xlink:title="Retrieve the tag of an already tagged component. ">
<polygon fill="white" stroke="black" points="868,-6 868,-25 1053,-25 1053,-6 868,-6"/>
<text text-anchor="middle" x="960.5" y="-13" font-family="Helvetica,sans-Serif" font-size="10.00">ATagger::GetTagOfTaggedComponent</text>
</a>
</g>
</g>
<!-- Node16&#45;&gt;Node17 -->
<g id="edge17" class="edge"><title>Node16&#45;&gt;Node17</title>
<path fill="none" stroke="midnightblue" d="M827.673,-15.5C837.382,-15.5 847.525,-15.5 857.685,-15.5"/>
<polygon fill="midnightblue" stroke="midnightblue" points="857.837,-19.0001 867.837,-15.5 857.837,-12.0001 857.837,-19.0001"/>
</g>
</g>
</svg>
        <g id="navigator" transform="translate(0 0)" fill="#404254">
                <rect fill="#f2f5e9" fill-opacity="0.5" stroke="#606060" stroke-width=".5" x="0" y="0" width="60" height="60"/>
                <use id="zoomplus" xlink:href="#zoomPlus" x="17" y="9" onmousedown="handleZoom(evt,'in')"/>
                <use id="zoomminus" xlink:href="#zoomMin" x="42" y="9" onmousedown="handleZoom(evt,'out')"/>
                <use id="reset" xlink:href="#resetDef" x="30" y="36" onmousedown="handleReset()"/>
                <g id="arrowUp" xlink:href="#dirArrow" transform="translate(30 24)" onmousedown="handlePan(0,-1)">
                  <use xlink:href="#rim" fill="#404040">
                        <set attributeName="fill" to="#808080" begin="arrowUp.mouseover" end="arrowUp.mouseout"/>
                  </use>
                  <path fill="none" stroke="white" stroke-width="1.5" d="M0,-3.0v7 M-2.5,-0.5L0,-3.0L2.5,-0.5"/>
                </g>
                <g id="arrowRight" xlink:href="#dirArrow" transform="rotate(90) translate(36 -43)" onmousedown="handlePan(1,0)">
                  <use xlink:href="#rim" fill="#404040">
                        <set attributeName="fill" to="#808080" begin="arrowRight.mouseover" end="arrowRight.mouseout"/>
                  </use>
                  <path fill="none" stroke="white" stroke-width="1.5" d="M0,-3.0v7 M-2.5,-0.5L0,-3.0L2.5,-0.5"/>
                </g>
                <g id="arrowDown" xlink:href="#dirArrow" transform="rotate(180) translate(-30 -48)" onmousedown="handlePan(0,1)">
                  <use xlink:href="#rim" fill="#404040">
                        <set attributeName="fill" to="#808080" begin="arrowDown.mouseover" end="arrowDown.mouseout"/>
                  </use>
                  <path fill="none" stroke="white" stroke-width="1.5" d="M0,-3.0v7 M-2.5,-0.5L0,-3.0L2.5,-0.5"/>
                </g>
                <g id="arrowLeft" xlink:href="#dirArrow" transform="rotate(270) translate(-36 17)" onmousedown="handlePan(-1,0)">
                  <use xlink:href="#rim" fill="#404040">
                        <set attributeName="fill" to="#808080" begin="arrowLeft.mouseover" end="arrowLeft.mouseout"/>
                  </use>
                  <path fill="none" stroke="white" stroke-width="1.5" d="M0,-3.0v7 M-2.5,-0.5L0,-3.0L2.5,-0.5"/>
                </g>
        </g>
        <svg viewBox="0 0 15 15" width="100%" height="30px" preserveAspectRatio="xMaxYMin meet">
         <g id="arrow_out" transform="scale(0.3 0.3)">
          <a xlink:href="classUCarlaEpisode_aa93ee8963c92ced93541166de457f5ff_cgraph_org.svg" target="_base">
           <rect id="button" ry="5" rx="5" y="6" x="6" height="38" width="38"
                fill="#f2f5e9" fill-opacity="0.5" stroke="#606060" stroke-width="1.0"/>
           <path id="arrow"
             d="M 11.500037,31.436501 C 11.940474,20.09759 22.043105,11.32322 32.158766,21.979434 L 37.068811,17.246167 C 37.068811,17.246167 37.088388,32 37.088388,32 L 22.160133,31.978069 C 22.160133,31.978069 26.997745,27.140456 26.997745,27.140456 C 18.528582,18.264221 13.291696,25.230495 11.500037,31.436501 z"
             style="fill:#404040;"/>
          </a>
         </g>
        </svg>
</svg>
