<?xml version="1.0" encoding="UTF-8" standalone="no"?>
<!DOCTYPE svg PUBLIC "-//W3C//DTD SVG 1.1//EN"
 "http://www.w3.org/Graphics/SVG/1.1/DTD/svg11.dtd">
<!-- Generated by graphviz version 2.40.1 (20161225.0304)
 -->
<!-- Title: carla::traffic_manager::MotionPlanStage::Update Pages: 1 -->
<svg width="653pt" height="110pt"
 viewBox="0.00 0.00 653.00 110.00" xmlns="http://www.w3.org/2000/svg" xmlns:xlink="http://www.w3.org/1999/xlink">
<g id="graph0" class="graph" transform="scale(1 1) rotate(0) translate(4 106)">
<title>carla::traffic_manager::MotionPlanStage::Update</title>
<polygon fill="#ffffff" stroke="transparent" points="-4,4 -4,-106 649,-106 649,4 -4,4"/>
<!-- Node72 -->
<g id="node1" class="node">
<title>Node72</title>
<polygon fill="#bfbfbf" stroke="#000000" points="0,-36 0,-66 146,-66 146,-36 0,-36"/>
<text text-anchor="start" x="8" y="-54" font-family="Helvetica,sans-Serif" font-size="10.00" fill="#000000">carla::traffic_manager</text>
<text text-anchor="middle" x="73" y="-43" font-family="Helvetica,sans-Serif" font-size="10.00" fill="#000000">::MotionPlanStage::Update</text>
</g>
<!-- Node73 -->
<g id="node2" class="node">
<title>Node73</title>
<g id="a_node2"><a xlink:href="../../da/d0f/classcarla_1_1traffic__manager_1_1TrafficManagerLocal.html#a6d67cce3d0e5a48056645270364fe637" target="_top" xlink:title="Initiates thread to run the TrafficManager sequentially. ">
<polygon fill="#ffffff" stroke="#000000" points="182,-36 182,-66 325,-66 325,-36 182,-36"/>
<text text-anchor="start" x="190" y="-54" font-family="Helvetica,sans-Serif" font-size="10.00" fill="#000000">carla::traffic_manager</text>
<text text-anchor="middle" x="253.5" y="-43" font-family="Helvetica,sans-Serif" font-size="10.00" fill="#000000">::TrafficManagerLocal::Run</text>
</a>
</g>
</g>
<!-- Node72&#45;&gt;Node73 -->
<g id="edge1" class="edge">
<title>Node72&#45;&gt;Node73</title>
<path fill="none" stroke="#191970" d="M156.2104,-51C164.8251,-51 173.5258,-51 181.9961,-51"/>
<polygon fill="#191970" stroke="#191970" points="156.1561,-47.5001 146.1561,-51 156.156,-54.5001 156.1561,-47.5001"/>
</g>
<!-- Node74 -->
<g id="node3" class="node">
<title>Node74</title>
<g id="a_node3"><a xlink:href="../../da/d0f/classcarla_1_1traffic__manager_1_1TrafficManagerLocal.html#a1ffbdb0bed64f385437d2820a90286d0" target="_top" xlink:title="To start the TrafficManager. ">
<polygon fill="#ffffff" stroke="#000000" points="361,-30.5 361,-71.5 485,-71.5 485,-30.5 361,-30.5"/>
<text text-anchor="start" x="369" y="-59.5" font-family="Helvetica,sans-Serif" font-size="10.00" fill="#000000">carla::traffic_manager</text>
<text text-anchor="start" x="369" y="-48.5" font-family="Helvetica,sans-Serif" font-size="10.00" fill="#000000">::TrafficManagerLocal</text>
<text text-anchor="middle" x="423" y="-37.5" font-family="Helvetica,sans-Serif" font-size="10.00" fill="#000000">::Start</text>
</a>
</g>
</g>
<!-- Node73&#45;&gt;Node74 -->
<g id="edge2" class="edge">
<title>Node73&#45;&gt;Node74</title>
<path fill="none" stroke="#191970" d="M335.4164,-51C343.9963,-51 352.615,-51 360.9201,-51"/>
<polygon fill="#191970" stroke="#191970" points="335.3833,-47.5001 325.3833,-51 335.3832,-54.5001 335.3833,-47.5001"/>
</g>
<!-- Node75 -->
<g id="node4" class="node">
<title>Node75</title>
<g id="a_node4"><a xlink:href="../../da/d0f/classcarla_1_1traffic__manager_1_1TrafficManagerLocal.html#a75976d36f4213ab24e79e3ea2dcd280a" target="_top" xlink:title="Private constructor for singleton lifecycle management. ">
<polygon fill="#ffffff" stroke="#000000" points="521,-60.5 521,-101.5 645,-101.5 645,-60.5 521,-60.5"/>
<text text-anchor="start" x="529" y="-89.5" font-family="Helvetica,sans-Serif" font-size="10.00" fill="#000000">carla::traffic_manager</text>
<text text-anchor="start" x="529" y="-78.5" font-family="Helvetica,sans-Serif" font-size="10.00" fill="#000000">::TrafficManagerLocal</text>
<text text-anchor="middle" x="583" y="-67.5" font-family="Helvetica,sans-Serif" font-size="10.00" fill="#000000">::TrafficManagerLocal</text>
</a>
</g>
</g>
<!-- Node74&#45;&gt;Node75 -->
<g id="edge3" class="edge">
<title>Node74&#45;&gt;Node75</title>
<path fill="none" stroke="#191970" d="M495.2667,-64.55C503.8078,-66.1515 512.4676,-67.7752 520.8518,-69.3472"/>
<polygon fill="#191970" stroke="#191970" points="495.7921,-61.0876 485.3183,-62.6847 494.502,-67.9677 495.7921,-61.0876"/>
</g>
<!-- Node76 -->
<g id="node5" class="node">
<title>Node76</title>
<g id="a_node5"><a xlink:href="../../da/d0f/classcarla_1_1traffic__manager_1_1TrafficManagerLocal.html#a1639db97ccf27a801b92fadabd611755" target="_top" xlink:title="To reset the traffic manager. ">
<polygon fill="#ffffff" stroke="#000000" points="521,-.5 521,-41.5 645,-41.5 645,-.5 521,-.5"/>
<text text-anchor="start" x="529" y="-29.5" font-family="Helvetica,sans-Serif" font-size="10.00" fill="#000000">carla::traffic_manager</text>
<text text-anchor="start" x="529" y="-18.5" font-family="Helvetica,sans-Serif" font-size="10.00" fill="#000000">::TrafficManagerLocal</text>
<text text-anchor="middle" x="583" y="-7.5" font-family="Helvetica,sans-Serif" font-size="10.00" fill="#000000">::Reset</text>
</a>
</g>
</g>
<!-- Node74&#45;&gt;Node76 -->
<g id="edge4" class="edge">
<title>Node74&#45;&gt;Node76</title>
<path fill="none" stroke="#191970" d="M495.2667,-37.45C503.8078,-35.8485 512.4676,-34.2248 520.8518,-32.6528"/>
<polygon fill="#191970" stroke="#191970" points="494.502,-34.0323 485.3183,-39.3153 495.7921,-40.9124 494.502,-34.0323"/>
</g>
</g>
</svg>
