<?xml version="1.0" encoding="UTF-8" standalone="no"?>
<!DOCTYPE svg PUBLIC "-//W3C//DTD SVG 1.1//EN"
 "http://www.w3.org/Graphics/SVG/1.1/DTD/svg11.dtd">
<!-- Generated by graphviz version 2.38.0 (20140413.2041)
 -->
<!-- Title: carla::road::MapBuilder::AddRoadGeometrySpiral Pages: 1 -->
<svg width="1134pt" height="204pt"
 viewBox="0.00 0.00 1134.00 204.00" xmlns="http://www.w3.org/2000/svg" xmlns:xlink="http://www.w3.org/1999/xlink">
<g id="graph0" class="graph" transform="scale(1 1) rotate(0) translate(4 200)">
<title>carla::road::MapBuilder::AddRoadGeometrySpiral</title>
<polygon fill="white" stroke="none" points="-4,4 -4,-200 1130,-200 1130,4 -4,4"/>
<!-- Node1 -->
<g id="node1" class="node"><title>Node1</title>
<polygon fill="#bfbfbf" stroke="black" points="0,-83 0,-113 140,-113 140,-83 0,-83"/>
<text text-anchor="start" x="8" y="-101" font-family="Helvetica,sans-Serif" font-size="10.00">carla::road::MapBuilder</text>
<text text-anchor="middle" x="70" y="-90" font-family="Helvetica,sans-Serif" font-size="10.00">::AddRoadGeometrySpiral</text>
</g>
<!-- Node2 -->
<g id="node2" class="node"><title>Node2</title>
<g id="a_node2"><a xlink:href="../../d6/d8f/classcarla_1_1opendrive_1_1parser_1_1GeometryParser.html#a28543d57f8d9234660d95cbb29e7ea2a" target="_top" xlink:title="carla::opendrive::parser\l::GeometryParser::Parse">
<polygon fill="white" stroke="black" points="176,-83 176,-113 309,-113 309,-83 176,-83"/>
<text text-anchor="start" x="184" y="-101" font-family="Helvetica,sans-Serif" font-size="10.00">carla::opendrive::parser</text>
<text text-anchor="middle" x="242.5" y="-90" font-family="Helvetica,sans-Serif" font-size="10.00">::GeometryParser::Parse</text>
</a>
</g>
</g>
<!-- Node1&#45;&gt;Node2 -->
<g id="edge1" class="edge"><title>Node1&#45;&gt;Node2</title>
<path fill="none" stroke="midnightblue" d="M150.584,-98C159.024,-98 167.538,-98 175.794,-98"/>
<polygon fill="midnightblue" stroke="midnightblue" points="150.349,-94.5001 140.349,-98 150.349,-101.5 150.349,-94.5001"/>
</g>
<!-- Node3 -->
<g id="node3" class="node"><title>Node3</title>
<g id="a_node3"><a xlink:href="../../de/d5a/classcarla_1_1opendrive_1_1OpenDriveParser.html#a599fd6174f30aaee59590c16503afd8a" target="_top" xlink:title="carla::opendrive::OpenDrive\lParser::Load">
<polygon fill="white" stroke="black" points="345,-83 345,-113 494,-113 494,-83 345,-83"/>
<text text-anchor="start" x="353" y="-101" font-family="Helvetica,sans-Serif" font-size="10.00">carla::opendrive::OpenDrive</text>
<text text-anchor="middle" x="419.5" y="-90" font-family="Helvetica,sans-Serif" font-size="10.00">Parser::Load</text>
</a>
</g>
</g>
<!-- Node2&#45;&gt;Node3 -->
<g id="edge2" class="edge"><title>Node2&#45;&gt;Node3</title>
<path fill="none" stroke="midnightblue" d="M319.37,-98C327.818,-98 336.412,-98 344.831,-98"/>
<polygon fill="midnightblue" stroke="midnightblue" points="319.161,-94.5001 309.161,-98 319.161,-101.5 319.161,-94.5001"/>
</g>
<!-- Node4 -->
<g id="node4" class="node"><title>Node4</title>
<g id="a_node4"><a xlink:href="../../d0/d2d/classAOpenDriveActor.html#ac8678af2b371c3a3faca8775ab1e4816" target="_top" xlink:title="AOpenDriveActor::BuildRoutes">
<polygon fill="white" stroke="black" points="542,-176.5 542,-195.5 703,-195.5 703,-176.5 542,-176.5"/>
<text text-anchor="middle" x="622.5" y="-183.5" font-family="Helvetica,sans-Serif" font-size="10.00">AOpenDriveActor::BuildRoutes</text>
</a>
</g>
</g>
<!-- Node3&#45;&gt;Node4 -->
<g id="edge3" class="edge"><title>Node3&#45;&gt;Node4</title>
<path fill="none" stroke="midnightblue" d="M448.136,-119.351C469.415,-134.782 500.148,-154.955 530,-167 539.479,-170.825 549.834,-173.917 560.059,-176.407"/>
<polygon fill="midnightblue" stroke="midnightblue" points="450.03,-116.399 439.906,-113.276 445.873,-122.031 450.03,-116.399"/>
</g>
<!-- Node5 -->
<g id="node5" class="node"><title>Node5</title>
<g id="a_node5"><a xlink:href="../../db/de5/classACarlaGameModeBase.html#a5caddc59713354578997de90542ddd93" target="_top" xlink:title="ACarlaGameModeBase\l::InitGame">
<polygon fill="white" stroke="black" points="558.5,-127 558.5,-157 686.5,-157 686.5,-127 558.5,-127"/>
<text text-anchor="start" x="566.5" y="-145" font-family="Helvetica,sans-Serif" font-size="10.00">ACarlaGameModeBase</text>
<text text-anchor="middle" x="622.5" y="-134" font-family="Helvetica,sans-Serif" font-size="10.00">::InitGame</text>
</a>
</g>
</g>
<!-- Node3&#45;&gt;Node5 -->
<g id="edge4" class="edge"><title>Node3&#45;&gt;Node5</title>
<path fill="none" stroke="midnightblue" d="M498.957,-115.175C518.615,-119.478 539.456,-124.04 558.268,-128.158"/>
<polygon fill="midnightblue" stroke="midnightblue" points="499.628,-111.739 489.111,-113.019 498.131,-118.577 499.628,-111.739"/>
</g>
<!-- Node6 -->
<g id="node6" class="node"><title>Node6</title>
<g id="a_node6"><a xlink:href="../../d8/dfe/classUOpenDriveMap.html#a0ce422ee1f79211e6957bab1d2048348" target="_top" xlink:title="Load this map with an OpenDrive (XODR) file. ">
<polygon fill="white" stroke="black" points="560.5,-88.5 560.5,-107.5 684.5,-107.5 684.5,-88.5 560.5,-88.5"/>
<text text-anchor="middle" x="622.5" y="-95.5" font-family="Helvetica,sans-Serif" font-size="10.00">UOpenDriveMap::Load</text>
</a>
</g>
</g>
<!-- Node3&#45;&gt;Node6 -->
<g id="edge5" class="edge"><title>Node3&#45;&gt;Node6</title>
<path fill="none" stroke="midnightblue" d="M504.247,-98C523.05,-98 542.657,-98 560.336,-98"/>
<polygon fill="midnightblue" stroke="midnightblue" points="504.204,-94.5001 494.204,-98 504.204,-101.5 504.204,-94.5001"/>
</g>
<!-- Node9 -->
<g id="node9" class="node"><title>Node9</title>
<g id="a_node9"><a xlink:href="../../dc/d84/classUCarlaEpisode.html#aab4cecf082fe278f719b2676047350c0" target="_top" xlink:title="Load a new map generating the mesh from OpenDRIVE data and start a new episode. ">
<polygon fill="white" stroke="black" points="530,-39 530,-69 715,-69 715,-39 530,-39"/>
<text text-anchor="start" x="538" y="-57" font-family="Helvetica,sans-Serif" font-size="10.00">UCarlaEpisode::LoadNewOpendrive</text>
<text text-anchor="middle" x="622.5" y="-46" font-family="Helvetica,sans-Serif" font-size="10.00">Episode</text>
</a>
</g>
</g>
<!-- Node3&#45;&gt;Node9 -->
<g id="edge8" class="edge"><title>Node3&#45;&gt;Node9</title>
<path fill="none" stroke="midnightblue" d="M498.89,-80.8399C516.702,-76.941 535.488,-72.8286 552.858,-69.0262"/>
<polygon fill="midnightblue" stroke="midnightblue" points="498.131,-77.4232 489.111,-82.9808 499.628,-84.2613 498.131,-77.4232"/>
</g>
<!-- Node12 -->
<g id="node12" class="node"><title>Node12</title>
<g id="a_node12"><a xlink:href="../../d2/daf/namespacecarla_1_1client.html#a228b83c6429f8e3406a93a1b41eb1565" target="_top" xlink:title="carla::client::MakeMap">
<polygon fill="white" stroke="black" points="561,-0.5 561,-19.5 684,-19.5 684,-0.5 561,-0.5"/>
<text text-anchor="middle" x="622.5" y="-7.5" font-family="Helvetica,sans-Serif" font-size="10.00">carla::client::MakeMap</text>
</a>
</g>
</g>
<!-- Node3&#45;&gt;Node12 -->
<g id="edge11" class="edge"><title>Node3&#45;&gt;Node12</title>
<path fill="none" stroke="midnightblue" d="M448.136,-76.6491C469.415,-61.2177 500.148,-41.0452 530,-29 539.629,-25.1147 550.163,-21.9845 560.546,-19.4748"/>
<polygon fill="midnightblue" stroke="midnightblue" points="445.873,-73.969 439.906,-82.7237 450.03,-79.601 445.873,-73.969"/>
</g>
<!-- Node7 -->
<g id="node7" class="node"><title>Node7</title>
<g id="a_node7"><a xlink:href="../../d1/d1b/classUOpenDrive.html#ac05b8dc3f340e373582945f9215081d9" target="_top" xlink:title="Load OpenDriveMap associated to the given MapName. ">
<polygon fill="white" stroke="black" points="751,-89.5 751,-108.5 925,-108.5 925,-89.5 751,-89.5"/>
<text text-anchor="middle" x="838" y="-96.5" font-family="Helvetica,sans-Serif" font-size="10.00">UOpenDrive::LoadOpenDriveMap</text>
</a>
</g>
</g>
<!-- Node6&#45;&gt;Node7 -->
<g id="edge6" class="edge"><title>Node6&#45;&gt;Node7</title>
<path fill="none" stroke="midnightblue" d="M694.765,-98.3338C712.709,-98.4178 732.163,-98.509 750.754,-98.596"/>
<polygon fill="midnightblue" stroke="midnightblue" points="694.697,-94.8335 684.681,-98.2866 694.664,-101.833 694.697,-94.8335"/>
</g>
<!-- Node8 -->
<g id="node8" class="node"><title>Node8</title>
<g id="a_node8"><a xlink:href="../../d1/d1b/classUOpenDrive.html#a4486c7ee9d4a8bf6cd2a7ca5ad7e4ece" target="_top" xlink:title="Load OpenDriveMap associated to the currently loaded map. ">
<polygon fill="white" stroke="black" points="961,-85 961,-115 1126,-115 1126,-85 961,-85"/>
<text text-anchor="start" x="969" y="-103" font-family="Helvetica,sans-Serif" font-size="10.00">UOpenDrive::LoadCurrentOpen</text>
<text text-anchor="middle" x="1043.5" y="-92" font-family="Helvetica,sans-Serif" font-size="10.00">DriveMap</text>
</a>
</g>
</g>
<!-- Node7&#45;&gt;Node8 -->
<g id="edge7" class="edge"><title>Node7&#45;&gt;Node8</title>
<path fill="none" stroke="midnightblue" d="M935.038,-99.4719C943.617,-99.5141 952.249,-99.5565 960.691,-99.598"/>
<polygon fill="midnightblue" stroke="midnightblue" points="935.024,-95.9719 925.007,-99.4226 934.99,-102.972 935.024,-95.9719"/>
</g>
<!-- Node10 -->
<g id="node10" class="node"><title>Node10</title>
<g id="a_node10"><a xlink:href="../../d7/d97/classFCarlaServer_1_1FPimpl.html#a675a6b572112a21e8bc011dddfd0de86" target="_top" xlink:title="FCarlaServer::FPimpl\l::BindActions">
<polygon fill="white" stroke="black" points="780,-38 780,-68 896,-68 896,-38 780,-38"/>
<text text-anchor="start" x="788" y="-56" font-family="Helvetica,sans-Serif" font-size="10.00">FCarlaServer::FPimpl</text>
<text text-anchor="middle" x="838" y="-45" font-family="Helvetica,sans-Serif" font-size="10.00">::BindActions</text>
</a>
</g>
</g>
<!-- Node9&#45;&gt;Node10 -->
<g id="edge9" class="edge"><title>Node9&#45;&gt;Node10</title>
<path fill="none" stroke="midnightblue" d="M725.349,-53.523C744.082,-53.4352 763.016,-53.3465 779.839,-53.2677"/>
<polygon fill="midnightblue" stroke="midnightblue" points="725.266,-50.0232 715.282,-53.5701 725.299,-57.0231 725.266,-50.0232"/>
</g>
<!-- Node11 -->
<g id="node11" class="node"><title>Node11</title>
<g id="a_node11"><a xlink:href="../../d7/d97/classFCarlaServer_1_1FPimpl.html#a5521999cb8b42460143ad4b1cd869398" target="_top" xlink:title="FCarlaServer::FPimpl\l::FPimpl">
<polygon fill="white" stroke="black" points="985.5,-36 985.5,-66 1101.5,-66 1101.5,-36 985.5,-36"/>
<text text-anchor="start" x="993.5" y="-54" font-family="Helvetica,sans-Serif" font-size="10.00">FCarlaServer::FPimpl</text>
<text text-anchor="middle" x="1043.5" y="-43" font-family="Helvetica,sans-Serif" font-size="10.00">::FPimpl</text>
</a>
</g>
</g>
<!-- Node10&#45;&gt;Node11 -->
<g id="edge10" class="edge"><title>Node10&#45;&gt;Node11</title>
<path fill="none" stroke="midnightblue" d="M906.233,-52.3392C931.843,-52.0875 960.762,-51.8033 985.35,-51.5617"/>
<polygon fill="midnightblue" stroke="midnightblue" points="906.193,-48.8394 896.228,-52.4376 906.262,-55.839 906.193,-48.8394"/>
</g>
</g>
</svg>
