<?xml version="1.0" encoding="UTF-8" standalone="no"?>
<!DOCTYPE svg PUBLIC "-//W3C//DTD SVG 1.1//EN"
 "http://www.w3.org/Graphics/SVG/1.1/DTD/svg11.dtd">
<!-- Generated by graphviz version 2.38.0 (20140413.2041)
 -->
<!-- Title: carla::road::MapBuilder::AddSignal Pages: 1 -->
<svg width="274pt" height="39pt"
 viewBox="0.00 0.00 274.00 39.00" xmlns="http://www.w3.org/2000/svg" xmlns:xlink="http://www.w3.org/1999/xlink">
<g id="graph0" class="graph" transform="scale(1 1) rotate(0) translate(4 35)">
<title>carla::road::MapBuilder::AddSignal</title>
<polygon fill="white" stroke="none" points="-4,4 -4,-35 270,-35 270,4 -4,4"/>
<!-- Node1 -->
<g id="node1" class="node"><title>Node1</title>
<polygon fill="#bfbfbf" stroke="black" points="0,-0.5 0,-30.5 127,-30.5 127,-0.5 0,-0.5"/>
<text text-anchor="start" x="8" y="-18.5" font-family="Helvetica,sans-Serif" font-size="10.00">carla::road::MapBuilder</text>
<text text-anchor="middle" x="63.5" y="-7.5" font-family="Helvetica,sans-Serif" font-size="10.00">::AddSignal</text>
</g>
<!-- Node2 -->
<g id="node2" class="node"><title>Node2</title>
<g id="a_node2"><a xlink:href="../../dd/de6/classcarla_1_1road_1_1Road.html#a70bdbcaeff3f20229f4e6aa033f77357" target="_top" xlink:title="carla::road::Road::\lGetId">
<polygon fill="white" stroke="black" points="163,-0.5 163,-30.5 266,-30.5 266,-0.5 163,-0.5"/>
<text text-anchor="start" x="171" y="-18.5" font-family="Helvetica,sans-Serif" font-size="10.00">carla::road::Road::</text>
<text text-anchor="middle" x="214.5" y="-7.5" font-family="Helvetica,sans-Serif" font-size="10.00">GetId</text>
</a>
</g>
</g>
<!-- Node1&#45;&gt;Node2 -->
<g id="edge1" class="edge"><title>Node1&#45;&gt;Node2</title>
<path fill="none" stroke="midnightblue" d="M127.258,-15.5C135.626,-15.5 144.197,-15.5 152.534,-15.5"/>
<polygon fill="midnightblue" stroke="midnightblue" points="152.558,-19.0001 162.558,-15.5 152.558,-12.0001 152.558,-19.0001"/>
</g>
</g>
</svg>
