<?xml version="1.0" encoding="UTF-8" standalone="no"?>
<!DOCTYPE svg PUBLIC "-//W3C//DTD SVG 1.1//EN"
 "http://www.w3.org/Graphics/SVG/1.1/DTD/svg11.dtd">
<!-- Generated by graphviz version 2.38.0 (20140413.2041)
 -->
<!-- Title: carla::client::Sensor Pages: 1 -->
<!--zoomable 137 -->
<svg id="main" version="1.1" xmlns="http://www.w3.org/2000/svg" xmlns:xlink="http://www.w3.org/1999/xlink" xml:space="preserve" onload="init(evt)">
<style type="text/css"><![CDATA[
.edge:hover path { stroke: red; }
.edge:hover polygon { stroke: red; fill: red; }
]]></style>
<script type="text/javascript"><![CDATA[
var edges = document.getElementsByTagName('g');
if (edges && edges.length) {
  for (var i=0;i<edges.length;i++) {
    if (edges[i].id.substr(0,4)=='edge') {
      edges[i].setAttribute('class','edge');
    }
  }
}
]]></script>
        <defs>
                <circle id="rim" cx="0" cy="0" r="7"/>
                <circle id="rim2" cx="0" cy="0" r="3.5"/>
                <g id="zoomPlus">
                        <use xlink:href="#rim" fill="#404040">
                                <set attributeName="fill" to="#808080" begin="zoomplus.mouseover" end="zoomplus.mouseout"/>
                        </use>
                        <path d="M-4,0h8M0,-4v8" fill="none" stroke="white" stroke-width="1.5" pointer-events="none"/>
                </g>
                <g id="zoomMin">
                        <use xlink:href="#rim" fill="#404040">
                                <set attributeName="fill" to="#808080" begin="zoomminus.mouseover" end="zoomminus.mouseout"/>
                        </use>
                        <path d="M-4,0h8" fill="none" stroke="white" stroke-width="1.5" pointer-events="none"/>
                </g>
                <g id="dirArrow">
                        <path fill="none" stroke="white" stroke-width="1.5" d="M0,-3.0v7 M-2.5,-0.5L0,-3.0L2.5,-0.5"/>
                </g>
               <g id="resetDef">
                       <use xlink:href="#rim2" fill="#404040">
                               <set attributeName="fill" to="#808080" begin="reset.mouseover" end="reset.mouseout"/>
                       </use>
               </g>
        </defs>

<script type="text/javascript">
var viewWidth = 899;
var viewHeight = 137;
var sectionId = 'dynsection-0';
</script>
<script xlink:href="../../svgpan.js"/>
<svg id="graph" class="graph">
<g id="viewport">
<title>carla::client::Sensor</title>
<polygon fill="white" stroke="none" points="-4,4 -4,-133 895,-133 895,4 -4,4"/>
<!-- Node1 -->
<g id="node1" class="node"><title>Node1</title>
<polygon fill="#bfbfbf" stroke="black" points="463,-55 463,-74 567,-74 567,-55 463,-55"/>
<text text-anchor="middle" x="515" y="-62" font-family="Helvetica,sans-Serif" font-size="10.00">carla::client::Sensor</text>
</g>
<!-- Node7 -->
<g id="node7" class="node"><title>Node7</title>
<g id="a_node7"><a xlink:href="../../da/d2e/classcarla_1_1client_1_1ClientSideSensor.html" target="_top" xlink:title="carla::client::ClientSide\lSensor">
<polygon fill="white" stroke="black" points="604.5,-74.5 604.5,-104.5 722.5,-104.5 722.5,-74.5 604.5,-74.5"/>
<text text-anchor="start" x="612.5" y="-92.5" font-family="Helvetica,sans-Serif" font-size="10.00">carla::client::ClientSide</text>
<text text-anchor="middle" x="663.5" y="-81.5" font-family="Helvetica,sans-Serif" font-size="10.00">Sensor</text>
</a>
</g>
</g>
<!-- Node1&#45;&gt;Node7 -->
<g id="edge6" class="edge"><title>Node1&#45;&gt;Node7</title>
<path fill="none" stroke="midnightblue" d="M577.217,-74.9466C586.174,-76.4752 595.379,-78.0458 604.274,-79.5638"/>
<polygon fill="midnightblue" stroke="midnightblue" points="577.685,-71.4759 567.239,-73.2438 576.507,-78.3762 577.685,-71.4759"/>
</g>
<!-- Node10 -->
<g id="node10" class="node"><title>Node10</title>
<g id="a_node10"><a xlink:href="../../de/d68/classcarla_1_1client_1_1ServerSideSensor.html" target="_top" xlink:title="carla::client::ServerSide\lSensor">
<polygon fill="white" stroke="black" points="603,-25.5 603,-55.5 724,-55.5 724,-25.5 603,-25.5"/>
<text text-anchor="start" x="611" y="-43.5" font-family="Helvetica,sans-Serif" font-size="10.00">carla::client::ServerSide</text>
<text text-anchor="middle" x="663.5" y="-32.5" font-family="Helvetica,sans-Serif" font-size="10.00">Sensor</text>
</a>
</g>
</g>
<!-- Node1&#45;&gt;Node10 -->
<g id="edge9" class="edge"><title>Node1&#45;&gt;Node10</title>
<path fill="none" stroke="midnightblue" d="M577.353,-54.449C585.757,-53.0722 594.376,-51.6602 602.751,-50.2882"/>
<polygon fill="midnightblue" stroke="midnightblue" points="576.541,-51.0352 567.239,-56.106 577.673,-57.9432 576.541,-51.0352"/>
</g>
<!-- Node2 -->
<g id="node2" class="node"><title>Node2</title>
<g id="a_node2"><a xlink:href="../../d6/da5/classcarla_1_1client_1_1Actor.html" target="_top" xlink:title="Represents an actor in the simulation. ">
<polygon fill="white" stroke="black" points="331,-55 331,-74 427,-74 427,-55 331,-55"/>
<text text-anchor="middle" x="379" y="-62" font-family="Helvetica,sans-Serif" font-size="10.00">carla::client::Actor</text>
</a>
</g>
</g>
<!-- Node2&#45;&gt;Node1 -->
<g id="edge1" class="edge"><title>Node2&#45;&gt;Node1</title>
<path fill="none" stroke="midnightblue" d="M437.351,-64.5C445.751,-64.5 454.359,-64.5 462.629,-64.5"/>
<polygon fill="midnightblue" stroke="midnightblue" points="437.243,-61.0001 427.243,-64.5 437.243,-68.0001 437.243,-61.0001"/>
</g>
<!-- Node3 -->
<g id="node3" class="node"><title>Node3</title>
<g id="a_node3"><a xlink:href="../../da/d05/classEnableSharedFromThis.html" target="_top" xlink:title="EnableSharedFromThis\l\&lt; Actor \&gt;">
<polygon fill="white" stroke="black" points="176,-98.5 176,-128.5 295,-128.5 295,-98.5 176,-98.5"/>
<text text-anchor="start" x="184" y="-116.5" font-family="Helvetica,sans-Serif" font-size="10.00">EnableSharedFromThis</text>
<text text-anchor="middle" x="235.5" y="-105.5" font-family="Helvetica,sans-Serif" font-size="10.00">&lt; Actor &gt;</text>
</a>
</g>
</g>
<!-- Node3&#45;&gt;Node2 -->
<g id="edge2" class="edge"><title>Node3&#45;&gt;Node2</title>
<path fill="none" stroke="midnightblue" d="M289.722,-95.0698C310.354,-87.925 333.109,-80.0452 350.349,-74.0754"/>
<polygon fill="midnightblue" stroke="midnightblue" points="288.413,-91.8189 280.109,-98.3986 290.704,-98.4336 288.413,-91.8189"/>
</g>
<!-- Node4 -->
<g id="node4" class="node"><title>Node4</title>
<g id="a_node4"><a xlink:href="../../df/d3e/classcarla_1_1profiler_1_1LifetimeProfiled.html" target="_top" xlink:title="carla::profiler::Lifetime\lProfiled">
<polygon fill="white" stroke="black" points="179,-49.5 179,-79.5 292,-79.5 292,-49.5 179,-49.5"/>
<text text-anchor="start" x="187" y="-67.5" font-family="Helvetica,sans-Serif" font-size="10.00">carla::profiler::Lifetime</text>
<text text-anchor="middle" x="235.5" y="-56.5" font-family="Helvetica,sans-Serif" font-size="10.00">Profiled</text>
</a>
</g>
</g>
<!-- Node4&#45;&gt;Node2 -->
<g id="edge3" class="edge"><title>Node4&#45;&gt;Node2</title>
<path fill="none" stroke="#8b1a1a" d="M302.069,-64.5C311.788,-64.5 321.638,-64.5 330.881,-64.5"/>
<polygon fill="#8b1a1a" stroke="#8b1a1a" points="302.018,-61.0001 292.018,-64.5 302.018,-68.0001 302.018,-61.0001"/>
</g>
<!-- Node5 -->
<g id="node5" class="node"><title>Node5</title>
<g id="a_node5"><a xlink:href="../../d2/d06/classcarla_1_1client_1_1detail_1_1ActorState.html" target="_top" xlink:title="Internal state of an Actor. ">
<polygon fill="white" stroke="black" points="187.5,-0.5 187.5,-30.5 283.5,-30.5 283.5,-0.5 187.5,-0.5"/>
<text text-anchor="start" x="195.5" y="-18.5" font-family="Helvetica,sans-Serif" font-size="10.00">carla::client::detail</text>
<text text-anchor="middle" x="235.5" y="-7.5" font-family="Helvetica,sans-Serif" font-size="10.00">::ActorState</text>
</a>
</g>
</g>
<!-- Node5&#45;&gt;Node2 -->
<g id="edge4" class="edge"><title>Node5&#45;&gt;Node2</title>
<path fill="none" stroke="midnightblue" d="M289.722,-33.9302C310.354,-41.075 333.109,-48.9548 350.349,-54.9246"/>
<polygon fill="midnightblue" stroke="midnightblue" points="290.704,-30.5664 280.109,-30.6014 288.413,-37.1811 290.704,-30.5664"/>
</g>
<!-- Node6 -->
<g id="node6" class="node"><title>Node6</title>
<g id="a_node6"><a xlink:href="../../d7/d55/classcarla_1_1MovableNonCopyable.html" target="_top" xlink:title="Inherit (privately) to suppress copy construction and assignment. ">
<polygon fill="white" stroke="black" points="0,-6 0,-25 140,-25 140,-6 0,-6"/>
<text text-anchor="middle" x="70" y="-13" font-family="Helvetica,sans-Serif" font-size="10.00">carla::MovableNonCopyable</text>
</a>
</g>
</g>
<!-- Node6&#45;&gt;Node5 -->
<g id="edge5" class="edge"><title>Node6&#45;&gt;Node5</title>
<path fill="none" stroke="#8b1a1a" d="M150.425,-15.5C163.049,-15.5 175.748,-15.5 187.315,-15.5"/>
<polygon fill="#8b1a1a" stroke="#8b1a1a" points="150.339,-12.0001 140.339,-15.5 150.339,-19.0001 150.339,-12.0001"/>
</g>
<!-- Node8 -->
<g id="node8" class="node"><title>Node8</title>
<g id="a_node8"><a xlink:href="../../d1/d13/classcarla_1_1client_1_1GnssSensor.html" target="_top" xlink:title="carla::client::GnssSensor">
<polygon fill="white" stroke="black" points="762,-102 762,-121 889,-121 889,-102 762,-102"/>
<text text-anchor="middle" x="825.5" y="-109" font-family="Helvetica,sans-Serif" font-size="10.00">carla::client::GnssSensor</text>
</a>
</g>
</g>
<!-- Node7&#45;&gt;Node8 -->
<g id="edge7" class="edge"><title>Node7&#45;&gt;Node8</title>
<path fill="none" stroke="midnightblue" d="M732.663,-98.8724C742.313,-100.199 752.198,-101.558 761.739,-102.87"/>
<polygon fill="midnightblue" stroke="midnightblue" points="733.1,-95.3996 722.716,-97.5047 732.146,-102.334 733.1,-95.3996"/>
</g>
<!-- Node9 -->
<g id="node9" class="node"><title>Node9</title>
<g id="a_node9"><a xlink:href="../../dc/d47/classcarla_1_1client_1_1LaneInvasionSensor.html" target="_top" xlink:title="carla::client::LaneInvasion\lSensor">
<polygon fill="white" stroke="black" points="760,-52.5 760,-82.5 891,-82.5 891,-52.5 760,-52.5"/>
<text text-anchor="start" x="768" y="-70.5" font-family="Helvetica,sans-Serif" font-size="10.00">carla::client::LaneInvasion</text>
<text text-anchor="middle" x="825.5" y="-59.5" font-family="Helvetica,sans-Serif" font-size="10.00">Sensor</text>
</a>
</g>
</g>
<!-- Node7&#45;&gt;Node9 -->
<g id="edge8" class="edge"><title>Node7&#45;&gt;Node9</title>
<path fill="none" stroke="midnightblue" d="M732.747,-80.1161C741.729,-78.881 750.913,-77.6182 759.834,-76.3916"/>
<polygon fill="midnightblue" stroke="midnightblue" points="732.146,-76.6656 722.716,-81.4953 733.1,-83.6004 732.146,-76.6656"/>
</g>
</g>
</svg>
        <g id="navigator" transform="translate(0 0)" fill="#404254">
                <rect fill="#f2f5e9" fill-opacity="0.5" stroke="#606060" stroke-width=".5" x="0" y="0" width="60" height="60"/>
                <use id="zoomplus" xlink:href="#zoomPlus" x="17" y="9" onmousedown="handleZoom(evt,'in')"/>
                <use id="zoomminus" xlink:href="#zoomMin" x="42" y="9" onmousedown="handleZoom(evt,'out')"/>
                <use id="reset" xlink:href="#resetDef" x="30" y="36" onmousedown="handleReset()"/>
                <g id="arrowUp" xlink:href="#dirArrow" transform="translate(30 24)" onmousedown="handlePan(0,-1)">
                  <use xlink:href="#rim" fill="#404040">
                        <set attributeName="fill" to="#808080" begin="arrowUp.mouseover" end="arrowUp.mouseout"/>
                  </use>
                  <path fill="none" stroke="white" stroke-width="1.5" d="M0,-3.0v7 M-2.5,-0.5L0,-3.0L2.5,-0.5"/>
                </g>
                <g id="arrowRight" xlink:href="#dirArrow" transform="rotate(90) translate(36 -43)" onmousedown="handlePan(1,0)">
                  <use xlink:href="#rim" fill="#404040">
                        <set attributeName="fill" to="#808080" begin="arrowRight.mouseover" end="arrowRight.mouseout"/>
                  </use>
                  <path fill="none" stroke="white" stroke-width="1.5" d="M0,-3.0v7 M-2.5,-0.5L0,-3.0L2.5,-0.5"/>
                </g>
                <g id="arrowDown" xlink:href="#dirArrow" transform="rotate(180) translate(-30 -48)" onmousedown="handlePan(0,1)">
                  <use xlink:href="#rim" fill="#404040">
                        <set attributeName="fill" to="#808080" begin="arrowDown.mouseover" end="arrowDown.mouseout"/>
                  </use>
                  <path fill="none" stroke="white" stroke-width="1.5" d="M0,-3.0v7 M-2.5,-0.5L0,-3.0L2.5,-0.5"/>
                </g>
                <g id="arrowLeft" xlink:href="#dirArrow" transform="rotate(270) translate(-36 17)" onmousedown="handlePan(-1,0)">
                  <use xlink:href="#rim" fill="#404040">
                        <set attributeName="fill" to="#808080" begin="arrowLeft.mouseover" end="arrowLeft.mouseout"/>
                  </use>
                  <path fill="none" stroke="white" stroke-width="1.5" d="M0,-3.0v7 M-2.5,-0.5L0,-3.0L2.5,-0.5"/>
                </g>
        </g>
        <svg viewBox="0 0 15 15" width="100%" height="30px" preserveAspectRatio="xMaxYMin meet">
         <g id="arrow_out" transform="scale(0.3 0.3)">
          <a xlink:href="classcarla_1_1client_1_1Sensor__inherit__graph_org.svg" target="_base">
           <rect id="button" ry="5" rx="5" y="6" x="6" height="38" width="38"
                fill="#f2f5e9" fill-opacity="0.5" stroke="#606060" stroke-width="1.0"/>
           <path id="arrow"
             d="M 11.500037,31.436501 C 11.940474,20.09759 22.043105,11.32322 32.158766,21.979434 L 37.068811,17.246167 C 37.068811,17.246167 37.088388,32 37.088388,32 L 22.160133,31.978069 C 22.160133,31.978069 26.997745,27.140456 26.997745,27.140456 C 18.528582,18.264221 13.291696,25.230495 11.500037,31.436501 z"
             style="fill:#404040;"/>
          </a>
         </g>
        </svg>
</svg>
