<?xml version="1.0" encoding="UTF-8" standalone="no"?>
<!DOCTYPE svg PUBLIC "-//W3C//DTD SVG 1.1//EN"
 "http://www.w3.org/Graphics/SVG/1.1/DTD/svg11.dtd">
<!-- Generated by graphviz version 2.43.0 (0)
 -->
<!-- Title: FDataStreamTmpl::MakeAsyncDataStream Pages: 1 -->
<svg width="756pt" height="127pt"
 viewBox="0.00 0.00 756.00 126.50" xmlns="http://www.w3.org/2000/svg" xmlns:xlink="http://www.w3.org/1999/xlink">
<g id="graph0" class="graph" transform="scale(1 1) rotate(0) translate(4 122.5)">
<title>FDataStreamTmpl::MakeAsyncDataStream</title>
<polygon fill="white" stroke="transparent" points="-4,4 -4,-122.5 752,-122.5 752,4 -4,4"/>
<!-- Node1 -->
<g id="node1" class="node">
<title>Node1</title>
<g id="a_node1"><a xlink:title="Create a FAsyncDataStream object.">
<polygon fill="#bfbfbf" stroke="black" points="581,-49.5 581,-79.5 748,-79.5 748,-49.5 581,-49.5"/>
<text text-anchor="start" x="589" y="-67.5" font-family="Helvetica,sans-Serif" font-size="10.00">FDataStreamTmpl::MakeAsync</text>
<text text-anchor="middle" x="664.5" y="-56.5" font-family="Helvetica,sans-Serif" font-size="10.00">DataStream</text>
</a>
</g>
</g>
<!-- Node2 -->
<g id="node2" class="node">
<title>Node2</title>
<g id="a_node2"><a xlink:href="../../da/d9b/classFWorldObserver.html#ad866b204499b7d2252661e39bcff1811" target="_top" xlink:title="Send a message to every connected client with the info about the given Episode.">
<polygon fill="white" stroke="black" points="375,-99 375,-118 545,-118 545,-99 375,-99"/>
<text text-anchor="middle" x="460" y="-106" font-family="Helvetica,sans-Serif" font-size="10.00">FWorldObserver::BroadcastTick</text>
</a>
</g>
</g>
<!-- Node1&#45;&gt;Node2 -->
<g id="edge1" class="edge">
<title>Node1&#45;&gt;Node2</title>
<path fill="none" stroke="midnightblue" d="M584.51,-81.66C557.4,-87.55 528.06,-93.93 504.78,-98.99"/>
<polygon fill="midnightblue" stroke="midnightblue" points="585.35,-85.06 594.38,-79.52 583.86,-78.22 585.35,-85.06"/>
</g>
<!-- Node5 -->
<g id="node5" class="node">
<title>Node5</title>
<g id="a_node5"><a xlink:href="../../d3/df7/structFCameraGBufferUint8.html#a3d792fb95c83dee03988c94802c336df" target="_top" xlink:title="Return the FDataStream associated with this sensor.">
<polygon fill="white" stroke="black" points="398,-49.5 398,-79.5 522,-79.5 522,-49.5 398,-49.5"/>
<text text-anchor="start" x="406" y="-67.5" font-family="Helvetica,sans-Serif" font-size="10.00">FCameraGBufferUint8</text>
<text text-anchor="middle" x="460" y="-56.5" font-family="Helvetica,sans-Serif" font-size="10.00">::GetDataStream</text>
</a>
</g>
</g>
<!-- Node1&#45;&gt;Node5 -->
<g id="edge4" class="edge">
<title>Node1&#45;&gt;Node5</title>
<path fill="none" stroke="midnightblue" d="M570.68,-64.5C554.27,-64.5 537.56,-64.5 522.3,-64.5"/>
<polygon fill="midnightblue" stroke="midnightblue" points="570.84,-68 580.84,-64.5 570.84,-61 570.84,-68"/>
</g>
<!-- Node6 -->
<g id="node6" class="node">
<title>Node6</title>
<g id="a_node6"><a xlink:href="../../df/d7d/structFCameraGBufferFloat.html#aec2846a27e2fbd9ec210c968c1ec49d4" target="_top" xlink:title="Return the FDataStream associated with this sensor.">
<polygon fill="white" stroke="black" points="399,-0.5 399,-30.5 521,-30.5 521,-0.5 399,-0.5"/>
<text text-anchor="start" x="407" y="-18.5" font-family="Helvetica,sans-Serif" font-size="10.00">FCameraGBufferFloat</text>
<text text-anchor="middle" x="460" y="-7.5" font-family="Helvetica,sans-Serif" font-size="10.00">::GetDataStream</text>
</a>
</g>
</g>
<!-- Node1&#45;&gt;Node6 -->
<g id="edge5" class="edge">
<title>Node1&#45;&gt;Node6</title>
<path fill="none" stroke="midnightblue" d="M591.34,-47.04C568.4,-41.49 543.29,-35.41 521.28,-30.09"/>
<polygon fill="midnightblue" stroke="midnightblue" points="590.82,-50.52 601.37,-49.47 592.47,-43.71 590.82,-50.52"/>
</g>
<!-- Node3 -->
<g id="node3" class="node">
<title>Node3</title>
<g id="a_node3"><a xlink:href="../../dc/d49/classFCarlaEngine.html#aff440c7ba9d004e4c5b60125cc4d709b" target="_top" xlink:title=" ">
<polygon fill="white" stroke="black" points="197,-99 197,-118 339,-118 339,-99 197,-99"/>
<text text-anchor="middle" x="268" y="-106" font-family="Helvetica,sans-Serif" font-size="10.00">FCarlaEngine::OnPostTick</text>
</a>
</g>
</g>
<!-- Node2&#45;&gt;Node3 -->
<g id="edge2" class="edge">
<title>Node2&#45;&gt;Node3</title>
<path fill="none" stroke="midnightblue" d="M364.75,-108.5C356.13,-108.5 347.52,-108.5 339.17,-108.5"/>
<polygon fill="midnightblue" stroke="midnightblue" points="364.83,-112 374.83,-108.5 364.83,-105 364.83,-112"/>
</g>
<!-- Node4 -->
<g id="node4" class="node">
<title>Node4</title>
<g id="a_node4"><a xlink:href="../../dc/d49/classFCarlaEngine.html#ab8d13063cde985781237dd7da308227e" target="_top" xlink:title=" ">
<polygon fill="white" stroke="black" points="0,-99 0,-118 161,-118 161,-99 0,-99"/>
<text text-anchor="middle" x="80.5" y="-106" font-family="Helvetica,sans-Serif" font-size="10.00">FCarlaEngine::NotifyInitGame</text>
</a>
</g>
</g>
<!-- Node3&#45;&gt;Node4 -->
<g id="edge3" class="edge">
<title>Node3&#45;&gt;Node4</title>
<path fill="none" stroke="midnightblue" d="M186.62,-108.5C178.14,-108.5 169.52,-108.5 161.06,-108.5"/>
<polygon fill="midnightblue" stroke="midnightblue" points="186.87,-112 196.87,-108.5 186.87,-105 186.87,-112"/>
</g>
</g>
</svg>
