<?xml version="1.0" encoding="UTF-8" standalone="no"?>
<!DOCTYPE svg PUBLIC "-//W3C//DTD SVG 1.1//EN"
 "http://www.w3.org/Graphics/SVG/1.1/DTD/svg11.dtd">
<!-- Generated by graphviz version 2.38.0 (20140413.2041)
 -->
<!-- Title: carla::road::Object Pages: 1 -->
<svg width="406pt" height="183pt"
 viewBox="0.00 0.00 405.50 183.00" xmlns="http://www.w3.org/2000/svg" xmlns:xlink="http://www.w3.org/1999/xlink">
<g id="graph0" class="graph" transform="scale(1 1) rotate(0) translate(4 179)">
<title>carla::road::Object</title>
<polygon fill="white" stroke="none" points="-4,4 -4,-179 401.5,-179 401.5,4 -4,4"/>
<!-- Node1 -->
<g id="node1" class="node"><title>Node1</title>
<polygon fill="#bfbfbf" stroke="black" points="181.5,-0.5 181.5,-19.5 285.5,-19.5 285.5,-0.5 181.5,-0.5"/>
<text text-anchor="middle" x="233.5" y="-7.5" font-family="Helvetica,sans-Serif" font-size="10.00">carla::road::Object</text>
</g>
<!-- Node2 -->
<g id="node2" class="node"><title>Node2</title>
<g id="a_node2"><a xlink:href="../../d7/d55/classcarla_1_1MovableNonCopyable.html" target="_top" xlink:title="Inherit (privately) to suppress copy construction and assignment. ">
<polygon fill="white" stroke="black" points="0,-155.5 0,-174.5 149,-174.5 149,-155.5 0,-155.5"/>
<text text-anchor="middle" x="74.5" y="-162.5" font-family="Helvetica,sans-Serif" font-size="10.00">carla::MovableNonCopyable</text>
</a>
</g>
</g>
<!-- Node2&#45;&gt;Node1 -->
<g id="edge1" class="edge"><title>Node2&#45;&gt;Node1</title>
<path fill="none" stroke="#8b1a1a" d="M84.8899,-146.69C101.448,-120.308 136.106,-69.7613 176.5,-38 186.313,-30.2843 198.689,-24.0862 209.4,-19.5842"/>
<polygon fill="#8b1a1a" stroke="#8b1a1a" points="81.8907,-144.885 79.6315,-155.236 87.8527,-148.553 81.8907,-144.885"/>
</g>
<!-- Node3 -->
<g id="node3" class="node"><title>Node3</title>
<polygon fill="white" stroke="#bfbfbf" points="167,-155.5 167,-174.5 216,-174.5 216,-155.5 167,-155.5"/>
<text text-anchor="middle" x="191.5" y="-162.5" font-family="Helvetica,sans-Serif" font-size="10.00">double</text>
</g>
<!-- Node3&#45;&gt;Node1 -->
<g id="edge2" class="edge"><title>Node3&#45;&gt;Node1</title>
<path fill="none" stroke="#9a32cd" stroke-dasharray="5,2" d="M186.511,-145.434C180.656,-119.601 173.925,-72.1486 192.5,-38 196.898,-29.9141 204.883,-23.8453 212.645,-19.5307"/>
<polygon fill="#9a32cd" stroke="#9a32cd" points="183.169,-146.501 188.968,-155.368 189.964,-144.82 183.169,-146.501"/>
<text text-anchor="middle" x="223" y="-129" font-family="Helvetica,sans-Serif" font-size="10.00"> _zOffset</text>
<text text-anchor="middle" x="223" y="-118" font-family="Helvetica,sans-Serif" font-size="10.00">_lenght</text>
<text text-anchor="middle" x="223" y="-107" font-family="Helvetica,sans-Serif" font-size="10.00">_s</text>
<text text-anchor="middle" x="223" y="-96" font-family="Helvetica,sans-Serif" font-size="10.00">_t</text>
<text text-anchor="middle" x="223" y="-85" font-family="Helvetica,sans-Serif" font-size="10.00">_validLength</text>
<text text-anchor="middle" x="223" y="-74" font-family="Helvetica,sans-Serif" font-size="10.00">_roll</text>
<text text-anchor="middle" x="223" y="-63" font-family="Helvetica,sans-Serif" font-size="10.00">_width</text>
<text text-anchor="middle" x="223" y="-52" font-family="Helvetica,sans-Serif" font-size="10.00">_hdg</text>
<text text-anchor="middle" x="223" y="-41" font-family="Helvetica,sans-Serif" font-size="10.00">_pitch</text>
</g>
<!-- Node4 -->
<g id="node4" class="node"><title>Node4</title>
<polygon fill="white" stroke="#bfbfbf" points="247.5,-155.5 247.5,-174.5 303.5,-174.5 303.5,-155.5 247.5,-155.5"/>
<text text-anchor="middle" x="275.5" y="-162.5" font-family="Helvetica,sans-Serif" font-size="10.00">uint32_t</text>
</g>
<!-- Node4&#45;&gt;Node1 -->
<g id="edge3" class="edge"><title>Node4&#45;&gt;Node1</title>
<path fill="none" stroke="#9a32cd" stroke-dasharray="5,2" d="M274.912,-145.316C273.53,-120.024 268.91,-73.9256 253.5,-38 250.649,-31.3523 245.867,-24.8098 241.694,-19.8303"/>
<polygon fill="#9a32cd" stroke="#9a32cd" points="271.418,-145.522 275.347,-155.361 278.411,-145.219 271.418,-145.522"/>
<text text-anchor="middle" x="283" y="-85" font-family="Helvetica,sans-Serif" font-size="10.00"> _id</text>
</g>
<!-- Node5 -->
<g id="node5" class="node"><title>Node5</title>
<polygon fill="white" stroke="#bfbfbf" points="321.5,-155.5 321.5,-174.5 365.5,-174.5 365.5,-155.5 321.5,-155.5"/>
<text text-anchor="middle" x="343.5" y="-162.5" font-family="Helvetica,sans-Serif" font-size="10.00">string</text>
</g>
<!-- Node5&#45;&gt;Node1 -->
<g id="edge4" class="edge"><title>Node5&#45;&gt;Node1</title>
<path fill="none" stroke="#9a32cd" stroke-dasharray="5,2" d="M341.031,-145.45C336.536,-118.53 324.63,-68.5246 295.5,-38 287.476,-29.5916 276.385,-23.6487 265.801,-19.5218"/>
<polygon fill="#9a32cd" stroke="#9a32cd" points="337.586,-146.081 342.532,-155.45 344.508,-145.041 337.586,-146.081"/>
<text text-anchor="middle" x="368.5" y="-96" font-family="Helvetica,sans-Serif" font-size="10.00"> _type</text>
<text text-anchor="middle" x="368.5" y="-85" font-family="Helvetica,sans-Serif" font-size="10.00">_name</text>
<text text-anchor="middle" x="368.5" y="-74" font-family="Helvetica,sans-Serif" font-size="10.00">_orientation</text>
</g>
</g>
</svg>
