<?xml version="1.0" encoding="UTF-8" standalone="no"?>
<!DOCTYPE svg PUBLIC "-//W3C//DTD SVG 1.1//EN"
 "http://www.w3.org/Graphics/SVG/1.1/DTD/svg11.dtd">
<!-- Generated by graphviz version 2.38.0 (20140413.2041)
 -->
<!-- Title: carla::road::element::RoadInfoElevation::Evaluate Pages: 1 -->
<svg width="315pt" height="88pt"
 viewBox="0.00 0.00 315.00 88.00" xmlns="http://www.w3.org/2000/svg" xmlns:xlink="http://www.w3.org/1999/xlink">
<g id="graph0" class="graph" transform="scale(1 1) rotate(0) translate(4 84)">
<title>carla::road::element::RoadInfoElevation::Evaluate</title>
<polygon fill="white" stroke="none" points="-4,4 -4,-84 311,-84 311,4 -4,4"/>
<!-- Node1 -->
<g id="node1" class="node"><title>Node1</title>
<polygon fill="#bfbfbf" stroke="black" points="0,-19 0,-60 113,-60 113,-19 0,-19"/>
<text text-anchor="start" x="8" y="-48" font-family="Helvetica,sans-Serif" font-size="10.00">carla::road::element</text>
<text text-anchor="start" x="8" y="-37" font-family="Helvetica,sans-Serif" font-size="10.00">::RoadInfoElevation::</text>
<text text-anchor="middle" x="56.5" y="-26" font-family="Helvetica,sans-Serif" font-size="10.00">Evaluate</text>
</g>
<!-- Node2 -->
<g id="node2" class="node"><title>Node2</title>
<g id="a_node2"><a xlink:href="../../d4/db7/classcarla_1_1geom_1_1CubicPolynomial.html#a1bdd0758d2f68016f48eb9291f4ca523" target="_top" xlink:title="Evaluates f(x) = a + bx + cx^2 + dx^3. ">
<polygon fill="white" stroke="black" points="149,-49.5 149,-79.5 307,-79.5 307,-49.5 149,-49.5"/>
<text text-anchor="start" x="157" y="-67.5" font-family="Helvetica,sans-Serif" font-size="10.00">carla::geom::CubicPolynomial</text>
<text text-anchor="middle" x="228" y="-56.5" font-family="Helvetica,sans-Serif" font-size="10.00">::Evaluate</text>
</a>
</g>
</g>
<!-- Node1&#45;&gt;Node2 -->
<g id="edge1" class="edge"><title>Node1&#45;&gt;Node2</title>
<path fill="none" stroke="midnightblue" d="M113.001,-47.6859C121.348,-48.9172 130.128,-50.212 138.955,-51.514"/>
<polygon fill="midnightblue" stroke="midnightblue" points="138.517,-54.9872 148.921,-52.9839 139.538,-48.0621 138.517,-54.9872"/>
</g>
<!-- Node3 -->
<g id="node3" class="node"><title>Node3</title>
<g id="a_node3"><a xlink:href="../../d4/db7/classcarla_1_1geom_1_1CubicPolynomial.html#a3d1eb7048387276308f77bc55a9a802b" target="_top" xlink:title="Evaluates the tangent using df/dx = b + 2cx + 3dx^2. ">
<polygon fill="white" stroke="black" points="149,-0.5 149,-30.5 307,-30.5 307,-0.5 149,-0.5"/>
<text text-anchor="start" x="157" y="-18.5" font-family="Helvetica,sans-Serif" font-size="10.00">carla::geom::CubicPolynomial</text>
<text text-anchor="middle" x="228" y="-7.5" font-family="Helvetica,sans-Serif" font-size="10.00">::Tangent</text>
</a>
</g>
</g>
<!-- Node1&#45;&gt;Node3 -->
<g id="edge2" class="edge"><title>Node1&#45;&gt;Node3</title>
<path fill="none" stroke="midnightblue" d="M113.001,-31.6415C121.348,-30.4595 130.128,-29.2164 138.955,-27.9666"/>
<polygon fill="midnightblue" stroke="midnightblue" points="139.51,-31.423 148.921,-26.5555 138.529,-24.4921 139.51,-31.423"/>
</g>
</g>
</svg>
