<?xml version="1.0" encoding="UTF-8" standalone="no"?>
<!DOCTYPE svg PUBLIC "-//W3C//DTD SVG 1.1//EN"
 "http://www.w3.org/Graphics/SVG/1.1/DTD/svg11.dtd">
<!-- Generated by graphviz version 2.40.1 (20161225.0304)
 -->
<!-- Title: UBoundingBoxCalculator::GetBBsOfStaticMeshComponents Pages: 1 -->
<svg width="1041pt" height="61pt"
 viewBox="0.00 0.00 1041.00 61.00" xmlns="http://www.w3.org/2000/svg" xmlns:xlink="http://www.w3.org/1999/xlink">
<g id="graph0" class="graph" transform="scale(1 1) rotate(0) translate(4 57)">
<title>UBoundingBoxCalculator::GetBBsOfStaticMeshComponents</title>
<polygon fill="#ffffff" stroke="transparent" points="-4,4 -4,-57 1037,-57 1037,4 -4,4"/>
<!-- Node31 -->
<g id="node1" class="node">
<title>Node31</title>
<polygon fill="#bfbfbf" stroke="#000000" points="0,-22.5 0,-52.5 185,-52.5 185,-22.5 0,-22.5"/>
<text text-anchor="start" x="8" y="-40.5" font-family="Helvetica,sans-Serif" font-size="10.00" fill="#000000">UBoundingBoxCalculator</text>
<text text-anchor="middle" x="92.5" y="-29.5" font-family="Helvetica,sans-Serif" font-size="10.00" fill="#000000">::GetBBsOfStaticMeshComponents</text>
</g>
<!-- Node32 -->
<g id="node2" class="node">
<title>Node32</title>
<g id="a_node2"><a xlink:href="../../df/d02/classUBoundingBoxCalculator.html#a73c755a5dc47a06bde88d8457f89bab6" target="_top" xlink:title="UBoundingBoxCalculator\l::GetBoundingBoxOfActors">
<polygon fill="#ffffff" stroke="#000000" points="415,-22.5 415,-52.5 561,-52.5 561,-22.5 415,-22.5"/>
<text text-anchor="start" x="423" y="-40.5" font-family="Helvetica,sans-Serif" font-size="10.00" fill="#000000">UBoundingBoxCalculator</text>
<text text-anchor="middle" x="488" y="-29.5" font-family="Helvetica,sans-Serif" font-size="10.00" fill="#000000">::GetBoundingBoxOfActors</text>
</a>
</g>
</g>
<!-- Node31&#45;&gt;Node32 -->
<g id="edge1" class="edge">
<title>Node31&#45;&gt;Node32</title>
<path fill="none" stroke="#191970" d="M195.3359,-40.1139C204.0168,-40.2698 212.6603,-40.4027 221,-40.5 291.2174,-41.3195 308.7844,-41.4661 379,-40.5 390.5467,-40.3411 402.7794,-40.0876 414.7157,-39.7936"/>
<polygon fill="#191970" stroke="#191970" points="195.2085,-36.6109 185.1441,-39.921 195.076,-43.6097 195.2085,-36.6109"/>
</g>
<!-- Node36 -->
<g id="node6" class="node">
<title>Node36</title>
<g id="a_node6"><a xlink:href="../../df/d02/classUBoundingBoxCalculator.html#a9b819059fee394d56b898bbc5c726d8b" target="_top" xlink:title="UBoundingBoxCalculator\l::GetTrafficLightBoundingBox">
<polygon fill="#ffffff" stroke="#000000" points="221,-.5 221,-30.5 379,-30.5 379,-.5 221,-.5"/>
<text text-anchor="start" x="229" y="-18.5" font-family="Helvetica,sans-Serif" font-size="10.00" fill="#000000">UBoundingBoxCalculator</text>
<text text-anchor="middle" x="300" y="-7.5" font-family="Helvetica,sans-Serif" font-size="10.00" fill="#000000">::GetTrafficLightBoundingBox</text>
</a>
</g>
</g>
<!-- Node31&#45;&gt;Node36 -->
<g id="edge5" class="edge">
<title>Node31&#45;&gt;Node36</title>
<path fill="none" stroke="#191970" d="M195.1785,-26.6136C203.8456,-25.6947 212.5226,-24.7747 220.9676,-23.8793"/>
<polygon fill="#191970" stroke="#191970" points="194.5985,-23.1554 185.0232,-27.6903 195.3366,-30.1164 194.5985,-23.1554"/>
</g>
<!-- Node33 -->
<g id="node3" class="node">
<title>Node33</title>
<g id="a_node3"><a xlink:href="../../db/de5/classACarlaGameModeBase.html#a4b12494234a4778030a2f7dc65fb45d3" target="_top" xlink:title="ACarlaGameModeBase\l::GetAllBBsOfLevel">
<polygon fill="#ffffff" stroke="#000000" points="597,-22.5 597,-52.5 725,-52.5 725,-22.5 597,-22.5"/>
<text text-anchor="start" x="605" y="-40.5" font-family="Helvetica,sans-Serif" font-size="10.00" fill="#000000">ACarlaGameModeBase</text>
<text text-anchor="middle" x="661" y="-29.5" font-family="Helvetica,sans-Serif" font-size="10.00" fill="#000000">::GetAllBBsOfLevel</text>
</a>
</g>
</g>
<!-- Node32&#45;&gt;Node33 -->
<g id="edge2" class="edge">
<title>Node32&#45;&gt;Node33</title>
<path fill="none" stroke="#191970" d="M571.2156,-37.5C579.853,-37.5 588.5342,-37.5 596.9139,-37.5"/>
<polygon fill="#191970" stroke="#191970" points="571.1169,-34.0001 561.1168,-37.5 571.1168,-41.0001 571.1169,-34.0001"/>
</g>
<!-- Node34 -->
<g id="node4" class="node">
<title>Node34</title>
<g id="a_node4"><a xlink:href="../../d7/d97/classFCarlaServer_1_1FPimpl.html#a675a6b572112a21e8bc011dddfd0de86" target="_top" xlink:title="FCarlaServer::FPimpl\l::BindActions">
<polygon fill="#ffffff" stroke="#000000" points="761,-22.5 761,-52.5 879,-52.5 879,-22.5 761,-22.5"/>
<text text-anchor="start" x="769" y="-40.5" font-family="Helvetica,sans-Serif" font-size="10.00" fill="#000000">FCarlaServer::FPimpl</text>
<text text-anchor="middle" x="820" y="-29.5" font-family="Helvetica,sans-Serif" font-size="10.00" fill="#000000">::BindActions</text>
</a>
</g>
</g>
<!-- Node33&#45;&gt;Node34 -->
<g id="edge3" class="edge">
<title>Node33&#45;&gt;Node34</title>
<path fill="none" stroke="#191970" d="M735.2625,-37.5C743.8761,-37.5 752.572,-37.5 760.9434,-37.5"/>
<polygon fill="#191970" stroke="#191970" points="735.2131,-34.0001 725.2131,-37.5 735.213,-41.0001 735.2131,-34.0001"/>
</g>
<!-- Node35 -->
<g id="node5" class="node">
<title>Node35</title>
<g id="a_node5"><a xlink:href="../../d7/d97/classFCarlaServer_1_1FPimpl.html#a5521999cb8b42460143ad4b1cd869398" target="_top" xlink:title="FCarlaServer::FPimpl\l::FPimpl">
<polygon fill="#ffffff" stroke="#000000" points="915,-22.5 915,-52.5 1033,-52.5 1033,-22.5 915,-22.5"/>
<text text-anchor="start" x="923" y="-40.5" font-family="Helvetica,sans-Serif" font-size="10.00" fill="#000000">FCarlaServer::FPimpl</text>
<text text-anchor="middle" x="974" y="-29.5" font-family="Helvetica,sans-Serif" font-size="10.00" fill="#000000">::FPimpl</text>
</a>
</g>
</g>
<!-- Node34&#45;&gt;Node35 -->
<g id="edge4" class="edge">
<title>Node34&#45;&gt;Node35</title>
<path fill="none" stroke="#191970" d="M889.3691,-37.5C897.8618,-37.5 906.4796,-37.5 914.8037,-37.5"/>
<polygon fill="#191970" stroke="#191970" points="889.1,-34.0001 879.1,-37.5 889.1,-41.0001 889.1,-34.0001"/>
</g>
<!-- Node36&#45;&gt;Node32 -->
<g id="edge6" class="edge">
<title>Node36&#45;&gt;Node32</title>
<path fill="none" stroke="#191970" d="M389.2342,-25.9423C397.831,-26.9483 406.4811,-27.9606 414.8959,-28.9453"/>
<polygon fill="#191970" stroke="#191970" points="389.5231,-22.4523 379.184,-24.7662 388.7094,-29.4049 389.5231,-22.4523"/>
</g>
</g>
</svg>
