<?xml version="1.0" encoding="UTF-8" standalone="no"?>
<!DOCTYPE svg PUBLIC "-//W3C//DTD SVG 1.1//EN"
 "http://www.w3.org/Graphics/SVG/1.1/DTD/svg11.dtd">
<!-- Generated by graphviz version 2.40.1 (20161225.0304)
 -->
<!-- Title: FWalkerData::RecordActorData Pages: 1 -->
<svg width="552pt" height="78pt"
 viewBox="0.00 0.00 552.00 77.50" xmlns="http://www.w3.org/2000/svg" xmlns:xlink="http://www.w3.org/1999/xlink">
<g id="graph0" class="graph" transform="scale(1 1) rotate(0) translate(4 73.5)">
<title>FWalkerData::RecordActorData</title>
<polygon fill="#ffffff" stroke="transparent" points="-4,4 -4,-73.5 548,-73.5 548,4 -4,4"/>
<!-- Node0 -->
<g id="node1" class="node">
<title>Node0</title>
<polygon fill="#bfbfbf" stroke="#000000" points="0,-31 0,-50 167,-50 167,-31 0,-31"/>
<text text-anchor="middle" x="83.5" y="-38" font-family="Helvetica,sans-Serif" font-size="10.00" fill="#000000">FWalkerData::RecordActorData</text>
</g>
<!-- Node1 -->
<g id="node2" class="node">
<title>Node1</title>
<g id="a_node2"><a xlink:href="../../dc/dde/classFCarlaActor.html#a06464d85c473682256871464d9bf7658" target="_top" xlink:title="FCarlaActor::GetActor">
<polygon fill="#ffffff" stroke="#000000" points="409.5,-50 409.5,-69 531.5,-69 531.5,-50 409.5,-50"/>
<text text-anchor="middle" x="470.5" y="-57" font-family="Helvetica,sans-Serif" font-size="10.00" fill="#000000">FCarlaActor::GetActor</text>
</a>
</g>
</g>
<!-- Node0&#45;&gt;Node1 -->
<g id="edge1" class="edge">
<title>Node0&#45;&gt;Node1</title>
<path fill="none" stroke="#191970" d="M167.4732,-44.6227C236.6863,-48.0208 333.7758,-52.7874 399.2454,-56.0017"/>
<polygon fill="#191970" stroke="#191970" points="399.3126,-59.5091 409.4723,-56.5038 399.656,-52.5176 399.3126,-59.5091"/>
</g>
<!-- Node2 -->
<g id="node3" class="node">
<title>Node2</title>
<g id="a_node3"><a xlink:href="../../dd/d67/classFActorData.html#a38a9ea09dd72dfeb7aeae59b8c9b5107" target="_top" xlink:title="FActorData::RecordActorData">
<polygon fill="#ffffff" stroke="#000000" points="203,-12 203,-31 361,-31 361,-12 203,-12"/>
<text text-anchor="middle" x="282" y="-19" font-family="Helvetica,sans-Serif" font-size="10.00" fill="#000000">FActorData::RecordActorData</text>
</a>
</g>
</g>
<!-- Node0&#45;&gt;Node2 -->
<g id="edge2" class="edge">
<title>Node0&#45;&gt;Node2</title>
<path fill="none" stroke="#191970" d="M167.1066,-32.4974C175.6359,-31.6809 184.3233,-30.8494 192.9083,-30.0277"/>
<polygon fill="#191970" stroke="#191970" points="193.3027,-33.506 202.9237,-29.069 192.6357,-26.5379 193.3027,-33.506"/>
</g>
<!-- Node2&#45;&gt;Node1 -->
<g id="edge3" class="edge">
<title>Node2&#45;&gt;Node1</title>
<path fill="none" stroke="#191970" d="M329.5665,-31.089C355.0014,-36.2165 386.5046,-42.5672 413.2714,-47.9632"/>
<polygon fill="#191970" stroke="#191970" points="412.7811,-51.4347 423.2755,-49.9799 414.1644,-44.5727 412.7811,-51.4347"/>
</g>
<!-- Node3 -->
<g id="node4" class="node">
<title>Node3</title>
<g id="a_node4"><a xlink:href="../../dc/d84/classUCarlaEpisode.html#a079f3aace58f935aea59e0a6a1c7cda7" target="_top" xlink:title="UCarlaEpisode::GetCurrent\lMapOrigin">
<polygon fill="#ffffff" stroke="#000000" points="397,-.5 397,-30.5 544,-30.5 544,-.5 397,-.5"/>
<text text-anchor="start" x="405" y="-18.5" font-family="Helvetica,sans-Serif" font-size="10.00" fill="#000000">UCarlaEpisode::GetCurrent</text>
<text text-anchor="middle" x="470.5" y="-7.5" font-family="Helvetica,sans-Serif" font-size="10.00" fill="#000000">MapOrigin</text>
</a>
</g>
</g>
<!-- Node2&#45;&gt;Node3 -->
<g id="edge4" class="edge">
<title>Node2&#45;&gt;Node3</title>
<path fill="none" stroke="#191970" d="M361.1216,-18.9815C369.6667,-18.7095 378.3821,-18.4321 386.9769,-18.1586"/>
<polygon fill="#191970" stroke="#191970" points="387.1101,-21.6562 396.9937,-17.8397 386.8873,-14.6597 387.1101,-21.6562"/>
</g>
</g>
</svg>
