<?xml version="1.0" encoding="UTF-8" standalone="no"?>
<!DOCTYPE svg PUBLIC "-//W3C//DTD SVG 1.1//EN"
 "http://www.w3.org/Graphics/SVG/1.1/DTD/svg11.dtd">
<!-- Generated by graphviz version 2.38.0 (20140413.2041)
 -->
<!-- Title: Sensor Pages: 1 -->
<svg width="492pt" height="404pt"
 viewBox="0.00 0.00 492.41 404.00" xmlns="http://www.w3.org/2000/svg" xmlns:xlink="http://www.w3.org/1999/xlink">
<g id="graph0" class="graph" transform="scale(1 1) rotate(0) translate(4 400)">
<title>Sensor</title>
<polygon fill="white" stroke="none" points="-4,4 -4,-400 488.407,-400 488.407,4 -4,4"/>
<g id="clust1" class="cluster"><title>clusterdir_8fc34afb5f07a67966c78bf5319f94ae</title>
<g id="a_clust1"><a xlink:href="dir_8fc34afb5f07a67966c78bf5319f94ae.html" target="_top" xlink:title="Carla">
<polygon fill="#ddddee" stroke="black" points="227,-280 227,-351 297,-351 297,-280 227,-280"/>
<text text-anchor="middle" x="262" y="-339" font-family="Helvetica,sans-Serif" font-size="10.00">Carla</text>
</a>
</g>
</g>
<!-- dir_32df69f29a08a23c97cd630e5cd47b2e -->
<g id="node1" class="node"><title>dir_32df69f29a08a23c97cd630e5cd47b2e</title>
<g id="a_node1"><a xlink:href="dir_32df69f29a08a23c97cd630e5cd47b2e.html" target="_top" xlink:title="Sensor">
<polygon fill="#eeeeff" stroke="black" points="289,-324 235,-324 235,-288 289,-288 289,-324"/>
<text text-anchor="middle" x="262" y="-303.5" font-family="Helvetica,sans-Serif" font-size="10.00">Sensor</text>
</a>
</g>
</g>
<!-- dir_c0211e659583c36c301432102f960843 -->
<g id="node2" class="node"><title>dir_c0211e659583c36c301432102f960843</title>
<g id="a_node2"><a xlink:href="dir_c0211e659583c36c301432102f960843.html" target="_top" xlink:title="Util">
<polygon fill="none" stroke="black" points="394,-396 340,-396 340,-360 394,-360 394,-396"/>
<text text-anchor="middle" x="367" y="-375.5" font-family="Helvetica,sans-Serif" font-size="10.00">Util</text>
</a>
</g>
</g>
<!-- dir_32df69f29a08a23c97cd630e5cd47b2e&#45;&gt;dir_c0211e659583c36c301432102f960843 -->
<g id="edge6" class="edge"><title>dir_32df69f29a08a23c97cd630e5cd47b2e&#45;&gt;dir_c0211e659583c36c301432102f960843</title>
<path fill="none" stroke="black" d="M287.785,-324.19C301.402,-333.268 318.289,-344.526 332.968,-354.312"/>
<polygon fill="black" stroke="black" points="331.052,-357.241 341.314,-359.876 334.935,-351.417 331.052,-357.241"/>
<g id="a_edge6&#45;headlabel"><a xlink:href="dir_000017_000011.html" target="_top" xlink:title="1">
<text text-anchor="middle" x="326.486" y="-355.11" font-family="Helvetica,sans-Serif" font-size="10.00">1</text>
</a>
</g>
</g>
<!-- dir_4d620431c9b0dc62fca23e1ed91a49b6 -->
<g id="node3" class="node"><title>dir_4d620431c9b0dc62fca23e1ed91a49b6</title>
<g id="a_node3"><a xlink:href="dir_4d620431c9b0dc62fca23e1ed91a49b6.html" target="_top" xlink:title="Vehicle">
<polygon fill="none" stroke="black" points="394,-324 340,-324 340,-288 394,-288 394,-324"/>
<text text-anchor="middle" x="367" y="-303.5" font-family="Helvetica,sans-Serif" font-size="10.00">Vehicle</text>
</a>
</g>
</g>
<!-- dir_32df69f29a08a23c97cd630e5cd47b2e&#45;&gt;dir_4d620431c9b0dc62fca23e1ed91a49b6 -->
<g id="edge7" class="edge"><title>dir_32df69f29a08a23c97cd630e5cd47b2e&#45;&gt;dir_4d620431c9b0dc62fca23e1ed91a49b6</title>
<path fill="none" stroke="black" d="M289.07,-306C302.574,-306 316.077,-306 329.581,-306"/>
<polygon fill="black" stroke="black" points="329.907,-309.5 339.907,-306 329.907,-302.5 329.907,-309.5"/>
<g id="a_edge7&#45;headlabel"><a xlink:href="dir_000017_000029.html" target="_top" xlink:title="1">
<text text-anchor="middle" x="326.313" y="-309.839" font-family="Helvetica,sans-Serif" font-size="10.00">1</text>
</a>
</g>
</g>
<!-- dir_7a44753a182d2dd0cd15cfa7be7c0c89 -->
<g id="node4" class="node"><title>dir_7a44753a182d2dd0cd15cfa7be7c0c89</title>
<g id="a_node4"><a xlink:href="dir_7a44753a182d2dd0cd15cfa7be7c0c89.html" target="_top" xlink:title="Walker">
<polygon fill="none" stroke="black" points="158,-252 104,-252 104,-216 158,-216 158,-252"/>
<text text-anchor="middle" x="131" y="-231.5" font-family="Helvetica,sans-Serif" font-size="10.00">Walker</text>
</a>
</g>
</g>
<!-- dir_32df69f29a08a23c97cd630e5cd47b2e&#45;&gt;dir_7a44753a182d2dd0cd15cfa7be7c0c89 -->
<g id="edge8" class="edge"><title>dir_32df69f29a08a23c97cd630e5cd47b2e&#45;&gt;dir_7a44753a182d2dd0cd15cfa7be7c0c89</title>
<path fill="none" stroke="black" d="M234.857,-290.496C215.184,-279.984 188.384,-265.663 166.936,-254.203"/>
<polygon fill="black" stroke="black" points="168.578,-251.111 158.109,-249.485 165.279,-257.285 168.578,-251.111"/>
<g id="a_edge8&#45;headlabel"><a xlink:href="dir_000017_000057.html" target="_top" xlink:title="1">
<text text-anchor="middle" x="173.086" y="-247.801" font-family="Helvetica,sans-Serif" font-size="10.00">1</text>
</a>
</g>
</g>
<!-- dir_1604d568fa4d964dfa9079b701bbfa07 -->
<g id="node5" class="node"><title>dir_1604d568fa4d964dfa9079b701bbfa07</title>
<g id="a_node5"><a xlink:href="dir_1604d568fa4d964dfa9079b701bbfa07.html" target="_top" xlink:title="LibCarla">
<polygon fill="white" stroke="red" points="216.5,-36 161.5,-36 161.5,-0 216.5,-0 216.5,-36"/>
<text text-anchor="middle" x="189" y="-15.5" font-family="Helvetica,sans-Serif" font-size="10.00">LibCarla</text>
</a>
</g>
</g>
<!-- dir_32df69f29a08a23c97cd630e5cd47b2e&#45;&gt;dir_1604d568fa4d964dfa9079b701bbfa07 -->
<g id="edge9" class="edge"><title>dir_32df69f29a08a23c97cd630e5cd47b2e&#45;&gt;dir_1604d568fa4d964dfa9079b701bbfa07</title>
<path fill="none" stroke="black" d="M234.812,-305.434C196.375,-304.391 127.244,-296.063 95,-252 45.8116,-184.783 122.303,-88.2046 164.351,-43.4651"/>
<polygon fill="black" stroke="black" points="166.884,-45.8803 171.271,-36.2366 161.828,-41.0394 166.884,-45.8803"/>
<g id="a_edge9&#45;headlabel"><a xlink:href="dir_000017_000000.html" target="_top" xlink:title="43">
<text text-anchor="middle" x="166.449" y="-47.9403" font-family="Helvetica,sans-Serif" font-size="10.00">43</text>
</a>
</g>
</g>
<!-- dir_cf78ae8ffd0f6192e117b8a1751c2bbd -->
<g id="node6" class="node"><title>dir_cf78ae8ffd0f6192e117b8a1751c2bbd</title>
<g id="a_node6"><a xlink:href="dir_cf78ae8ffd0f6192e117b8a1751c2bbd.html" target="_top" xlink:title="Traffic">
<polygon fill="none" stroke="black" points="458,-252 404,-252 404,-216 458,-216 458,-252"/>
<text text-anchor="middle" x="431" y="-231.5" font-family="Helvetica,sans-Serif" font-size="10.00">Traffic</text>
</a>
</g>
</g>
<!-- dir_32df69f29a08a23c97cd630e5cd47b2e&#45;&gt;dir_cf78ae8ffd0f6192e117b8a1751c2bbd -->
<g id="edge10" class="edge"><title>dir_32df69f29a08a23c97cd630e5cd47b2e&#45;&gt;dir_cf78ae8ffd0f6192e117b8a1751c2bbd</title>
<path fill="none" stroke="black" d="M289.153,-293.753C317.733,-281.915 362.887,-263.213 394.553,-250.096"/>
<polygon fill="black" stroke="black" points="396.015,-253.279 403.915,-246.219 393.336,-246.812 396.015,-253.279"/>
<g id="a_edge10&#45;headlabel"><a xlink:href="dir_000017_000053.html" target="_top" xlink:title="6">
<text text-anchor="middle" x="393.781" y="-254.778" font-family="Helvetica,sans-Serif" font-size="10.00">6</text>
</a>
</g>
</g>
<!-- dir_b708e75f0564cefaa95a07ef1c60fa1d -->
<g id="node7" class="node"><title>dir_b708e75f0564cefaa95a07ef1c60fa1d</title>
<g id="a_node7"><a xlink:href="dir_b708e75f0564cefaa95a07ef1c60fa1d.html" target="_top" xlink:title="Game">
<polygon fill="none" stroke="black" points="365,-180 311,-180 311,-144 365,-144 365,-180"/>
<text text-anchor="middle" x="338" y="-159.5" font-family="Helvetica,sans-Serif" font-size="10.00">Game</text>
</a>
</g>
</g>
<!-- dir_32df69f29a08a23c97cd630e5cd47b2e&#45;&gt;dir_b708e75f0564cefaa95a07ef1c60fa1d -->
<g id="edge11" class="edge"><title>dir_32df69f29a08a23c97cd630e5cd47b2e&#45;&gt;dir_b708e75f0564cefaa95a07ef1c60fa1d</title>
<path fill="none" stroke="black" d="M271.167,-287.871C284.291,-263.35 308.546,-218.032 323.946,-189.259"/>
<polygon fill="black" stroke="black" points="327.167,-190.658 328.8,-180.189 320.995,-187.354 327.167,-190.658"/>
<g id="a_edge11&#45;headlabel"><a xlink:href="dir_000017_000022.html" target="_top" xlink:title="11">
<text text-anchor="middle" x="327.974" y="-192.667" font-family="Helvetica,sans-Serif" font-size="10.00">11</text>
</a>
</g>
</g>
<!-- dir_31691989b6ffa820edb06b9eb32cc520 -->
<g id="node8" class="node"><title>dir_31691989b6ffa820edb06b9eb32cc520</title>
<g id="a_node8"><a xlink:href="dir_31691989b6ffa820edb06b9eb32cc520.html" target="_top" xlink:title="Actor">
<polygon fill="none" stroke="black" points="266,-108 212,-108 212,-72 266,-72 266,-108"/>
<text text-anchor="middle" x="239" y="-87.5" font-family="Helvetica,sans-Serif" font-size="10.00">Actor</text>
</a>
</g>
</g>
<!-- dir_32df69f29a08a23c97cd630e5cd47b2e&#45;&gt;dir_31691989b6ffa820edb06b9eb32cc520 -->
<g id="edge12" class="edge"><title>dir_32df69f29a08a23c97cd630e5cd47b2e&#45;&gt;dir_31691989b6ffa820edb06b9eb32cc520</title>
<path fill="none" stroke="black" d="M238.248,-287.91C227.447,-278.651 215.803,-266.2 210,-252 191.843,-207.567 198.109,-190.504 210,-144 212.379,-134.697 216.765,-125.27 221.418,-116.997"/>
<polygon fill="black" stroke="black" points="224.544,-118.59 226.693,-108.216 218.543,-114.986 224.544,-118.59"/>
<g id="a_edge12&#45;headlabel"><a xlink:href="dir_000017_000012.html" target="_top" xlink:title="25">
<text text-anchor="middle" x="225.127" y="-120.634" font-family="Helvetica,sans-Serif" font-size="10.00">25</text>
</a>
</g>
</g>
<!-- dir_c0211e659583c36c301432102f960843&#45;&gt;dir_4d620431c9b0dc62fca23e1ed91a49b6 -->
<g id="edge1" class="edge"><title>dir_c0211e659583c36c301432102f960843&#45;&gt;dir_4d620431c9b0dc62fca23e1ed91a49b6</title>
<path fill="none" stroke="black" d="M367,-359.697C367,-351.983 367,-342.712 367,-334.112"/>
<polygon fill="black" stroke="black" points="370.5,-334.104 367,-324.104 363.5,-334.104 370.5,-334.104"/>
<g id="a_edge1&#45;headlabel"><a xlink:href="dir_000011_000029.html" target="_top" xlink:title="1">
<text text-anchor="middle" x="373.339" y="-335.199" font-family="Helvetica,sans-Serif" font-size="10.00">1</text>
</a>
</g>
</g>
<!-- dir_c0211e659583c36c301432102f960843&#45;&gt;dir_1604d568fa4d964dfa9079b701bbfa07 -->
<g id="edge2" class="edge"><title>dir_c0211e659583c36c301432102f960843&#45;&gt;dir_1604d568fa4d964dfa9079b701bbfa07</title>
<path fill="none" stroke="black" d="M339.751,-376.671C281.768,-375.587 148.179,-370.935 108,-351 44.8989,-319.691 0,-305.441 0,-235 0,-235 0,-235 0,-161 0,-86.0444 96.1921,-45.7655 151.328,-28.8349"/>
<polygon fill="black" stroke="black" points="152.515,-32.1337 161.112,-25.9422 150.53,-25.4209 152.515,-32.1337"/>
<g id="a_edge2&#45;headlabel"><a xlink:href="dir_000011_000000.html" target="_top" xlink:title="7">
<text text-anchor="middle" x="149.873" y="-33.3755" font-family="Helvetica,sans-Serif" font-size="10.00">7</text>
</a>
</g>
</g>
<!-- dir_c0211e659583c36c301432102f960843&#45;&gt;dir_cf78ae8ffd0f6192e117b8a1751c2bbd -->
<g id="edge3" class="edge"><title>dir_c0211e659583c36c301432102f960843&#45;&gt;dir_cf78ae8ffd0f6192e117b8a1751c2bbd</title>
<path fill="none" stroke="black" d="M386.311,-359.806C389.17,-357.143 391.852,-354.201 394,-351 411.981,-324.207 418.447,-287.079 422.781,-262.108"/>
<polygon fill="black" stroke="black" points="426.235,-262.674 424.534,-252.216 419.342,-261.452 426.235,-262.674"/>
<g id="a_edge3&#45;headlabel"><a xlink:href="dir_000011_000053.html" target="_top" xlink:title="1">
<text text-anchor="middle" x="428.403" y="-264.209" font-family="Helvetica,sans-Serif" font-size="10.00">1</text>
</a>
</g>
</g>
<!-- dir_4d620431c9b0dc62fca23e1ed91a49b6&#45;&gt;dir_cf78ae8ffd0f6192e117b8a1751c2bbd -->
<g id="edge4" class="edge"><title>dir_4d620431c9b0dc62fca23e1ed91a49b6&#45;&gt;dir_cf78ae8ffd0f6192e117b8a1751c2bbd</title>
<path fill="none" stroke="black" d="M376.905,-287.697C383.849,-279.135 393.248,-268.656 402.317,-259.304"/>
<polygon fill="black" stroke="black" points="404.904,-261.666 409.467,-252.104 399.937,-256.734 404.904,-261.666"/>
<g id="a_edge4&#45;headlabel"><a xlink:href="dir_000029_000053.html" target="_top" xlink:title="2">
<text text-anchor="middle" x="404.386" y="-263.718" font-family="Helvetica,sans-Serif" font-size="10.00">2</text>
</a>
</g>
</g>
<!-- dir_7a44753a182d2dd0cd15cfa7be7c0c89&#45;&gt;dir_1604d568fa4d964dfa9079b701bbfa07 -->
<g id="edge5" class="edge"><title>dir_7a44753a182d2dd0cd15cfa7be7c0c89&#45;&gt;dir_1604d568fa4d964dfa9079b701bbfa07</title>
<path fill="none" stroke="black" d="M135.648,-215.849C145.702,-178.753 169.537,-90.8101 181.654,-46.1027"/>
<polygon fill="black" stroke="black" points="185.092,-46.7998 184.33,-36.2325 178.335,-44.9687 185.092,-46.7998"/>
<g id="a_edge5&#45;headlabel"><a xlink:href="dir_000057_000000.html" target="_top" xlink:title="2">
<text text-anchor="middle" x="186.892" y="-48.512" font-family="Helvetica,sans-Serif" font-size="10.00">2</text>
</a>
</g>
</g>
<!-- dir_cf78ae8ffd0f6192e117b8a1751c2bbd&#45;&gt;dir_c0211e659583c36c301432102f960843 -->
<g id="edge13" class="edge"><title>dir_cf78ae8ffd0f6192e117b8a1751c2bbd&#45;&gt;dir_c0211e659583c36c301432102f960843</title>
<path fill="none" stroke="black" d="M436.484,-252.216C438.059,-276.26 432.55,-320.38 412,-351 409.467,-354.775 406.19,-358.19 402.537,-361.212"/>
<polygon fill="black" stroke="black" points="400.232,-358.555 394.082,-367.182 404.27,-364.273 400.232,-358.555"/>
<g id="a_edge13&#45;headlabel"><a xlink:href="dir_000053_000011.html" target="_top" xlink:title="1">
<text text-anchor="middle" x="401.53" y="-351.662" font-family="Helvetica,sans-Serif" font-size="10.00">1</text>
</a>
</g>
</g>
<!-- dir_cf78ae8ffd0f6192e117b8a1751c2bbd&#45;&gt;dir_4d620431c9b0dc62fca23e1ed91a49b6 -->
<g id="edge14" class="edge"><title>dir_cf78ae8ffd0f6192e117b8a1751c2bbd&#45;&gt;dir_4d620431c9b0dc62fca23e1ed91a49b6</title>
<path fill="none" stroke="black" d="M421.257,-252.104C414.35,-260.636 404.968,-271.108 395.894,-280.478"/>
<polygon fill="black" stroke="black" points="393.292,-278.131 388.736,-287.697 398.262,-283.06 393.292,-278.131"/>
<g id="a_edge14&#45;headlabel"><a xlink:href="dir_000053_000029.html" target="_top" xlink:title="7">
<text text-anchor="middle" x="393.807" y="-271.08" font-family="Helvetica,sans-Serif" font-size="10.00">7</text>
</a>
</g>
</g>
<!-- dir_cf78ae8ffd0f6192e117b8a1751c2bbd&#45;&gt;dir_1604d568fa4d964dfa9079b701bbfa07 -->
<g id="edge15" class="edge"><title>dir_cf78ae8ffd0f6192e117b8a1751c2bbd&#45;&gt;dir_1604d568fa4d964dfa9079b701bbfa07</title>
<path fill="none" stroke="black" d="M428.872,-215.829C425.811,-196.772 418.698,-165.831 403,-144 358.938,-82.7221 274.783,-46.7313 226.167,-30.1446"/>
<polygon fill="black" stroke="black" points="227.243,-26.8142 216.65,-26.9908 225.041,-33.4588 227.243,-26.8142"/>
<g id="a_edge15&#45;headlabel"><a xlink:href="dir_000053_000000.html" target="_top" xlink:title="12">
<text text-anchor="middle" x="231.549" y="-22.7497" font-family="Helvetica,sans-Serif" font-size="10.00">12</text>
</a>
</g>
</g>
<!-- dir_cf78ae8ffd0f6192e117b8a1751c2bbd&#45;&gt;dir_b708e75f0564cefaa95a07ef1c60fa1d -->
<g id="edge16" class="edge"><title>dir_cf78ae8ffd0f6192e117b8a1751c2bbd&#45;&gt;dir_b708e75f0564cefaa95a07ef1c60fa1d</title>
<path fill="none" stroke="black" d="M408.011,-215.697C396.186,-206.796 381.608,-195.823 368.821,-186.199"/>
<polygon fill="black" stroke="black" points="370.819,-183.322 360.724,-180.104 366.609,-188.915 370.819,-183.322"/>
<g id="a_edge16&#45;headlabel"><a xlink:href="dir_000053_000022.html" target="_top" xlink:title="2">
<text text-anchor="middle" x="375.398" y="-180.715" font-family="Helvetica,sans-Serif" font-size="10.00">2</text>
</a>
</g>
</g>
<!-- dir_b708e75f0564cefaa95a07ef1c60fa1d&#45;&gt;dir_32df69f29a08a23c97cd630e5cd47b2e -->
<g id="edge19" class="edge"><title>dir_b708e75f0564cefaa95a07ef1c60fa1d&#45;&gt;dir_32df69f29a08a23c97cd630e5cd47b2e</title>
<path fill="none" stroke="black" d="M336.029,-180.054C333.292,-198.733 327.112,-229.08 314,-252 307.96,-262.558 299.308,-272.533 290.79,-280.921"/>
<polygon fill="black" stroke="black" points="288.298,-278.46 283.408,-287.858 293.092,-283.561 288.298,-278.46"/>
<g id="a_edge19&#45;headlabel"><a xlink:href="dir_000022_000017.html" target="_top" xlink:title="3">
<text text-anchor="middle" x="288.973" y="-271.429" font-family="Helvetica,sans-Serif" font-size="10.00">3</text>
</a>
</g>
</g>
<!-- dir_b708e75f0564cefaa95a07ef1c60fa1d&#45;&gt;dir_c0211e659583c36c301432102f960843 -->
<g id="edge17" class="edge"><title>dir_b708e75f0564cefaa95a07ef1c60fa1d&#45;&gt;dir_c0211e659583c36c301432102f960843</title>
<path fill="none" stroke="black" d="M365.222,-165.505C395.874,-169.945 444.353,-182.211 467,-216 501.117,-266.901 480.766,-306.162 439,-351 429.851,-360.822 416.714,-366.941 404.16,-370.75"/>
<polygon fill="black" stroke="black" points="403.088,-367.412 394.304,-373.336 404.865,-374.183 403.088,-367.412"/>
<g id="a_edge17&#45;headlabel"><a xlink:href="dir_000022_000011.html" target="_top" xlink:title="4">
<text text-anchor="middle" x="405.845" y="-361.254" font-family="Helvetica,sans-Serif" font-size="10.00">4</text>
</a>
</g>
</g>
<!-- dir_b708e75f0564cefaa95a07ef1c60fa1d&#45;&gt;dir_4d620431c9b0dc62fca23e1ed91a49b6 -->
<g id="edge18" class="edge"><title>dir_b708e75f0564cefaa95a07ef1c60fa1d&#45;&gt;dir_4d620431c9b0dc62fca23e1ed91a49b6</title>
<path fill="none" stroke="black" d="M342.939,-180.09C345.82,-190.428 349.389,-203.906 352,-216 356.436,-236.548 360.342,-260.001 363.055,-277.672"/>
<polygon fill="black" stroke="black" points="359.637,-278.481 364.585,-287.85 366.56,-277.441 359.637,-278.481"/>
<g id="a_edge18&#45;headlabel"><a xlink:href="dir_000022_000029.html" target="_top" xlink:title="1">
<text text-anchor="middle" x="356.295" y="-272.848" font-family="Helvetica,sans-Serif" font-size="10.00">1</text>
</a>
</g>
</g>
<!-- dir_b708e75f0564cefaa95a07ef1c60fa1d&#45;&gt;dir_1604d568fa4d964dfa9079b701bbfa07 -->
<g id="edge20" class="edge"><title>dir_b708e75f0564cefaa95a07ef1c60fa1d&#45;&gt;dir_1604d568fa4d964dfa9079b701bbfa07</title>
<path fill="none" stroke="black" d="M328.613,-143.707C317.603,-124.541 297.917,-93.5022 275,-72 260.46,-58.3572 241.873,-46.3792 225.702,-37.2779"/>
<polygon fill="black" stroke="black" points="226.963,-33.9789 216.508,-32.2608 223.609,-40.1235 226.963,-33.9789"/>
<g id="a_edge20&#45;headlabel"><a xlink:href="dir_000022_000000.html" target="_top" xlink:title="19">
<text text-anchor="middle" x="231.478" y="-30.7085" font-family="Helvetica,sans-Serif" font-size="10.00">19</text>
</a>
</g>
</g>
<!-- dir_b708e75f0564cefaa95a07ef1c60fa1d&#45;&gt;dir_31691989b6ffa820edb06b9eb32cc520 -->
<g id="edge21" class="edge"><title>dir_b708e75f0564cefaa95a07ef1c60fa1d&#45;&gt;dir_31691989b6ffa820edb06b9eb32cc520</title>
<path fill="none" stroke="black" d="M310.84,-145.811C296.723,-136.621 279.639,-124.713 265.611,-114.345"/>
<polygon fill="black" stroke="black" points="267.424,-111.33 257.325,-108.127 263.222,-116.928 267.424,-111.33"/>
<g id="a_edge21&#45;headlabel"><a xlink:href="dir_000022_000012.html" target="_top" xlink:title="2">
<text text-anchor="middle" x="272.003" y="-108.716" font-family="Helvetica,sans-Serif" font-size="10.00">2</text>
</a>
</g>
</g>
<!-- dir_31691989b6ffa820edb06b9eb32cc520&#45;&gt;dir_32df69f29a08a23c97cd630e5cd47b2e -->
<g id="edge24" class="edge"><title>dir_31691989b6ffa820edb06b9eb32cc520&#45;&gt;dir_32df69f29a08a23c97cd630e5cd47b2e</title>
<path fill="none" stroke="black" d="M240.852,-108.232C244.839,-145.324 254.26,-232.981 259.067,-277.712"/>
<polygon fill="black" stroke="black" points="255.608,-278.281 260.157,-287.849 262.568,-277.532 255.608,-278.281"/>
<g id="a_edge24&#45;headlabel"><a xlink:href="dir_000012_000017.html" target="_top" xlink:title="6">
<text text-anchor="middle" x="252.401" y="-272.51" font-family="Helvetica,sans-Serif" font-size="10.00">6</text>
</a>
</g>
</g>
<!-- dir_31691989b6ffa820edb06b9eb32cc520&#45;&gt;dir_c0211e659583c36c301432102f960843 -->
<g id="edge22" class="edge"><title>dir_31691989b6ffa820edb06b9eb32cc520&#45;&gt;dir_c0211e659583c36c301432102f960843</title>
<path fill="none" stroke="black" d="M211.725,-103.455C161.661,-128.21 63.0309,-186.859 95,-252 126.685,-316.563 157.287,-321.774 223,-351 257.26,-366.237 299.882,-372.547 329.836,-375.159"/>
<polygon fill="black" stroke="black" points="329.627,-378.653 339.868,-375.937 330.168,-371.674 329.627,-378.653"/>
<g id="a_edge22&#45;headlabel"><a xlink:href="dir_000012_000011.html" target="_top" xlink:title="2">
<text text-anchor="middle" x="325.824" y="-378.706" font-family="Helvetica,sans-Serif" font-size="10.00">2</text>
</a>
</g>
</g>
<!-- dir_31691989b6ffa820edb06b9eb32cc520&#45;&gt;dir_4d620431c9b0dc62fca23e1ed91a49b6 -->
<g id="edge23" class="edge"><title>dir_31691989b6ffa820edb06b9eb32cc520&#45;&gt;dir_4d620431c9b0dc62fca23e1ed91a49b6</title>
<path fill="none" stroke="black" d="M249.307,-108.232C271.728,-145.716 325.035,-234.84 351.518,-279.116"/>
<polygon fill="black" stroke="black" points="348.605,-281.064 356.742,-287.849 354.612,-277.471 348.605,-281.064"/>
<g id="a_edge23&#45;headlabel"><a xlink:href="dir_000012_000029.html" target="_top" xlink:title="1">
<text text-anchor="middle" x="344.323" y="-276.936" font-family="Helvetica,sans-Serif" font-size="10.00">1</text>
</a>
</g>
</g>
<!-- dir_31691989b6ffa820edb06b9eb32cc520&#45;&gt;dir_1604d568fa4d964dfa9079b701bbfa07 -->
<g id="edge25" class="edge"><title>dir_31691989b6ffa820edb06b9eb32cc520&#45;&gt;dir_1604d568fa4d964dfa9079b701bbfa07</title>
<path fill="none" stroke="black" d="M226.64,-71.6966C220.767,-63.4741 213.631,-53.4832 207.158,-44.4207"/>
<polygon fill="black" stroke="black" points="209.878,-42.2073 201.217,-36.1043 204.182,-46.276 209.878,-42.2073"/>
<g id="a_edge25&#45;headlabel"><a xlink:href="dir_000012_000000.html" target="_top" xlink:title="9">
<text text-anchor="middle" x="214.278" y="-40.9821" font-family="Helvetica,sans-Serif" font-size="10.00">9</text>
</a>
</g>
</g>
<!-- dir_31691989b6ffa820edb06b9eb32cc520&#45;&gt;dir_cf78ae8ffd0f6192e117b8a1751c2bbd -->
<g id="edge26" class="edge"><title>dir_31691989b6ffa820edb06b9eb32cc520&#45;&gt;dir_cf78ae8ffd0f6192e117b8a1751c2bbd</title>
<path fill="none" stroke="black" d="M266.144,-96.3968C295.378,-103.323 341.993,-117.711 374,-144 394.499,-160.837 410.024,-187.042 419.655,-206.664"/>
<polygon fill="black" stroke="black" points="416.607,-208.407 424.028,-215.969 422.942,-205.43 416.607,-208.407"/>
<g id="a_edge26&#45;headlabel"><a xlink:href="dir_000012_000053.html" target="_top" xlink:title="1">
<text text-anchor="middle" x="412.508" y="-203.861" font-family="Helvetica,sans-Serif" font-size="10.00">1</text>
</a>
</g>
</g>
<!-- dir_31691989b6ffa820edb06b9eb32cc520&#45;&gt;dir_b708e75f0564cefaa95a07ef1c60fa1d -->
<g id="edge27" class="edge"><title>dir_31691989b6ffa820edb06b9eb32cc520&#45;&gt;dir_b708e75f0564cefaa95a07ef1c60fa1d</title>
<path fill="none" stroke="black" d="M266.181,-106.202C280.223,-115.345 297.196,-127.173 311.178,-137.499"/>
<polygon fill="black" stroke="black" points="309.343,-140.498 319.444,-143.697 313.543,-134.897 309.343,-140.498"/>
<g id="a_edge27&#45;headlabel"><a xlink:href="dir_000012_000022.html" target="_top" xlink:title="3">
<text text-anchor="middle" x="304.764" y="-138.113" font-family="Helvetica,sans-Serif" font-size="10.00">3</text>
</a>
</g>
</g>
</g>
</svg>
