<?xml version="1.0" encoding="UTF-8" standalone="no"?>
<!DOCTYPE svg PUBLIC "-//W3C//DTD SVG 1.1//EN"
 "http://www.w3.org/Graphics/SVG/1.1/DTD/svg11.dtd">
<!-- Generated by graphviz version 2.40.1 (20161225.0304)
 -->
<!-- Title: MapGen Pages: 1 -->
<svg width="393pt" height="404pt"
 viewBox="0.00 0.00 392.91 404.00" xmlns="http://www.w3.org/2000/svg" xmlns:xlink="http://www.w3.org/1999/xlink">
<g id="graph0" class="graph" transform="scale(1 1) rotate(0) translate(4 400)">
<title>MapGen</title>
<polygon fill="#ffffff" stroke="transparent" points="-4,4 -4,-400 388.9109,-400 388.9109,4 -4,4"/>
<g id="clust1" class="cluster">
<title>clusterdir_8fc34afb5f07a67966c78bf5319f94ae</title>
<g id="a_clust1"><a xlink:href="dir_8fc34afb5f07a67966c78bf5319f94ae.html" target="_top" xlink:title="Carla">
<polygon fill="#ddddee" stroke="#000000" points="72.2357,-208 72.2357,-279 144.2357,-279 144.2357,-208 72.2357,-208"/>
<text text-anchor="middle" x="108.2357" y="-267" font-family="Helvetica,sans-Serif" font-size="10.00" fill="#000000">Carla</text>
</a>
</g>
</g>
<!-- dir_3e9aec868781f29a05b56aecc37cd1a9 -->
<g id="node1" class="node">
<title>dir_3e9aec868781f29a05b56aecc37cd1a9</title>
<g id="a_node1"><a xlink:href="dir_3e9aec868781f29a05b56aecc37cd1a9.html" target="_top" xlink:title="MapGen">
<polygon fill="#eeeeff" stroke="#000000" points="136.2357,-252 80.2357,-252 80.2357,-216 136.2357,-216 136.2357,-252"/>
<text text-anchor="middle" x="108.2357" y="-231.5" font-family="Helvetica,sans-Serif" font-size="10.00" fill="#000000">MapGen</text>
</a>
</g>
</g>
<!-- dir_c0211e659583c36c301432102f960843 -->
<g id="node2" class="node">
<title>dir_c0211e659583c36c301432102f960843</title>
<g id="a_node2"><a xlink:href="dir_c0211e659583c36c301432102f960843.html" target="_top" xlink:title="Util">
<polygon fill="none" stroke="#000000" points="226.2357,-396 172.2357,-396 172.2357,-360 226.2357,-360 226.2357,-396"/>
<text text-anchor="middle" x="199.2357" y="-375.5" font-family="Helvetica,sans-Serif" font-size="10.00" fill="#000000">Util</text>
</a>
</g>
</g>
<!-- dir_3e9aec868781f29a05b56aecc37cd1a9&#45;&gt;dir_c0211e659583c36c301432102f960843 -->
<g id="edge14" class="edge">
<title>dir_3e9aec868781f29a05b56aecc37cd1a9&#45;&gt;dir_c0211e659583c36c301432102f960843</title>
<path fill="none" stroke="#000000" d="M118.986,-252.0589C129.9254,-270.3234 147.4678,-299.3062 163.2357,-324 168.9064,-332.8807 175.238,-342.479 180.9909,-351.0856"/>
<polygon fill="#000000" stroke="#000000" points="178.2441,-353.2734 186.7247,-359.624 184.0554,-349.3709 178.2441,-353.2734"/>
<g id="a_edge14&#45;headlabel"><a xlink:href="dir_000032_000012.html" target="_top" xlink:title="3">
<text text-anchor="middle" x="173.8831" y="-349.3721" font-family="Helvetica,sans-Serif" font-size="10.00" fill="#000000">3</text>
</a>
</g>
</g>
<!-- dir_4d620431c9b0dc62fca23e1ed91a49b6 -->
<g id="node3" class="node">
<title>dir_4d620431c9b0dc62fca23e1ed91a49b6</title>
<g id="a_node3"><a xlink:href="dir_4d620431c9b0dc62fca23e1ed91a49b6.html" target="_top" xlink:title="Vehicle">
<polygon fill="#ffffff" stroke="#ff0000" points="226.2357,-324 172.2357,-324 172.2357,-288 226.2357,-288 226.2357,-324"/>
<text text-anchor="middle" x="199.2357" y="-303.5" font-family="Helvetica,sans-Serif" font-size="10.00" fill="#000000">Vehicle</text>
</a>
</g>
</g>
<!-- dir_3e9aec868781f29a05b56aecc37cd1a9&#45;&gt;dir_4d620431c9b0dc62fca23e1ed91a49b6 -->
<g id="edge15" class="edge">
<title>dir_3e9aec868781f29a05b56aecc37cd1a9&#45;&gt;dir_4d620431c9b0dc62fca23e1ed91a49b6</title>
<path fill="none" stroke="#000000" d="M116.7098,-252.1087C124.2119,-260.7541 134.8005,-270.9443 145.2357,-279 150.6627,-283.1895 156.7874,-287.2489 162.9593,-290.8927"/>
<polygon fill="#000000" stroke="#000000" points="161.5196,-294.097 171.9598,-295.9008 164.9232,-287.9801 161.5196,-294.097"/>
<g id="a_edge15&#45;headlabel"><a xlink:href="dir_000032_000006.html" target="_top" xlink:title="1">
<text text-anchor="middle" x="156.998" y="-292.3303" font-family="Helvetica,sans-Serif" font-size="10.00" fill="#000000">1</text>
</a>
</g>
</g>
<!-- dir_7a44753a182d2dd0cd15cfa7be7c0c89 -->
<g id="node4" class="node">
<title>dir_7a44753a182d2dd0cd15cfa7be7c0c89</title>
<g id="a_node4"><a xlink:href="dir_7a44753a182d2dd0cd15cfa7be7c0c89.html" target="_top" xlink:title="Walker">
<polygon fill="none" stroke="#000000" points="160.2357,-36 106.2357,-36 106.2357,0 160.2357,0 160.2357,-36"/>
<text text-anchor="middle" x="133.2357" y="-15.5" font-family="Helvetica,sans-Serif" font-size="10.00" fill="#000000">Walker</text>
</a>
</g>
</g>
<!-- dir_3e9aec868781f29a05b56aecc37cd1a9&#45;&gt;dir_7a44753a182d2dd0cd15cfa7be7c0c89 -->
<g id="edge16" class="edge">
<title>dir_3e9aec868781f29a05b56aecc37cd1a9&#45;&gt;dir_7a44753a182d2dd0cd15cfa7be7c0c89</title>
<path fill="none" stroke="#000000" d="M80.2127,-215.7629C67.3426,-206.3014 52.6608,-193.8332 42.2357,-180 12.1804,-140.1189 -16.0081,-113.8521 11.2357,-72 29.8616,-43.3869 67.4839,-29.8213 96.0525,-23.461"/>
<polygon fill="#000000" stroke="#000000" points="97.0067,-26.8391 106.1162,-21.4292 95.6213,-19.9775 97.0067,-26.8391"/>
<g id="a_edge16&#45;headlabel"><a xlink:href="dir_000032_000065.html" target="_top" xlink:title="1">
<text text-anchor="middle" x="94.045" y="-27.8335" font-family="Helvetica,sans-Serif" font-size="10.00" fill="#000000">1</text>
</a>
</g>
</g>
<!-- dir_32df69f29a08a23c97cd630e5cd47b2e -->
<g id="node5" class="node">
<title>dir_32df69f29a08a23c97cd630e5cd47b2e</title>
<g id="a_node5"><a xlink:href="dir_32df69f29a08a23c97cd630e5cd47b2e.html" target="_top" xlink:title="Sensor">
<polygon fill="#ffffff" stroke="#ff0000" points="215.2357,-108 161.2357,-108 161.2357,-72 215.2357,-72 215.2357,-108"/>
<text text-anchor="middle" x="188.2357" y="-87.5" font-family="Helvetica,sans-Serif" font-size="10.00" fill="#000000">Sensor</text>
</a>
</g>
</g>
<!-- dir_3e9aec868781f29a05b56aecc37cd1a9&#45;&gt;dir_32df69f29a08a23c97cd630e5cd47b2e -->
<g id="edge17" class="edge">
<title>dir_3e9aec868781f29a05b56aecc37cd1a9&#45;&gt;dir_32df69f29a08a23c97cd630e5cd47b2e</title>
<path fill="none" stroke="#000000" d="M108.198,-215.8798C108.9143,-196.788 112.2575,-166.4358 125.2357,-144 132.1333,-132.076 142.6682,-121.5255 153.1607,-112.9862"/>
<polygon fill="#000000" stroke="#000000" points="155.3289,-115.734 161.1151,-106.8587 151.0571,-110.1885 155.3289,-115.734"/>
<g id="a_edge17&#45;headlabel"><a xlink:href="dir_000032_000019.html" target="_top" xlink:title="1">
<text text-anchor="middle" x="154.2139" y="-117.6769" font-family="Helvetica,sans-Serif" font-size="10.00" fill="#000000">1</text>
</a>
</g>
</g>
<!-- dir_f9cdfd101429e27d647f8df664b6ebd1 -->
<g id="node6" class="node">
<title>dir_f9cdfd101429e27d647f8df664b6ebd1</title>
<g id="a_node6"><a xlink:href="dir_f9cdfd101429e27d647f8df664b6ebd1.html" target="_top" xlink:title="Math">
<polygon fill="none" stroke="#000000" points="74.2357,-108 20.2357,-108 20.2357,-72 74.2357,-72 74.2357,-108"/>
<text text-anchor="middle" x="47.2357" y="-87.5" font-family="Helvetica,sans-Serif" font-size="10.00" fill="#000000">Math</text>
</a>
</g>
</g>
<!-- dir_3e9aec868781f29a05b56aecc37cd1a9&#45;&gt;dir_f9cdfd101429e27d647f8df664b6ebd1 -->
<g id="edge18" class="edge">
<title>dir_3e9aec868781f29a05b56aecc37cd1a9&#45;&gt;dir_f9cdfd101429e27d647f8df664b6ebd1</title>
<path fill="none" stroke="#000000" d="M83.502,-215.9901C72.5605,-206.5805 60.7236,-194.0902 54.2357,-180 45.3591,-160.7219 43.915,-136.6548 44.5239,-118.26"/>
<polygon fill="#000000" stroke="#000000" points="48.0246,-118.3411 45.0789,-108.164 41.0352,-117.9568 48.0246,-118.3411"/>
<g id="a_edge18&#45;headlabel"><a xlink:href="dir_000032_000046.html" target="_top" xlink:title="1">
<text text-anchor="middle" x="50.6624" y="-119.5861" font-family="Helvetica,sans-Serif" font-size="10.00" fill="#000000">1</text>
</a>
</g>
</g>
<!-- dir_b708e75f0564cefaa95a07ef1c60fa1d -->
<g id="node7" class="node">
<title>dir_b708e75f0564cefaa95a07ef1c60fa1d</title>
<g id="a_node7"><a xlink:href="dir_b708e75f0564cefaa95a07ef1c60fa1d.html" target="_top" xlink:title="Game">
<polygon fill="none" stroke="#000000" points="290.2357,-252 236.2357,-252 236.2357,-216 290.2357,-216 290.2357,-252"/>
<text text-anchor="middle" x="263.2357" y="-231.5" font-family="Helvetica,sans-Serif" font-size="10.00" fill="#000000">Game</text>
</a>
</g>
</g>
<!-- dir_3e9aec868781f29a05b56aecc37cd1a9&#45;&gt;dir_b708e75f0564cefaa95a07ef1c60fa1d -->
<g id="edge19" class="edge">
<title>dir_3e9aec868781f29a05b56aecc37cd1a9&#45;&gt;dir_b708e75f0564cefaa95a07ef1c60fa1d</title>
<path fill="none" stroke="#000000" d="M136.39,-234C166.2163,-234 196.0425,-234 225.8687,-234"/>
<polygon fill="#000000" stroke="#000000" points="225.9838,-237.5001 235.9837,-234 225.9837,-230.5001 225.9838,-237.5001"/>
<g id="a_edge19&#45;headlabel"><a xlink:href="dir_000032_000025.html" target="_top" xlink:title="2">
<text text-anchor="middle" x="222.3891" y="-237.8393" font-family="Helvetica,sans-Serif" font-size="10.00" fill="#000000">2</text>
</a>
</g>
</g>
<!-- dir_61a866aca8f5011fad0bfe0df06e6f79 -->
<g id="node8" class="node">
<title>dir_61a866aca8f5011fad0bfe0df06e6f79</title>
<g id="a_node8"><a xlink:href="dir_61a866aca8f5011fad0bfe0df06e6f79.html" target="_top" xlink:title="Settings">
<polygon fill="none" stroke="#000000" points="356.2357,-180 300.2357,-180 300.2357,-144 356.2357,-144 356.2357,-180"/>
<text text-anchor="middle" x="328.2357" y="-159.5" font-family="Helvetica,sans-Serif" font-size="10.00" fill="#000000">Settings</text>
</a>
</g>
</g>
<!-- dir_3e9aec868781f29a05b56aecc37cd1a9&#45;&gt;dir_61a866aca8f5011fad0bfe0df06e6f79 -->
<g id="edge20" class="edge">
<title>dir_3e9aec868781f29a05b56aecc37cd1a9&#45;&gt;dir_61a866aca8f5011fad0bfe0df06e6f79</title>
<path fill="none" stroke="#000000" d="M136.5465,-224.7347C175.7366,-211.9088 246.619,-188.7109 290.3392,-174.4025"/>
<polygon fill="#000000" stroke="#000000" points="291.6183,-177.6666 300.0336,-171.2298 289.441,-171.0138 291.6183,-177.6666"/>
<g id="a_edge20&#45;headlabel"><a xlink:href="dir_000032_000029.html" target="_top" xlink:title="1">
<text text-anchor="middle" x="289.0851" y="-178.9831" font-family="Helvetica,sans-Serif" font-size="10.00" fill="#000000">1</text>
</a>
</g>
</g>
<!-- dir_31691989b6ffa820edb06b9eb32cc520 -->
<g id="node9" class="node">
<title>dir_31691989b6ffa820edb06b9eb32cc520</title>
<g id="a_node9"><a xlink:href="dir_31691989b6ffa820edb06b9eb32cc520.html" target="_top" xlink:title="Actor">
<polygon fill="none" stroke="#000000" points="188.2357,-180 134.2357,-180 134.2357,-144 188.2357,-144 188.2357,-180"/>
<text text-anchor="middle" x="161.2357" y="-159.5" font-family="Helvetica,sans-Serif" font-size="10.00" fill="#000000">Actor</text>
</a>
</g>
</g>
<!-- dir_3e9aec868781f29a05b56aecc37cd1a9&#45;&gt;dir_31691989b6ffa820edb06b9eb32cc520 -->
<g id="edge21" class="edge">
<title>dir_3e9aec868781f29a05b56aecc37cd1a9&#45;&gt;dir_31691989b6ffa820edb06b9eb32cc520</title>
<path fill="none" stroke="#000000" d="M121.6099,-215.8314C127.652,-207.6232 134.912,-197.7606 141.5578,-188.7323"/>
<polygon fill="#000000" stroke="#000000" points="144.572,-190.5415 147.6815,-180.4133 138.9346,-186.3918 144.572,-190.5415"/>
<g id="a_edge21&#45;headlabel"><a xlink:href="dir_000032_000013.html" target="_top" xlink:title="1">
<text text-anchor="middle" x="144.7277" y="-192.6195" font-family="Helvetica,sans-Serif" font-size="10.00" fill="#000000">1</text>
</a>
</g>
</g>
<!-- dir_c0211e659583c36c301432102f960843&#45;&gt;dir_3e9aec868781f29a05b56aecc37cd1a9 -->
<g id="edge2" class="edge">
<title>dir_c0211e659583c36c301432102f960843&#45;&gt;dir_3e9aec868781f29a05b56aecc37cd1a9</title>
<path fill="none" stroke="#000000" d="M171.9692,-362.8246C157.5085,-353.4357 140.631,-340.1027 130.2357,-324 118.2932,-305.5004 112.8321,-281.0503 110.3356,-262.3036"/>
<polygon fill="#000000" stroke="#000000" points="113.8042,-261.8271 109.2065,-252.2819 106.8482,-262.6109 113.8042,-261.8271"/>
<g id="a_edge2&#45;headlabel"><a xlink:href="dir_000012_000032.html" target="_top" xlink:title="1">
<text text-anchor="middle" x="117.028" y="-262.5812" font-family="Helvetica,sans-Serif" font-size="10.00" fill="#000000">1</text>
</a>
</g>
</g>
<!-- dir_c0211e659583c36c301432102f960843&#45;&gt;dir_4d620431c9b0dc62fca23e1ed91a49b6 -->
<g id="edge1" class="edge">
<title>dir_c0211e659583c36c301432102f960843&#45;&gt;dir_4d620431c9b0dc62fca23e1ed91a49b6</title>
<path fill="none" stroke="#000000" d="M193.2833,-359.8314C192.5329,-352.131 192.312,-342.9743 192.6207,-334.4166"/>
<polygon fill="#000000" stroke="#000000" points="196.115,-334.6161 193.2597,-324.4133 189.1292,-334.1697 196.115,-334.6161"/>
<g id="a_edge1&#45;headlabel"><a xlink:href="dir_000012_000006.html" target="_top" xlink:title="2">
<text text-anchor="middle" x="198.7194" y="-335.8844" font-family="Helvetica,sans-Serif" font-size="10.00" fill="#000000">2</text>
</a>
</g>
</g>
<!-- dir_c0211e659583c36c301432102f960843&#45;&gt;dir_b708e75f0564cefaa95a07ef1c60fa1d -->
<g id="edge3" class="edge">
<title>dir_c0211e659583c36c301432102f960843&#45;&gt;dir_b708e75f0564cefaa95a07ef1c60fa1d</title>
<path fill="none" stroke="#000000" d="M205.307,-359.7942C211.5898,-349.6755 220.224,-336.612 226.2357,-324 235.7563,-304.0269 243.0311,-280.0447 249.1025,-261.8606"/>
<polygon fill="#000000" stroke="#000000" points="252.4971,-262.7529 252.4519,-252.1581 245.8803,-260.4686 252.4971,-262.7529"/>
<g id="a_edge3&#45;headlabel"><a xlink:href="dir_000012_000025.html" target="_top" xlink:title="5">
<text text-anchor="middle" x="254.0081" y="-264.5772" font-family="Helvetica,sans-Serif" font-size="10.00" fill="#000000">5</text>
</a>
</g>
</g>
<!-- dir_4d620431c9b0dc62fca23e1ed91a49b6&#45;&gt;dir_3e9aec868781f29a05b56aecc37cd1a9 -->
<g id="edge5" class="edge">
<title>dir_4d620431c9b0dc62fca23e1ed91a49b6&#45;&gt;dir_3e9aec868781f29a05b56aecc37cd1a9</title>
<path fill="none" stroke="#000000" d="M175.5876,-287.7128C171.3839,-284.9458 167.1302,-282.0064 163.2357,-279 155.5723,-273.0841 147.8263,-266.017 140.5825,-259.256"/>
<polygon fill="#000000" stroke="#000000" points="142.6395,-256.3874 132.9471,-252.1087 137.8558,-261.4978 142.6395,-256.3874"/>
<g id="a_edge5&#45;headlabel"><a xlink:href="dir_000006_000032.html" target="_top" xlink:title="4">
<text text-anchor="middle" x="147.2041" y="-254.271" font-family="Helvetica,sans-Serif" font-size="10.00" fill="#000000">4</text>
</a>
</g>
</g>
<!-- dir_4d620431c9b0dc62fca23e1ed91a49b6&#45;&gt;dir_c0211e659583c36c301432102f960843 -->
<g id="edge4" class="edge">
<title>dir_4d620431c9b0dc62fca23e1ed91a49b6&#45;&gt;dir_c0211e659583c36c301432102f960843</title>
<path fill="none" stroke="#000000" d="M205.2117,-324.4133C205.9429,-332.0593 206.156,-341.1084 205.8512,-349.5726"/>
<polygon fill="#000000" stroke="#000000" points="202.3405,-349.6264 205.1881,-359.8314 209.3259,-350.078 202.3405,-349.6264"/>
<g id="a_edge4&#45;headlabel"><a xlink:href="dir_000006_000012.html" target="_top" xlink:title="6">
<text text-anchor="middle" x="199.7389" y="-343.3562" font-family="Helvetica,sans-Serif" font-size="10.00" fill="#000000">6</text>
</a>
</g>
</g>
<!-- dir_4d620431c9b0dc62fca23e1ed91a49b6&#45;&gt;dir_f9cdfd101429e27d647f8df664b6ebd1 -->
<g id="edge6" class="edge">
<title>dir_4d620431c9b0dc62fca23e1ed91a49b6&#45;&gt;dir_f9cdfd101429e27d647f8df664b6ebd1</title>
<path fill="none" stroke="#000000" d="M172.0375,-303.7417C138.1477,-300.3764 82.8984,-292.8975 68.2357,-279 24.7014,-237.7373 32.3828,-159.8475 40.5113,-118.1027"/>
<polygon fill="#000000" stroke="#000000" points="43.988,-118.5758 42.6107,-108.0709 37.1365,-117.1419 43.988,-118.5758"/>
<g id="a_edge6&#45;headlabel"><a xlink:href="dir_000006_000046.html" target="_top" xlink:title="1">
<text text-anchor="middle" x="46.0309" y="-120.1758" font-family="Helvetica,sans-Serif" font-size="10.00" fill="#000000">1</text>
</a>
</g>
</g>
<!-- dir_4d620431c9b0dc62fca23e1ed91a49b6&#45;&gt;dir_b708e75f0564cefaa95a07ef1c60fa1d -->
<g id="edge7" class="edge">
<title>dir_4d620431c9b0dc62fca23e1ed91a49b6&#45;&gt;dir_b708e75f0564cefaa95a07ef1c60fa1d</title>
<path fill="none" stroke="#000000" d="M209.4332,-287.8314C216.1304,-279.3694 225.03,-269.1489 233.7081,-259.8971"/>
<polygon fill="#000000" stroke="#000000" points="236.492,-262.0511 240.8924,-252.4133 231.4422,-257.2034 236.492,-262.0511"/>
<g id="a_edge7&#45;headlabel"><a xlink:href="dir_000006_000025.html" target="_top" xlink:title="4">
<text text-anchor="middle" x="236.051" y="-264.1105" font-family="Helvetica,sans-Serif" font-size="10.00" fill="#000000">4</text>
</a>
</g>
</g>
<!-- dir_32df69f29a08a23c97cd630e5cd47b2e&#45;&gt;dir_3e9aec868781f29a05b56aecc37cd1a9 -->
<g id="edge11" class="edge">
<title>dir_32df69f29a08a23c97cd630e5cd47b2e&#45;&gt;dir_3e9aec868781f29a05b56aecc37cd1a9</title>
<path fill="none" stroke="#000000" d="M160.8428,-97.0727C138.002,-104.5771 106.9097,-118.9098 92.2357,-144 81.1148,-163.015 86.7574,-187.8688 94.2543,-206.6395"/>
<polygon fill="#000000" stroke="#000000" points="91.0597,-208.07 98.2647,-215.8378 97.4763,-205.2723 91.0597,-208.07"/>
<g id="a_edge11&#45;headlabel"><a xlink:href="dir_000019_000032.html" target="_top" xlink:title="1">
<text text-anchor="middle" x="87.0205" y="-203.4097" font-family="Helvetica,sans-Serif" font-size="10.00" fill="#000000">1</text>
</a>
</g>
</g>
<!-- dir_32df69f29a08a23c97cd630e5cd47b2e&#45;&gt;dir_c0211e659583c36c301432102f960843 -->
<g id="edge8" class="edge">
<title>dir_32df69f29a08a23c97cd630e5cd47b2e&#45;&gt;dir_c0211e659583c36c301432102f960843</title>
<path fill="none" stroke="#000000" d="M215.2629,-94.2686C260.2315,-101.9835 347.265,-119.729 365.2357,-144 416.4101,-213.1154 357.1696,-265.3904 294.2357,-324 277.1333,-339.9273 254.4926,-353.0301 235.6038,-362.3386"/>
<polygon fill="#000000" stroke="#000000" points="233.9175,-359.2651 226.3962,-366.7271 236.9292,-365.5841 233.9175,-359.2651"/>
<g id="a_edge8&#45;headlabel"><a xlink:href="dir_000019_000012.html" target="_top" xlink:title="2">
<text text-anchor="middle" x="235.9408" y="-352.6555" font-family="Helvetica,sans-Serif" font-size="10.00" fill="#000000">2</text>
</a>
</g>
</g>
<!-- dir_32df69f29a08a23c97cd630e5cd47b2e&#45;&gt;dir_4d620431c9b0dc62fca23e1ed91a49b6 -->
<g id="edge9" class="edge">
<title>dir_32df69f29a08a23c97cd630e5cd47b2e&#45;&gt;dir_4d620431c9b0dc62fca23e1ed91a49b6</title>
<path fill="none" stroke="#000000" d="M192.0201,-108.4048C193.9775,-118.8039 196.1744,-132.0717 197.2357,-144 201.4016,-190.8181 200.981,-245.543 200.1866,-277.9024"/>
<polygon fill="#000000" stroke="#000000" points="196.6859,-277.8827 199.909,-287.9753 203.6833,-278.0756 196.6859,-277.8827"/>
<g id="a_edge9&#45;headlabel"><a xlink:href="dir_000019_000006.html" target="_top" xlink:title="1">
<text text-anchor="middle" x="193.9467" y="-271.7112" font-family="Helvetica,sans-Serif" font-size="10.00" fill="#000000">1</text>
</a>
</g>
</g>
<!-- dir_32df69f29a08a23c97cd630e5cd47b2e&#45;&gt;dir_7a44753a182d2dd0cd15cfa7be7c0c89 -->
<g id="edge10" class="edge">
<title>dir_32df69f29a08a23c97cd630e5cd47b2e&#45;&gt;dir_7a44753a182d2dd0cd15cfa7be7c0c89</title>
<path fill="none" stroke="#000000" d="M174.3569,-71.8314C168.0222,-63.5386 160.3974,-53.557 153.4432,-44.4533"/>
<polygon fill="#000000" stroke="#000000" points="156.1532,-42.2353 147.3014,-36.4133 150.5905,-46.4847 156.1532,-42.2353"/>
<g id="a_edge10&#45;headlabel"><a xlink:href="dir_000019_000065.html" target="_top" xlink:title="1">
<text text-anchor="middle" x="160.5915" y="-40.8683" font-family="Helvetica,sans-Serif" font-size="10.00" fill="#000000">1</text>
</a>
</g>
</g>
<!-- dir_32df69f29a08a23c97cd630e5cd47b2e&#45;&gt;dir_b708e75f0564cefaa95a07ef1c60fa1d -->
<g id="edge12" class="edge">
<title>dir_32df69f29a08a23c97cd630e5cd47b2e&#45;&gt;dir_b708e75f0564cefaa95a07ef1c60fa1d</title>
<path fill="none" stroke="#000000" d="M212.962,-108.4809C222.3417,-118.4696 232.2097,-131.3277 239.2357,-144 250.0965,-163.5888 258.6585,-187.4558 263.0292,-205.6886"/>
<polygon fill="#000000" stroke="#000000" points="259.6471,-206.6164 265.104,-215.6978 266.5014,-205.1955 259.6471,-206.6164"/>
<g id="a_edge12&#45;headlabel"><a xlink:href="dir_000019_000025.html" target="_top" xlink:title="17">
<text text-anchor="middle" x="256.1374" y="-201.1729" font-family="Helvetica,sans-Serif" font-size="10.00" fill="#000000">17</text>
</a>
</g>
</g>
<!-- dir_32df69f29a08a23c97cd630e5cd47b2e&#45;&gt;dir_31691989b6ffa820edb06b9eb32cc520 -->
<g id="edge13" class="edge">
<title>dir_32df69f29a08a23c97cd630e5cd47b2e&#45;&gt;dir_31691989b6ffa820edb06b9eb32cc520</title>
<path fill="none" stroke="#000000" d="M187.3068,-108.4133C185.0994,-116.3141 181.7772,-125.7132 178.1627,-134.417"/>
<polygon fill="#000000" stroke="#000000" points="174.843,-133.27 174.0014,-143.8314 181.2455,-136.1 174.843,-133.27"/>
<g id="a_edge13&#45;headlabel"><a xlink:href="dir_000019_000013.html" target="_top" xlink:title="33">
<text text-anchor="middle" x="173.6993" y="-126.3344" font-family="Helvetica,sans-Serif" font-size="10.00" fill="#000000">33</text>
</a>
</g>
</g>
<!-- dir_b708e75f0564cefaa95a07ef1c60fa1d&#45;&gt;dir_3e9aec868781f29a05b56aecc37cd1a9 -->
<g id="edge25" class="edge">
<title>dir_b708e75f0564cefaa95a07ef1c60fa1d&#45;&gt;dir_3e9aec868781f29a05b56aecc37cd1a9</title>
<path fill="none" stroke="#000000" d="M235.9837,-234C206.1575,-234 176.3313,-234 146.505,-234"/>
<polygon fill="#000000" stroke="#000000" points="146.3901,-230.5001 136.39,-234 146.39,-237.5001 146.3901,-230.5001"/>
<g id="a_edge25&#45;headlabel"><a xlink:href="dir_000025_000032.html" target="_top" xlink:title="3">
<text text-anchor="middle" x="149.9847" y="-225.1607" font-family="Helvetica,sans-Serif" font-size="10.00" fill="#000000">3</text>
</a>
</g>
</g>
<!-- dir_b708e75f0564cefaa95a07ef1c60fa1d&#45;&gt;dir_c0211e659583c36c301432102f960843 -->
<g id="edge22" class="edge">
<title>dir_b708e75f0564cefaa95a07ef1c60fa1d&#45;&gt;dir_c0211e659583c36c301432102f960843</title>
<path fill="none" stroke="#000000" d="M265.9745,-252.1581C263.7239,-270.7523 255.5719,-300.2181 244.2357,-324 239.7269,-333.459 233.743,-343.172 227.5193,-351.7061"/>
<polygon fill="#000000" stroke="#000000" points="224.6126,-349.7433 221.2614,-359.7942 230.149,-354.0269 224.6126,-349.7433"/>
<g id="a_edge22&#45;headlabel"><a xlink:href="dir_000025_000012.html" target="_top" xlink:title="5">
<text text-anchor="middle" x="224.5667" y="-342.6629" font-family="Helvetica,sans-Serif" font-size="10.00" fill="#000000">5</text>
</a>
</g>
</g>
<!-- dir_b708e75f0564cefaa95a07ef1c60fa1d&#45;&gt;dir_4d620431c9b0dc62fca23e1ed91a49b6 -->
<g id="edge23" class="edge">
<title>dir_b708e75f0564cefaa95a07ef1c60fa1d&#45;&gt;dir_4d620431c9b0dc62fca23e1ed91a49b6</title>
<path fill="none" stroke="#000000" d="M252.8444,-252.4133C246.1051,-260.9088 237.1866,-271.1366 228.513,-280.3696"/>
<polygon fill="#000000" stroke="#000000" points="225.7464,-278.1972 221.338,-287.8314 230.7921,-283.049 225.7464,-278.1972"/>
<g id="a_edge23&#45;headlabel"><a xlink:href="dir_000025_000006.html" target="_top" xlink:title="1">
<text text-anchor="middle" x="226.1912" y="-271.1382" font-family="Helvetica,sans-Serif" font-size="10.00" fill="#000000">1</text>
</a>
</g>
</g>
<!-- dir_b708e75f0564cefaa95a07ef1c60fa1d&#45;&gt;dir_32df69f29a08a23c97cd630e5cd47b2e -->
<g id="edge24" class="edge">
<title>dir_b708e75f0564cefaa95a07ef1c60fa1d&#45;&gt;dir_32df69f29a08a23c97cd630e5cd47b2e</title>
<path fill="none" stroke="#000000" d="M251.5815,-215.6978C243.9307,-196.989 234.228,-167.4333 221.2357,-144 216.0211,-134.5948 209.241,-125.0872 203.0534,-116.7264"/>
<polygon fill="#000000" stroke="#000000" points="205.6914,-114.4089 196.9102,-108.4809 200.0781,-118.5911 205.6914,-114.4089"/>
<g id="a_edge24&#45;headlabel"><a xlink:href="dir_000025_000019.html" target="_top" xlink:title="5">
<text text-anchor="middle" x="210.1158" y="-113.0951" font-family="Helvetica,sans-Serif" font-size="10.00" fill="#000000">5</text>
</a>
</g>
</g>
<!-- dir_b708e75f0564cefaa95a07ef1c60fa1d&#45;&gt;dir_61a866aca8f5011fad0bfe0df06e6f79 -->
<g id="edge26" class="edge">
<title>dir_b708e75f0564cefaa95a07ef1c60fa1d&#45;&gt;dir_61a866aca8f5011fad0bfe0df06e6f79</title>
<path fill="none" stroke="#000000" d="M273.6856,-215.8314C280.5684,-207.2848 289.7229,-196.9443 298.6126,-187.6198"/>
<polygon fill="#000000" stroke="#000000" points="301.1632,-190.0174 305.6366,-180.4133 296.1504,-185.1315 301.1632,-190.0174"/>
<g id="a_edge26&#45;headlabel"><a xlink:href="dir_000025_000029.html" target="_top" xlink:title="8">
<text text-anchor="middle" x="300.6875" y="-192.0733" font-family="Helvetica,sans-Serif" font-size="10.00" fill="#000000">8</text>
</a>
</g>
</g>
<!-- dir_b708e75f0564cefaa95a07ef1c60fa1d&#45;&gt;dir_31691989b6ffa820edb06b9eb32cc520 -->
<g id="edge27" class="edge">
<title>dir_b708e75f0564cefaa95a07ef1c60fa1d&#45;&gt;dir_31691989b6ffa820edb06b9eb32cc520</title>
<path fill="none" stroke="#000000" d="M235.9682,-218.7307C221.4237,-209.2758 203.6699,-196.9269 189.0554,-186.1655"/>
<polygon fill="#000000" stroke="#000000" points="190.9681,-183.2256 180.8614,-180.0467 186.7798,-188.8344 190.9681,-183.2256"/>
<g id="a_edge27&#45;headlabel"><a xlink:href="dir_000025_000013.html" target="_top" xlink:title="3">
<text text-anchor="middle" x="195.5471" y="-180.6014" font-family="Helvetica,sans-Serif" font-size="10.00" fill="#000000">3</text>
</a>
</g>
</g>
<!-- dir_61a866aca8f5011fad0bfe0df06e6f79&#45;&gt;dir_c0211e659583c36c301432102f960843 -->
<g id="edge28" class="edge">
<title>dir_61a866aca8f5011fad0bfe0df06e6f79&#45;&gt;dir_c0211e659583c36c301432102f960843</title>
<path fill="none" stroke="#000000" d="M326.111,-180.24C322.8217,-203.9643 315.14,-246.2436 299.2357,-279 284.5058,-309.3378 256.5834,-335.7444 233.9797,-353.6377"/>
<polygon fill="#000000" stroke="#000000" points="231.7164,-350.963 225.927,-359.8363 235.9862,-356.51 231.7164,-350.963"/>
<g id="a_edge28&#45;headlabel"><a xlink:href="dir_000029_000012.html" target="_top" xlink:title="1">
<text text-anchor="middle" x="232.8329" y="-344.0206" font-family="Helvetica,sans-Serif" font-size="10.00" fill="#000000">1</text>
</a>
</g>
</g>
<!-- dir_61a866aca8f5011fad0bfe0df06e6f79&#45;&gt;dir_b708e75f0564cefaa95a07ef1c60fa1d -->
<g id="edge29" class="edge">
<title>dir_61a866aca8f5011fad0bfe0df06e6f79&#45;&gt;dir_b708e75f0564cefaa95a07ef1c60fa1d</title>
<path fill="none" stroke="#000000" d="M317.5887,-180.4133C310.6628,-188.9938 301.4894,-199.3414 292.605,-208.6463"/>
<polygon fill="#000000" stroke="#000000" points="290.0717,-206.2309 285.5904,-215.8314 295.0805,-211.1209 290.0717,-206.2309"/>
<g id="a_edge29&#45;headlabel"><a xlink:href="dir_000029_000025.html" target="_top" xlink:title="1">
<text text-anchor="middle" x="290.5511" y="-199.1754" font-family="Helvetica,sans-Serif" font-size="10.00" fill="#000000">1</text>
</a>
</g>
</g>
<!-- dir_31691989b6ffa820edb06b9eb32cc520&#45;&gt;dir_c0211e659583c36c301432102f960843 -->
<g id="edge30" class="edge">
<title>dir_31691989b6ffa820edb06b9eb32cc520&#45;&gt;dir_c0211e659583c36c301432102f960843</title>
<path fill="none" stroke="#000000" d="M133.9376,-167.3228C111.9692,-173.1989 82.4902,-185.0466 68.2357,-208 51.5882,-234.8069 56.492,-249.7112 68.2357,-279 84.8442,-320.4214 130.1271,-348.2041 162.8042,-363.5392"/>
<polygon fill="#000000" stroke="#000000" points="161.5181,-366.7986 172.073,-367.7178 164.395,-360.4171 161.5181,-366.7986"/>
<g id="a_edge30&#45;headlabel"><a xlink:href="dir_000013_000012.html" target="_top" xlink:title="4">
<text text-anchor="middle" x="157.0742" y="-365.4097" font-family="Helvetica,sans-Serif" font-size="10.00" fill="#000000">4</text>
</a>
</g>
</g>
<!-- dir_31691989b6ffa820edb06b9eb32cc520&#45;&gt;dir_4d620431c9b0dc62fca23e1ed91a49b6 -->
<g id="edge31" class="edge">
<title>dir_31691989b6ffa820edb06b9eb32cc520&#45;&gt;dir_4d620431c9b0dc62fca23e1ed91a49b6</title>
<path fill="none" stroke="#000000" d="M166.0094,-180.0896C172.4987,-204.6805 184.169,-248.905 191.8081,-277.8531"/>
<polygon fill="#000000" stroke="#000000" points="188.4872,-278.9864 194.423,-287.7623 195.2556,-277.2002 188.4872,-278.9864"/>
<g id="a_edge31&#45;headlabel"><a xlink:href="dir_000013_000006.html" target="_top" xlink:title="12">
<text text-anchor="middle" x="184.8248" y="-273.7352" font-family="Helvetica,sans-Serif" font-size="10.00" fill="#000000">12</text>
</a>
</g>
</g>
<!-- dir_31691989b6ffa820edb06b9eb32cc520&#45;&gt;dir_7a44753a182d2dd0cd15cfa7be7c0c89 -->
<g id="edge32" class="edge">
<title>dir_31691989b6ffa820edb06b9eb32cc520&#45;&gt;dir_7a44753a182d2dd0cd15cfa7be7c0c89</title>
<path fill="none" stroke="#000000" d="M157.6895,-143.7623C152.8927,-119.0928 144.2918,-74.8598 138.6749,-45.9731"/>
<polygon fill="#000000" stroke="#000000" points="142.0976,-45.2377 136.7532,-36.0896 135.2263,-46.5738 142.0976,-45.2377"/>
<g id="a_edge32&#45;headlabel"><a xlink:href="dir_000013_000065.html" target="_top" xlink:title="5">
<text text-anchor="middle" x="145.5707" y="-45.7243" font-family="Helvetica,sans-Serif" font-size="10.00" fill="#000000">5</text>
</a>
</g>
</g>
<!-- dir_31691989b6ffa820edb06b9eb32cc520&#45;&gt;dir_32df69f29a08a23c97cd630e5cd47b2e -->
<g id="edge33" class="edge">
<title>dir_31691989b6ffa820edb06b9eb32cc520&#45;&gt;dir_32df69f29a08a23c97cd630e5cd47b2e</title>
<path fill="none" stroke="#000000" d="M162.0966,-143.8314C164.3043,-135.8771 167.6596,-126.369 171.3133,-117.5723"/>
<polygon fill="#000000" stroke="#000000" points="174.5198,-118.9752 175.3548,-108.4133 168.1156,-116.1492 174.5198,-118.9752"/>
<g id="a_edge33&#45;headlabel"><a xlink:href="dir_000013_000019.html" target="_top" xlink:title="9">
<text text-anchor="middle" x="175.6664" y="-120.91" font-family="Helvetica,sans-Serif" font-size="10.00" fill="#000000">9</text>
</a>
</g>
</g>
<!-- dir_31691989b6ffa820edb06b9eb32cc520&#45;&gt;dir_f9cdfd101429e27d647f8df664b6ebd1 -->
<g id="edge34" class="edge">
<title>dir_31691989b6ffa820edb06b9eb32cc520&#45;&gt;dir_f9cdfd101429e27d647f8df664b6ebd1</title>
<path fill="none" stroke="#000000" d="M134.2193,-144.937C118.9974,-135.3231 99.7872,-123.1904 83.2941,-112.7737"/>
<polygon fill="#000000" stroke="#000000" points="84.7772,-109.5708 74.4533,-107.19 81.0392,-115.4892 84.7772,-109.5708"/>
<g id="a_edge34&#45;headlabel"><a xlink:href="dir_000013_000046.html" target="_top" xlink:title="2">
<text text-anchor="middle" x="89.3325" y="-106.5897" font-family="Helvetica,sans-Serif" font-size="10.00" fill="#000000">2</text>
</a>
</g>
</g>
<!-- dir_31691989b6ffa820edb06b9eb32cc520&#45;&gt;dir_b708e75f0564cefaa95a07ef1c60fa1d -->
<g id="edge35" class="edge">
<title>dir_31691989b6ffa820edb06b9eb32cc520&#45;&gt;dir_b708e75f0564cefaa95a07ef1c60fa1d</title>
<path fill="none" stroke="#000000" d="M188.461,-177.2418C202.9615,-186.6666 220.6609,-198.9746 235.2596,-209.7193"/>
<polygon fill="#000000" stroke="#000000" points="233.3417,-212.6552 243.4492,-215.8314 237.5285,-207.0453 233.3417,-212.6552"/>
<g id="a_edge35&#45;headlabel"><a xlink:href="dir_000013_000025.html" target="_top" xlink:title="11">
<text text-anchor="middle" x="228.7627" y="-210.2807" font-family="Helvetica,sans-Serif" font-size="10.00" fill="#000000">11</text>
</a>
</g>
</g>
</g>
</svg>
