<?xml version="1.0" encoding="UTF-8" standalone="no"?>
<!DOCTYPE svg PUBLIC "-//W3C//DTD SVG 1.1//EN"
 "http://www.w3.org/Graphics/SVG/1.1/DTD/svg11.dtd">
<!-- Generated by graphviz version 2.38.0 (20140413.2041)
 -->
<!-- Title: Game Pages: 1 -->
<!--zoomable 548 -->
<svg id="main" version="1.1" xmlns="http://www.w3.org/2000/svg" xmlns:xlink="http://www.w3.org/1999/xlink" xml:space="preserve" onload="init(evt)">
<style type="text/css"><![CDATA[
.edge:hover path { stroke: red; }
.edge:hover polygon { stroke: red; fill: red; }
]]></style>
<script type="text/javascript"><![CDATA[
var edges = document.getElementsByTagName('g');
if (edges && edges.length) {
  for (var i=0;i<edges.length;i++) {
    if (edges[i].id.substr(0,4)=='edge') {
      edges[i].setAttribute('class','edge');
    }
  }
}
]]></script>
        <defs>
                <circle id="rim" cx="0" cy="0" r="7"/>
                <circle id="rim2" cx="0" cy="0" r="3.5"/>
                <g id="zoomPlus">
                        <use xlink:href="#rim" fill="#404040">
                                <set attributeName="fill" to="#808080" begin="zoomplus.mouseover" end="zoomplus.mouseout"/>
                        </use>
                        <path d="M-4,0h8M0,-4v8" fill="none" stroke="white" stroke-width="1.5" pointer-events="none"/>
                </g>
                <g id="zoomMin">
                        <use xlink:href="#rim" fill="#404040">
                                <set attributeName="fill" to="#808080" begin="zoomminus.mouseover" end="zoomminus.mouseout"/>
                        </use>
                        <path d="M-4,0h8" fill="none" stroke="white" stroke-width="1.5" pointer-events="none"/>
                </g>
                <g id="dirArrow">
                        <path fill="none" stroke="white" stroke-width="1.5" d="M0,-3.0v7 M-2.5,-0.5L0,-3.0L2.5,-0.5"/>
                </g>
               <g id="resetDef">
                       <use xlink:href="#rim2" fill="#404040">
                               <set attributeName="fill" to="#808080" begin="reset.mouseover" end="reset.mouseout"/>
                       </use>
               </g>
        </defs>

<script type="text/javascript">
var viewWidth = 877;
var viewHeight = 548;
var sectionId = 'dynsection-0';
</script>
<script xlink:href="svgpan.js"/>
<svg id="graph" class="graph">
<g id="viewport">
<title>Game</title>
<polygon fill="white" stroke="none" points="-4,4 -4,-544 873.15,-544 873.15,4 -4,4"/>
<g id="clust1" class="cluster"><title>clusterdir_8fc34afb5f07a67966c78bf5319f94ae</title>
<g id="a_clust1"><a xlink:href="dir_8fc34afb5f07a67966c78bf5319f94ae.html" target="_top" xlink:title="Carla">
<polygon fill="#ddddee" stroke="black" points="289.15,-424 289.15,-495 359.15,-495 359.15,-424 289.15,-424"/>
<text text-anchor="middle" x="324.15" y="-483" font-family="Helvetica,sans-Serif" font-size="10.00">Carla</text>
</a>
</g>
</g>
<!-- dir_b708e75f0564cefaa95a07ef1c60fa1d -->
<g id="node1" class="node"><title>dir_b708e75f0564cefaa95a07ef1c60fa1d</title>
<g id="a_node1"><a xlink:href="dir_b708e75f0564cefaa95a07ef1c60fa1d.html" target="_top" xlink:title="Game">
<polygon fill="#eeeeff" stroke="black" points="351.15,-468 297.15,-468 297.15,-432 351.15,-432 351.15,-468"/>
<text text-anchor="middle" x="324.15" y="-447.5" font-family="Helvetica,sans-Serif" font-size="10.00">Game</text>
</a>
</g>
</g>
<!-- dir_c0211e659583c36c301432102f960843 -->
<g id="node2" class="node"><title>dir_c0211e659583c36c301432102f960843</title>
<g id="a_node2"><a xlink:href="dir_c0211e659583c36c301432102f960843.html" target="_top" xlink:title="Util">
<polygon fill="none" stroke="black" points="689.15,-324 635.15,-324 635.15,-288 689.15,-288 689.15,-324"/>
<text text-anchor="middle" x="662.15" y="-303.5" font-family="Helvetica,sans-Serif" font-size="10.00">Util</text>
</a>
</g>
</g>
<!-- dir_b708e75f0564cefaa95a07ef1c60fa1d&#45;&gt;dir_c0211e659583c36c301432102f960843 -->
<g id="edge33" class="edge"><title>dir_b708e75f0564cefaa95a07ef1c60fa1d&#45;&gt;dir_c0211e659583c36c301432102f960843</title>
<path fill="none" stroke="black" d="M351.395,-439.787C380.729,-429.695 428.639,-412.712 469.15,-396 524.493,-373.17 587.21,-343.528 625.724,-324.88"/>
<polygon fill="black" stroke="black" points="627.509,-327.904 634.974,-320.387 624.45,-321.608 627.509,-327.904"/>
<g id="a_edge33&#45;headlabel"><a xlink:href="dir_000022_000011.html" target="_top" xlink:title="4">
<text text-anchor="middle" x="625.516" y="-329.529" font-family="Helvetica,sans-Serif" font-size="10.00">4</text>
</a>
</g>
</g>
<!-- dir_b3a8bd261fb98563f858806beb7e2741 -->
<g id="node3" class="node"><title>dir_b3a8bd261fb98563f858806beb7e2741</title>
<g id="a_node3"><a xlink:href="dir_b3a8bd261fb98563f858806beb7e2741.html" target="_top" xlink:title="Weather">
<polygon fill="none" stroke="black" points="389.15,-396 333.15,-396 333.15,-360 389.15,-360 389.15,-396"/>
<text text-anchor="middle" x="361.15" y="-375.5" font-family="Helvetica,sans-Serif" font-size="10.00">Weather</text>
</a>
</g>
</g>
<!-- dir_b708e75f0564cefaa95a07ef1c60fa1d&#45;&gt;dir_b3a8bd261fb98563f858806beb7e2741 -->
<g id="edge34" class="edge"><title>dir_b708e75f0564cefaa95a07ef1c60fa1d&#45;&gt;dir_b3a8bd261fb98563f858806beb7e2741</title>
<path fill="none" stroke="black" d="M333.296,-431.697C337.553,-423.644 342.706,-413.894 347.416,-404.982"/>
<polygon fill="black" stroke="black" points="350.53,-406.581 352.109,-396.104 344.342,-403.31 350.53,-406.581"/>
<g id="a_edge34&#45;headlabel"><a xlink:href="dir_000022_000058.html" target="_top" xlink:title="2">
<text text-anchor="middle" x="351.361" y="-408.586" font-family="Helvetica,sans-Serif" font-size="10.00">2</text>
</a>
</g>
</g>
<!-- dir_4d620431c9b0dc62fca23e1ed91a49b6 -->
<g id="node4" class="node"><title>dir_4d620431c9b0dc62fca23e1ed91a49b6</title>
<g id="a_node4"><a xlink:href="dir_4d620431c9b0dc62fca23e1ed91a49b6.html" target="_top" xlink:title="Vehicle">
<polygon fill="none" stroke="black" points="575.15,-252 521.15,-252 521.15,-216 575.15,-216 575.15,-252"/>
<text text-anchor="middle" x="548.15" y="-231.5" font-family="Helvetica,sans-Serif" font-size="10.00">Vehicle</text>
</a>
</g>
</g>
<!-- dir_b708e75f0564cefaa95a07ef1c60fa1d&#45;&gt;dir_4d620431c9b0dc62fca23e1ed91a49b6 -->
<g id="edge35" class="edge"><title>dir_b708e75f0564cefaa95a07ef1c60fa1d&#45;&gt;dir_4d620431c9b0dc62fca23e1ed91a49b6</title>
<path fill="none" stroke="black" d="M351.314,-439.757C374.302,-431.004 407.231,-416.193 431.15,-396 477.485,-356.882 515.278,-295.733 534.464,-261.143"/>
<polygon fill="black" stroke="black" points="537.662,-262.588 539.373,-252.132 531.515,-259.239 537.662,-262.588"/>
<g id="a_edge35&#45;headlabel"><a xlink:href="dir_000022_000029.html" target="_top" xlink:title="1">
<text text-anchor="middle" x="538.436" y="-264.603" font-family="Helvetica,sans-Serif" font-size="10.00">1</text>
</a>
</g>
</g>
<!-- dir_d0b0d7f8e453984c2ffe9ea659d3c27f -->
<g id="node5" class="node"><title>dir_d0b0d7f8e453984c2ffe9ea659d3c27f</title>
<g id="a_node5"><a xlink:href="dir_d0b0d7f8e453984c2ffe9ea659d3c27f.html" target="_top" xlink:title="OpenDrive">
<polygon fill="none" stroke="black" points="553.65,-108 486.65,-108 486.65,-72 553.65,-72 553.65,-108"/>
<text text-anchor="middle" x="520.15" y="-87.5" font-family="Helvetica,sans-Serif" font-size="10.00">OpenDrive</text>
</a>
</g>
</g>
<!-- dir_b708e75f0564cefaa95a07ef1c60fa1d&#45;&gt;dir_d0b0d7f8e453984c2ffe9ea659d3c27f -->
<g id="edge36" class="edge"><title>dir_b708e75f0564cefaa95a07ef1c60fa1d&#45;&gt;dir_d0b0d7f8e453984c2ffe9ea659d3c27f</title>
<path fill="none" stroke="black" d="M351.252,-435.945C367.239,-426.886 386.551,-413.337 398.15,-396 462.112,-300.394 396.958,-242.023 457.15,-144 464.114,-132.659 474.346,-122.557 484.548,-114.292"/>
<polygon fill="black" stroke="black" points="486.855,-116.933 492.66,-108.07 482.595,-111.379 486.855,-116.933"/>
<g id="a_edge36&#45;headlabel"><a xlink:href="dir_000022_000048.html" target="_top" xlink:title="1">
<text text-anchor="middle" x="485.731" y="-118.874" font-family="Helvetica,sans-Serif" font-size="10.00">1</text>
</a>
</g>
</g>
<!-- dir_300f092198dff90fa236d1c5a9b26b0c -->
<g id="node6" class="node"><title>dir_300f092198dff90fa236d1c5a9b26b0c</title>
<g id="a_node6"><a xlink:href="dir_300f092198dff90fa236d1c5a9b26b0c.html" target="_top" xlink:title="Lights">
<polygon fill="none" stroke="black" points="89.1499,-468 35.1499,-468 35.1499,-432 89.1499,-432 89.1499,-468"/>
<text text-anchor="middle" x="62.1499" y="-447.5" font-family="Helvetica,sans-Serif" font-size="10.00">Lights</text>
</a>
</g>
</g>
<!-- dir_b708e75f0564cefaa95a07ef1c60fa1d&#45;&gt;dir_300f092198dff90fa236d1c5a9b26b0c -->
<g id="edge37" class="edge"><title>dir_b708e75f0564cefaa95a07ef1c60fa1d&#45;&gt;dir_300f092198dff90fa236d1c5a9b26b0c</title>
<path fill="none" stroke="black" d="M297.084,-450C231.195,-450 165.307,-450 99.4181,-450"/>
<polygon fill="black" stroke="black" points="99.271,-446.5 89.271,-450 99.2709,-453.5 99.271,-446.5"/>
<g id="a_edge37&#45;headlabel"><a xlink:href="dir_000022_000023.html" target="_top" xlink:title="1">
<text text-anchor="middle" x="102.866" y="-441.161" font-family="Helvetica,sans-Serif" font-size="10.00">1</text>
</a>
</g>
</g>
<!-- dir_0dd3f6464b0e5c5db135a4b73b996175 -->
<g id="node7" class="node"><title>dir_0dd3f6464b0e5c5db135a4b73b996175</title>
<g id="a_node7"><a xlink:href="dir_0dd3f6464b0e5c5db135a4b73b996175.html" target="_top" xlink:title="Recorder">
<polygon fill="none" stroke="black" points="146.65,-540 87.6499,-540 87.6499,-504 146.65,-504 146.65,-540"/>
<text text-anchor="middle" x="117.15" y="-519.5" font-family="Helvetica,sans-Serif" font-size="10.00">Recorder</text>
</a>
</g>
</g>
<!-- dir_b708e75f0564cefaa95a07ef1c60fa1d&#45;&gt;dir_0dd3f6464b0e5c5db135a4b73b996175 -->
<g id="edge38" class="edge"><title>dir_b708e75f0564cefaa95a07ef1c60fa1d&#45;&gt;dir_0dd3f6464b0e5c5db135a4b73b996175</title>
<path fill="none" stroke="black" d="M296.857,-460.229C260.944,-472.374 197.577,-493.802 156.489,-507.697"/>
<polygon fill="black" stroke="black" points="155.16,-504.452 146.808,-510.971 157.402,-511.083 155.16,-504.452"/>
<g id="a_edge38&#45;headlabel"><a xlink:href="dir_000022_000026.html" target="_top" xlink:title="2">
<text text-anchor="middle" x="157.655" y="-498.111" font-family="Helvetica,sans-Serif" font-size="10.00">2</text>
</a>
</g>
</g>
<!-- dir_32df69f29a08a23c97cd630e5cd47b2e -->
<g id="node8" class="node"><title>dir_32df69f29a08a23c97cd630e5cd47b2e</title>
<g id="a_node8"><a xlink:href="dir_32df69f29a08a23c97cd630e5cd47b2e.html" target="_top" xlink:title="Sensor">
<polygon fill="none" stroke="black" points="651.15,-396 597.15,-396 597.15,-360 651.15,-360 651.15,-396"/>
<text text-anchor="middle" x="624.15" y="-375.5" font-family="Helvetica,sans-Serif" font-size="10.00">Sensor</text>
</a>
</g>
</g>
<!-- dir_b708e75f0564cefaa95a07ef1c60fa1d&#45;&gt;dir_32df69f29a08a23c97cd630e5cd47b2e -->
<g id="edge39" class="edge"><title>dir_b708e75f0564cefaa95a07ef1c60fa1d&#45;&gt;dir_32df69f29a08a23c97cd630e5cd47b2e</title>
<path fill="none" stroke="black" d="M351.349,-441.641C405.328,-428.302 525.501,-400.256 586.81,-386.682"/>
<polygon fill="black" stroke="black" points="587.82,-390.044 596.835,-384.478 586.317,-383.207 587.82,-390.044"/>
<g id="a_edge39&#45;headlabel"><a xlink:href="dir_000022_000018.html" target="_top" xlink:title="3">
<text text-anchor="middle" x="584.92" y="-391.089" font-family="Helvetica,sans-Serif" font-size="10.00">3</text>
</a>
</g>
</g>
<!-- dir_1604d568fa4d964dfa9079b701bbfa07 -->
<g id="node9" class="node"><title>dir_1604d568fa4d964dfa9079b701bbfa07</title>
<g id="a_node9"><a xlink:href="dir_1604d568fa4d964dfa9079b701bbfa07.html" target="_top" xlink:title="LibCarla">
<polygon fill="white" stroke="red" points="516.65,-36 461.65,-36 461.65,-0 516.65,-0 516.65,-36"/>
<text text-anchor="middle" x="489.15" y="-15.5" font-family="Helvetica,sans-Serif" font-size="10.00">LibCarla</text>
</a>
</g>
</g>
<!-- dir_b708e75f0564cefaa95a07ef1c60fa1d&#45;&gt;dir_1604d568fa4d964dfa9079b701bbfa07 -->
<g id="edge40" class="edge"><title>dir_b708e75f0564cefaa95a07ef1c60fa1d&#45;&gt;dir_1604d568fa4d964dfa9079b701bbfa07</title>
<path fill="none" stroke="black" d="M296.994,-446.094C233.206,-437.613 79.1499,-406.8 79.1499,-307 79.1499,-307 79.1499,-307 79.1499,-161 79.1499,-107.515 113.112,-97.4575 160.15,-72 210.02,-45.0094 376.427,-28.2774 451.655,-21.9193"/>
<polygon fill="black" stroke="black" points="451.967,-25.4055 461.644,-21.091 451.388,-18.4295 451.967,-25.4055"/>
<g id="a_edge40&#45;headlabel"><a xlink:href="dir_000022_000000.html" target="_top" xlink:title="19">
<text text-anchor="middle" x="448.619" y="-26.0321" font-family="Helvetica,sans-Serif" font-size="10.00">19</text>
</a>
</g>
</g>
<!-- dir_4f477b896248adf10c6909a9eb9fb7d3 -->
<g id="node10" class="node"><title>dir_4f477b896248adf10c6909a9eb9fb7d3</title>
<g id="a_node10"><a xlink:href="dir_4f477b896248adf10c6909a9eb9fb7d3.html" target="_top" xlink:title="Server">
<polygon fill="none" stroke="black" points="744.15,-540 690.15,-540 690.15,-504 744.15,-504 744.15,-540"/>
<text text-anchor="middle" x="717.15" y="-519.5" font-family="Helvetica,sans-Serif" font-size="10.00">Server</text>
</a>
</g>
</g>
<!-- dir_b708e75f0564cefaa95a07ef1c60fa1d&#45;&gt;dir_4f477b896248adf10c6909a9eb9fb7d3 -->
<g id="edge41" class="edge"><title>dir_b708e75f0564cefaa95a07ef1c60fa1d&#45;&gt;dir_4f477b896248adf10c6909a9eb9fb7d3</title>
<path fill="none" stroke="black" d="M351.351,-455.845C420.268,-468.12 601.813,-500.457 680.22,-514.422"/>
<polygon fill="black" stroke="black" points="679.679,-517.881 690.137,-516.189 680.906,-510.989 679.679,-517.881"/>
<g id="a_edge41&#45;headlabel"><a xlink:href="dir_000022_000027.html" target="_top" xlink:title="3">
<text text-anchor="middle" x="675.642" y="-517.546" font-family="Helvetica,sans-Serif" font-size="10.00">3</text>
</a>
</g>
</g>
<!-- dir_cf78ae8ffd0f6192e117b8a1751c2bbd -->
<g id="node11" class="node"><title>dir_cf78ae8ffd0f6192e117b8a1751c2bbd</title>
<g id="a_node11"><a xlink:href="dir_cf78ae8ffd0f6192e117b8a1751c2bbd.html" target="_top" xlink:title="Traffic">
<polygon fill="none" stroke="black" points="520.15,-180 466.15,-180 466.15,-144 520.15,-144 520.15,-180"/>
<text text-anchor="middle" x="493.15" y="-159.5" font-family="Helvetica,sans-Serif" font-size="10.00">Traffic</text>
</a>
</g>
</g>
<!-- dir_b708e75f0564cefaa95a07ef1c60fa1d&#45;&gt;dir_cf78ae8ffd0f6192e117b8a1751c2bbd -->
<g id="edge42" class="edge"><title>dir_b708e75f0564cefaa95a07ef1c60fa1d&#45;&gt;dir_cf78ae8ffd0f6192e117b8a1751c2bbd</title>
<path fill="none" stroke="black" d="M296.778,-439.67C277.42,-431.466 252.898,-417.441 241.15,-396 217.375,-352.609 241.364,-329.599 268.15,-288 292.65,-249.951 301.794,-240.017 340.15,-216 376.483,-193.25 423.821,-178.797 456.16,-170.829"/>
<polygon fill="black" stroke="black" points="457.18,-174.184 466.1,-168.467 455.562,-167.374 457.18,-174.184"/>
<g id="a_edge42&#45;headlabel"><a xlink:href="dir_000022_000053.html" target="_top" xlink:title="1">
<text text-anchor="middle" x="454.339" y="-175.277" font-family="Helvetica,sans-Serif" font-size="10.00">1</text>
</a>
</g>
</g>
<!-- dir_61a866aca8f5011fad0bfe0df06e6f79 -->
<g id="node12" class="node"><title>dir_61a866aca8f5011fad0bfe0df06e6f79</title>
<g id="a_node12"><a xlink:href="dir_61a866aca8f5011fad0bfe0df06e6f79.html" target="_top" xlink:title="Settings">
<polygon fill="none" stroke="black" points="315.15,-396 259.15,-396 259.15,-360 315.15,-360 315.15,-396"/>
<text text-anchor="middle" x="287.15" y="-375.5" font-family="Helvetica,sans-Serif" font-size="10.00">Settings</text>
</a>
</g>
</g>
<!-- dir_b708e75f0564cefaa95a07ef1c60fa1d&#45;&gt;dir_61a866aca8f5011fad0bfe0df06e6f79 -->
<g id="edge43" class="edge"><title>dir_b708e75f0564cefaa95a07ef1c60fa1d&#45;&gt;dir_61a866aca8f5011fad0bfe0df06e6f79</title>
<path fill="none" stroke="black" d="M315.004,-431.697C310.747,-423.644 305.594,-413.894 300.883,-404.982"/>
<polygon fill="black" stroke="black" points="303.958,-403.31 296.191,-396.104 297.77,-406.581 303.958,-403.31"/>
<g id="a_edge43&#45;headlabel"><a xlink:href="dir_000022_000028.html" target="_top" xlink:title="7">
<text text-anchor="middle" x="308.148" y="-402.661" font-family="Helvetica,sans-Serif" font-size="10.00">7</text>
</a>
</g>
</g>
<!-- dir_31691989b6ffa820edb06b9eb32cc520 -->
<g id="node13" class="node"><title>dir_31691989b6ffa820edb06b9eb32cc520</title>
<g id="a_node13"><a xlink:href="dir_31691989b6ffa820edb06b9eb32cc520.html" target="_top" xlink:title="Actor">
<polygon fill="none" stroke="black" points="651.15,-468 597.15,-468 597.15,-432 651.15,-432 651.15,-468"/>
<text text-anchor="middle" x="624.15" y="-447.5" font-family="Helvetica,sans-Serif" font-size="10.00">Actor</text>
</a>
</g>
</g>
<!-- dir_b708e75f0564cefaa95a07ef1c60fa1d&#45;&gt;dir_31691989b6ffa820edb06b9eb32cc520 -->
<g id="edge44" class="edge"><title>dir_b708e75f0564cefaa95a07ef1c60fa1d&#45;&gt;dir_31691989b6ffa820edb06b9eb32cc520</title>
<path fill="none" stroke="black" d="M351.396,-450C429.9,-450 508.404,-450 586.908,-450"/>
<polygon fill="black" stroke="black" points="586.981,-453.5 596.981,-450 586.981,-446.5 586.981,-453.5"/>
<g id="a_edge44&#45;headlabel"><a xlink:href="dir_000022_000012.html" target="_top" xlink:title="2">
<text text-anchor="middle" x="583.386" y="-453.839" font-family="Helvetica,sans-Serif" font-size="10.00">2</text>
</a>
</g>
</g>
<!-- dir_c0211e659583c36c301432102f960843&#45;&gt;dir_4d620431c9b0dc62fca23e1ed91a49b6 -->
<g id="edge1" class="edge"><title>dir_c0211e659583c36c301432102f960843&#45;&gt;dir_4d620431c9b0dc62fca23e1ed91a49b6</title>
<path fill="none" stroke="black" d="M635.133,-288.411C619.912,-279.064 600.701,-267.268 584.208,-257.141"/>
<polygon fill="black" stroke="black" points="585.721,-253.963 575.367,-251.713 582.058,-259.928 585.721,-253.963"/>
<g id="a_edge1&#45;headlabel"><a xlink:href="dir_000011_000029.html" target="_top" xlink:title="1">
<text text-anchor="middle" x="590.269" y="-250.924" font-family="Helvetica,sans-Serif" font-size="10.00">1</text>
</a>
</g>
</g>
<!-- dir_c0211e659583c36c301432102f960843&#45;&gt;dir_1604d568fa4d964dfa9079b701bbfa07 -->
<g id="edge2" class="edge"><title>dir_c0211e659583c36c301432102f960843&#45;&gt;dir_1604d568fa4d964dfa9079b701bbfa07</title>
<path fill="none" stroke="black" d="M661.384,-287.789C660.129,-269.5 656.825,-239.974 648.15,-216 622.785,-145.903 612.447,-127.019 562.15,-72 551.503,-60.354 537.93,-49.6657 525.383,-40.9852"/>
<polygon fill="black" stroke="black" points="527.165,-37.9663 516.909,-35.3092 523.27,-43.7823 527.165,-37.9663"/>
<g id="a_edge2&#45;headlabel"><a xlink:href="dir_000011_000000.html" target="_top" xlink:title="7">
<text text-anchor="middle" x="531.732" y="-35.1077" font-family="Helvetica,sans-Serif" font-size="10.00">7</text>
</a>
</g>
</g>
<!-- dir_c0211e659583c36c301432102f960843&#45;&gt;dir_cf78ae8ffd0f6192e117b8a1751c2bbd -->
<g id="edge3" class="edge"><title>dir_c0211e659583c36c301432102f960843&#45;&gt;dir_cf78ae8ffd0f6192e117b8a1751c2bbd</title>
<path fill="none" stroke="black" d="M643.22,-287.777C626.453,-268.673 601.469,-237.691 575.15,-216 561.129,-204.445 544.281,-193.875 529.44,-185.266"/>
<polygon fill="black" stroke="black" points="530.922,-182.082 520.502,-180.167 527.454,-188.162 530.922,-182.082"/>
<g id="a_edge3&#45;headlabel"><a xlink:href="dir_000011_000053.html" target="_top" xlink:title="1">
<text text-anchor="middle" x="535.452" y="-178.896" font-family="Helvetica,sans-Serif" font-size="10.00">1</text>
</a>
</g>
</g>
<!-- dir_4d620431c9b0dc62fca23e1ed91a49b6&#45;&gt;dir_cf78ae8ffd0f6192e117b8a1751c2bbd -->
<g id="edge4" class="edge"><title>dir_4d620431c9b0dc62fca23e1ed91a49b6&#45;&gt;dir_cf78ae8ffd0f6192e117b8a1751c2bbd</title>
<path fill="none" stroke="black" d="M528.639,-215.697C521.33,-207.474 513.279,-197.483 506.603,-188.421"/>
<polygon fill="black" stroke="black" points="509.339,-186.229 500.694,-180.104 503.633,-190.283 509.339,-186.229"/>
<g id="a_edge4&#45;headlabel"><a xlink:href="dir_000029_000053.html" target="_top" xlink:title="2">
<text text-anchor="middle" x="513.736" y="-185.014" font-family="Helvetica,sans-Serif" font-size="10.00">2</text>
</a>
</g>
</g>
<!-- dir_d0b0d7f8e453984c2ffe9ea659d3c27f&#45;&gt;dir_b708e75f0564cefaa95a07ef1c60fa1d -->
<g id="edge9" class="edge"><title>dir_d0b0d7f8e453984c2ffe9ea659d3c27f&#45;&gt;dir_b708e75f0564cefaa95a07ef1c60fa1d</title>
<path fill="none" stroke="black" d="M486.466,-96.6463C396.107,-112.74 155.15,-162.286 155.15,-233 155.15,-307 155.15,-307 155.15,-307 155.15,-375.621 237.833,-417.72 287.531,-436.826"/>
<polygon fill="black" stroke="black" points="286.404,-440.141 296.997,-440.342 288.841,-433.579 286.404,-440.141"/>
<g id="a_edge9&#45;headlabel"><a xlink:href="dir_000048_000022.html" target="_top" xlink:title="1">
<text text-anchor="middle" x="282.046" y="-439.051" font-family="Helvetica,sans-Serif" font-size="10.00">1</text>
</a>
</g>
</g>
<!-- dir_d0b0d7f8e453984c2ffe9ea659d3c27f&#45;&gt;dir_c0211e659583c36c301432102f960843 -->
<g id="edge5" class="edge"><title>dir_d0b0d7f8e453984c2ffe9ea659d3c27f&#45;&gt;dir_c0211e659583c36c301432102f960843</title>
<path fill="none" stroke="black" d="M537.681,-108.289C560.229,-131.26 599.528,-173.864 625.15,-216 637.124,-235.693 646.924,-259.958 653.423,-278.175"/>
<polygon fill="black" stroke="black" points="650.197,-279.556 656.773,-287.863 656.813,-277.269 650.197,-279.556"/>
<g id="a_edge5&#45;headlabel"><a xlink:href="dir_000048_000011.html" target="_top" xlink:title="1">
<text text-anchor="middle" x="646.339" y="-274.587" font-family="Helvetica,sans-Serif" font-size="10.00">1</text>
</a>
</g>
</g>
<!-- dir_d0b0d7f8e453984c2ffe9ea659d3c27f&#45;&gt;dir_4d620431c9b0dc62fca23e1ed91a49b6 -->
<g id="edge6" class="edge"><title>dir_d0b0d7f8e453984c2ffe9ea659d3c27f&#45;&gt;dir_4d620431c9b0dc62fca23e1ed91a49b6</title>
<path fill="none" stroke="black" d="M523.539,-108.189C528.339,-132.531 537.163,-177.28 542.838,-206.059"/>
<polygon fill="black" stroke="black" points="539.404,-206.738 544.772,-215.871 546.272,-205.383 539.404,-206.738"/>
<g id="a_edge6&#45;headlabel"><a xlink:href="dir_000048_000029.html" target="_top" xlink:title="2">
<text text-anchor="middle" x="535.923" y="-201.26" font-family="Helvetica,sans-Serif" font-size="10.00">2</text>
</a>
</g>
</g>
<!-- dir_d0b0d7f8e453984c2ffe9ea659d3c27f&#45;&gt;dir_1604d568fa4d964dfa9079b701bbfa07 -->
<g id="edge7" class="edge"><title>dir_d0b0d7f8e453984c2ffe9ea659d3c27f&#45;&gt;dir_1604d568fa4d964dfa9079b701bbfa07</title>
<path fill="none" stroke="black" d="M512.487,-71.6966C508.958,-63.7284 504.694,-54.0995 500.781,-45.2641"/>
<polygon fill="black" stroke="black" points="503.974,-43.8306 496.725,-36.1043 497.574,-46.6651 503.974,-43.8306"/>
<g id="a_edge7&#45;headlabel"><a xlink:href="dir_000048_000000.html" target="_top" xlink:title="20">
<text text-anchor="middle" x="508.026" y="-43.4676" font-family="Helvetica,sans-Serif" font-size="10.00">20</text>
</a>
</g>
</g>
<!-- dir_d0b0d7f8e453984c2ffe9ea659d3c27f&#45;&gt;dir_cf78ae8ffd0f6192e117b8a1751c2bbd -->
<g id="edge8" class="edge"><title>dir_d0b0d7f8e453984c2ffe9ea659d3c27f&#45;&gt;dir_cf78ae8ffd0f6192e117b8a1751c2bbd</title>
<path fill="none" stroke="black" d="M519.448,-108.104C517.217,-116.045 513.73,-125.666 509.935,-134.515"/>
<polygon fill="black" stroke="black" points="506.712,-133.146 505.74,-143.697 513.079,-136.056 506.712,-133.146"/>
<g id="a_edge8&#45;headlabel"><a xlink:href="dir_000048_000053.html" target="_top" xlink:title="2">
<text text-anchor="middle" x="505.623" y="-126.197" font-family="Helvetica,sans-Serif" font-size="10.00">2</text>
</a>
</g>
</g>
<!-- dir_300f092198dff90fa236d1c5a9b26b0c&#45;&gt;dir_b708e75f0564cefaa95a07ef1c60fa1d -->
<g id="edge11" class="edge"><title>dir_300f092198dff90fa236d1c5a9b26b0c&#45;&gt;dir_b708e75f0564cefaa95a07ef1c60fa1d</title>
<path fill="none" stroke="black" d="M89.271,-450C155.16,-450 221.048,-450 286.937,-450"/>
<polygon fill="black" stroke="black" points="287.084,-453.5 297.084,-450 287.084,-446.5 287.084,-453.5"/>
<g id="a_edge11&#45;headlabel"><a xlink:href="dir_000023_000022.html" target="_top" xlink:title="1">
<text text-anchor="middle" x="283.489" y="-453.839" font-family="Helvetica,sans-Serif" font-size="10.00">1</text>
</a>
</g>
</g>
<!-- dir_300f092198dff90fa236d1c5a9b26b0c&#45;&gt;dir_1604d568fa4d964dfa9079b701bbfa07 -->
<g id="edge10" class="edge"><title>dir_300f092198dff90fa236d1c5a9b26b0c&#45;&gt;dir_1604d568fa4d964dfa9079b701bbfa07</title>
<path fill="none" stroke="black" d="M57.9002,-431.634C51.764,-404.993 41.1499,-352.356 41.1499,-307 41.1499,-307 41.1499,-307 41.1499,-161 41.1499,-114.266 57.8492,-97.2894 97.1499,-72 155.361,-34.5422 364.975,-23.2124 451.445,-20.0885"/>
<polygon fill="black" stroke="black" points="451.728,-23.5809 461.602,-19.7392 451.487,-16.5851 451.728,-23.5809"/>
<g id="a_edge10&#45;headlabel"><a xlink:href="dir_000023_000000.html" target="_top" xlink:title="6">
<text text-anchor="middle" x="448.233" y="-24.042" font-family="Helvetica,sans-Serif" font-size="10.00">6</text>
</a>
</g>
</g>
<!-- dir_0dd3f6464b0e5c5db135a4b73b996175&#45;&gt;dir_4d620431c9b0dc62fca23e1ed91a49b6 -->
<g id="edge12" class="edge"><title>dir_0dd3f6464b0e5c5db135a4b73b996175&#45;&gt;dir_4d620431c9b0dc62fca23e1ed91a49b6</title>
<path fill="none" stroke="black" d="M127.453,-503.625C147.395,-471.313 194.264,-401.502 250.15,-360 333.391,-298.184 451.75,-260.475 511.142,-244.282"/>
<polygon fill="black" stroke="black" points="512.084,-247.654 520.84,-241.688 510.275,-240.891 512.084,-247.654"/>
<g id="a_edge12&#45;headlabel"><a xlink:href="dir_000026_000029.html" target="_top" xlink:title="1">
<text text-anchor="middle" x="509.346" y="-248.825" font-family="Helvetica,sans-Serif" font-size="10.00">1</text>
</a>
</g>
</g>
<!-- dir_0dd3f6464b0e5c5db135a4b73b996175&#45;&gt;dir_300f092198dff90fa236d1c5a9b26b0c -->
<g id="edge13" class="edge"><title>dir_0dd3f6464b0e5c5db135a4b73b996175&#45;&gt;dir_300f092198dff90fa236d1c5a9b26b0c</title>
<path fill="none" stroke="black" d="M103.554,-503.697C97.0272,-495.389 89.0819,-485.277 81.9033,-476.141"/>
<polygon fill="black" stroke="black" points="84.5194,-473.805 75.589,-468.104 79.0151,-478.13 84.5194,-473.805"/>
<g id="a_edge13&#45;headlabel"><a xlink:href="dir_000026_000023.html" target="_top" xlink:title="2">
<text text-anchor="middle" x="88.9727" y="-472.377" font-family="Helvetica,sans-Serif" font-size="10.00">2</text>
</a>
</g>
</g>
<!-- dir_0dd3f6464b0e5c5db135a4b73b996175&#45;&gt;dir_1604d568fa4d964dfa9079b701bbfa07 -->
<g id="edge14" class="edge"><title>dir_0dd3f6464b0e5c5db135a4b73b996175&#45;&gt;dir_1604d568fa4d964dfa9079b701bbfa07</title>
<path fill="none" stroke="black" d="M87.6267,-520.247C67.4853,-518.112 41.7304,-511.923 26.1499,-495 -9.44964,-456.333 3.14988,-431.559 3.14988,-379 3.14988,-379 3.14988,-379 3.14988,-161 3.14988,-115.846 14.7328,-97.276 52.1499,-72 116.94,-28.2332 357.333,-20.5713 451.228,-19.2588"/>
<polygon fill="black" stroke="black" points="451.457,-22.7563 461.413,-19.1336 451.371,-15.7569 451.457,-22.7563"/>
<g id="a_edge14&#45;headlabel"><a xlink:href="dir_000026_000000.html" target="_top" xlink:title="3">
<text text-anchor="middle" x="447.898" y="-23.1395" font-family="Helvetica,sans-Serif" font-size="10.00">3</text>
</a>
</g>
</g>
<!-- dir_0dd3f6464b0e5c5db135a4b73b996175&#45;&gt;dir_31691989b6ffa820edb06b9eb32cc520 -->
<g id="edge15" class="edge"><title>dir_0dd3f6464b0e5c5db135a4b73b996175&#45;&gt;dir_31691989b6ffa820edb06b9eb32cc520</title>
<path fill="none" stroke="black" d="M146.757,-518.466C193.037,-514.37 285.286,-505.668 363.15,-495 443.056,-484.053 536.079,-467.434 586.672,-458.066"/>
<polygon fill="black" stroke="black" points="587.612,-461.452 596.804,-456.182 586.333,-454.57 587.612,-461.452"/>
<g id="a_edge15&#45;headlabel"><a xlink:href="dir_000026_000012.html" target="_top" xlink:title="4">
<text text-anchor="middle" x="584.598" y="-462.4" font-family="Helvetica,sans-Serif" font-size="10.00">4</text>
</a>
</g>
</g>
<!-- dir_32df69f29a08a23c97cd630e5cd47b2e&#45;&gt;dir_b708e75f0564cefaa95a07ef1c60fa1d -->
<g id="edge20" class="edge"><title>dir_32df69f29a08a23c97cd630e5cd47b2e&#45;&gt;dir_b708e75f0564cefaa95a07ef1c60fa1d</title>
<path fill="none" stroke="black" d="M597.053,-386.334C543.062,-399.678 422.568,-427.799 361.284,-441.363"/>
<polygon fill="black" stroke="black" points="360.282,-438 351.266,-443.565 361.785,-444.837 360.282,-438"/>
<g id="a_edge20&#45;headlabel"><a xlink:href="dir_000018_000022.html" target="_top" xlink:title="11">
<text text-anchor="middle" x="363.183" y="-431.955" font-family="Helvetica,sans-Serif" font-size="10.00">11</text>
</a>
</g>
</g>
<!-- dir_32df69f29a08a23c97cd630e5cd47b2e&#45;&gt;dir_c0211e659583c36c301432102f960843 -->
<g id="edge16" class="edge"><title>dir_32df69f29a08a23c97cd630e5cd47b2e&#45;&gt;dir_c0211e659583c36c301432102f960843</title>
<path fill="none" stroke="black" d="M633.543,-359.697C637.915,-351.644 643.207,-341.894 648.045,-332.982"/>
<polygon fill="black" stroke="black" points="651.17,-334.563 652.865,-324.104 645.018,-331.223 651.17,-334.563"/>
<g id="a_edge16&#45;headlabel"><a xlink:href="dir_000018_000011.html" target="_top" xlink:title="2">
<text text-anchor="middle" x="651.95" y="-336.576" font-family="Helvetica,sans-Serif" font-size="10.00">2</text>
</a>
</g>
</g>
<!-- dir_32df69f29a08a23c97cd630e5cd47b2e&#45;&gt;dir_4d620431c9b0dc62fca23e1ed91a49b6 -->
<g id="edge17" class="edge"><title>dir_32df69f29a08a23c97cd630e5cd47b2e&#45;&gt;dir_4d620431c9b0dc62fca23e1ed91a49b6</title>
<path fill="none" stroke="black" d="M617.186,-359.891C609.566,-341.688 596.63,-312.233 583.15,-288 578.057,-278.846 571.925,-269.187 566.225,-260.659"/>
<polygon fill="black" stroke="black" points="569.023,-258.549 560.504,-252.249 563.235,-262.486 569.023,-258.549"/>
<g id="a_edge17&#45;headlabel"><a xlink:href="dir_000018_000029.html" target="_top" xlink:title="1">
<text text-anchor="middle" x="573.392" y="-257.424" font-family="Helvetica,sans-Serif" font-size="10.00">1</text>
</a>
</g>
</g>
<!-- dir_32df69f29a08a23c97cd630e5cd47b2e&#45;&gt;dir_1604d568fa4d964dfa9079b701bbfa07 -->
<g id="edge18" class="edge"><title>dir_32df69f29a08a23c97cd630e5cd47b2e&#45;&gt;dir_1604d568fa4d964dfa9079b701bbfa07</title>
<path fill="none" stroke="black" d="M651.303,-368.342C699.075,-351.215 793.15,-308.196 793.15,-235 793.15,-235 793.15,-235 793.15,-161 793.15,-44.7641 608.454,-23.4574 526.987,-19.713"/>
<polygon fill="black" stroke="black" points="526.794,-16.2028 516.664,-19.3078 526.519,-23.1974 526.794,-16.2028"/>
<g id="a_edge18&#45;headlabel"><a xlink:href="dir_000018_000000.html" target="_top" xlink:title="44">
<text text-anchor="middle" x="530.497" y="-11.0066" font-family="Helvetica,sans-Serif" font-size="10.00">44</text>
</a>
</g>
</g>
<!-- dir_32df69f29a08a23c97cd630e5cd47b2e&#45;&gt;dir_cf78ae8ffd0f6192e117b8a1751c2bbd -->
<g id="edge19" class="edge"><title>dir_32df69f29a08a23c97cd630e5cd47b2e&#45;&gt;dir_cf78ae8ffd0f6192e117b8a1751c2bbd</title>
<path fill="none" stroke="black" d="M603.226,-359.886C577.617,-337.744 534.868,-296.673 512.15,-252 502.331,-232.693 497.58,-208.541 495.284,-190.27"/>
<polygon fill="black" stroke="black" points="498.758,-189.836 494.197,-180.273 491.799,-190.593 498.758,-189.836"/>
<g id="a_edge19&#45;headlabel"><a xlink:href="dir_000018_000053.html" target="_top" xlink:title="6">
<text text-anchor="middle" x="501.969" y="-190.602" font-family="Helvetica,sans-Serif" font-size="10.00">6</text>
</a>
</g>
</g>
<!-- dir_32df69f29a08a23c97cd630e5cd47b2e&#45;&gt;dir_31691989b6ffa820edb06b9eb32cc520 -->
<g id="edge21" class="edge"><title>dir_32df69f29a08a23c97cd630e5cd47b2e&#45;&gt;dir_31691989b6ffa820edb06b9eb32cc520</title>
<path fill="none" stroke="black" d="M630.045,-396.104C630.85,-403.791 631.087,-413.054 630.754,-421.665"/>
<polygon fill="black" stroke="black" points="627.258,-421.48 630.066,-431.697 634.242,-421.96 627.258,-421.48"/>
<g id="a_edge21&#45;headlabel"><a xlink:href="dir_000018_000012.html" target="_top" xlink:title="25">
<text text-anchor="middle" x="624.672" y="-415.2" font-family="Helvetica,sans-Serif" font-size="10.00">25</text>
</a>
</g>
</g>
<!-- dir_4f477b896248adf10c6909a9eb9fb7d3&#45;&gt;dir_c0211e659583c36c301432102f960843 -->
<g id="edge22" class="edge"><title>dir_4f477b896248adf10c6909a9eb9fb7d3&#45;&gt;dir_c0211e659583c36c301432102f960843</title>
<path fill="none" stroke="black" d="M713.52,-503.765C709.359,-484.321 702.203,-451.784 695.15,-424 687.88,-395.36 685.173,-388.438 677.15,-360 674.75,-351.494 672.128,-342.222 669.757,-333.845"/>
<polygon fill="black" stroke="black" points="673.113,-332.852 667.021,-324.184 666.378,-334.759 673.113,-332.852"/>
<g id="a_edge22&#45;headlabel"><a xlink:href="dir_000027_000011.html" target="_top" xlink:title="2">
<text text-anchor="middle" x="676.824" y="-333.037" font-family="Helvetica,sans-Serif" font-size="10.00">2</text>
</a>
</g>
</g>
<!-- dir_4f477b896248adf10c6909a9eb9fb7d3&#45;&gt;dir_4d620431c9b0dc62fca23e1ed91a49b6 -->
<g id="edge23" class="edge"><title>dir_4f477b896248adf10c6909a9eb9fb7d3&#45;&gt;dir_4d620431c9b0dc62fca23e1ed91a49b6</title>
<path fill="none" stroke="black" d="M721.629,-503.978C731.588,-461.929 750.761,-351.93 698.15,-288 670.554,-254.468 620.271,-242.133 585.58,-237.606"/>
<polygon fill="black" stroke="black" points="585.69,-234.096 575.357,-236.437 584.894,-241.05 585.69,-234.096"/>
<g id="a_edge23&#45;headlabel"><a xlink:href="dir_000027_000029.html" target="_top" xlink:title="1">
<text text-anchor="middle" x="589.584" y="-229.183" font-family="Helvetica,sans-Serif" font-size="10.00">1</text>
</a>
</g>
</g>
<!-- dir_4f477b896248adf10c6909a9eb9fb7d3&#45;&gt;dir_d0b0d7f8e453984c2ffe9ea659d3c27f -->
<g id="edge24" class="edge"><title>dir_4f477b896248adf10c6909a9eb9fb7d3&#45;&gt;dir_d0b0d7f8e453984c2ffe9ea659d3c27f</title>
<path fill="none" stroke="black" d="M737.614,-503.893C739.835,-501.151 741.783,-498.164 743.15,-495 779.81,-410.153 768.114,-368.754 723.15,-288 682.203,-214.462 663.178,-199.784 600.15,-144 587.562,-132.859 572.469,-122.267 558.802,-113.522"/>
<polygon fill="black" stroke="black" points="560.4,-110.393 550.067,-108.055 556.686,-116.327 560.4,-110.393"/>
<g id="a_edge24&#45;headlabel"><a xlink:href="dir_000027_000048.html" target="_top" xlink:title="1">
<text text-anchor="middle" x="564.954" y="-107.394" font-family="Helvetica,sans-Serif" font-size="10.00">1</text>
</a>
</g>
</g>
<!-- dir_4f477b896248adf10c6909a9eb9fb7d3&#45;&gt;dir_32df69f29a08a23c97cd630e5cd47b2e -->
<g id="edge25" class="edge"><title>dir_4f477b896248adf10c6909a9eb9fb7d3&#45;&gt;dir_32df69f29a08a23c97cd630e5cd47b2e</title>
<path fill="none" stroke="black" d="M707.473,-503.86C693.982,-480.086 670.064,-438.399 660.15,-424 655.522,-417.279 650.189,-410.273 645.069,-403.845"/>
<polygon fill="black" stroke="black" points="647.787,-401.639 638.768,-396.078 642.351,-406.049 647.787,-401.639"/>
<g id="a_edge25&#45;headlabel"><a xlink:href="dir_000027_000018.html" target="_top" xlink:title="1">
<text text-anchor="middle" x="652.256" y="-400.142" font-family="Helvetica,sans-Serif" font-size="10.00">1</text>
</a>
</g>
</g>
<!-- dir_4f477b896248adf10c6909a9eb9fb7d3&#45;&gt;dir_1604d568fa4d964dfa9079b701bbfa07 -->
<g id="edge26" class="edge"><title>dir_4f477b896248adf10c6909a9eb9fb7d3&#45;&gt;dir_1604d568fa4d964dfa9079b701bbfa07</title>
<path fill="none" stroke="black" d="M744.324,-510.331C788.045,-491.172 869.15,-446.531 869.15,-379 869.15,-379 869.15,-379 869.15,-161 869.15,-113.295 849.29,-97.7784 809.15,-72 762.916,-42.3079 601.212,-27.0857 526.955,-21.5269"/>
<polygon fill="black" stroke="black" points="526.886,-18.0127 516.658,-20.7763 526.377,-24.9942 526.886,-18.0127"/>
<g id="a_edge26&#45;headlabel"><a xlink:href="dir_000027_000000.html" target="_top" xlink:title="27">
<text text-anchor="middle" x="530.677" y="-12.9422" font-family="Helvetica,sans-Serif" font-size="10.00">27</text>
</a>
</g>
</g>
<!-- dir_4f477b896248adf10c6909a9eb9fb7d3&#45;&gt;dir_31691989b6ffa820edb06b9eb32cc520 -->
<g id="edge27" class="edge"><title>dir_4f477b896248adf10c6909a9eb9fb7d3&#45;&gt;dir_31691989b6ffa820edb06b9eb32cc520</title>
<path fill="none" stroke="black" d="M689.894,-509.639C681.585,-505.591 672.667,-500.622 665.15,-495 657.818,-489.516 650.699,-482.627 644.506,-475.938"/>
<polygon fill="black" stroke="black" points="646.961,-473.431 637.706,-468.275 641.725,-478.077 646.961,-473.431"/>
<g id="a_edge27&#45;headlabel"><a xlink:href="dir_000027_000012.html" target="_top" xlink:title="1">
<text text-anchor="middle" x="651.47" y="-471.735" font-family="Helvetica,sans-Serif" font-size="10.00">1</text>
</a>
</g>
</g>
<!-- dir_cf78ae8ffd0f6192e117b8a1751c2bbd&#45;&gt;dir_b708e75f0564cefaa95a07ef1c60fa1d -->
<g id="edge32" class="edge"><title>dir_cf78ae8ffd0f6192e117b8a1751c2bbd&#45;&gt;dir_b708e75f0564cefaa95a07ef1c60fa1d</title>
<path fill="none" stroke="black" d="M466.095,-174.941C412.857,-200.138 295.716,-264.4 250.15,-360 243.266,-374.443 242.838,-381.769 250.15,-396 258.284,-411.83 273.583,-423.99 288.169,-432.644"/>
<polygon fill="black" stroke="black" points="286.644,-435.801 297.088,-437.582 290.035,-429.676 286.644,-435.801"/>
<g id="a_edge32&#45;headlabel"><a xlink:href="dir_000053_000022.html" target="_top" xlink:title="2">
<text text-anchor="middle" x="282.124" y="-434.044" font-family="Helvetica,sans-Serif" font-size="10.00">2</text>
</a>
</g>
</g>
<!-- dir_cf78ae8ffd0f6192e117b8a1751c2bbd&#45;&gt;dir_c0211e659583c36c301432102f960843 -->
<g id="edge28" class="edge"><title>dir_cf78ae8ffd0f6192e117b8a1751c2bbd&#45;&gt;dir_c0211e659583c36c301432102f960843</title>
<path fill="none" stroke="black" d="M520.437,-172.458C541.791,-181.947 570.999,-197.745 593.15,-216 615.871,-234.725 637.596,-260.375 650.742,-279.329"/>
<polygon fill="black" stroke="black" points="647.885,-281.355 656.312,-287.777 653.729,-277.502 647.885,-281.355"/>
<g id="a_edge28&#45;headlabel"><a xlink:href="dir_000053_000011.html" target="_top" xlink:title="1">
<text text-anchor="middle" x="643.536" y="-277.417" font-family="Helvetica,sans-Serif" font-size="10.00">1</text>
</a>
</g>
</g>
<!-- dir_cf78ae8ffd0f6192e117b8a1751c2bbd&#45;&gt;dir_4d620431c9b0dc62fca23e1ed91a49b6 -->
<g id="edge29" class="edge"><title>dir_cf78ae8ffd0f6192e117b8a1751c2bbd&#45;&gt;dir_4d620431c9b0dc62fca23e1ed91a49b6</title>
<path fill="none" stroke="black" d="M512.484,-180.104C519.781,-188.298 527.837,-198.282 534.534,-207.359"/>
<polygon fill="black" stroke="black" points="531.819,-209.58 540.47,-215.697 537.522,-205.52 531.819,-209.58"/>
<g id="a_edge29&#45;headlabel"><a xlink:href="dir_000053_000029.html" target="_top" xlink:title="7">
<text text-anchor="middle" x="527.421" y="-205.799" font-family="Helvetica,sans-Serif" font-size="10.00">7</text>
</a>
</g>
</g>
<!-- dir_cf78ae8ffd0f6192e117b8a1751c2bbd&#45;&gt;dir_d0b0d7f8e453984c2ffe9ea659d3c27f -->
<g id="edge30" class="edge"><title>dir_cf78ae8ffd0f6192e117b8a1751c2bbd&#45;&gt;dir_d0b0d7f8e453984c2ffe9ea659d3c27f</title>
<path fill="none" stroke="black" d="M493.908,-143.697C496.16,-135.728 499.659,-126.1 503.46,-117.264"/>
<polygon fill="black" stroke="black" points="506.673,-118.653 507.657,-108.104 500.31,-115.737 506.673,-118.653"/>
<g id="a_edge30&#45;headlabel"><a xlink:href="dir_000053_000048.html" target="_top" xlink:title="2">
<text text-anchor="middle" x="507.757" y="-120.604" font-family="Helvetica,sans-Serif" font-size="10.00">2</text>
</a>
</g>
</g>
<!-- dir_cf78ae8ffd0f6192e117b8a1751c2bbd&#45;&gt;dir_1604d568fa4d964dfa9079b701bbfa07 -->
<g id="edge31" class="edge"><title>dir_cf78ae8ffd0f6192e117b8a1751c2bbd&#45;&gt;dir_1604d568fa4d964dfa9079b701bbfa07</title>
<path fill="none" stroke="black" d="M486.498,-143.628C482.947,-133.421 478.947,-120.171 477.15,-108 474.095,-87.3078 477.537,-63.8612 481.506,-46.2298"/>
<polygon fill="black" stroke="black" points="485.013,-46.6254 483.992,-36.0799 478.214,-44.9601 485.013,-46.6254"/>
<g id="a_edge31&#45;headlabel"><a xlink:href="dir_000053_000000.html" target="_top" xlink:title="12">
<text text-anchor="middle" x="486.915" y="-48.2922" font-family="Helvetica,sans-Serif" font-size="10.00">12</text>
</a>
</g>
</g>
<!-- dir_61a866aca8f5011fad0bfe0df06e6f79&#45;&gt;dir_c0211e659583c36c301432102f960843 -->
<g id="edge45" class="edge"><title>dir_61a866aca8f5011fad0bfe0df06e6f79&#45;&gt;dir_c0211e659583c36c301432102f960843</title>
<path fill="none" stroke="black" d="M315.53,-363.021C318.402,-361.892 321.307,-360.858 324.15,-360 430.315,-327.958 561.401,-314.463 624.592,-309.505"/>
<polygon fill="black" stroke="black" points="625.152,-312.973 634.86,-308.728 624.624,-305.992 625.152,-312.973"/>
<g id="a_edge45&#45;headlabel"><a xlink:href="dir_000028_000011.html" target="_top" xlink:title="1">
<text text-anchor="middle" x="621.782" y="-313.575" font-family="Helvetica,sans-Serif" font-size="10.00">1</text>
</a>
</g>
</g>
<!-- dir_61a866aca8f5011fad0bfe0df06e6f79&#45;&gt;dir_1604d568fa4d964dfa9079b701bbfa07 -->
<g id="edge46" class="edge"><title>dir_61a866aca8f5011fad0bfe0df06e6f79&#45;&gt;dir_1604d568fa4d964dfa9079b701bbfa07</title>
<path fill="none" stroke="black" d="M259.078,-368.121C210.793,-350.894 117.15,-308.066 117.15,-235 117.15,-235 117.15,-235 117.15,-161 117.15,-89.9549 356.964,-41.4532 451.495,-25.0944"/>
<polygon fill="black" stroke="black" points="452.223,-28.5208 461.493,-23.3907 451.047,-21.6203 452.223,-28.5208"/>
<g id="a_edge46&#45;headlabel"><a xlink:href="dir_000028_000000.html" target="_top" xlink:title="3">
<text text-anchor="middle" x="449.157" y="-29.4235" font-family="Helvetica,sans-Serif" font-size="10.00">3</text>
</a>
</g>
</g>
<!-- dir_31691989b6ffa820edb06b9eb32cc520&#45;&gt;dir_b708e75f0564cefaa95a07ef1c60fa1d -->
<g id="edge52" class="edge"><title>dir_31691989b6ffa820edb06b9eb32cc520&#45;&gt;dir_b708e75f0564cefaa95a07ef1c60fa1d</title>
<path fill="none" stroke="black" d="M596.981,-450C518.477,-450 439.973,-450 361.469,-450"/>
<polygon fill="black" stroke="black" points="361.396,-446.5 351.396,-450 361.396,-453.5 361.396,-446.5"/>
<g id="a_edge52&#45;headlabel"><a xlink:href="dir_000012_000022.html" target="_top" xlink:title="3">
<text text-anchor="middle" x="364.991" y="-441.161" font-family="Helvetica,sans-Serif" font-size="10.00">3</text>
</a>
</g>
</g>
<!-- dir_31691989b6ffa820edb06b9eb32cc520&#45;&gt;dir_c0211e659583c36c301432102f960843 -->
<g id="edge47" class="edge"><title>dir_31691989b6ffa820edb06b9eb32cc520&#45;&gt;dir_c0211e659583c36c301432102f960843</title>
<path fill="none" stroke="black" d="M639.642,-431.737C647.37,-421.983 655.948,-409.137 660.15,-396 666.535,-376.036 666.717,-352.246 665.475,-334.287"/>
<polygon fill="black" stroke="black" points="668.951,-333.858 664.588,-324.203 661.978,-334.471 668.951,-333.858"/>
<g id="a_edge47&#45;headlabel"><a xlink:href="dir_000012_000011.html" target="_top" xlink:title="2">
<text text-anchor="middle" x="672.094" y="-334.69" font-family="Helvetica,sans-Serif" font-size="10.00">2</text>
</a>
</g>
</g>
<!-- dir_31691989b6ffa820edb06b9eb32cc520&#45;&gt;dir_4d620431c9b0dc62fca23e1ed91a49b6 -->
<g id="edge48" class="edge"><title>dir_31691989b6ffa820edb06b9eb32cc520&#45;&gt;dir_4d620431c9b0dc62fca23e1ed91a49b6</title>
<path fill="none" stroke="black" d="M610.15,-431.779C602.676,-421.836 593.866,-408.797 588.15,-396 568.204,-351.347 557.12,-295.096 551.917,-262.279"/>
<polygon fill="black" stroke="black" points="555.333,-261.461 550.373,-252.098 548.412,-262.51 555.333,-261.461"/>
<g id="a_edge48&#45;headlabel"><a xlink:href="dir_000012_000029.html" target="_top" xlink:title="1">
<text text-anchor="middle" x="558.679" y="-262.089" font-family="Helvetica,sans-Serif" font-size="10.00">1</text>
</a>
</g>
</g>
<!-- dir_31691989b6ffa820edb06b9eb32cc520&#45;&gt;dir_32df69f29a08a23c97cd630e5cd47b2e -->
<g id="edge49" class="edge"><title>dir_31691989b6ffa820edb06b9eb32cc520&#45;&gt;dir_32df69f29a08a23c97cd630e5cd47b2e</title>
<path fill="none" stroke="black" d="M618.234,-431.697C617.438,-423.983 617.212,-414.712 617.555,-406.112"/>
<polygon fill="black" stroke="black" points="621.048,-406.324 618.255,-396.104 614.065,-405.836 621.048,-406.324"/>
<g id="a_edge49&#45;headlabel"><a xlink:href="dir_000012_000018.html" target="_top" xlink:title="6">
<text text-anchor="middle" x="623.63" y="-407.608" font-family="Helvetica,sans-Serif" font-size="10.00">6</text>
</a>
</g>
</g>
<!-- dir_31691989b6ffa820edb06b9eb32cc520&#45;&gt;dir_1604d568fa4d964dfa9079b701bbfa07 -->
<g id="edge50" class="edge"><title>dir_31691989b6ffa820edb06b9eb32cc520&#45;&gt;dir_1604d568fa4d964dfa9079b701bbfa07</title>
<path fill="none" stroke="black" d="M651.212,-443.724C707.321,-431.045 831.15,-393.289 831.15,-307 831.15,-307 831.15,-307 831.15,-161 831.15,-114.027 813.115,-98.2318 774.15,-72 734.224,-45.1218 594.867,-28.8216 526.944,-22.2968"/>
<polygon fill="black" stroke="black" points="526.965,-18.7835 516.682,-21.3334 526.311,-25.7529 526.965,-18.7835"/>
<g id="a_edge50&#45;headlabel"><a xlink:href="dir_000012_000000.html" target="_top" xlink:title="9">
<text text-anchor="middle" x="530.809" y="-13.7926" font-family="Helvetica,sans-Serif" font-size="10.00">9</text>
</a>
</g>
</g>
<!-- dir_31691989b6ffa820edb06b9eb32cc520&#45;&gt;dir_cf78ae8ffd0f6192e117b8a1751c2bbd -->
<g id="edge51" class="edge"><title>dir_31691989b6ffa820edb06b9eb32cc520&#45;&gt;dir_cf78ae8ffd0f6192e117b8a1751c2bbd</title>
<path fill="none" stroke="black" d="M605.006,-431.986C594.547,-422.108 581.799,-409.065 572.15,-396 529.157,-337.789 514.348,-322.041 496.15,-252 490.877,-231.707 490.349,-207.936 491.019,-190.069"/>
<polygon fill="black" stroke="black" points="494.516,-190.215 491.541,-180.046 487.525,-189.851 494.516,-190.215"/>
<g id="a_edge51&#45;headlabel"><a xlink:href="dir_000012_000053.html" target="_top" xlink:title="1">
<text text-anchor="middle" x="497.164" y="-191.453" font-family="Helvetica,sans-Serif" font-size="10.00">1</text>
</a>
</g>
</g>
</g>
</svg>
        <g id="navigator" transform="translate(0 0)" fill="#404254">
                <rect fill="#f2f5e9" fill-opacity="0.5" stroke="#606060" stroke-width=".5" x="0" y="0" width="60" height="60"/>
                <use id="zoomplus" xlink:href="#zoomPlus" x="17" y="9" onmousedown="handleZoom(evt,'in')"/>
                <use id="zoomminus" xlink:href="#zoomMin" x="42" y="9" onmousedown="handleZoom(evt,'out')"/>
                <use id="reset" xlink:href="#resetDef" x="30" y="36" onmousedown="handleReset()"/>
                <g id="arrowUp" xlink:href="#dirArrow" transform="translate(30 24)" onmousedown="handlePan(0,-1)">
                  <use xlink:href="#rim" fill="#404040">
                        <set attributeName="fill" to="#808080" begin="arrowUp.mouseover" end="arrowUp.mouseout"/>
                  </use>
                  <path fill="none" stroke="white" stroke-width="1.5" d="M0,-3.0v7 M-2.5,-0.5L0,-3.0L2.5,-0.5"/>
                </g>
                <g id="arrowRight" xlink:href="#dirArrow" transform="rotate(90) translate(36 -43)" onmousedown="handlePan(1,0)">
                  <use xlink:href="#rim" fill="#404040">
                        <set attributeName="fill" to="#808080" begin="arrowRight.mouseover" end="arrowRight.mouseout"/>
                  </use>
                  <path fill="none" stroke="white" stroke-width="1.5" d="M0,-3.0v7 M-2.5,-0.5L0,-3.0L2.5,-0.5"/>
                </g>
                <g id="arrowDown" xlink:href="#dirArrow" transform="rotate(180) translate(-30 -48)" onmousedown="handlePan(0,1)">
                  <use xlink:href="#rim" fill="#404040">
                        <set attributeName="fill" to="#808080" begin="arrowDown.mouseover" end="arrowDown.mouseout"/>
                  </use>
                  <path fill="none" stroke="white" stroke-width="1.5" d="M0,-3.0v7 M-2.5,-0.5L0,-3.0L2.5,-0.5"/>
                </g>
                <g id="arrowLeft" xlink:href="#dirArrow" transform="rotate(270) translate(-36 17)" onmousedown="handlePan(-1,0)">
                  <use xlink:href="#rim" fill="#404040">
                        <set attributeName="fill" to="#808080" begin="arrowLeft.mouseover" end="arrowLeft.mouseout"/>
                  </use>
                  <path fill="none" stroke="white" stroke-width="1.5" d="M0,-3.0v7 M-2.5,-0.5L0,-3.0L2.5,-0.5"/>
                </g>
        </g>
        <svg viewBox="0 0 15 15" width="100%" height="30px" preserveAspectRatio="xMaxYMin meet">
         <g id="arrow_out" transform="scale(0.3 0.3)">
          <a xlink:href="dir_b708e75f0564cefaa95a07ef1c60fa1d_dep_org.svg" target="_base">
           <rect id="button" ry="5" rx="5" y="6" x="6" height="38" width="38"
                fill="#f2f5e9" fill-opacity="0.5" stroke="#606060" stroke-width="1.0"/>
           <path id="arrow"
             d="M 11.500037,31.436501 C 11.940474,20.09759 22.043105,11.32322 32.158766,21.979434 L 37.068811,17.246167 C 37.068811,17.246167 37.088388,32 37.088388,32 L 22.160133,31.978069 C 22.160133,31.978069 26.997745,27.140456 26.997745,27.140456 C 18.528582,18.264221 13.291696,25.230495 11.500037,31.436501 z"
             style="fill:#404040;"/>
          </a>
         </g>
        </svg>
</svg>
