<?xml version="1.0" encoding="UTF-8" standalone="no"?>
<!DOCTYPE svg PUBLIC "-//W3C//DTD SVG 1.1//EN"
 "http://www.w3.org/Graphics/SVG/1.1/DTD/svg11.dtd">
<!-- Generated by graphviz version 2.40.1 (20161225.0304)
 -->
<!-- Title: Recorder Pages: 1 -->
<svg width="530pt" height="439pt"
 viewBox="0.00 0.00 530.00 439.00" xmlns="http://www.w3.org/2000/svg" xmlns:xlink="http://www.w3.org/1999/xlink">
<g id="graph0" class="graph" transform="scale(1 1) rotate(0) translate(4 435)">
<title>Recorder</title>
<polygon fill="#ffffff" stroke="transparent" points="-4,4 -4,-435 526,-435 526,4 -4,4"/>
<g id="clust1" class="cluster">
<title>clusterdir_8fc34afb5f07a67966c78bf5319f94ae</title>
<g id="a_clust1"><a xlink:href="dir_8fc34afb5f07a67966c78bf5319f94ae.html" target="_top" xlink:title="Carla">
<polygon fill="#ddddee" stroke="#000000" points="146,-352 146,-423 222,-423 222,-352 146,-352"/>
<text text-anchor="middle" x="184" y="-411" font-family="Helvetica,sans-Serif" font-size="10.00" fill="#000000">Carla</text>
</a>
</g>
</g>
<!-- dir_0dd3f6464b0e5c5db135a4b73b996175 -->
<g id="node1" class="node">
<title>dir_0dd3f6464b0e5c5db135a4b73b996175</title>
<g id="a_node1"><a xlink:href="dir_0dd3f6464b0e5c5db135a4b73b996175.html" target="_top" xlink:title="Recorder">
<polygon fill="#eeeeff" stroke="#000000" points="213.5,-396 154.5,-396 154.5,-360 213.5,-360 213.5,-396"/>
<text text-anchor="middle" x="184" y="-375.5" font-family="Helvetica,sans-Serif" font-size="10.00" fill="#000000">Recorder</text>
</a>
</g>
</g>
<!-- dir_4d620431c9b0dc62fca23e1ed91a49b6 -->
<g id="node2" class="node">
<title>dir_4d620431c9b0dc62fca23e1ed91a49b6</title>
<g id="a_node2"><a xlink:href="dir_4d620431c9b0dc62fca23e1ed91a49b6.html" target="_top" xlink:title="Vehicle">
<polygon fill="#ffffff" stroke="#ff0000" points="408,-396 354,-396 354,-360 408,-360 408,-396"/>
<text text-anchor="middle" x="381" y="-375.5" font-family="Helvetica,sans-Serif" font-size="10.00" fill="#000000">Vehicle</text>
</a>
</g>
</g>
<!-- dir_0dd3f6464b0e5c5db135a4b73b996175&#45;&gt;dir_4d620431c9b0dc62fca23e1ed91a49b6 -->
<g id="edge8" class="edge">
<title>dir_0dd3f6464b0e5c5db135a4b73b996175&#45;&gt;dir_4d620431c9b0dc62fca23e1ed91a49b6</title>
<path fill="none" stroke="#000000" d="M213.627,-378C256.9955,-378 300.3641,-378 343.7327,-378"/>
<polygon fill="#000000" stroke="#000000" points="343.8673,-381.5001 353.8673,-378 343.8672,-374.5001 343.8673,-381.5001"/>
<g id="a_edge8&#45;headlabel"><a xlink:href="dir_000026_000019.html" target="_top" xlink:title="3">
<text text-anchor="middle" x="340.2726" y="-381.8393" font-family="Helvetica,sans-Serif" font-size="10.00" fill="#000000">3</text>
</a>
</g>
</g>
<!-- dir_300f092198dff90fa236d1c5a9b26b0c -->
<g id="node3" class="node">
<title>dir_300f092198dff90fa236d1c5a9b26b0c</title>
<g id="a_node3"><a xlink:href="dir_300f092198dff90fa236d1c5a9b26b0c.html" target="_top" xlink:title="Lights">
<polygon fill="none" stroke="#000000" points="120,-180 66,-180 66,-144 120,-144 120,-180"/>
<text text-anchor="middle" x="93" y="-159.5" font-family="Helvetica,sans-Serif" font-size="10.00" fill="#000000">Lights</text>
</a>
</g>
</g>
<!-- dir_0dd3f6464b0e5c5db135a4b73b996175&#45;&gt;dir_300f092198dff90fa236d1c5a9b26b0c -->
<g id="edge9" class="edge">
<title>dir_0dd3f6464b0e5c5db135a4b73b996175&#45;&gt;dir_300f092198dff90fa236d1c5a9b26b0c</title>
<path fill="none" stroke="#000000" d="M176.3979,-359.9555C160.4729,-322.1556 123.5232,-234.4506 104.6094,-189.5564"/>
<polygon fill="#000000" stroke="#000000" points="107.7524,-188.0017 100.6444,-180.1451 101.3015,-190.7195 107.7524,-188.0017"/>
<g id="a_edge9&#45;headlabel"><a xlink:href="dir_000026_000025.html" target="_top" xlink:title="2">
<text text-anchor="middle" x="111.7645" y="-187.712" font-family="Helvetica,sans-Serif" font-size="10.00" fill="#000000">2</text>
</a>
</g>
</g>
<!-- dir_7a44753a182d2dd0cd15cfa7be7c0c89 -->
<g id="node4" class="node">
<title>dir_7a44753a182d2dd0cd15cfa7be7c0c89</title>
<g id="a_node4"><a xlink:href="dir_7a44753a182d2dd0cd15cfa7be7c0c89.html" target="_top" xlink:title="Walker">
<polygon fill="none" stroke="#000000" points="231,-108 177,-108 177,-72 231,-72 231,-108"/>
<text text-anchor="middle" x="204" y="-87.5" font-family="Helvetica,sans-Serif" font-size="10.00" fill="#000000">Walker</text>
</a>
</g>
</g>
<!-- dir_0dd3f6464b0e5c5db135a4b73b996175&#45;&gt;dir_7a44753a182d2dd0cd15cfa7be7c0c89 -->
<g id="edge10" class="edge">
<title>dir_0dd3f6464b0e5c5db135a4b73b996175&#45;&gt;dir_7a44753a182d2dd0cd15cfa7be7c0c89</title>
<path fill="none" stroke="#000000" d="M160.4595,-359.8866C110.8304,-319.4865 4.2207,-219.6161 57,-144 69.9195,-125.4904 127.9229,-108.2741 167.0905,-98.4604"/>
<polygon fill="#000000" stroke="#000000" points="167.9686,-101.8489 176.8486,-96.0699 166.303,-95.0499 167.9686,-101.8489"/>
<g id="a_edge10&#45;headlabel"><a xlink:href="dir_000026_000059.html" target="_top" xlink:title="4">
<text text-anchor="middle" x="165.1528" y="-102.9618" font-family="Helvetica,sans-Serif" font-size="10.00" fill="#000000">4</text>
</a>
</g>
</g>
<!-- dir_3e9aec868781f29a05b56aecc37cd1a9 -->
<g id="node5" class="node">
<title>dir_3e9aec868781f29a05b56aecc37cd1a9</title>
<g id="a_node5"><a xlink:href="dir_3e9aec868781f29a05b56aecc37cd1a9.html" target="_top" xlink:title="MapGen">
<polygon fill="none" stroke="#000000" points="362,-324 306,-324 306,-288 362,-288 362,-324"/>
<text text-anchor="middle" x="334" y="-303.5" font-family="Helvetica,sans-Serif" font-size="10.00" fill="#000000">MapGen</text>
</a>
</g>
</g>
<!-- dir_0dd3f6464b0e5c5db135a4b73b996175&#45;&gt;dir_3e9aec868781f29a05b56aecc37cd1a9 -->
<g id="edge11" class="edge">
<title>dir_0dd3f6464b0e5c5db135a4b73b996175&#45;&gt;dir_3e9aec868781f29a05b56aecc37cd1a9</title>
<path fill="none" stroke="#000000" d="M213.6352,-363.7751C237.5122,-352.3141 271.2153,-336.1367 296.8869,-323.8143"/>
<polygon fill="#000000" stroke="#000000" points="298.4477,-326.9475 305.9484,-319.4648 295.4186,-320.6368 298.4477,-326.9475"/>
<g id="a_edge11&#45;headlabel"><a xlink:href="dir_000026_000031.html" target="_top" xlink:title="1">
<text text-anchor="middle" x="296.4357" y="-328.5626" font-family="Helvetica,sans-Serif" font-size="10.00" fill="#000000">1</text>
</a>
</g>
</g>
<!-- dir_1604d568fa4d964dfa9079b701bbfa07 -->
<g id="node6" class="node">
<title>dir_1604d568fa4d964dfa9079b701bbfa07</title>
<g id="a_node6"><a xlink:href="dir_1604d568fa4d964dfa9079b701bbfa07.html" target="_top" xlink:title="LibCarla">
<polygon fill="#ffffff" stroke="#ff0000" points="232,-36 176,-36 176,0 232,0 232,-36"/>
<text text-anchor="middle" x="204" y="-15.5" font-family="Helvetica,sans-Serif" font-size="10.00" fill="#000000">LibCarla</text>
</a>
</g>
</g>
<!-- dir_0dd3f6464b0e5c5db135a4b73b996175&#45;&gt;dir_1604d568fa4d964dfa9079b701bbfa07 -->
<g id="edge12" class="edge">
<title>dir_0dd3f6464b0e5c5db135a4b73b996175&#45;&gt;dir_1604d568fa4d964dfa9079b701bbfa07</title>
<path fill="none" stroke="#000000" d="M154.4372,-369.8484C102.4247,-353.5025 0,-311.4775 0,-234 0,-234 0,-234 0,-162 0,-81.6781 106.8595,-42.1927 165.8983,-26.5069"/>
<polygon fill="#000000" stroke="#000000" points="166.8118,-29.886 175.6347,-24.0202 165.0796,-23.1037 166.8118,-29.886"/>
<g id="a_edge12&#45;headlabel"><a xlink:href="dir_000026_000000.html" target="_top" xlink:title="13">
<text text-anchor="middle" x="164.0316" y="-31.0264" font-family="Helvetica,sans-Serif" font-size="10.00" fill="#000000">13</text>
</a>
</g>
</g>
<!-- dir_cf78ae8ffd0f6192e117b8a1751c2bbd -->
<g id="node7" class="node">
<title>dir_cf78ae8ffd0f6192e117b8a1751c2bbd</title>
<g id="a_node7"><a xlink:href="dir_cf78ae8ffd0f6192e117b8a1751c2bbd.html" target="_top" xlink:title="Traffic">
<polygon fill="none" stroke="#000000" points="360,-108 306,-108 306,-72 360,-72 360,-108"/>
<text text-anchor="middle" x="333" y="-87.5" font-family="Helvetica,sans-Serif" font-size="10.00" fill="#000000">Traffic</text>
</a>
</g>
</g>
<!-- dir_0dd3f6464b0e5c5db135a4b73b996175&#45;&gt;dir_cf78ae8ffd0f6192e117b8a1751c2bbd -->
<g id="edge13" class="edge">
<title>dir_0dd3f6464b0e5c5db135a4b73b996175&#45;&gt;dir_cf78ae8ffd0f6192e117b8a1751c2bbd</title>
<path fill="none" stroke="#000000" d="M213.6764,-373.7893C261.4686,-366.3335 352.0598,-349.1834 371,-324 417.6348,-261.993 374.9824,-164.4202 349.2531,-117.2847"/>
<polygon fill="#000000" stroke="#000000" points="352.1536,-115.3009 344.2111,-108.289 346.0473,-118.7235 352.1536,-115.3009"/>
<g id="a_edge13&#45;headlabel"><a xlink:href="dir_000026_000055.html" target="_top" xlink:title="2">
<text text-anchor="middle" x="356.3878" y="-114.5484" font-family="Helvetica,sans-Serif" font-size="10.00" fill="#000000">2</text>
</a>
</g>
</g>
<!-- dir_b708e75f0564cefaa95a07ef1c60fa1d -->
<g id="node8" class="node">
<title>dir_b708e75f0564cefaa95a07ef1c60fa1d</title>
<g id="a_node8"><a xlink:href="dir_b708e75f0564cefaa95a07ef1c60fa1d.html" target="_top" xlink:title="Game">
<polygon fill="none" stroke="#000000" points="210,-252 156,-252 156,-216 210,-216 210,-252"/>
<text text-anchor="middle" x="183" y="-231.5" font-family="Helvetica,sans-Serif" font-size="10.00" fill="#000000">Game</text>
</a>
</g>
</g>
<!-- dir_0dd3f6464b0e5c5db135a4b73b996175&#45;&gt;dir_b708e75f0564cefaa95a07ef1c60fa1d -->
<g id="edge14" class="edge">
<title>dir_0dd3f6464b0e5c5db135a4b73b996175&#45;&gt;dir_b708e75f0564cefaa95a07ef1c60fa1d</title>
<path fill="none" stroke="#000000" d="M183.8733,-359.7623C183.7028,-335.201 183.3976,-291.2474 183.1969,-262.3541"/>
<polygon fill="#000000" stroke="#000000" points="186.6951,-262.065 183.1256,-252.0896 179.6952,-262.1137 186.6951,-262.065"/>
<g id="a_edge14&#45;headlabel"><a xlink:href="dir_000026_000024.html" target="_top" xlink:title="3">
<text text-anchor="middle" x="189.5591" y="-263.1399" font-family="Helvetica,sans-Serif" font-size="10.00" fill="#000000">3</text>
</a>
</g>
</g>
<!-- dir_31691989b6ffa820edb06b9eb32cc520 -->
<g id="node9" class="node">
<title>dir_31691989b6ffa820edb06b9eb32cc520</title>
<g id="a_node9"><a xlink:href="dir_31691989b6ffa820edb06b9eb32cc520.html" target="_top" xlink:title="Actor">
<polygon fill="none" stroke="#000000" points="286,-180 232,-180 232,-144 286,-144 286,-180"/>
<text text-anchor="middle" x="259" y="-159.5" font-family="Helvetica,sans-Serif" font-size="10.00" fill="#000000">Actor</text>
</a>
</g>
</g>
<!-- dir_0dd3f6464b0e5c5db135a4b73b996175&#45;&gt;dir_31691989b6ffa820edb06b9eb32cc520 -->
<g id="edge15" class="edge">
<title>dir_0dd3f6464b0e5c5db135a4b73b996175&#45;&gt;dir_31691989b6ffa820edb06b9eb32cc520</title>
<path fill="none" stroke="#000000" d="M190.2655,-359.9555C203.3629,-322.235 233.7157,-234.8188 249.3334,-189.8399"/>
<polygon fill="#000000" stroke="#000000" points="252.7258,-190.7399 252.6996,-180.1451 246.1131,-188.4437 252.7258,-190.7399"/>
<g id="a_edge15&#45;headlabel"><a xlink:href="dir_000026_000012.html" target="_top" xlink:title="5">
<text text-anchor="middle" x="254.229" y="-192.5669" font-family="Helvetica,sans-Serif" font-size="10.00" fill="#000000">5</text>
</a>
</g>
</g>
<!-- dir_4d620431c9b0dc62fca23e1ed91a49b6&#45;&gt;dir_3e9aec868781f29a05b56aecc37cd1a9 -->
<g id="edge1" class="edge">
<title>dir_4d620431c9b0dc62fca23e1ed91a49b6&#45;&gt;dir_3e9aec868781f29a05b56aecc37cd1a9</title>
<path fill="none" stroke="#000000" d="M369.1399,-359.8314C363.8371,-351.7079 357.4763,-341.9637 351.6327,-333.0118"/>
<polygon fill="#000000" stroke="#000000" points="354.4169,-330.8739 346.0198,-324.4133 348.5552,-334.7003 354.4169,-330.8739"/>
<g id="a_edge1&#45;headlabel"><a xlink:href="dir_000019_000031.html" target="_top" xlink:title="1">
<text text-anchor="middle" x="358.7593" y="-329.8319" font-family="Helvetica,sans-Serif" font-size="10.00" fill="#000000">1</text>
</a>
</g>
</g>
<!-- dir_4d620431c9b0dc62fca23e1ed91a49b6&#45;&gt;dir_1604d568fa4d964dfa9079b701bbfa07 -->
<g id="edge2" class="edge">
<title>dir_4d620431c9b0dc62fca23e1ed91a49b6&#45;&gt;dir_1604d568fa4d964dfa9079b701bbfa07</title>
<path fill="none" stroke="#000000" d="M408.1862,-365.513C449.1592,-344.6042 522,-298.3797 522,-234 522,-234 522,-234 522,-162 522,-101.2036 326.6799,-47.2548 242.1915,-26.7625"/>
<polygon fill="#000000" stroke="#000000" points="242.7605,-23.2999 232.2204,-24.3749 241.1304,-30.1074 242.7605,-23.2999"/>
<g id="a_edge2&#45;headlabel"><a xlink:href="dir_000019_000000.html" target="_top" xlink:title="6">
<text text-anchor="middle" x="246.9175" y="-18.8757" font-family="Helvetica,sans-Serif" font-size="10.00" fill="#000000">6</text>
</a>
</g>
</g>
<!-- dir_4d620431c9b0dc62fca23e1ed91a49b6&#45;&gt;dir_cf78ae8ffd0f6192e117b8a1751c2bbd -->
<g id="edge3" class="edge">
<title>dir_4d620431c9b0dc62fca23e1ed91a49b6&#45;&gt;dir_cf78ae8ffd0f6192e117b8a1751c2bbd</title>
<path fill="none" stroke="#000000" d="M384.3179,-359.8073C396.828,-318.8231 431.2654,-217.1448 395,-144 389.0291,-131.9572 378.9453,-121.873 368.5747,-113.8037"/>
<polygon fill="#000000" stroke="#000000" points="370.4157,-110.815 360.2692,-107.7654 366.2993,-116.4768 370.4157,-110.815"/>
<g id="a_edge3&#45;headlabel"><a xlink:href="dir_000019_000055.html" target="_top" xlink:title="2">
<text text-anchor="middle" x="374.9927" y="-108.1323" font-family="Helvetica,sans-Serif" font-size="10.00" fill="#000000">2</text>
</a>
</g>
</g>
<!-- dir_4d620431c9b0dc62fca23e1ed91a49b6&#45;&gt;dir_b708e75f0564cefaa95a07ef1c60fa1d -->
<g id="edge4" class="edge">
<title>dir_4d620431c9b0dc62fca23e1ed91a49b6&#45;&gt;dir_b708e75f0564cefaa95a07ef1c60fa1d</title>
<path fill="none" stroke="#000000" d="M353.7997,-365.8736C334.705,-355.2617 309.309,-339.2067 288,-324 258.6974,-303.0888 226.6241,-277.5115 205.5439,-258.9754"/>
<polygon fill="#000000" stroke="#000000" points="207.8139,-256.3099 198.0317,-252.2405 203.1411,-261.5219 207.8139,-256.3099"/>
<g id="a_edge4&#45;headlabel"><a xlink:href="dir_000019_000024.html" target="_top" xlink:title="3">
<text text-anchor="middle" x="212.3857" y="-254.0953" font-family="Helvetica,sans-Serif" font-size="10.00" fill="#000000">3</text>
</a>
</g>
</g>
<!-- dir_300f092198dff90fa236d1c5a9b26b0c&#45;&gt;dir_1604d568fa4d964dfa9079b701bbfa07 -->
<g id="edge5" class="edge">
<title>dir_300f092198dff90fa236d1c5a9b26b0c&#45;&gt;dir_1604d568fa4d964dfa9079b701bbfa07</title>
<path fill="none" stroke="#000000" d="M98.4153,-143.6782C104.7414,-124.418 116.6074,-93.9265 134,-72 143.2873,-60.2917 155.636,-49.678 167.374,-41.0201"/>
<polygon fill="#000000" stroke="#000000" points="169.6274,-43.713 175.7605,-35.0738 165.5786,-38.0027 169.6274,-43.713"/>
<g id="a_edge5&#45;headlabel"><a xlink:href="dir_000025_000000.html" target="_top" xlink:title="6">
<text text-anchor="middle" x="168.3373" y="-45.6082" font-family="Helvetica,sans-Serif" font-size="10.00" fill="#000000">6</text>
</a>
</g>
</g>
<!-- dir_300f092198dff90fa236d1c5a9b26b0c&#45;&gt;dir_b708e75f0564cefaa95a07ef1c60fa1d -->
<g id="edge6" class="edge">
<title>dir_300f092198dff90fa236d1c5a9b26b0c&#45;&gt;dir_b708e75f0564cefaa95a07ef1c60fa1d</title>
<path fill="none" stroke="#000000" d="M120.3157,-179.1715C132.4909,-188.1553 146.6415,-199.3163 158.4735,-209.2189"/>
<polygon fill="#000000" stroke="#000000" points="156.3581,-212.0146 166.2416,-215.8314 160.8955,-206.6842 156.3581,-212.0146"/>
<g id="a_edge6&#45;headlabel"><a xlink:href="dir_000025_000024.html" target="_top" xlink:title="1">
<text text-anchor="middle" x="151.7805" y="-209.3467" font-family="Helvetica,sans-Serif" font-size="10.00" fill="#000000">1</text>
</a>
</g>
</g>
<!-- dir_7a44753a182d2dd0cd15cfa7be7c0c89&#45;&gt;dir_1604d568fa4d964dfa9079b701bbfa07 -->
<g id="edge7" class="edge">
<title>dir_7a44753a182d2dd0cd15cfa7be7c0c89&#45;&gt;dir_1604d568fa4d964dfa9079b701bbfa07</title>
<path fill="none" stroke="#000000" d="M204,-71.8314C204,-64.131 204,-54.9743 204,-46.4166"/>
<polygon fill="#000000" stroke="#000000" points="207.5001,-46.4132 204,-36.4133 200.5001,-46.4133 207.5001,-46.4132"/>
<g id="a_edge7&#45;headlabel"><a xlink:href="dir_000059_000000.html" target="_top" xlink:title="3">
<text text-anchor="middle" x="210.3393" y="-47.5079" font-family="Helvetica,sans-Serif" font-size="10.00" fill="#000000">3</text>
</a>
</g>
</g>
<!-- dir_3e9aec868781f29a05b56aecc37cd1a9&#45;&gt;dir_7a44753a182d2dd0cd15cfa7be7c0c89 -->
<g id="edge16" class="edge">
<title>dir_3e9aec868781f29a05b56aecc37cd1a9&#45;&gt;dir_7a44753a182d2dd0cd15cfa7be7c0c89</title>
<path fill="none" stroke="#000000" d="M331.4363,-287.8054C325.8937,-250.5011 311.9194,-166.9276 295,-144 281.3759,-125.5379 259.3849,-112.2368 240.4342,-103.4554"/>
<polygon fill="#000000" stroke="#000000" points="241.7086,-100.1927 231.1444,-99.3885 238.9014,-106.6051 241.7086,-100.1927"/>
<g id="a_edge16&#45;headlabel"><a xlink:href="dir_000031_000059.html" target="_top" xlink:title="1">
<text text-anchor="middle" x="246.1402" y="-96.5332" font-family="Helvetica,sans-Serif" font-size="10.00" fill="#000000">1</text>
</a>
</g>
</g>
<!-- dir_3e9aec868781f29a05b56aecc37cd1a9&#45;&gt;dir_b708e75f0564cefaa95a07ef1c60fa1d -->
<g id="edge17" class="edge">
<title>dir_3e9aec868781f29a05b56aecc37cd1a9&#45;&gt;dir_b708e75f0564cefaa95a07ef1c60fa1d</title>
<path fill="none" stroke="#000000" d="M305.7011,-294.9078C281.1532,-284.075 245.6916,-267.3402 219.1305,-254.1513"/>
<polygon fill="#000000" stroke="#000000" points="220.648,-250.997 210.1392,-249.6496 217.5141,-257.2563 220.648,-250.997"/>
<g id="a_edge17&#45;headlabel"><a xlink:href="dir_000031_000024.html" target="_top" xlink:title="2">
<text text-anchor="middle" x="225.1333" y="-247.5674" font-family="Helvetica,sans-Serif" font-size="10.00" fill="#000000">2</text>
</a>
</g>
</g>
<!-- dir_3e9aec868781f29a05b56aecc37cd1a9&#45;&gt;dir_31691989b6ffa820edb06b9eb32cc520 -->
<g id="edge18" class="edge">
<title>dir_3e9aec868781f29a05b56aecc37cd1a9&#45;&gt;dir_31691989b6ffa820edb06b9eb32cc520</title>
<path fill="none" stroke="#000000" d="M321.7285,-287.8715C314.9672,-277.5588 306.6272,-264.2855 300,-252 288.9953,-231.5994 278.1954,-207.6869 270.4446,-189.6396"/>
<polygon fill="#000000" stroke="#000000" points="273.5993,-188.1139 266.4703,-180.2763 267.1557,-190.8489 273.5993,-188.1139"/>
<g id="a_edge18&#45;headlabel"><a xlink:href="dir_000031_000012.html" target="_top" xlink:title="1">
<text text-anchor="middle" x="277.6173" y="-187.8135" font-family="Helvetica,sans-Serif" font-size="10.00" fill="#000000">1</text>
</a>
</g>
</g>
<!-- dir_cf78ae8ffd0f6192e117b8a1751c2bbd&#45;&gt;dir_4d620431c9b0dc62fca23e1ed91a49b6 -->
<g id="edge19" class="edge">
<title>dir_cf78ae8ffd0f6192e117b8a1751c2bbd&#45;&gt;dir_4d620431c9b0dc62fca23e1ed91a49b6</title>
<path fill="none" stroke="#000000" d="M360.1991,-98.8811C379.1699,-107.6294 402.4749,-122.7717 413,-144 446.7863,-212.1447 419.2059,-305.0551 398.2208,-350.58"/>
<polygon fill="#000000" stroke="#000000" points="394.9594,-349.2835 393.7348,-359.8073 401.2549,-352.3441 394.9594,-349.2835"/>
<g id="a_edge19&#45;headlabel"><a xlink:href="dir_000055_000019.html" target="_top" xlink:title="8">
<text text-anchor="middle" x="393.9775" y="-342.3092" font-family="Helvetica,sans-Serif" font-size="10.00" fill="#000000">8</text>
</a>
</g>
</g>
<!-- dir_cf78ae8ffd0f6192e117b8a1751c2bbd&#45;&gt;dir_3e9aec868781f29a05b56aecc37cd1a9 -->
<g id="edge20" class="edge">
<title>dir_cf78ae8ffd0f6192e117b8a1751c2bbd&#45;&gt;dir_3e9aec868781f29a05b56aecc37cd1a9</title>
<path fill="none" stroke="#000000" d="M333.084,-108.1451C333.2583,-145.7945 333.6604,-232.6409 333.869,-277.7103"/>
<polygon fill="#000000" stroke="#000000" points="330.3701,-277.9718 333.9165,-287.9555 337.37,-277.9394 330.3701,-277.9718"/>
<g id="a_edge20&#45;headlabel"><a xlink:href="dir_000055_000031.html" target="_top" xlink:title="1">
<text text-anchor="middle" x="327.5143" y="-271.8904" font-family="Helvetica,sans-Serif" font-size="10.00" fill="#000000">1</text>
</a>
</g>
</g>
<!-- dir_cf78ae8ffd0f6192e117b8a1751c2bbd&#45;&gt;dir_1604d568fa4d964dfa9079b701bbfa07 -->
<g id="edge21" class="edge">
<title>dir_cf78ae8ffd0f6192e117b8a1751c2bbd&#45;&gt;dir_1604d568fa4d964dfa9079b701bbfa07</title>
<path fill="none" stroke="#000000" d="M305.9574,-74.9064C287.1651,-64.4177 261.881,-50.3057 241.1933,-38.7591"/>
<polygon fill="#000000" stroke="#000000" points="242.7848,-35.6391 232.347,-33.8216 239.3732,-41.7515 242.7848,-35.6391"/>
<g id="a_edge21&#45;headlabel"><a xlink:href="dir_000055_000000.html" target="_top" xlink:title="17">
<text text-anchor="middle" x="247.3073" y="-32.4117" font-family="Helvetica,sans-Serif" font-size="10.00" fill="#000000">17</text>
</a>
</g>
</g>
<!-- dir_cf78ae8ffd0f6192e117b8a1751c2bbd&#45;&gt;dir_b708e75f0564cefaa95a07ef1c60fa1d -->
<g id="edge22" class="edge">
<title>dir_cf78ae8ffd0f6192e117b8a1751c2bbd&#45;&gt;dir_b708e75f0564cefaa95a07ef1c60fa1d</title>
<path fill="none" stroke="#000000" d="M305.9626,-99.9968C283.6167,-108.4037 252.6552,-122.5419 232,-144 215.3386,-161.309 204.9169,-186.7297 197.4166,-206.1435"/>
<polygon fill="#000000" stroke="#000000" points="194.0741,-205.0837 193.7431,-215.6734 200.6057,-207.6015 194.0741,-205.0837"/>
<g id="a_edge22&#45;headlabel"><a xlink:href="dir_000055_000024.html" target="_top" xlink:title="4">
<text text-anchor="middle" x="192.7177" y="-198.2085" font-family="Helvetica,sans-Serif" font-size="10.00" fill="#000000">4</text>
</a>
</g>
</g>
<!-- dir_b708e75f0564cefaa95a07ef1c60fa1d&#45;&gt;dir_0dd3f6464b0e5c5db135a4b73b996175 -->
<g id="edge25" class="edge">
<title>dir_b708e75f0564cefaa95a07ef1c60fa1d&#45;&gt;dir_0dd3f6464b0e5c5db135a4b73b996175</title>
<path fill="none" stroke="#000000" d="M181.6385,-252.2729C180.461,-270.4573 179.0812,-299.1594 180,-324 180.3044,-332.2303 180.8689,-341.1517 181.4799,-349.3273"/>
<polygon fill="#000000" stroke="#000000" points="178.009,-349.8338 182.2918,-359.5244 184.987,-349.2781 178.009,-349.8338"/>
<g id="a_edge25&#45;headlabel"><a xlink:href="dir_000024_000026.html" target="_top" xlink:title="5">
<text text-anchor="middle" x="174.8935" y="-343.9758" font-family="Helvetica,sans-Serif" font-size="10.00" fill="#000000">5</text>
</a>
</g>
</g>
<!-- dir_b708e75f0564cefaa95a07ef1c60fa1d&#45;&gt;dir_4d620431c9b0dc62fca23e1ed91a49b6 -->
<g id="edge23" class="edge">
<title>dir_b708e75f0564cefaa95a07ef1c60fa1d&#45;&gt;dir_4d620431c9b0dc62fca23e1ed91a49b6</title>
<path fill="none" stroke="#000000" d="M210.1786,-251.2088C235.0199,-269.7981 272.3381,-299.9779 306,-324 320.4702,-334.3264 336.8251,-345.0439 350.6549,-354.1825"/>
<polygon fill="#000000" stroke="#000000" points="349.0654,-357.3282 359.3333,-359.9399 352.9352,-351.4951 349.0654,-357.3282"/>
<g id="a_edge23&#45;headlabel"><a xlink:href="dir_000024_000019.html" target="_top" xlink:title="1">
<text text-anchor="middle" x="344.5004" y="-355.207" font-family="Helvetica,sans-Serif" font-size="10.00" fill="#000000">1</text>
</a>
</g>
</g>
<!-- dir_b708e75f0564cefaa95a07ef1c60fa1d&#45;&gt;dir_300f092198dff90fa236d1c5a9b26b0c -->
<g id="edge24" class="edge">
<title>dir_b708e75f0564cefaa95a07ef1c60fa1d&#45;&gt;dir_300f092198dff90fa236d1c5a9b26b0c</title>
<path fill="none" stroke="#000000" d="M155.8313,-216.937C143.6434,-207.9495 129.4531,-196.7607 117.5855,-186.8304"/>
<polygon fill="#000000" stroke="#000000" points="119.6775,-184.0149 109.7936,-180.1992 115.1407,-189.3457 119.6775,-184.0149"/>
<g id="a_edge24&#45;headlabel"><a xlink:href="dir_000024_000025.html" target="_top" xlink:title="2">
<text text-anchor="middle" x="124.2551" y="-181.6823" font-family="Helvetica,sans-Serif" font-size="10.00" fill="#000000">2</text>
</a>
</g>
</g>
<!-- dir_b708e75f0564cefaa95a07ef1c60fa1d&#45;&gt;dir_3e9aec868781f29a05b56aecc37cd1a9 -->
<g id="edge26" class="edge">
<title>dir_b708e75f0564cefaa95a07ef1c60fa1d&#45;&gt;dir_3e9aec868781f29a05b56aecc37cd1a9</title>
<path fill="none" stroke="#000000" d="M210.0314,-244.5339C234.2714,-255.1928 269.8403,-271.9561 296.7348,-285.2858"/>
<polygon fill="#000000" stroke="#000000" points="295.3433,-288.503 305.8532,-289.8418 298.4721,-282.2411 295.3433,-288.503"/>
<g id="a_edge26&#45;headlabel"><a xlink:href="dir_000024_000031.html" target="_top" xlink:title="3">
<text text-anchor="middle" x="290.8587" y="-286.9363" font-family="Helvetica,sans-Serif" font-size="10.00" fill="#000000">3</text>
</a>
</g>
</g>
<!-- dir_b708e75f0564cefaa95a07ef1c60fa1d&#45;&gt;dir_1604d568fa4d964dfa9079b701bbfa07 -->
<g id="edge27" class="edge">
<title>dir_b708e75f0564cefaa95a07ef1c60fa1d&#45;&gt;dir_1604d568fa4d964dfa9079b701bbfa07</title>
<path fill="none" stroke="#000000" d="M176.8339,-215.5652C167.5927,-185.0167 152.7758,-122.282 168,-72 170.9564,-62.2355 176.3252,-52.6229 182.03,-44.2762"/>
<polygon fill="#000000" stroke="#000000" points="184.9414,-46.2239 188.0095,-36.0831 179.2871,-42.0973 184.9414,-46.2239"/>
<g id="a_edge27&#45;headlabel"><a xlink:href="dir_000024_000000.html" target="_top" xlink:title="30">
<text text-anchor="middle" x="185.1158" y="-48.3013" font-family="Helvetica,sans-Serif" font-size="10.00" fill="#000000">30</text>
</a>
</g>
</g>
<!-- dir_b708e75f0564cefaa95a07ef1c60fa1d&#45;&gt;dir_cf78ae8ffd0f6192e117b8a1751c2bbd -->
<g id="edge28" class="edge">
<title>dir_b708e75f0564cefaa95a07ef1c60fa1d&#45;&gt;dir_cf78ae8ffd0f6192e117b8a1751c2bbd</title>
<path fill="none" stroke="#000000" d="M180.5626,-215.6734C183.4732,-195.8385 194.4344,-164.3261 214,-144 236.0118,-121.1326 269.7283,-106.5781 295.8119,-98.414"/>
<polygon fill="#000000" stroke="#000000" points="297.1414,-101.6715 305.7504,-95.4961 295.1694,-94.955 297.1414,-101.6715"/>
<g id="a_edge28&#45;headlabel"><a xlink:href="dir_000024_000055.html" target="_top" xlink:title="1">
<text text-anchor="middle" x="294.4921" y="-102.9083" font-family="Helvetica,sans-Serif" font-size="10.00" fill="#000000">1</text>
</a>
</g>
</g>
<!-- dir_b708e75f0564cefaa95a07ef1c60fa1d&#45;&gt;dir_31691989b6ffa820edb06b9eb32cc520 -->
<g id="edge29" class="edge">
<title>dir_b708e75f0564cefaa95a07ef1c60fa1d&#45;&gt;dir_31691989b6ffa820edb06b9eb32cc520</title>
<path fill="none" stroke="#000000" d="M196.2256,-215.8314C204.6405,-207.0485 215.7439,-196.3712 226.3171,-186.8489"/>
<polygon fill="#000000" stroke="#000000" points="228.7047,-189.4097 233.8763,-180.1628 224.067,-184.1664 228.7047,-189.4097"/>
<g id="a_edge29&#45;headlabel"><a xlink:href="dir_000024_000012.html" target="_top" xlink:title="2">
<text text-anchor="middle" x="227.8933" y="-191.4179" font-family="Helvetica,sans-Serif" font-size="10.00" fill="#000000">2</text>
</a>
</g>
</g>
<!-- dir_31691989b6ffa820edb06b9eb32cc520&#45;&gt;dir_4d620431c9b0dc62fca23e1ed91a49b6 -->
<g id="edge30" class="edge">
<title>dir_31691989b6ffa820edb06b9eb32cc520&#45;&gt;dir_4d620431c9b0dc62fca23e1ed91a49b6</title>
<path fill="none" stroke="#000000" d="M282.0469,-180.1079C308.5226,-202.3727 350.8921,-242.8091 371,-288 379.6549,-307.4513 381.9514,-331.5083 382.1946,-349.8552"/>
<polygon fill="#000000" stroke="#000000" points="378.6944,-349.8985 382.1331,-359.9198 385.6943,-349.9414 378.6944,-349.8985"/>
<g id="a_edge30&#45;headlabel"><a xlink:href="dir_000012_000019.html" target="_top" xlink:title="10">
<text text-anchor="middle" x="375.8771" y="-343.7867" font-family="Helvetica,sans-Serif" font-size="10.00" fill="#000000">10</text>
</a>
</g>
</g>
<!-- dir_31691989b6ffa820edb06b9eb32cc520&#45;&gt;dir_7a44753a182d2dd0cd15cfa7be7c0c89 -->
<g id="edge31" class="edge">
<title>dir_31691989b6ffa820edb06b9eb32cc520&#45;&gt;dir_7a44753a182d2dd0cd15cfa7be7c0c89</title>
<path fill="none" stroke="#000000" d="M245.1212,-143.8314C238.7864,-135.5386 231.1616,-125.557 224.2074,-116.4533"/>
<polygon fill="#000000" stroke="#000000" points="226.9175,-114.2353 218.0657,-108.4133 221.3548,-118.4847 226.9175,-114.2353"/>
<g id="a_edge31&#45;headlabel"><a xlink:href="dir_000012_000059.html" target="_top" xlink:title="5">
<text text-anchor="middle" x="231.3558" y="-112.8683" font-family="Helvetica,sans-Serif" font-size="10.00" fill="#000000">5</text>
</a>
</g>
</g>
<!-- dir_31691989b6ffa820edb06b9eb32cc520&#45;&gt;dir_1604d568fa4d964dfa9079b701bbfa07 -->
<g id="edge32" class="edge">
<title>dir_31691989b6ffa820edb06b9eb32cc520&#45;&gt;dir_1604d568fa4d964dfa9079b701bbfa07</title>
<path fill="none" stroke="#000000" d="M257.2095,-143.8083C254.9112,-125.1875 249.9655,-95.7008 240,-72 236.0456,-62.5953 230.3848,-53.0879 224.7195,-44.727"/>
<polygon fill="#000000" stroke="#000000" points="227.5184,-42.6231 218.8853,-36.4815 221.8041,-46.6664 227.5184,-42.6231"/>
<g id="a_edge32&#45;headlabel"><a xlink:href="dir_000012_000000.html" target="_top" xlink:title="30">
<text text-anchor="middle" x="231.9124" y="-41.4175" font-family="Helvetica,sans-Serif" font-size="10.00" fill="#000000">30</text>
</a>
</g>
</g>
<!-- dir_31691989b6ffa820edb06b9eb32cc520&#45;&gt;dir_cf78ae8ffd0f6192e117b8a1751c2bbd -->
<g id="edge33" class="edge">
<title>dir_31691989b6ffa820edb06b9eb32cc520&#45;&gt;dir_cf78ae8ffd0f6192e117b8a1751c2bbd</title>
<path fill="none" stroke="#000000" d="M277.6733,-143.8314C286.5249,-135.219 297.2486,-124.7851 306.8895,-115.4048"/>
<polygon fill="#000000" stroke="#000000" points="309.6061,-117.645 314.3326,-108.1628 304.7246,-112.6279 309.6061,-117.645"/>
<g id="a_edge33&#45;headlabel"><a xlink:href="dir_000012_000055.html" target="_top" xlink:title="8">
<text text-anchor="middle" x="309.0098" y="-119.6866" font-family="Helvetica,sans-Serif" font-size="10.00" fill="#000000">8</text>
</a>
</g>
</g>
<!-- dir_31691989b6ffa820edb06b9eb32cc520&#45;&gt;dir_b708e75f0564cefaa95a07ef1c60fa1d -->
<g id="edge34" class="edge">
<title>dir_31691989b6ffa820edb06b9eb32cc520&#45;&gt;dir_b708e75f0564cefaa95a07ef1c60fa1d</title>
<path fill="none" stroke="#000000" d="M245.5398,-180.4133C237.1399,-189.1637 226.1219,-199.7519 215.6311,-209.1978"/>
<polygon fill="#000000" stroke="#000000" points="213.3025,-206.5847 208.1304,-215.8314 217.9399,-211.8283 213.3025,-206.5847"/>
<g id="a_edge34&#45;headlabel"><a xlink:href="dir_000012_000024.html" target="_top" xlink:title="10">
<text text-anchor="middle" x="214.1142" y="-199.5766" font-family="Helvetica,sans-Serif" font-size="10.00" fill="#000000">10</text>
</a>
</g>
</g>
</g>
</svg>
