<?xml version="1.0" encoding="UTF-8" standalone="no"?>
<!DOCTYPE svg PUBLIC "-//W3C//DTD SVG 1.1//EN"
 "http://www.w3.org/Graphics/SVG/1.1/DTD/svg11.dtd">
<!-- Generated by graphviz version 2.38.0 (20140413.2041)
 -->
<!-- Title: Game Pages: 1 -->
<svg width="876pt" height="548pt"
 viewBox="0.00 0.00 876.00 548.00" xmlns="http://www.w3.org/2000/svg" xmlns:xlink="http://www.w3.org/1999/xlink">
<g id="graph0" class="graph" transform="scale(1 1) rotate(0) translate(4 544)">
<title>Game</title>
<polygon fill="white" stroke="none" points="-4,4 -4,-544 872,-544 872,4 -4,4"/>
<g id="clust1" class="cluster"><title>clusterdir_8fc34afb5f07a67966c78bf5319f94ae</title>
<g id="a_clust1"><a xlink:href="dir_8fc34afb5f07a67966c78bf5319f94ae.html" target="_top" xlink:title="Carla">
<polygon fill="#ddddee" stroke="black" points="343,-352 343,-423 413,-423 413,-352 343,-352"/>
<text text-anchor="middle" x="378" y="-411" font-family="Helvetica,sans-Serif" font-size="10.00">Carla</text>
</a>
</g>
</g>
<!-- dir_b708e75f0564cefaa95a07ef1c60fa1d -->
<g id="node1" class="node"><title>dir_b708e75f0564cefaa95a07ef1c60fa1d</title>
<g id="a_node1"><a xlink:href="dir_b708e75f0564cefaa95a07ef1c60fa1d.html" target="_top" xlink:title="Game">
<polygon fill="#eeeeff" stroke="black" points="405,-396 351,-396 351,-360 405,-360 405,-396"/>
<text text-anchor="middle" x="378" y="-375.5" font-family="Helvetica,sans-Serif" font-size="10.00">Game</text>
</a>
</g>
</g>
<!-- dir_c0211e659583c36c301432102f960843 -->
<g id="node2" class="node"><title>dir_c0211e659583c36c301432102f960843</title>
<g id="a_node2"><a xlink:href="dir_c0211e659583c36c301432102f960843.html" target="_top" xlink:title="Util">
<polygon fill="none" stroke="black" points="688,-324 634,-324 634,-288 688,-288 688,-324"/>
<text text-anchor="middle" x="661" y="-303.5" font-family="Helvetica,sans-Serif" font-size="10.00">Util</text>
</a>
</g>
</g>
<!-- dir_b708e75f0564cefaa95a07ef1c60fa1d&#45;&gt;dir_c0211e659583c36c301432102f960843 -->
<g id="edge34" class="edge"><title>dir_b708e75f0564cefaa95a07ef1c60fa1d&#45;&gt;dir_c0211e659583c36c301432102f960843</title>
<path fill="none" stroke="black" d="M405.135,-370.288C456.164,-357.666 566.463,-330.384 624.149,-316.115"/>
<polygon fill="black" stroke="black" points="625.08,-319.49 633.947,-313.692 623.399,-312.695 625.08,-319.49"/>
<g id="a_edge34&#45;headlabel"><a xlink:href="dir_000022_000011.html" target="_top" xlink:title="4">
<text text-anchor="middle" x="622.272" y="-320.61" font-family="Helvetica,sans-Serif" font-size="10.00">4</text>
</a>
</g>
</g>
<!-- dir_b3a8bd261fb98563f858806beb7e2741 -->
<g id="node3" class="node"><title>dir_b3a8bd261fb98563f858806beb7e2741</title>
<g id="a_node3"><a xlink:href="dir_b3a8bd261fb98563f858806beb7e2741.html" target="_top" xlink:title="Weather">
<polygon fill="none" stroke="black" points="274,-324 218,-324 218,-288 274,-288 274,-324"/>
<text text-anchor="middle" x="246" y="-303.5" font-family="Helvetica,sans-Serif" font-size="10.00">Weather</text>
</a>
</g>
</g>
<!-- dir_b708e75f0564cefaa95a07ef1c60fa1d&#45;&gt;dir_b3a8bd261fb98563f858806beb7e2741 -->
<g id="edge35" class="edge"><title>dir_b708e75f0564cefaa95a07ef1c60fa1d&#45;&gt;dir_b3a8bd261fb98563f858806beb7e2741</title>
<path fill="none" stroke="black" d="M350.969,-362.666C331.434,-352.306 304.802,-338.183 283.252,-326.755"/>
<polygon fill="black" stroke="black" points="284.837,-323.634 274.363,-322.041 281.558,-329.818 284.837,-323.634"/>
<g id="a_edge35&#45;headlabel"><a xlink:href="dir_000022_000058.html" target="_top" xlink:title="2">
<text text-anchor="middle" x="289.343" y="-320.31" font-family="Helvetica,sans-Serif" font-size="10.00">2</text>
</a>
</g>
</g>
<!-- dir_4d620431c9b0dc62fca23e1ed91a49b6 -->
<g id="node4" class="node"><title>dir_4d620431c9b0dc62fca23e1ed91a49b6</title>
<g id="a_node4"><a xlink:href="dir_4d620431c9b0dc62fca23e1ed91a49b6.html" target="_top" xlink:title="Vehicle">
<polygon fill="none" stroke="black" points="518,-252 464,-252 464,-216 518,-216 518,-252"/>
<text text-anchor="middle" x="491" y="-231.5" font-family="Helvetica,sans-Serif" font-size="10.00">Vehicle</text>
</a>
</g>
</g>
<!-- dir_b708e75f0564cefaa95a07ef1c60fa1d&#45;&gt;dir_4d620431c9b0dc62fca23e1ed91a49b6 -->
<g id="edge36" class="edge"><title>dir_b708e75f0564cefaa95a07ef1c60fa1d&#45;&gt;dir_4d620431c9b0dc62fca23e1ed91a49b6</title>
<path fill="none" stroke="black" d="M380.822,-359.667C384.67,-340.464 393.111,-309.394 410,-288 421.838,-273.004 439.137,-260.875 454.711,-252.024"/>
<polygon fill="black" stroke="black" points="456.501,-255.034 463.627,-247.194 453.167,-248.879 456.501,-255.034"/>
<g id="a_edge36&#45;headlabel"><a xlink:href="dir_000022_000029.html" target="_top" xlink:title="1">
<text text-anchor="middle" x="454.693" y="-256.743" font-family="Helvetica,sans-Serif" font-size="10.00">1</text>
</a>
</g>
</g>
<!-- dir_d0b0d7f8e453984c2ffe9ea659d3c27f -->
<g id="node5" class="node"><title>dir_d0b0d7f8e453984c2ffe9ea659d3c27f</title>
<g id="a_node5"><a xlink:href="dir_d0b0d7f8e453984c2ffe9ea659d3c27f.html" target="_top" xlink:title="OpenDrive">
<polygon fill="none" stroke="black" points="551.5,-108 484.5,-108 484.5,-72 551.5,-72 551.5,-108"/>
<text text-anchor="middle" x="518" y="-87.5" font-family="Helvetica,sans-Serif" font-size="10.00">OpenDrive</text>
</a>
</g>
</g>
<!-- dir_b708e75f0564cefaa95a07ef1c60fa1d&#45;&gt;dir_d0b0d7f8e453984c2ffe9ea659d3c27f -->
<g id="edge37" class="edge"><title>dir_b708e75f0564cefaa95a07ef1c60fa1d&#45;&gt;dir_d0b0d7f8e453984c2ffe9ea659d3c27f</title>
<path fill="none" stroke="black" d="M350.822,-377.555C312.004,-376.69 241.763,-368.61 209,-324 199.529,-311.104 201.845,-302.311 209,-288 262.329,-181.342 403.211,-125.262 474.852,-102.872"/>
<polygon fill="black" stroke="black" points="475.94,-106.199 484.484,-99.9348 473.898,-99.5038 475.94,-106.199"/>
<g id="a_edge37&#45;headlabel"><a xlink:href="dir_000022_000048.html" target="_top" xlink:title="1">
<text text-anchor="middle" x="473.33" y="-107.464" font-family="Helvetica,sans-Serif" font-size="10.00">1</text>
</a>
</g>
</g>
<!-- dir_300f092198dff90fa236d1c5a9b26b0c -->
<g id="node6" class="node"><title>dir_300f092198dff90fa236d1c5a9b26b0c</title>
<g id="a_node6"><a xlink:href="dir_300f092198dff90fa236d1c5a9b26b0c.html" target="_top" xlink:title="Lights">
<polygon fill="none" stroke="black" points="350,-468 296,-468 296,-432 350,-432 350,-468"/>
<text text-anchor="middle" x="323" y="-447.5" font-family="Helvetica,sans-Serif" font-size="10.00">Lights</text>
</a>
</g>
</g>
<!-- dir_b708e75f0564cefaa95a07ef1c60fa1d&#45;&gt;dir_300f092198dff90fa236d1c5a9b26b0c -->
<g id="edge38" class="edge"><title>dir_b708e75f0564cefaa95a07ef1c60fa1d&#45;&gt;dir_300f092198dff90fa236d1c5a9b26b0c</title>
<path fill="none" stroke="black" d="M358.666,-396.104C351.369,-404.298 343.313,-414.282 336.615,-423.359"/>
<polygon fill="black" stroke="black" points="333.628,-421.52 330.68,-431.697 339.331,-425.58 333.628,-421.52"/>
<g id="a_edge38&#45;headlabel"><a xlink:href="dir_000022_000023.html" target="_top" xlink:title="1">
<text text-anchor="middle" x="333.4" y="-414.445" font-family="Helvetica,sans-Serif" font-size="10.00">1</text>
</a>
</g>
</g>
<!-- dir_0dd3f6464b0e5c5db135a4b73b996175 -->
<g id="node7" class="node"><title>dir_0dd3f6464b0e5c5db135a4b73b996175</title>
<g id="a_node7"><a xlink:href="dir_0dd3f6464b0e5c5db135a4b73b996175.html" target="_top" xlink:title="Recorder">
<polygon fill="none" stroke="black" points="407.5,-540 348.5,-540 348.5,-504 407.5,-504 407.5,-540"/>
<text text-anchor="middle" x="378" y="-519.5" font-family="Helvetica,sans-Serif" font-size="10.00">Recorder</text>
</a>
</g>
</g>
<!-- dir_b708e75f0564cefaa95a07ef1c60fa1d&#45;&gt;dir_0dd3f6464b0e5c5db135a4b73b996175 -->
<g id="edge39" class="edge"><title>dir_b708e75f0564cefaa95a07ef1c60fa1d&#45;&gt;dir_0dd3f6464b0e5c5db135a4b73b996175</title>
<path fill="none" stroke="black" d="M378,-396.189C378,-420.424 378,-464.888 378,-493.679"/>
<polygon fill="black" stroke="black" points="374.5,-493.871 378,-503.871 381.5,-493.872 374.5,-493.871"/>
<g id="a_edge39&#45;headlabel"><a xlink:href="dir_000022_000026.html" target="_top" xlink:title="2">
<text text-anchor="middle" x="371.661" y="-487.777" font-family="Helvetica,sans-Serif" font-size="10.00">2</text>
</a>
</g>
</g>
<!-- dir_32df69f29a08a23c97cd630e5cd47b2e -->
<g id="node8" class="node"><title>dir_32df69f29a08a23c97cd630e5cd47b2e</title>
<g id="a_node8"><a xlink:href="dir_32df69f29a08a23c97cd630e5cd47b2e.html" target="_top" xlink:title="Sensor">
<polygon fill="none" stroke="black" points="688,-396 634,-396 634,-360 688,-360 688,-396"/>
<text text-anchor="middle" x="661" y="-375.5" font-family="Helvetica,sans-Serif" font-size="10.00">Sensor</text>
</a>
</g>
</g>
<!-- dir_b708e75f0564cefaa95a07ef1c60fa1d&#45;&gt;dir_32df69f29a08a23c97cd630e5cd47b2e -->
<g id="edge40" class="edge"><title>dir_b708e75f0564cefaa95a07ef1c60fa1d&#45;&gt;dir_32df69f29a08a23c97cd630e5cd47b2e</title>
<path fill="none" stroke="black" d="M405.084,-378C477.805,-378 550.526,-378 623.248,-378"/>
<polygon fill="black" stroke="black" points="623.509,-381.5 633.509,-378 623.509,-374.5 623.509,-381.5"/>
<g id="a_edge40&#45;headlabel"><a xlink:href="dir_000022_000018.html" target="_top" xlink:title="4">
<text text-anchor="middle" x="619.914" y="-381.839" font-family="Helvetica,sans-Serif" font-size="10.00">4</text>
</a>
</g>
</g>
<!-- dir_1604d568fa4d964dfa9079b701bbfa07 -->
<g id="node9" class="node"><title>dir_1604d568fa4d964dfa9079b701bbfa07</title>
<g id="a_node9"><a xlink:href="dir_1604d568fa4d964dfa9079b701bbfa07.html" target="_top" xlink:title="LibCarla">
<polygon fill="white" stroke="red" points="706.5,-36 651.5,-36 651.5,-0 706.5,-0 706.5,-36"/>
<text text-anchor="middle" x="679" y="-15.5" font-family="Helvetica,sans-Serif" font-size="10.00">LibCarla</text>
</a>
</g>
</g>
<!-- dir_b708e75f0564cefaa95a07ef1c60fa1d&#45;&gt;dir_1604d568fa4d964dfa9079b701bbfa07 -->
<g id="edge41" class="edge"><title>dir_b708e75f0564cefaa95a07ef1c60fa1d&#45;&gt;dir_1604d568fa4d964dfa9079b701bbfa07</title>
<path fill="none" stroke="black" d="M350.934,-376.634C276.808,-374.065 76,-355.944 76,-235 76,-235 76,-235 76,-161 76,-44.3734 508.776,-23.4389 641.054,-19.7641"/>
<polygon fill="black" stroke="black" points="641.22,-23.2611 651.125,-19.502 641.038,-16.2635 641.22,-23.2611"/>
<g id="a_edge41&#45;headlabel"><a xlink:href="dir_000022_000000.html" target="_top" xlink:title="19">
<text text-anchor="middle" x="637.7" y="-23.6929" font-family="Helvetica,sans-Serif" font-size="10.00">19</text>
</a>
</g>
</g>
<!-- dir_4f477b896248adf10c6909a9eb9fb7d3 -->
<g id="node10" class="node"><title>dir_4f477b896248adf10c6909a9eb9fb7d3</title>
<g id="a_node10"><a xlink:href="dir_4f477b896248adf10c6909a9eb9fb7d3.html" target="_top" xlink:title="Server">
<polygon fill="none" stroke="black" points="604,-540 550,-540 550,-504 604,-504 604,-540"/>
<text text-anchor="middle" x="577" y="-519.5" font-family="Helvetica,sans-Serif" font-size="10.00">Server</text>
</a>
</g>
</g>
<!-- dir_b708e75f0564cefaa95a07ef1c60fa1d&#45;&gt;dir_4f477b896248adf10c6909a9eb9fb7d3 -->
<g id="edge42" class="edge"><title>dir_b708e75f0564cefaa95a07ef1c60fa1d&#45;&gt;dir_4f477b896248adf10c6909a9eb9fb7d3</title>
<path fill="none" stroke="black" d="M394.658,-396.078C413.709,-415.051 446.364,-445.918 478,-468 497.783,-481.809 521.574,-494.652 540.874,-504.236"/>
<polygon fill="black" stroke="black" points="539.43,-507.426 549.952,-508.67 542.502,-501.136 539.43,-507.426"/>
<g id="a_edge42&#45;headlabel"><a xlink:href="dir_000022_000027.html" target="_top" xlink:title="3">
<text text-anchor="middle" x="534.954" y="-505.9" font-family="Helvetica,sans-Serif" font-size="10.00">3</text>
</a>
</g>
</g>
<!-- dir_cf78ae8ffd0f6192e117b8a1751c2bbd -->
<g id="node11" class="node"><title>dir_cf78ae8ffd0f6192e117b8a1751c2bbd</title>
<g id="a_node11"><a xlink:href="dir_cf78ae8ffd0f6192e117b8a1751c2bbd.html" target="_top" xlink:title="Traffic">
<polygon fill="none" stroke="black" points="573,-180 519,-180 519,-144 573,-144 573,-180"/>
<text text-anchor="middle" x="546" y="-159.5" font-family="Helvetica,sans-Serif" font-size="10.00">Traffic</text>
</a>
</g>
</g>
<!-- dir_b708e75f0564cefaa95a07ef1c60fa1d&#45;&gt;dir_cf78ae8ffd0f6192e117b8a1751c2bbd -->
<g id="edge43" class="edge"><title>dir_b708e75f0564cefaa95a07ef1c60fa1d&#45;&gt;dir_cf78ae8ffd0f6192e117b8a1751c2bbd</title>
<path fill="none" stroke="black" d="M376.822,-359.756C376.245,-341.18 377.354,-311.171 388,-288 412.096,-235.553 470.776,-198.782 509.444,-179.27"/>
<polygon fill="black" stroke="black" points="511.369,-182.224 518.81,-174.682 508.29,-175.938 511.369,-182.224"/>
<g id="a_edge43&#45;headlabel"><a xlink:href="dir_000022_000053.html" target="_top" xlink:title="1">
<text text-anchor="middle" x="509.39" y="-183.855" font-family="Helvetica,sans-Serif" font-size="10.00">1</text>
</a>
</g>
</g>
<!-- dir_61a866aca8f5011fad0bfe0df06e6f79 -->
<g id="node12" class="node"><title>dir_61a866aca8f5011fad0bfe0df06e6f79</title>
<g id="a_node12"><a xlink:href="dir_61a866aca8f5011fad0bfe0df06e6f79.html" target="_top" xlink:title="Settings">
<polygon fill="none" stroke="black" points="800,-396 744,-396 744,-360 800,-360 800,-396"/>
<text text-anchor="middle" x="772" y="-375.5" font-family="Helvetica,sans-Serif" font-size="10.00">Settings</text>
</a>
</g>
</g>
<!-- dir_b708e75f0564cefaa95a07ef1c60fa1d&#45;&gt;dir_61a866aca8f5011fad0bfe0df06e6f79 -->
<g id="edge44" class="edge"><title>dir_b708e75f0564cefaa95a07ef1c60fa1d&#45;&gt;dir_61a866aca8f5011fad0bfe0df06e6f79</title>
<path fill="none" stroke="black" d="M405.094,-394.253C426.489,-406.092 457.546,-421.125 487,-427.5 508.828,-432.224 666.264,-432.631 688,-427.5 707.142,-422.981 726.213,-412.367 741.333,-402.121"/>
<polygon fill="black" stroke="black" points="743.599,-404.806 749.75,-396.18 739.562,-399.087 743.599,-404.806"/>
<g id="a_edge44&#45;headlabel"><a xlink:href="dir_000022_000028.html" target="_top" xlink:title="7">
<text text-anchor="middle" x="742.299" y="-406.699" font-family="Helvetica,sans-Serif" font-size="10.00">7</text>
</a>
</g>
</g>
<!-- dir_31691989b6ffa820edb06b9eb32cc520 -->
<g id="node13" class="node"><title>dir_31691989b6ffa820edb06b9eb32cc520</title>
<g id="a_node13"><a xlink:href="dir_31691989b6ffa820edb06b9eb32cc520.html" target="_top" xlink:title="Actor">
<polygon fill="none" stroke="black" points="604,-468 550,-468 550,-432 604,-432 604,-468"/>
<text text-anchor="middle" x="577" y="-447.5" font-family="Helvetica,sans-Serif" font-size="10.00">Actor</text>
</a>
</g>
</g>
<!-- dir_b708e75f0564cefaa95a07ef1c60fa1d&#45;&gt;dir_31691989b6ffa820edb06b9eb32cc520 -->
<g id="edge45" class="edge"><title>dir_b708e75f0564cefaa95a07ef1c60fa1d&#45;&gt;dir_31691989b6ffa820edb06b9eb32cc520</title>
<path fill="none" stroke="black" d="M405.268,-390.4C440.281,-403.474 500.843,-424.774 539.977,-437.775"/>
<polygon fill="black" stroke="black" points="539.085,-441.166 549.678,-440.97 541.275,-434.517 539.085,-441.166"/>
<g id="a_edge45&#45;headlabel"><a xlink:href="dir_000022_000012.html" target="_top" xlink:title="2">
<text text-anchor="middle" x="534.783" y="-440.238" font-family="Helvetica,sans-Serif" font-size="10.00">2</text>
</a>
</g>
</g>
<!-- dir_c0211e659583c36c301432102f960843&#45;&gt;dir_4d620431c9b0dc62fca23e1ed91a49b6 -->
<g id="edge1" class="edge"><title>dir_c0211e659583c36c301432102f960843&#45;&gt;dir_4d620431c9b0dc62fca23e1ed91a49b6</title>
<path fill="none" stroke="black" d="M633.658,-293.649C629.098,-291.76 624.416,-289.823 620,-288 588.842,-275.14 553.424,-260.593 527.592,-249.997"/>
<polygon fill="black" stroke="black" points="528.771,-246.698 518.19,-246.141 526.114,-253.174 528.771,-246.698"/>
<g id="a_edge1&#45;headlabel"><a xlink:href="dir_000011_000029.html" target="_top" xlink:title="1">
<text text-anchor="middle" x="533.174" y="-242.935" font-family="Helvetica,sans-Serif" font-size="10.00">1</text>
</a>
</g>
</g>
<!-- dir_c0211e659583c36c301432102f960843&#45;&gt;dir_1604d568fa4d964dfa9079b701bbfa07 -->
<g id="edge2" class="edge"><title>dir_c0211e659583c36c301432102f960843&#45;&gt;dir_1604d568fa4d964dfa9079b701bbfa07</title>
<path fill="none" stroke="black" d="M662.072,-287.966C665.073,-240.291 673.576,-105.185 677.261,-46.63"/>
<polygon fill="black" stroke="black" points="680.776,-46.5066 677.911,-36.3065 673.789,-46.0668 680.776,-46.5066"/>
<g id="a_edge2&#45;headlabel"><a xlink:href="dir_000011_000000.html" target="_top" xlink:title="7">
<text text-anchor="middle" x="683.384" y="-47.7724" font-family="Helvetica,sans-Serif" font-size="10.00">7</text>
</a>
</g>
</g>
<!-- dir_c0211e659583c36c301432102f960843&#45;&gt;dir_cf78ae8ffd0f6192e117b8a1751c2bbd -->
<g id="edge3" class="edge"><title>dir_c0211e659583c36c301432102f960843&#45;&gt;dir_cf78ae8ffd0f6192e117b8a1751c2bbd</title>
<path fill="none" stroke="black" d="M642.544,-287.871C619.898,-263.137 582.483,-217.242 561.336,-188.512"/>
<polygon fill="black" stroke="black" points="564.02,-186.25 555.33,-180.189 558.344,-190.346 564.02,-186.25"/>
<g id="a_edge3&#45;headlabel"><a xlink:href="dir_000011_000053.html" target="_top" xlink:title="1">
<text text-anchor="middle" x="568.426" y="-185.004" font-family="Helvetica,sans-Serif" font-size="10.00">1</text>
</a>
</g>
</g>
<!-- dir_4d620431c9b0dc62fca23e1ed91a49b6&#45;&gt;dir_b708e75f0564cefaa95a07ef1c60fa1d -->
<g id="edge5" class="edge"><title>dir_4d620431c9b0dc62fca23e1ed91a49b6&#45;&gt;dir_b708e75f0564cefaa95a07ef1c60fa1d</title>
<path fill="none" stroke="black" d="M473.278,-252.025C463.12,-262.116 450.37,-275.366 440,-288 423.416,-308.204 406.589,-332.663 394.657,-350.824"/>
<polygon fill="black" stroke="black" points="391.409,-349.399 388.892,-359.69 397.277,-353.215 391.409,-349.399"/>
<g id="a_edge5&#45;headlabel"><a xlink:href="dir_000029_000022.html" target="_top" xlink:title="1">
<text text-anchor="middle" x="390.988" y="-342.338" font-family="Helvetica,sans-Serif" font-size="10.00">1</text>
</a>
</g>
</g>
<!-- dir_4d620431c9b0dc62fca23e1ed91a49b6&#45;&gt;dir_cf78ae8ffd0f6192e117b8a1751c2bbd -->
<g id="edge4" class="edge"><title>dir_4d620431c9b0dc62fca23e1ed91a49b6&#45;&gt;dir_cf78ae8ffd0f6192e117b8a1751c2bbd</title>
<path fill="none" stroke="black" d="M498.68,-215.697C504.408,-207.305 512.257,-197.07 519.974,-187.861"/>
<polygon fill="black" stroke="black" points="522.784,-189.962 526.666,-180.104 517.484,-185.39 522.784,-189.962"/>
<g id="a_edge4&#45;headlabel"><a xlink:href="dir_000029_000053.html" target="_top" xlink:title="2">
<text text-anchor="middle" x="522.586" y="-192.039" font-family="Helvetica,sans-Serif" font-size="10.00">2</text>
</a>
</g>
</g>
<!-- dir_d0b0d7f8e453984c2ffe9ea659d3c27f&#45;&gt;dir_b708e75f0564cefaa95a07ef1c60fa1d -->
<g id="edge10" class="edge"><title>dir_d0b0d7f8e453984c2ffe9ea659d3c27f&#45;&gt;dir_b708e75f0564cefaa95a07ef1c60fa1d</title>
<path fill="none" stroke="black" d="M484.33,-90.9266C406.066,-91.5458 215.537,-97.8638 176,-144 123.943,-204.746 127.134,-260.659 176,-324 195.984,-349.903 288.179,-365.624 340.842,-372.646"/>
<polygon fill="black" stroke="black" points="340.449,-376.124 350.815,-373.935 341.346,-369.182 340.449,-376.124"/>
<g id="a_edge10&#45;headlabel"><a xlink:href="dir_000048_000022.html" target="_top" xlink:title="1">
<text text-anchor="middle" x="336.52" y="-375.979" font-family="Helvetica,sans-Serif" font-size="10.00">1</text>
</a>
</g>
</g>
<!-- dir_d0b0d7f8e453984c2ffe9ea659d3c27f&#45;&gt;dir_c0211e659583c36c301432102f960843 -->
<g id="edge6" class="edge"><title>dir_d0b0d7f8e453984c2ffe9ea659d3c27f&#45;&gt;dir_c0211e659583c36c301432102f960843</title>
<path fill="none" stroke="black" d="M542.466,-108.192C555.154,-117.829 570.382,-130.588 582,-144 617.286,-184.735 640.972,-243.989 652.612,-278.097"/>
<polygon fill="black" stroke="black" points="649.369,-279.435 655.838,-287.826 656.013,-277.233 649.369,-279.435"/>
<g id="a_edge6&#45;headlabel"><a xlink:href="dir_000048_000011.html" target="_top" xlink:title="1">
<text text-anchor="middle" x="645.543" y="-274.417" font-family="Helvetica,sans-Serif" font-size="10.00">1</text>
</a>
</g>
</g>
<!-- dir_d0b0d7f8e453984c2ffe9ea659d3c27f&#45;&gt;dir_4d620431c9b0dc62fca23e1ed91a49b6 -->
<g id="edge7" class="edge"><title>dir_d0b0d7f8e453984c2ffe9ea659d3c27f&#45;&gt;dir_4d620431c9b0dc62fca23e1ed91a49b6</title>
<path fill="none" stroke="black" d="M514.732,-108.189C510.124,-132.424 501.669,-176.888 496.195,-205.679"/>
<polygon fill="black" stroke="black" points="492.686,-205.394 494.257,-215.871 499.563,-206.701 492.686,-205.394"/>
<g id="a_edge7&#45;headlabel"><a xlink:href="dir_000048_000029.html" target="_top" xlink:title="2">
<text text-anchor="middle" x="490.569" y="-198.832" font-family="Helvetica,sans-Serif" font-size="10.00">2</text>
</a>
</g>
</g>
<!-- dir_d0b0d7f8e453984c2ffe9ea659d3c27f&#45;&gt;dir_1604d568fa4d964dfa9079b701bbfa07 -->
<g id="edge8" class="edge"><title>dir_d0b0d7f8e453984c2ffe9ea659d3c27f&#45;&gt;dir_1604d568fa4d964dfa9079b701bbfa07</title>
<path fill="none" stroke="black" d="M551.751,-74.3257C578.228,-62.814 615.03,-46.8129 642.249,-34.9788"/>
<polygon fill="black" stroke="black" points="643.669,-38.178 651.444,-30.9809 640.878,-31.7585 643.669,-38.178"/>
<g id="a_edge8&#45;headlabel"><a xlink:href="dir_000048_000000.html" target="_top" xlink:title="20">
<text text-anchor="middle" x="641.504" y="-39.715" font-family="Helvetica,sans-Serif" font-size="10.00">20</text>
</a>
</g>
</g>
<!-- dir_d0b0d7f8e453984c2ffe9ea659d3c27f&#45;&gt;dir_cf78ae8ffd0f6192e117b8a1751c2bbd -->
<g id="edge9" class="edge"><title>dir_d0b0d7f8e453984c2ffe9ea659d3c27f&#45;&gt;dir_cf78ae8ffd0f6192e117b8a1751c2bbd</title>
<path fill="none" stroke="black" d="M530.737,-108.104C534.66,-115.876 538.645,-125.257 541.772,-133.949"/>
<polygon fill="black" stroke="black" points="538.533,-135.3 544.994,-143.697 545.179,-133.103 538.533,-135.3"/>
<g id="a_edge9&#45;headlabel"><a xlink:href="dir_000048_000053.html" target="_top" xlink:title="2">
<text text-anchor="middle" x="534.709" y="-130.278" font-family="Helvetica,sans-Serif" font-size="10.00">2</text>
</a>
</g>
</g>
<!-- dir_300f092198dff90fa236d1c5a9b26b0c&#45;&gt;dir_b708e75f0564cefaa95a07ef1c60fa1d -->
<g id="edge12" class="edge"><title>dir_300f092198dff90fa236d1c5a9b26b0c&#45;&gt;dir_b708e75f0564cefaa95a07ef1c60fa1d</title>
<path fill="none" stroke="black" d="M342.511,-431.697C349.82,-423.474 357.871,-413.483 364.547,-404.421"/>
<polygon fill="black" stroke="black" points="367.517,-406.283 370.456,-396.104 361.811,-402.229 367.517,-406.283"/>
<g id="a_edge12&#45;headlabel"><a xlink:href="dir_000023_000022.html" target="_top" xlink:title="1">
<text text-anchor="middle" x="367.749" y="-408.358" font-family="Helvetica,sans-Serif" font-size="10.00">1</text>
</a>
</g>
</g>
<!-- dir_300f092198dff90fa236d1c5a9b26b0c&#45;&gt;dir_1604d568fa4d964dfa9079b701bbfa07 -->
<g id="edge11" class="edge"><title>dir_300f092198dff90fa236d1c5a9b26b0c&#45;&gt;dir_1604d568fa4d964dfa9079b701bbfa07</title>
<path fill="none" stroke="black" d="M295.931,-442.625C224.79,-424.096 38,-363.236 38,-235 38,-235 38,-235 38,-161 38,-108.985 67.8335,-95.9631 114,-72 206.229,-24.128 530.09,-19.1634 641.229,-18.8987"/>
<polygon fill="black" stroke="black" points="641.31,-22.3987 651.305,-18.8864 641.301,-15.3987 641.31,-22.3987"/>
<g id="a_edge11&#45;headlabel"><a xlink:href="dir_000023_000000.html" target="_top" xlink:title="6">
<text text-anchor="middle" x="637.718" y="-22.7422" font-family="Helvetica,sans-Serif" font-size="10.00">6</text>
</a>
</g>
</g>
<!-- dir_0dd3f6464b0e5c5db135a4b73b996175&#45;&gt;dir_4d620431c9b0dc62fca23e1ed91a49b6 -->
<g id="edge13" class="edge"><title>dir_0dd3f6464b0e5c5db135a4b73b996175&#45;&gt;dir_4d620431c9b0dc62fca23e1ed91a49b6</title>
<path fill="none" stroke="black" d="M384.924,-503.659C392.736,-484.079 405.813,-451.264 417,-423 439.772,-365.463 466.3,-297.948 480.594,-261.53"/>
<polygon fill="black" stroke="black" points="483.893,-262.704 484.287,-252.117 477.376,-260.147 483.893,-262.704"/>
<g id="a_edge13&#45;headlabel"><a xlink:href="dir_000026_000029.html" target="_top" xlink:title="2">
<text text-anchor="middle" x="485.223" y="-264.587" font-family="Helvetica,sans-Serif" font-size="10.00">2</text>
</a>
</g>
</g>
<!-- dir_0dd3f6464b0e5c5db135a4b73b996175&#45;&gt;dir_300f092198dff90fa236d1c5a9b26b0c -->
<g id="edge14" class="edge"><title>dir_0dd3f6464b0e5c5db135a4b73b996175&#45;&gt;dir_300f092198dff90fa236d1c5a9b26b0c</title>
<path fill="none" stroke="black" d="M364.404,-503.697C357.877,-495.389 349.932,-485.277 342.753,-476.141"/>
<polygon fill="black" stroke="black" points="345.369,-473.805 336.439,-468.104 339.865,-478.13 345.369,-473.805"/>
<g id="a_edge14&#45;headlabel"><a xlink:href="dir_000026_000023.html" target="_top" xlink:title="2">
<text text-anchor="middle" x="349.823" y="-472.377" font-family="Helvetica,sans-Serif" font-size="10.00">2</text>
</a>
</g>
</g>
<!-- dir_0dd3f6464b0e5c5db135a4b73b996175&#45;&gt;dir_1604d568fa4d964dfa9079b701bbfa07 -->
<g id="edge15" class="edge"><title>dir_0dd3f6464b0e5c5db135a4b73b996175&#45;&gt;dir_1604d568fa4d964dfa9079b701bbfa07</title>
<path fill="none" stroke="black" d="M348.339,-516.443C259.229,-501.926 0,-453.309 0,-379 0,-379 0,-379 0,-161 0,-114.733 14.678,-96.3808 54,-72 103.905,-41.0578 513.373,-24.6328 641.097,-20.227"/>
<polygon fill="black" stroke="black" points="641.312,-23.7219 651.187,-19.8839 641.074,-16.7259 641.312,-23.7219"/>
<g id="a_edge15&#45;headlabel"><a xlink:href="dir_000026_000000.html" target="_top" xlink:title="6">
<text text-anchor="middle" x="637.816" y="-24.1816" font-family="Helvetica,sans-Serif" font-size="10.00">6</text>
</a>
</g>
</g>
<!-- dir_0dd3f6464b0e5c5db135a4b73b996175&#45;&gt;dir_31691989b6ffa820edb06b9eb32cc520 -->
<g id="edge16" class="edge"><title>dir_0dd3f6464b0e5c5db135a4b73b996175&#45;&gt;dir_31691989b6ffa820edb06b9eb32cc520</title>
<path fill="none" stroke="black" d="M407.792,-510.52C443.126,-498.091 502.029,-477.372 540.184,-463.95"/>
<polygon fill="black" stroke="black" points="541.612,-467.158 549.884,-460.538 539.29,-460.555 541.612,-467.158"/>
<g id="a_edge16&#45;headlabel"><a xlink:href="dir_000026_000012.html" target="_top" xlink:title="4">
<text text-anchor="middle" x="539.164" y="-468.529" font-family="Helvetica,sans-Serif" font-size="10.00">4</text>
</a>
</g>
</g>
<!-- dir_32df69f29a08a23c97cd630e5cd47b2e&#45;&gt;dir_b708e75f0564cefaa95a07ef1c60fa1d -->
<g id="edge21" class="edge"><title>dir_32df69f29a08a23c97cd630e5cd47b2e&#45;&gt;dir_b708e75f0564cefaa95a07ef1c60fa1d</title>
<path fill="none" stroke="black" d="M633.509,-378C560.788,-378 488.067,-378 415.345,-378"/>
<polygon fill="black" stroke="black" points="415.084,-374.5 405.084,-378 415.084,-381.5 415.084,-374.5"/>
<g id="a_edge21&#45;headlabel"><a xlink:href="dir_000018_000022.html" target="_top" xlink:title="11">
<text text-anchor="middle" x="418.679" y="-369.161" font-family="Helvetica,sans-Serif" font-size="10.00">11</text>
</a>
</g>
</g>
<!-- dir_32df69f29a08a23c97cd630e5cd47b2e&#45;&gt;dir_c0211e659583c36c301432102f960843 -->
<g id="edge17" class="edge"><title>dir_32df69f29a08a23c97cd630e5cd47b2e&#45;&gt;dir_c0211e659583c36c301432102f960843</title>
<path fill="none" stroke="black" d="M661,-359.697C661,-351.983 661,-342.712 661,-334.112"/>
<polygon fill="black" stroke="black" points="664.5,-334.104 661,-324.104 657.5,-334.104 664.5,-334.104"/>
<g id="a_edge17&#45;headlabel"><a xlink:href="dir_000018_000011.html" target="_top" xlink:title="2">
<text text-anchor="middle" x="667.339" y="-335.199" font-family="Helvetica,sans-Serif" font-size="10.00">2</text>
</a>
</g>
</g>
<!-- dir_32df69f29a08a23c97cd630e5cd47b2e&#45;&gt;dir_4d620431c9b0dc62fca23e1ed91a49b6 -->
<g id="edge18" class="edge"><title>dir_32df69f29a08a23c97cd630e5cd47b2e&#45;&gt;dir_4d620431c9b0dc62fca23e1ed91a49b6</title>
<path fill="none" stroke="black" d="M640.494,-359.871C610.244,-334.604 553.558,-287.254 519.348,-258.679"/>
<polygon fill="black" stroke="black" points="521.497,-255.914 511.579,-252.189 517.01,-261.286 521.497,-255.914"/>
<g id="a_edge18&#45;headlabel"><a xlink:href="dir_000018_000029.html" target="_top" xlink:title="1">
<text text-anchor="middle" x="526.076" y="-253.539" font-family="Helvetica,sans-Serif" font-size="10.00">1</text>
</a>
</g>
</g>
<!-- dir_32df69f29a08a23c97cd630e5cd47b2e&#45;&gt;dir_1604d568fa4d964dfa9079b701bbfa07 -->
<g id="edge19" class="edge"><title>dir_32df69f29a08a23c97cd630e5cd47b2e&#45;&gt;dir_1604d568fa4d964dfa9079b701bbfa07</title>
<path fill="none" stroke="black" d="M682.103,-359.68C709.542,-335.075 754,-287.161 754,-235 754,-235 754,-235 754,-161 754,-115.773 723.885,-70.8461 701.821,-43.9989"/>
<polygon fill="black" stroke="black" points="704.407,-41.6371 695.274,-36.2671 699.065,-46.1605 704.407,-41.6371"/>
<g id="a_edge19&#45;headlabel"><a xlink:href="dir_000018_000000.html" target="_top" xlink:title="51">
<text text-anchor="middle" x="708.897" y="-40.0456" font-family="Helvetica,sans-Serif" font-size="10.00">51</text>
</a>
</g>
</g>
<!-- dir_32df69f29a08a23c97cd630e5cd47b2e&#45;&gt;dir_cf78ae8ffd0f6192e117b8a1751c2bbd -->
<g id="edge20" class="edge"><title>dir_32df69f29a08a23c97cd630e5cd47b2e&#45;&gt;dir_cf78ae8ffd0f6192e117b8a1751c2bbd</title>
<path fill="none" stroke="black" d="M676.61,-359.774C684.373,-350.03 692.946,-337.184 697,-324 701.703,-308.707 703.019,-302.825 697,-288 675.993,-236.257 619.875,-199.489 582.289,-179.758"/>
<polygon fill="black" stroke="black" points="583.665,-176.53 573.165,-175.11 580.487,-182.768 583.665,-176.53"/>
<g id="a_edge20&#45;headlabel"><a xlink:href="dir_000018_000053.html" target="_top" xlink:title="6">
<text text-anchor="middle" x="588.156" y="-173.132" font-family="Helvetica,sans-Serif" font-size="10.00">6</text>
</a>
</g>
</g>
<!-- dir_32df69f29a08a23c97cd630e5cd47b2e&#45;&gt;dir_31691989b6ffa820edb06b9eb32cc520 -->
<g id="edge22" class="edge"><title>dir_32df69f29a08a23c97cd630e5cd47b2e&#45;&gt;dir_31691989b6ffa820edb06b9eb32cc520</title>
<path fill="none" stroke="black" d="M654.887,-396.371C648.341,-404.938 638.725,-415.1 629,-423 624.112,-426.971 618.562,-430.77 612.909,-434.178"/>
<polygon fill="black" stroke="black" points="611.021,-431.224 604.024,-439.18 614.455,-437.324 611.021,-431.224"/>
<g id="a_edge22&#45;headlabel"><a xlink:href="dir_000018_000012.html" target="_top" xlink:title="29">
<text text-anchor="middle" x="612.76" y="-424.487" font-family="Helvetica,sans-Serif" font-size="10.00">29</text>
</a>
</g>
</g>
<!-- dir_4f477b896248adf10c6909a9eb9fb7d3&#45;&gt;dir_c0211e659583c36c301432102f960843 -->
<g id="edge23" class="edge"><title>dir_4f477b896248adf10c6909a9eb9fb7d3&#45;&gt;dir_c0211e659583c36c301432102f960843</title>
<path fill="none" stroke="black" d="M604.233,-507.996C633.356,-492.395 677.919,-463.219 697,-423 710.526,-394.49 707.445,-381.777 697,-352 694.496,-344.86 690.329,-338.012 685.701,-331.906"/>
<polygon fill="black" stroke="black" points="688.293,-329.548 679.217,-324.081 682.903,-334.014 688.293,-329.548"/>
<g id="a_edge23&#45;headlabel"><a xlink:href="dir_000027_000011.html" target="_top" xlink:title="2">
<text text-anchor="middle" x="692.773" y="-328.004" font-family="Helvetica,sans-Serif" font-size="10.00">2</text>
</a>
</g>
</g>
<!-- dir_4f477b896248adf10c6909a9eb9fb7d3&#45;&gt;dir_4d620431c9b0dc62fca23e1ed91a49b6 -->
<g id="edge24" class="edge"><title>dir_4f477b896248adf10c6909a9eb9fb7d3&#45;&gt;dir_4d620431c9b0dc62fca23e1ed91a49b6</title>
<path fill="none" stroke="black" d="M563.921,-503.977C556.561,-493.886 547.561,-480.636 541,-468 505.509,-399.65 495.195,-307.503 492.209,-262.307"/>
<polygon fill="black" stroke="black" points="495.691,-261.902 491.61,-252.124 488.704,-262.313 495.691,-261.902"/>
<g id="a_edge24&#45;headlabel"><a xlink:href="dir_000027_000029.html" target="_top" xlink:title="1">
<text text-anchor="middle" x="498.737" y="-262.823" font-family="Helvetica,sans-Serif" font-size="10.00">1</text>
</a>
</g>
</g>
<!-- dir_4f477b896248adf10c6909a9eb9fb7d3&#45;&gt;dir_d0b0d7f8e453984c2ffe9ea659d3c27f -->
<g id="edge25" class="edge"><title>dir_4f477b896248adf10c6909a9eb9fb7d3&#45;&gt;dir_d0b0d7f8e453984c2ffe9ea659d3c27f</title>
<path fill="none" stroke="black" d="M549.766,-518.633C450.519,-509.268 114,-470.75 114,-379 114,-379 114,-379 114,-233 114,-190.656 114.918,-170.43 148,-144 197.571,-104.397 387.305,-94.3717 474.144,-91.8454"/>
<polygon fill="black" stroke="black" points="474.306,-95.3423 484.208,-91.5729 474.117,-88.3449 474.306,-95.3423"/>
<g id="a_edge25&#45;headlabel"><a xlink:href="dir_000027_000048.html" target="_top" xlink:title="1">
<text text-anchor="middle" x="470.79" y="-95.7777" font-family="Helvetica,sans-Serif" font-size="10.00">1</text>
</a>
</g>
</g>
<!-- dir_4f477b896248adf10c6909a9eb9fb7d3&#45;&gt;dir_32df69f29a08a23c97cd630e5cd47b2e -->
<g id="edge26" class="edge"><title>dir_4f477b896248adf10c6909a9eb9fb7d3&#45;&gt;dir_32df69f29a08a23c97cd630e5cd47b2e</title>
<path fill="none" stroke="black" d="M589.458,-503.628C596.611,-493.42 605.611,-480.17 613,-468 625.53,-447.362 638.45,-423.212 647.726,-405.279"/>
<polygon fill="black" stroke="black" points="651.026,-406.514 652.478,-396.019 644.798,-403.318 651.026,-406.514"/>
<g id="a_edge26&#45;headlabel"><a xlink:href="dir_000027_000018.html" target="_top" xlink:title="1">
<text text-anchor="middle" x="651.911" y="-408.508" font-family="Helvetica,sans-Serif" font-size="10.00">1</text>
</a>
</g>
</g>
<!-- dir_4f477b896248adf10c6909a9eb9fb7d3&#45;&gt;dir_1604d568fa4d964dfa9079b701bbfa07 -->
<g id="edge27" class="edge"><title>dir_4f477b896248adf10c6909a9eb9fb7d3&#45;&gt;dir_1604d568fa4d964dfa9079b701bbfa07</title>
<path fill="none" stroke="black" d="M604.115,-520.214C676.356,-516.54 868,-495.786 868,-379 868,-379 868,-379 868,-161 868,-86.0444 771.808,-45.7655 716.672,-28.8349"/>
<polygon fill="black" stroke="black" points="717.47,-25.4209 706.888,-25.9422 715.485,-32.1337 717.47,-25.4209"/>
<g id="a_edge27&#45;headlabel"><a xlink:href="dir_000027_000000.html" target="_top" xlink:title="27">
<text text-anchor="middle" x="721.722" y="-21.2171" font-family="Helvetica,sans-Serif" font-size="10.00">27</text>
</a>
</g>
</g>
<!-- dir_4f477b896248adf10c6909a9eb9fb7d3&#45;&gt;dir_31691989b6ffa820edb06b9eb32cc520 -->
<g id="edge28" class="edge"><title>dir_4f477b896248adf10c6909a9eb9fb7d3&#45;&gt;dir_31691989b6ffa820edb06b9eb32cc520</title>
<path fill="none" stroke="black" d="M577,-503.697C577,-495.983 577,-486.712 577,-478.112"/>
<polygon fill="black" stroke="black" points="580.5,-478.104 577,-468.104 573.5,-478.104 580.5,-478.104"/>
<g id="a_edge28&#45;headlabel"><a xlink:href="dir_000027_000012.html" target="_top" xlink:title="1">
<text text-anchor="middle" x="583.339" y="-479.199" font-family="Helvetica,sans-Serif" font-size="10.00">1</text>
</a>
</g>
</g>
<!-- dir_cf78ae8ffd0f6192e117b8a1751c2bbd&#45;&gt;dir_b708e75f0564cefaa95a07ef1c60fa1d -->
<g id="edge33" class="edge"><title>dir_cf78ae8ffd0f6192e117b8a1751c2bbd&#45;&gt;dir_b708e75f0564cefaa95a07ef1c60fa1d</title>
<path fill="none" stroke="black" d="M518.928,-165.426C465.535,-170.832 349.763,-185.832 326,-216 296.298,-253.707 307.843,-279.567 326,-324 330.488,-334.983 338.47,-344.919 346.854,-353.142"/>
<polygon fill="black" stroke="black" points="344.508,-355.739 354.248,-359.91 349.235,-350.576 344.508,-355.739"/>
<g id="a_edge33&#45;headlabel"><a xlink:href="dir_000053_000022.html" target="_top" xlink:title="3">
<text text-anchor="middle" x="339.94" y="-352.906" font-family="Helvetica,sans-Serif" font-size="10.00">3</text>
</a>
</g>
</g>
<!-- dir_cf78ae8ffd0f6192e117b8a1751c2bbd&#45;&gt;dir_c0211e659583c36c301432102f960843 -->
<g id="edge29" class="edge"><title>dir_cf78ae8ffd0f6192e117b8a1751c2bbd&#45;&gt;dir_c0211e659583c36c301432102f960843</title>
<path fill="none" stroke="black" d="M564.512,-180.189C587.182,-204.958 624.596,-250.856 645.716,-279.558"/>
<polygon fill="black" stroke="black" points="643.024,-281.809 651.713,-287.871 648.701,-277.714 643.024,-281.809"/>
<g id="a_edge29&#45;headlabel"><a xlink:href="dir_000053_000011.html" target="_top" xlink:title="1">
<text text-anchor="middle" x="638.618" y="-278.055" font-family="Helvetica,sans-Serif" font-size="10.00">1</text>
</a>
</g>
</g>
<!-- dir_cf78ae8ffd0f6192e117b8a1751c2bbd&#45;&gt;dir_4d620431c9b0dc62fca23e1ed91a49b6 -->
<g id="edge30" class="edge"><title>dir_cf78ae8ffd0f6192e117b8a1751c2bbd&#45;&gt;dir_4d620431c9b0dc62fca23e1ed91a49b6</title>
<path fill="none" stroke="black" d="M538.456,-180.104C532.762,-188.467 524.928,-198.694 517.209,-207.92"/>
<polygon fill="black" stroke="black" points="514.385,-205.835 510.511,-215.697 519.689,-210.403 514.385,-205.835"/>
<g id="a_edge30&#45;headlabel"><a xlink:href="dir_000053_000029.html" target="_top" xlink:title="7">
<text text-anchor="middle" x="514.579" y="-198.759" font-family="Helvetica,sans-Serif" font-size="10.00">7</text>
</a>
</g>
</g>
<!-- dir_cf78ae8ffd0f6192e117b8a1751c2bbd&#45;&gt;dir_d0b0d7f8e453984c2ffe9ea659d3c27f -->
<g id="edge31" class="edge"><title>dir_cf78ae8ffd0f6192e117b8a1751c2bbd&#45;&gt;dir_d0b0d7f8e453984c2ffe9ea659d3c27f</title>
<path fill="none" stroke="black" d="M533.163,-143.697C529.239,-135.898 525.261,-126.509 522.148,-117.829"/>
<polygon fill="black" stroke="black" points="525.398,-116.509 518.947,-108.104 518.749,-118.697 525.398,-116.509"/>
<g id="a_edge31&#45;headlabel"><a xlink:href="dir_000053_000048.html" target="_top" xlink:title="2">
<text text-anchor="middle" x="529.219" y="-116.535" font-family="Helvetica,sans-Serif" font-size="10.00">2</text>
</a>
</g>
</g>
<!-- dir_cf78ae8ffd0f6192e117b8a1751c2bbd&#45;&gt;dir_1604d568fa4d964dfa9079b701bbfa07 -->
<g id="edge32" class="edge"><title>dir_cf78ae8ffd0f6192e117b8a1751c2bbd&#45;&gt;dir_1604d568fa4d964dfa9079b701bbfa07</title>
<path fill="none" stroke="black" d="M562.043,-143.871C585.409,-118.924 628.938,-72.4495 655.797,-43.7729"/>
<polygon fill="black" stroke="black" points="658.619,-45.8805 662.9,-36.1893 653.51,-41.0953 658.619,-45.8805"/>
<g id="a_edge32&#45;headlabel"><a xlink:href="dir_000053_000000.html" target="_top" xlink:title="12">
<text text-anchor="middle" x="658.234" y="-47.9449" font-family="Helvetica,sans-Serif" font-size="10.00">12</text>
</a>
</g>
</g>
<!-- dir_61a866aca8f5011fad0bfe0df06e6f79&#45;&gt;dir_c0211e659583c36c301432102f960843 -->
<g id="edge46" class="edge"><title>dir_61a866aca8f5011fad0bfe0df06e6f79&#45;&gt;dir_c0211e659583c36c301432102f960843</title>
<path fill="none" stroke="black" d="M744.846,-359.876C730.467,-350.808 712.619,-339.552 697.09,-329.759"/>
<polygon fill="black" stroke="black" points="698.584,-326.564 688.258,-324.19 694.85,-332.484 698.584,-326.564"/>
<g id="a_edge46&#45;headlabel"><a xlink:href="dir_000028_000011.html" target="_top" xlink:title="1">
<text text-anchor="middle" x="703.139" y="-323.579" font-family="Helvetica,sans-Serif" font-size="10.00">1</text>
</a>
</g>
</g>
<!-- dir_61a866aca8f5011fad0bfe0df06e6f79&#45;&gt;dir_1604d568fa4d964dfa9079b701bbfa07 -->
<g id="edge47" class="edge"><title>dir_61a866aca8f5011fad0bfe0df06e6f79&#45;&gt;dir_1604d568fa4d964dfa9079b701bbfa07</title>
<path fill="none" stroke="black" d="M776.047,-359.622C781.891,-332.967 792,-280.311 792,-235 792,-235 792,-235 792,-161 792,-110.172 747.124,-67.0129 713.932,-42.0428"/>
<polygon fill="black" stroke="black" points="715.92,-39.161 705.779,-36.0927 711.793,-44.8152 715.92,-39.161"/>
<g id="a_edge47&#45;headlabel"><a xlink:href="dir_000028_000000.html" target="_top" xlink:title="3">
<text text-anchor="middle" x="720.498" y="-36.4867" font-family="Helvetica,sans-Serif" font-size="10.00">3</text>
</a>
</g>
</g>
<!-- dir_31691989b6ffa820edb06b9eb32cc520&#45;&gt;dir_b708e75f0564cefaa95a07ef1c60fa1d -->
<g id="edge53" class="edge"><title>dir_31691989b6ffa820edb06b9eb32cc520&#45;&gt;dir_b708e75f0564cefaa95a07ef1c60fa1d</title>
<path fill="none" stroke="black" d="M549.725,-437.597C514.699,-424.518 454.11,-403.209 414.98,-390.211"/>
<polygon fill="black" stroke="black" points="415.873,-386.82 405.28,-387.016 413.683,-393.469 415.873,-386.82"/>
<g id="a_edge53&#45;headlabel"><a xlink:href="dir_000012_000022.html" target="_top" xlink:title="4">
<text text-anchor="middle" x="420.175" y="-382.748" font-family="Helvetica,sans-Serif" font-size="10.00">4</text>
</a>
</g>
</g>
<!-- dir_31691989b6ffa820edb06b9eb32cc520&#45;&gt;dir_c0211e659583c36c301432102f960843 -->
<g id="edge48" class="edge"><title>dir_31691989b6ffa820edb06b9eb32cc520&#45;&gt;dir_c0211e659583c36c301432102f960843</title>
<path fill="none" stroke="black" d="M584.105,-431.932C592.67,-412.079 608.042,-378.624 625,-352 629.212,-345.386 634.22,-338.604 639.141,-332.377"/>
<polygon fill="black" stroke="black" points="642.118,-334.263 645.714,-324.297 636.688,-329.845 642.118,-334.263"/>
<g id="a_edge48&#45;headlabel"><a xlink:href="dir_000012_000011.html" target="_top" xlink:title="2">
<text text-anchor="middle" x="642.052" y="-336.343" font-family="Helvetica,sans-Serif" font-size="10.00">2</text>
</a>
</g>
</g>
<!-- dir_31691989b6ffa820edb06b9eb32cc520&#45;&gt;dir_4d620431c9b0dc62fca23e1ed91a49b6 -->
<g id="edge49" class="edge"><title>dir_31691989b6ffa820edb06b9eb32cc520&#45;&gt;dir_4d620431c9b0dc62fca23e1ed91a49b6</title>
<path fill="none" stroke="black" d="M560.144,-431.831C557.885,-429.017 555.748,-426.027 554,-423 537.827,-395.001 511.463,-306.851 498.576,-261.912"/>
<polygon fill="black" stroke="black" points="501.928,-260.904 495.82,-252.246 495.196,-262.823 501.928,-260.904"/>
<g id="a_edge49&#45;headlabel"><a xlink:href="dir_000012_000029.html" target="_top" xlink:title="1">
<text text-anchor="middle" x="505.643" y="-261.082" font-family="Helvetica,sans-Serif" font-size="10.00">1</text>
</a>
</g>
</g>
<!-- dir_31691989b6ffa820edb06b9eb32cc520&#45;&gt;dir_32df69f29a08a23c97cd630e5cd47b2e -->
<g id="edge50" class="edge"><title>dir_31691989b6ffa820edb06b9eb32cc520&#45;&gt;dir_32df69f29a08a23c97cd630e5cd47b2e</title>
<path fill="none" stroke="black" d="M598.879,-431.829C603.018,-429.057 607.208,-426.08 611,-423 617.99,-417.322 624.923,-410.475 631.39,-403.892"/>
<polygon fill="black" stroke="black" points="634.254,-405.968 638.741,-396.371 629.248,-401.075 634.254,-405.968"/>
<g id="a_edge50&#45;headlabel"><a xlink:href="dir_000012_000018.html" target="_top" xlink:title="6">
<text text-anchor="middle" x="633.772" y="-408.024" font-family="Helvetica,sans-Serif" font-size="10.00">6</text>
</a>
</g>
</g>
<!-- dir_31691989b6ffa820edb06b9eb32cc520&#45;&gt;dir_1604d568fa4d964dfa9079b701bbfa07 -->
<g id="edge51" class="edge"><title>dir_31691989b6ffa820edb06b9eb32cc520&#45;&gt;dir_1604d568fa4d964dfa9079b701bbfa07</title>
<path fill="none" stroke="black" d="M604.192,-447.755C662.251,-444.842 794.269,-436.769 809,-423 847.277,-387.223 830,-359.394 830,-307 830,-307 830,-307 830,-161 830,-98.5107 760.523,-55.4605 715.824,-34.2297"/>
<polygon fill="black" stroke="black" points="717.243,-31.0301 706.696,-30.0314 714.318,-37.3897 717.243,-31.0301"/>
<g id="a_edge51&#45;headlabel"><a xlink:href="dir_000012_000000.html" target="_top" xlink:title="9">
<text text-anchor="middle" x="721.696" y="-27.4526" font-family="Helvetica,sans-Serif" font-size="10.00">9</text>
</a>
</g>
</g>
<!-- dir_31691989b6ffa820edb06b9eb32cc520&#45;&gt;dir_cf78ae8ffd0f6192e117b8a1751c2bbd -->
<g id="edge52" class="edge"><title>dir_31691989b6ffa820edb06b9eb32cc520&#45;&gt;dir_cf78ae8ffd0f6192e117b8a1751c2bbd</title>
<path fill="none" stroke="black" d="M575.154,-431.966C569.975,-384.192 555.281,-248.623 548.955,-190.266"/>
<polygon fill="black" stroke="black" points="552.433,-189.871 547.876,-180.306 545.474,-190.625 552.433,-189.871"/>
<g id="a_edge52&#45;headlabel"><a xlink:href="dir_000012_000053.html" target="_top" xlink:title="1">
<text text-anchor="middle" x="555.643" y="-190.639" font-family="Helvetica,sans-Serif" font-size="10.00">1</text>
</a>
</g>
</g>
</g>
</svg>
