<?xml version="1.0" encoding="UTF-8" standalone="no"?>
<!DOCTYPE svg PUBLIC "-//W3C//DTD SVG 1.1//EN"
 "http://www.w3.org/Graphics/SVG/1.1/DTD/svg11.dtd">
<!-- Generated by graphviz version 2.38.0 (20140413.2041)
 -->
<!-- Title: Actor Pages: 1 -->
<svg width="274pt" height="332pt"
 viewBox="0.00 0.00 273.87 332.00" xmlns="http://www.w3.org/2000/svg" xmlns:xlink="http://www.w3.org/1999/xlink">
<g id="graph0" class="graph" transform="scale(1 1) rotate(0) translate(4 328)">
<title>Actor</title>
<polygon fill="white" stroke="none" points="-4,4 -4,-328 269.867,-328 269.867,4 -4,4"/>
<g id="clust1" class="cluster"><title>clusterdir_8fc34afb5f07a67966c78bf5319f94ae</title>
<g id="a_clust1"><a xlink:href="dir_8fc34afb5f07a67966c78bf5319f94ae.html" target="_top" xlink:title="Carla">
<polygon fill="#ddddee" stroke="black" points="68.7867,-208 68.7867,-279 138.787,-279 138.787,-208 68.7867,-208"/>
<text text-anchor="middle" x="103.787" y="-267" font-family="Helvetica,sans-Serif" font-size="10.00">Carla</text>
</a>
</g>
</g>
<!-- dir_31691989b6ffa820edb06b9eb32cc520 -->
<g id="node1" class="node"><title>dir_31691989b6ffa820edb06b9eb32cc520</title>
<g id="a_node1"><a xlink:href="dir_31691989b6ffa820edb06b9eb32cc520.html" target="_top" xlink:title="Actor">
<polygon fill="#eeeeff" stroke="black" points="130.787,-252 76.7867,-252 76.7867,-216 130.787,-216 130.787,-252"/>
<text text-anchor="middle" x="103.787" y="-231.5" font-family="Helvetica,sans-Serif" font-size="10.00">Actor</text>
</a>
</g>
</g>
<!-- dir_c0211e659583c36c301432102f960843 -->
<g id="node2" class="node"><title>dir_c0211e659583c36c301432102f960843</title>
<g id="a_node2"><a xlink:href="dir_c0211e659583c36c301432102f960843.html" target="_top" xlink:title="Util">
<polygon fill="none" stroke="black" points="130.787,-180 76.7867,-180 76.7867,-144 130.787,-144 130.787,-180"/>
<text text-anchor="middle" x="103.787" y="-159.5" font-family="Helvetica,sans-Serif" font-size="10.00">Util</text>
</a>
</g>
</g>
<!-- dir_31691989b6ffa820edb06b9eb32cc520&#45;&gt;dir_c0211e659583c36c301432102f960843 -->
<g id="edge16" class="edge"><title>dir_31691989b6ffa820edb06b9eb32cc520&#45;&gt;dir_c0211e659583c36c301432102f960843</title>
<path fill="none" stroke="black" d="M103.787,-215.697C103.787,-207.983 103.787,-198.712 103.787,-190.112"/>
<polygon fill="black" stroke="black" points="107.287,-190.104 103.787,-180.104 100.287,-190.104 107.287,-190.104"/>
<g id="a_edge16&#45;headlabel"><a xlink:href="dir_000012_000011.html" target="_top" xlink:title="2">
<text text-anchor="middle" x="110.126" y="-191.199" font-family="Helvetica,sans-Serif" font-size="10.00">2</text>
</a>
</g>
</g>
<!-- dir_4d620431c9b0dc62fca23e1ed91a49b6 -->
<g id="node3" class="node"><title>dir_4d620431c9b0dc62fca23e1ed91a49b6</title>
<g id="a_node3"><a xlink:href="dir_4d620431c9b0dc62fca23e1ed91a49b6.html" target="_top" xlink:title="Vehicle">
<polygon fill="none" stroke="black" points="66.7867,-108 12.7867,-108 12.7867,-72 66.7867,-72 66.7867,-108"/>
<text text-anchor="middle" x="39.7867" y="-87.5" font-family="Helvetica,sans-Serif" font-size="10.00">Vehicle</text>
</a>
</g>
</g>
<!-- dir_31691989b6ffa820edb06b9eb32cc520&#45;&gt;dir_4d620431c9b0dc62fca23e1ed91a49b6 -->
<g id="edge17" class="edge"><title>dir_31691989b6ffa820edb06b9eb32cc520&#45;&gt;dir_4d620431c9b0dc62fca23e1ed91a49b6</title>
<path fill="none" stroke="black" d="M76.7561,-220.127C61.3972,-211.212 43.5342,-197.749 34.7867,-180 25.3064,-160.764 27.5546,-136.275 31.6118,-117.856"/>
<polygon fill="black" stroke="black" points="35.0309,-118.61 34.0614,-108.06 28.24,-116.912 35.0309,-118.61"/>
<g id="a_edge17&#45;headlabel"><a xlink:href="dir_000012_000027.html" target="_top" xlink:title="1">
<text text-anchor="middle" x="36.9135" y="-120.286" font-family="Helvetica,sans-Serif" font-size="10.00">1</text>
</a>
</g>
</g>
<!-- dir_32df69f29a08a23c97cd630e5cd47b2e -->
<g id="node4" class="node"><title>dir_32df69f29a08a23c97cd630e5cd47b2e</title>
<g id="a_node4"><a xlink:href="dir_32df69f29a08a23c97cd630e5cd47b2e.html" target="_top" xlink:title="Sensor">
<polygon fill="none" stroke="black" points="202.787,-324 148.787,-324 148.787,-288 202.787,-288 202.787,-324"/>
<text text-anchor="middle" x="175.787" y="-303.5" font-family="Helvetica,sans-Serif" font-size="10.00">Sensor</text>
</a>
</g>
</g>
<!-- dir_31691989b6ffa820edb06b9eb32cc520&#45;&gt;dir_32df69f29a08a23c97cd630e5cd47b2e -->
<g id="edge18" class="edge"><title>dir_31691989b6ffa820edb06b9eb32cc520&#45;&gt;dir_32df69f29a08a23c97cd630e5cd47b2e</title>
<path fill="none" stroke="black" d="M108.098,-252.186C113.714,-260.706 122.163,-270.881 130.787,-279 133.672,-281.717 136.851,-284.391 140.161,-286.93"/>
<polygon fill="black" stroke="black" points="138.39,-289.966 148.568,-292.91 142.448,-284.262 138.39,-289.966"/>
<g id="a_edge18&#45;headlabel"><a xlink:href="dir_000012_000017.html" target="_top" xlink:title="2">
<text text-anchor="middle" x="133.816" y="-287.696" font-family="Helvetica,sans-Serif" font-size="10.00">2</text>
</a>
</g>
</g>
<!-- dir_1604d568fa4d964dfa9079b701bbfa07 -->
<g id="node5" class="node"><title>dir_1604d568fa4d964dfa9079b701bbfa07</title>
<g id="a_node5"><a xlink:href="dir_1604d568fa4d964dfa9079b701bbfa07.html" target="_top" xlink:title="LibCarla">
<polygon fill="white" stroke="red" points="209.787,-108 155.787,-108 155.787,-72 209.787,-72 209.787,-108"/>
<text text-anchor="middle" x="182.787" y="-87.5" font-family="Helvetica,sans-Serif" font-size="10.00">LibCarla</text>
</a>
</g>
</g>
<!-- dir_31691989b6ffa820edb06b9eb32cc520&#45;&gt;dir_1604d568fa4d964dfa9079b701bbfa07 -->
<g id="edge19" class="edge"><title>dir_31691989b6ffa820edb06b9eb32cc520&#45;&gt;dir_1604d568fa4d964dfa9079b701bbfa07</title>
<path fill="none" stroke="black" d="M116.45,-215.749C123.671,-205.582 132.671,-192.332 139.787,-180 151.582,-159.558 163.115,-135.394 171.262,-117.406"/>
<polygon fill="black" stroke="black" points="174.531,-118.668 175.42,-108.111 168.142,-115.81 174.531,-118.668"/>
<g id="a_edge19&#45;headlabel"><a xlink:href="dir_000012_000000.html" target="_top" xlink:title="9">
<text text-anchor="middle" x="175.655" y="-120.609" font-family="Helvetica,sans-Serif" font-size="10.00">9</text>
</a>
</g>
</g>
<!-- dir_cf78ae8ffd0f6192e117b8a1751c2bbd -->
<g id="node6" class="node"><title>dir_cf78ae8ffd0f6192e117b8a1751c2bbd</title>
<g id="a_node6"><a xlink:href="dir_cf78ae8ffd0f6192e117b8a1751c2bbd.html" target="_top" xlink:title="Traffic">
<polygon fill="none" stroke="black" points="98.7867,-36 44.7867,-36 44.7867,-0 98.7867,-0 98.7867,-36"/>
<text text-anchor="middle" x="71.7867" y="-15.5" font-family="Helvetica,sans-Serif" font-size="10.00">Traffic</text>
</a>
</g>
</g>
<!-- dir_31691989b6ffa820edb06b9eb32cc520&#45;&gt;dir_cf78ae8ffd0f6192e117b8a1751c2bbd -->
<g id="edge20" class="edge"><title>dir_31691989b6ffa820edb06b9eb32cc520&#45;&gt;dir_cf78ae8ffd0f6192e117b8a1751c2bbd</title>
<path fill="none" stroke="black" d="M76.73,-220.929C59.5199,-211.95 38.0531,-198.125 24.7867,-180 5.0991,-153.102 8.50073,-140.998 3.78668,-108 1.52394,-92.1608 -3.23563,-86.3766 3.78668,-72 10.6721,-57.9036 23.3182,-46.4657 35.8535,-37.8724"/>
<polygon fill="black" stroke="black" points="37.9031,-40.7162 44.442,-32.3799 34.1317,-34.819 37.9031,-40.7162"/>
<g id="a_edge20&#45;headlabel"><a xlink:href="dir_000012_000051.html" target="_top" xlink:title="1">
<text text-anchor="middle" x="36.4045" y="-42.5447" font-family="Helvetica,sans-Serif" font-size="10.00">1</text>
</a>
</g>
</g>
<!-- dir_b708e75f0564cefaa95a07ef1c60fa1d -->
<g id="node7" class="node"><title>dir_b708e75f0564cefaa95a07ef1c60fa1d</title>
<g id="a_node7"><a xlink:href="dir_b708e75f0564cefaa95a07ef1c60fa1d.html" target="_top" xlink:title="Game">
<polygon fill="none" stroke="black" points="202.787,-252 148.787,-252 148.787,-216 202.787,-216 202.787,-252"/>
<text text-anchor="middle" x="175.787" y="-231.5" font-family="Helvetica,sans-Serif" font-size="10.00">Game</text>
</a>
</g>
</g>
<!-- dir_31691989b6ffa820edb06b9eb32cc520&#45;&gt;dir_b708e75f0564cefaa95a07ef1c60fa1d -->
<g id="edge21" class="edge"><title>dir_31691989b6ffa820edb06b9eb32cc520&#45;&gt;dir_b708e75f0564cefaa95a07ef1c60fa1d</title>
<path fill="none" stroke="black" d="M131.068,-234C133.524,-234 135.981,-234 138.437,-234"/>
<polygon fill="black" stroke="black" points="138.536,-237.5 148.536,-234 138.536,-230.5 138.536,-237.5"/>
<g id="a_edge21&#45;headlabel"><a xlink:href="dir_000012_000021.html" target="_top" xlink:title="3">
<text text-anchor="middle" x="134.942" y="-237.839" font-family="Helvetica,sans-Serif" font-size="10.00">3</text>
</a>
</g>
</g>
<!-- dir_c0211e659583c36c301432102f960843&#45;&gt;dir_4d620431c9b0dc62fca23e1ed91a49b6 -->
<g id="edge1" class="edge"><title>dir_c0211e659583c36c301432102f960843&#45;&gt;dir_4d620431c9b0dc62fca23e1ed91a49b6</title>
<path fill="none" stroke="black" d="M87.9665,-143.697C80.2162,-135.22 70.7476,-124.864 62.2622,-115.583"/>
<polygon fill="black" stroke="black" points="64.7558,-113.123 55.4249,-108.104 59.5895,-117.846 64.7558,-113.123"/>
<g id="a_edge1&#45;headlabel"><a xlink:href="dir_000011_000027.html" target="_top" xlink:title="1">
<text text-anchor="middle" x="69.2767" y="-111.36" font-family="Helvetica,sans-Serif" font-size="10.00">1</text>
</a>
</g>
</g>
<!-- dir_c0211e659583c36c301432102f960843&#45;&gt;dir_1604d568fa4d964dfa9079b701bbfa07 -->
<g id="edge2" class="edge"><title>dir_c0211e659583c36c301432102f960843&#45;&gt;dir_1604d568fa4d964dfa9079b701bbfa07</title>
<path fill="none" stroke="black" d="M123.315,-143.697C133.168,-134.965 145.272,-124.24 155.983,-114.75"/>
<polygon fill="black" stroke="black" points="158.32,-117.356 163.483,-108.104 153.677,-112.117 158.32,-117.356"/>
<g id="a_edge2&#45;headlabel"><a xlink:href="dir_000011_000000.html" target="_top" xlink:title="7">
<text text-anchor="middle" x="157.512" y="-119.365" font-family="Helvetica,sans-Serif" font-size="10.00">7</text>
</a>
</g>
</g>
<!-- dir_c0211e659583c36c301432102f960843&#45;&gt;dir_cf78ae8ffd0f6192e117b8a1751c2bbd -->
<g id="edge3" class="edge"><title>dir_c0211e659583c36c301432102f960843&#45;&gt;dir_cf78ae8ffd0f6192e117b8a1751c2bbd</title>
<path fill="none" stroke="black" d="M95.3422,-143.871C87.3301,-119.67 77.0196,-75.2108 72.5008,-46.3932"/>
<polygon fill="black" stroke="black" points="75.9248,-45.6061 71.0694,-36.1893 68.9926,-46.5785 75.9248,-45.6061"/>
<g id="a_edge3&#45;headlabel"><a xlink:href="dir_000011_000051.html" target="_top" xlink:title="1">
<text text-anchor="middle" x="79.2358" y="-46.2714" font-family="Helvetica,sans-Serif" font-size="10.00">1</text>
</a>
</g>
</g>
<!-- dir_4d620431c9b0dc62fca23e1ed91a49b6&#45;&gt;dir_cf78ae8ffd0f6192e117b8a1751c2bbd -->
<g id="edge4" class="edge"><title>dir_4d620431c9b0dc62fca23e1ed91a49b6&#45;&gt;dir_cf78ae8ffd0f6192e117b8a1751c2bbd</title>
<path fill="none" stroke="black" d="M41.7811,-71.6966C44.6318,-63.6436 48.8782,-53.8945 53.3622,-44.9824"/>
<polygon fill="black" stroke="black" points="56.4775,-46.5784 58.0725,-36.1043 50.2939,-43.2977 56.4775,-46.5784"/>
<g id="a_edge4&#45;headlabel"><a xlink:href="dir_000027_000051.html" target="_top" xlink:title="2">
<text text-anchor="middle" x="57.301" y="-48.5845" font-family="Helvetica,sans-Serif" font-size="10.00">2</text>
</a>
</g>
</g>
<!-- dir_32df69f29a08a23c97cd630e5cd47b2e&#45;&gt;dir_31691989b6ffa820edb06b9eb32cc520 -->
<g id="edge8" class="edge"><title>dir_32df69f29a08a23c97cd630e5cd47b2e&#45;&gt;dir_31691989b6ffa820edb06b9eb32cc520</title>
<path fill="none" stroke="black" d="M159.231,-287.9C155.671,-285.076 152.042,-282.065 148.787,-279 142.723,-273.291 136.746,-266.566 131.135,-260.114"/>
<polygon fill="black" stroke="black" points="133.445,-257.437 124.244,-252.186 128.162,-262.029 133.445,-257.437"/>
<g id="a_edge8&#45;headlabel"><a xlink:href="dir_000017_000012.html" target="_top" xlink:title="18">
<text text-anchor="middle" x="137.946" y="-255.788" font-family="Helvetica,sans-Serif" font-size="10.00">18</text>
</a>
</g>
</g>
<!-- dir_32df69f29a08a23c97cd630e5cd47b2e&#45;&gt;dir_1604d568fa4d964dfa9079b701bbfa07 -->
<g id="edge5" class="edge"><title>dir_32df69f29a08a23c97cd630e5cd47b2e&#45;&gt;dir_1604d568fa4d964dfa9079b701bbfa07</title>
<path fill="none" stroke="black" d="M203.078,-289.858C206.585,-286.735 209.681,-283.119 211.787,-279 238.699,-226.365 213.797,-155.42 196.382,-117.506"/>
<polygon fill="black" stroke="black" points="199.395,-115.692 191.935,-108.169 193.076,-118.703 199.395,-115.692"/>
<g id="a_edge5&#45;headlabel"><a xlink:href="dir_000017_000000.html" target="_top" xlink:title="23">
<text text-anchor="middle" x="203.504" y="-115.217" font-family="Helvetica,sans-Serif" font-size="10.00">23</text>
</a>
</g>
</g>
<!-- dir_32df69f29a08a23c97cd630e5cd47b2e&#45;&gt;dir_cf78ae8ffd0f6192e117b8a1751c2bbd -->
<g id="edge6" class="edge"><title>dir_32df69f29a08a23c97cd630e5cd47b2e&#45;&gt;dir_cf78ae8ffd0f6192e117b8a1751c2bbd</title>
<path fill="none" stroke="black" d="M202.878,-299.181C213.802,-295.361 225.328,-289.12 231.787,-279 281.38,-201.296 275.864,-144.385 218.787,-72 192.451,-38.6012 143.238,-26.2325 109.046,-21.6619"/>
<polygon fill="black" stroke="black" points="109.299,-18.1676 98.9595,-20.4791 108.484,-25.12 109.299,-18.1676"/>
<g id="a_edge6&#45;headlabel"><a xlink:href="dir_000017_000051.html" target="_top" xlink:title="1">
<text text-anchor="middle" x="113.2" y="-13.2662" font-family="Helvetica,sans-Serif" font-size="10.00">1</text>
</a>
</g>
</g>
<!-- dir_32df69f29a08a23c97cd630e5cd47b2e&#45;&gt;dir_b708e75f0564cefaa95a07ef1c60fa1d -->
<g id="edge7" class="edge"><title>dir_32df69f29a08a23c97cd630e5cd47b2e&#45;&gt;dir_b708e75f0564cefaa95a07ef1c60fa1d</title>
<path fill="none" stroke="black" d="M169.871,-287.697C169.075,-279.983 168.849,-270.712 169.191,-262.112"/>
<polygon fill="black" stroke="black" points="172.685,-262.324 169.892,-252.104 165.702,-261.836 172.685,-262.324"/>
<g id="a_edge7&#45;headlabel"><a xlink:href="dir_000017_000021.html" target="_top" xlink:title="10">
<text text-anchor="middle" x="175.267" y="-263.608" font-family="Helvetica,sans-Serif" font-size="10.00">10</text>
</a>
</g>
</g>
<!-- dir_cf78ae8ffd0f6192e117b8a1751c2bbd&#45;&gt;dir_c0211e659583c36c301432102f960843 -->
<g id="edge9" class="edge"><title>dir_cf78ae8ffd0f6192e117b8a1751c2bbd&#45;&gt;dir_c0211e659583c36c301432102f960843</title>
<path fill="none" stroke="black" d="M80.2512,-36.1893C88.2672,-60.4244 98.5748,-104.888 103.084,-133.679"/>
<polygon fill="black" stroke="black" points="99.6581,-134.454 104.511,-143.871 106.59,-133.483 99.6581,-134.454"/>
<g id="a_edge9&#45;headlabel"><a xlink:href="dir_000051_000011.html" target="_top" xlink:title="1">
<text text-anchor="middle" x="96.3478" y="-128.787" font-family="Helvetica,sans-Serif" font-size="10.00">1</text>
</a>
</g>
</g>
<!-- dir_cf78ae8ffd0f6192e117b8a1751c2bbd&#45;&gt;dir_4d620431c9b0dc62fca23e1ed91a49b6 -->
<g id="edge10" class="edge"><title>dir_cf78ae8ffd0f6192e117b8a1751c2bbd&#45;&gt;dir_4d620431c9b0dc62fca23e1ed91a49b6</title>
<path fill="none" stroke="black" d="M69.8626,-36.1043C67.035,-44.1291 62.8022,-53.871 58.3221,-62.7967"/>
<polygon fill="black" stroke="black" points="55.1963,-61.2208 53.6125,-71.6966 61.3834,-64.4949 55.1963,-61.2208"/>
<g id="a_edge10&#45;headlabel"><a xlink:href="dir_000051_000027.html" target="_top" xlink:title="4">
<text text-anchor="middle" x="54.368" y="-54.2157" font-family="Helvetica,sans-Serif" font-size="10.00">4</text>
</a>
</g>
</g>
<!-- dir_b708e75f0564cefaa95a07ef1c60fa1d&#45;&gt;dir_31691989b6ffa820edb06b9eb32cc520 -->
<g id="edge15" class="edge"><title>dir_b708e75f0564cefaa95a07ef1c60fa1d&#45;&gt;dir_31691989b6ffa820edb06b9eb32cc520</title>
<path fill="none" stroke="black" d="M148.536,-234C146.08,-234 143.623,-234 141.167,-234"/>
<polygon fill="black" stroke="black" points="141.068,-230.5 131.068,-234 141.068,-237.5 141.068,-230.5"/>
<g id="a_edge15&#45;headlabel"><a xlink:href="dir_000021_000012.html" target="_top" xlink:title="2">
<text text-anchor="middle" x="144.663" y="-225.161" font-family="Helvetica,sans-Serif" font-size="10.00">2</text>
</a>
</g>
</g>
<!-- dir_b708e75f0564cefaa95a07ef1c60fa1d&#45;&gt;dir_c0211e659583c36c301432102f960843 -->
<g id="edge11" class="edge"><title>dir_b708e75f0564cefaa95a07ef1c60fa1d&#45;&gt;dir_c0211e659583c36c301432102f960843</title>
<path fill="none" stroke="black" d="M157.989,-215.697C149.183,-207.135 138.405,-196.656 128.786,-187.304"/>
<polygon fill="black" stroke="black" points="130.989,-184.566 121.38,-180.104 126.11,-189.585 130.989,-184.566"/>
<g id="a_edge11&#45;headlabel"><a xlink:href="dir_000021_000011.html" target="_top" xlink:title="4">
<text text-anchor="middle" x="135.546" y="-182.536" font-family="Helvetica,sans-Serif" font-size="10.00">4</text>
</a>
</g>
</g>
<!-- dir_b708e75f0564cefaa95a07ef1c60fa1d&#45;&gt;dir_4d620431c9b0dc62fca23e1ed91a49b6 -->
<g id="edge12" class="edge"><title>dir_b708e75f0564cefaa95a07ef1c60fa1d&#45;&gt;dir_4d620431c9b0dc62fca23e1ed91a49b6</title>
<path fill="none" stroke="black" d="M155.105,-215.906C151.15,-213.055 146.943,-210.286 142.787,-208 111.61,-190.854 92.2768,-205.811 67.7867,-180 51.9828,-163.344 45.0958,-137.846 42.0963,-118.405"/>
<polygon fill="black" stroke="black" points="45.5465,-117.793 40.798,-108.322 38.6039,-118.687 45.5465,-117.793"/>
<g id="a_edge12&#45;headlabel"><a xlink:href="dir_000021_000027.html" target="_top" xlink:title="1">
<text text-anchor="middle" x="48.8215" y="-118.495" font-family="Helvetica,sans-Serif" font-size="10.00">1</text>
</a>
</g>
</g>
<!-- dir_b708e75f0564cefaa95a07ef1c60fa1d&#45;&gt;dir_32df69f29a08a23c97cd630e5cd47b2e -->
<g id="edge13" class="edge"><title>dir_b708e75f0564cefaa95a07ef1c60fa1d&#45;&gt;dir_32df69f29a08a23c97cd630e5cd47b2e</title>
<path fill="none" stroke="black" d="M181.682,-252.104C182.487,-259.791 182.724,-269.054 182.391,-277.665"/>
<polygon fill="black" stroke="black" points="178.895,-277.48 181.702,-287.697 185.879,-277.96 178.895,-277.48"/>
<g id="a_edge13&#45;headlabel"><a xlink:href="dir_000021_000017.html" target="_top" xlink:title="3">
<text text-anchor="middle" x="176.309" y="-271.2" font-family="Helvetica,sans-Serif" font-size="10.00">3</text>
</a>
</g>
</g>
<!-- dir_b708e75f0564cefaa95a07ef1c60fa1d&#45;&gt;dir_1604d568fa4d964dfa9079b701bbfa07 -->
<g id="edge14" class="edge"><title>dir_b708e75f0564cefaa95a07ef1c60fa1d&#45;&gt;dir_1604d568fa4d964dfa9079b701bbfa07</title>
<path fill="none" stroke="black" d="M176.631,-215.871C177.824,-191.67 180.016,-147.211 181.436,-118.393"/>
<polygon fill="black" stroke="black" points="184.943,-118.349 181.939,-108.189 177.951,-118.005 184.943,-118.349"/>
<g id="a_edge14&#45;headlabel"><a xlink:href="dir_000021_000000.html" target="_top" xlink:title="9">
<text text-anchor="middle" x="187.602" y="-119.58" font-family="Helvetica,sans-Serif" font-size="10.00">9</text>
</a>
</g>
</g>
</g>
</svg>
