<?xml version="1.0" encoding="UTF-8" standalone="no"?>
<!DOCTYPE svg PUBLIC "-//W3C//DTD SVG 1.1//EN"
 "http://www.w3.org/Graphics/SVG/1.1/DTD/svg11.dtd">
<!-- Generated by graphviz version 2.43.0 (0)
 -->
<!-- Title: Graphical Class Hierarchy Pages: 1 -->
<svg width="484pt" height="50pt"
 viewBox="0.00 0.00 484.00 50.00" xmlns="http://www.w3.org/2000/svg" xmlns:xlink="http://www.w3.org/1999/xlink">
<g id="graph0" class="graph" transform="scale(1 1) rotate(0) translate(4 46)">
<title>Graphical Class Hierarchy</title>
<polygon fill="white" stroke="transparent" points="-4,4 -4,-46 480,-46 480,4 -4,4"/>
<!-- Node0 -->
<g id="node1" class="node">
<title>Node0</title>
<g id="a_node1"><a xlink:href="d2/d67/structcarla_1_1image_1_1io_1_1detail_1_1io__impl.html" target="_top" xlink:title=" ">
<polygon fill="white" stroke="black" points="0,-0.5 0,-41.5 142,-41.5 142,-0.5 0,-0.5"/>
<text text-anchor="start" x="8" y="-29.5" font-family="Helvetica,sans-Serif" font-size="10.00">carla::image::io::detail</text>
<text text-anchor="start" x="8" y="-18.5" font-family="Helvetica,sans-Serif" font-size="10.00">::io_impl&lt; detail::io_jpeg,</text>
<text text-anchor="middle" x="71" y="-7.5" font-family="Helvetica,sans-Serif" font-size="10.00"> IOs... &gt;</text>
</a>
</g>
</g>
<!-- Node1 -->
<g id="node2" class="node">
<title>Node1</title>
<g id="a_node2"><a xlink:href="dd/d53/structcarla_1_1image_1_1io_1_1detail_1_1io__any.html" target="_top" xlink:title=" ">
<polygon fill="white" stroke="black" points="178,-6 178,-36 324,-36 324,-6 178,-6"/>
<text text-anchor="start" x="186" y="-24" font-family="Helvetica,sans-Serif" font-size="10.00">carla::image::io::detail</text>
<text text-anchor="middle" x="251" y="-13" font-family="Helvetica,sans-Serif" font-size="10.00">::io_any&lt; detail::io_jpeg &gt;</text>
</a>
</g>
</g>
<!-- Node0&#45;&gt;Node1 -->
<g id="edge1" class="edge">
<title>Node0&#45;&gt;Node1</title>
<path fill="none" stroke="midnightblue" d="M152.12,-21C160.72,-21 169.43,-21 177.92,-21"/>
<polygon fill="midnightblue" stroke="midnightblue" points="152.09,-17.5 142.09,-21 152.09,-24.5 152.09,-17.5"/>
</g>
<!-- Node2 -->
<g id="node3" class="node">
<title>Node2</title>
<g id="a_node3"><a xlink:href="d5/d12/structcarla_1_1image_1_1io_1_1any.html" target="_top" xlink:title=" ">
<polygon fill="white" stroke="black" points="360,-11.5 360,-30.5 476,-30.5 476,-11.5 360,-11.5"/>
<text text-anchor="middle" x="418" y="-18.5" font-family="Helvetica,sans-Serif" font-size="10.00">carla::image::io::any</text>
</a>
</g>
</g>
<!-- Node1&#45;&gt;Node2 -->
<g id="edge2" class="edge">
<title>Node1&#45;&gt;Node2</title>
<path fill="none" stroke="midnightblue" d="M334.63,-21C343.06,-21 351.49,-21 359.56,-21"/>
<polygon fill="midnightblue" stroke="midnightblue" points="334.37,-17.5 324.37,-21 334.37,-24.5 334.37,-17.5"/>
</g>
</g>
</svg>
