<?xml version="1.0" encoding="UTF-8" standalone="no"?>
<!DOCTYPE svg PUBLIC "-//W3C//DTD SVG 1.1//EN"
 "http://www.w3.org/Graphics/SVG/1.1/DTD/svg11.dtd">
<!-- Generated by graphviz version 2.40.1 (20161225.0304)
 -->
<!-- Title: Graphical Class Hierarchy Pages: 1 -->
<svg width="231pt" height="66pt"
 viewBox="0.00 0.00 231.00 66.00" xmlns="http://www.w3.org/2000/svg" xmlns:xlink="http://www.w3.org/1999/xlink">
<g id="graph0" class="graph" transform="scale(1 1) rotate(0) translate(4 62)">
<title>Graphical Class Hierarchy</title>
<polygon fill="#ffffff" stroke="transparent" points="-4,4 -4,-62 227,-62 227,4 -4,4"/>
<!-- Node594 -->
<g id="node1" class="node">
<title>Node594</title>
<polygon fill="#ffffff" stroke="#bfbfbf" points="0,-19.5 0,-38.5 47,-38.5 47,-19.5 0,-19.5"/>
<text text-anchor="middle" x="23.5" y="-26.5" font-family="Helvetica,sans-Serif" font-size="10.00" fill="#000000">deque</text>
</g>
<!-- Node0 -->
<g id="node2" class="node">
<title>Node0</title>
<g id="a_node2"><a xlink:href="d0/d93/classFScopedStack.html" target="_top" xlink:title="A stack to keep track of nested scopes. ">
<polygon fill="#ffffff" stroke="#000000" points="96.5,-38.5 96.5,-57.5 209.5,-57.5 209.5,-38.5 96.5,-38.5"/>
<text text-anchor="middle" x="153" y="-45.5" font-family="Helvetica,sans-Serif" font-size="10.00" fill="#000000">FScopedStack&lt; T &gt;</text>
</a>
</g>
</g>
<!-- Node594&#45;&gt;Node0 -->
<g id="edge1" class="edge">
<title>Node594&#45;&gt;Node0</title>
<path fill="none" stroke="#8b1a1a" d="M57.2242,-33.948C69.179,-35.7019 82.9816,-37.727 96.3201,-39.684"/>
<polygon fill="#8b1a1a" stroke="#8b1a1a" points="57.6545,-30.4737 47.2523,-32.4849 56.6383,-37.3995 57.6545,-30.4737"/>
</g>
<!-- Node596 -->
<g id="node3" class="node">
<title>Node596</title>
<g id="a_node3"><a xlink:href="d0/d93/classFScopedStack.html" target="_top" xlink:title="FScopedStack\&lt; FString \&gt;">
<polygon fill="#ffffff" stroke="#000000" points="83,-.5 83,-19.5 223,-19.5 223,-.5 83,-.5"/>
<text text-anchor="middle" x="153" y="-7.5" font-family="Helvetica,sans-Serif" font-size="10.00" fill="#000000">FScopedStack&lt; FString &gt;</text>
</a>
</g>
</g>
<!-- Node594&#45;&gt;Node596 -->
<g id="edge2" class="edge">
<title>Node594&#45;&gt;Node596</title>
<path fill="none" stroke="#8b1a1a" d="M57.3854,-24.0284C66.8461,-22.6403 77.4544,-21.0839 88.0692,-19.5265"/>
<polygon fill="#8b1a1a" stroke="#8b1a1a" points="56.6383,-20.6005 47.2523,-25.5151 57.6545,-27.5263 56.6383,-20.6005"/>
</g>
</g>
</svg>
