<?xml version="1.0" encoding="UTF-8" standalone="no"?>
<!DOCTYPE svg PUBLIC "-//W3C//DTD SVG 1.1//EN"
 "http://www.w3.org/Graphics/SVG/1.1/DTD/svg11.dtd">
<!-- Generated by graphviz version 2.43.0 (0)
 -->
<!-- Title: geometry_msgs::msg::TransformPubSubType::TransformPubSubType Pages: 1 -->
<svg width="391pt" height="137pt"
 viewBox="0.00 0.00 391.00 137.00" xmlns="http://www.w3.org/2000/svg" xmlns:xlink="http://www.w3.org/1999/xlink">
<g id="graph0" class="graph" transform="scale(1 1) rotate(0) translate(4 133)">
<title>geometry_msgs::msg::TransformPubSubType::TransformPubSubType</title>
<polygon fill="white" stroke="transparent" points="-4,4 -4,-133 387,-133 387,4 -4,4"/>
<!-- Node1 -->
<g id="node1" class="node">
<title>Node1</title>
<g id="a_node1"><a xlink:title=" ">
<polygon fill="#bfbfbf" stroke="black" points="0,-44 0,-85 130,-85 130,-44 0,-44"/>
<text text-anchor="start" x="8" y="-73" font-family="Helvetica,sans-Serif" font-size="10.00">geometry_msgs::msg</text>
<text text-anchor="start" x="8" y="-62" font-family="Helvetica,sans-Serif" font-size="10.00">::TransformPubSubType</text>
<text text-anchor="middle" x="65" y="-51" font-family="Helvetica,sans-Serif" font-size="10.00">::TransformPubSubType</text>
</a>
</g>
</g>
<!-- Node2 -->
<g id="node2" class="node">
<title>Node2</title>
<g id="a_node2"><a xlink:href="../../d6/d5a/classgeometry__msgs_1_1msg_1_1Transform.html#a841c2880a9f62f17bf33a29b81edfd1a" target="_top" xlink:title="This function returns the maximum serialized size of the Key of an object depending on the buffer ali...">
<polygon fill="white" stroke="black" points="166,-98.5 166,-128.5 383,-128.5 383,-98.5 166,-98.5"/>
<text text-anchor="start" x="174" y="-116.5" font-family="Helvetica,sans-Serif" font-size="10.00">geometry_msgs::msg</text>
<text text-anchor="middle" x="274.5" y="-105.5" font-family="Helvetica,sans-Serif" font-size="10.00">::Transform::getKeyMaxCdrSerializedSize</text>
</a>
</g>
</g>
<!-- Node1&#45;&gt;Node2 -->
<g id="edge1" class="edge">
<title>Node1&#45;&gt;Node2</title>
<path fill="none" stroke="midnightblue" d="M130.23,-80.81C142.11,-83.76 154.42,-86.76 166,-89.5 175.42,-91.73 185.32,-94.01 195.14,-96.25"/>
<polygon fill="midnightblue" stroke="midnightblue" points="194.38,-99.67 204.91,-98.46 195.93,-92.84 194.38,-99.67"/>
</g>
<!-- Node3 -->
<g id="node3" class="node">
<title>Node3</title>
<g id="a_node3"><a xlink:href="../../d6/d5a/classgeometry__msgs_1_1msg_1_1Transform.html#a2d46c35b6961d201836b5da725dad977" target="_top" xlink:title="This function returns the maximum serialized size of an object depending on the buffer alignment.">
<polygon fill="white" stroke="black" points="175,-49.5 175,-79.5 374,-79.5 374,-49.5 175,-49.5"/>
<text text-anchor="start" x="183" y="-67.5" font-family="Helvetica,sans-Serif" font-size="10.00">geometry_msgs::msg</text>
<text text-anchor="middle" x="274.5" y="-56.5" font-family="Helvetica,sans-Serif" font-size="10.00">::Transform::getMaxCdrSerializedSize</text>
</a>
</g>
</g>
<!-- Node1&#45;&gt;Node3 -->
<g id="edge2" class="edge">
<title>Node1&#45;&gt;Node3</title>
<path fill="none" stroke="midnightblue" d="M130.23,-64.5C141.19,-64.5 152.83,-64.5 164.57,-64.5"/>
<polygon fill="midnightblue" stroke="midnightblue" points="164.89,-68 174.89,-64.5 164.89,-61 164.89,-68"/>
</g>
<!-- Node4 -->
<g id="node4" class="node">
<title>Node4</title>
<g id="a_node4"><a xlink:href="../../d6/d5a/classgeometry__msgs_1_1msg_1_1Transform.html#a53c88ef24b61ae12b4c97781dae9c07c" target="_top" xlink:title="This function tells you if the Key has been defined for this type.">
<polygon fill="white" stroke="black" points="204,-0.5 204,-30.5 345,-30.5 345,-0.5 204,-0.5"/>
<text text-anchor="start" x="212" y="-18.5" font-family="Helvetica,sans-Serif" font-size="10.00">geometry_msgs::msg</text>
<text text-anchor="middle" x="274.5" y="-7.5" font-family="Helvetica,sans-Serif" font-size="10.00">::Transform::isKeyDefined</text>
</a>
</g>
</g>
<!-- Node1&#45;&gt;Node4 -->
<g id="edge3" class="edge">
<title>Node1&#45;&gt;Node4</title>
<path fill="none" stroke="midnightblue" d="M130,-49.07C141.96,-46.21 154.36,-43.25 166,-40.5 176.49,-38.02 187.57,-35.42 198.46,-32.88"/>
<polygon fill="midnightblue" stroke="midnightblue" points="199.45,-36.24 208.39,-30.56 197.86,-29.43 199.45,-36.24"/>
</g>
</g>
</svg>
