<?xml version="1.0" encoding="UTF-8" standalone="no"?>
<!DOCTYPE svg PUBLIC "-//W3C//DTD SVG 1.1//EN"
 "http://www.w3.org/Graphics/SVG/1.1/DTD/svg11.dtd">
<!-- Generated by graphviz version 2.38.0 (20140413.2041)
 -->
<!-- Title: carla::streaming::detail::token_type::is_valid Pages: 1 -->
<svg width="598pt" height="88pt"
 viewBox="0.00 0.00 598.00 88.00" xmlns="http://www.w3.org/2000/svg" xmlns:xlink="http://www.w3.org/1999/xlink">
<g id="graph0" class="graph" transform="scale(1 1) rotate(0) translate(4 84)">
<title>carla::streaming::detail::token_type::is_valid</title>
<polygon fill="white" stroke="none" points="-4,4 -4,-84 594,-84 594,4 -4,4"/>
<!-- Node1 -->
<g id="node1" class="node"><title>Node1</title>
<polygon fill="#bfbfbf" stroke="black" points="0,-24.5 0,-54.5 116,-54.5 116,-24.5 0,-24.5"/>
<text text-anchor="start" x="8" y="-42.5" font-family="Helvetica,sans-Serif" font-size="10.00">carla::streaming::detail</text>
<text text-anchor="middle" x="58" y="-31.5" font-family="Helvetica,sans-Serif" font-size="10.00">::token_type::is_valid</text>
</g>
<!-- Node2 -->
<g id="node2" class="node"><title>Node2</title>
<g id="a_node2"><a xlink:href="../../dc/d96/classcarla_1_1streaming_1_1detail_1_1tcp_1_1Client.html#aff760041c9642a988880c1ff39739fe2" target="_top" xlink:title="carla::streaming::detail\l::tcp::Client::Connect">
<polygon fill="white" stroke="black" points="152,-24.5 152,-54.5 268,-54.5 268,-24.5 152,-24.5"/>
<text text-anchor="start" x="160" y="-42.5" font-family="Helvetica,sans-Serif" font-size="10.00">carla::streaming::detail</text>
<text text-anchor="middle" x="210" y="-31.5" font-family="Helvetica,sans-Serif" font-size="10.00">::tcp::Client::Connect</text>
</a>
</g>
</g>
<!-- Node1&#45;&gt;Node2 -->
<g id="edge1" class="edge"><title>Node1&#45;&gt;Node2</title>
<path fill="none" stroke="midnightblue" d="M126.311,-39.5C134.728,-39.5 143.277,-39.5 151.525,-39.5"/>
<polygon fill="midnightblue" stroke="midnightblue" points="126.137,-36.0001 116.136,-39.5 126.136,-43.0001 126.137,-36.0001"/>
</g>
<!-- Node3 -->
<g id="node3" class="node"><title>Node3</title>
<g id="a_node3"><a xlink:href="../../dc/d96/classcarla_1_1streaming_1_1detail_1_1tcp_1_1Client.html#a2d95ef9bb8a629f93278bbd3f9deb7a6" target="_top" xlink:title="carla::streaming::detail\l::tcp::Client::Reconnect">
<polygon fill="white" stroke="black" points="304,-49.5 304,-79.5 425,-79.5 425,-49.5 304,-49.5"/>
<text text-anchor="start" x="312" y="-67.5" font-family="Helvetica,sans-Serif" font-size="10.00">carla::streaming::detail</text>
<text text-anchor="middle" x="364.5" y="-56.5" font-family="Helvetica,sans-Serif" font-size="10.00">::tcp::Client::Reconnect</text>
</a>
</g>
</g>
<!-- Node2&#45;&gt;Node3 -->
<g id="edge2" class="edge"><title>Node2&#45;&gt;Node3</title>
<path fill="none" stroke="midnightblue" d="M278.209,-43.8102C289.193,-45.5075 300.431,-47.4355 310.993,-49.442"/>
<polygon fill="midnightblue" stroke="midnightblue" points="278.626,-40.3338 268.219,-42.3206 277.594,-47.2573 278.626,-40.3338"/>
</g>
<!-- Node5 -->
<g id="node5" class="node"><title>Node5</title>
<g id="a_node5"><a xlink:href="../../dc/d96/classcarla_1_1streaming_1_1detail_1_1tcp_1_1Client.html#aaa78ca2b7195a84a9b0db792fa88ab79" target="_top" xlink:title="carla::streaming::detail\l::tcp::Client::ReadData">
<polygon fill="white" stroke="black" points="305.5,-0.5 305.5,-30.5 423.5,-30.5 423.5,-0.5 305.5,-0.5"/>
<text text-anchor="start" x="313.5" y="-18.5" font-family="Helvetica,sans-Serif" font-size="10.00">carla::streaming::detail</text>
<text text-anchor="middle" x="364.5" y="-7.5" font-family="Helvetica,sans-Serif" font-size="10.00">::tcp::Client::ReadData</text>
</a>
</g>
</g>
<!-- Node2&#45;&gt;Node5 -->
<g id="edge5" class="edge"><title>Node2&#45;&gt;Node5</title>
<path fill="none" stroke="midnightblue" d="M275.104,-22.7382C285.135,-21.0318 295.455,-19.4395 305.343,-18.0744"/>
<polygon fill="midnightblue" stroke="midnightblue" points="274.439,-19.3013 265.195,-24.4784 275.65,-26.1958 274.439,-19.3013"/>
</g>
<!-- Node3&#45;&gt;Node2 -->
<g id="edge3" class="edge"><title>Node3&#45;&gt;Node2</title>
<path fill="none" stroke="midnightblue" d="M293.752,-59.7941C283.574,-58.194 273.239,-56.4071 263.482,-54.5532"/>
<polygon fill="midnightblue" stroke="midnightblue" points="293.44,-63.2867 303.852,-61.3274 294.491,-56.366 293.44,-63.2867"/>
</g>
<!-- Node4 -->
<g id="node4" class="node"><title>Node4</title>
<g id="a_node4"><a xlink:href="../../dc/d96/classcarla_1_1streaming_1_1detail_1_1tcp_1_1Client.html#a3dacf6ed92a5c60bf54bcd29731e25e0" target="_top" xlink:title="carla::streaming::detail\l::tcp::Client::GetStreamId">
<polygon fill="white" stroke="black" points="461,-24.5 461,-54.5 590,-54.5 590,-24.5 461,-24.5"/>
<text text-anchor="start" x="469" y="-42.5" font-family="Helvetica,sans-Serif" font-size="10.00">carla::streaming::detail</text>
<text text-anchor="middle" x="525.5" y="-31.5" font-family="Helvetica,sans-Serif" font-size="10.00">::tcp::Client::GetStreamId</text>
</a>
</g>
</g>
<!-- Node3&#45;&gt;Node4 -->
<g id="edge4" class="edge"><title>Node3&#45;&gt;Node4</title>
<path fill="none" stroke="midnightblue" d="M435.092,-53.5579C443.635,-52.2146 452.334,-50.8469 460.784,-49.5182"/>
<polygon fill="midnightblue" stroke="midnightblue" points="434.493,-50.1089 425.158,-55.1198 435.58,-57.024 434.493,-50.1089"/>
</g>
<!-- Node5&#45;&gt;Node2 -->
<g id="edge6" class="edge"><title>Node5&#45;&gt;Node2</title>
<path fill="none" stroke="midnightblue" d="M299.109,-32.3105C288.85,-34.0524 278.298,-35.674 268.219,-37.0546"/>
<polygon fill="midnightblue" stroke="midnightblue" points="299.997,-35.7083 309.242,-30.533 298.787,-28.8136 299.997,-35.7083"/>
</g>
<!-- Node5&#45;&gt;Node4 -->
<g id="edge7" class="edge"><title>Node5&#45;&gt;Node4</title>
<path fill="none" stroke="midnightblue" d="M433.823,-25.8129C442.793,-27.1669 451.957,-28.5501 460.845,-29.8917"/>
<polygon fill="midnightblue" stroke="midnightblue" points="434.213,-22.3322 423.803,-24.3004 433.168,-29.2538 434.213,-22.3322"/>
</g>
</g>
</svg>
