<?xml version="1.0" encoding="UTF-8" standalone="no"?>
<!DOCTYPE svg PUBLIC "-//W3C//DTD SVG 1.1//EN"
 "http://www.w3.org/Graphics/SVG/1.1/DTD/svg11.dtd">
<!-- Generated by graphviz version 2.40.1 (20161225.0304)
 -->
<!-- Title: carla::streaming::detail::token_type::token_type Pages: 1 -->
<svg width="344pt" height="50pt"
 viewBox="0.00 0.00 344.00 50.00" xmlns="http://www.w3.org/2000/svg" xmlns:xlink="http://www.w3.org/1999/xlink">
<g id="graph0" class="graph" transform="scale(1 1) rotate(0) translate(4 46)">
<title>carla::streaming::detail::token_type::token_type</title>
<polygon fill="#ffffff" stroke="transparent" points="-4,4 -4,-46 340,-46 340,4 -4,4"/>
<!-- Node4 -->
<g id="node1" class="node">
<title>Node4</title>
<polygon fill="#bfbfbf" stroke="#000000" points="0,-6 0,-36 138,-36 138,-6 0,-6"/>
<text text-anchor="start" x="8" y="-24" font-family="Helvetica,sans-Serif" font-size="10.00" fill="#000000">carla::streaming::detail</text>
<text text-anchor="middle" x="69" y="-13" font-family="Helvetica,sans-Serif" font-size="10.00" fill="#000000">::token_type::token_type</text>
</g>
<!-- Node5 -->
<g id="node2" class="node">
<title>Node5</title>
<g id="a_node2"><a xlink:href="../../d8/dad/classcarla_1_1streaming_1_1detail_1_1EndPoint_3_01Protocol_00_01PartiallyDefinedEndPoint_01_4.html#add77a5610bd54d794b812c08f3cccc4e" target="_top" xlink:title="carla::streaming::detail\l::EndPoint\&lt; Protocol, Partially\lDefinedEndPoint \&gt;::port">
<polygon fill="#ffffff" stroke="#000000" points="174,-.5 174,-41.5 336,-41.5 336,-.5 174,-.5"/>
<text text-anchor="start" x="182" y="-29.5" font-family="Helvetica,sans-Serif" font-size="10.00" fill="#000000">carla::streaming::detail</text>
<text text-anchor="start" x="182" y="-18.5" font-family="Helvetica,sans-Serif" font-size="10.00" fill="#000000">::EndPoint&lt; Protocol, Partially</text>
<text text-anchor="middle" x="255" y="-7.5" font-family="Helvetica,sans-Serif" font-size="10.00" fill="#000000">DefinedEndPoint &gt;::port</text>
</a>
</g>
</g>
<!-- Node4&#45;&gt;Node5 -->
<g id="edge1" class="edge">
<title>Node4&#45;&gt;Node5</title>
<path fill="none" stroke="#191970" d="M138.2595,-21C146.5741,-21 155.1599,-21 163.7262,-21"/>
<polygon fill="#191970" stroke="#191970" points="163.7559,-24.5001 173.7559,-21 163.7559,-17.5001 163.7559,-24.5001"/>
</g>
</g>
</svg>
