<?xml version="1.0" encoding="UTF-8" standalone="no"?>
<!DOCTYPE svg PUBLIC "-//W3C//DTD SVG 1.1//EN"
 "http://www.w3.org/Graphics/SVG/1.1/DTD/svg11.dtd">
<!-- Generated by graphviz version 2.40.1 (20161225.0304)
 -->
<!-- Title: sensor_msgs::msg::NavSatFix::status Pages: 1 -->
<svg width="536pt" height="50pt"
 viewBox="0.00 0.00 536.00 50.00" xmlns="http://www.w3.org/2000/svg" xmlns:xlink="http://www.w3.org/1999/xlink">
<g id="graph0" class="graph" transform="scale(1 1) rotate(0) translate(4 46)">
<title>sensor_msgs::msg::NavSatFix::status</title>
<polygon fill="#ffffff" stroke="transparent" points="-4,4 -4,-46 532,-46 532,4 -4,4"/>
<!-- Node88 -->
<g id="node1" class="node">
<title>Node88</title>
<polygon fill="#bfbfbf" stroke="#000000" points="0,-6 0,-36 149,-36 149,-6 0,-6"/>
<text text-anchor="start" x="8" y="-24" font-family="Helvetica,sans-Serif" font-size="10.00" fill="#000000">sensor_msgs::msg::NavSat</text>
<text text-anchor="middle" x="74.5" y="-13" font-family="Helvetica,sans-Serif" font-size="10.00" fill="#000000">Fix::status</text>
</g>
<!-- Node89 -->
<g id="node2" class="node">
<title>Node89</title>
<g id="a_node2"><a xlink:href="../../d8/d4d/classsensor__msgs_1_1msg_1_1NavSatFix.html#ac382f03c8e5d648a6a47f867b3892807" target="_top" xlink:title="This function returns the serialized size of a data depending on the buffer alignment. ">
<polygon fill="#ffffff" stroke="#000000" points="185,-6 185,-36 334,-36 334,-6 185,-6"/>
<text text-anchor="start" x="193" y="-24" font-family="Helvetica,sans-Serif" font-size="10.00" fill="#000000">sensor_msgs::msg::NavSat</text>
<text text-anchor="middle" x="259.5" y="-13" font-family="Helvetica,sans-Serif" font-size="10.00" fill="#000000">Fix::getCdrSerializedSize</text>
</a>
</g>
</g>
<!-- Node88&#45;&gt;Node89 -->
<g id="edge1" class="edge">
<title>Node88&#45;&gt;Node89</title>
<path fill="none" stroke="#191970" d="M159.4683,-21C167.9256,-21 176.4675,-21 184.8085,-21"/>
<polygon fill="#191970" stroke="#191970" points="159.2134,-17.5001 149.2133,-21 159.2133,-24.5001 159.2134,-17.5001"/>
</g>
<!-- Node90 -->
<g id="node3" class="node">
<title>Node90</title>
<g id="a_node3"><a xlink:href="../../d9/dc9/classsensor__msgs_1_1msg_1_1NavSatFixPubSubType.html#af361c0a5bdb20213f5470d5aa9f2846e" target="_top" xlink:title="sensor_msgs::msg::NavSat\lFixPubSubType::getSerialized\lSizeProvider">
<polygon fill="#ffffff" stroke="#000000" points="370,-.5 370,-41.5 528,-41.5 528,-.5 370,-.5"/>
<text text-anchor="start" x="378" y="-29.5" font-family="Helvetica,sans-Serif" font-size="10.00" fill="#000000">sensor_msgs::msg::NavSat</text>
<text text-anchor="start" x="378" y="-18.5" font-family="Helvetica,sans-Serif" font-size="10.00" fill="#000000">FixPubSubType::getSerialized</text>
<text text-anchor="middle" x="449" y="-7.5" font-family="Helvetica,sans-Serif" font-size="10.00" fill="#000000">SizeProvider</text>
</a>
</g>
</g>
<!-- Node89&#45;&gt;Node90 -->
<g id="edge2" class="edge">
<title>Node89&#45;&gt;Node90</title>
<path fill="none" stroke="#191970" d="M344.362,-21C352.8141,-21 361.3722,-21 369.7635,-21"/>
<polygon fill="#191970" stroke="#191970" points="344.1234,-17.5001 334.1234,-21 344.1234,-24.5001 344.1234,-17.5001"/>
</g>
</g>
</svg>
