<?xml version="1.0" encoding="UTF-8" standalone="no"?>
<!DOCTYPE svg PUBLIC "-//W3C//DTD SVG 1.1//EN"
 "http://www.w3.org/Graphics/SVG/1.1/DTD/svg11.dtd">
<!-- Generated by graphviz version 2.43.0 (0)
 -->
<!-- Title: FCarlaModule::HandleSettingsSaved Pages: 1 -->
<svg width="575pt" height="39pt"
 viewBox="0.00 0.00 575.00 39.00" xmlns="http://www.w3.org/2000/svg" xmlns:xlink="http://www.w3.org/1999/xlink">
<g id="graph0" class="graph" transform="scale(1 1) rotate(0) translate(4 35)">
<title>FCarlaModule::HandleSettingsSaved</title>
<polygon fill="white" stroke="transparent" points="-4,4 -4,-35 571,-35 571,4 -4,4"/>
<!-- Node1 -->
<g id="node1" class="node">
<title>Node1</title>
<g id="a_node1"><a xlink:title=" ">
<polygon fill="#bfbfbf" stroke="black" points="403,-0.5 403,-30.5 567,-30.5 567,-0.5 403,-0.5"/>
<text text-anchor="start" x="411" y="-18.5" font-family="Helvetica,sans-Serif" font-size="10.00">FCarlaModule::HandleSettings</text>
<text text-anchor="middle" x="485" y="-7.5" font-family="Helvetica,sans-Serif" font-size="10.00">Saved</text>
</a>
</g>
</g>
<!-- Node2 -->
<g id="node2" class="node">
<title>Node2</title>
<g id="a_node2"><a xlink:href="../../d5/da1/classFCarlaModule.html#a34c7b51428679d9ea8a40bc8c7bb7fdf" target="_top" xlink:title=" ">
<polygon fill="white" stroke="black" points="197,-6 197,-25 367,-25 367,-6 197,-6"/>
<text text-anchor="middle" x="282" y="-13" font-family="Helvetica,sans-Serif" font-size="10.00">FCarlaModule::RegisterSettings</text>
</a>
</g>
</g>
<!-- Node1&#45;&gt;Node2 -->
<g id="edge1" class="edge">
<title>Node1&#45;&gt;Node2</title>
<path fill="none" stroke="midnightblue" d="M392.82,-15.5C384.26,-15.5 375.6,-15.5 367.1,-15.5"/>
<polygon fill="midnightblue" stroke="midnightblue" points="392.83,-19 402.82,-15.5 392.82,-12 392.83,-19"/>
</g>
<!-- Node3 -->
<g id="node3" class="node">
<title>Node3</title>
<g id="a_node3"><a xlink:href="../../d5/da1/classFCarlaModule.html#ad828820b3f7ffb9fcb2c81721c06690a" target="_top" xlink:title="IModuleInterface implementation.">
<polygon fill="white" stroke="black" points="0,-6 0,-25 161,-25 161,-6 0,-6"/>
<text text-anchor="middle" x="80.5" y="-13" font-family="Helvetica,sans-Serif" font-size="10.00">FCarlaModule::StartupModule</text>
</a>
</g>
</g>
<!-- Node2&#45;&gt;Node3 -->
<g id="edge2" class="edge">
<title>Node2&#45;&gt;Node3</title>
<path fill="none" stroke="midnightblue" d="M186.94,-15.5C178.36,-15.5 169.73,-15.5 161.29,-15.5"/>
<polygon fill="midnightblue" stroke="midnightblue" points="186.97,-19 196.97,-15.5 186.97,-12 186.97,-19"/>
</g>
</g>
</svg>
