<?xml version="1.0" encoding="UTF-8" standalone="no"?>
<!DOCTYPE svg PUBLIC "-//W3C//DTD SVG 1.1//EN"
 "http://www.w3.org/Graphics/SVG/1.1/DTD/svg11.dtd">
<!-- Generated by graphviz version 2.40.1 (20161225.0304)
 -->
<!-- Title: FCarlaModule::HandleSettingsSaved Pages: 1 -->
<svg width="570pt" height="39pt"
 viewBox="0.00 0.00 570.00 39.00" xmlns="http://www.w3.org/2000/svg" xmlns:xlink="http://www.w3.org/1999/xlink">
<g id="graph0" class="graph" transform="scale(1 1) rotate(0) translate(4 35)">
<title>FCarlaModule::HandleSettingsSaved</title>
<polygon fill="#ffffff" stroke="transparent" points="-4,4 -4,-35 566,-35 566,4 -4,4"/>
<!-- Node1 -->
<g id="node1" class="node">
<title>Node1</title>
<polygon fill="#bfbfbf" stroke="#000000" points="0,-.5 0,-30.5 163,-30.5 163,-.5 0,-.5"/>
<text text-anchor="start" x="8" y="-18.5" font-family="Helvetica,sans-Serif" font-size="10.00" fill="#000000">FCarlaModule::HandleSettings</text>
<text text-anchor="middle" x="81.5" y="-7.5" font-family="Helvetica,sans-Serif" font-size="10.00" fill="#000000">Saved</text>
</g>
<!-- Node2 -->
<g id="node2" class="node">
<title>Node2</title>
<g id="a_node2"><a xlink:href="../../d5/da1/classFCarlaModule.html#a34c7b51428679d9ea8a40bc8c7bb7fdf" target="_top" xlink:title="FCarlaModule::RegisterSettings">
<polygon fill="#ffffff" stroke="#000000" points="199,-6 199,-25 367,-25 367,-6 199,-6"/>
<text text-anchor="middle" x="283" y="-13" font-family="Helvetica,sans-Serif" font-size="10.00" fill="#000000">FCarlaModule::RegisterSettings</text>
</a>
</g>
</g>
<!-- Node1&#45;&gt;Node2 -->
<g id="edge1" class="edge">
<title>Node1&#45;&gt;Node2</title>
<path fill="none" stroke="#191970" d="M173.179,-15.5C181.755,-15.5 190.4193,-15.5 198.9207,-15.5"/>
<polygon fill="#191970" stroke="#191970" points="173.1673,-12.0001 163.1673,-15.5 173.1672,-19.0001 173.1673,-12.0001"/>
</g>
<!-- Node3 -->
<g id="node3" class="node">
<title>Node3</title>
<g id="a_node3"><a xlink:href="../../d5/da1/classFCarlaModule.html#ad828820b3f7ffb9fcb2c81721c06690a" target="_top" xlink:title="IModuleInterface implementation. ">
<polygon fill="#ffffff" stroke="#000000" points="403,-6 403,-25 562,-25 562,-6 403,-6"/>
<text text-anchor="middle" x="482.5" y="-13" font-family="Helvetica,sans-Serif" font-size="10.00" fill="#000000">FCarlaModule::StartupModule</text>
</a>
</g>
</g>
<!-- Node2&#45;&gt;Node3 -->
<g id="edge2" class="edge">
<title>Node2&#45;&gt;Node3</title>
<path fill="none" stroke="#191970" d="M377.0575,-15.5C385.6363,-15.5 394.2716,-15.5 402.7082,-15.5"/>
<polygon fill="#191970" stroke="#191970" points="377.0278,-12.0001 367.0278,-15.5 377.0277,-19.0001 377.0278,-12.0001"/>
</g>
</g>
</svg>
