<?xml version="1.0" encoding="UTF-8" standalone="no"?>
<!DOCTYPE svg PUBLIC "-//W3C//DTD SVG 1.1//EN"
 "http://www.w3.org/Graphics/SVG/1.1/DTD/svg11.dtd">
<!-- Generated by graphviz version 2.38.0 (20140413.2041)
 -->
<!-- Title: carla::rpc::VehicleControl::MSGPACK_DEFINE_ARRAY Pages: 1 -->
<svg width="323pt" height="39pt"
 viewBox="0.00 0.00 323.00 39.00" xmlns="http://www.w3.org/2000/svg" xmlns:xlink="http://www.w3.org/1999/xlink">
<g id="graph0" class="graph" transform="scale(1 1) rotate(0) translate(4 35)">
<title>carla::rpc::VehicleControl::MSGPACK_DEFINE_ARRAY</title>
<polygon fill="white" stroke="none" points="-4,4 -4,-35 319,-35 319,4 -4,4"/>
<!-- Node1 -->
<g id="node1" class="node"><title>Node1</title>
<polygon fill="#bfbfbf" stroke="black" points="0,-0.5 0,-30.5 144,-30.5 144,-0.5 0,-0.5"/>
<text text-anchor="start" x="8" y="-18.5" font-family="Helvetica,sans-Serif" font-size="10.00">carla::rpc::VehicleControl</text>
<text text-anchor="middle" x="72" y="-7.5" font-family="Helvetica,sans-Serif" font-size="10.00">::MSGPACK_DEFINE_ARRAY</text>
</g>
<!-- Node2 -->
<g id="node2" class="node"><title>Node2</title>
<g id="a_node2"><a xlink:href="../../d3/d9c/classcarla_1_1rpc_1_1VehicleControl.html#a634452407703ce9f12b6e4c2cfabd39c" target="_top" xlink:title="carla::rpc::VehicleControl\l::operator==">
<polygon fill="white" stroke="black" points="180,-0.5 180,-30.5 315,-30.5 315,-0.5 180,-0.5"/>
<text text-anchor="start" x="188" y="-18.5" font-family="Helvetica,sans-Serif" font-size="10.00">carla::rpc::VehicleControl</text>
<text text-anchor="middle" x="247.5" y="-7.5" font-family="Helvetica,sans-Serif" font-size="10.00">::operator==</text>
</a>
</g>
</g>
<!-- Node1&#45;&gt;Node2 -->
<g id="edge1" class="edge"><title>Node1&#45;&gt;Node2</title>
<path fill="none" stroke="midnightblue" d="M154.093,-15.5C162.678,-15.5 171.337,-15.5 179.733,-15.5"/>
<polygon fill="midnightblue" stroke="midnightblue" points="154.07,-12.0001 144.07,-15.5 154.07,-19.0001 154.07,-12.0001"/>
</g>
</g>
</svg>
