<?xml version="1.0" encoding="UTF-8" standalone="no"?>
<!DOCTYPE svg PUBLIC "-//W3C//DTD SVG 1.1//EN"
 "http://www.w3.org/Graphics/SVG/1.1/DTD/svg11.dtd">
<!-- Generated by graphviz version 2.40.1 (20161225.0304)
 -->
<!-- Title: WorldSnapshot.h Pages: 1 -->
<svg width="3128pt" height="756pt"
 viewBox="0.00 0.00 3127.88 756.00" xmlns="http://www.w3.org/2000/svg" xmlns:xlink="http://www.w3.org/1999/xlink">
<g id="graph0" class="graph" transform="scale(1 1) rotate(0) translate(4 752)">
<title>WorldSnapshot.h</title>
<polygon fill="#ffffff" stroke="transparent" points="-4,4 -4,-752 3123.879,-752 3123.879,4 -4,4"/>
<!-- Node55 -->
<g id="node1" class="node">
<title>Node55</title>
<polygon fill="#bfbfbf" stroke="#000000" points="987.1193,-728.5 987.1193,-747.5 1085.1193,-747.5 1085.1193,-728.5 987.1193,-728.5"/>
<text text-anchor="middle" x="1036.1193" y="-735.5" font-family="Helvetica,sans-Serif" font-size="10.00" fill="#000000">WorldSnapshot.h</text>
</g>
<!-- Node56 -->
<g id="node2" class="node">
<title>Node56</title>
<g id="a_node2"><a xlink:href="../../d9/d9e/Episode_8h.html" target="_top" xlink:title="Episode.h">
<polygon fill="#ffffff" stroke="#000000" points="2708.1193,-672.5 2708.1193,-691.5 2772.1193,-691.5 2772.1193,-672.5 2708.1193,-672.5"/>
<text text-anchor="middle" x="2740.1193" y="-679.5" font-family="Helvetica,sans-Serif" font-size="10.00" fill="#000000">Episode.h</text>
</a>
</g>
</g>
<!-- Node55&#45;&gt;Node56 -->
<g id="edge1" class="edge">
<title>Node55&#45;&gt;Node56</title>
<path fill="none" stroke="#191970" d="M1095.3877,-736.0522C1368.594,-727.0736 2501.9705,-689.8265 2707.9352,-683.0577"/>
<polygon fill="#191970" stroke="#191970" points="1095.1586,-732.5578 1085.279,-736.3844 1095.3886,-739.554 1095.1586,-732.5578"/>
</g>
<!-- Node58 -->
<g id="node4" class="node">
<title>Node58</title>
<g id="a_node4"><a xlink:href="../../dd/d5b/World_8h.html" target="_top" xlink:title="World.h">
<polygon fill="#ffffff" stroke="#000000" points="2638.6193,-560.5 2638.6193,-579.5 2691.6193,-579.5 2691.6193,-560.5 2638.6193,-560.5"/>
<text text-anchor="middle" x="2665.1193" y="-567.5" font-family="Helvetica,sans-Serif" font-size="10.00" fill="#000000">World.h</text>
</a>
</g>
</g>
<!-- Node55&#45;&gt;Node58 -->
<g id="edge96" class="edge">
<title>Node55&#45;&gt;Node58</title>
<path fill="none" stroke="#191970" d="M1095.6145,-731.8642C1363.6604,-704.2204 2454.0323,-591.7696 2638.5365,-572.7415"/>
<polygon fill="#191970" stroke="#191970" points="1094.904,-728.4188 1085.3158,-732.9263 1095.6222,-735.3819 1094.904,-728.4188"/>
</g>
<!-- Node62 -->
<g id="node8" class="node">
<title>Node62</title>
<g id="a_node8"><a xlink:href="../../d6/d4a/Simulator_8h.html" target="_top" xlink:title="Simulator.h">
<polygon fill="#ffffff" stroke="#000000" points="1224.1193,-224.5 1224.1193,-243.5 1296.1193,-243.5 1296.1193,-224.5 1224.1193,-224.5"/>
<text text-anchor="middle" x="1260.1193" y="-231.5" font-family="Helvetica,sans-Serif" font-size="10.00" fill="#000000">Simulator.h</text>
</a>
</g>
</g>
<!-- Node55&#45;&gt;Node62 -->
<g id="edge97" class="edge">
<title>Node55&#45;&gt;Node62</title>
<path fill="none" stroke="#191970" d="M976.9035,-726.5743C895.2676,-709.0996 758.1193,-672.7806 758.1193,-626 758.1193,-626 758.1193,-626 758.1193,-458 758.1193,-267.2691 987.3691,-386.9663 1157.1193,-300 1190.9537,-282.666 1227.8302,-257.3047 1246.9528,-243.6164"/>
<polygon fill="#191970" stroke="#191970" points="976.5518,-730.077 987.0584,-728.7124 977.9941,-723.2271 976.5518,-730.077"/>
</g>
<!-- Node57 -->
<g id="node3" class="node">
<title>Node57</title>
<g id="a_node3"><a xlink:href="../../dd/d9a/LightManager_8h.html" target="_top" xlink:title="LightManager.h">
<polygon fill="#ffffff" stroke="#000000" points="2694.6193,-616.5 2694.6193,-635.5 2785.6193,-635.5 2785.6193,-616.5 2694.6193,-616.5"/>
<text text-anchor="middle" x="2740.1193" y="-623.5" font-family="Helvetica,sans-Serif" font-size="10.00" fill="#000000">LightManager.h</text>
</a>
</g>
</g>
<!-- Node56&#45;&gt;Node57 -->
<g id="edge2" class="edge">
<title>Node56&#45;&gt;Node57</title>
<path fill="none" stroke="#191970" d="M2740.1193,-662.1575C2740.1193,-653.155 2740.1193,-642.9199 2740.1193,-635.6427"/>
<polygon fill="#191970" stroke="#191970" points="2736.6194,-662.2455 2740.1193,-672.2455 2743.6194,-662.2456 2736.6194,-662.2455"/>
</g>
<!-- Node56&#45;&gt;Node62 -->
<g id="edge93" class="edge">
<title>Node56&#45;&gt;Node62</title>
<path fill="none" stroke="#191970" d="M2697.8148,-681.4319C2438.4244,-677.6783 1074.1193,-653.946 1074.1193,-570 1074.1193,-570 1074.1193,-570 1074.1193,-458 1074.1193,-359.9398 1171.7819,-380.2614 1228.1193,-300 1240.9954,-281.6559 1251.2919,-257.3396 1256.4697,-243.9334"/>
<polygon fill="#191970" stroke="#191970" points="2697.9089,-684.9335 2707.9579,-681.5765 2698.0088,-677.9342 2697.9089,-684.9335"/>
</g>
<!-- Node107 -->
<g id="node41" class="node">
<title>Node107</title>
<g id="a_node41"><a xlink:href="../../d6/d12/Episode_8cpp.html" target="_top" xlink:title="Episode.cpp">
<polygon fill="#ffffff" stroke="#000000" points="2695.6193,-280.5 2695.6193,-299.5 2770.6193,-299.5 2770.6193,-280.5 2695.6193,-280.5"/>
<text text-anchor="middle" x="2733.1193" y="-287.5" font-family="Helvetica,sans-Serif" font-size="10.00" fill="#000000">Episode.cpp</text>
</a>
</g>
</g>
<!-- Node56&#45;&gt;Node107 -->
<g id="edge94" class="edge">
<title>Node56&#45;&gt;Node107</title>
<path fill="none" stroke="#191970" d="M2766.9043,-666.871C2777.7835,-659.1693 2789.173,-648.7251 2795.1193,-636 2798.8824,-627.947 2795.9534,-624.8497 2795.1193,-616 2783.1725,-489.2399 2745.6468,-338.3861 2735.6092,-299.5064"/>
<polygon fill="#191970" stroke="#191970" points="2764.8423,-664.0378 2758.4026,-672.4509 2768.6833,-669.8899 2764.8423,-664.0378"/>
</g>
<!-- Node134 -->
<g id="node50" class="node">
<title>Node134</title>
<g id="a_node50"><a xlink:href="../../de/d84/WalkerNavigation_8cpp.html" target="_top" xlink:title="WalkerNavigation.cpp">
<polygon fill="#ffffff" stroke="#000000" points="2903.1193,-616.5 2903.1193,-635.5 3027.1193,-635.5 3027.1193,-616.5 2903.1193,-616.5"/>
<text text-anchor="middle" x="2965.1193" y="-623.5" font-family="Helvetica,sans-Serif" font-size="10.00" fill="#000000">WalkerNavigation.cpp</text>
</a>
</g>
</g>
<!-- Node56&#45;&gt;Node134 -->
<g id="edge95" class="edge">
<title>Node56&#45;&gt;Node134</title>
<path fill="none" stroke="#191970" d="M2782.1736,-671.5331C2823.7325,-661.1896 2886.7536,-645.5044 2926.9193,-635.5076"/>
<polygon fill="#191970" stroke="#191970" points="2781.2149,-668.1649 2772.3563,-673.9766 2782.9056,-674.9577 2781.2149,-668.1649"/>
</g>
<!-- Node57&#45;&gt;Node58 -->
<g id="edge3" class="edge">
<title>Node57&#45;&gt;Node58</title>
<path fill="none" stroke="#191970" d="M2718.9716,-610.2097C2705.7992,-600.3743 2689.2793,-588.0394 2678.0336,-579.6427"/>
<polygon fill="#191970" stroke="#191970" points="2716.9485,-613.0671 2727.0553,-616.2455 2721.1365,-607.4581 2716.9485,-613.0671"/>
</g>
<!-- Node68 -->
<g id="node14" class="node">
<title>Node68</title>
<g id="a_node14"><a xlink:href="../../d3/d1d/LightManager_8cpp.html" target="_top" xlink:title="LightManager.cpp">
<polygon fill="#ffffff" stroke="#000000" points="1793.1193,-168.5 1793.1193,-187.5 1895.1193,-187.5 1895.1193,-168.5 1793.1193,-168.5"/>
<text text-anchor="middle" x="1844.1193" y="-175.5" font-family="Helvetica,sans-Serif" font-size="10.00" fill="#000000">LightManager.cpp</text>
</a>
</g>
</g>
<!-- Node57&#45;&gt;Node68 -->
<g id="edge92" class="edge">
<title>Node57&#45;&gt;Node68</title>
<path fill="none" stroke="#191970" d="M2757.8267,-609.2789C2765.6149,-601.0947 2774.2961,-590.7097 2780.1193,-580 2794.7006,-553.1832 2799.1193,-544.5246 2799.1193,-514 2799.1193,-514 2799.1193,-514 2799.1193,-346 2799.1193,-315.4754 2803.5231,-299.5964 2780.1193,-280 2720.8491,-230.372 2511.0018,-252.0614 2434.1193,-244 2198.544,-219.2992 2138.8242,-219.9291 1904.1193,-188 1901.1894,-187.6014 1898.1826,-187.1704 1895.1509,-186.7188"/>
<polygon fill="#191970" stroke="#191970" points="2755.3248,-606.8312 2750.7556,-616.3901 2760.2885,-611.7669 2755.3248,-606.8312"/>
</g>
<!-- Node133 -->
<g id="node49" class="node">
<title>Node133</title>
<g id="a_node49"><a xlink:href="../../d2/d41/Light_8cpp.html" target="_top" xlink:title="Light.cpp">
<polygon fill="#ffffff" stroke="#000000" points="2709.6193,-560.5 2709.6193,-579.5 2770.6193,-579.5 2770.6193,-560.5 2709.6193,-560.5"/>
<text text-anchor="middle" x="2740.1193" y="-567.5" font-family="Helvetica,sans-Serif" font-size="10.00" fill="#000000">Light.cpp</text>
</a>
</g>
</g>
<!-- Node57&#45;&gt;Node133 -->
<g id="edge91" class="edge">
<title>Node57&#45;&gt;Node133</title>
<path fill="none" stroke="#191970" d="M2740.1193,-606.1575C2740.1193,-597.155 2740.1193,-586.9199 2740.1193,-579.6427"/>
<polygon fill="#191970" stroke="#191970" points="2736.6194,-606.2455 2740.1193,-616.2455 2743.6194,-606.2456 2736.6194,-606.2455"/>
</g>
<!-- Node59 -->
<g id="node5" class="node">
<title>Node59</title>
<g id="a_node5"><a xlink:href="../../d4/d22/client_2detail_2ActorState_8h.html" target="_top" xlink:title="ActorState.h">
<polygon fill="#ffffff" stroke="#000000" points="1483.6193,-504.5 1483.6193,-523.5 1560.6193,-523.5 1560.6193,-504.5 1483.6193,-504.5"/>
<text text-anchor="middle" x="1522.1193" y="-511.5" font-family="Helvetica,sans-Serif" font-size="10.00" fill="#000000">ActorState.h</text>
</a>
</g>
</g>
<!-- Node58&#45;&gt;Node59 -->
<g id="edge4" class="edge">
<title>Node58&#45;&gt;Node59</title>
<path fill="none" stroke="#191970" d="M2628.5249,-568.2071C2457.2687,-559.8166 1735.9329,-524.4756 1560.632,-515.8869"/>
<polygon fill="#191970" stroke="#191970" points="2628.3889,-571.7045 2638.5483,-568.6982 2628.7315,-564.7129 2628.3889,-571.7045"/>
</g>
<!-- Node63 -->
<g id="node9" class="node">
<title>Node63</title>
<g id="a_node9"><a xlink:href="../../dd/de3/client_2Client_8h.html" target="_top" xlink:title="Client.h">
<polygon fill="#ffffff" stroke="#000000" points="2823.1193,-168.5 2823.1193,-187.5 2877.1193,-187.5 2877.1193,-168.5 2823.1193,-168.5"/>
<text text-anchor="middle" x="2850.1193" y="-175.5" font-family="Helvetica,sans-Serif" font-size="10.00" fill="#000000">Client.h</text>
</a>
</g>
</g>
<!-- Node58&#45;&gt;Node63 -->
<g id="edge85" class="edge">
<title>Node58&#45;&gt;Node63</title>
<path fill="none" stroke="#191970" d="M2699.0845,-556.523C2768.9137,-528.0491 2924.4597,-460.4122 2953.1193,-412 3001.7336,-329.88 2896.0413,-220.647 2860.9398,-187.7646"/>
<polygon fill="#191970" stroke="#191970" points="2697.3842,-553.4353 2689.4291,-560.4329 2700.0117,-559.9235 2697.3842,-553.4353"/>
</g>
<!-- Node75 -->
<g id="node21" class="node">
<title>Node75</title>
<g id="a_node21"><a xlink:href="../../d7/dfe/World_8cpp.html" target="_top" xlink:title="World.cpp">
<polygon fill="#ffffff" stroke="#000000" points="3009.6193,-168.5 3009.6193,-187.5 3074.6193,-187.5 3074.6193,-168.5 3009.6193,-168.5"/>
<text text-anchor="middle" x="3042.1193" y="-175.5" font-family="Helvetica,sans-Serif" font-size="10.00" fill="#000000">World.cpp</text>
</a>
</g>
</g>
<!-- Node58&#45;&gt;Node75 -->
<g id="edge87" class="edge">
<title>Node58&#45;&gt;Node75</title>
<path fill="none" stroke="#191970" d="M2701.6806,-560.0852C2871.3655,-521.9227 3065.1193,-622.81 3065.1193,-458 3065.1193,-458 3065.1193,-458 3065.1193,-290 3065.1193,-251.4906 3051.9109,-207.0277 3045.513,-187.7497"/>
<polygon fill="#191970" stroke="#191970" points="2700.7245,-556.7154 2691.8274,-562.4678 2702.3699,-563.5193 2700.7245,-556.7154"/>
</g>
<!-- Node83 -->
<g id="node28" class="node">
<title>Node83</title>
<g id="a_node28"><a xlink:href="../../df/dd6/ActorFactory_8cpp.html" target="_top" xlink:title="ActorFactory.cpp">
<polygon fill="#ffffff" stroke="#000000" points="958.1193,-224.5 958.1193,-243.5 1054.1193,-243.5 1054.1193,-224.5 958.1193,-224.5"/>
<text text-anchor="middle" x="1006.1193" y="-231.5" font-family="Helvetica,sans-Serif" font-size="10.00" fill="#000000">ActorFactory.cpp</text>
</a>
</g>
</g>
<!-- Node58&#45;&gt;Node83 -->
<g id="edge86" class="edge">
<title>Node58&#45;&gt;Node83</title>
<path fill="none" stroke="#191970" d="M2628.3224,-569.3716C2440.1512,-566.0516 1589.8387,-549.7277 1475.1193,-524 1296.126,-483.8579 1249.127,-460.1472 1098.1193,-356 1068.0914,-335.2903 1059.776,-329.3523 1038.1193,-300 1024.6619,-281.7605 1014.448,-256.977 1009.4732,-243.5678"/>
<polygon fill="#191970" stroke="#191970" points="2628.4625,-572.8745 2638.5223,-569.5502 2628.5851,-565.8755 2628.4625,-572.8745"/>
</g>
<!-- Node92 -->
<g id="node31" class="node">
<title>Node92</title>
<g id="a_node31"><a xlink:href="../../d2/d84/LocalizationUtils_8h.html" target="_top" xlink:title="LocalizationUtils.h">
<polygon fill="#ffffff" stroke="#000000" points="2442.6193,-224.5 2442.6193,-243.5 2549.6193,-243.5 2549.6193,-224.5 2442.6193,-224.5"/>
<text text-anchor="middle" x="2496.1193" y="-231.5" font-family="Helvetica,sans-Serif" font-size="10.00" fill="#000000">LocalizationUtils.h</text>
</a>
</g>
</g>
<!-- Node58&#45;&gt;Node92 -->
<g id="edge88" class="edge">
<title>Node58&#45;&gt;Node92</title>
<path fill="none" stroke="#191970" d="M2685.4759,-553.7913C2741.8214,-507.0526 2890.6954,-369.6457 2813.1193,-280 2796.1524,-260.3933 2635.6638,-244.9404 2549.774,-237.995"/>
<polygon fill="#191970" stroke="#191970" points="2683.0988,-551.214 2677.5731,-560.2538 2687.53,-556.6328 2683.0988,-551.214"/>
</g>
<!-- Node94 -->
<g id="node33" class="node">
<title>Node94</title>
<g id="a_node33"><a xlink:href="../../dc/d2c/ALSM_8h.html" target="_top" xlink:title="ALSM.h">
<polygon fill="#ffffff" stroke="#000000" points="2071.1193,-112.5 2071.1193,-131.5 2123.1193,-131.5 2123.1193,-112.5 2071.1193,-112.5"/>
<text text-anchor="middle" x="2097.1193" y="-119.5" font-family="Helvetica,sans-Serif" font-size="10.00" fill="#000000">ALSM.h</text>
</a>
</g>
</g>
<!-- Node58&#45;&gt;Node94 -->
<g id="edge89" class="edge">
<title>Node58&#45;&gt;Node94</title>
<path fill="none" stroke="#191970" d="M2701.5855,-559.2805C2737.7251,-548.5045 2790.4463,-532.3308 2810.1193,-524 2858.4607,-503.5291 2871.863,-499.1505 2914.1193,-468 3037.4765,-377.0636 3189.9328,-278.8599 3084.1193,-168 3049.9938,-132.247 2277.1567,-123.585 2123.5317,-122.2141"/>
<polygon fill="#191970" stroke="#191970" points="2700.4625,-555.9628 2691.8732,-562.1657 2702.4559,-562.673 2700.4625,-555.9628"/>
</g>
<!-- Node86 -->
<g id="node34" class="node">
<title>Node86</title>
<g id="a_node34"><a xlink:href="../../db/ddf/TrafficManagerLocal_8h.html" target="_top" xlink:title="TrafficManagerLocal.h">
<polygon fill="#ffffff" stroke="#000000" points="1908.1193,-56.5 1908.1193,-75.5 2030.1193,-75.5 2030.1193,-56.5 1908.1193,-56.5"/>
<text text-anchor="middle" x="1969.1193" y="-63.5" font-family="Helvetica,sans-Serif" font-size="10.00" fill="#000000">TrafficManagerLocal.h</text>
</a>
</g>
</g>
<!-- Node58&#45;&gt;Node86 -->
<g id="edge90" class="edge">
<title>Node58&#45;&gt;Node86</title>
<path fill="none" stroke="#191970" d="M2628.413,-569.5487C2446.3595,-567.1774 1639.1586,-555.0662 1390.1193,-524 1075.6354,-484.7699 155.1693,-466.6091 4.1193,-188 -.1173,-180.1857 -2.001,-174.4462 4.1193,-168 71.282,-97.2606 1583.2324,-71.549 1908.0252,-66.8325"/>
<polygon fill="#191970" stroke="#191970" points="2628.4949,-573.05 2638.5391,-569.6789 2628.5849,-566.0506 2628.4949,-573.05"/>
</g>
<!-- Node60 -->
<g id="node6" class="node">
<title>Node60</title>
<g id="a_node6"><a xlink:href="../../da/d48/client_2Actor_8h.html" target="_top" xlink:title="Actor.h">
<polygon fill="#ffffff" stroke="#ff0000" points="1497.1193,-448.5 1497.1193,-467.5 1547.1193,-467.5 1547.1193,-448.5 1497.1193,-448.5"/>
<text text-anchor="middle" x="1522.1193" y="-455.5" font-family="Helvetica,sans-Serif" font-size="10.00" fill="#000000">Actor.h</text>
</a>
</g>
</g>
<!-- Node59&#45;&gt;Node60 -->
<g id="edge5" class="edge">
<title>Node59&#45;&gt;Node60</title>
<path fill="none" stroke="#191970" d="M1522.1193,-494.1575C1522.1193,-485.155 1522.1193,-474.9199 1522.1193,-467.6427"/>
<polygon fill="#191970" stroke="#191970" points="1518.6194,-494.2455 1522.1193,-504.2455 1525.6194,-494.2456 1518.6194,-494.2455"/>
</g>
<!-- Node132 -->
<g id="node48" class="node">
<title>Node132</title>
<g id="a_node48"><a xlink:href="../../d6/de7/ActorState_8cpp.html" target="_top" xlink:title="ActorState.cpp">
<polygon fill="#ffffff" stroke="#000000" points="1391.1193,-448.5 1391.1193,-467.5 1479.1193,-467.5 1479.1193,-448.5 1391.1193,-448.5"/>
<text text-anchor="middle" x="1435.1193" y="-455.5" font-family="Helvetica,sans-Serif" font-size="10.00" fill="#000000">ActorState.cpp</text>
</a>
</g>
</g>
<!-- Node59&#45;&gt;Node132 -->
<g id="edge84" class="edge">
<title>Node59&#45;&gt;Node132</title>
<path fill="none" stroke="#191970" d="M1498.4568,-498.769C1483.0402,-488.8456 1463.3933,-476.1994 1450.0999,-467.6427"/>
<polygon fill="#191970" stroke="#191970" points="1496.662,-501.7761 1506.9651,-504.2455 1500.4508,-495.89 1496.662,-501.7761"/>
</g>
<!-- Node61 -->
<g id="node7" class="node">
<title>Node61</title>
<g id="a_node7"><a xlink:href="../../d4/d34/Actor_8cpp.html" target="_top" xlink:title="Actor.cpp">
<polygon fill="#ffffff" stroke="#000000" points="1585.1193,-168.5 1585.1193,-187.5 1647.1193,-187.5 1647.1193,-168.5 1585.1193,-168.5"/>
<text text-anchor="middle" x="1616.1193" y="-175.5" font-family="Helvetica,sans-Serif" font-size="10.00" fill="#000000">Actor.cpp</text>
</a>
</g>
</g>
<!-- Node60&#45;&gt;Node61 -->
<g id="edge6" class="edge">
<title>Node60&#45;&gt;Node61</title>
<path fill="none" stroke="#191970" d="M1547.439,-442.7626C1575.2803,-423.861 1616.1193,-388.8346 1616.1193,-346 1616.1193,-346 1616.1193,-346 1616.1193,-290 1616.1193,-252.0833 1616.1193,-206.9462 1616.1193,-187.5884"/>
<polygon fill="#191970" stroke="#191970" points="1545.384,-439.9244 1538.9246,-448.3224 1549.2113,-445.7855 1545.384,-439.9244"/>
</g>
<!-- Node60&#45;&gt;Node62 -->
<g id="edge7" class="edge">
<title>Node60&#45;&gt;Node62</title>
<path fill="none" stroke="#191970" d="M1508.2756,-440.3379C1480.7844,-406.1077 1416.1519,-329.736 1349.1193,-280 1328.586,-264.7649 1302.2882,-251.859 1283.6165,-243.6306"/>
<polygon fill="#191970" stroke="#191970" points="1505.7675,-442.8073 1514.731,-448.4559 1511.2464,-438.4505 1505.7675,-442.8073"/>
</g>
<!-- Node60&#45;&gt;Node75 -->
<g id="edge81" class="edge">
<title>Node60&#45;&gt;Node75</title>
<path fill="none" stroke="#191970" d="M1557.3717,-457.8661C1769.391,-456.934 2867.8596,-450.2659 2927.1193,-412 3010.5884,-358.1014 3035.4658,-224.6002 3040.863,-187.6271"/>
<polygon fill="#191970" stroke="#191970" points="1557.1116,-454.3671 1547.1266,-457.9097 1557.1414,-461.367 1557.1116,-454.3671"/>
</g>
<!-- Node81 -->
<g id="node27" class="node">
<title>Node81</title>
<g id="a_node27"><a xlink:href="../../d6/d83/TrafficSign_8h.html" target="_top" xlink:title="TrafficSign.h">
<polygon fill="#ffffff" stroke="#ff0000" points="1072.1193,-280.5 1072.1193,-299.5 1148.1193,-299.5 1148.1193,-280.5 1072.1193,-280.5"/>
<text text-anchor="middle" x="1110.1193" y="-287.5" font-family="Helvetica,sans-Serif" font-size="10.00" fill="#000000">TrafficSign.h</text>
</a>
</g>
</g>
<!-- Node60&#45;&gt;Node81 -->
<g id="edge27" class="edge">
<title>Node60&#45;&gt;Node81</title>
<path fill="none" stroke="#191970" d="M1486.9797,-447.9044C1411.7091,-429.9533 1387.8052,-438.5717 1319.1193,-412 1239.5752,-381.2277 1154.764,-322.5448 1123.0563,-299.5654"/>
<polygon fill="#191970" stroke="#191970" points="1486.3798,-451.3613 1496.9271,-450.3584 1488.0565,-444.5651 1486.3798,-451.3613"/>
</g>
<!-- Node60&#45;&gt;Node83 -->
<g id="edge73" class="edge">
<title>Node60&#45;&gt;Node83</title>
<path fill="none" stroke="#191970" d="M1487.1196,-448.029C1390.8785,-427.2398 1360.6517,-442.5842 1271.1193,-412 1171.7621,-378.0597 1145.0109,-365.7082 1063.1193,-300 1042.0999,-283.1344 1022.7534,-257.8142 1012.9155,-243.9504"/>
<polygon fill="#191970" stroke="#191970" points="1486.4355,-451.4624 1496.9583,-450.2291 1487.9631,-444.6311 1486.4355,-451.4624"/>
</g>
<!-- Node87 -->
<g id="node29" class="node">
<title>Node87</title>
<g id="a_node29"><a xlink:href="../../d9/d18/Vehicle_8h.html" target="_top" xlink:title="Vehicle.h">
<polygon fill="#ffffff" stroke="#ff0000" points="1526.6193,-280.5 1526.6193,-299.5 1587.6193,-299.5 1587.6193,-280.5 1526.6193,-280.5"/>
<text text-anchor="middle" x="1557.1193" y="-287.5" font-family="Helvetica,sans-Serif" font-size="10.00" fill="#000000">Vehicle.h</text>
</a>
</g>
</g>
<!-- Node60&#45;&gt;Node87 -->
<g id="edge30" class="edge">
<title>Node60&#45;&gt;Node87</title>
<path fill="none" stroke="#191970" d="M1526.2318,-438.2601C1533.7512,-402.1669 1549.4598,-326.7656 1555.0718,-299.8279"/>
<polygon fill="#191970" stroke="#191970" points="1522.7145,-437.9826 1524.1013,-448.4862 1529.5674,-439.4103 1522.7145,-437.9826"/>
</g>
<!-- Node91 -->
<g id="node30" class="node">
<title>Node91</title>
<g id="a_node30"><a xlink:href="../../d9/da8/ALSM_8cpp.html" target="_top" xlink:title="ALSM.cpp">
<polygon fill="#ffffff" stroke="#000000" points="2725.6193,-56.5 2725.6193,-75.5 2788.6193,-75.5 2788.6193,-56.5 2725.6193,-56.5"/>
<text text-anchor="middle" x="2757.1193" y="-63.5" font-family="Helvetica,sans-Serif" font-size="10.00" fill="#000000">ALSM.cpp</text>
</a>
</g>
</g>
<!-- Node60&#45;&gt;Node91 -->
<g id="edge82" class="edge">
<title>Node60&#45;&gt;Node91</title>
<path fill="none" stroke="#191970" d="M1557.3698,-455.9875C1756.0866,-444.3518 2731.1224,-383.2984 2833.1193,-300 2882.0843,-260.0116 2913.6673,-224.9012 2886.1193,-168 2863.7873,-121.8725 2809.3506,-90.2842 2778.8104,-75.5243"/>
<polygon fill="#191970" stroke="#191970" points="1556.9797,-452.5042 1547.2,-456.5794 1557.3865,-459.4924 1556.9797,-452.5042"/>
</g>
<!-- Node60&#45;&gt;Node92 -->
<g id="edge83" class="edge">
<title>Node60&#45;&gt;Node92</title>
<path fill="none" stroke="#191970" d="M1555.9709,-444.6472C1619.6725,-419.9733 1762.1262,-366.9404 1886.1193,-336 2088.7468,-285.4377 2335.5942,-252.8275 2442.5025,-240.0774"/>
<polygon fill="#191970" stroke="#191970" points="1554.4886,-441.4683 1546.4382,-448.356 1557.0268,-447.9919 1554.4886,-441.4683"/>
</g>
<!-- Node106 -->
<g id="node40" class="node">
<title>Node106</title>
<g id="a_node40"><a xlink:href="../../da/dfd/TrafficManager_8h.html" target="_top" xlink:title="TrafficManager.h">
<polygon fill="#ffffff" stroke="#000000" points="1895.1193,-336.5 1895.1193,-355.5 1991.1193,-355.5 1991.1193,-336.5 1895.1193,-336.5"/>
<text text-anchor="middle" x="1943.1193" y="-343.5" font-family="Helvetica,sans-Serif" font-size="10.00" fill="#000000">TrafficManager.h</text>
</a>
</g>
</g>
<!-- Node60&#45;&gt;Node106 -->
<g id="edge53" class="edge">
<title>Node60&#45;&gt;Node106</title>
<path fill="none" stroke="#191970" d="M1557.6807,-455.3519C1632.0949,-449.4449 1801.7496,-433.9619 1855.1193,-412 1887.6144,-398.6281 1918.8588,-370.3826 1933.8633,-355.5522"/>
<polygon fill="#191970" stroke="#191970" points="1557.1148,-451.8853 1547.4178,-456.1535 1557.66,-458.8641 1557.1148,-451.8853"/>
</g>
<!-- Node108 -->
<g id="node42" class="node">
<title>Node108</title>
<g id="a_node42"><a xlink:href="../../d0/d55/TrafficManagerBase_8h.html" target="_top" xlink:title="TrafficManagerBase.h">
<polygon fill="#ffffff" stroke="#ff0000" points="1907.6193,-392.5 1907.6193,-411.5 2028.6193,-411.5 2028.6193,-392.5 1907.6193,-392.5"/>
<text text-anchor="middle" x="1968.1193" y="-399.5" font-family="Helvetica,sans-Serif" font-size="10.00" fill="#000000">TrafficManagerBase.h</text>
</a>
</g>
</g>
<!-- Node60&#45;&gt;Node108 -->
<g id="edge60" class="edge">
<title>Node60&#45;&gt;Node108</title>
<path fill="none" stroke="#191970" d="M1557.5867,-453.7125C1623.6322,-445.704 1769.9443,-427.8475 1893.1193,-412 1897.8096,-411.3966 1902.664,-410.7651 1907.5434,-410.1254"/>
<polygon fill="#191970" stroke="#191970" points="1556.8269,-450.2788 1547.3205,-454.9564 1557.6689,-457.228 1556.8269,-450.2788"/>
</g>
<!-- Node111 -->
<g id="node43" class="node">
<title>Node111</title>
<g id="a_node43"><a xlink:href="../../d5/d10/Walker_8h.html" target="_top" xlink:title="Walker.h">
<polygon fill="#ffffff" stroke="#ff0000" points="1280.6193,-280.5 1280.6193,-299.5 1339.6193,-299.5 1339.6193,-280.5 1280.6193,-280.5"/>
<text text-anchor="middle" x="1310.1193" y="-287.5" font-family="Helvetica,sans-Serif" font-size="10.00" fill="#000000">Walker.h</text>
</a>
</g>
</g>
<!-- Node60&#45;&gt;Node111 -->
<g id="edge64" class="edge">
<title>Node60&#45;&gt;Node111</title>
<path fill="none" stroke="#191970" d="M1486.9742,-448.0064C1418.1928,-432.8766 1383.3327,-458.97 1337.1193,-412 1306.3865,-380.764 1307.3432,-322.8627 1309.1142,-299.8255"/>
<polygon fill="#191970" stroke="#191970" points="1486.365,-451.4603 1496.9093,-450.4268 1488.0219,-444.6592 1486.365,-451.4603"/>
</g>
<!-- Node112 -->
<g id="node44" class="node">
<title>Node112</title>
<g id="a_node44"><a xlink:href="../../d9/d0d/ActorVariant_8h.html" target="_top" xlink:title="ActorVariant.h">
<polygon fill="#ffffff" stroke="#ff0000" points="1346.1193,-392.5 1346.1193,-411.5 1432.1193,-411.5 1432.1193,-392.5 1346.1193,-392.5"/>
<text text-anchor="middle" x="1389.1193" y="-399.5" font-family="Helvetica,sans-Serif" font-size="10.00" fill="#000000">ActorVariant.h</text>
</a>
</g>
</g>
<!-- Node60&#45;&gt;Node112 -->
<g id="edge69" class="edge">
<title>Node60&#45;&gt;Node112</title>
<path fill="none" stroke="#191970" d="M1489.7796,-444.3833C1465.5908,-434.1985 1433.1243,-420.5284 1411.6845,-411.5011"/>
<polygon fill="#191970" stroke="#191970" points="1488.6812,-447.7184 1499.2558,-448.3733 1491.3976,-441.2669 1488.6812,-447.7184"/>
</g>
<!-- Node120 -->
<g id="node45" class="node">
<title>Node120</title>
<g id="a_node45"><a xlink:href="../../d8/d58/LibCarla_2source_2carla_2client_2Sensor_8h.html" target="_top" xlink:title="Sensor.h">
<polygon fill="#ffffff" stroke="#ff0000" points="129.1193,-224.5 129.1193,-243.5 187.1193,-243.5 187.1193,-224.5 129.1193,-224.5"/>
<text text-anchor="middle" x="158.1193" y="-231.5" font-family="Helvetica,sans-Serif" font-size="10.00" fill="#000000">Sensor.h</text>
</a>
</g>
</g>
<!-- Node60&#45;&gt;Node120 -->
<g id="edge70" class="edge">
<title>Node60&#45;&gt;Node120</title>
<path fill="none" stroke="#191970" d="M1487.0093,-448.1317C1308.3339,-415.0893 1258.2741,-436.7116 1082.1193,-412 727.0079,-362.1837 301.5579,-266.9339 187.457,-240.7855"/>
<polygon fill="#191970" stroke="#191970" points="1486.5291,-451.6027 1497.0038,-450.0117 1487.8231,-444.7233 1486.5291,-451.6027"/>
</g>
<!-- Node125 -->
<g id="node46" class="node">
<title>Node125</title>
<g id="a_node46"><a xlink:href="../../de/d54/LibCarla_2source_2carla_2client_2WalkerAIController_8h.html" target="_top" xlink:title="WalkerAIController.h">
<polygon fill="#ffffff" stroke="#000000" points="862.1193,-280.5 862.1193,-299.5 978.1193,-299.5 978.1193,-280.5 862.1193,-280.5"/>
<text text-anchor="middle" x="920.1193" y="-287.5" font-family="Helvetica,sans-Serif" font-size="10.00" fill="#000000">WalkerAIController.h</text>
</a>
</g>
</g>
<!-- Node60&#45;&gt;Node125 -->
<g id="edge74" class="edge">
<title>Node60&#45;&gt;Node125</title>
<path fill="none" stroke="#191970" d="M1487.1001,-448.1515C1331.8037,-419.3695 1282.9046,-458.7011 1136.1193,-412 1052.3956,-385.3625 964.9444,-323.7073 932.8718,-299.759"/>
<polygon fill="#191970" stroke="#191970" points="1486.5159,-451.6032 1496.9963,-450.0504 1487.835,-444.7286 1486.5159,-451.6032"/>
</g>
<!-- Node126 -->
<g id="node47" class="node">
<title>Node126</title>
<g id="a_node47"><a xlink:href="../../de/d3a/LaneInvasionEvent_8h.html" target="_top" xlink:title="LaneInvasionEvent.h">
<polygon fill="#ffffff" stroke="#000000" points="1411.1193,-224.5 1411.1193,-243.5 1529.1193,-243.5 1529.1193,-224.5 1411.1193,-224.5"/>
<text text-anchor="middle" x="1470.1193" y="-231.5" font-family="Helvetica,sans-Serif" font-size="10.00" fill="#000000">LaneInvasionEvent.h</text>
</a>
</g>
</g>
<!-- Node60&#45;&gt;Node126 -->
<g id="edge78" class="edge">
<title>Node60&#45;&gt;Node126</title>
<path fill="none" stroke="#191970" d="M1517.5721,-438.4119C1506.834,-392.1557 1480.2161,-277.494 1472.3454,-243.5891"/>
<polygon fill="#191970" stroke="#191970" points="1514.2142,-439.4255 1519.8849,-448.375 1521.0329,-437.8425 1514.2142,-439.4255"/>
</g>
<!-- Node62&#45;&gt;Node61 -->
<g id="edge8" class="edge">
<title>Node62&#45;&gt;Node61</title>
<path fill="none" stroke="#191970" d="M1306.5435,-228.7232C1368.3694,-221.3584 1480.9986,-206.7642 1576.1193,-188 1578.9284,-187.4459 1581.8363,-186.8207 1584.7434,-186.1604"/>
<polygon fill="#191970" stroke="#191970" points="1305.8574,-225.2799 1296.3367,-229.9282 1306.6781,-232.2316 1305.8574,-225.2799"/>
</g>
<!-- Node62&#45;&gt;Node63 -->
<g id="edge9" class="edge">
<title>Node62&#45;&gt;Node63</title>
<path fill="none" stroke="#191970" d="M1306.4805,-230.2347C1334.2127,-228.1072 1370.163,-225.5677 1402.1193,-224 1978.5369,-195.723 2123.6499,-215.1995 2700.1193,-188 2743.1356,-185.9704 2793.0143,-182.4029 2823.0394,-180.123"/>
<polygon fill="#191970" stroke="#191970" points="1305.9787,-226.763 1296.2798,-231.027 1306.5208,-233.742 1305.9787,-226.763"/>
</g>
<!-- Node64 -->
<g id="node10" class="node">
<title>Node64</title>
<g id="a_node10"><a xlink:href="../../d2/d01/DebugHelper_8cpp.html" target="_top" xlink:title="DebugHelper.cpp">
<polygon fill="#ffffff" stroke="#000000" points="1129.1193,-168.5 1129.1193,-187.5 1229.1193,-187.5 1229.1193,-168.5 1129.1193,-168.5"/>
<text text-anchor="middle" x="1179.1193" y="-175.5" font-family="Helvetica,sans-Serif" font-size="10.00" fill="#000000">DebugHelper.cpp</text>
</a>
</g>
</g>
<!-- Node62&#45;&gt;Node64 -->
<g id="edge10" class="edge">
<title>Node62&#45;&gt;Node64</title>
<path fill="none" stroke="#191970" d="M1237.6853,-218.49C1223.3939,-208.6096 1205.3277,-196.1194 1193.0667,-187.6427"/>
<polygon fill="#191970" stroke="#191970" points="1235.7942,-221.4376 1246.0102,-224.2455 1239.775,-215.6797 1235.7942,-221.4376"/>
</g>
<!-- Node65 -->
<g id="node11" class="node">
<title>Node65</title>
<g id="a_node11"><a xlink:href="../../d2/d6b/EpisodeProxy_8cpp.html" target="_top" xlink:title="EpisodeProxy.cpp">
<polygon fill="#ffffff" stroke="#000000" points="597.6193,-168.5 597.6193,-187.5 698.6193,-187.5 698.6193,-168.5 597.6193,-168.5"/>
<text text-anchor="middle" x="648.1193" y="-175.5" font-family="Helvetica,sans-Serif" font-size="10.00" fill="#000000">EpisodeProxy.cpp</text>
</a>
</g>
</g>
<!-- Node62&#45;&gt;Node65 -->
<g id="edge11" class="edge">
<title>Node62&#45;&gt;Node65</title>
<path fill="none" stroke="#191970" d="M1213.9364,-224.5458C1212.6519,-224.3528 1211.3776,-224.1703 1210.1193,-224 988.4552,-194.0067 930.2382,-214.4156 708.1193,-188 705.0782,-187.6383 701.9562,-187.2303 698.8106,-186.791"/>
<polygon fill="#191970" stroke="#191970" points="1213.4506,-228.013 1223.8887,-226.1971 1214.5965,-221.1074 1213.4506,-228.013"/>
</g>
<!-- Node66 -->
<g id="node12" class="node">
<title>Node66</title>
<g id="a_node12"><a xlink:href="../../d2/d0c/Simulator_8cpp.html" target="_top" xlink:title="Simulator.cpp">
<polygon fill="#ffffff" stroke="#000000" points="13.6193,-168.5 13.6193,-187.5 96.6193,-187.5 96.6193,-168.5 13.6193,-168.5"/>
<text text-anchor="middle" x="55.1193" y="-175.5" font-family="Helvetica,sans-Serif" font-size="10.00" fill="#000000">Simulator.cpp</text>
</a>
</g>
</g>
<!-- Node62&#45;&gt;Node66 -->
<g id="edge12" class="edge">
<title>Node62&#45;&gt;Node66</title>
<path fill="none" stroke="#191970" d="M1213.7717,-230.8696C1180.9352,-228.7262 1135.8398,-225.9329 1096.1193,-224 656.3489,-202.5998 543.5027,-238.5153 106.1193,-188 103.0718,-187.648 99.9342,-187.2132 96.7842,-186.7236"/>
<polygon fill="#191970" stroke="#191970" points="1213.7717,-234.3771 1223.9798,-231.5408 1214.231,-227.3921 1213.7717,-234.3771"/>
</g>
<!-- Node67 -->
<g id="node13" class="node">
<title>Node67</title>
<g id="a_node13"><a xlink:href="../../dd/dbc/LibCarla_2source_2carla_2client_2LaneInvasionSensor_8cpp.html" target="_top" xlink:title="LaneInvasionSensor.cpp">
<polygon fill="#ffffff" stroke="#000000" points="1433.1193,-168.5 1433.1193,-187.5 1567.1193,-187.5 1567.1193,-168.5 1433.1193,-168.5"/>
<text text-anchor="middle" x="1500.1193" y="-175.5" font-family="Helvetica,sans-Serif" font-size="10.00" fill="#000000">LaneInvasionSensor.cpp</text>
</a>
</g>
</g>
<!-- Node62&#45;&gt;Node67 -->
<g id="edge13" class="edge">
<title>Node62&#45;&gt;Node67</title>
<path fill="none" stroke="#191970" d="M1306.2348,-223.2397C1350.5117,-212.9084 1416.7587,-197.4508 1459.2058,-187.5465"/>
<polygon fill="#191970" stroke="#191970" points="1305.2527,-219.8748 1296.3096,-225.5556 1306.8433,-226.6917 1305.2527,-219.8748"/>
</g>
<!-- Node62&#45;&gt;Node68 -->
<g id="edge14" class="edge">
<title>Node62&#45;&gt;Node68</title>
<path fill="none" stroke="#191970" d="M1306.4121,-229.7321C1392.8413,-221.7386 1584.6262,-203.8819 1746.1193,-188 1761.3523,-186.5019 1777.9123,-184.8291 1793.0096,-183.2867"/>
<polygon fill="#191970" stroke="#191970" points="1306.0388,-226.2516 1296.4034,-230.6572 1306.6831,-233.2219 1306.0388,-226.2516"/>
</g>
<!-- Node69 -->
<g id="node15" class="node">
<title>Node69</title>
<g id="a_node15"><a xlink:href="../../d1/da0/ServerSideSensor_8cpp.html" target="_top" xlink:title="ServerSideSensor.cpp">
<polygon fill="#ffffff" stroke="#000000" points="717.1193,-168.5 717.1193,-187.5 839.1193,-187.5 839.1193,-168.5 717.1193,-168.5"/>
<text text-anchor="middle" x="778.1193" y="-175.5" font-family="Helvetica,sans-Serif" font-size="10.00" fill="#000000">ServerSideSensor.cpp</text>
</a>
</g>
</g>
<!-- Node62&#45;&gt;Node69 -->
<g id="edge15" class="edge">
<title>Node62&#45;&gt;Node69</title>
<path fill="none" stroke="#191970" d="M1213.9298,-224.5921C1212.6472,-224.3855 1211.3752,-224.1876 1210.1193,-224 1050.2105,-200.1169 1008.6292,-207.4371 848.1193,-188 845.1944,-187.6458 842.2027,-187.2701 839.1824,-186.8801"/>
<polygon fill="#191970" stroke="#191970" points="1213.421,-228.056 1223.8719,-226.3155 1214.6166,-221.1588 1213.421,-228.056"/>
</g>
<!-- Node70 -->
<g id="node16" class="node">
<title>Node70</title>
<g id="a_node16"><a xlink:href="../../dd/d90/TrafficLight_8cpp.html" target="_top" xlink:title="TrafficLight.cpp">
<polygon fill="#ffffff" stroke="#000000" points="857.1193,-168.5 857.1193,-187.5 947.1193,-187.5 947.1193,-168.5 857.1193,-168.5"/>
<text text-anchor="middle" x="902.1193" y="-175.5" font-family="Helvetica,sans-Serif" font-size="10.00" fill="#000000">TrafficLight.cpp</text>
</a>
</g>
</g>
<!-- Node62&#45;&gt;Node70 -->
<g id="edge16" class="edge">
<title>Node62&#45;&gt;Node70</title>
<path fill="none" stroke="#191970" d="M1213.9939,-224.6753C1212.6891,-224.4435 1211.3955,-224.2179 1210.1193,-224 1097.7284,-204.812 1068.6444,-206.3848 956.1193,-188 953.2023,-187.5234 950.2,-187.0156 947.1757,-186.4911"/>
<polygon fill="#191970" stroke="#191970" points="1213.6449,-228.17 1224.1145,-226.546 1214.9173,-221.2866 1213.6449,-228.17"/>
</g>
<!-- Node71 -->
<g id="node17" class="node">
<title>Node71</title>
<g id="a_node17"><a xlink:href="../../d1/d40/TrafficSign_8cpp.html" target="_top" xlink:title="TrafficSign.cpp">
<polygon fill="#ffffff" stroke="#000000" points="365.6193,-168.5 365.6193,-187.5 452.6193,-187.5 452.6193,-168.5 365.6193,-168.5"/>
<text text-anchor="middle" x="409.1193" y="-175.5" font-family="Helvetica,sans-Serif" font-size="10.00" fill="#000000">TrafficSign.cpp</text>
</a>
</g>
</g>
<!-- Node62&#45;&gt;Node71 -->
<g id="edge17" class="edge">
<title>Node62&#45;&gt;Node71</title>
<path fill="none" stroke="#191970" d="M1213.7954,-228.1864C1200.3681,-226.6504 1185.6744,-225.1127 1172.1193,-224 857.2176,-198.1499 775.8617,-225.377 462.1193,-188 459.051,-187.6345 455.893,-187.197 452.7195,-186.7122"/>
<polygon fill="#191970" stroke="#191970" points="1213.4378,-231.6684 1223.7767,-229.3537 1214.251,-224.7157 1213.4378,-231.6684"/>
</g>
<!-- Node72 -->
<g id="node18" class="node">
<title>Node72</title>
<g id="a_node18"><a xlink:href="../../d0/d27/Vehicle_8cpp.html" target="_top" xlink:title="Vehicle.cpp">
<polygon fill="#ffffff" stroke="#000000" points="1665.1193,-168.5 1665.1193,-187.5 1737.1193,-187.5 1737.1193,-168.5 1665.1193,-168.5"/>
<text text-anchor="middle" x="1701.1193" y="-175.5" font-family="Helvetica,sans-Serif" font-size="10.00" fill="#000000">Vehicle.cpp</text>
</a>
</g>
</g>
<!-- Node62&#45;&gt;Node72 -->
<g id="edge18" class="edge">
<title>Node62&#45;&gt;Node72</title>
<path fill="none" stroke="#191970" d="M1306.7292,-230.1539C1380.9851,-223.6748 1530.5757,-209.183 1656.1193,-188 1658.9603,-187.5206 1661.8921,-186.9784 1664.833,-186.4003"/>
<polygon fill="#191970" stroke="#191970" points="1305.9937,-226.7043 1296.3318,-231.0515 1306.5959,-233.6783 1305.9937,-226.7043"/>
</g>
<!-- Node73 -->
<g id="node19" class="node">
<title>Node73</title>
<g id="a_node19"><a xlink:href="../../d6/db6/Walker_8cpp.html" target="_top" xlink:title="Walker.cpp">
<polygon fill="#ffffff" stroke="#000000" points="471.1193,-168.5 471.1193,-187.5 541.1193,-187.5 541.1193,-168.5 471.1193,-168.5"/>
<text text-anchor="middle" x="506.1193" y="-175.5" font-family="Helvetica,sans-Serif" font-size="10.00" fill="#000000">Walker.cpp</text>
</a>
</g>
</g>
<!-- Node62&#45;&gt;Node73 -->
<g id="edge19" class="edge">
<title>Node62&#45;&gt;Node73</title>
<path fill="none" stroke="#191970" d="M1213.9401,-224.5177C1212.6545,-224.333 1211.379,-224.1598 1210.1193,-224 920.8856,-187.3181 844.2805,-225.249 555.1193,-188 550.6415,-187.4232 545.9611,-186.6681 541.3451,-185.831"/>
<polygon fill="#191970" stroke="#191970" points="1213.4681,-227.9868 1223.8981,-226.1253 1214.5837,-221.0762 1213.4681,-227.9868"/>
</g>
<!-- Node74 -->
<g id="node20" class="node">
<title>Node74</title>
<g id="a_node20"><a xlink:href="../../de/d69/WalkerAIController_8cpp.html" target="_top" xlink:title="WalkerAIController.cpp">
<polygon fill="#ffffff" stroke="#000000" points="219.1193,-168.5 219.1193,-187.5 347.1193,-187.5 347.1193,-168.5 219.1193,-168.5"/>
<text text-anchor="middle" x="283.1193" y="-175.5" font-family="Helvetica,sans-Serif" font-size="10.00" fill="#000000">WalkerAIController.cpp</text>
</a>
</g>
</g>
<!-- Node62&#45;&gt;Node74 -->
<g id="edge20" class="edge">
<title>Node62&#45;&gt;Node74</title>
<path fill="none" stroke="#191970" d="M1213.8001,-228.1292C1200.3728,-226.592 1185.6779,-225.0682 1172.1193,-224 810.2212,-195.4888 717.6658,-220.6689 356.1193,-188 353.1891,-187.7352 350.1961,-187.4373 347.1754,-187.1144"/>
<polygon fill="#191970" stroke="#191970" points="1213.4414,-231.611 1223.781,-229.2999 1214.2569,-224.6587 1213.4414,-231.611"/>
</g>
<!-- Node62&#45;&gt;Node75 -->
<g id="edge21" class="edge">
<title>Node62&#45;&gt;Node75</title>
<path fill="none" stroke="#191970" d="M1306.4786,-230.194C1334.2101,-228.0523 1370.1603,-225.5122 1402.1193,-224 2061.1316,-192.8185 2227.0122,-217.1083 2886.1193,-188 2928.8215,-186.1141 2978.028,-182.7636 3009.5722,-180.4645"/>
<polygon fill="#191970" stroke="#191970" points="1305.9745,-226.7226 1296.2781,-230.9923 1306.5207,-233.7013 1305.9745,-226.7226"/>
</g>
<!-- Node76 -->
<g id="node22" class="node">
<title>Node76</title>
<g id="a_node22"><a xlink:href="../../d8/d77/LibCarla_2source_2carla_2rss_2RssSensor_8cpp.html" target="_top" xlink:title="RssSensor.cpp">
<polygon fill="#ffffff" stroke="#000000" points="115.1193,-168.5 115.1193,-187.5 201.1193,-187.5 201.1193,-168.5 115.1193,-168.5"/>
<text text-anchor="middle" x="158.1193" y="-175.5" font-family="Helvetica,sans-Serif" font-size="10.00" fill="#000000">RssSensor.cpp</text>
</a>
</g>
</g>
<!-- Node62&#45;&gt;Node76 -->
<g id="edge22" class="edge">
<title>Node62&#45;&gt;Node76</title>
<path fill="none" stroke="#191970" d="M1213.8045,-228.0709C1200.3774,-226.5327 1185.6814,-225.0229 1172.1193,-224 745.4762,-191.8224 635.2117,-236.5408 210.1193,-188 207.1965,-187.6662 204.1919,-187.2597 201.1716,-186.8037"/>
<polygon fill="#191970" stroke="#191970" points="1213.4448,-231.5527 1223.7853,-229.2452 1214.2627,-224.6006 1213.4448,-231.5527"/>
</g>
<!-- Node77 -->
<g id="node23" class="node">
<title>Node77</title>
<g id="a_node23"><a xlink:href="../../d6/d75/LaneInvasionEvent_8cpp.html" target="_top" xlink:title="LaneInvasionEvent.cpp">
<polygon fill="#ffffff" stroke="#000000" points="1285.6193,-168.5 1285.6193,-187.5 1414.6193,-187.5 1414.6193,-168.5 1285.6193,-168.5"/>
<text text-anchor="middle" x="1350.1193" y="-175.5" font-family="Helvetica,sans-Serif" font-size="10.00" fill="#000000">LaneInvasionEvent.cpp</text>
</a>
</g>
</g>
<!-- Node62&#45;&gt;Node77 -->
<g id="edge23" class="edge">
<title>Node62&#45;&gt;Node77</title>
<path fill="none" stroke="#191970" d="M1284.5977,-218.769C1300.546,-208.8456 1320.8703,-196.1994 1334.6221,-187.6427"/>
<polygon fill="#191970" stroke="#191970" points="1282.4376,-215.9908 1275.7961,-224.2455 1286.1358,-221.9342 1282.4376,-215.9908"/>
</g>
<!-- Node78 -->
<g id="node24" class="node">
<title>Node78</title>
<g id="a_node24"><a xlink:href="../../db/d04/TrafficManager_8cpp.html" target="_top" xlink:title="TrafficManager.cpp">
<polygon fill="#ffffff" stroke="#000000" points="2299.6193,-.5 2299.6193,-19.5 2406.6193,-19.5 2406.6193,-.5 2299.6193,-.5"/>
<text text-anchor="middle" x="2353.1193" y="-7.5" font-family="Helvetica,sans-Serif" font-size="10.00" fill="#000000">TrafficManager.cpp</text>
</a>
</g>
</g>
<!-- Node62&#45;&gt;Node78 -->
<g id="edge24" class="edge">
<title>Node62&#45;&gt;Node78</title>
<path fill="none" stroke="#191970" d="M1259.8446,-214.13C1260.7616,-199.3068 1264.5447,-179.6776 1277.1193,-168 1482.9444,23.1423 1620.9603,-95.0756 1899.1193,-56 2043.2761,-35.7489 2214.3893,-20.8701 2299.4923,-14.0847"/>
<polygon fill="#191970" stroke="#191970" points="1256.3412,-214.2374 1259.6039,-224.3173 1263.3393,-214.4028 1256.3412,-214.2374"/>
</g>
<!-- Node79 -->
<g id="node25" class="node">
<title>Node79</title>
<g id="a_node25"><a xlink:href="../../da/d53/TrafficManagerLocal_8cpp.html" target="_top" xlink:title="TrafficManagerLocal.cpp">
<polygon fill="#ffffff" stroke="#000000" points="1517.1193,-.5 1517.1193,-19.5 1651.1193,-19.5 1651.1193,-.5 1517.1193,-.5"/>
<text text-anchor="middle" x="1584.1193" y="-7.5" font-family="Helvetica,sans-Serif" font-size="10.00" fill="#000000">TrafficManagerLocal.cpp</text>
</a>
</g>
</g>
<!-- Node62&#45;&gt;Node79 -->
<g id="edge25" class="edge">
<title>Node62&#45;&gt;Node79</title>
<path fill="none" stroke="#191970" d="M1213.8581,-229.9088C1191.8355,-228.0133 1165.1255,-225.7899 1141.1193,-224 1079.7152,-219.4217 630.2211,-232.9317 588.1193,-188 582.0415,-181.5137 582.388,-174.7945 588.1193,-168 648.4777,-96.4447 1303.1668,-34.1709 1516.9917,-15.614"/>
<polygon fill="#191970" stroke="#191970" points="1213.6746,-233.4059 1223.9393,-230.7816 1214.2785,-226.432 1213.6746,-233.4059"/>
</g>
<!-- Node80 -->
<g id="node26" class="node">
<title>Node80</title>
<g id="a_node26"><a xlink:href="../../d6/d82/TrafficManagerRemote_8cpp.html" target="_top" xlink:title="TrafficManagerRemote.cpp">
<polygon fill="#ffffff" stroke="#000000" points="965.1193,-168.5 965.1193,-187.5 1111.1193,-187.5 1111.1193,-168.5 965.1193,-168.5"/>
<text text-anchor="middle" x="1038.1193" y="-175.5" font-family="Helvetica,sans-Serif" font-size="10.00" fill="#000000">TrafficManagerRemote.cpp</text>
</a>
</g>
</g>
<!-- Node62&#45;&gt;Node80 -->
<g id="edge26" class="edge">
<title>Node62&#45;&gt;Node80</title>
<path fill="none" stroke="#191970" d="M1214.249,-222.4291C1173.413,-212.1281 1114.38,-197.2369 1076.1257,-187.5872"/>
<polygon fill="#191970" stroke="#191970" points="1213.4047,-225.8257 1223.9571,-224.878 1215.1169,-219.0383 1213.4047,-225.8257"/>
</g>
<!-- Node81&#45;&gt;Node71 -->
<g id="edge29" class="edge">
<title>Node81&#45;&gt;Node71</title>
<path fill="none" stroke="#191970" d="M1102.2528,-270.9743C1094.7021,-255.3887 1081.6918,-234.289 1063.1193,-224 1004.6017,-191.5815 528.5101,-196.2181 462.1193,-188 459.0527,-187.6204 455.896,-187.1725 452.7234,-186.6802"/>
<polygon fill="#191970" stroke="#191970" points="1099.1327,-272.5698 1106.43,-280.251 1105.5155,-269.6957 1099.1327,-272.5698"/>
</g>
<!-- Node81&#45;&gt;Node83 -->
<g id="edge28" class="edge">
<title>Node81&#45;&gt;Node83</title>
<path fill="none" stroke="#191970" d="M1083.1164,-275.46C1064.5057,-265.4388 1040.2894,-252.3993 1024.0271,-243.6427"/>
<polygon fill="#191970" stroke="#191970" points="1081.5398,-278.5861 1092.0039,-280.2455 1084.8585,-272.4228 1081.5398,-278.5861"/>
</g>
<!-- Node87&#45;&gt;Node62 -->
<g id="edge31" class="edge">
<title>Node87&#45;&gt;Node62</title>
<path fill="none" stroke="#191970" d="M1516.4963,-282.3404C1458.2045,-271.3494 1351.745,-251.2762 1296.127,-240.7893"/>
<polygon fill="#191970" stroke="#191970" points="1515.9783,-285.8044 1526.4537,-284.2179 1517.2754,-278.9256 1515.9783,-285.8044"/>
</g>
<!-- Node87&#45;&gt;Node67 -->
<g id="edge33" class="edge">
<title>Node87&#45;&gt;Node67</title>
<path fill="none" stroke="#191970" d="M1553.5917,-269.9887C1550.6818,-256.4653 1545.7682,-238.5015 1538.1193,-224 1530.7736,-210.0734 1518.7544,-196.4679 1510.2012,-187.7118"/>
<polygon fill="#191970" stroke="#191970" points="1550.2216,-270.9911 1555.5809,-280.1304 1557.0907,-269.6437 1550.2216,-270.9911"/>
</g>
<!-- Node87&#45;&gt;Node72 -->
<g id="edge34" class="edge">
<title>Node87&#45;&gt;Node72</title>
<path fill="none" stroke="#191970" d="M1577.592,-274.0768C1607.9928,-250.4317 1664.1379,-206.7633 1688.873,-187.5249"/>
<polygon fill="#191970" stroke="#191970" points="1575.1414,-271.5488 1569.3967,-280.4509 1579.439,-277.0742 1575.1414,-271.5488"/>
</g>
<!-- Node87&#45;&gt;Node76 -->
<g id="edge35" class="edge">
<title>Node87&#45;&gt;Node76</title>
<path fill="none" stroke="#191970" d="M1516.3063,-284.9503C1452.1194,-276.9096 1323.6965,-260.4216 1215.1193,-244 1162.0917,-235.9799 1149.4626,-229.5441 1096.1193,-224 704.128,-183.2595 601.6053,-233.339 210.1193,-188 207.197,-187.6616 204.1928,-187.2515 201.1728,-186.793"/>
<polygon fill="#191970" stroke="#191970" points="1516.0576,-288.4464 1526.4144,-286.2132 1516.9255,-281.5004 1516.0576,-288.4464"/>
</g>
<!-- Node87&#45;&gt;Node83 -->
<g id="edge32" class="edge">
<title>Node87&#45;&gt;Node83</title>
<path fill="none" stroke="#191970" d="M1516.337,-285.8552C1416.7203,-275.7308 1161.3583,-249.7775 1054.3919,-238.9061"/>
<polygon fill="#191970" stroke="#191970" points="1516.0118,-289.34 1526.3145,-286.8692 1516.7197,-282.3759 1516.0118,-289.34"/>
</g>
<!-- Node87&#45;&gt;Node91 -->
<g id="edge36" class="edge">
<title>Node87&#45;&gt;Node91</title>
<path fill="none" stroke="#191970" d="M1597.9981,-289.3785C1799.3493,-286.193 2678.053,-270.7978 2729.1193,-244 2756.6677,-229.5436 2761.2811,-217.5146 2771.1193,-188 2784.4681,-147.9535 2768.7931,-96.8728 2761.0052,-75.7825"/>
<polygon fill="#191970" stroke="#191970" points="1597.7929,-285.8812 1587.8491,-289.5377 1597.9028,-292.8803 1597.7929,-285.8812"/>
</g>
<!-- Node87&#45;&gt;Node92 -->
<g id="edge37" class="edge">
<title>Node87&#45;&gt;Node92</title>
<path fill="none" stroke="#191970" d="M1598.0154,-287.561C1748.6057,-278.5802 2272.2755,-247.3496 2442.3321,-237.2078"/>
<polygon fill="#191970" stroke="#191970" points="1597.6015,-284.0794 1587.8277,-288.1686 1598.0183,-291.067 1597.6015,-284.0794"/>
</g>
<!-- Node92&#45;&gt;Node91 -->
<g id="edge38" class="edge">
<title>Node92&#45;&gt;Node91</title>
<path fill="none" stroke="#191970" d="M2559.7314,-225.869C2611.267,-218.173 2678.7091,-205.2341 2700.1193,-188 2719.0591,-172.7545 2744.8506,-101.7439 2753.8566,-75.6509"/>
<polygon fill="#191970" stroke="#191970" points="2559.0452,-222.4319 2549.6548,-227.338 2560.0551,-229.3587 2559.0452,-222.4319"/>
</g>
<!-- Node93 -->
<g id="node32" class="node">
<title>Node93</title>
<g id="a_node32"><a xlink:href="../../d9/df4/LocalizationStage_8h.html" target="_top" xlink:title="LocalizationStage.h">
<polygon fill="#ffffff" stroke="#ff0000" points="1913.1193,-168.5 1913.1193,-187.5 2025.1193,-187.5 2025.1193,-168.5 1913.1193,-168.5"/>
<text text-anchor="middle" x="1969.1193" y="-175.5" font-family="Helvetica,sans-Serif" font-size="10.00" fill="#000000">LocalizationStage.h</text>
</a>
</g>
</g>
<!-- Node92&#45;&gt;Node93 -->
<g id="edge39" class="edge">
<title>Node92&#45;&gt;Node93</title>
<path fill="none" stroke="#191970" d="M2432.0551,-224.4794C2430.7321,-224.315 2429.4189,-224.155 2428.1193,-224 2253.9551,-203.2326 2209.2378,-209.147 2035.1193,-188 2031.898,-187.6088 2028.5918,-187.1835 2025.2579,-186.7363"/>
<polygon fill="#191970" stroke="#191970" points="2431.9665,-227.9972 2442.3338,-225.8133 2432.8674,-221.0554 2431.9665,-227.9972"/>
</g>
<!-- Node96 -->
<g id="node35" class="node">
<title>Node96</title>
<g id="a_node35"><a xlink:href="../../d3/d00/MotionPlanStage_8h.html" target="_top" xlink:title="MotionPlanStage.h">
<polygon fill="#ffffff" stroke="#ff0000" points="2043.6193,-168.5 2043.6193,-187.5 2150.6193,-187.5 2150.6193,-168.5 2043.6193,-168.5"/>
<text text-anchor="middle" x="2097.1193" y="-175.5" font-family="Helvetica,sans-Serif" font-size="10.00" fill="#000000">MotionPlanStage.h</text>
</a>
</g>
</g>
<!-- Node92&#45;&gt;Node96 -->
<g id="edge46" class="edge">
<title>Node92&#45;&gt;Node96</title>
<path fill="none" stroke="#191970" d="M2432.0453,-224.5547C2430.7252,-224.3674 2429.4154,-224.1823 2428.1193,-224 2309.1104,-207.2569 2279.0308,-205.4215 2160.1193,-188 2157.0512,-187.5505 2153.9006,-187.0797 2150.7222,-186.5976"/>
<polygon fill="#191970" stroke="#191970" points="2431.9115,-228.0711 2442.3065,-226.0231 2432.9032,-221.1417 2431.9115,-228.0711"/>
</g>
<!-- Node97 -->
<g id="node36" class="node">
<title>Node97</title>
<g id="a_node36"><a xlink:href="../../db/da2/CollisionStage_8cpp.html" target="_top" xlink:title="CollisionStage.cpp">
<polygon fill="#ffffff" stroke="#000000" points="2311.6193,-168.5 2311.6193,-187.5 2418.6193,-187.5 2418.6193,-168.5 2311.6193,-168.5"/>
<text text-anchor="middle" x="2365.1193" y="-175.5" font-family="Helvetica,sans-Serif" font-size="10.00" fill="#000000">CollisionStage.cpp</text>
</a>
</g>
</g>
<!-- Node92&#45;&gt;Node97 -->
<g id="edge49" class="edge">
<title>Node92&#45;&gt;Node97</title>
<path fill="none" stroke="#191970" d="M2464.2659,-220.3833C2440.4408,-210.1985 2408.4625,-196.5284 2387.3451,-187.5011"/>
<polygon fill="#191970" stroke="#191970" points="2463.0287,-223.6608 2473.5996,-224.3733 2465.7803,-217.2242 2463.0287,-223.6608"/>
</g>
<!-- Node98 -->
<g id="node37" class="node">
<title>Node98</title>
<g id="a_node37"><a xlink:href="../../d1/dd6/LocalizationUtils_8cpp.html" target="_top" xlink:title="LocalizationUtils.cpp">
<polygon fill="#ffffff" stroke="#000000" points="2437.1193,-168.5 2437.1193,-187.5 2555.1193,-187.5 2555.1193,-168.5 2437.1193,-168.5"/>
<text text-anchor="middle" x="2496.1193" y="-175.5" font-family="Helvetica,sans-Serif" font-size="10.00" fill="#000000">LocalizationUtils.cpp</text>
</a>
</g>
</g>
<!-- Node92&#45;&gt;Node98 -->
<g id="edge50" class="edge">
<title>Node92&#45;&gt;Node98</title>
<path fill="none" stroke="#191970" d="M2496.1193,-214.1575C2496.1193,-205.155 2496.1193,-194.9199 2496.1193,-187.6427"/>
<polygon fill="#191970" stroke="#191970" points="2492.6194,-214.2455 2496.1193,-224.2455 2499.6194,-214.2456 2492.6194,-214.2455"/>
</g>
<!-- Node99 -->
<g id="node38" class="node">
<title>Node99</title>
<g id="a_node38"><a xlink:href="../../dc/d13/TrafficLightStage_8cpp.html" target="_top" xlink:title="TrafficLightStage.cpp">
<polygon fill="#ffffff" stroke="#000000" points="2573.1193,-168.5 2573.1193,-187.5 2691.1193,-187.5 2691.1193,-168.5 2573.1193,-168.5"/>
<text text-anchor="middle" x="2632.1193" y="-175.5" font-family="Helvetica,sans-Serif" font-size="10.00" fill="#000000">TrafficLightStage.cpp</text>
</a>
</g>
</g>
<!-- Node92&#45;&gt;Node99 -->
<g id="edge51" class="edge">
<title>Node92&#45;&gt;Node99</title>
<path fill="none" stroke="#191970" d="M2528.8592,-220.5189C2553.6276,-210.3201 2587.0243,-196.5685 2609.0451,-187.5011"/>
<polygon fill="#191970" stroke="#191970" points="2527.4127,-217.3293 2519.4985,-224.3733 2530.078,-223.8021 2527.4127,-217.3293"/>
</g>
<!-- Node100 -->
<g id="node39" class="node">
<title>Node100</title>
<g id="a_node39"><a xlink:href="../../d2/d11/VehicleLightStage_8cpp.html" target="_top" xlink:title="VehicleLightStage.cpp">
<polygon fill="#ffffff" stroke="#000000" points="2169.1193,-168.5 2169.1193,-187.5 2293.1193,-187.5 2293.1193,-168.5 2169.1193,-168.5"/>
<text text-anchor="middle" x="2231.1193" y="-175.5" font-family="Helvetica,sans-Serif" font-size="10.00" fill="#000000">VehicleLightStage.cpp</text>
</a>
</g>
</g>
<!-- Node92&#45;&gt;Node100 -->
<g id="edge52" class="edge">
<title>Node92&#45;&gt;Node100</title>
<path fill="none" stroke="#191970" d="M2440.7877,-222.3073C2391.9569,-211.9883 2321.6622,-197.1336 2276.1867,-187.5237"/>
<polygon fill="#191970" stroke="#191970" points="2440.3577,-225.7936 2450.8653,-224.4369 2441.805,-218.9449 2440.3577,-225.7936"/>
</g>
<!-- Node93&#45;&gt;Node94 -->
<g id="edge40" class="edge">
<title>Node93&#45;&gt;Node94</title>
<path fill="none" stroke="#191970" d="M2000.5541,-164.2473C2023.8002,-154.0771 2054.8604,-140.4883 2075.4025,-131.5011"/>
<polygon fill="#191970" stroke="#191970" points="1998.882,-161.1585 1991.1233,-168.3733 2001.6878,-167.5716 1998.882,-161.1585"/>
</g>
<!-- Node93&#45;&gt;Node86 -->
<g id="edge45" class="edge">
<title>Node93&#45;&gt;Node86</title>
<path fill="none" stroke="#191970" d="M1969.1193,-158.2702C1969.1193,-133.9985 1969.1193,-93.7725 1969.1193,-75.5249"/>
<polygon fill="#191970" stroke="#191970" points="1965.6194,-158.4509 1969.1193,-168.4509 1972.6194,-158.451 1965.6194,-158.4509"/>
</g>
<!-- Node94&#45;&gt;Node91 -->
<g id="edge41" class="edge">
<title>Node94&#45;&gt;Node91</title>
<path fill="none" stroke="#191970" d="M2133.6263,-118.9024C2250.7235,-108.9669 2615.6401,-78.0043 2725.5076,-68.6822"/>
<polygon fill="#191970" stroke="#191970" points="2133.0676,-115.4372 2123.3994,-119.7702 2133.6595,-122.4121 2133.0676,-115.4372"/>
</g>
<!-- Node94&#45;&gt;Node86 -->
<g id="edge42" class="edge">
<title>Node94&#45;&gt;Node86</title>
<path fill="none" stroke="#191970" d="M2065.6845,-108.2473C2042.4384,-98.0771 2011.3782,-84.4883 1990.8362,-75.5011"/>
<polygon fill="#191970" stroke="#191970" points="2064.5509,-111.5716 2075.1153,-112.3733 2067.3566,-105.1585 2064.5509,-111.5716"/>
</g>
<!-- Node86&#45;&gt;Node78 -->
<g id="edge43" class="edge">
<title>Node86&#45;&gt;Node78</title>
<path fill="none" stroke="#191970" d="M2040.698,-55.5614C2115.7538,-44.6158 2231.9822,-27.6658 2299.5008,-17.8194"/>
<polygon fill="#191970" stroke="#191970" points="2039.7801,-52.1582 2030.3899,-57.0647 2040.7903,-59.0849 2039.7801,-52.1582"/>
</g>
<!-- Node86&#45;&gt;Node79 -->
<g id="edge44" class="edge">
<title>Node86&#45;&gt;Node79</title>
<path fill="none" stroke="#191970" d="M1897.9128,-55.6427C1826.8747,-45.3099 1718.6483,-29.5679 1649.6687,-19.5345"/>
<polygon fill="#191970" stroke="#191970" points="1897.7152,-59.1507 1908.1149,-57.1266 1898.7229,-52.2236 1897.7152,-59.1507"/>
</g>
<!-- Node96&#45;&gt;Node94 -->
<g id="edge47" class="edge">
<title>Node96&#45;&gt;Node94</title>
<path fill="none" stroke="#191970" d="M2097.1193,-158.1575C2097.1193,-149.155 2097.1193,-138.9199 2097.1193,-131.6427"/>
<polygon fill="#191970" stroke="#191970" points="2093.6194,-158.2455 2097.1193,-168.2455 2100.6194,-158.2456 2093.6194,-158.2455"/>
</g>
<!-- Node96&#45;&gt;Node86 -->
<g id="edge48" class="edge">
<title>Node96&#45;&gt;Node86</title>
<path fill="none" stroke="#191970" d="M2078.5722,-161.7713C2051.4705,-138.0573 2001.8973,-94.6807 1980.0049,-75.5249"/>
<polygon fill="#191970" stroke="#191970" points="2076.3755,-164.4999 2086.2061,-168.4509 2080.9851,-159.2318 2076.3755,-164.4999"/>
</g>
<!-- Node106&#45;&gt;Node63 -->
<g id="edge55" class="edge">
<title>Node106&#45;&gt;Node63</title>
<path fill="none" stroke="#191970" d="M2001.5387,-342.8823C2165.6718,-333.4787 2628.0425,-302.3876 2767.1193,-244 2798.3531,-230.8873 2827.5663,-202.5284 2841.528,-187.6138"/>
<polygon fill="#191970" stroke="#191970" points="2000.9513,-339.4099 1991.1655,-343.4704 2001.3476,-346.3987 2000.9513,-339.4099"/>
</g>
<!-- Node106&#45;&gt;Node66 -->
<g id="edge57" class="edge">
<title>Node106&#45;&gt;Node66</title>
<path fill="none" stroke="#191970" d="M1884.5712,-343.7875C1743.6792,-338.1727 1388.7784,-322.2242 1272.1193,-300 1191.4831,-284.6383 1170.8537,-277.9549 1096.1193,-244 1080.5053,-236.9059 1079.5472,-228.9243 1063.1193,-224 859.2638,-162.8933 317.5157,-212.5492 106.1193,-188 103.072,-187.6461 99.9346,-187.2099 96.7847,-186.7193"/>
<polygon fill="#191970" stroke="#191970" points="1884.609,-347.2916 1894.7395,-344.1895 1884.8856,-340.2971 1884.609,-347.2916"/>
</g>
<!-- Node106&#45;&gt;Node72 -->
<g id="edge58" class="edge">
<title>Node106&#45;&gt;Node72</title>
<path fill="none" stroke="#191970" d="M1921.0865,-330.7045C1872.071,-296.6772 1755.1691,-215.5222 1714.9733,-187.6177"/>
<polygon fill="#191970" stroke="#191970" points="1919.2044,-333.6586 1929.415,-336.4862 1923.1963,-327.9084 1919.2044,-333.6586"/>
</g>
<!-- Node106&#45;&gt;Node78 -->
<g id="edge59" class="edge">
<title>Node106&#45;&gt;Node78</title>
<path fill="none" stroke="#191970" d="M2001.5245,-345.025C2112.9534,-342.4361 2363.31,-333.1112 2571.1193,-300 2622.2158,-291.8585 2749.5083,-264.2565 2797.1193,-244 2840.1233,-225.7036 2863.5258,-228.9101 2886.1193,-188 2918.9423,-128.5673 2909.0533,-117.1688 2798.1193,-56 2764.5373,-37.4829 2517.9125,-20.1585 2406.951,-13.2076"/>
<polygon fill="#191970" stroke="#191970" points="2001.4198,-341.5263 1991.5003,-345.2482 2001.5758,-348.5246 2001.4198,-341.5263"/>
</g>
<!-- Node106&#45;&gt;Node87 -->
<g id="edge54" class="edge">
<title>Node106&#45;&gt;Node87</title>
<path fill="none" stroke="#191970" d="M1884.9684,-337.5636C1801.8243,-325.5012 1651.937,-303.7559 1587.6985,-294.4364"/>
<polygon fill="#191970" stroke="#191970" points="1884.6137,-341.0487 1895.0126,-339.0208 1885.6187,-334.1212 1884.6137,-341.0487"/>
</g>
<!-- Node106&#45;&gt;Node107 -->
<g id="edge56" class="edge">
<title>Node106&#45;&gt;Node107</title>
<path fill="none" stroke="#191970" d="M2001.3513,-344.8961C2126.3263,-341.9736 2429.3501,-331.9224 2681.1193,-300 2685.7706,-299.4103 2690.6324,-298.6586 2695.4363,-297.833"/>
<polygon fill="#191970" stroke="#191970" points="2001.1563,-341.3996 1991.2385,-345.126 2001.3155,-348.3978 2001.1563,-341.3996"/>
</g>
<!-- Node108&#45;&gt;Node78 -->
<g id="edge62" class="edge">
<title>Node108&#45;&gt;Node78</title>
<path fill="none" stroke="#191970" d="M2039.1117,-398.5034C2211.6254,-389.1484 2648.3628,-360.0728 2780.1193,-300 2847.9914,-269.0545 2873.4854,-255.554 2905.1193,-188 2919.4488,-157.3994 2922.5444,-142.0632 2907.1193,-112 2887.6375,-74.0303 2869.067,-71.0139 2829.1193,-56 2752.9574,-27.3755 2514.3959,-15.6179 2406.754,-11.6789"/>
<polygon fill="#191970" stroke="#191970" points="2038.6731,-395.0218 2028.8748,-399.0521 2039.0478,-402.0118 2038.6731,-395.0218"/>
</g>
<!-- Node108&#45;&gt;Node86 -->
<g id="edge63" class="edge">
<title>Node108&#45;&gt;Node86</title>
<path fill="none" stroke="#191970" d="M1897.4871,-392.4273C1838.8882,-380.0428 1765.1193,-352.1166 1765.1193,-290 1765.1193,-290 1765.1193,-290 1765.1193,-178 1765.1193,-112.1426 1847.8231,-84.7445 1907.9126,-73.5295"/>
<polygon fill="#191970" stroke="#191970" points="1896.9958,-395.8982 1907.4876,-394.4243 1898.3666,-389.0338 1896.9958,-395.8982"/>
</g>
<!-- Node108&#45;&gt;Node106 -->
<g id="edge61" class="edge">
<title>Node108&#45;&gt;Node106</title>
<path fill="none" stroke="#191970" d="M1959.6567,-383.0437C1955.5448,-373.8331 1950.7799,-363.1598 1947.4241,-355.6427"/>
<polygon fill="#191970" stroke="#191970" points="1956.4921,-384.541 1963.7646,-392.2455 1962.8841,-381.6874 1956.4921,-384.541"/>
</g>
<!-- Node111&#45;&gt;Node62 -->
<g id="edge65" class="edge">
<title>Node111&#45;&gt;Node62</title>
<path fill="none" stroke="#191970" d="M1294.4946,-272.5004C1285.992,-262.9775 1275.7975,-251.5596 1268.7288,-243.6427"/>
<polygon fill="#191970" stroke="#191970" points="1292.139,-275.1172 1301.41,-280.2455 1297.3606,-270.4551 1292.139,-275.1172"/>
</g>
<!-- Node111&#45;&gt;Node73 -->
<g id="edge67" class="edge">
<title>Node111&#45;&gt;Node73</title>
<path fill="none" stroke="#191970" d="M1274.9399,-276.958C1231.4782,-261.4626 1154.9564,-236.1802 1087.1193,-224 853.8642,-182.1188 789.966,-219.7648 555.1193,-188 550.6453,-187.3949 545.9671,-186.6229 541.3522,-185.777"/>
<polygon fill="#191970" stroke="#191970" points="1273.8803,-280.2964 1284.4747,-280.3901 1276.2511,-273.7101 1273.8803,-280.2964"/>
</g>
<!-- Node111&#45;&gt;Node83 -->
<g id="edge66" class="edge">
<title>Node111&#45;&gt;Node83</title>
<path fill="none" stroke="#191970" d="M1270.257,-282.6569C1214.6856,-272.4201 1114.0509,-253.8821 1054.331,-242.8811"/>
<polygon fill="#191970" stroke="#191970" points="1269.9484,-286.1589 1280.417,-284.5285 1271.2166,-279.2747 1269.9484,-286.1589"/>
</g>
<!-- Node111&#45;&gt;Node91 -->
<g id="edge68" class="edge">
<title>Node111&#45;&gt;Node91</title>
<path fill="none" stroke="#191970" d="M1349.7935,-287.9334C1391.6424,-285.7909 1459.5114,-282.4221 1518.1193,-280 1749.3935,-270.442 2331.5421,-286.2813 2559.1193,-244 2634.018,-230.0847 2666.1452,-240.7381 2721.1193,-188 2753.4696,-156.9656 2757.1511,-98.4363 2757.2889,-75.5317"/>
<polygon fill="#191970" stroke="#191970" points="1349.5432,-284.4416 1339.7361,-288.4504 1349.9026,-291.4324 1349.5432,-284.4416"/>
</g>
<!-- Node120&#45;&gt;Node66 -->
<g id="edge71" class="edge">
<title>Node120&#45;&gt;Node66</title>
<path fill="none" stroke="#191970" d="M131.3761,-219.46C112.9443,-209.4388 88.9609,-196.3993 72.8549,-187.6427"/>
<polygon fill="#191970" stroke="#191970" points="129.7208,-222.5438 140.1781,-224.2455 133.0644,-216.394 129.7208,-222.5438"/>
</g>
<!-- Node120&#45;&gt;Node76 -->
<g id="edge72" class="edge">
<title>Node120&#45;&gt;Node76</title>
<path fill="none" stroke="#191970" d="M158.1193,-214.1575C158.1193,-205.155 158.1193,-194.9199 158.1193,-187.6427"/>
<polygon fill="#191970" stroke="#191970" points="154.6194,-214.2455 158.1193,-224.2455 161.6194,-214.2456 154.6194,-214.2455"/>
</g>
<!-- Node125&#45;&gt;Node66 -->
<g id="edge76" class="edge">
<title>Node125&#45;&gt;Node66</title>
<path fill="none" stroke="#191970" d="M851.8637,-288.8768C670.4889,-285.4989 185.8511,-273.7676 120.1193,-244 93.1633,-231.7926 71.3775,-203.0376 61.2552,-187.8286"/>
<polygon fill="#191970" stroke="#191970" points="852.0159,-292.3801 862.0784,-289.0642 852.1443,-285.3813 852.0159,-292.3801"/>
</g>
<!-- Node125&#45;&gt;Node74 -->
<g id="edge77" class="edge">
<title>Node125&#45;&gt;Node74</title>
<path fill="none" stroke="#191970" d="M856.2344,-278.7675C730.8383,-256.7198 454.526,-208.1374 337.3522,-187.5355"/>
<polygon fill="#191970" stroke="#191970" points="855.6288,-282.2146 866.0838,-280.4993 856.841,-275.3204 855.6288,-282.2146"/>
</g>
<!-- Node125&#45;&gt;Node83 -->
<g id="edge75" class="edge">
<title>Node125&#45;&gt;Node83</title>
<path fill="none" stroke="#191970" d="M943.5098,-274.769C958.7492,-264.8456 978.1703,-252.1994 991.3109,-243.6427"/>
<polygon fill="#191970" stroke="#191970" points="941.5695,-271.8558 935.0994,-280.2455 945.3892,-277.7218 941.5695,-271.8558"/>
</g>
<!-- Node126&#45;&gt;Node67 -->
<g id="edge79" class="edge">
<title>Node126&#45;&gt;Node67</title>
<path fill="none" stroke="#191970" d="M1480.1173,-215.3372C1485.0869,-206.0605 1490.8837,-195.2398 1494.9536,-187.6427"/>
<polygon fill="#191970" stroke="#191970" points="1476.982,-213.7779 1475.3449,-224.2455 1483.1524,-217.0835 1476.982,-213.7779"/>
</g>
<!-- Node126&#45;&gt;Node77 -->
<g id="edge80" class="edge">
<title>Node126&#45;&gt;Node77</title>
<path fill="none" stroke="#191970" d="M1440.3569,-220.1109C1418.5961,-209.9559 1389.6511,-196.4482 1370.4789,-187.5011"/>
<polygon fill="#191970" stroke="#191970" points="1438.9486,-223.316 1449.4906,-224.3733 1441.9088,-216.9727 1438.9486,-223.316"/>
</g>
</g>
</svg>
