<?xml version="1.0" encoding="UTF-8" standalone="no"?>
<!DOCTYPE svg PUBLIC "-//W3C//DTD SVG 1.1//EN"
 "http://www.w3.org/Graphics/SVG/1.1/DTD/svg11.dtd">
<!-- Generated by graphviz version 2.40.1 (20161225.0304)
 -->
<!-- Title: carla::geom::Vector3D::Length2D Pages: 1 -->
<svg width="294pt" height="39pt"
 viewBox="0.00 0.00 294.00 39.00" xmlns="http://www.w3.org/2000/svg" xmlns:xlink="http://www.w3.org/1999/xlink">
<g id="graph0" class="graph" transform="scale(1 1) rotate(0) translate(4 35)">
<title>carla::geom::Vector3D::Length2D</title>
<polygon fill="#ffffff" stroke="transparent" points="-4,4 -4,-35 290,-35 290,4 -4,4"/>
<!-- Node74 -->
<g id="node1" class="node">
<title>Node74</title>
<polygon fill="#bfbfbf" stroke="#000000" points="0,-.5 0,-30.5 125,-30.5 125,-.5 0,-.5"/>
<text text-anchor="start" x="8" y="-18.5" font-family="Helvetica,sans-Serif" font-size="10.00" fill="#000000">carla::geom::Vector3D</text>
<text text-anchor="middle" x="62.5" y="-7.5" font-family="Helvetica,sans-Serif" font-size="10.00" fill="#000000">::Length2D</text>
</g>
<!-- Node75 -->
<g id="node2" class="node">
<title>Node75</title>
<g id="a_node2"><a xlink:href="../../d9/dfe/classcarla_1_1geom_1_1Vector3D.html#a221e95663c1aeaf146c0f8b5a6b209a8" target="_top" xlink:title="carla::geom::Vector3D\l::SquaredLength2D">
<polygon fill="#ffffff" stroke="#000000" points="161,-.5 161,-30.5 286,-30.5 286,-.5 161,-.5"/>
<text text-anchor="start" x="169" y="-18.5" font-family="Helvetica,sans-Serif" font-size="10.00" fill="#000000">carla::geom::Vector3D</text>
<text text-anchor="middle" x="223.5" y="-7.5" font-family="Helvetica,sans-Serif" font-size="10.00" fill="#000000">::SquaredLength2D</text>
</a>
</g>
</g>
<!-- Node74&#45;&gt;Node75 -->
<g id="edge1" class="edge">
<title>Node74&#45;&gt;Node75</title>
<path fill="none" stroke="#191970" d="M125.2078,-15.5C133.6481,-15.5 142.3631,-15.5 150.9559,-15.5"/>
<polygon fill="#191970" stroke="#191970" points="150.9634,-19.0001 160.9633,-15.5 150.9633,-12.0001 150.9634,-19.0001"/>
</g>
</g>
</svg>
