<?xml version="1.0" encoding="UTF-8" standalone="no"?>
<!DOCTYPE svg PUBLIC "-//W3C//DTD SVG 1.1//EN"
 "http://www.w3.org/Graphics/SVG/1.1/DTD/svg11.dtd">
<!-- Generated by graphviz version 2.43.0 (0)
 -->
<!-- Title: carla::traffic_manager::TrafficManagerRemote Pages: 1 -->
<svg width="546pt" height="286pt"
 viewBox="0.00 0.00 546.00 285.50" xmlns="http://www.w3.org/2000/svg" xmlns:xlink="http://www.w3.org/1999/xlink">
<g id="graph0" class="graph" transform="scale(1 1) rotate(0) translate(4 281.5)">
<title>carla::traffic_manager::TrafficManagerRemote</title>
<polygon fill="white" stroke="transparent" points="-4,4 -4,-281.5 542,-281.5 542,4 -4,4"/>
<!-- Node1 -->
<g id="node1" class="node">
<title>Node1</title>
<g id="a_node1"><a xlink:title="The function of this class is to integrate all the various stages of the traffic manager appropriatel...">
<polygon fill="#bfbfbf" stroke="black" points="405,-137 405,-167 538,-167 538,-137 405,-137"/>
<text text-anchor="start" x="413" y="-155" font-family="Helvetica,sans-Serif" font-size="10.00">carla::traffic_manager</text>
<text text-anchor="middle" x="471.5" y="-144" font-family="Helvetica,sans-Serif" font-size="10.00">::TrafficManagerRemote</text>
</a>
</g>
</g>
<!-- Node2 -->
<g id="node2" class="node">
<title>Node2</title>
<g id="a_node2"><a xlink:href="../../dc/d92/classcarla_1_1traffic__manager_1_1TrafficManagerBase.html" target="_top" xlink:title="The function of this class is to integrate all the various stages of the traffic manager appropriatel...">
<polygon fill="white" stroke="black" points="145,-247 145,-277 269,-277 269,-247 145,-247"/>
<text text-anchor="start" x="153" y="-265" font-family="Helvetica,sans-Serif" font-size="10.00">carla::traffic_manager</text>
<text text-anchor="middle" x="207" y="-254" font-family="Helvetica,sans-Serif" font-size="10.00">::TrafficManagerBase</text>
</a>
</g>
</g>
<!-- Node2&#45;&gt;Node1 -->
<g id="edge1" class="edge">
<title>Node2&#45;&gt;Node1</title>
<path fill="none" stroke="midnightblue" d="M279.07,-249.4C312.84,-241.81 353.12,-230.38 387,-214 412.52,-201.66 438.14,-181.14 454.15,-167.11"/>
<polygon fill="midnightblue" stroke="midnightblue" points="278.3,-245.98 269.28,-251.53 279.79,-252.82 278.3,-245.98"/>
</g>
<!-- Node3 -->
<g id="node3" class="node">
<title>Node3</title>
<g id="a_node3"><a xlink:title=" ">
<polygon fill="white" stroke="#bfbfbf" points="153.5,-208.5 153.5,-227.5 260.5,-227.5 260.5,-208.5 153.5,-208.5"/>
<text text-anchor="middle" x="207" y="-215.5" font-family="Helvetica,sans-Serif" font-size="10.00">condition_variable</text>
</a>
</g>
</g>
<!-- Node3&#45;&gt;Node1 -->
<g id="edge2" class="edge">
<title>Node3&#45;&gt;Node1</title>
<path fill="none" stroke="#9a32cd" stroke-dasharray="5,2" d="M270.81,-206.49C305.33,-199.71 348.78,-190.43 387,-180 400.72,-176.26 415.49,-171.54 428.74,-167.05"/>
<polygon fill="#9a32cd" stroke="#9a32cd" points="270.01,-203.08 260.86,-208.43 271.34,-209.95 270.01,-203.08"/>
<text text-anchor="middle" x="344.5" y="-202" font-family="Helvetica,sans-Serif" font-size="10.00"> _cv</text>
</g>
<!-- Node4 -->
<g id="node4" class="node">
<title>Node4</title>
<g id="a_node4"><a xlink:title=" ">
<polygon fill="white" stroke="#bfbfbf" points="130,-159 130,-189 284,-189 284,-159 130,-159"/>
<text text-anchor="start" x="138" y="-177" font-family="Helvetica,sans-Serif" font-size="10.00">EpisodeProxyImpl&lt; Episode</text>
<text text-anchor="middle" x="207" y="-166" font-family="Helvetica,sans-Serif" font-size="10.00">ProxyPointerType::Strong &gt;</text>
</a>
</g>
</g>
<!-- Node4&#45;&gt;Node1 -->
<g id="edge3" class="edge">
<title>Node4&#45;&gt;Node1</title>
<path fill="none" stroke="#9a32cd" stroke-dasharray="5,2" d="M294.27,-166.77C330.21,-163.76 371.28,-160.32 404.72,-157.51"/>
<polygon fill="#9a32cd" stroke="#9a32cd" points="293.95,-163.28 284.28,-167.61 294.54,-170.26 293.95,-163.28"/>
<text text-anchor="middle" x="344.5" y="-168" font-family="Helvetica,sans-Serif" font-size="10.00"> episodeProxyTM</text>
</g>
<!-- Node5 -->
<g id="node5" class="node">
<title>Node5</title>
<g id="a_node5"><a xlink:title=" ">
<polygon fill="white" stroke="#bfbfbf" points="183,-120.5 183,-139.5 231,-139.5 231,-120.5 183,-120.5"/>
<text text-anchor="middle" x="207" y="-127.5" font-family="Helvetica,sans-Serif" font-size="10.00">mutex</text>
</a>
</g>
</g>
<!-- Node5&#45;&gt;Node1 -->
<g id="edge4" class="edge">
<title>Node5&#45;&gt;Node1</title>
<path fill="none" stroke="#9a32cd" stroke-dasharray="5,2" d="M241.58,-132.45C277.56,-135.12 336.34,-139.59 387,-144 392.8,-144.5 398.83,-145.05 404.87,-145.6"/>
<polygon fill="#9a32cd" stroke="#9a32cd" points="241.41,-128.93 231.18,-131.68 240.9,-135.91 241.41,-128.93"/>
<text text-anchor="middle" x="344.5" y="-147" font-family="Helvetica,sans-Serif" font-size="10.00"> _mutex</text>
</g>
<!-- Node6 -->
<g id="node6" class="node">
<title>Node6</title>
<g id="a_node6"><a xlink:title=" ">
<polygon fill="white" stroke="#bfbfbf" points="188,-82.5 188,-101.5 226,-101.5 226,-82.5 188,-82.5"/>
<text text-anchor="middle" x="207" y="-89.5" font-family="Helvetica,sans-Serif" font-size="10.00">bool</text>
</a>
</g>
</g>
<!-- Node6&#45;&gt;Node1 -->
<g id="edge5" class="edge">
<title>Node6&#45;&gt;Node1</title>
<path fill="none" stroke="#9a32cd" stroke-dasharray="5,2" d="M236.12,-95.13C271.65,-99.45 334.51,-108.29 387,-122 402.35,-126.01 418.87,-131.65 433.12,-136.96"/>
<polygon fill="#9a32cd" stroke="#9a32cd" points="236.35,-91.64 226.01,-93.94 235.53,-98.59 236.35,-91.64"/>
<text text-anchor="middle" x="344.5" y="-125" font-family="Helvetica,sans-Serif" font-size="10.00"> _keep_alive</text>
</g>
<!-- Node7 -->
<g id="node7" class="node">
<title>Node7</title>
<g id="a_node7"><a xlink:href="../../da/daa/classcarla_1_1traffic__manager_1_1TrafficManagerClient.html" target="_top" xlink:title="Provides communication with the rpc of TrafficManagerServer.">
<polygon fill="white" stroke="black" points="145,-33 145,-63 269,-63 269,-33 145,-33"/>
<text text-anchor="start" x="153" y="-51" font-family="Helvetica,sans-Serif" font-size="10.00">carla::traffic_manager</text>
<text text-anchor="middle" x="207" y="-40" font-family="Helvetica,sans-Serif" font-size="10.00">::TrafficManagerClient</text>
</a>
</g>
</g>
<!-- Node7&#45;&gt;Node1 -->
<g id="edge6" class="edge">
<title>Node7&#45;&gt;Node1</title>
<path fill="none" stroke="#9a32cd" stroke-dasharray="5,2" d="M279.58,-57.3C313.27,-63.43 353.34,-73.33 387,-89 413.18,-101.19 439.05,-122.54 454.89,-136.97"/>
<polygon fill="#9a32cd" stroke="#9a32cd" points="279.79,-53.78 269.34,-55.51 278.59,-60.68 279.79,-53.78"/>
<text text-anchor="middle" x="344.5" y="-92" font-family="Helvetica,sans-Serif" font-size="10.00"> client</text>
</g>
<!-- Node8 -->
<g id="node8" class="node">
<title>Node8</title>
<g id="a_node8"><a xlink:title=" ">
<polygon fill="white" stroke="#bfbfbf" points="0,-76.5 0,-95.5 56,-95.5 56,-76.5 0,-76.5"/>
<text text-anchor="middle" x="28" y="-83.5" font-family="Helvetica,sans-Serif" font-size="10.00">uint16_t</text>
</a>
</g>
</g>
<!-- Node8&#45;&gt;Node7 -->
<g id="edge7" class="edge">
<title>Node8&#45;&gt;Node7</title>
<path fill="none" stroke="#9a32cd" stroke-dasharray="5,2" d="M66.22,-78.01C89.03,-73.11 118.77,-66.73 144.95,-61.11"/>
<polygon fill="#9a32cd" stroke="#9a32cd" points="65.31,-74.62 56.27,-80.15 66.78,-81.47 65.31,-74.62"/>
<text text-anchor="middle" x="93" y="-78" font-family="Helvetica,sans-Serif" font-size="10.00"> tmport</text>
</g>
<!-- Node9 -->
<g id="node9" class="node">
<title>Node9</title>
<g id="a_node9"><a xlink:title=" ">
<polygon fill="white" stroke="#bfbfbf" points="6,-38.5 6,-57.5 50,-57.5 50,-38.5 6,-38.5"/>
<text text-anchor="middle" x="28" y="-45.5" font-family="Helvetica,sans-Serif" font-size="10.00">string</text>
</a>
</g>
</g>
<!-- Node9&#45;&gt;Node7 -->
<g id="edge8" class="edge">
<title>Node9&#45;&gt;Node7</title>
<path fill="none" stroke="#9a32cd" stroke-dasharray="5,2" d="M60.37,-48C83.68,-48 116.24,-48 144.67,-48"/>
<polygon fill="#9a32cd" stroke="#9a32cd" points="60.35,-44.5 50.35,-48 60.35,-51.5 60.35,-44.5"/>
<text text-anchor="middle" x="93" y="-51" font-family="Helvetica,sans-Serif" font-size="10.00"> tmhost</text>
</g>
<!-- Node10 -->
<g id="node10" class="node">
<title>Node10</title>
<g id="a_node10"><a xlink:title=" ">
<polygon fill="white" stroke="#bfbfbf" points="2,-0.5 2,-19.5 54,-19.5 54,-0.5 2,-0.5"/>
<text text-anchor="middle" x="28" y="-7.5" font-family="Helvetica,sans-Serif" font-size="10.00">client *</text>
</a>
</g>
</g>
<!-- Node10&#45;&gt;Node7 -->
<g id="edge9" class="edge">
<title>Node10&#45;&gt;Node7</title>
<path fill="none" stroke="#9a32cd" stroke-dasharray="5,2" d="M64.35,-17.59C87.33,-22.52 117.91,-29.09 144.78,-34.86"/>
<polygon fill="#9a32cd" stroke="#9a32cd" points="64.87,-14.12 54.36,-15.44 63.4,-20.97 64.87,-14.12"/>
<text text-anchor="middle" x="93" y="-30" font-family="Helvetica,sans-Serif" font-size="10.00"> _client</text>
</g>
</g>
</svg>
