<?xml version="1.0" encoding="UTF-8" standalone="no"?>
<!DOCTYPE svg PUBLIC "-//W3C//DTD SVG 1.1//EN"
 "http://www.w3.org/Graphics/SVG/1.1/DTD/svg11.dtd">
<!-- Generated by graphviz version 2.38.0 (20140413.2041)
 -->
<!-- Title: carla::traffic_manager::CollisionStage::Action Pages: 1 -->
<!--zoomable 547 -->
<svg id="main" version="1.1" xmlns="http://www.w3.org/2000/svg" xmlns:xlink="http://www.w3.org/1999/xlink" xml:space="preserve" onload="init(evt)">
<style type="text/css"><![CDATA[
.edge:hover path { stroke: red; }
.edge:hover polygon { stroke: red; fill: red; }
]]></style>
<script type="text/javascript"><![CDATA[
var edges = document.getElementsByTagName('g');
if (edges && edges.length) {
  for (var i=0;i<edges.length;i++) {
    if (edges[i].id.substr(0,4)=='edge') {
      edges[i].setAttribute('class','edge');
    }
  }
}
]]></script>
        <defs>
                <circle id="rim" cx="0" cy="0" r="7"/>
                <circle id="rim2" cx="0" cy="0" r="3.5"/>
                <g id="zoomPlus">
                        <use xlink:href="#rim" fill="#404040">
                                <set attributeName="fill" to="#808080" begin="zoomplus.mouseover" end="zoomplus.mouseout"/>
                        </use>
                        <path d="M-4,0h8M0,-4v8" fill="none" stroke="white" stroke-width="1.5" pointer-events="none"/>
                </g>
                <g id="zoomMin">
                        <use xlink:href="#rim" fill="#404040">
                                <set attributeName="fill" to="#808080" begin="zoomminus.mouseover" end="zoomminus.mouseout"/>
                        </use>
                        <path d="M-4,0h8" fill="none" stroke="white" stroke-width="1.5" pointer-events="none"/>
                </g>
                <g id="dirArrow">
                        <path fill="none" stroke="white" stroke-width="1.5" d="M0,-3.0v7 M-2.5,-0.5L0,-3.0L2.5,-0.5"/>
                </g>
               <g id="resetDef">
                       <use xlink:href="#rim2" fill="#404040">
                               <set attributeName="fill" to="#808080" begin="reset.mouseover" end="reset.mouseout"/>
                       </use>
               </g>
        </defs>

<script type="text/javascript">
var viewWidth = 1194;
var viewHeight = 547;
var sectionId = 'dynsection-2';
</script>
<script xlink:href="../../svgpan.js"/>
<svg id="graph" class="graph">
<g id="viewport">
<title>carla::traffic_manager::CollisionStage::Action</title>
<polygon fill="white" stroke="none" points="-4,4 -4,-543 1190,-543 1190,4 -4,4"/>
<!-- Node1 -->
<g id="node1" class="node"><title>Node1</title>
<polygon fill="#bfbfbf" stroke="black" points="0,-275.5 0,-305.5 119,-305.5 119,-275.5 0,-275.5"/>
<text text-anchor="start" x="8" y="-293.5" font-family="Helvetica,sans-Serif" font-size="10.00">carla::traffic_manager</text>
<text text-anchor="middle" x="59.5" y="-282.5" font-family="Helvetica,sans-Serif" font-size="10.00">::CollisionStage::Action</text>
</g>
<!-- Node2 -->
<g id="node2" class="node"><title>Node2</title>
<g id="a_node2"><a xlink:href="../../d0/dea/classcarla_1_1geom_1_1Math.html#a8f8eccc1a2bcc711250f2b47a21eb31f" target="_top" xlink:title="carla::geom::Math::\lClamp">
<polygon fill="white" stroke="black" points="191.5,-475.5 191.5,-505.5 292.5,-505.5 292.5,-475.5 191.5,-475.5"/>
<text text-anchor="start" x="199.5" y="-493.5" font-family="Helvetica,sans-Serif" font-size="10.00">carla::geom::Math::</text>
<text text-anchor="middle" x="242" y="-482.5" font-family="Helvetica,sans-Serif" font-size="10.00">Clamp</text>
</a>
</g>
</g>
<!-- Node1&#45;&gt;Node2 -->
<g id="edge1" class="edge"><title>Node1&#45;&gt;Node2</title>
<path fill="none" stroke="midnightblue" d="M64.8217,-305.596C75.0014,-338.508 103.585,-417.234 155,-460.5 162.804,-467.067 172.135,-472.229 181.727,-476.278"/>
<polygon fill="midnightblue" stroke="midnightblue" points="180.77,-479.659 191.361,-479.966 183.273,-473.122 180.77,-479.659"/>
</g>
<!-- Node3 -->
<g id="node3" class="node"><title>Node3</title>
<g id="a_node3"><a xlink:href="../../d0/dea/classcarla_1_1geom_1_1Math.html#a8bd4b72e239a23e9eb0bca4604dfa63e" target="_top" xlink:title="carla::geom::Math::\lDistanceSquared">
<polygon fill="white" stroke="black" points="389,-508.5 389,-538.5 490,-538.5 490,-508.5 389,-508.5"/>
<text text-anchor="start" x="397" y="-526.5" font-family="Helvetica,sans-Serif" font-size="10.00">carla::geom::Math::</text>
<text text-anchor="middle" x="439.5" y="-515.5" font-family="Helvetica,sans-Serif" font-size="10.00">DistanceSquared</text>
</a>
</g>
</g>
<!-- Node1&#45;&gt;Node3 -->
<g id="edge2" class="edge"><title>Node1&#45;&gt;Node3</title>
<path fill="none" stroke="midnightblue" d="M66.4546,-305.639C78.5386,-334.277 108.778,-396.301 155,-427.5 220.689,-471.838 257.029,-433.318 329,-466.5 347.163,-474.874 347.599,-483.64 365,-493.5 371.991,-497.461 379.609,-501.174 387.206,-504.546"/>
<polygon fill="midnightblue" stroke="midnightblue" points="385.849,-507.772 396.42,-508.484 388.6,-501.335 385.849,-507.772"/>
</g>
<!-- Node5 -->
<g id="node5" class="node"><title>Node5</title>
<g id="a_node5"><a xlink:href="../../d6/ddb/classcarla_1_1traffic__manager_1_1Parameters.html#a910b1039d2836beec764af198d8dc781" target="_top" xlink:title="Method to query collision avoidance rule between a pair of vehicles. ">
<polygon fill="white" stroke="black" points="155,-44.5 155,-74.5 329,-74.5 329,-44.5 155,-44.5"/>
<text text-anchor="start" x="163" y="-62.5" font-family="Helvetica,sans-Serif" font-size="10.00">carla::traffic_manager</text>
<text text-anchor="middle" x="242" y="-51.5" font-family="Helvetica,sans-Serif" font-size="10.00">::Parameters::GetCollisionDetection</text>
</a>
</g>
</g>
<!-- Node1&#45;&gt;Node5 -->
<g id="edge4" class="edge"><title>Node1&#45;&gt;Node5</title>
<path fill="none" stroke="midnightblue" d="M63.4383,-275.235C71.3768,-238.058 96.7085,-142.032 155,-89.5 159.365,-85.5666 164.274,-82.1431 169.478,-79.1642"/>
<polygon fill="midnightblue" stroke="midnightblue" points="171.165,-82.2328 178.47,-74.5592 167.974,-76.0023 171.165,-82.2328"/>
</g>
<!-- Node6 -->
<g id="node6" class="node"><title>Node6</title>
<g id="a_node6"><a xlink:href="../../d6/ddb/classcarla_1_1traffic__manager_1_1Parameters.html#afa2893f84ffb4fb55b1548b762f1bdda" target="_top" xlink:title="Method to get % to ignore any actor. ">
<polygon fill="white" stroke="black" points="554,-54 554,-95 725,-95 725,-54 554,-54"/>
<text text-anchor="start" x="562" y="-83" font-family="Helvetica,sans-Serif" font-size="10.00">carla::traffic_manager</text>
<text text-anchor="start" x="562" y="-72" font-family="Helvetica,sans-Serif" font-size="10.00">::Parameters::GetPercentageIgnore</text>
<text text-anchor="middle" x="639.5" y="-61" font-family="Helvetica,sans-Serif" font-size="10.00">Actors</text>
</a>
</g>
</g>
<!-- Node1&#45;&gt;Node6 -->
<g id="edge5" class="edge"><title>Node1&#45;&gt;Node6</title>
<path fill="none" stroke="midnightblue" d="M81.8493,-275.415C129.933,-242.205 251.401,-162.55 365,-122.5 422.555,-102.209 490.067,-90.2479 543.615,-83.3408"/>
<polygon fill="midnightblue" stroke="midnightblue" points="544.3,-86.7824 553.787,-82.0674 543.43,-79.8366 544.3,-86.7824"/>
</g>
<!-- Node9 -->
<g id="node9" class="node"><title>Node9</title>
<g id="a_node9"><a xlink:href="../../d1/d26/classcarla_1_1traffic__manager_1_1CollisionStage.html#a3885f2335a0f9b2ffa1afc87995ea671" target="_top" xlink:title="At intersections, used to see if there is space after the junction. ">
<polygon fill="white" stroke="black" points="173.5,-377 173.5,-418 310.5,-418 310.5,-377 173.5,-377"/>
<text text-anchor="start" x="181.5" y="-406" font-family="Helvetica,sans-Serif" font-size="10.00">carla::traffic_manager</text>
<text text-anchor="start" x="181.5" y="-395" font-family="Helvetica,sans-Serif" font-size="10.00">::CollisionStage::IsLocation</text>
<text text-anchor="middle" x="242" y="-384" font-family="Helvetica,sans-Serif" font-size="10.00">AfterJunctionSafe</text>
</a>
</g>
</g>
<!-- Node1&#45;&gt;Node9 -->
<g id="edge8" class="edge"><title>Node1&#45;&gt;Node9</title>
<path fill="none" stroke="midnightblue" d="M85.9784,-305.604C114.881,-322.737 162.516,-350.975 197.367,-371.635"/>
<polygon fill="midnightblue" stroke="midnightblue" points="195.994,-374.89 206.381,-376.978 199.564,-368.868 195.994,-374.89"/>
</g>
<!-- Node16 -->
<g id="node16" class="node"><title>Node16</title>
<g id="a_node16"><a xlink:href="../../d9/d36/namespacecarla.html#ac9fb0c8a601504dc849038a6a5896c73" target="_top" xlink:title="carla::log_info">
<polygon fill="white" stroke="black" points="203.5,-6 203.5,-25 280.5,-25 280.5,-6 203.5,-6"/>
<text text-anchor="middle" x="242" y="-13" font-family="Helvetica,sans-Serif" font-size="10.00">carla::log_info</text>
</a>
</g>
</g>
<!-- Node1&#45;&gt;Node16 -->
<g id="edge16" class="edge"><title>Node1&#45;&gt;Node16</title>
<path fill="none" stroke="midnightblue" d="M61.2725,-275.327C64.3925,-230.89 79.8483,-100.056 155,-34.5 165.468,-25.369 179.336,-20.3258 192.873,-17.6191"/>
<polygon fill="midnightblue" stroke="midnightblue" points="193.78,-21.0183 203.098,-15.9757 192.67,-14.1069 193.78,-21.0183"/>
</g>
<!-- Node18 -->
<g id="node18" class="node"><title>Node18</title>
<g id="a_node18"><a xlink:href="../../d1/d26/classcarla_1_1traffic__manager_1_1CollisionStage.html#a496e2ddc0fedbe61fc7b15238c88c5fb" target="_top" xlink:title="The method returns true if ego_vehicle should stop and wait for other_vehicle to pass. ">
<polygon fill="white" stroke="black" points="156.5,-275.5 156.5,-305.5 327.5,-305.5 327.5,-275.5 156.5,-275.5"/>
<text text-anchor="start" x="164.5" y="-293.5" font-family="Helvetica,sans-Serif" font-size="10.00">carla::traffic_manager</text>
<text text-anchor="middle" x="242" y="-282.5" font-family="Helvetica,sans-Serif" font-size="10.00">::CollisionStage::NegotiateCollision</text>
</a>
</g>
</g>
<!-- Node1&#45;&gt;Node18 -->
<g id="edge18" class="edge"><title>Node1&#45;&gt;Node18</title>
<path fill="none" stroke="midnightblue" d="M119.103,-290.5C127.872,-290.5 137.098,-290.5 146.385,-290.5"/>
<polygon fill="midnightblue" stroke="midnightblue" points="146.469,-294 156.468,-290.5 146.468,-287 146.469,-294"/>
</g>
<!-- Node4 -->
<g id="node4" class="node"><title>Node4</title>
<g id="a_node4"><a xlink:href="../../d0/dea/classcarla_1_1geom_1_1Math.html#ac1644f7af375c05619c27851731cea87" target="_top" xlink:title="carla::geom::Math::\lSquare">
<polygon fill="white" stroke="black" points="589,-508.5 589,-538.5 690,-538.5 690,-508.5 589,-508.5"/>
<text text-anchor="start" x="597" y="-526.5" font-family="Helvetica,sans-Serif" font-size="10.00">carla::geom::Math::</text>
<text text-anchor="middle" x="639.5" y="-515.5" font-family="Helvetica,sans-Serif" font-size="10.00">Square</text>
</a>
</g>
</g>
<!-- Node3&#45;&gt;Node4 -->
<g id="edge3" class="edge"><title>Node3&#45;&gt;Node4</title>
<path fill="none" stroke="midnightblue" d="M490.208,-523.5C517.041,-523.5 550.359,-523.5 578.613,-523.5"/>
<polygon fill="midnightblue" stroke="midnightblue" points="578.771,-527 588.771,-523.5 578.771,-520 578.771,-527"/>
</g>
<!-- Node7 -->
<g id="node7" class="node"><title>Node7</title>
<g id="a_node7"><a xlink:href="../../d7/d02/classcarla_1_1traffic__manager_1_1AtomicMap.html#ab4ff594d85881fe31624b7e18a941736" target="_top" xlink:title="carla::traffic_manager\l::AtomicMap::Contains">
<polygon fill="white" stroke="black" points="766,-197.5 766,-227.5 883,-227.5 883,-197.5 766,-197.5"/>
<text text-anchor="start" x="774" y="-215.5" font-family="Helvetica,sans-Serif" font-size="10.00">carla::traffic_manager</text>
<text text-anchor="middle" x="824.5" y="-204.5" font-family="Helvetica,sans-Serif" font-size="10.00">::AtomicMap::Contains</text>
</a>
</g>
</g>
<!-- Node6&#45;&gt;Node7 -->
<g id="edge6" class="edge"><title>Node6&#45;&gt;Node7</title>
<path fill="none" stroke="midnightblue" d="M712.127,-95.0423C718.029,-97.8414 723.74,-100.983 729,-104.5 762.755,-127.072 791.833,-164.678 808.508,-189.027"/>
<polygon fill="midnightblue" stroke="midnightblue" points="805.604,-190.982 814.075,-197.345 811.422,-187.088 805.604,-190.982"/>
</g>
<!-- Node8 -->
<g id="node8" class="node"><title>Node8</title>
<g id="a_node8"><a xlink:href="../../d7/d02/classcarla_1_1traffic__manager_1_1AtomicMap.html#aa7d264c7411046be75bb6630534ca7fb" target="_top" xlink:title="carla::traffic_manager\l::AtomicMap::GetValue">
<polygon fill="white" stroke="black" points="765,-89.5 765,-119.5 884,-119.5 884,-89.5 765,-89.5"/>
<text text-anchor="start" x="773" y="-107.5" font-family="Helvetica,sans-Serif" font-size="10.00">carla::traffic_manager</text>
<text text-anchor="middle" x="824.5" y="-96.5" font-family="Helvetica,sans-Serif" font-size="10.00">::AtomicMap::GetValue</text>
</a>
</g>
</g>
<!-- Node6&#45;&gt;Node8 -->
<g id="edge7" class="edge"><title>Node6&#45;&gt;Node8</title>
<path fill="none" stroke="midnightblue" d="M725.036,-88.3584C735.045,-89.9992 745.166,-91.6583 754.916,-93.2567"/>
<polygon fill="midnightblue" stroke="midnightblue" points="754.487,-96.733 764.921,-94.8969 755.619,-89.8252 754.487,-96.733"/>
</g>
<!-- Node10 -->
<g id="node10" class="node"><title>Node10</title>
<g id="a_node10"><a xlink:href="../../d9/dfe/classcarla_1_1geom_1_1Vector3D.html#aad8ac2e7c4d42bd62006876bd8e9c5a2" target="_top" xlink:title="carla::geom::Vector3D\l::MakeUnitVector">
<polygon fill="white" stroke="black" points="767,-380.5 767,-410.5 882,-410.5 882,-380.5 767,-380.5"/>
<text text-anchor="start" x="775" y="-398.5" font-family="Helvetica,sans-Serif" font-size="10.00">carla::geom::Vector3D</text>
<text text-anchor="middle" x="824.5" y="-387.5" font-family="Helvetica,sans-Serif" font-size="10.00">::MakeUnitVector</text>
</a>
</g>
</g>
<!-- Node9&#45;&gt;Node10 -->
<g id="edge9" class="edge"><title>Node9&#45;&gt;Node10</title>
<path fill="none" stroke="midnightblue" d="M310.814,-417.298C316.989,-419.313 323.127,-421.395 329,-423.5 345.317,-429.349 348.003,-435.101 365,-438.5 409.838,-447.468 721.74,-432.958 729,-431.5 747.13,-427.858 766.338,-421.118 782.668,-414.447"/>
<polygon fill="midnightblue" stroke="midnightblue" points="784.063,-417.658 791.921,-410.551 781.346,-411.206 784.063,-417.658"/>
</g>
<!-- Node14 -->
<g id="node14" class="node"><title>Node14</title>
<g id="a_node14"><a xlink:href="../../d1/d26/classcarla_1_1traffic__manager_1_1CollisionStage.html#ae9e10df23e4e644369f94e428c83b949" target="_top" xlink:title="Method to construct a boost polygon object. ">
<polygon fill="white" stroke="black" points="368,-382.5 368,-412.5 511,-412.5 511,-382.5 368,-382.5"/>
<text text-anchor="start" x="376" y="-400.5" font-family="Helvetica,sans-Serif" font-size="10.00">carla::traffic_manager</text>
<text text-anchor="middle" x="439.5" y="-389.5" font-family="Helvetica,sans-Serif" font-size="10.00">::CollisionStage::GetPolygon</text>
</a>
</g>
</g>
<!-- Node9&#45;&gt;Node14 -->
<g id="edge13" class="edge"><title>Node9&#45;&gt;Node14</title>
<path fill="none" stroke="midnightblue" d="M310.554,-397.5C325.764,-397.5 342.056,-397.5 357.745,-397.5"/>
<polygon fill="midnightblue" stroke="midnightblue" points="357.95,-401 367.95,-397.5 357.95,-394 357.95,-401"/>
</g>
<!-- Node15 -->
<g id="node15" class="node"><title>Node15</title>
<g id="a_node15"><a xlink:href="../../d1/d26/classcarla_1_1traffic__manager_1_1CollisionStage.html#ada159b05b5b04274b008c62d2598a3a4" target="_top" xlink:title="Returns the bounding box corners of the vehicle passed to the method. ">
<polygon fill="white" stroke="black" points="565,-358.5 565,-388.5 714,-388.5 714,-358.5 565,-358.5"/>
<text text-anchor="start" x="573" y="-376.5" font-family="Helvetica,sans-Serif" font-size="10.00">carla::traffic_manager</text>
<text text-anchor="middle" x="639.5" y="-365.5" font-family="Helvetica,sans-Serif" font-size="10.00">::CollisionStage::GetBoundary</text>
</a>
</g>
</g>
<!-- Node9&#45;&gt;Node15 -->
<g id="edge14" class="edge"><title>Node9&#45;&gt;Node15</title>
<path fill="none" stroke="midnightblue" d="M310.586,-413.593C365.707,-424.303 445.392,-434.268 514,-421.5 543.756,-415.963 575.569,-403.574 599.588,-392.771"/>
<polygon fill="midnightblue" stroke="midnightblue" points="601.095,-395.93 608.718,-388.572 598.17,-389.57 601.095,-395.93"/>
</g>
<!-- Node11 -->
<g id="node11" class="node"><title>Node11</title>
<g id="a_node11"><a xlink:href="../../d9/dfe/classcarla_1_1geom_1_1Vector3D.html#a38fb62af5286d5e41dfdf91ef2f9358f" target="_top" xlink:title="carla::geom::Vector3D\l::Length">
<polygon fill="white" stroke="black" points="920,-405.5 920,-435.5 1035,-435.5 1035,-405.5 920,-405.5"/>
<text text-anchor="start" x="928" y="-423.5" font-family="Helvetica,sans-Serif" font-size="10.00">carla::geom::Vector3D</text>
<text text-anchor="middle" x="977.5" y="-412.5" font-family="Helvetica,sans-Serif" font-size="10.00">::Length</text>
</a>
</g>
</g>
<!-- Node10&#45;&gt;Node11 -->
<g id="edge10" class="edge"><title>Node10&#45;&gt;Node11</title>
<path fill="none" stroke="midnightblue" d="M882.156,-404.88C891.191,-406.376 900.609,-407.935 909.849,-409.465"/>
<polygon fill="midnightblue" stroke="midnightblue" points="909.34,-412.928 919.777,-411.109 910.483,-406.022 909.34,-412.928"/>
</g>
<!-- Node13 -->
<g id="node13" class="node"><title>Node13</title>
<g id="a_node13"><a xlink:href="../../d9/dfe/classcarla_1_1geom_1_1Vector3D.html#ae8900b561fa2d9e6667f36038aea7657" target="_top" xlink:title="carla::geom::Vector3D\l::Vector3D">
<polygon fill="white" stroke="black" points="920,-356.5 920,-386.5 1035,-386.5 1035,-356.5 920,-356.5"/>
<text text-anchor="start" x="928" y="-374.5" font-family="Helvetica,sans-Serif" font-size="10.00">carla::geom::Vector3D</text>
<text text-anchor="middle" x="977.5" y="-363.5" font-family="Helvetica,sans-Serif" font-size="10.00">::Vector3D</text>
</a>
</g>
</g>
<!-- Node10&#45;&gt;Node13 -->
<g id="edge12" class="edge"><title>Node10&#45;&gt;Node13</title>
<path fill="none" stroke="midnightblue" d="M882.156,-386.495C891.191,-385.059 900.609,-383.562 909.849,-382.094"/>
<polygon fill="midnightblue" stroke="midnightblue" points="910.451,-385.542 919.777,-380.516 909.352,-378.629 910.451,-385.542"/>
</g>
<!-- Node12 -->
<g id="node12" class="node"><title>Node12</title>
<g id="a_node12"><a xlink:href="../../d9/dfe/classcarla_1_1geom_1_1Vector3D.html#a54afa1ba36c12d5b4c76bc4f2072a807" target="_top" xlink:title="carla::geom::Vector3D\l::SquaredLength">
<polygon fill="white" stroke="black" points="1071,-405.5 1071,-435.5 1186,-435.5 1186,-405.5 1071,-405.5"/>
<text text-anchor="start" x="1079" y="-423.5" font-family="Helvetica,sans-Serif" font-size="10.00">carla::geom::Vector3D</text>
<text text-anchor="middle" x="1128.5" y="-412.5" font-family="Helvetica,sans-Serif" font-size="10.00">::SquaredLength</text>
</a>
</g>
</g>
<!-- Node11&#45;&gt;Node12 -->
<g id="edge11" class="edge"><title>Node11&#45;&gt;Node12</title>
<path fill="none" stroke="midnightblue" d="M1035.26,-420.5C1043.56,-420.5 1052.17,-420.5 1060.65,-420.5"/>
<polygon fill="midnightblue" stroke="midnightblue" points="1060.9,-424 1070.9,-420.5 1060.9,-417 1060.9,-424"/>
</g>
<!-- Node15&#45;&gt;Node10 -->
<g id="edge15" class="edge"><title>Node15&#45;&gt;Node10</title>
<path fill="none" stroke="midnightblue" d="M714.142,-382.353C728.288,-384.054 743.026,-385.826 756.933,-387.497"/>
<polygon fill="midnightblue" stroke="midnightblue" points="756.545,-390.976 766.891,-388.695 757.381,-384.026 756.545,-390.976"/>
</g>
<!-- Node17 -->
<g id="node17" class="node"><title>Node17</title>
<g id="a_node17"><a xlink:href="../../d2/d8c/namespacecarla_1_1logging.html#a1824b914c5dc7221a1098a469e8ce612" target="_top" xlink:title="carla::logging::write\l_to_stream">
<polygon fill="white" stroke="black" points="389,-0.5 389,-30.5 490,-30.5 490,-0.5 389,-0.5"/>
<text text-anchor="start" x="397" y="-18.5" font-family="Helvetica,sans-Serif" font-size="10.00">carla::logging::write</text>
<text text-anchor="middle" x="439.5" y="-7.5" font-family="Helvetica,sans-Serif" font-size="10.00">_to_stream</text>
</a>
</g>
</g>
<!-- Node16&#45;&gt;Node17 -->
<g id="edge17" class="edge"><title>Node16&#45;&gt;Node17</title>
<path fill="none" stroke="midnightblue" d="M280.694,-15.5C308.428,-15.5 346.692,-15.5 378.595,-15.5"/>
<polygon fill="midnightblue" stroke="midnightblue" points="378.709,-19.0001 388.709,-15.5 378.709,-12.0001 378.709,-19.0001"/>
</g>
<!-- Node18&#45;&gt;Node3 -->
<g id="edge22" class="edge"><title>Node18&#45;&gt;Node3</title>
<path fill="none" stroke="midnightblue" d="M262.741,-305.756C281.065,-320.453 308.52,-343.878 329,-367.5 347.895,-389.294 348.566,-397.795 365,-421.5 383.934,-448.81 406.344,-479.713 421.398,-500.277"/>
<polygon fill="midnightblue" stroke="midnightblue" points="418.631,-502.422 427.368,-508.416 424.276,-498.282 418.631,-502.422"/>
</g>
<!-- Node18&#45;&gt;Node10 -->
<g id="edge19" class="edge"><title>Node18&#45;&gt;Node10</title>
<path fill="none" stroke="midnightblue" d="M276.125,-305.524C300.366,-316.092 334.253,-329.991 365,-339.5 429.799,-359.54 451.862,-345.31 514,-372.5 531.846,-380.309 531.411,-391.678 550,-397.5 625.92,-421.276 649.449,-398.342 729,-397.5 737.978,-397.405 747.434,-397.259 756.755,-397.089"/>
<polygon fill="midnightblue" stroke="midnightblue" points="756.855,-400.588 766.786,-396.895 756.72,-393.589 756.855,-400.588"/>
</g>
<!-- Node18&#45;&gt;Node14 -->
<g id="edge24" class="edge"><title>Node18&#45;&gt;Node14</title>
<path fill="none" stroke="midnightblue" d="M264.358,-305.603C288.194,-322.069 328.254,-348.59 365,-367.5 372.487,-371.353 380.587,-375.075 388.58,-378.51"/>
<polygon fill="midnightblue" stroke="midnightblue" points="387.295,-381.767 397.871,-382.401 389.999,-375.31 387.295,-381.767"/>
</g>
<!-- Node18&#45;&gt;Node15 -->
<g id="edge35" class="edge"><title>Node18&#45;&gt;Node15</title>
<path fill="none" stroke="midnightblue" d="M327.614,-303.837C381.258,-312.776 451.982,-325.453 514,-339.5 534.845,-344.221 557.442,-350.145 577.591,-355.719"/>
<polygon fill="midnightblue" stroke="midnightblue" points="576.694,-359.103 587.267,-358.421 578.577,-352.36 576.694,-359.103"/>
</g>
<!-- Node19 -->
<g id="node19" class="node"><title>Node19</title>
<g id="a_node19"><a xlink:href="../../d2/d06/classcarla_1_1client_1_1detail_1_1ActorState.html#a75deab6612b9e61d7873df841e852781" target="_top" xlink:title="carla::client::detail\l::ActorState::GetBoundingBox">
<polygon fill="white" stroke="black" points="565,-173.5 565,-203.5 714,-203.5 714,-173.5 565,-173.5"/>
<text text-anchor="start" x="573" y="-191.5" font-family="Helvetica,sans-Serif" font-size="10.00">carla::client::detail</text>
<text text-anchor="middle" x="639.5" y="-180.5" font-family="Helvetica,sans-Serif" font-size="10.00">::ActorState::GetBoundingBox</text>
</a>
</g>
</g>
<!-- Node18&#45;&gt;Node19 -->
<g id="edge20" class="edge"><title>Node18&#45;&gt;Node19</title>
<path fill="none" stroke="midnightblue" d="M271.818,-275.347C296.069,-263.187 331.981,-246.541 365,-236.5 427.308,-217.552 500.017,-205.235 554.8,-197.827"/>
<polygon fill="midnightblue" stroke="midnightblue" points="555.36,-201.284 564.813,-196.501 554.44,-194.345 555.36,-201.284"/>
</g>
<!-- Node20 -->
<g id="node20" class="node"><title>Node20</title>
<g id="a_node20"><a xlink:href="../../d0/dea/classcarla_1_1geom_1_1Math.html#a98bc1394f89f87defc597b229f22d12f" target="_top" xlink:title="carla::geom::Math::Dot">
<polygon fill="white" stroke="black" points="381,-132 381,-151 498,-151 498,-132 381,-132"/>
<text text-anchor="middle" x="439.5" y="-139" font-family="Helvetica,sans-Serif" font-size="10.00">carla::geom::Math::Dot</text>
</a>
</g>
</g>
<!-- Node18&#45;&gt;Node20 -->
<g id="edge21" class="edge"><title>Node18&#45;&gt;Node20</title>
<path fill="none" stroke="midnightblue" d="M254.005,-275.102C273.489,-248.913 316.595,-195.617 365,-165.5 372.049,-161.114 379.983,-157.446 387.962,-154.406"/>
<polygon fill="midnightblue" stroke="midnightblue" points="389.384,-157.616 397.661,-151.002 387.066,-151.011 389.384,-157.616"/>
</g>
<!-- Node21 -->
<g id="node21" class="node"><title>Node21</title>
<g id="a_node21"><a xlink:href="../../d1/d26/classcarla_1_1traffic__manager_1_1CollisionStage.html#a8864fafcb5888e945cfa767a896d1762" target="_top" xlink:title="Method to calculate the speed dependent bounding box extention for a vehicle. ">
<polygon fill="white" stroke="black" points="565.5,-114 565.5,-155 713.5,-155 713.5,-114 565.5,-114"/>
<text text-anchor="start" x="573.5" y="-143" font-family="Helvetica,sans-Serif" font-size="10.00">carla::traffic_manager</text>
<text text-anchor="start" x="573.5" y="-132" font-family="Helvetica,sans-Serif" font-size="10.00">::CollisionStage::GetBounding</text>
<text text-anchor="middle" x="639.5" y="-121" font-family="Helvetica,sans-Serif" font-size="10.00">BoxExtention</text>
</a>
</g>
</g>
<!-- Node18&#45;&gt;Node21 -->
<g id="edge23" class="edge"><title>Node18&#45;&gt;Node21</title>
<path fill="none" stroke="midnightblue" d="M258.995,-275.36C281.094,-255.271 323.014,-220.071 365,-200.5 382.398,-192.39 481.55,-169.355 555.496,-152.782"/>
<polygon fill="midnightblue" stroke="midnightblue" points="556.299,-156.189 565.294,-150.591 554.771,-149.358 556.299,-156.189"/>
</g>
<!-- Node22 -->
<g id="node22" class="node"><title>Node22</title>
<g id="a_node22"><a xlink:href="../../d1/d26/classcarla_1_1traffic__manager_1_1CollisionStage.html#ad743dd39eae0f7dd6173d268a01dcdd6" target="_top" xlink:title="Returns the extrapolated bounding box of the vehicle along its trajectory. ">
<polygon fill="white" stroke="black" points="365,-246 365,-287 514,-287 514,-246 365,-246"/>
<text text-anchor="start" x="373" y="-275" font-family="Helvetica,sans-Serif" font-size="10.00">carla::traffic_manager</text>
<text text-anchor="start" x="373" y="-264" font-family="Helvetica,sans-Serif" font-size="10.00">::CollisionStage::GetGeodesic</text>
<text text-anchor="middle" x="439.5" y="-253" font-family="Helvetica,sans-Serif" font-size="10.00">Boundary</text>
</a>
</g>
</g>
<!-- Node18&#45;&gt;Node22 -->
<g id="edge25" class="edge"><title>Node18&#45;&gt;Node22</title>
<path fill="none" stroke="midnightblue" d="M327.612,-280.113C336.609,-279.008 345.758,-277.885 354.746,-276.782"/>
<polygon fill="midnightblue" stroke="midnightblue" points="355.308,-280.239 364.807,-275.547 354.456,-273.291 355.308,-280.239"/>
</g>
<!-- Node22&#45;&gt;Node10 -->
<g id="edge32" class="edge"><title>Node22&#45;&gt;Node10</title>
<path fill="none" stroke="midnightblue" d="M486.486,-287.038C505.826,-295.133 528.735,-304.024 550,-310.5 627.8,-334.195 652.202,-321.734 729,-348.5 749.439,-355.623 771.136,-366.18 788.578,-375.485"/>
<polygon fill="midnightblue" stroke="midnightblue" points="787.339,-378.794 797.796,-380.495 790.682,-372.644 787.339,-378.794"/>
</g>
<!-- Node22&#45;&gt;Node15 -->
<g id="edge26" class="edge"><title>Node22&#45;&gt;Node15</title>
<path fill="none" stroke="midnightblue" d="M491.167,-287.16C499.143,-291.375 507.042,-296.174 514,-301.5 533.523,-316.443 529.633,-329.73 550,-343.5 556.098,-347.623 562.815,-351.227 569.74,-354.366"/>
<polygon fill="midnightblue" stroke="midnightblue" points="568.697,-357.724 579.272,-358.364 571.404,-351.269 568.697,-357.724"/>
</g>
<!-- Node22&#45;&gt;Node19 -->
<g id="edge31" class="edge"><title>Node22&#45;&gt;Node19</title>
<path fill="none" stroke="midnightblue" d="M484.562,-245.881C494.294,-241.226 504.526,-236.253 514,-231.5 530.171,-223.387 533.167,-219.13 550,-212.5 555.184,-210.458 560.605,-208.526 566.101,-206.712"/>
<polygon fill="midnightblue" stroke="midnightblue" points="567.557,-209.922 576.04,-203.575 565.45,-203.247 567.557,-209.922"/>
</g>
<!-- Node22&#45;&gt;Node21 -->
<g id="edge27" class="edge"><title>Node22&#45;&gt;Node21</title>
<path fill="none" stroke="midnightblue" d="M461.534,-245.769C490.423,-217.444 539.957,-169.462 550,-163.5 552.331,-162.116 554.736,-160.789 557.196,-159.518"/>
<polygon fill="midnightblue" stroke="midnightblue" points="558.8,-162.63 566.306,-155.153 555.775,-156.318 558.8,-162.63"/>
</g>
<!-- Node23 -->
<g id="node23" class="node"><title>Node23</title>
<g id="a_node23"><a xlink:href="../../d6/ddb/classcarla_1_1traffic__manager_1_1Parameters.html#a1c28732db92a3b6a74b4642a8e9f0675" target="_top" xlink:title="Method to query distance to leading vehicle for a given vehicle. ">
<polygon fill="white" stroke="black" points="550,-222 550,-263 729,-263 729,-222 550,-222"/>
<text text-anchor="start" x="558" y="-251" font-family="Helvetica,sans-Serif" font-size="10.00">carla::traffic_manager</text>
<text text-anchor="start" x="558" y="-240" font-family="Helvetica,sans-Serif" font-size="10.00">::Parameters::GetDistanceToLeading</text>
<text text-anchor="middle" x="639.5" y="-229" font-family="Helvetica,sans-Serif" font-size="10.00">Vehicle</text>
</a>
</g>
</g>
<!-- Node22&#45;&gt;Node23 -->
<g id="edge28" class="edge"><title>Node22&#45;&gt;Node23</title>
<path fill="none" stroke="midnightblue" d="M514.228,-257.563C522.605,-256.548 531.24,-255.501 539.872,-254.455"/>
<polygon fill="midnightblue" stroke="midnightblue" points="540.481,-257.907 549.987,-253.229 539.639,-250.958 540.481,-257.907"/>
</g>
<!-- Node24 -->
<g id="node24" class="node"><title>Node24</title>
<g id="a_node24"><a xlink:href="../../db/d20/pugixml_8cpp.html#a7a6eedef949e55be650bd6d2df60d68d" target="_top" xlink:title="reverse">
<polygon fill="white" stroke="black" points="615,-282 615,-301 664,-301 664,-282 615,-282"/>
<text text-anchor="middle" x="639.5" y="-289" font-family="Helvetica,sans-Serif" font-size="10.00">reverse</text>
</a>
</g>
</g>
<!-- Node22&#45;&gt;Node24 -->
<g id="edge33" class="edge"><title>Node22&#45;&gt;Node24</title>
<path fill="none" stroke="midnightblue" d="M514.228,-275.809C545.399,-279.745 580.151,-284.133 604.963,-287.266"/>
<polygon fill="midnightblue" stroke="midnightblue" points="604.588,-290.746 614.948,-288.526 605.465,-283.801 604.588,-290.746"/>
</g>
<!-- Node23&#45;&gt;Node7 -->
<g id="edge29" class="edge"><title>Node23&#45;&gt;Node7</title>
<path fill="none" stroke="midnightblue" d="M729.052,-227.983C738.035,-226.511 747.057,-225.032 755.769,-223.603"/>
<polygon fill="midnightblue" stroke="midnightblue" points="756.533,-227.025 765.835,-221.953 755.4,-220.117 756.533,-227.025"/>
</g>
<!-- Node23&#45;&gt;Node8 -->
<g id="edge30" class="edge"><title>Node23&#45;&gt;Node8</title>
<path fill="none" stroke="midnightblue" d="M712.127,-221.958C718.029,-219.159 723.74,-216.017 729,-212.5 762.755,-189.928 791.833,-152.322 808.508,-127.973"/>
<polygon fill="midnightblue" stroke="midnightblue" points="811.422,-129.912 814.075,-119.655 805.604,-126.018 811.422,-129.912"/>
</g>
<!-- Node25 -->
<g id="node25" class="node"><title>Node25</title>
<g id="a_node25"><a xlink:href="../../db/d20/pugixml_8cpp.html#aab8f818e90a34b18c1da140588eca88d" target="_top" xlink:title="swap">
<polygon fill="white" stroke="black" points="804.5,-282 804.5,-301 844.5,-301 844.5,-282 804.5,-282"/>
<text text-anchor="middle" x="824.5" y="-289" font-family="Helvetica,sans-Serif" font-size="10.00">swap</text>
</a>
</g>
</g>
<!-- Node24&#45;&gt;Node25 -->
<g id="edge34" class="edge"><title>Node24&#45;&gt;Node25</title>
<path fill="none" stroke="midnightblue" d="M664.049,-291.5C697.293,-291.5 757.953,-291.5 794.108,-291.5"/>
<polygon fill="midnightblue" stroke="midnightblue" points="794.485,-295 804.485,-291.5 794.485,-288 794.485,-295"/>
</g>
</g>
</svg>
        <g id="navigator" transform="translate(0 0)" fill="#404254">
                <rect fill="#f2f5e9" fill-opacity="0.5" stroke="#606060" stroke-width=".5" x="0" y="0" width="60" height="60"/>
                <use id="zoomplus" xlink:href="#zoomPlus" x="17" y="9" onmousedown="handleZoom(evt,'in')"/>
                <use id="zoomminus" xlink:href="#zoomMin" x="42" y="9" onmousedown="handleZoom(evt,'out')"/>
                <use id="reset" xlink:href="#resetDef" x="30" y="36" onmousedown="handleReset()"/>
                <g id="arrowUp" xlink:href="#dirArrow" transform="translate(30 24)" onmousedown="handlePan(0,-1)">
                  <use xlink:href="#rim" fill="#404040">
                        <set attributeName="fill" to="#808080" begin="arrowUp.mouseover" end="arrowUp.mouseout"/>
                  </use>
                  <path fill="none" stroke="white" stroke-width="1.5" d="M0,-3.0v7 M-2.5,-0.5L0,-3.0L2.5,-0.5"/>
                </g>
                <g id="arrowRight" xlink:href="#dirArrow" transform="rotate(90) translate(36 -43)" onmousedown="handlePan(1,0)">
                  <use xlink:href="#rim" fill="#404040">
                        <set attributeName="fill" to="#808080" begin="arrowRight.mouseover" end="arrowRight.mouseout"/>
                  </use>
                  <path fill="none" stroke="white" stroke-width="1.5" d="M0,-3.0v7 M-2.5,-0.5L0,-3.0L2.5,-0.5"/>
                </g>
                <g id="arrowDown" xlink:href="#dirArrow" transform="rotate(180) translate(-30 -48)" onmousedown="handlePan(0,1)">
                  <use xlink:href="#rim" fill="#404040">
                        <set attributeName="fill" to="#808080" begin="arrowDown.mouseover" end="arrowDown.mouseout"/>
                  </use>
                  <path fill="none" stroke="white" stroke-width="1.5" d="M0,-3.0v7 M-2.5,-0.5L0,-3.0L2.5,-0.5"/>
                </g>
                <g id="arrowLeft" xlink:href="#dirArrow" transform="rotate(270) translate(-36 17)" onmousedown="handlePan(-1,0)">
                  <use xlink:href="#rim" fill="#404040">
                        <set attributeName="fill" to="#808080" begin="arrowLeft.mouseover" end="arrowLeft.mouseout"/>
                  </use>
                  <path fill="none" stroke="white" stroke-width="1.5" d="M0,-3.0v7 M-2.5,-0.5L0,-3.0L2.5,-0.5"/>
                </g>
        </g>
        <svg viewBox="0 0 15 15" width="100%" height="30px" preserveAspectRatio="xMaxYMin meet">
         <g id="arrow_out" transform="scale(0.3 0.3)">
          <a xlink:href="classcarla_1_1traffic__manager_1_1CollisionStage_a879ddb5b8d339cfd25cf6bee0c661ae9_cgraph_org.svg" target="_base">
           <rect id="button" ry="5" rx="5" y="6" x="6" height="38" width="38"
                fill="#f2f5e9" fill-opacity="0.5" stroke="#606060" stroke-width="1.0"/>
           <path id="arrow"
             d="M 11.500037,31.436501 C 11.940474,20.09759 22.043105,11.32322 32.158766,21.979434 L 37.068811,17.246167 C 37.068811,17.246167 37.088388,32 37.088388,32 L 22.160133,31.978069 C 22.160133,31.978069 26.997745,27.140456 26.997745,27.140456 C 18.528582,18.264221 13.291696,25.230495 11.500037,31.436501 z"
             style="fill:#404040;"/>
          </a>
         </g>
        </svg>
</svg>
