<?xml version="1.0" encoding="UTF-8" standalone="no"?>
<!DOCTYPE svg PUBLIC "-//W3C//DTD SVG 1.1//EN"
 "http://www.w3.org/Graphics/SVG/1.1/DTD/svg11.dtd">
<!-- Generated by graphviz version 2.40.1 (20161225.0304)
 -->
<!-- Title: NavigationMesh.cpp Pages: 1 -->
<svg width="423pt" height="140pt"
 viewBox="0.00 0.00 422.50 140.00" xmlns="http://www.w3.org/2000/svg" xmlns:xlink="http://www.w3.org/1999/xlink">
<g id="graph0" class="graph" transform="scale(1 1) rotate(0) translate(4 136)">
<title>NavigationMesh.cpp</title>
<polygon fill="#ffffff" stroke="transparent" points="-4,4 -4,-136 418.5,-136 418.5,4 -4,4"/>
<!-- Node0 -->
<g id="node1" class="node">
<title>Node0</title>
<polygon fill="#bfbfbf" stroke="#000000" points="190.5,-112.5 190.5,-131.5 306.5,-131.5 306.5,-112.5 190.5,-112.5"/>
<text text-anchor="middle" x="248.5" y="-119.5" font-family="Helvetica,sans-Serif" font-size="10.00" fill="#000000">NavigationMesh.cpp</text>
</g>
<!-- Node1 -->
<g id="node2" class="node">
<title>Node1</title>
<g id="a_node2"><a xlink:href="../../d7/d7d/Carla_8h.html" target="_top" xlink:title="Carla.h">
<polygon fill="#ffffff" stroke="#000000" points="163,-56.5 163,-75.5 214,-75.5 214,-56.5 163,-56.5"/>
<text text-anchor="middle" x="188.5" y="-63.5" font-family="Helvetica,sans-Serif" font-size="10.00" fill="#000000">Carla.h</text>
</a>
</g>
</g>
<!-- Node0&#45;&gt;Node1 -->
<g id="edge1" class="edge">
<title>Node0&#45;&gt;Node1</title>
<path fill="none" stroke="#191970" d="M238.0488,-112.2455C229.2731,-104.0549 216.5446,-92.1749 206.186,-82.5069"/>
<polygon fill="#191970" stroke="#191970" points="208.5301,-79.9072 198.8314,-75.6427 203.7539,-85.0246 208.5301,-79.9072"/>
</g>
<!-- Node5 -->
<g id="node6" class="node">
<title>Node5</title>
<g id="a_node6"><a xlink:href="../../d9/d30/NavigationMesh_8h.html" target="_top" xlink:title="Carla/Util/NavigationMesh.h">
<polygon fill="#ffffff" stroke="#000000" points="232,-56.5 232,-75.5 385,-75.5 385,-56.5 232,-56.5"/>
<text text-anchor="middle" x="308.5" y="-63.5" font-family="Helvetica,sans-Serif" font-size="10.00" fill="#000000">Carla/Util/NavigationMesh.h</text>
</a>
</g>
</g>
<!-- Node0&#45;&gt;Node5 -->
<g id="edge5" class="edge">
<title>Node0&#45;&gt;Node5</title>
<path fill="none" stroke="#191970" d="M258.9512,-112.2455C267.7269,-104.0549 280.4554,-92.1749 290.814,-82.5069"/>
<polygon fill="#191970" stroke="#191970" points="293.2461,-85.0246 298.1686,-75.6427 288.4699,-79.9072 293.2461,-85.0246"/>
</g>
<!-- Node2 -->
<g id="node3" class="node">
<title>Node2</title>
<g id="a_node3"><a xlink:href="../../d4/d57/Unreal_2CarlaUE4_2Plugins_2Carla_2Source_2Carla_2Util_2NonCopyable_8h.html" target="_top" xlink:title="Util/NonCopyable.h">
<polygon fill="#ffffff" stroke="#000000" points="0,-.5 0,-19.5 111,-19.5 111,-.5 0,-.5"/>
<text text-anchor="middle" x="55.5" y="-7.5" font-family="Helvetica,sans-Serif" font-size="10.00" fill="#000000">Util/NonCopyable.h</text>
</a>
</g>
</g>
<!-- Node1&#45;&gt;Node2 -->
<g id="edge2" class="edge">
<title>Node1&#45;&gt;Node2</title>
<path fill="none" stroke="#191970" d="M165.6365,-56.3733C144.095,-47.3032 111.6162,-33.6279 87.5044,-23.4755"/>
<polygon fill="#191970" stroke="#191970" points="88.6397,-20.156 78.0652,-19.5011 85.9233,-26.6075 88.6397,-20.156"/>
</g>
<!-- Node3 -->
<g id="node4" class="node">
<title>Node3</title>
<polygon fill="#ffffff" stroke="#bfbfbf" points="129,-.5 129,-19.5 248,-19.5 248,-.5 129,-.5"/>
<text text-anchor="middle" x="188.5" y="-7.5" font-family="Helvetica,sans-Serif" font-size="10.00" fill="#000000">Logging/LogMacros.h</text>
</g>
<!-- Node1&#45;&gt;Node3 -->
<g id="edge3" class="edge">
<title>Node1&#45;&gt;Node3</title>
<path fill="none" stroke="#191970" d="M188.5,-56.2455C188.5,-48.9382 188.5,-38.6944 188.5,-29.7046"/>
<polygon fill="#191970" stroke="#191970" points="192.0001,-29.6426 188.5,-19.6427 185.0001,-29.6427 192.0001,-29.6426"/>
</g>
<!-- Node4 -->
<g id="node5" class="node">
<title>Node4</title>
<polygon fill="#ffffff" stroke="#bfbfbf" points="266.5,-.5 266.5,-19.5 414.5,-19.5 414.5,-.5 266.5,-.5"/>
<text text-anchor="middle" x="340.5" y="-7.5" font-family="Helvetica,sans-Serif" font-size="10.00" fill="#000000">Modules/ModuleInterface.h</text>
</g>
<!-- Node1&#45;&gt;Node4 -->
<g id="edge4" class="edge">
<title>Node1&#45;&gt;Node4</title>
<path fill="none" stroke="#191970" d="M214.2847,-56.5004C239.1785,-47.329 277.0825,-33.3643 304.8572,-23.1316"/>
<polygon fill="#191970" stroke="#191970" points="306.4153,-26.2876 314.5888,-19.5462 303.9954,-19.7192 306.4153,-26.2876"/>
</g>
</g>
</svg>
