<?xml version="1.0" encoding="UTF-8" standalone="no"?>
<!DOCTYPE svg PUBLIC "-//W3C//DTD SVG 1.1//EN"
 "http://www.w3.org/Graphics/SVG/1.1/DTD/svg11.dtd">
<!-- Generated by graphviz version 2.43.0 (0)
 -->
<!-- Title: carla::ros2::CarlaOpticalFlowCameraPublisher::SetCameraInfoData Pages: 1 -->
<svg width="358pt" height="186pt"
 viewBox="0.00 0.00 358.00 186.00" xmlns="http://www.w3.org/2000/svg" xmlns:xlink="http://www.w3.org/1999/xlink">
<g id="graph0" class="graph" transform="scale(1 1) rotate(0) translate(4 182)">
<title>carla::ros2::CarlaOpticalFlowCameraPublisher::SetCameraInfoData</title>
<polygon fill="white" stroke="transparent" points="-4,4 -4,-182 354,-182 354,4 -4,4"/>
<!-- Node1 -->
<g id="node1" class="node">
<title>Node1</title>
<g id="a_node1"><a xlink:title=" ">
<polygon fill="#bfbfbf" stroke="black" points="0,-68 0,-109 183,-109 183,-68 0,-68"/>
<text text-anchor="start" x="8" y="-97" font-family="Helvetica,sans-Serif" font-size="10.00">carla::ros2::CarlaOptical</text>
<text text-anchor="start" x="8" y="-86" font-family="Helvetica,sans-Serif" font-size="10.00">FlowCameraPublisher::SetCamera</text>
<text text-anchor="middle" x="91.5" y="-75" font-family="Helvetica,sans-Serif" font-size="10.00">InfoData</text>
</a>
</g>
</g>
<!-- Node2 -->
<g id="node2" class="node">
<title>Node2</title>
<g id="a_node2"><a xlink:href="../../d8/d15/classstd__msgs_1_1msg_1_1Header.html#a9bd973b4690fefb807fb231f496831d4" target="_top" xlink:title="This function copies the value in member frame_id.">
<polygon fill="white" stroke="black" points="219,-147.5 219,-177.5 350,-177.5 350,-147.5 219,-147.5"/>
<text text-anchor="start" x="227" y="-165.5" font-family="Helvetica,sans-Serif" font-size="10.00">std_msgs::msg::Header</text>
<text text-anchor="middle" x="284.5" y="-154.5" font-family="Helvetica,sans-Serif" font-size="10.00">::frame_id</text>
</a>
</g>
</g>
<!-- Node1&#45;&gt;Node2 -->
<g id="edge1" class="edge">
<title>Node1&#45;&gt;Node2</title>
<path fill="none" stroke="midnightblue" d="M143.8,-109.05C166.76,-118.18 194.2,-128.98 219,-138.5 223.5,-140.23 228.19,-142.01 232.89,-143.78"/>
<polygon fill="midnightblue" stroke="midnightblue" points="231.92,-147.15 242.51,-147.39 234.38,-140.6 231.92,-147.15"/>
</g>
<!-- Node3 -->
<g id="node3" class="node">
<title>Node3</title>
<g id="a_node3"><a xlink:href="../../da/d39/classbuiltin__interfaces_1_1msg_1_1Time.html#aa198ef63c135b5c7856d7f917dee4ba4" target="_top" xlink:title="This function sets a value in member nanosec.">
<polygon fill="white" stroke="black" points="224,-98.5 224,-128.5 345,-128.5 345,-98.5 224,-98.5"/>
<text text-anchor="start" x="232" y="-116.5" font-family="Helvetica,sans-Serif" font-size="10.00">builtin_interfaces</text>
<text text-anchor="middle" x="284.5" y="-105.5" font-family="Helvetica,sans-Serif" font-size="10.00">::msg::Time::nanosec</text>
</a>
</g>
</g>
<!-- Node1&#45;&gt;Node3 -->
<g id="edge2" class="edge">
<title>Node1&#45;&gt;Node3</title>
<path fill="none" stroke="midnightblue" d="M183.25,-100.38C193.46,-101.71 203.75,-103.06 213.64,-104.36"/>
<polygon fill="midnightblue" stroke="midnightblue" points="213.42,-107.86 223.79,-105.68 214.33,-100.92 213.42,-107.86"/>
</g>
<!-- Node4 -->
<g id="node4" class="node">
<title>Node4</title>
<g id="a_node4"><a xlink:href="../../da/d39/classbuiltin__interfaces_1_1msg_1_1Time.html#af90f1d1163f805c9e8af9546399d75b2" target="_top" xlink:title="This function sets a value in member sec.">
<polygon fill="white" stroke="black" points="234,-49.5 234,-79.5 335,-79.5 335,-49.5 234,-49.5"/>
<text text-anchor="start" x="242" y="-67.5" font-family="Helvetica,sans-Serif" font-size="10.00">builtin_interfaces</text>
<text text-anchor="middle" x="284.5" y="-56.5" font-family="Helvetica,sans-Serif" font-size="10.00">::msg::Time::sec</text>
</a>
</g>
</g>
<!-- Node1&#45;&gt;Node4 -->
<g id="edge3" class="edge">
<title>Node1&#45;&gt;Node4</title>
<path fill="none" stroke="midnightblue" d="M183.25,-77.1C196.99,-75.37 210.87,-73.63 223.74,-72.01"/>
<polygon fill="midnightblue" stroke="midnightblue" points="224.33,-75.46 233.82,-70.74 223.46,-68.52 224.33,-75.46"/>
</g>
<!-- Node5 -->
<g id="node5" class="node">
<title>Node5</title>
<g id="a_node5"><a xlink:href="../../d8/d15/classstd__msgs_1_1msg_1_1Header.html#a2ac0c277be6d5edc09d17126767290c9" target="_top" xlink:title="This function copies the value in member stamp.">
<polygon fill="white" stroke="black" points="219,-0.5 219,-30.5 350,-30.5 350,-0.5 219,-0.5"/>
<text text-anchor="start" x="227" y="-18.5" font-family="Helvetica,sans-Serif" font-size="10.00">std_msgs::msg::Header</text>
<text text-anchor="middle" x="284.5" y="-7.5" font-family="Helvetica,sans-Serif" font-size="10.00">::stamp</text>
</a>
</g>
</g>
<!-- Node1&#45;&gt;Node5 -->
<g id="edge4" class="edge">
<title>Node1&#45;&gt;Node5</title>
<path fill="none" stroke="midnightblue" d="M146.21,-67.97C173.92,-57.38 207.48,-44.55 234.49,-34.23"/>
<polygon fill="midnightblue" stroke="midnightblue" points="236.02,-37.39 244.11,-30.55 233.52,-30.85 236.02,-37.39"/>
</g>
</g>
</svg>
