<?xml version="1.0" encoding="UTF-8" standalone="no"?>
<!DOCTYPE svg PUBLIC "-//W3C//DTD SVG 1.1//EN"
 "http://www.w3.org/Graphics/SVG/1.1/DTD/svg11.dtd">
<!-- Generated by graphviz version 2.43.0 (0)
 -->
<!-- Title: carla_msgs::msg::CarlaEgoVehicleControl::getKeyMaxCdrSerializedSize Pages: 1 -->
<svg width="472pt" height="110pt"
 viewBox="0.00 0.00 472.00 110.00" xmlns="http://www.w3.org/2000/svg" xmlns:xlink="http://www.w3.org/1999/xlink">
<g id="graph0" class="graph" transform="scale(1 1) rotate(0) translate(4 106)">
<title>carla_msgs::msg::CarlaEgoVehicleControl::getKeyMaxCdrSerializedSize</title>
<polygon fill="white" stroke="transparent" points="-4,4 -4,-106 468,-106 468,4 -4,4"/>
<!-- Node1 -->
<g id="node1" class="node">
<title>Node1</title>
<g id="a_node1"><a xlink:title="This function returns the maximum serialized size of the Key of an object depending on the buffer ali...">
<polygon fill="#bfbfbf" stroke="black" points="231,-36 231,-66 464,-66 464,-36 231,-36"/>
<text text-anchor="start" x="239" y="-54" font-family="Helvetica,sans-Serif" font-size="10.00">carla_msgs::msg::CarlaEgo</text>
<text text-anchor="middle" x="347.5" y="-43" font-family="Helvetica,sans-Serif" font-size="10.00">VehicleControl::getKeyMaxCdrSerializedSize</text>
</a>
</g>
</g>
<!-- Node2 -->
<g id="node2" class="node">
<title>Node2</title>
<g id="a_node2"><a xlink:href="../../d2/d09/classcarla__msgs_1_1msg_1_1CarlaEgoVehicleControlPubSubType.html#a9581e1b7d2cc28a40379709edc589840" target="_top" xlink:title=" ">
<polygon fill="white" stroke="black" points="0,-60.5 0,-101.5 195,-101.5 195,-60.5 0,-60.5"/>
<text text-anchor="start" x="8" y="-89.5" font-family="Helvetica,sans-Serif" font-size="10.00">carla_msgs::msg::CarlaEgo</text>
<text text-anchor="start" x="8" y="-78.5" font-family="Helvetica,sans-Serif" font-size="10.00">VehicleControlPubSubType</text>
<text text-anchor="middle" x="97.5" y="-67.5" font-family="Helvetica,sans-Serif" font-size="10.00">::CarlaEgoVehicleControlPubSubType</text>
</a>
</g>
</g>
<!-- Node1&#45;&gt;Node2 -->
<g id="edge1" class="edge">
<title>Node1&#45;&gt;Node2</title>
<path fill="none" stroke="midnightblue" d="M220.82,-66.2C212.27,-67.24 203.73,-68.27 195.37,-69.28"/>
<polygon fill="midnightblue" stroke="midnightblue" points="221.34,-69.67 230.85,-64.99 220.5,-62.72 221.34,-69.67"/>
</g>
<!-- Node3 -->
<g id="node3" class="node">
<title>Node3</title>
<g id="a_node3"><a xlink:href="../../d2/d09/classcarla__msgs_1_1msg_1_1CarlaEgoVehicleControlPubSubType.html#a8ffca468bc675ae8c2365e804ddd4a77" target="_top" xlink:title=" ">
<polygon fill="white" stroke="black" points="23,-0.5 23,-41.5 172,-41.5 172,-0.5 23,-0.5"/>
<text text-anchor="start" x="31" y="-29.5" font-family="Helvetica,sans-Serif" font-size="10.00">carla_msgs::msg::CarlaEgo</text>
<text text-anchor="start" x="31" y="-18.5" font-family="Helvetica,sans-Serif" font-size="10.00">VehicleControlPubSubType</text>
<text text-anchor="middle" x="97.5" y="-7.5" font-family="Helvetica,sans-Serif" font-size="10.00">::getKey</text>
</a>
</g>
</g>
<!-- Node1&#45;&gt;Node3 -->
<g id="edge2" class="edge">
<title>Node1&#45;&gt;Node3</title>
<path fill="none" stroke="midnightblue" d="M220.55,-35.76C203.99,-33.76 187.48,-31.76 172.2,-29.92"/>
<polygon fill="midnightblue" stroke="midnightblue" points="220.5,-39.28 230.85,-37.01 221.34,-32.33 220.5,-39.28"/>
</g>
</g>
</svg>
