<?xml version="1.0" encoding="UTF-8" standalone="no"?>
<!DOCTYPE svg PUBLIC "-//W3C//DTD SVG 1.1//EN"
 "http://www.w3.org/Graphics/SVG/1.1/DTD/svg11.dtd">
<!-- Generated by graphviz version 2.43.0 (0)
 -->
<!-- Title: carla::sensor::s11n::IMUSerializer::DeserializeRawData Pages: 1 -->
<!--zoomable 83 -->
<svg id="main" version="1.1" xmlns="http://www.w3.org/2000/svg" xmlns:xlink="http://www.w3.org/1999/xlink" xml:space="preserve" onload="init(evt)">
<style type="text/css"><![CDATA[
.edge:hover path { stroke: red; }
.edge:hover polygon { stroke: red; fill: red; }
]]></style>
<script type="text/javascript"><![CDATA[
var edges = document.getElementsByTagName('g');
if (edges && edges.length) {
  for (var i=0;i<edges.length;i++) {
    if (edges[i].id.substr(0,4)=='edge') {
      edges[i].setAttribute('class','edge');
    }
  }
}
]]></script>
        <defs>
                <circle id="rim" cx="0" cy="0" r="7"/>
                <circle id="rim2" cx="0" cy="0" r="3.5"/>
                <g id="zoomPlus">
                        <use xlink:href="#rim" fill="#404040">
                                <set attributeName="fill" to="#808080" begin="zoomplus.mouseover" end="zoomplus.mouseout"/>
                        </use>
                        <path d="M-4,0h8M0,-4v8" fill="none" stroke="white" stroke-width="1.5" pointer-events="none"/>
                </g>
                <g id="zoomMin">
                        <use xlink:href="#rim" fill="#404040">
                                <set attributeName="fill" to="#808080" begin="zoomminus.mouseover" end="zoomminus.mouseout"/>
                        </use>
                        <path d="M-4,0h8" fill="none" stroke="white" stroke-width="1.5" pointer-events="none"/>
                </g>
                <g id="dirArrow">
                        <path fill="none" stroke="white" stroke-width="1.5" d="M0,-3.0v7 M-2.5,-0.5L0,-3.0L2.5,-0.5"/>
                </g>
               <g id="resetDef">
                       <use xlink:href="#rim2" fill="#404040">
                               <set attributeName="fill" to="#808080" begin="reset.mouseover" end="reset.mouseout"/>
                       </use>
               </g>
        </defs>

<script type="text/javascript">
var viewWidth = 942;
var viewHeight = 83;
var sectionId = 'dynsection-0';
</script>
<script xlink:href="../../svgpan.js"/>
<svg id="graph" class="graph">
<g id="viewport">
<title>carla::sensor::s11n::IMUSerializer::DeserializeRawData</title>
<polygon fill="white" stroke="transparent" points="-4,4 -4,-79 938,-79 938,4 -4,4"/>
<!-- Node1 -->
<g id="node1" class="node">
<title>Node1</title>
<g id="a_node1"><a xlink:title=" ">
<polygon fill="#bfbfbf" stroke="black" points="0,-17 0,-58 149,-58 149,-17 0,-17"/>
<text text-anchor="start" x="8" y="-46" font-family="Helvetica,sans-Serif" font-size="10.00">carla::sensor::s11n</text>
<text text-anchor="start" x="8" y="-35" font-family="Helvetica,sans-Serif" font-size="10.00">::IMUSerializer::Deserialize</text>
<text text-anchor="middle" x="74.5" y="-24" font-family="Helvetica,sans-Serif" font-size="10.00">RawData</text>
</a>
</g>
</g>
<!-- Node2 -->
<g id="node2" class="node">
<title>Node2</title>
<g id="a_node2"><a xlink:href="../../d3/da0/classcarla_1_1sensor_1_1RawData.html#ad29c6a9698aa66f593286f5e6fc601ea" target="_top" xlink:title="Begin iterator to the data generated by the sensor.">
<polygon fill="white" stroke="black" points="362,-44.5 362,-74.5 491,-74.5 491,-44.5 362,-44.5"/>
<text text-anchor="start" x="370" y="-62.5" font-family="Helvetica,sans-Serif" font-size="10.00">carla::sensor::RawData</text>
<text text-anchor="middle" x="426.5" y="-51.5" font-family="Helvetica,sans-Serif" font-size="10.00">::begin</text>
</a>
</g>
</g>
<!-- Node1&#45;&gt;Node2 -->
<g id="edge1" class="edge">
<title>Node1&#45;&gt;Node2</title>
<path fill="none" stroke="midnightblue" d="M149.3,-42.14C208.83,-45.88 292.17,-51.12 351.7,-54.86"/>
<polygon fill="midnightblue" stroke="midnightblue" points="351.58,-58.36 361.78,-55.49 352.02,-51.37 351.58,-58.36"/>
</g>
<!-- Node5 -->
<g id="node5" class="node">
<title>Node5</title>
<g id="a_node5"><a xlink:href="../../d3/da0/classcarla_1_1sensor_1_1RawData.html#ae79dc5e8f8cee2257efa411c4490e5ff" target="_top" xlink:title="Size in bytes of the data generated by the sensor.">
<polygon fill="white" stroke="black" points="185,-0.5 185,-30.5 314,-30.5 314,-0.5 185,-0.5"/>
<text text-anchor="start" x="193" y="-18.5" font-family="Helvetica,sans-Serif" font-size="10.00">carla::sensor::RawData</text>
<text text-anchor="middle" x="249.5" y="-7.5" font-family="Helvetica,sans-Serif" font-size="10.00">::size</text>
</a>
</g>
</g>
<!-- Node1&#45;&gt;Node5 -->
<g id="edge4" class="edge">
<title>Node1&#45;&gt;Node5</title>
<path fill="none" stroke="midnightblue" d="M149.12,-28.14C157.55,-27.07 166.15,-25.97 174.59,-24.9"/>
<polygon fill="midnightblue" stroke="midnightblue" points="175.3,-28.34 184.78,-23.6 174.42,-21.39 175.3,-28.34"/>
</g>
<!-- Node3 -->
<g id="node3" class="node">
<title>Node3</title>
<g id="a_node3"><a xlink:href="../../d0/d0a/classcarla_1_1Buffer.html#a0afeda4355e6196d808ddf25142d5dbd" target="_top" xlink:title=" ">
<polygon fill="white" stroke="black" points="675,-47 675,-66 784,-66 784,-47 675,-47"/>
<text text-anchor="middle" x="729.5" y="-54" font-family="Helvetica,sans-Serif" font-size="10.00">carla::Buffer::begin</text>
</a>
</g>
</g>
<!-- Node2&#45;&gt;Node3 -->
<g id="edge2" class="edge">
<title>Node2&#45;&gt;Node3</title>
<path fill="none" stroke="midnightblue" d="M491.33,-58.86C542.35,-58.36 613.52,-57.65 664.57,-57.14"/>
<polygon fill="midnightblue" stroke="midnightblue" points="664.85,-60.63 674.82,-57.04 664.78,-53.63 664.85,-60.63"/>
</g>
<!-- Node4 -->
<g id="node4" class="node">
<title>Node4</title>
<g id="a_node4"><a xlink:href="../../d0/d0a/classcarla_1_1Buffer.html#acbf9f37162db2ddffaf2ae2bfb9fd8a5" target="_top" xlink:title=" ">
<polygon fill="white" stroke="black" points="820,-47 820,-66 934,-66 934,-47 820,-47"/>
<text text-anchor="middle" x="877" y="-54" font-family="Helvetica,sans-Serif" font-size="10.00">carla::Buffer::cbegin</text>
</a>
</g>
</g>
<!-- Node3&#45;&gt;Node4 -->
<g id="edge3" class="edge">
<title>Node3&#45;&gt;Node4</title>
<path fill="none" stroke="midnightblue" d="M784.27,-56.5C792.44,-56.5 800.95,-56.5 809.36,-56.5"/>
<polygon fill="midnightblue" stroke="midnightblue" points="809.53,-60 819.53,-56.5 809.53,-53 809.53,-60"/>
</g>
<!-- Node5&#45;&gt;Node2 -->
<g id="edge5" class="edge">
<title>Node5&#45;&gt;Node2</title>
<path fill="none" stroke="midnightblue" d="M310.24,-30.52C324.94,-34.22 340.81,-38.21 355.93,-42.01"/>
<polygon fill="midnightblue" stroke="midnightblue" points="355.19,-45.43 365.74,-44.47 356.89,-38.64 355.19,-45.43"/>
</g>
<!-- Node6 -->
<g id="node6" class="node">
<title>Node6</title>
<g id="a_node6"><a xlink:href="../../d3/da0/classcarla_1_1sensor_1_1RawData.html#a436195761ec6eb8a18bc98ba8e9d8725" target="_top" xlink:title="Past&#45;the&#45;end iterator to the data generated by the sensor.">
<polygon fill="white" stroke="black" points="350,-6 350,-25 503,-25 503,-6 350,-6"/>
<text text-anchor="middle" x="426.5" y="-13" font-family="Helvetica,sans-Serif" font-size="10.00">carla::sensor::RawData::end</text>
</a>
</g>
</g>
<!-- Node5&#45;&gt;Node6 -->
<g id="edge6" class="edge">
<title>Node5&#45;&gt;Node6</title>
<path fill="none" stroke="midnightblue" d="M314.17,-15.5C322.53,-15.5 331.21,-15.5 339.85,-15.5"/>
<polygon fill="midnightblue" stroke="midnightblue" points="339.98,-19 349.98,-15.5 339.98,-12 339.98,-19"/>
</g>
<!-- Node7 -->
<g id="node7" class="node">
<title>Node7</title>
<g id="a_node7"><a xlink:href="../../d0/d0a/classcarla_1_1Buffer.html#ad23e8895923c1535a1099100195a3d2b" target="_top" xlink:title=" ">
<polygon fill="white" stroke="black" points="539,-9 539,-28 639,-28 639,-9 539,-9"/>
<text text-anchor="middle" x="589" y="-16" font-family="Helvetica,sans-Serif" font-size="10.00">carla::Buffer::end</text>
</a>
</g>
</g>
<!-- Node6&#45;&gt;Node7 -->
<g id="edge7" class="edge">
<title>Node6&#45;&gt;Node7</title>
<path fill="none" stroke="midnightblue" d="M503.05,-16.91C511.72,-17.07 520.46,-17.24 528.88,-17.39"/>
<polygon fill="midnightblue" stroke="midnightblue" points="528.88,-20.9 538.94,-17.58 529.01,-13.9 528.88,-20.9"/>
</g>
<!-- Node8 -->
<g id="node8" class="node">
<title>Node8</title>
<g id="a_node8"><a xlink:href="../../d0/d0a/classcarla_1_1Buffer.html#a3fa645d9dfbc14a4f0f4d5f6ab2ae2c7" target="_top" xlink:title=" ">
<polygon fill="white" stroke="black" points="677,-9 677,-28 782,-28 782,-9 677,-9"/>
<text text-anchor="middle" x="729.5" y="-16" font-family="Helvetica,sans-Serif" font-size="10.00">carla::Buffer::cend</text>
</a>
</g>
</g>
<!-- Node7&#45;&gt;Node8 -->
<g id="edge8" class="edge">
<title>Node7&#45;&gt;Node8</title>
<path fill="none" stroke="midnightblue" d="M639.22,-18.5C648.03,-18.5 657.32,-18.5 666.44,-18.5"/>
<polygon fill="midnightblue" stroke="midnightblue" points="666.63,-22 676.63,-18.5 666.63,-15 666.63,-22"/>
</g>
<!-- Node8&#45;&gt;Node4 -->
<g id="edge9" class="edge">
<title>Node8&#45;&gt;Node4</title>
<path fill="none" stroke="midnightblue" d="M767.22,-28.09C786.16,-33.04 809.46,-39.12 829.63,-44.39"/>
<polygon fill="midnightblue" stroke="midnightblue" points="828.99,-47.84 839.55,-46.98 830.76,-41.07 828.99,-47.84"/>
</g>
<!-- Node9 -->
<g id="node9" class="node">
<title>Node9</title>
<g id="a_node9"><a xlink:href="../../d0/d0a/classcarla_1_1Buffer.html#a3edea2e44a05d9806312e5f9e52315e4" target="_top" xlink:title=" ">
<polygon fill="white" stroke="black" points="826.5,-9 826.5,-28 927.5,-28 927.5,-9 826.5,-9"/>
<text text-anchor="middle" x="877" y="-16" font-family="Helvetica,sans-Serif" font-size="10.00">carla::Buffer::size</text>
</a>
</g>
</g>
<!-- Node8&#45;&gt;Node9 -->
<g id="edge10" class="edge">
<title>Node8&#45;&gt;Node9</title>
<path fill="none" stroke="midnightblue" d="M782.21,-18.5C793.21,-18.5 804.92,-18.5 816.2,-18.5"/>
<polygon fill="midnightblue" stroke="midnightblue" points="816.41,-22 826.41,-18.5 816.41,-15 816.41,-22"/>
</g>
</g>
</svg>
        <g id="navigator" transform="translate(0 0)" fill="#404254">
                <rect fill="#f2f5e9" fill-opacity="0.5" stroke="#606060" stroke-width=".5" x="0" y="0" width="60" height="60"/>
                <use id="zoomplus" xlink:href="#zoomPlus" x="17" y="9" onmousedown="handleZoom(evt,'in')"/>
                <use id="zoomminus" xlink:href="#zoomMin" x="42" y="9" onmousedown="handleZoom(evt,'out')"/>
                <use id="reset" xlink:href="#resetDef" x="30" y="36" onmousedown="handleReset()"/>
                <g id="arrowUp" xlink:href="#dirArrow" transform="translate(30 24)" onmousedown="handlePan(0,-1)">
                  <use xlink:href="#rim" fill="#404040">
                        <set attributeName="fill" to="#808080" begin="arrowUp.mouseover" end="arrowUp.mouseout"/>
                  </use>
                  <path fill="none" stroke="white" stroke-width="1.5" d="M0,-3.0v7 M-2.5,-0.5L0,-3.0L2.5,-0.5"/>
                </g>
                <g id="arrowRight" xlink:href="#dirArrow" transform="rotate(90) translate(36 -43)" onmousedown="handlePan(1,0)">
                  <use xlink:href="#rim" fill="#404040">
                        <set attributeName="fill" to="#808080" begin="arrowRight.mouseover" end="arrowRight.mouseout"/>
                  </use>
                  <path fill="none" stroke="white" stroke-width="1.5" d="M0,-3.0v7 M-2.5,-0.5L0,-3.0L2.5,-0.5"/>
                </g>
                <g id="arrowDown" xlink:href="#dirArrow" transform="rotate(180) translate(-30 -48)" onmousedown="handlePan(0,1)">
                  <use xlink:href="#rim" fill="#404040">
                        <set attributeName="fill" to="#808080" begin="arrowDown.mouseover" end="arrowDown.mouseout"/>
                  </use>
                  <path fill="none" stroke="white" stroke-width="1.5" d="M0,-3.0v7 M-2.5,-0.5L0,-3.0L2.5,-0.5"/>
                </g>
                <g id="arrowLeft" xlink:href="#dirArrow" transform="rotate(270) translate(-36 17)" onmousedown="handlePan(-1,0)">
                  <use xlink:href="#rim" fill="#404040">
                        <set attributeName="fill" to="#808080" begin="arrowLeft.mouseover" end="arrowLeft.mouseout"/>
                  </use>
                  <path fill="none" stroke="white" stroke-width="1.5" d="M0,-3.0v7 M-2.5,-0.5L0,-3.0L2.5,-0.5"/>
                </g>
        </g>
        <svg viewBox="0 0 15 15" width="100%" height="30px" preserveAspectRatio="xMaxYMin meet">
         <g id="arrow_out" transform="scale(0.3 0.3)">
          <a xlink:href="classcarla_1_1sensor_1_1s11n_1_1IMUSerializer_ad393288dca1aba7bb57c55dff16b24b5_cgraph_org.svg" target="_base">
           <rect id="button" ry="5" rx="5" y="6" x="6" height="38" width="38"
                fill="#f2f5e9" fill-opacity="0.5" stroke="#606060" stroke-width="1.0"/>
           <path id="arrow"
             d="M 11.500037,31.436501 C 11.940474,20.09759 22.043105,11.32322 32.158766,21.979434 L 37.068811,17.246167 C 37.068811,17.246167 37.088388,32 37.088388,32 L 22.160133,31.978069 C 22.160133,31.978069 26.997745,27.140456 26.997745,27.140456 C 18.528582,18.264221 13.291696,25.230495 11.500037,31.436501 z"
             style="fill:#404040;"/>
          </a>
         </g>
        </svg>
</svg>
