<?xml version="1.0" encoding="UTF-8" standalone="no"?>
<!DOCTYPE svg PUBLIC "-//W3C//DTD SVG 1.1//EN"
 "http://www.w3.org/Graphics/SVG/1.1/DTD/svg11.dtd">
<!-- Generated by graphviz version 2.38.0 (20140413.2041)
 -->
<!-- Title: carla::streaming::detail::MultiStreamState::Write Pages: 1 -->
<!--zoomable 100 -->
<svg id="main" version="1.1" xmlns="http://www.w3.org/2000/svg" xmlns:xlink="http://www.w3.org/1999/xlink" xml:space="preserve" onload="init(evt)">
<style type="text/css"><![CDATA[
.edge:hover path { stroke: red; }
.edge:hover polygon { stroke: red; fill: red; }
]]></style>
<script type="text/javascript"><![CDATA[
var edges = document.getElementsByTagName('g');
if (edges && edges.length) {
  for (var i=0;i<edges.length;i++) {
    if (edges[i].id.substr(0,4)=='edge') {
      edges[i].setAttribute('class','edge');
    }
  }
}
]]></script>
        <defs>
                <circle id="rim" cx="0" cy="0" r="7"/>
                <circle id="rim2" cx="0" cy="0" r="3.5"/>
                <g id="zoomPlus">
                        <use xlink:href="#rim" fill="#404040">
                                <set attributeName="fill" to="#808080" begin="zoomplus.mouseover" end="zoomplus.mouseout"/>
                        </use>
                        <path d="M-4,0h8M0,-4v8" fill="none" stroke="white" stroke-width="1.5" pointer-events="none"/>
                </g>
                <g id="zoomMin">
                        <use xlink:href="#rim" fill="#404040">
                                <set attributeName="fill" to="#808080" begin="zoomminus.mouseover" end="zoomminus.mouseout"/>
                        </use>
                        <path d="M-4,0h8" fill="none" stroke="white" stroke-width="1.5" pointer-events="none"/>
                </g>
                <g id="dirArrow">
                        <path fill="none" stroke="white" stroke-width="1.5" d="M0,-3.0v7 M-2.5,-0.5L0,-3.0L2.5,-0.5"/>
                </g>
               <g id="resetDef">
                       <use xlink:href="#rim2" fill="#404040">
                               <set attributeName="fill" to="#808080" begin="reset.mouseover" end="reset.mouseout"/>
                       </use>
               </g>
        </defs>

<script type="text/javascript">
var viewWidth = 892;
var viewHeight = 100;
var sectionId = 'dynsection-2';
</script>
<script xlink:href="../../svgpan.js"/>
<svg id="graph" class="graph">
<g id="viewport">
<title>carla::streaming::detail::MultiStreamState::Write</title>
<polygon fill="white" stroke="none" points="-4,4 -4,-95.5 888,-95.5 888,4 -4,4"/>
<!-- Node1 -->
<g id="node1" class="node"><title>Node1</title>
<polygon fill="#bfbfbf" stroke="black" points="0,-44.5 0,-74.5 137,-74.5 137,-44.5 0,-44.5"/>
<text text-anchor="start" x="8" y="-62.5" font-family="Helvetica,sans-Serif" font-size="10.00">carla::streaming::detail</text>
<text text-anchor="middle" x="68.5" y="-51.5" font-family="Helvetica,sans-Serif" font-size="10.00">::MultiStreamState::Write</text>
</g>
<!-- Node2 -->
<g id="node2" class="node"><title>Node2</title>
<g id="a_node2"><a xlink:href="../../d6/d51/classcarla_1_1streaming_1_1detail_1_1tcp_1_1ServerSession.html#a16fddcc2e8588437294267a4112481a8" target="_top" xlink:title="carla::streaming::detail\l::tcp::ServerSession::MakeMessage">
<polygon fill="white" stroke="black" points="173,-44.5 173,-74.5 360,-74.5 360,-44.5 173,-44.5"/>
<text text-anchor="start" x="181" y="-62.5" font-family="Helvetica,sans-Serif" font-size="10.00">carla::streaming::detail</text>
<text text-anchor="middle" x="266.5" y="-51.5" font-family="Helvetica,sans-Serif" font-size="10.00">::tcp::ServerSession::MakeMessage</text>
</a>
</g>
</g>
<!-- Node1&#45;&gt;Node2 -->
<g id="edge1" class="edge"><title>Node1&#45;&gt;Node2</title>
<path fill="none" stroke="midnightblue" d="M137.227,-59.5C145.498,-59.5 154.088,-59.5 162.728,-59.5"/>
<polygon fill="midnightblue" stroke="midnightblue" points="162.876,-63.0001 172.876,-59.5 162.876,-56.0001 162.876,-63.0001"/>
</g>
<!-- Node3 -->
<g id="node3" class="node"><title>Node3</title>
<g id="a_node3"><a xlink:href="../../d6/d51/classcarla_1_1streaming_1_1detail_1_1tcp_1_1ServerSession.html#af5255361ee0fd1c54d54faf759f21da4" target="_top" xlink:title="Writes some data to the socket. ">
<polygon fill="white" stroke="black" points="396,-44.5 396,-74.5 538,-74.5 538,-44.5 396,-44.5"/>
<text text-anchor="start" x="404" y="-62.5" font-family="Helvetica,sans-Serif" font-size="10.00">carla::streaming::detail</text>
<text text-anchor="middle" x="467" y="-51.5" font-family="Helvetica,sans-Serif" font-size="10.00">::tcp::ServerSession::Write</text>
</a>
</g>
</g>
<!-- Node2&#45;&gt;Node3 -->
<g id="edge2" class="edge"><title>Node2&#45;&gt;Node3</title>
<path fill="none" stroke="midnightblue" d="M360.067,-59.5C368.618,-59.5 377.235,-59.5 385.664,-59.5"/>
<polygon fill="midnightblue" stroke="midnightblue" points="385.834,-63.0001 395.834,-59.5 385.834,-56.0001 385.834,-63.0001"/>
</g>
<!-- Node4 -->
<g id="node4" class="node"><title>Node4</title>
<g id="a_node4"><a xlink:href="../../d9/d36/namespacecarla.html#a435a71fa9b5a48bb8f77239f97d3f77c" target="_top" xlink:title="carla::log_debug">
<polygon fill="white" stroke="black" points="782,-72 782,-91 877,-91 877,-72 782,-72"/>
<text text-anchor="middle" x="829.5" y="-79" font-family="Helvetica,sans-Serif" font-size="10.00">carla::log_debug</text>
</a>
</g>
</g>
<!-- Node3&#45;&gt;Node4 -->
<g id="edge3" class="edge"><title>Node3&#45;&gt;Node4</title>
<path fill="none" stroke="midnightblue" d="M520.953,-74.528C537.769,-78.6132 556.534,-82.4682 574,-84.5 646.842,-92.9736 665.677,-85.7285 739,-84.5 749.484,-84.3243 760.656,-84.033 771.426,-83.6991"/>
<polygon fill="midnightblue" stroke="midnightblue" points="771.712,-87.1918 781.593,-83.3684 771.485,-80.1955 771.712,-87.1918"/>
</g>
<!-- Node5 -->
<g id="node5" class="node"><title>Node5</title>
<g id="a_node5"><a xlink:href="../../d9/d36/namespacecarla.html#ac9fb0c8a601504dc849038a6a5896c73" target="_top" xlink:title="carla::log_info">
<polygon fill="white" stroke="black" points="615,-6 615,-25 698,-25 698,-6 615,-6"/>
<text text-anchor="middle" x="656.5" y="-13" font-family="Helvetica,sans-Serif" font-size="10.00">carla::log_info</text>
</a>
</g>
</g>
<!-- Node3&#45;&gt;Node5 -->
<g id="edge4" class="edge"><title>Node3&#45;&gt;Node5</title>
<path fill="none" stroke="midnightblue" d="M531.613,-44.4688C545.577,-41.1772 560.286,-37.7158 574,-34.5 583.972,-32.1616 594.633,-29.6702 604.847,-27.2874"/>
<polygon fill="midnightblue" stroke="midnightblue" points="605.925,-30.6299 614.869,-24.9505 604.336,-23.8127 605.925,-30.6299"/>
</g>
<!-- Node7 -->
<g id="node7" class="node"><title>Node7</title>
<g id="a_node7"><a xlink:href="../../d6/d51/classcarla_1_1streaming_1_1detail_1_1tcp_1_1ServerSession.html#a4410e2322d27a2613fec7724d3086938" target="_top" xlink:title="carla::streaming::detail\l::tcp::ServerSession::CloseNow">
<polygon fill="white" stroke="black" points="574,-44.5 574,-74.5 739,-74.5 739,-44.5 574,-44.5"/>
<text text-anchor="start" x="582" y="-62.5" font-family="Helvetica,sans-Serif" font-size="10.00">carla::streaming::detail</text>
<text text-anchor="middle" x="656.5" y="-51.5" font-family="Helvetica,sans-Serif" font-size="10.00">::tcp::ServerSession::CloseNow</text>
</a>
</g>
</g>
<!-- Node3&#45;&gt;Node7 -->
<g id="edge6" class="edge"><title>Node3&#45;&gt;Node7</title>
<path fill="none" stroke="midnightblue" d="M538.085,-59.5C546.458,-59.5 555.101,-59.5 563.722,-59.5"/>
<polygon fill="midnightblue" stroke="midnightblue" points="563.814,-63.0001 573.814,-59.5 563.814,-56.0001 563.814,-63.0001"/>
</g>
<!-- Node6 -->
<g id="node6" class="node"><title>Node6</title>
<g id="a_node6"><a xlink:href="../../d2/d8c/namespacecarla_1_1logging.html#a1824b914c5dc7221a1098a469e8ce612" target="_top" xlink:title="carla::logging::write\l_to_stream">
<polygon fill="white" stroke="black" points="775,-0.5 775,-30.5 884,-30.5 884,-0.5 775,-0.5"/>
<text text-anchor="start" x="783" y="-18.5" font-family="Helvetica,sans-Serif" font-size="10.00">carla::logging::write</text>
<text text-anchor="middle" x="829.5" y="-7.5" font-family="Helvetica,sans-Serif" font-size="10.00">_to_stream</text>
</a>
</g>
</g>
<!-- Node5&#45;&gt;Node6 -->
<g id="edge5" class="edge"><title>Node5&#45;&gt;Node6</title>
<path fill="none" stroke="midnightblue" d="M698.025,-15.5C717.98,-15.5 742.506,-15.5 764.886,-15.5"/>
<polygon fill="midnightblue" stroke="midnightblue" points="764.994,-19.0001 774.994,-15.5 764.994,-12.0001 764.994,-19.0001"/>
</g>
<!-- Node7&#45;&gt;Node4 -->
<g id="edge7" class="edge"><title>Node7&#45;&gt;Node4</title>
<path fill="none" stroke="midnightblue" d="M739.244,-70.0167C750.192,-71.4253 761.223,-72.8444 771.615,-74.1815"/>
<polygon fill="midnightblue" stroke="midnightblue" points="771.404,-77.6831 781.769,-75.4878 772.297,-70.7403 771.404,-77.6831"/>
</g>
</g>
</svg>
        <g id="navigator" transform="translate(0 0)" fill="#404254">
                <rect fill="#f2f5e9" fill-opacity="0.5" stroke="#606060" stroke-width=".5" x="0" y="0" width="60" height="60"/>
                <use id="zoomplus" xlink:href="#zoomPlus" x="17" y="9" onmousedown="handleZoom(evt,'in')"/>
                <use id="zoomminus" xlink:href="#zoomMin" x="42" y="9" onmousedown="handleZoom(evt,'out')"/>
                <use id="reset" xlink:href="#resetDef" x="30" y="36" onmousedown="handleReset()"/>
                <g id="arrowUp" xlink:href="#dirArrow" transform="translate(30 24)" onmousedown="handlePan(0,-1)">
                  <use xlink:href="#rim" fill="#404040">
                        <set attributeName="fill" to="#808080" begin="arrowUp.mouseover" end="arrowUp.mouseout"/>
                  </use>
                  <path fill="none" stroke="white" stroke-width="1.5" d="M0,-3.0v7 M-2.5,-0.5L0,-3.0L2.5,-0.5"/>
                </g>
                <g id="arrowRight" xlink:href="#dirArrow" transform="rotate(90) translate(36 -43)" onmousedown="handlePan(1,0)">
                  <use xlink:href="#rim" fill="#404040">
                        <set attributeName="fill" to="#808080" begin="arrowRight.mouseover" end="arrowRight.mouseout"/>
                  </use>
                  <path fill="none" stroke="white" stroke-width="1.5" d="M0,-3.0v7 M-2.5,-0.5L0,-3.0L2.5,-0.5"/>
                </g>
                <g id="arrowDown" xlink:href="#dirArrow" transform="rotate(180) translate(-30 -48)" onmousedown="handlePan(0,1)">
                  <use xlink:href="#rim" fill="#404040">
                        <set attributeName="fill" to="#808080" begin="arrowDown.mouseover" end="arrowDown.mouseout"/>
                  </use>
                  <path fill="none" stroke="white" stroke-width="1.5" d="M0,-3.0v7 M-2.5,-0.5L0,-3.0L2.5,-0.5"/>
                </g>
                <g id="arrowLeft" xlink:href="#dirArrow" transform="rotate(270) translate(-36 17)" onmousedown="handlePan(-1,0)">
                  <use xlink:href="#rim" fill="#404040">
                        <set attributeName="fill" to="#808080" begin="arrowLeft.mouseover" end="arrowLeft.mouseout"/>
                  </use>
                  <path fill="none" stroke="white" stroke-width="1.5" d="M0,-3.0v7 M-2.5,-0.5L0,-3.0L2.5,-0.5"/>
                </g>
        </g>
        <svg viewBox="0 0 15 15" width="100%" height="30px" preserveAspectRatio="xMaxYMin meet">
         <g id="arrow_out" transform="scale(0.3 0.3)">
          <a xlink:href="classcarla_1_1streaming_1_1detail_1_1MultiStreamState_ae1e2f4ababc5e63334eb4617bbb2f4c6_cgraph_org.svg" target="_base">
           <rect id="button" ry="5" rx="5" y="6" x="6" height="38" width="38"
                fill="#f2f5e9" fill-opacity="0.5" stroke="#606060" stroke-width="1.0"/>
           <path id="arrow"
             d="M 11.500037,31.436501 C 11.940474,20.09759 22.043105,11.32322 32.158766,21.979434 L 37.068811,17.246167 C 37.068811,17.246167 37.088388,32 37.088388,32 L 22.160133,31.978069 C 22.160133,31.978069 26.997745,27.140456 26.997745,27.140456 C 18.528582,18.264221 13.291696,25.230495 11.500037,31.436501 z"
             style="fill:#404040;"/>
          </a>
         </g>
        </svg>
</svg>
