<?xml version="1.0" encoding="UTF-8" standalone="no"?>
<!DOCTYPE svg PUBLIC "-//W3C//DTD SVG 1.1//EN"
 "http://www.w3.org/Graphics/SVG/1.1/DTD/svg11.dtd">
<!-- Generated by graphviz version 2.38.0 (20140413.2041)
 -->
<!-- Title: Weather.h Pages: 1 -->
<!--zoomable 364 -->
<svg id="main" version="1.1" xmlns="http://www.w3.org/2000/svg" xmlns:xlink="http://www.w3.org/1999/xlink" xml:space="preserve" onload="init(evt)">
<style type="text/css"><![CDATA[
.edge:hover path { stroke: red; }
.edge:hover polygon { stroke: red; fill: red; }
]]></style>
<script type="text/javascript"><![CDATA[
var edges = document.getElementsByTagName('g');
if (edges && edges.length) {
  for (var i=0;i<edges.length;i++) {
    if (edges[i].id.substr(0,4)=='edge') {
      edges[i].setAttribute('class','edge');
    }
  }
}
]]></script>
        <defs>
                <circle id="rim" cx="0" cy="0" r="7"/>
                <circle id="rim2" cx="0" cy="0" r="3.5"/>
                <g id="zoomPlus">
                        <use xlink:href="#rim" fill="#404040">
                                <set attributeName="fill" to="#808080" begin="zoomplus.mouseover" end="zoomplus.mouseout"/>
                        </use>
                        <path d="M-4,0h8M0,-4v8" fill="none" stroke="white" stroke-width="1.5" pointer-events="none"/>
                </g>
                <g id="zoomMin">
                        <use xlink:href="#rim" fill="#404040">
                                <set attributeName="fill" to="#808080" begin="zoomminus.mouseover" end="zoomminus.mouseout"/>
                        </use>
                        <path d="M-4,0h8" fill="none" stroke="white" stroke-width="1.5" pointer-events="none"/>
                </g>
                <g id="dirArrow">
                        <path fill="none" stroke="white" stroke-width="1.5" d="M0,-3.0v7 M-2.5,-0.5L0,-3.0L2.5,-0.5"/>
                </g>
               <g id="resetDef">
                       <use xlink:href="#rim2" fill="#404040">
                               <set attributeName="fill" to="#808080" begin="reset.mouseover" end="reset.mouseout"/>
                       </use>
               </g>
        </defs>

<script type="text/javascript">
var viewWidth = 1977;
var viewHeight = 364;
var sectionId = 'dynsection-1';
</script>
<script xlink:href="../../svgpan.js"/>
<svg id="graph" class="graph">
<g id="viewport">
<title>Weather.h</title>
<polygon fill="white" stroke="none" points="-4,4 -4,-360 1972.5,-360 1972.5,4 -4,4"/>
<!-- Node1 -->
<g id="node1" class="node"><title>Node1</title>
<polygon fill="#bfbfbf" stroke="black" points="1690,-336.5 1690,-355.5 1752,-355.5 1752,-336.5 1690,-336.5"/>
<text text-anchor="middle" x="1721" y="-343.5" font-family="Helvetica,sans-Serif" font-size="10.00">Weather.h</text>
</g>
<!-- Node2 -->
<g id="node2" class="node"><title>Node2</title>
<g id="a_node2"><a xlink:href="../../de/db8/CarlaEpisode_8h.html" target="_top" xlink:title="CarlaEpisode.h">
<polygon fill="white" stroke="black" points="1534.5,-280.5 1534.5,-299.5 1617.5,-299.5 1617.5,-280.5 1534.5,-280.5"/>
<text text-anchor="middle" x="1576" y="-287.5" font-family="Helvetica,sans-Serif" font-size="10.00">CarlaEpisode.h</text>
</a>
</g>
</g>
<!-- Node1&#45;&gt;Node2 -->
<g id="edge1" class="edge"><title>Node1&#45;&gt;Node2</title>
<path fill="none" stroke="midnightblue" d="M1688.52,-332.906C1661.26,-322.754 1623.01,-308.506 1598.87,-299.516"/>
<polygon fill="midnightblue" stroke="midnightblue" points="1687.43,-336.233 1698.02,-336.444 1689.87,-329.674 1687.43,-336.233"/>
</g>
<!-- Node38 -->
<g id="node38" class="node"><title>Node38</title>
<g id="a_node38"><a xlink:href="../../d3/d49/CarlaGameModeBase_8h.html" target="_top" xlink:title="CarlaGameModeBase.h">
<polygon fill="white" stroke="black" points="1735.5,-224.5 1735.5,-243.5 1856.5,-243.5 1856.5,-224.5 1735.5,-224.5"/>
<text text-anchor="middle" x="1796" y="-231.5" font-family="Helvetica,sans-Serif" font-size="10.00">CarlaGameModeBase.h</text>
</a>
</g>
</g>
<!-- Node1&#45;&gt;Node38 -->
<g id="edge58" class="edge"><title>Node1&#45;&gt;Node38</title>
<path fill="none" stroke="midnightblue" d="M1723.42,-326.123C1725.88,-312.41 1730.71,-293.899 1740,-280 1750.46,-264.342 1768.07,-251.499 1780.75,-243.598"/>
<polygon fill="midnightblue" stroke="midnightblue" points="1719.91,-325.892 1721.86,-336.306 1726.83,-326.949 1719.91,-325.892"/>
</g>
<!-- Node41 -->
<g id="node41" class="node"><title>Node41</title>
<g id="a_node41"><a xlink:href="../../d2/d0f/Weather_8cpp.html" target="_top" xlink:title="Weather.cpp">
<polygon fill="white" stroke="black" points="1749,-280.5 1749,-299.5 1821,-299.5 1821,-280.5 1749,-280.5"/>
<text text-anchor="middle" x="1785" y="-287.5" font-family="Helvetica,sans-Serif" font-size="10.00">Weather.cpp</text>
</a>
</g>
</g>
<!-- Node1&#45;&gt;Node41 -->
<g id="edge59" class="edge"><title>Node1&#45;&gt;Node41</title>
<path fill="none" stroke="midnightblue" d="M1738.99,-329.82C1750.46,-320.145 1764.91,-307.948 1774.53,-299.834"/>
<polygon fill="midnightblue" stroke="midnightblue" points="1736.67,-327.2 1731.28,-336.324 1741.18,-332.55 1736.67,-327.2"/>
</g>
<!-- Node3 -->
<g id="node3" class="node"><title>Node3</title>
<g id="a_node3"><a xlink:href="../../d7/d7d/Unreal_2CarlaUE4_2Plugins_2Carla_2Source_2Carla_2Sensor_2Sensor_8h.html" target="_top" xlink:title="Sensor.h">
<polygon fill="white" stroke="black" points="908,-224.5 908,-243.5 964,-243.5 964,-224.5 908,-224.5"/>
<text text-anchor="middle" x="936" y="-231.5" font-family="Helvetica,sans-Serif" font-size="10.00">Sensor.h</text>
</a>
</g>
</g>
<!-- Node2&#45;&gt;Node3 -->
<g id="edge2" class="edge"><title>Node2&#45;&gt;Node3</title>
<path fill="none" stroke="midnightblue" d="M1523.98,-284.61C1394.91,-273.72 1063.28,-245.739 964.3,-237.388"/>
<polygon fill="midnightblue" stroke="midnightblue" points="1523.75,-288.104 1534.01,-285.457 1524.34,-281.128 1523.75,-288.104"/>
</g>
<!-- Node11 -->
<g id="node11" class="node"><title>Node11</title>
<g id="a_node11"><a xlink:href="../../da/df0/CollisionSensor_8cpp.html" target="_top" xlink:title="CollisionSensor.cpp">
<polygon fill="white" stroke="black" points="1681,-56.5 1681,-75.5 1785,-75.5 1785,-56.5 1681,-56.5"/>
<text text-anchor="middle" x="1733" y="-63.5" font-family="Helvetica,sans-Serif" font-size="10.00">CollisionSensor.cpp</text>
</a>
</g>
</g>
<!-- Node2&#45;&gt;Node11 -->
<g id="edge55" class="edge"><title>Node2&#45;&gt;Node11</title>
<path fill="none" stroke="midnightblue" d="M1596.61,-274.159C1607.07,-265.999 1619.53,-255.261 1629,-244 1677.62,-186.163 1717.04,-102.733 1729.15,-75.7632"/>
<polygon fill="midnightblue" stroke="midnightblue" points="1594.26,-271.541 1588.4,-280.363 1598.48,-277.126 1594.26,-271.541"/>
</g>
<!-- Node13 -->
<g id="node13" class="node"><title>Node13</title>
<g id="a_node13"><a xlink:href="../../d2/d70/ObstacleDetectionSensor_8cpp.html" target="_top" xlink:title="ObstacleDetectionSensor.cpp">
<polygon fill="white" stroke="black" points="1803.5,-56.5 1803.5,-75.5 1950.5,-75.5 1950.5,-56.5 1803.5,-56.5"/>
<text text-anchor="middle" x="1877" y="-63.5" font-family="Helvetica,sans-Serif" font-size="10.00">ObstacleDetectionSensor.cpp</text>
</a>
</g>
</g>
<!-- Node2&#45;&gt;Node13 -->
<g id="edge57" class="edge"><title>Node2&#45;&gt;Node13</title>
<path fill="none" stroke="midnightblue" d="M1600.65,-275.241C1615.52,-266.691 1634.68,-255.222 1651,-244 1738.06,-184.133 1835.91,-102.036 1866.98,-75.5833"/>
<polygon fill="midnightblue" stroke="midnightblue" points="1598.54,-272.419 1591.57,-280.406 1602,-278.503 1598.54,-272.419"/>
</g>
<!-- Node16 -->
<g id="node16" class="node"><title>Node16</title>
<g id="a_node16"><a xlink:href="../../d7/d22/GnssSensor_8cpp.html" target="_top" xlink:title="GnssSensor.cpp">
<polygon fill="white" stroke="black" points="393.5,-112.5 393.5,-131.5 482.5,-131.5 482.5,-112.5 393.5,-112.5"/>
<text text-anchor="middle" x="438" y="-119.5" font-family="Helvetica,sans-Serif" font-size="10.00">GnssSensor.cpp</text>
</a>
</g>
</g>
<!-- Node2&#45;&gt;Node16 -->
<g id="edge56" class="edge"><title>Node2&#45;&gt;Node16</title>
<path fill="none" stroke="midnightblue" d="M1524.33,-288.339C1393.7,-286.203 1039.79,-277.525 747,-244 603.989,-227.625 520.568,-298.234 428,-188 414.49,-171.912 425.567,-145.371 432.866,-131.715"/>
<polygon fill="midnightblue" stroke="midnightblue" points="1524.39,-291.84 1534.45,-288.499 1524.5,-284.841 1524.39,-291.84"/>
</g>
<!-- Node30 -->
<g id="node30" class="node"><title>Node30</title>
<g id="a_node30"><a xlink:href="../../d6/dd9/CarlaEpisode_8cpp.html" target="_top" xlink:title="CarlaEpisode.cpp">
<polygon fill="white" stroke="black" points="437,-168.5 437,-187.5 531,-187.5 531,-168.5 437,-168.5"/>
<text text-anchor="middle" x="484" y="-175.5" font-family="Helvetica,sans-Serif" font-size="10.00">CarlaEpisode.cpp</text>
</a>
</g>
</g>
<!-- Node2&#45;&gt;Node30 -->
<g id="edge54" class="edge"><title>Node2&#45;&gt;Node30</title>
<path fill="none" stroke="midnightblue" d="M1524.14,-287.128C1410.57,-282.683 1131.45,-269.877 899,-244 764.189,-228.992 606.199,-201.48 529.879,-187.556"/>
<polygon fill="midnightblue" stroke="midnightblue" points="1524.16,-290.631 1534.29,-287.52 1524.43,-283.636 1524.16,-290.631"/>
</g>
<!-- Node35 -->
<g id="node35" class="node"><title>Node35</title>
<g id="a_node35"><a xlink:href="../../d9/dc8/CarlaStatics_8h.html" target="_top" xlink:title="CarlaStatics.h">
<polygon fill="white" stroke="black" points="1403.5,-168.5 1403.5,-187.5 1482.5,-187.5 1482.5,-168.5 1403.5,-168.5"/>
<text text-anchor="middle" x="1443" y="-175.5" font-family="Helvetica,sans-Serif" font-size="10.00">CarlaStatics.h</text>
</a>
</g>
</g>
<!-- Node2&#45;&gt;Node35 -->
<g id="edge42" class="edge"><title>Node2&#45;&gt;Node35</title>
<path fill="none" stroke="midnightblue" d="M1557.64,-273.816C1529.31,-250.387 1475.87,-206.19 1453.39,-187.591"/>
<polygon fill="midnightblue" stroke="midnightblue" points="1555.63,-276.692 1565.56,-280.368 1560.09,-271.298 1555.63,-276.692"/>
</g>
<!-- Node2&#45;&gt;Node38 -->
<g id="edge48" class="edge"><title>Node2&#45;&gt;Node38</title>
<path fill="none" stroke="midnightblue" d="M1620.72,-278.024C1662.28,-267.823 1723.31,-252.841 1761.3,-243.516"/>
<polygon fill="midnightblue" stroke="midnightblue" points="1619.74,-274.661 1610.86,-280.444 1621.41,-281.459 1619.74,-274.661"/>
</g>
<!-- Node40 -->
<g id="node40" class="node"><title>Node40</title>
<g id="a_node40"><a xlink:href="../../d6/da1/CarlaEngine_8cpp.html" target="_top" xlink:title="CarlaEngine.cpp">
<polygon fill="white" stroke="black" points="1531.5,-224.5 1531.5,-243.5 1620.5,-243.5 1620.5,-224.5 1531.5,-224.5"/>
<text text-anchor="middle" x="1576" y="-231.5" font-family="Helvetica,sans-Serif" font-size="10.00">CarlaEngine.cpp</text>
</a>
</g>
</g>
<!-- Node2&#45;&gt;Node40 -->
<g id="edge53" class="edge"><title>Node2&#45;&gt;Node40</title>
<path fill="none" stroke="midnightblue" d="M1576,-269.805C1576,-260.91 1576,-250.78 1576,-243.751"/>
<polygon fill="midnightblue" stroke="midnightblue" points="1572.5,-270.083 1576,-280.083 1579.5,-270.083 1572.5,-270.083"/>
</g>
<!-- Node4 -->
<g id="node4" class="node"><title>Node4</title>
<g id="a_node4"><a xlink:href="../../d9/d73/GnssSensor_8h.html" target="_top" xlink:title="GnssSensor.h">
<polygon fill="white" stroke="black" points="587.5,-168.5 587.5,-187.5 666.5,-187.5 666.5,-168.5 587.5,-168.5"/>
<text text-anchor="middle" x="627" y="-175.5" font-family="Helvetica,sans-Serif" font-size="10.00">GnssSensor.h</text>
</a>
</g>
</g>
<!-- Node3&#45;&gt;Node4 -->
<g id="edge3" class="edge"><title>Node3&#45;&gt;Node4</title>
<path fill="none" stroke="midnightblue" d="M897.886,-226.608C847.025,-218.037 754.171,-202.247 675,-188 672.246,-187.504 669.405,-186.987 666.544,-186.462"/>
<polygon fill="midnightblue" stroke="midnightblue" points="897.34,-230.065 907.782,-228.274 898.502,-223.162 897.34,-230.065"/>
</g>
<!-- Node15 -->
<g id="node15" class="node"><title>Node15</title>
<g id="a_node15"><a xlink:href="../../d7/d16/Sensor_8cpp.html" target="_top" xlink:title="Sensor.cpp">
<polygon fill="white" stroke="black" points="0,-56.5 0,-75.5 66,-75.5 66,-56.5 0,-56.5"/>
<text text-anchor="middle" x="33" y="-63.5" font-family="Helvetica,sans-Serif" font-size="10.00">Sensor.cpp</text>
</a>
</g>
</g>
<!-- Node3&#45;&gt;Node15 -->
<g id="edge40" class="edge"><title>Node3&#45;&gt;Node15</title>
<path fill="none" stroke="midnightblue" d="M897.648,-229.458C811.265,-221.298 606.738,-200.886 578,-188 531.152,-166.993 538.246,-132.096 491,-112 405.613,-75.6806 166.766,-89.7478 75,-76 72.1975,-75.5802 69.3016,-75.0866 66.4018,-74.5506"/>
<polygon fill="midnightblue" stroke="midnightblue" points="897.536,-232.963 907.819,-230.414 898.191,-225.994 897.536,-232.963"/>
</g>
<!-- Node17 -->
<g id="node17" class="node"><title>Node17</title>
<g id="a_node17"><a xlink:href="../../d7/dfa/InertialMeasurementUnit_8h.html" target="_top" xlink:title="InertialMeasurementUnit.h">
<polygon fill="white" stroke="black" points="684.5,-168.5 684.5,-187.5 815.5,-187.5 815.5,-168.5 684.5,-168.5"/>
<text text-anchor="middle" x="750" y="-175.5" font-family="Helvetica,sans-Serif" font-size="10.00">InertialMeasurementUnit.h</text>
</a>
</g>
</g>
<!-- Node3&#45;&gt;Node17 -->
<g id="edge16" class="edge"><title>Node3&#45;&gt;Node17</title>
<path fill="none" stroke="midnightblue" d="M897.868,-221.929C862.778,-211.742 811.466,-196.845 779.439,-187.547"/>
<polygon fill="midnightblue" stroke="midnightblue" points="897.171,-225.372 907.751,-224.799 899.123,-218.649 897.171,-225.372"/>
</g>
<!-- Node18 -->
<g id="node18" class="node"><title>Node18</title>
<g id="a_node18"><a xlink:href="../../d8/d95/SceneCaptureSensor_8h.html" target="_top" xlink:title="SceneCaptureSensor.h">
<polygon fill="white" stroke="black" points="937,-168.5 937,-187.5 1055,-187.5 1055,-168.5 937,-168.5"/>
<text text-anchor="middle" x="996" y="-175.5" font-family="Helvetica,sans-Serif" font-size="10.00">SceneCaptureSensor.h</text>
</a>
</g>
</g>
<!-- Node3&#45;&gt;Node18 -->
<g id="edge19" class="edge"><title>Node3&#45;&gt;Node18</title>
<path fill="none" stroke="midnightblue" d="M953.181,-217.537C963.879,-207.909 977.256,-195.869 986.185,-187.834"/>
<polygon fill="midnightblue" stroke="midnightblue" points="950.732,-215.033 945.64,-224.324 955.414,-220.236 950.732,-215.033"/>
</g>
<!-- Node3&#45;&gt;Node30 -->
<g id="edge33" class="edge"><title>Node3&#45;&gt;Node30</title>
<path fill="none" stroke="midnightblue" d="M897.887,-229.022C827.896,-221.625 674.204,-204.962 545,-188 540.542,-187.415 535.905,-186.779 531.268,-186.126"/>
<polygon fill="midnightblue" stroke="midnightblue" points="897.678,-232.519 907.99,-230.086 898.411,-225.558 897.678,-232.519"/>
</g>
<!-- Node31 -->
<g id="node31" class="node"><title>Node31</title>
<g id="a_node31"><a xlink:href="../../d3/dd6/CollisionSensor_8h.html" target="_top" xlink:title="CollisionSensor.h">
<polygon fill="white" stroke="black" points="1170.5,-112.5 1170.5,-131.5 1263.5,-131.5 1263.5,-112.5 1170.5,-112.5"/>
<text text-anchor="middle" x="1217" y="-119.5" font-family="Helvetica,sans-Serif" font-size="10.00">CollisionSensor.h</text>
</a>
</g>
</g>
<!-- Node3&#45;&gt;Node31 -->
<g id="edge34" class="edge"><title>Node3&#45;&gt;Node31</title>
<path fill="none" stroke="midnightblue" d="M971.885,-221.067C997.668,-212.327 1033.17,-199.953 1064,-188 1112.7,-169.115 1169.02,-144.442 1197.84,-131.605"/>
<polygon fill="midnightblue" stroke="midnightblue" points="970.521,-217.833 962.164,-224.346 972.758,-224.466 970.521,-217.833"/>
</g>
<!-- Node32 -->
<g id="node32" class="node"><title>Node32</title>
<g id="a_node32"><a xlink:href="../../d7/d55/ObstacleDetectionSensor_8h.html" target="_top" xlink:title="ObstacleDetectionSensor.h">
<polygon fill="white" stroke="black" points="1502.5,-168.5 1502.5,-187.5 1639.5,-187.5 1639.5,-168.5 1502.5,-168.5"/>
<text text-anchor="middle" x="1571" y="-175.5" font-family="Helvetica,sans-Serif" font-size="10.00">ObstacleDetectionSensor.h</text>
</a>
</g>
</g>
<!-- Node3&#45;&gt;Node32 -->
<g id="edge36" class="edge"><title>Node3&#45;&gt;Node32</title>
<path fill="none" stroke="midnightblue" d="M974.039,-230.326C1064,-223.912 1296.86,-206.786 1491,-188 1494.76,-187.637 1498.61,-187.25 1502.5,-186.848"/>
<polygon fill="midnightblue" stroke="midnightblue" points="973.764,-226.836 964.037,-231.037 974.26,-233.819 973.764,-226.836"/>
</g>
<!-- Node33 -->
<g id="node33" class="node"><title>Node33</title>
<g id="a_node33"><a xlink:href="../../d1/d53/RayCastLidar_8h.html" target="_top" xlink:title="RayCastLidar.h">
<polygon fill="white" stroke="black" points="833.5,-168.5 833.5,-187.5 918.5,-187.5 918.5,-168.5 833.5,-168.5"/>
<text text-anchor="middle" x="876" y="-175.5" font-family="Helvetica,sans-Serif" font-size="10.00">RayCastLidar.h</text>
</a>
</g>
</g>
<!-- Node3&#45;&gt;Node33 -->
<g id="edge38" class="edge"><title>Node3&#45;&gt;Node33</title>
<path fill="none" stroke="midnightblue" d="M918.819,-217.537C908.121,-207.909 894.744,-195.869 885.815,-187.834"/>
<polygon fill="midnightblue" stroke="midnightblue" points="916.586,-220.236 926.36,-224.324 921.268,-215.033 916.586,-220.236"/>
</g>
<!-- Node34 -->
<g id="node34" class="node"><title>Node34</title>
<g id="a_node34"><a xlink:href="../../d0/dde/SensorFactory_8cpp.html" target="_top" xlink:title="SensorFactory.cpp">
<polygon fill="white" stroke="black" points="1281.5,-112.5 1281.5,-131.5 1380.5,-131.5 1380.5,-112.5 1281.5,-112.5"/>
<text text-anchor="middle" x="1331" y="-119.5" font-family="Helvetica,sans-Serif" font-size="10.00">SensorFactory.cpp</text>
</a>
</g>
</g>
<!-- Node3&#45;&gt;Node34 -->
<g id="edge41" class="edge"><title>Node3&#45;&gt;Node34</title>
<path fill="none" stroke="midnightblue" d="M974.11,-222.806C1007.78,-213.768 1058.19,-200.154 1102,-188 1173.68,-168.112 1257.78,-144.056 1301.39,-131.526"/>
<polygon fill="midnightblue" stroke="midnightblue" points="972.977,-219.487 964.225,-225.458 974.79,-226.248 972.977,-219.487"/>
</g>
<!-- Node5 -->
<g id="node5" class="node"><title>Node5</title>
<g id="a_node5"><a xlink:href="../../d7/dda/ActorBlueprintFunctionLibrary_8h.html" target="_top" xlink:title="ActorBlueprintFunctionLibrary.h">
<polygon fill="white" stroke="black" points="568.5,-112.5 568.5,-131.5 721.5,-131.5 721.5,-112.5 568.5,-112.5"/>
<text text-anchor="middle" x="645" y="-119.5" font-family="Helvetica,sans-Serif" font-size="10.00">ActorBlueprintFunctionLibrary.h</text>
</a>
</g>
</g>
<!-- Node4&#45;&gt;Node5 -->
<g id="edge4" class="edge"><title>Node4&#45;&gt;Node5</title>
<path fill="none" stroke="midnightblue" d="M633.201,-158.396C636.213,-149.362 639.688,-138.936 642.083,-131.751"/>
<polygon fill="midnightblue" stroke="midnightblue" points="629.814,-157.489 629.972,-168.083 636.455,-159.703 629.814,-157.489"/>
</g>
<!-- Node4&#45;&gt;Node16 -->
<g id="edge15" class="edge"><title>Node4&#45;&gt;Node16</title>
<path fill="none" stroke="midnightblue" d="M586.987,-165.568C551.333,-155.381 499.962,-140.703 467.808,-131.516"/>
<polygon fill="midnightblue" stroke="midnightblue" points="586.476,-169.062 597.052,-168.444 588.399,-162.331 586.476,-169.062"/>
</g>
<!-- Node6 -->
<g id="node6" class="node"><title>Node6</title>
<g id="a_node6"><a xlink:href="../../dd/d08/ActorBlueprintFunctionLibrary_8cpp.html" target="_top" xlink:title="ActorBlueprintFunctionLibrary.cpp">
<polygon fill="white" stroke="black" points="762,-56.5 762,-75.5 926,-75.5 926,-56.5 762,-56.5"/>
<text text-anchor="middle" x="844" y="-63.5" font-family="Helvetica,sans-Serif" font-size="10.00">ActorBlueprintFunctionLibrary.cpp</text>
</a>
</g>
</g>
<!-- Node5&#45;&gt;Node6 -->
<g id="edge5" class="edge"><title>Node5&#45;&gt;Node6</title>
<path fill="none" stroke="midnightblue" d="M686.648,-109.699C724.206,-99.507 778.614,-84.7429 812.615,-75.5164"/>
<polygon fill="midnightblue" stroke="midnightblue" points="685.267,-106.447 676.532,-112.444 687.1,-113.202 685.267,-106.447"/>
</g>
<!-- Node7 -->
<g id="node7" class="node"><title>Node7</title>
<g id="a_node7"><a xlink:href="../../d0/d6a/ActorDispatcher_8cpp.html" target="_top" xlink:title="ActorDispatcher.cpp">
<polygon fill="white" stroke="black" points="226,-56.5 226,-75.5 332,-75.5 332,-56.5 226,-56.5"/>
<text text-anchor="middle" x="279" y="-63.5" font-family="Helvetica,sans-Serif" font-size="10.00">ActorDispatcher.cpp</text>
</a>
</g>
</g>
<!-- Node5&#45;&gt;Node7 -->
<g id="edge6" class="edge"><title>Node5&#45;&gt;Node7</title>
<path fill="none" stroke="midnightblue" d="M576.858,-110.946C506.115,-100.509 396.934,-84.4001 332.262,-74.8583"/>
<polygon fill="midnightblue" stroke="midnightblue" points="576.602,-114.446 587.006,-112.444 577.624,-107.521 576.602,-114.446"/>
</g>
<!-- Node8 -->
<g id="node8" class="node"><title>Node8</title>
<g id="a_node8"><a xlink:href="../../d5/db8/CarlaBlueprintRegistry_8h.html" target="_top" xlink:title="CarlaBlueprintRegistry.h">
<polygon fill="white" stroke="black" points="84.5,-56.5 84.5,-75.5 207.5,-75.5 207.5,-56.5 84.5,-56.5"/>
<text text-anchor="middle" x="146" y="-63.5" font-family="Helvetica,sans-Serif" font-size="10.00">CarlaBlueprintRegistry.h</text>
</a>
</g>
</g>
<!-- Node5&#45;&gt;Node8 -->
<g id="edge7" class="edge"><title>Node5&#45;&gt;Node8</title>
<path fill="none" stroke="midnightblue" d="M558.37,-112.439C471.869,-103.762 335.153,-89.6983 217,-76 213.914,-75.6423 210.754,-75.2686 207.564,-74.8854"/>
<polygon fill="midnightblue" stroke="midnightblue" points="558.105,-115.93 568.404,-113.444 558.803,-108.965 558.105,-115.93"/>
</g>
<!-- Node10 -->
<g id="node10" class="node"><title>Node10</title>
<g id="a_node10"><a xlink:href="../../d1/d50/AIControllerFactory_8cpp.html" target="_top" xlink:title="AIControllerFactory.cpp">
<polygon fill="white" stroke="black" points="350,-56.5 350,-75.5 470,-75.5 470,-56.5 350,-56.5"/>
<text text-anchor="middle" x="410" y="-63.5" font-family="Helvetica,sans-Serif" font-size="10.00">AIControllerFactory.cpp</text>
</a>
</g>
</g>
<!-- Node5&#45;&gt;Node10 -->
<g id="edge9" class="edge"><title>Node5&#45;&gt;Node10</title>
<path fill="none" stroke="midnightblue" d="M597.795,-110.153C553.393,-99.95 487.815,-84.8809 447.062,-75.5164"/>
<polygon fill="midnightblue" stroke="midnightblue" points="597.234,-113.615 607.764,-112.444 598.801,-106.793 597.234,-113.615"/>
</g>
<!-- Node5&#45;&gt;Node11 -->
<g id="edge10" class="edge"><title>Node5&#45;&gt;Node11</title>
<path fill="none" stroke="midnightblue" d="M732.135,-117.051C767.203,-115.469 808.024,-113.637 845,-112 1212.54,-95.7305 1305.76,-110.896 1672,-76 1674.88,-75.7258 1677.83,-75.4094 1680.8,-75.0627"/>
<polygon fill="midnightblue" stroke="midnightblue" points="731.759,-113.564 721.927,-117.512 732.075,-120.557 731.759,-113.564"/>
</g>
<!-- Node12 -->
<g id="node12" class="node"><title>Node12</title>
<g id="a_node12"><a xlink:href="../../d7/d78/InertialMeasurementUnit_8cpp.html" target="_top" xlink:title="InertialMeasurementUnit.cpp">
<polygon fill="white" stroke="black" points="488,-56.5 488,-75.5 630,-75.5 630,-56.5 488,-56.5"/>
<text text-anchor="middle" x="559" y="-63.5" font-family="Helvetica,sans-Serif" font-size="10.00">InertialMeasurementUnit.cpp</text>
</a>
</g>
</g>
<!-- Node5&#45;&gt;Node12 -->
<g id="edge11" class="edge"><title>Node5&#45;&gt;Node12</title>
<path fill="none" stroke="midnightblue" d="M622.545,-106.901C606.776,-96.9986 586.186,-84.0705 572.783,-75.6545"/>
<polygon fill="midnightblue" stroke="midnightblue" points="620.852,-109.97 631.183,-112.324 624.575,-104.042 620.852,-109.97"/>
</g>
<!-- Node5&#45;&gt;Node13 -->
<g id="edge12" class="edge"><title>Node5&#45;&gt;Node13</title>
<path fill="none" stroke="midnightblue" d="M732.13,-116.945C767.198,-115.348 808.019,-113.533 845,-112 1266.72,-94.5127 1373.04,-106.769 1794,-76 1797.04,-75.7781 1800.13,-75.5321 1803.26,-75.2673"/>
<polygon fill="midnightblue" stroke="midnightblue" points="731.753,-113.459 721.923,-117.412 732.072,-120.452 731.753,-113.459"/>
</g>
<!-- Node14 -->
<g id="node14" class="node"><title>Node14</title>
<g id="a_node14"><a xlink:href="../../df/dec/RayCastLidar_8cpp.html" target="_top" xlink:title="RayCastLidar.cpp">
<polygon fill="white" stroke="black" points="648.5,-56.5 648.5,-75.5 743.5,-75.5 743.5,-56.5 648.5,-56.5"/>
<text text-anchor="middle" x="696" y="-63.5" font-family="Helvetica,sans-Serif" font-size="10.00">RayCastLidar.cpp</text>
</a>
</g>
</g>
<!-- Node5&#45;&gt;Node14 -->
<g id="edge13" class="edge"><title>Node5&#45;&gt;Node14</title>
<path fill="none" stroke="midnightblue" d="M660.378,-104.718C669.367,-95.1997 680.359,-83.5608 687.735,-75.7511"/>
<polygon fill="midnightblue" stroke="midnightblue" points="657.743,-102.41 653.422,-112.083 662.832,-107.216 657.743,-102.41"/>
</g>
<!-- Node5&#45;&gt;Node15 -->
<g id="edge14" class="edge"><title>Node5&#45;&gt;Node15</title>
<path fill="none" stroke="midnightblue" d="M557.899,-112.342C556.59,-112.226 555.29,-112.112 554,-112 341.314,-93.4928 286.309,-106.437 75,-76 72.1952,-75.596 69.2977,-75.1136 66.3967,-74.5851"/>
<polygon fill="midnightblue" stroke="midnightblue" points="557.783,-115.846 568.058,-113.262 558.414,-108.875 557.783,-115.846"/>
</g>
<!-- Node9 -->
<g id="node9" class="node"><title>Node9</title>
<g id="a_node9"><a xlink:href="../../d0/d3b/CarlaBlueprintRegistry_8cpp.html" target="_top" xlink:title="CarlaBlueprintRegistry.cpp">
<polygon fill="white" stroke="black" points="452,-0.5 452,-19.5 586,-19.5 586,-0.5 452,-0.5"/>
<text text-anchor="middle" x="519" y="-7.5" font-family="Helvetica,sans-Serif" font-size="10.00">CarlaBlueprintRegistry.cpp</text>
</a>
</g>
</g>
<!-- Node8&#45;&gt;Node9 -->
<g id="edge8" class="edge"><title>Node8&#45;&gt;Node9</title>
<path fill="none" stroke="midnightblue" d="M215.216,-54.9794C285.674,-44.7791 393.719,-29.1372 460.174,-19.5164"/>
<polygon fill="midnightblue" stroke="midnightblue" points="214.498,-51.5468 205.103,-56.4435 215.501,-58.4746 214.498,-51.5468"/>
</g>
<!-- Node17&#45;&gt;Node5 -->
<g id="edge17" class="edge"><title>Node17&#45;&gt;Node5</title>
<path fill="none" stroke="midnightblue" d="M724.19,-163.726C704.747,-153.727 678.652,-140.307 661.828,-131.655"/>
<polygon fill="midnightblue" stroke="midnightblue" points="722.636,-166.863 733.13,-168.324 725.838,-160.638 722.636,-166.863"/>
</g>
<!-- Node17&#45;&gt;Node12 -->
<g id="edge18" class="edge"><title>Node17&#45;&gt;Node12</title>
<path fill="none" stroke="midnightblue" d="M749.012,-158.149C747.243,-143.603 742.503,-123.998 730,-112 713.388,-96.0584 657.535,-83.3488 614.13,-75.5569"/>
<polygon fill="midnightblue" stroke="midnightblue" points="745.556,-158.819 749.886,-168.489 752.532,-158.23 745.556,-158.819"/>
</g>
<!-- Node18&#45;&gt;Node6 -->
<g id="edge20" class="edge"><title>Node18&#45;&gt;Node6</title>
<path fill="none" stroke="midnightblue" d="M934.76,-166.336C897.985,-158.556 856.21,-146.799 845,-132 832.461,-115.447 837.43,-89.1096 841.217,-75.6044"/>
<polygon fill="midnightblue" stroke="midnightblue" points="934.472,-169.849 944.97,-168.424 935.874,-162.991 934.472,-169.849"/>
</g>
<!-- Node19 -->
<g id="node19" class="node"><title>Node19</title>
<g id="a_node19"><a xlink:href="../../da/d69/ShaderBasedSensor_8h.html" target="_top" xlink:title="ShaderBasedSensor.h">
<polygon fill="white" stroke="black" points="1038,-112.5 1038,-131.5 1152,-131.5 1152,-112.5 1038,-112.5"/>
<text text-anchor="middle" x="1095" y="-119.5" font-family="Helvetica,sans-Serif" font-size="10.00">ShaderBasedSensor.h</text>
</a>
</g>
</g>
<!-- Node18&#45;&gt;Node19 -->
<g id="edge21" class="edge"><title>Node18&#45;&gt;Node19</title>
<path fill="none" stroke="midnightblue" d="M1020.84,-163.453C1039.11,-153.483 1063.42,-140.228 1079.13,-131.655"/>
<polygon fill="midnightblue" stroke="midnightblue" points="1019.01,-160.463 1011.91,-168.324 1022.36,-166.608 1019.01,-160.463"/>
</g>
<!-- Node29 -->
<g id="node29" class="node"><title>Node29</title>
<g id="a_node29"><a xlink:href="../../db/d2d/SceneCaptureSensor_8cpp.html" target="_top" xlink:title="SceneCaptureSensor.cpp">
<polygon fill="white" stroke="black" points="854,-112.5 854,-131.5 982,-131.5 982,-112.5 854,-112.5"/>
<text text-anchor="middle" x="918" y="-119.5" font-family="Helvetica,sans-Serif" font-size="10.00">SceneCaptureSensor.cpp</text>
</a>
</g>
</g>
<!-- Node18&#45;&gt;Node29 -->
<g id="edge32" class="edge"><title>Node18&#45;&gt;Node29</title>
<path fill="none" stroke="midnightblue" d="M975.232,-162.622C960.983,-152.757 942.544,-139.992 930.501,-131.655"/>
<polygon fill="midnightblue" stroke="midnightblue" points="973.254,-165.51 983.468,-168.324 977.238,-159.754 973.254,-165.51"/>
</g>
<!-- Node19&#45;&gt;Node6 -->
<g id="edge22" class="edge"><title>Node19&#45;&gt;Node6</title>
<path fill="none" stroke="midnightblue" d="M1045.18,-110.281C997.747,-100.077 927.296,-84.9203 883.586,-75.5164"/>
<polygon fill="midnightblue" stroke="midnightblue" points="1044.72,-113.762 1055.23,-112.444 1046.19,-106.918 1044.72,-113.762"/>
</g>
<!-- Node20 -->
<g id="node20" class="node"><title>Node20</title>
<g id="a_node20"><a xlink:href="../../da/d7d/DepthCamera_8h.html" target="_top" xlink:title="DepthCamera.h">
<polygon fill="white" stroke="black" points="1577,-56.5 1577,-75.5 1663,-75.5 1663,-56.5 1577,-56.5"/>
<text text-anchor="middle" x="1620" y="-63.5" font-family="Helvetica,sans-Serif" font-size="10.00">DepthCamera.h</text>
</a>
</g>
</g>
<!-- Node19&#45;&gt;Node20 -->
<g id="edge23" class="edge"><title>Node19&#45;&gt;Node20</title>
<path fill="none" stroke="midnightblue" d="M1162.31,-111.905C1342.73,-92.0147 1390.58,-98.7634 1567,-76 1570.24,-75.582 1573.58,-75.11 1576.94,-74.6067"/>
<polygon fill="midnightblue" stroke="midnightblue" points="1161.77,-108.444 1152.22,-113.03 1162.54,-115.4 1161.77,-108.444"/>
</g>
<!-- Node22 -->
<g id="node22" class="node"><title>Node22</title>
<g id="a_node22"><a xlink:href="../../d8/d48/Unreal_2CarlaUE4_2Plugins_2Carla_2Source_2Carla_2Sensor_2LaneInvasionSensor_8h.html" target="_top" xlink:title="LaneInvasionSensor.h">
<polygon fill="white" stroke="black" points="982.5,-56.5 982.5,-75.5 1095.5,-75.5 1095.5,-56.5 982.5,-56.5"/>
<text text-anchor="middle" x="1039" y="-63.5" font-family="Helvetica,sans-Serif" font-size="10.00">LaneInvasionSensor.h</text>
</a>
</g>
</g>
<!-- Node19&#45;&gt;Node22 -->
<g id="edge25" class="edge"><title>Node19&#45;&gt;Node22</title>
<path fill="none" stroke="midnightblue" d="M1078.67,-105.253C1068.74,-95.6731 1056.41,-83.7906 1048.16,-75.8339"/>
<polygon fill="midnightblue" stroke="midnightblue" points="1076.37,-107.902 1086,-112.324 1081.23,-102.863 1076.37,-107.902"/>
</g>
<!-- Node24 -->
<g id="node24" class="node"><title>Node24</title>
<g id="a_node24"><a xlink:href="../../dc/d56/SceneCaptureCamera_8h.html" target="_top" xlink:title="SceneCaptureCamera.h">
<polygon fill="white" stroke="black" points="1114,-56.5 1114,-75.5 1236,-75.5 1236,-56.5 1114,-56.5"/>
<text text-anchor="middle" x="1175" y="-63.5" font-family="Helvetica,sans-Serif" font-size="10.00">SceneCaptureCamera.h</text>
</a>
</g>
</g>
<!-- Node19&#45;&gt;Node24 -->
<g id="edge27" class="edge"><title>Node19&#45;&gt;Node24</title>
<path fill="none" stroke="midnightblue" d="M1116.3,-106.622C1130.92,-96.7574 1149.83,-83.9919 1162.18,-75.6545"/>
<polygon fill="midnightblue" stroke="midnightblue" points="1114.18,-103.828 1107.85,-112.324 1118.1,-109.63 1114.18,-103.828"/>
</g>
<!-- Node26 -->
<g id="node26" class="node"><title>Node26</title>
<g id="a_node26"><a xlink:href="../../de/d13/SemanticSegmentationCamera_8h.html" target="_top" xlink:title="SemanticSegmentationCamera.h">
<polygon fill="white" stroke="black" points="1397.5,-56.5 1397.5,-75.5 1558.5,-75.5 1558.5,-56.5 1397.5,-56.5"/>
<text text-anchor="middle" x="1478" y="-63.5" font-family="Helvetica,sans-Serif" font-size="10.00">SemanticSegmentationCamera.h</text>
</a>
</g>
</g>
<!-- Node19&#45;&gt;Node26 -->
<g id="edge29" class="edge"><title>Node19&#45;&gt;Node26</title>
<path fill="none" stroke="midnightblue" d="M1162.68,-111.458C1234.85,-101.283 1348.09,-85.3161 1417.42,-75.5414"/>
<polygon fill="midnightblue" stroke="midnightblue" points="1161.75,-108.054 1152.34,-112.916 1162.73,-114.985 1161.75,-108.054"/>
</g>
<!-- Node28 -->
<g id="node28" class="node"><title>Node28</title>
<g id="a_node28"><a xlink:href="../../da/d96/ShaderBasedSensor_8cpp.html" target="_top" xlink:title="ShaderBasedSensor.cpp">
<polygon fill="white" stroke="black" points="1254.5,-56.5 1254.5,-75.5 1379.5,-75.5 1379.5,-56.5 1254.5,-56.5"/>
<text text-anchor="middle" x="1317" y="-63.5" font-family="Helvetica,sans-Serif" font-size="10.00">ShaderBasedSensor.cpp</text>
</a>
</g>
</g>
<!-- Node19&#45;&gt;Node28 -->
<g id="edge31" class="edge"><title>Node19&#45;&gt;Node28</title>
<path fill="none" stroke="midnightblue" d="M1140.12,-110.024C1182.06,-99.8232 1243.65,-84.8414 1281.99,-75.5164"/>
<polygon fill="midnightblue" stroke="midnightblue" points="1139.07,-106.679 1130.18,-112.444 1140.72,-113.481 1139.07,-106.679"/>
</g>
<!-- Node21 -->
<g id="node21" class="node"><title>Node21</title>
<g id="a_node21"><a xlink:href="../../d7/d0e/DepthCamera_8cpp.html" target="_top" xlink:title="DepthCamera.cpp">
<polygon fill="white" stroke="black" points="1577,-0.5 1577,-19.5 1673,-19.5 1673,-0.5 1577,-0.5"/>
<text text-anchor="middle" x="1625" y="-7.5" font-family="Helvetica,sans-Serif" font-size="10.00">DepthCamera.cpp</text>
</a>
</g>
</g>
<!-- Node20&#45;&gt;Node21 -->
<g id="edge24" class="edge"><title>Node20&#45;&gt;Node21</title>
<path fill="none" stroke="midnightblue" d="M1621.75,-46.1005C1622.58,-37.1357 1623.53,-26.8579 1624.19,-19.7511"/>
<polygon fill="midnightblue" stroke="midnightblue" points="1618.26,-45.8029 1620.83,-56.083 1625.23,-46.4483 1618.26,-45.8029"/>
</g>
<!-- Node23 -->
<g id="node23" class="node"><title>Node23</title>
<g id="a_node23"><a xlink:href="../../d4/d9b/Unreal_2CarlaUE4_2Plugins_2Carla_2Source_2Carla_2Sensor_2LaneInvasionSensor_8cpp.html" target="_top" xlink:title="LaneInvasionSensor.cpp">
<polygon fill="white" stroke="black" points="972,-0.5 972,-19.5 1096,-19.5 1096,-0.5 972,-0.5"/>
<text text-anchor="middle" x="1034" y="-7.5" font-family="Helvetica,sans-Serif" font-size="10.00">LaneInvasionSensor.cpp</text>
</a>
</g>
</g>
<!-- Node22&#45;&gt;Node23 -->
<g id="edge26" class="edge"><title>Node22&#45;&gt;Node23</title>
<path fill="none" stroke="midnightblue" d="M1037.25,-46.1005C1036.42,-37.1357 1035.47,-26.8579 1034.81,-19.7511"/>
<polygon fill="midnightblue" stroke="midnightblue" points="1033.77,-46.4483 1038.17,-56.083 1040.74,-45.8029 1033.77,-46.4483"/>
</g>
<!-- Node25 -->
<g id="node25" class="node"><title>Node25</title>
<g id="a_node25"><a xlink:href="../../d1/dec/SceneCaptureCamera_8cpp.html" target="_top" xlink:title="SceneCaptureCamera.cpp">
<polygon fill="white" stroke="black" points="1114,-0.5 1114,-19.5 1246,-19.5 1246,-0.5 1114,-0.5"/>
<text text-anchor="middle" x="1180" y="-7.5" font-family="Helvetica,sans-Serif" font-size="10.00">SceneCaptureCamera.cpp</text>
</a>
</g>
</g>
<!-- Node24&#45;&gt;Node25 -->
<g id="edge28" class="edge"><title>Node24&#45;&gt;Node25</title>
<path fill="none" stroke="midnightblue" d="M1176.75,-46.1005C1177.58,-37.1357 1178.53,-26.8579 1179.19,-19.7511"/>
<polygon fill="midnightblue" stroke="midnightblue" points="1173.26,-45.8029 1175.83,-56.083 1180.23,-46.4483 1173.26,-45.8029"/>
</g>
<!-- Node27 -->
<g id="node27" class="node"><title>Node27</title>
<g id="a_node27"><a xlink:href="../../d9/d38/SemanticSegmentationCamera_8cpp.html" target="_top" xlink:title="SemanticSegmentationCamera.cpp">
<polygon fill="white" stroke="black" points="1387.5,-0.5 1387.5,-19.5 1558.5,-19.5 1558.5,-0.5 1387.5,-0.5"/>
<text text-anchor="middle" x="1473" y="-7.5" font-family="Helvetica,sans-Serif" font-size="10.00">SemanticSegmentationCamera.cpp</text>
</a>
</g>
</g>
<!-- Node26&#45;&gt;Node27 -->
<g id="edge30" class="edge"><title>Node26&#45;&gt;Node27</title>
<path fill="none" stroke="midnightblue" d="M1476.25,-46.1005C1475.42,-37.1357 1474.47,-26.8579 1473.81,-19.7511"/>
<polygon fill="midnightblue" stroke="midnightblue" points="1472.77,-46.4483 1477.17,-56.083 1479.74,-45.8029 1472.77,-46.4483"/>
</g>
<!-- Node31&#45;&gt;Node11 -->
<g id="edge35" class="edge"><title>Node31&#45;&gt;Node11</title>
<path fill="none" stroke="midnightblue" d="M1273.95,-111.831C1450.82,-89.8398 1498.04,-96.6449 1672,-76 1674.87,-75.6594 1677.81,-75.2905 1680.78,-74.9031"/>
<polygon fill="midnightblue" stroke="midnightblue" points="1273.26,-108.39 1263.77,-113.109 1274.13,-115.335 1273.26,-108.39"/>
</g>
<!-- Node32&#45;&gt;Node13 -->
<g id="edge37" class="edge"><title>Node32&#45;&gt;Node13</title>
<path fill="none" stroke="midnightblue" d="M1604.48,-164.966C1666.72,-142.59 1798.85,-95.0916 1853.05,-75.6104"/>
<polygon fill="midnightblue" stroke="midnightblue" points="1602.98,-161.783 1594.76,-168.46 1605.35,-168.371 1602.98,-161.783"/>
</g>
<!-- Node33&#45;&gt;Node14 -->
<g id="edge39" class="edge"><title>Node33&#45;&gt;Node14</title>
<path fill="none" stroke="midnightblue" d="M853.105,-163.009C815.322,-139.919 741.017,-94.5104 710.059,-75.5914"/>
<polygon fill="midnightblue" stroke="midnightblue" points="851.518,-166.14 861.876,-168.368 855.168,-160.167 851.518,-166.14"/>
</g>
<!-- Node35&#45;&gt;Node9 -->
<g id="edge43" class="edge"><title>Node35&#45;&gt;Node9</title>
<path fill="none" stroke="midnightblue" d="M1392.92,-175.081C1297.56,-170.853 1093.67,-158.891 1029,-132 979.394,-111.372 984.612,-76.6157 935,-56 873.62,-30.494 687.417,-18.4585 586.215,-13.6685"/>
<polygon fill="midnightblue" stroke="midnightblue" points="1393.03,-178.589 1403.17,-175.524 1393.33,-171.596 1393.03,-178.589"/>
</g>
<!-- Node35&#45;&gt;Node29 -->
<g id="edge45" class="edge"><title>Node35&#45;&gt;Node29</title>
<path fill="none" stroke="midnightblue" d="M1393.1,-172.216C1310.49,-164.24 1140.08,-147.564 996,-132 991.528,-131.517 986.912,-131.009 982.265,-130.49"/>
<polygon fill="midnightblue" stroke="midnightblue" points="1392.92,-175.715 1403.21,-173.191 1393.6,-168.747 1392.92,-175.715"/>
</g>
<!-- Node35&#45;&gt;Node34 -->
<g id="edge46" class="edge"><title>Node35&#45;&gt;Node34</title>
<path fill="none" stroke="midnightblue" d="M1415.75,-163.862C1394.98,-153.849 1366.98,-140.346 1348.95,-131.655"/>
<polygon fill="midnightblue" stroke="midnightblue" points="1414.48,-167.134 1425.01,-168.324 1417.52,-160.828 1414.48,-167.134"/>
</g>
<!-- Node36 -->
<g id="node36" class="node"><title>Node36</title>
<g id="a_node36"><a xlink:href="../../d5/d6e/CarlaStatics_8cpp.html" target="_top" xlink:title="CarlaStatics.cpp">
<polygon fill="white" stroke="black" points="1398.5,-112.5 1398.5,-131.5 1487.5,-131.5 1487.5,-112.5 1398.5,-112.5"/>
<text text-anchor="middle" x="1443" y="-119.5" font-family="Helvetica,sans-Serif" font-size="10.00">CarlaStatics.cpp</text>
</a>
</g>
</g>
<!-- Node35&#45;&gt;Node36 -->
<g id="edge44" class="edge"><title>Node35&#45;&gt;Node36</title>
<path fill="none" stroke="midnightblue" d="M1443,-157.805C1443,-148.91 1443,-138.78 1443,-131.751"/>
<polygon fill="midnightblue" stroke="midnightblue" points="1439.5,-158.083 1443,-168.083 1446.5,-158.083 1439.5,-158.083"/>
</g>
<!-- Node37 -->
<g id="node37" class="node"><title>Node37</title>
<g id="a_node37"><a xlink:href="../../d3/da1/TriggerFactory_8cpp.html" target="_top" xlink:title="TriggerFactory.cpp">
<polygon fill="white" stroke="black" points="1505,-112.5 1505,-131.5 1603,-131.5 1603,-112.5 1505,-112.5"/>
<text text-anchor="middle" x="1554" y="-119.5" font-family="Helvetica,sans-Serif" font-size="10.00">TriggerFactory.cpp</text>
</a>
</g>
</g>
<!-- Node35&#45;&gt;Node37 -->
<g id="edge47" class="edge"><title>Node35&#45;&gt;Node37</title>
<path fill="none" stroke="midnightblue" d="M1470.01,-163.862C1490.59,-153.849 1518.34,-140.346 1536.21,-131.655"/>
<polygon fill="midnightblue" stroke="midnightblue" points="1468.3,-160.802 1460.83,-168.324 1471.36,-167.097 1468.3,-160.802"/>
</g>
<!-- Node38&#45;&gt;Node11 -->
<g id="edge51" class="edge"><title>Node38&#45;&gt;Node11</title>
<path fill="none" stroke="midnightblue" d="M1788.94,-214.395C1775.35,-178.585 1746.03,-101.342 1736.25,-75.5681"/>
<polygon fill="midnightblue" stroke="midnightblue" points="1785.79,-215.968 1792.61,-224.075 1792.34,-213.484 1785.79,-215.968"/>
</g>
<!-- Node38&#45;&gt;Node13 -->
<g id="edge52" class="edge"><title>Node38&#45;&gt;Node13</title>
<path fill="none" stroke="midnightblue" d="M1804.85,-214.856C1822.23,-179.252 1860.19,-101.453 1872.82,-75.5681"/>
<polygon fill="midnightblue" stroke="midnightblue" points="1801.59,-213.553 1800.35,-224.075 1807.89,-216.623 1801.59,-213.553"/>
</g>
<!-- Node38&#45;&gt;Node35 -->
<g id="edge49" class="edge"><title>Node38&#45;&gt;Node35</title>
<path fill="none" stroke="midnightblue" d="M1725.28,-223.123C1663.82,-214.388 1572.41,-201.041 1493,-188 1489.61,-187.443 1486.09,-186.846 1482.56,-186.235"/>
<polygon fill="midnightblue" stroke="midnightblue" points="1724.87,-226.6 1735.26,-224.538 1725.85,-219.669 1724.87,-226.6"/>
</g>
<!-- Node39 -->
<g id="node39" class="node"><title>Node39</title>
<g id="a_node39"><a xlink:href="../../d0/d2e/CarlaGameModeBase_8cpp.html" target="_top" xlink:title="CarlaGameModeBase.cpp">
<polygon fill="white" stroke="black" points="1837.5,-168.5 1837.5,-187.5 1968.5,-187.5 1968.5,-168.5 1837.5,-168.5"/>
<text text-anchor="middle" x="1903" y="-175.5" font-family="Helvetica,sans-Serif" font-size="10.00">CarlaGameModeBase.cpp</text>
</a>
</g>
</g>
<!-- Node38&#45;&gt;Node39 -->
<g id="edge50" class="edge"><title>Node38&#45;&gt;Node39</title>
<path fill="none" stroke="midnightblue" d="M1822.3,-219.726C1842.11,-209.727 1868.71,-196.307 1885.85,-187.655"/>
<polygon fill="midnightblue" stroke="midnightblue" points="1820.54,-216.694 1813.19,-224.324 1823.7,-222.943 1820.54,-216.694"/>
</g>
</g>
</svg>
        <g id="navigator" transform="translate(0 0)" fill="#404254">
                <rect fill="#f2f5e9" fill-opacity="0.5" stroke="#606060" stroke-width=".5" x="0" y="0" width="60" height="60"/>
                <use id="zoomplus" xlink:href="#zoomPlus" x="17" y="9" onmousedown="handleZoom(evt,'in')"/>
                <use id="zoomminus" xlink:href="#zoomMin" x="42" y="9" onmousedown="handleZoom(evt,'out')"/>
                <use id="reset" xlink:href="#resetDef" x="30" y="36" onmousedown="handleReset()"/>
                <g id="arrowUp" xlink:href="#dirArrow" transform="translate(30 24)" onmousedown="handlePan(0,-1)">
                  <use xlink:href="#rim" fill="#404040">
                        <set attributeName="fill" to="#808080" begin="arrowUp.mouseover" end="arrowUp.mouseout"/>
                  </use>
                  <path fill="none" stroke="white" stroke-width="1.5" d="M0,-3.0v7 M-2.5,-0.5L0,-3.0L2.5,-0.5"/>
                </g>
                <g id="arrowRight" xlink:href="#dirArrow" transform="rotate(90) translate(36 -43)" onmousedown="handlePan(1,0)">
                  <use xlink:href="#rim" fill="#404040">
                        <set attributeName="fill" to="#808080" begin="arrowRight.mouseover" end="arrowRight.mouseout"/>
                  </use>
                  <path fill="none" stroke="white" stroke-width="1.5" d="M0,-3.0v7 M-2.5,-0.5L0,-3.0L2.5,-0.5"/>
                </g>
                <g id="arrowDown" xlink:href="#dirArrow" transform="rotate(180) translate(-30 -48)" onmousedown="handlePan(0,1)">
                  <use xlink:href="#rim" fill="#404040">
                        <set attributeName="fill" to="#808080" begin="arrowDown.mouseover" end="arrowDown.mouseout"/>
                  </use>
                  <path fill="none" stroke="white" stroke-width="1.5" d="M0,-3.0v7 M-2.5,-0.5L0,-3.0L2.5,-0.5"/>
                </g>
                <g id="arrowLeft" xlink:href="#dirArrow" transform="rotate(270) translate(-36 17)" onmousedown="handlePan(-1,0)">
                  <use xlink:href="#rim" fill="#404040">
                        <set attributeName="fill" to="#808080" begin="arrowLeft.mouseover" end="arrowLeft.mouseout"/>
                  </use>
                  <path fill="none" stroke="white" stroke-width="1.5" d="M0,-3.0v7 M-2.5,-0.5L0,-3.0L2.5,-0.5"/>
                </g>
        </g>
        <svg viewBox="0 0 15 15" width="100%" height="30px" preserveAspectRatio="xMaxYMin meet">
         <g id="arrow_out" transform="scale(0.3 0.3)">
          <a xlink:href="Weather_8h__dep__incl_org.svg" target="_base">
           <rect id="button" ry="5" rx="5" y="6" x="6" height="38" width="38"
                fill="#f2f5e9" fill-opacity="0.5" stroke="#606060" stroke-width="1.0"/>
           <path id="arrow"
             d="M 11.500037,31.436501 C 11.940474,20.09759 22.043105,11.32322 32.158766,21.979434 L 37.068811,17.246167 C 37.068811,17.246167 37.088388,32 37.088388,32 L 22.160133,31.978069 C 22.160133,31.978069 26.997745,27.140456 26.997745,27.140456 C 18.528582,18.264221 13.291696,25.230495 11.500037,31.436501 z"
             style="fill:#404040;"/>
          </a>
         </g>
        </svg>
</svg>
