<?xml version="1.0" encoding="UTF-8" standalone="no"?>
<!DOCTYPE svg PUBLIC "-//W3C//DTD SVG 1.1//EN"
 "http://www.w3.org/Graphics/SVG/1.1/DTD/svg11.dtd">
<!-- Generated by graphviz version 2.43.0 (0)
 -->
<!-- Title: ASensor::Tick Pages: 1 -->
<svg width="318pt" height="154pt"
 viewBox="0.00 0.00 318.00 153.50" xmlns="http://www.w3.org/2000/svg" xmlns:xlink="http://www.w3.org/1999/xlink">
<g id="graph0" class="graph" transform="scale(1 1) rotate(0) translate(4 149.5)">
<title>ASensor::Tick</title>
<polygon fill="white" stroke="transparent" points="-4,4 -4,-149.5 314,-149.5 314,4 -4,4"/>
<!-- Node1 -->
<g id="node1" class="node">
<title>Node1</title>
<g id="a_node1"><a xlink:title=" ">
<polygon fill="#bfbfbf" stroke="black" points="0,-57.5 0,-76.5 83,-76.5 83,-57.5 0,-57.5"/>
<text text-anchor="middle" x="41.5" y="-64.5" font-family="Helvetica,sans-Serif" font-size="10.00">ASensor::Tick</text>
</a>
</g>
</g>
<!-- Node2 -->
<g id="node2" class="node">
<title>Node2</title>
<g id="a_node2"><a xlink:href="../../d4/d9c/classFDataStreamTmpl.html#a92d660fde2ff5d54bb1fbad6de1f34d2" target="_top" xlink:title=" ">
<polygon fill="white" stroke="black" points="133.5,-115 133.5,-145 295.5,-145 295.5,-115 133.5,-115"/>
<text text-anchor="start" x="141.5" y="-133" font-family="Helvetica,sans-Serif" font-size="10.00">FDataStreamTmpl::AreClients</text>
<text text-anchor="middle" x="214.5" y="-122" font-family="Helvetica,sans-Serif" font-size="10.00">Listening</text>
</a>
</g>
</g>
<!-- Node1&#45;&gt;Node2 -->
<g id="edge1" class="edge">
<title>Node1&#45;&gt;Node2</title>
<path fill="none" stroke="midnightblue" d="M59.37,-76.62C74.59,-85 97.76,-97.01 119,-105 125.72,-107.53 132.79,-109.9 139.92,-112.1"/>
<polygon fill="midnightblue" stroke="midnightblue" points="139.07,-115.5 149.66,-115 141.07,-108.79 139.07,-115.5"/>
</g>
<!-- Node3 -->
<g id="node3" class="node">
<title>Node3</title>
<g id="a_node3"><a xlink:href="../../d3/d01/classASensor.html#a2395225b2012e8571a3d59e4704a280b" target="_top" xlink:title=" ">
<polygon fill="white" stroke="black" points="126,-76.5 126,-95.5 303,-95.5 303,-76.5 126,-76.5"/>
<text text-anchor="middle" x="214.5" y="-83.5" font-family="Helvetica,sans-Serif" font-size="10.00">ASensor::OnFirstClientConnected</text>
</a>
</g>
</g>
<!-- Node1&#45;&gt;Node3 -->
<g id="edge2" class="edge">
<title>Node1&#45;&gt;Node3</title>
<path fill="none" stroke="midnightblue" d="M83.02,-71.5C93.6,-72.68 105.45,-73.99 117.59,-75.34"/>
<polygon fill="midnightblue" stroke="midnightblue" points="117.5,-78.85 127.83,-76.48 118.27,-71.9 117.5,-78.85"/>
</g>
<!-- Node4 -->
<g id="node4" class="node">
<title>Node4</title>
<g id="a_node4"><a xlink:href="../../d3/d01/classASensor.html#ae36465452ef3121fec4a61d583aeb134" target="_top" xlink:title=" ">
<polygon fill="white" stroke="black" points="119,-38.5 119,-57.5 310,-57.5 310,-38.5 119,-38.5"/>
<text text-anchor="middle" x="214.5" y="-45.5" font-family="Helvetica,sans-Serif" font-size="10.00">ASensor::OnLastClientDisconnected</text>
</a>
</g>
</g>
<!-- Node1&#45;&gt;Node4 -->
<g id="edge3" class="edge">
<title>Node1&#45;&gt;Node4</title>
<path fill="none" stroke="midnightblue" d="M83.02,-62.5C93.6,-61.32 105.45,-60.01 117.59,-58.66"/>
<polygon fill="midnightblue" stroke="midnightblue" points="118.27,-62.1 127.83,-57.52 117.5,-55.15 118.27,-62.1"/>
</g>
<!-- Node5 -->
<g id="node5" class="node">
<title>Node5</title>
<g id="a_node5"><a xlink:href="../../d3/d01/classASensor.html#afd91096546acf20dfd503395d9a133a9" target="_top" xlink:title=" ">
<polygon fill="white" stroke="black" points="153.5,-0.5 153.5,-19.5 275.5,-19.5 275.5,-0.5 153.5,-0.5"/>
<text text-anchor="middle" x="214.5" y="-7.5" font-family="Helvetica,sans-Serif" font-size="10.00">ASensor::PrePhysTick</text>
</a>
</g>
</g>
<!-- Node1&#45;&gt;Node5 -->
<g id="edge4" class="edge">
<title>Node1&#45;&gt;Node5</title>
<path fill="none" stroke="midnightblue" d="M58.67,-57.4C73.8,-48.8 97.25,-36.44 119,-29 126.97,-26.27 135.45,-23.89 143.94,-21.81"/>
<polygon fill="midnightblue" stroke="midnightblue" points="144.93,-25.17 153.88,-19.51 143.35,-18.35 144.93,-25.17"/>
</g>
</g>
</svg>
