<?xml version="1.0" encoding="UTF-8" standalone="no"?>
<!DOCTYPE svg PUBLIC "-//W3C//DTD SVG 1.1//EN"
 "http://www.w3.org/Graphics/SVG/1.1/DTD/svg11.dtd">
<!-- Generated by graphviz version 2.38.0 (20140413.2041)
 -->
<!-- Title: ASensor::GetDataStream Pages: 1 -->
<svg width="497pt" height="127pt"
 viewBox="0.00 0.00 497.00 126.50" xmlns="http://www.w3.org/2000/svg" xmlns:xlink="http://www.w3.org/1999/xlink">
<g id="graph0" class="graph" transform="scale(1 1) rotate(0) translate(4 122.5)">
<title>ASensor::GetDataStream</title>
<polygon fill="white" stroke="none" points="-4,4 -4,-122.5 493,-122.5 493,4 -4,4"/>
<!-- Node1 -->
<g id="node1" class="node"><title>Node1</title>
<polygon fill="#bfbfbf" stroke="black" points="0,-44.5 0,-63.5 128,-63.5 128,-44.5 0,-44.5"/>
<text text-anchor="middle" x="64" y="-51.5" font-family="Helvetica,sans-Serif" font-size="10.00">ASensor::GetDataStream</text>
</g>
<!-- Node2 -->
<g id="node2" class="node"><title>Node2</title>
<g id="a_node2"><a xlink:href="../../d8/de9/classACollisionSensor.html#ab4fa46f2abc1fbc290f967bb18e7e13e" target="_top" xlink:title="ACollisionSensor::OnCollision\lEvent">
<polygon fill="white" stroke="black" points="164,-88 164,-118 312,-118 312,-88 164,-88"/>
<text text-anchor="start" x="172" y="-106" font-family="Helvetica,sans-Serif" font-size="10.00">ACollisionSensor::OnCollision</text>
<text text-anchor="middle" x="238" y="-95" font-family="Helvetica,sans-Serif" font-size="10.00">Event</text>
</a>
</g>
</g>
<!-- Node1&#45;&gt;Node2 -->
<g id="edge1" class="edge"><title>Node1&#45;&gt;Node2</title>
<path fill="none" stroke="midnightblue" d="M108.406,-66.3657C131.436,-72.9265 159.917,-81.0403 184.217,-87.963"/>
<polygon fill="midnightblue" stroke="midnightblue" points="109.148,-62.9378 98.5716,-63.564 107.23,-69.67 109.148,-62.9378"/>
</g>
<!-- Node4 -->
<g id="node4" class="node"><title>Node4</title>
<g id="a_node4"><a xlink:href="../../d3/d93/classAObstacleDetectionSensor.html#a86daabb07d1a82d74be5ec006b1c20f4" target="_top" xlink:title="AObstacleDetectionSensor\l::OnObstacleDetectionEvent">
<polygon fill="white" stroke="black" points="167,-39 167,-69 309,-69 309,-39 167,-39"/>
<text text-anchor="start" x="175" y="-57" font-family="Helvetica,sans-Serif" font-size="10.00">AObstacleDetectionSensor</text>
<text text-anchor="middle" x="238" y="-46" font-family="Helvetica,sans-Serif" font-size="10.00">::OnObstacleDetectionEvent</text>
</a>
</g>
</g>
<!-- Node1&#45;&gt;Node4 -->
<g id="edge3" class="edge"><title>Node1&#45;&gt;Node4</title>
<path fill="none" stroke="midnightblue" d="M138.283,-54C147.794,-54 157.516,-54 166.971,-54"/>
<polygon fill="midnightblue" stroke="midnightblue" points="138.07,-50.5001 128.07,-54 138.07,-57.5001 138.07,-50.5001"/>
</g>
<!-- Node6 -->
<g id="node6" class="node"><title>Node6</title>
<g id="a_node6"><a xlink:href="../../d5/de4/classARayCastLidar.html#a1d8fa9e958443f080fe7e947c542b5cf" target="_top" xlink:title="ARayCastLidar::Tick">
<polygon fill="white" stroke="black" points="184,-0.5 184,-19.5 292,-19.5 292,-0.5 184,-0.5"/>
<text text-anchor="middle" x="238" y="-7.5" font-family="Helvetica,sans-Serif" font-size="10.00">ARayCastLidar::Tick</text>
</a>
</g>
</g>
<!-- Node1&#45;&gt;Node6 -->
<g id="edge5" class="edge"><title>Node1&#45;&gt;Node6</title>
<path fill="none" stroke="midnightblue" d="M112.15,-41.9383C139.736,-34.8815 174.073,-26.0976 199.751,-19.5287"/>
<polygon fill="midnightblue" stroke="midnightblue" points="111.142,-38.5834 102.321,-44.4527 112.877,-45.3651 111.142,-38.5834"/>
</g>
<!-- Node3 -->
<g id="node3" class="node"><title>Node3</title>
<g id="a_node3"><a xlink:href="../../d8/de9/classACollisionSensor.html#a182d28935eb0b680bf28bf2a85e21355" target="_top" xlink:title="ACollisionSensor::SetOwner">
<polygon fill="white" stroke="black" points="348,-93.5 348,-112.5 489,-112.5 489,-93.5 348,-93.5"/>
<text text-anchor="middle" x="418.5" y="-100.5" font-family="Helvetica,sans-Serif" font-size="10.00">ACollisionSensor::SetOwner</text>
</a>
</g>
</g>
<!-- Node2&#45;&gt;Node3 -->
<g id="edge2" class="edge"><title>Node2&#45;&gt;Node3</title>
<path fill="none" stroke="midnightblue" d="M322.183,-103C330.804,-103 339.501,-103 347.949,-103"/>
<polygon fill="midnightblue" stroke="midnightblue" points="322.118,-99.5001 312.118,-103 322.118,-106.5 322.118,-99.5001"/>
</g>
<!-- Node5 -->
<g id="node5" class="node"><title>Node5</title>
<g id="a_node5"><a xlink:href="../../d3/d93/classAObstacleDetectionSensor.html#a0e3bc7e1dc961c0056910ad7a8343e40" target="_top" xlink:title="AObstacleDetectionSensor\l::Tick">
<polygon fill="white" stroke="black" points="351,-39 351,-69 486,-69 486,-39 351,-39"/>
<text text-anchor="start" x="359" y="-57" font-family="Helvetica,sans-Serif" font-size="10.00">AObstacleDetectionSensor</text>
<text text-anchor="middle" x="418.5" y="-46" font-family="Helvetica,sans-Serif" font-size="10.00">::Tick</text>
</a>
</g>
</g>
<!-- Node4&#45;&gt;Node5 -->
<g id="edge4" class="edge"><title>Node4&#45;&gt;Node5</title>
<path fill="none" stroke="midnightblue" d="M319.134,-54C329.744,-54 340.527,-54 350.876,-54"/>
<polygon fill="midnightblue" stroke="midnightblue" points="319.036,-50.5001 309.036,-54 319.036,-57.5001 319.036,-50.5001"/>
</g>
</g>
</svg>
