<?xml version="1.0" encoding="UTF-8" standalone="no"?>
<!DOCTYPE svg PUBLIC "-//W3C//DTD SVG 1.1//EN"
 "http://www.w3.org/Graphics/SVG/1.1/DTD/svg11.dtd">
<!-- Generated by graphviz version 2.40.1 (20161225.0304)
 -->
<!-- Title: ASensor::BeginPlay Pages: 1 -->
<svg width="482pt" height="28pt"
 viewBox="0.00 0.00 482.00 28.00" xmlns="http://www.w3.org/2000/svg" xmlns:xlink="http://www.w3.org/1999/xlink">
<g id="graph0" class="graph" transform="scale(1 1) rotate(0) translate(4 24)">
<title>ASensor::BeginPlay</title>
<polygon fill="#ffffff" stroke="transparent" points="-4,4 -4,-24 478,-24 478,4 -4,4"/>
<!-- Node2 -->
<g id="node1" class="node">
<title>Node2</title>
<polygon fill="#bfbfbf" stroke="#000000" points="0,-.5 0,-19.5 111,-19.5 111,-.5 0,-.5"/>
<text text-anchor="middle" x="55.5" y="-7.5" font-family="Helvetica,sans-Serif" font-size="10.00" fill="#000000">ASensor::BeginPlay</text>
</g>
<!-- Node3 -->
<g id="node2" class="node">
<title>Node3</title>
<g id="a_node2"><a xlink:href="../../d3/d01/classASensor.html#ac771c41b0631c12d3c5dc8fdaef370bf" target="_top" xlink:title="ASensor::PostPhysTickInternal">
<polygon fill="#ffffff" stroke="#000000" points="147,-.5 147,-19.5 311,-19.5 311,-.5 147,-.5"/>
<text text-anchor="middle" x="229" y="-7.5" font-family="Helvetica,sans-Serif" font-size="10.00" fill="#000000">ASensor::PostPhysTickInternal</text>
</a>
</g>
</g>
<!-- Node2&#45;&gt;Node3 -->
<g id="edge1" class="edge">
<title>Node2&#45;&gt;Node3</title>
<path fill="none" stroke="#191970" d="M111.3515,-10C119.4684,-10 128.0004,-10 136.6068,-10"/>
<polygon fill="#191970" stroke="#191970" points="136.7237,-13.5001 146.7237,-10 136.7236,-6.5001 136.7237,-13.5001"/>
</g>
<!-- Node4 -->
<g id="node3" class="node">
<title>Node4</title>
<g id="a_node3"><a xlink:href="../../d3/d01/classASensor.html#ad7def45d2fa41e8aef4db2acea6f72d0" target="_top" xlink:title="ASensor::PostPhysTick">
<polygon fill="#ffffff" stroke="#000000" points="347,-.5 347,-19.5 474,-19.5 474,-.5 347,-.5"/>
<text text-anchor="middle" x="410.5" y="-7.5" font-family="Helvetica,sans-Serif" font-size="10.00" fill="#000000">ASensor::PostPhysTick</text>
</a>
</g>
</g>
<!-- Node3&#45;&gt;Node4 -->
<g id="edge2" class="edge">
<title>Node3&#45;&gt;Node4</title>
<path fill="none" stroke="#191970" d="M311.2533,-10C319.7219,-10 328.29,-10 336.6592,-10"/>
<polygon fill="#191970" stroke="#191970" points="336.7492,-13.5001 346.7492,-10 336.7491,-6.5001 336.7492,-13.5001"/>
</g>
</g>
</svg>
