<?xml version="1.0" encoding="UTF-8" standalone="no"?>
<!DOCTYPE svg PUBLIC "-//W3C//DTD SVG 1.1//EN"
 "http://www.w3.org/Graphics/SVG/1.1/DTD/svg11.dtd">
<!-- Generated by graphviz version 2.43.0 (0)
 -->
<!-- Title: DataStructures.h Pages: 1 -->
<!--zoomable 308 -->
<svg id="main" version="1.1" xmlns="http://www.w3.org/2000/svg" xmlns:xlink="http://www.w3.org/1999/xlink" xml:space="preserve" onload="init(evt)">
<style type="text/css"><![CDATA[
.edge:hover path { stroke: red; }
.edge:hover polygon { stroke: red; fill: red; }
]]></style>
<script type="text/javascript"><![CDATA[
var edges = document.getElementsByTagName('g');
if (edges && edges.length) {
  for (var i=0;i<edges.length;i++) {
    if (edges[i].id.substr(0,4)=='edge') {
      edges[i].setAttribute('class','edge');
    }
  }
}
]]></script>
        <defs>
                <circle id="rim" cx="0" cy="0" r="7"/>
                <circle id="rim2" cx="0" cy="0" r="3.5"/>
                <g id="zoomPlus">
                        <use xlink:href="#rim" fill="#404040">
                                <set attributeName="fill" to="#808080" begin="zoomplus.mouseover" end="zoomplus.mouseout"/>
                        </use>
                        <path d="M-4,0h8M0,-4v8" fill="none" stroke="white" stroke-width="1.5" pointer-events="none"/>
                </g>
                <g id="zoomMin">
                        <use xlink:href="#rim" fill="#404040">
                                <set attributeName="fill" to="#808080" begin="zoomminus.mouseover" end="zoomminus.mouseout"/>
                        </use>
                        <path d="M-4,0h8" fill="none" stroke="white" stroke-width="1.5" pointer-events="none"/>
                </g>
                <g id="dirArrow">
                        <path fill="none" stroke="white" stroke-width="1.5" d="M0,-3.0v7 M-2.5,-0.5L0,-3.0L2.5,-0.5"/>
                </g>
               <g id="resetDef">
                       <use xlink:href="#rim2" fill="#404040">
                               <set attributeName="fill" to="#808080" begin="reset.mouseover" end="reset.mouseout"/>
                       </use>
               </g>
        </defs>

<script type="text/javascript">
var viewWidth = 969;
var viewHeight = 308;
var sectionId = 'dynsection-1';
</script>
<script xlink:href="../../svgpan.js"/>
<svg id="graph" class="graph">
<g id="viewport">
<title>DataStructures.h</title>
<polygon fill="white" stroke="transparent" points="-4,4 -4,-304 964.99,-304 964.99,4 -4,4"/>
<!-- Node1 -->
<g id="node1" class="node">
<title>Node1</title>
<g id="a_node1"><a xlink:title=" ">
<polygon fill="#bfbfbf" stroke="black" points="596.49,-280.5 596.49,-299.5 694.49,-299.5 694.49,-280.5 596.49,-280.5"/>
<text text-anchor="middle" x="645.49" y="-287.5" font-family="Helvetica,sans-Serif" font-size="10.00">DataStructures.h</text>
</a>
</g>
</g>
<!-- Node2 -->
<g id="node2" class="node">
<title>Node2</title>
<g id="a_node2"><a xlink:href="../../da/d67/CollisionStage_8h.html" target="_top" xlink:title=" ">
<polygon fill="white" stroke="black" points="161.99,-168.5 161.99,-187.5 256.99,-187.5 256.99,-168.5 161.99,-168.5"/>
<text text-anchor="middle" x="209.49" y="-175.5" font-family="Helvetica,sans-Serif" font-size="10.00">CollisionStage.h</text>
</a>
</g>
</g>
<!-- Node1&#45;&gt;Node2 -->
<g id="edge1" class="edge">
<title>Node1&#45;&gt;Node2</title>
<path fill="none" stroke="midnightblue" d="M592.76,-278.4C551.02,-269.78 491.33,-256.97 439.49,-244 366.23,-225.66 280.89,-200.55 237.67,-187.56"/>
<polygon fill="midnightblue" stroke="midnightblue" points="592.21,-281.86 602.71,-280.44 593.62,-275 592.21,-281.86"/>
</g>
<!-- Node3 -->
<g id="node3" class="node">
<title>Node3</title>
<g id="a_node3"><a xlink:href="../../dc/d2c/ALSM_8h.html" target="_top" xlink:title=" ">
<polygon fill="white" stroke="black" points="544.99,-112.5 544.99,-131.5 597.99,-131.5 597.99,-112.5 544.99,-112.5"/>
<text text-anchor="middle" x="571.49" y="-119.5" font-family="Helvetica,sans-Serif" font-size="10.00">ALSM.h</text>
</a>
</g>
</g>
<!-- Node1&#45;&gt;Node3 -->
<g id="edge29" class="edge">
<title>Node1&#45;&gt;Node3</title>
<path fill="none" stroke="midnightblue" d="M668.81,-274.86C703.41,-252.1 761.35,-206.03 732.49,-168 730.41,-165.26 643.19,-141.92 598.02,-129.98"/>
<polygon fill="midnightblue" stroke="midnightblue" points="666.71,-272.05 660.17,-280.38 670.48,-277.95 666.71,-272.05"/>
</g>
<!-- Node9 -->
<g id="node9" class="node">
<title>Node9</title>
<g id="a_node9"><a xlink:href="../../d5/d3b/SimulationState_8h.html" target="_top" xlink:title=" ">
<polygon fill="white" stroke="black" points="448.49,-224.5 448.49,-243.5 552.49,-243.5 552.49,-224.5 448.49,-224.5"/>
<text text-anchor="middle" x="500.49" y="-231.5" font-family="Helvetica,sans-Serif" font-size="10.00">SimulationState.h</text>
</a>
</g>
</g>
<!-- Node1&#45;&gt;Node9 -->
<g id="edge9" class="edge">
<title>Node1&#45;&gt;Node9</title>
<path fill="none" stroke="midnightblue" d="M613.02,-276.91C585.75,-266.75 547.5,-252.51 523.36,-243.52"/>
<polygon fill="midnightblue" stroke="midnightblue" points="611.92,-280.23 622.52,-280.44 614.37,-273.67 611.92,-280.23"/>
</g>
<!-- Node10 -->
<g id="node10" class="node">
<title>Node10</title>
<g id="a_node10"><a xlink:href="../../d9/df4/LocalizationStage_8h.html" target="_top" xlink:title=" ">
<polygon fill="white" stroke="black" points="31.49,-168.5 31.49,-187.5 143.49,-187.5 143.49,-168.5 31.49,-168.5"/>
<text text-anchor="middle" x="87.49" y="-175.5" font-family="Helvetica,sans-Serif" font-size="10.00">LocalizationStage.h</text>
</a>
</g>
</g>
<!-- Node1&#45;&gt;Node10 -->
<g id="edge30" class="edge">
<title>Node1&#45;&gt;Node10</title>
<path fill="none" stroke="midnightblue" d="M586.22,-280.65C529.6,-272.39 441.95,-258.86 366.49,-244 277.19,-226.42 172.99,-200.76 120.83,-187.55"/>
<polygon fill="midnightblue" stroke="midnightblue" points="586.02,-284.16 596.42,-282.13 587.03,-277.23 586.02,-284.16"/>
</g>
<!-- Node12 -->
<g id="node12" class="node">
<title>Node12</title>
<g id="a_node12"><a xlink:href="../../d3/d00/MotionPlanStage_8h.html" target="_top" xlink:title=" ">
<polygon fill="white" stroke="black" points="780.49,-168.5 780.49,-187.5 888.49,-187.5 888.49,-168.5 780.49,-168.5"/>
<text text-anchor="middle" x="834.49" y="-175.5" font-family="Helvetica,sans-Serif" font-size="10.00">MotionPlanStage.h</text>
</a>
</g>
</g>
<!-- Node1&#45;&gt;Node12 -->
<g id="edge31" class="edge">
<title>Node1&#45;&gt;Node12</title>
<path fill="none" stroke="midnightblue" d="M689.14,-277.49C713.08,-270.05 742.64,-258.94 766.49,-244 791.96,-228.05 815.95,-201.45 827.42,-187.75"/>
<polygon fill="midnightblue" stroke="midnightblue" points="687.83,-274.23 679.26,-280.46 689.85,-280.93 687.83,-274.23"/>
</g>
<!-- Node14 -->
<g id="node14" class="node">
<title>Node14</title>
<g id="a_node14"><a xlink:href="../../d4/d12/TrafficLightStage_8h.html" target="_top" xlink:title=" ">
<polygon fill="white" stroke="black" points="446.99,-168.5 446.99,-187.5 553.99,-187.5 553.99,-168.5 446.99,-168.5"/>
<text text-anchor="middle" x="500.49" y="-175.5" font-family="Helvetica,sans-Serif" font-size="10.00">TrafficLightStage.h</text>
</a>
</g>
</g>
<!-- Node1&#45;&gt;Node14 -->
<g id="edge32" class="edge">
<title>Node1&#45;&gt;Node14</title>
<path fill="none" stroke="midnightblue" d="M626.38,-274.01C609.42,-260.76 583.92,-240.94 561.49,-224 544.48,-211.15 524.57,-196.54 512.24,-187.55"/>
<polygon fill="midnightblue" stroke="midnightblue" points="624.38,-276.89 634.41,-280.3 628.69,-271.38 624.38,-276.89"/>
</g>
<!-- Node16 -->
<g id="node16" class="node">
<title>Node16</title>
<g id="a_node16"><a xlink:href="../../d1/dc1/VehicleLightStage_8h.html" target="_top" xlink:title=" ">
<polygon fill="white" stroke="black" points="610.99,-168.5 610.99,-187.5 723.99,-187.5 723.99,-168.5 610.99,-168.5"/>
<text text-anchor="middle" x="667.49" y="-175.5" font-family="Helvetica,sans-Serif" font-size="10.00">VehicleLightStage.h</text>
</a>
</g>
</g>
<!-- Node1&#45;&gt;Node16 -->
<g id="edge33" class="edge">
<title>Node1&#45;&gt;Node16</title>
<path fill="none" stroke="midnightblue" d="M649.22,-270.35C654.04,-246.25 662.23,-205.31 665.77,-187.59"/>
<polygon fill="midnightblue" stroke="midnightblue" points="645.75,-269.88 647.22,-280.37 652.61,-271.25 645.75,-269.88"/>
</g>
<!-- Node19 -->
<g id="node19" class="node">
<title>Node19</title>
<g id="a_node19"><a xlink:href="../../dc/d75/PIDController_8h.html" target="_top" xlink:title=" ">
<polygon fill="white" stroke="black" points="855.99,-224.5 855.99,-243.5 944.99,-243.5 944.99,-224.5 855.99,-224.5"/>
<text text-anchor="middle" x="900.49" y="-231.5" font-family="Helvetica,sans-Serif" font-size="10.00">PIDController.h</text>
</a>
</g>
</g>
<!-- Node1&#45;&gt;Node19 -->
<g id="edge34" class="edge">
<title>Node1&#45;&gt;Node19</title>
<path fill="none" stroke="midnightblue" d="M695.8,-278.35C743.99,-268.14 815.77,-252.94 860.27,-243.52"/>
<polygon fill="midnightblue" stroke="midnightblue" points="694.95,-274.95 685.9,-280.44 696.4,-281.8 694.95,-274.95"/>
</g>
<!-- Node2&#45;&gt;Node3 -->
<g id="edge2" class="edge">
<title>Node2&#45;&gt;Node3</title>
<path fill="none" stroke="midnightblue" d="M267.1,-170.95C332.48,-163.64 442.18,-150.05 535.49,-132 538.53,-131.41 541.69,-130.73 544.83,-130.01"/>
<polygon fill="midnightblue" stroke="midnightblue" points="266.55,-167.49 256.99,-172.07 267.32,-174.45 266.55,-167.49"/>
</g>
<!-- Node5 -->
<g id="node5" class="node">
<title>Node5</title>
<g id="a_node5"><a xlink:href="../../db/ddf/TrafficManagerLocal_8h.html" target="_top" xlink:title=" ">
<polygon fill="white" stroke="black" points="292.99,-56.5 292.99,-75.5 415.99,-75.5 415.99,-56.5 292.99,-56.5"/>
<text text-anchor="middle" x="354.49" y="-63.5" font-family="Helvetica,sans-Serif" font-size="10.00">TrafficManagerLocal.h</text>
</a>
</g>
</g>
<!-- Node2&#45;&gt;Node5 -->
<g id="edge8" class="edge">
<title>Node2&#45;&gt;Node5</title>
<path fill="none" stroke="midnightblue" d="M230.08,-162.34C242.22,-153.63 257.82,-142.31 271.49,-132 297.79,-112.16 328.14,-88.09 343.84,-75.54"/>
<polygon fill="midnightblue" stroke="midnightblue" points="228.04,-159.5 221.94,-168.17 232.11,-165.19 228.04,-159.5"/>
</g>
<!-- Node8 -->
<g id="node8" class="node">
<title>Node8</title>
<g id="a_node8"><a xlink:href="../../db/da2/CollisionStage_8cpp.html" target="_top" xlink:title=" ">
<polygon fill="white" stroke="black" points="155.99,-112.5 155.99,-131.5 262.99,-131.5 262.99,-112.5 155.99,-112.5"/>
<text text-anchor="middle" x="209.49" y="-119.5" font-family="Helvetica,sans-Serif" font-size="10.00">CollisionStage.cpp</text>
</a>
</g>
</g>
<!-- Node2&#45;&gt;Node8 -->
<g id="edge7" class="edge">
<title>Node2&#45;&gt;Node8</title>
<path fill="none" stroke="midnightblue" d="M209.49,-157.8C209.49,-148.91 209.49,-138.78 209.49,-131.75"/>
<polygon fill="midnightblue" stroke="midnightblue" points="205.99,-158.08 209.49,-168.08 212.99,-158.08 205.99,-158.08"/>
</g>
<!-- Node4 -->
<g id="node4" class="node">
<title>Node4</title>
<g id="a_node4"><a xlink:href="../../d9/da8/ALSM_8cpp.html" target="_top" xlink:title=" ">
<polygon fill="white" stroke="black" points="539.49,-56.5 539.49,-75.5 603.49,-75.5 603.49,-56.5 539.49,-56.5"/>
<text text-anchor="middle" x="571.49" y="-63.5" font-family="Helvetica,sans-Serif" font-size="10.00">ALSM.cpp</text>
</a>
</g>
</g>
<!-- Node3&#45;&gt;Node4 -->
<g id="edge3" class="edge">
<title>Node3&#45;&gt;Node4</title>
<path fill="none" stroke="midnightblue" d="M571.49,-101.8C571.49,-92.91 571.49,-82.78 571.49,-75.75"/>
<polygon fill="midnightblue" stroke="midnightblue" points="567.99,-102.08 571.49,-112.08 574.99,-102.08 567.99,-102.08"/>
</g>
<!-- Node3&#45;&gt;Node5 -->
<g id="edge4" class="edge">
<title>Node3&#45;&gt;Node5</title>
<path fill="none" stroke="midnightblue" d="M534.87,-111.85C478.03,-97.68 423.28,-84.08 388.86,-75.53"/>
<polygon fill="midnightblue" stroke="midnightblue" points="534.21,-115.29 544.76,-114.31 535.9,-108.5 534.21,-115.29"/>
</g>
<!-- Node6 -->
<g id="node6" class="node">
<title>Node6</title>
<g id="a_node6"><a xlink:href="../../db/d04/TrafficManager_8cpp.html" target="_top" xlink:title=" ">
<polygon fill="white" stroke="black" points="231.49,-0.5 231.49,-19.5 339.49,-19.5 339.49,-0.5 231.49,-0.5"/>
<text text-anchor="middle" x="285.49" y="-7.5" font-family="Helvetica,sans-Serif" font-size="10.00">TrafficManager.cpp</text>
</a>
</g>
</g>
<!-- Node5&#45;&gt;Node6 -->
<g id="edge5" class="edge">
<title>Node5&#45;&gt;Node6</title>
<path fill="none" stroke="midnightblue" d="M335.45,-50.1C323.03,-40.38 307.25,-28.03 296.78,-19.83"/>
<polygon fill="midnightblue" stroke="midnightblue" points="333.37,-52.92 343.4,-56.32 337.69,-47.4 333.37,-52.92"/>
</g>
<!-- Node7 -->
<g id="node7" class="node">
<title>Node7</title>
<g id="a_node7"><a xlink:href="../../da/d53/TrafficManagerLocal_8cpp.html" target="_top" xlink:title=" ">
<polygon fill="white" stroke="black" points="357.49,-0.5 357.49,-19.5 491.49,-19.5 491.49,-0.5 357.49,-0.5"/>
<text text-anchor="middle" x="424.49" y="-7.5" font-family="Helvetica,sans-Serif" font-size="10.00">TrafficManagerLocal.cpp</text>
</a>
</g>
</g>
<!-- Node5&#45;&gt;Node7 -->
<g id="edge6" class="edge">
<title>Node5&#45;&gt;Node7</title>
<path fill="none" stroke="midnightblue" d="M373.8,-50.1C386.4,-40.38 402.42,-28.03 413.04,-19.83"/>
<polygon fill="midnightblue" stroke="midnightblue" points="371.52,-47.44 365.74,-56.32 375.79,-52.99 371.52,-47.44"/>
</g>
<!-- Node9&#45;&gt;Node2 -->
<g id="edge10" class="edge">
<title>Node9&#45;&gt;Node2</title>
<path fill="none" stroke="midnightblue" d="M444.45,-222.6C389.45,-212.4 306.59,-197.02 255.38,-187.52"/>
<polygon fill="midnightblue" stroke="midnightblue" points="443.91,-226.06 454.38,-224.44 445.19,-219.18 443.91,-226.06"/>
</g>
<!-- Node9&#45;&gt;Node3 -->
<g id="edge19" class="edge">
<title>Node9&#45;&gt;Node3</title>
<path fill="none" stroke="midnightblue" d="M528.24,-219.5C540.74,-211.98 554.45,-201.4 562.49,-188 573.16,-170.22 573.21,-144.87 572.34,-131.7"/>
<polygon fill="midnightblue" stroke="midnightblue" points="526.46,-216.49 519.46,-224.44 529.89,-222.59 526.46,-216.49"/>
</g>
<!-- Node9&#45;&gt;Node5 -->
<g id="edge28" class="edge">
<title>Node9&#45;&gt;Node5</title>
<path fill="none" stroke="midnightblue" d="M438.3,-222.69C384.15,-213.08 312.99,-198.67 304.49,-188 275.75,-151.91 324.03,-96.97 345.25,-75.77"/>
<polygon fill="midnightblue" stroke="midnightblue" points="437.74,-226.15 448.2,-224.43 438.95,-219.25 437.74,-226.15"/>
</g>
<!-- Node9&#45;&gt;Node10 -->
<g id="edge11" class="edge">
<title>Node9&#45;&gt;Node10</title>
<path fill="none" stroke="midnightblue" d="M438.37,-225.14C368.74,-216.29 252.48,-201.39 152.49,-188 149.55,-187.61 146.55,-187.2 143.51,-186.79"/>
<polygon fill="midnightblue" stroke="midnightblue" points="437.93,-228.61 448.29,-226.4 438.82,-221.67 437.93,-228.61"/>
</g>
<!-- Node9&#45;&gt;Node12 -->
<g id="edge15" class="edge">
<title>Node9&#45;&gt;Node12</title>
<path fill="none" stroke="midnightblue" d="M562.9,-222.91C626.01,-212.71 722.47,-197.11 781.84,-187.51"/>
<polygon fill="midnightblue" stroke="midnightblue" points="561.99,-219.51 552.68,-224.56 563.11,-226.42 561.99,-219.51"/>
</g>
<!-- Node9&#45;&gt;Node14 -->
<g id="edge20" class="edge">
<title>Node9&#45;&gt;Node14</title>
<path fill="none" stroke="midnightblue" d="M500.49,-213.8C500.49,-204.91 500.49,-194.78 500.49,-187.75"/>
<polygon fill="midnightblue" stroke="midnightblue" points="496.99,-214.08 500.49,-224.08 503.99,-214.08 496.99,-214.08"/>
</g>
<!-- Node9&#45;&gt;Node16 -->
<g id="edge24" class="edge">
<title>Node9&#45;&gt;Node16</title>
<path fill="none" stroke="midnightblue" d="M536.66,-221.3C568.13,-211.13 612.99,-196.62 641.15,-187.52"/>
<polygon fill="midnightblue" stroke="midnightblue" points="535.39,-218.04 526.95,-224.44 537.54,-224.7 535.39,-218.04"/>
</g>
<!-- Node18 -->
<g id="node18" class="node">
<title>Node18</title>
<g id="a_node18"><a xlink:href="../../d3/d9c/SimulationState_8cpp.html" target="_top" xlink:title=" ">
<polygon fill="white" stroke="black" points="313.99,-168.5 313.99,-187.5 428.99,-187.5 428.99,-168.5 313.99,-168.5"/>
<text text-anchor="middle" x="371.49" y="-175.5" font-family="Helvetica,sans-Serif" font-size="10.00">SimulationState.cpp</text>
</a>
</g>
</g>
<!-- Node9&#45;&gt;Node18 -->
<g id="edge27" class="edge">
<title>Node9&#45;&gt;Node18</title>
<path fill="none" stroke="midnightblue" d="M470.64,-220.5C446.45,-210.38 413.03,-196.39 391.84,-187.52"/>
<polygon fill="midnightblue" stroke="midnightblue" points="469.47,-223.81 480.05,-224.44 472.18,-217.35 469.47,-223.81"/>
</g>
<!-- Node10&#45;&gt;Node3 -->
<g id="edge12" class="edge">
<title>Node10&#45;&gt;Node3</title>
<path fill="none" stroke="midnightblue" d="M153.89,-167.89C324.07,-148.73 370.17,-160.27 535.49,-132 538.54,-131.48 541.71,-130.84 544.85,-130.14"/>
<polygon fill="midnightblue" stroke="midnightblue" points="153.38,-164.43 143.84,-169.04 154.17,-171.38 153.38,-164.43"/>
</g>
<!-- Node10&#45;&gt;Node5 -->
<g id="edge14" class="edge">
<title>Node10&#45;&gt;Node5</title>
<path fill="none" stroke="midnightblue" d="M51.48,-164.86C21.57,-152.9 -13.29,-133.36 5.49,-112 24.12,-90.81 197.63,-76.77 292.77,-70.59"/>
<polygon fill="midnightblue" stroke="midnightblue" points="50.36,-168.18 60.95,-168.47 52.85,-161.64 50.36,-168.18"/>
</g>
<!-- Node11 -->
<g id="node11" class="node">
<title>Node11</title>
<g id="a_node11"><a xlink:href="../../df/dd3/LocalizationStage_8cpp.html" target="_top" xlink:title=" ">
<polygon fill="white" stroke="black" points="14.99,-112.5 14.99,-131.5 137.99,-131.5 137.99,-112.5 14.99,-112.5"/>
<text text-anchor="middle" x="76.49" y="-119.5" font-family="Helvetica,sans-Serif" font-size="10.00">LocalizationStage.cpp</text>
</a>
</g>
</g>
<!-- Node10&#45;&gt;Node11 -->
<g id="edge13" class="edge">
<title>Node10&#45;&gt;Node11</title>
<path fill="none" stroke="midnightblue" d="M83.64,-158.1C81.81,-149.14 79.72,-138.86 78.27,-131.75"/>
<polygon fill="midnightblue" stroke="midnightblue" points="80.25,-158.98 85.67,-168.08 87.11,-157.59 80.25,-158.98"/>
</g>
<!-- Node12&#45;&gt;Node3 -->
<g id="edge16" class="edge">
<title>Node12&#45;&gt;Node3</title>
<path fill="none" stroke="midnightblue" d="M777.75,-166.56C731.74,-157.89 665.26,-144.94 607.49,-132 604.47,-131.32 601.32,-130.59 598.19,-129.83"/>
<polygon fill="midnightblue" stroke="midnightblue" points="777.36,-170.04 787.83,-168.45 778.65,-163.16 777.36,-170.04"/>
</g>
<!-- Node12&#45;&gt;Node5 -->
<g id="edge18" class="edge">
<title>Node12&#45;&gt;Node5</title>
<path fill="none" stroke="midnightblue" d="M819.25,-161.15C803.4,-145.75 777.08,-123.12 749.49,-112 690.52,-88.23 511.82,-75.37 416.29,-70.02"/>
<polygon fill="midnightblue" stroke="midnightblue" points="817,-163.84 826.54,-168.44 821.95,-158.89 817,-163.84"/>
</g>
<!-- Node13 -->
<g id="node13" class="node">
<title>Node13</title>
<g id="a_node13"><a xlink:href="../../d4/df7/MotionPlanStage_8cpp.html" target="_top" xlink:title=" ">
<polygon fill="white" stroke="black" points="841.99,-112.5 841.99,-131.5 960.99,-131.5 960.99,-112.5 841.99,-112.5"/>
<text text-anchor="middle" x="901.49" y="-119.5" font-family="Helvetica,sans-Serif" font-size="10.00">MotionPlanStage.cpp</text>
</a>
</g>
</g>
<!-- Node12&#45;&gt;Node13 -->
<g id="edge17" class="edge">
<title>Node12&#45;&gt;Node13</title>
<path fill="none" stroke="midnightblue" d="M853.33,-161.82C865.33,-152.15 880.46,-139.95 890.53,-131.83"/>
<polygon fill="midnightblue" stroke="midnightblue" points="850.85,-159.32 845.26,-168.32 855.24,-164.77 850.85,-159.32"/>
</g>
<!-- Node14&#45;&gt;Node3 -->
<g id="edge21" class="edge">
<title>Node14&#45;&gt;Node3</title>
<path fill="none" stroke="midnightblue" d="M520.08,-162.1C532.86,-152.38 549.1,-140.03 559.88,-131.83"/>
<polygon fill="midnightblue" stroke="midnightblue" points="517.74,-159.48 511.9,-168.32 521.98,-165.06 517.74,-159.48"/>
</g>
<!-- Node14&#45;&gt;Node5 -->
<g id="edge23" class="edge">
<title>Node14&#45;&gt;Node5</title>
<path fill="none" stroke="midnightblue" d="M460.58,-164.95C440.77,-157.62 417.32,-146.78 399.49,-132 380.05,-115.88 365.31,-89.35 358.55,-75.71"/>
<polygon fill="midnightblue" stroke="midnightblue" points="459.68,-168.35 470.27,-168.37 462.01,-161.75 459.68,-168.35"/>
</g>
<!-- Node15 -->
<g id="node15" class="node">
<title>Node15</title>
<g id="a_node15"><a xlink:href="../../dc/d13/TrafficLightStage_8cpp.html" target="_top" xlink:title=" ">
<polygon fill="white" stroke="black" points="408.49,-112.5 408.49,-131.5 526.49,-131.5 526.49,-112.5 408.49,-112.5"/>
<text text-anchor="middle" x="467.49" y="-119.5" font-family="Helvetica,sans-Serif" font-size="10.00">TrafficLightStage.cpp</text>
</a>
</g>
</g>
<!-- Node14&#45;&gt;Node15 -->
<g id="edge22" class="edge">
<title>Node14&#45;&gt;Node15</title>
<path fill="none" stroke="midnightblue" d="M489.66,-159.27C484.02,-150.05 477.37,-139.17 472.84,-131.75"/>
<polygon fill="midnightblue" stroke="midnightblue" points="486.84,-161.38 495.04,-168.08 492.81,-157.73 486.84,-161.38"/>
</g>
<!-- Node16&#45;&gt;Node3 -->
<g id="edge25" class="edge">
<title>Node16&#45;&gt;Node3</title>
<path fill="none" stroke="midnightblue" d="M642.92,-163.18C625.25,-153.24 601.98,-140.15 586.88,-131.65"/>
<polygon fill="midnightblue" stroke="midnightblue" points="641.64,-166.47 652.07,-168.32 645.07,-160.37 641.64,-166.47"/>
</g>
<!-- Node17 -->
<g id="node17" class="node">
<title>Node17</title>
<g id="a_node17"><a xlink:href="../../d2/d11/VehicleLightStage_8cpp.html" target="_top" xlink:title=" ">
<polygon fill="white" stroke="black" points="616.49,-112.5 616.49,-131.5 740.49,-131.5 740.49,-112.5 616.49,-112.5"/>
<text text-anchor="middle" x="678.49" y="-119.5" font-family="Helvetica,sans-Serif" font-size="10.00">VehicleLightStage.cpp</text>
</a>
</g>
</g>
<!-- Node16&#45;&gt;Node17 -->
<g id="edge26" class="edge">
<title>Node16&#45;&gt;Node17</title>
<path fill="none" stroke="midnightblue" d="M671.34,-158.1C673.17,-149.14 675.26,-138.86 676.71,-131.75"/>
<polygon fill="midnightblue" stroke="midnightblue" points="667.87,-157.59 669.31,-168.08 674.73,-158.98 667.87,-157.59"/>
</g>
<!-- Node19&#45;&gt;Node13 -->
<g id="edge35" class="edge">
<title>Node19&#45;&gt;Node13</title>
<path fill="none" stroke="midnightblue" d="M900.66,-214.35C900.88,-190.25 901.25,-149.31 901.41,-131.59"/>
<polygon fill="midnightblue" stroke="midnightblue" points="897.16,-214.34 900.57,-224.37 904.16,-214.4 897.16,-214.34"/>
</g>
</g>
</svg>
        <g id="navigator" transform="translate(0 0)" fill="#404254">
                <rect fill="#f2f5e9" fill-opacity="0.5" stroke="#606060" stroke-width=".5" x="0" y="0" width="60" height="60"/>
                <use id="zoomplus" xlink:href="#zoomPlus" x="17" y="9" onmousedown="handleZoom(evt,'in')"/>
                <use id="zoomminus" xlink:href="#zoomMin" x="42" y="9" onmousedown="handleZoom(evt,'out')"/>
                <use id="reset" xlink:href="#resetDef" x="30" y="36" onmousedown="handleReset()"/>
                <g id="arrowUp" xlink:href="#dirArrow" transform="translate(30 24)" onmousedown="handlePan(0,-1)">
                  <use xlink:href="#rim" fill="#404040">
                        <set attributeName="fill" to="#808080" begin="arrowUp.mouseover" end="arrowUp.mouseout"/>
                  </use>
                  <path fill="none" stroke="white" stroke-width="1.5" d="M0,-3.0v7 M-2.5,-0.5L0,-3.0L2.5,-0.5"/>
                </g>
                <g id="arrowRight" xlink:href="#dirArrow" transform="rotate(90) translate(36 -43)" onmousedown="handlePan(1,0)">
                  <use xlink:href="#rim" fill="#404040">
                        <set attributeName="fill" to="#808080" begin="arrowRight.mouseover" end="arrowRight.mouseout"/>
                  </use>
                  <path fill="none" stroke="white" stroke-width="1.5" d="M0,-3.0v7 M-2.5,-0.5L0,-3.0L2.5,-0.5"/>
                </g>
                <g id="arrowDown" xlink:href="#dirArrow" transform="rotate(180) translate(-30 -48)" onmousedown="handlePan(0,1)">
                  <use xlink:href="#rim" fill="#404040">
                        <set attributeName="fill" to="#808080" begin="arrowDown.mouseover" end="arrowDown.mouseout"/>
                  </use>
                  <path fill="none" stroke="white" stroke-width="1.5" d="M0,-3.0v7 M-2.5,-0.5L0,-3.0L2.5,-0.5"/>
                </g>
                <g id="arrowLeft" xlink:href="#dirArrow" transform="rotate(270) translate(-36 17)" onmousedown="handlePan(-1,0)">
                  <use xlink:href="#rim" fill="#404040">
                        <set attributeName="fill" to="#808080" begin="arrowLeft.mouseover" end="arrowLeft.mouseout"/>
                  </use>
                  <path fill="none" stroke="white" stroke-width="1.5" d="M0,-3.0v7 M-2.5,-0.5L0,-3.0L2.5,-0.5"/>
                </g>
        </g>
        <svg viewBox="0 0 15 15" width="100%" height="30px" preserveAspectRatio="xMaxYMin meet">
         <g id="arrow_out" transform="scale(0.3 0.3)">
          <a xlink:href="DataStructures_8h__dep__incl_org.svg" target="_base">
           <rect id="button" ry="5" rx="5" y="6" x="6" height="38" width="38"
                fill="#f2f5e9" fill-opacity="0.5" stroke="#606060" stroke-width="1.0"/>
           <path id="arrow"
             d="M 11.500037,31.436501 C 11.940474,20.09759 22.043105,11.32322 32.158766,21.979434 L 37.068811,17.246167 C 37.068811,17.246167 37.088388,32 37.088388,32 L 22.160133,31.978069 C 22.160133,31.978069 26.997745,27.140456 26.997745,27.140456 C 18.528582,18.264221 13.291696,25.230495 11.500037,31.436501 z"
             style="fill:#404040;"/>
          </a>
         </g>
        </svg>
</svg>
