<?xml version="1.0" encoding="UTF-8" standalone="no"?>
<!DOCTYPE svg PUBLIC "-//W3C//DTD SVG 1.1//EN"
 "http://www.w3.org/Graphics/SVG/1.1/DTD/svg11.dtd">
<!-- Generated by graphviz version 2.40.1 (20161225.0304)
 -->
<!-- Title: carla::traffic_manager::TrafficLightStage::AddActorToNonSignalisedJunction Pages: 1 -->
<svg width="373pt" height="50pt"
 viewBox="0.00 0.00 373.00 50.00" xmlns="http://www.w3.org/2000/svg" xmlns:xlink="http://www.w3.org/1999/xlink">
<g id="graph0" class="graph" transform="scale(1 1) rotate(0) translate(4 46)">
<title>carla::traffic_manager::TrafficLightStage::AddActorToNonSignalisedJunction</title>
<polygon fill="#ffffff" stroke="transparent" points="-4,4 -4,-46 369,-46 369,4 -4,4"/>
<!-- Node2 -->
<g id="node1" class="node">
<title>Node2</title>
<polygon fill="#bfbfbf" stroke="#000000" points="0,-.5 0,-41.5 154,-41.5 154,-.5 0,-.5"/>
<text text-anchor="start" x="8" y="-29.5" font-family="Helvetica,sans-Serif" font-size="10.00" fill="#000000">carla::traffic_manager</text>
<text text-anchor="start" x="8" y="-18.5" font-family="Helvetica,sans-Serif" font-size="10.00" fill="#000000">::TrafficLightStage::AddActor</text>
<text text-anchor="middle" x="77" y="-7.5" font-family="Helvetica,sans-Serif" font-size="10.00" fill="#000000">ToNonSignalisedJunction</text>
</g>
<!-- Node3 -->
<g id="node2" class="node">
<title>Node3</title>
<g id="a_node2"><a xlink:href="../../d5/db3/classcarla_1_1traffic__manager_1_1TrafficLightStage.html#a5b4416ca8de96b8a42a88bb8a96f1436" target="_top" xlink:title="carla::traffic_manager\l::TrafficLightStage::RemoveActor">
<polygon fill="#ffffff" stroke="#000000" points="190,-6 190,-36 365,-36 365,-6 190,-6"/>
<text text-anchor="start" x="198" y="-24" font-family="Helvetica,sans-Serif" font-size="10.00" fill="#000000">carla::traffic_manager</text>
<text text-anchor="middle" x="277.5" y="-13" font-family="Helvetica,sans-Serif" font-size="10.00" fill="#000000">::TrafficLightStage::RemoveActor</text>
</a>
</g>
</g>
<!-- Node2&#45;&gt;Node3 -->
<g id="edge1" class="edge">
<title>Node2&#45;&gt;Node3</title>
<path fill="none" stroke="#191970" d="M154.2317,-21C162.6364,-21 171.2693,-21 179.8763,-21"/>
<polygon fill="#191970" stroke="#191970" points="179.9532,-24.5001 189.9531,-21 179.9531,-17.5001 179.9532,-24.5001"/>
</g>
</g>
</svg>
