<?xml version="1.0" encoding="UTF-8" standalone="no"?>
<!DOCTYPE svg PUBLIC "-//W3C//DTD SVG 1.1//EN"
 "http://www.w3.org/Graphics/SVG/1.1/DTD/svg11.dtd">
<!-- Generated by graphviz version 2.40.1 (20161225.0304)
 -->
<!-- Title: moodycamel::details::swap_relaxed Pages: 1 -->
<svg width="340pt" height="220pt"
 viewBox="0.00 0.00 340.00 220.00" xmlns="http://www.w3.org/2000/svg" xmlns:xlink="http://www.w3.org/1999/xlink">
<g id="graph0" class="graph" transform="scale(1 1) rotate(0) translate(4 216)">
<title>moodycamel::details::swap_relaxed</title>
<polygon fill="#ffffff" stroke="transparent" points="-4,4 -4,-216 336,-216 336,4 -4,4"/>
<!-- Node26 -->
<g id="node1" class="node">
<title>Node26</title>
<polygon fill="#bfbfbf" stroke="#000000" points="0,-93 0,-123 119,-123 119,-93 0,-93"/>
<text text-anchor="start" x="8" y="-111" font-family="Helvetica,sans-Serif" font-size="10.00" fill="#000000">moodycamel::details</text>
<text text-anchor="middle" x="59.5" y="-100" font-family="Helvetica,sans-Serif" font-size="10.00" fill="#000000">::swap_relaxed</text>
</g>
<!-- Node27 -->
<g id="node2" class="node">
<title>Node27</title>
<g id="a_node2"><a xlink:href="../../db/d08/structmoodycamel_1_1ConcurrentQueue_1_1FreeList.html#a84a45b61667074f8cfde4b0faa4057e1" target="_top" xlink:title="moodycamel::ConcurrentQueue\l::FreeList\&lt; moodycamel::\lConcurrentQueue::Block \&gt;::swap">
<polygon fill="#ffffff" stroke="#000000" points="155,-170.5 155,-211.5 332,-211.5 332,-170.5 155,-170.5"/>
<text text-anchor="start" x="163" y="-199.5" font-family="Helvetica,sans-Serif" font-size="10.00" fill="#000000">moodycamel::ConcurrentQueue</text>
<text text-anchor="start" x="163" y="-188.5" font-family="Helvetica,sans-Serif" font-size="10.00" fill="#000000">::FreeList&lt; moodycamel::</text>
<text text-anchor="middle" x="243.5" y="-177.5" font-family="Helvetica,sans-Serif" font-size="10.00" fill="#000000">ConcurrentQueue::Block &gt;::swap</text>
</a>
</g>
</g>
<!-- Node26&#45;&gt;Node27 -->
<g id="edge1" class="edge">
<title>Node26&#45;&gt;Node27</title>
<path fill="none" stroke="#191970" d="M92.942,-128.5039C110.9331,-139.0321 133.7379,-151.588 155,-161 162.4174,-164.2835 170.3134,-167.4287 178.2181,-170.3645"/>
<polygon fill="#191970" stroke="#191970" points="94.3938,-125.2959 84.0062,-123.2105 90.8261,-131.3185 94.3938,-125.2959"/>
</g>
<!-- Node28 -->
<g id="node3" class="node">
<title>Node28</title>
<g id="a_node3"><a xlink:href="../../d3/dde/structmoodycamel_1_1ConcurrentQueue_1_1ImplicitProducerKVP.html#a682f163983541854d99920f023c88d42" target="_top" xlink:title="moodycamel::ConcurrentQueue\l::ImplicitProducerKVP::swap">
<polygon fill="#ffffff" stroke="#000000" points="158,-121 158,-151 329,-151 329,-121 158,-121"/>
<text text-anchor="start" x="166" y="-139" font-family="Helvetica,sans-Serif" font-size="10.00" fill="#000000">moodycamel::ConcurrentQueue</text>
<text text-anchor="middle" x="243.5" y="-128" font-family="Helvetica,sans-Serif" font-size="10.00" fill="#000000">::ImplicitProducerKVP::swap</text>
</a>
</g>
</g>
<!-- Node26&#45;&gt;Node28 -->
<g id="edge2" class="edge">
<title>Node26&#45;&gt;Node28</title>
<path fill="none" stroke="#191970" d="M129.2756,-118.618C138.6618,-120.0464 148.3763,-121.5246 157.9955,-122.9884"/>
<polygon fill="#191970" stroke="#191970" points="129.6523,-115.1351 119.2395,-117.0908 128.5991,-122.0555 129.6523,-115.1351"/>
</g>
<!-- Node29 -->
<g id="node4" class="node">
<title>Node29</title>
<g id="a_node4"><a xlink:href="../../d8/dc8/classmoodycamel_1_1ConcurrentQueue.html#ab6ea9b2c5b8461c638cf90d16d54d24b" target="_top" xlink:title="moodycamel::ConcurrentQueue\l\&lt; carla::Buffer \&gt;::swap\l_implicit_producer_hashes">
<polygon fill="#ffffff" stroke="#000000" points="158,-60.5 158,-101.5 329,-101.5 329,-60.5 158,-60.5"/>
<text text-anchor="start" x="166" y="-89.5" font-family="Helvetica,sans-Serif" font-size="10.00" fill="#000000">moodycamel::ConcurrentQueue</text>
<text text-anchor="start" x="166" y="-78.5" font-family="Helvetica,sans-Serif" font-size="10.00" fill="#000000">&lt; carla::Buffer &gt;::swap</text>
<text text-anchor="middle" x="243.5" y="-67.5" font-family="Helvetica,sans-Serif" font-size="10.00" fill="#000000">_implicit_producer_hashes</text>
</a>
</g>
</g>
<!-- Node26&#45;&gt;Node29 -->
<g id="edge3" class="edge">
<title>Node26&#45;&gt;Node29</title>
<path fill="none" stroke="#191970" d="M129.2756,-97.7612C138.6618,-96.3839 148.3763,-94.9584 157.9955,-93.5469"/>
<polygon fill="#191970" stroke="#191970" points="128.6254,-94.319 119.2395,-99.2339 129.6417,-101.2449 128.6254,-94.319"/>
</g>
<!-- Node30 -->
<g id="node5" class="node">
<title>Node30</title>
<g id="a_node5"><a xlink:href="../../d8/dc8/classmoodycamel_1_1ConcurrentQueue.html#ab2432d151da5a3d552cf65070952714c" target="_top" xlink:title="moodycamel::ConcurrentQueue\l\&lt; carla::Buffer \&gt;::swap\l_internal">
<polygon fill="#ffffff" stroke="#000000" points="158,-.5 158,-41.5 329,-41.5 329,-.5 158,-.5"/>
<text text-anchor="start" x="166" y="-29.5" font-family="Helvetica,sans-Serif" font-size="10.00" fill="#000000">moodycamel::ConcurrentQueue</text>
<text text-anchor="start" x="166" y="-18.5" font-family="Helvetica,sans-Serif" font-size="10.00" fill="#000000">&lt; carla::Buffer &gt;::swap</text>
<text text-anchor="middle" x="243.5" y="-7.5" font-family="Helvetica,sans-Serif" font-size="10.00" fill="#000000">_internal</text>
</a>
</g>
</g>
<!-- Node26&#45;&gt;Node30 -->
<g id="edge4" class="edge">
<title>Node26&#45;&gt;Node30</title>
<path fill="none" stroke="#191970" d="M90.4003,-87.2815C108.668,-75.6187 132.5522,-61.3621 155,-51 162.2176,-47.6683 169.9145,-44.5129 177.6428,-41.5884"/>
<polygon fill="#191970" stroke="#191970" points="88.4104,-84.4002 81.9146,-92.7701 92.2122,-90.2779 88.4104,-84.4002"/>
</g>
</g>
</svg>
