<?xml version="1.0" encoding="UTF-8" standalone="no"?>
<!DOCTYPE svg PUBLIC "-//W3C//DTD SVG 1.1//EN"
 "http://www.w3.org/Graphics/SVG/1.1/DTD/svg11.dtd">
<!-- Generated by graphviz version 2.43.0 (0)
 -->
<!-- Title: NavSatFixPubSubTypes.cpp Pages: 1 -->
<svg width="981pt" height="330pt"
 viewBox="0.00 0.00 981.00 330.00" xmlns="http://www.w3.org/2000/svg" xmlns:xlink="http://www.w3.org/1999/xlink">
<g id="graph0" class="graph" transform="scale(1 1) rotate(0) translate(4 326)">
<title>NavSatFixPubSubTypes.cpp</title>
<polygon fill="white" stroke="transparent" points="-4,4 -4,-326 977,-326 977,4 -4,4"/>
<!-- Node1 -->
<g id="node1" class="node">
<title>Node1</title>
<g id="a_node1"><a xlink:title=" ">
<polygon fill="#bfbfbf" stroke="black" points="92,-302.5 92,-321.5 242,-321.5 242,-302.5 92,-302.5"/>
<text text-anchor="middle" x="167" y="-309.5" font-family="Helvetica,sans-Serif" font-size="10.00">NavSatFixPubSubTypes.cpp</text>
</a>
</g>
</g>
<!-- Node2 -->
<g id="node2" class="node">
<title>Node2</title>
<g id="a_node2"><a xlink:title=" ">
<polygon fill="white" stroke="#bfbfbf" points="0,-246.5 0,-265.5 110,-265.5 110,-246.5 0,-246.5"/>
<text text-anchor="middle" x="55" y="-253.5" font-family="Helvetica,sans-Serif" font-size="10.00">fastcdr/FastBuffer.h</text>
</a>
</g>
</g>
<!-- Node1&#45;&gt;Node2 -->
<g id="edge1" class="edge">
<title>Node1&#45;&gt;Node2</title>
<path fill="none" stroke="midnightblue" d="M149.01,-302.32C130.96,-293.62 102.95,-280.12 82.2,-270.11"/>
<polygon fill="midnightblue" stroke="midnightblue" points="83.48,-266.84 72.95,-265.65 80.44,-273.15 83.48,-266.84"/>
</g>
<!-- Node3 -->
<g id="node3" class="node">
<title>Node3</title>
<g id="a_node3"><a xlink:title=" ">
<polygon fill="white" stroke="#bfbfbf" points="128,-246.5 128,-265.5 206,-265.5 206,-246.5 128,-246.5"/>
<text text-anchor="middle" x="167" y="-253.5" font-family="Helvetica,sans-Serif" font-size="10.00">fastcdr/Cdr.h</text>
</a>
</g>
</g>
<!-- Node1&#45;&gt;Node3 -->
<g id="edge2" class="edge">
<title>Node1&#45;&gt;Node3</title>
<path fill="none" stroke="midnightblue" d="M167,-302.08C167,-295.01 167,-284.86 167,-275.99"/>
<polygon fill="midnightblue" stroke="midnightblue" points="170.5,-275.75 167,-265.75 163.5,-275.75 170.5,-275.75"/>
</g>
<!-- Node4 -->
<g id="node4" class="node">
<title>Node4</title>
<g id="a_node4"><a xlink:href="../../d4/d34/NavSatFixPubSubTypes_8h.html" target="_top" xlink:title=" ">
<polygon fill="white" stroke="black" points="224.5,-246.5 224.5,-265.5 363.5,-265.5 363.5,-246.5 224.5,-246.5"/>
<text text-anchor="middle" x="294" y="-253.5" font-family="Helvetica,sans-Serif" font-size="10.00">NavSatFixPubSubTypes.h</text>
</a>
</g>
</g>
<!-- Node1&#45;&gt;Node4 -->
<g id="edge3" class="edge">
<title>Node1&#45;&gt;Node4</title>
<path fill="none" stroke="midnightblue" d="M187.12,-302.44C208.02,-293.56 240.93,-279.56 264.72,-269.45"/>
<polygon fill="midnightblue" stroke="midnightblue" points="266.14,-272.65 273.97,-265.52 263.4,-266.21 266.14,-272.65"/>
</g>
<!-- Node5 -->
<g id="node5" class="node">
<title>Node5</title>
<g id="a_node5"><a xlink:title=" ">
<polygon fill="white" stroke="#bfbfbf" points="8.5,-123.5 8.5,-153.5 159.5,-153.5 159.5,-123.5 8.5,-123.5"/>
<text text-anchor="start" x="16.5" y="-141.5" font-family="Helvetica,sans-Serif" font-size="10.00">fastdds/dds/topic/TopicData</text>
<text text-anchor="middle" x="84" y="-130.5" font-family="Helvetica,sans-Serif" font-size="10.00">Type.hpp</text>
</a>
</g>
</g>
<!-- Node4&#45;&gt;Node5 -->
<g id="edge4" class="edge">
<title>Node4&#45;&gt;Node5</title>
<path fill="none" stroke="midnightblue" d="M224.34,-246.53C176.43,-239.3 118.43,-227.3 101,-210 88.99,-198.08 84.91,-179.25 83.73,-164.05"/>
<polygon fill="midnightblue" stroke="midnightblue" points="87.22,-163.62 83.32,-153.77 80.23,-163.9 87.22,-163.62"/>
</g>
<!-- Node6 -->
<g id="node6" class="node">
<title>Node6</title>
<g id="a_node6"><a xlink:title=" ">
<polygon fill="white" stroke="#bfbfbf" points="216,-129 216,-148 328,-148 328,-129 216,-129"/>
<text text-anchor="middle" x="272" y="-136" font-family="Helvetica,sans-Serif" font-size="10.00">fastrtps/utils/md5.h</text>
</a>
</g>
</g>
<!-- Node4&#45;&gt;Node6 -->
<g id="edge5" class="edge">
<title>Node4&#45;&gt;Node6</title>
<path fill="none" stroke="midnightblue" d="M292.35,-246.32C288.79,-227.67 280.37,-183.44 275.55,-158.13"/>
<polygon fill="midnightblue" stroke="midnightblue" points="278.98,-157.45 273.67,-148.28 272.11,-158.76 278.98,-157.45"/>
</g>
<!-- Node7 -->
<g id="node7" class="node">
<title>Node7</title>
<g id="a_node7"><a xlink:href="../../dc/d04/NavSatFix_8h.html" target="_top" xlink:title=" ">
<polygon fill="white" stroke="black" points="623.5,-190.5 623.5,-209.5 698.5,-209.5 698.5,-190.5 623.5,-190.5"/>
<text text-anchor="middle" x="661" y="-197.5" font-family="Helvetica,sans-Serif" font-size="10.00">NavSatFix.h</text>
</a>
</g>
</g>
<!-- Node4&#45;&gt;Node7 -->
<g id="edge6" class="edge">
<title>Node4&#45;&gt;Node7</title>
<path fill="none" stroke="midnightblue" d="M352.15,-246.44C424.29,-235.83 545.93,-217.93 613.01,-208.06"/>
<polygon fill="midnightblue" stroke="midnightblue" points="613.9,-211.47 623.29,-206.55 612.89,-204.54 613.9,-211.47"/>
</g>
<!-- Node18 -->
<g id="node18" class="node">
<title>Node18</title>
<g id="a_node18"><a xlink:href="../../d0/dda/HeaderPubSubTypes_8h.html" target="_top" xlink:title=" ">
<polygon fill="white" stroke="black" points="322.5,-190.5 322.5,-209.5 447.5,-209.5 447.5,-190.5 322.5,-190.5"/>
<text text-anchor="middle" x="385" y="-197.5" font-family="Helvetica,sans-Serif" font-size="10.00">HeaderPubSubTypes.h</text>
</a>
</g>
</g>
<!-- Node4&#45;&gt;Node18 -->
<g id="edge38" class="edge">
<title>Node4&#45;&gt;Node18</title>
<path fill="none" stroke="midnightblue" d="M308.62,-246.32C322.95,-237.82 345.01,-224.73 361.75,-214.8"/>
<polygon fill="midnightblue" stroke="midnightblue" points="363.6,-217.77 370.42,-209.65 360.03,-211.75 363.6,-217.77"/>
</g>
<!-- Node19 -->
<g id="node19" class="node">
<title>Node19</title>
<g id="a_node19"><a xlink:href="../../d9/d1b/NavSatStatusPubSubTypes_8h.html" target="_top" xlink:title=" ">
<polygon fill="white" stroke="black" points="110.5,-190.5 110.5,-209.5 265.5,-209.5 265.5,-190.5 110.5,-190.5"/>
<text text-anchor="middle" x="188" y="-197.5" font-family="Helvetica,sans-Serif" font-size="10.00">NavSatStatusPubSubTypes.h</text>
</a>
</g>
</g>
<!-- Node4&#45;&gt;Node19 -->
<g id="edge42" class="edge">
<title>Node4&#45;&gt;Node19</title>
<path fill="none" stroke="midnightblue" d="M276.97,-246.32C259.97,-237.66 233.62,-224.24 214.01,-214.25"/>
<polygon fill="midnightblue" stroke="midnightblue" points="215.49,-211.08 204.99,-209.65 212.31,-217.31 215.49,-211.08"/>
</g>
<!-- Node8 -->
<g id="node8" class="node">
<title>Node8</title>
<g id="a_node8"><a xlink:href="../../d3/d6a/Header_8h.html" target="_top" xlink:title=" ">
<polygon fill="white" stroke="black" points="656,-129 656,-148 716,-148 716,-129 656,-129"/>
<text text-anchor="middle" x="686" y="-136" font-family="Helvetica,sans-Serif" font-size="10.00">Header.h</text>
</a>
</g>
</g>
<!-- Node7&#45;&gt;Node8 -->
<g id="edge7" class="edge">
<title>Node7&#45;&gt;Node8</title>
<path fill="none" stroke="midnightblue" d="M664.58,-190.48C668.18,-181.9 673.85,-168.43 678.44,-157.48"/>
<polygon fill="midnightblue" stroke="midnightblue" points="681.78,-158.58 682.42,-148.01 675.32,-155.87 681.78,-158.58"/>
</g>
<!-- Node10 -->
<g id="node10" class="node">
<title>Node10</title>
<g id="a_node10"><a xlink:title=" ">
<polygon fill="white" stroke="#bfbfbf" points="641,-0.5 641,-30.5 745,-30.5 745,-0.5 641,-0.5"/>
<text text-anchor="start" x="649" y="-18.5" font-family="Helvetica,sans-Serif" font-size="10.00">fastrtps/utils/fixed</text>
<text text-anchor="middle" x="693" y="-7.5" font-family="Helvetica,sans-Serif" font-size="10.00">_size_string.hpp</text>
</a>
</g>
</g>
<!-- Node7&#45;&gt;Node10 -->
<g id="edge31" class="edge">
<title>Node7&#45;&gt;Node10</title>
<path fill="none" stroke="midnightblue" d="M677.58,-190.4C705.98,-174.55 762.63,-137.63 781,-87 789.38,-63.91 768.4,-46.52 744.84,-34.79"/>
<polygon fill="midnightblue" stroke="midnightblue" points="746.28,-31.6 735.74,-30.57 743.34,-37.95 746.28,-31.6"/>
</g>
<!-- Node11 -->
<g id="node11" class="node">
<title>Node11</title>
<g id="a_node11"><a xlink:title=" ">
<polygon fill="white" stroke="#bfbfbf" points="819.5,-6 819.5,-25 872.5,-25 872.5,-6 819.5,-6"/>
<text text-anchor="middle" x="846" y="-13" font-family="Helvetica,sans-Serif" font-size="10.00">stdint.h</text>
</a>
</g>
</g>
<!-- Node7&#45;&gt;Node11 -->
<g id="edge32" class="edge">
<title>Node7&#45;&gt;Node11</title>
<path fill="none" stroke="midnightblue" d="M698.78,-193.55C725.99,-187.86 762.01,-176.46 786,-154 820.91,-121.31 836.61,-64.78 842.7,-35.42"/>
<polygon fill="midnightblue" stroke="midnightblue" points="846.19,-35.76 844.63,-25.28 839.32,-34.45 846.19,-35.76"/>
</g>
<!-- Node12 -->
<g id="node12" class="node">
<title>Node12</title>
<g id="a_node12"><a xlink:title=" ">
<polygon fill="white" stroke="#bfbfbf" points="581,-6 581,-25 623,-25 623,-6 581,-6"/>
<text text-anchor="middle" x="602" y="-13" font-family="Helvetica,sans-Serif" font-size="10.00">array</text>
</a>
</g>
</g>
<!-- Node7&#45;&gt;Node12 -->
<g id="edge33" class="edge">
<title>Node7&#45;&gt;Node12</title>
<path fill="none" stroke="midnightblue" d="M648.24,-190.39C624.81,-173.71 575.62,-134.42 557,-87 548.86,-66.28 566.6,-45.1 582.15,-31.44"/>
<polygon fill="midnightblue" stroke="midnightblue" points="584.44,-34.08 589.93,-25.02 579.99,-28.68 584.44,-34.08"/>
</g>
<!-- Node13 -->
<g id="node13" class="node">
<title>Node13</title>
<g id="a_node13"><a xlink:title=" ">
<polygon fill="white" stroke="#bfbfbf" points="518,-6 518,-25 562,-25 562,-6 518,-6"/>
<text text-anchor="middle" x="540" y="-13" font-family="Helvetica,sans-Serif" font-size="10.00">string</text>
</a>
</g>
</g>
<!-- Node7&#45;&gt;Node13 -->
<g id="edge34" class="edge">
<title>Node7&#45;&gt;Node13</title>
<path fill="none" stroke="midnightblue" d="M633.17,-190.46C614.41,-183.41 590.38,-171.67 575,-154 545.43,-120.04 540.24,-64.46 539.7,-35.46"/>
<polygon fill="midnightblue" stroke="midnightblue" points="543.2,-35.11 539.68,-25.11 536.2,-35.12 543.2,-35.11"/>
</g>
<!-- Node14 -->
<g id="node14" class="node">
<title>Node14</title>
<g id="a_node14"><a xlink:title=" ">
<polygon fill="white" stroke="#bfbfbf" points="450.5,-6 450.5,-25 497.5,-25 497.5,-6 450.5,-6"/>
<text text-anchor="middle" x="474" y="-13" font-family="Helvetica,sans-Serif" font-size="10.00">vector</text>
</a>
</g>
</g>
<!-- Node7&#45;&gt;Node14 -->
<g id="edge35" class="edge">
<title>Node7&#45;&gt;Node14</title>
<path fill="none" stroke="midnightblue" d="M625.22,-190.49C602.49,-183.65 573.58,-172.12 553,-154 514.89,-120.44 490.69,-63.87 480.14,-34.86"/>
<polygon fill="midnightblue" stroke="midnightblue" points="483.36,-33.48 476.76,-25.2 476.75,-35.79 483.36,-33.48"/>
</g>
<!-- Node15 -->
<g id="node15" class="node">
<title>Node15</title>
<g id="a_node15"><a xlink:title=" ">
<polygon fill="white" stroke="#bfbfbf" points="763,-6 763,-25 801,-25 801,-6 763,-6"/>
<text text-anchor="middle" x="782" y="-13" font-family="Helvetica,sans-Serif" font-size="10.00">map</text>
</a>
</g>
</g>
<!-- Node7&#45;&gt;Node15 -->
<g id="edge36" class="edge">
<title>Node7&#45;&gt;Node15</title>
<path fill="none" stroke="midnightblue" d="M692.27,-190.41C713.16,-183.38 740.17,-171.69 759,-154 789.5,-125.35 800.26,-108.51 795,-67 793.64,-56.28 790.73,-44.59 788,-35.15"/>
<polygon fill="midnightblue" stroke="midnightblue" points="791.26,-33.85 784.99,-25.31 784.57,-35.89 791.26,-33.85"/>
</g>
<!-- Node16 -->
<g id="node16" class="node">
<title>Node16</title>
<g id="a_node16"><a xlink:title=" ">
<polygon fill="white" stroke="#bfbfbf" points="929,-6 929,-25 973,-25 973,-6 929,-6"/>
<text text-anchor="middle" x="951" y="-13" font-family="Helvetica,sans-Serif" font-size="10.00">bitset</text>
</a>
</g>
</g>
<!-- Node7&#45;&gt;Node16 -->
<g id="edge37" class="edge">
<title>Node7&#45;&gt;Node16</title>
<path fill="none" stroke="midnightblue" d="M698.8,-192.92C730.43,-186.64 775.89,-174.75 811,-154 866.31,-121.3 916.1,-62.16 938.49,-33.28"/>
<polygon fill="midnightblue" stroke="midnightblue" points="941.5,-35.11 944.77,-25.04 935.93,-30.87 941.5,-35.11"/>
</g>
<!-- Node17 -->
<g id="node17" class="node">
<title>Node17</title>
<g id="a_node17"><a xlink:href="../../db/dae/NavSatStatus_8h.html" target="_top" xlink:title=" ">
<polygon fill="white" stroke="black" points="574,-67.5 574,-86.5 666,-86.5 666,-67.5 574,-67.5"/>
<text text-anchor="middle" x="620" y="-74.5" font-family="Helvetica,sans-Serif" font-size="10.00">NavSatStatus.h</text>
</a>
</g>
</g>
<!-- Node7&#45;&gt;Node17 -->
<g id="edge23" class="edge">
<title>Node7&#45;&gt;Node17</title>
<path fill="none" stroke="midnightblue" d="M658.05,-190.3C651.4,-170.68 635.13,-122.64 626.16,-96.19"/>
<polygon fill="midnightblue" stroke="midnightblue" points="629.45,-94.97 622.92,-86.62 622.82,-97.22 629.45,-94.97"/>
</g>
<!-- Node9 -->
<g id="node9" class="node">
<title>Node9</title>
<g id="a_node9"><a xlink:href="../../d9/d3d/ros2_2types_2Time_8h.html" target="_top" xlink:title=" ">
<polygon fill="white" stroke="black" points="722,-67.5 722,-86.5 772,-86.5 772,-67.5 722,-67.5"/>
<text text-anchor="middle" x="747" y="-74.5" font-family="Helvetica,sans-Serif" font-size="10.00">Time.h</text>
</a>
</g>
</g>
<!-- Node8&#45;&gt;Node9 -->
<g id="edge8" class="edge">
<title>Node8&#45;&gt;Node9</title>
<path fill="none" stroke="midnightblue" d="M694.74,-128.98C704.16,-119.78 719.36,-104.96 730.95,-93.66"/>
<polygon fill="midnightblue" stroke="midnightblue" points="733.56,-96 738.28,-86.51 728.67,-90.99 733.56,-96"/>
</g>
<!-- Node8&#45;&gt;Node10 -->
<g id="edge16" class="edge">
<title>Node8&#45;&gt;Node10</title>
<path fill="none" stroke="midnightblue" d="M686.5,-128.8C687.56,-110.6 690.02,-67.98 691.59,-40.79"/>
<polygon fill="midnightblue" stroke="midnightblue" points="695.1,-40.72 692.19,-30.54 688.12,-40.32 695.1,-40.72"/>
</g>
<!-- Node8&#45;&gt;Node11 -->
<g id="edge17" class="edge">
<title>Node8&#45;&gt;Node11</title>
<path fill="none" stroke="midnightblue" d="M716.07,-128.96C740.17,-121 773.82,-107.3 798,-87 815.3,-72.47 829.03,-50.22 837.3,-34.61"/>
<polygon fill="midnightblue" stroke="midnightblue" points="840.54,-35.96 841.93,-25.46 834.29,-32.8 840.54,-35.96"/>
</g>
<!-- Node8&#45;&gt;Node12 -->
<g id="edge18" class="edge">
<title>Node8&#45;&gt;Node12</title>
<path fill="none" stroke="midnightblue" d="M655.96,-134.26C627.15,-129.38 585.13,-117.22 565,-87 552.99,-68.98 569.54,-46.6 584.19,-31.96"/>
<polygon fill="midnightblue" stroke="midnightblue" points="586.63,-34.47 591.52,-25.07 581.84,-29.37 586.63,-34.47"/>
</g>
<!-- Node8&#45;&gt;Node13 -->
<g id="edge19" class="edge">
<title>Node8&#45;&gt;Node13</title>
<path fill="none" stroke="midnightblue" d="M655.85,-133.76C626.36,-128.48 582.29,-116 557,-87 544.48,-72.64 540.82,-50.64 539.92,-35.03"/>
<polygon fill="midnightblue" stroke="midnightblue" points="543.42,-34.91 539.67,-25 536.42,-35.09 543.42,-34.91"/>
</g>
<!-- Node8&#45;&gt;Node14 -->
<g id="edge20" class="edge">
<title>Node8&#45;&gt;Node14</title>
<path fill="none" stroke="midnightblue" d="M655.74,-131.08C625.5,-123.72 578.52,-109.66 543,-87 520.31,-72.53 499.47,-49.25 486.77,-33.44"/>
<polygon fill="midnightblue" stroke="midnightblue" points="489.18,-30.85 480.27,-25.12 483.66,-35.15 489.18,-30.85"/>
</g>
<!-- Node8&#45;&gt;Node15 -->
<g id="edge21" class="edge">
<title>Node8&#45;&gt;Node15</title>
<path fill="none" stroke="midnightblue" d="M716.13,-130.29C738.28,-123.25 766.89,-110.12 781,-87 790.46,-71.52 789.3,-50.33 786.65,-35.23"/>
<polygon fill="midnightblue" stroke="midnightblue" points="789.99,-34.12 784.48,-25.07 783.14,-35.58 789.99,-34.12"/>
</g>
<!-- Node8&#45;&gt;Node16 -->
<g id="edge22" class="edge">
<title>Node8&#45;&gt;Node16</title>
<path fill="none" stroke="midnightblue" d="M711.6,-128.99C738.88,-119.67 783.12,-103.78 820,-87 858.73,-69.37 901.87,-45.23 927.7,-30.26"/>
<polygon fill="midnightblue" stroke="midnightblue" points="929.52,-33.26 936.4,-25.19 925.99,-27.21 929.52,-33.26"/>
</g>
<!-- Node9&#45;&gt;Node10 -->
<g id="edge9" class="edge">
<title>Node9&#45;&gt;Node10</title>
<path fill="none" stroke="midnightblue" d="M739.26,-67.48C732.29,-59.79 721.74,-48.17 712.48,-37.96"/>
<polygon fill="midnightblue" stroke="midnightblue" points="715.04,-35.58 705.73,-30.52 709.86,-40.28 715.04,-35.58"/>
</g>
<!-- Node9&#45;&gt;Node11 -->
<g id="edge10" class="edge">
<title>Node9&#45;&gt;Node11</title>
<path fill="none" stroke="midnightblue" d="M761.18,-67.48C777.36,-57.75 804.03,-41.73 823.14,-30.24"/>
<polygon fill="midnightblue" stroke="midnightblue" points="825.07,-33.16 831.84,-25.01 821.47,-27.16 825.07,-33.16"/>
</g>
<!-- Node9&#45;&gt;Node12 -->
<g id="edge11" class="edge">
<title>Node9&#45;&gt;Node12</title>
<path fill="none" stroke="midnightblue" d="M723.44,-67.39C700.04,-58.69 663.24,-44.64 632,-31 630.81,-30.48 629.59,-29.94 628.37,-29.38"/>
<polygon fill="midnightblue" stroke="midnightblue" points="629.57,-26.08 619.03,-25.01 626.6,-32.42 629.57,-26.08"/>
</g>
<!-- Node9&#45;&gt;Node13 -->
<g id="edge12" class="edge">
<title>Node9&#45;&gt;Node13</title>
<path fill="none" stroke="midnightblue" d="M721.96,-71C687.62,-63.81 624.23,-49.39 572,-31 570.34,-30.42 568.65,-29.78 566.95,-29.11"/>
<polygon fill="midnightblue" stroke="midnightblue" points="567.95,-25.73 557.38,-25.04 565.21,-32.17 567.95,-25.73"/>
</g>
<!-- Node9&#45;&gt;Node14 -->
<g id="edge13" class="edge">
<title>Node9&#45;&gt;Node14</title>
<path fill="none" stroke="midnightblue" d="M721.93,-72.99C678.1,-67.34 584.96,-53.65 509,-31 506.71,-30.32 504.37,-29.54 502.04,-28.7"/>
<polygon fill="midnightblue" stroke="midnightblue" points="503.22,-25.41 492.63,-25.05 500.69,-31.93 503.22,-25.41"/>
</g>
<!-- Node9&#45;&gt;Node15 -->
<g id="edge14" class="edge">
<title>Node9&#45;&gt;Node15</title>
<path fill="none" stroke="midnightblue" d="M752.01,-67.48C757.16,-58.73 765.31,-44.87 771.82,-33.81"/>
<polygon fill="midnightblue" stroke="midnightblue" points="774.94,-35.4 776.99,-25.01 768.91,-31.85 774.94,-35.4"/>
</g>
<!-- Node9&#45;&gt;Node16 -->
<g id="edge15" class="edge">
<title>Node9&#45;&gt;Node16</title>
<path fill="none" stroke="midnightblue" d="M772.01,-68.7C809.09,-57.89 878.61,-37.61 919.23,-25.77"/>
<polygon fill="midnightblue" stroke="midnightblue" points="920.28,-29.11 928.9,-22.95 918.32,-22.39 920.28,-29.11"/>
</g>
<!-- Node17&#45;&gt;Node10 -->
<g id="edge24" class="edge">
<title>Node17&#45;&gt;Node10</title>
<path fill="none" stroke="midnightblue" d="M630.46,-67.48C640.16,-59.57 654.99,-47.48 667.77,-37.07"/>
<polygon fill="midnightblue" stroke="midnightblue" points="670.26,-39.55 675.8,-30.52 665.83,-34.13 670.26,-39.55"/>
</g>
<!-- Node17&#45;&gt;Node11 -->
<g id="edge25" class="edge">
<title>Node17&#45;&gt;Node11</title>
<path fill="none" stroke="midnightblue" d="M664.28,-67.48C703.12,-59.54 760.89,-46.61 810,-31 812.28,-30.28 814.61,-29.48 816.95,-28.63"/>
<polygon fill="midnightblue" stroke="midnightblue" points="818.3,-31.86 826.39,-25.02 815.8,-25.32 818.3,-31.86"/>
</g>
<!-- Node17&#45;&gt;Node12 -->
<g id="edge26" class="edge">
<title>Node17&#45;&gt;Node12</title>
<path fill="none" stroke="midnightblue" d="M617.42,-67.48C614.85,-58.99 610.83,-45.7 607.54,-34.82"/>
<polygon fill="midnightblue" stroke="midnightblue" points="610.82,-33.57 604.57,-25.01 604.12,-35.59 610.82,-33.57"/>
</g>
<!-- Node17&#45;&gt;Node13 -->
<g id="edge27" class="edge">
<title>Node17&#45;&gt;Node13</title>
<path fill="none" stroke="midnightblue" d="M608.54,-67.48C595.83,-58.02 575.09,-42.6 559.75,-31.19"/>
<polygon fill="midnightblue" stroke="midnightblue" points="561.55,-28.17 551.44,-25.01 557.38,-33.79 561.55,-28.17"/>
</g>
<!-- Node17&#45;&gt;Node14 -->
<g id="edge28" class="edge">
<title>Node17&#45;&gt;Node14</title>
<path fill="none" stroke="midnightblue" d="M598.7,-67.42C576.34,-58.4 540.17,-43.77 509,-31 507.41,-30.35 505.78,-29.68 504.13,-29"/>
<polygon fill="midnightblue" stroke="midnightblue" points="505.3,-25.69 494.72,-25.11 502.62,-32.16 505.3,-25.69"/>
</g>
<!-- Node17&#45;&gt;Node15 -->
<g id="edge29" class="edge">
<title>Node17&#45;&gt;Node15</title>
<path fill="none" stroke="midnightblue" d="M649.76,-67.45C677.24,-59.21 718.98,-45.84 754,-31 755.03,-30.56 756.08,-30.1 757.13,-29.62"/>
<polygon fill="midnightblue" stroke="midnightblue" points="759.05,-32.59 766.51,-25.06 755.98,-26.29 759.05,-32.59"/>
</g>
<!-- Node17&#45;&gt;Node16 -->
<g id="edge30" class="edge">
<title>Node17&#45;&gt;Node16</title>
<path fill="none" stroke="midnightblue" d="M666,-68.63C718.39,-60.11 806.52,-45.41 882,-31 894.06,-28.7 907.26,-25.97 918.86,-23.51"/>
<polygon fill="midnightblue" stroke="midnightblue" points="919.93,-26.86 928.98,-21.34 918.47,-20.02 919.93,-26.86"/>
</g>
<!-- Node18&#45;&gt;Node5 -->
<g id="edge39" class="edge">
<title>Node18&#45;&gt;Node5</title>
<path fill="none" stroke="midnightblue" d="M341.87,-190.48C295.87,-181.38 221.93,-166.77 165,-155.51"/>
<polygon fill="midnightblue" stroke="midnightblue" points="165.43,-152.03 154.94,-153.52 164.07,-158.9 165.43,-152.03"/>
</g>
<!-- Node18&#45;&gt;Node6 -->
<g id="edge40" class="edge">
<title>Node18&#45;&gt;Node6</title>
<path fill="none" stroke="midnightblue" d="M368.81,-190.48C350.1,-180.62 319.08,-164.29 297.2,-152.77"/>
<polygon fill="midnightblue" stroke="midnightblue" points="298.64,-149.57 288.16,-148.01 295.38,-155.77 298.64,-149.57"/>
</g>
<!-- Node18&#45;&gt;Node8 -->
<g id="edge41" class="edge">
<title>Node18&#45;&gt;Node8</title>
<path fill="none" stroke="midnightblue" d="M428.13,-190.48C486.28,-178.98 589.06,-158.66 645.71,-147.46"/>
<polygon fill="midnightblue" stroke="midnightblue" points="646.6,-150.86 655.73,-145.48 645.25,-143.99 646.6,-150.86"/>
</g>
<!-- Node19&#45;&gt;Node5 -->
<g id="edge43" class="edge">
<title>Node19&#45;&gt;Node5</title>
<path fill="none" stroke="midnightblue" d="M173.1,-190.48C158.62,-182.19 136.13,-169.32 117.37,-158.59"/>
<polygon fill="midnightblue" stroke="midnightblue" points="118.93,-155.45 108.51,-153.52 115.45,-161.53 118.93,-155.45"/>
</g>
<!-- Node19&#45;&gt;Node6 -->
<g id="edge44" class="edge">
<title>Node19&#45;&gt;Node6</title>
<path fill="none" stroke="midnightblue" d="M200.04,-190.48C213.51,-180.93 235.57,-165.31 251.72,-153.87"/>
<polygon fill="midnightblue" stroke="midnightblue" points="253.85,-156.65 259.99,-148.01 249.8,-150.93 253.85,-156.65"/>
</g>
<!-- Node19&#45;&gt;Node17 -->
<g id="edge45" class="edge">
<title>Node19&#45;&gt;Node17</title>
<path fill="none" stroke="midnightblue" d="M187.28,-190.34C186.47,-174.33 187.32,-140.16 207,-123 233.34,-100.03 456.48,-86.05 563.36,-80.61"/>
<polygon fill="midnightblue" stroke="midnightblue" points="563.83,-84.09 573.64,-80.1 563.48,-77.1 563.83,-84.09"/>
</g>
</g>
</svg>
