<?xml version="1.0" encoding="UTF-8" standalone="no"?>
<!DOCTYPE svg PUBLIC "-//W3C//DTD SVG 1.1//EN"
 "http://www.w3.org/Graphics/SVG/1.1/DTD/svg11.dtd">
<!-- Generated by graphviz version 2.40.1 (20161225.0304)
 -->
<!-- Title: carla::Buffer::end Pages: 1 -->
<!--zoomable 290 -->
<svg id="main" version="1.1" xmlns="http://www.w3.org/2000/svg" xmlns:xlink="http://www.w3.org/1999/xlink" xml:space="preserve" onload="init(evt)">
<style type="text/css"><![CDATA[
.edge:hover path { stroke: red; }
.edge:hover polygon { stroke: red; fill: red; }
]]></style>
<script type="text/javascript"><![CDATA[
var edges = document.getElementsByTagName('g');
if (edges && edges.length) {
  for (var i=0;i<edges.length;i++) {
    if (edges[i].id.substr(0,4)=='edge') {
      edges[i].setAttribute('class','edge');
    }
  }
}
]]></script>
        <defs>
                <circle id="rim" cx="0" cy="0" r="7"/>
                <circle id="rim2" cx="0" cy="0" r="3.5"/>
                <g id="zoomPlus">
                        <use xlink:href="#rim" fill="#404040">
                                <set attributeName="fill" to="#808080" begin="zoomplus.mouseover" end="zoomplus.mouseout"/>
                        </use>
                        <path d="M-4,0h8M0,-4v8" fill="none" stroke="white" stroke-width="1.5" pointer-events="none"/>
                </g>
                <g id="zoomMin">
                        <use xlink:href="#rim" fill="#404040">
                                <set attributeName="fill" to="#808080" begin="zoomminus.mouseover" end="zoomminus.mouseout"/>
                        </use>
                        <path d="M-4,0h8" fill="none" stroke="white" stroke-width="1.5" pointer-events="none"/>
                </g>
                <g id="dirArrow">
                        <path fill="none" stroke="white" stroke-width="1.5" d="M0,-3.0v7 M-2.5,-0.5L0,-3.0L2.5,-0.5"/>
                </g>
               <g id="resetDef">
                       <use xlink:href="#rim2" fill="#404040">
                               <set attributeName="fill" to="#808080" begin="reset.mouseover" end="reset.mouseout"/>
                       </use>
               </g>
        </defs>

<script type="text/javascript">
var viewWidth = 959;
var viewHeight = 290;
var sectionId = 'dynsection-26';
</script>
<script xlink:href="../../svgpan.js"/>
<svg id="graph" class="graph">
<g id="viewport">
<title>carla::Buffer::end</title>
<polygon fill="#ffffff" stroke="transparent" points="-4,4 -4,-286 955,-286 955,4 -4,4"/>
<!-- Node261 -->
<g id="node1" class="node">
<title>Node261</title>
<polygon fill="#bfbfbf" stroke="#000000" points="0,-167.5 0,-186.5 100,-186.5 100,-167.5 0,-167.5"/>
<text text-anchor="middle" x="50" y="-174.5" font-family="Helvetica,sans-Serif" font-size="10.00" fill="#000000">carla::Buffer::end</text>
</g>
<!-- Node262 -->
<g id="node2" class="node">
<title>Node262</title>
<g id="a_node2"><a xlink:href="../../d3/da0/classcarla_1_1sensor_1_1RawData.html#a436195761ec6eb8a18bc98ba8e9d8725" target="_top" xlink:title="Past&#45;the&#45;end iterator to the data generated by the sensor. ">
<polygon fill="#ffffff" stroke="#000000" points="136,-186.5 136,-205.5 289,-205.5 289,-186.5 136,-186.5"/>
<text text-anchor="middle" x="212.5" y="-193.5" font-family="Helvetica,sans-Serif" font-size="10.00" fill="#000000">carla::sensor::RawData::end</text>
</a>
</g>
</g>
<!-- Node261&#45;&gt;Node262 -->
<g id="edge1" class="edge">
<title>Node261&#45;&gt;Node262</title>
<path fill="none" stroke="#191970" d="M110.1616,-184.0343C118.5794,-185.0185 127.3216,-186.0407 135.9916,-187.0544"/>
<polygon fill="#191970" stroke="#191970" points="110.4201,-180.5407 100.0813,-182.8557 109.6072,-187.4934 110.4201,-180.5407"/>
</g>
<!-- Node273 -->
<g id="node13" class="node">
<title>Node273</title>
<g id="a_node13"><a xlink:href="../../d9/d36/namespacecarla.html#aed73873636da4f0dc2943cf87e24ecb1" target="_top" xlink:title="carla::operator==">
<polygon fill="#ffffff" stroke="#000000" points="160.5,-148.5 160.5,-167.5 264.5,-167.5 264.5,-148.5 160.5,-148.5"/>
<text text-anchor="middle" x="212.5" y="-155.5" font-family="Helvetica,sans-Serif" font-size="10.00" fill="#000000">carla::operator==</text>
</a>
</g>
</g>
<!-- Node261&#45;&gt;Node273 -->
<g id="edge12" class="edge">
<title>Node261&#45;&gt;Node273</title>
<path fill="none" stroke="#191970" d="M110.1525,-169.9668C126.6282,-168.0404 144.3474,-165.9686 160.3356,-164.0992"/>
<polygon fill="#191970" stroke="#191970" points="109.6072,-166.5066 100.0813,-171.1443 110.4201,-173.4593 109.6072,-166.5066"/>
</g>
<!-- Node263 -->
<g id="node3" class="node">
<title>Node263</title>
<g id="a_node3"><a xlink:href="../../d2/dcc/classcarla_1_1sensor_1_1data_1_1Array.html#a035a476f85ca559f56d245b7535aa942" target="_top" xlink:title="carla::sensor::data\l::Array\&lt; data::SemanticLidar\lDetection \&gt;::end">
<polygon fill="#ffffff" stroke="#000000" points="325,-235.5 325,-276.5 483,-276.5 483,-235.5 325,-235.5"/>
<text text-anchor="start" x="333" y="-264.5" font-family="Helvetica,sans-Serif" font-size="10.00" fill="#000000">carla::sensor::data</text>
<text text-anchor="start" x="333" y="-253.5" font-family="Helvetica,sans-Serif" font-size="10.00" fill="#000000">::Array&lt; data::SemanticLidar</text>
<text text-anchor="middle" x="404" y="-242.5" font-family="Helvetica,sans-Serif" font-size="10.00" fill="#000000">Detection &gt;::end</text>
</a>
</g>
</g>
<!-- Node262&#45;&gt;Node263 -->
<g id="edge2" class="edge">
<title>Node262&#45;&gt;Node263</title>
<path fill="none" stroke="#191970" d="M252.6502,-208.5797C277.5027,-216.3664 310.0021,-226.549 338.5119,-235.4816"/>
<polygon fill="#191970" stroke="#191970" points="253.4328,-205.1572 242.8437,-205.5072 251.3399,-211.837 253.4328,-205.1572"/>
</g>
<!-- Node264 -->
<g id="node4" class="node">
<title>Node264</title>
<g id="a_node4"><a xlink:href="../../d2/dcc/classcarla_1_1sensor_1_1data_1_1Array.html#af5600cc6ec3dc8f034ff8d66b9a1b15b" target="_top" xlink:title="carla::sensor::data\l::Array\&lt; data::SemanticLidar\lDetection \&gt;::cend">
<polygon fill="#ffffff" stroke="#000000" points="325,-175.5 325,-216.5 483,-216.5 483,-175.5 325,-175.5"/>
<text text-anchor="start" x="333" y="-204.5" font-family="Helvetica,sans-Serif" font-size="10.00" fill="#000000">carla::sensor::data</text>
<text text-anchor="start" x="333" y="-193.5" font-family="Helvetica,sans-Serif" font-size="10.00" fill="#000000">::Array&lt; data::SemanticLidar</text>
<text text-anchor="middle" x="404" y="-182.5" font-family="Helvetica,sans-Serif" font-size="10.00" fill="#000000">Detection &gt;::cend</text>
</a>
</g>
</g>
<!-- Node262&#45;&gt;Node264 -->
<g id="edge3" class="edge">
<title>Node262&#45;&gt;Node264</title>
<path fill="none" stroke="#191970" d="M299.0237,-196C307.6059,-196 316.288,-196 324.7905,-196"/>
<polygon fill="#191970" stroke="#191970" points="299.0115,-192.5001 289.0115,-196 299.0114,-199.5001 299.0115,-192.5001"/>
</g>
<!-- Node265 -->
<g id="node5" class="node">
<title>Node265</title>
<g id="a_node5"><a xlink:href="../../d3/da0/classcarla_1_1sensor_1_1RawData.html#ae79dc5e8f8cee2257efa411c4490e5ff" target="_top" xlink:title="Size in bytes of the data generated by the sensor. ">
<polygon fill="#ffffff" stroke="#000000" points="339.5,-126 339.5,-156 468.5,-156 468.5,-126 339.5,-126"/>
<text text-anchor="start" x="347.5" y="-144" font-family="Helvetica,sans-Serif" font-size="10.00" fill="#000000">carla::sensor::RawData</text>
<text text-anchor="middle" x="404" y="-133" font-family="Helvetica,sans-Serif" font-size="10.00" fill="#000000">::size</text>
</a>
</g>
</g>
<!-- Node262&#45;&gt;Node265 -->
<g id="edge4" class="edge">
<title>Node262&#45;&gt;Node265</title>
<path fill="none" stroke="#191970" d="M262.5439,-184.0287C271.3826,-181.784 280.4796,-179.3894 289,-177 295.8488,-175.0794 327.8768,-165.0392 356.3982,-156.0487"/>
<polygon fill="#191970" stroke="#191970" points="261.5682,-180.6649 252.7191,-186.491 263.27,-187.4549 261.5682,-180.6649"/>
</g>
<!-- Node266 -->
<g id="node6" class="node">
<title>Node266</title>
<g id="a_node6"><a xlink:href="../../d2/dcc/classcarla_1_1sensor_1_1data_1_1Array.html#a0bbb02616c862c8969d94feac57dc8fd" target="_top" xlink:title="carla::sensor::data\l::Array\&lt; data::SemanticLidar\lDetection \&gt;::Array">
<polygon fill="#ffffff" stroke="#000000" points="533,-240.5 533,-281.5 691,-281.5 691,-240.5 533,-240.5"/>
<text text-anchor="start" x="541" y="-269.5" font-family="Helvetica,sans-Serif" font-size="10.00" fill="#000000">carla::sensor::data</text>
<text text-anchor="start" x="541" y="-258.5" font-family="Helvetica,sans-Serif" font-size="10.00" fill="#000000">::Array&lt; data::SemanticLidar</text>
<text text-anchor="middle" x="612" y="-247.5" font-family="Helvetica,sans-Serif" font-size="10.00" fill="#000000">Detection &gt;::Array</text>
</a>
</g>
</g>
<!-- Node265&#45;&gt;Node266 -->
<g id="edge5" class="edge">
<title>Node265&#45;&gt;Node266</title>
<path fill="none" stroke="#191970" d="M476.5494,-161.3054C478.795,-162.7637 480.9542,-164.3261 483,-166 508.5587,-186.9123 493.4996,-210.0168 519,-231 523.3231,-234.5573 528.077,-237.6959 533.0788,-240.4648"/>
<polygon fill="#191970" stroke="#191970" points="477.9405,-158.0707 467.5155,-156.1812 474.4868,-164.1594 477.9405,-158.0707"/>
</g>
<!-- Node267 -->
<g id="node7" class="node">
<title>Node267</title>
<g id="a_node7"><a xlink:href="../../da/de4/classcarla_1_1sensor_1_1s11n_1_1CollisionEventSerializer.html#a371a9104f135008ece300eaf69f41934" target="_top" xlink:title="carla::sensor::s11n\l::CollisionEventSerializer\l::DeserializeRawData">
<polygon fill="#ffffff" stroke="#000000" points="543,-180.5 543,-221.5 681,-221.5 681,-180.5 543,-180.5"/>
<text text-anchor="start" x="551" y="-209.5" font-family="Helvetica,sans-Serif" font-size="10.00" fill="#000000">carla::sensor::s11n</text>
<text text-anchor="start" x="551" y="-198.5" font-family="Helvetica,sans-Serif" font-size="10.00" fill="#000000">::CollisionEventSerializer</text>
<text text-anchor="middle" x="612" y="-187.5" font-family="Helvetica,sans-Serif" font-size="10.00" fill="#000000">::DeserializeRawData</text>
</a>
</g>
</g>
<!-- Node265&#45;&gt;Node267 -->
<g id="edge6" class="edge">
<title>Node265&#45;&gt;Node267</title>
<path fill="none" stroke="#191970" d="M465.9912,-158.8821C490.1786,-165.8592 518.0099,-173.8875 542.844,-181.0512"/>
<polygon fill="#191970" stroke="#191970" points="466.797,-155.4719 456.2187,-156.0631 464.8569,-162.1976 466.797,-155.4719"/>
</g>
<!-- Node268 -->
<g id="node8" class="node">
<title>Node268</title>
<g id="a_node8"><a xlink:href="../../d0/d49/classcarla_1_1sensor_1_1s11n_1_1GnssSerializer.html#af954d847f754091fb560deab43dd85c4" target="_top" xlink:title="carla::sensor::s11n\l::GnssSerializer::Deserialize\lRawData">
<polygon fill="#ffffff" stroke="#000000" points="535.5,-120.5 535.5,-161.5 688.5,-161.5 688.5,-120.5 535.5,-120.5"/>
<text text-anchor="start" x="543.5" y="-149.5" font-family="Helvetica,sans-Serif" font-size="10.00" fill="#000000">carla::sensor::s11n</text>
<text text-anchor="start" x="543.5" y="-138.5" font-family="Helvetica,sans-Serif" font-size="10.00" fill="#000000">::GnssSerializer::Deserialize</text>
<text text-anchor="middle" x="612" y="-127.5" font-family="Helvetica,sans-Serif" font-size="10.00" fill="#000000">RawData</text>
</a>
</g>
</g>
<!-- Node265&#45;&gt;Node268 -->
<g id="edge7" class="edge">
<title>Node265&#45;&gt;Node268</title>
<path fill="none" stroke="#191970" d="M478.7362,-141C497.1265,-141 516.8459,-141 535.3262,-141"/>
<polygon fill="#191970" stroke="#191970" points="478.6724,-137.5001 468.6723,-141 478.6723,-144.5001 478.6724,-137.5001"/>
</g>
<!-- Node270 -->
<g id="node10" class="node">
<title>Node270</title>
<g id="a_node10"><a xlink:href="../../dc/da1/classcarla_1_1sensor_1_1s11n_1_1IMUSerializer.html#ad393288dca1aba7bb57c55dff16b24b5" target="_top" xlink:title="carla::sensor::s11n\l::IMUSerializer::Deserialize\lRawData">
<polygon fill="#ffffff" stroke="#000000" points="538,-60.5 538,-101.5 686,-101.5 686,-60.5 538,-60.5"/>
<text text-anchor="start" x="546" y="-89.5" font-family="Helvetica,sans-Serif" font-size="10.00" fill="#000000">carla::sensor::s11n</text>
<text text-anchor="start" x="546" y="-78.5" font-family="Helvetica,sans-Serif" font-size="10.00" fill="#000000">::IMUSerializer::Deserialize</text>
<text text-anchor="middle" x="612" y="-67.5" font-family="Helvetica,sans-Serif" font-size="10.00" fill="#000000">RawData</text>
</a>
</g>
</g>
<!-- Node265&#45;&gt;Node270 -->
<g id="edge9" class="edge">
<title>Node265&#45;&gt;Node270</title>
<path fill="none" stroke="#191970" d="M466.0771,-123.0932C489.613,-116.3039 516.5893,-108.5223 540.8938,-101.5114"/>
<polygon fill="#191970" stroke="#191970" points="464.8569,-119.8024 456.2187,-125.9369 466.797,-126.5281 464.8569,-119.8024"/>
</g>
<!-- Node271 -->
<g id="node11" class="node">
<title>Node271</title>
<g id="a_node11"><a xlink:href="../../d9/d82/classcarla_1_1sensor_1_1s11n_1_1ObstacleDetectionEventSerializer.html#aaf400069620524e3367aa7bdb51dc0ee" target="_top" xlink:title="carla::sensor::s11n\l::ObstacleDetectionEventSerializer\l::DeserializeRawData">
<polygon fill="#ffffff" stroke="#000000" points="519,-.5 519,-41.5 705,-41.5 705,-.5 519,-.5"/>
<text text-anchor="start" x="527" y="-29.5" font-family="Helvetica,sans-Serif" font-size="10.00" fill="#000000">carla::sensor::s11n</text>
<text text-anchor="start" x="527" y="-18.5" font-family="Helvetica,sans-Serif" font-size="10.00" fill="#000000">::ObstacleDetectionEventSerializer</text>
<text text-anchor="middle" x="612" y="-7.5" font-family="Helvetica,sans-Serif" font-size="10.00" fill="#000000">::DeserializeRawData</text>
</a>
</g>
</g>
<!-- Node265&#45;&gt;Node271 -->
<g id="edge10" class="edge">
<title>Node265&#45;&gt;Node271</title>
<path fill="none" stroke="#191970" d="M427.0026,-118.9649C449.0683,-98.8557 484.0989,-69.5283 519,-51 525.4433,-47.5794 532.3459,-44.4615 539.3718,-41.6411"/>
<polygon fill="#191970" stroke="#191970" points="424.4485,-116.5597 419.484,-125.9194 429.2017,-121.6985 424.4485,-116.5597"/>
</g>
<!-- Node269 -->
<g id="node9" class="node">
<title>Node269</title>
<g id="a_node9"><a xlink:href="../../d2/ddb/classcarla_1_1sensor_1_1data_1_1GnssMeasurement.html#a6216a0e4b8b495ae05f1b946ef0a5a13" target="_top" xlink:title="carla::sensor::data\l::GnssMeasurement::GnssMeasurement">
<polygon fill="#ffffff" stroke="#000000" points="741,-126 741,-156 951,-156 951,-126 741,-126"/>
<text text-anchor="start" x="749" y="-144" font-family="Helvetica,sans-Serif" font-size="10.00" fill="#000000">carla::sensor::data</text>
<text text-anchor="middle" x="846" y="-133" font-family="Helvetica,sans-Serif" font-size="10.00" fill="#000000">::GnssMeasurement::GnssMeasurement</text>
</a>
</g>
</g>
<!-- Node268&#45;&gt;Node269 -->
<g id="edge8" class="edge">
<title>Node268&#45;&gt;Node269</title>
<path fill="none" stroke="#191970" d="M698.914,-141C712.5413,-141 726.7529,-141 740.7385,-141"/>
<polygon fill="#191970" stroke="#191970" points="698.6204,-137.5001 688.6204,-141 698.6203,-144.5001 698.6204,-137.5001"/>
</g>
<!-- Node272 -->
<g id="node12" class="node">
<title>Node272</title>
<g id="a_node12"><a xlink:href="../../d3/d28/classcarla_1_1sensor_1_1data_1_1ObstacleDetectionEvent.html#adde998de0188eb44d081865d9e2f4257" target="_top" xlink:title="carla::sensor::data\l::ObstacleDetectionEvent\l::ObstacleDetectionEvent">
<polygon fill="#ffffff" stroke="#000000" points="776,-.5 776,-41.5 916,-41.5 916,-.5 776,-.5"/>
<text text-anchor="start" x="784" y="-29.5" font-family="Helvetica,sans-Serif" font-size="10.00" fill="#000000">carla::sensor::data</text>
<text text-anchor="start" x="784" y="-18.5" font-family="Helvetica,sans-Serif" font-size="10.00" fill="#000000">::ObstacleDetectionEvent</text>
<text text-anchor="middle" x="846" y="-7.5" font-family="Helvetica,sans-Serif" font-size="10.00" fill="#000000">::ObstacleDetectionEvent</text>
</a>
</g>
</g>
<!-- Node271&#45;&gt;Node272 -->
<g id="edge11" class="edge">
<title>Node271&#45;&gt;Node272</title>
<path fill="none" stroke="#191970" d="M715.1713,-21C735.6913,-21 756.7868,-21 775.8852,-21"/>
<polygon fill="#191970" stroke="#191970" points="715.1554,-17.5001 705.1554,-21 715.1553,-24.5001 715.1554,-17.5001"/>
</g>
</g>
</svg>
        <g id="navigator" transform="translate(0 0)" fill="#404254">
                <rect fill="#f2f5e9" fill-opacity="0.5" stroke="#606060" stroke-width=".5" x="0" y="0" width="60" height="60"/>
                <use id="zoomplus" xlink:href="#zoomPlus" x="17" y="9" onmousedown="handleZoom(evt,'in')"/>
                <use id="zoomminus" xlink:href="#zoomMin" x="42" y="9" onmousedown="handleZoom(evt,'out')"/>
                <use id="reset" xlink:href="#resetDef" x="30" y="36" onmousedown="handleReset()"/>
                <g id="arrowUp" xlink:href="#dirArrow" transform="translate(30 24)" onmousedown="handlePan(0,-1)">
                  <use xlink:href="#rim" fill="#404040">
                        <set attributeName="fill" to="#808080" begin="arrowUp.mouseover" end="arrowUp.mouseout"/>
                  </use>
                  <path fill="none" stroke="white" stroke-width="1.5" d="M0,-3.0v7 M-2.5,-0.5L0,-3.0L2.5,-0.5"/>
                </g>
                <g id="arrowRight" xlink:href="#dirArrow" transform="rotate(90) translate(36 -43)" onmousedown="handlePan(1,0)">
                  <use xlink:href="#rim" fill="#404040">
                        <set attributeName="fill" to="#808080" begin="arrowRight.mouseover" end="arrowRight.mouseout"/>
                  </use>
                  <path fill="none" stroke="white" stroke-width="1.5" d="M0,-3.0v7 M-2.5,-0.5L0,-3.0L2.5,-0.5"/>
                </g>
                <g id="arrowDown" xlink:href="#dirArrow" transform="rotate(180) translate(-30 -48)" onmousedown="handlePan(0,1)">
                  <use xlink:href="#rim" fill="#404040">
                        <set attributeName="fill" to="#808080" begin="arrowDown.mouseover" end="arrowDown.mouseout"/>
                  </use>
                  <path fill="none" stroke="white" stroke-width="1.5" d="M0,-3.0v7 M-2.5,-0.5L0,-3.0L2.5,-0.5"/>
                </g>
                <g id="arrowLeft" xlink:href="#dirArrow" transform="rotate(270) translate(-36 17)" onmousedown="handlePan(-1,0)">
                  <use xlink:href="#rim" fill="#404040">
                        <set attributeName="fill" to="#808080" begin="arrowLeft.mouseover" end="arrowLeft.mouseout"/>
                  </use>
                  <path fill="none" stroke="white" stroke-width="1.5" d="M0,-3.0v7 M-2.5,-0.5L0,-3.0L2.5,-0.5"/>
                </g>
        </g>
        <svg viewBox="0 0 15 15" width="100%" height="30px" preserveAspectRatio="xMaxYMin meet">
         <g id="arrow_out" transform="scale(0.3 0.3)">
          <a xlink:href="classcarla_1_1Buffer_ad23e8895923c1535a1099100195a3d2b_icgraph_org.svg" target="_base">
           <rect id="button" ry="5" rx="5" y="6" x="6" height="38" width="38"
                fill="#f2f5e9" fill-opacity="0.5" stroke="#606060" stroke-width="1.0"/>
           <path id="arrow"
             d="M 11.500037,31.436501 C 11.940474,20.09759 22.043105,11.32322 32.158766,21.979434 L 37.068811,17.246167 C 37.068811,17.246167 37.088388,32 37.088388,32 L 22.160133,31.978069 C 22.160133,31.978069 26.997745,27.140456 26.997745,27.140456 C 18.528582,18.264221 13.291696,25.230495 11.500037,31.436501 z"
             style="fill:#404040;"/>
          </a>
         </g>
        </svg>
</svg>
