<?xml version="1.0" encoding="UTF-8" standalone="no"?>
<!DOCTYPE svg PUBLIC "-//W3C//DTD SVG 1.1//EN"
 "http://www.w3.org/Graphics/SVG/1.1/DTD/svg11.dtd">
<!-- Generated by graphviz version 2.40.1 (20161225.0304)
 -->
<!-- Title: carla::client::ActorList::end Pages: 1 -->
<svg width="628pt" height="112pt"
 viewBox="0.00 0.00 628.00 112.00" xmlns="http://www.w3.org/2000/svg" xmlns:xlink="http://www.w3.org/1999/xlink">
<g id="graph0" class="graph" transform="scale(1 1) rotate(0) translate(4 108)">
<title>carla::client::ActorList::end</title>
<polygon fill="#ffffff" stroke="transparent" points="-4,4 -4,-108 624,-108 624,4 -4,4"/>
<!-- Node17 -->
<g id="node1" class="node">
<title>Node17</title>
<polygon fill="#bfbfbf" stroke="#000000" points="0,-54 0,-73 146,-73 146,-54 0,-54"/>
<text text-anchor="middle" x="73" y="-61" font-family="Helvetica,sans-Serif" font-size="10.00" fill="#000000">carla::client::ActorList::end</text>
</g>
<!-- Node18 -->
<g id="node2" class="node">
<title>Node18</title>
<g id="a_node2"><a xlink:href="../../da/d51/classcarla_1_1client_1_1ActorList.html#a608978c7b97437a7dd25f5ac32976164" target="_top" xlink:title="carla::client::ActorList\l::MakeIterator">
<polygon fill="#ffffff" stroke="#000000" points="182,-48.5 182,-78.5 304,-78.5 304,-48.5 182,-48.5"/>
<text text-anchor="start" x="190" y="-66.5" font-family="Helvetica,sans-Serif" font-size="10.00" fill="#000000">carla::client::ActorList</text>
<text text-anchor="middle" x="243" y="-55.5" font-family="Helvetica,sans-Serif" font-size="10.00" fill="#000000">::MakeIterator</text>
</a>
</g>
</g>
<!-- Node17&#45;&gt;Node18 -->
<g id="edge1" class="edge">
<title>Node17&#45;&gt;Node18</title>
<path fill="none" stroke="#191970" d="M146.0819,-63.5C154.591,-63.5 163.2628,-63.5 171.7468,-63.5"/>
<polygon fill="#191970" stroke="#191970" points="171.9788,-67.0001 181.9788,-63.5 171.9788,-60.0001 171.9788,-67.0001"/>
</g>
<!-- Node19 -->
<g id="node3" class="node">
<title>Node19</title>
<g id="a_node3"><a xlink:href="../../da/d51/classcarla_1_1client_1_1ActorList.html#a8ba79e7a4bce6e9fb6f57012f85bd0b4" target="_top" xlink:title="Find an actor by id. ">
<polygon fill="#ffffff" stroke="#000000" points="340,-73.5 340,-103.5 462,-103.5 462,-73.5 340,-73.5"/>
<text text-anchor="start" x="348" y="-91.5" font-family="Helvetica,sans-Serif" font-size="10.00" fill="#000000">carla::client::ActorList</text>
<text text-anchor="middle" x="401" y="-80.5" font-family="Helvetica,sans-Serif" font-size="10.00" fill="#000000">::Find</text>
</a>
</g>
</g>
<!-- Node18&#45;&gt;Node19 -->
<g id="edge2" class="edge">
<title>Node18&#45;&gt;Node19</title>
<path fill="none" stroke="#191970" d="M304.0869,-73.1657C312.5129,-74.4989 321.226,-75.8775 329.8146,-77.2365"/>
<polygon fill="#191970" stroke="#191970" points="329.3909,-80.7129 339.815,-78.8188 330.4849,-73.7989 329.3909,-80.7129"/>
</g>
<!-- Node20 -->
<g id="node4" class="node">
<title>Node20</title>
<g id="a_node4"><a xlink:href="../../da/d51/classcarla_1_1client_1_1ActorList.html#a656fb21f40ef20927b4a7194173575af" target="_top" xlink:title="Filters a list of Actor with type id matching wildcard_pattern. ">
<polygon fill="#ffffff" stroke="#000000" points="340,-24.5 340,-54.5 462,-54.5 462,-24.5 340,-24.5"/>
<text text-anchor="start" x="348" y="-42.5" font-family="Helvetica,sans-Serif" font-size="10.00" fill="#000000">carla::client::ActorList</text>
<text text-anchor="middle" x="401" y="-31.5" font-family="Helvetica,sans-Serif" font-size="10.00" fill="#000000">::Filter</text>
</a>
</g>
</g>
<!-- Node18&#45;&gt;Node20 -->
<g id="edge3" class="edge">
<title>Node18&#45;&gt;Node20</title>
<path fill="none" stroke="#191970" d="M304.0869,-54.221C312.5129,-52.9411 321.226,-51.6176 329.8146,-50.313"/>
<polygon fill="#191970" stroke="#191970" points="330.4541,-53.7561 339.815,-48.7939 329.4028,-46.8355 330.4541,-53.7561"/>
</g>
<!-- Node21 -->
<g id="node5" class="node">
<title>Node21</title>
<g id="a_node5"><a xlink:href="../../da/d51/classcarla_1_1client_1_1ActorList.html#aeafd590440d782b4047caa3495801b9d" target="_top" xlink:title="carla::client::ActorList\l::ActorList">
<polygon fill="#ffffff" stroke="#000000" points="498,-49.5 498,-79.5 620,-79.5 620,-49.5 498,-49.5"/>
<text text-anchor="start" x="506" y="-67.5" font-family="Helvetica,sans-Serif" font-size="10.00" fill="#000000">carla::client::ActorList</text>
<text text-anchor="middle" x="559" y="-56.5" font-family="Helvetica,sans-Serif" font-size="10.00" fill="#000000">::ActorList</text>
</a>
</g>
</g>
<!-- Node20&#45;&gt;Node21 -->
<g id="edge4" class="edge">
<title>Node20&#45;&gt;Node21</title>
<path fill="none" stroke="#191970" d="M462.0869,-49.1657C470.5129,-50.4989 479.226,-51.8775 487.8146,-53.2365"/>
<polygon fill="#191970" stroke="#191970" points="487.3909,-56.7129 497.815,-54.8188 488.4849,-49.7989 487.3909,-56.7129"/>
</g>
<!-- Node22 -->
<g id="node6" class="node">
<title>Node22</title>
<g id="a_node6"><a xlink:href="../../de/d93/classcarla_1_1StringUtil.html#a42f81d32011bf4575fa71e593596b1f3" target="_top" xlink:title="Match str with the Unix shell&#45;style wildcard_pattern. ">
<polygon fill="#ffffff" stroke="#000000" points="510,-.5 510,-30.5 608,-30.5 608,-.5 510,-.5"/>
<text text-anchor="start" x="518" y="-18.5" font-family="Helvetica,sans-Serif" font-size="10.00" fill="#000000">carla::StringUtil::</text>
<text text-anchor="middle" x="559" y="-7.5" font-family="Helvetica,sans-Serif" font-size="10.00" fill="#000000">Match</text>
</a>
</g>
</g>
<!-- Node20&#45;&gt;Node22 -->
<g id="edge5" class="edge">
<title>Node20&#45;&gt;Node22</title>
<path fill="none" stroke="#191970" d="M462.0869,-30.221C474.4342,-28.3454 487.3978,-26.3763 499.6831,-24.5102"/>
<polygon fill="#191970" stroke="#191970" points="500.4539,-27.9333 509.8148,-22.9712 499.4026,-21.0127 500.4539,-27.9333"/>
</g>
</g>
</svg>
