<?xml version="1.0" encoding="UTF-8" standalone="no"?>
<!DOCTYPE svg PUBLIC "-//W3C//DTD SVG 1.1//EN"
 "http://www.w3.org/Graphics/SVG/1.1/DTD/svg11.dtd">
<!-- Generated by graphviz version 2.40.1 (20161225.0304)
 -->
<!-- Title: carla::sensor::CompositeSerializer&lt; Items &gt; Pages: 1 -->
<svg width="158pt" height="185pt"
 viewBox="0.00 0.00 158.00 185.00" xmlns="http://www.w3.org/2000/svg" xmlns:xlink="http://www.w3.org/1999/xlink">
<g id="graph0" class="graph" transform="scale(1 1) rotate(0) translate(4 181)">
<title>carla::sensor::CompositeSerializer&lt; Items &gt;</title>
<polygon fill="#ffffff" stroke="transparent" points="-4,4 -4,-181 154,-181 154,4 -4,4"/>
<!-- Node3 -->
<g id="node1" class="node">
<title>Node3</title>
<polygon fill="#bfbfbf" stroke="#000000" points="6.5,-.5 6.5,-30.5 143.5,-30.5 143.5,-.5 6.5,-.5"/>
<text text-anchor="start" x="14.5" y="-18.5" font-family="Helvetica,sans-Serif" font-size="10.00" fill="#000000">carla::sensor::Composite</text>
<text text-anchor="middle" x="75" y="-7.5" font-family="Helvetica,sans-Serif" font-size="10.00" fill="#000000">Serializer&lt; Items &gt;</text>
</g>
<!-- Node4 -->
<g id="node2" class="node">
<title>Node4</title>
<g id="a_node2"><a xlink:href="../../d4/dd4/structcarla_1_1sensor_1_1CompileTimeTypeMap.html" target="_top" xlink:title="carla::sensor::CompileTime\lTypeMap\&lt; Items... \&gt;">
<polygon fill="#ffffff" stroke="#000000" points="0,-68.5 0,-98.5 150,-98.5 150,-68.5 0,-68.5"/>
<text text-anchor="start" x="8" y="-86.5" font-family="Helvetica,sans-Serif" font-size="10.00" fill="#000000">carla::sensor::CompileTime</text>
<text text-anchor="middle" x="75" y="-75.5" font-family="Helvetica,sans-Serif" font-size="10.00" fill="#000000">TypeMap&lt; Items... &gt;</text>
</a>
</g>
</g>
<!-- Node4&#45;&gt;Node3 -->
<g id="edge1" class="edge">
<title>Node4&#45;&gt;Node3</title>
<path fill="none" stroke="#191970" d="M75,-58.1174C75,-48.8378 75,-38.6413 75,-30.5492"/>
<polygon fill="#191970" stroke="#191970" points="71.5001,-58.4086 75,-68.4086 78.5001,-58.4086 71.5001,-58.4086"/>
</g>
<!-- Node5 -->
<g id="node3" class="node">
<title>Node5</title>
<g id="a_node3"><a xlink:href="../../d4/dd4/structcarla_1_1sensor_1_1CompileTimeTypeMap.html" target="_top" xlink:title="A compile time structure for mapping two types. ">
<polygon fill="#ffffff" stroke="#000000" points="0,-146.5 0,-176.5 150,-176.5 150,-146.5 0,-146.5"/>
<text text-anchor="start" x="8" y="-164.5" font-family="Helvetica,sans-Serif" font-size="10.00" fill="#000000">carla::sensor::CompileTime</text>
<text text-anchor="middle" x="75" y="-153.5" font-family="Helvetica,sans-Serif" font-size="10.00" fill="#000000">TypeMap&lt; Items &gt;</text>
</a>
</g>
</g>
<!-- Node5&#45;&gt;Node4 -->
<g id="edge2" class="edge">
<title>Node5&#45;&gt;Node4</title>
<path fill="none" stroke="#ffa500" stroke-dasharray="5,2" d="M75,-136.2875C75,-123.9187 75,-109.4264 75,-98.7592"/>
<polygon fill="#ffa500" stroke="#ffa500" points="71.5001,-136.4608 75,-146.4608 78.5001,-136.4608 71.5001,-136.4608"/>
<text text-anchor="middle" x="106.5" y="-120" font-family="Helvetica,sans-Serif" font-size="10.00" fill="#000000"> &lt; Items... &gt;</text>
</g>
</g>
</svg>
