<?xml version="1.0" encoding="UTF-8" standalone="no"?>
<!DOCTYPE svg PUBLIC "-//W3C//DTD SVG 1.1//EN"
 "http://www.w3.org/Graphics/SVG/1.1/DTD/svg11.dtd">
<!-- Generated by graphviz version 2.38.0 (20140413.2041)
 -->
<!-- Title: MapGen::DoublyConnectedEdgeList::HalfEdge Pages: 1 -->
<!--zoomable 295 -->
<svg id="main" version="1.1" xmlns="http://www.w3.org/2000/svg" xmlns:xlink="http://www.w3.org/1999/xlink" xml:space="preserve" onload="init(evt)">
<style type="text/css"><![CDATA[
.edge:hover path { stroke: red; }
.edge:hover polygon { stroke: red; fill: red; }
]]></style>
<script type="text/javascript"><![CDATA[
var edges = document.getElementsByTagName('g');
if (edges && edges.length) {
  for (var i=0;i<edges.length;i++) {
    if (edges[i].id.substr(0,4)=='edge') {
      edges[i].setAttribute('class','edge');
    }
  }
}
]]></script>
        <defs>
                <circle id="rim" cx="0" cy="0" r="7"/>
                <circle id="rim2" cx="0" cy="0" r="3.5"/>
                <g id="zoomPlus">
                        <use xlink:href="#rim" fill="#404040">
                                <set attributeName="fill" to="#808080" begin="zoomplus.mouseover" end="zoomplus.mouseout"/>
                        </use>
                        <path d="M-4,0h8M0,-4v8" fill="none" stroke="white" stroke-width="1.5" pointer-events="none"/>
                </g>
                <g id="zoomMin">
                        <use xlink:href="#rim" fill="#404040">
                                <set attributeName="fill" to="#808080" begin="zoomminus.mouseover" end="zoomminus.mouseout"/>
                        </use>
                        <path d="M-4,0h8" fill="none" stroke="white" stroke-width="1.5" pointer-events="none"/>
                </g>
                <g id="dirArrow">
                        <path fill="none" stroke="white" stroke-width="1.5" d="M0,-3.0v7 M-2.5,-0.5L0,-3.0L2.5,-0.5"/>
                </g>
               <g id="resetDef">
                       <use xlink:href="#rim2" fill="#404040">
                               <set attributeName="fill" to="#808080" begin="reset.mouseover" end="reset.mouseout"/>
                       </use>
               </g>
        </defs>

<script type="text/javascript">
var viewWidth = 791;
var viewHeight = 295;
var sectionId = 'dynsection-1';
</script>
<script xlink:href="../../svgpan.js"/>
<svg id="graph" class="graph">
<g id="viewport">
<title>MapGen::DoublyConnectedEdgeList::HalfEdge</title>
<polygon fill="white" stroke="none" points="-4,4 -4,-291 787,-291 787,4 -4,4"/>
<!-- Node1 -->
<g id="node1" class="node"><title>Node1</title>
<polygon fill="#bfbfbf" stroke="black" points="349,-135 349,-165 509,-165 509,-135 349,-135"/>
<text text-anchor="start" x="357" y="-153" font-family="Helvetica,sans-Serif" font-size="10.00">MapGen::DoublyConnectedEdge</text>
<text text-anchor="middle" x="429" y="-142" font-family="Helvetica,sans-Serif" font-size="10.00">List::HalfEdge</text>
</g>
<!-- Node1&#45;&gt;Node1 -->
<g id="edge6" class="edge"><title>Node1&#45;&gt;Node1</title>
<path fill="none" stroke="#9a32cd" stroke-dasharray="5,2" d="M404.834,-175.458C407.834,-180.179 415.889,-183.5 429,-183.5 450.516,-183.5 458.416,-174.557 452.701,-165.159"/>
<polygon fill="#9a32cd" stroke="#9a32cd" points="408.345,-175.307 405.299,-165.159 401.352,-174.991 408.345,-175.307"/>
<text text-anchor="middle" x="429" y="-197.5" font-family="Helvetica,sans-Serif" font-size="10.00"> Next</text>
<text text-anchor="middle" x="429" y="-186.5" font-family="Helvetica,sans-Serif" font-size="10.00">Pair</text>
</g>
<!-- Node3 -->
<g id="node3" class="node"><title>Node3</title>
<g id="a_node3"><a xlink:href="../../dd/d77/structMapGen_1_1DoublyConnectedEdgeList_1_1Face.html" target="_top" xlink:title="MapGen::DoublyConnectedEdge\lList::Face">
<polygon fill="white" stroke="black" points="623,-227 623,-257 783,-257 783,-227 623,-227"/>
<text text-anchor="start" x="631" y="-245" font-family="Helvetica,sans-Serif" font-size="10.00">MapGen::DoublyConnectedEdge</text>
<text text-anchor="middle" x="703" y="-234" font-family="Helvetica,sans-Serif" font-size="10.00">List::Face</text>
</a>
</g>
</g>
<!-- Node1&#45;&gt;Node3 -->
<g id="edge4" class="edge"><title>Node1&#45;&gt;Node3</title>
<path fill="none" stroke="#9a32cd" stroke-dasharray="5,2" d="M459.236,-170.675C477.842,-182.927 502.894,-197.807 527,-207 544.659,-213.735 585.232,-221.999 622.868,-228.806"/>
<polygon fill="#9a32cd" stroke="#9a32cd" points="461.164,-167.754 450.911,-165.085 457.262,-173.565 461.164,-167.754"/>
<text text-anchor="middle" x="566" y="-229" font-family="Helvetica,sans-Serif" font-size="10.00"> HalfEdge</text>
</g>
<!-- Node6 -->
<g id="node6" class="node"><title>Node6</title>
<g id="a_node6"><a xlink:href="../../de/d6b/structMapGen_1_1DoublyConnectedEdgeList_1_1Node.html" target="_top" xlink:title="MapGen::DoublyConnectedEdge\lList::Node">
<polygon fill="white" stroke="black" points="623,-68 623,-98 783,-98 783,-68 623,-68"/>
<text text-anchor="start" x="631" y="-86" font-family="Helvetica,sans-Serif" font-size="10.00">MapGen::DoublyConnectedEdge</text>
<text text-anchor="middle" x="703" y="-75" font-family="Helvetica,sans-Serif" font-size="10.00">List::Node</text>
</a>
</g>
</g>
<!-- Node1&#45;&gt;Node6 -->
<g id="edge13" class="edge"><title>Node1&#45;&gt;Node6</title>
<path fill="none" stroke="#9a32cd" stroke-dasharray="5,2" d="M476.833,-131.333C492.595,-125.527 510.396,-119.481 527,-115 558.012,-106.631 592.708,-99.7811 622.978,-94.5965"/>
<polygon fill="#9a32cd" stroke="#9a32cd" points="475.447,-128.114 467.311,-134.901 477.903,-134.669 475.447,-128.114"/>
<text text-anchor="middle" x="566" y="-118" font-family="Helvetica,sans-Serif" font-size="10.00"> LeavingHalfEdge</text>
</g>
<!-- Node2 -->
<g id="node2" class="node"><title>Node2</title>
<g id="a_node2"><a xlink:href="../../df/d52/classGraphHalfEdge.html" target="_top" xlink:title="GraphHalfEdge">
<polygon fill="white" stroke="black" points="92,-76.5 92,-95.5 175,-95.5 175,-76.5 92,-76.5"/>
<text text-anchor="middle" x="133.5" y="-83.5" font-family="Helvetica,sans-Serif" font-size="10.00">GraphHalfEdge</text>
</a>
</g>
</g>
<!-- Node2&#45;&gt;Node1 -->
<g id="edge1" class="edge"><title>Node2&#45;&gt;Node1</title>
<path fill="none" stroke="midnightblue" d="M184.87,-96.9836C232.952,-107.468 305.781,-123.349 359.197,-134.997"/>
<polygon fill="midnightblue" stroke="midnightblue" points="185.518,-93.5427 175.002,-94.8317 184.026,-100.382 185.518,-93.5427"/>
</g>
<!-- Node3&#45;&gt;Node1 -->
<g id="edge2" class="edge"><title>Node3&#45;&gt;Node1</title>
<path fill="none" stroke="#9a32cd" stroke-dasharray="5,2" d="M664.345,-222.138C646.66,-213.334 625.091,-203.332 605,-196 570.768,-183.507 531.628,-172.891 499.055,-165.016"/>
<polygon fill="#9a32cd" stroke="#9a32cd" points="663.233,-225.497 673.737,-226.882 666.389,-219.249 663.233,-225.497"/>
<text text-anchor="middle" x="566" y="-199" font-family="Helvetica,sans-Serif" font-size="10.00"> Face</text>
</g>
<!-- Node4 -->
<g id="node4" class="node"><title>Node4</title>
<g id="a_node4"><a xlink:href="../../d5/d1a/classGraphFace.html" target="_top" xlink:title="GraphFace">
<polygon fill="white" stroke="black" points="396.5,-234.5 396.5,-253.5 461.5,-253.5 461.5,-234.5 396.5,-234.5"/>
<text text-anchor="middle" x="429" y="-241.5" font-family="Helvetica,sans-Serif" font-size="10.00">GraphFace</text>
</a>
</g>
</g>
<!-- Node4&#45;&gt;Node3 -->
<g id="edge3" class="edge"><title>Node4&#45;&gt;Node3</title>
<path fill="none" stroke="midnightblue" d="M471.951,-243.692C512.061,-243.397 573.559,-242.944 622.881,-242.582"/>
<polygon fill="midnightblue" stroke="midnightblue" points="471.708,-240.193 461.734,-243.767 471.76,-247.193 471.708,-240.193"/>
</g>
<!-- Node5 -->
<g id="node5" class="node"><title>Node5</title>
<polygon fill="white" stroke="#bfbfbf" points="113,-140.5 113,-159.5 154,-159.5 154,-140.5 113,-140.5"/>
<text text-anchor="middle" x="133.5" y="-147.5" font-family="Helvetica,sans-Serif" font-size="10.00">friend</text>
</g>
<!-- Node5&#45;&gt;Node1 -->
<g id="edge15" class="edge"><title>Node5&#45;&gt;Node1</title>
<path fill="none" stroke="#9a32cd" stroke-dasharray="5,2" d="M164.271,-150C207.18,-150 287.934,-150 348.828,-150"/>
<polygon fill="#9a32cd" stroke="#9a32cd" points="164.213,-146.5 154.213,-150 164.213,-153.5 164.213,-146.5"/>
<text text-anchor="middle" x="271" y="-153" font-family="Helvetica,sans-Serif" font-size="10.00"> DoublyConnectedEdgeList</text>
</g>
<!-- Node5&#45;&gt;Node3 -->
<g id="edge5" class="edge"><title>Node5&#45;&gt;Node3</title>
<path fill="none" stroke="#9a32cd" stroke-dasharray="5,2" d="M155.566,-165.636C192.457,-191.932 272.157,-243.997 349,-263 447.932,-287.465 566.988,-271.372 638.472,-257.033"/>
<polygon fill="#9a32cd" stroke="#9a32cd" points="157.292,-162.565 147.138,-159.541 153.191,-168.237 157.292,-162.565"/>
<text text-anchor="middle" x="429" y="-279" font-family="Helvetica,sans-Serif" font-size="10.00"> DoublyConnectedEdgeList</text>
</g>
<!-- Node5&#45;&gt;Node6 -->
<g id="edge14" class="edge"><title>Node5&#45;&gt;Node6</title>
<path fill="none" stroke="#9a32cd" stroke-dasharray="5,2" d="M164.182,-144.332C205.488,-136.601 282.703,-122.718 349,-114 427.793,-103.639 447.833,-103.947 527,-97 558.273,-94.2559 592.71,-91.4536 622.703,-89.0841"/>
<polygon fill="#9a32cd" stroke="#9a32cd" points="163.423,-140.913 154.243,-146.203 164.718,-147.792 163.423,-140.913"/>
<text text-anchor="middle" x="429" y="-117" font-family="Helvetica,sans-Serif" font-size="10.00"> DoublyConnectedEdgeList</text>
</g>
<!-- Node6&#45;&gt;Node1 -->
<g id="edge7" class="edge"><title>Node6&#45;&gt;Node1</title>
<path fill="none" stroke="#9a32cd" stroke-dasharray="5,2" d="M666.349,-102.775C648.447,-111.856 626.12,-121.933 605,-128 574.245,-136.834 539.438,-142.122 509.012,-145.287"/>
<polygon fill="#9a32cd" stroke="#9a32cd" points="668.013,-105.854 675.278,-98.1426 664.79,-99.6408 668.013,-105.854"/>
<text text-anchor="middle" x="566" y="-157" font-family="Helvetica,sans-Serif" font-size="10.00"> Target</text>
<text text-anchor="middle" x="566" y="-146" font-family="Helvetica,sans-Serif" font-size="10.00">Source</text>
</g>
<!-- Node7 -->
<g id="node7" class="node"><title>Node7</title>
<g id="a_node7"><a xlink:href="../../d9/d82/classGraphNode.html" target="_top" xlink:title="GraphNode">
<polygon fill="white" stroke="black" points="396,-3.5 396,-22.5 462,-22.5 462,-3.5 396,-3.5"/>
<text text-anchor="middle" x="429" y="-10.5" font-family="Helvetica,sans-Serif" font-size="10.00">GraphNode</text>
</a>
</g>
</g>
<!-- Node7&#45;&gt;Node6 -->
<g id="edge8" class="edge"><title>Node7&#45;&gt;Node6</title>
<path fill="none" stroke="midnightblue" d="M472.337,-19.648C508.039,-25.6864 560.315,-35.5444 605,-48 624.832,-53.5281 646.421,-61.1525 664.186,-67.8742"/>
<polygon fill="midnightblue" stroke="midnightblue" points="472.71,-16.1622 462.271,-17.9727 471.561,-23.0672 472.71,-16.1622"/>
</g>
<!-- Node8 -->
<g id="node8" class="node"><title>Node8</title>
<g id="a_node8"><a xlink:href="../../d0/dd4/classMapGen_1_1Position.html" target="_top" xlink:title="MapGen::Position\&lt; int32 \&gt;">
<polygon fill="white" stroke="black" points="362,-41.5 362,-60.5 496,-60.5 496,-41.5 362,-41.5"/>
<text text-anchor="middle" x="429" y="-48.5" font-family="Helvetica,sans-Serif" font-size="10.00">MapGen::Position&lt; int32 &gt;</text>
</a>
</g>
</g>
<!-- Node8&#45;&gt;Node6 -->
<g id="edge9" class="edge"><title>Node8&#45;&gt;Node6</title>
<path fill="none" stroke="#9a32cd" stroke-dasharray="5,2" d="M506.591,-50.5507C537.318,-51.2833 572.973,-53.2869 605,-58 620.485,-60.2787 637.071,-64.0451 652.07,-67.9715"/>
<polygon fill="#9a32cd" stroke="#9a32cd" points="506.439,-47.0471 496.372,-50.3489 506.301,-54.0457 506.439,-47.0471"/>
<text text-anchor="middle" x="566" y="-61" font-family="Helvetica,sans-Serif" font-size="10.00"> Position</text>
</g>
<!-- Node9 -->
<g id="node9" class="node"><title>Node9</title>
<polygon fill="white" stroke="#bfbfbf" points="114.5,-38.5 114.5,-57.5 152.5,-57.5 152.5,-38.5 114.5,-38.5"/>
<text text-anchor="middle" x="133.5" y="-45.5" font-family="Helvetica,sans-Serif" font-size="10.00">int32</text>
</g>
<!-- Node9&#45;&gt;Node8 -->
<g id="edge10" class="edge"><title>Node9&#45;&gt;Node8</title>
<path fill="none" stroke="#9a32cd" stroke-dasharray="5,2" d="M163.004,-48.0064C201.235,-48.0467 271.234,-48.2318 331,-49 341.021,-49.1288 351.624,-49.3058 361.997,-49.5016"/>
<polygon fill="#9a32cd" stroke="#9a32cd" points="162.655,-44.5062 152.652,-47.9983 162.649,-51.5062 162.655,-44.5062"/>
<text text-anchor="middle" x="271" y="-63" font-family="Helvetica,sans-Serif" font-size="10.00"> x</text>
<text text-anchor="middle" x="271" y="-52" font-family="Helvetica,sans-Serif" font-size="10.00">y</text>
</g>
<!-- Node10 -->
<g id="node10" class="node"><title>Node10</title>
<g id="a_node10"><a xlink:href="../../d0/dd4/classMapGen_1_1Position.html" target="_top" xlink:title="MapGen::Position\&lt; T \&gt;">
<polygon fill="white" stroke="black" points="74,-0.5 74,-19.5 193,-19.5 193,-0.5 74,-0.5"/>
<text text-anchor="middle" x="133.5" y="-7.5" font-family="Helvetica,sans-Serif" font-size="10.00">MapGen::Position&lt; T &gt;</text>
</a>
</g>
</g>
<!-- Node10&#45;&gt;Node8 -->
<g id="edge11" class="edge"><title>Node10&#45;&gt;Node8</title>
<path fill="none" stroke="orange" stroke-dasharray="5,2" d="M203.447,-17.5334C241.187,-21.8802 288.74,-27.7204 331,-34 345.797,-36.1988 361.811,-38.8806 376.482,-41.4582"/>
<polygon fill="orange" stroke="orange" points="203.408,-14.0063 193.075,-16.3479 202.613,-20.961 203.408,-14.0063"/>
<text text-anchor="middle" x="271" y="-37" font-family="Helvetica,sans-Serif" font-size="10.00"> &lt; int32 &gt;</text>
</g>
<!-- Node11 -->
<g id="node11" class="node"><title>Node11</title>
<polygon fill="white" stroke="#bfbfbf" points="0,-0.5 0,-19.5 29,-19.5 29,-0.5 0,-0.5"/>
<text text-anchor="middle" x="14.5" y="-7.5" font-family="Helvetica,sans-Serif" font-size="10.00">T</text>
</g>
<!-- Node11&#45;&gt;Node10 -->
<g id="edge12" class="edge"><title>Node11&#45;&gt;Node10</title>
<path fill="none" stroke="#9a32cd" stroke-dasharray="5,2" d="M39.6624,-10C49.6423,-10 61.686,-10 73.7443,-10"/>
<polygon fill="#9a32cd" stroke="#9a32cd" points="39.3809,-6.5001 29.3809,-10 39.3809,-13.5001 39.3809,-6.5001"/>
<text text-anchor="middle" x="51.5" y="-24" font-family="Helvetica,sans-Serif" font-size="10.00"> x</text>
<text text-anchor="middle" x="51.5" y="-13" font-family="Helvetica,sans-Serif" font-size="10.00">y</text>
</g>
</g>
</svg>
        <g id="navigator" transform="translate(0 0)" fill="#404254">
                <rect fill="#f2f5e9" fill-opacity="0.5" stroke="#606060" stroke-width=".5" x="0" y="0" width="60" height="60"/>
                <use id="zoomplus" xlink:href="#zoomPlus" x="17" y="9" onmousedown="handleZoom(evt,'in')"/>
                <use id="zoomminus" xlink:href="#zoomMin" x="42" y="9" onmousedown="handleZoom(evt,'out')"/>
                <use id="reset" xlink:href="#resetDef" x="30" y="36" onmousedown="handleReset()"/>
                <g id="arrowUp" xlink:href="#dirArrow" transform="translate(30 24)" onmousedown="handlePan(0,-1)">
                  <use xlink:href="#rim" fill="#404040">
                        <set attributeName="fill" to="#808080" begin="arrowUp.mouseover" end="arrowUp.mouseout"/>
                  </use>
                  <path fill="none" stroke="white" stroke-width="1.5" d="M0,-3.0v7 M-2.5,-0.5L0,-3.0L2.5,-0.5"/>
                </g>
                <g id="arrowRight" xlink:href="#dirArrow" transform="rotate(90) translate(36 -43)" onmousedown="handlePan(1,0)">
                  <use xlink:href="#rim" fill="#404040">
                        <set attributeName="fill" to="#808080" begin="arrowRight.mouseover" end="arrowRight.mouseout"/>
                  </use>
                  <path fill="none" stroke="white" stroke-width="1.5" d="M0,-3.0v7 M-2.5,-0.5L0,-3.0L2.5,-0.5"/>
                </g>
                <g id="arrowDown" xlink:href="#dirArrow" transform="rotate(180) translate(-30 -48)" onmousedown="handlePan(0,1)">
                  <use xlink:href="#rim" fill="#404040">
                        <set attributeName="fill" to="#808080" begin="arrowDown.mouseover" end="arrowDown.mouseout"/>
                  </use>
                  <path fill="none" stroke="white" stroke-width="1.5" d="M0,-3.0v7 M-2.5,-0.5L0,-3.0L2.5,-0.5"/>
                </g>
                <g id="arrowLeft" xlink:href="#dirArrow" transform="rotate(270) translate(-36 17)" onmousedown="handlePan(-1,0)">
                  <use xlink:href="#rim" fill="#404040">
                        <set attributeName="fill" to="#808080" begin="arrowLeft.mouseover" end="arrowLeft.mouseout"/>
                  </use>
                  <path fill="none" stroke="white" stroke-width="1.5" d="M0,-3.0v7 M-2.5,-0.5L0,-3.0L2.5,-0.5"/>
                </g>
        </g>
        <svg viewBox="0 0 15 15" width="100%" height="30px" preserveAspectRatio="xMaxYMin meet">
         <g id="arrow_out" transform="scale(0.3 0.3)">
          <a xlink:href="structMapGen_1_1DoublyConnectedEdgeList_1_1HalfEdge__coll__graph_org.svg" target="_base">
           <rect id="button" ry="5" rx="5" y="6" x="6" height="38" width="38"
                fill="#f2f5e9" fill-opacity="0.5" stroke="#606060" stroke-width="1.0"/>
           <path id="arrow"
             d="M 11.500037,31.436501 C 11.940474,20.09759 22.043105,11.32322 32.158766,21.979434 L 37.068811,17.246167 C 37.068811,17.246167 37.088388,32 37.088388,32 L 22.160133,31.978069 C 22.160133,31.978069 26.997745,27.140456 26.997745,27.140456 C 18.528582,18.264221 13.291696,25.230495 11.500037,31.436501 z"
             style="fill:#404040;"/>
          </a>
         </g>
        </svg>
</svg>
