<?xml version="1.0" encoding="UTF-8" standalone="no"?>
<!DOCTYPE svg PUBLIC "-//W3C//DTD SVG 1.1//EN"
 "http://www.w3.org/Graphics/SVG/1.1/DTD/svg11.dtd">
<!-- Generated by graphviz version 2.40.1 (20161225.0304)
 -->
<!-- Title: carla::traffic_manager::TrafficManager::RegisterVehicles Pages: 1 -->
<svg width="355pt" height="100pt"
 viewBox="0.00 0.00 355.00 99.50" xmlns="http://www.w3.org/2000/svg" xmlns:xlink="http://www.w3.org/1999/xlink">
<g id="graph0" class="graph" transform="scale(1 1) rotate(0) translate(4 95.5)">
<title>carla::traffic_manager::TrafficManager::RegisterVehicles</title>
<polygon fill="#ffffff" stroke="transparent" points="-4,4 -4,-95.5 351,-95.5 351,4 -4,4"/>
<!-- Node65 -->
<g id="node1" class="node">
<title>Node65</title>
<polygon fill="#bfbfbf" stroke="#000000" points="0,-33 0,-63 180,-63 180,-33 0,-33"/>
<text text-anchor="start" x="8" y="-51" font-family="Helvetica,sans-Serif" font-size="10.00" fill="#000000">carla::traffic_manager</text>
<text text-anchor="middle" x="90" y="-40" font-family="Helvetica,sans-Serif" font-size="10.00" fill="#000000">::TrafficManager::RegisterVehicles</text>
</g>
<!-- Node66 -->
<g id="node2" class="node">
<title>Node66</title>
<g id="a_node2"><a xlink:href="../../df/d5a/classcarla_1_1traffic__manager_1_1TrafficManager.html#a854df2d8d80c913c3031dea382d18b4d" target="_top" xlink:title="carla::traffic_manager\l::TrafficManager::GetTM">
<polygon fill="#ffffff" stroke="#000000" points="216,-61 216,-91 347,-91 347,-61 216,-61"/>
<text text-anchor="start" x="224" y="-79" font-family="Helvetica,sans-Serif" font-size="10.00" fill="#000000">carla::traffic_manager</text>
<text text-anchor="middle" x="281.5" y="-68" font-family="Helvetica,sans-Serif" font-size="10.00" fill="#000000">::TrafficManager::GetTM</text>
</a>
</g>
</g>
<!-- Node65&#45;&gt;Node66 -->
<g id="edge1" class="edge">
<title>Node65&#45;&gt;Node66</title>
<path fill="none" stroke="#191970" d="M180.1425,-61.1801C188.6946,-62.4305 197.3065,-63.6897 205.7041,-64.9176"/>
<polygon fill="#191970" stroke="#191970" points="205.4214,-68.4134 215.8226,-66.397 206.4342,-61.487 205.4214,-68.4134"/>
</g>
<!-- Node67 -->
<g id="node3" class="node">
<title>Node67</title>
<g id="a_node3"><a xlink:href="../../dc/d92/classcarla_1_1traffic__manager_1_1TrafficManagerBase.html#a4e6696dfe8fab9c35470583673ac0243" target="_top" xlink:title="This method registers a vehicle with the traffic manager. ">
<polygon fill="#ffffff" stroke="#000000" points="219.5,-.5 219.5,-41.5 343.5,-41.5 343.5,-.5 219.5,-.5"/>
<text text-anchor="start" x="227.5" y="-29.5" font-family="Helvetica,sans-Serif" font-size="10.00" fill="#000000">carla::traffic_manager</text>
<text text-anchor="start" x="227.5" y="-18.5" font-family="Helvetica,sans-Serif" font-size="10.00" fill="#000000">::TrafficManagerBase::</text>
<text text-anchor="middle" x="281.5" y="-7.5" font-family="Helvetica,sans-Serif" font-size="10.00" fill="#000000">RegisterVehicles</text>
</a>
</g>
</g>
<!-- Node65&#45;&gt;Node67 -->
<g id="edge2" class="edge">
<title>Node65&#45;&gt;Node67</title>
<path fill="none" stroke="#191970" d="M180.1425,-35.2906C189.9026,-33.9145 199.7407,-32.5274 209.2493,-31.1868"/>
<polygon fill="#191970" stroke="#191970" points="210.005,-34.6149 219.4184,-29.753 209.0277,-27.6835 210.005,-34.6149"/>
</g>
</g>
</svg>
