<?xml version="1.0" encoding="UTF-8" standalone="no"?>
<!DOCTYPE svg PUBLIC "-//W3C//DTD SVG 1.1//EN"
 "http://www.w3.org/Graphics/SVG/1.1/DTD/svg11.dtd">
<!-- Generated by graphviz version 2.40.1 (20161225.0304)
 -->
<!-- Title: carla::traffic_manager::TrafficManager::RemoveImportedRoute Pages: 1 -->
<svg width="387pt" height="100pt"
 viewBox="0.00 0.00 387.00 99.50" xmlns="http://www.w3.org/2000/svg" xmlns:xlink="http://www.w3.org/1999/xlink">
<g id="graph0" class="graph" transform="scale(1 1) rotate(0) translate(4 95.5)">
<title>carla::traffic_manager::TrafficManager::RemoveImportedRoute</title>
<polygon fill="#ffffff" stroke="transparent" points="-4,4 -4,-95.5 383,-95.5 383,4 -4,4"/>
<!-- Node102 -->
<g id="node1" class="node">
<title>Node102</title>
<polygon fill="#bfbfbf" stroke="#000000" points="0,-33 0,-63 212,-63 212,-33 0,-33"/>
<text text-anchor="start" x="8" y="-51" font-family="Helvetica,sans-Serif" font-size="10.00" fill="#000000">carla::traffic_manager</text>
<text text-anchor="middle" x="106" y="-40" font-family="Helvetica,sans-Serif" font-size="10.00" fill="#000000">::TrafficManager::RemoveImportedRoute</text>
</g>
<!-- Node103 -->
<g id="node2" class="node">
<title>Node103</title>
<g id="a_node2"><a xlink:href="../../df/d5a/classcarla_1_1traffic__manager_1_1TrafficManager.html#a854df2d8d80c913c3031dea382d18b4d" target="_top" xlink:title="carla::traffic_manager\l::TrafficManager::GetTM">
<polygon fill="#ffffff" stroke="#000000" points="248,-61 248,-91 379,-91 379,-61 248,-61"/>
<text text-anchor="start" x="256" y="-79" font-family="Helvetica,sans-Serif" font-size="10.00" fill="#000000">carla::traffic_manager</text>
<text text-anchor="middle" x="313.5" y="-68" font-family="Helvetica,sans-Serif" font-size="10.00" fill="#000000">::TrafficManager::GetTM</text>
</a>
</g>
</g>
<!-- Node102&#45;&gt;Node103 -->
<g id="edge1" class="edge">
<title>Node102&#45;&gt;Node103</title>
<path fill="none" stroke="#191970" d="M212.1814,-62.3281C220.8298,-63.4951 229.4556,-64.6591 237.8184,-65.7875"/>
<polygon fill="#191970" stroke="#191970" points="237.4942,-69.2754 247.8724,-67.1442 238.4303,-62.3383 237.4942,-69.2754"/>
</g>
<!-- Node104 -->
<g id="node3" class="node">
<title>Node104</title>
<g id="a_node3"><a xlink:href="../../dc/d92/classcarla_1_1traffic__manager_1_1TrafficManagerBase.html#a9f20907bcd1a3805e35070b8d3242a38" target="_top" xlink:title="Method to remove a route. ">
<polygon fill="#ffffff" stroke="#000000" points="249.5,-.5 249.5,-41.5 377.5,-41.5 377.5,-.5 249.5,-.5"/>
<text text-anchor="start" x="257.5" y="-29.5" font-family="Helvetica,sans-Serif" font-size="10.00" fill="#000000">carla::traffic_manager</text>
<text text-anchor="start" x="257.5" y="-18.5" font-family="Helvetica,sans-Serif" font-size="10.00" fill="#000000">::TrafficManagerBase::</text>
<text text-anchor="middle" x="313.5" y="-7.5" font-family="Helvetica,sans-Serif" font-size="10.00" fill="#000000">RemoveImportedRoute</text>
</a>
</g>
</g>
<!-- Node102&#45;&gt;Node104 -->
<g id="edge2" class="edge">
<title>Node102&#45;&gt;Node104</title>
<path fill="none" stroke="#191970" d="M212.1814,-34.1836C221.2832,-32.9993 230.36,-31.8182 239.1314,-30.6769"/>
<polygon fill="#191970" stroke="#191970" points="239.8064,-34.1186 249.2712,-29.3575 238.9031,-27.1772 239.8064,-34.1186"/>
</g>
</g>
</svg>
