<?xml version="1.0" encoding="UTF-8" standalone="no"?>
<!DOCTYPE svg PUBLIC "-//W3C//DTD SVG 1.1//EN"
 "http://www.w3.org/Graphics/SVG/1.1/DTD/svg11.dtd">
<!-- Generated by graphviz version 2.38.0 (20140413.2041)
 -->
<!-- Title: GnssSerializer.h Pages: 1 -->
<!--zoomable 655 -->
<svg id="main" version="1.1" xmlns="http://www.w3.org/2000/svg" xmlns:xlink="http://www.w3.org/1999/xlink" xml:space="preserve" onload="init(evt)">
<style type="text/css"><![CDATA[
.edge:hover path { stroke: red; }
.edge:hover polygon { stroke: red; fill: red; }
]]></style>
<script type="text/javascript"><![CDATA[
var edges = document.getElementsByTagName('g');
if (edges && edges.length) {
  for (var i=0;i<edges.length;i++) {
    if (edges[i].id.substr(0,4)=='edge') {
      edges[i].setAttribute('class','edge');
    }
  }
}
]]></script>
        <defs>
                <circle id="rim" cx="0" cy="0" r="7"/>
                <circle id="rim2" cx="0" cy="0" r="3.5"/>
                <g id="zoomPlus">
                        <use xlink:href="#rim" fill="#404040">
                                <set attributeName="fill" to="#808080" begin="zoomplus.mouseover" end="zoomplus.mouseout"/>
                        </use>
                        <path d="M-4,0h8M0,-4v8" fill="none" stroke="white" stroke-width="1.5" pointer-events="none"/>
                </g>
                <g id="zoomMin">
                        <use xlink:href="#rim" fill="#404040">
                                <set attributeName="fill" to="#808080" begin="zoomminus.mouseover" end="zoomminus.mouseout"/>
                        </use>
                        <path d="M-4,0h8" fill="none" stroke="white" stroke-width="1.5" pointer-events="none"/>
                </g>
                <g id="dirArrow">
                        <path fill="none" stroke="white" stroke-width="1.5" d="M0,-3.0v7 M-2.5,-0.5L0,-3.0L2.5,-0.5"/>
                </g>
               <g id="resetDef">
                       <use xlink:href="#rim2" fill="#404040">
                               <set attributeName="fill" to="#808080" begin="reset.mouseover" end="reset.mouseout"/>
                       </use>
               </g>
        </defs>

<script type="text/javascript">
var viewWidth = 1306;
var viewHeight = 655;
var sectionId = 'dynsection-0';
</script>
<script xlink:href="../../svgpan.js"/>
<svg id="graph" class="graph">
<g id="viewport">
<title>GnssSerializer.h</title>
<polygon fill="white" stroke="none" points="-4,4 -4,-651 1301.5,-651 1301.5,4 -4,4"/>
<!-- Node1 -->
<g id="node1" class="node"><title>Node1</title>
<polygon fill="#bfbfbf" stroke="black" points="667,-627.5 667,-646.5 760,-646.5 760,-627.5 667,-627.5"/>
<text text-anchor="middle" x="713.5" y="-634.5" font-family="Helvetica,sans-Serif" font-size="10.00">GnssSerializer.h</text>
</g>
<!-- Node2 -->
<g id="node2" class="node"><title>Node2</title>
<g id="a_node2"><a xlink:href="../../de/d5c/Memory_8h.html" target="_top" xlink:title="carla/Memory.h">
<polygon fill="white" stroke="black" points="280,-571.5 280,-590.5 369,-590.5 369,-571.5 280,-571.5"/>
<text text-anchor="middle" x="324.5" y="-578.5" font-family="Helvetica,sans-Serif" font-size="10.00">carla/Memory.h</text>
</a>
</g>
</g>
<!-- Node1&#45;&gt;Node2 -->
<g id="edge1" class="edge"><title>Node1&#45;&gt;Node2</title>
<path fill="none" stroke="midnightblue" d="M666.964,-629.54C594.782,-619.52 456.155,-600.276 379.26,-589.602"/>
<polygon fill="midnightblue" stroke="midnightblue" points="379.674,-586.126 369.288,-588.217 378.712,-593.059 379.674,-586.126"/>
</g>
<!-- Node7 -->
<g id="node7" class="node"><title>Node7</title>
<g id="a_node7"><a xlink:href="../../d7/d86/GeoLocation_8h.html" target="_top" xlink:title="carla/geom/GeoLocation.h">
<polygon fill="white" stroke="black" points="884,-448.5 884,-467.5 1027,-467.5 1027,-448.5 884,-448.5"/>
<text text-anchor="middle" x="955.5" y="-455.5" font-family="Helvetica,sans-Serif" font-size="10.00">carla/geom/GeoLocation.h</text>
</a>
</g>
</g>
<!-- Node1&#45;&gt;Node7 -->
<g id="edge6" class="edge"><title>Node1&#45;&gt;Node7</title>
<path fill="none" stroke="midnightblue" d="M760.056,-635.406C827.205,-631.728 949.33,-613.864 1005.5,-535 1013.49,-523.778 1011.11,-516.586 1005.5,-504 999.932,-491.498 988.984,-481.012 978.749,-473.317"/>
<polygon fill="midnightblue" stroke="midnightblue" points="980.656,-470.379 970.452,-467.526 976.649,-476.119 980.656,-470.379"/>
</g>
<!-- Node18 -->
<g id="node18" class="node"><title>Node18</title>
<polygon fill="white" stroke="#bfbfbf" points="618,-56.5 618,-75.5 667,-75.5 667,-56.5 618,-56.5"/>
<text text-anchor="middle" x="642.5" y="-63.5" font-family="Helvetica,sans-Serif" font-size="10.00">cstdint</text>
</g>
<!-- Node1&#45;&gt;Node18 -->
<g id="edge50" class="edge"><title>Node1&#45;&gt;Node18</title>
<path fill="none" stroke="midnightblue" d="M682.213,-627.451C637.984,-613.241 562.5,-580.239 562.5,-520.5 562.5,-520.5 562.5,-520.5 562.5,-177 562.5,-136.621 598.195,-101.106 621.898,-81.9729"/>
<polygon fill="midnightblue" stroke="midnightblue" points="624.245,-84.582 630,-75.6866 619.954,-79.0515 624.245,-84.582"/>
</g>
<!-- Node23 -->
<g id="node23" class="node"><title>Node23</title>
<g id="a_node23"><a xlink:href="../../d3/d89/ActorId_8h.html" target="_top" xlink:title="carla/rpc/ActorId.h">
<polygon fill="white" stroke="black" points="590.5,-392.5 590.5,-411.5 694.5,-411.5 694.5,-392.5 590.5,-392.5"/>
<text text-anchor="middle" x="642.5" y="-399.5" font-family="Helvetica,sans-Serif" font-size="10.00">carla/rpc/ActorId.h</text>
</a>
</g>
</g>
<!-- Node1&#45;&gt;Node23 -->
<g id="edge23" class="edge"><title>Node1&#45;&gt;Node23</title>
<path fill="none" stroke="midnightblue" d="M707.529,-627.419C701.667,-618.635 692.847,-604.41 687.5,-591 663.712,-531.343 650.342,-455.823 645.108,-421.492"/>
<polygon fill="midnightblue" stroke="midnightblue" points="648.558,-420.895 643.641,-411.51 641.632,-421.913 648.558,-420.895"/>
</g>
<!-- Node24 -->
<g id="node24" class="node"><title>Node24</title>
<g id="a_node24"><a xlink:href="../../dc/d62/RawData_8h.html" target="_top" xlink:title="carla/sensor/RawData.h">
<polygon fill="white" stroke="black" points="696,-571.5 696,-590.5 825,-590.5 825,-571.5 696,-571.5"/>
<text text-anchor="middle" x="760.5" y="-578.5" font-family="Helvetica,sans-Serif" font-size="10.00">carla/sensor/RawData.h</text>
</a>
</g>
</g>
<!-- Node1&#45;&gt;Node24 -->
<g id="edge25" class="edge"><title>Node1&#45;&gt;Node24</title>
<path fill="none" stroke="midnightblue" d="M721.261,-627.083C728.037,-619.298 738.043,-607.801 746.255,-598.367"/>
<polygon fill="midnightblue" stroke="midnightblue" points="748.958,-600.592 752.883,-590.751 743.678,-595.996 748.958,-600.592"/>
</g>
<!-- Node35 -->
<g id="node35" class="node"><title>Node35</title>
<polygon fill="white" stroke="#bfbfbf" points="1053,-571.5 1053,-590.5 1102,-590.5 1102,-571.5 1053,-571.5"/>
<text text-anchor="middle" x="1077.5" y="-578.5" font-family="Helvetica,sans-Serif" font-size="10.00">cstring</text>
</g>
<!-- Node1&#45;&gt;Node35 -->
<g id="edge51" class="edge"><title>Node1&#45;&gt;Node35</title>
<path fill="none" stroke="midnightblue" d="M760.264,-630.854C823.597,-623.581 940.046,-609.139 1038.5,-591 1039.95,-590.732 1041.43,-590.447 1042.92,-590.149"/>
<polygon fill="midnightblue" stroke="midnightblue" points="1043.76,-593.55 1052.81,-588.047 1042.3,-586.704 1043.76,-593.55"/>
</g>
<!-- Node3 -->
<g id="node3" class="node"><title>Node3</title>
<polygon fill="white" stroke="#bfbfbf" points="266,-504.5 266,-534.5 383,-534.5 383,-504.5 266,-504.5"/>
<text text-anchor="start" x="274" y="-522.5" font-family="Helvetica,sans-Serif" font-size="10.00">boost/enable_shared</text>
<text text-anchor="middle" x="324.5" y="-511.5" font-family="Helvetica,sans-Serif" font-size="10.00">_from_this.hpp</text>
</g>
<!-- Node2&#45;&gt;Node3 -->
<g id="edge2" class="edge"><title>Node2&#45;&gt;Node3</title>
<path fill="none" stroke="midnightblue" d="M324.5,-571.475C324.5,-564.471 324.5,-554.192 324.5,-544.696"/>
<polygon fill="midnightblue" stroke="midnightblue" points="328,-544.523 324.5,-534.523 321,-544.523 328,-544.523"/>
</g>
<!-- Node4 -->
<g id="node4" class="node"><title>Node4</title>
<polygon fill="white" stroke="#bfbfbf" points="401,-510 401,-529 534,-529 534,-510 401,-510"/>
<text text-anchor="middle" x="467.5" y="-517" font-family="Helvetica,sans-Serif" font-size="10.00">boost/make_shared.hpp</text>
</g>
<!-- Node2&#45;&gt;Node4 -->
<g id="edge3" class="edge"><title>Node2&#45;&gt;Node4</title>
<path fill="none" stroke="midnightblue" d="M344.988,-571.475C369.306,-561.357 410.049,-544.405 437.817,-532.851"/>
<polygon fill="midnightblue" stroke="midnightblue" points="439.161,-536.082 447.05,-529.009 436.472,-529.619 439.161,-536.082"/>
</g>
<!-- Node5 -->
<g id="node5" class="node"><title>Node5</title>
<polygon fill="white" stroke="#bfbfbf" points="0,-510 0,-529 119,-529 119,-510 0,-510"/>
<text text-anchor="middle" x="59.5" y="-517" font-family="Helvetica,sans-Serif" font-size="10.00">boost/shared_ptr.hpp</text>
</g>
<!-- Node2&#45;&gt;Node5 -->
<g id="edge4" class="edge"><title>Node2&#45;&gt;Node5</title>
<path fill="none" stroke="midnightblue" d="M286.532,-571.475C239.304,-560.871 158.642,-542.76 107.264,-531.224"/>
<polygon fill="midnightblue" stroke="midnightblue" points="107.921,-527.785 97.3976,-529.009 106.388,-534.615 107.921,-527.785"/>
</g>
<!-- Node6 -->
<g id="node6" class="node"><title>Node6</title>
<polygon fill="white" stroke="#bfbfbf" points="137.5,-510 137.5,-529 247.5,-529 247.5,-510 137.5,-510"/>
<text text-anchor="middle" x="192.5" y="-517" font-family="Helvetica,sans-Serif" font-size="10.00">boost/weak_ptr.hpp</text>
</g>
<!-- Node2&#45;&gt;Node6 -->
<g id="edge5" class="edge"><title>Node2&#45;&gt;Node6</title>
<path fill="none" stroke="midnightblue" d="M305.588,-571.475C283.337,-561.445 246.188,-544.7 220.574,-533.155"/>
<polygon fill="midnightblue" stroke="midnightblue" points="221.932,-529.928 211.377,-529.009 219.056,-536.309 221.932,-529.928"/>
</g>
<!-- Node8 -->
<g id="node8" class="node"><title>Node8</title>
<g id="a_node8"><a xlink:href="../../d9/d6f/MsgPack_8h.html" target="_top" xlink:title="carla/MsgPack.h">
<polygon fill="white" stroke="black" points="904,-168.5 904,-187.5 997,-187.5 997,-168.5 904,-168.5"/>
<text text-anchor="middle" x="950.5" y="-175.5" font-family="Helvetica,sans-Serif" font-size="10.00">carla/MsgPack.h</text>
</a>
</g>
</g>
<!-- Node7&#45;&gt;Node8 -->
<g id="edge7" class="edge"><title>Node7&#45;&gt;Node8</title>
<path fill="none" stroke="midnightblue" d="M952.263,-448.301C945.712,-429.889 931.5,-385.507 931.5,-347 931.5,-347 931.5,-347 931.5,-289 931.5,-256.489 939.659,-219.35 945.284,-197.61"/>
<polygon fill="midnightblue" stroke="midnightblue" points="948.718,-198.317 947.938,-187.751 941.959,-196.498 948.718,-198.317"/>
</g>
<!-- Node9 -->
<g id="node9" class="node"><title>Node9</title>
<g id="a_node9"><a xlink:href="../../d2/dda/carla_2Buffer_8h.html" target="_top" xlink:title="carla/Buffer.h">
<polygon fill="white" stroke="black" points="825.5,-112.5 825.5,-131.5 905.5,-131.5 905.5,-112.5 825.5,-112.5"/>
<text text-anchor="middle" x="865.5" y="-119.5" font-family="Helvetica,sans-Serif" font-size="10.00">carla/Buffer.h</text>
</a>
</g>
</g>
<!-- Node8&#45;&gt;Node9 -->
<g id="edge8" class="edge"><title>Node8&#45;&gt;Node9</title>
<path fill="none" stroke="midnightblue" d="M936.843,-168.324C923.584,-159.9 903.232,-146.971 887.654,-137.074"/>
<polygon fill="midnightblue" stroke="midnightblue" points="889.44,-134.063 879.123,-131.655 885.687,-139.971 889.44,-134.063"/>
</g>
<!-- Node22 -->
<g id="node22" class="node"><title>Node22</title>
<polygon fill="white" stroke="#bfbfbf" points="924,-112.5 924,-131.5 1023,-131.5 1023,-112.5 924,-112.5"/>
<text text-anchor="middle" x="973.5" y="-119.5" font-family="Helvetica,sans-Serif" font-size="10.00">rpc/msgpack.hpp</text>
</g>
<!-- Node8&#45;&gt;Node22 -->
<g id="edge22" class="edge"><title>Node8&#45;&gt;Node22</title>
<path fill="none" stroke="midnightblue" d="M954.298,-168.083C957.413,-160.77 961.923,-150.181 965.789,-141.103"/>
<polygon fill="midnightblue" stroke="midnightblue" points="969.074,-142.323 969.773,-131.751 962.634,-139.58 969.074,-142.323"/>
</g>
<!-- Node10 -->
<g id="node10" class="node"><title>Node10</title>
<g id="a_node10"><a xlink:href="../../d4/deb/Debug_8h.html" target="_top" xlink:title="carla/Debug.h">
<polygon fill="white" stroke="black" points="1101,-56.5 1101,-75.5 1184,-75.5 1184,-56.5 1101,-56.5"/>
<text text-anchor="middle" x="1142.5" y="-63.5" font-family="Helvetica,sans-Serif" font-size="10.00">carla/Debug.h</text>
</a>
</g>
</g>
<!-- Node9&#45;&gt;Node10 -->
<g id="edge9" class="edge"><title>Node9&#45;&gt;Node10</title>
<path fill="none" stroke="midnightblue" d="M905.778,-113.148C954.693,-103.612 1037.28,-87.5115 1090.84,-77.0714"/>
<polygon fill="midnightblue" stroke="midnightblue" points="1091.67,-80.4754 1100.81,-75.1266 1090.33,-73.6048 1091.67,-80.4754"/>
</g>
<!-- Node11 -->
<g id="node11" class="node"><title>Node11</title>
<g id="a_node11"><a xlink:href="../../d8/d8a/Exception_8h.html" target="_top" xlink:title="carla/Exception.h">
<polygon fill="white" stroke="black" points="972.5,-0.5 972.5,-19.5 1070.5,-19.5 1070.5,-0.5 972.5,-0.5"/>
<text text-anchor="middle" x="1021.5" y="-7.5" font-family="Helvetica,sans-Serif" font-size="10.00">carla/Exception.h</text>
</a>
</g>
</g>
<!-- Node9&#45;&gt;Node11 -->
<g id="edge13" class="edge"><title>Node9&#45;&gt;Node11</title>
<path fill="none" stroke="midnightblue" d="M899.265,-112.438C932.293,-103.492 979.596,-88.9802 993.5,-76 1006.67,-63.7056 1013.94,-44.1715 1017.75,-29.7239"/>
<polygon fill="midnightblue" stroke="midnightblue" points="1021.18,-30.4028 1020.02,-19.8714 1014.36,-28.8264 1021.18,-30.4028"/>
</g>
<!-- Node14 -->
<g id="node14" class="node"><title>Node14</title>
<g id="a_node14"><a xlink:href="../../de/d87/Logging_8h.html" target="_top" xlink:title="carla/Logging.h">
<polygon fill="white" stroke="black" points="685,-56.5 685,-75.5 774,-75.5 774,-56.5 685,-56.5"/>
<text text-anchor="middle" x="729.5" y="-63.5" font-family="Helvetica,sans-Serif" font-size="10.00">carla/Logging.h</text>
</a>
</g>
</g>
<!-- Node9&#45;&gt;Node14 -->
<g id="edge14" class="edge"><title>Node9&#45;&gt;Node14</title>
<path fill="none" stroke="midnightblue" d="M843.95,-112.444C821.469,-103.517 786.012,-89.4387 760.52,-79.3168"/>
<polygon fill="midnightblue" stroke="midnightblue" points="761.535,-75.9539 750.949,-75.5164 758.951,-82.4598 761.535,-75.9539"/>
</g>
<!-- Node17 -->
<g id="node17" class="node"><title>Node17</title>
<polygon fill="white" stroke="#bfbfbf" points="792,-56.5 792,-75.5 909,-75.5 909,-56.5 792,-56.5"/>
<text text-anchor="middle" x="850.5" y="-63.5" font-family="Helvetica,sans-Serif" font-size="10.00">boost/asio/buffer.hpp</text>
</g>
<!-- Node9&#45;&gt;Node17 -->
<g id="edge17" class="edge"><title>Node9&#45;&gt;Node17</title>
<path fill="none" stroke="midnightblue" d="M863.023,-112.083C861.014,-104.849 858.114,-94.4087 855.61,-85.3968"/>
<polygon fill="midnightblue" stroke="midnightblue" points="858.98,-84.4495 852.931,-75.7511 852.235,-86.323 858.98,-84.4495"/>
</g>
<!-- Node9&#45;&gt;Node18 -->
<g id="edge18" class="edge"><title>Node9&#45;&gt;Node18</title>
<path fill="none" stroke="midnightblue" d="M828.493,-112.478C792.354,-104.091 735.555,-90.7401 677.133,-76.1126"/>
<polygon fill="midnightblue" stroke="midnightblue" points="677.915,-72.7005 667.364,-73.6584 676.21,-79.4895 677.915,-72.7005"/>
</g>
<!-- Node19 -->
<g id="node19" class="node"><title>Node19</title>
<polygon fill="white" stroke="#bfbfbf" points="1040.5,-56.5 1040.5,-75.5 1082.5,-75.5 1082.5,-56.5 1040.5,-56.5"/>
<text text-anchor="middle" x="1061.5" y="-63.5" font-family="Helvetica,sans-Serif" font-size="10.00">limits</text>
</g>
<!-- Node9&#45;&gt;Node19 -->
<g id="edge19" class="edge"><title>Node9&#45;&gt;Node19</title>
<path fill="none" stroke="midnightblue" d="M896.557,-112.444C933.261,-102.331 993.963,-85.6072 1030.6,-75.5136"/>
<polygon fill="midnightblue" stroke="midnightblue" points="1031.54,-78.8841 1040.25,-72.8536 1029.68,-72.1355 1031.54,-78.8841"/>
</g>
<!-- Node20 -->
<g id="node20" class="node"><title>Node20</title>
<polygon fill="white" stroke="#bfbfbf" points="927,-56.5 927,-75.5 984,-75.5 984,-56.5 927,-56.5"/>
<text text-anchor="middle" x="955.5" y="-63.5" font-family="Helvetica,sans-Serif" font-size="10.00">memory</text>
</g>
<!-- Node9&#45;&gt;Node20 -->
<g id="edge20" class="edge"><title>Node9&#45;&gt;Node20</title>
<path fill="none" stroke="midnightblue" d="M879.96,-112.324C894,-103.9 915.548,-90.9709 932.043,-81.0741"/>
<polygon fill="midnightblue" stroke="midnightblue" points="934.302,-83.8007 941.076,-75.6545 930.7,-77.7983 934.302,-83.8007"/>
</g>
<!-- Node21 -->
<g id="node21" class="node"><title>Node21</title>
<polygon fill="white" stroke="#bfbfbf" points="1229.5,-56.5 1229.5,-75.5 1297.5,-75.5 1297.5,-56.5 1229.5,-56.5"/>
<text text-anchor="middle" x="1263.5" y="-63.5" font-family="Helvetica,sans-Serif" font-size="10.00">type_traits</text>
</g>
<!-- Node9&#45;&gt;Node21 -->
<g id="edge21" class="edge"><title>Node9&#45;&gt;Node21</title>
<path fill="none" stroke="midnightblue" d="M905.588,-113.604C908.938,-113.041 912.275,-112.498 915.5,-112 922.955,-110.848 1127.29,-84.5285 1219.31,-72.685"/>
<polygon fill="midnightblue" stroke="midnightblue" points="1219.96,-76.1303 1229.43,-71.3825 1219.07,-69.1876 1219.96,-76.1303"/>
</g>
<!-- Node10&#45;&gt;Node11 -->
<g id="edge10" class="edge"><title>Node10&#45;&gt;Node11</title>
<path fill="none" stroke="midnightblue" d="M1123.33,-56.4435C1103.59,-47.6356 1072.61,-33.8116 1050.01,-23.722"/>
<polygon fill="midnightblue" stroke="midnightblue" points="1051.14,-20.3957 1040.58,-19.5164 1048.29,-26.788 1051.14,-20.3957"/>
</g>
<!-- Node12 -->
<g id="node12" class="node"><title>Node12</title>
<polygon fill="white" stroke="#bfbfbf" points="1176.5,-0.5 1176.5,-19.5 1240.5,-19.5 1240.5,-0.5 1176.5,-0.5"/>
<text text-anchor="middle" x="1208.5" y="-7.5" font-family="Helvetica,sans-Serif" font-size="10.00">stdexcept</text>
</g>
<!-- Node10&#45;&gt;Node12 -->
<g id="edge11" class="edge"><title>Node10&#45;&gt;Node12</title>
<path fill="none" stroke="midnightblue" d="M1153.1,-56.324C1162.96,-48.2631 1177.85,-36.0765 1189.72,-26.3695"/>
<polygon fill="midnightblue" stroke="midnightblue" points="1192.18,-28.8752 1197.7,-19.8339 1187.75,-23.4575 1192.18,-28.8752"/>
</g>
<!-- Node13 -->
<g id="node13" class="node"><title>Node13</title>
<polygon fill="white" stroke="#bfbfbf" points="1106.5,-0.5 1106.5,-19.5 1158.5,-19.5 1158.5,-0.5 1106.5,-0.5"/>
<text text-anchor="middle" x="1132.5" y="-7.5" font-family="Helvetica,sans-Serif" font-size="10.00">cassert</text>
</g>
<!-- Node10&#45;&gt;Node13 -->
<g id="edge12" class="edge"><title>Node10&#45;&gt;Node13</title>
<path fill="none" stroke="midnightblue" d="M1140.85,-56.083C1139.52,-48.9272 1137.62,-38.6353 1135.96,-29.6911"/>
<polygon fill="midnightblue" stroke="midnightblue" points="1139.38,-28.9466 1134.12,-19.7511 1132.5,-30.2212 1139.38,-28.9466"/>
</g>
<!-- Node15 -->
<g id="node15" class="node"><title>Node15</title>
<g id="a_node15"><a xlink:href="../../d9/dd0/Platform_8h.html" target="_top" xlink:title="carla/Platform.h">
<polygon fill="white" stroke="black" points="730.5,-0.5 730.5,-19.5 822.5,-19.5 822.5,-0.5 730.5,-0.5"/>
<text text-anchor="middle" x="776.5" y="-7.5" font-family="Helvetica,sans-Serif" font-size="10.00">carla/Platform.h</text>
</a>
</g>
</g>
<!-- Node14&#45;&gt;Node15 -->
<g id="edge15" class="edge"><title>Node14&#45;&gt;Node15</title>
<path fill="none" stroke="midnightblue" d="M737.261,-56.083C744.037,-48.2982 754.043,-36.8015 762.255,-27.3665"/>
<polygon fill="midnightblue" stroke="midnightblue" points="764.958,-29.592 768.883,-19.7511 759.678,-24.9963 764.958,-29.592"/>
</g>
<!-- Node16 -->
<g id="node16" class="node"><title>Node16</title>
<polygon fill="white" stroke="#bfbfbf" points="653,-0.5 653,-19.5 712,-19.5 712,-0.5 653,-0.5"/>
<text text-anchor="middle" x="682.5" y="-7.5" font-family="Helvetica,sans-Serif" font-size="10.00">iostream</text>
</g>
<!-- Node14&#45;&gt;Node16 -->
<g id="edge16" class="edge"><title>Node14&#45;&gt;Node16</title>
<path fill="none" stroke="midnightblue" d="M721.739,-56.083C714.963,-48.2982 704.957,-36.8015 696.745,-27.3665"/>
<polygon fill="midnightblue" stroke="midnightblue" points="699.322,-24.9963 690.117,-19.7511 694.042,-29.592 699.322,-24.9963"/>
</g>
<!-- Node23&#45;&gt;Node18 -->
<g id="edge24" class="edge"><title>Node23&#45;&gt;Node18</title>
<path fill="none" stroke="midnightblue" d="M642.5,-392.442C642.5,-373.936 642.5,-328.812 642.5,-291 642.5,-291 642.5,-291 642.5,-177 642.5,-144.948 642.5,-107.643 642.5,-85.7489"/>
<polygon fill="midnightblue" stroke="midnightblue" points="646,-85.5577 642.5,-75.5578 639,-85.5578 646,-85.5577"/>
</g>
<!-- Node24&#45;&gt;Node9 -->
<g id="edge26" class="edge"><title>Node24&#45;&gt;Node9</title>
<path fill="none" stroke="midnightblue" d="M760.5,-571.491C760.5,-551.736 760.5,-501.224 760.5,-459 760.5,-459 760.5,-459 760.5,-233 760.5,-188.02 807.007,-154.189 838.118,-136.59"/>
<polygon fill="midnightblue" stroke="midnightblue" points="840.091,-139.501 847.21,-131.655 836.752,-133.349 840.091,-139.501"/>
</g>
<!-- Node24&#45;&gt;Node18 -->
<g id="edge48" class="edge"><title>Node24&#45;&gt;Node18</title>
<path fill="none" stroke="midnightblue" d="M755.84,-571.485C745.693,-552.119 722.5,-503.037 722.5,-459 722.5,-459 722.5,-459 722.5,-177 722.5,-136.621 686.805,-101.106 663.102,-81.9729"/>
<polygon fill="midnightblue" stroke="midnightblue" points="665.046,-79.0515 655,-75.6866 660.755,-84.582 665.046,-79.0515"/>
</g>
<!-- Node25 -->
<g id="node25" class="node"><title>Node25</title>
<g id="a_node25"><a xlink:href="../../dd/da9/SensorHeaderSerializer_8h.html" target="_top" xlink:title="carla/sensor/s11n/Sensor\lHeaderSerializer.h">
<polygon fill="white" stroke="black" points="788.5,-504.5 788.5,-534.5 926.5,-534.5 926.5,-504.5 788.5,-504.5"/>
<text text-anchor="start" x="796.5" y="-522.5" font-family="Helvetica,sans-Serif" font-size="10.00">carla/sensor/s11n/Sensor</text>
<text text-anchor="middle" x="857.5" y="-511.5" font-family="Helvetica,sans-Serif" font-size="10.00">HeaderSerializer.h</text>
</a>
</g>
</g>
<!-- Node24&#45;&gt;Node25 -->
<g id="edge27" class="edge"><title>Node24&#45;&gt;Node25</title>
<path fill="none" stroke="midnightblue" d="M774.398,-571.475C787.781,-563.266 808.498,-550.558 825.898,-539.885"/>
<polygon fill="midnightblue" stroke="midnightblue" points="827.945,-542.735 834.639,-534.523 824.285,-536.768 827.945,-542.735"/>
</g>
<!-- Node34 -->
<g id="node34" class="node"><title>Node34</title>
<polygon fill="white" stroke="#bfbfbf" points="944.5,-510 944.5,-529 996.5,-529 996.5,-510 944.5,-510"/>
<text text-anchor="middle" x="970.5" y="-517" font-family="Helvetica,sans-Serif" font-size="10.00">iterator</text>
</g>
<!-- Node24&#45;&gt;Node34 -->
<g id="edge49" class="edge"><title>Node24&#45;&gt;Node34</title>
<path fill="none" stroke="midnightblue" d="M800.232,-571.469C836.006,-563.39 889.825,-550.249 935.5,-535 937.418,-534.36 939.381,-533.664 941.349,-532.935"/>
<polygon fill="midnightblue" stroke="midnightblue" points="943.033,-536.034 951.063,-529.123 940.475,-529.518 943.033,-536.034"/>
</g>
<!-- Node25&#45;&gt;Node9 -->
<g id="edge28" class="edge"><title>Node25&#45;&gt;Node9</title>
<path fill="none" stroke="midnightblue" d="M857.095,-504.276C856.511,-482.479 855.5,-439.5 855.5,-403 855.5,-403 855.5,-403 855.5,-233 855.5,-200.816 859.798,-163.552 862.759,-141.702"/>
<polygon fill="midnightblue" stroke="midnightblue" points="866.262,-141.925 864.193,-131.534 859.331,-140.947 866.262,-141.925"/>
</g>
<!-- Node26 -->
<g id="node26" class="node"><title>Node26</title>
<g id="a_node26"><a xlink:href="../../df/d36/rpc_2Transform_8h.html" target="_top" xlink:title="carla/rpc/Transform.h">
<polygon fill="white" stroke="black" points="1045,-448.5 1045,-467.5 1162,-467.5 1162,-448.5 1045,-448.5"/>
<text text-anchor="middle" x="1103.5" y="-455.5" font-family="Helvetica,sans-Serif" font-size="10.00">carla/rpc/Transform.h</text>
</a>
</g>
</g>
<!-- Node25&#45;&gt;Node26 -->
<g id="edge29" class="edge"><title>Node25&#45;&gt;Node26</title>
<path fill="none" stroke="midnightblue" d="M915.487,-504.475C959.224,-493.896 1018.35,-479.595 1058.54,-469.874"/>
<polygon fill="midnightblue" stroke="midnightblue" points="1059.43,-473.259 1068.33,-467.506 1057.79,-466.455 1059.43,-473.259"/>
</g>
<!-- Node27 -->
<g id="node27" class="node"><title>Node27</title>
<g id="a_node27"><a xlink:href="../../de/d17/geom_2Transform_8h.html" target="_top" xlink:title="carla/geom/Transform.h">
<polygon fill="white" stroke="black" points="1038.5,-392.5 1038.5,-411.5 1168.5,-411.5 1168.5,-392.5 1038.5,-392.5"/>
<text text-anchor="middle" x="1103.5" y="-399.5" font-family="Helvetica,sans-Serif" font-size="10.00">carla/geom/Transform.h</text>
</a>
</g>
</g>
<!-- Node26&#45;&gt;Node27 -->
<g id="edge30" class="edge"><title>Node26&#45;&gt;Node27</title>
<path fill="none" stroke="midnightblue" d="M1103.5,-448.083C1103.5,-441.006 1103.5,-430.861 1103.5,-421.986"/>
<polygon fill="midnightblue" stroke="midnightblue" points="1107,-421.751 1103.5,-411.751 1100,-421.751 1107,-421.751"/>
</g>
<!-- Node27&#45;&gt;Node8 -->
<g id="edge31" class="edge"><title>Node27&#45;&gt;Node8</title>
<path fill="none" stroke="midnightblue" d="M1038.2,-396.003C1007.92,-390.462 973.608,-379.097 950.5,-356 907.729,-313.25 898.686,-281.471 917.5,-224 920.99,-213.34 928.073,-203.117 934.786,-195.117"/>
<polygon fill="midnightblue" stroke="midnightblue" points="937.404,-197.439 941.48,-187.66 932.195,-192.763 937.404,-197.439"/>
</g>
<!-- Node28 -->
<g id="node28" class="node"><title>Node28</title>
<g id="a_node28"><a xlink:href="../../d9/d8b/geom_2Location_8h.html" target="_top" xlink:title="carla/geom/Location.h">
<polygon fill="white" stroke="black" points="1100,-336.5 1100,-355.5 1223,-355.5 1223,-336.5 1100,-336.5"/>
<text text-anchor="middle" x="1161.5" y="-343.5" font-family="Helvetica,sans-Serif" font-size="10.00">carla/geom/Location.h</text>
</a>
</g>
</g>
<!-- Node27&#45;&gt;Node28 -->
<g id="edge32" class="edge"><title>Node27&#45;&gt;Node28</title>
<path fill="none" stroke="midnightblue" d="M1112.82,-392.324C1121.39,-384.341 1134.31,-372.313 1144.69,-362.653"/>
<polygon fill="midnightblue" stroke="midnightblue" points="1147.08,-365.21 1152.01,-355.834 1142.31,-360.086 1147.08,-365.21"/>
</g>
<!-- Node31 -->
<g id="node31" class="node"><title>Node31</title>
<g id="a_node31"><a xlink:href="../../db/d8a/Math_8h.html" target="_top" xlink:title="carla/geom/Math.h">
<polygon fill="white" stroke="black" points="1135,-280.5 1135,-299.5 1242,-299.5 1242,-280.5 1135,-280.5"/>
<text text-anchor="middle" x="1188.5" y="-287.5" font-family="Helvetica,sans-Serif" font-size="10.00">carla/geom/Math.h</text>
</a>
</g>
</g>
<!-- Node27&#45;&gt;Node31 -->
<g id="edge43" class="edge"><title>Node27&#45;&gt;Node31</title>
<path fill="none" stroke="midnightblue" d="M1168.79,-394.041C1192.86,-387.948 1217.8,-376.692 1232.5,-356 1244.53,-339.065 1226.63,-319.253 1210.18,-305.993"/>
<polygon fill="midnightblue" stroke="midnightblue" points="1211.97,-302.952 1201.88,-299.707 1207.74,-308.533 1211.97,-302.952"/>
</g>
<!-- Node33 -->
<g id="node33" class="node"><title>Node33</title>
<g id="a_node33"><a xlink:href="../../d0/d8f/Rotation_8h.html" target="_top" xlink:title="carla/geom/Rotation.h">
<polygon fill="white" stroke="black" points="959.5,-336.5 959.5,-355.5 1081.5,-355.5 1081.5,-336.5 959.5,-336.5"/>
<text text-anchor="middle" x="1020.5" y="-343.5" font-family="Helvetica,sans-Serif" font-size="10.00">carla/geom/Rotation.h</text>
</a>
</g>
</g>
<!-- Node27&#45;&gt;Node33 -->
<g id="edge44" class="edge"><title>Node27&#45;&gt;Node33</title>
<path fill="none" stroke="midnightblue" d="M1090.16,-392.324C1077.34,-383.979 1057.72,-371.212 1042.56,-361.352"/>
<polygon fill="midnightblue" stroke="midnightblue" points="1044.09,-358.174 1033.8,-355.655 1040.28,-364.042 1044.09,-358.174"/>
</g>
<!-- Node29 -->
<g id="node29" class="node"><title>Node29</title>
<g id="a_node29"><a xlink:href="../../de/d70/geom_2Vector3D_8h.html" target="_top" xlink:title="carla/geom/Vector3D.h">
<polygon fill="white" stroke="black" points="998,-224.5 998,-243.5 1125,-243.5 1125,-224.5 998,-224.5"/>
<text text-anchor="middle" x="1061.5" y="-231.5" font-family="Helvetica,sans-Serif" font-size="10.00">carla/geom/Vector3D.h</text>
</a>
</g>
</g>
<!-- Node28&#45;&gt;Node29 -->
<g id="edge33" class="edge"><title>Node28&#45;&gt;Node29</title>
<path fill="none" stroke="midnightblue" d="M1153.65,-336.368C1136.93,-317.974 1097.56,-274.671 1076.09,-251.052"/>
<polygon fill="midnightblue" stroke="midnightblue" points="1078.63,-248.636 1069.31,-243.591 1073.45,-253.345 1078.63,-248.636"/>
</g>
<!-- Node28&#45;&gt;Node31 -->
<g id="edge37" class="edge"><title>Node28&#45;&gt;Node31</title>
<path fill="none" stroke="midnightblue" d="M1165.96,-336.083C1169.65,-328.691 1175.02,-317.953 1179.59,-308.811"/>
<polygon fill="midnightblue" stroke="midnightblue" points="1182.78,-310.261 1184.12,-299.751 1176.52,-307.13 1182.78,-310.261"/>
</g>
<!-- Node29&#45;&gt;Node8 -->
<g id="edge34" class="edge"><title>Node29&#45;&gt;Node8</title>
<path fill="none" stroke="midnightblue" d="M1043.67,-224.324C1025.78,-215.625 998.025,-202.12 977.454,-192.113"/>
<polygon fill="midnightblue" stroke="midnightblue" points="978.813,-188.882 968.29,-187.655 975.751,-195.177 978.813,-188.882"/>
</g>
<!-- Node29&#45;&gt;Node19 -->
<g id="edge36" class="edge"><title>Node29&#45;&gt;Node19</title>
<path fill="none" stroke="midnightblue" d="M1061.5,-224.075C1061.5,-197.945 1061.5,-121.211 1061.5,-85.577"/>
<polygon fill="midnightblue" stroke="midnightblue" points="1065,-85.5681 1061.5,-75.5681 1058,-85.5681 1065,-85.5681"/>
</g>
<!-- Node30 -->
<g id="node30" class="node"><title>Node30</title>
<polygon fill="white" stroke="#bfbfbf" points="1133,-168.5 1133,-187.5 1180,-187.5 1180,-168.5 1133,-168.5"/>
<text text-anchor="middle" x="1156.5" y="-175.5" font-family="Helvetica,sans-Serif" font-size="10.00">cmath</text>
</g>
<!-- Node29&#45;&gt;Node30 -->
<g id="edge35" class="edge"><title>Node29&#45;&gt;Node30</title>
<path fill="none" stroke="midnightblue" d="M1076.76,-224.324C1091.72,-215.822 1114.75,-202.729 1132.23,-192.797"/>
<polygon fill="midnightblue" stroke="midnightblue" points="1134.31,-195.639 1141.27,-187.655 1130.85,-189.553 1134.31,-195.639"/>
</g>
<!-- Node31&#45;&gt;Node10 -->
<g id="edge38" class="edge"><title>Node31&#45;&gt;Node10</title>
<path fill="none" stroke="midnightblue" d="M1193.88,-280.443C1199.06,-271.678 1206.51,-257.467 1209.5,-244 1211.43,-235.322 1211.02,-232.758 1209.5,-224 1200.18,-170.192 1169.56,-112.5 1153.14,-84.3958"/>
<polygon fill="midnightblue" stroke="midnightblue" points="1156.1,-82.5397 1147.98,-75.7438 1150.09,-86.1252 1156.1,-82.5397"/>
</g>
<!-- Node31&#45;&gt;Node21 -->
<g id="edge41" class="edge"><title>Node31&#45;&gt;Node21</title>
<path fill="none" stroke="midnightblue" d="M1197.02,-280.481C1205.05,-271.965 1216.82,-258.137 1223.5,-244 1249.04,-189.988 1258.69,-118.868 1261.98,-85.626"/>
<polygon fill="midnightblue" stroke="midnightblue" points="1265.48,-85.8127 1262.89,-75.5378 1258.5,-85.1815 1265.48,-85.8127"/>
</g>
<!-- Node31&#45;&gt;Node29 -->
<g id="edge39" class="edge"><title>Node31&#45;&gt;Node29</title>
<path fill="none" stroke="midnightblue" d="M1168.38,-280.444C1147.48,-271.557 1114.57,-257.563 1090.78,-247.451"/>
<polygon fill="midnightblue" stroke="midnightblue" points="1092.1,-244.208 1081.53,-243.516 1089.36,-250.65 1092.1,-244.208"/>
</g>
<!-- Node31&#45;&gt;Node30 -->
<g id="edge40" class="edge"><title>Node31&#45;&gt;Node30</title>
<path fill="none" stroke="midnightblue" d="M1191.63,-280.281C1195.69,-267.51 1201.51,-243.158 1194.5,-224 1190.44,-212.908 1182.31,-202.665 1174.61,-194.763"/>
<polygon fill="midnightblue" stroke="midnightblue" points="1176.86,-192.075 1167.21,-187.695 1172.03,-197.135 1176.86,-192.075"/>
</g>
<!-- Node32 -->
<g id="node32" class="node"><title>Node32</title>
<polygon fill="white" stroke="#bfbfbf" points="1143.5,-224.5 1143.5,-243.5 1185.5,-243.5 1185.5,-224.5 1143.5,-224.5"/>
<text text-anchor="middle" x="1164.5" y="-231.5" font-family="Helvetica,sans-Serif" font-size="10.00">utility</text>
</g>
<!-- Node31&#45;&gt;Node32 -->
<g id="edge42" class="edge"><title>Node31&#45;&gt;Node32</title>
<path fill="none" stroke="midnightblue" d="M1184.54,-280.083C1181.29,-272.77 1176.58,-262.181 1172.55,-253.103"/>
<polygon fill="midnightblue" stroke="midnightblue" points="1175.65,-251.468 1168.39,-243.751 1169.25,-254.311 1175.65,-251.468"/>
</g>
<!-- Node33&#45;&gt;Node8 -->
<g id="edge45" class="edge"><title>Node33&#45;&gt;Node8</title>
<path fill="none" stroke="midnightblue" d="M1016.74,-336.075C1005.67,-309.832 973.079,-232.545 958.14,-197.117"/>
<polygon fill="midnightblue" stroke="midnightblue" points="961.224,-195.422 954.113,-187.568 954.774,-198.142 961.224,-195.422"/>
</g>
<!-- Node33&#45;&gt;Node29 -->
<g id="edge47" class="edge"><title>Node33&#45;&gt;Node29</title>
<path fill="none" stroke="midnightblue" d="M1023.72,-336.368C1030.36,-318.537 1045.74,-277.295 1054.69,-253.272"/>
<polygon fill="midnightblue" stroke="midnightblue" points="1058.08,-254.184 1058.3,-243.591 1051.53,-251.739 1058.08,-254.184"/>
</g>
<!-- Node33&#45;&gt;Node31 -->
<g id="edge46" class="edge"><title>Node33&#45;&gt;Node31</title>
<path fill="none" stroke="midnightblue" d="M1047.12,-336.444C1075.51,-327.32 1120.64,-312.813 1152.25,-302.651"/>
<polygon fill="midnightblue" stroke="midnightblue" points="1153.56,-305.909 1162,-299.516 1151.41,-299.244 1153.56,-305.909"/>
</g>
</g>
</svg>
        <g id="navigator" transform="translate(0 0)" fill="#404254">
                <rect fill="#f2f5e9" fill-opacity="0.5" stroke="#606060" stroke-width=".5" x="0" y="0" width="60" height="60"/>
                <use id="zoomplus" xlink:href="#zoomPlus" x="17" y="9" onmousedown="handleZoom(evt,'in')"/>
                <use id="zoomminus" xlink:href="#zoomMin" x="42" y="9" onmousedown="handleZoom(evt,'out')"/>
                <use id="reset" xlink:href="#resetDef" x="30" y="36" onmousedown="handleReset()"/>
                <g id="arrowUp" xlink:href="#dirArrow" transform="translate(30 24)" onmousedown="handlePan(0,-1)">
                  <use xlink:href="#rim" fill="#404040">
                        <set attributeName="fill" to="#808080" begin="arrowUp.mouseover" end="arrowUp.mouseout"/>
                  </use>
                  <path fill="none" stroke="white" stroke-width="1.5" d="M0,-3.0v7 M-2.5,-0.5L0,-3.0L2.5,-0.5"/>
                </g>
                <g id="arrowRight" xlink:href="#dirArrow" transform="rotate(90) translate(36 -43)" onmousedown="handlePan(1,0)">
                  <use xlink:href="#rim" fill="#404040">
                        <set attributeName="fill" to="#808080" begin="arrowRight.mouseover" end="arrowRight.mouseout"/>
                  </use>
                  <path fill="none" stroke="white" stroke-width="1.5" d="M0,-3.0v7 M-2.5,-0.5L0,-3.0L2.5,-0.5"/>
                </g>
                <g id="arrowDown" xlink:href="#dirArrow" transform="rotate(180) translate(-30 -48)" onmousedown="handlePan(0,1)">
                  <use xlink:href="#rim" fill="#404040">
                        <set attributeName="fill" to="#808080" begin="arrowDown.mouseover" end="arrowDown.mouseout"/>
                  </use>
                  <path fill="none" stroke="white" stroke-width="1.5" d="M0,-3.0v7 M-2.5,-0.5L0,-3.0L2.5,-0.5"/>
                </g>
                <g id="arrowLeft" xlink:href="#dirArrow" transform="rotate(270) translate(-36 17)" onmousedown="handlePan(-1,0)">
                  <use xlink:href="#rim" fill="#404040">
                        <set attributeName="fill" to="#808080" begin="arrowLeft.mouseover" end="arrowLeft.mouseout"/>
                  </use>
                  <path fill="none" stroke="white" stroke-width="1.5" d="M0,-3.0v7 M-2.5,-0.5L0,-3.0L2.5,-0.5"/>
                </g>
        </g>
        <svg viewBox="0 0 15 15" width="100%" height="30px" preserveAspectRatio="xMaxYMin meet">
         <g id="arrow_out" transform="scale(0.3 0.3)">
          <a xlink:href="GnssSerializer_8h__incl_org.svg" target="_base">
           <rect id="button" ry="5" rx="5" y="6" x="6" height="38" width="38"
                fill="#f2f5e9" fill-opacity="0.5" stroke="#606060" stroke-width="1.0"/>
           <path id="arrow"
             d="M 11.500037,31.436501 C 11.940474,20.09759 22.043105,11.32322 32.158766,21.979434 L 37.068811,17.246167 C 37.068811,17.246167 37.088388,32 37.088388,32 L 22.160133,31.978069 C 22.160133,31.978069 26.997745,27.140456 26.997745,27.140456 C 18.528582,18.264221 13.291696,25.230495 11.500037,31.436501 z"
             style="fill:#404040;"/>
          </a>
         </g>
        </svg>
</svg>
