<?xml version="1.0" encoding="UTF-8" standalone="no"?>
<!DOCTYPE svg PUBLIC "-//W3C//DTD SVG 1.1//EN"
 "http://www.w3.org/Graphics/SVG/1.1/DTD/svg11.dtd">
<!-- Generated by graphviz version 2.43.0 (0)
 -->
<!-- Title: Walker.h Pages: 1 -->
<!--zoomable 140 -->
<svg id="main" version="1.1" xmlns="http://www.w3.org/2000/svg" xmlns:xlink="http://www.w3.org/1999/xlink" xml:space="preserve" onload="init(evt)">
<style type="text/css"><![CDATA[
.edge:hover path { stroke: red; }
.edge:hover polygon { stroke: red; fill: red; }
]]></style>
<script type="text/javascript"><![CDATA[
var edges = document.getElementsByTagName('g');
if (edges && edges.length) {
  for (var i=0;i<edges.length;i++) {
    if (edges[i].id.substr(0,4)=='edge') {
      edges[i].setAttribute('class','edge');
    }
  }
}
]]></script>
        <defs>
                <circle id="rim" cx="0" cy="0" r="7"/>
                <circle id="rim2" cx="0" cy="0" r="3.5"/>
                <g id="zoomPlus">
                        <use xlink:href="#rim" fill="#404040">
                                <set attributeName="fill" to="#808080" begin="zoomplus.mouseover" end="zoomplus.mouseout"/>
                        </use>
                        <path d="M-4,0h8M0,-4v8" fill="none" stroke="white" stroke-width="1.5" pointer-events="none"/>
                </g>
                <g id="zoomMin">
                        <use xlink:href="#rim" fill="#404040">
                                <set attributeName="fill" to="#808080" begin="zoomminus.mouseover" end="zoomminus.mouseout"/>
                        </use>
                        <path d="M-4,0h8" fill="none" stroke="white" stroke-width="1.5" pointer-events="none"/>
                </g>
                <g id="dirArrow">
                        <path fill="none" stroke="white" stroke-width="1.5" d="M0,-3.0v7 M-2.5,-0.5L0,-3.0L2.5,-0.5"/>
                </g>
               <g id="resetDef">
                       <use xlink:href="#rim2" fill="#404040">
                               <set attributeName="fill" to="#808080" begin="reset.mouseover" end="reset.mouseout"/>
                       </use>
               </g>
        </defs>

<script type="text/javascript">
var viewWidth = 2482;
var viewHeight = 140;
var sectionId = 'dynsection-1';
</script>
<script xlink:href="../../svgpan.js"/>
<svg id="graph" class="graph">
<g id="viewport">
<title>Walker.h</title>
<polygon fill="white" stroke="transparent" points="-4,4 -4,-136 2477.5,-136 2477.5,4 -4,4"/>
<!-- Node1 -->
<g id="node1" class="node">
<title>Node1</title>
<g id="a_node1"><a xlink:title=" ">
<polygon fill="#bfbfbf" stroke="black" points="1922,-112.5 1922,-131.5 1980,-131.5 1980,-112.5 1922,-112.5"/>
<text text-anchor="middle" x="1951" y="-119.5" font-family="Helvetica,sans-Serif" font-size="10.00">Walker.h</text>
</a>
</g>
</g>
<!-- Node2 -->
<g id="node2" class="node">
<title>Node2</title>
<g id="a_node2"><a xlink:href="../../d6/d4a/Simulator_8h.html" target="_top" xlink:title=" ">
<polygon fill="white" stroke="black" points="1211,-56.5 1211,-75.5 1283,-75.5 1283,-56.5 1211,-56.5"/>
<text text-anchor="middle" x="1247" y="-63.5" font-family="Helvetica,sans-Serif" font-size="10.00">Simulator.h</text>
</a>
</g>
</g>
<!-- Node1&#45;&gt;Node2 -->
<g id="edge1" class="edge">
<title>Node1&#45;&gt;Node2</title>
<path fill="none" stroke="midnightblue" d="M1911.41,-117.96C1786.63,-108.39 1402.74,-78.95 1283.03,-69.76"/>
<polygon fill="midnightblue" stroke="midnightblue" points="1911.41,-121.47 1921.65,-118.75 1911.94,-114.49 1911.41,-121.47"/>
</g>
<!-- Node15 -->
<g id="node15" class="node">
<title>Node15</title>
<g id="a_node15"><a xlink:href="../../d6/db6/Walker_8cpp.html" target="_top" xlink:title=" ">
<polygon fill="white" stroke="black" points="2404.5,-0.5 2404.5,-19.5 2473.5,-19.5 2473.5,-0.5 2404.5,-0.5"/>
<text text-anchor="middle" x="2439" y="-7.5" font-family="Helvetica,sans-Serif" font-size="10.00">Walker.cpp</text>
</a>
</g>
</g>
<!-- Node1&#45;&gt;Node15 -->
<g id="edge24" class="edge">
<title>Node1&#45;&gt;Node15</title>
<path fill="none" stroke="midnightblue" d="M1925.32,-107.4C1903.41,-94.1 1877.82,-73.38 1894,-56 1932.1,-15.07 2340.62,-27.75 2396,-20 2398.72,-19.62 2401.52,-19.17 2404.34,-18.67"/>
<polygon fill="midnightblue" stroke="midnightblue" points="1923.64,-110.47 1934.04,-112.44 1927.14,-104.41 1923.64,-110.47"/>
</g>
<!-- Node24 -->
<g id="node24" class="node">
<title>Node24</title>
<g id="a_node24"><a xlink:href="../../df/dd6/ActorFactory_8cpp.html" target="_top" xlink:title=" ">
<polygon fill="white" stroke="black" points="1903,-56.5 1903,-75.5 1999,-75.5 1999,-56.5 1903,-56.5"/>
<text text-anchor="middle" x="1951" y="-63.5" font-family="Helvetica,sans-Serif" font-size="10.00">ActorFactory.cpp</text>
</a>
</g>
</g>
<!-- Node1&#45;&gt;Node24 -->
<g id="edge23" class="edge">
<title>Node1&#45;&gt;Node24</title>
<path fill="none" stroke="midnightblue" d="M1951,-101.8C1951,-92.91 1951,-82.78 1951,-75.75"/>
<polygon fill="midnightblue" stroke="midnightblue" points="1947.5,-102.08 1951,-112.08 1954.5,-102.08 1947.5,-102.08"/>
</g>
<!-- Node25 -->
<g id="node25" class="node">
<title>Node25</title>
<g id="a_node25"><a xlink:href="../../d0/dce/RssCheck_8cpp.html" target="_top" xlink:title=" ">
<polygon fill="white" stroke="black" points="2017,-56.5 2017,-75.5 2101,-75.5 2101,-56.5 2017,-56.5"/>
<text text-anchor="middle" x="2059" y="-63.5" font-family="Helvetica,sans-Serif" font-size="10.00">RssCheck.cpp</text>
</a>
</g>
</g>
<!-- Node1&#45;&gt;Node25 -->
<g id="edge25" class="edge">
<title>Node1&#45;&gt;Node25</title>
<path fill="none" stroke="midnightblue" d="M1977.55,-107.73C1997.55,-97.73 2024.39,-84.31 2041.69,-75.65"/>
<polygon fill="midnightblue" stroke="midnightblue" points="1975.73,-104.72 1968.35,-112.32 1978.86,-110.98 1975.73,-104.72"/>
</g>
<!-- Node26 -->
<g id="node26" class="node">
<title>Node26</title>
<g id="a_node26"><a xlink:href="../../d9/da8/ALSM_8cpp.html" target="_top" xlink:title=" ">
<polygon fill="white" stroke="black" points="2119,-56.5 2119,-75.5 2183,-75.5 2183,-56.5 2119,-56.5"/>
<text text-anchor="middle" x="2151" y="-63.5" font-family="Helvetica,sans-Serif" font-size="10.00">ALSM.cpp</text>
</a>
</g>
</g>
<!-- Node1&#45;&gt;Node26 -->
<g id="edge26" class="edge">
<title>Node1&#45;&gt;Node26</title>
<path fill="none" stroke="midnightblue" d="M1990.19,-110.42C2027.91,-100.23 2084.24,-85.03 2119.24,-75.58"/>
<polygon fill="midnightblue" stroke="midnightblue" points="1988.82,-107.16 1980.08,-113.15 1990.65,-113.92 1988.82,-107.16"/>
</g>
<!-- Node3 -->
<g id="node3" class="node">
<title>Node3</title>
<g id="a_node3"><a xlink:href="../../d4/d34/Actor_8cpp.html" target="_top" xlink:title=" ">
<polygon fill="white" stroke="black" points="0,-0.5 0,-19.5 62,-19.5 62,-0.5 0,-0.5"/>
<text text-anchor="middle" x="31" y="-7.5" font-family="Helvetica,sans-Serif" font-size="10.00">Actor.cpp</text>
</a>
</g>
</g>
<!-- Node2&#45;&gt;Node3 -->
<g id="edge2" class="edge">
<title>Node2&#45;&gt;Node3</title>
<path fill="none" stroke="midnightblue" d="M1200.75,-64.36C1011.47,-61.57 295.31,-49.28 71,-20 68.18,-19.63 65.26,-19.16 62.35,-18.62"/>
<polygon fill="midnightblue" stroke="midnightblue" points="1200.86,-67.86 1210.91,-64.51 1200.97,-60.86 1200.86,-67.86"/>
</g>
<!-- Node4 -->
<g id="node4" class="node">
<title>Node4</title>
<g id="a_node4"><a xlink:href="../../dd/de3/client_2Client_8h.html" target="_top" xlink:title=" ">
<polygon fill="white" stroke="black" points="80,-0.5 80,-19.5 134,-19.5 134,-0.5 80,-0.5"/>
<text text-anchor="middle" x="107" y="-7.5" font-family="Helvetica,sans-Serif" font-size="10.00">Client.h</text>
</a>
</g>
</g>
<!-- Node2&#45;&gt;Node4 -->
<g id="edge3" class="edge">
<title>Node2&#45;&gt;Node4</title>
<path fill="none" stroke="midnightblue" d="M1200.9,-64.38C1019.18,-61.72 352.19,-50.09 143,-20 140.07,-19.58 137.03,-19.02 134.01,-18.38"/>
<polygon fill="midnightblue" stroke="midnightblue" points="1200.88,-67.88 1210.93,-64.52 1200.98,-60.88 1200.88,-67.88"/>
</g>
<!-- Node5 -->
<g id="node5" class="node">
<title>Node5</title>
<g id="a_node5"><a xlink:href="../../d2/d01/DebugHelper_8cpp.html" target="_top" xlink:title=" ">
<polygon fill="white" stroke="black" points="152,-0.5 152,-19.5 252,-19.5 252,-0.5 152,-0.5"/>
<text text-anchor="middle" x="202" y="-7.5" font-family="Helvetica,sans-Serif" font-size="10.00">DebugHelper.cpp</text>
</a>
</g>
</g>
<!-- Node2&#45;&gt;Node5 -->
<g id="edge4" class="edge">
<title>Node2&#45;&gt;Node5</title>
<path fill="none" stroke="midnightblue" d="M1200.59,-64.62C1059.22,-63.1 621.6,-55.63 261,-20 258.11,-19.71 255.15,-19.38 252.17,-19.02"/>
<polygon fill="midnightblue" stroke="midnightblue" points="1200.6,-68.12 1210.64,-64.73 1200.68,-61.12 1200.6,-68.12"/>
</g>
<!-- Node6 -->
<g id="node6" class="node">
<title>Node6</title>
<g id="a_node6"><a xlink:href="../../d2/d6b/EpisodeProxy_8cpp.html" target="_top" xlink:title=" ">
<polygon fill="white" stroke="black" points="270.5,-0.5 270.5,-19.5 371.5,-19.5 371.5,-0.5 270.5,-0.5"/>
<text text-anchor="middle" x="321" y="-7.5" font-family="Helvetica,sans-Serif" font-size="10.00">EpisodeProxy.cpp</text>
</a>
</g>
</g>
<!-- Node2&#45;&gt;Node6 -->
<g id="edge5" class="edge">
<title>Node2&#45;&gt;Node6</title>
<path fill="none" stroke="midnightblue" d="M1200.62,-64.22C1070.73,-61.67 692.47,-51.86 380,-20 377.32,-19.73 374.58,-19.42 371.81,-19.08"/>
<polygon fill="midnightblue" stroke="midnightblue" points="1200.91,-67.72 1210.98,-64.41 1201.04,-60.72 1200.91,-67.72"/>
</g>
<!-- Node7 -->
<g id="node7" class="node">
<title>Node7</title>
<g id="a_node7"><a xlink:href="../../d2/d0c/Simulator_8cpp.html" target="_top" xlink:title=" ">
<polygon fill="white" stroke="black" points="389.5,-0.5 389.5,-19.5 472.5,-19.5 472.5,-0.5 389.5,-0.5"/>
<text text-anchor="middle" x="431" y="-7.5" font-family="Helvetica,sans-Serif" font-size="10.00">Simulator.cpp</text>
</a>
</g>
</g>
<!-- Node2&#45;&gt;Node7 -->
<g id="edge6" class="edge">
<title>Node2&#45;&gt;Node7</title>
<path fill="none" stroke="midnightblue" d="M1200.73,-64.21C1081.22,-61.74 752.58,-52.3 481,-20 478.28,-19.68 475.49,-19.3 472.69,-18.89"/>
<polygon fill="midnightblue" stroke="midnightblue" points="1200.9,-67.71 1210.97,-64.41 1201.04,-60.71 1200.9,-67.71"/>
</g>
<!-- Node8 -->
<g id="node8" class="node">
<title>Node8</title>
<g id="a_node8"><a xlink:href="../../de/d84/WalkerNavigation_8cpp.html" target="_top" xlink:title=" ">
<polygon fill="white" stroke="black" points="490.5,-0.5 490.5,-19.5 613.5,-19.5 613.5,-0.5 490.5,-0.5"/>
<text text-anchor="middle" x="552" y="-7.5" font-family="Helvetica,sans-Serif" font-size="10.00">WalkerNavigation.cpp</text>
</a>
</g>
</g>
<!-- Node2&#45;&gt;Node8 -->
<g id="edge7" class="edge">
<title>Node2&#45;&gt;Node8</title>
<path fill="none" stroke="midnightblue" d="M1200.59,-62.51C1096.88,-56.77 838.52,-41.41 623,-20 619.91,-19.69 616.74,-19.36 613.55,-19.01"/>
<polygon fill="midnightblue" stroke="midnightblue" points="1200.54,-66.02 1210.72,-63.07 1200.92,-59.03 1200.54,-66.02"/>
</g>
<!-- Node9 -->
<g id="node9" class="node">
<title>Node9</title>
<g id="a_node9"><a xlink:href="../../dd/dbc/LibCarla_2source_2carla_2client_2LaneInvasionSensor_8cpp.html" target="_top" xlink:title=" ">
<polygon fill="white" stroke="black" points="632,-0.5 632,-19.5 766,-19.5 766,-0.5 632,-0.5"/>
<text text-anchor="middle" x="699" y="-7.5" font-family="Helvetica,sans-Serif" font-size="10.00">LaneInvasionSensor.cpp</text>
</a>
</g>
</g>
<!-- Node2&#45;&gt;Node9 -->
<g id="edge8" class="edge">
<title>Node2&#45;&gt;Node9</title>
<path fill="none" stroke="midnightblue" d="M1200.81,-60.95C1116.26,-53.45 930.97,-36.67 775,-20 772.09,-19.69 769.13,-19.37 766.13,-19.03"/>
<polygon fill="midnightblue" stroke="midnightblue" points="1200.58,-64.44 1210.85,-61.84 1201.2,-57.47 1200.58,-64.44"/>
</g>
<!-- Node10 -->
<g id="node10" class="node">
<title>Node10</title>
<g id="a_node10"><a xlink:href="../../d3/d1d/LightManager_8cpp.html" target="_top" xlink:title=" ">
<polygon fill="white" stroke="black" points="784.5,-0.5 784.5,-19.5 887.5,-19.5 887.5,-0.5 784.5,-0.5"/>
<text text-anchor="middle" x="836" y="-7.5" font-family="Helvetica,sans-Serif" font-size="10.00">LightManager.cpp</text>
</a>
</g>
</g>
<!-- Node2&#45;&gt;Node10 -->
<g id="edge9" class="edge">
<title>Node2&#45;&gt;Node10</title>
<path fill="none" stroke="midnightblue" d="M1200.72,-59.33C1133.7,-51.05 1005.73,-35.01 897,-20 893.92,-19.58 890.76,-19.13 887.58,-18.68"/>
<polygon fill="midnightblue" stroke="midnightblue" points="1200.59,-62.84 1210.95,-60.59 1201.45,-55.89 1200.59,-62.84"/>
</g>
<!-- Node11 -->
<g id="node11" class="node">
<title>Node11</title>
<g id="a_node11"><a xlink:href="../../d1/da0/ServerSideSensor_8cpp.html" target="_top" xlink:title=" ">
<polygon fill="white" stroke="black" points="906,-0.5 906,-19.5 1028,-19.5 1028,-0.5 906,-0.5"/>
<text text-anchor="middle" x="967" y="-7.5" font-family="Helvetica,sans-Serif" font-size="10.00">ServerSideSensor.cpp</text>
</a>
</g>
</g>
<!-- Node2&#45;&gt;Node11 -->
<g id="edge10" class="edge">
<title>Node2&#45;&gt;Node11</title>
<path fill="none" stroke="midnightblue" d="M1200.91,-56.11C1148.33,-45.97 1062.96,-29.51 1011.19,-19.52"/>
<polygon fill="midnightblue" stroke="midnightblue" points="1200.49,-59.59 1210.97,-58.05 1201.81,-52.72 1200.49,-59.59"/>
</g>
<!-- Node12 -->
<g id="node12" class="node">
<title>Node12</title>
<g id="a_node12"><a xlink:href="../../dd/d90/TrafficLight_8cpp.html" target="_top" xlink:title=" ">
<polygon fill="white" stroke="black" points="1046,-0.5 1046,-19.5 1136,-19.5 1136,-0.5 1046,-0.5"/>
<text text-anchor="middle" x="1091" y="-7.5" font-family="Helvetica,sans-Serif" font-size="10.00">TrafficLight.cpp</text>
</a>
</g>
</g>
<!-- Node2&#45;&gt;Node12 -->
<g id="edge11" class="edge">
<title>Node2&#45;&gt;Node12</title>
<path fill="none" stroke="midnightblue" d="M1212.83,-53.17C1183.46,-43 1141.8,-28.59 1115.6,-19.52"/>
<polygon fill="midnightblue" stroke="midnightblue" points="1211.69,-56.48 1222.28,-56.44 1213.98,-49.86 1211.69,-56.48"/>
</g>
<!-- Node13 -->
<g id="node13" class="node">
<title>Node13</title>
<g id="a_node13"><a xlink:href="../../d1/d40/TrafficSign_8cpp.html" target="_top" xlink:title=" ">
<polygon fill="white" stroke="black" points="1154.5,-0.5 1154.5,-19.5 1241.5,-19.5 1241.5,-0.5 1154.5,-0.5"/>
<text text-anchor="middle" x="1198" y="-7.5" font-family="Helvetica,sans-Serif" font-size="10.00">TrafficSign.cpp</text>
</a>
</g>
</g>
<!-- Node2&#45;&gt;Node13 -->
<g id="edge12" class="edge">
<title>Node2&#45;&gt;Node13</title>
<path fill="none" stroke="midnightblue" d="M1231.97,-48.43C1223.38,-38.97 1212.96,-27.48 1205.94,-19.75"/>
<polygon fill="midnightblue" stroke="midnightblue" points="1229.6,-51.03 1238.91,-56.08 1234.78,-46.33 1229.6,-51.03"/>
</g>
<!-- Node14 -->
<g id="node14" class="node">
<title>Node14</title>
<g id="a_node14"><a xlink:href="../../d0/d27/Vehicle_8cpp.html" target="_top" xlink:title=" ">
<polygon fill="white" stroke="black" points="1260,-0.5 1260,-19.5 1332,-19.5 1332,-0.5 1260,-0.5"/>
<text text-anchor="middle" x="1296" y="-7.5" font-family="Helvetica,sans-Serif" font-size="10.00">Vehicle.cpp</text>
</a>
</g>
</g>
<!-- Node2&#45;&gt;Node14 -->
<g id="edge13" class="edge">
<title>Node2&#45;&gt;Node14</title>
<path fill="none" stroke="midnightblue" d="M1262.03,-48.43C1270.62,-38.97 1281.04,-27.48 1288.06,-19.75"/>
<polygon fill="midnightblue" stroke="midnightblue" points="1259.22,-46.33 1255.09,-56.08 1264.4,-51.03 1259.22,-46.33"/>
</g>
<!-- Node2&#45;&gt;Node15 -->
<g id="edge14" class="edge">
<title>Node2&#45;&gt;Node15</title>
<path fill="none" stroke="midnightblue" d="M1293.1,-64.22C1479.39,-60.93 2177,-47.02 2396,-20 2398.73,-19.66 2401.53,-19.24 2404.35,-18.77"/>
<polygon fill="midnightblue" stroke="midnightblue" points="1293.03,-60.72 1283.09,-64.4 1293.15,-67.72 1293.03,-60.72"/>
</g>
<!-- Node16 -->
<g id="node16" class="node">
<title>Node16</title>
<g id="a_node16"><a xlink:href="../../de/d69/WalkerAIController_8cpp.html" target="_top" xlink:title=" ">
<polygon fill="white" stroke="black" points="1350.5,-0.5 1350.5,-19.5 1477.5,-19.5 1477.5,-0.5 1350.5,-0.5"/>
<text text-anchor="middle" x="1414" y="-7.5" font-family="Helvetica,sans-Serif" font-size="10.00">WalkerAIController.cpp</text>
</a>
</g>
</g>
<!-- Node2&#45;&gt;Node16 -->
<g id="edge15" class="edge">
<title>Node2&#45;&gt;Node16</title>
<path fill="none" stroke="midnightblue" d="M1283.17,-53.3C1314.64,-43.13 1359.49,-28.62 1387.66,-19.52"/>
<polygon fill="midnightblue" stroke="midnightblue" points="1281.9,-50.04 1273.46,-56.44 1284.05,-56.7 1281.9,-50.04"/>
</g>
<!-- Node17 -->
<g id="node17" class="node">
<title>Node17</title>
<g id="a_node17"><a xlink:href="../../d7/dfe/World_8cpp.html" target="_top" xlink:title=" ">
<polygon fill="white" stroke="black" points="1495.5,-0.5 1495.5,-19.5 1560.5,-19.5 1560.5,-0.5 1495.5,-0.5"/>
<text text-anchor="middle" x="1528" y="-7.5" font-family="Helvetica,sans-Serif" font-size="10.00">World.cpp</text>
</a>
</g>
</g>
<!-- Node2&#45;&gt;Node17 -->
<g id="edge16" class="edge">
<title>Node2&#45;&gt;Node17</title>
<path fill="none" stroke="midnightblue" d="M1293.21,-56.65C1341.39,-47.87 1419.09,-33.47 1486,-20 1489.07,-19.38 1492.26,-18.72 1495.46,-18.06"/>
<polygon fill="midnightblue" stroke="midnightblue" points="1292.3,-53.26 1283.09,-58.49 1293.56,-60.15 1292.3,-53.26"/>
</g>
<!-- Node18 -->
<g id="node18" class="node">
<title>Node18</title>
<g id="a_node18"><a xlink:href="../../d2/dbb/WalkerManager_8cpp.html" target="_top" xlink:title=" ">
<polygon fill="white" stroke="black" points="1579,-0.5 1579,-19.5 1691,-19.5 1691,-0.5 1579,-0.5"/>
<text text-anchor="middle" x="1635" y="-7.5" font-family="Helvetica,sans-Serif" font-size="10.00">WalkerManager.cpp</text>
</a>
</g>
</g>
<!-- Node2&#45;&gt;Node18 -->
<g id="edge17" class="edge">
<title>Node2&#45;&gt;Node18</title>
<path fill="none" stroke="midnightblue" d="M1293.21,-58.57C1364.71,-48.62 1501.92,-29.52 1578.96,-18.8"/>
<polygon fill="midnightblue" stroke="midnightblue" points="1292.58,-55.12 1283.15,-59.97 1293.54,-62.06 1292.58,-55.12"/>
</g>
<!-- Node19 -->
<g id="node19" class="node">
<title>Node19</title>
<g id="a_node19"><a xlink:href="../../d8/d77/LibCarla_2source_2carla_2rss_2RssSensor_8cpp.html" target="_top" xlink:title=" ">
<polygon fill="white" stroke="black" points="1709,-0.5 1709,-19.5 1795,-19.5 1795,-0.5 1709,-0.5"/>
<text text-anchor="middle" x="1752" y="-7.5" font-family="Helvetica,sans-Serif" font-size="10.00">RssSensor.cpp</text>
</a>
</g>
</g>
<!-- Node2&#45;&gt;Node19 -->
<g id="edge18" class="edge">
<title>Node2&#45;&gt;Node19</title>
<path fill="none" stroke="midnightblue" d="M1293.22,-61.52C1375.32,-55.09 1551.87,-40.15 1700,-20 1702.91,-19.6 1705.9,-19.17 1708.91,-18.71"/>
<polygon fill="midnightblue" stroke="midnightblue" points="1292.92,-58.03 1283.22,-62.3 1293.46,-65.01 1292.92,-58.03"/>
</g>
<!-- Node20 -->
<g id="node20" class="node">
<title>Node20</title>
<g id="a_node20"><a xlink:href="../../d6/d75/LaneInvasionEvent_8cpp.html" target="_top" xlink:title=" ">
<polygon fill="white" stroke="black" points="1813.5,-0.5 1813.5,-19.5 1942.5,-19.5 1942.5,-0.5 1813.5,-0.5"/>
<text text-anchor="middle" x="1878" y="-7.5" font-family="Helvetica,sans-Serif" font-size="10.00">LaneInvasionEvent.cpp</text>
</a>
</g>
</g>
<!-- Node2&#45;&gt;Node20 -->
<g id="edge19" class="edge">
<title>Node2&#45;&gt;Node20</title>
<path fill="none" stroke="midnightblue" d="M1293.41,-61.89C1389.03,-55.33 1614.9,-39.13 1804,-20 1807.09,-19.69 1810.25,-19.35 1813.44,-19.01"/>
<polygon fill="midnightblue" stroke="midnightblue" points="1292.95,-58.41 1283.21,-62.58 1293.43,-65.39 1292.95,-58.41"/>
</g>
<!-- Node21 -->
<g id="node21" class="node">
<title>Node21</title>
<g id="a_node21"><a xlink:href="../../db/d04/TrafficManager_8cpp.html" target="_top" xlink:title=" ">
<polygon fill="white" stroke="black" points="1961,-0.5 1961,-19.5 2069,-19.5 2069,-0.5 1961,-0.5"/>
<text text-anchor="middle" x="2015" y="-7.5" font-family="Helvetica,sans-Serif" font-size="10.00">TrafficManager.cpp</text>
</a>
</g>
</g>
<!-- Node2&#45;&gt;Node21 -->
<g id="edge20" class="edge">
<title>Node2&#45;&gt;Node21</title>
<path fill="none" stroke="midnightblue" d="M1293.03,-63.31C1405.69,-58.9 1704.15,-45.57 1952,-20 1954.86,-19.71 1957.78,-19.38 1960.74,-19.03"/>
<polygon fill="midnightblue" stroke="midnightblue" points="1292.89,-59.81 1283.03,-63.7 1293.16,-66.81 1292.89,-59.81"/>
</g>
<!-- Node22 -->
<g id="node22" class="node">
<title>Node22</title>
<g id="a_node22"><a xlink:href="../../da/d53/TrafficManagerLocal_8cpp.html" target="_top" xlink:title=" ">
<polygon fill="white" stroke="black" points="2087,-0.5 2087,-19.5 2221,-19.5 2221,-0.5 2087,-0.5"/>
<text text-anchor="middle" x="2154" y="-7.5" font-family="Helvetica,sans-Serif" font-size="10.00">TrafficManagerLocal.cpp</text>
</a>
</g>
</g>
<!-- Node2&#45;&gt;Node22 -->
<g id="edge21" class="edge">
<title>Node2&#45;&gt;Node22</title>
<path fill="none" stroke="midnightblue" d="M1293.16,-63.53C1419.15,-59.31 1779.42,-45.74 2078,-20 2080.91,-19.75 2083.89,-19.47 2086.89,-19.18"/>
<polygon fill="midnightblue" stroke="midnightblue" points="1292.98,-60.04 1283.1,-63.87 1293.21,-67.03 1292.98,-60.04"/>
</g>
<!-- Node23 -->
<g id="node23" class="node">
<title>Node23</title>
<g id="a_node23"><a xlink:href="../../d6/d82/TrafficManagerRemote_8cpp.html" target="_top" xlink:title=" ">
<polygon fill="white" stroke="black" points="2239.5,-0.5 2239.5,-19.5 2386.5,-19.5 2386.5,-0.5 2239.5,-0.5"/>
<text text-anchor="middle" x="2313" y="-7.5" font-family="Helvetica,sans-Serif" font-size="10.00">TrafficManagerRemote.cpp</text>
</a>
</g>
</g>
<!-- Node2&#45;&gt;Node23 -->
<g id="edge22" class="edge">
<title>Node2&#45;&gt;Node23</title>
<path fill="none" stroke="midnightblue" d="M1293.21,-63.91C1433.97,-60.36 1869.82,-47.75 2230,-20 2233.03,-19.77 2236.13,-19.51 2239.26,-19.24"/>
<polygon fill="midnightblue" stroke="midnightblue" points="1293.11,-60.41 1283.2,-64.16 1293.28,-67.41 1293.11,-60.41"/>
</g>
</g>
</svg>
        <g id="navigator" transform="translate(0 0)" fill="#404254">
                <rect fill="#f2f5e9" fill-opacity="0.5" stroke="#606060" stroke-width=".5" x="0" y="0" width="60" height="60"/>
                <use id="zoomplus" xlink:href="#zoomPlus" x="17" y="9" onmousedown="handleZoom(evt,'in')"/>
                <use id="zoomminus" xlink:href="#zoomMin" x="42" y="9" onmousedown="handleZoom(evt,'out')"/>
                <use id="reset" xlink:href="#resetDef" x="30" y="36" onmousedown="handleReset()"/>
                <g id="arrowUp" xlink:href="#dirArrow" transform="translate(30 24)" onmousedown="handlePan(0,-1)">
                  <use xlink:href="#rim" fill="#404040">
                        <set attributeName="fill" to="#808080" begin="arrowUp.mouseover" end="arrowUp.mouseout"/>
                  </use>
                  <path fill="none" stroke="white" stroke-width="1.5" d="M0,-3.0v7 M-2.5,-0.5L0,-3.0L2.5,-0.5"/>
                </g>
                <g id="arrowRight" xlink:href="#dirArrow" transform="rotate(90) translate(36 -43)" onmousedown="handlePan(1,0)">
                  <use xlink:href="#rim" fill="#404040">
                        <set attributeName="fill" to="#808080" begin="arrowRight.mouseover" end="arrowRight.mouseout"/>
                  </use>
                  <path fill="none" stroke="white" stroke-width="1.5" d="M0,-3.0v7 M-2.5,-0.5L0,-3.0L2.5,-0.5"/>
                </g>
                <g id="arrowDown" xlink:href="#dirArrow" transform="rotate(180) translate(-30 -48)" onmousedown="handlePan(0,1)">
                  <use xlink:href="#rim" fill="#404040">
                        <set attributeName="fill" to="#808080" begin="arrowDown.mouseover" end="arrowDown.mouseout"/>
                  </use>
                  <path fill="none" stroke="white" stroke-width="1.5" d="M0,-3.0v7 M-2.5,-0.5L0,-3.0L2.5,-0.5"/>
                </g>
                <g id="arrowLeft" xlink:href="#dirArrow" transform="rotate(270) translate(-36 17)" onmousedown="handlePan(-1,0)">
                  <use xlink:href="#rim" fill="#404040">
                        <set attributeName="fill" to="#808080" begin="arrowLeft.mouseover" end="arrowLeft.mouseout"/>
                  </use>
                  <path fill="none" stroke="white" stroke-width="1.5" d="M0,-3.0v7 M-2.5,-0.5L0,-3.0L2.5,-0.5"/>
                </g>
        </g>
        <svg viewBox="0 0 15 15" width="100%" height="30px" preserveAspectRatio="xMaxYMin meet">
         <g id="arrow_out" transform="scale(0.3 0.3)">
          <a xlink:href="Walker_8h__dep__incl_org.svg" target="_base">
           <rect id="button" ry="5" rx="5" y="6" x="6" height="38" width="38"
                fill="#f2f5e9" fill-opacity="0.5" stroke="#606060" stroke-width="1.0"/>
           <path id="arrow"
             d="M 11.500037,31.436501 C 11.940474,20.09759 22.043105,11.32322 32.158766,21.979434 L 37.068811,17.246167 C 37.068811,17.246167 37.088388,32 37.088388,32 L 22.160133,31.978069 C 22.160133,31.978069 26.997745,27.140456 26.997745,27.140456 C 18.528582,18.264221 13.291696,25.230495 11.500037,31.436501 z"
             style="fill:#404040;"/>
          </a>
         </g>
        </svg>
</svg>
