<?xml version="1.0" encoding="UTF-8" standalone="no"?>
<!DOCTYPE svg PUBLIC "-//W3C//DTD SVG 1.1//EN"
 "http://www.w3.org/Graphics/SVG/1.1/DTD/svg11.dtd">
<!-- Generated by graphviz version 2.40.1 (20161225.0304)
 -->
<!-- Title: UOpenDriveMap::HasMap Pages: 1 -->
<svg width="848pt" height="304pt"
 viewBox="0.00 0.00 848.00 303.50" xmlns="http://www.w3.org/2000/svg" xmlns:xlink="http://www.w3.org/1999/xlink">
<g id="graph0" class="graph" transform="scale(1 1) rotate(0) translate(4 299.5)">
<title>UOpenDriveMap::HasMap</title>
<polygon fill="#ffffff" stroke="transparent" points="-4,4 -4,-299.5 844,-299.5 844,4 -4,4"/>
<!-- Node58 -->
<g id="node1" class="node">
<title>Node58</title>
<polygon fill="#bfbfbf" stroke="#000000" points="0,-137 0,-156 141,-156 141,-137 0,-137"/>
<text text-anchor="middle" x="70.5" y="-144" font-family="Helvetica,sans-Serif" font-size="10.00" fill="#000000">UOpenDriveMap::HasMap</text>
</g>
<!-- Node59 -->
<g id="node2" class="node">
<title>Node59</title>
<g id="a_node2"><a xlink:href="../../d8/dfe/classUOpenDriveMap.html#ac2e4b736aedc292dd6abd91be62db773" target="_top" xlink:title="Compute the transform of a waypoint. ">
<polygon fill="#ffffff" stroke="#000000" points="178.5,-257 178.5,-276 373.5,-276 373.5,-257 178.5,-257"/>
<text text-anchor="middle" x="276" y="-264" font-family="Helvetica,sans-Serif" font-size="10.00" fill="#000000">UOpenDriveMap::ComputeTransform</text>
</a>
</g>
</g>
<!-- Node58&#45;&gt;Node59 -->
<g id="edge1" class="edge">
<title>Node58&#45;&gt;Node59</title>
<path fill="none" stroke="#191970" d="M83.6456,-164.094C101.8983,-187.1565 137.1989,-227.0688 177,-247.5 184.5513,-251.3763 192.7947,-254.4658 201.1969,-256.9275"/>
<polygon fill="#191970" stroke="#191970" points="86.3953,-161.9282 77.511,-156.1558 80.8565,-166.2086 86.3953,-161.9282"/>
</g>
<!-- Node63 -->
<g id="node6" class="node">
<title>Node63</title>
<g id="a_node6"><a xlink:href="../../d8/dfe/classUOpenDriveMap.html#a06e25b945b7bddf710f968d6140c9bff" target="_top" xlink:title="Generate the minimum set of waypoints that define the topology of this map. ">
<polygon fill="#ffffff" stroke="#000000" points="180.5,-219 180.5,-238 371.5,-238 371.5,-219 180.5,-219"/>
<text text-anchor="middle" x="276" y="-226" font-family="Helvetica,sans-Serif" font-size="10.00" fill="#000000">UOpenDriveMap::GenerateTopology</text>
</a>
</g>
</g>
<!-- Node58&#45;&gt;Node63 -->
<g id="edge5" class="edge">
<title>Node58&#45;&gt;Node63</title>
<path fill="none" stroke="#191970" d="M91.5472,-161.9366C112.2675,-176.3903 145.3231,-197.508 177,-209.5 187.2297,-213.3727 198.3653,-216.4869 209.3547,-218.9822"/>
<polygon fill="#191970" stroke="#191970" points="93.3825,-158.9472 83.2033,-156.0089 89.3284,-164.6537 93.3825,-158.9472"/>
</g>
<!-- Node64 -->
<g id="node7" class="node">
<title>Node64</title>
<g id="a_node7"><a xlink:href="../../d8/dfe/classUOpenDriveMap.html#ad28bf91838a10d8a1803d52c558be5a0" target="_top" xlink:title="Generate waypoints all over the map at an approximated distance. ">
<polygon fill="#ffffff" stroke="#000000" points="177,-181 177,-200 375,-200 375,-181 177,-181"/>
<text text-anchor="middle" x="276" y="-188" font-family="Helvetica,sans-Serif" font-size="10.00" fill="#000000">UOpenDriveMap::GenerateWaypoints</text>
</a>
</g>
</g>
<!-- Node58&#45;&gt;Node64 -->
<g id="edge6" class="edge">
<title>Node58&#45;&gt;Node64</title>
<path fill="none" stroke="#191970" d="M119.1331,-158.3584C137.2602,-162.6618 158.0365,-167.4563 177,-171.5 192.3191,-174.7666 209.0273,-178.0714 224.2808,-180.9885"/>
<polygon fill="#191970" stroke="#191970" points="119.9027,-154.9439 109.3633,-156.0261 118.2772,-161.7525 119.9027,-154.9439"/>
</g>
<!-- Node65 -->
<g id="node8" class="node">
<title>Node65</title>
<g id="a_node8"><a xlink:href="../../d8/dfe/classUOpenDriveMap.html#a4cff5136b5d6c47fd06cccfddcf4da39" target="_top" xlink:title="Generate waypoints on each lane at the start of each road. ">
<polygon fill="#ffffff" stroke="#000000" points="177,-131.5 177,-161.5 375,-161.5 375,-131.5 177,-131.5"/>
<text text-anchor="start" x="185" y="-149.5" font-family="Helvetica,sans-Serif" font-size="10.00" fill="#000000">UOpenDriveMap::GenerateWaypoints</text>
<text text-anchor="middle" x="276" y="-138.5" font-family="Helvetica,sans-Serif" font-size="10.00" fill="#000000">OnRoadEntries</text>
</a>
</g>
</g>
<!-- Node58&#45;&gt;Node65 -->
<g id="edge7" class="edge">
<title>Node58&#45;&gt;Node65</title>
<path fill="none" stroke="#191970" d="M151.3219,-146.5C159.6985,-146.5 168.2789,-146.5 176.8264,-146.5"/>
<polygon fill="#191970" stroke="#191970" points="151.2215,-143.0001 141.2214,-146.5 151.2214,-150.0001 151.2215,-143.0001"/>
</g>
<!-- Node66 -->
<g id="node9" class="node">
<title>Node66</title>
<g id="a_node9"><a xlink:href="../../d8/dfe/classUOpenDriveMap.html#ad1ed4995dd03e6cec22d1fd83c967070" target="_top" xlink:title="Given a location, return the closest point on the centre of a lane. ">
<polygon fill="#ffffff" stroke="#000000" points="198.5,-82.5 198.5,-112.5 353.5,-112.5 353.5,-82.5 198.5,-82.5"/>
<text text-anchor="start" x="206.5" y="-100.5" font-family="Helvetica,sans-Serif" font-size="10.00" fill="#000000">UOpenDriveMap::GetClosest</text>
<text text-anchor="middle" x="276" y="-89.5" font-family="Helvetica,sans-Serif" font-size="10.00" fill="#000000">WaypointOnRoad</text>
</a>
</g>
</g>
<!-- Node58&#45;&gt;Node66 -->
<g id="edge8" class="edge">
<title>Node58&#45;&gt;Node66</title>
<path fill="none" stroke="#191970" d="M120.5195,-134.5732C148.3469,-127.938 183.2527,-119.6149 212.9368,-112.537"/>
<polygon fill="#191970" stroke="#191970" points="119.5258,-131.2119 110.6103,-136.936 121.1494,-138.0211 119.5258,-131.2119"/>
</g>
<!-- Node67 -->
<g id="node10" class="node">
<title>Node67</title>
<g id="a_node10"><a xlink:href="../../d8/dfe/classUOpenDriveMap.html#acd24011ce2cb7bf4b01b605329adae24" target="_top" xlink:title="Return the list of waypoints at a given distance such that a vehicle at waypoint could drive to...">
<polygon fill="#ffffff" stroke="#000000" points="204.5,-44 204.5,-63 347.5,-63 347.5,-44 204.5,-44"/>
<text text-anchor="middle" x="276" y="-51" font-family="Helvetica,sans-Serif" font-size="10.00" fill="#000000">UOpenDriveMap::GetNext</text>
</a>
</g>
</g>
<!-- Node58&#45;&gt;Node67 -->
<g id="edge9" class="edge">
<title>Node58&#45;&gt;Node67</title>
<path fill="none" stroke="#191970" d="M89.2231,-130.1552C109.4774,-113.357 143.3992,-87.7107 177,-73.5 187.2551,-69.1628 198.5139,-65.7468 209.6475,-63.0617"/>
<polygon fill="#191970" stroke="#191970" points="86.7961,-127.6239 81.4202,-136.7536 91.3161,-132.9689 86.7961,-127.6239"/>
</g>
<!-- Node68 -->
<g id="node11" class="node">
<title>Node68</title>
<g id="a_node11"><a xlink:href="../../d8/dfe/classUOpenDriveMap.html#a0ce422ee1f79211e6957bab1d2048348" target="_top" xlink:title="Load this map with an OpenDrive (XODR) file. ">
<polygon fill="#ffffff" stroke="#000000" points="213.5,-6 213.5,-25 338.5,-25 338.5,-6 213.5,-6"/>
<text text-anchor="middle" x="276" y="-13" font-family="Helvetica,sans-Serif" font-size="10.00" fill="#000000">UOpenDriveMap::Load</text>
</a>
</g>
</g>
<!-- Node58&#45;&gt;Node68 -->
<g id="edge10" class="edge">
<title>Node58&#45;&gt;Node68</title>
<path fill="none" stroke="#191970" d="M82.1652,-128.4549C99.5709,-103.1196 134.8489,-57.5321 177,-34.5 188.1345,-28.4159 200.9026,-24.254 213.4859,-21.4135"/>
<polygon fill="#191970" stroke="#191970" points="79.2374,-126.5368 76.5815,-136.7933 85.0538,-130.4316 79.2374,-126.5368"/>
</g>
<!-- Node60 -->
<g id="node3" class="node">
<title>Node60</title>
<g id="a_node3"><a xlink:href="../../d8/dfe/classUOpenDriveMap.html#abba6cb000173e63b49fda598c0369452" target="_top" xlink:title="Compute the location of a waypoint. ">
<polygon fill="#ffffff" stroke="#000000" points="417,-276 417,-295 605,-295 605,-276 417,-276"/>
<text text-anchor="middle" x="511" y="-283" font-family="Helvetica,sans-Serif" font-size="10.00" fill="#000000">UOpenDriveMap::ComputeLocation</text>
</a>
</g>
</g>
<!-- Node59&#45;&gt;Node60 -->
<g id="edge2" class="edge">
<title>Node59&#45;&gt;Node60</title>
<path fill="none" stroke="#191970" d="M383.694,-275.2072C394.7117,-276.098 405.8451,-276.9981 416.7032,-277.876"/>
<polygon fill="#191970" stroke="#191970" points="383.8691,-271.71 373.6196,-274.3926 383.305,-278.6872 383.8691,-271.71"/>
</g>
<!-- Node62 -->
<g id="node5" class="node">
<title>Node62</title>
<g id="a_node5"><a xlink:href="../../d8/dfe/classUOpenDriveMap.html#aabcef6e59894a43d7434d9defbc18cbf" target="_top" xlink:title="Compute the transforms of an array of waypoints. ">
<polygon fill="#ffffff" stroke="#000000" points="411,-238 411,-257 611,-257 611,-238 411,-238"/>
<text text-anchor="middle" x="511" y="-245" font-family="Helvetica,sans-Serif" font-size="10.00" fill="#000000">UOpenDriveMap::ComputeTransforms</text>
</a>
</g>
</g>
<!-- Node59&#45;&gt;Node62 -->
<g id="edge4" class="edge">
<title>Node59&#45;&gt;Node62</title>
<path fill="none" stroke="#191970" d="M383.709,-257.7916C392.6841,-257.066 401.736,-256.3341 410.6532,-255.6131"/>
<polygon fill="#191970" stroke="#191970" points="383.305,-254.3128 373.6196,-258.6074 383.8691,-261.29 383.305,-254.3128"/>
</g>
<!-- Node61 -->
<g id="node4" class="node">
<title>Node61</title>
<g id="a_node4"><a xlink:href="../../d8/dfe/classUOpenDriveMap.html#a8d7347131f7cb4203d4f18b5b64a23ba" target="_top" xlink:title="Compute the locations of an array of waypoints. ">
<polygon fill="#ffffff" stroke="#000000" points="647,-276 647,-295 840,-295 840,-276 647,-276"/>
<text text-anchor="middle" x="743.5" y="-283" font-family="Helvetica,sans-Serif" font-size="10.00" fill="#000000">UOpenDriveMap::ComputeLocations</text>
</a>
</g>
</g>
<!-- Node60&#45;&gt;Node61 -->
<g id="edge3" class="edge">
<title>Node60&#45;&gt;Node61</title>
<path fill="none" stroke="#191970" d="M615.2636,-285.5C625.7814,-285.5 636.4314,-285.5 646.8644,-285.5"/>
<polygon fill="#191970" stroke="#191970" points="615.2315,-282.0001 605.2315,-285.5 615.2314,-289.0001 615.2315,-282.0001"/>
</g>
<!-- Node69 -->
<g id="node12" class="node">
<title>Node69</title>
<g id="a_node12"><a xlink:href="../../d1/d1b/classUOpenDrive.html#ac05b8dc3f340e373582945f9215081d9" target="_top" xlink:title="Load OpenDriveMap associated to the given MapName. ">
<polygon fill="#ffffff" stroke="#000000" points="422.5,-6 422.5,-25 599.5,-25 599.5,-6 422.5,-6"/>
<text text-anchor="middle" x="511" y="-13" font-family="Helvetica,sans-Serif" font-size="10.00" fill="#000000">UOpenDrive::LoadOpenDriveMap</text>
</a>
</g>
</g>
<!-- Node68&#45;&gt;Node69 -->
<g id="edge11" class="edge">
<title>Node68&#45;&gt;Node69</title>
<path fill="none" stroke="#191970" d="M348.815,-15.5C372.1144,-15.5 398.1682,-15.5 422.4607,-15.5"/>
<polygon fill="#191970" stroke="#191970" points="348.667,-12.0001 338.667,-15.5 348.6669,-19.0001 348.667,-12.0001"/>
</g>
<!-- Node70 -->
<g id="node13" class="node">
<title>Node70</title>
<g id="a_node13"><a xlink:href="../../d1/d1b/classUOpenDrive.html#a4486c7ee9d4a8bf6cd2a7ca5ad7e4ece" target="_top" xlink:title="Load OpenDriveMap associated to the currently loaded map. ">
<polygon fill="#ffffff" stroke="#000000" points="660,-.5 660,-30.5 827,-30.5 827,-.5 660,-.5"/>
<text text-anchor="start" x="668" y="-18.5" font-family="Helvetica,sans-Serif" font-size="10.00" fill="#000000">UOpenDrive::LoadCurrentOpen</text>
<text text-anchor="middle" x="743.5" y="-7.5" font-family="Helvetica,sans-Serif" font-size="10.00" fill="#000000">DriveMap</text>
</a>
</g>
</g>
<!-- Node69&#45;&gt;Node70 -->
<g id="edge12" class="edge">
<title>Node69&#45;&gt;Node70</title>
<path fill="none" stroke="#191970" d="M609.8396,-15.5C626.4678,-15.5 643.5822,-15.5 659.7803,-15.5"/>
<polygon fill="#191970" stroke="#191970" points="609.5616,-12.0001 599.5615,-15.5 609.5615,-19.0001 609.5616,-12.0001"/>
</g>
</g>
</svg>
