<?xml version="1.0" encoding="UTF-8" standalone="no"?>
<!DOCTYPE svg PUBLIC "-//W3C//DTD SVG 1.1//EN"
 "http://www.w3.org/Graphics/SVG/1.1/DTD/svg11.dtd">
<!-- Generated by graphviz version 2.43.0 (0)
 -->
<!-- Title: UBaseCarlaMovementComponent::EnableUE4VehiclePhysics Pages: 1 -->
<svg width="1670pt" height="259pt"
 viewBox="0.00 0.00 1670.00 259.37" xmlns="http://www.w3.org/2000/svg" xmlns:xlink="http://www.w3.org/1999/xlink">
<g id="graph0" class="graph" transform="scale(1 1) rotate(0) translate(4 255.37)">
<title>UBaseCarlaMovementComponent::EnableUE4VehiclePhysics</title>
<polygon fill="white" stroke="transparent" points="-4,4 -4,-255.37 1666,-255.37 1666,4 -4,4"/>
<!-- Node1 -->
<g id="node1" class="node">
<title>Node1</title>
<g id="a_node1"><a xlink:title=" ">
<polygon fill="#bfbfbf" stroke="black" points="0,-145.5 0,-175.5 182,-175.5 182,-145.5 0,-145.5"/>
<text text-anchor="start" x="8" y="-163.5" font-family="Helvetica,sans-Serif" font-size="10.00">UBaseCarlaMovementComponent</text>
<text text-anchor="middle" x="91" y="-152.5" font-family="Helvetica,sans-Serif" font-size="10.00">::EnableUE4VehiclePhysics</text>
</a>
</g>
</g>
<!-- Node2 -->
<g id="node2" class="node">
<title>Node2</title>
<g id="a_node2"><a xlink:href="../../d2/d48/classUBaseCarlaMovementComponent.html#ac6f038c3f307cb6e6729304521ece924" target="_top" xlink:title=" ">
<polygon fill="white" stroke="black" points="218,-189.5 218,-219.5 400,-219.5 400,-189.5 218,-189.5"/>
<text text-anchor="start" x="226" y="-207.5" font-family="Helvetica,sans-Serif" font-size="10.00">UBaseCarlaMovementComponent</text>
<text text-anchor="middle" x="309" y="-196.5" font-family="Helvetica,sans-Serif" font-size="10.00">::GetVelocity</text>
</a>
</g>
</g>
<!-- Node1&#45;&gt;Node2 -->
<g id="edge1" class="edge">
<title>Node1&#45;&gt;Node2</title>
<path fill="none" stroke="midnightblue" d="M165.73,-175.52C184.57,-179.36 204.96,-183.51 224.26,-187.44"/>
<polygon fill="midnightblue" stroke="midnightblue" points="223.74,-190.91 234.23,-189.47 225.13,-184.05 223.74,-190.91"/>
</g>
<!-- Node3 -->
<g id="node3" class="node">
<title>Node3</title>
<g id="a_node3"><a xlink:href="../../d9/d36/namespacecarla.html#aca0bf2b2b37178b5e39c9bdbb5fadeb6" target="_top" xlink:title=" ">
<polygon fill="white" stroke="black" points="256,-151 256,-170 362,-170 362,-151 256,-151"/>
<text text-anchor="middle" x="309" y="-158" font-family="Helvetica,sans-Serif" font-size="10.00">carla::log_warning</text>
</a>
</g>
</g>
<!-- Node1&#45;&gt;Node3 -->
<g id="edge2" class="edge">
<title>Node1&#45;&gt;Node3</title>
<path fill="none" stroke="midnightblue" d="M182.04,-160.5C203.43,-160.5 225.79,-160.5 245.63,-160.5"/>
<polygon fill="midnightblue" stroke="midnightblue" points="245.76,-164 255.76,-160.5 245.76,-157 245.76,-164"/>
</g>
<!-- Node5 -->
<g id="node5" class="node">
<title>Node5</title>
<g id="a_node5"><a xlink:href="../../d5/d70/classACarlaWheeledVehicle.html#a0eb752614da592e60b34079ca09d0331" target="_top" xlink:title=" ">
<polygon fill="white" stroke="black" points="225.5,-100.5 225.5,-130.5 392.5,-130.5 392.5,-100.5 225.5,-100.5"/>
<text text-anchor="start" x="233.5" y="-118.5" font-family="Helvetica,sans-Serif" font-size="10.00">ACarlaWheeledVehicle</text>
<text text-anchor="middle" x="309" y="-107.5" font-family="Helvetica,sans-Serif" font-size="10.00">::RestoreVehiclePhysicsControl</text>
</a>
</g>
</g>
<!-- Node1&#45;&gt;Node5 -->
<g id="edge4" class="edge">
<title>Node1&#45;&gt;Node5</title>
<path fill="none" stroke="midnightblue" d="M164.23,-145.45C184.04,-141.33 205.67,-136.82 225.99,-132.59"/>
<polygon fill="midnightblue" stroke="midnightblue" points="226.77,-136 235.84,-130.53 225.34,-129.15 226.77,-136"/>
</g>
<!-- Node4 -->
<g id="node4" class="node">
<title>Node4</title>
<g id="a_node4"><a xlink:href="../../d2/d8c/namespacecarla_1_1logging.html#a4193666236852fb6a6977299a31445d8" target="_top" xlink:title=" ">
<polygon fill="white" stroke="black" points="458.5,-147.5 458.5,-177.5 571.5,-177.5 571.5,-147.5 458.5,-147.5"/>
<text text-anchor="start" x="466.5" y="-165.5" font-family="Helvetica,sans-Serif" font-size="10.00">carla::logging::write</text>
<text text-anchor="middle" x="515" y="-154.5" font-family="Helvetica,sans-Serif" font-size="10.00">_to_stream</text>
</a>
</g>
</g>
<!-- Node3&#45;&gt;Node4 -->
<g id="edge3" class="edge">
<title>Node3&#45;&gt;Node4</title>
<path fill="none" stroke="midnightblue" d="M362.01,-161.01C388.18,-161.27 420.2,-161.58 448.09,-161.85"/>
<polygon fill="midnightblue" stroke="midnightblue" points="448.12,-165.35 458.15,-161.95 448.19,-158.35 448.12,-165.35"/>
</g>
<!-- Node6 -->
<g id="node6" class="node">
<title>Node6</title>
<g id="a_node6"><a xlink:href="../../d5/d70/classACarlaWheeledVehicle.html#a3e610d951ef26385950981f732fa9f42" target="_top" xlink:title=" ">
<polygon fill="white" stroke="black" points="436,-98.5 436,-128.5 594,-128.5 594,-98.5 436,-98.5"/>
<text text-anchor="start" x="444" y="-116.5" font-family="Helvetica,sans-Serif" font-size="10.00">ACarlaWheeledVehicle</text>
<text text-anchor="middle" x="515" y="-105.5" font-family="Helvetica,sans-Serif" font-size="10.00">::ApplyVehiclePhysicsControl</text>
</a>
</g>
</g>
<!-- Node5&#45;&gt;Node6 -->
<g id="edge5" class="edge">
<title>Node5&#45;&gt;Node6</title>
<path fill="none" stroke="midnightblue" d="M392.68,-114.69C403.59,-114.58 414.8,-114.47 425.8,-114.36"/>
<polygon fill="midnightblue" stroke="midnightblue" points="425.86,-117.86 435.82,-114.27 425.79,-110.86 425.86,-117.86"/>
</g>
<!-- Node7 -->
<g id="node7" class="node">
<title>Node7</title>
<g id="a_node7"><a xlink:href="../../d7/d1e/classUCarlaStatics.html#adf84009ecb71dd12430e36c61a030c91" target="_top" xlink:title=" ">
<polygon fill="white" stroke="black" points="1123,-199 1123,-218 1272,-218 1272,-199 1123,-199"/>
<text text-anchor="middle" x="1197.5" y="-206" font-family="Helvetica,sans-Serif" font-size="10.00">UCarlaStatics::GetRecorder</text>
</a>
</g>
</g>
<!-- Node6&#45;&gt;Node7 -->
<g id="edge6" class="edge">
<title>Node6&#45;&gt;Node7</title>
<path fill="none" stroke="midnightblue" d="M576.63,-128.66C582.77,-131.43 588.69,-134.68 594,-138.5 615.94,-154.28 606.83,-173.6 630,-187.5 798.9,-288.83 1049.93,-244.56 1151.46,-220.42"/>
<polygon fill="midnightblue" stroke="midnightblue" points="1152.49,-223.77 1161.38,-218.01 1150.84,-216.97 1152.49,-223.77"/>
</g>
<!-- Node10 -->
<g id="node10" class="node">
<title>Node10</title>
<g id="a_node10"><a xlink:href="../../d5/d70/classACarlaWheeledVehicle.html#a80344597cc1f76c5759bf9b813bb346f" target="_top" xlink:title=" ">
<polygon fill="white" stroke="black" points="631.5,-147.5 631.5,-177.5 758.5,-177.5 758.5,-147.5 631.5,-147.5"/>
<text text-anchor="start" x="639.5" y="-165.5" font-family="Helvetica,sans-Serif" font-size="10.00">ACarlaWheeledVehicle</text>
<text text-anchor="middle" x="695" y="-154.5" font-family="Helvetica,sans-Serif" font-size="10.00">::ResetConstraints</text>
</a>
</g>
</g>
<!-- Node6&#45;&gt;Node10 -->
<g id="edge9" class="edge">
<title>Node6&#45;&gt;Node10</title>
<path fill="none" stroke="midnightblue" d="M570.86,-128.6C589.39,-133.7 610.24,-139.44 629.45,-144.73"/>
<polygon fill="midnightblue" stroke="midnightblue" points="628.75,-148.17 639.32,-147.45 630.61,-141.42 628.75,-148.17"/>
</g>
<!-- Node14 -->
<g id="node14" class="node">
<title>Node14</title>
<g id="a_node14"><a xlink:href="../../d5/d70/classACarlaWheeledVehicle.html#a33b430d2706ec2490b2147a242085af4" target="_top" xlink:title=" ">
<polygon fill="white" stroke="black" points="631.5,-98.5 631.5,-128.5 758.5,-128.5 758.5,-98.5 631.5,-98.5"/>
<text text-anchor="start" x="639.5" y="-116.5" font-family="Helvetica,sans-Serif" font-size="10.00">ACarlaWheeledVehicle</text>
<text text-anchor="middle" x="695" y="-105.5" font-family="Helvetica,sans-Serif" font-size="10.00">::SetWheelCollision</text>
</a>
</g>
</g>
<!-- Node6&#45;&gt;Node14 -->
<g id="edge15" class="edge">
<title>Node6&#45;&gt;Node14</title>
<path fill="none" stroke="midnightblue" d="M594.07,-113.5C603.17,-113.5 612.42,-113.5 621.43,-113.5"/>
<polygon fill="midnightblue" stroke="midnightblue" points="621.49,-117 631.49,-113.5 621.49,-110 621.49,-117"/>
</g>
<!-- Node16 -->
<g id="node16" class="node">
<title>Node16</title>
<g id="a_node16"><a xlink:href="../../d5/d70/classACarlaWheeledVehicle.html#a29574baf1b80d8345e8ddbab1825fa4b" target="_top" xlink:title=" ">
<polygon fill="white" stroke="black" points="631,-49.5 631,-79.5 759,-79.5 759,-49.5 631,-49.5"/>
<text text-anchor="start" x="639" y="-67.5" font-family="Helvetica,sans-Serif" font-size="10.00">ACarlaWheeledVehicle</text>
<text text-anchor="middle" x="695" y="-56.5" font-family="Helvetica,sans-Serif" font-size="10.00">::SetWheelCollisionNW</text>
</a>
</g>
</g>
<!-- Node6&#45;&gt;Node16 -->
<g id="edge17" class="edge">
<title>Node6&#45;&gt;Node16</title>
<path fill="none" stroke="midnightblue" d="M570.86,-98.4C589.39,-93.3 610.24,-87.56 629.45,-82.27"/>
<polygon fill="midnightblue" stroke="midnightblue" points="630.61,-85.58 639.32,-79.55 628.75,-78.83 630.61,-85.58"/>
</g>
<!-- Node17 -->
<g id="node17" class="node">
<title>Node17</title>
<g id="a_node17"><a xlink:href="../../d7/db5/classFAckermannController.html#abe8d237fb808b0eca659fb7008054a90" target="_top" xlink:title=" ">
<polygon fill="white" stroke="black" points="630,-0.5 630,-30.5 760,-30.5 760,-0.5 630,-0.5"/>
<text text-anchor="start" x="638" y="-18.5" font-family="Helvetica,sans-Serif" font-size="10.00">FAckermannController</text>
<text text-anchor="middle" x="695" y="-7.5" font-family="Helvetica,sans-Serif" font-size="10.00">::UpdateVehiclePhysics</text>
</a>
</g>
</g>
<!-- Node6&#45;&gt;Node17 -->
<g id="edge18" class="edge">
<title>Node6&#45;&gt;Node17</title>
<path fill="none" stroke="midnightblue" d="M536.2,-98.45C558.38,-82.4 595.45,-56.93 630,-39.5 633.48,-37.75 637.11,-36.05 640.81,-34.42"/>
<polygon fill="midnightblue" stroke="midnightblue" points="642.22,-37.63 650.08,-30.52 639.5,-31.17 642.22,-37.63"/>
</g>
<!-- Node8 -->
<g id="node8" class="node">
<title>Node8</title>
<g id="a_node8"><a xlink:href="../../d7/d1e/classUCarlaStatics.html#a83f2a341e32413abf1ec85ee740c2036" target="_top" xlink:title=" ">
<polygon fill="white" stroke="black" points="1308,-193.5 1308,-223.5 1450,-223.5 1450,-193.5 1308,-193.5"/>
<text text-anchor="start" x="1316" y="-211.5" font-family="Helvetica,sans-Serif" font-size="10.00">UCarlaStatics::GetCurrent</text>
<text text-anchor="middle" x="1379" y="-200.5" font-family="Helvetica,sans-Serif" font-size="10.00">Episode</text>
</a>
</g>
</g>
<!-- Node7&#45;&gt;Node8 -->
<g id="edge7" class="edge">
<title>Node7&#45;&gt;Node8</title>
<path fill="none" stroke="midnightblue" d="M1272.03,-208.5C1280.42,-208.5 1289.02,-208.5 1297.5,-208.5"/>
<polygon fill="midnightblue" stroke="midnightblue" points="1297.77,-212 1307.77,-208.5 1297.77,-205 1297.77,-212"/>
</g>
<!-- Node9 -->
<g id="node9" class="node">
<title>Node9</title>
<g id="a_node9"><a xlink:href="../../d7/d1e/classUCarlaStatics.html#a35e7cb760a58848081a618e7fa8201e2" target="_top" xlink:title=" ">
<polygon fill="white" stroke="black" points="1486,-199 1486,-218 1662,-218 1662,-199 1486,-199"/>
<text text-anchor="middle" x="1574" y="-206" font-family="Helvetica,sans-Serif" font-size="10.00">UCarlaStatics::GetGameInstance</text>
</a>
</g>
</g>
<!-- Node8&#45;&gt;Node9 -->
<g id="edge8" class="edge">
<title>Node8&#45;&gt;Node9</title>
<path fill="none" stroke="midnightblue" d="M1450.22,-208.5C1458.51,-208.5 1467.08,-208.5 1475.66,-208.5"/>
<polygon fill="midnightblue" stroke="midnightblue" points="1475.72,-212 1485.72,-208.5 1475.72,-205 1475.72,-212"/>
</g>
<!-- Node11 -->
<g id="node11" class="node">
<title>Node11</title>
<g id="a_node11"><a xlink:href="../../d5/d70/classACarlaWheeledVehicle.html#a114c84eaff7178ef92e37ea0e0ac9e34" target="_top" xlink:title=" ">
<polygon fill="white" stroke="black" points="796.5,-171.5 796.5,-201.5 923.5,-201.5 923.5,-171.5 796.5,-171.5"/>
<text text-anchor="start" x="804.5" y="-189.5" font-family="Helvetica,sans-Serif" font-size="10.00">ACarlaWheeledVehicle</text>
<text text-anchor="middle" x="860" y="-178.5" font-family="Helvetica,sans-Serif" font-size="10.00">::CloseDoorPhys</text>
</a>
</g>
</g>
<!-- Node10&#45;&gt;Node11 -->
<g id="edge10" class="edge">
<title>Node10&#45;&gt;Node11</title>
<path fill="none" stroke="midnightblue" d="M758.55,-171.71C767.65,-173.05 777.08,-174.44 786.36,-175.8"/>
<polygon fill="midnightblue" stroke="midnightblue" points="785.94,-179.28 796.34,-177.27 786.96,-172.36 785.94,-179.28"/>
</g>
<!-- Node13 -->
<g id="node13" class="node">
<title>Node13</title>
<g id="a_node13"><a xlink:href="../../d5/d70/classACarlaWheeledVehicle.html#ac366b344047c94137d813a4a8a35eaeb" target="_top" xlink:title=" ">
<polygon fill="white" stroke="black" points="796.5,-122.5 796.5,-152.5 923.5,-152.5 923.5,-122.5 796.5,-122.5"/>
<text text-anchor="start" x="804.5" y="-140.5" font-family="Helvetica,sans-Serif" font-size="10.00">ACarlaWheeledVehicle</text>
<text text-anchor="middle" x="860" y="-129.5" font-family="Helvetica,sans-Serif" font-size="10.00">::OpenDoorPhys</text>
</a>
</g>
</g>
<!-- Node10&#45;&gt;Node13 -->
<g id="edge13" class="edge">
<title>Node10&#45;&gt;Node13</title>
<path fill="none" stroke="midnightblue" d="M758.55,-152.91C767.65,-151.51 777.08,-150.06 786.36,-148.64"/>
<polygon fill="midnightblue" stroke="midnightblue" points="786.99,-152.09 796.34,-147.11 785.93,-145.17 786.99,-152.09"/>
</g>
<!-- Node12 -->
<g id="node12" class="node">
<title>Node12</title>
<g id="a_node12"><a xlink:href="../../d5/d70/classACarlaWheeledVehicle.html#a087b3bd2e47d6662fce3e4f0da7cca61" target="_top" xlink:title=" ">
<polygon fill="white" stroke="black" points="960,-171.5 960,-201.5 1087,-201.5 1087,-171.5 960,-171.5"/>
<text text-anchor="start" x="968" y="-189.5" font-family="Helvetica,sans-Serif" font-size="10.00">ACarlaWheeledVehicle</text>
<text text-anchor="middle" x="1023.5" y="-178.5" font-family="Helvetica,sans-Serif" font-size="10.00">::RecordDoorChange</text>
</a>
</g>
</g>
<!-- Node11&#45;&gt;Node12 -->
<g id="edge11" class="edge">
<title>Node11&#45;&gt;Node12</title>
<path fill="none" stroke="midnightblue" d="M923.9,-186.5C932.37,-186.5 941.11,-186.5 949.73,-186.5"/>
<polygon fill="midnightblue" stroke="midnightblue" points="949.77,-190 959.77,-186.5 949.77,-183 949.77,-190"/>
</g>
<!-- Node12&#45;&gt;Node7 -->
<g id="edge12" class="edge">
<title>Node12&#45;&gt;Node7</title>
<path fill="none" stroke="midnightblue" d="M1087.08,-194.5C1095.44,-195.57 1104.11,-196.68 1112.75,-197.79"/>
<polygon fill="midnightblue" stroke="midnightblue" points="1112.5,-201.28 1122.86,-199.08 1113.39,-194.34 1112.5,-201.28"/>
</g>
<!-- Node13&#45;&gt;Node12 -->
<g id="edge14" class="edge">
<title>Node13&#45;&gt;Node12</title>
<path fill="none" stroke="midnightblue" d="M910.77,-152.6C927.28,-157.61 945.81,-163.23 962.97,-168.44"/>
<polygon fill="midnightblue" stroke="midnightblue" points="962.31,-171.89 972.89,-171.45 964.34,-165.2 962.31,-171.89"/>
</g>
<!-- Node15 -->
<g id="node15" class="node">
<title>Node15</title>
<g id="a_node15"><a xlink:href="../../d5/d70/classACarlaWheeledVehicle.html#a1a14797d457e94cbed68571fc8c914bb" target="_top" xlink:title=" ">
<polygon fill="white" stroke="black" points="796,-73.5 796,-103.5 924,-103.5 924,-73.5 796,-73.5"/>
<text text-anchor="start" x="804" y="-91.5" font-family="Helvetica,sans-Serif" font-size="10.00">ACarlaWheeledVehicle</text>
<text text-anchor="middle" x="860" y="-80.5" font-family="Helvetica,sans-Serif" font-size="10.00">::IsTwoWheeledVehicle</text>
</a>
</g>
</g>
<!-- Node14&#45;&gt;Node15 -->
<g id="edge16" class="edge">
<title>Node14&#45;&gt;Node15</title>
<path fill="none" stroke="midnightblue" d="M758.55,-103.91C767.43,-102.55 776.61,-101.14 785.67,-99.75"/>
<polygon fill="midnightblue" stroke="midnightblue" points="786.45,-103.17 795.8,-98.19 785.39,-96.25 786.45,-103.17"/>
</g>
</g>
</svg>
