<?xml version="1.0" encoding="UTF-8" standalone="no"?>
<!DOCTYPE svg PUBLIC "-//W3C//DTD SVG 1.1//EN"
 "http://www.w3.org/Graphics/SVG/1.1/DTD/svg11.dtd">
<!-- Generated by graphviz version 2.40.1 (20161225.0304)
 -->
<!-- Title: carla::client::Waypoint::GetDistance Pages: 1 -->
<svg width="482pt" height="88pt"
 viewBox="0.00 0.00 482.00 88.00" xmlns="http://www.w3.org/2000/svg" xmlns:xlink="http://www.w3.org/1999/xlink">
<g id="graph0" class="graph" transform="scale(1 1) rotate(0) translate(4 84)">
<title>carla::client::Waypoint::GetDistance</title>
<polygon fill="#ffffff" stroke="transparent" points="-4,4 -4,-84 478,-84 478,4 -4,4"/>
<!-- Node30 -->
<g id="node1" class="node">
<title>Node30</title>
<polygon fill="#bfbfbf" stroke="#000000" points="0,-24.5 0,-54.5 125,-54.5 125,-24.5 0,-24.5"/>
<text text-anchor="start" x="8" y="-42.5" font-family="Helvetica,sans-Serif" font-size="10.00" fill="#000000">carla::client::Waypoint</text>
<text text-anchor="middle" x="62.5" y="-31.5" font-family="Helvetica,sans-Serif" font-size="10.00" fill="#000000">::GetDistance</text>
</g>
<!-- Node31 -->
<g id="node2" class="node">
<title>Node31</title>
<g id="a_node2"><a xlink:href="../../dd/dff/classcarla_1_1client_1_1Waypoint.html#ad5c3e3ad6a455ce99d5aa51a9d501231" target="_top" xlink:title="Returns a list of waypoints separated by distance from the current waypoint to the end of the lane...">
<polygon fill="#ffffff" stroke="#000000" points="173,-49.5 173,-79.5 301,-79.5 301,-49.5 173,-49.5"/>
<text text-anchor="start" x="181" y="-67.5" font-family="Helvetica,sans-Serif" font-size="10.00" fill="#000000">carla::client::Waypoint</text>
<text text-anchor="middle" x="237" y="-56.5" font-family="Helvetica,sans-Serif" font-size="10.00" fill="#000000">::GetNextUntilLaneEnd</text>
</a>
</g>
</g>
<!-- Node30&#45;&gt;Node31 -->
<g id="edge1" class="edge">
<title>Node30&#45;&gt;Node31</title>
<path fill="none" stroke="#191970" d="M134.9773,-49.8836C147.5497,-51.6848 160.5435,-53.5463 172.8734,-55.3128"/>
<polygon fill="#191970" stroke="#191970" points="135.4009,-46.4086 125.0056,-48.455 134.4082,-53.3379 135.4009,-46.4086"/>
</g>
<!-- Node33 -->
<g id="node4" class="node">
<title>Node33</title>
<g id="a_node4"><a xlink:href="../../dd/dff/classcarla_1_1client_1_1Waypoint.html#ae6383bb17e6c195721874090166bddeb" target="_top" xlink:title="Returns a list of waypoints separated by distance from the current waypoint to the start of the lane...">
<polygon fill="#ffffff" stroke="#000000" points="161,-.5 161,-30.5 313,-30.5 313,-.5 161,-.5"/>
<text text-anchor="start" x="169" y="-18.5" font-family="Helvetica,sans-Serif" font-size="10.00" fill="#000000">carla::client::Waypoint</text>
<text text-anchor="middle" x="237" y="-7.5" font-family="Helvetica,sans-Serif" font-size="10.00" fill="#000000">::GetPreviousUntilLaneStart</text>
</a>
</g>
</g>
<!-- Node30&#45;&gt;Node33 -->
<g id="edge3" class="edge">
<title>Node30&#45;&gt;Node33</title>
<path fill="none" stroke="#191970" d="M134.9562,-29.5347C143.5269,-28.3559 152.2938,-27.1501 160.9129,-25.9647"/>
<polygon fill="#191970" stroke="#191970" points="134.4354,-26.0733 125.0056,-30.9032 135.3893,-33.008 134.4354,-26.0733"/>
</g>
<!-- Node32 -->
<g id="node3" class="node">
<title>Node32</title>
<g id="a_node3"><a xlink:href="../../dd/dff/classcarla_1_1client_1_1Waypoint.html#a9e103655b4bdb7e5cf0396c977936f2a" target="_top" xlink:title="carla::client::Waypoint\l::GetTransform">
<polygon fill="#ffffff" stroke="#000000" points="349,-24.5 349,-54.5 474,-54.5 474,-24.5 349,-24.5"/>
<text text-anchor="start" x="357" y="-42.5" font-family="Helvetica,sans-Serif" font-size="10.00" fill="#000000">carla::client::Waypoint</text>
<text text-anchor="middle" x="411.5" y="-31.5" font-family="Helvetica,sans-Serif" font-size="10.00" fill="#000000">::GetTransform</text>
</a>
</g>
</g>
<!-- Node31&#45;&gt;Node32 -->
<g id="edge2" class="edge">
<title>Node31&#45;&gt;Node32</title>
<path fill="none" stroke="#191970" d="M311.7365,-53.7928C324.0666,-52.0263 336.7372,-50.211 348.7355,-48.492"/>
<polygon fill="#191970" stroke="#191970" points="310.8841,-50.3791 301.4816,-55.262 311.8769,-57.3083 310.8841,-50.3791"/>
</g>
<!-- Node33&#45;&gt;Node32 -->
<g id="edge4" class="edge">
<title>Node33&#45;&gt;Node32</title>
<path fill="none" stroke="#191970" d="M323.1521,-27.349C331.797,-28.538 340.4563,-29.7289 348.7904,-30.8752"/>
<polygon fill="#191970" stroke="#191970" points="323.4143,-23.8522 313.0306,-25.9569 322.4604,-30.7869 323.4143,-23.8522"/>
</g>
</g>
</svg>
