<?xml version="1.0" encoding="UTF-8" standalone="no"?>
<!DOCTYPE svg PUBLIC "-//W3C//DTD SVG 1.1//EN"
 "http://www.w3.org/Graphics/SVG/1.1/DTD/svg11.dtd">
<!-- Generated by graphviz version 2.40.1 (20161225.0304)
 -->
<!-- Title: FActorDefinitionValidator::SingleIsValid Pages: 1 -->
<svg width="497pt" height="78pt"
 viewBox="0.00 0.00 497.00 77.50" xmlns="http://www.w3.org/2000/svg" xmlns:xlink="http://www.w3.org/1999/xlink">
<g id="graph0" class="graph" transform="scale(1 1) rotate(0) translate(4 73.5)">
<title>FActorDefinitionValidator::SingleIsValid</title>
<polygon fill="#ffffff" stroke="transparent" points="-4,4 -4,-73.5 493,-73.5 493,4 -4,4"/>
<!-- Node74 -->
<g id="node1" class="node">
<title>Node74</title>
<polygon fill="#bfbfbf" stroke="#000000" points="0,-17 0,-47 137,-47 137,-17 0,-17"/>
<text text-anchor="start" x="8" y="-35" font-family="Helvetica,sans-Serif" font-size="10.00" fill="#000000">FActorDefinitionValidator</text>
<text text-anchor="middle" x="68.5" y="-24" font-family="Helvetica,sans-Serif" font-size="10.00" fill="#000000">::SingleIsValid</text>
</g>
<!-- Node75 -->
<g id="node2" class="node">
<title>Node75</title>
<g id="a_node2"><a xlink:href="../../dd/d10/classFActorDefinitionValidator.html#a4079e0ecc2f4724dac9ec84d39c14e0b" target="_top" xlink:title="FActorDefinitionValidator\l::IsValid">
<polygon fill="#ffffff" stroke="#000000" points="176,-39 176,-69 313,-69 313,-39 176,-39"/>
<text text-anchor="start" x="184" y="-57" font-family="Helvetica,sans-Serif" font-size="10.00" fill="#000000">FActorDefinitionValidator</text>
<text text-anchor="middle" x="244.5" y="-46" font-family="Helvetica,sans-Serif" font-size="10.00" fill="#000000">::IsValid</text>
</a>
</g>
</g>
<!-- Node74&#45;&gt;Node75 -->
<g id="edge1" class="edge">
<title>Node74&#45;&gt;Node75</title>
<path fill="none" stroke="#191970" d="M137.0502,-40.5688C146.506,-41.7508 156.2773,-42.9722 165.897,-44.1746"/>
<polygon fill="#191970" stroke="#191970" points="165.4905,-47.651 175.8474,-45.4184 166.3588,-40.705 165.4905,-47.651"/>
</g>
<!-- Node77 -->
<g id="node4" class="node">
<title>Node77</title>
<g id="a_node4"><a xlink:href="../../d0/d93/classFScopedStack.html#a13ceb40b7471d2694408ddcbc55073f1" target="_top" xlink:title="Push this scope into the stack. ">
<polygon fill="#ffffff" stroke="#000000" points="173,-.5 173,-19.5 316,-19.5 316,-.5 173,-.5"/>
<text text-anchor="middle" x="244.5" y="-7.5" font-family="Helvetica,sans-Serif" font-size="10.00" fill="#000000">FScopedStack::PushScope</text>
</a>
</g>
</g>
<!-- Node74&#45;&gt;Node77 -->
<g id="edge3" class="edge">
<title>Node74&#45;&gt;Node77</title>
<path fill="none" stroke="#191970" d="M137.0502,-23.4312C145.5137,-22.3733 154.2299,-21.2838 162.864,-20.2045"/>
<polygon fill="#191970" stroke="#191970" points="163.4532,-23.6582 172.9418,-18.9448 162.5849,-16.7122 163.4532,-23.6582"/>
</g>
<!-- Node76 -->
<g id="node3" class="node">
<title>Node76</title>
<g id="a_node3"><a xlink:href="../../dd/d10/classFActorDefinitionValidator.html#a1a9cb1a9ebc0fe33d2e1afa9ba070b42" target="_top" xlink:title="If Predicate is false, print an error message. ">
<polygon fill="#ffffff" stroke="#000000" points="352,-39 352,-69 489,-69 489,-39 352,-39"/>
<text text-anchor="start" x="360" y="-57" font-family="Helvetica,sans-Serif" font-size="10.00" fill="#000000">FActorDefinitionValidator</text>
<text text-anchor="middle" x="420.5" y="-46" font-family="Helvetica,sans-Serif" font-size="10.00" fill="#000000">::OnScreenAssert</text>
</a>
</g>
</g>
<!-- Node75&#45;&gt;Node76 -->
<g id="edge2" class="edge">
<title>Node75&#45;&gt;Node76</title>
<path fill="none" stroke="#191970" d="M313.0502,-54C322.4065,-54 332.0716,-54 341.5932,-54"/>
<polygon fill="#191970" stroke="#191970" points="341.8474,-57.5001 351.8474,-54 341.8474,-50.5001 341.8474,-57.5001"/>
</g>
</g>
</svg>
