<?xml version="1.0" encoding="UTF-8" standalone="no"?>
<!DOCTYPE svg PUBLIC "-//W3C//DTD SVG 1.1//EN"
 "http://www.w3.org/Graphics/SVG/1.1/DTD/svg11.dtd">
<!-- Generated by graphviz version 2.38.0 (20140413.2041)
 -->
<!-- Title: xpath_allocator::allocate Pages: 1 -->
<!--zoomable 337 -->
<svg id="main" version="1.1" xmlns="http://www.w3.org/2000/svg" xmlns:xlink="http://www.w3.org/1999/xlink" xml:space="preserve" onload="init(evt)">
<style type="text/css"><![CDATA[
.edge:hover path { stroke: red; }
.edge:hover polygon { stroke: red; fill: red; }
]]></style>
<script type="text/javascript"><![CDATA[
var edges = document.getElementsByTagName('g');
if (edges && edges.length) {
  for (var i=0;i<edges.length;i++) {
    if (edges[i].id.substr(0,4)=='edge') {
      edges[i].setAttribute('class','edge');
    }
  }
}
]]></script>
        <defs>
                <circle id="rim" cx="0" cy="0" r="7"/>
                <circle id="rim2" cx="0" cy="0" r="3.5"/>
                <g id="zoomPlus">
                        <use xlink:href="#rim" fill="#404040">
                                <set attributeName="fill" to="#808080" begin="zoomplus.mouseover" end="zoomplus.mouseout"/>
                        </use>
                        <path d="M-4,0h8M0,-4v8" fill="none" stroke="white" stroke-width="1.5" pointer-events="none"/>
                </g>
                <g id="zoomMin">
                        <use xlink:href="#rim" fill="#404040">
                                <set attributeName="fill" to="#808080" begin="zoomminus.mouseover" end="zoomminus.mouseout"/>
                        </use>
                        <path d="M-4,0h8" fill="none" stroke="white" stroke-width="1.5" pointer-events="none"/>
                </g>
                <g id="dirArrow">
                        <path fill="none" stroke="white" stroke-width="1.5" d="M0,-3.0v7 M-2.5,-0.5L0,-3.0L2.5,-0.5"/>
                </g>
               <g id="resetDef">
                       <use xlink:href="#rim2" fill="#404040">
                               <set attributeName="fill" to="#808080" begin="reset.mouseover" end="reset.mouseout"/>
                       </use>
               </g>
        </defs>

<script type="text/javascript">
var viewWidth = 869;
var viewHeight = 337;
var sectionId = 'dynsection-1';
</script>
<script xlink:href="../../svgpan.js"/>
<svg id="graph" class="graph">
<g id="viewport">
<title>xpath_allocator::allocate</title>
<polygon fill="white" stroke="none" points="-4,4 -4,-332.5 865,-332.5 865,4 -4,4"/>
<!-- Node1 -->
<g id="node1" class="node"><title>Node1</title>
<polygon fill="#bfbfbf" stroke="black" points="0,-107.5 0,-126.5 134,-126.5 134,-107.5 0,-107.5"/>
<text text-anchor="middle" x="67" y="-114.5" font-family="Helvetica,sans-Serif" font-size="10.00">xpath_allocator::allocate</text>
</g>
<!-- Node2 -->
<g id="node2" class="node"><title>Node2</title>
<g id="a_node2"><a xlink:href="../../dc/dea/structxpath__parser.html#ae33adcc8eb125124967d95297daff351" target="_top" xlink:title="xpath_parser::alloc_node">
<polygon fill="white" stroke="black" points="173,-214.5 173,-233.5 310,-233.5 310,-214.5 173,-214.5"/>
<text text-anchor="middle" x="241.5" y="-221.5" font-family="Helvetica,sans-Serif" font-size="10.00">xpath_parser::alloc_node</text>
</a>
</g>
</g>
<!-- Node1&#45;&gt;Node2 -->
<g id="edge1" class="edge"><title>Node1&#45;&gt;Node2</title>
<path fill="none" stroke="midnightblue" d="M83.4004,-133.972C102.074,-153.566 135.369,-185.47 170,-204 177.965,-208.262 186.934,-211.698 195.739,-214.439"/>
<polygon fill="midnightblue" stroke="midnightblue" points="85.9346,-131.557 76.5496,-126.641 80.8202,-136.337 85.9346,-131.557"/>
</g>
<!-- Node3 -->
<g id="node3" class="node"><title>Node3</title>
<g id="a_node3"><a xlink:href="../../dc/dea/structxpath__parser.html#a109e4c472bb76911a2b49ee741d400af" target="_top" xlink:title="xpath_parser::alloc\l_string">
<polygon fill="white" stroke="black" points="188,-165 188,-195 295,-195 295,-165 188,-165"/>
<text text-anchor="start" x="196" y="-183" font-family="Helvetica,sans-Serif" font-size="10.00">xpath_parser::alloc</text>
<text text-anchor="middle" x="241.5" y="-172" font-family="Helvetica,sans-Serif" font-size="10.00">_string</text>
</a>
</g>
</g>
<!-- Node1&#45;&gt;Node3 -->
<g id="edge2" class="edge"><title>Node1&#45;&gt;Node3</title>
<path fill="none" stroke="midnightblue" d="M102.999,-130.195C122.661,-137.568 147.666,-146.88 170,-155 178.91,-158.239 188.47,-161.664 197.587,-164.905"/>
<polygon fill="midnightblue" stroke="midnightblue" points="104.121,-126.878 93.529,-126.639 101.66,-133.431 104.121,-126.878"/>
</g>
<!-- Node4 -->
<g id="node4" class="node"><title>Node4</title>
<g id="a_node4"><a xlink:href="../../db/d20/pugixml_8cpp.html#a26ed30b05a22acb22dc6eed1cefc7570" target="_top" xlink:title="convert_number_to_string">
<polygon fill="white" stroke="black" points="170,-126.5 170,-145.5 313,-145.5 313,-126.5 170,-126.5"/>
<text text-anchor="middle" x="241.5" y="-133.5" font-family="Helvetica,sans-Serif" font-size="10.00">convert_number_to_string</text>
</a>
</g>
</g>
<!-- Node1&#45;&gt;Node4 -->
<g id="edge3" class="edge"><title>Node1&#45;&gt;Node4</title>
<path fill="none" stroke="midnightblue" d="M144.163,-125.389C152.72,-126.331 161.412,-127.289 169.894,-128.223"/>
<polygon fill="midnightblue" stroke="midnightblue" points="144.523,-121.908 134.2,-124.292 143.756,-128.865 144.523,-121.908"/>
</g>
<!-- Node13 -->
<g id="node13" class="node"><title>Node13</title>
<g id="a_node13"><a xlink:href="../../d3/dc5/classxpath__ast__node.html#aaf931a091af0fb91c25e90b205363b4e" target="_top" xlink:title="xpath_ast_node::eval\l_string_concat">
<polygon fill="white" stroke="black" points="547,-65 547,-95 666,-95 666,-65 547,-65"/>
<text text-anchor="start" x="555" y="-83" font-family="Helvetica,sans-Serif" font-size="10.00">xpath_ast_node::eval</text>
<text text-anchor="middle" x="606.5" y="-72" font-family="Helvetica,sans-Serif" font-size="10.00">_string_concat</text>
</a>
</g>
</g>
<!-- Node1&#45;&gt;Node13 -->
<g id="edge20" class="edge"><title>Node1&#45;&gt;Node13</title>
<path fill="none" stroke="midnightblue" d="M144.395,-111.741C252.874,-104.274 449.203,-90.759 546.942,-84.031"/>
<polygon fill="midnightblue" stroke="midnightblue" points="143.913,-108.266 134.177,-112.445 144.394,-115.249 143.913,-108.266"/>
</g>
<!-- Node14 -->
<g id="node14" class="node"><title>Node14</title>
<g id="a_node14"><a xlink:href="../../dd/d5c/classxpath__string.html#a57c53a0b67fecb1845c31215d8ee206b" target="_top" xlink:title="xpath_string::duplicate\l_string">
<polygon fill="white" stroke="black" points="179,-39 179,-69 304,-69 304,-39 179,-39"/>
<text text-anchor="start" x="187" y="-57" font-family="Helvetica,sans-Serif" font-size="10.00">xpath_string::duplicate</text>
<text text-anchor="middle" x="241.5" y="-46" font-family="Helvetica,sans-Serif" font-size="10.00">_string</text>
</a>
</g>
</g>
<!-- Node1&#45;&gt;Node14 -->
<g id="edge19" class="edge"><title>Node1&#45;&gt;Node14</title>
<path fill="none" stroke="midnightblue" d="M103.913,-103.884C131.697,-93.7366 170.203,-79.6736 199.25,-69.065"/>
<polygon fill="midnightblue" stroke="midnightblue" points="102.391,-100.713 94.199,-107.432 104.793,-107.289 102.391,-100.713"/>
</g>
<!-- Node15 -->
<g id="node15" class="node"><title>Node15</title>
<g id="a_node15"><a xlink:href="../../db/d20/pugixml_8cpp.html#adef55df8d000b3b37b786ab7ce7829c2" target="_top" xlink:title="translate_table_generate">
<polygon fill="white" stroke="black" points="173,-0.5 173,-19.5 310,-19.5 310,-0.5 173,-0.5"/>
<text text-anchor="middle" x="241.5" y="-7.5" font-family="Helvetica,sans-Serif" font-size="10.00">translate_table_generate</text>
</a>
</g>
</g>
<!-- Node1&#45;&gt;Node15 -->
<g id="edge21" class="edge"><title>Node1&#45;&gt;Node15</title>
<path fill="none" stroke="midnightblue" d="M83.0281,-100.055C101.565,-80.1777 134.95,-47.5851 170,-29 177.28,-25.1401 185.407,-22.0154 193.484,-19.5014"/>
<polygon fill="midnightblue" stroke="midnightblue" points="80.4081,-97.7335 76.2461,-107.477 85.5756,-102.455 80.4081,-97.7335"/>
</g>
<!-- Node5 -->
<g id="node5" class="node"><title>Node5</title>
<g id="a_node5"><a xlink:href="../../d3/dc5/classxpath__ast__node.html#a6b675237a590548b68d0e0b97518b6df" target="_top" xlink:title="xpath_ast_node::eval\l_string">
<polygon fill="white" stroke="black" points="370.5,-145 370.5,-175 489.5,-175 489.5,-145 370.5,-145"/>
<text text-anchor="start" x="378.5" y="-163" font-family="Helvetica,sans-Serif" font-size="10.00">xpath_ast_node::eval</text>
<text text-anchor="middle" x="430" y="-152" font-family="Helvetica,sans-Serif" font-size="10.00">_string</text>
</a>
</g>
</g>
<!-- Node4&#45;&gt;Node5 -->
<g id="edge4" class="edge"><title>Node4&#45;&gt;Node5</title>
<path fill="none" stroke="midnightblue" d="M323.292,-146.397C339.078,-148.428 355.35,-150.522 370.252,-152.44"/>
<polygon fill="midnightblue" stroke="midnightblue" points="323.373,-142.878 313.008,-145.073 322.479,-149.821 323.373,-142.878"/>
</g>
<!-- Node5&#45;&gt;Node5 -->
<g id="edge18" class="edge"><title>Node5&#45;&gt;Node5</title>
<path fill="none" stroke="midnightblue" d="M398.727,-185.458C402.608,-190.179 413.033,-193.5 430,-193.5 457.844,-193.5 468.068,-184.557 460.672,-175.159"/>
<polygon fill="midnightblue" stroke="midnightblue" points="402.239,-185.346 399.328,-175.159 395.251,-184.938 402.239,-185.346"/>
</g>
<!-- Node6 -->
<g id="node6" class="node"><title>Node6</title>
<g id="a_node6"><a xlink:href="../../d3/dc5/classxpath__ast__node.html#a98dd7f6e67fe2c56c63056eed835d6a4" target="_top" xlink:title="xpath_ast_node::compare_eq">
<polygon fill="white" stroke="black" points="702,-172.5 702,-191.5 861,-191.5 861,-172.5 702,-172.5"/>
<text text-anchor="middle" x="781.5" y="-179.5" font-family="Helvetica,sans-Serif" font-size="10.00">xpath_ast_node::compare_eq</text>
</a>
</g>
</g>
<!-- Node5&#45;&gt;Node6 -->
<g id="edge5" class="edge"><title>Node5&#45;&gt;Node6</title>
<path fill="none" stroke="midnightblue" d="M499.729,-167.061C515.263,-168.505 531.689,-169.914 547,-171 598.513,-174.654 656.507,-177.393 701.812,-179.224"/>
<polygon fill="midnightblue" stroke="midnightblue" points="499.955,-163.567 489.67,-166.109 499.296,-170.536 499.955,-163.567"/>
</g>
<!-- Node7 -->
<g id="node7" class="node"><title>Node7</title>
<g id="a_node7"><a xlink:href="../../d3/dc5/classxpath__ast__node.html#ab7f965a92023bc2704b8e6fd9f3d7c14" target="_top" xlink:title="xpath_ast_node::eval\l_boolean">
<polygon fill="white" stroke="black" points="547,-114 547,-144 666,-144 666,-114 547,-114"/>
<text text-anchor="start" x="555" y="-132" font-family="Helvetica,sans-Serif" font-size="10.00">xpath_ast_node::eval</text>
<text text-anchor="middle" x="606.5" y="-121" font-family="Helvetica,sans-Serif" font-size="10.00">_boolean</text>
</a>
</g>
</g>
<!-- Node5&#45;&gt;Node7 -->
<g id="edge6" class="edge"><title>Node5&#45;&gt;Node7</title>
<path fill="none" stroke="midnightblue" d="M499.682,-147.799C515.253,-145.032 531.651,-142.119 546.766,-139.434"/>
<polygon fill="midnightblue" stroke="midnightblue" points="498.825,-144.396 489.591,-149.591 500.049,-151.288 498.825,-144.396"/>
</g>
<!-- Node9 -->
<g id="node9" class="node"><title>Node9</title>
<g id="a_node9"><a xlink:href="../../d3/dc5/classxpath__ast__node.html#a92dd7048e28d486bc7f382d1fc6f1de6" target="_top" xlink:title="xpath_ast_node::eval\l_number">
<polygon fill="white" stroke="black" points="547,-220 547,-250 666,-250 666,-220 547,-220"/>
<text text-anchor="start" x="555" y="-238" font-family="Helvetica,sans-Serif" font-size="10.00">xpath_ast_node::eval</text>
<text text-anchor="middle" x="606.5" y="-227" font-family="Helvetica,sans-Serif" font-size="10.00">_number</text>
</a>
</g>
</g>
<!-- Node5&#45;&gt;Node9 -->
<g id="edge10" class="edge"><title>Node5&#45;&gt;Node9</title>
<path fill="none" stroke="midnightblue" d="M490.048,-178.953C521.319,-191.651 558.006,-207.952 581.488,-219.854"/>
<polygon fill="midnightblue" stroke="midnightblue" points="491.122,-175.612 480.538,-175.136 488.515,-182.109 491.122,-175.612"/>
</g>
<!-- Node5&#45;&gt;Node13 -->
<g id="edge17" class="edge"><title>Node5&#45;&gt;Node13</title>
<path fill="none" stroke="midnightblue" d="M469.987,-140.452C492.368,-129.414 521.088,-115.557 547,-104 553.717,-101.004 560.925,-97.9323 567.908,-95.0297"/>
<polygon fill="midnightblue" stroke="midnightblue" points="468.22,-137.422 460.811,-144.995 471.325,-143.695 468.22,-137.422"/>
</g>
<!-- Node7&#45;&gt;Node6 -->
<g id="edge7" class="edge"><title>Node7&#45;&gt;Node6</title>
<path fill="none" stroke="midnightblue" d="M666.253,-147C694.078,-155.524 726.186,-165.361 749.265,-172.431"/>
<polygon fill="midnightblue" stroke="midnightblue" points="667.199,-143.629 656.612,-144.046 665.148,-150.322 667.199,-143.629"/>
</g>
<!-- Node7&#45;&gt;Node7 -->
<g id="edge9" class="edge"><title>Node7&#45;&gt;Node7</title>
<path fill="none" stroke="midnightblue" d="M575.582,-154.458C579.42,-159.179 589.726,-162.5 606.5,-162.5 634.027,-162.5 644.135,-153.557 636.823,-144.159"/>
<polygon fill="midnightblue" stroke="midnightblue" points="579.095,-154.344 576.177,-144.159 572.106,-153.941 579.095,-154.344"/>
</g>
<!-- Node8 -->
<g id="node8" class="node"><title>Node8</title>
<g id="a_node8"><a xlink:href="../../d3/dc5/classxpath__ast__node.html#ab4e5bbd3f2e83c86a43349374b4bfc22" target="_top" xlink:title="xpath_ast_node::apply\l_predicate_boolean">
<polygon fill="white" stroke="black" points="719,-114 719,-144 844,-144 844,-114 719,-114"/>
<text text-anchor="start" x="727" y="-132" font-family="Helvetica,sans-Serif" font-size="10.00">xpath_ast_node::apply</text>
<text text-anchor="middle" x="781.5" y="-121" font-family="Helvetica,sans-Serif" font-size="10.00">_predicate_boolean</text>
</a>
</g>
</g>
<!-- Node7&#45;&gt;Node8 -->
<g id="edge8" class="edge"><title>Node7&#45;&gt;Node8</title>
<path fill="none" stroke="midnightblue" d="M676.168,-129C690.225,-129 704.94,-129 718.738,-129"/>
<polygon fill="midnightblue" stroke="midnightblue" points="676.07,-125.5 666.07,-129 676.07,-132.5 676.07,-125.5"/>
</g>
<!-- Node9&#45;&gt;Node5 -->
<g id="edge16" class="edge"><title>Node9&#45;&gt;Node5</title>
<path fill="none" stroke="midnightblue" d="M546.608,-216.111C515.252,-203.383 478.414,-187.015 454.898,-175.088"/>
<polygon fill="midnightblue" stroke="midnightblue" points="545.558,-219.461 556.142,-219.935 548.164,-212.964 545.558,-219.461"/>
</g>
<!-- Node9&#45;&gt;Node6 -->
<g id="edge11" class="edge"><title>Node9&#45;&gt;Node6</title>
<path fill="none" stroke="midnightblue" d="M655.7,-216.525C670.449,-211.179 686.793,-205.561 702,-201 713.416,-197.576 725.905,-194.331 737.497,-191.523"/>
<polygon fill="midnightblue" stroke="midnightblue" points="654.449,-213.256 646.266,-219.985 656.86,-219.828 654.449,-213.256"/>
</g>
<!-- Node9&#45;&gt;Node9 -->
<g id="edge15" class="edge"><title>Node9&#45;&gt;Node9</title>
<path fill="none" stroke="midnightblue" d="M575.582,-260.458C579.42,-265.179 589.726,-268.5 606.5,-268.5 634.027,-268.5 644.135,-259.557 636.823,-250.159"/>
<polygon fill="midnightblue" stroke="midnightblue" points="579.095,-260.344 576.177,-250.159 572.106,-259.941 579.095,-260.344"/>
</g>
<!-- Node10 -->
<g id="node10" class="node"><title>Node10</title>
<g id="a_node10"><a xlink:href="../../d3/dc5/classxpath__ast__node.html#abb6e4c529276eaf882233dbb6e04e111" target="_top" xlink:title="xpath_ast_node::compare_rel">
<polygon fill="white" stroke="black" points="702,-210.5 702,-229.5 861,-229.5 861,-210.5 702,-210.5"/>
<text text-anchor="middle" x="781.5" y="-217.5" font-family="Helvetica,sans-Serif" font-size="10.00">xpath_ast_node::compare_rel</text>
</a>
</g>
</g>
<!-- Node9&#45;&gt;Node10 -->
<g id="edge12" class="edge"><title>Node9&#45;&gt;Node10</title>
<path fill="none" stroke="midnightblue" d="M676.177,-229.045C684.577,-228.317 693.211,-227.568 701.744,-226.829"/>
<polygon fill="midnightblue" stroke="midnightblue" points="675.73,-225.571 666.07,-229.922 676.335,-232.545 675.73,-225.571"/>
</g>
<!-- Node11 -->
<g id="node11" class="node"><title>Node11</title>
<g id="a_node11"><a xlink:href="../../d3/dc5/classxpath__ast__node.html#abf2d4b745493f63aebc1c89d9fde8eed" target="_top" xlink:title="xpath_ast_node::apply\l_predicate_number">
<polygon fill="white" stroke="black" points="719,-298 719,-328 844,-328 844,-298 719,-298"/>
<text text-anchor="start" x="727" y="-316" font-family="Helvetica,sans-Serif" font-size="10.00">xpath_ast_node::apply</text>
<text text-anchor="middle" x="781.5" y="-305" font-family="Helvetica,sans-Serif" font-size="10.00">_predicate_number</text>
</a>
</g>
</g>
<!-- Node9&#45;&gt;Node11 -->
<g id="edge13" class="edge"><title>Node9&#45;&gt;Node11</title>
<path fill="none" stroke="midnightblue" d="M639.301,-255.541C657.213,-266.498 680.287,-279.616 702,-289 709.457,-292.223 717.484,-295.2 725.459,-297.881"/>
<polygon fill="midnightblue" stroke="midnightblue" points="640.781,-252.34 630.439,-250.039 637.089,-258.287 640.781,-252.34"/>
</g>
<!-- Node12 -->
<g id="node12" class="node"><title>Node12</title>
<g id="a_node12"><a xlink:href="../../d3/dc5/classxpath__ast__node.html#a8cedd7e15623b9fa431788b8843f1463" target="_top" xlink:title="xpath_ast_node::apply\l_predicate_number_const">
<polygon fill="white" stroke="black" points="711,-249 711,-279 852,-279 852,-249 711,-249"/>
<text text-anchor="start" x="719" y="-267" font-family="Helvetica,sans-Serif" font-size="10.00">xpath_ast_node::apply</text>
<text text-anchor="middle" x="781.5" y="-256" font-family="Helvetica,sans-Serif" font-size="10.00">_predicate_number_const</text>
</a>
</g>
</g>
<!-- Node9&#45;&gt;Node12 -->
<g id="edge14" class="edge"><title>Node9&#45;&gt;Node12</title>
<path fill="none" stroke="midnightblue" d="M676.021,-246.486C687.498,-248.41 699.417,-250.408 710.921,-252.336"/>
<polygon fill="midnightblue" stroke="midnightblue" points="676.511,-243.02 666.07,-244.818 675.354,-249.923 676.511,-243.02"/>
</g>
<!-- Node16 -->
<g id="node16" class="node"><title>Node16</title>
<g id="a_node16"><a xlink:href="../../d3/dc5/classxpath__ast__node.html#a3eb089927cabd867a3a9d1b723aece0d" target="_top" xlink:title="xpath_ast_node::optimize_self">
<polygon fill="white" stroke="black" points="349,-0.5 349,-19.5 511,-19.5 511,-0.5 349,-0.5"/>
<text text-anchor="middle" x="430" y="-7.5" font-family="Helvetica,sans-Serif" font-size="10.00">xpath_ast_node::optimize_self</text>
</a>
</g>
</g>
<!-- Node15&#45;&gt;Node16 -->
<g id="edge22" class="edge"><title>Node15&#45;&gt;Node16</title>
<path fill="none" stroke="midnightblue" d="M320.27,-10C329.745,-10 339.44,-10 348.947,-10"/>
<polygon fill="midnightblue" stroke="midnightblue" points="320.095,-6.5001 310.094,-10 320.094,-13.5001 320.095,-6.5001"/>
</g>
</g>
</svg>
        <g id="navigator" transform="translate(0 0)" fill="#404254">
                <rect fill="#f2f5e9" fill-opacity="0.5" stroke="#606060" stroke-width=".5" x="0" y="0" width="60" height="60"/>
                <use id="zoomplus" xlink:href="#zoomPlus" x="17" y="9" onmousedown="handleZoom(evt,'in')"/>
                <use id="zoomminus" xlink:href="#zoomMin" x="42" y="9" onmousedown="handleZoom(evt,'out')"/>
                <use id="reset" xlink:href="#resetDef" x="30" y="36" onmousedown="handleReset()"/>
                <g id="arrowUp" xlink:href="#dirArrow" transform="translate(30 24)" onmousedown="handlePan(0,-1)">
                  <use xlink:href="#rim" fill="#404040">
                        <set attributeName="fill" to="#808080" begin="arrowUp.mouseover" end="arrowUp.mouseout"/>
                  </use>
                  <path fill="none" stroke="white" stroke-width="1.5" d="M0,-3.0v7 M-2.5,-0.5L0,-3.0L2.5,-0.5"/>
                </g>
                <g id="arrowRight" xlink:href="#dirArrow" transform="rotate(90) translate(36 -43)" onmousedown="handlePan(1,0)">
                  <use xlink:href="#rim" fill="#404040">
                        <set attributeName="fill" to="#808080" begin="arrowRight.mouseover" end="arrowRight.mouseout"/>
                  </use>
                  <path fill="none" stroke="white" stroke-width="1.5" d="M0,-3.0v7 M-2.5,-0.5L0,-3.0L2.5,-0.5"/>
                </g>
                <g id="arrowDown" xlink:href="#dirArrow" transform="rotate(180) translate(-30 -48)" onmousedown="handlePan(0,1)">
                  <use xlink:href="#rim" fill="#404040">
                        <set attributeName="fill" to="#808080" begin="arrowDown.mouseover" end="arrowDown.mouseout"/>
                  </use>
                  <path fill="none" stroke="white" stroke-width="1.5" d="M0,-3.0v7 M-2.5,-0.5L0,-3.0L2.5,-0.5"/>
                </g>
                <g id="arrowLeft" xlink:href="#dirArrow" transform="rotate(270) translate(-36 17)" onmousedown="handlePan(-1,0)">
                  <use xlink:href="#rim" fill="#404040">
                        <set attributeName="fill" to="#808080" begin="arrowLeft.mouseover" end="arrowLeft.mouseout"/>
                  </use>
                  <path fill="none" stroke="white" stroke-width="1.5" d="M0,-3.0v7 M-2.5,-0.5L0,-3.0L2.5,-0.5"/>
                </g>
        </g>
        <svg viewBox="0 0 15 15" width="100%" height="30px" preserveAspectRatio="xMaxYMin meet">
         <g id="arrow_out" transform="scale(0.3 0.3)">
          <a xlink:href="structxpath__allocator_aad95aa445f2fdc7c3d1c19b1f3d67cb1_icgraph_org.svg" target="_base">
           <rect id="button" ry="5" rx="5" y="6" x="6" height="38" width="38"
                fill="#f2f5e9" fill-opacity="0.5" stroke="#606060" stroke-width="1.0"/>
           <path id="arrow"
             d="M 11.500037,31.436501 C 11.940474,20.09759 22.043105,11.32322 32.158766,21.979434 L 37.068811,17.246167 C 37.068811,17.246167 37.088388,32 37.088388,32 L 22.160133,31.978069 C 22.160133,31.978069 26.997745,27.140456 26.997745,27.140456 C 18.528582,18.264221 13.291696,25.230495 11.500037,31.436501 z"
             style="fill:#404040;"/>
          </a>
         </g>
        </svg>
</svg>
