<?xml version="1.0" encoding="UTF-8" standalone="no"?>
<!DOCTYPE svg PUBLIC "-//W3C//DTD SVG 1.1//EN"
 "http://www.w3.org/Graphics/SVG/1.1/DTD/svg11.dtd">
<!-- Generated by graphviz version 2.40.1 (20161225.0304)
 -->
<!-- Title: FActiveActor Pages: 1 -->
<svg width="510pt" height="406pt"
 viewBox="0.00 0.00 510.00 405.93" xmlns="http://www.w3.org/2000/svg" xmlns:xlink="http://www.w3.org/1999/xlink">
<g id="graph0" class="graph" transform="scale(1 1) rotate(0) translate(4 401.9294)">
<title>FActiveActor</title>
<polygon fill="#ffffff" stroke="transparent" points="-4,4 -4,-401.9294 506,-401.9294 506,4 -4,4"/>
<!-- Node1 -->
<g id="node1" class="node">
<title>Node1</title>
<polygon fill="#bfbfbf" stroke="#000000" points="425,-96.4294 425,-115.4294 502,-115.4294 502,-96.4294 425,-96.4294"/>
<text text-anchor="middle" x="463.5" y="-103.4294" font-family="Helvetica,sans-Serif" font-size="10.00" fill="#000000">FActiveActor</text>
</g>
<!-- Node2 -->
<g id="node2" class="node">
<title>Node2</title>
<g id="a_node2"><a xlink:href="../../dc/dde/classFCarlaActor.html" target="_top" xlink:title="A view over an actor and its properties. ">
<polygon fill="#ffffff" stroke="#000000" points="243,-197.4294 243,-216.4294 316,-216.4294 316,-197.4294 243,-197.4294"/>
<text text-anchor="middle" x="279.5" y="-204.4294" font-family="Helvetica,sans-Serif" font-size="10.00" fill="#000000">FCarlaActor</text>
</a>
</g>
</g>
<!-- Node2&#45;&gt;Node1 -->
<g id="edge1" class="edge">
<title>Node2&#45;&gt;Node1</title>
<path fill="none" stroke="#9a32cd" stroke-dasharray="5,2" d="M305.7935,-192.4966C343.9673,-171.5425 413.7048,-133.2627 446.1017,-115.4796"/>
<polygon fill="#9a32cd" stroke="#9a32cd" points="303.8923,-189.5475 296.8103,-197.4276 307.2606,-195.6838 303.8923,-189.5475"/>
<text text-anchor="middle" x="370.5" y="-176.9294" font-family="Helvetica,sans-Serif" font-size="10.00" fill="#000000"> CarlaActor</text>
</g>
<!-- Node3 -->
<g id="node3" class="node">
<title>Node3</title>
<polygon fill="#ffffff" stroke="#bfbfbf" points="43,-378.4294 43,-397.4294 103,-397.4294 103,-378.4294 43,-378.4294"/>
<text text-anchor="middle" x="73" y="-385.4294" font-family="Helvetica,sans-Serif" font-size="10.00" fill="#000000">UWorld *</text>
</g>
<!-- Node3&#45;&gt;Node2 -->
<g id="edge2" class="edge">
<title>Node3&#45;&gt;Node2</title>
<path fill="none" stroke="#9a32cd" stroke-dasharray="5,2" d="M113.4316,-388.375C147.0985,-386.6209 194.3284,-378.9345 225,-351.9294 266.7817,-315.1424 276.6279,-243.0424 278.8665,-216.7894"/>
<polygon fill="#9a32cd" stroke="#9a32cd" points="112.882,-384.8926 103.0155,-388.753 113.1359,-391.888 112.882,-384.8926"/>
<text text-anchor="middle" x="194.5" y="-383.9294" font-family="Helvetica,sans-Serif" font-size="10.00" fill="#000000"> World</text>
</g>
<!-- Node4 -->
<g id="node4" class="node">
<title>Node4</title>
<polygon fill="#ffffff" stroke="#bfbfbf" points="39,-340.4294 39,-359.4294 107,-359.4294 107,-340.4294 39,-340.4294"/>
<text text-anchor="middle" x="73" y="-347.4294" font-family="Helvetica,sans-Serif" font-size="10.00" fill="#000000">ActorState</text>
</g>
<!-- Node4&#45;&gt;Node2 -->
<g id="edge3" class="edge">
<title>Node4&#45;&gt;Node2</title>
<path fill="none" stroke="#9a32cd" stroke-dasharray="5,2" d="M117.2686,-347.068C150.1221,-342.8888 194.3523,-332.6948 225,-307.9294 255.5299,-283.2593 271.3461,-236.748 277.0147,-216.6196"/>
<polygon fill="#9a32cd" stroke="#9a32cd" points="116.577,-343.6238 107.0332,-348.2244 117.3629,-350.5795 116.577,-343.6238"/>
<text text-anchor="middle" x="194.5" y="-339.9294" font-family="Helvetica,sans-Serif" font-size="10.00" fill="#000000"> State</text>
</g>
<!-- Node5 -->
<g id="node5" class="node">
<title>Node5</title>
<polygon fill="#ffffff" stroke="#bfbfbf" points="44.5,-302.4294 44.5,-321.4294 101.5,-321.4294 101.5,-302.4294 44.5,-302.4294"/>
<text text-anchor="middle" x="73" y="-309.4294" font-family="Helvetica,sans-Serif" font-size="10.00" fill="#000000">AActor *</text>
</g>
<!-- Node5&#45;&gt;Node2 -->
<g id="edge4" class="edge">
<title>Node5&#45;&gt;Node2</title>
<path fill="none" stroke="#9a32cd" stroke-dasharray="5,2" d="M111.6331,-306.7598C143.9904,-301.027 190.3165,-289.439 225,-266.9294 246.0117,-253.2928 264.1525,-229.612 273.2565,-216.4475"/>
<polygon fill="#9a32cd" stroke="#9a32cd" points="110.9402,-303.3269 101.6508,-308.4218 112.0899,-310.2318 110.9402,-303.3269"/>
<text text-anchor="middle" x="194.5" y="-295.9294" font-family="Helvetica,sans-Serif" font-size="10.00" fill="#000000"> TheActor</text>
</g>
<!-- Node6 -->
<g id="node6" class="node">
<title>Node6</title>
<polygon fill="#ffffff" stroke="#bfbfbf" points="22,-264.4294 22,-283.4294 124,-283.4294 124,-264.4294 22,-264.4294"/>
<text text-anchor="middle" x="73" y="-271.4294" font-family="Helvetica,sans-Serif" font-size="10.00" fill="#000000">TArray&lt; IdType &gt;</text>
</g>
<!-- Node6&#45;&gt;Node2 -->
<g id="edge5" class="edge">
<title>Node6&#45;&gt;Node2</title>
<path fill="none" stroke="#9a32cd" stroke-dasharray="5,2" d="M128.9758,-262.1027C158.0634,-255.2332 193.93,-245.6204 225,-233.9294 237.8476,-229.0951 251.701,-222.208 262.2256,-216.5997"/>
<polygon fill="#9a32cd" stroke="#9a32cd" points="127.9405,-258.7498 118.9888,-264.4171 129.5208,-265.5691 127.9405,-258.7498"/>
<text text-anchor="middle" x="194.5" y="-254.9294" font-family="Helvetica,sans-Serif" font-size="10.00" fill="#000000"> Children</text>
</g>
<!-- Node7 -->
<g id="node7" class="node">
<title>Node7</title>
<polygon fill="#ffffff" stroke="#bfbfbf" points="3,-214.9294 3,-244.9294 143,-244.9294 143,-214.9294 3,-214.9294"/>
<text text-anchor="start" x="11" y="-232.9294" font-family="Helvetica,sans-Serif" font-size="10.00" fill="#000000">TSharedPtr&lt; const FActor</text>
<text text-anchor="middle" x="73" y="-221.9294" font-family="Helvetica,sans-Serif" font-size="10.00" fill="#000000">Info &gt;</text>
</g>
<!-- Node7&#45;&gt;Node2 -->
<g id="edge6" class="edge">
<title>Node7&#45;&gt;Node2</title>
<path fill="none" stroke="#9a32cd" stroke-dasharray="5,2" d="M153.5314,-220.9598C184.3686,-217.5252 218.0504,-213.7737 242.8208,-211.0147"/>
<polygon fill="#9a32cd" stroke="#9a32cd" points="152.7507,-217.525 143.1996,-222.1106 153.5256,-224.482 152.7507,-217.525"/>
<text text-anchor="middle" x="194.5" y="-221.9294" font-family="Helvetica,sans-Serif" font-size="10.00" fill="#000000"> Info</text>
</g>
<!-- Node8 -->
<g id="node8" class="node">
<title>Node8</title>
<polygon fill="#ffffff" stroke="#bfbfbf" points="49.5,-176.4294 49.5,-195.4294 96.5,-195.4294 96.5,-176.4294 49.5,-176.4294"/>
<text text-anchor="middle" x="73" y="-183.4294" font-family="Helvetica,sans-Serif" font-size="10.00" fill="#000000">uint32</text>
</g>
<!-- Node8&#45;&gt;Node2 -->
<g id="edge7" class="edge">
<title>Node8&#45;&gt;Node2</title>
<path fill="none" stroke="#9a32cd" stroke-dasharray="5,2" d="M106.9489,-182.4045C137.9698,-180.0137 184.9668,-178.4834 225,-185.9294 236.9627,-188.1544 249.6855,-192.9077 259.8272,-197.3302"/>
<polygon fill="#9a32cd" stroke="#9a32cd" points="106.3498,-178.9426 96.6803,-183.2727 106.9396,-185.9177 106.3498,-178.9426"/>
<text text-anchor="middle" x="194.5" y="-199.9294" font-family="Helvetica,sans-Serif" font-size="10.00" fill="#000000"> Id</text>
<text text-anchor="middle" x="194.5" y="-188.9294" font-family="Helvetica,sans-Serif" font-size="10.00" fill="#000000">ParentId</text>
</g>
<!-- Node9 -->
<g id="node9" class="node">
<title>Node9</title>
<polygon fill="#ffffff" stroke="#bfbfbf" points="0,-138.4294 0,-157.4294 146,-157.4294 146,-138.4294 0,-138.4294"/>
<text text-anchor="middle" x="73" y="-145.4294" font-family="Helvetica,sans-Serif" font-size="10.00" fill="#000000">TSharedPtr&lt; FActorData &gt;</text>
</g>
<!-- Node9&#45;&gt;Node2 -->
<g id="edge8" class="edge">
<title>Node9&#45;&gt;Node2</title>
<path fill="none" stroke="#9a32cd" stroke-dasharray="5,2" d="M156.1765,-149.0498C179.1035,-151.5279 203.5538,-156.2644 225,-164.9294 243.164,-172.2683 260.4222,-187.4411 270.4806,-197.3987"/>
<polygon fill="#9a32cd" stroke="#9a32cd" points="156.3994,-145.5553 146.1129,-148.0926 155.7365,-152.5238 156.3994,-145.5553"/>
<text text-anchor="middle" x="194.5" y="-167.9294" font-family="Helvetica,sans-Serif" font-size="10.00" fill="#000000"> ActorData</text>
</g>
<!-- Node10 -->
<g id="node10" class="node">
<title>Node10</title>
<polygon fill="#ffffff" stroke="#bfbfbf" points="40.5,-100.4294 40.5,-119.4294 105.5,-119.4294 105.5,-100.4294 40.5,-100.4294"/>
<text text-anchor="middle" x="73" y="-107.4294" font-family="Helvetica,sans-Serif" font-size="10.00" fill="#000000">ActorType</text>
</g>
<!-- Node10&#45;&gt;Node2 -->
<g id="edge9" class="edge">
<title>Node10&#45;&gt;Node2</title>
<path fill="none" stroke="#9a32cd" stroke-dasharray="5,2" d="M115.6398,-108.6656C147.8262,-109.5815 191.9417,-114.9809 225,-134.9294 250.1005,-150.0759 267.6111,-181.5124 275.2269,-197.3583"/>
<polygon fill="#9a32cd" stroke="#9a32cd" points="115.6902,-105.1661 105.6379,-108.513 115.5833,-112.1652 115.6902,-105.1661"/>
<text text-anchor="middle" x="194.5" y="-137.9294" font-family="Helvetica,sans-Serif" font-size="10.00" fill="#000000"> Type</text>
</g>
<!-- Node11 -->
<g id="node11" class="node">
<title>Node11</title>
<polygon fill="#ffffff" stroke="#bfbfbf" points="25,-62.4294 25,-81.4294 121,-81.4294 121,-62.4294 25,-62.4294"/>
<text text-anchor="middle" x="73" y="-69.4294" font-family="Helvetica,sans-Serif" font-size="10.00" fill="#000000">AttachmentType</text>
</g>
<!-- Node11&#45;&gt;Node2 -->
<g id="edge10" class="edge">
<title>Node11&#45;&gt;Node2</title>
<path fill="none" stroke="#9a32cd" stroke-dasharray="5,2" d="M131.305,-70.2402C161.8492,-72.1391 198.3387,-79.0944 225,-98.9294 233.7201,-105.4168 263.9716,-172.0258 275.2327,-197.2869"/>
<polygon fill="#9a32cd" stroke="#9a32cd" points="131.3464,-66.7386 121.1972,-69.7788 131.0272,-73.7313 131.3464,-66.7386"/>
<text text-anchor="middle" x="194.5" y="-101.9294" font-family="Helvetica,sans-Serif" font-size="10.00" fill="#000000"> Attachment</text>
</g>
<!-- Node12 -->
<g id="node12" class="node">
<title>Node12</title>
<g id="a_node12"><a xlink:href="../../de/d7a/structFDVector.html" target="_top" xlink:title="FDVector">
<polygon fill="#ffffff" stroke="#000000" points="249.5,-96.4294 249.5,-115.4294 309.5,-115.4294 309.5,-96.4294 249.5,-96.4294"/>
<text text-anchor="middle" x="279.5" y="-103.4294" font-family="Helvetica,sans-Serif" font-size="10.00" fill="#000000">FDVector</text>
</a>
</g>
</g>
<!-- Node12&#45;&gt;Node1 -->
<g id="edge11" class="edge">
<title>Node12&#45;&gt;Node1</title>
<path fill="none" stroke="#9a32cd" stroke-dasharray="5,2" d="M319.9782,-105.9294C351.1623,-105.9294 394.0019,-105.9294 424.7453,-105.9294"/>
<polygon fill="#9a32cd" stroke="#9a32cd" points="319.8839,-102.4295 309.8839,-105.9294 319.8838,-109.4295 319.8839,-102.4295"/>
<text text-anchor="middle" x="370.5" y="-108.9294" font-family="Helvetica,sans-Serif" font-size="10.00" fill="#000000"> WorldLocation</text>
</g>
<!-- Node13 -->
<g id="node13" class="node">
<title>Node13</title>
<polygon fill="#ffffff" stroke="#bfbfbf" points="48,-8.4294 48,-27.4294 98,-27.4294 98,-8.4294 48,-8.4294"/>
<text text-anchor="middle" x="73" y="-15.4294" font-family="Helvetica,sans-Serif" font-size="10.00" fill="#000000">double</text>
</g>
<!-- Node13&#45;&gt;Node12 -->
<g id="edge12" class="edge">
<title>Node13&#45;&gt;Node12</title>
<path fill="none" stroke="#9a32cd" stroke-dasharray="5,2" d="M107.9035,-7.1187C141.4902,.9639 191.9193,6.7077 225,-18.9294 249.711,-38.0801 223.4684,-62.5183 243,-86.9294 246.035,-90.7226 250.0329,-93.8412 254.2681,-96.376"/>
<polygon fill="#9a32cd" stroke="#9a32cd" points="106.8608,-3.7732 98.0587,-9.67 108.6169,-10.5494 106.8608,-3.7732"/>
<text text-anchor="middle" x="194.5" y="-43.9294" font-family="Helvetica,sans-Serif" font-size="10.00" fill="#000000"> X</text>
<text text-anchor="middle" x="194.5" y="-32.9294" font-family="Helvetica,sans-Serif" font-size="10.00" fill="#000000">Y</text>
<text text-anchor="middle" x="194.5" y="-21.9294" font-family="Helvetica,sans-Serif" font-size="10.00" fill="#000000">Z</text>
</g>
<!-- Node14 -->
<g id="node14" class="node">
<title>Node14</title>
<polygon fill="#ffffff" stroke="#bfbfbf" points="257,-58.4294 257,-77.4294 302,-77.4294 302,-58.4294 257,-58.4294"/>
<text text-anchor="middle" x="279.5" y="-65.4294" font-family="Helvetica,sans-Serif" font-size="10.00" fill="#000000">FQuat</text>
</g>
<!-- Node14&#45;&gt;Node1 -->
<g id="edge13" class="edge">
<title>Node14&#45;&gt;Node1</title>
<path fill="none" stroke="#9a32cd" stroke-dasharray="5,2" d="M312.1902,-73.077C338.0339,-77.3267 374.9672,-83.8003 407,-90.9294 414.2317,-92.5389 421.9333,-94.4501 429.2488,-96.3602"/>
<polygon fill="#9a32cd" stroke="#9a32cd" points="312.6133,-69.5999 302.1815,-71.4512 311.4909,-76.5094 312.6133,-69.5999"/>
<text text-anchor="middle" x="370.5" y="-93.9294" font-family="Helvetica,sans-Serif" font-size="10.00" fill="#000000"> Rotation</text>
</g>
</g>
</svg>
