<?xml version="1.0" encoding="UTF-8" standalone="no"?>
<!DOCTYPE svg PUBLIC "-//W3C//DTD SVG 1.1//EN"
 "http://www.w3.org/Graphics/SVG/1.1/DTD/svg11.dtd">
<!-- Generated by graphviz version 2.40.1 (20161225.0304)
 -->
<!-- Title: RoadInfoCrosswalk.h Pages: 1 -->
<svg width="437pt" height="162pt"
 viewBox="0.00 0.00 437.00 162.00" xmlns="http://www.w3.org/2000/svg" xmlns:xlink="http://www.w3.org/1999/xlink">
<g id="graph0" class="graph" transform="scale(1 1) rotate(0) translate(4 158)">
<title>RoadInfoCrosswalk.h</title>
<polygon fill="#ffffff" stroke="transparent" points="-4,4 -4,-158 433,-158 433,4 -4,4"/>
<!-- Node0 -->
<g id="node1" class="node">
<title>Node0</title>
<polygon fill="#bfbfbf" stroke="#000000" points="223,-134.5 223,-153.5 342,-153.5 342,-134.5 223,-134.5"/>
<text text-anchor="middle" x="282.5" y="-141.5" font-family="Helvetica,sans-Serif" font-size="10.00" fill="#000000">RoadInfoCrosswalk.h</text>
</g>
<!-- Node1 -->
<g id="node2" class="node">
<title>Node1</title>
<g id="a_node2"><a xlink:href="../../de/d3a/RoadInfo_8h.html" target="_top" xlink:title="carla/road/element\l/RoadInfo.h">
<polygon fill="#ffffff" stroke="#000000" points="228,-67.5 228,-97.5 337,-97.5 337,-67.5 228,-67.5"/>
<text text-anchor="start" x="236" y="-85.5" font-family="Helvetica,sans-Serif" font-size="10.00" fill="#000000">carla/road/element</text>
<text text-anchor="middle" x="282.5" y="-74.5" font-family="Helvetica,sans-Serif" font-size="10.00" fill="#000000">/RoadInfo.h</text>
</a>
</g>
</g>
<!-- Node0&#45;&gt;Node1 -->
<g id="edge1" class="edge">
<title>Node0&#45;&gt;Node1</title>
<path fill="none" stroke="#191970" d="M282.5,-134.3906C282.5,-127.2234 282.5,-117.0862 282.5,-107.671"/>
<polygon fill="#191970" stroke="#191970" points="286.0001,-107.5446 282.5,-97.5446 279.0001,-107.5446 286.0001,-107.5446"/>
</g>
<!-- Node2 -->
<g id="node3" class="node">
<title>Node2</title>
<g id="a_node3"><a xlink:href="../../d6/d67/RoadInfoVisitor_8h.html" target="_top" xlink:title="carla/road/element\l/RoadInfoVisitor.h">
<polygon fill="#ffffff" stroke="#000000" points="0,-.5 0,-30.5 109,-30.5 109,-.5 0,-.5"/>
<text text-anchor="start" x="8" y="-18.5" font-family="Helvetica,sans-Serif" font-size="10.00" fill="#000000">carla/road/element</text>
<text text-anchor="middle" x="54.5" y="-7.5" font-family="Helvetica,sans-Serif" font-size="10.00" fill="#000000">/RoadInfoVisitor.h</text>
</a>
</g>
</g>
<!-- Node1&#45;&gt;Node2 -->
<g id="edge2" class="edge">
<title>Node1&#45;&gt;Node2</title>
<path fill="none" stroke="#191970" d="M231.3323,-67.4639C197.1295,-57.4131 151.9531,-44.1375 115.8244,-33.5208"/>
<polygon fill="#191970" stroke="#191970" points="116.472,-30.0631 105.8908,-30.6017 114.4983,-36.7792 116.472,-30.0631"/>
</g>
<!-- Node3 -->
<g id="node4" class="node">
<title>Node3</title>
<g id="a_node4"><a xlink:href="../../d4/dd8/LibCarla_2source_2carla_2NonCopyable_8h.html" target="_top" xlink:title="carla/NonCopyable.h">
<polygon fill="#ffffff" stroke="#000000" points="127.5,-6 127.5,-25 245.5,-25 245.5,-6 127.5,-6"/>
<text text-anchor="middle" x="186.5" y="-13" font-family="Helvetica,sans-Serif" font-size="10.00" fill="#000000">carla/NonCopyable.h</text>
</a>
</g>
</g>
<!-- Node1&#45;&gt;Node3 -->
<g id="edge3" class="edge">
<title>Node1&#45;&gt;Node3</title>
<path fill="none" stroke="#191970" d="M260.7161,-67.2967C245.178,-56.4524 224.3529,-41.9182 208.7176,-31.006"/>
<polygon fill="#191970" stroke="#191970" points="210.3942,-27.908 200.1907,-25.055 206.3879,-33.6483 210.3942,-27.908"/>
</g>
<!-- Node4 -->
<g id="node5" class="node">
<title>Node4</title>
<polygon fill="#ffffff" stroke="#bfbfbf" points="263.5,-6 263.5,-25 301.5,-25 301.5,-6 263.5,-6"/>
<text text-anchor="middle" x="282.5" y="-13" font-family="Helvetica,sans-Serif" font-size="10.00" fill="#000000">map</text>
</g>
<!-- Node1&#45;&gt;Node4 -->
<g id="edge4" class="edge">
<title>Node1&#45;&gt;Node4</title>
<path fill="none" stroke="#191970" d="M282.5,-67.2967C282.5,-57.7699 282.5,-45.3954 282.5,-35.1306"/>
<polygon fill="#191970" stroke="#191970" points="286.0001,-35.0549 282.5,-25.055 279.0001,-35.055 286.0001,-35.0549"/>
</g>
<!-- Node5 -->
<g id="node6" class="node">
<title>Node5</title>
<polygon fill="#ffffff" stroke="#bfbfbf" points="319.5,-6 319.5,-25 363.5,-25 363.5,-6 319.5,-6"/>
<text text-anchor="middle" x="341.5" y="-13" font-family="Helvetica,sans-Serif" font-size="10.00" fill="#000000">string</text>
</g>
<!-- Node1&#45;&gt;Node5 -->
<g id="edge5" class="edge">
<title>Node1&#45;&gt;Node5</title>
<path fill="none" stroke="#191970" d="M295.888,-67.2967C304.902,-57.0605 316.8111,-43.5366 326.2,-32.8746"/>
<polygon fill="#191970" stroke="#191970" points="329.1038,-34.873 333.0859,-25.055 323.8504,-30.2468 329.1038,-34.873"/>
</g>
<!-- Node6 -->
<g id="node7" class="node">
<title>Node6</title>
<polygon fill="#ffffff" stroke="#bfbfbf" points="382,-6 382,-25 429,-25 429,-6 382,-6"/>
<text text-anchor="middle" x="405.5" y="-13" font-family="Helvetica,sans-Serif" font-size="10.00" fill="#000000">vector</text>
</g>
<!-- Node1&#45;&gt;Node6 -->
<g id="edge6" class="edge">
<title>Node1&#45;&gt;Node6</title>
<path fill="none" stroke="#191970" d="M310.1036,-67.4639C330.6485,-56.2728 358.5327,-41.0838 378.8465,-30.0186"/>
<polygon fill="#191970" stroke="#191970" points="380.7615,-32.9611 387.8689,-25.1039 377.413,-26.8139 380.7615,-32.9611"/>
</g>
</g>
</svg>
