<?xml version="1.0" encoding="UTF-8" standalone="no"?>
<!DOCTYPE svg PUBLIC "-//W3C//DTD SVG 1.1//EN"
 "http://www.w3.org/Graphics/SVG/1.1/DTD/svg11.dtd">
<!-- Generated by graphviz version 2.43.0 (0)
 -->
<!-- Title: UObjectRegister::RegisterTrafficLight Pages: 1 -->
<!--zoomable 160 -->
<svg id="main" version="1.1" xmlns="http://www.w3.org/2000/svg" xmlns:xlink="http://www.w3.org/1999/xlink" xml:space="preserve" onload="init(evt)">
<style type="text/css"><![CDATA[
.edge:hover path { stroke: red; }
.edge:hover polygon { stroke: red; fill: red; }
]]></style>
<script type="text/javascript"><![CDATA[
var edges = document.getElementsByTagName('g');
if (edges && edges.length) {
  for (var i=0;i<edges.length;i++) {
    if (edges[i].id.substr(0,4)=='edge') {
      edges[i].setAttribute('class','edge');
    }
  }
}
]]></script>
        <defs>
                <circle id="rim" cx="0" cy="0" r="7"/>
                <circle id="rim2" cx="0" cy="0" r="3.5"/>
                <g id="zoomPlus">
                        <use xlink:href="#rim" fill="#404040">
                                <set attributeName="fill" to="#808080" begin="zoomplus.mouseover" end="zoomplus.mouseout"/>
                        </use>
                        <path d="M-4,0h8M0,-4v8" fill="none" stroke="white" stroke-width="1.5" pointer-events="none"/>
                </g>
                <g id="zoomMin">
                        <use xlink:href="#rim" fill="#404040">
                                <set attributeName="fill" to="#808080" begin="zoomminus.mouseover" end="zoomminus.mouseout"/>
                        </use>
                        <path d="M-4,0h8" fill="none" stroke="white" stroke-width="1.5" pointer-events="none"/>
                </g>
                <g id="dirArrow">
                        <path fill="none" stroke="white" stroke-width="1.5" d="M0,-3.0v7 M-2.5,-0.5L0,-3.0L2.5,-0.5"/>
                </g>
               <g id="resetDef">
                       <use xlink:href="#rim2" fill="#404040">
                               <set attributeName="fill" to="#808080" begin="reset.mouseover" end="reset.mouseout"/>
                       </use>
               </g>
        </defs>

<script type="text/javascript">
var viewWidth = 1050;
var viewHeight = 160;
var sectionId = 'dynsection-20';
</script>
<script xlink:href="../../svgpan.js"/>
<svg id="graph" class="graph">
<g id="viewport">
<title>UObjectRegister::RegisterTrafficLight</title>
<polygon fill="white" stroke="transparent" points="-4,4 -4,-155.5 1046,-155.5 1046,4 -4,4"/>
<!-- Node1 -->
<g id="node1" class="node">
<title>Node1</title>
<g id="a_node1"><a xlink:title=" ">
<polygon fill="#bfbfbf" stroke="black" points="0,-44.5 0,-74.5 143,-74.5 143,-44.5 0,-44.5"/>
<text text-anchor="start" x="8" y="-62.5" font-family="Helvetica,sans-Serif" font-size="10.00">UObjectRegister::Register</text>
<text text-anchor="middle" x="71.5" y="-51.5" font-family="Helvetica,sans-Serif" font-size="10.00">TrafficLight</text>
</a>
</g>
</g>
<!-- Node2 -->
<g id="node2" class="node">
<title>Node2</title>
<g id="a_node2"><a xlink:href="../../df/d02/classUBoundingBoxCalculator.html#af8d4b9688261756447ce09390064d3c2" target="_top" xlink:title=" ">
<polygon fill="white" stroke="black" points="373,-82.5 373,-112.5 588,-112.5 588,-82.5 373,-82.5"/>
<text text-anchor="start" x="381" y="-100.5" font-family="Helvetica,sans-Serif" font-size="10.00">UBoundingBoxCalculator</text>
<text text-anchor="middle" x="480.5" y="-89.5" font-family="Helvetica,sans-Serif" font-size="10.00">::GetMeshCompsFromActorBoundingBox</text>
</a>
</g>
</g>
<!-- Node1&#45;&gt;Node2 -->
<g id="edge1" class="edge">
<title>Node1&#45;&gt;Node2</title>
<path fill="none" stroke="midnightblue" d="M143.08,-73.25C155.03,-75.25 167.35,-77.1 179,-78.5 239.34,-85.77 306.85,-90.35 362.58,-93.19"/>
<polygon fill="midnightblue" stroke="midnightblue" points="362.68,-96.7 372.84,-93.7 363.03,-89.71 362.68,-96.7"/>
</g>
<!-- Node7 -->
<g id="node7" class="node">
<title>Node7</title>
<g id="a_node7"><a xlink:href="../../da/d86/classATagger.html#a2b8ab63680928bbd944deecb7e87ec23" target="_top" xlink:title="Retrieve the tags of an already tagged actor.">
<polygon fill="white" stroke="black" points="190.5,-50 190.5,-69 325.5,-69 325.5,-50 190.5,-50"/>
<text text-anchor="middle" x="258" y="-57" font-family="Helvetica,sans-Serif" font-size="10.00">ATagger::GetTagAsString</text>
</a>
</g>
</g>
<!-- Node1&#45;&gt;Node7 -->
<g id="edge6" class="edge">
<title>Node1&#45;&gt;Node7</title>
<path fill="none" stroke="midnightblue" d="M143.04,-59.5C155.2,-59.5 167.89,-59.5 180.21,-59.5"/>
<polygon fill="midnightblue" stroke="midnightblue" points="180.44,-63 190.44,-59.5 180.44,-56 180.44,-63"/>
</g>
<!-- Node8 -->
<g id="node8" class="node">
<title>Node8</title>
<g id="a_node8"><a xlink:href="../../df/d02/classUBoundingBoxCalculator.html#ad731c0c97029d59cb5b763077a7c18ec" target="_top" xlink:title=" ">
<polygon fill="white" stroke="black" points="179,-0.5 179,-30.5 337,-30.5 337,-0.5 179,-0.5"/>
<text text-anchor="start" x="187" y="-18.5" font-family="Helvetica,sans-Serif" font-size="10.00">UBoundingBoxCalculator</text>
<text text-anchor="middle" x="258" y="-7.5" font-family="Helvetica,sans-Serif" font-size="10.00">::GetTrafficLightBoundingBox</text>
</a>
</g>
</g>
<!-- Node1&#45;&gt;Node8 -->
<g id="edge7" class="edge">
<title>Node1&#45;&gt;Node8</title>
<path fill="none" stroke="midnightblue" d="M135.48,-44.48C151.13,-40.75 168.03,-36.72 184.11,-32.88"/>
<polygon fill="midnightblue" stroke="midnightblue" points="185.08,-36.25 193.99,-30.53 183.45,-29.44 185.08,-36.25"/>
</g>
<!-- Node3 -->
<g id="node3" class="node">
<title>Node3</title>
<g id="a_node3"><a xlink:href="../../df/d02/classUBoundingBoxCalculator.html#ae6652aae39124e629b2cab14760fa027" target="_top" xlink:title=" ">
<polygon fill="white" stroke="black" points="624,-82.5 624,-112.5 809,-112.5 809,-82.5 624,-82.5"/>
<text text-anchor="start" x="632" y="-100.5" font-family="Helvetica,sans-Serif" font-size="10.00">UBoundingBoxCalculator</text>
<text text-anchor="middle" x="716.5" y="-89.5" font-family="Helvetica,sans-Serif" font-size="10.00">::GetBBsOfStaticMeshComponents</text>
</a>
</g>
</g>
<!-- Node2&#45;&gt;Node3 -->
<g id="edge2" class="edge">
<title>Node2&#45;&gt;Node3</title>
<path fill="none" stroke="midnightblue" d="M588.23,-97.5C596.71,-97.5 605.27,-97.5 613.72,-97.5"/>
<polygon fill="midnightblue" stroke="midnightblue" points="613.96,-101 623.96,-97.5 613.96,-94 613.96,-101"/>
</g>
<!-- Node4 -->
<g id="node4" class="node">
<title>Node4</title>
<g id="a_node4"><a xlink:href="../../dd/dd8/BoundingBoxCalculator_8cpp.html#a724edcd3050f902e60a4c923013b7e4c" target="_top" xlink:title=" ">
<polygon fill="white" stroke="black" points="885,-132 885,-151 1002,-151 1002,-132 885,-132"/>
<text text-anchor="middle" x="943.5" y="-139" font-family="Helvetica,sans-Serif" font-size="10.00">ApplyTransformToBB</text>
</a>
</g>
</g>
<!-- Node3&#45;&gt;Node4 -->
<g id="edge3" class="edge">
<title>Node3&#45;&gt;Node4</title>
<path fill="none" stroke="midnightblue" d="M794.02,-112.52C810.82,-115.81 828.51,-119.28 845,-122.5 857.42,-124.93 870.73,-127.52 883.4,-129.99"/>
<polygon fill="midnightblue" stroke="midnightblue" points="882.91,-133.47 893.4,-131.94 884.25,-126.59 882.91,-133.47"/>
</g>
<!-- Node5 -->
<g id="node5" class="node">
<title>Node5</title>
<g id="a_node5"><a xlink:href="../../df/d02/classUBoundingBoxCalculator.html#acee57735172616e5908916e178b16b7f" target="_top" xlink:title=" ">
<polygon fill="white" stroke="black" points="864.5,-82.5 864.5,-112.5 1022.5,-112.5 1022.5,-82.5 864.5,-82.5"/>
<text text-anchor="start" x="872.5" y="-100.5" font-family="Helvetica,sans-Serif" font-size="10.00">UBoundingBoxCalculator</text>
<text text-anchor="middle" x="943.5" y="-89.5" font-family="Helvetica,sans-Serif" font-size="10.00">::GetStaticMeshBoundingBox</text>
</a>
</g>
</g>
<!-- Node3&#45;&gt;Node5 -->
<g id="edge4" class="edge">
<title>Node3&#45;&gt;Node5</title>
<path fill="none" stroke="midnightblue" d="M809.02,-97.5C823.94,-97.5 839.38,-97.5 854.23,-97.5"/>
<polygon fill="midnightblue" stroke="midnightblue" points="854.4,-101 864.4,-97.5 854.4,-94 854.4,-101"/>
</g>
<!-- Node6 -->
<g id="node6" class="node">
<title>Node6</title>
<g id="a_node6"><a xlink:href="../../da/d86/classATagger.html#a1fbf1e4054acac5814c5521796a410a2" target="_top" xlink:title="Retrieve the tag of an already tagged component.">
<polygon fill="white" stroke="black" points="845,-44 845,-63 1042,-63 1042,-44 845,-44"/>
<text text-anchor="middle" x="943.5" y="-51" font-family="Helvetica,sans-Serif" font-size="10.00">ATagger::GetTagOfTaggedComponent</text>
</a>
</g>
</g>
<!-- Node3&#45;&gt;Node6 -->
<g id="edge5" class="edge">
<title>Node3&#45;&gt;Node6</title>
<path fill="none" stroke="midnightblue" d="M794.3,-82.48C823.67,-76.74 856.66,-70.29 884.04,-64.93"/>
<polygon fill="midnightblue" stroke="midnightblue" points="884.71,-68.37 893.86,-63.01 883.37,-61.5 884.71,-68.37"/>
</g>
<!-- Node9 -->
<g id="node9" class="node">
<title>Node9</title>
<g id="a_node9"><a xlink:href="../../df/d02/classUBoundingBoxCalculator.html#af2813a65238c05c9f421c93839766edb" target="_top" xlink:title=" ">
<polygon fill="white" stroke="black" points="411.5,-0.5 411.5,-30.5 549.5,-30.5 549.5,-0.5 411.5,-0.5"/>
<text text-anchor="start" x="419.5" y="-18.5" font-family="Helvetica,sans-Serif" font-size="10.00">UBoundingBoxCalculator</text>
<text text-anchor="middle" x="480.5" y="-7.5" font-family="Helvetica,sans-Serif" font-size="10.00">::CombineBBsOfActor</text>
</a>
</g>
</g>
<!-- Node8&#45;&gt;Node9 -->
<g id="edge8" class="edge">
<title>Node8&#45;&gt;Node9</title>
<path fill="none" stroke="midnightblue" d="M337.05,-15.5C357.92,-15.5 380.47,-15.5 401.35,-15.5"/>
<polygon fill="midnightblue" stroke="midnightblue" points="401.44,-19 411.44,-15.5 401.44,-12 401.44,-19"/>
</g>
<!-- Node9&#45;&gt;Node3 -->
<g id="edge11" class="edge">
<title>Node9&#45;&gt;Node3</title>
<path fill="none" stroke="midnightblue" d="M524.42,-30.54C563.47,-44.22 621.22,-64.46 663,-79.1"/>
<polygon fill="midnightblue" stroke="midnightblue" points="661.86,-82.41 672.46,-82.42 664.18,-75.81 661.86,-82.41"/>
</g>
<!-- Node10 -->
<g id="node10" class="node">
<title>Node10</title>
<g id="a_node10"><a xlink:href="../../df/d02/classUBoundingBoxCalculator.html#adc638d4ad146b80666f002e31fb67dca" target="_top" xlink:title=" ">
<polygon fill="white" stroke="black" points="647.5,-0.5 647.5,-30.5 785.5,-30.5 785.5,-0.5 647.5,-0.5"/>
<text text-anchor="start" x="655.5" y="-18.5" font-family="Helvetica,sans-Serif" font-size="10.00">UBoundingBoxCalculator</text>
<text text-anchor="middle" x="716.5" y="-7.5" font-family="Helvetica,sans-Serif" font-size="10.00">::CombineBBs</text>
</a>
</g>
</g>
<!-- Node9&#45;&gt;Node10 -->
<g id="edge9" class="edge">
<title>Node9&#45;&gt;Node10</title>
<path fill="none" stroke="midnightblue" d="M549.81,-15.5C577.08,-15.5 608.65,-15.5 636.87,-15.5"/>
<polygon fill="midnightblue" stroke="midnightblue" points="637.1,-19 647.1,-15.5 637.1,-12 637.1,-19"/>
</g>
<!-- Node11 -->
<g id="node11" class="node">
<title>Node11</title>
<g id="a_node11"><a xlink:href="../../dd/dd8/BoundingBoxCalculator_8cpp.html#add48caf167e197fab6a9c2228ad1c024" target="_top" xlink:title=" ">
<polygon fill="white" stroke="black" points="857,-6 857,-25 1030,-25 1030,-6 857,-6"/>
<text text-anchor="middle" x="943.5" y="-13" font-family="Helvetica,sans-Serif" font-size="10.00">CombineBoundingBoxesGeneric</text>
</a>
</g>
</g>
<!-- Node10&#45;&gt;Node11 -->
<g id="edge10" class="edge">
<title>Node10&#45;&gt;Node11</title>
<path fill="none" stroke="midnightblue" d="M785.62,-15.5C804.85,-15.5 826.14,-15.5 846.67,-15.5"/>
<polygon fill="midnightblue" stroke="midnightblue" points="846.68,-19 856.68,-15.5 846.68,-12 846.68,-19"/>
</g>
</g>
</svg>
        <g id="navigator" transform="translate(0 0)" fill="#404254">
                <rect fill="#f2f5e9" fill-opacity="0.5" stroke="#606060" stroke-width=".5" x="0" y="0" width="60" height="60"/>
                <use id="zoomplus" xlink:href="#zoomPlus" x="17" y="9" onmousedown="handleZoom(evt,'in')"/>
                <use id="zoomminus" xlink:href="#zoomMin" x="42" y="9" onmousedown="handleZoom(evt,'out')"/>
                <use id="reset" xlink:href="#resetDef" x="30" y="36" onmousedown="handleReset()"/>
                <g id="arrowUp" xlink:href="#dirArrow" transform="translate(30 24)" onmousedown="handlePan(0,-1)">
                  <use xlink:href="#rim" fill="#404040">
                        <set attributeName="fill" to="#808080" begin="arrowUp.mouseover" end="arrowUp.mouseout"/>
                  </use>
                  <path fill="none" stroke="white" stroke-width="1.5" d="M0,-3.0v7 M-2.5,-0.5L0,-3.0L2.5,-0.5"/>
                </g>
                <g id="arrowRight" xlink:href="#dirArrow" transform="rotate(90) translate(36 -43)" onmousedown="handlePan(1,0)">
                  <use xlink:href="#rim" fill="#404040">
                        <set attributeName="fill" to="#808080" begin="arrowRight.mouseover" end="arrowRight.mouseout"/>
                  </use>
                  <path fill="none" stroke="white" stroke-width="1.5" d="M0,-3.0v7 M-2.5,-0.5L0,-3.0L2.5,-0.5"/>
                </g>
                <g id="arrowDown" xlink:href="#dirArrow" transform="rotate(180) translate(-30 -48)" onmousedown="handlePan(0,1)">
                  <use xlink:href="#rim" fill="#404040">
                        <set attributeName="fill" to="#808080" begin="arrowDown.mouseover" end="arrowDown.mouseout"/>
                  </use>
                  <path fill="none" stroke="white" stroke-width="1.5" d="M0,-3.0v7 M-2.5,-0.5L0,-3.0L2.5,-0.5"/>
                </g>
                <g id="arrowLeft" xlink:href="#dirArrow" transform="rotate(270) translate(-36 17)" onmousedown="handlePan(-1,0)">
                  <use xlink:href="#rim" fill="#404040">
                        <set attributeName="fill" to="#808080" begin="arrowLeft.mouseover" end="arrowLeft.mouseout"/>
                  </use>
                  <path fill="none" stroke="white" stroke-width="1.5" d="M0,-3.0v7 M-2.5,-0.5L0,-3.0L2.5,-0.5"/>
                </g>
        </g>
        <svg viewBox="0 0 15 15" width="100%" height="30px" preserveAspectRatio="xMaxYMin meet">
         <g id="arrow_out" transform="scale(0.3 0.3)">
          <a xlink:href="classUObjectRegister_a8bc743b6be0375b789d1a04b3555d961_cgraph_org.svg" target="_base">
           <rect id="button" ry="5" rx="5" y="6" x="6" height="38" width="38"
                fill="#f2f5e9" fill-opacity="0.5" stroke="#606060" stroke-width="1.0"/>
           <path id="arrow"
             d="M 11.500037,31.436501 C 11.940474,20.09759 22.043105,11.32322 32.158766,21.979434 L 37.068811,17.246167 C 37.068811,17.246167 37.088388,32 37.088388,32 L 22.160133,31.978069 C 22.160133,31.978069 26.997745,27.140456 26.997745,27.140456 C 18.528582,18.264221 13.291696,25.230495 11.500037,31.436501 z"
             style="fill:#404040;"/>
          </a>
         </g>
        </svg>
</svg>
