<?xml version="1.0" encoding="UTF-8" standalone="no"?>
<!DOCTYPE svg PUBLIC "-//W3C//DTD SVG 1.1//EN"
 "http://www.w3.org/Graphics/SVG/1.1/DTD/svg11.dtd">
<!-- Generated by graphviz version 2.40.1 (20161225.0304)
 -->
<!-- Title: carla::client::detail::WalkerNavigation::CheckIfWalkerExist Pages: 1 -->
<!--zoomable 160 -->
<svg id="main" version="1.1" xmlns="http://www.w3.org/2000/svg" xmlns:xlink="http://www.w3.org/1999/xlink" xml:space="preserve" onload="init(evt)">
<style type="text/css"><![CDATA[
.edge:hover path { stroke: red; }
.edge:hover polygon { stroke: red; fill: red; }
]]></style>
<script type="text/javascript"><![CDATA[
var edges = document.getElementsByTagName('g');
if (edges && edges.length) {
  for (var i=0;i<edges.length;i++) {
    if (edges[i].id.substr(0,4)=='edge') {
      edges[i].setAttribute('class','edge');
    }
  }
}
]]></script>
        <defs>
                <circle id="rim" cx="0" cy="0" r="7"/>
                <circle id="rim2" cx="0" cy="0" r="3.5"/>
                <g id="zoomPlus">
                        <use xlink:href="#rim" fill="#404040">
                                <set attributeName="fill" to="#808080" begin="zoomplus.mouseover" end="zoomplus.mouseout"/>
                        </use>
                        <path d="M-4,0h8M0,-4v8" fill="none" stroke="white" stroke-width="1.5" pointer-events="none"/>
                </g>
                <g id="zoomMin">
                        <use xlink:href="#rim" fill="#404040">
                                <set attributeName="fill" to="#808080" begin="zoomminus.mouseover" end="zoomminus.mouseout"/>
                        </use>
                        <path d="M-4,0h8" fill="none" stroke="white" stroke-width="1.5" pointer-events="none"/>
                </g>
                <g id="dirArrow">
                        <path fill="none" stroke="white" stroke-width="1.5" d="M0,-3.0v7 M-2.5,-0.5L0,-3.0L2.5,-0.5"/>
                </g>
               <g id="resetDef">
                       <use xlink:href="#rim2" fill="#404040">
                               <set attributeName="fill" to="#808080" begin="reset.mouseover" end="reset.mouseout"/>
                       </use>
               </g>
        </defs>

<script type="text/javascript">
var viewWidth = 545;
var viewHeight = 160;
var sectionId = 'dynsection-4';
</script>
<script xlink:href="../../svgpan.js"/>
<svg id="graph" class="graph">
<g id="viewport">
<title>carla::client::detail::WalkerNavigation::CheckIfWalkerExist</title>
<polygon fill="#ffffff" stroke="transparent" points="-4,4 -4,-156 541,-156 541,4 -4,4"/>
<!-- Node55 -->
<g id="node1" class="node">
<title>Node55</title>
<polygon fill="#bfbfbf" stroke="#000000" points="0,-55.5 0,-96.5 152,-96.5 152,-55.5 0,-55.5"/>
<text text-anchor="start" x="8" y="-84.5" font-family="Helvetica,sans-Serif" font-size="10.00" fill="#000000">carla::client::detail</text>
<text text-anchor="start" x="8" y="-73.5" font-family="Helvetica,sans-Serif" font-size="10.00" fill="#000000">::WalkerNavigation::CheckIf</text>
<text text-anchor="middle" x="76" y="-62.5" font-family="Helvetica,sans-Serif" font-size="10.00" fill="#000000">WalkerExist</text>
</g>
<!-- Node56 -->
<g id="node2" class="node">
<title>Node56</title>
<g id="a_node2"><a xlink:href="../../d5/dbf/classcarla_1_1client_1_1detail_1_1EpisodeState.html#af35911dbfd3f3fe34e7da42d71826ff5" target="_top" xlink:title="carla::client::detail\l::EpisodeState::ContainsActor\lSnapshot">
<polygon fill="#ffffff" stroke="#000000" points="191,-110.5 191,-151.5 352,-151.5 352,-110.5 191,-110.5"/>
<text text-anchor="start" x="199" y="-139.5" font-family="Helvetica,sans-Serif" font-size="10.00" fill="#000000">carla::client::detail</text>
<text text-anchor="start" x="199" y="-128.5" font-family="Helvetica,sans-Serif" font-size="10.00" fill="#000000">::EpisodeState::ContainsActor</text>
<text text-anchor="middle" x="271.5" y="-117.5" font-family="Helvetica,sans-Serif" font-size="10.00" fill="#000000">Snapshot</text>
</a>
</g>
</g>
<!-- Node55&#45;&gt;Node56 -->
<g id="edge1" class="edge">
<title>Node55&#45;&gt;Node56</title>
<path fill="none" stroke="#191970" d="M149.075,-96.5582C161.9523,-100.181 175.441,-103.9757 188.5649,-107.6679"/>
<polygon fill="#191970" stroke="#191970" points="187.9393,-111.1277 198.5135,-110.4667 189.8351,-104.3893 187.9393,-111.1277"/>
</g>
<!-- Node57 -->
<g id="node3" class="node">
<title>Node57</title>
<g id="a_node3"><a xlink:href="../../d9/dc2/classcarla_1_1nav_1_1Navigation.html#a273cfd565ff7a8376f165105a192e2e1" target="_top" xlink:title="remove an agent ">
<polygon fill="#ffffff" stroke="#000000" points="210,-61 210,-91 333,-91 333,-61 210,-61"/>
<text text-anchor="start" x="218" y="-79" font-family="Helvetica,sans-Serif" font-size="10.00" fill="#000000">carla::nav::Navigation</text>
<text text-anchor="middle" x="271.5" y="-68" font-family="Helvetica,sans-Serif" font-size="10.00" fill="#000000">::RemoveAgent</text>
</a>
</g>
</g>
<!-- Node55&#45;&gt;Node57 -->
<g id="edge2" class="edge">
<title>Node55&#45;&gt;Node57</title>
<path fill="none" stroke="#191970" d="M152.1452,-76C167.8,-76 184.233,-76 199.7272,-76"/>
<polygon fill="#191970" stroke="#191970" points="199.7559,-79.5001 209.7558,-76 199.7558,-72.5001 199.7559,-79.5001"/>
</g>
<!-- Node59 -->
<g id="node5" class="node">
<title>Node59</title>
<g id="a_node5"><a xlink:href="../../d1/d83/classcarla_1_1client_1_1detail_1_1WalkerNavigation.html#ab4edab53833dbc4d785b66db7a325ecd" target="_top" xlink:title="carla::client::detail\l::WalkerNavigation::Unregister\lWalker">
<polygon fill="#ffffff" stroke="#000000" points="188,-.5 188,-41.5 355,-41.5 355,-.5 188,-.5"/>
<text text-anchor="start" x="196" y="-29.5" font-family="Helvetica,sans-Serif" font-size="10.00" fill="#000000">carla::client::detail</text>
<text text-anchor="start" x="196" y="-18.5" font-family="Helvetica,sans-Serif" font-size="10.00" fill="#000000">::WalkerNavigation::Unregister</text>
<text text-anchor="middle" x="271.5" y="-7.5" font-family="Helvetica,sans-Serif" font-size="10.00" fill="#000000">Walker</text>
</a>
</g>
</g>
<!-- Node55&#45;&gt;Node59 -->
<g id="edge4" class="edge">
<title>Node55&#45;&gt;Node59</title>
<path fill="none" stroke="#191970" d="M149.075,-55.4418C161.9523,-51.819 175.441,-48.0243 188.5649,-44.3321"/>
<polygon fill="#191970" stroke="#191970" points="189.8351,-47.6107 198.5135,-41.5333 187.9393,-40.8723 189.8351,-47.6107"/>
</g>
<!-- Node58 -->
<g id="node4" class="node">
<title>Node58</title>
<g id="a_node4"><a xlink:href="../../dd/d5b/classcarla_1_1nav_1_1WalkerManager.html#a020f1ac3386d56709e702fb2c826a4bc" target="_top" xlink:title="remove a walker route ">
<polygon fill="#ffffff" stroke="#000000" points="391,-61 391,-91 537,-91 537,-61 391,-61"/>
<text text-anchor="start" x="399" y="-79" font-family="Helvetica,sans-Serif" font-size="10.00" fill="#000000">carla::nav::WalkerManager</text>
<text text-anchor="middle" x="464" y="-68" font-family="Helvetica,sans-Serif" font-size="10.00" fill="#000000">::RemoveWalker</text>
</a>
</g>
</g>
<!-- Node57&#45;&gt;Node58 -->
<g id="edge3" class="edge">
<title>Node57&#45;&gt;Node58</title>
<path fill="none" stroke="#191970" d="M333.2025,-76C348.2678,-76 364.635,-76 380.529,-76"/>
<polygon fill="#191970" stroke="#191970" points="380.8868,-79.5001 390.8868,-76 380.8867,-72.5001 380.8868,-79.5001"/>
</g>
</g>
</svg>
        <g id="navigator" transform="translate(0 0)" fill="#404254">
                <rect fill="#f2f5e9" fill-opacity="0.5" stroke="#606060" stroke-width=".5" x="0" y="0" width="60" height="60"/>
                <use id="zoomplus" xlink:href="#zoomPlus" x="17" y="9" onmousedown="handleZoom(evt,'in')"/>
                <use id="zoomminus" xlink:href="#zoomMin" x="42" y="9" onmousedown="handleZoom(evt,'out')"/>
                <use id="reset" xlink:href="#resetDef" x="30" y="36" onmousedown="handleReset()"/>
                <g id="arrowUp" xlink:href="#dirArrow" transform="translate(30 24)" onmousedown="handlePan(0,-1)">
                  <use xlink:href="#rim" fill="#404040">
                        <set attributeName="fill" to="#808080" begin="arrowUp.mouseover" end="arrowUp.mouseout"/>
                  </use>
                  <path fill="none" stroke="white" stroke-width="1.5" d="M0,-3.0v7 M-2.5,-0.5L0,-3.0L2.5,-0.5"/>
                </g>
                <g id="arrowRight" xlink:href="#dirArrow" transform="rotate(90) translate(36 -43)" onmousedown="handlePan(1,0)">
                  <use xlink:href="#rim" fill="#404040">
                        <set attributeName="fill" to="#808080" begin="arrowRight.mouseover" end="arrowRight.mouseout"/>
                  </use>
                  <path fill="none" stroke="white" stroke-width="1.5" d="M0,-3.0v7 M-2.5,-0.5L0,-3.0L2.5,-0.5"/>
                </g>
                <g id="arrowDown" xlink:href="#dirArrow" transform="rotate(180) translate(-30 -48)" onmousedown="handlePan(0,1)">
                  <use xlink:href="#rim" fill="#404040">
                        <set attributeName="fill" to="#808080" begin="arrowDown.mouseover" end="arrowDown.mouseout"/>
                  </use>
                  <path fill="none" stroke="white" stroke-width="1.5" d="M0,-3.0v7 M-2.5,-0.5L0,-3.0L2.5,-0.5"/>
                </g>
                <g id="arrowLeft" xlink:href="#dirArrow" transform="rotate(270) translate(-36 17)" onmousedown="handlePan(-1,0)">
                  <use xlink:href="#rim" fill="#404040">
                        <set attributeName="fill" to="#808080" begin="arrowLeft.mouseover" end="arrowLeft.mouseout"/>
                  </use>
                  <path fill="none" stroke="white" stroke-width="1.5" d="M0,-3.0v7 M-2.5,-0.5L0,-3.0L2.5,-0.5"/>
                </g>
        </g>
        <svg viewBox="0 0 15 15" width="100%" height="30px" preserveAspectRatio="xMaxYMin meet">
         <g id="arrow_out" transform="scale(0.3 0.3)">
          <a xlink:href="classcarla_1_1client_1_1detail_1_1WalkerNavigation_a78b4f67c9dbe1543212c05e263543caf_cgraph_org.svg" target="_base">
           <rect id="button" ry="5" rx="5" y="6" x="6" height="38" width="38"
                fill="#f2f5e9" fill-opacity="0.5" stroke="#606060" stroke-width="1.0"/>
           <path id="arrow"
             d="M 11.500037,31.436501 C 11.940474,20.09759 22.043105,11.32322 32.158766,21.979434 L 37.068811,17.246167 C 37.068811,17.246167 37.088388,32 37.088388,32 L 22.160133,31.978069 C 22.160133,31.978069 26.997745,27.140456 26.997745,27.140456 C 18.528582,18.264221 13.291696,25.230495 11.500037,31.436501 z"
             style="fill:#404040;"/>
          </a>
         </g>
        </svg>
</svg>
