<?xml version="1.0" encoding="UTF-8" standalone="no"?>
<!DOCTYPE svg PUBLIC "-//W3C//DTD SVG 1.1//EN"
 "http://www.w3.org/Graphics/SVG/1.1/DTD/svg11.dtd">
<!-- Generated by graphviz version 2.38.0 (20140413.2041)
 -->
<!-- Title: carla::sensor::RawData::size Pages: 1 -->
<!--zoomable 279 -->
<svg id="main" version="1.1" xmlns="http://www.w3.org/2000/svg" xmlns:xlink="http://www.w3.org/1999/xlink" xml:space="preserve" onload="init(evt)">
<style type="text/css"><![CDATA[
.edge:hover path { stroke: red; }
.edge:hover polygon { stroke: red; fill: red; }
]]></style>
<script type="text/javascript"><![CDATA[
var edges = document.getElementsByTagName('g');
if (edges && edges.length) {
  for (var i=0;i<edges.length;i++) {
    if (edges[i].id.substr(0,4)=='edge') {
      edges[i].setAttribute('class','edge');
    }
  }
}
]]></script>
        <defs>
                <circle id="rim" cx="0" cy="0" r="7"/>
                <circle id="rim2" cx="0" cy="0" r="3.5"/>
                <g id="zoomPlus">
                        <use xlink:href="#rim" fill="#404040">
                                <set attributeName="fill" to="#808080" begin="zoomplus.mouseover" end="zoomplus.mouseout"/>
                        </use>
                        <path d="M-4,0h8M0,-4v8" fill="none" stroke="white" stroke-width="1.5" pointer-events="none"/>
                </g>
                <g id="zoomMin">
                        <use xlink:href="#rim" fill="#404040">
                                <set attributeName="fill" to="#808080" begin="zoomminus.mouseover" end="zoomminus.mouseout"/>
                        </use>
                        <path d="M-4,0h8" fill="none" stroke="white" stroke-width="1.5" pointer-events="none"/>
                </g>
                <g id="dirArrow">
                        <path fill="none" stroke="white" stroke-width="1.5" d="M0,-3.0v7 M-2.5,-0.5L0,-3.0L2.5,-0.5"/>
                </g>
               <g id="resetDef">
                       <use xlink:href="#rim2" fill="#404040">
                               <set attributeName="fill" to="#808080" begin="reset.mouseover" end="reset.mouseout"/>
                       </use>
               </g>
        </defs>

<script type="text/javascript">
var viewWidth = 564;
var viewHeight = 279;
var sectionId = 'dynsection-17';
</script>
<script xlink:href="../../svgpan.js"/>
<svg id="graph" class="graph">
<g id="viewport">
<title>carla::sensor::RawData::size</title>
<polygon fill="white" stroke="none" points="-4,4 -4,-274.5 560,-274.5 560,4 -4,4"/>
<!-- Node1 -->
<g id="node1" class="node"><title>Node1</title>
<polygon fill="#bfbfbf" stroke="black" points="0,-114.5 0,-144.5 120,-144.5 120,-114.5 0,-114.5"/>
<text text-anchor="start" x="8" y="-132.5" font-family="Helvetica,sans-Serif" font-size="10.00">carla::sensor::RawData</text>
<text text-anchor="middle" x="60" y="-121.5" font-family="Helvetica,sans-Serif" font-size="10.00">::size</text>
</g>
<!-- Node2 -->
<g id="node2" class="node"><title>Node2</title>
<g id="a_node2"><a xlink:href="../../d0/d49/classcarla_1_1sensor_1_1s11n_1_1GnssSerializer.html#af954d847f754091fb560deab43dd85c4" target="_top" xlink:title="carla::sensor::s11n\l::GnssSerializer::Deserialize\lRawData">
<polygon fill="white" stroke="black" points="170.5,-229 170.5,-270 311.5,-270 311.5,-229 170.5,-229"/>
<text text-anchor="start" x="178.5" y="-258" font-family="Helvetica,sans-Serif" font-size="10.00">carla::sensor::s11n</text>
<text text-anchor="start" x="178.5" y="-247" font-family="Helvetica,sans-Serif" font-size="10.00">::GnssSerializer::Deserialize</text>
<text text-anchor="middle" x="241" y="-236" font-family="Helvetica,sans-Serif" font-size="10.00">RawData</text>
</a>
</g>
</g>
<!-- Node1&#45;&gt;Node2 -->
<g id="edge1" class="edge"><title>Node1&#45;&gt;Node2</title>
<path fill="none" stroke="midnightblue" d="M80.0934,-152.333C97.9333,-172.413 126.222,-201.214 156,-219.5 161.674,-222.984 167.812,-226.145 174.098,-228.991"/>
<polygon fill="midnightblue" stroke="midnightblue" points="82.5463,-149.82 73.338,-144.58 77.2686,-154.419 82.5463,-149.82"/>
</g>
<!-- Node4 -->
<g id="node4" class="node"><title>Node4</title>
<g id="a_node4"><a xlink:href="../../d9/d82/classcarla_1_1sensor_1_1s11n_1_1ObstacleDetectionEventSerializer.html#aaf400069620524e3367aa7bdb51dc0ee" target="_top" xlink:title="carla::sensor::s11n\l::ObstacleDetectionEventSerializer\l::DeserializeRawData">
<polygon fill="white" stroke="black" points="156,-169 156,-210 326,-210 326,-169 156,-169"/>
<text text-anchor="start" x="164" y="-198" font-family="Helvetica,sans-Serif" font-size="10.00">carla::sensor::s11n</text>
<text text-anchor="start" x="164" y="-187" font-family="Helvetica,sans-Serif" font-size="10.00">::ObstacleDetectionEventSerializer</text>
<text text-anchor="middle" x="241" y="-176" font-family="Helvetica,sans-Serif" font-size="10.00">::DeserializeRawData</text>
</a>
</g>
</g>
<!-- Node1&#45;&gt;Node4 -->
<g id="edge3" class="edge"><title>Node1&#45;&gt;Node4</title>
<path fill="none" stroke="midnightblue" d="M115.693,-147.833C135.582,-154.5 158.188,-162.077 178.617,-168.925"/>
<polygon fill="midnightblue" stroke="midnightblue" points="116.763,-144.5 106.169,-144.641 114.538,-151.137 116.763,-144.5"/>
</g>
<!-- Node6 -->
<g id="node6" class="node"><title>Node6</title>
<g id="a_node6"><a xlink:href="../../da/de4/classcarla_1_1sensor_1_1s11n_1_1CollisionEventSerializer.html#a371a9104f135008ece300eaf69f41934" target="_top" xlink:title="carla::sensor::s11n\l::CollisionEventSerializer\l::DeserializeRawData">
<polygon fill="white" stroke="black" points="178,-109 178,-150 304,-150 304,-109 178,-109"/>
<text text-anchor="start" x="186" y="-138" font-family="Helvetica,sans-Serif" font-size="10.00">carla::sensor::s11n</text>
<text text-anchor="start" x="186" y="-127" font-family="Helvetica,sans-Serif" font-size="10.00">::CollisionEventSerializer</text>
<text text-anchor="middle" x="241" y="-116" font-family="Helvetica,sans-Serif" font-size="10.00">::DeserializeRawData</text>
</a>
</g>
</g>
<!-- Node1&#45;&gt;Node6 -->
<g id="edge5" class="edge"><title>Node1&#45;&gt;Node6</title>
<path fill="none" stroke="midnightblue" d="M130.268,-129.5C145.953,-129.5 162.514,-129.5 177.883,-129.5"/>
<polygon fill="midnightblue" stroke="midnightblue" points="130.107,-126 120.107,-129.5 130.107,-133 130.107,-126"/>
</g>
<!-- Node7 -->
<g id="node7" class="node"><title>Node7</title>
<g id="a_node7"><a xlink:href="../../dc/da1/classcarla_1_1sensor_1_1s11n_1_1IMUSerializer.html#ad393288dca1aba7bb57c55dff16b24b5" target="_top" xlink:title="carla::sensor::s11n\l::IMUSerializer::Deserialize\lRawData">
<polygon fill="white" stroke="black" points="172.5,-49 172.5,-90 309.5,-90 309.5,-49 172.5,-49"/>
<text text-anchor="start" x="180.5" y="-78" font-family="Helvetica,sans-Serif" font-size="10.00">carla::sensor::s11n</text>
<text text-anchor="start" x="180.5" y="-67" font-family="Helvetica,sans-Serif" font-size="10.00">::IMUSerializer::Deserialize</text>
<text text-anchor="middle" x="241" y="-56" font-family="Helvetica,sans-Serif" font-size="10.00">RawData</text>
</a>
</g>
</g>
<!-- Node1&#45;&gt;Node7 -->
<g id="edge6" class="edge"><title>Node1&#45;&gt;Node7</title>
<path fill="none" stroke="midnightblue" d="M115.693,-111.167C135.582,-104.5 158.188,-96.9231 178.617,-90.0751"/>
<polygon fill="midnightblue" stroke="midnightblue" points="114.538,-107.863 106.169,-114.359 116.763,-114.5 114.538,-107.863"/>
</g>
<!-- Node8 -->
<g id="node8" class="node"><title>Node8</title>
<g id="a_node8"><a xlink:href="../../d2/dcc/classcarla_1_1sensor_1_1data_1_1Array.html#a6c90ca29a162fde8c8b733db28bc4ff4" target="_top" xlink:title="carla::sensor::data\l::Array\&lt; PixelT \&gt;::SetOffset">
<polygon fill="white" stroke="black" points="171,-0.5 171,-30.5 311,-30.5 311,-0.5 171,-0.5"/>
<text text-anchor="start" x="179" y="-18.5" font-family="Helvetica,sans-Serif" font-size="10.00">carla::sensor::data</text>
<text text-anchor="middle" x="241" y="-7.5" font-family="Helvetica,sans-Serif" font-size="10.00">::Array&lt; PixelT &gt;::SetOffset</text>
</a>
</g>
</g>
<!-- Node1&#45;&gt;Node8 -->
<g id="edge7" class="edge"><title>Node1&#45;&gt;Node8</title>
<path fill="none" stroke="midnightblue" d="M79.5163,-106.551C97.1515,-86.1417 125.473,-56.9115 156,-39.5 161.929,-36.1186 168.368,-33.1844 174.957,-30.6446"/>
<polygon fill="midnightblue" stroke="midnightblue" points="76.6392,-104.533 72.8579,-114.43 81.9858,-109.051 76.6392,-104.533"/>
</g>
<!-- Node3 -->
<g id="node3" class="node"><title>Node3</title>
<g id="a_node3"><a xlink:href="../../d2/ddb/classcarla_1_1sensor_1_1data_1_1GnssMeasurement.html#a6216a0e4b8b495ae05f1b946ef0a5a13" target="_top" xlink:title="carla::sensor::data\l::GnssMeasurement::GnssMeasurement">
<polygon fill="white" stroke="black" points="362,-234.5 362,-264.5 556,-264.5 556,-234.5 362,-234.5"/>
<text text-anchor="start" x="370" y="-252.5" font-family="Helvetica,sans-Serif" font-size="10.00">carla::sensor::data</text>
<text text-anchor="middle" x="459" y="-241.5" font-family="Helvetica,sans-Serif" font-size="10.00">::GnssMeasurement::GnssMeasurement</text>
</a>
</g>
</g>
<!-- Node2&#45;&gt;Node3 -->
<g id="edge2" class="edge"><title>Node2&#45;&gt;Node3</title>
<path fill="none" stroke="midnightblue" d="M321.836,-249.5C334.86,-249.5 348.472,-249.5 361.839,-249.5"/>
<polygon fill="midnightblue" stroke="midnightblue" points="321.533,-246 311.533,-249.5 321.533,-253 321.533,-246"/>
</g>
<!-- Node5 -->
<g id="node5" class="node"><title>Node5</title>
<g id="a_node5"><a xlink:href="../../d3/d28/classcarla_1_1sensor_1_1data_1_1ObstacleDetectionEvent.html#adde998de0188eb44d081865d9e2f4257" target="_top" xlink:title="carla::sensor::data\l::ObstacleDetectionEvent\l::ObstacleDetectionEvent">
<polygon fill="white" stroke="black" points="394.5,-169 394.5,-210 523.5,-210 523.5,-169 394.5,-169"/>
<text text-anchor="start" x="402.5" y="-198" font-family="Helvetica,sans-Serif" font-size="10.00">carla::sensor::data</text>
<text text-anchor="start" x="402.5" y="-187" font-family="Helvetica,sans-Serif" font-size="10.00">::ObstacleDetectionEvent</text>
<text text-anchor="middle" x="459" y="-176" font-family="Helvetica,sans-Serif" font-size="10.00">::ObstacleDetectionEvent</text>
</a>
</g>
</g>
<!-- Node4&#45;&gt;Node5 -->
<g id="edge4" class="edge"><title>Node4&#45;&gt;Node5</title>
<path fill="none" stroke="midnightblue" d="M336.288,-189.5C355.847,-189.5 376.016,-189.5 394.172,-189.5"/>
<polygon fill="midnightblue" stroke="midnightblue" points="336.13,-186 326.13,-189.5 336.13,-193 336.13,-186"/>
</g>
</g>
</svg>
        <g id="navigator" transform="translate(0 0)" fill="#404254">
                <rect fill="#f2f5e9" fill-opacity="0.5" stroke="#606060" stroke-width=".5" x="0" y="0" width="60" height="60"/>
                <use id="zoomplus" xlink:href="#zoomPlus" x="17" y="9" onmousedown="handleZoom(evt,'in')"/>
                <use id="zoomminus" xlink:href="#zoomMin" x="42" y="9" onmousedown="handleZoom(evt,'out')"/>
                <use id="reset" xlink:href="#resetDef" x="30" y="36" onmousedown="handleReset()"/>
                <g id="arrowUp" xlink:href="#dirArrow" transform="translate(30 24)" onmousedown="handlePan(0,-1)">
                  <use xlink:href="#rim" fill="#404040">
                        <set attributeName="fill" to="#808080" begin="arrowUp.mouseover" end="arrowUp.mouseout"/>
                  </use>
                  <path fill="none" stroke="white" stroke-width="1.5" d="M0,-3.0v7 M-2.5,-0.5L0,-3.0L2.5,-0.5"/>
                </g>
                <g id="arrowRight" xlink:href="#dirArrow" transform="rotate(90) translate(36 -43)" onmousedown="handlePan(1,0)">
                  <use xlink:href="#rim" fill="#404040">
                        <set attributeName="fill" to="#808080" begin="arrowRight.mouseover" end="arrowRight.mouseout"/>
                  </use>
                  <path fill="none" stroke="white" stroke-width="1.5" d="M0,-3.0v7 M-2.5,-0.5L0,-3.0L2.5,-0.5"/>
                </g>
                <g id="arrowDown" xlink:href="#dirArrow" transform="rotate(180) translate(-30 -48)" onmousedown="handlePan(0,1)">
                  <use xlink:href="#rim" fill="#404040">
                        <set attributeName="fill" to="#808080" begin="arrowDown.mouseover" end="arrowDown.mouseout"/>
                  </use>
                  <path fill="none" stroke="white" stroke-width="1.5" d="M0,-3.0v7 M-2.5,-0.5L0,-3.0L2.5,-0.5"/>
                </g>
                <g id="arrowLeft" xlink:href="#dirArrow" transform="rotate(270) translate(-36 17)" onmousedown="handlePan(-1,0)">
                  <use xlink:href="#rim" fill="#404040">
                        <set attributeName="fill" to="#808080" begin="arrowLeft.mouseover" end="arrowLeft.mouseout"/>
                  </use>
                  <path fill="none" stroke="white" stroke-width="1.5" d="M0,-3.0v7 M-2.5,-0.5L0,-3.0L2.5,-0.5"/>
                </g>
        </g>
        <svg viewBox="0 0 15 15" width="100%" height="30px" preserveAspectRatio="xMaxYMin meet">
         <g id="arrow_out" transform="scale(0.3 0.3)">
          <a xlink:href="classcarla_1_1sensor_1_1RawData_aa005fc6a3d1062c5e76f178d3a77ba35_icgraph_org.svg" target="_base">
           <rect id="button" ry="5" rx="5" y="6" x="6" height="38" width="38"
                fill="#f2f5e9" fill-opacity="0.5" stroke="#606060" stroke-width="1.0"/>
           <path id="arrow"
             d="M 11.500037,31.436501 C 11.940474,20.09759 22.043105,11.32322 32.158766,21.979434 L 37.068811,17.246167 C 37.068811,17.246167 37.088388,32 37.088388,32 L 22.160133,31.978069 C 22.160133,31.978069 26.997745,27.140456 26.997745,27.140456 C 18.528582,18.264221 13.291696,25.230495 11.500037,31.436501 z"
             style="fill:#404040;"/>
          </a>
         </g>
        </svg>
</svg>
