<?xml version="1.0" encoding="UTF-8" standalone="no"?>
<!DOCTYPE svg PUBLIC "-//W3C//DTD SVG 1.1//EN"
 "http://www.w3.org/Graphics/SVG/1.1/DTD/svg11.dtd">
<!-- Generated by graphviz version 2.38.0 (20140413.2041)
 -->
<!-- Title: ARoutePlanner::OnTriggerBeginOverlap Pages: 1 -->
<!--zoomable 127 -->
<svg id="main" version="1.1" xmlns="http://www.w3.org/2000/svg" xmlns:xlink="http://www.w3.org/1999/xlink" xml:space="preserve" onload="init(evt)">
<style type="text/css"><![CDATA[
.edge:hover path { stroke: red; }
.edge:hover polygon { stroke: red; fill: red; }
]]></style>
<script type="text/javascript"><![CDATA[
var edges = document.getElementsByTagName('g');
if (edges && edges.length) {
  for (var i=0;i<edges.length;i++) {
    if (edges[i].id.substr(0,4)=='edge') {
      edges[i].setAttribute('class','edge');
    }
  }
}
]]></script>
        <defs>
                <circle id="rim" cx="0" cy="0" r="7"/>
                <circle id="rim2" cx="0" cy="0" r="3.5"/>
                <g id="zoomPlus">
                        <use xlink:href="#rim" fill="#404040">
                                <set attributeName="fill" to="#808080" begin="zoomplus.mouseover" end="zoomplus.mouseout"/>
                        </use>
                        <path d="M-4,0h8M0,-4v8" fill="none" stroke="white" stroke-width="1.5" pointer-events="none"/>
                </g>
                <g id="zoomMin">
                        <use xlink:href="#rim" fill="#404040">
                                <set attributeName="fill" to="#808080" begin="zoomminus.mouseover" end="zoomminus.mouseout"/>
                        </use>
                        <path d="M-4,0h8" fill="none" stroke="white" stroke-width="1.5" pointer-events="none"/>
                </g>
                <g id="dirArrow">
                        <path fill="none" stroke="white" stroke-width="1.5" d="M0,-3.0v7 M-2.5,-0.5L0,-3.0L2.5,-0.5"/>
                </g>
               <g id="resetDef">
                       <use xlink:href="#rim2" fill="#404040">
                               <set attributeName="fill" to="#808080" begin="reset.mouseover" end="reset.mouseout"/>
                       </use>
               </g>
        </defs>

<script type="text/javascript">
var viewWidth = 721;
var viewHeight = 127;
var sectionId = 'dynsection-11';
</script>
<script xlink:href="../../svgpan.js"/>
<svg id="graph" class="graph">
<g id="viewport">
<title>ARoutePlanner::OnTriggerBeginOverlap</title>
<polygon fill="white" stroke="none" points="-4,4 -4,-123 717,-123 717,4 -4,4"/>
<!-- Node1 -->
<g id="node1" class="node"><title>Node1</title>
<polygon fill="#bfbfbf" stroke="black" points="0,-22.5 0,-52.5 137,-52.5 137,-22.5 0,-22.5"/>
<text text-anchor="start" x="8" y="-40.5" font-family="Helvetica,sans-Serif" font-size="10.00">ARoutePlanner::OnTrigger</text>
<text text-anchor="middle" x="68.5" y="-29.5" font-family="Helvetica,sans-Serif" font-size="10.00">BeginOverlap</text>
</g>
<!-- Node2 -->
<g id="node2" class="node"><title>Node2</title>
<g id="a_node2"><a xlink:href="../../dc/d0f/classARoutePlanner.html#a932bcde41d9aed4e8f4b56deb78f4863" target="_top" xlink:title="ARoutePlanner::AssignRandom\lRoute">
<polygon fill="white" stroke="black" points="173,-44.5 173,-74.5 337,-74.5 337,-44.5 173,-44.5"/>
<text text-anchor="start" x="181" y="-62.5" font-family="Helvetica,sans-Serif" font-size="10.00">ARoutePlanner::AssignRandom</text>
<text text-anchor="middle" x="255" y="-51.5" font-family="Helvetica,sans-Serif" font-size="10.00">Route</text>
</a>
</g>
</g>
<!-- Node1&#45;&gt;Node2 -->
<g id="edge1" class="edge"><title>Node1&#45;&gt;Node2</title>
<path fill="none" stroke="midnightblue" d="M137.153,-45.5671C145.506,-46.5631 154.149,-47.5937 162.78,-48.6229"/>
<polygon fill="midnightblue" stroke="midnightblue" points="162.545,-52.1195 172.889,-49.8282 163.374,-45.1687 162.545,-52.1195"/>
</g>
<!-- Node8 -->
<g id="node8" class="node"><title>Node8</title>
<g id="a_node8"><a xlink:href="../../de/d45/RoutePlanner_8cpp.html#ab312b8fecf0e75c76f5b622756524d3e" target="_top" xlink:title="GetVehicleController">
<polygon fill="white" stroke="black" points="198,-6 198,-25 312,-25 312,-6 198,-6"/>
<text text-anchor="middle" x="255" y="-13" font-family="Helvetica,sans-Serif" font-size="10.00">GetVehicleController</text>
</a>
</g>
</g>
<!-- Node1&#45;&gt;Node8 -->
<g id="edge7" class="edge"><title>Node1&#45;&gt;Node8</title>
<path fill="none" stroke="midnightblue" d="M137.153,-29.4329C153.676,-27.4628 171.334,-25.3572 187.788,-23.3951"/>
<polygon fill="midnightblue" stroke="midnightblue" points="188.342,-26.854 197.857,-22.1945 187.513,-19.9033 188.342,-26.854"/>
</g>
<!-- Node3 -->
<g id="node3" class="node"><title>Node3</title>
<g id="a_node3"><a xlink:href="../../dd/dea/classAWheeledVehicleAIController.html#a0ec19dd71957be49fecd07b4adbfaf6f" target="_top" xlink:title="AWheeledVehicleAIController\l::GetRandomEngine">
<polygon fill="white" stroke="black" points="373,-88.5 373,-118.5 525,-118.5 525,-88.5 373,-88.5"/>
<text text-anchor="start" x="381" y="-106.5" font-family="Helvetica,sans-Serif" font-size="10.00">AWheeledVehicleAIController</text>
<text text-anchor="middle" x="449" y="-95.5" font-family="Helvetica,sans-Serif" font-size="10.00">::GetRandomEngine</text>
</a>
</g>
</g>
<!-- Node2&#45;&gt;Node3 -->
<g id="edge2" class="edge"><title>Node2&#45;&gt;Node3</title>
<path fill="none" stroke="midnightblue" d="M321.539,-74.5192C337.975,-78.286 355.741,-82.3574 372.616,-86.2244"/>
<polygon fill="midnightblue" stroke="midnightblue" points="371.902,-89.6515 382.431,-88.4738 373.466,-82.8284 371.902,-89.6515"/>
</g>
<!-- Node4 -->
<g id="node4" class="node"><title>Node4</title>
<g id="a_node4"><a xlink:href="../../de/d45/RoutePlanner_8cpp.html#a46fc9c3ffabc1d57ecf86d81d4868dfb" target="_top" xlink:title="PickARoute">
<polygon fill="white" stroke="black" points="414.5,-50 414.5,-69 483.5,-69 483.5,-50 414.5,-50"/>
<text text-anchor="middle" x="449" y="-57" font-family="Helvetica,sans-Serif" font-size="10.00">PickARoute</text>
</a>
</g>
</g>
<!-- Node2&#45;&gt;Node4 -->
<g id="edge3" class="edge"><title>Node2&#45;&gt;Node4</title>
<path fill="none" stroke="midnightblue" d="M337.147,-59.5C360.05,-59.5 384.109,-59.5 403.938,-59.5"/>
<polygon fill="midnightblue" stroke="midnightblue" points="404.189,-63.0001 414.189,-59.5 404.189,-56.0001 404.189,-63.0001"/>
</g>
<!-- Node6 -->
<g id="node6" class="node"><title>Node6</title>
<g id="a_node6"><a xlink:href="../../dd/dea/classAWheeledVehicleAIController.html#abd1204b5a9676d4d21c172c8f6f0189e" target="_top" xlink:title="Set a fixed route to follow if autopilot is enabled. ">
<polygon fill="white" stroke="black" points="373,-0.5 373,-30.5 525,-30.5 525,-0.5 373,-0.5"/>
<text text-anchor="start" x="381" y="-18.5" font-family="Helvetica,sans-Serif" font-size="10.00">AWheeledVehicleAIController</text>
<text text-anchor="middle" x="449" y="-7.5" font-family="Helvetica,sans-Serif" font-size="10.00">::SetFixedRoute</text>
</a>
</g>
</g>
<!-- Node2&#45;&gt;Node6 -->
<g id="edge5" class="edge"><title>Node2&#45;&gt;Node6</title>
<path fill="none" stroke="midnightblue" d="M321.539,-44.4808C337.975,-40.714 355.741,-36.6426 372.616,-32.7756"/>
<polygon fill="midnightblue" stroke="midnightblue" points="373.466,-36.1716 382.431,-30.5262 371.902,-29.3485 373.466,-36.1716"/>
</g>
<!-- Node5 -->
<g id="node5" class="node"><title>Node5</title>
<g id="a_node5"><a xlink:href="../../d2/d4b/classURandomEngine.html#a0131b345a19d79159629c710e3ef3e3b" target="_top" xlink:title="URandomEngine::GetIntWith\lWeight">
<polygon fill="white" stroke="black" points="561,-44.5 561,-74.5 713,-74.5 713,-44.5 561,-44.5"/>
<text text-anchor="start" x="569" y="-62.5" font-family="Helvetica,sans-Serif" font-size="10.00">URandomEngine::GetIntWith</text>
<text text-anchor="middle" x="637" y="-51.5" font-family="Helvetica,sans-Serif" font-size="10.00">Weight</text>
</a>
</g>
</g>
<!-- Node4&#45;&gt;Node5 -->
<g id="edge4" class="edge"><title>Node4&#45;&gt;Node5</title>
<path fill="none" stroke="midnightblue" d="M483.683,-59.5C502.553,-59.5 527.015,-59.5 550.792,-59.5"/>
<polygon fill="midnightblue" stroke="midnightblue" points="550.923,-63.0001 560.923,-59.5 550.923,-56.0001 550.923,-63.0001"/>
</g>
<!-- Node7 -->
<g id="node7" class="node"><title>Node7</title>
<g id="a_node7"><a xlink:href="../../d8/de0/WheeledVehicleAIController_8cpp.html#ab9ac127e37ab6847232563c41023b95f" target="_top" xlink:title="ClearQueue">
<polygon fill="white" stroke="black" points="600.5,-6 600.5,-25 673.5,-25 673.5,-6 600.5,-6"/>
<text text-anchor="middle" x="637" y="-13" font-family="Helvetica,sans-Serif" font-size="10.00">ClearQueue</text>
</a>
</g>
</g>
<!-- Node6&#45;&gt;Node7 -->
<g id="edge6" class="edge"><title>Node6&#45;&gt;Node7</title>
<path fill="none" stroke="midnightblue" d="M525.117,-15.5C547.167,-15.5 570.61,-15.5 590.234,-15.5"/>
<polygon fill="midnightblue" stroke="midnightblue" points="590.414,-19.0001 600.414,-15.5 590.414,-12.0001 590.414,-19.0001"/>
</g>
</g>
</svg>
        <g id="navigator" transform="translate(0 0)" fill="#404254">
                <rect fill="#f2f5e9" fill-opacity="0.5" stroke="#606060" stroke-width=".5" x="0" y="0" width="60" height="60"/>
                <use id="zoomplus" xlink:href="#zoomPlus" x="17" y="9" onmousedown="handleZoom(evt,'in')"/>
                <use id="zoomminus" xlink:href="#zoomMin" x="42" y="9" onmousedown="handleZoom(evt,'out')"/>
                <use id="reset" xlink:href="#resetDef" x="30" y="36" onmousedown="handleReset()"/>
                <g id="arrowUp" xlink:href="#dirArrow" transform="translate(30 24)" onmousedown="handlePan(0,-1)">
                  <use xlink:href="#rim" fill="#404040">
                        <set attributeName="fill" to="#808080" begin="arrowUp.mouseover" end="arrowUp.mouseout"/>
                  </use>
                  <path fill="none" stroke="white" stroke-width="1.5" d="M0,-3.0v7 M-2.5,-0.5L0,-3.0L2.5,-0.5"/>
                </g>
                <g id="arrowRight" xlink:href="#dirArrow" transform="rotate(90) translate(36 -43)" onmousedown="handlePan(1,0)">
                  <use xlink:href="#rim" fill="#404040">
                        <set attributeName="fill" to="#808080" begin="arrowRight.mouseover" end="arrowRight.mouseout"/>
                  </use>
                  <path fill="none" stroke="white" stroke-width="1.5" d="M0,-3.0v7 M-2.5,-0.5L0,-3.0L2.5,-0.5"/>
                </g>
                <g id="arrowDown" xlink:href="#dirArrow" transform="rotate(180) translate(-30 -48)" onmousedown="handlePan(0,1)">
                  <use xlink:href="#rim" fill="#404040">
                        <set attributeName="fill" to="#808080" begin="arrowDown.mouseover" end="arrowDown.mouseout"/>
                  </use>
                  <path fill="none" stroke="white" stroke-width="1.5" d="M0,-3.0v7 M-2.5,-0.5L0,-3.0L2.5,-0.5"/>
                </g>
                <g id="arrowLeft" xlink:href="#dirArrow" transform="rotate(270) translate(-36 17)" onmousedown="handlePan(-1,0)">
                  <use xlink:href="#rim" fill="#404040">
                        <set attributeName="fill" to="#808080" begin="arrowLeft.mouseover" end="arrowLeft.mouseout"/>
                  </use>
                  <path fill="none" stroke="white" stroke-width="1.5" d="M0,-3.0v7 M-2.5,-0.5L0,-3.0L2.5,-0.5"/>
                </g>
        </g>
        <svg viewBox="0 0 15 15" width="100%" height="30px" preserveAspectRatio="xMaxYMin meet">
         <g id="arrow_out" transform="scale(0.3 0.3)">
          <a xlink:href="classARoutePlanner_aa21655e46a7c9c7cd6f18ab89ecf66d5_cgraph_org.svg" target="_base">
           <rect id="button" ry="5" rx="5" y="6" x="6" height="38" width="38"
                fill="#f2f5e9" fill-opacity="0.5" stroke="#606060" stroke-width="1.0"/>
           <path id="arrow"
             d="M 11.500037,31.436501 C 11.940474,20.09759 22.043105,11.32322 32.158766,21.979434 L 37.068811,17.246167 C 37.068811,17.246167 37.088388,32 37.088388,32 L 22.160133,31.978069 C 22.160133,31.978069 26.997745,27.140456 26.997745,27.140456 C 18.528582,18.264221 13.291696,25.230495 11.500037,31.436501 z"
             style="fill:#404040;"/>
          </a>
         </g>
        </svg>
</svg>
