<?xml version="1.0" encoding="UTF-8" standalone="no"?>
<!DOCTYPE svg PUBLIC "-//W3C//DTD SVG 1.1//EN"
 "http://www.w3.org/Graphics/SVG/1.1/DTD/svg11.dtd">
<!-- Generated by graphviz version 2.40.1 (20161225.0304)
 -->
<!-- Title: carla_msgs::msg::LaneInvasionEvent::getKeyMaxCdrSerializedSize Pages: 1 -->
<svg width="434pt" height="100pt"
 viewBox="0.00 0.00 434.00 99.50" xmlns="http://www.w3.org/2000/svg" xmlns:xlink="http://www.w3.org/1999/xlink">
<g id="graph0" class="graph" transform="scale(1 1) rotate(0) translate(4 95.5)">
<title>carla_msgs::msg::LaneInvasionEvent::getKeyMaxCdrSerializedSize</title>
<polygon fill="#ffffff" stroke="transparent" points="-4,4 -4,-95.5 430,-95.5 430,4 -4,4"/>
<!-- Node31 -->
<g id="node1" class="node">
<title>Node31</title>
<polygon fill="#bfbfbf" stroke="#000000" points="0,-33 0,-63 189,-63 189,-33 0,-33"/>
<text text-anchor="start" x="8" y="-51" font-family="Helvetica,sans-Serif" font-size="10.00" fill="#000000">carla_msgs::msg::LaneInvasion</text>
<text text-anchor="middle" x="94.5" y="-40" font-family="Helvetica,sans-Serif" font-size="10.00" fill="#000000">Event::getKeyMaxCdrSerializedSize</text>
</g>
<!-- Node32 -->
<g id="node2" class="node">
<title>Node32</title>
<g id="a_node2"><a xlink:href="../../da/df3/classcarla__msgs_1_1msg_1_1LaneInvasionEventPubSubType.html#a11e4cea2190727056a696f3db32b0a8c" target="_top" xlink:title="carla_msgs::msg::LaneInvasion\lEventPubSubType::getKey">
<polygon fill="#ffffff" stroke="#000000" points="240.5,-61 240.5,-91 410.5,-91 410.5,-61 240.5,-61"/>
<text text-anchor="start" x="248.5" y="-79" font-family="Helvetica,sans-Serif" font-size="10.00" fill="#000000">carla_msgs::msg::LaneInvasion</text>
<text text-anchor="middle" x="325.5" y="-68" font-family="Helvetica,sans-Serif" font-size="10.00" fill="#000000">EventPubSubType::getKey</text>
</a>
</g>
</g>
<!-- Node31&#45;&gt;Node32 -->
<g id="edge1" class="edge">
<title>Node31&#45;&gt;Node32</title>
<path fill="none" stroke="#191970" d="M199.1115,-60.6802C212.8952,-62.3509 226.8877,-64.047 240.2941,-65.672"/>
<polygon fill="#191970" stroke="#191970" points="199.4716,-57.1983 189.1231,-59.4695 198.6292,-64.1474 199.4716,-57.1983"/>
</g>
<!-- Node33 -->
<g id="node3" class="node">
<title>Node33</title>
<g id="a_node3"><a xlink:href="../../da/df3/classcarla__msgs_1_1msg_1_1LaneInvasionEventPubSubType.html#a3d5f55a6f0f1aa3d88835a747b524c83" target="_top" xlink:title="carla_msgs::msg::LaneInvasion\lEventPubSubType::LaneInvasionEvent\lPubSubType">
<polygon fill="#ffffff" stroke="#000000" points="225,-.5 225,-41.5 426,-41.5 426,-.5 225,-.5"/>
<text text-anchor="start" x="233" y="-29.5" font-family="Helvetica,sans-Serif" font-size="10.00" fill="#000000">carla_msgs::msg::LaneInvasion</text>
<text text-anchor="start" x="233" y="-18.5" font-family="Helvetica,sans-Serif" font-size="10.00" fill="#000000">EventPubSubType::LaneInvasionEvent</text>
<text text-anchor="middle" x="325.5" y="-7.5" font-family="Helvetica,sans-Serif" font-size="10.00" fill="#000000">PubSubType</text>
</a>
</g>
</g>
<!-- Node31&#45;&gt;Node33 -->
<g id="edge2" class="edge">
<title>Node31&#45;&gt;Node33</title>
<path fill="none" stroke="#191970" d="M199.0643,-35.7782C207.5735,-34.7836 216.1627,-33.7797 224.6447,-32.7883"/>
<polygon fill="#191970" stroke="#191970" points="198.6491,-32.3028 189.1231,-36.9402 199.4618,-39.2555 198.6491,-32.3028"/>
</g>
</g>
</svg>
