<?xml version="1.0" encoding="UTF-8" standalone="no"?>
<!DOCTYPE svg PUBLIC "-//W3C//DTD SVG 1.1//EN"
 "http://www.w3.org/Graphics/SVG/1.1/DTD/svg11.dtd">
<!-- Generated by graphviz version 2.38.0 (20140413.2041)
 -->
<!-- Title: carla::road::Map::GetWaypoint Pages: 1 -->
<!--zoomable 389 -->
<svg id="main" version="1.1" xmlns="http://www.w3.org/2000/svg" xmlns:xlink="http://www.w3.org/1999/xlink" xml:space="preserve" onload="init(evt)">
<style type="text/css"><![CDATA[
.edge:hover path { stroke: red; }
.edge:hover polygon { stroke: red; fill: red; }
]]></style>
<script type="text/javascript"><![CDATA[
var edges = document.getElementsByTagName('g');
if (edges && edges.length) {
  for (var i=0;i<edges.length;i++) {
    if (edges[i].id.substr(0,4)=='edge') {
      edges[i].setAttribute('class','edge');
    }
  }
}
]]></script>
        <defs>
                <circle id="rim" cx="0" cy="0" r="7"/>
                <circle id="rim2" cx="0" cy="0" r="3.5"/>
                <g id="zoomPlus">
                        <use xlink:href="#rim" fill="#404040">
                                <set attributeName="fill" to="#808080" begin="zoomplus.mouseover" end="zoomplus.mouseout"/>
                        </use>
                        <path d="M-4,0h8M0,-4v8" fill="none" stroke="white" stroke-width="1.5" pointer-events="none"/>
                </g>
                <g id="zoomMin">
                        <use xlink:href="#rim" fill="#404040">
                                <set attributeName="fill" to="#808080" begin="zoomminus.mouseover" end="zoomminus.mouseout"/>
                        </use>
                        <path d="M-4,0h8" fill="none" stroke="white" stroke-width="1.5" pointer-events="none"/>
                </g>
                <g id="dirArrow">
                        <path fill="none" stroke="white" stroke-width="1.5" d="M0,-3.0v7 M-2.5,-0.5L0,-3.0L2.5,-0.5"/>
                </g>
               <g id="resetDef">
                       <use xlink:href="#rim2" fill="#404040">
                               <set attributeName="fill" to="#808080" begin="reset.mouseover" end="reset.mouseout"/>
                       </use>
               </g>
        </defs>

<script type="text/javascript">
var viewWidth = 858;
var viewHeight = 389;
var sectionId = 'dynsection-42';
</script>
<script xlink:href="../../svgpan.js"/>
<svg id="graph" class="graph">
<g id="viewport">
<title>carla::road::Map::GetWaypoint</title>
<polygon fill="white" stroke="none" points="-4,4 -4,-385 854,-385 854,4 -4,4"/>
<!-- Node1 -->
<g id="node1" class="node"><title>Node1</title>
<polygon fill="#bfbfbf" stroke="black" points="0,-192 0,-211 160,-211 160,-192 0,-192"/>
<text text-anchor="middle" x="80" y="-199" font-family="Helvetica,sans-Serif" font-size="10.00">carla::road::Map::GetWaypoint</text>
</g>
<!-- Node2 -->
<g id="node2" class="node"><title>Node2</title>
<g id="a_node2"><a xlink:href="../../d0/dea/classcarla_1_1geom_1_1Math.html#a71f0667271df699e511124559f61665e" target="_top" xlink:title="carla::geom::Math::\lDistance2D">
<polygon fill="white" stroke="black" points="220,-235.5 220,-265.5 330,-265.5 330,-235.5 220,-235.5"/>
<text text-anchor="start" x="228" y="-253.5" font-family="Helvetica,sans-Serif" font-size="10.00">carla::geom::Math::</text>
<text text-anchor="middle" x="275" y="-242.5" font-family="Helvetica,sans-Serif" font-size="10.00">Distance2D</text>
</a>
</g>
</g>
<!-- Node1&#45;&gt;Node2 -->
<g id="edge1" class="edge"><title>Node1&#45;&gt;Node2</title>
<path fill="none" stroke="midnightblue" d="M118.671,-211.064C144.591,-217.645 179.67,-226.551 209.933,-234.234"/>
<polygon fill="midnightblue" stroke="midnightblue" points="209.437,-237.719 219.991,-236.788 211.16,-230.935 209.437,-237.719"/>
</g>
<!-- Node18 -->
<g id="node18" class="node"><title>Node18</title>
<g id="a_node18"><a xlink:href="../../d4/db7/classcarla_1_1geom_1_1CubicPolynomial.html#a1bdd0758d2f68016f48eb9291f4ca523" target="_top" xlink:title="Evaluates f(x) = a + bx + cx^2 + dx^3. ">
<polygon fill="white" stroke="black" points="196,-186.5 196,-216.5 354,-216.5 354,-186.5 196,-186.5"/>
<text text-anchor="start" x="204" y="-204.5" font-family="Helvetica,sans-Serif" font-size="10.00">carla::geom::CubicPolynomial</text>
<text text-anchor="middle" x="275" y="-193.5" font-family="Helvetica,sans-Serif" font-size="10.00">::Evaluate</text>
</a>
</g>
</g>
<!-- Node1&#45;&gt;Node18 -->
<g id="edge22" class="edge"><title>Node1&#45;&gt;Node18</title>
<path fill="none" stroke="midnightblue" d="M160.057,-201.5C168.42,-201.5 176.964,-201.5 185.426,-201.5"/>
<polygon fill="midnightblue" stroke="midnightblue" points="185.69,-205 195.69,-201.5 185.69,-198 185.69,-205"/>
</g>
<!-- Node19 -->
<g id="node19" class="node"><title>Node19</title>
<g id="a_node19"><a xlink:href="../../de/dbb/classcarla_1_1road_1_1element_1_1RoadInfoLaneWidth.html#ac33d93e909dc0e0b3e12cdd3a5d9f841" target="_top" xlink:title="carla::road::element\l::RoadInfoLaneWidth::\lGetPolynomial">
<polygon fill="white" stroke="black" points="215.5,-127 215.5,-168 334.5,-168 334.5,-127 215.5,-127"/>
<text text-anchor="start" x="223.5" y="-156" font-family="Helvetica,sans-Serif" font-size="10.00">carla::road::element</text>
<text text-anchor="start" x="223.5" y="-145" font-family="Helvetica,sans-Serif" font-size="10.00">::RoadInfoLaneWidth::</text>
<text text-anchor="middle" x="275" y="-134" font-family="Helvetica,sans-Serif" font-size="10.00">GetPolynomial</text>
</a>
</g>
</g>
<!-- Node1&#45;&gt;Node19 -->
<g id="edge23" class="edge"><title>Node1&#45;&gt;Node19</title>
<path fill="none" stroke="midnightblue" d="M115.06,-191.97C140.058,-184.976 174.852,-175.241 205.515,-166.662"/>
<polygon fill="midnightblue" stroke="midnightblue" points="206.62,-169.987 215.308,-163.922 204.734,-163.246 206.62,-169.987"/>
</g>
<!-- Node3 -->
<g id="node3" class="node"><title>Node3</title>
<g id="a_node3"><a xlink:href="../../d0/dea/classcarla_1_1geom_1_1Math.html#afe602ce38a646f5a2223fa01b80dda74" target="_top" xlink:title="Returns a pair containing: ">
<polygon fill="white" stroke="black" points="403.5,-345.5 403.5,-375.5 513.5,-375.5 513.5,-345.5 403.5,-345.5"/>
<text text-anchor="start" x="411.5" y="-363.5" font-family="Helvetica,sans-Serif" font-size="10.00">carla::geom::Math::</text>
<text text-anchor="middle" x="458.5" y="-352.5" font-family="Helvetica,sans-Serif" font-size="10.00">DistanceArcToPoint</text>
</a>
</g>
</g>
<!-- Node2&#45;&gt;Node3 -->
<g id="edge2" class="edge"><title>Node2&#45;&gt;Node3</title>
<path fill="none" stroke="midnightblue" d="M304.969,-265.793C327.417,-281.181 359.7,-304.349 390,-321.5 402.241,-328.428 416.383,-334.927 428.55,-340.8"/>
<polygon fill="midnightblue" stroke="midnightblue" points="427.294,-344.083 437.811,-345.372 430.393,-337.806 427.294,-344.083"/>
</g>
<!-- Node4 -->
<g id="node4" class="node"><title>Node4</title>
<g id="a_node4"><a xlink:href="../../d0/dea/classcarla_1_1geom_1_1Math.html#a87bb8efcea50103f41ff50205484d2fe" target="_top" xlink:title="carla::geom::Math::\lRotatePointOnOrigin2D">
<polygon fill="white" stroke="black" points="563.5,-350.5 563.5,-380.5 689.5,-380.5 689.5,-350.5 563.5,-350.5"/>
<text text-anchor="start" x="571.5" y="-368.5" font-family="Helvetica,sans-Serif" font-size="10.00">carla::geom::Math::</text>
<text text-anchor="middle" x="626.5" y="-357.5" font-family="Helvetica,sans-Serif" font-size="10.00">RotatePointOnOrigin2D</text>
</a>
</g>
</g>
<!-- Node2&#45;&gt;Node4 -->
<g id="edge21" class="edge"><title>Node2&#45;&gt;Node4</title>
<path fill="none" stroke="midnightblue" d="M309.533,-265.505C332.041,-275.282 362.496,-287.95 390,-297.5 449.806,-318.265 466.19,-318.893 527,-336.5 539.228,-340.04 552.298,-343.862 564.789,-347.533"/>
<polygon fill="midnightblue" stroke="midnightblue" points="564.075,-350.971 574.656,-350.436 566.051,-344.255 564.075,-350.971"/>
</g>
<!-- Node5 -->
<g id="node5" class="node"><title>Node5</title>
<g id="a_node5"><a xlink:href="../../d0/dea/classcarla_1_1geom_1_1Math.html#ab65c2226be8bc15f3ea8aab7ffa27443" target="_top" xlink:title="Returns a pair containing: ">
<polygon fill="white" stroke="black" points="390,-257.5 390,-287.5 527,-287.5 527,-257.5 390,-257.5"/>
<text text-anchor="start" x="398" y="-275.5" font-family="Helvetica,sans-Serif" font-size="10.00">carla::geom::Math::</text>
<text text-anchor="middle" x="458.5" y="-264.5" font-family="Helvetica,sans-Serif" font-size="10.00">DistanceSegmentToPoint</text>
</a>
</g>
</g>
<!-- Node2&#45;&gt;Node5 -->
<g id="edge5" class="edge"><title>Node2&#45;&gt;Node5</title>
<path fill="none" stroke="midnightblue" d="M330.456,-250.855C345.934,-252.278 363.099,-254.211 379.676,-256.378"/>
<polygon fill="midnightblue" stroke="midnightblue" points="379.524,-259.889 389.902,-257.755 380.459,-252.952 379.524,-259.889"/>
</g>
<!-- Node7 -->
<g id="node7" class="node"><title>Node7</title>
<g id="a_node7"><a xlink:href="../../d0/dea/classcarla_1_1geom_1_1Math.html#a16bbc81c150eccc1f9407be9d9651766" target="_top" xlink:title="carla::geom::Math::\lDistanceSquared2D">
<polygon fill="white" stroke="black" points="570,-203.5 570,-233.5 683,-233.5 683,-203.5 570,-203.5"/>
<text text-anchor="start" x="578" y="-221.5" font-family="Helvetica,sans-Serif" font-size="10.00">carla::geom::Math::</text>
<text text-anchor="middle" x="626.5" y="-210.5" font-family="Helvetica,sans-Serif" font-size="10.00">DistanceSquared2D</text>
</a>
</g>
</g>
<!-- Node2&#45;&gt;Node7 -->
<g id="edge11" class="edge"><title>Node2&#45;&gt;Node7</title>
<path fill="none" stroke="midnightblue" d="M330.226,-245.535C392.105,-239.869 493.295,-230.605 559.652,-224.529"/>
<polygon fill="midnightblue" stroke="midnightblue" points="560.352,-227.98 569.991,-223.582 559.713,-221.009 560.352,-227.98"/>
</g>
<!-- Node10 -->
<g id="node10" class="node"><title>Node10</title>
<g id="a_node10"><a xlink:href="../../d0/dea/classcarla_1_1geom_1_1Math.html#a7cf763352ee2ea9e26629e7a2cd07786" target="_top" xlink:title="carla::geom::Math::\lGenerateRange">
<polygon fill="white" stroke="black" points="403.5,-169.5 403.5,-199.5 513.5,-199.5 513.5,-169.5 403.5,-169.5"/>
<text text-anchor="start" x="411.5" y="-187.5" font-family="Helvetica,sans-Serif" font-size="10.00">carla::geom::Math::</text>
<text text-anchor="middle" x="458.5" y="-176.5" font-family="Helvetica,sans-Serif" font-size="10.00">GenerateRange</text>
</a>
</g>
</g>
<!-- Node2&#45;&gt;Node10 -->
<g id="edge12" class="edge"><title>Node2&#45;&gt;Node10</title>
<path fill="none" stroke="midnightblue" d="M324.851,-235.397C334.549,-232.243 344.628,-228.854 354,-225.5 373.039,-218.687 393.803,-210.594 411.702,-203.406"/>
<polygon fill="midnightblue" stroke="midnightblue" points="413.362,-206.511 421.323,-199.52 410.74,-200.02 413.362,-206.511"/>
</g>
<!-- Node11 -->
<g id="node11" class="node"><title>Node11</title>
<g id="a_node11"><a xlink:href="../../d0/dea/classcarla_1_1geom_1_1Math.html#aafbb2dc8a60aa6e86cc7fe1ad2872beb" target="_top" xlink:title="Compute the unit vector pointing towards the X&#45;axis of rotation. ">
<polygon fill="white" stroke="black" points="403.5,-120.5 403.5,-150.5 513.5,-150.5 513.5,-120.5 403.5,-120.5"/>
<text text-anchor="start" x="411.5" y="-138.5" font-family="Helvetica,sans-Serif" font-size="10.00">carla::geom::Math::</text>
<text text-anchor="middle" x="458.5" y="-127.5" font-family="Helvetica,sans-Serif" font-size="10.00">GetForwardVector</text>
</a>
</g>
</g>
<!-- Node2&#45;&gt;Node11 -->
<g id="edge13" class="edge"><title>Node2&#45;&gt;Node11</title>
<path fill="none" stroke="midnightblue" d="M330.38,-239.03C338.865,-235.621 347.095,-231.208 354,-225.5 379.753,-204.21 364.585,-181.192 390,-159.5 391.366,-158.334 392.792,-157.224 394.268,-156.166"/>
<polygon fill="midnightblue" stroke="midnightblue" points="396.511,-158.894 403.184,-150.665 392.836,-152.937 396.511,-158.894"/>
</g>
<!-- Node13 -->
<g id="node13" class="node"><title>Node13</title>
<g id="a_node13"><a xlink:href="../../d0/dea/classcarla_1_1geom_1_1Math.html#a1de27b6ea1464e3fcd560992c27c008d" target="_top" xlink:title="Compute the unit vector pointing towards the Y&#45;axis of rotation. ">
<polygon fill="white" stroke="black" points="403.5,-71.5 403.5,-101.5 513.5,-101.5 513.5,-71.5 403.5,-71.5"/>
<text text-anchor="start" x="411.5" y="-89.5" font-family="Helvetica,sans-Serif" font-size="10.00">carla::geom::Math::</text>
<text text-anchor="middle" x="458.5" y="-78.5" font-family="Helvetica,sans-Serif" font-size="10.00">GetRightVector</text>
</a>
</g>
</g>
<!-- Node2&#45;&gt;Node13 -->
<g id="edge15" class="edge"><title>Node2&#45;&gt;Node13</title>
<path fill="none" stroke="midnightblue" d="M330.19,-240.632C338.998,-237.046 347.386,-232.159 354,-225.5 391.742,-187.501 352.86,-149.088 390,-110.5 391.577,-108.862 393.272,-107.335 395.062,-105.913"/>
<polygon fill="midnightblue" stroke="midnightblue" points="397.064,-108.784 403.434,-100.318 393.175,-102.964 397.064,-108.784"/>
</g>
<!-- Node14 -->
<g id="node14" class="node"><title>Node14</title>
<g id="a_node14"><a xlink:href="../../d0/dea/classcarla_1_1geom_1_1Math.html#a6553b235b169efa70b899d41f3b568ba" target="_top" xlink:title="Returns the angle between 2 vectors in radians. ">
<polygon fill="white" stroke="black" points="403.5,-22.5 403.5,-52.5 513.5,-52.5 513.5,-22.5 403.5,-22.5"/>
<text text-anchor="start" x="411.5" y="-40.5" font-family="Helvetica,sans-Serif" font-size="10.00">carla::geom::Math::</text>
<text text-anchor="middle" x="458.5" y="-29.5" font-family="Helvetica,sans-Serif" font-size="10.00">GetVectorAngle</text>
</a>
</g>
</g>
<!-- Node2&#45;&gt;Node14 -->
<g id="edge17" class="edge"><title>Node2&#45;&gt;Node14</title>
<path fill="none" stroke="midnightblue" d="M330.282,-241.263C339.188,-237.617 347.587,-232.546 354,-225.5 404.228,-170.31 340.646,-117.473 390,-61.5 391.537,-59.7567 393.21,-58.1399 394.989,-56.6407"/>
<polygon fill="midnightblue" stroke="midnightblue" points="397.186,-59.3764 403.394,-50.7908 393.187,-53.6312 397.186,-59.3764"/>
</g>
<!-- Node3&#45;&gt;Node2 -->
<g id="edge3" class="edge"><title>Node3&#45;&gt;Node2</title>
<path fill="none" stroke="midnightblue" d="M403.246,-346.479C398.71,-344.249 394.241,-341.9 390,-339.5 355.143,-319.77 317.662,-292.076 295.549,-272.548"/>
<polygon fill="midnightblue" stroke="midnightblue" points="297.869,-269.926 288.131,-265.752 293.14,-275.088 297.869,-269.926"/>
</g>
<!-- Node3&#45;&gt;Node4 -->
<g id="edge4" class="edge"><title>Node3&#45;&gt;Node4</title>
<path fill="none" stroke="midnightblue" d="M513.855,-362.137C526.438,-362.516 540.022,-362.925 553.238,-363.323"/>
<polygon fill="midnightblue" stroke="midnightblue" points="553.148,-366.822 563.249,-363.625 553.359,-359.825 553.148,-366.822"/>
</g>
<!-- Node5&#45;&gt;Node2 -->
<g id="edge7" class="edge"><title>Node5&#45;&gt;Node2</title>
<path fill="none" stroke="midnightblue" d="M389.902,-270.857C373.82,-269.19 356.698,-267.097 340.746,-264.845"/>
<polygon fill="midnightblue" stroke="midnightblue" points="340.856,-261.325 330.456,-263.346 339.847,-268.251 340.856,-261.325"/>
</g>
<!-- Node6 -->
<g id="node6" class="node"><title>Node6</title>
<g id="a_node6"><a xlink:href="../../d0/dea/classcarla_1_1geom_1_1Math.html#a8f8eccc1a2bcc711250f2b47a21eb31f" target="_top" xlink:title="carla::geom::Math::\lClamp">
<polygon fill="white" stroke="black" points="571.5,-301.5 571.5,-331.5 681.5,-331.5 681.5,-301.5 571.5,-301.5"/>
<text text-anchor="start" x="579.5" y="-319.5" font-family="Helvetica,sans-Serif" font-size="10.00">carla::geom::Math::</text>
<text text-anchor="middle" x="626.5" y="-308.5" font-family="Helvetica,sans-Serif" font-size="10.00">Clamp</text>
</a>
</g>
</g>
<!-- Node5&#45;&gt;Node6 -->
<g id="edge6" class="edge"><title>Node5&#45;&gt;Node6</title>
<path fill="none" stroke="midnightblue" d="M516.163,-287.519C530.802,-291.399 546.661,-295.603 561.639,-299.573"/>
<polygon fill="midnightblue" stroke="midnightblue" points="560.771,-302.964 571.334,-302.143 562.564,-296.197 560.771,-302.964"/>
</g>
<!-- Node5&#45;&gt;Node7 -->
<g id="edge8" class="edge"><title>Node5&#45;&gt;Node7</title>
<path fill="none" stroke="midnightblue" d="M505.74,-257.458C525.534,-251.019 548.822,-243.443 569.575,-236.692"/>
<polygon fill="midnightblue" stroke="midnightblue" points="570.793,-239.977 579.22,-233.555 568.628,-233.32 570.793,-239.977"/>
</g>
<!-- Node9 -->
<g id="node9" class="node"><title>Node9</title>
<g id="a_node9"><a xlink:href="../../d0/dea/classcarla_1_1geom_1_1Math.html#ae6918fff45bd7adea4bef119065ce1ab" target="_top" xlink:title="carla::geom::Math::\lDot2D">
<polygon fill="white" stroke="black" points="571.5,-252.5 571.5,-282.5 681.5,-282.5 681.5,-252.5 571.5,-252.5"/>
<text text-anchor="start" x="579.5" y="-270.5" font-family="Helvetica,sans-Serif" font-size="10.00">carla::geom::Math::</text>
<text text-anchor="middle" x="626.5" y="-259.5" font-family="Helvetica,sans-Serif" font-size="10.00">Dot2D</text>
</a>
</g>
</g>
<!-- Node5&#45;&gt;Node9 -->
<g id="edge10" class="edge"><title>Node5&#45;&gt;Node9</title>
<path fill="none" stroke="midnightblue" d="M527.019,-270.466C538.289,-270.127 549.955,-269.775 561.144,-269.438"/>
<polygon fill="midnightblue" stroke="midnightblue" points="561.37,-272.933 571.26,-269.134 561.159,-265.936 561.37,-272.933"/>
</g>
<!-- Node8 -->
<g id="node8" class="node"><title>Node8</title>
<g id="a_node8"><a xlink:href="../../d0/dea/classcarla_1_1geom_1_1Math.html#ac1644f7af375c05619c27851731cea87" target="_top" xlink:title="carla::geom::Math::\lSquare">
<polygon fill="white" stroke="black" points="733,-203.5 733,-233.5 843,-233.5 843,-203.5 733,-203.5"/>
<text text-anchor="start" x="741" y="-221.5" font-family="Helvetica,sans-Serif" font-size="10.00">carla::geom::Math::</text>
<text text-anchor="middle" x="788" y="-210.5" font-family="Helvetica,sans-Serif" font-size="10.00">Square</text>
</a>
</g>
</g>
<!-- Node7&#45;&gt;Node8 -->
<g id="edge9" class="edge"><title>Node7&#45;&gt;Node8</title>
<path fill="none" stroke="midnightblue" d="M683.285,-218.5C695.974,-218.5 709.554,-218.5 722.569,-218.5"/>
<polygon fill="midnightblue" stroke="midnightblue" points="722.858,-222 732.858,-218.5 722.858,-215 722.858,-222"/>
</g>
<!-- Node12 -->
<g id="node12" class="node"><title>Node12</title>
<g id="a_node12"><a xlink:href="../../d0/dea/classcarla_1_1geom_1_1Math.html#a2bd79912876dfbab9354c0bb841320e4" target="_top" xlink:title="carla::geom::Math::\lToRadians">
<polygon fill="white" stroke="black" points="571.5,-115.5 571.5,-145.5 681.5,-145.5 681.5,-115.5 571.5,-115.5"/>
<text text-anchor="start" x="579.5" y="-133.5" font-family="Helvetica,sans-Serif" font-size="10.00">carla::geom::Math::</text>
<text text-anchor="middle" x="626.5" y="-122.5" font-family="Helvetica,sans-Serif" font-size="10.00">ToRadians</text>
</a>
</g>
</g>
<!-- Node11&#45;&gt;Node12 -->
<g id="edge14" class="edge"><title>Node11&#45;&gt;Node12</title>
<path fill="none" stroke="midnightblue" d="M513.855,-133.863C528.98,-133.407 545.552,-132.908 561.19,-132.437"/>
<polygon fill="midnightblue" stroke="midnightblue" points="561.417,-135.932 571.307,-132.132 561.206,-128.935 561.417,-135.932"/>
</g>
<!-- Node13&#45;&gt;Node12 -->
<g id="edge16" class="edge"><title>Node13&#45;&gt;Node12</title>
<path fill="none" stroke="midnightblue" d="M513.855,-100.907C529.124,-104.955 545.867,-109.393 561.636,-113.572"/>
<polygon fill="midnightblue" stroke="midnightblue" points="560.744,-116.957 571.307,-116.136 562.537,-110.19 560.744,-116.957"/>
</g>
<!-- Node15 -->
<g id="node15" class="node"><title>Node15</title>
<g id="a_node15"><a xlink:href="../../d0/dea/classcarla_1_1geom_1_1Math.html#a98bc1394f89f87defc597b229f22d12f" target="_top" xlink:title="carla::geom::Math::Dot">
<polygon fill="white" stroke="black" points="563,-50 563,-69 690,-69 690,-50 563,-50"/>
<text text-anchor="middle" x="626.5" y="-57" font-family="Helvetica,sans-Serif" font-size="10.00">carla::geom::Math::Dot</text>
</a>
</g>
</g>
<!-- Node14&#45;&gt;Node15 -->
<g id="edge18" class="edge"><title>Node14&#45;&gt;Node15</title>
<path fill="none" stroke="midnightblue" d="M513.855,-44.7036C526.363,-46.3613 539.86,-48.1501 553,-49.8916"/>
<polygon fill="midnightblue" stroke="midnightblue" points="552.584,-53.3669 562.957,-51.2112 553.503,-46.4276 552.584,-53.3669"/>
</g>
<!-- Node16 -->
<g id="node16" class="node"><title>Node16</title>
<g id="a_node16"><a xlink:href="../../d9/dfe/classcarla_1_1geom_1_1Vector3D.html#a38fb62af5286d5e41dfdf91ef2f9358f" target="_top" xlink:title="carla::geom::Vector3D\l::Length">
<polygon fill="white" stroke="black" points="564.5,-0.5 564.5,-30.5 688.5,-30.5 688.5,-0.5 564.5,-0.5"/>
<text text-anchor="start" x="572.5" y="-18.5" font-family="Helvetica,sans-Serif" font-size="10.00">carla::geom::Vector3D</text>
<text text-anchor="middle" x="626.5" y="-7.5" font-family="Helvetica,sans-Serif" font-size="10.00">::Length</text>
</a>
</g>
</g>
<!-- Node14&#45;&gt;Node16 -->
<g id="edge19" class="edge"><title>Node14&#45;&gt;Node16</title>
<path fill="none" stroke="midnightblue" d="M513.855,-30.2964C526.739,-28.5888 540.674,-26.742 554.187,-24.9512"/>
<polygon fill="midnightblue" stroke="midnightblue" points="554.96,-28.3794 564.413,-23.5958 554.04,-21.4401 554.96,-28.3794"/>
</g>
<!-- Node17 -->
<g id="node17" class="node"><title>Node17</title>
<g id="a_node17"><a xlink:href="../../d9/dfe/classcarla_1_1geom_1_1Vector3D.html#a54afa1ba36c12d5b4c76bc4f2072a807" target="_top" xlink:title="carla::geom::Vector3D\l::SquaredLength">
<polygon fill="white" stroke="black" points="726,-0.5 726,-30.5 850,-30.5 850,-0.5 726,-0.5"/>
<text text-anchor="start" x="734" y="-18.5" font-family="Helvetica,sans-Serif" font-size="10.00">carla::geom::Vector3D</text>
<text text-anchor="middle" x="788" y="-7.5" font-family="Helvetica,sans-Serif" font-size="10.00">::SquaredLength</text>
</a>
</g>
</g>
<!-- Node16&#45;&gt;Node17 -->
<g id="edge20" class="edge"><title>Node16&#45;&gt;Node17</title>
<path fill="none" stroke="midnightblue" d="M688.711,-15.5C697.583,-15.5 706.779,-15.5 715.827,-15.5"/>
<polygon fill="midnightblue" stroke="midnightblue" points="715.953,-19.0001 725.953,-15.5 715.953,-12.0001 715.953,-19.0001"/>
</g>
</g>
</svg>
        <g id="navigator" transform="translate(0 0)" fill="#404254">
                <rect fill="#f2f5e9" fill-opacity="0.5" stroke="#606060" stroke-width=".5" x="0" y="0" width="60" height="60"/>
                <use id="zoomplus" xlink:href="#zoomPlus" x="17" y="9" onmousedown="handleZoom(evt,'in')"/>
                <use id="zoomminus" xlink:href="#zoomMin" x="42" y="9" onmousedown="handleZoom(evt,'out')"/>
                <use id="reset" xlink:href="#resetDef" x="30" y="36" onmousedown="handleReset()"/>
                <g id="arrowUp" xlink:href="#dirArrow" transform="translate(30 24)" onmousedown="handlePan(0,-1)">
                  <use xlink:href="#rim" fill="#404040">
                        <set attributeName="fill" to="#808080" begin="arrowUp.mouseover" end="arrowUp.mouseout"/>
                  </use>
                  <path fill="none" stroke="white" stroke-width="1.5" d="M0,-3.0v7 M-2.5,-0.5L0,-3.0L2.5,-0.5"/>
                </g>
                <g id="arrowRight" xlink:href="#dirArrow" transform="rotate(90) translate(36 -43)" onmousedown="handlePan(1,0)">
                  <use xlink:href="#rim" fill="#404040">
                        <set attributeName="fill" to="#808080" begin="arrowRight.mouseover" end="arrowRight.mouseout"/>
                  </use>
                  <path fill="none" stroke="white" stroke-width="1.5" d="M0,-3.0v7 M-2.5,-0.5L0,-3.0L2.5,-0.5"/>
                </g>
                <g id="arrowDown" xlink:href="#dirArrow" transform="rotate(180) translate(-30 -48)" onmousedown="handlePan(0,1)">
                  <use xlink:href="#rim" fill="#404040">
                        <set attributeName="fill" to="#808080" begin="arrowDown.mouseover" end="arrowDown.mouseout"/>
                  </use>
                  <path fill="none" stroke="white" stroke-width="1.5" d="M0,-3.0v7 M-2.5,-0.5L0,-3.0L2.5,-0.5"/>
                </g>
                <g id="arrowLeft" xlink:href="#dirArrow" transform="rotate(270) translate(-36 17)" onmousedown="handlePan(-1,0)">
                  <use xlink:href="#rim" fill="#404040">
                        <set attributeName="fill" to="#808080" begin="arrowLeft.mouseover" end="arrowLeft.mouseout"/>
                  </use>
                  <path fill="none" stroke="white" stroke-width="1.5" d="M0,-3.0v7 M-2.5,-0.5L0,-3.0L2.5,-0.5"/>
                </g>
        </g>
        <svg viewBox="0 0 15 15" width="100%" height="30px" preserveAspectRatio="xMaxYMin meet">
         <g id="arrow_out" transform="scale(0.3 0.3)">
          <a xlink:href="classcarla_1_1road_1_1Map_a0cf8228efb07f292210daffc7da2e6ed_cgraph_org.svg" target="_base">
           <rect id="button" ry="5" rx="5" y="6" x="6" height="38" width="38"
                fill="#f2f5e9" fill-opacity="0.5" stroke="#606060" stroke-width="1.0"/>
           <path id="arrow"
             d="M 11.500037,31.436501 C 11.940474,20.09759 22.043105,11.32322 32.158766,21.979434 L 37.068811,17.246167 C 37.068811,17.246167 37.088388,32 37.088388,32 L 22.160133,31.978069 C 22.160133,31.978069 26.997745,27.140456 26.997745,27.140456 C 18.528582,18.264221 13.291696,25.230495 11.500037,31.436501 z"
             style="fill:#404040;"/>
          </a>
         </g>
        </svg>
</svg>
