<?xml version="1.0" encoding="UTF-8" standalone="no"?>
<!DOCTYPE svg PUBLIC "-//W3C//DTD SVG 1.1//EN"
 "http://www.w3.org/Graphics/SVG/1.1/DTD/svg11.dtd">
<!-- Generated by graphviz version 2.38.0 (20140413.2041)
 -->
<!-- Title: carla::road::Map::CalculateCrossedLanes Pages: 1 -->
<svg width="442pt" height="88pt"
 viewBox="0.00 0.00 442.00 88.00" xmlns="http://www.w3.org/2000/svg" xmlns:xlink="http://www.w3.org/1999/xlink">
<g id="graph0" class="graph" transform="scale(1 1) rotate(0) translate(4 84)">
<title>carla::road::Map::CalculateCrossedLanes</title>
<polygon fill="white" stroke="none" points="-4,4 -4,-84 438,-84 438,4 -4,4"/>
<!-- Node1 -->
<g id="node1" class="node"><title>Node1</title>
<polygon fill="#bfbfbf" stroke="black" points="0,-24.5 0,-54.5 134,-54.5 134,-24.5 0,-24.5"/>
<text text-anchor="start" x="8" y="-42.5" font-family="Helvetica,sans-Serif" font-size="10.00">carla::road::Map::Calculate</text>
<text text-anchor="middle" x="67" y="-31.5" font-family="Helvetica,sans-Serif" font-size="10.00">CrossedLanes</text>
</g>
<!-- Node2 -->
<g id="node2" class="node"><title>Node2</title>
<g id="a_node2"><a xlink:href="../../dd/d49/classcarla_1_1client_1_1Map.html#ab38f325942fe41f8acce8e128404f0f4" target="_top" xlink:title="carla::client::Map\l::CalculateCrossedLanes">
<polygon fill="white" stroke="black" points="170,-49.5 170,-79.5 297,-79.5 297,-49.5 170,-49.5"/>
<text text-anchor="start" x="178" y="-67.5" font-family="Helvetica,sans-Serif" font-size="10.00">carla::client::Map</text>
<text text-anchor="middle" x="233.5" y="-56.5" font-family="Helvetica,sans-Serif" font-size="10.00">::CalculateCrossedLanes</text>
</a>
</g>
</g>
<!-- Node1&#45;&gt;Node2 -->
<g id="edge1" class="edge"><title>Node1&#45;&gt;Node2</title>
<path fill="none" stroke="midnightblue" d="M144.373,-51.1069C152.892,-52.4015 161.494,-53.7089 169.814,-54.9732"/>
<polygon fill="midnightblue" stroke="midnightblue" points="144.847,-47.6387 134.434,-49.5964 143.795,-54.5593 144.847,-47.6387"/>
</g>
<!-- Node3 -->
<g id="node3" class="node"><title>Node3</title>
<g id="a_node3"><a xlink:href="../../d0/d34/classcarla_1_1road_1_1Map.html#a2686993f028a6febd29a17b32b43142d" target="_top" xlink:title="======================================================================== – Georeference &#45;&#45;&#45;&#45;&#45;&#45;&#45;&#45;&#45;&#45;&#45;&#45;...">
<polygon fill="white" stroke="black" points="170,-0.5 170,-30.5 297,-30.5 297,-0.5 170,-0.5"/>
<text text-anchor="start" x="178" y="-18.5" font-family="Helvetica,sans-Serif" font-size="10.00">carla::road::Map::GetGeo</text>
<text text-anchor="middle" x="233.5" y="-7.5" font-family="Helvetica,sans-Serif" font-size="10.00">Reference</text>
</a>
</g>
</g>
<!-- Node1&#45;&gt;Node3 -->
<g id="edge2" class="edge"><title>Node1&#45;&gt;Node3</title>
<path fill="none" stroke="midnightblue" d="M144.373,-28.3574C152.892,-27.1146 161.494,-25.8595 169.814,-24.6457"/>
<polygon fill="midnightblue" stroke="midnightblue" points="143.824,-24.9004 134.434,-29.8075 144.835,-31.827 143.824,-24.9004"/>
</g>
<!-- Node4 -->
<g id="node4" class="node"><title>Node4</title>
<g id="a_node4"><a xlink:href="../../dd/d49/classcarla_1_1client_1_1Map.html#abf307dc940aefa23689a7046197603ed" target="_top" xlink:title="carla::client::Map\l::GetGeoReference">
<polygon fill="white" stroke="black" points="333,-0.5 333,-30.5 434,-30.5 434,-0.5 333,-0.5"/>
<text text-anchor="start" x="341" y="-18.5" font-family="Helvetica,sans-Serif" font-size="10.00">carla::client::Map</text>
<text text-anchor="middle" x="383.5" y="-7.5" font-family="Helvetica,sans-Serif" font-size="10.00">::GetGeoReference</text>
</a>
</g>
</g>
<!-- Node3&#45;&gt;Node4 -->
<g id="edge3" class="edge"><title>Node3&#45;&gt;Node4</title>
<path fill="none" stroke="midnightblue" d="M307.302,-15.5C315.883,-15.5 324.486,-15.5 332.649,-15.5"/>
<polygon fill="midnightblue" stroke="midnightblue" points="307.265,-12.0001 297.265,-15.5 307.265,-19.0001 307.265,-12.0001"/>
</g>
</g>
</svg>
