<?xml version="1.0" encoding="UTF-8" standalone="no"?>
<!DOCTYPE svg PUBLIC "-//W3C//DTD SVG 1.1//EN"
 "http://www.w3.org/Graphics/SVG/1.1/DTD/svg11.dtd">
<!-- Generated by graphviz version 2.40.1 (20161225.0304)
 -->
<!-- Title: CarlaRecorderEventsParent::Read Pages: 1 -->
<svg width="336pt" height="39pt"
 viewBox="0.00 0.00 336.00 39.00" xmlns="http://www.w3.org/2000/svg" xmlns:xlink="http://www.w3.org/1999/xlink">
<g id="graph0" class="graph" transform="scale(1 1) rotate(0) translate(4 35)">
<title>CarlaRecorderEventsParent::Read</title>
<polygon fill="#ffffff" stroke="transparent" points="-4,4 -4,-35 332,-35 332,4 -4,4"/>
<!-- Node29 -->
<g id="node1" class="node">
<title>Node29</title>
<polygon fill="#bfbfbf" stroke="#000000" points="0,-.5 0,-30.5 149,-30.5 149,-.5 0,-.5"/>
<text text-anchor="start" x="8" y="-18.5" font-family="Helvetica,sans-Serif" font-size="10.00" fill="#000000">CarlaRecorderEventsParent</text>
<text text-anchor="middle" x="74.5" y="-7.5" font-family="Helvetica,sans-Serif" font-size="10.00" fill="#000000">::Read</text>
</g>
<!-- Node30 -->
<g id="node2" class="node">
<title>Node30</title>
<g id="a_node2"><a xlink:href="../../db/dbe/structCarlaRecorderEventParent.html#af7ca15a25d681f6541cde284b5a7e06e" target="_top" xlink:title="CarlaRecorderEventParent\l::Read">
<polygon fill="#ffffff" stroke="#000000" points="185,-.5 185,-30.5 328,-30.5 328,-.5 185,-.5"/>
<text text-anchor="start" x="193" y="-18.5" font-family="Helvetica,sans-Serif" font-size="10.00" fill="#000000">CarlaRecorderEventParent</text>
<text text-anchor="middle" x="256.5" y="-7.5" font-family="Helvetica,sans-Serif" font-size="10.00" fill="#000000">::Read</text>
</a>
</g>
</g>
<!-- Node29&#45;&gt;Node30 -->
<g id="edge1" class="edge">
<title>Node29&#45;&gt;Node30</title>
<path fill="none" stroke="#191970" d="M149.0515,-15.5C157.4264,-15.5 165.9936,-15.5 174.4565,-15.5"/>
<polygon fill="#191970" stroke="#191970" points="174.7076,-19.0001 184.7076,-15.5 174.7076,-12.0001 174.7076,-19.0001"/>
</g>
</g>
</svg>
