<?xml version="1.0" encoding="UTF-8" standalone="no"?>
<!DOCTYPE svg PUBLIC "-//W3C//DTD SVG 1.1//EN"
 "http://www.w3.org/Graphics/SVG/1.1/DTD/svg11.dtd">
<!-- Generated by graphviz version 2.40.1 (20161225.0304)
 -->
<!-- Title: carla::client::detail::Client::GetEndpoint Pages: 1 -->
<!--zoomable 214 -->
<svg id="main" version="1.1" xmlns="http://www.w3.org/2000/svg" xmlns:xlink="http://www.w3.org/1999/xlink" xml:space="preserve" onload="init(evt)">
<style type="text/css"><![CDATA[
.edge:hover path { stroke: red; }
.edge:hover polygon { stroke: red; fill: red; }
]]></style>
<script type="text/javascript"><![CDATA[
var edges = document.getElementsByTagName('g');
if (edges && edges.length) {
  for (var i=0;i<edges.length;i++) {
    if (edges[i].id.substr(0,4)=='edge') {
      edges[i].setAttribute('class','edge');
    }
  }
}
]]></script>
        <defs>
                <circle id="rim" cx="0" cy="0" r="7"/>
                <circle id="rim2" cx="0" cy="0" r="3.5"/>
                <g id="zoomPlus">
                        <use xlink:href="#rim" fill="#404040">
                                <set attributeName="fill" to="#808080" begin="zoomplus.mouseover" end="zoomplus.mouseout"/>
                        </use>
                        <path d="M-4,0h8M0,-4v8" fill="none" stroke="white" stroke-width="1.5" pointer-events="none"/>
                </g>
                <g id="zoomMin">
                        <use xlink:href="#rim" fill="#404040">
                                <set attributeName="fill" to="#808080" begin="zoomminus.mouseover" end="zoomminus.mouseout"/>
                        </use>
                        <path d="M-4,0h8" fill="none" stroke="white" stroke-width="1.5" pointer-events="none"/>
                </g>
                <g id="dirArrow">
                        <path fill="none" stroke="white" stroke-width="1.5" d="M0,-3.0v7 M-2.5,-0.5L0,-3.0L2.5,-0.5"/>
                </g>
               <g id="resetDef">
                       <use xlink:href="#rim2" fill="#404040">
                               <set attributeName="fill" to="#808080" begin="reset.mouseover" end="reset.mouseout"/>
                       </use>
               </g>
        </defs>

<script type="text/javascript">
var viewWidth = 1365;
var viewHeight = 214;
var sectionId = 'dynsection-36';
</script>
<script xlink:href="../../svgpan.js"/>
<svg id="graph" class="graph">
<g id="viewport">
<title>carla::client::detail::Client::GetEndpoint</title>
<polygon fill="#ffffff" stroke="transparent" points="-4,4 -4,-210 1361,-210 1361,4 -4,4"/>
<!-- Node146 -->
<g id="node1" class="node">
<title>Node146</title>
<polygon fill="#bfbfbf" stroke="#000000" points="0,-115.5 0,-145.5 117,-145.5 117,-115.5 0,-115.5"/>
<text text-anchor="start" x="8" y="-133.5" font-family="Helvetica,sans-Serif" font-size="10.00" fill="#000000">carla::client::detail</text>
<text text-anchor="middle" x="58.5" y="-122.5" font-family="Helvetica,sans-Serif" font-size="10.00" fill="#000000">::Client::GetEndpoint</text>
</g>
<!-- Node147 -->
<g id="node2" class="node">
<title>Node147</title>
<g id="a_node2"><a xlink:href="../../df/df3/classcarla_1_1client_1_1detail_1_1Simulator.html#a1b18c595e4a06a93a30746eaffab242f" target="_top" xlink:title="carla::client::detail\l::Simulator::GetEndpoint">
<polygon fill="#ffffff" stroke="#000000" points="153,-164.5 153,-194.5 289,-194.5 289,-164.5 153,-164.5"/>
<text text-anchor="start" x="161" y="-182.5" font-family="Helvetica,sans-Serif" font-size="10.00" fill="#000000">carla::client::detail</text>
<text text-anchor="middle" x="221" y="-171.5" font-family="Helvetica,sans-Serif" font-size="10.00" fill="#000000">::Simulator::GetEndpoint</text>
</a>
</g>
</g>
<!-- Node146&#45;&gt;Node147 -->
<g id="edge1" class="edge">
<title>Node146&#45;&gt;Node147</title>
<path fill="none" stroke="#191970" d="M118.5683,-148.6129C135.8441,-153.8222 154.4933,-159.4457 171.0841,-164.4484"/>
<polygon fill="#191970" stroke="#191970" points="119.166,-145.1375 108.5813,-145.6014 117.145,-151.8395 119.166,-145.1375"/>
</g>
<!-- Node148 -->
<g id="node3" class="node">
<title>Node148</title>
<g id="a_node3"><a xlink:href="../../df/df3/classcarla_1_1client_1_1detail_1_1Simulator.html#abf453835f6d0a2adec59c68aca2457eb" target="_top" xlink:title="carla::client::detail\l::Simulator::Tick">
<polygon fill="#ffffff" stroke="#000000" points="167.5,-115.5 167.5,-145.5 274.5,-145.5 274.5,-115.5 167.5,-115.5"/>
<text text-anchor="start" x="175.5" y="-133.5" font-family="Helvetica,sans-Serif" font-size="10.00" fill="#000000">carla::client::detail</text>
<text text-anchor="middle" x="221" y="-122.5" font-family="Helvetica,sans-Serif" font-size="10.00" fill="#000000">::Simulator::Tick</text>
</a>
</g>
</g>
<!-- Node146&#45;&gt;Node148 -->
<g id="edge2" class="edge">
<title>Node146&#45;&gt;Node148</title>
<path fill="none" stroke="#191970" d="M127.2775,-130.5C140.6501,-130.5 154.4844,-130.5 167.2847,-130.5"/>
<polygon fill="#191970" stroke="#191970" points="127.1663,-127.0001 117.1662,-130.5 127.1662,-134.0001 127.1663,-127.0001"/>
</g>
<!-- Node150 -->
<g id="node5" class="node">
<title>Node150</title>
<g id="a_node5"><a xlink:href="../../df/df3/classcarla_1_1client_1_1detail_1_1Simulator.html#a002b29bb5445982c00d7566e5cfa0439" target="_top" xlink:title="carla::client::detail\l::Simulator::WaitForTick">
<polygon fill="#ffffff" stroke="#000000" points="154.5,-66.5 154.5,-96.5 287.5,-96.5 287.5,-66.5 154.5,-66.5"/>
<text text-anchor="start" x="162.5" y="-84.5" font-family="Helvetica,sans-Serif" font-size="10.00" fill="#000000">carla::client::detail</text>
<text text-anchor="middle" x="221" y="-73.5" font-family="Helvetica,sans-Serif" font-size="10.00" fill="#000000">::Simulator::WaitForTick</text>
</a>
</g>
</g>
<!-- Node146&#45;&gt;Node150 -->
<g id="edge4" class="edge">
<title>Node146&#45;&gt;Node150</title>
<path fill="none" stroke="#191970" d="M118.5683,-112.3871C135.8441,-107.1778 154.4933,-101.5543 171.0841,-96.5516"/>
<polygon fill="#191970" stroke="#191970" points="117.145,-109.1605 108.5813,-115.3986 119.166,-115.8625 117.145,-109.1605"/>
</g>
<!-- Node149 -->
<g id="node4" class="node">
<title>Node149</title>
<g id="a_node4"><a xlink:href="../../df/df3/classcarla_1_1client_1_1detail_1_1Simulator.html#a4796d65d9e013a40ee4c1dedef42541c" target="_top" xlink:title="carla::client::detail\l::Simulator::RemoveOnTickEvent">
<polygon fill="#ffffff" stroke="#000000" points="325,-115.5 325,-145.5 502,-145.5 502,-115.5 325,-115.5"/>
<text text-anchor="start" x="333" y="-133.5" font-family="Helvetica,sans-Serif" font-size="10.00" fill="#000000">carla::client::detail</text>
<text text-anchor="middle" x="413.5" y="-122.5" font-family="Helvetica,sans-Serif" font-size="10.00" fill="#000000">::Simulator::RemoveOnTickEvent</text>
</a>
</g>
</g>
<!-- Node148&#45;&gt;Node149 -->
<g id="edge3" class="edge">
<title>Node148&#45;&gt;Node149</title>
<path fill="none" stroke="#191970" d="M284.7065,-130.5C297.5405,-130.5 311.2494,-130.5 324.7598,-130.5"/>
<polygon fill="#191970" stroke="#191970" points="284.622,-127.0001 274.622,-130.5 284.6219,-134.0001 284.622,-127.0001"/>
</g>
<!-- Node151 -->
<g id="node6" class="node">
<title>Node151</title>
<g id="a_node6"><a xlink:href="../../df/df3/classcarla_1_1client_1_1detail_1_1Simulator.html#af6e35986ac6ca31bfa0f99df4be2b8d3" target="_top" xlink:title="carla::client::detail\l::Simulator::GetCurrentEpisode">
<polygon fill="#ffffff" stroke="#000000" points="330,-66.5 330,-96.5 497,-96.5 497,-66.5 330,-66.5"/>
<text text-anchor="start" x="338" y="-84.5" font-family="Helvetica,sans-Serif" font-size="10.00" fill="#000000">carla::client::detail</text>
<text text-anchor="middle" x="413.5" y="-73.5" font-family="Helvetica,sans-Serif" font-size="10.00" fill="#000000">::Simulator::GetCurrentEpisode</text>
</a>
</g>
</g>
<!-- Node150&#45;&gt;Node151 -->
<g id="edge5" class="edge">
<title>Node150&#45;&gt;Node151</title>
<path fill="none" stroke="#191970" d="M297.6046,-81.5C308.2517,-81.5 319.2339,-81.5 329.9994,-81.5"/>
<polygon fill="#191970" stroke="#191970" points="297.5172,-78.0001 287.5171,-81.5 297.5171,-85.0001 297.5172,-78.0001"/>
</g>
<!-- Node161 -->
<g id="node16" class="node">
<title>Node161</title>
<g id="a_node16"><a xlink:href="../../df/df3/classcarla_1_1client_1_1detail_1_1Simulator.html#ab270d4568d1fa3f48b87d78efc132746" target="_top" xlink:title="carla::client::detail\l::Simulator::GetServerVersion">
<polygon fill="#ffffff" stroke="#000000" points="333,-17.5 333,-47.5 494,-47.5 494,-17.5 333,-17.5"/>
<text text-anchor="start" x="341" y="-35.5" font-family="Helvetica,sans-Serif" font-size="10.00" fill="#000000">carla::client::detail</text>
<text text-anchor="middle" x="413.5" y="-24.5" font-family="Helvetica,sans-Serif" font-size="10.00" fill="#000000">::Simulator::GetServerVersion</text>
</a>
</g>
</g>
<!-- Node150&#45;&gt;Node161 -->
<g id="edge16" class="edge">
<title>Node150&#45;&gt;Node161</title>
<path fill="none" stroke="#191970" d="M289.9457,-63.9502C311.0845,-58.5694 334.1391,-52.701 354.5471,-47.5062"/>
<polygon fill="#191970" stroke="#191970" points="288.8921,-60.6067 280.0646,-66.4654 290.6189,-67.3904 288.8921,-60.6067"/>
</g>
<!-- Node152 -->
<g id="node7" class="node">
<title>Node152</title>
<g id="a_node7"><a xlink:href="../../df/df3/classcarla_1_1client_1_1detail_1_1Simulator.html#ab5481628a75cf422d65b88d557fa57ff" target="_top" xlink:title="carla::client::detail\l::Simulator::LoadEpisode">
<polygon fill="#ffffff" stroke="#000000" points="557.5,-137.5 557.5,-167.5 694.5,-167.5 694.5,-137.5 557.5,-137.5"/>
<text text-anchor="start" x="565.5" y="-155.5" font-family="Helvetica,sans-Serif" font-size="10.00" fill="#000000">carla::client::detail</text>
<text text-anchor="middle" x="626" y="-144.5" font-family="Helvetica,sans-Serif" font-size="10.00" fill="#000000">::Simulator::LoadEpisode</text>
</a>
</g>
</g>
<!-- Node151&#45;&gt;Node152 -->
<g id="edge6" class="edge">
<title>Node151&#45;&gt;Node152</title>
<path fill="none" stroke="#191970" d="M485.0304,-99.8657C490.8415,-101.9125 496.5639,-104.1248 502,-106.5 519.1826,-114.0076 520.7836,-121.0703 538,-128.5 545.706,-131.8255 553.9931,-134.8027 562.2904,-137.4333"/>
<polygon fill="#191970" stroke="#191970" points="485.7956,-96.4311 475.2018,-96.578 483.575,-103.0696 485.7956,-96.4311"/>
</g>
<!-- Node156 -->
<g id="node11" class="node">
<title>Node156</title>
<g id="a_node11"><a xlink:href="../../df/df3/classcarla_1_1client_1_1detail_1_1Simulator.html#a594f70df9844d547a3812d88aa4988c8" target="_top" xlink:title="Spawns an actor into the simulation. ">
<polygon fill="#ffffff" stroke="#000000" points="559,-88.5 559,-118.5 693,-118.5 693,-88.5 559,-88.5"/>
<text text-anchor="start" x="567" y="-106.5" font-family="Helvetica,sans-Serif" font-size="10.00" fill="#000000">carla::client::detail</text>
<text text-anchor="middle" x="626" y="-95.5" font-family="Helvetica,sans-Serif" font-size="10.00" fill="#000000">::Simulator::SpawnActor</text>
</a>
</g>
</g>
<!-- Node151&#45;&gt;Node156 -->
<g id="edge10" class="edge">
<title>Node151&#45;&gt;Node156</title>
<path fill="none" stroke="#191970" d="M507.3217,-91.2133C524.6574,-93.0081 542.4406,-94.8491 558.791,-96.5419"/>
<polygon fill="#191970" stroke="#191970" points="507.4879,-87.7119 497.1806,-90.1634 506.767,-94.6747 507.4879,-87.7119"/>
</g>
<!-- Node157 -->
<g id="node12" class="node">
<title>Node157</title>
<g id="a_node12"><a xlink:href="../../df/df3/classcarla_1_1client_1_1detail_1_1Simulator.html#a34a1a9a4da90d7fb8be630dd6be2365c" target="_top" xlink:title="Creates an actor instance out of a description of an existing actor. ">
<polygon fill="#ffffff" stroke="#000000" points="780.5,-66.5 780.5,-96.5 908.5,-96.5 908.5,-66.5 780.5,-66.5"/>
<text text-anchor="start" x="788.5" y="-84.5" font-family="Helvetica,sans-Serif" font-size="10.00" fill="#000000">carla::client::detail</text>
<text text-anchor="middle" x="844.5" y="-73.5" font-family="Helvetica,sans-Serif" font-size="10.00" fill="#000000">::Simulator::MakeActor</text>
</a>
</g>
</g>
<!-- Node151&#45;&gt;Node157 -->
<g id="edge15" class="edge">
<title>Node151&#45;&gt;Node157</title>
<path fill="none" stroke="#191970" d="M507.4779,-78.9943C517.7773,-78.7915 528.1092,-78.6191 538,-78.5 616.2165,-77.5578 635.7829,-77.6011 714,-78.5 735.641,-78.7487 759.2967,-79.2294 780.4523,-79.7343"/>
<polygon fill="#191970" stroke="#191970" points="507.1325,-75.5006 497.2069,-79.2064 507.2771,-82.4991 507.1325,-75.5006"/>
</g>
<!-- Node160 -->
<g id="node15" class="node">
<title>Node160</title>
<g id="a_node15"><a xlink:href="../../df/df3/classcarla_1_1client_1_1detail_1_1Simulator.html#ac043311176629fbaef63014c752ee0a4" target="_top" xlink:title="carla::client::detail\l::Simulator::GetCurrentEpisodeId">
<polygon fill="#ffffff" stroke="#000000" points="538,-.5 538,-30.5 714,-30.5 714,-.5 538,-.5"/>
<text text-anchor="start" x="546" y="-18.5" font-family="Helvetica,sans-Serif" font-size="10.00" fill="#000000">carla::client::detail</text>
<text text-anchor="middle" x="626" y="-7.5" font-family="Helvetica,sans-Serif" font-size="10.00" fill="#000000">::Simulator::GetCurrentEpisodeId</text>
</a>
</g>
</g>
<!-- Node151&#45;&gt;Node160 -->
<g id="edge14" class="edge">
<title>Node151&#45;&gt;Node160</title>
<path fill="none" stroke="#191970" d="M478.1357,-63.5977C486.1871,-61.2628 494.2946,-58.861 502,-56.5 528.6654,-48.3296 558.3325,-38.5456 581.961,-30.5847"/>
<polygon fill="#191970" stroke="#191970" points="477.0165,-60.2776 468.3734,-66.4052 478.9512,-67.0049 477.0165,-60.2776"/>
</g>
<!-- Node153 -->
<g id="node8" class="node">
<title>Node153</title>
<g id="a_node8"><a xlink:href="../../df/df3/classcarla_1_1client_1_1detail_1_1Simulator.html#a9c02ba42b0f621acadcedde6cece26f7" target="_top" xlink:title="carla::client::detail\l::Simulator::LoadOpenDriveEpisode">
<polygon fill="#ffffff" stroke="#000000" points="750,-175.5 750,-205.5 939,-205.5 939,-175.5 750,-175.5"/>
<text text-anchor="start" x="758" y="-193.5" font-family="Helvetica,sans-Serif" font-size="10.00" fill="#000000">carla::client::detail</text>
<text text-anchor="middle" x="844.5" y="-182.5" font-family="Helvetica,sans-Serif" font-size="10.00" fill="#000000">::Simulator::LoadOpenDriveEpisode</text>
</a>
</g>
</g>
<!-- Node152&#45;&gt;Node153 -->
<g id="edge7" class="edge">
<title>Node152&#45;&gt;Node153</title>
<path fill="none" stroke="#191970" d="M704.6121,-166.1717C721.9722,-169.1908 740.4552,-172.4052 758.105,-175.4748"/>
<polygon fill="#191970" stroke="#191970" points="704.9871,-162.6844 694.5353,-164.4192 703.7877,-169.5809 704.9871,-162.6844"/>
</g>
<!-- Node155 -->
<g id="node10" class="node">
<title>Node155</title>
<g id="a_node10"><a xlink:href="../../df/df3/classcarla_1_1client_1_1detail_1_1Simulator.html#a3456d71f81301522bdfb013838bc4589" target="_top" xlink:title="carla::client::detail\l::Simulator::ReloadEpisode">
<polygon fill="#ffffff" stroke="#000000" points="771,-126.5 771,-156.5 918,-156.5 918,-126.5 771,-126.5"/>
<text text-anchor="start" x="779" y="-144.5" font-family="Helvetica,sans-Serif" font-size="10.00" fill="#000000">carla::client::detail</text>
<text text-anchor="middle" x="844.5" y="-133.5" font-family="Helvetica,sans-Serif" font-size="10.00" fill="#000000">::Simulator::ReloadEpisode</text>
</a>
</g>
</g>
<!-- Node152&#45;&gt;Node155 -->
<g id="edge9" class="edge">
<title>Node152&#45;&gt;Node155</title>
<path fill="none" stroke="#191970" d="M704.6544,-148.5403C726.2593,-147.4526 749.6005,-146.2775 770.909,-145.2048"/>
<polygon fill="#191970" stroke="#191970" points="704.3466,-145.0512 694.5353,-149.0497 704.6986,-152.0424 704.3466,-145.0512"/>
</g>
<!-- Node154 -->
<g id="node9" class="node">
<title>Node154</title>
<g id="a_node9"><a xlink:href="../../df/df3/classcarla_1_1client_1_1detail_1_1Simulator.html#a2e6e7d6a26ff8ed4726d782bd6e8012b" target="_top" xlink:title="carla::client::detail\l::Simulator::UnloadLevelLayer">
<polygon fill="#ffffff" stroke="#000000" points="975,-175.5 975,-205.5 1139,-205.5 1139,-175.5 975,-175.5"/>
<text text-anchor="start" x="983" y="-193.5" font-family="Helvetica,sans-Serif" font-size="10.00" fill="#000000">carla::client::detail</text>
<text text-anchor="middle" x="1057" y="-182.5" font-family="Helvetica,sans-Serif" font-size="10.00" fill="#000000">::Simulator::UnloadLevelLayer</text>
</a>
</g>
</g>
<!-- Node153&#45;&gt;Node154 -->
<g id="edge8" class="edge">
<title>Node153&#45;&gt;Node154</title>
<path fill="none" stroke="#191970" d="M949.2772,-190.5C957.8329,-190.5 966.4014,-190.5 974.7606,-190.5"/>
<polygon fill="#191970" stroke="#191970" points="949.2527,-187.0001 939.2527,-190.5 949.2527,-194.0001 949.2527,-187.0001"/>
</g>
<!-- Node156&#45;&gt;Node157 -->
<g id="edge11" class="edge">
<title>Node156&#45;&gt;Node157</title>
<path fill="none" stroke="#191970" d="M703.2864,-95.7183C728.451,-93.1846 756.0966,-90.401 780.2046,-87.9737"/>
<polygon fill="#191970" stroke="#191970" points="702.6411,-92.2655 693.0421,-96.7498 703.3425,-99.2303 702.6411,-92.2655"/>
</g>
<!-- Node158 -->
<g id="node13" class="node">
<title>Node158</title>
<g id="a_node13"><a xlink:href="../../df/df3/classcarla_1_1client_1_1detail_1_1Simulator.html#a961f59d6b4998debd50c4d5aa931806c" target="_top" xlink:title="carla::client::detail\l::Simulator::GetSpectator">
<polygon fill="#ffffff" stroke="#000000" points="987,-66.5 987,-96.5 1127,-96.5 1127,-66.5 987,-66.5"/>
<text text-anchor="start" x="995" y="-84.5" font-family="Helvetica,sans-Serif" font-size="10.00" fill="#000000">carla::client::detail</text>
<text text-anchor="middle" x="1057" y="-73.5" font-family="Helvetica,sans-Serif" font-size="10.00" fill="#000000">::Simulator::GetSpectator</text>
</a>
</g>
</g>
<!-- Node157&#45;&gt;Node158 -->
<g id="edge12" class="edge">
<title>Node157&#45;&gt;Node158</title>
<path fill="none" stroke="#191970" d="M918.5571,-81.5C940.6975,-81.5 964.8974,-81.5 986.7834,-81.5"/>
<polygon fill="#191970" stroke="#191970" points="918.5452,-78.0001 908.5452,-81.5 918.5451,-85.0001 918.5452,-78.0001"/>
</g>
<!-- Node159 -->
<g id="node14" class="node">
<title>Node159</title>
<g id="a_node14"><a xlink:href="../../df/df3/classcarla_1_1client_1_1detail_1_1Simulator.html#a13475b151d85c3b83245f47a2b6c13fa" target="_top" xlink:title="carla::client::detail\l::Simulator::AddPendingException">
<polygon fill="#ffffff" stroke="#000000" points="1175,-66.5 1175,-96.5 1357,-96.5 1357,-66.5 1175,-66.5"/>
<text text-anchor="start" x="1183" y="-84.5" font-family="Helvetica,sans-Serif" font-size="10.00" fill="#000000">carla::client::detail</text>
<text text-anchor="middle" x="1266" y="-73.5" font-family="Helvetica,sans-Serif" font-size="10.00" fill="#000000">::Simulator::AddPendingException</text>
</a>
</g>
</g>
<!-- Node158&#45;&gt;Node159 -->
<g id="edge13" class="edge">
<title>Node158&#45;&gt;Node159</title>
<path fill="none" stroke="#191970" d="M1137.357,-81.5C1149.6287,-81.5 1162.3702,-81.5 1174.8533,-81.5"/>
<polygon fill="#191970" stroke="#191970" points="1137.1754,-78.0001 1127.1754,-81.5 1137.1754,-85.0001 1137.1754,-78.0001"/>
</g>
</g>
</svg>
        <g id="navigator" transform="translate(0 0)" fill="#404254">
                <rect fill="#f2f5e9" fill-opacity="0.5" stroke="#606060" stroke-width=".5" x="0" y="0" width="60" height="60"/>
                <use id="zoomplus" xlink:href="#zoomPlus" x="17" y="9" onmousedown="handleZoom(evt,'in')"/>
                <use id="zoomminus" xlink:href="#zoomMin" x="42" y="9" onmousedown="handleZoom(evt,'out')"/>
                <use id="reset" xlink:href="#resetDef" x="30" y="36" onmousedown="handleReset()"/>
                <g id="arrowUp" xlink:href="#dirArrow" transform="translate(30 24)" onmousedown="handlePan(0,-1)">
                  <use xlink:href="#rim" fill="#404040">
                        <set attributeName="fill" to="#808080" begin="arrowUp.mouseover" end="arrowUp.mouseout"/>
                  </use>
                  <path fill="none" stroke="white" stroke-width="1.5" d="M0,-3.0v7 M-2.5,-0.5L0,-3.0L2.5,-0.5"/>
                </g>
                <g id="arrowRight" xlink:href="#dirArrow" transform="rotate(90) translate(36 -43)" onmousedown="handlePan(1,0)">
                  <use xlink:href="#rim" fill="#404040">
                        <set attributeName="fill" to="#808080" begin="arrowRight.mouseover" end="arrowRight.mouseout"/>
                  </use>
                  <path fill="none" stroke="white" stroke-width="1.5" d="M0,-3.0v7 M-2.5,-0.5L0,-3.0L2.5,-0.5"/>
                </g>
                <g id="arrowDown" xlink:href="#dirArrow" transform="rotate(180) translate(-30 -48)" onmousedown="handlePan(0,1)">
                  <use xlink:href="#rim" fill="#404040">
                        <set attributeName="fill" to="#808080" begin="arrowDown.mouseover" end="arrowDown.mouseout"/>
                  </use>
                  <path fill="none" stroke="white" stroke-width="1.5" d="M0,-3.0v7 M-2.5,-0.5L0,-3.0L2.5,-0.5"/>
                </g>
                <g id="arrowLeft" xlink:href="#dirArrow" transform="rotate(270) translate(-36 17)" onmousedown="handlePan(-1,0)">
                  <use xlink:href="#rim" fill="#404040">
                        <set attributeName="fill" to="#808080" begin="arrowLeft.mouseover" end="arrowLeft.mouseout"/>
                  </use>
                  <path fill="none" stroke="white" stroke-width="1.5" d="M0,-3.0v7 M-2.5,-0.5L0,-3.0L2.5,-0.5"/>
                </g>
        </g>
        <svg viewBox="0 0 15 15" width="100%" height="30px" preserveAspectRatio="xMaxYMin meet">
         <g id="arrow_out" transform="scale(0.3 0.3)">
          <a xlink:href="classcarla_1_1client_1_1detail_1_1Client_a0a5a097fb68fdf8a588a99c06433c3a4_icgraph_org.svg" target="_base">
           <rect id="button" ry="5" rx="5" y="6" x="6" height="38" width="38"
                fill="#f2f5e9" fill-opacity="0.5" stroke="#606060" stroke-width="1.0"/>
           <path id="arrow"
             d="M 11.500037,31.436501 C 11.940474,20.09759 22.043105,11.32322 32.158766,21.979434 L 37.068811,17.246167 C 37.068811,17.246167 37.088388,32 37.088388,32 L 22.160133,31.978069 C 22.160133,31.978069 26.997745,27.140456 26.997745,27.140456 C 18.528582,18.264221 13.291696,25.230495 11.500037,31.436501 z"
             style="fill:#404040;"/>
          </a>
         </g>
        </svg>
</svg>
