<?xml version="1.0" encoding="UTF-8" standalone="no"?>
<!DOCTYPE svg PUBLIC "-//W3C//DTD SVG 1.1//EN"
 "http://www.w3.org/Graphics/SVG/1.1/DTD/svg11.dtd">
<!-- Generated by graphviz version 2.40.1 (20161225.0304)
 -->
<!-- Title: carla::client::detail::Client::GetEpisodeSettings Pages: 1 -->
<!--zoomable 196 -->
<svg id="main" version="1.1" xmlns="http://www.w3.org/2000/svg" xmlns:xlink="http://www.w3.org/1999/xlink" xml:space="preserve" onload="init(evt)">
<style type="text/css"><![CDATA[
.edge:hover path { stroke: red; }
.edge:hover polygon { stroke: red; fill: red; }
]]></style>
<script type="text/javascript"><![CDATA[
var edges = document.getElementsByTagName('g');
if (edges && edges.length) {
  for (var i=0;i<edges.length;i++) {
    if (edges[i].id.substr(0,4)=='edge') {
      edges[i].setAttribute('class','edge');
    }
  }
}
]]></script>
        <defs>
                <circle id="rim" cx="0" cy="0" r="7"/>
                <circle id="rim2" cx="0" cy="0" r="3.5"/>
                <g id="zoomPlus">
                        <use xlink:href="#rim" fill="#404040">
                                <set attributeName="fill" to="#808080" begin="zoomplus.mouseover" end="zoomplus.mouseout"/>
                        </use>
                        <path d="M-4,0h8M0,-4v8" fill="none" stroke="white" stroke-width="1.5" pointer-events="none"/>
                </g>
                <g id="zoomMin">
                        <use xlink:href="#rim" fill="#404040">
                                <set attributeName="fill" to="#808080" begin="zoomminus.mouseover" end="zoomminus.mouseout"/>
                        </use>
                        <path d="M-4,0h8" fill="none" stroke="white" stroke-width="1.5" pointer-events="none"/>
                </g>
                <g id="dirArrow">
                        <path fill="none" stroke="white" stroke-width="1.5" d="M0,-3.0v7 M-2.5,-0.5L0,-3.0L2.5,-0.5"/>
                </g>
               <g id="resetDef">
                       <use xlink:href="#rim2" fill="#404040">
                               <set attributeName="fill" to="#808080" begin="reset.mouseover" end="reset.mouseout"/>
                       </use>
               </g>
        </defs>

<script type="text/javascript">
var viewWidth = 1408;
var viewHeight = 196;
var sectionId = 'dynsection-28';
</script>
<script xlink:href="../../svgpan.js"/>
<svg id="graph" class="graph">
<g id="viewport">
<title>carla::client::detail::Client::GetEpisodeSettings</title>
<polygon fill="#ffffff" stroke="transparent" points="-4,4 -4,-192 1404,-192 1404,4 -4,4"/>
<!-- Node130 -->
<g id="node1" class="node">
<title>Node130</title>
<polygon fill="#bfbfbf" stroke="#000000" points="0,-66.5 0,-96.5 152,-96.5 152,-66.5 0,-66.5"/>
<text text-anchor="start" x="8" y="-84.5" font-family="Helvetica,sans-Serif" font-size="10.00" fill="#000000">carla::client::detail</text>
<text text-anchor="middle" x="76" y="-73.5" font-family="Helvetica,sans-Serif" font-size="10.00" fill="#000000">::Client::GetEpisodeSettings</text>
</g>
<!-- Node131 -->
<g id="node2" class="node">
<title>Node131</title>
<g id="a_node2"><a xlink:href="../../df/df3/classcarla_1_1client_1_1detail_1_1Simulator.html#ae51eef7fae1a55b31ed1a272d35efbf6" target="_top" xlink:title="carla::client::detail\l::Simulator::GetEpisodeSettings">
<polygon fill="#ffffff" stroke="#000000" points="188,-66.5 188,-96.5 359,-96.5 359,-66.5 188,-66.5"/>
<text text-anchor="start" x="196" y="-84.5" font-family="Helvetica,sans-Serif" font-size="10.00" fill="#000000">carla::client::detail</text>
<text text-anchor="middle" x="273.5" y="-73.5" font-family="Helvetica,sans-Serif" font-size="10.00" fill="#000000">::Simulator::GetEpisodeSettings</text>
</a>
</g>
</g>
<!-- Node130&#45;&gt;Node131 -->
<g id="edge1" class="edge">
<title>Node130&#45;&gt;Node131</title>
<path fill="none" stroke="#191970" d="M162.3493,-81.5C170.8361,-81.5 179.4469,-81.5 187.9259,-81.5"/>
<polygon fill="#191970" stroke="#191970" points="162.0762,-78.0001 152.0762,-81.5 162.0761,-85.0001 162.0762,-78.0001"/>
</g>
<!-- Node132 -->
<g id="node3" class="node">
<title>Node132</title>
<g id="a_node3"><a xlink:href="../../df/df3/classcarla_1_1client_1_1detail_1_1Simulator.html#af6e35986ac6ca31bfa0f99df4be2b8d3" target="_top" xlink:title="carla::client::detail\l::Simulator::GetCurrentEpisode">
<polygon fill="#ffffff" stroke="#000000" points="395,-66.5 395,-96.5 562,-96.5 562,-66.5 395,-66.5"/>
<text text-anchor="start" x="403" y="-84.5" font-family="Helvetica,sans-Serif" font-size="10.00" fill="#000000">carla::client::detail</text>
<text text-anchor="middle" x="478.5" y="-73.5" font-family="Helvetica,sans-Serif" font-size="10.00" fill="#000000">::Simulator::GetCurrentEpisode</text>
</a>
</g>
</g>
<!-- Node131&#45;&gt;Node132 -->
<g id="edge2" class="edge">
<title>Node131&#45;&gt;Node132</title>
<path fill="none" stroke="#191970" d="M369.4913,-81.5C377.9235,-81.5 386.4146,-81.5 394.7352,-81.5"/>
<polygon fill="#191970" stroke="#191970" points="369.2507,-78.0001 359.2507,-81.5 369.2506,-85.0001 369.2507,-78.0001"/>
</g>
<!-- Node133 -->
<g id="node4" class="node">
<title>Node133</title>
<g id="a_node4"><a xlink:href="../../df/df3/classcarla_1_1client_1_1detail_1_1Simulator.html#aae535158608ae86be295af28c4d38a15" target="_top" xlink:title="carla::client::detail\l::Simulator::LoadEpisode">
<polygon fill="#ffffff" stroke="#000000" points="617.5,-137.5 617.5,-167.5 754.5,-167.5 754.5,-137.5 617.5,-137.5"/>
<text text-anchor="start" x="625.5" y="-155.5" font-family="Helvetica,sans-Serif" font-size="10.00" fill="#000000">carla::client::detail</text>
<text text-anchor="middle" x="686" y="-144.5" font-family="Helvetica,sans-Serif" font-size="10.00" fill="#000000">::Simulator::LoadEpisode</text>
</a>
</g>
</g>
<!-- Node132&#45;&gt;Node133 -->
<g id="edge3" class="edge">
<title>Node132&#45;&gt;Node133</title>
<path fill="none" stroke="#191970" d="M523.2079,-100.4159C545.476,-109.495 572.934,-120.1798 598,-128.5 607.3183,-131.593 617.2846,-134.5956 627.0386,-137.37"/>
<polygon fill="#191970" stroke="#191970" points="524.2674,-97.0674 513.6876,-96.5037 521.6067,-103.542 524.2674,-97.0674"/>
</g>
<!-- Node136 -->
<g id="node7" class="node">
<title>Node136</title>
<g id="a_node7"><a xlink:href="../../df/df3/classcarla_1_1client_1_1detail_1_1Simulator.html#a594f70df9844d547a3812d88aa4988c8" target="_top" xlink:title="Spawns an actor into the simulation. ">
<polygon fill="#ffffff" stroke="#000000" points="619,-88.5 619,-118.5 753,-118.5 753,-88.5 619,-88.5"/>
<text text-anchor="start" x="627" y="-106.5" font-family="Helvetica,sans-Serif" font-size="10.00" fill="#000000">carla::client::detail</text>
<text text-anchor="middle" x="686" y="-95.5" font-family="Helvetica,sans-Serif" font-size="10.00" fill="#000000">::Simulator::SpawnActor</text>
</a>
</g>
</g>
<!-- Node132&#45;&gt;Node136 -->
<g id="edge7" class="edge">
<title>Node132&#45;&gt;Node136</title>
<path fill="none" stroke="#191970" d="M572.2751,-91.4424C588.0002,-93.1097 604.0337,-94.8096 618.9128,-96.3871"/>
<polygon fill="#191970" stroke="#191970" points="572.3146,-87.9271 562.0013,-90.3531 571.5765,-94.8881 572.3146,-87.9271"/>
</g>
<!-- Node137 -->
<g id="node8" class="node">
<title>Node137</title>
<g id="a_node8"><a xlink:href="../../df/df3/classcarla_1_1client_1_1detail_1_1Simulator.html#a34a1a9a4da90d7fb8be630dd6be2365c" target="_top" xlink:title="Creates an actor instance out of a description of an existing actor. ">
<polygon fill="#ffffff" stroke="#000000" points="840.5,-67.5 840.5,-97.5 968.5,-97.5 968.5,-67.5 840.5,-67.5"/>
<text text-anchor="start" x="848.5" y="-85.5" font-family="Helvetica,sans-Serif" font-size="10.00" fill="#000000">carla::client::detail</text>
<text text-anchor="middle" x="904.5" y="-74.5" font-family="Helvetica,sans-Serif" font-size="10.00" fill="#000000">::Simulator::MakeActor</text>
</a>
</g>
</g>
<!-- Node132&#45;&gt;Node137 -->
<g id="edge12" class="edge">
<title>Node132&#45;&gt;Node137</title>
<path fill="none" stroke="#191970" d="M572.2693,-78.9225C580.9675,-78.7508 589.6475,-78.6048 598,-78.5 676.2161,-77.5184 695.787,-77.3016 774,-78.5 795.6443,-78.8316 819.3009,-79.4725 840.4562,-80.1457"/>
<polygon fill="#191970" stroke="#191970" points="571.9936,-75.4274 562.0686,-79.1349 572.1394,-82.4259 571.9936,-75.4274"/>
</g>
<!-- Node140 -->
<g id="node11" class="node">
<title>Node140</title>
<g id="a_node11"><a xlink:href="../../df/df3/classcarla_1_1client_1_1detail_1_1Simulator.html#ac043311176629fbaef63014c752ee0a4" target="_top" xlink:title="carla::client::detail\l::Simulator::GetCurrentEpisodeId">
<polygon fill="#ffffff" stroke="#000000" points="598,-.5 598,-30.5 774,-30.5 774,-.5 598,-.5"/>
<text text-anchor="start" x="606" y="-18.5" font-family="Helvetica,sans-Serif" font-size="10.00" fill="#000000">carla::client::detail</text>
<text text-anchor="middle" x="686" y="-7.5" font-family="Helvetica,sans-Serif" font-size="10.00" fill="#000000">::Simulator::GetCurrentEpisodeId</text>
</a>
</g>
</g>
<!-- Node132&#45;&gt;Node140 -->
<g id="edge11" class="edge">
<title>Node132&#45;&gt;Node140</title>
<path fill="none" stroke="#191970" d="M535.6139,-63.3337C567.9425,-53.0508 607.8998,-40.3415 638.5,-30.6084"/>
<polygon fill="#191970" stroke="#191970" points="534.3133,-60.0745 525.8446,-66.441 536.4351,-66.7452 534.3133,-60.0745"/>
</g>
<!-- Node134 -->
<g id="node5" class="node">
<title>Node134</title>
<g id="a_node5"><a xlink:href="../../df/df3/classcarla_1_1client_1_1detail_1_1Simulator.html#ad4f5e3723600eb2d33fa8429d2683ef7" target="_top" xlink:title="carla::client::detail\l::Simulator::LoadOpenDriveEpisode">
<polygon fill="#ffffff" stroke="#000000" points="810,-157.5 810,-187.5 999,-187.5 999,-157.5 810,-157.5"/>
<text text-anchor="start" x="818" y="-175.5" font-family="Helvetica,sans-Serif" font-size="10.00" fill="#000000">carla::client::detail</text>
<text text-anchor="middle" x="904.5" y="-164.5" font-family="Helvetica,sans-Serif" font-size="10.00" fill="#000000">::Simulator::LoadOpenDriveEpisode</text>
</a>
</g>
</g>
<!-- Node133&#45;&gt;Node134 -->
<g id="edge4" class="edge">
<title>Node133&#45;&gt;Node134</title>
<path fill="none" stroke="#191970" d="M764.5486,-159.6898C779.2188,-161.0326 794.6928,-162.449 809.7897,-163.8309"/>
<polygon fill="#191970" stroke="#191970" points="764.8127,-156.1994 754.5353,-158.7733 764.1746,-163.1703 764.8127,-156.1994"/>
</g>
<!-- Node135 -->
<g id="node6" class="node">
<title>Node135</title>
<g id="a_node6"><a xlink:href="../../df/df3/classcarla_1_1client_1_1detail_1_1Simulator.html#ae2681a54d9e423c9b7f8d363abd13045" target="_top" xlink:title="carla::client::detail\l::Simulator::ReloadEpisode">
<polygon fill="#ffffff" stroke="#000000" points="1035,-135.5 1035,-165.5 1182,-165.5 1182,-135.5 1035,-135.5"/>
<text text-anchor="start" x="1043" y="-153.5" font-family="Helvetica,sans-Serif" font-size="10.00" fill="#000000">carla::client::detail</text>
<text text-anchor="middle" x="1108.5" y="-142.5" font-family="Helvetica,sans-Serif" font-size="10.00" fill="#000000">::Simulator::ReloadEpisode</text>
</a>
</g>
</g>
<!-- Node133&#45;&gt;Node135 -->
<g id="edge6" class="edge">
<title>Node133&#45;&gt;Node135</title>
<path fill="none" stroke="#191970" d="M764.8107,-149.5757C779.8135,-149.1273 795.3891,-148.7356 810,-148.5 893.9891,-147.1457 915.0035,-147.733 999,-148.5 1010.5978,-148.6059 1022.8857,-148.7749 1034.8764,-148.9709"/>
<polygon fill="#191970" stroke="#191970" points="764.4214,-146.086 754.5346,-149.894 764.6382,-153.0826 764.4214,-146.086"/>
</g>
<!-- Node134&#45;&gt;Node135 -->
<g id="edge5" class="edge">
<title>Node134&#45;&gt;Node135</title>
<path fill="none" stroke="#191970" d="M1009.1662,-161.2125C1017.7989,-160.2815 1026.4062,-159.3533 1034.7404,-158.4545"/>
<polygon fill="#191970" stroke="#191970" points="1008.6023,-157.7529 999.0352,-162.305 1009.3529,-164.7125 1008.6023,-157.7529"/>
</g>
<!-- Node136&#45;&gt;Node137 -->
<g id="edge8" class="edge">
<title>Node136&#45;&gt;Node137</title>
<path fill="none" stroke="#191970" d="M763.2864,-96.072C788.451,-93.6534 816.0966,-90.9964 840.2046,-88.6794"/>
<polygon fill="#191970" stroke="#191970" points="762.6614,-92.6159 753.0421,-97.0566 763.3311,-99.5838 762.6614,-92.6159"/>
</g>
<!-- Node138 -->
<g id="node9" class="node">
<title>Node138</title>
<g id="a_node9"><a xlink:href="../../df/df3/classcarla_1_1client_1_1detail_1_1Simulator.html#a961f59d6b4998debd50c4d5aa931806c" target="_top" xlink:title="carla::client::detail\l::Simulator::GetSpectator">
<polygon fill="#ffffff" stroke="#000000" points="1038.5,-67.5 1038.5,-97.5 1178.5,-97.5 1178.5,-67.5 1038.5,-67.5"/>
<text text-anchor="start" x="1046.5" y="-85.5" font-family="Helvetica,sans-Serif" font-size="10.00" fill="#000000">carla::client::detail</text>
<text text-anchor="middle" x="1108.5" y="-74.5" font-family="Helvetica,sans-Serif" font-size="10.00" fill="#000000">::Simulator::GetSpectator</text>
</a>
</g>
</g>
<!-- Node137&#45;&gt;Node138 -->
<g id="edge9" class="edge">
<title>Node137&#45;&gt;Node138</title>
<path fill="none" stroke="#191970" d="M979.0283,-82.5C998.3487,-82.5 1019.0899,-82.5 1038.186,-82.5"/>
<polygon fill="#191970" stroke="#191970" points="978.7669,-79.0001 968.7669,-82.5 978.7668,-86.0001 978.7669,-79.0001"/>
</g>
<!-- Node139 -->
<g id="node10" class="node">
<title>Node139</title>
<g id="a_node10"><a xlink:href="../../df/df3/classcarla_1_1client_1_1detail_1_1Simulator.html#a13475b151d85c3b83245f47a2b6c13fa" target="_top" xlink:title="carla::client::detail\l::Simulator::AddPendingException">
<polygon fill="#ffffff" stroke="#000000" points="1218,-67.5 1218,-97.5 1400,-97.5 1400,-67.5 1218,-67.5"/>
<text text-anchor="start" x="1226" y="-85.5" font-family="Helvetica,sans-Serif" font-size="10.00" fill="#000000">carla::client::detail</text>
<text text-anchor="middle" x="1309" y="-74.5" font-family="Helvetica,sans-Serif" font-size="10.00" fill="#000000">::Simulator::AddPendingException</text>
</a>
</g>
</g>
<!-- Node138&#45;&gt;Node139 -->
<g id="edge10" class="edge">
<title>Node138&#45;&gt;Node139</title>
<path fill="none" stroke="#191970" d="M1188.836,-82.5C1198.352,-82.5 1208.1175,-82.5 1217.7705,-82.5"/>
<polygon fill="#191970" stroke="#191970" points="1188.6252,-79.0001 1178.6252,-82.5 1188.6251,-86.0001 1188.6252,-79.0001"/>
</g>
</g>
</svg>
        <g id="navigator" transform="translate(0 0)" fill="#404254">
                <rect fill="#f2f5e9" fill-opacity="0.5" stroke="#606060" stroke-width=".5" x="0" y="0" width="60" height="60"/>
                <use id="zoomplus" xlink:href="#zoomPlus" x="17" y="9" onmousedown="handleZoom(evt,'in')"/>
                <use id="zoomminus" xlink:href="#zoomMin" x="42" y="9" onmousedown="handleZoom(evt,'out')"/>
                <use id="reset" xlink:href="#resetDef" x="30" y="36" onmousedown="handleReset()"/>
                <g id="arrowUp" xlink:href="#dirArrow" transform="translate(30 24)" onmousedown="handlePan(0,-1)">
                  <use xlink:href="#rim" fill="#404040">
                        <set attributeName="fill" to="#808080" begin="arrowUp.mouseover" end="arrowUp.mouseout"/>
                  </use>
                  <path fill="none" stroke="white" stroke-width="1.5" d="M0,-3.0v7 M-2.5,-0.5L0,-3.0L2.5,-0.5"/>
                </g>
                <g id="arrowRight" xlink:href="#dirArrow" transform="rotate(90) translate(36 -43)" onmousedown="handlePan(1,0)">
                  <use xlink:href="#rim" fill="#404040">
                        <set attributeName="fill" to="#808080" begin="arrowRight.mouseover" end="arrowRight.mouseout"/>
                  </use>
                  <path fill="none" stroke="white" stroke-width="1.5" d="M0,-3.0v7 M-2.5,-0.5L0,-3.0L2.5,-0.5"/>
                </g>
                <g id="arrowDown" xlink:href="#dirArrow" transform="rotate(180) translate(-30 -48)" onmousedown="handlePan(0,1)">
                  <use xlink:href="#rim" fill="#404040">
                        <set attributeName="fill" to="#808080" begin="arrowDown.mouseover" end="arrowDown.mouseout"/>
                  </use>
                  <path fill="none" stroke="white" stroke-width="1.5" d="M0,-3.0v7 M-2.5,-0.5L0,-3.0L2.5,-0.5"/>
                </g>
                <g id="arrowLeft" xlink:href="#dirArrow" transform="rotate(270) translate(-36 17)" onmousedown="handlePan(-1,0)">
                  <use xlink:href="#rim" fill="#404040">
                        <set attributeName="fill" to="#808080" begin="arrowLeft.mouseover" end="arrowLeft.mouseout"/>
                  </use>
                  <path fill="none" stroke="white" stroke-width="1.5" d="M0,-3.0v7 M-2.5,-0.5L0,-3.0L2.5,-0.5"/>
                </g>
        </g>
        <svg viewBox="0 0 15 15" width="100%" height="30px" preserveAspectRatio="xMaxYMin meet">
         <g id="arrow_out" transform="scale(0.3 0.3)">
          <a xlink:href="classcarla_1_1client_1_1detail_1_1Client_af24b90fee0483f3819213b2513406099_icgraph_org.svg" target="_base">
           <rect id="button" ry="5" rx="5" y="6" x="6" height="38" width="38"
                fill="#f2f5e9" fill-opacity="0.5" stroke="#606060" stroke-width="1.0"/>
           <path id="arrow"
             d="M 11.500037,31.436501 C 11.940474,20.09759 22.043105,11.32322 32.158766,21.979434 L 37.068811,17.246167 C 37.068811,17.246167 37.088388,32 37.088388,32 L 22.160133,31.978069 C 22.160133,31.978069 26.997745,27.140456 26.997745,27.140456 C 18.528582,18.264221 13.291696,25.230495 11.500037,31.436501 z"
             style="fill:#404040;"/>
          </a>
         </g>
        </svg>
</svg>
