<?xml version="1.0" encoding="UTF-8" standalone="no"?>
<!DOCTYPE svg PUBLIC "-//W3C//DTD SVG 1.1//EN"
 "http://www.w3.org/Graphics/SVG/1.1/DTD/svg11.dtd">
<!-- Generated by graphviz version 2.40.1 (20161225.0304)
 -->
<!-- Title: carla::client::detail::Client::GetTimeout Pages: 1 -->
<!--zoomable 196 -->
<svg id="main" version="1.1" xmlns="http://www.w3.org/2000/svg" xmlns:xlink="http://www.w3.org/1999/xlink" xml:space="preserve" onload="init(evt)">
<style type="text/css"><![CDATA[
.edge:hover path { stroke: red; }
.edge:hover polygon { stroke: red; fill: red; }
]]></style>
<script type="text/javascript"><![CDATA[
var edges = document.getElementsByTagName('g');
if (edges && edges.length) {
  for (var i=0;i<edges.length;i++) {
    if (edges[i].id.substr(0,4)=='edge') {
      edges[i].setAttribute('class','edge');
    }
  }
}
]]></script>
        <defs>
                <circle id="rim" cx="0" cy="0" r="7"/>
                <circle id="rim2" cx="0" cy="0" r="3.5"/>
                <g id="zoomPlus">
                        <use xlink:href="#rim" fill="#404040">
                                <set attributeName="fill" to="#808080" begin="zoomplus.mouseover" end="zoomplus.mouseout"/>
                        </use>
                        <path d="M-4,0h8M0,-4v8" fill="none" stroke="white" stroke-width="1.5" pointer-events="none"/>
                </g>
                <g id="zoomMin">
                        <use xlink:href="#rim" fill="#404040">
                                <set attributeName="fill" to="#808080" begin="zoomminus.mouseover" end="zoomminus.mouseout"/>
                        </use>
                        <path d="M-4,0h8" fill="none" stroke="white" stroke-width="1.5" pointer-events="none"/>
                </g>
                <g id="dirArrow">
                        <path fill="none" stroke="white" stroke-width="1.5" d="M0,-3.0v7 M-2.5,-0.5L0,-3.0L2.5,-0.5"/>
                </g>
               <g id="resetDef">
                       <use xlink:href="#rim2" fill="#404040">
                               <set attributeName="fill" to="#808080" begin="reset.mouseover" end="reset.mouseout"/>
                       </use>
               </g>
        </defs>

<script type="text/javascript">
var viewWidth = 1187;
var viewHeight = 196;
var sectionId = 'dynsection-31';
</script>
<script xlink:href="../../svgpan.js"/>
<svg id="graph" class="graph">
<g id="viewport">
<title>carla::client::detail::Client::GetTimeout</title>
<polygon fill="#ffffff" stroke="transparent" points="-4,4 -4,-192 1183,-192 1183,4 -4,4"/>
<!-- Node153 -->
<g id="node1" class="node">
<title>Node153</title>
<polygon fill="#bfbfbf" stroke="#000000" points="0,-88.5 0,-118.5 115,-118.5 115,-88.5 0,-88.5"/>
<text text-anchor="start" x="8" y="-106.5" font-family="Helvetica,sans-Serif" font-size="10.00" fill="#000000">carla::client::detail</text>
<text text-anchor="middle" x="57.5" y="-95.5" font-family="Helvetica,sans-Serif" font-size="10.00" fill="#000000">::Client::GetTimeout</text>
</g>
<!-- Node154 -->
<g id="node2" class="node">
<title>Node154</title>
<g id="a_node2"><a xlink:href="../../df/df3/classcarla_1_1client_1_1detail_1_1Simulator.html#af6e35986ac6ca31bfa0f99df4be2b8d3" target="_top" xlink:title="carla::client::detail\l::Simulator::GetCurrentEpisode">
<polygon fill="#ffffff" stroke="#000000" points="162.5,-88.5 162.5,-118.5 329.5,-118.5 329.5,-88.5 162.5,-88.5"/>
<text text-anchor="start" x="170.5" y="-106.5" font-family="Helvetica,sans-Serif" font-size="10.00" fill="#000000">carla::client::detail</text>
<text text-anchor="middle" x="246" y="-95.5" font-family="Helvetica,sans-Serif" font-size="10.00" fill="#000000">::Simulator::GetCurrentEpisode</text>
</a>
</g>
</g>
<!-- Node153&#45;&gt;Node154 -->
<g id="edge1" class="edge">
<title>Node153&#45;&gt;Node154</title>
<path fill="none" stroke="#191970" d="M125.4384,-103.5C137.4308,-103.5 150.0411,-103.5 162.4036,-103.5"/>
<polygon fill="#191970" stroke="#191970" points="125.0805,-100.0001 115.0805,-103.5 125.0804,-107.0001 125.0805,-100.0001"/>
</g>
<!-- Node155 -->
<g id="node3" class="node">
<title>Node155</title>
<g id="a_node3"><a xlink:href="../../df/df3/classcarla_1_1client_1_1detail_1_1Simulator.html#aae535158608ae86be295af28c4d38a15" target="_top" xlink:title="carla::client::detail\l::Simulator::LoadEpisode">
<polygon fill="#ffffff" stroke="#000000" points="396.5,-137.5 396.5,-167.5 533.5,-167.5 533.5,-137.5 396.5,-137.5"/>
<text text-anchor="start" x="404.5" y="-155.5" font-family="Helvetica,sans-Serif" font-size="10.00" fill="#000000">carla::client::detail</text>
<text text-anchor="middle" x="465" y="-144.5" font-family="Helvetica,sans-Serif" font-size="10.00" fill="#000000">::Simulator::LoadEpisode</text>
</a>
</g>
</g>
<!-- Node153&#45;&gt;Node155 -->
<g id="edge13" class="edge">
<title>Node153&#45;&gt;Node155</title>
<path fill="none" stroke="#191970" d="M116.8467,-121.1302C128.1078,-123.9727 139.8542,-126.6008 151,-128.5 234.6736,-142.7578 332.3419,-148.549 396.2578,-150.8991"/>
<polygon fill="#191970" stroke="#191970" points="117.6623,-117.726 107.1028,-118.59 115.8964,-124.4996 117.6623,-117.726"/>
</g>
<!-- Node163 -->
<g id="node11" class="node">
<title>Node163</title>
<g id="a_node11"><a xlink:href="../../df/df3/classcarla_1_1client_1_1detail_1_1Simulator.html#a242bb08c04cc7064140069721f900d38" target="_top" xlink:title="carla::client::detail\l::Simulator::GetNetworkingTimeout">
<polygon fill="#ffffff" stroke="#000000" points="151,-39.5 151,-69.5 341,-69.5 341,-39.5 151,-39.5"/>
<text text-anchor="start" x="159" y="-57.5" font-family="Helvetica,sans-Serif" font-size="10.00" fill="#000000">carla::client::detail</text>
<text text-anchor="middle" x="246" y="-46.5" font-family="Helvetica,sans-Serif" font-size="10.00" fill="#000000">::Simulator::GetNetworkingTimeout</text>
</a>
</g>
</g>
<!-- Node153&#45;&gt;Node163 -->
<g id="edge12" class="edge">
<title>Node153&#45;&gt;Node163</title>
<path fill="none" stroke="#191970" d="M124.7623,-86.0154C145.4787,-80.6302 168.0948,-74.7512 188.1226,-69.5451"/>
<polygon fill="#191970" stroke="#191970" points="123.8782,-82.6288 115.0805,-88.5321 125.6394,-89.4036 123.8782,-82.6288"/>
</g>
<!-- Node154&#45;&gt;Node155 -->
<g id="edge2" class="edge">
<title>Node154&#45;&gt;Node155</title>
<path fill="none" stroke="#191970" d="M323.1332,-120.7581C347.5354,-126.218 374.2938,-132.205 397.9315,-137.4938"/>
<polygon fill="#191970" stroke="#191970" points="323.7185,-117.3026 313.1955,-118.5346 322.19,-124.1337 323.7185,-117.3026"/>
</g>
<!-- Node158 -->
<g id="node6" class="node">
<title>Node158</title>
<g id="a_node6"><a xlink:href="../../df/df3/classcarla_1_1client_1_1detail_1_1Simulator.html#a594f70df9844d547a3812d88aa4988c8" target="_top" xlink:title="Spawns an actor into the simulation. ">
<polygon fill="#ffffff" stroke="#000000" points="398,-88.5 398,-118.5 532,-118.5 532,-88.5 398,-88.5"/>
<text text-anchor="start" x="406" y="-106.5" font-family="Helvetica,sans-Serif" font-size="10.00" fill="#000000">carla::client::detail</text>
<text text-anchor="middle" x="465" y="-95.5" font-family="Helvetica,sans-Serif" font-size="10.00" fill="#000000">::Simulator::SpawnActor</text>
</a>
</g>
</g>
<!-- Node154&#45;&gt;Node158 -->
<g id="edge6" class="edge">
<title>Node154&#45;&gt;Node158</title>
<path fill="none" stroke="#191970" d="M339.8762,-103.5C359.4189,-103.5 379.6395,-103.5 397.9787,-103.5"/>
<polygon fill="#191970" stroke="#191970" points="339.732,-100.0001 329.7319,-103.5 339.7319,-107.0001 339.732,-100.0001"/>
</g>
<!-- Node159 -->
<g id="node7" class="node">
<title>Node159</title>
<g id="a_node7"><a xlink:href="../../df/df3/classcarla_1_1client_1_1detail_1_1Simulator.html#a34a1a9a4da90d7fb8be630dd6be2365c" target="_top" xlink:title="Creates an actor instance out of a description of an existing actor. ">
<polygon fill="#ffffff" stroke="#000000" points="619.5,-67.5 619.5,-97.5 747.5,-97.5 747.5,-67.5 619.5,-67.5"/>
<text text-anchor="start" x="627.5" y="-85.5" font-family="Helvetica,sans-Serif" font-size="10.00" fill="#000000">carla::client::detail</text>
<text text-anchor="middle" x="683.5" y="-74.5" font-family="Helvetica,sans-Serif" font-size="10.00" fill="#000000">::Simulator::MakeActor</text>
</a>
</g>
</g>
<!-- Node154&#45;&gt;Node159 -->
<g id="edge11" class="edge">
<title>Node154&#45;&gt;Node159</title>
<path fill="none" stroke="#191970" d="M324.6664,-86.7016C341.8351,-83.7051 359.9647,-81.0476 377,-79.5 460.4689,-71.9171 557.2462,-74.8003 619.3623,-78.1416"/>
<polygon fill="#191970" stroke="#191970" points="323.9056,-83.2823 314.6843,-88.4993 325.1463,-90.1714 323.9056,-83.2823"/>
</g>
<!-- Node162 -->
<g id="node10" class="node">
<title>Node162</title>
<g id="a_node10"><a xlink:href="../../df/df3/classcarla_1_1client_1_1detail_1_1Simulator.html#ac043311176629fbaef63014c752ee0a4" target="_top" xlink:title="carla::client::detail\l::Simulator::GetCurrentEpisodeId">
<polygon fill="#ffffff" stroke="#000000" points="377,-.5 377,-30.5 553,-30.5 553,-.5 377,-.5"/>
<text text-anchor="start" x="385" y="-18.5" font-family="Helvetica,sans-Serif" font-size="10.00" fill="#000000">carla::client::detail</text>
<text text-anchor="middle" x="465" y="-7.5" font-family="Helvetica,sans-Serif" font-size="10.00" fill="#000000">::Simulator::GetCurrentEpisodeId</text>
</a>
</g>
</g>
<!-- Node154&#45;&gt;Node162 -->
<g id="edge10" class="edge">
<title>Node154&#45;&gt;Node162</title>
<path fill="none" stroke="#191970" d="M330.3292,-84.7197C334,-83.1169 337.5751,-81.3806 341,-79.5 360.291,-68.9075 358.1542,-56.8658 377,-45.5 386.8136,-39.5814 397.9527,-34.6382 408.9271,-30.5846"/>
<polygon fill="#191970" stroke="#191970" points="329.0243,-81.472 321.0388,-88.435 331.6235,-87.9716 329.0243,-81.472"/>
</g>
<!-- Node156 -->
<g id="node4" class="node">
<title>Node156</title>
<g id="a_node4"><a xlink:href="../../df/df3/classcarla_1_1client_1_1detail_1_1Simulator.html#ad4f5e3723600eb2d33fa8429d2683ef7" target="_top" xlink:title="carla::client::detail\l::Simulator::LoadOpenDriveEpisode">
<polygon fill="#ffffff" stroke="#000000" points="589,-157.5 589,-187.5 778,-187.5 778,-157.5 589,-157.5"/>
<text text-anchor="start" x="597" y="-175.5" font-family="Helvetica,sans-Serif" font-size="10.00" fill="#000000">carla::client::detail</text>
<text text-anchor="middle" x="683.5" y="-164.5" font-family="Helvetica,sans-Serif" font-size="10.00" fill="#000000">::Simulator::LoadOpenDriveEpisode</text>
</a>
</g>
</g>
<!-- Node155&#45;&gt;Node156 -->
<g id="edge3" class="edge">
<title>Node155&#45;&gt;Node156</title>
<path fill="none" stroke="#191970" d="M543.5486,-159.6898C558.2188,-161.0326 573.6928,-162.449 588.7897,-163.8309"/>
<polygon fill="#191970" stroke="#191970" points="543.8127,-156.1994 533.5353,-158.7733 543.1746,-163.1703 543.8127,-156.1994"/>
</g>
<!-- Node157 -->
<g id="node5" class="node">
<title>Node157</title>
<g id="a_node5"><a xlink:href="../../df/df3/classcarla_1_1client_1_1detail_1_1Simulator.html#ae2681a54d9e423c9b7f8d363abd13045" target="_top" xlink:title="carla::client::detail\l::Simulator::ReloadEpisode">
<polygon fill="#ffffff" stroke="#000000" points="814,-135.5 814,-165.5 961,-165.5 961,-135.5 814,-135.5"/>
<text text-anchor="start" x="822" y="-153.5" font-family="Helvetica,sans-Serif" font-size="10.00" fill="#000000">carla::client::detail</text>
<text text-anchor="middle" x="887.5" y="-142.5" font-family="Helvetica,sans-Serif" font-size="10.00" fill="#000000">::Simulator::ReloadEpisode</text>
</a>
</g>
</g>
<!-- Node155&#45;&gt;Node157 -->
<g id="edge5" class="edge">
<title>Node155&#45;&gt;Node157</title>
<path fill="none" stroke="#191970" d="M543.8107,-149.5757C558.8135,-149.1273 574.3891,-148.7356 589,-148.5 672.9891,-147.1457 694.0035,-147.733 778,-148.5 789.5978,-148.6059 801.8857,-148.7749 813.8764,-148.9709"/>
<polygon fill="#191970" stroke="#191970" points="543.4214,-146.086 533.5346,-149.894 543.6382,-153.0826 543.4214,-146.086"/>
</g>
<!-- Node156&#45;&gt;Node157 -->
<g id="edge4" class="edge">
<title>Node156&#45;&gt;Node157</title>
<path fill="none" stroke="#191970" d="M788.1662,-161.2125C796.7989,-160.2815 805.4062,-159.3533 813.7404,-158.4545"/>
<polygon fill="#191970" stroke="#191970" points="787.6023,-157.7529 778.0352,-162.305 788.3529,-164.7125 787.6023,-157.7529"/>
</g>
<!-- Node158&#45;&gt;Node159 -->
<g id="edge7" class="edge">
<title>Node158&#45;&gt;Node159</title>
<path fill="none" stroke="#191970" d="M542.2864,-96.072C567.451,-93.6534 595.0966,-90.9964 619.2046,-88.6794"/>
<polygon fill="#191970" stroke="#191970" points="541.6614,-92.6159 532.0421,-97.0566 542.3311,-99.5838 541.6614,-92.6159"/>
</g>
<!-- Node160 -->
<g id="node8" class="node">
<title>Node160</title>
<g id="a_node8"><a xlink:href="../../df/df3/classcarla_1_1client_1_1detail_1_1Simulator.html#a961f59d6b4998debd50c4d5aa931806c" target="_top" xlink:title="carla::client::detail\l::Simulator::GetSpectator">
<polygon fill="#ffffff" stroke="#000000" points="817.5,-67.5 817.5,-97.5 957.5,-97.5 957.5,-67.5 817.5,-67.5"/>
<text text-anchor="start" x="825.5" y="-85.5" font-family="Helvetica,sans-Serif" font-size="10.00" fill="#000000">carla::client::detail</text>
<text text-anchor="middle" x="887.5" y="-74.5" font-family="Helvetica,sans-Serif" font-size="10.00" fill="#000000">::Simulator::GetSpectator</text>
</a>
</g>
</g>
<!-- Node159&#45;&gt;Node160 -->
<g id="edge8" class="edge">
<title>Node159&#45;&gt;Node160</title>
<path fill="none" stroke="#191970" d="M758.0283,-82.5C777.3487,-82.5 798.0899,-82.5 817.186,-82.5"/>
<polygon fill="#191970" stroke="#191970" points="757.7669,-79.0001 747.7669,-82.5 757.7668,-86.0001 757.7669,-79.0001"/>
</g>
<!-- Node161 -->
<g id="node9" class="node">
<title>Node161</title>
<g id="a_node9"><a xlink:href="../../df/df3/classcarla_1_1client_1_1detail_1_1Simulator.html#a13475b151d85c3b83245f47a2b6c13fa" target="_top" xlink:title="carla::client::detail\l::Simulator::AddPendingException">
<polygon fill="#ffffff" stroke="#000000" points="997,-67.5 997,-97.5 1179,-97.5 1179,-67.5 997,-67.5"/>
<text text-anchor="start" x="1005" y="-85.5" font-family="Helvetica,sans-Serif" font-size="10.00" fill="#000000">carla::client::detail</text>
<text text-anchor="middle" x="1088" y="-74.5" font-family="Helvetica,sans-Serif" font-size="10.00" fill="#000000">::Simulator::AddPendingException</text>
</a>
</g>
</g>
<!-- Node160&#45;&gt;Node161 -->
<g id="edge9" class="edge">
<title>Node160&#45;&gt;Node161</title>
<path fill="none" stroke="#191970" d="M967.836,-82.5C977.352,-82.5 987.1175,-82.5 996.7705,-82.5"/>
<polygon fill="#191970" stroke="#191970" points="967.6252,-79.0001 957.6252,-82.5 967.6251,-86.0001 967.6252,-79.0001"/>
</g>
</g>
</svg>
        <g id="navigator" transform="translate(0 0)" fill="#404254">
                <rect fill="#f2f5e9" fill-opacity="0.5" stroke="#606060" stroke-width=".5" x="0" y="0" width="60" height="60"/>
                <use id="zoomplus" xlink:href="#zoomPlus" x="17" y="9" onmousedown="handleZoom(evt,'in')"/>
                <use id="zoomminus" xlink:href="#zoomMin" x="42" y="9" onmousedown="handleZoom(evt,'out')"/>
                <use id="reset" xlink:href="#resetDef" x="30" y="36" onmousedown="handleReset()"/>
                <g id="arrowUp" xlink:href="#dirArrow" transform="translate(30 24)" onmousedown="handlePan(0,-1)">
                  <use xlink:href="#rim" fill="#404040">
                        <set attributeName="fill" to="#808080" begin="arrowUp.mouseover" end="arrowUp.mouseout"/>
                  </use>
                  <path fill="none" stroke="white" stroke-width="1.5" d="M0,-3.0v7 M-2.5,-0.5L0,-3.0L2.5,-0.5"/>
                </g>
                <g id="arrowRight" xlink:href="#dirArrow" transform="rotate(90) translate(36 -43)" onmousedown="handlePan(1,0)">
                  <use xlink:href="#rim" fill="#404040">
                        <set attributeName="fill" to="#808080" begin="arrowRight.mouseover" end="arrowRight.mouseout"/>
                  </use>
                  <path fill="none" stroke="white" stroke-width="1.5" d="M0,-3.0v7 M-2.5,-0.5L0,-3.0L2.5,-0.5"/>
                </g>
                <g id="arrowDown" xlink:href="#dirArrow" transform="rotate(180) translate(-30 -48)" onmousedown="handlePan(0,1)">
                  <use xlink:href="#rim" fill="#404040">
                        <set attributeName="fill" to="#808080" begin="arrowDown.mouseover" end="arrowDown.mouseout"/>
                  </use>
                  <path fill="none" stroke="white" stroke-width="1.5" d="M0,-3.0v7 M-2.5,-0.5L0,-3.0L2.5,-0.5"/>
                </g>
                <g id="arrowLeft" xlink:href="#dirArrow" transform="rotate(270) translate(-36 17)" onmousedown="handlePan(-1,0)">
                  <use xlink:href="#rim" fill="#404040">
                        <set attributeName="fill" to="#808080" begin="arrowLeft.mouseover" end="arrowLeft.mouseout"/>
                  </use>
                  <path fill="none" stroke="white" stroke-width="1.5" d="M0,-3.0v7 M-2.5,-0.5L0,-3.0L2.5,-0.5"/>
                </g>
        </g>
        <svg viewBox="0 0 15 15" width="100%" height="30px" preserveAspectRatio="xMaxYMin meet">
         <g id="arrow_out" transform="scale(0.3 0.3)">
          <a xlink:href="classcarla_1_1client_1_1detail_1_1Client_af34fe04817ab044b2326c18dee2ee8fd_icgraph_org.svg" target="_base">
           <rect id="button" ry="5" rx="5" y="6" x="6" height="38" width="38"
                fill="#f2f5e9" fill-opacity="0.5" stroke="#606060" stroke-width="1.0"/>
           <path id="arrow"
             d="M 11.500037,31.436501 C 11.940474,20.09759 22.043105,11.32322 32.158766,21.979434 L 37.068811,17.246167 C 37.068811,17.246167 37.088388,32 37.088388,32 L 22.160133,31.978069 C 22.160133,31.978069 26.997745,27.140456 26.997745,27.140456 C 18.528582,18.264221 13.291696,25.230495 11.500037,31.436501 z"
             style="fill:#404040;"/>
          </a>
         </g>
        </svg>
</svg>
