<?xml version="1.0" encoding="UTF-8" standalone="no"?>
<!DOCTYPE svg PUBLIC "-//W3C//DTD SVG 1.1//EN"
 "http://www.w3.org/Graphics/SVG/1.1/DTD/svg11.dtd">
<!-- Generated by graphviz version 2.40.1 (20161225.0304)
 -->
<!-- Title: carla::client::detail::Client::ApplyColorTextureToObjects Pages: 1 -->
<svg width="566pt" height="50pt"
 viewBox="0.00 0.00 566.00 50.00" xmlns="http://www.w3.org/2000/svg" xmlns:xlink="http://www.w3.org/1999/xlink">
<g id="graph0" class="graph" transform="scale(1 1) rotate(0) translate(4 46)">
<title>carla::client::detail::Client::ApplyColorTextureToObjects</title>
<polygon fill="#ffffff" stroke="transparent" points="-4,4 -4,-46 562,-46 562,4 -4,4"/>
<!-- Node40 -->
<g id="node1" class="node">
<title>Node40</title>
<polygon fill="#bfbfbf" stroke="#000000" points="0,-.5 0,-41.5 146,-41.5 146,-.5 0,-.5"/>
<text text-anchor="start" x="8" y="-29.5" font-family="Helvetica,sans-Serif" font-size="10.00" fill="#000000">carla::client::detail</text>
<text text-anchor="start" x="8" y="-18.5" font-family="Helvetica,sans-Serif" font-size="10.00" fill="#000000">::Client::ApplyColorTexture</text>
<text text-anchor="middle" x="73" y="-7.5" font-family="Helvetica,sans-Serif" font-size="10.00" fill="#000000">ToObjects</text>
</g>
<!-- Node41 -->
<g id="node2" class="node">
<title>Node41</title>
<g id="a_node2"><a xlink:href="../../df/df3/classcarla_1_1client_1_1detail_1_1Simulator.html#a8d6707252b3f9cfa6b4d2667943a3899" target="_top" xlink:title="– Texture updating operations ">
<polygon fill="#ffffff" stroke="#000000" points="182,-.5 182,-41.5 347,-41.5 347,-.5 182,-.5"/>
<text text-anchor="start" x="190" y="-29.5" font-family="Helvetica,sans-Serif" font-size="10.00" fill="#000000">carla::client::detail</text>
<text text-anchor="start" x="190" y="-18.5" font-family="Helvetica,sans-Serif" font-size="10.00" fill="#000000">::Simulator::ApplyColorTexture</text>
<text text-anchor="middle" x="264.5" y="-7.5" font-family="Helvetica,sans-Serif" font-size="10.00" fill="#000000">ToObjects</text>
</a>
</g>
</g>
<!-- Node40&#45;&gt;Node41 -->
<g id="edge1" class="edge">
<title>Node40&#45;&gt;Node41</title>
<path fill="none" stroke="#191970" d="M156.3895,-21C164.7958,-21 173.3313,-21 181.731,-21"/>
<polygon fill="#191970" stroke="#191970" points="156.2177,-17.5001 146.2176,-21 156.2176,-24.5001 156.2177,-17.5001"/>
</g>
<!-- Node42 -->
<g id="node3" class="node">
<title>Node42</title>
<g id="a_node3"><a xlink:href="../../df/df3/classcarla_1_1client_1_1detail_1_1Simulator.html#ab71097ca4779baa2a8d20c93792d4330" target="_top" xlink:title="carla::client::detail\l::Simulator::RemoveLightUpdate\lChangeEvent">
<polygon fill="#ffffff" stroke="#000000" points="383,-.5 383,-41.5 558,-41.5 558,-.5 383,-.5"/>
<text text-anchor="start" x="391" y="-29.5" font-family="Helvetica,sans-Serif" font-size="10.00" fill="#000000">carla::client::detail</text>
<text text-anchor="start" x="391" y="-18.5" font-family="Helvetica,sans-Serif" font-size="10.00" fill="#000000">::Simulator::RemoveLightUpdate</text>
<text text-anchor="middle" x="470.5" y="-7.5" font-family="Helvetica,sans-Serif" font-size="10.00" fill="#000000">ChangeEvent</text>
</a>
</g>
</g>
<!-- Node41&#45;&gt;Node42 -->
<g id="edge2" class="edge">
<title>Node41&#45;&gt;Node42</title>
<path fill="none" stroke="#191970" d="M357.3703,-21C365.8394,-21 374.4008,-21 382.8224,-21"/>
<polygon fill="#191970" stroke="#191970" points="357.1012,-17.5001 347.1011,-21 357.1011,-24.5001 357.1012,-17.5001"/>
</g>
</g>
</svg>
