<?xml version="1.0" encoding="UTF-8" standalone="no"?>
<!DOCTYPE svg PUBLIC "-//W3C//DTD SVG 1.1//EN"
 "http://www.w3.org/Graphics/SVG/1.1/DTD/svg11.dtd">
<!-- Generated by graphviz version 2.38.0 (20140413.2041)
 -->
<!-- Title: carla::client::detail::Client::GetClientVersion Pages: 1 -->
<!--zoomable 196 -->
<svg id="main" version="1.1" xmlns="http://www.w3.org/2000/svg" xmlns:xlink="http://www.w3.org/1999/xlink" xml:space="preserve" onload="init(evt)">
<style type="text/css"><![CDATA[
.edge:hover path { stroke: red; }
.edge:hover polygon { stroke: red; fill: red; }
]]></style>
<script type="text/javascript"><![CDATA[
var edges = document.getElementsByTagName('g');
if (edges && edges.length) {
  for (var i=0;i<edges.length;i++) {
    if (edges[i].id.substr(0,4)=='edge') {
      edges[i].setAttribute('class','edge');
    }
  }
}
]]></script>
        <defs>
                <circle id="rim" cx="0" cy="0" r="7"/>
                <circle id="rim2" cx="0" cy="0" r="3.5"/>
                <g id="zoomPlus">
                        <use xlink:href="#rim" fill="#404040">
                                <set attributeName="fill" to="#808080" begin="zoomplus.mouseover" end="zoomplus.mouseout"/>
                        </use>
                        <path d="M-4,0h8M0,-4v8" fill="none" stroke="white" stroke-width="1.5" pointer-events="none"/>
                </g>
                <g id="zoomMin">
                        <use xlink:href="#rim" fill="#404040">
                                <set attributeName="fill" to="#808080" begin="zoomminus.mouseover" end="zoomminus.mouseout"/>
                        </use>
                        <path d="M-4,0h8" fill="none" stroke="white" stroke-width="1.5" pointer-events="none"/>
                </g>
                <g id="dirArrow">
                        <path fill="none" stroke="white" stroke-width="1.5" d="M0,-3.0v7 M-2.5,-0.5L0,-3.0L2.5,-0.5"/>
                </g>
               <g id="resetDef">
                       <use xlink:href="#rim2" fill="#404040">
                               <set attributeName="fill" to="#808080" begin="reset.mouseover" end="reset.mouseout"/>
                       </use>
               </g>
        </defs>

<script type="text/javascript">
var viewWidth = 1363;
var viewHeight = 196;
var sectionId = 'dynsection-23';
</script>
<script xlink:href="../../svgpan.js"/>
<svg id="graph" class="graph">
<g id="viewport">
<title>carla::client::detail::Client::GetClientVersion</title>
<polygon fill="white" stroke="none" points="-4,4 -4,-192 1359,-192 1359,4 -4,4"/>
<!-- Node1 -->
<g id="node1" class="node"><title>Node1</title>
<polygon fill="#bfbfbf" stroke="black" points="0,-90.5 0,-120.5 135,-120.5 135,-90.5 0,-90.5"/>
<text text-anchor="start" x="8" y="-108.5" font-family="Helvetica,sans-Serif" font-size="10.00">carla::client::detail</text>
<text text-anchor="middle" x="67.5" y="-97.5" font-family="Helvetica,sans-Serif" font-size="10.00">::Client::GetClientVersion</text>
</g>
<!-- Node2 -->
<g id="node2" class="node"><title>Node2</title>
<g id="a_node2"><a xlink:href="../../df/df3/classcarla_1_1client_1_1detail_1_1Simulator.html#a1c625ba6391e695efd2a3ff9f462fcd6" target="_top" xlink:title="carla::client::detail\l::Simulator::GetClientVersion">
<polygon fill="white" stroke="black" points="171,-115.5 171,-145.5 326,-145.5 326,-115.5 171,-115.5"/>
<text text-anchor="start" x="179" y="-133.5" font-family="Helvetica,sans-Serif" font-size="10.00">carla::client::detail</text>
<text text-anchor="middle" x="248.5" y="-122.5" font-family="Helvetica,sans-Serif" font-size="10.00">::Simulator::GetClientVersion</text>
</a>
</g>
</g>
<!-- Node1&#45;&gt;Node2 -->
<g id="edge1" class="edge"><title>Node1&#45;&gt;Node2</title>
<path fill="none" stroke="midnightblue" d="M145.077,-116.195C153.61,-117.387 162.303,-118.601 170.837,-119.793"/>
<polygon fill="midnightblue" stroke="midnightblue" points="145.541,-112.726 135.153,-114.809 144.573,-119.659 145.541,-112.726"/>
</g>
<!-- Node3 -->
<g id="node3" class="node"><title>Node3</title>
<g id="a_node3"><a xlink:href="../../d8/dcd/namespacecarla_1_1client_1_1detail.html#a097188ada46523ae4f48d6e1b2add828" target="_top" xlink:title="carla::client::detail\l::ValidateVersions">
<polygon fill="white" stroke="black" points="196.5,-66.5 196.5,-96.5 300.5,-96.5 300.5,-66.5 196.5,-66.5"/>
<text text-anchor="start" x="204.5" y="-84.5" font-family="Helvetica,sans-Serif" font-size="10.00">carla::client::detail</text>
<text text-anchor="middle" x="248.5" y="-73.5" font-family="Helvetica,sans-Serif" font-size="10.00">::ValidateVersions</text>
</a>
</g>
</g>
<!-- Node1&#45;&gt;Node3 -->
<g id="edge2" class="edge"><title>Node1&#45;&gt;Node3</title>
<path fill="none" stroke="midnightblue" d="M145.249,-95.2097C162.557,-92.8891 180.514,-90.4813 196.46,-88.3433"/>
<polygon fill="midnightblue" stroke="midnightblue" points="144.599,-91.7654 135.153,-96.5633 145.529,-98.7033 144.599,-91.7654"/>
</g>
<!-- Node4 -->
<g id="node4" class="node"><title>Node4</title>
<g id="a_node4"><a xlink:href="../../df/df3/classcarla_1_1client_1_1detail_1_1Simulator.html#af6e35986ac6ca31bfa0f99df4be2b8d3" target="_top" xlink:title="carla::client::detail\l::Simulator::GetCurrentEpisode">
<polygon fill="white" stroke="black" points="362,-66.5 362,-96.5 528,-96.5 528,-66.5 362,-66.5"/>
<text text-anchor="start" x="370" y="-84.5" font-family="Helvetica,sans-Serif" font-size="10.00">carla::client::detail</text>
<text text-anchor="middle" x="445" y="-73.5" font-family="Helvetica,sans-Serif" font-size="10.00">::Simulator::GetCurrentEpisode</text>
</a>
</g>
</g>
<!-- Node3&#45;&gt;Node4 -->
<g id="edge3" class="edge"><title>Node3&#45;&gt;Node4</title>
<path fill="none" stroke="midnightblue" d="M310.938,-81.5C327.034,-81.5 344.651,-81.5 361.647,-81.5"/>
<polygon fill="midnightblue" stroke="midnightblue" points="310.603,-78.0001 300.603,-81.5 310.603,-85.0001 310.603,-78.0001"/>
</g>
<!-- Node5 -->
<g id="node5" class="node"><title>Node5</title>
<g id="a_node5"><a xlink:href="../../df/df3/classcarla_1_1client_1_1detail_1_1Simulator.html#aae535158608ae86be295af28c4d38a15" target="_top" xlink:title="carla::client::detail\l::Simulator::LoadEpisode">
<polygon fill="white" stroke="black" points="583,-137.5 583,-167.5 719,-167.5 719,-137.5 583,-137.5"/>
<text text-anchor="start" x="591" y="-155.5" font-family="Helvetica,sans-Serif" font-size="10.00">carla::client::detail</text>
<text text-anchor="middle" x="651" y="-144.5" font-family="Helvetica,sans-Serif" font-size="10.00">::Simulator::LoadEpisode</text>
</a>
</g>
</g>
<!-- Node4&#45;&gt;Node5 -->
<g id="edge4" class="edge"><title>Node4&#45;&gt;Node5</title>
<path fill="none" stroke="midnightblue" d="M491.44,-100.302C513.223,-109.035 539.788,-119.28 564,-127.5 574.159,-130.949 585.089,-134.355 595.637,-137.491"/>
<polygon fill="midnightblue" stroke="midnightblue" points="492.689,-97.0324 482.106,-96.536 490.07,-103.524 492.689,-97.0324"/>
</g>
<!-- Node8 -->
<g id="node8" class="node"><title>Node8</title>
<g id="a_node8"><a xlink:href="../../df/df3/classcarla_1_1client_1_1detail_1_1Simulator.html#a594f70df9844d547a3812d88aa4988c8" target="_top" xlink:title="Spawns an actor into the simulation. ">
<polygon fill="white" stroke="black" points="585,-88.5 585,-118.5 717,-118.5 717,-88.5 585,-88.5"/>
<text text-anchor="start" x="593" y="-106.5" font-family="Helvetica,sans-Serif" font-size="10.00">carla::client::detail</text>
<text text-anchor="middle" x="651" y="-95.5" font-family="Helvetica,sans-Serif" font-size="10.00">::Simulator::SpawnActor</text>
</a>
</g>
</g>
<!-- Node4&#45;&gt;Node8 -->
<g id="edge8" class="edge"><title>Node4&#45;&gt;Node8</title>
<path fill="none" stroke="midnightblue" d="M538.375,-91.462C554.113,-93.1593 570.16,-94.8898 584.998,-96.49"/>
<polygon fill="midnightblue" stroke="midnightblue" points="538.41,-87.9456 528.093,-90.3531 537.66,-94.9053 538.41,-87.9456"/>
</g>
<!-- Node9 -->
<g id="node9" class="node"><title>Node9</title>
<g id="a_node9"><a xlink:href="../../df/df3/classcarla_1_1client_1_1detail_1_1Simulator.html#a34a1a9a4da90d7fb8be630dd6be2365c" target="_top" xlink:title="Creates an actor instance out of a description of an existing actor. ">
<polygon fill="white" stroke="black" points="804,-67.5 804,-97.5 930,-97.5 930,-67.5 804,-67.5"/>
<text text-anchor="start" x="812" y="-85.5" font-family="Helvetica,sans-Serif" font-size="10.00">carla::client::detail</text>
<text text-anchor="middle" x="867" y="-74.5" font-family="Helvetica,sans-Serif" font-size="10.00">::Simulator::MakeActor</text>
</a>
</g>
</g>
<!-- Node4&#45;&gt;Node9 -->
<g id="edge13" class="edge"><title>Node4&#45;&gt;Node9</title>
<path fill="none" stroke="midnightblue" d="M538.362,-78.9271C547.028,-78.7535 555.679,-78.6058 564,-78.5 641.327,-77.5172 660.676,-77.2921 738,-78.5 759.452,-78.8351 782.92,-79.486 803.834,-80.1669"/>
<polygon fill="midnightblue" stroke="midnightblue" points="538.124,-75.4313 528.201,-79.142 538.272,-82.4297 538.124,-75.4313"/>
</g>
<!-- Node12 -->
<g id="node12" class="node"><title>Node12</title>
<g id="a_node12"><a xlink:href="../../df/df3/classcarla_1_1client_1_1detail_1_1Simulator.html#abd664f7baab3482a5da3caf8c6496dfe" target="_top" xlink:title="carla::client::detail\l::Simulator::GetCurrentEpisodeId">
<polygon fill="white" stroke="black" points="564,-0.5 564,-30.5 738,-30.5 738,-0.5 564,-0.5"/>
<text text-anchor="start" x="572" y="-18.5" font-family="Helvetica,sans-Serif" font-size="10.00">carla::client::detail</text>
<text text-anchor="middle" x="651" y="-7.5" font-family="Helvetica,sans-Serif" font-size="10.00">::Simulator::GetCurrentEpisodeId</text>
</a>
</g>
</g>
<!-- Node4&#45;&gt;Node12 -->
<g id="edge12" class="edge"><title>Node4&#45;&gt;Node12</title>
<path fill="none" stroke="midnightblue" d="M502.151,-63.3337C533.934,-53.0508 573.217,-40.3415 603.301,-30.6084"/>
<polygon fill="midnightblue" stroke="midnightblue" points="500.983,-60.0327 492.546,-66.441 503.138,-66.6928 500.983,-60.0327"/>
</g>
<!-- Node6 -->
<g id="node6" class="node"><title>Node6</title>
<g id="a_node6"><a xlink:href="../../df/df3/classcarla_1_1client_1_1detail_1_1Simulator.html#ad4f5e3723600eb2d33fa8429d2683ef7" target="_top" xlink:title="carla::client::detail\l::Simulator::LoadOpenDriveEpisode">
<polygon fill="white" stroke="black" points="774,-157.5 774,-187.5 960,-187.5 960,-157.5 774,-157.5"/>
<text text-anchor="start" x="782" y="-175.5" font-family="Helvetica,sans-Serif" font-size="10.00">carla::client::detail</text>
<text text-anchor="middle" x="867" y="-164.5" font-family="Helvetica,sans-Serif" font-size="10.00">::Simulator::LoadOpenDriveEpisode</text>
</a>
</g>
</g>
<!-- Node5&#45;&gt;Node6 -->
<g id="edge5" class="edge"><title>Node5&#45;&gt;Node6</title>
<path fill="none" stroke="midnightblue" d="M729.42,-159.735C743.769,-161.077 758.888,-162.49 773.63,-163.867"/>
<polygon fill="midnightblue" stroke="midnightblue" points="729.406,-156.219 719.124,-158.773 728.755,-163.189 729.406,-156.219"/>
</g>
<!-- Node7 -->
<g id="node7" class="node"><title>Node7</title>
<g id="a_node7"><a xlink:href="../../df/df3/classcarla_1_1client_1_1detail_1_1Simulator.html#ae2681a54d9e423c9b7f8d363abd13045" target="_top" xlink:title="carla::client::detail\l::Simulator::ReloadEpisode">
<polygon fill="white" stroke="black" points="996,-136.5 996,-166.5 1140,-166.5 1140,-136.5 996,-136.5"/>
<text text-anchor="start" x="1004" y="-154.5" font-family="Helvetica,sans-Serif" font-size="10.00">carla::client::detail</text>
<text text-anchor="middle" x="1068" y="-143.5" font-family="Helvetica,sans-Serif" font-size="10.00">::Simulator::ReloadEpisode</text>
</a>
</g>
</g>
<!-- Node5&#45;&gt;Node7 -->
<g id="edge7" class="edge"><title>Node5&#45;&gt;Node7</title>
<path fill="none" stroke="midnightblue" d="M729.274,-149.584C744.117,-149.132 759.538,-148.737 774,-148.5 856.656,-147.145 877.341,-147.341 960,-148.5 971.614,-148.663 983.934,-148.925 995.924,-149.228"/>
<polygon fill="midnightblue" stroke="midnightblue" points="728.995,-146.091 719.11,-149.904 729.216,-153.087 728.995,-146.091"/>
</g>
<!-- Node6&#45;&gt;Node7 -->
<g id="edge6" class="edge"><title>Node6&#45;&gt;Node7</title>
<path fill="none" stroke="midnightblue" d="M970.359,-161.698C978.999,-160.787 987.611,-159.878 995.932,-159"/>
<polygon fill="midnightblue" stroke="midnightblue" points="969.796,-158.238 960.218,-162.768 970.53,-165.2 969.796,-158.238"/>
</g>
<!-- Node8&#45;&gt;Node9 -->
<g id="edge9" class="edge"><title>Node8&#45;&gt;Node9</title>
<path fill="none" stroke="midnightblue" d="M727.263,-96.1144C752.292,-93.6583 779.868,-90.9522 803.797,-88.604"/>
<polygon fill="midnightblue" stroke="midnightblue" points="726.689,-92.6538 717.079,-97.1138 727.373,-99.6203 726.689,-92.6538"/>
</g>
<!-- Node10 -->
<g id="node10" class="node"><title>Node10</title>
<g id="a_node10"><a xlink:href="../../df/df3/classcarla_1_1client_1_1detail_1_1Simulator.html#a961f59d6b4998debd50c4d5aa931806c" target="_top" xlink:title="carla::client::detail\l::Simulator::GetSpectator">
<polygon fill="white" stroke="black" points="998,-67.5 998,-97.5 1138,-97.5 1138,-67.5 998,-67.5"/>
<text text-anchor="start" x="1006" y="-85.5" font-family="Helvetica,sans-Serif" font-size="10.00">carla::client::detail</text>
<text text-anchor="middle" x="1068" y="-74.5" font-family="Helvetica,sans-Serif" font-size="10.00">::Simulator::GetSpectator</text>
</a>
</g>
</g>
<!-- Node9&#45;&gt;Node10 -->
<g id="edge10" class="edge"><title>Node9&#45;&gt;Node10</title>
<path fill="none" stroke="midnightblue" d="M940.376,-82.5C959.079,-82.5 979.166,-82.5 997.707,-82.5"/>
<polygon fill="midnightblue" stroke="midnightblue" points="940.146,-79.0001 930.146,-82.5 940.146,-86.0001 940.146,-79.0001"/>
</g>
<!-- Node11 -->
<g id="node11" class="node"><title>Node11</title>
<g id="a_node11"><a xlink:href="../../df/df3/classcarla_1_1client_1_1detail_1_1Simulator.html#a13475b151d85c3b83245f47a2b6c13fa" target="_top" xlink:title="carla::client::detail\l::Simulator::AddPendingException">
<polygon fill="white" stroke="black" points="1176,-67.5 1176,-97.5 1355,-97.5 1355,-67.5 1176,-67.5"/>
<text text-anchor="start" x="1184" y="-85.5" font-family="Helvetica,sans-Serif" font-size="10.00">carla::client::detail</text>
<text text-anchor="middle" x="1265.5" y="-74.5" font-family="Helvetica,sans-Serif" font-size="10.00">::Simulator::AddPendingException</text>
</a>
</g>
</g>
<!-- Node10&#45;&gt;Node11 -->
<g id="edge11" class="edge"><title>Node10&#45;&gt;Node11</title>
<path fill="none" stroke="midnightblue" d="M1148.33,-82.5C1157.4,-82.5 1166.69,-82.5 1175.87,-82.5"/>
<polygon fill="midnightblue" stroke="midnightblue" points="1148.2,-79.0001 1138.2,-82.5 1148.2,-86.0001 1148.2,-79.0001"/>
</g>
</g>
</svg>
        <g id="navigator" transform="translate(0 0)" fill="#404254">
                <rect fill="#f2f5e9" fill-opacity="0.5" stroke="#606060" stroke-width=".5" x="0" y="0" width="60" height="60"/>
                <use id="zoomplus" xlink:href="#zoomPlus" x="17" y="9" onmousedown="handleZoom(evt,'in')"/>
                <use id="zoomminus" xlink:href="#zoomMin" x="42" y="9" onmousedown="handleZoom(evt,'out')"/>
                <use id="reset" xlink:href="#resetDef" x="30" y="36" onmousedown="handleReset()"/>
                <g id="arrowUp" xlink:href="#dirArrow" transform="translate(30 24)" onmousedown="handlePan(0,-1)">
                  <use xlink:href="#rim" fill="#404040">
                        <set attributeName="fill" to="#808080" begin="arrowUp.mouseover" end="arrowUp.mouseout"/>
                  </use>
                  <path fill="none" stroke="white" stroke-width="1.5" d="M0,-3.0v7 M-2.5,-0.5L0,-3.0L2.5,-0.5"/>
                </g>
                <g id="arrowRight" xlink:href="#dirArrow" transform="rotate(90) translate(36 -43)" onmousedown="handlePan(1,0)">
                  <use xlink:href="#rim" fill="#404040">
                        <set attributeName="fill" to="#808080" begin="arrowRight.mouseover" end="arrowRight.mouseout"/>
                  </use>
                  <path fill="none" stroke="white" stroke-width="1.5" d="M0,-3.0v7 M-2.5,-0.5L0,-3.0L2.5,-0.5"/>
                </g>
                <g id="arrowDown" xlink:href="#dirArrow" transform="rotate(180) translate(-30 -48)" onmousedown="handlePan(0,1)">
                  <use xlink:href="#rim" fill="#404040">
                        <set attributeName="fill" to="#808080" begin="arrowDown.mouseover" end="arrowDown.mouseout"/>
                  </use>
                  <path fill="none" stroke="white" stroke-width="1.5" d="M0,-3.0v7 M-2.5,-0.5L0,-3.0L2.5,-0.5"/>
                </g>
                <g id="arrowLeft" xlink:href="#dirArrow" transform="rotate(270) translate(-36 17)" onmousedown="handlePan(-1,0)">
                  <use xlink:href="#rim" fill="#404040">
                        <set attributeName="fill" to="#808080" begin="arrowLeft.mouseover" end="arrowLeft.mouseout"/>
                  </use>
                  <path fill="none" stroke="white" stroke-width="1.5" d="M0,-3.0v7 M-2.5,-0.5L0,-3.0L2.5,-0.5"/>
                </g>
        </g>
        <svg viewBox="0 0 15 15" width="100%" height="30px" preserveAspectRatio="xMaxYMin meet">
         <g id="arrow_out" transform="scale(0.3 0.3)">
          <a xlink:href="classcarla_1_1client_1_1detail_1_1Client_a083c9ce60bfce3cad7b237e1706abc60_icgraph_org.svg" target="_base">
           <rect id="button" ry="5" rx="5" y="6" x="6" height="38" width="38"
                fill="#f2f5e9" fill-opacity="0.5" stroke="#606060" stroke-width="1.0"/>
           <path id="arrow"
             d="M 11.500037,31.436501 C 11.940474,20.09759 22.043105,11.32322 32.158766,21.979434 L 37.068811,17.246167 C 37.068811,17.246167 37.088388,32 37.088388,32 L 22.160133,31.978069 C 22.160133,31.978069 26.997745,27.140456 26.997745,27.140456 C 18.528582,18.264221 13.291696,25.230495 11.500037,31.436501 z"
             style="fill:#404040;"/>
          </a>
         </g>
        </svg>
</svg>
