<?xml version="1.0" encoding="UTF-8" standalone="no"?>
<!DOCTYPE svg PUBLIC "-//W3C//DTD SVG 1.1//EN"
 "http://www.w3.org/Graphics/SVG/1.1/DTD/svg11.dtd">
<!-- Generated by graphviz version 2.40.1 (20161225.0304)
 -->
<!-- Title: carla::client::detail::Client::GetTimeout Pages: 1 -->
<svg width="774pt" height="112pt"
 viewBox="0.00 0.00 774.00 112.00" xmlns="http://www.w3.org/2000/svg" xmlns:xlink="http://www.w3.org/1999/xlink">
<g id="graph0" class="graph" transform="scale(1 1) rotate(0) translate(4 108)">
<title>carla::client::detail::Client::GetTimeout</title>
<polygon fill="#ffffff" stroke="transparent" points="-4,4 -4,-108 770,-108 770,4 -4,4"/>
<!-- Node245 -->
<g id="node1" class="node">
<title>Node245</title>
<polygon fill="#bfbfbf" stroke="#000000" points="0,-48.5 0,-78.5 115,-78.5 115,-48.5 0,-48.5"/>
<text text-anchor="start" x="8" y="-66.5" font-family="Helvetica,sans-Serif" font-size="10.00" fill="#000000">carla::client::detail</text>
<text text-anchor="middle" x="57.5" y="-55.5" font-family="Helvetica,sans-Serif" font-size="10.00" fill="#000000">::Client::GetTimeout</text>
</g>
<!-- Node246 -->
<g id="node2" class="node">
<title>Node246</title>
<g id="a_node2"><a xlink:href="../../df/df3/classcarla_1_1client_1_1detail_1_1Simulator.html#a242bb08c04cc7064140069721f900d38" target="_top" xlink:title="carla::client::detail\l::Simulator::GetNetworkingTimeout">
<polygon fill="#ffffff" stroke="#000000" points="151,-73.5 151,-103.5 341,-103.5 341,-73.5 151,-73.5"/>
<text text-anchor="start" x="159" y="-91.5" font-family="Helvetica,sans-Serif" font-size="10.00" fill="#000000">carla::client::detail</text>
<text text-anchor="middle" x="246" y="-80.5" font-family="Helvetica,sans-Serif" font-size="10.00" fill="#000000">::Simulator::GetNetworkingTimeout</text>
</a>
</g>
</g>
<!-- Node245&#45;&gt;Node246 -->
<g id="edge1" class="edge">
<title>Node245&#45;&gt;Node246</title>
<path fill="none" stroke="#191970" d="M125.1305,-72.4696C133.5103,-73.5809 142.196,-74.7329 150.8914,-75.8861"/>
<polygon fill="#191970" stroke="#191970" points="125.4539,-68.9819 115.0805,-71.1367 124.5335,-75.9211 125.4539,-68.9819"/>
</g>
<!-- Node247 -->
<g id="node3" class="node">
<title>Node247</title>
<g id="a_node3"><a xlink:href="../../df/df3/classcarla_1_1client_1_1detail_1_1Simulator.html#ab5481628a75cf422d65b88d557fa57ff" target="_top" xlink:title="carla::client::detail\l::Simulator::LoadEpisode">
<polygon fill="#ffffff" stroke="#000000" points="177.5,-24.5 177.5,-54.5 314.5,-54.5 314.5,-24.5 177.5,-24.5"/>
<text text-anchor="start" x="185.5" y="-42.5" font-family="Helvetica,sans-Serif" font-size="10.00" fill="#000000">carla::client::detail</text>
<text text-anchor="middle" x="246" y="-31.5" font-family="Helvetica,sans-Serif" font-size="10.00" fill="#000000">::Simulator::LoadEpisode</text>
</a>
</g>
</g>
<!-- Node245&#45;&gt;Node247 -->
<g id="edge2" class="edge">
<title>Node245&#45;&gt;Node247</title>
<path fill="none" stroke="#191970" d="M125.3858,-54.8567C142.2245,-52.7128 160.2843,-50.4134 177.1679,-48.2638"/>
<polygon fill="#191970" stroke="#191970" points="124.5583,-51.4337 115.0805,-56.1688 125.4425,-58.3777 124.5583,-51.4337"/>
</g>
<!-- Node248 -->
<g id="node4" class="node">
<title>Node248</title>
<g id="a_node4"><a xlink:href="../../df/df3/classcarla_1_1client_1_1detail_1_1Simulator.html#a9c02ba42b0f621acadcedde6cece26f7" target="_top" xlink:title="carla::client::detail\l::Simulator::LoadOpenDriveEpisode">
<polygon fill="#ffffff" stroke="#000000" points="377,-49.5 377,-79.5 566,-79.5 566,-49.5 377,-49.5"/>
<text text-anchor="start" x="385" y="-67.5" font-family="Helvetica,sans-Serif" font-size="10.00" fill="#000000">carla::client::detail</text>
<text text-anchor="middle" x="471.5" y="-56.5" font-family="Helvetica,sans-Serif" font-size="10.00" fill="#000000">::Simulator::LoadOpenDriveEpisode</text>
</a>
</g>
</g>
<!-- Node247&#45;&gt;Node248 -->
<g id="edge3" class="edge">
<title>Node247&#45;&gt;Node248</title>
<path fill="none" stroke="#191970" d="M324.8365,-48.2402C341.5678,-50.0951 359.3976,-52.0718 376.6533,-53.9848"/>
<polygon fill="#191970" stroke="#191970" points="324.9007,-44.7259 314.5759,-47.1026 324.1293,-51.6833 324.9007,-44.7259"/>
</g>
<!-- Node250 -->
<g id="node6" class="node">
<title>Node250</title>
<g id="a_node6"><a xlink:href="../../df/df3/classcarla_1_1client_1_1detail_1_1Simulator.html#a3456d71f81301522bdfb013838bc4589" target="_top" xlink:title="carla::client::detail\l::Simulator::ReloadEpisode">
<polygon fill="#ffffff" stroke="#000000" points="398,-.5 398,-30.5 545,-30.5 545,-.5 398,-.5"/>
<text text-anchor="start" x="406" y="-18.5" font-family="Helvetica,sans-Serif" font-size="10.00" fill="#000000">carla::client::detail</text>
<text text-anchor="middle" x="471.5" y="-7.5" font-family="Helvetica,sans-Serif" font-size="10.00" fill="#000000">::Simulator::ReloadEpisode</text>
</a>
</g>
</g>
<!-- Node247&#45;&gt;Node250 -->
<g id="edge5" class="edge">
<title>Node247&#45;&gt;Node250</title>
<path fill="none" stroke="#191970" d="M324.6045,-31.1341C348.3563,-28.6062 374.3402,-25.8407 397.7622,-23.3479"/>
<polygon fill="#191970" stroke="#191970" points="324.1493,-27.6627 314.5759,-32.2015 324.8902,-34.6234 324.1493,-27.6627"/>
</g>
<!-- Node249 -->
<g id="node5" class="node">
<title>Node249</title>
<g id="a_node5"><a xlink:href="../../df/df3/classcarla_1_1client_1_1detail_1_1Simulator.html#a2e6e7d6a26ff8ed4726d782bd6e8012b" target="_top" xlink:title="carla::client::detail\l::Simulator::UnloadLevelLayer">
<polygon fill="#ffffff" stroke="#000000" points="602,-49.5 602,-79.5 766,-79.5 766,-49.5 602,-49.5"/>
<text text-anchor="start" x="610" y="-67.5" font-family="Helvetica,sans-Serif" font-size="10.00" fill="#000000">carla::client::detail</text>
<text text-anchor="middle" x="684" y="-56.5" font-family="Helvetica,sans-Serif" font-size="10.00" fill="#000000">::Simulator::UnloadLevelLayer</text>
</a>
</g>
</g>
<!-- Node248&#45;&gt;Node249 -->
<g id="edge4" class="edge">
<title>Node248&#45;&gt;Node249</title>
<path fill="none" stroke="#191970" d="M576.2772,-64.5C584.8329,-64.5 593.4014,-64.5 601.7606,-64.5"/>
<polygon fill="#191970" stroke="#191970" points="576.2527,-61.0001 566.2527,-64.5 576.2527,-68.0001 576.2527,-61.0001"/>
</g>
</g>
</svg>
