<?xml version="1.0" encoding="UTF-8" standalone="no"?>
<!DOCTYPE svg PUBLIC "-//W3C//DTD SVG 1.1//EN"
 "http://www.w3.org/Graphics/SVG/1.1/DTD/svg11.dtd">
<!-- Generated by graphviz version 2.40.1 (20161225.0304)
 -->
<!-- Title: CarlaRecorderAnimVehicle::Write Pages: 1 -->
<svg width="1807pt" height="113pt"
 viewBox="0.00 0.00 1807.00 112.50" xmlns="http://www.w3.org/2000/svg" xmlns:xlink="http://www.w3.org/1999/xlink">
<g id="graph0" class="graph" transform="scale(1 1) rotate(0) translate(4 108.5)">
<title>CarlaRecorderAnimVehicle::Write</title>
<polygon fill="#ffffff" stroke="transparent" points="-4,4 -4,-108.5 1803,-108.5 1803,4 -4,4"/>
<!-- Node34 -->
<g id="node1" class="node">
<title>Node34</title>
<polygon fill="#bfbfbf" stroke="#000000" points="0,-14 0,-44 146,-44 146,-14 0,-14"/>
<text text-anchor="start" x="8" y="-32" font-family="Helvetica,sans-Serif" font-size="10.00" fill="#000000">CarlaRecorderAnimVehicle</text>
<text text-anchor="middle" x="73" y="-21" font-family="Helvetica,sans-Serif" font-size="10.00" fill="#000000">::Write</text>
</g>
<!-- Node35 -->
<g id="node2" class="node">
<title>Node35</title>
<g id="a_node2"><a xlink:href="../../da/dd4/classCarlaRecorderAnimVehicles.html#a9918bd2be19ab4beb70f5b68d122152f" target="_top" xlink:title="CarlaRecorderAnimVehicles\l::Write">
<polygon fill="#ffffff" stroke="#000000" points="182,-14 182,-44 333,-44 333,-14 182,-14"/>
<text text-anchor="start" x="190" y="-32" font-family="Helvetica,sans-Serif" font-size="10.00" fill="#000000">CarlaRecorderAnimVehicles</text>
<text text-anchor="middle" x="257.5" y="-21" font-family="Helvetica,sans-Serif" font-size="10.00" fill="#000000">::Write</text>
</a>
</g>
</g>
<!-- Node34&#45;&gt;Node35 -->
<g id="edge1" class="edge">
<title>Node34&#45;&gt;Node35</title>
<path fill="none" stroke="#191970" d="M156.2009,-29C164.7902,-29 173.4853,-29 181.9843,-29"/>
<polygon fill="#191970" stroke="#191970" points="156.1843,-25.5001 146.1843,-29 156.1842,-32.5001 156.1843,-25.5001"/>
</g>
<!-- Node36 -->
<g id="node3" class="node">
<title>Node36</title>
<g id="a_node3"><a xlink:href="../../dd/db9/classACarlaRecorder.html#af793f21895a4fc136d9930f6623afd91" target="_top" xlink:title="ACarlaRecorder::Write">
<polygon fill="#ffffff" stroke="#000000" points="369,-38.5 369,-57.5 492,-57.5 492,-38.5 369,-38.5"/>
<text text-anchor="middle" x="430.5" y="-45.5" font-family="Helvetica,sans-Serif" font-size="10.00" fill="#000000">ACarlaRecorder::Write</text>
</a>
</g>
</g>
<!-- Node35&#45;&gt;Node36 -->
<g id="edge2" class="edge">
<title>Node35&#45;&gt;Node36</title>
<path fill="none" stroke="#191970" d="M343.2241,-38.4148C351.8454,-39.3616 360.4769,-40.3096 368.7762,-41.2211"/>
<polygon fill="#191970" stroke="#191970" points="343.451,-34.9187 333.1286,-37.306 342.6868,-41.8769 343.451,-34.9187"/>
</g>
<!-- Node46 -->
<g id="node13" class="node">
<title>Node46</title>
<g id="a_node13"><a xlink:href="../../de/db4/classFFrameData.html#a2dcc2eba9b975813bef54b3bb464220e" target="_top" xlink:title="FFrameData::Write">
<polygon fill="#ffffff" stroke="#000000" points="541,-.5 541,-19.5 648,-19.5 648,-.5 541,-.5"/>
<text text-anchor="middle" x="594.5" y="-7.5" font-family="Helvetica,sans-Serif" font-size="10.00" fill="#000000">FFrameData::Write</text>
</a>
</g>
</g>
<!-- Node35&#45;&gt;Node46 -->
<g id="edge13" class="edge">
<title>Node35&#45;&gt;Node46</title>
<path fill="none" stroke="#191970" d="M343.3253,-24.1612C405.5387,-20.6536 487.7425,-16.019 540.8693,-13.0237"/>
<polygon fill="#191970" stroke="#191970" points="342.9165,-20.6786 333.1294,-24.736 343.3106,-27.6675 342.9165,-20.6786"/>
</g>
<!-- Node37 -->
<g id="node4" class="node">
<title>Node37</title>
<g id="a_node4"><a xlink:href="../../dd/db9/classACarlaRecorder.html#a1074f19dfe5b16a9e10b24ef35b26abc" target="_top" xlink:title="ACarlaRecorder::Ticking">
<polygon fill="#ffffff" stroke="#000000" points="528,-38.5 528,-57.5 661,-57.5 661,-38.5 528,-38.5"/>
<text text-anchor="middle" x="594.5" y="-45.5" font-family="Helvetica,sans-Serif" font-size="10.00" fill="#000000">ACarlaRecorder::Ticking</text>
</a>
</g>
</g>
<!-- Node36&#45;&gt;Node37 -->
<g id="edge3" class="edge">
<title>Node36&#45;&gt;Node37</title>
<path fill="none" stroke="#191970" d="M502.0452,-48C510.6541,-48 519.4193,-48 527.9529,-48"/>
<polygon fill="#191970" stroke="#191970" points="502.0342,-44.5001 492.0341,-48 502.0341,-51.5001 502.0342,-44.5001"/>
</g>
<!-- Node38 -->
<g id="node5" class="node">
<title>Node38</title>
<g id="a_node5"><a xlink:href="../../dc/d49/classFCarlaEngine.html#aff440c7ba9d004e4c5b60125cc4d709b" target="_top" xlink:title="FCarlaEngine::OnPostTick">
<polygon fill="#ffffff" stroke="#000000" points="697,-38.5 697,-57.5 838,-57.5 838,-38.5 697,-38.5"/>
<text text-anchor="middle" x="767.5" y="-45.5" font-family="Helvetica,sans-Serif" font-size="10.00" fill="#000000">FCarlaEngine::OnPostTick</text>
</a>
</g>
</g>
<!-- Node37&#45;&gt;Node38 -->
<g id="edge4" class="edge">
<title>Node37&#45;&gt;Node38</title>
<path fill="none" stroke="#191970" d="M671.5486,-48C679.9465,-48 688.4647,-48 696.7814,-48"/>
<polygon fill="#191970" stroke="#191970" points="671.3864,-44.5001 661.3863,-48 671.3863,-51.5001 671.3864,-44.5001"/>
</g>
<!-- Node39 -->
<g id="node6" class="node">
<title>Node39</title>
<g id="a_node6"><a xlink:href="../../dc/d49/classFCarlaEngine.html#ab8d13063cde985781237dd7da308227e" target="_top" xlink:title="FCarlaEngine::NotifyInitGame">
<polygon fill="#ffffff" stroke="#000000" points="874,-82.5 874,-101.5 1035,-101.5 1035,-82.5 874,-82.5"/>
<text text-anchor="middle" x="954.5" y="-89.5" font-family="Helvetica,sans-Serif" font-size="10.00" fill="#000000">FCarlaEngine::NotifyInitGame</text>
</a>
</g>
</g>
<!-- Node38&#45;&gt;Node39 -->
<g id="edge5" class="edge">
<title>Node38&#45;&gt;Node39</title>
<path fill="none" stroke="#191970" d="M817.9749,-59.8764C848.0979,-66.9642 885.8404,-75.8448 914.003,-82.4713"/>
<polygon fill="#191970" stroke="#191970" points="818.6121,-56.4309 808.0762,-57.5473 817.0087,-63.2448 818.6121,-56.4309"/>
</g>
<!-- Node40 -->
<g id="node7" class="node">
<title>Node40</title>
<g id="a_node7"><a xlink:href="../../dc/d49/classFCarlaEngine.html#a4dfd3b01c0b1413b4f69fda71efc25ce" target="_top" xlink:title="FCarlaEngine::ResetFrame\lCounter">
<polygon fill="#ffffff" stroke="#000000" points="883,-33 883,-63 1026,-63 1026,-33 883,-33"/>
<text text-anchor="start" x="891" y="-51" font-family="Helvetica,sans-Serif" font-size="10.00" fill="#000000">FCarlaEngine::ResetFrame</text>
<text text-anchor="middle" x="954.5" y="-40" font-family="Helvetica,sans-Serif" font-size="10.00" fill="#000000">Counter</text>
</a>
</g>
</g>
<!-- Node38&#45;&gt;Node40 -->
<g id="edge6" class="edge">
<title>Node38&#45;&gt;Node40</title>
<path fill="none" stroke="#191970" d="M848.2123,-48C859.7067,-48 871.4638,-48 882.7712,-48"/>
<polygon fill="#191970" stroke="#191970" points="848.1967,-44.5001 838.1967,-48 848.1966,-51.5001 848.1967,-44.5001"/>
</g>
<!-- Node41 -->
<g id="node8" class="node">
<title>Node41</title>
<g id="a_node8"><a xlink:href="../../dc/d49/classFCarlaEngine.html#ab4c918e4d4855a26ab57c4bb79ad4645" target="_top" xlink:title="FCarlaEngine::NotifyBegin\lEpisode">
<polygon fill="#ffffff" stroke="#000000" points="1081.5,-74 1081.5,-104 1225.5,-104 1225.5,-74 1081.5,-74"/>
<text text-anchor="start" x="1089.5" y="-92" font-family="Helvetica,sans-Serif" font-size="10.00" fill="#000000">FCarlaEngine::NotifyBegin</text>
<text text-anchor="middle" x="1153.5" y="-81" font-family="Helvetica,sans-Serif" font-size="10.00" fill="#000000">Episode</text>
</a>
</g>
</g>
<!-- Node40&#45;&gt;Node41 -->
<g id="edge7" class="edge">
<title>Node40&#45;&gt;Node41</title>
<path fill="none" stroke="#191970" d="M1036.2756,-64.8482C1051.1792,-67.9188 1066.631,-71.1024 1081.2349,-74.1112"/>
<polygon fill="#191970" stroke="#191970" points="1036.563,-61.334 1026.0624,-62.744 1035.1504,-68.19 1036.563,-61.334"/>
</g>
<!-- Node42 -->
<g id="node9" class="node">
<title>Node42</title>
<g id="a_node9"><a xlink:href="../../de/db4/classFFrameData.html#a58809cab8ccb22f75c9765869ae136ae" target="_top" xlink:title="FFrameData::SetFrameCounter">
<polygon fill="#ffffff" stroke="#000000" points="1071,-35.5 1071,-54.5 1236,-54.5 1236,-35.5 1071,-35.5"/>
<text text-anchor="middle" x="1153.5" y="-42.5" font-family="Helvetica,sans-Serif" font-size="10.00" fill="#000000">FFrameData::SetFrameCounter</text>
</a>
</g>
</g>
<!-- Node40&#45;&gt;Node42 -->
<g id="edge8" class="edge">
<title>Node40&#45;&gt;Node42</title>
<path fill="none" stroke="#191970" d="M1036.3717,-46.7658C1047.7132,-46.5948 1059.3703,-46.419 1070.7281,-46.2478"/>
<polygon fill="#191970" stroke="#191970" points="1036.0085,-43.2707 1026.0624,-46.9212 1036.1141,-50.2699 1036.0085,-43.2707"/>
</g>
<!-- Node43 -->
<g id="node10" class="node">
<title>Node43</title>
<g id="a_node10"><a xlink:href="../../de/db4/classFFrameData.html#aa23cccda1659af6f10264e73a73c1e27" target="_top" xlink:title="FFrameData::PlayFrameData">
<polygon fill="#ffffff" stroke="#000000" points="1272,-70.5 1272,-89.5 1427,-89.5 1427,-70.5 1272,-70.5"/>
<text text-anchor="middle" x="1349.5" y="-77.5" font-family="Helvetica,sans-Serif" font-size="10.00" fill="#000000">FFrameData::PlayFrameData</text>
</a>
</g>
</g>
<!-- Node42&#45;&gt;Node43 -->
<g id="edge9" class="edge">
<title>Node42&#45;&gt;Node43</title>
<path fill="none" stroke="#191970" d="M1216.7944,-56.3026C1242.426,-60.8796 1271.6948,-66.1062 1296.2116,-70.4842"/>
<polygon fill="#191970" stroke="#191970" points="1217.2585,-52.8302 1206.799,-54.5177 1216.0279,-59.7212 1217.2585,-52.8302"/>
</g>
<!-- Node44 -->
<g id="node11" class="node">
<title>Node44</title>
<g id="a_node11"><a xlink:href="../../de/db4/classFFrameData.html#ab520e8c971f0fa7e95258e6675c6e10c" target="_top" xlink:title="FFrameData::SetEpisode">
<polygon fill="#ffffff" stroke="#000000" points="1463,-32.5 1463,-51.5 1598,-51.5 1598,-32.5 1463,-32.5"/>
<text text-anchor="middle" x="1530.5" y="-39.5" font-family="Helvetica,sans-Serif" font-size="10.00" fill="#000000">FFrameData::SetEpisode</text>
</a>
</g>
</g>
<!-- Node42&#45;&gt;Node44 -->
<g id="edge12" class="edge">
<title>Node42&#45;&gt;Node44</title>
<path fill="none" stroke="#191970" d="M1246.3751,-44.2609C1313.3937,-43.7276 1402.3487,-43.0198 1462.7454,-42.5392"/>
<polygon fill="#191970" stroke="#191970" points="1246.206,-40.7621 1236.2342,-44.3416 1246.2618,-47.7619 1246.206,-40.7621"/>
</g>
<!-- Node43&#45;&gt;Node44 -->
<g id="edge10" class="edge">
<title>Node43&#45;&gt;Node44</title>
<path fill="none" stroke="#191970" d="M1405.1384,-68.319C1430.8066,-62.9301 1460.8915,-56.6139 1485.1545,-51.5201"/>
<polygon fill="#191970" stroke="#191970" points="1404.2414,-64.9309 1395.1739,-70.411 1405.6797,-71.7816 1404.2414,-64.9309"/>
</g>
<!-- Node45 -->
<g id="node12" class="node">
<title>Node45</title>
<g id="a_node12"><a xlink:href="../../dc/d84/classUCarlaEpisode.html#a2f0288d27d5fd7c84c33ebad36621cc7" target="_top" xlink:title="UCarlaEpisode::UCarlaEpisode">
<polygon fill="#ffffff" stroke="#000000" points="1634,-32.5 1634,-51.5 1799,-51.5 1799,-32.5 1634,-32.5"/>
<text text-anchor="middle" x="1716.5" y="-39.5" font-family="Helvetica,sans-Serif" font-size="10.00" fill="#000000">UCarlaEpisode::UCarlaEpisode</text>
</a>
</g>
</g>
<!-- Node44&#45;&gt;Node45 -->
<g id="edge11" class="edge">
<title>Node44&#45;&gt;Node45</title>
<path fill="none" stroke="#191970" d="M1608.3889,-42C1616.8469,-42 1625.4762,-42 1633.9869,-42"/>
<polygon fill="#191970" stroke="#191970" points="1608.1765,-38.5001 1598.1764,-42 1608.1764,-45.5001 1608.1765,-38.5001"/>
</g>
<!-- Node46&#45;&gt;Node38 -->
<g id="edge14" class="edge">
<title>Node46&#45;&gt;Node38</title>
<path fill="none" stroke="#191970" d="M648.0051,-21.7526C672.4673,-27.1258 701.0707,-33.4086 724.1587,-38.4799"/>
<polygon fill="#191970" stroke="#191970" points="648.6733,-18.316 638.1552,-19.589 647.1714,-25.153 648.6733,-18.316"/>
</g>
<!-- Node46&#45;&gt;Node44 -->
<g id="edge15" class="edge">
<title>Node46&#45;&gt;Node44</title>
<path fill="none" stroke="#191970" d="M658.4272,-8.2917C730.398,-6.5181 850.8333,-4 954.5,-4 954.5,-4 954.5,-4 1153.5,-4 1266.8113,-4 1398.3181,-21.2037 1472.2354,-32.46"/>
<polygon fill="#191970" stroke="#191970" points="658.0776,-4.7992 648.168,-8.5476 658.2522,-11.797 658.0776,-4.7992"/>
</g>
</g>
</svg>
