<?xml version="1.0" encoding="UTF-8" standalone="no"?>
<!DOCTYPE svg PUBLIC "-//W3C//DTD SVG 1.1//EN"
 "http://www.w3.org/Graphics/SVG/1.1/DTD/svg11.dtd">
<!-- Generated by graphviz version 2.40.1 (20161225.0304)
 -->
<!-- Title: OpenDriveParser.h Pages: 1 -->
<!--zoomable 755 -->
<svg id="main" version="1.1" xmlns="http://www.w3.org/2000/svg" xmlns:xlink="http://www.w3.org/1999/xlink" xml:space="preserve" onload="init(evt)">
<style type="text/css"><![CDATA[
.edge:hover path { stroke: red; }
.edge:hover polygon { stroke: red; fill: red; }
]]></style>
<script type="text/javascript"><![CDATA[
var edges = document.getElementsByTagName('g');
if (edges && edges.length) {
  for (var i=0;i<edges.length;i++) {
    if (edges[i].id.substr(0,4)=='edge') {
      edges[i].setAttribute('class','edge');
    }
  }
}
]]></script>
        <defs>
                <circle id="rim" cx="0" cy="0" r="7"/>
                <circle id="rim2" cx="0" cy="0" r="3.5"/>
                <g id="zoomPlus">
                        <use xlink:href="#rim" fill="#404040">
                                <set attributeName="fill" to="#808080" begin="zoomplus.mouseover" end="zoomplus.mouseout"/>
                        </use>
                        <path d="M-4,0h8M0,-4v8" fill="none" stroke="white" stroke-width="1.5" pointer-events="none"/>
                </g>
                <g id="zoomMin">
                        <use xlink:href="#rim" fill="#404040">
                                <set attributeName="fill" to="#808080" begin="zoomminus.mouseover" end="zoomminus.mouseout"/>
                        </use>
                        <path d="M-4,0h8" fill="none" stroke="white" stroke-width="1.5" pointer-events="none"/>
                </g>
                <g id="dirArrow">
                        <path fill="none" stroke="white" stroke-width="1.5" d="M0,-3.0v7 M-2.5,-0.5L0,-3.0L2.5,-0.5"/>
                </g>
               <g id="resetDef">
                       <use xlink:href="#rim2" fill="#404040">
                               <set attributeName="fill" to="#808080" begin="reset.mouseover" end="reset.mouseout"/>
                       </use>
               </g>
        </defs>

<script type="text/javascript">
var viewWidth = 2589;
var viewHeight = 755;
var sectionId = 'dynsection-0';
</script>
<script xlink:href="../../svgpan.js"/>
<svg id="graph" class="graph">
<g id="viewport">
<title>OpenDriveParser.h</title>
<polygon fill="#ffffff" stroke="transparent" points="-4,4 -4,-751 2585.3767,-751 2585.3767,4 -4,4"/>
<!-- Node0 -->
<g id="node1" class="node">
<title>Node0</title>
<polygon fill="#bfbfbf" stroke="#000000" points="2427.3767,-727.5 2427.3767,-746.5 2534.3767,-746.5 2534.3767,-727.5 2427.3767,-727.5"/>
<text text-anchor="middle" x="2480.8767" y="-734.5" font-family="Helvetica,sans-Serif" font-size="10.00" fill="#000000">OpenDriveParser.h</text>
</g>
<!-- Node1 -->
<g id="node2" class="node">
<title>Node1</title>
<g id="a_node2"><a xlink:href="../../df/d64/road_2Map_8h.html" target="_top" xlink:title="carla/road/Map.h">
<polygon fill="#ffffff" stroke="#000000" points="1264.8767,-671.5 1264.8767,-690.5 1362.8767,-690.5 1362.8767,-671.5 1264.8767,-671.5"/>
<text text-anchor="middle" x="1313.8767" y="-678.5" font-family="Helvetica,sans-Serif" font-size="10.00" fill="#000000">carla/road/Map.h</text>
</a>
</g>
</g>
<!-- Node0&#45;&gt;Node1 -->
<g id="edge1" class="edge">
<title>Node0&#45;&gt;Node1</title>
<path fill="none" stroke="#191970" d="M2427.3161,-734.4298C2234.2904,-725.1672 1575.0706,-693.5337 1373.1462,-683.8441"/>
<polygon fill="#191970" stroke="#191970" points="1373.1895,-680.3423 1363.0332,-683.3588 1372.8539,-687.3342 1373.1895,-680.3423"/>
</g>
<!-- Node38 -->
<g id="node31" class="node">
<title>Node38</title>
<polygon fill="#ffffff" stroke="#bfbfbf" points="1658.8767,-291.5 1658.8767,-310.5 1702.8767,-310.5 1702.8767,-291.5 1658.8767,-291.5"/>
<text text-anchor="middle" x="1680.8767" y="-298.5" font-family="Helvetica,sans-Serif" font-size="10.00" fill="#000000">string</text>
</g>
<!-- Node0&#45;&gt;Node38 -->
<g id="edge126" class="edge">
<title>Node0&#45;&gt;Node38</title>
<path fill="none" stroke="#191970" d="M2491.1444,-727.2894C2510.7774,-707.5227 2551.006,-660.6107 2542.8767,-615 2520.0089,-486.6966 2536.9369,-411.8233 2423.8767,-347 2361.5858,-311.2854 1847.53,-302.9131 1712.9982,-301.3257"/>
<polygon fill="#191970" stroke="#191970" points="1712.959,-297.8252 1702.9199,-301.2113 1712.8795,-304.8247 1712.959,-297.8252"/>
</g>
<!-- Node75 -->
<g id="node50" class="node">
<title>Node75</title>
<polygon fill="#ffffff" stroke="#bfbfbf" points="2427.3767,-615.5 2427.3767,-634.5 2534.3767,-634.5 2534.3767,-615.5 2427.3767,-615.5"/>
<text text-anchor="middle" x="2480.8767" y="-622.5" font-family="Helvetica,sans-Serif" font-size="10.00" fill="#000000">boost/optional.hpp</text>
</g>
<!-- Node0&#45;&gt;Node75 -->
<g id="edge125" class="edge">
<title>Node0&#45;&gt;Node75</title>
<path fill="none" stroke="#191970" d="M2480.8767,-727.4509C2480.8767,-709.184 2480.8767,-668.9553 2480.8767,-644.6976"/>
<polygon fill="#191970" stroke="#191970" points="2484.3768,-644.5249 2480.8767,-634.5249 2477.3768,-644.5249 2484.3768,-644.5249"/>
</g>
<!-- Node2 -->
<g id="node3" class="node">
<title>Node2</title>
<g id="a_node3"><a xlink:href="../../d9/d31/Mesh_8h.html" target="_top" xlink:title="carla/geom/Mesh.h">
<polygon fill="#ffffff" stroke="#000000" points="953.3767,-353 953.3767,-372 1062.3767,-372 1062.3767,-353 953.3767,-353"/>
<text text-anchor="middle" x="1007.8767" y="-360" font-family="Helvetica,sans-Serif" font-size="10.00" fill="#000000">carla/geom/Mesh.h</text>
</a>
</g>
</g>
<!-- Node1&#45;&gt;Node2 -->
<g id="edge2" class="edge">
<title>Node1&#45;&gt;Node2</title>
<path fill="none" stroke="#191970" d="M1268.9118,-671.4422C1185.1985,-652.0633 1002.3069,-602.1443 873.8767,-512 841.6396,-489.373 829.6317,-481.9054 815.8767,-445 811.0649,-432.0898 807.4907,-424.9317 815.8767,-414 831.4999,-393.6339 893.7926,-379.5476 943.2441,-371.3195"/>
<polygon fill="#191970" stroke="#191970" points="943.9481,-374.7513 953.2625,-369.7022 942.8325,-367.8407 943.9481,-374.7513"/>
</g>
<!-- Node3 -->
<g id="node4" class="node">
<title>Node3</title>
<polygon fill="#ffffff" stroke="#bfbfbf" points="863.3767,-291.5 863.3767,-310.5 910.3767,-310.5 910.3767,-291.5 863.3767,-291.5"/>
<text text-anchor="middle" x="886.8767" y="-298.5" font-family="Helvetica,sans-Serif" font-size="10.00" fill="#000000">vector</text>
</g>
<!-- Node1&#45;&gt;Node3 -->
<g id="edge124" class="edge">
<title>Node1&#45;&gt;Node3</title>
<path fill="none" stroke="#191970" d="M1264.5663,-679.8558C1059.6494,-674.9863 281.0162,-655.3054 172.8767,-635 97.5917,-620.8637 54.3803,-641.3464 9.8767,-579 -95.7871,-430.9726 680.5543,-326.314 853.2932,-305.0057"/>
<polygon fill="#191970" stroke="#191970" points="853.8348,-308.4656 863.3358,-303.7773 852.9848,-301.5174 853.8348,-308.4656"/>
</g>
<!-- Node22 -->
<g id="node16" class="node">
<title>Node22</title>
<g id="a_node16"><a xlink:href="../../d5/d30/Rtree_8h.html" target="_top" xlink:title="carla/geom/Rtree.h">
<polygon fill="#ffffff" stroke="#000000" points="181.8767,-615.5 181.8767,-634.5 291.8767,-634.5 291.8767,-615.5 181.8767,-615.5"/>
<text text-anchor="middle" x="236.8767" y="-622.5" font-family="Helvetica,sans-Serif" font-size="10.00" fill="#000000">carla/geom/Rtree.h</text>
</a>
</g>
</g>
<!-- Node1&#45;&gt;Node22 -->
<g id="edge19" class="edge">
<title>Node1&#45;&gt;Node22</title>
<path fill="none" stroke="#191970" d="M1264.8016,-678.4483C1090.3567,-669.3778 500.1191,-638.6876 302.1922,-628.3962"/>
<polygon fill="#191970" stroke="#191970" points="302.1176,-624.8877 291.9493,-627.8636 301.7541,-631.8782 302.1176,-624.8877"/>
</g>
<!-- Node26 -->
<g id="node20" class="node">
<title>Node26</title>
<g id="a_node20"><a xlink:href="../../de/d17/geom_2Transform_8h.html" target="_top" xlink:title="carla/geom/Transform.h">
<polygon fill="#ffffff" stroke="#000000" points="1270.8767,-353 1270.8767,-372 1402.8767,-372 1402.8767,-353 1270.8767,-353"/>
<text text-anchor="middle" x="1336.8767" y="-360" font-family="Helvetica,sans-Serif" font-size="10.00" fill="#000000">carla/geom/Transform.h</text>
</a>
</g>
</g>
<!-- Node1&#45;&gt;Node26 -->
<g id="edge24" class="edge">
<title>Node1&#45;&gt;Node26</title>
<path fill="none" stroke="#191970" d="M1313.2267,-671.3933C1311.4115,-642.5059 1306.8647,-553.9276 1313.8767,-481 1317.2704,-445.7031 1326.2256,-405.2979 1331.908,-381.9567"/>
<polygon fill="#191970" stroke="#191970" points="1335.3078,-382.7883 1334.3265,-372.239 1328.515,-381.0977 1335.3078,-382.7883"/>
</g>
<!-- Node32 -->
<g id="node26" class="node">
<title>Node32</title>
<g id="a_node26"><a xlink:href="../../d4/dd8/LibCarla_2source_2carla_2NonCopyable_8h.html" target="_top" xlink:title="carla/NonCopyable.h">
<polygon fill="#ffffff" stroke="#000000" points="1534.8767,-353 1534.8767,-372 1652.8767,-372 1652.8767,-353 1534.8767,-353"/>
<text text-anchor="middle" x="1593.8767" y="-360" font-family="Helvetica,sans-Serif" font-size="10.00" fill="#000000">carla/NonCopyable.h</text>
</a>
</g>
</g>
<!-- Node1&#45;&gt;Node32 -->
<g id="edge43" class="edge">
<title>Node1&#45;&gt;Node32</title>
<path fill="none" stroke="#191970" d="M1321.4521,-671.2418C1339.1375,-648.6737 1384.9115,-591.4807 1427.8767,-548 1444.9212,-530.7509 1458.8753,-534.0912 1468.8767,-512 1474.559,-499.4486 1473.4592,-493.9934 1468.8767,-481 1462.0432,-461.6241 1446.7101,-464.3759 1439.8767,-445 1435.2942,-432.0066 1431.8261,-425.181 1439.8767,-414 1451.558,-397.7764 1497.5627,-383.7222 1536.2746,-374.413"/>
<polygon fill="#191970" stroke="#191970" points="1537.5086,-377.7189 1546.4483,-372.0329 1535.9139,-370.903 1537.5086,-377.7189"/>
</g>
<!-- Node33 -->
<g id="node27" class="node">
<title>Node33</title>
<g id="a_node27"><a xlink:href="../../d5/d4c/LaneMarking_8h.html" target="_top" xlink:title="carla/road/element\l/LaneMarking.h">
<polygon fill="#ffffff" stroke="#000000" points="2472.3767,-224.5 2472.3767,-254.5 2581.3767,-254.5 2581.3767,-224.5 2472.3767,-224.5"/>
<text text-anchor="start" x="2480.3767" y="-242.5" font-family="Helvetica,sans-Serif" font-size="10.00" fill="#000000">carla/road/element</text>
<text text-anchor="middle" x="2526.8767" y="-231.5" font-family="Helvetica,sans-Serif" font-size="10.00" fill="#000000">/LaneMarking.h</text>
</a>
</g>
</g>
<!-- Node1&#45;&gt;Node33 -->
<g id="edge44" class="edge">
<title>Node1&#45;&gt;Node33</title>
<path fill="none" stroke="#191970" d="M1363.0554,-679.9682C1564.3402,-675.601 2316.8733,-657.8076 2361.8767,-635 2466.3557,-582.0502 2526.8767,-546.6305 2526.8767,-429.5 2526.8767,-429.5 2526.8767,-429.5 2526.8767,-362.5 2526.8767,-328.6453 2526.8767,-289.5491 2526.8767,-264.6876"/>
<polygon fill="#191970" stroke="#191970" points="2530.3768,-264.6486 2526.8767,-254.6486 2523.3768,-264.6487 2530.3768,-264.6486"/>
</g>
<!-- Node34 -->
<g id="node28" class="node">
<title>Node34</title>
<g id="a_node28"><a xlink:href="../../dd/d32/RoadInfoMarkRecord_8h.html" target="_top" xlink:title="carla/road/element\l/RoadInfoMarkRecord.h">
<polygon fill="#ffffff" stroke="#000000" points="770.8767,-548.5 770.8767,-578.5 898.8767,-578.5 898.8767,-548.5 770.8767,-548.5"/>
<text text-anchor="start" x="778.8767" y="-566.5" font-family="Helvetica,sans-Serif" font-size="10.00" fill="#000000">carla/road/element</text>
<text text-anchor="middle" x="834.8767" y="-555.5" font-family="Helvetica,sans-Serif" font-size="10.00" fill="#000000">/RoadInfoMarkRecord.h</text>
</a>
</g>
</g>
<!-- Node1&#45;&gt;Node34 -->
<g id="edge46" class="edge">
<title>Node1&#45;&gt;Node34</title>
<path fill="none" stroke="#191970" d="M1264.8721,-679.1459C1172.0943,-675.0232 974.5561,-663.1443 912.8767,-635 889.1096,-624.1551 867.678,-603.2947 853.3215,-586.893"/>
<polygon fill="#191970" stroke="#191970" points="855.611,-584.1795 846.484,-578.799 850.2636,-588.6967 855.611,-584.1795"/>
</g>
<!-- Node40 -->
<g id="node33" class="node">
<title>Node40</title>
<g id="a_node33"><a xlink:href="../../d3/dbb/road_2element_2Waypoint_8h.html" target="_top" xlink:title="carla/road/element\l/Waypoint.h">
<polygon fill="#ffffff" stroke="#000000" points="2351.3767,-414.5 2351.3767,-444.5 2460.3767,-444.5 2460.3767,-414.5 2351.3767,-414.5"/>
<text text-anchor="start" x="2359.3767" y="-432.5" font-family="Helvetica,sans-Serif" font-size="10.00" fill="#000000">carla/road/element</text>
<text text-anchor="middle" x="2405.8767" y="-421.5" font-family="Helvetica,sans-Serif" font-size="10.00" fill="#000000">/Waypoint.h</text>
</a>
</g>
</g>
<!-- Node1&#45;&gt;Node40 -->
<g id="edge58" class="edge">
<title>Node1&#45;&gt;Node40</title>
<path fill="none" stroke="#191970" d="M1363.138,-680.3233C1562.0959,-677.3939 2297.6128,-664.5951 2336.8767,-635 2394.0709,-591.8899 2404.3612,-499.3092 2405.8763,-454.6341"/>
<polygon fill="#191970" stroke="#191970" points="2409.3758,-454.6886 2406.0935,-444.6151 2402.3775,-454.5368 2409.3758,-454.6886"/>
</g>
<!-- Node41 -->
<g id="node34" class="node">
<title>Node41</title>
<g id="a_node34"><a xlink:href="../../d6/dbb/RoadTypes_8h.html" target="_top" xlink:title="carla/road/RoadTypes.h">
<polygon fill="#ffffff" stroke="#000000" points="1860.3767,-353 1860.3767,-372 1989.3767,-372 1989.3767,-353 1860.3767,-353"/>
<text text-anchor="middle" x="1924.8767" y="-360" font-family="Helvetica,sans-Serif" font-size="10.00" fill="#000000">carla/road/RoadTypes.h</text>
</a>
</g>
</g>
<!-- Node1&#45;&gt;Node41 -->
<g id="edge112" class="edge">
<title>Node1&#45;&gt;Node41</title>
<path fill="none" stroke="#191970" d="M1362.918,-680.0251C1505.5764,-676.8587 1918.5702,-665.2619 2049.8767,-635 2151.5646,-611.5642 2210.3269,-608.5686 2249.8767,-512 2266.385,-471.6917 2279.1718,-447.116 2250.8767,-414 2234.7322,-395.1049 2090.7377,-378.1668 1999.6012,-369.2117"/>
<polygon fill="#191970" stroke="#191970" points="1999.8758,-365.722 1989.5842,-368.2386 1999.1989,-372.6892 1999.8758,-365.722"/>
</g>
<!-- Node43 -->
<g id="node36" class="node">
<title>Node43</title>
<g id="a_node36"><a xlink:href="../../d5/db7/MapData_8h.html" target="_top" xlink:title="carla/road/MapData.h">
<polygon fill="#ffffff" stroke="#000000" points="1920.3767,-615.5 1920.3767,-634.5 2041.3767,-634.5 2041.3767,-615.5 1920.3767,-615.5"/>
<text text-anchor="middle" x="1980.8767" y="-622.5" font-family="Helvetica,sans-Serif" font-size="10.00" fill="#000000">carla/road/MapData.h</text>
</a>
</g>
</g>
<!-- Node1&#45;&gt;Node43 -->
<g id="edge64" class="edge">
<title>Node1&#45;&gt;Node43</title>
<path fill="none" stroke="#191970" d="M1362.9228,-676.8822C1479.4744,-667.0967 1773.4423,-642.4158 1909.6118,-630.9833"/>
<polygon fill="#191970" stroke="#191970" points="1910.255,-634.4417 1919.9271,-630.1172 1909.6693,-627.4662 1910.255,-634.4417"/>
</g>
<!-- Node73 -->
<g id="node48" class="node">
<title>Node73</title>
<g id="a_node48"><a xlink:href="../../d9/d87/MeshFactory_8h.html" target="_top" xlink:title="carla/road/MeshFactory.h">
<polygon fill="#ffffff" stroke="#000000" points="698.3767,-615.5 698.3767,-634.5 835.3767,-634.5 835.3767,-615.5 698.3767,-615.5"/>
<text text-anchor="middle" x="766.8767" y="-622.5" font-family="Helvetica,sans-Serif" font-size="10.00" fill="#000000">carla/road/MeshFactory.h</text>
</a>
</g>
</g>
<!-- Node1&#45;&gt;Node73 -->
<g id="edge113" class="edge">
<title>Node1&#45;&gt;Node73</title>
<path fill="none" stroke="#191970" d="M1264.7109,-676.0526C1181.6825,-667.685 1008.3975,-650.1673 861.8767,-635 856.567,-634.4504 851.0907,-633.8809 845.5736,-633.3052"/>
<polygon fill="#191970" stroke="#191970" points="845.9358,-629.824 835.626,-632.2652 845.2079,-636.7861 845.9358,-629.824"/>
</g>
<!-- Node74 -->
<g id="node49" class="node">
<title>Node74</title>
<g id="a_node49"><a xlink:href="../../d9/d3b/OpendriveGenerationParameters_8h.html" target="_top" xlink:title="carla/rpc/OpendriveGeneration\lParameters.h">
<polygon fill="#ffffff" stroke="#000000" points="472.8767,-548.5 472.8767,-578.5 638.8767,-578.5 638.8767,-548.5 472.8767,-548.5"/>
<text text-anchor="start" x="480.8767" y="-566.5" font-family="Helvetica,sans-Serif" font-size="10.00" fill="#000000">carla/rpc/OpendriveGeneration</text>
<text text-anchor="middle" x="555.8767" y="-555.5" font-family="Helvetica,sans-Serif" font-size="10.00" fill="#000000">Parameters.h</text>
</a>
</g>
</g>
<!-- Node1&#45;&gt;Node74 -->
<g id="edge122" class="edge">
<title>Node1&#45;&gt;Node74</title>
<path fill="none" stroke="#191970" d="M1264.444,-680.0177C1136.4308,-677.0511 796.6025,-666.3702 688.8767,-635 651.051,-623.985 611.8021,-601.2627 585.8361,-584.3742"/>
<polygon fill="#191970" stroke="#191970" points="587.4992,-581.2776 577.2296,-578.6726 583.6332,-587.1133 587.4992,-581.2776"/>
</g>
<!-- Node1&#45;&gt;Node75 -->
<g id="edge123" class="edge">
<title>Node1&#45;&gt;Node75</title>
<path fill="none" stroke="#191970" d="M1363.0195,-680.7654C1517.7544,-679.6368 2008.6255,-673.0801 2412.8767,-635 2414.1797,-634.8773 2415.496,-634.7467 2416.8219,-634.6091"/>
<polygon fill="#191970" stroke="#191970" points="2417.5791,-638.0455 2427.1175,-633.4337 2416.785,-631.0907 2417.5791,-638.0455"/>
</g>
<!-- Node2&#45;&gt;Node3 -->
<g id="edge3" class="edge">
<title>Node2&#45;&gt;Node3</title>
<path fill="none" stroke="#191970" d="M988.9704,-352.8906C969.0801,-342.7811 937.5644,-326.7628 914.8074,-315.1962"/>
<polygon fill="#191970" stroke="#191970" points="916.1506,-311.9528 905.6501,-310.5419 912.9789,-318.193 916.1506,-311.9528"/>
</g>
<!-- Node4 -->
<g id="node5" class="node">
<title>Node4</title>
<g id="a_node5"><a xlink:href="../../de/d70/geom_2Vector3D_8h.html" target="_top" xlink:title="carla/geom/Vector3D.h">
<polygon fill="#ffffff" stroke="#000000" points="1528.8767,-168.5 1528.8767,-187.5 1656.8767,-187.5 1656.8767,-168.5 1528.8767,-168.5"/>
<text text-anchor="middle" x="1592.8767" y="-175.5" font-family="Helvetica,sans-Serif" font-size="10.00" fill="#000000">carla/geom/Vector3D.h</text>
</a>
</g>
</g>
<!-- Node2&#45;&gt;Node4 -->
<g id="edge4" class="edge">
<title>Node2&#45;&gt;Node4</title>
<path fill="none" stroke="#191970" d="M1038.0969,-352.969C1135.6575,-322.1999 1442.2809,-225.4956 1552.728,-190.6623"/>
<polygon fill="#191970" stroke="#191970" points="1554.0019,-193.9305 1562.4861,-187.5847 1551.8964,-187.2547 1554.0019,-193.9305"/>
</g>
<!-- Node21 -->
<g id="node15" class="node">
<title>Node21</title>
<g id="a_node15"><a xlink:href="../../d7/d26/geom_2Vector2D_8h.html" target="_top" xlink:title="carla/geom/Vector2D.h">
<polygon fill="#ffffff" stroke="#000000" points="1110.8767,-168.5 1110.8767,-187.5 1238.8767,-187.5 1238.8767,-168.5 1110.8767,-168.5"/>
<text text-anchor="middle" x="1174.8767" y="-175.5" font-family="Helvetica,sans-Serif" font-size="10.00" fill="#000000">carla/geom/Vector2D.h</text>
</a>
</g>
</g>
<!-- Node2&#45;&gt;Node21 -->
<g id="edge15" class="edge">
<title>Node2&#45;&gt;Node21</title>
<path fill="none" stroke="#191970" d="M1015.3139,-352.701C1033.1026,-329.4762 1079.9058,-269.6139 1123.8767,-224 1133.8329,-213.6718 1145.6953,-202.8913 1155.4732,-194.365"/>
<polygon fill="#191970" stroke="#191970" points="1157.8132,-196.9689 1163.1087,-187.7924 1153.2465,-191.6636 1157.8132,-196.9689"/>
</g>
<!-- Node5 -->
<g id="node6" class="node">
<title>Node5</title>
<g id="a_node6"><a xlink:href="../../d9/d6f/MsgPack_8h.html" target="_top" xlink:title="carla/MsgPack.h">
<polygon fill="#ffffff" stroke="#000000" points="1276.3767,-112.5 1276.3767,-131.5 1371.3767,-131.5 1371.3767,-112.5 1276.3767,-112.5"/>
<text text-anchor="middle" x="1323.8767" y="-119.5" font-family="Helvetica,sans-Serif" font-size="10.00" fill="#000000">carla/MsgPack.h</text>
</a>
</g>
</g>
<!-- Node4&#45;&gt;Node5 -->
<g id="edge5" class="edge">
<title>Node4&#45;&gt;Node5</title>
<path fill="none" stroke="#191970" d="M1546.9396,-168.4369C1500.6121,-158.7925 1429.0498,-143.8948 1379.5298,-133.5858"/>
<polygon fill="#191970" stroke="#191970" points="1380.1278,-130.1353 1369.6243,-131.5237 1378.701,-136.9884 1380.1278,-130.1353"/>
</g>
<!-- Node16 -->
<g id="node10" class="node">
<title>Node16</title>
<polygon fill="#ffffff" stroke="#bfbfbf" points="1494.8767,-.5 1494.8767,-19.5 1538.8767,-19.5 1538.8767,-.5 1494.8767,-.5"/>
<text text-anchor="middle" x="1516.8767" y="-7.5" font-family="Helvetica,sans-Serif" font-size="10.00" fill="#000000">limits</text>
</g>
<!-- Node4&#45;&gt;Node16 -->
<g id="edge14" class="edge">
<title>Node4&#45;&gt;Node16</title>
<path fill="none" stroke="#191970" d="M1588.5728,-168.4862C1576.455,-141.6994 1541.8736,-65.2565 1525.5755,-29.2289"/>
<polygon fill="#191970" stroke="#191970" points="1528.6332,-27.4964 1521.3226,-19.8279 1522.2555,-30.3816 1528.6332,-27.4964"/>
</g>
<!-- Node20 -->
<g id="node14" class="node">
<title>Node20</title>
<polygon fill="#ffffff" stroke="#bfbfbf" points="1499.3767,-112.5 1499.3767,-131.5 1546.3767,-131.5 1546.3767,-112.5 1499.3767,-112.5"/>
<text text-anchor="middle" x="1522.8767" y="-119.5" font-family="Helvetica,sans-Serif" font-size="10.00" fill="#000000">cmath</text>
</g>
<!-- Node4&#45;&gt;Node20 -->
<g id="edge13" class="edge">
<title>Node4&#45;&gt;Node20</title>
<path fill="none" stroke="#191970" d="M1580.6836,-168.2455C1570.2446,-159.8943 1555.0112,-147.7076 1542.8027,-137.9408"/>
<polygon fill="#191970" stroke="#191970" points="1544.9252,-135.1566 1534.93,-131.6427 1540.5523,-140.6227 1544.9252,-135.1566"/>
</g>
<!-- Node6 -->
<g id="node7" class="node">
<title>Node6</title>
<g id="a_node7"><a xlink:href="../../d2/dda/carla_2Buffer_8h.html" target="_top" xlink:title="carla/Buffer.h">
<polygon fill="#ffffff" stroke="#ff0000" points="1649.3767,-56.5 1649.3767,-75.5 1730.3767,-75.5 1730.3767,-56.5 1649.3767,-56.5"/>
<text text-anchor="middle" x="1689.8767" y="-63.5" font-family="Helvetica,sans-Serif" font-size="10.00" fill="#000000">carla/Buffer.h</text>
</a>
</g>
</g>
<!-- Node5&#45;&gt;Node6 -->
<g id="edge6" class="edge">
<title>Node5&#45;&gt;Node6</title>
<path fill="none" stroke="#191970" d="M1371.7248,-114.679C1440.9813,-104.0824 1568.588,-84.5578 1639.3268,-73.7344"/>
<polygon fill="#191970" stroke="#191970" points="1639.9818,-77.175 1649.3373,-72.2027 1638.923,-70.2555 1639.9818,-77.175"/>
</g>
<!-- Node19 -->
<g id="node13" class="node">
<title>Node19</title>
<polygon fill="#ffffff" stroke="#bfbfbf" points="1273.8767,-56.5 1273.8767,-75.5 1373.8767,-75.5 1373.8767,-56.5 1273.8767,-56.5"/>
<text text-anchor="middle" x="1323.8767" y="-63.5" font-family="Helvetica,sans-Serif" font-size="10.00" fill="#000000">rpc/msgpack.hpp</text>
</g>
<!-- Node5&#45;&gt;Node19 -->
<g id="edge12" class="edge">
<title>Node5&#45;&gt;Node19</title>
<path fill="none" stroke="#191970" d="M1323.8767,-112.2455C1323.8767,-104.9382 1323.8767,-94.6944 1323.8767,-85.7046"/>
<polygon fill="#191970" stroke="#191970" points="1327.3768,-85.6426 1323.8767,-75.6427 1320.3768,-85.6427 1327.3768,-85.6426"/>
</g>
<!-- Node7 -->
<g id="node8" class="node">
<title>Node7</title>
<g id="a_node8"><a xlink:href="../../d4/deb/Debug_8h.html" target="_top" xlink:title="carla/Debug.h">
<polygon fill="#ffffff" stroke="#ff0000" points="1811.8767,-.5 1811.8767,-19.5 1895.8767,-19.5 1895.8767,-.5 1811.8767,-.5"/>
<text text-anchor="middle" x="1853.8767" y="-7.5" font-family="Helvetica,sans-Serif" font-size="10.00" fill="#000000">carla/Debug.h</text>
</a>
</g>
</g>
<!-- Node6&#45;&gt;Node7 -->
<g id="edge7" class="edge">
<title>Node6&#45;&gt;Node7</title>
<path fill="none" stroke="#191970" d="M1718.0693,-56.3733C1745.2219,-47.1016 1786.4673,-33.0178 1816.3792,-22.804"/>
<polygon fill="#191970" stroke="#191970" points="1817.7195,-26.0449 1826.0519,-19.5011 1815.4574,-19.4204 1817.7195,-26.0449"/>
</g>
<!-- Node15 -->
<g id="node9" class="node">
<title>Node15</title>
<polygon fill="#ffffff" stroke="#bfbfbf" points="2357.8767,-.5 2357.8767,-19.5 2407.8767,-19.5 2407.8767,-.5 2357.8767,-.5"/>
<text text-anchor="middle" x="2382.8767" y="-7.5" font-family="Helvetica,sans-Serif" font-size="10.00" fill="#000000">cstdint</text>
</g>
<!-- Node6&#45;&gt;Node15 -->
<g id="edge8" class="edge">
<title>Node6&#45;&gt;Node15</title>
<path fill="none" stroke="#191970" d="M1730.3849,-62.7266C1854.8932,-52.6653 2230.6154,-22.3039 2347.6678,-12.8452"/>
<polygon fill="#191970" stroke="#191970" points="2348.173,-16.3158 2357.8586,-12.0217 2347.6091,-9.3386 2348.173,-16.3158"/>
</g>
<!-- Node6&#45;&gt;Node16 -->
<g id="edge9" class="edge">
<title>Node6&#45;&gt;Node16</title>
<path fill="none" stroke="#191970" d="M1660.1369,-56.3733C1629.1031,-46.3276 1580.6176,-30.6329 1548.7955,-20.3321"/>
<polygon fill="#191970" stroke="#191970" points="1549.6842,-16.941 1539.0923,-17.1912 1547.5284,-23.6008 1549.6842,-16.941"/>
</g>
<!-- Node17 -->
<g id="node11" class="node">
<title>Node17</title>
<polygon fill="#ffffff" stroke="#bfbfbf" points="758.8767,-.5 758.8767,-19.5 816.8767,-19.5 816.8767,-.5 758.8767,-.5"/>
<text text-anchor="middle" x="787.8767" y="-7.5" font-family="Helvetica,sans-Serif" font-size="10.00" fill="#000000">memory</text>
</g>
<!-- Node6&#45;&gt;Node17 -->
<g id="edge10" class="edge">
<title>Node6&#45;&gt;Node17</title>
<path fill="none" stroke="#191970" d="M1649.3673,-63.485C1499.2249,-54.1635 975.5317,-21.6504 827.265,-12.4454"/>
<polygon fill="#191970" stroke="#191970" points="827.4466,-8.95 817.2489,-11.8236 827.0128,-15.9366 827.4466,-8.95"/>
</g>
<!-- Node18 -->
<g id="node12" class="node">
<title>Node18</title>
<polygon fill="#ffffff" stroke="#bfbfbf" points="1724.3767,-.5 1724.3767,-19.5 1793.3767,-19.5 1793.3767,-.5 1724.3767,-.5"/>
<text text-anchor="middle" x="1758.8767" y="-7.5" font-family="Helvetica,sans-Serif" font-size="10.00" fill="#000000">type_traits</text>
</g>
<!-- Node6&#45;&gt;Node18 -->
<g id="edge11" class="edge">
<title>Node6&#45;&gt;Node18</title>
<path fill="none" stroke="#191970" d="M1701.8955,-56.2455C1712.0865,-47.9746 1726.9129,-35.9416 1738.8873,-26.2232"/>
<polygon fill="#191970" stroke="#191970" points="1741.4365,-28.662 1746.9955,-19.6427 1737.0253,-23.2268 1741.4365,-28.662"/>
</g>
<!-- Node21&#45;&gt;Node5 -->
<g id="edge16" class="edge">
<title>Node21&#45;&gt;Node5</title>
<path fill="none" stroke="#191970" d="M1200.4907,-168.3733C1224.9453,-159.1822 1261.9821,-145.2624 1289.0975,-135.0713"/>
<polygon fill="#191970" stroke="#191970" points="1290.4675,-138.2956 1298.5969,-131.5011 1288.0048,-131.7431 1290.4675,-138.2956"/>
</g>
<!-- Node21&#45;&gt;Node16 -->
<g id="edge18" class="edge">
<title>Node21&#45;&gt;Node16</title>
<path fill="none" stroke="#191970" d="M1178.8698,-168.4623C1189.2202,-145.0187 1219.3244,-84.4247 1264.8767,-56 1301.1813,-33.3458 1425.311,-18.7566 1484.7064,-12.9089"/>
<polygon fill="#191970" stroke="#191970" points="1485.0529,-16.3918 1494.6718,-11.9503 1484.3826,-9.424 1485.0529,-16.3918"/>
</g>
<!-- Node21&#45;&gt;Node20 -->
<g id="edge17" class="edge">
<title>Node21&#45;&gt;Node20</title>
<path fill="none" stroke="#191970" d="M1234.3046,-168.4369C1307.7403,-156.6196 1430.1891,-136.9152 1489.1375,-127.4293"/>
<polygon fill="#191970" stroke="#191970" points="1489.7276,-130.8795 1499.0445,-125.8351 1488.6154,-123.9684 1489.7276,-130.8795"/>
</g>
<!-- Node22&#45;&gt;Node3 -->
<g id="edge20" class="edge">
<title>Node22&#45;&gt;Node3</title>
<path fill="none" stroke="#191970" d="M181.6932,-621.0525C124.2425,-615.6592 39.8778,-603.6855 19.8767,-579 11.2031,-568.295 11.2006,-558.703 19.8767,-548 89.5332,-462.0703 402.4848,-481.5826 506.8767,-445 598.4146,-412.9219 610.9188,-380.6877 701.8767,-347 753.3658,-327.9302 815.8149,-314.2581 853.3944,-306.9965"/>
<polygon fill="#191970" stroke="#191970" points="854.1307,-310.4194 863.3045,-305.1192 852.8278,-303.5417 854.1307,-310.4194"/>
</g>
<!-- Node23 -->
<g id="node17" class="node">
<title>Node23</title>
<polygon fill="#ffffff" stroke="#bfbfbf" points="29.3767,-554 29.3767,-573 142.3767,-573 142.3767,-554 29.3767,-554"/>
<text text-anchor="middle" x="85.8767" y="-561" font-family="Helvetica,sans-Serif" font-size="10.00" fill="#000000">boost/geometry.hpp</text>
</g>
<!-- Node22&#45;&gt;Node23 -->
<g id="edge21" class="edge">
<title>Node22&#45;&gt;Node23</title>
<path fill="none" stroke="#191970" d="M213.2829,-615.3906C187.907,-605.0554 147.3686,-588.5447 118.8473,-576.9284"/>
<polygon fill="#191970" stroke="#191970" points="119.8863,-573.5725 109.3047,-573.0419 117.2458,-580.0554 119.8863,-573.5725"/>
</g>
<!-- Node24 -->
<g id="node18" class="node">
<title>Node24</title>
<polygon fill="#ffffff" stroke="#bfbfbf" points="160.8767,-548.5 160.8767,-578.5 312.8767,-578.5 312.8767,-548.5 160.8767,-548.5"/>
<text text-anchor="start" x="168.8767" y="-566.5" font-family="Helvetica,sans-Serif" font-size="10.00" fill="#000000">boost/geometry/geometries</text>
<text text-anchor="middle" x="236.8767" y="-555.5" font-family="Helvetica,sans-Serif" font-size="10.00" fill="#000000">/point.hpp</text>
</g>
<!-- Node22&#45;&gt;Node24 -->
<g id="edge22" class="edge">
<title>Node22&#45;&gt;Node24</title>
<path fill="none" stroke="#191970" d="M236.8767,-615.3906C236.8767,-608.2234 236.8767,-598.0862 236.8767,-588.671"/>
<polygon fill="#191970" stroke="#191970" points="240.3768,-588.5446 236.8767,-578.5446 233.3768,-588.5446 240.3768,-588.5446"/>
</g>
<!-- Node25 -->
<g id="node19" class="node">
<title>Node25</title>
<polygon fill="#ffffff" stroke="#bfbfbf" points="330.8767,-548.5 330.8767,-578.5 454.8767,-578.5 454.8767,-548.5 330.8767,-548.5"/>
<text text-anchor="start" x="338.8767" y="-566.5" font-family="Helvetica,sans-Serif" font-size="10.00" fill="#000000">boost/geometry/index</text>
<text text-anchor="middle" x="392.8767" y="-555.5" font-family="Helvetica,sans-Serif" font-size="10.00" fill="#000000">/rtree.hpp</text>
</g>
<!-- Node22&#45;&gt;Node25 -->
<g id="edge23" class="edge">
<title>Node22&#45;&gt;Node25</title>
<path fill="none" stroke="#191970" d="M261.2517,-615.3906C283.635,-606.5664 317.4376,-593.2404 345.1824,-582.3026"/>
<polygon fill="#191970" stroke="#191970" points="346.6953,-585.4684 354.7148,-578.5446 344.1279,-578.9561 346.6953,-585.4684"/>
</g>
<!-- Node26&#45;&gt;Node5 -->
<g id="edge25" class="edge">
<title>Node26&#45;&gt;Node5</title>
<path fill="none" stroke="#191970" d="M1333.9139,-352.7428C1330.9582,-342.4704 1326.6144,-325.7705 1324.8767,-311 1317.6776,-249.808 1320.5014,-176.7 1322.5179,-142.0783"/>
<polygon fill="#191970" stroke="#191970" points="1326.0243,-142.0842 1323.1551,-131.8853 1319.0379,-141.6474 1326.0243,-142.0842"/>
</g>
<!-- Node27 -->
<g id="node21" class="node">
<title>Node27</title>
<g id="a_node21"><a xlink:href="../../d9/d8b/geom_2Location_8h.html" target="_top" xlink:title="carla/geom/Location.h">
<polygon fill="#ffffff" stroke="#000000" points="1476.3767,-291.5 1476.3767,-310.5 1601.3767,-310.5 1601.3767,-291.5 1476.3767,-291.5"/>
<text text-anchor="middle" x="1538.8767" y="-298.5" font-family="Helvetica,sans-Serif" font-size="10.00" fill="#000000">carla/geom/Location.h</text>
</a>
</g>
</g>
<!-- Node26&#45;&gt;Node27 -->
<g id="edge26" class="edge">
<title>Node26&#45;&gt;Node27</title>
<path fill="none" stroke="#191970" d="M1368.4392,-352.8906C1403.2751,-342.2846 1459.4716,-325.1753 1497.7355,-313.5257"/>
<polygon fill="#191970" stroke="#191970" points="1498.9888,-316.8028 1507.5358,-310.5419 1496.9499,-310.1063 1498.9888,-316.8028"/>
</g>
<!-- Node29 -->
<g id="node23" class="node">
<title>Node29</title>
<g id="a_node23"><a xlink:href="../../db/d8a/Math_8h.html" target="_top" xlink:title="carla/geom/Math.h">
<polygon fill="#ffffff" stroke="#000000" points="1610.3767,-230 1610.3767,-249 1717.3767,-249 1717.3767,-230 1610.3767,-230"/>
<text text-anchor="middle" x="1663.8767" y="-237" font-family="Helvetica,sans-Serif" font-size="10.00" fill="#000000">carla/geom/Math.h</text>
</a>
</g>
</g>
<!-- Node26&#45;&gt;Node29 -->
<g id="edge38" class="edge">
<title>Node26&#45;&gt;Node29</title>
<path fill="none" stroke="#191970" d="M1385.9434,-352.9373C1396.1639,-350.9611 1406.87,-348.9026 1416.8767,-347 1502.5982,-330.7012 1535.6789,-356.9187 1609.8767,-311 1630.2511,-298.3909 1645.6569,-275.0705 1654.6971,-258.4932"/>
<polygon fill="#191970" stroke="#191970" points="1658.0175,-259.6908 1659.4908,-249.1989 1651.7962,-256.482 1658.0175,-259.6908"/>
</g>
<!-- Node31 -->
<g id="node25" class="node">
<title>Node31</title>
<g id="a_node25"><a xlink:href="../../d0/d8f/Rotation_8h.html" target="_top" xlink:title="carla/geom/Rotation.h">
<polygon fill="#ffffff" stroke="#000000" points="1333.8767,-291.5 1333.8767,-310.5 1457.8767,-310.5 1457.8767,-291.5 1333.8767,-291.5"/>
<text text-anchor="middle" x="1395.8767" y="-298.5" font-family="Helvetica,sans-Serif" font-size="10.00" fill="#000000">carla/geom/Rotation.h</text>
</a>
</g>
</g>
<!-- Node26&#45;&gt;Node31 -->
<g id="edge39" class="edge">
<title>Node26&#45;&gt;Node31</title>
<path fill="none" stroke="#191970" d="M1346.0954,-352.8906C1354.9625,-343.6478 1368.5678,-329.466 1379.3156,-318.2628"/>
<polygon fill="#191970" stroke="#191970" points="1382.1307,-320.3841 1386.5279,-310.7449 1377.0793,-315.5381 1382.1307,-320.3841"/>
</g>
<!-- Node27&#45;&gt;Node4 -->
<g id="edge27" class="edge">
<title>Node27&#45;&gt;Node4</title>
<path fill="none" stroke="#191970" d="M1543.1139,-291.3484C1552.0255,-271.0499 1572.8468,-223.6235 1584.536,-196.9981"/>
<polygon fill="#191970" stroke="#191970" points="1587.8439,-198.1702 1588.6591,-187.6068 1581.4343,-195.3562 1587.8439,-198.1702"/>
</g>
<!-- Node28 -->
<g id="node22" class="node">
<title>Node28</title>
<g id="a_node22"><a xlink:href="../../d1/da4/Vector3DInt_8h.html" target="_top" xlink:title="carla/geom/Vector3DInt.h">
<polygon fill="#ffffff" stroke="#000000" points="1370.8767,-168.5 1370.8767,-187.5 1510.8767,-187.5 1510.8767,-168.5 1370.8767,-168.5"/>
<text text-anchor="middle" x="1440.8767" y="-175.5" font-family="Helvetica,sans-Serif" font-size="10.00" fill="#000000">carla/geom/Vector3DInt.h</text>
</a>
</g>
</g>
<!-- Node27&#45;&gt;Node28 -->
<g id="edge28" class="edge">
<title>Node27&#45;&gt;Node28</title>
<path fill="none" stroke="#191970" d="M1531.1868,-291.3484C1514.7277,-270.6906 1475.8828,-221.9362 1454.9028,-195.6042"/>
<polygon fill="#191970" stroke="#191970" points="1457.4997,-193.2469 1448.5308,-187.6068 1452.0249,-197.6089 1457.4997,-193.2469"/>
</g>
<!-- Node27&#45;&gt;Node29 -->
<g id="edge32" class="edge">
<title>Node27&#45;&gt;Node29</title>
<path fill="none" stroke="#191970" d="M1558.4079,-291.3906C1579.0475,-281.2359 1611.8042,-265.1196 1635.3369,-253.5416"/>
<polygon fill="#191970" stroke="#191970" points="1637.0549,-256.5971 1644.4826,-249.0419 1633.9646,-250.3161 1637.0549,-256.5971"/>
</g>
<!-- Node28&#45;&gt;Node5 -->
<g id="edge29" class="edge">
<title>Node28&#45;&gt;Node5</title>
<path fill="none" stroke="#191970" d="M1420.7636,-168.3733C1402.0663,-159.4241 1374.0023,-145.9917 1352.8832,-135.8835"/>
<polygon fill="#191970" stroke="#191970" points="1354.2583,-132.6614 1343.7272,-131.5011 1351.2362,-138.9755 1354.2583,-132.6614"/>
</g>
<!-- Node28&#45;&gt;Node16 -->
<g id="edge31" class="edge">
<title>Node28&#45;&gt;Node16</title>
<path fill="none" stroke="#191970" d="M1445.1805,-168.4862C1457.2984,-141.6994 1491.8797,-65.2565 1508.1779,-29.2289"/>
<polygon fill="#191970" stroke="#191970" points="1511.4979,-30.3816 1512.4307,-19.8279 1505.1201,-27.4964 1511.4979,-30.3816"/>
</g>
<!-- Node28&#45;&gt;Node20 -->
<g id="edge30" class="edge">
<title>Node28&#45;&gt;Node20</title>
<path fill="none" stroke="#191970" d="M1455.16,-168.2455C1467.6237,-159.7337 1485.9218,-147.2375 1500.3558,-137.3801"/>
<polygon fill="#191970" stroke="#191970" points="1502.4729,-140.1726 1508.757,-131.6427 1498.5251,-134.392 1502.4729,-140.1726"/>
</g>
<!-- Node29&#45;&gt;Node4 -->
<g id="edge34" class="edge">
<title>Node29&#45;&gt;Node4</title>
<path fill="none" stroke="#191970" d="M1652.7829,-229.8906C1641.9052,-220.4683 1625.1019,-205.9134 1612.0567,-194.6137"/>
<polygon fill="#191970" stroke="#191970" points="1613.9771,-191.6466 1604.1268,-187.7449 1609.3939,-196.9377 1613.9771,-191.6466"/>
</g>
<!-- Node29&#45;&gt;Node7 -->
<g id="edge33" class="edge">
<title>Node29&#45;&gt;Node7</title>
<path fill="none" stroke="#191970" d="M1693.953,-229.9348C1715.8613,-221.7086 1745.0529,-207.9807 1764.8767,-188 1811.4083,-141.0998 1838.0824,-64.9518 1848.6026,-29.4163"/>
<polygon fill="#191970" stroke="#191970" points="1851.977,-30.3457 1851.353,-19.7692 1845.2453,-28.4264 1851.977,-30.3457"/>
</g>
<!-- Node29&#45;&gt;Node18 -->
<g id="edge36" class="edge">
<title>Node29&#45;&gt;Node18</title>
<path fill="none" stroke="#191970" d="M1691.2563,-229.9566C1710.0255,-221.8729 1733.6603,-208.3129 1745.8767,-188 1776.1371,-137.6842 1768.7225,-64.3298 1762.8275,-29.6114"/>
<polygon fill="#191970" stroke="#191970" points="1766.2694,-28.976 1761.0166,-19.775 1759.3851,-30.2434 1766.2694,-28.976"/>
</g>
<!-- Node29&#45;&gt;Node20 -->
<g id="edge35" class="edge">
<title>Node29&#45;&gt;Node20</title>
<path fill="none" stroke="#191970" d="M1683.9309,-229.8955C1709.2639,-216.4813 1747.4447,-191.1717 1728.8767,-168 1707.7067,-141.5814 1609.7829,-129.3354 1556.9292,-124.5661"/>
<polygon fill="#191970" stroke="#191970" points="1556.9502,-121.055 1546.6869,-123.6846 1556.35,-128.0293 1556.9502,-121.055"/>
</g>
<!-- Node30 -->
<g id="node24" class="node">
<title>Node30</title>
<polygon fill="#ffffff" stroke="#bfbfbf" points="1675.3767,-168.5 1675.3767,-187.5 1720.3767,-187.5 1720.3767,-168.5 1675.3767,-168.5"/>
<text text-anchor="middle" x="1697.8767" y="-175.5" font-family="Helvetica,sans-Serif" font-size="10.00" fill="#000000">utility</text>
</g>
<!-- Node29&#45;&gt;Node30 -->
<g id="edge37" class="edge">
<title>Node29&#45;&gt;Node30</title>
<path fill="none" stroke="#191970" d="M1669.1892,-229.8906C1674.1006,-221.0068 1681.5345,-207.5601 1687.6042,-196.5811"/>
<polygon fill="#191970" stroke="#191970" points="1690.714,-198.1899 1692.4893,-187.7449 1684.5878,-194.8031 1690.714,-198.1899"/>
</g>
<!-- Node31&#45;&gt;Node4 -->
<g id="edge42" class="edge">
<title>Node31&#45;&gt;Node4</title>
<path fill="none" stroke="#191970" d="M1411.3349,-291.3484C1445.5718,-269.9721 1527.9938,-218.5106 1568.9484,-192.94"/>
<polygon fill="#191970" stroke="#191970" points="1570.8615,-195.8718 1577.4902,-187.6068 1567.1541,-189.9341 1570.8615,-195.8718"/>
</g>
<!-- Node31&#45;&gt;Node5 -->
<g id="edge40" class="edge">
<title>Node31&#45;&gt;Node5</title>
<path fill="none" stroke="#191970" d="M1392.0056,-291.3762C1380.5784,-262.9669 1346.8373,-179.0828 1331.5541,-141.0871"/>
<polygon fill="#191970" stroke="#191970" points="1334.7458,-139.6429 1327.7668,-131.6714 1328.2515,-142.2552 1334.7458,-139.6429"/>
</g>
<!-- Node31&#45;&gt;Node29 -->
<g id="edge41" class="edge">
<title>Node31&#45;&gt;Node29</title>
<path fill="none" stroke="#191970" d="M1437.4576,-291.4581C1484.5971,-280.6406 1561.4879,-262.9959 1612.3824,-251.3168"/>
<polygon fill="#191970" stroke="#191970" points="1613.2343,-254.7123 1622.1982,-249.0643 1611.6686,-247.8897 1613.2343,-254.7123"/>
</g>
<!-- Node33&#45;&gt;Node15 -->
<g id="edge45" class="edge">
<title>Node33&#45;&gt;Node15</title>
<path fill="none" stroke="#191970" d="M2524.5943,-224.2822C2518.8622,-190.553 2501.1057,-108.3617 2457.8767,-56 2446.7084,-42.4723 2430.4668,-31.8244 2415.9513,-24.195"/>
<polygon fill="#191970" stroke="#191970" points="2417.2457,-20.93 2406.7325,-19.6173 2414.1324,-27.1996 2417.2457,-20.93"/>
</g>
<!-- Node34&#45;&gt;Node3 -->
<g id="edge56" class="edge">
<title>Node34&#45;&gt;Node3</title>
<path fill="none" stroke="#191970" d="M816.099,-548.3719C805.2434,-538.8504 791.9762,-525.7853 782.8767,-512 747.5948,-458.5498 741.8664,-440.9124 729.8767,-378 727.2973,-364.4658 721.6167,-358.0273 729.8767,-347 744.6715,-327.2483 811.7222,-313.1161 853.2688,-306.0753"/>
<polygon fill="#191970" stroke="#191970" points="853.9339,-309.5131 863.2347,-304.439 852.7997,-302.6056 853.9339,-309.5131"/>
</g>
<!-- Node34&#45;&gt;Node17 -->
<g id="edge57" class="edge">
<title>Node34&#45;&gt;Node17</title>
<path fill="none" stroke="#191970" d="M778.0184,-548.3938C680.7693,-518.7248 492.8767,-443.0248 492.8767,-301 492.8767,-301 492.8767,-301 492.8767,-122 492.8767,-67.9333 668.2575,-30.6571 748.566,-16.4222"/>
<polygon fill="#191970" stroke="#191970" points="749.5314,-19.8069 758.7836,-14.6448 748.3317,-12.9105 749.5314,-19.8069"/>
</g>
<!-- Node35 -->
<g id="node29" class="node">
<title>Node35</title>
<g id="a_node29"><a xlink:href="../../de/d3a/RoadInfo_8h.html" target="_top" xlink:title="carla/road/element\l/RoadInfo.h">
<polygon fill="#ffffff" stroke="#ff0000" points="825.3767,-414.5 825.3767,-444.5 934.3767,-444.5 934.3767,-414.5 825.3767,-414.5"/>
<text text-anchor="start" x="833.3767" y="-432.5" font-family="Helvetica,sans-Serif" font-size="10.00" fill="#000000">carla/road/element</text>
<text text-anchor="middle" x="879.8767" y="-421.5" font-family="Helvetica,sans-Serif" font-size="10.00" fill="#000000">/RoadInfo.h</text>
</a>
</g>
</g>
<!-- Node34&#45;&gt;Node35 -->
<g id="edge47" class="edge">
<title>Node34&#45;&gt;Node35</title>
<path fill="none" stroke="#191970" d="M838.7498,-548.4485C843.1515,-531.7966 850.7816,-504.2432 858.8767,-481 861.981,-472.0866 865.7764,-462.4715 869.2825,-453.9901"/>
<polygon fill="#191970" stroke="#191970" points="872.5541,-455.2392 873.2068,-444.6645 866.1021,-452.5241 872.5541,-455.2392"/>
</g>
<!-- Node34&#45;&gt;Node38 -->
<g id="edge55" class="edge">
<title>Node34&#45;&gt;Node38</title>
<path fill="none" stroke="#191970" d="M899.0024,-549.146C941.4302,-539.3667 998.192,-525.744 1047.8767,-512 1188.7795,-473.0227 1221.9392,-456.3124 1361.8767,-414 1416.3988,-397.5143 1433.9917,-403.5962 1484.8767,-378 1505.2848,-367.7343 1505.4879,-357.3041 1525.8767,-347 1547.494,-336.075 1610.406,-318.9749 1649.1124,-308.9902"/>
<polygon fill="#191970" stroke="#191970" points="1650.0432,-312.3649 1658.8623,-306.4935 1648.3066,-305.5837 1650.0432,-312.3649"/>
</g>
<!-- Node39 -->
<g id="node32" class="node">
<title>Node39</title>
<g id="a_node32"><a xlink:href="../../da/d4f/RoadInfoMarkTypeLine_8h.html" target="_top" xlink:title="carla/road/element\l/RoadInfoMarkTypeLine.h">
<polygon fill="#ffffff" stroke="#000000" points="900.8767,-481.5 900.8767,-511.5 1038.8767,-511.5 1038.8767,-481.5 900.8767,-481.5"/>
<text text-anchor="start" x="908.8767" y="-499.5" font-family="Helvetica,sans-Serif" font-size="10.00" fill="#000000">carla/road/element</text>
<text text-anchor="middle" x="969.8767" y="-488.5" font-family="Helvetica,sans-Serif" font-size="10.00" fill="#000000">/RoadInfoMarkTypeLine.h</text>
</a>
</g>
</g>
<!-- Node34&#45;&gt;Node39 -->
<g id="edge52" class="edge">
<title>Node34&#45;&gt;Node39</title>
<path fill="none" stroke="#191970" d="M865.1733,-548.4639C884.319,-538.9619 909.272,-526.5779 930.0155,-516.283"/>
<polygon fill="#191970" stroke="#191970" points="931.8125,-519.2985 939.2141,-511.7177 928.7006,-513.0282 931.8125,-519.2985"/>
</g>
<!-- Node35&#45;&gt;Node3 -->
<g id="edge51" class="edge">
<title>Node35&#45;&gt;Node3</title>
<path fill="none" stroke="#191970" d="M825.235,-418.9695C775.287,-406.7951 712.9792,-383.6005 739.8767,-347 753.3957,-328.6041 814.2725,-314.2844 853.3217,-306.7867"/>
<polygon fill="#191970" stroke="#191970" points="854.0286,-310.2153 863.2179,-304.9421 852.7459,-303.3338 854.0286,-310.2153"/>
</g>
<!-- Node35&#45;&gt;Node32 -->
<g id="edge49" class="edge">
<title>Node35&#45;&gt;Node32</title>
<path fill="none" stroke="#191970" d="M934.4406,-424.7595C1035.2834,-415.9464 1257.6369,-396.2717 1444.8767,-378 1470.9257,-375.458 1499.5198,-372.5193 1524.6328,-369.8886"/>
<polygon fill="#191970" stroke="#191970" points="1525.2192,-373.3464 1534.7988,-368.8207 1524.4878,-366.3847 1525.2192,-373.3464"/>
</g>
<!-- Node36 -->
<g id="node30" class="node">
<title>Node36</title>
<g id="a_node30"><a xlink:href="../../d6/d67/RoadInfoVisitor_8h.html" target="_top" xlink:title="carla/road/element\l/RoadInfoVisitor.h">
<polygon fill="#ffffff" stroke="#000000" points="749.3767,-347.5 749.3767,-377.5 858.3767,-377.5 858.3767,-347.5 749.3767,-347.5"/>
<text text-anchor="start" x="757.3767" y="-365.5" font-family="Helvetica,sans-Serif" font-size="10.00" fill="#000000">carla/road/element</text>
<text text-anchor="middle" x="803.8767" y="-354.5" font-family="Helvetica,sans-Serif" font-size="10.00" fill="#000000">/RoadInfoVisitor.h</text>
</a>
</g>
</g>
<!-- Node35&#45;&gt;Node36 -->
<g id="edge48" class="edge">
<title>Node35&#45;&gt;Node36</title>
<path fill="none" stroke="#191970" d="M862.6311,-414.2967C852.6225,-405.4733 839.843,-394.2072 828.7602,-384.4368"/>
<polygon fill="#191970" stroke="#191970" points="830.8698,-381.6307 821.054,-377.6432 826.2407,-386.8816 830.8698,-381.6307"/>
</g>
<!-- Node35&#45;&gt;Node38 -->
<g id="edge50" class="edge">
<title>Node35&#45;&gt;Node38</title>
<path fill="none" stroke="#191970" d="M934.4571,-424.594C1067.9284,-412.547 1400.7792,-382.1843 1411.8767,-378 1433.9214,-369.6879 1433.2791,-356.4131 1454.8767,-347 1529.6663,-314.4038 1555.0128,-327.666 1634.8767,-311 1639.3168,-310.0734 1643.9938,-309.0786 1648.5962,-308.0887"/>
<polygon fill="#191970" stroke="#191970" points="1649.3996,-311.4959 1658.4317,-305.9577 1647.9173,-304.6546 1649.3996,-311.4959"/>
</g>
<!-- Node39&#45;&gt;Node35 -->
<g id="edge53" class="edge">
<title>Node39&#45;&gt;Node35</title>
<path fill="none" stroke="#191970" d="M949.4543,-481.2967C937.3718,-472.302 921.8795,-460.7687 908.5818,-450.8694"/>
<polygon fill="#191970" stroke="#191970" points="910.3296,-447.8072 900.2182,-444.6432 906.1496,-453.4221 910.3296,-447.8072"/>
</g>
<!-- Node39&#45;&gt;Node38 -->
<g id="edge54" class="edge">
<title>Node39&#45;&gt;Node38</title>
<path fill="none" stroke="#191970" d="M1031.0514,-481.4328C1072.2798,-471.2409 1127.8772,-457.4242 1176.8767,-445 1230.2712,-431.4614 1243.4164,-427.2768 1296.8767,-414 1363.8347,-397.3711 1384.8425,-406.0463 1447.8767,-378 1470.0658,-368.1272 1470.7169,-356.9384 1492.8767,-347 1507.0453,-340.6455 1598.7744,-319.4837 1648.6673,-308.2119"/>
<polygon fill="#191970" stroke="#191970" points="1649.65,-311.5783 1658.636,-305.9656 1648.1112,-304.7495 1649.65,-311.5783"/>
</g>
<!-- Node40&#45;&gt;Node15 -->
<g id="edge62" class="edge">
<title>Node40&#45;&gt;Node15</title>
<path fill="none" stroke="#191970" d="M2413.3842,-414.4979C2424.4586,-390.9437 2443.8767,-343.5732 2443.8767,-301 2443.8767,-301 2443.8767,-301 2443.8767,-122 2443.8767,-84.6364 2417.3711,-47.8655 2399.3038,-27.141"/>
<polygon fill="#191970" stroke="#191970" points="2401.7157,-24.5903 2392.4079,-19.5291 2396.528,-29.29 2401.7157,-24.5903"/>
</g>
<!-- Node40&#45;&gt;Node41 -->
<g id="edge59" class="edge">
<title>Node40&#45;&gt;Node41</title>
<path fill="none" stroke="#191970" d="M2351.1787,-421.501C2334.4012,-419.0678 2315.8826,-416.4026 2298.8767,-414 2195.2094,-399.3541 2075.2996,-382.9344 1999.7788,-372.6567"/>
<polygon fill="#191970" stroke="#191970" points="1999.804,-369.128 1989.4235,-371.2481 1998.8604,-376.0641 1999.804,-369.128"/>
</g>
<!-- Node42 -->
<g id="node35" class="node">
<title>Node42</title>
<polygon fill="#ffffff" stroke="#bfbfbf" points="2350.3767,-353 2350.3767,-372 2415.3767,-372 2415.3767,-353 2350.3767,-353"/>
<text text-anchor="middle" x="2382.8767" y="-360" font-family="Helvetica,sans-Serif" font-size="10.00" fill="#000000">functional</text>
</g>
<!-- Node40&#45;&gt;Node42 -->
<g id="edge63" class="edge">
<title>Node40&#45;&gt;Node42</title>
<path fill="none" stroke="#191970" d="M2400.6576,-414.2967C2397.3524,-404.6685 2393.0488,-392.1318 2389.5033,-381.8038"/>
<polygon fill="#191970" stroke="#191970" points="2392.714,-380.3768 2386.1567,-372.055 2386.0933,-382.6496 2392.714,-380.3768"/>
</g>
<!-- Node41&#45;&gt;Node15 -->
<g id="edge60" class="edge">
<title>Node41&#45;&gt;Node15</title>
<path fill="none" stroke="#191970" d="M1965.1279,-352.9105C2066.0568,-327.6988 2321.8767,-256.0931 2321.8767,-178 2321.8767,-178 2321.8767,-178 2321.8767,-122 2321.8767,-84.6364 2348.3822,-47.8655 2366.4495,-27.141"/>
<polygon fill="#191970" stroke="#191970" points="2369.2253,-29.29 2373.3454,-19.5291 2364.0376,-24.5903 2369.2253,-29.29"/>
</g>
<!-- Node41&#45;&gt;Node38 -->
<g id="edge61" class="edge">
<title>Node41&#45;&gt;Node38</title>
<path fill="none" stroke="#191970" d="M1887.0194,-352.9581C1839.2084,-340.9074 1757.7824,-320.384 1712.9097,-309.0739"/>
<polygon fill="#191970" stroke="#191970" points="1713.6744,-305.6573 1703.1222,-306.607 1711.9635,-312.445 1713.6744,-305.6573"/>
</g>
<!-- Node43&#45;&gt;Node32 -->
<g id="edge72" class="edge">
<title>Node43&#45;&gt;Node32</title>
<path fill="none" stroke="#191970" d="M1933.8199,-615.4806C1819.5711,-591.2814 1533.137,-523.719 1481.8767,-445 1474.3583,-433.4543 1474.4429,-425.6002 1481.8767,-414 1493.9884,-395.1 1514.9769,-383.042 1535.5349,-375.3923"/>
<polygon fill="#191970" stroke="#191970" points="1536.901,-378.6243 1545.2329,-372.0798 1534.6384,-372 1536.901,-378.6243"/>
</g>
<!-- Node43&#45;&gt;Node35 -->
<g id="edge76" class="edge">
<title>Node43&#45;&gt;Node35</title>
<path fill="none" stroke="#191970" d="M1920.1369,-623.0565C1701.7596,-615.4876 965.4819,-584.7258 891.8767,-512 877.0733,-497.3735 875.1131,-473.1526 876.2391,-454.7284"/>
<polygon fill="#191970" stroke="#191970" points="879.7335,-454.9504 877.1849,-444.6667 872.7643,-454.2952 879.7335,-454.9504"/>
</g>
<!-- Node43&#45;&gt;Node41 -->
<g id="edge103" class="edge">
<title>Node43&#45;&gt;Node41</title>
<path fill="none" stroke="#191970" d="M2041.4423,-618.9237C2076.0038,-613.063 2118.7108,-601.5611 2150.8767,-579 2217.1298,-532.5301 2280.0857,-475.8316 2227.8767,-414 2213.2596,-396.6889 2084.664,-379.679 1999.7643,-370.1907"/>
<polygon fill="#191970" stroke="#191970" points="1999.962,-366.6913 1989.6379,-369.0713 1999.1928,-373.6489 1999.962,-366.6913"/>
</g>
<!-- Node44 -->
<g id="node37" class="node">
<title>Node44</title>
<g id="a_node37"><a xlink:href="../../d7/d86/GeoLocation_8h.html" target="_top" xlink:title="carla/geom/GeoLocation.h">
<polygon fill="#ffffff" stroke="#000000" points="1132.8767,-230 1132.8767,-249 1276.8767,-249 1276.8767,-230 1132.8767,-230"/>
<text text-anchor="middle" x="1204.8767" y="-237" font-family="Helvetica,sans-Serif" font-size="10.00" fill="#000000">carla/geom/GeoLocation.h</text>
</a>
</g>
</g>
<!-- Node43&#45;&gt;Node44 -->
<g id="edge65" class="edge">
<title>Node43&#45;&gt;Node44</title>
<path fill="none" stroke="#191970" d="M1920.2383,-623.3533C1796.3369,-619.4354 1518.2138,-607.6554 1427.8767,-579 1371.8581,-561.2306 1352.1836,-556.5691 1313.8767,-512 1246.2323,-433.2977 1217.2292,-307.3415 1208.1986,-259.1372"/>
<polygon fill="#191970" stroke="#191970" points="1211.6105,-258.3336 1206.4022,-249.1074 1204.7201,-259.5678 1211.6105,-258.3336"/>
</g>
<!-- Node45 -->
<g id="node38" class="node">
<title>Node45</title>
<g id="a_node38"><a xlink:href="../../d7/ddd/Iterator_8h.html" target="_top" xlink:title="carla/Iterator.h">
<polygon fill="#ffffff" stroke="#000000" points="2084.8767,-487 2084.8767,-506 2172.8767,-506 2172.8767,-487 2084.8767,-487"/>
<text text-anchor="middle" x="2128.8767" y="-494" font-family="Helvetica,sans-Serif" font-size="10.00" fill="#000000">carla/Iterator.h</text>
</a>
</g>
</g>
<!-- Node43&#45;&gt;Node45 -->
<g id="edge67" class="edge">
<title>Node43&#45;&gt;Node45</title>
<path fill="none" stroke="#191970" d="M2007.3326,-615.4801C2026.4323,-607.7073 2052.0659,-595.3415 2070.8767,-579 2091.9541,-560.6894 2109.2783,-533.1781 2119.3464,-515.034"/>
<polygon fill="#191970" stroke="#191970" points="2122.5303,-516.5026 2124.171,-506.0356 2116.3611,-513.1948 2122.5303,-516.5026"/>
</g>
<!-- Node46 -->
<g id="node39" class="node">
<title>Node46</title>
<polygon fill="#ffffff" stroke="#bfbfbf" points="2084.8767,-414.5 2084.8767,-444.5 2218.8767,-444.5 2218.8767,-414.5 2084.8767,-414.5"/>
<text text-anchor="start" x="2092.8767" y="-432.5" font-family="Helvetica,sans-Serif" font-size="10.00" fill="#000000">boost/iterator/transform</text>
<text text-anchor="middle" x="2151.8767" y="-421.5" font-family="Helvetica,sans-Serif" font-size="10.00" fill="#000000">_iterator.hpp</text>
</g>
<!-- Node43&#45;&gt;Node46 -->
<g id="edge110" class="edge">
<title>Node43&#45;&gt;Node46</title>
<path fill="none" stroke="#191970" d="M2026.4135,-615.3946C2076.2962,-602.0281 2153.0487,-572.3192 2181.8767,-512 2191.0259,-492.8563 2181.3517,-470.1354 2170.6214,-453.3895"/>
<polygon fill="#191970" stroke="#191970" points="2173.2264,-451.0022 2164.6644,-444.7617 2167.466,-454.9794 2173.2264,-451.0022"/>
</g>
<!-- Node47 -->
<g id="node40" class="node">
<title>Node47</title>
<g id="a_node40"><a xlink:href="../../d4/d50/LibCarla_2source_2carla_2ListView_8h.html" target="_top" xlink:title="carla/ListView.h">
<polygon fill="#ffffff" stroke="#ff0000" points="1928.3767,-112.5 1928.3767,-131.5 2021.3767,-131.5 2021.3767,-112.5 1928.3767,-112.5"/>
<text text-anchor="middle" x="1974.8767" y="-119.5" font-family="Helvetica,sans-Serif" font-size="10.00" fill="#000000">carla/ListView.h</text>
</a>
</g>
</g>
<!-- Node43&#45;&gt;Node47 -->
<g id="edge69" class="edge">
<title>Node43&#45;&gt;Node47</title>
<path fill="none" stroke="#191970" d="M2041.6226,-620.7041C2084.2804,-615.5313 2141.4226,-604.1299 2185.8767,-579 2254.4906,-540.2125 2279.9699,-487.2525 2250.8767,-414 2198.5592,-282.2724 2055.42,-175.7 1998.5886,-137.3353"/>
<polygon fill="#191970" stroke="#191970" points="2000.1936,-134.199 1989.9302,-131.5695 1996.3137,-140.0254 2000.1936,-134.199"/>
</g>
<!-- Node49 -->
<g id="node41" class="node">
<title>Node49</title>
<g id="a_node41"><a xlink:href="../../de/d4a/Controller_8h.html" target="_top" xlink:title="carla/road/Controller.h">
<polygon fill="#ffffff" stroke="#ff0000" points="1827.3767,-420 1827.3767,-439 1952.3767,-439 1952.3767,-420 1827.3767,-420"/>
<text text-anchor="middle" x="1889.8767" y="-427" font-family="Helvetica,sans-Serif" font-size="10.00" fill="#000000">carla/road/Controller.h</text>
</a>
</g>
</g>
<!-- Node43&#45;&gt;Node49 -->
<g id="edge73" class="edge">
<title>Node43&#45;&gt;Node49</title>
<path fill="none" stroke="#191970" d="M1985.5653,-615.3347C1996.7518,-590.7508 2022.1147,-524.6976 1994.8767,-481 1983.2469,-462.3426 1962.6701,-450.2547 1942.7957,-442.5168"/>
<polygon fill="#191970" stroke="#191970" points="1943.7324,-439.1346 1933.1378,-439.0578 1941.3721,-445.7247 1943.7324,-439.1346"/>
</g>
<!-- Node51 -->
<g id="node42" class="node">
<title>Node51</title>
<g id="a_node42"><a xlink:href="../../d1/d3a/road_2Junction_8h.html" target="_top" xlink:title="carla/road/Junction.h">
<polygon fill="#ffffff" stroke="#ff0000" points="1616.8767,-420 1616.8767,-439 1732.8767,-439 1732.8767,-420 1616.8767,-420"/>
<text text-anchor="middle" x="1674.8767" y="-427" font-family="Helvetica,sans-Serif" font-size="10.00" fill="#000000">carla/road/Junction.h</text>
</a>
</g>
</g>
<!-- Node43&#45;&gt;Node51 -->
<g id="edge77" class="edge">
<title>Node43&#45;&gt;Node51</title>
<path fill="none" stroke="#191970" d="M1965.7021,-615.3051C1916.1362,-583.6381 1758.7356,-483.0765 1698.5717,-444.6385"/>
<polygon fill="#191970" stroke="#191970" points="1700.0934,-441.4574 1689.782,-439.0229 1696.3246,-447.3562 1700.0934,-441.4574"/>
</g>
<!-- Node54 -->
<g id="node43" class="node">
<title>Node54</title>
<polygon fill="#ffffff" stroke="#bfbfbf" points="1749.3767,-353 1749.3767,-372 1842.3767,-372 1842.3767,-353 1749.3767,-353"/>
<text text-anchor="middle" x="1795.8767" y="-360" font-family="Helvetica,sans-Serif" font-size="10.00" fill="#000000">unordered_map</text>
</g>
<!-- Node43&#45;&gt;Node54 -->
<g id="edge111" class="edge">
<title>Node43&#45;&gt;Node54</title>
<path fill="none" stroke="#191970" d="M1991.7315,-615.2679C2000.411,-606.7019 2011.9184,-593.3808 2016.8767,-579 2021.7454,-564.8791 2022.3263,-501.151 2014.8767,-481 2001.615,-445.1274 1992.4963,-435.5155 1960.8767,-414 1955.6217,-410.4243 1885.0341,-389.0191 1837.904,-374.9539"/>
<polygon fill="#191970" stroke="#191970" points="1838.818,-371.5742 1828.2349,-372.073 1836.8192,-378.2828 1838.818,-371.5742"/>
</g>
<!-- Node56 -->
<g id="node44" class="node">
<title>Node56</title>
<g id="a_node44"><a xlink:href="../../db/d48/Road_8h.html" target="_top" xlink:title="carla/road/Road.h">
<polygon fill="#ffffff" stroke="#ff0000" points="1437.3767,-554 1437.3767,-573 1538.3767,-573 1538.3767,-554 1437.3767,-554"/>
<text text-anchor="middle" x="1487.8767" y="-561" font-family="Helvetica,sans-Serif" font-size="10.00" fill="#000000">carla/road/Road.h</text>
</a>
</g>
</g>
<!-- Node43&#45;&gt;Node56 -->
<g id="edge83" class="edge">
<title>Node43&#45;&gt;Node56</title>
<path fill="none" stroke="#191970" d="M1920.2933,-620.9248C1837.0607,-614.7728 1682.8669,-601.391 1552.8767,-579 1546.7244,-577.9403 1540.2865,-576.6412 1533.9549,-575.2502"/>
<polygon fill="#191970" stroke="#191970" points="1534.6775,-571.8251 1524.1491,-573.0098 1533.1183,-578.6493 1534.6775,-571.8251"/>
</g>
<!-- Node66 -->
<g id="node47" class="node">
<title>Node66</title>
<g id="a_node47"><a xlink:href="../../d0/def/Signal_8h.html" target="_top" xlink:title="carla/road/Signal.h">
<polygon fill="#ffffff" stroke="#ff0000" points="1491.3767,-420 1491.3767,-439 1598.3767,-439 1598.3767,-420 1491.3767,-420"/>
<text text-anchor="middle" x="1544.8767" y="-427" font-family="Helvetica,sans-Serif" font-size="10.00" fill="#000000">carla/road/Signal.h</text>
</a>
</g>
</g>
<!-- Node43&#45;&gt;Node66 -->
<g id="edge104" class="edge">
<title>Node43&#45;&gt;Node66</title>
<path fill="none" stroke="#191970" d="M1953.012,-615.4856C1927.6916,-606.6462 1889.4315,-592.8038 1856.8767,-579 1749.6751,-533.5449 1625.9165,-471.2018 1572.1522,-443.6146"/>
<polygon fill="#191970" stroke="#191970" points="1573.7372,-440.494 1563.2436,-439.0325 1570.5354,-446.7189 1573.7372,-440.494"/>
</g>
<!-- Node44&#45;&gt;Node5 -->
<g id="edge66" class="edge">
<title>Node44&#45;&gt;Node5</title>
<path fill="none" stroke="#191970" d="M1214.6149,-229.8845C1234.7504,-210.0028 1281.1981,-164.1406 1306.5677,-139.0908"/>
<polygon fill="#191970" stroke="#191970" points="1309.3472,-141.265 1314.0038,-131.7484 1304.4289,-136.284 1309.3472,-141.265"/>
</g>
<!-- Node45&#45;&gt;Node46 -->
<g id="edge68" class="edge">
<title>Node45&#45;&gt;Node46</title>
<path fill="none" stroke="#191970" d="M2132.172,-486.9005C2135.1118,-478.3368 2139.5441,-465.4252 2143.461,-454.0152"/>
<polygon fill="#191970" stroke="#191970" points="2146.7834,-455.1164 2146.7199,-444.5218 2140.1626,-452.8436 2146.7834,-455.1164"/>
</g>
<!-- Node47&#45;&gt;Node7 -->
<g id="edge70" class="edge">
<title>Node47&#45;&gt;Node7</title>
<path fill="none" stroke="#191970" d="M1966.111,-112.241C1954.0932,-99.0324 1931.6231,-74.9393 1910.8767,-56 1899.4645,-45.5819 1886.0436,-34.6898 1875.0922,-26.1209"/>
<polygon fill="#191970" stroke="#191970" points="1876.975,-23.1524 1866.9244,-19.8005 1872.6911,-28.6885 1876.975,-23.1524"/>
</g>
<!-- Node47&#45;&gt;Node18 -->
<g id="edge71" class="edge">
<title>Node47&#45;&gt;Node18</title>
<path fill="none" stroke="#191970" d="M1956.4606,-112.4509C1918.4418,-92.7375 1831.095,-47.4465 1786.3671,-24.2543"/>
<polygon fill="#191970" stroke="#191970" points="1787.7348,-21.021 1777.2461,-19.5249 1784.5125,-27.2353 1787.7348,-21.021"/>
</g>
<!-- Node49&#45;&gt;Node32 -->
<g id="edge74" class="edge">
<title>Node49&#45;&gt;Node32</title>
<path fill="none" stroke="#191970" d="M1847.7814,-419.9717C1794.7809,-407.975 1703.7285,-387.3651 1646.2757,-374.3606"/>
<polygon fill="#191970" stroke="#191970" points="1646.8319,-370.898 1636.3059,-372.1039 1645.2865,-377.7253 1646.8319,-370.898"/>
</g>
<!-- Node49&#45;&gt;Node41 -->
<g id="edge75" class="edge">
<title>Node49&#45;&gt;Node41</title>
<path fill="none" stroke="#191970" d="M1894.8913,-419.9005C1900.1413,-409.8505 1908.5195,-393.8122 1915.0869,-381.2403"/>
<polygon fill="#191970" stroke="#191970" points="1918.3433,-382.5657 1919.8713,-372.0817 1912.1389,-379.3246 1918.3433,-382.5657"/>
</g>
<!-- Node51&#45;&gt;Node3 -->
<g id="edge81" class="edge">
<title>Node51&#45;&gt;Node3</title>
<path fill="none" stroke="#191970" d="M1636.9135,-419.9993C1627.1693,-417.7945 1616.6722,-415.6215 1606.8767,-414 1454.7804,-388.8236 1412.0264,-412.9597 1261.8767,-378 1223.1188,-368.9759 1216.3828,-357.0442 1177.8767,-347 1086.4709,-323.1572 975.4953,-309.7749 920.7605,-304.1694"/>
<polygon fill="#191970" stroke="#191970" points="920.8848,-300.6644 910.5859,-303.1512 920.1877,-307.6296 920.8848,-300.6644"/>
</g>
<!-- Node51&#45;&gt;Node32 -->
<g id="edge78" class="edge">
<title>Node51&#45;&gt;Node32</title>
<path fill="none" stroke="#191970" d="M1663.2713,-419.9005C1650.2792,-409.1539 1629.0093,-391.5603 1613.4369,-378.6794"/>
<polygon fill="#191970" stroke="#191970" points="1615.3969,-375.7585 1605.4605,-372.0817 1610.9352,-381.1524 1615.3969,-375.7585"/>
</g>
<!-- Node51&#45;&gt;Node38 -->
<g id="edge82" class="edge">
<title>Node51&#45;&gt;Node38</title>
<path fill="none" stroke="#191970" d="M1679.8286,-419.9459C1684.7663,-409.839 1692.0152,-393.2725 1694.8767,-378 1697.4139,-364.4579 1696.9045,-360.6277 1694.8767,-347 1693.5439,-338.0439 1690.8272,-328.419 1688.1386,-320.3"/>
<polygon fill="#191970" stroke="#191970" points="1691.3702,-318.9402 1684.739,-310.6772 1684.77,-321.272 1691.3702,-318.9402"/>
</g>
<!-- Node51&#45;&gt;Node41 -->
<g id="edge79" class="edge">
<title>Node51&#45;&gt;Node41</title>
<path fill="none" stroke="#191970" d="M1710.4301,-419.9717C1754.7306,-408.0991 1830.5076,-387.7909 1879.1047,-374.7669"/>
<polygon fill="#191970" stroke="#191970" points="1880.2881,-378.0733 1889.0411,-372.1039 1878.4759,-371.3119 1880.2881,-378.0733"/>
</g>
<!-- Node51&#45;&gt;Node54 -->
<g id="edge80" class="edge">
<title>Node51&#45;&gt;Node54</title>
<path fill="none" stroke="#191970" d="M1692.213,-419.9005C1712.4297,-408.7062 1746.0638,-390.0823 1769.519,-377.0947"/>
<polygon fill="#191970" stroke="#191970" points="1771.5195,-379.9878 1778.5725,-372.0817 1768.1286,-373.8639 1771.5195,-379.9878"/>
</g>
<!-- Node56&#45;&gt;Node2 -->
<g id="edge84" class="edge">
<title>Node56&#45;&gt;Node2</title>
<path fill="none" stroke="#191970" d="M1452.631,-553.9363C1417.3009,-544.1468 1361.4682,-528.1228 1313.8767,-512 1277.3683,-499.6319 1269.8768,-491.8081 1232.8767,-481 1156.6555,-458.7352 1122.7608,-490.7758 1057.8767,-445 1035.8223,-429.4406 1021.7205,-400.777 1014.2988,-381.6738"/>
<polygon fill="#191970" stroke="#191970" points="1017.5575,-380.3936 1010.8547,-372.1885 1010.9778,-382.7826 1017.5575,-380.3936"/>
</g>
<!-- Node56&#45;&gt;Node3 -->
<g id="edge102" class="edge">
<title>Node56&#45;&gt;Node3</title>
<path fill="none" stroke="#191970" d="M1437.349,-556.1722C1385.3988,-547.9717 1302.4868,-533.022 1232.8767,-512 1197.9547,-501.4537 1191.755,-491.6897 1156.8767,-481 1082.62,-458.2415 1054.9433,-480.5218 985.8767,-445 966.2956,-434.9292 924.8871,-396.455 912.8767,-378 901.3709,-360.3205 894.4365,-337.0302 890.6582,-320.7117"/>
<polygon fill="#191970" stroke="#191970" points="894.0296,-319.738 888.5293,-310.6828 887.1821,-321.1916 894.0296,-319.738"/>
</g>
<!-- Node56&#45;&gt;Node32 -->
<g id="edge87" class="edge">
<title>Node56&#45;&gt;Node32</title>
<path fill="none" stroke="#191970" d="M1493.3579,-553.9816C1501.7973,-537.9592 1515.722,-505.0018 1502.8767,-481 1489.2662,-455.5686 1462.4871,-470.4314 1448.8767,-445 1442.3755,-432.8525 1440.9301,-425.2552 1448.8767,-414 1459.8971,-398.3909 1503.8774,-384.1455 1540.5409,-374.6136"/>
<polygon fill="#191970" stroke="#191970" points="1541.8194,-377.9004 1550.6544,-372.0529 1540.1012,-371.1146 1541.8194,-377.9004"/>
</g>
<!-- Node56&#45;&gt;Node35 -->
<g id="edge88" class="edge">
<title>Node56&#45;&gt;Node35</title>
<path fill="none" stroke="#191970" d="M1437.3152,-555.3744C1380.5387,-546.0007 1285.7569,-529.6031 1204.8767,-512 1113.7113,-492.1584 1009.3108,-464.8246 943.9801,-447.1569"/>
<polygon fill="#191970" stroke="#191970" points="944.8024,-443.7535 934.2349,-444.5147 942.9706,-450.5096 944.8024,-443.7535"/>
</g>
<!-- Node56&#45;&gt;Node41 -->
<g id="edge100" class="edge">
<title>Node56&#45;&gt;Node41</title>
<path fill="none" stroke="#191970" d="M1538.3992,-558.5503C1649.3946,-546.5251 1908.795,-511.7392 1960.8767,-445 1976.4673,-425.0217 1957.8605,-397.2498 1942.1254,-379.5747"/>
<polygon fill="#191970" stroke="#191970" points="1944.6264,-377.125 1935.231,-372.2284 1939.5221,-381.9153 1944.6264,-377.125"/>
</g>
<!-- Node56&#45;&gt;Node45 -->
<g id="edge85" class="edge">
<title>Node56&#45;&gt;Node45</title>
<path fill="none" stroke="#191970" d="M1538.4424,-558.2147C1656.9345,-545.8294 1951.7518,-515.0138 2074.205,-502.2145"/>
<polygon fill="#191970" stroke="#191970" points="2074.8821,-505.6629 2084.464,-501.1422 2074.1543,-498.7008 2074.8821,-505.6629"/>
</g>
<!-- Node56&#45;&gt;Node47 -->
<g id="edge86" class="edge">
<title>Node56&#45;&gt;Node47</title>
<path fill="none" stroke="#191970" d="M1538.3776,-559.7075C1629.3025,-552.4056 1816.7734,-535.0552 1877.8767,-512 1963.3305,-479.7569 2018.8767,-453.8344 2018.8767,-362.5 2018.8767,-362.5 2018.8767,-362.5 2018.8767,-239.5 2018.8767,-202.4993 1999.5048,-162.8689 1986.4686,-140.3889"/>
<polygon fill="#191970" stroke="#191970" points="1989.3351,-138.3642 1981.1808,-131.5998 1983.337,-141.9729 1989.3351,-138.3642"/>
</g>
<!-- Node56&#45;&gt;Node51 -->
<g id="edge89" class="edge">
<title>Node56&#45;&gt;Node51</title>
<path fill="none" stroke="#191970" d="M1501.3252,-553.8631C1533.2674,-530.974 1613.9342,-473.17 1653.0024,-445.1746"/>
<polygon fill="#191970" stroke="#191970" points="1655.4601,-447.7194 1661.5499,-439.0496 1651.3827,-442.0294 1655.4601,-447.7194"/>
</g>
<!-- Node56&#45;&gt;Node54 -->
<g id="edge101" class="edge">
<title>Node56&#45;&gt;Node54</title>
<path fill="none" stroke="#191970" d="M1522.9302,-553.9262C1575.3487,-538.2227 1675.1232,-502.8279 1741.8767,-445 1762.5096,-427.1259 1778.3909,-399.5073 1787.4341,-381.2202"/>
<polygon fill="#191970" stroke="#191970" points="1790.6169,-382.6769 1791.7413,-372.1419 1784.2926,-379.6763 1790.6169,-382.6769"/>
</g>
<!-- Node63 -->
<g id="node45" class="node">
<title>Node63</title>
<g id="a_node45"><a xlink:href="../../d6/dfd/LaneSection_8h.html" target="_top" xlink:title="carla/road/LaneSection.h">
<polygon fill="#ffffff" stroke="#ff0000" points="1323.3767,-487 1323.3767,-506 1460.3767,-506 1460.3767,-487 1323.3767,-487"/>
<text text-anchor="middle" x="1391.8767" y="-494" font-family="Helvetica,sans-Serif" font-size="10.00" fill="#000000">carla/road/LaneSection.h</text>
</a>
</g>
</g>
<!-- Node56&#45;&gt;Node63 -->
<g id="edge90" class="edge">
<title>Node56&#45;&gt;Node63</title>
<path fill="none" stroke="#191970" d="M1474.1222,-553.9005C1458.439,-542.9549 1432.5783,-524.9064 1414.0409,-511.9688"/>
<polygon fill="#191970" stroke="#191970" points="1415.8091,-508.9347 1405.6056,-506.0817 1411.8028,-514.675 1415.8091,-508.9347"/>
</g>
<!-- Node63&#45;&gt;Node3 -->
<g id="edge99" class="edge">
<title>Node63&#45;&gt;Node3</title>
<path fill="none" stroke="#191970" d="M1323.3093,-489.0145C1240.2337,-479.4088 1105.4782,-461.9544 1057.8767,-445 1002.5142,-425.2814 987.5739,-417.2986 943.8767,-378 924.8551,-360.8932 908.1142,-336.5462 897.78,-319.8348"/>
<polygon fill="#191970" stroke="#191970" points="900.6168,-317.7601 892.467,-310.9901 894.6162,-321.3647 900.6168,-317.7601"/>
</g>
<!-- Node63&#45;&gt;Node32 -->
<g id="edge91" class="edge">
<title>Node63&#45;&gt;Node32</title>
<path fill="none" stroke="#191970" d="M1385.1047,-486.976C1374.1928,-470.3562 1355.6062,-435.7578 1372.8767,-414 1375.5213,-410.6683 1475.2405,-388.38 1539.8112,-374.2376"/>
<polygon fill="#191970" stroke="#191970" points="1540.8309,-377.5974 1549.8524,-372.0419 1539.3355,-370.759 1540.8309,-377.5974"/>
</g>
<!-- Node63&#45;&gt;Node41 -->
<g id="edge98" class="edge">
<title>Node63&#45;&gt;Node41</title>
<path fill="none" stroke="#191970" d="M1460.4976,-492.049C1531.9481,-486.1132 1646.535,-472.9136 1741.8767,-445 1772.5047,-436.0329 1852.9738,-397.6703 1896.2926,-376.5623"/>
<polygon fill="#191970" stroke="#191970" points="1897.9981,-379.6245 1905.4461,-372.0894 1894.9247,-373.3352 1897.9981,-379.6245"/>
</g>
<!-- Node64 -->
<g id="node46" class="node">
<title>Node64</title>
<g id="a_node46"><a xlink:href="../../d8/d27/Lane_8h.html" target="_top" xlink:title="carla/road/Lane.h">
<polygon fill="#ffffff" stroke="#ff0000" points="1067.3767,-420 1067.3767,-439 1168.3767,-439 1168.3767,-420 1067.3767,-420"/>
<text text-anchor="middle" x="1117.8767" y="-427" font-family="Helvetica,sans-Serif" font-size="10.00" fill="#000000">carla/road/Lane.h</text>
</a>
</g>
</g>
<!-- Node63&#45;&gt;Node64 -->
<g id="edge92" class="edge">
<title>Node63&#45;&gt;Node64</title>
<path fill="none" stroke="#191970" d="M1352.9101,-486.9717C1304.052,-475.0246 1220.2613,-454.5357 1167.0434,-441.5225"/>
<polygon fill="#191970" stroke="#191970" points="1167.6976,-438.0794 1157.1524,-439.1039 1166.0348,-444.8791 1167.6976,-438.0794"/>
</g>
<!-- Node64&#45;&gt;Node2 -->
<g id="edge93" class="edge">
<title>Node64&#45;&gt;Node2</title>
<path fill="none" stroke="#191970" d="M1102.1163,-419.9005C1083.9009,-408.8057 1053.7037,-390.4128 1032.4089,-377.4424"/>
<polygon fill="#191970" stroke="#191970" points="1033.9689,-374.2945 1023.6077,-372.0817 1030.3275,-380.2728 1033.9689,-374.2945"/>
</g>
<!-- Node64&#45;&gt;Node3 -->
<g id="edge96" class="edge">
<title>Node64&#45;&gt;Node3</title>
<path fill="none" stroke="#191970" d="M1115.1767,-419.9251C1109.7775,-402.5869 1095.9608,-366.0282 1070.8767,-347 1047.4021,-329.1928 966.8253,-313.8021 920.4568,-306.1518"/>
<polygon fill="#191970" stroke="#191970" points="920.9934,-302.6932 910.5627,-304.5512 919.8754,-309.6034 920.9934,-302.6932"/>
</g>
<!-- Node64&#45;&gt;Node17 -->
<g id="edge97" class="edge">
<title>Node64&#45;&gt;Node17</title>
<path fill="none" stroke="#191970" d="M1117.1062,-419.7912C1115.4998,-403.7729 1110.7961,-371.1769 1097.8767,-347 1020.1698,-201.5821 864.897,-70.5914 808.7472,-26.1002"/>
<polygon fill="#191970" stroke="#191970" points="810.6403,-23.1366 800.6137,-19.7134 806.3171,-28.6421 810.6403,-23.1366"/>
</g>
<!-- Node64&#45;&gt;Node26 -->
<g id="edge94" class="edge">
<title>Node64&#45;&gt;Node26</title>
<path fill="none" stroke="#191970" d="M1149.254,-419.9005C1187.796,-408.1091 1253.2819,-388.0746 1295.8002,-375.0668"/>
<polygon fill="#191970" stroke="#191970" points="1297.019,-378.3541 1305.5575,-372.0817 1294.971,-371.6604 1297.019,-378.3541"/>
</g>
<!-- Node64&#45;&gt;Node41 -->
<g id="edge95" class="edge">
<title>Node64&#45;&gt;Node41</title>
<path fill="none" stroke="#191970" d="M1168.7784,-428.3102C1288.349,-424.996 1596.2765,-413.4398 1850.8767,-378 1858.5552,-376.9312 1866.6295,-375.5305 1874.5084,-374.008"/>
<polygon fill="#191970" stroke="#191970" points="1875.226,-377.4338 1884.3391,-372.0301 1873.8452,-370.5713 1875.226,-377.4338"/>
</g>
<!-- Node66&#45;&gt;Node3 -->
<g id="edge109" class="edge">
<title>Node66&#45;&gt;Node3</title>
<path fill="none" stroke="#191970" d="M1491.2729,-421.9462C1428.2457,-412.7916 1320.5901,-396.3012 1228.8767,-378 1170.2032,-366.2919 1156.2186,-360.2615 1097.8767,-347 1035.3566,-332.7888 962.2102,-317.0375 920.5321,-308.145"/>
<polygon fill="#191970" stroke="#191970" points="921.1495,-304.698 910.6396,-306.0371 919.6906,-311.5444 921.1495,-304.698"/>
</g>
<!-- Node66&#45;&gt;Node26 -->
<g id="edge107" class="edge">
<title>Node66&#45;&gt;Node26</title>
<path fill="none" stroke="#191970" d="M1515.0753,-419.9005C1478.5465,-408.134 1416.5349,-388.1591 1376.1458,-375.1492"/>
<polygon fill="#191970" stroke="#191970" points="1377.2142,-371.8163 1366.6227,-372.0817 1375.068,-378.4792 1377.2142,-371.8163"/>
</g>
<!-- Node66&#45;&gt;Node32 -->
<g id="edge105" class="edge">
<title>Node66&#45;&gt;Node32</title>
<path fill="none" stroke="#191970" d="M1551.8972,-419.9005C1559.3927,-409.6515 1571.4429,-393.1747 1580.7142,-380.4976"/>
<polygon fill="#191970" stroke="#191970" points="1583.7911,-382.2195 1586.8692,-372.0817 1578.1409,-378.0873 1583.7911,-382.2195"/>
</g>
<!-- Node66&#45;&gt;Node38 -->
<g id="edge108" class="edge">
<title>Node66&#45;&gt;Node38</title>
<path fill="none" stroke="#191970" d="M1589.9565,-419.9712C1614.5755,-412.5191 1643.6686,-399.6598 1661.8767,-378 1675.2664,-362.0719 1679.4687,-338.1157 1680.6646,-321.1606"/>
<polygon fill="#191970" stroke="#191970" points="1684.1797,-320.8595 1681.0882,-310.7258 1677.1854,-320.5755 1684.1797,-320.8595"/>
</g>
<!-- Node66&#45;&gt;Node41 -->
<g id="edge106" class="edge">
<title>Node66&#45;&gt;Node41</title>
<path fill="none" stroke="#191970" d="M1581.0595,-419.9794C1589.8037,-417.8502 1599.1456,-415.7169 1607.8767,-414 1715.004,-392.9349 1743.3994,-397.1999 1850.8767,-378 1857.5615,-376.8058 1864.5666,-375.4613 1871.4895,-374.0759"/>
<polygon fill="#191970" stroke="#191970" points="1872.4274,-377.4568 1881.5267,-372.0298 1871.0291,-370.5979 1872.4274,-377.4568"/>
</g>
<!-- Node73&#45;&gt;Node2 -->
<g id="edge116" class="edge">
<title>Node73&#45;&gt;Node2</title>
<path fill="none" stroke="#191970" d="M763.9622,-615.4058C754.5719,-582.3475 728.7513,-472.0277 782.8767,-414 804.4194,-390.904 884.7396,-376.7247 943.2855,-369.2379"/>
<polygon fill="#191970" stroke="#191970" points="943.7196,-372.711 953.2121,-368.0053 942.857,-365.7643 943.7196,-372.711"/>
</g>
<!-- Node73&#45;&gt;Node3 -->
<g id="edge115" class="edge">
<title>Node73&#45;&gt;Node3</title>
<path fill="none" stroke="#191970" d="M760.7594,-615.3981C737.1796,-577.0568 656.68,-432.859 721.8767,-347 737.7019,-326.1594 809.7475,-312.2334 853.2362,-305.5642"/>
<polygon fill="#191970" stroke="#191970" points="853.985,-308.9915 863.3635,-304.0627 852.9583,-302.0672 853.985,-308.9915"/>
</g>
<!-- Node73&#45;&gt;Node17 -->
<g id="edge114" class="edge">
<title>Node73&#45;&gt;Node17</title>
<path fill="none" stroke="#191970" d="M753.0678,-615.2944C692.6864,-572.623 454.8767,-402.0527 454.8767,-362.5 454.8767,-362.5 454.8767,-362.5 454.8767,-122 454.8767,-74.5213 495.6086,-75.5472 538.8767,-56 575.7248,-39.3531 688.1877,-22.8782 748.5691,-14.9237"/>
<polygon fill="#191970" stroke="#191970" points="749.3898,-18.3465 758.8544,-13.5849 748.4862,-11.4051 749.3898,-18.3465"/>
</g>
<!-- Node73&#45;&gt;Node56 -->
<g id="edge117" class="edge">
<title>Node73&#45;&gt;Node56</title>
<path fill="none" stroke="#191970" d="M835.6831,-620.2217C944.3546,-612.522 1162.346,-596.4562 1346.8767,-579 1373.2733,-576.5029 1402.4067,-573.3646 1427.3058,-570.5661"/>
<polygon fill="#191970" stroke="#191970" points="1427.7948,-574.0332 1437.338,-569.4313 1427.008,-567.0776 1427.7948,-574.0332"/>
</g>
<!-- Node73&#45;&gt;Node63 -->
<g id="edge118" class="edge">
<title>Node73&#45;&gt;Node63</title>
<path fill="none" stroke="#191970" d="M835.5801,-619.3731C906.9433,-612.7484 1021.5653,-599.9151 1118.8767,-579 1205.329,-560.4188 1304.024,-527.6114 1355.8043,-509.4703"/>
<polygon fill="#191970" stroke="#191970" points="1357.2499,-512.6719 1365.5174,-506.0462 1354.9226,-506.0701 1357.2499,-512.6719"/>
</g>
<!-- Node73&#45;&gt;Node64 -->
<g id="edge119" class="edge">
<title>Node73&#45;&gt;Node64</title>
<path fill="none" stroke="#191970" d="M810.0789,-615.4695C868.6543,-600.9078 974.3769,-568.6641 1047.8767,-512 1071.8193,-493.5416 1093.3246,-465.684 1105.9939,-447.5414"/>
<polygon fill="#191970" stroke="#191970" points="1109.0463,-449.277 1111.7797,-439.0408 1103.2596,-445.3383 1109.0463,-449.277"/>
</g>
<!-- Node73&#45;&gt;Node74 -->
<g id="edge120" class="edge">
<title>Node73&#45;&gt;Node74</title>
<path fill="none" stroke="#191970" d="M733.9079,-615.3906C702.8397,-606.3352 655.5065,-592.539 617.4538,-581.4479"/>
<polygon fill="#191970" stroke="#191970" points="618.073,-577.9827 607.4931,-578.5446 616.1142,-584.7031 618.073,-577.9827"/>
</g>
<!-- Node74&#45;&gt;Node5 -->
<g id="edge121" class="edge">
<title>Node74&#45;&gt;Node5</title>
<path fill="none" stroke="#191970" d="M551.1744,-548.3984C543.9325,-523.7638 530.8767,-473.2808 530.8767,-429.5 530.8767,-429.5 530.8767,-429.5 530.8767,-239.5 530.8767,-165.1358 1083.6003,-133.0422 1266.1458,-124.4706"/>
<polygon fill="#191970" stroke="#191970" points="1266.5243,-127.9569 1276.3517,-123.9979 1266.2004,-120.9644 1266.5243,-127.9569"/>
</g>
</g>
</svg>
        <g id="navigator" transform="translate(0 0)" fill="#404254">
                <rect fill="#f2f5e9" fill-opacity="0.5" stroke="#606060" stroke-width=".5" x="0" y="0" width="60" height="60"/>
                <use id="zoomplus" xlink:href="#zoomPlus" x="17" y="9" onmousedown="handleZoom(evt,'in')"/>
                <use id="zoomminus" xlink:href="#zoomMin" x="42" y="9" onmousedown="handleZoom(evt,'out')"/>
                <use id="reset" xlink:href="#resetDef" x="30" y="36" onmousedown="handleReset()"/>
                <g id="arrowUp" xlink:href="#dirArrow" transform="translate(30 24)" onmousedown="handlePan(0,-1)">
                  <use xlink:href="#rim" fill="#404040">
                        <set attributeName="fill" to="#808080" begin="arrowUp.mouseover" end="arrowUp.mouseout"/>
                  </use>
                  <path fill="none" stroke="white" stroke-width="1.5" d="M0,-3.0v7 M-2.5,-0.5L0,-3.0L2.5,-0.5"/>
                </g>
                <g id="arrowRight" xlink:href="#dirArrow" transform="rotate(90) translate(36 -43)" onmousedown="handlePan(1,0)">
                  <use xlink:href="#rim" fill="#404040">
                        <set attributeName="fill" to="#808080" begin="arrowRight.mouseover" end="arrowRight.mouseout"/>
                  </use>
                  <path fill="none" stroke="white" stroke-width="1.5" d="M0,-3.0v7 M-2.5,-0.5L0,-3.0L2.5,-0.5"/>
                </g>
                <g id="arrowDown" xlink:href="#dirArrow" transform="rotate(180) translate(-30 -48)" onmousedown="handlePan(0,1)">
                  <use xlink:href="#rim" fill="#404040">
                        <set attributeName="fill" to="#808080" begin="arrowDown.mouseover" end="arrowDown.mouseout"/>
                  </use>
                  <path fill="none" stroke="white" stroke-width="1.5" d="M0,-3.0v7 M-2.5,-0.5L0,-3.0L2.5,-0.5"/>
                </g>
                <g id="arrowLeft" xlink:href="#dirArrow" transform="rotate(270) translate(-36 17)" onmousedown="handlePan(-1,0)">
                  <use xlink:href="#rim" fill="#404040">
                        <set attributeName="fill" to="#808080" begin="arrowLeft.mouseover" end="arrowLeft.mouseout"/>
                  </use>
                  <path fill="none" stroke="white" stroke-width="1.5" d="M0,-3.0v7 M-2.5,-0.5L0,-3.0L2.5,-0.5"/>
                </g>
        </g>
        <svg viewBox="0 0 15 15" width="100%" height="30px" preserveAspectRatio="xMaxYMin meet">
         <g id="arrow_out" transform="scale(0.3 0.3)">
          <a xlink:href="OpenDriveParser_8h__incl_org.svg" target="_base">
           <rect id="button" ry="5" rx="5" y="6" x="6" height="38" width="38"
                fill="#f2f5e9" fill-opacity="0.5" stroke="#606060" stroke-width="1.0"/>
           <path id="arrow"
             d="M 11.500037,31.436501 C 11.940474,20.09759 22.043105,11.32322 32.158766,21.979434 L 37.068811,17.246167 C 37.068811,17.246167 37.088388,32 37.088388,32 L 22.160133,31.978069 C 22.160133,31.978069 26.997745,27.140456 26.997745,27.140456 C 18.528582,18.264221 13.291696,25.230495 11.500037,31.436501 z"
             style="fill:#404040;"/>
          </a>
         </g>
        </svg>
</svg>
