<?xml version="1.0" encoding="UTF-8" standalone="no"?>
<!DOCTYPE svg PUBLIC "-//W3C//DTD SVG 1.1//EN"
 "http://www.w3.org/Graphics/SVG/1.1/DTD/svg11.dtd">
<!-- Generated by graphviz version 2.38.0 (20140413.2041)
 -->
<!-- Title: carla::traffic_manager::BatchControlStage Pages: 1 -->
<!--zoomable 765 -->
<svg id="main" version="1.1" xmlns="http://www.w3.org/2000/svg" xmlns:xlink="http://www.w3.org/1999/xlink" xml:space="preserve" onload="init(evt)">
<style type="text/css"><![CDATA[
.edge:hover path { stroke: red; }
.edge:hover polygon { stroke: red; fill: red; }
]]></style>
<script type="text/javascript"><![CDATA[
var edges = document.getElementsByTagName('g');
if (edges && edges.length) {
  for (var i=0;i<edges.length;i++) {
    if (edges[i].id.substr(0,4)=='edge') {
      edges[i].setAttribute('class','edge');
    }
  }
}
]]></script>
        <defs>
                <circle id="rim" cx="0" cy="0" r="7"/>
                <circle id="rim2" cx="0" cy="0" r="3.5"/>
                <g id="zoomPlus">
                        <use xlink:href="#rim" fill="#404040">
                                <set attributeName="fill" to="#808080" begin="zoomplus.mouseover" end="zoomplus.mouseout"/>
                        </use>
                        <path d="M-4,0h8M0,-4v8" fill="none" stroke="white" stroke-width="1.5" pointer-events="none"/>
                </g>
                <g id="zoomMin">
                        <use xlink:href="#rim" fill="#404040">
                                <set attributeName="fill" to="#808080" begin="zoomminus.mouseover" end="zoomminus.mouseout"/>
                        </use>
                        <path d="M-4,0h8" fill="none" stroke="white" stroke-width="1.5" pointer-events="none"/>
                </g>
                <g id="dirArrow">
                        <path fill="none" stroke="white" stroke-width="1.5" d="M0,-3.0v7 M-2.5,-0.5L0,-3.0L2.5,-0.5"/>
                </g>
               <g id="resetDef">
                       <use xlink:href="#rim2" fill="#404040">
                               <set attributeName="fill" to="#808080" begin="reset.mouseover" end="reset.mouseout"/>
                       </use>
               </g>
        </defs>

<script type="text/javascript">
var viewWidth = 1431;
var viewHeight = 765;
var sectionId = 'dynsection-1';
</script>
<script xlink:href="../../svgpan.js"/>
<svg id="graph" class="graph">
<g id="viewport">
<title>carla::traffic_manager::BatchControlStage</title>
<polygon fill="white" stroke="none" points="-4,4 -4,-761.18 1427,-761.18 1427,4 -4,4"/>
<!-- Node1 -->
<g id="node1" class="node"><title>Node1</title>
<polygon fill="#bfbfbf" stroke="black" points="1301,-275.5 1301,-305.5 1423,-305.5 1423,-275.5 1301,-275.5"/>
<text text-anchor="start" x="1309" y="-293.5" font-family="Helvetica,sans-Serif" font-size="10.00">carla::traffic_manager</text>
<text text-anchor="middle" x="1362" y="-282.5" font-family="Helvetica,sans-Serif" font-size="10.00">::BatchControlStage</text>
</g>
<!-- Node2 -->
<g id="node2" class="node"><title>Node2</title>
<g id="a_node2"><a xlink:href="../../d2/d97/classcarla_1_1traffic__manager_1_1PipelineStage.html" target="_top" xlink:title="This class provides base functionality and template for various stages of the pipeline. ">
<polygon fill="white" stroke="black" points="1008,-536.5 1008,-566.5 1130,-566.5 1130,-536.5 1008,-536.5"/>
<text text-anchor="start" x="1016" y="-554.5" font-family="Helvetica,sans-Serif" font-size="10.00">carla::traffic_manager</text>
<text text-anchor="middle" x="1069" y="-543.5" font-family="Helvetica,sans-Serif" font-size="10.00">::PipelineStage</text>
</a>
</g>
</g>
<!-- Node2&#45;&gt;Node1 -->
<g id="edge1" class="edge"><title>Node2&#45;&gt;Node1</title>
<path fill="none" stroke="midnightblue" d="M1140.36,-550.275C1186.05,-545.909 1244.12,-533.15 1283,-498.5 1342.02,-445.897 1356.53,-344.161 1359.97,-305.713"/>
<polygon fill="midnightblue" stroke="midnightblue" points="1139.89,-546.802 1130.22,-551.127 1140.48,-553.777 1139.89,-546.802"/>
</g>
<!-- Node3 -->
<g id="node3" class="node"><title>Node3</title>
<g id="a_node3"><a xlink:href="../../d5/d1a/classcarla_1_1traffic__manager_1_1PerformanceDiagnostics.html" target="_top" xlink:title="carla::traffic_manager\l::PerformanceDiagnostics">
<polygon fill="white" stroke="black" points="635.5,-629.5 635.5,-659.5 775.5,-659.5 775.5,-629.5 635.5,-629.5"/>
<text text-anchor="start" x="643.5" y="-647.5" font-family="Helvetica,sans-Serif" font-size="10.00">carla::traffic_manager</text>
<text text-anchor="middle" x="705.5" y="-636.5" font-family="Helvetica,sans-Serif" font-size="10.00">::PerformanceDiagnostics</text>
</a>
</g>
</g>
<!-- Node3&#45;&gt;Node2 -->
<g id="edge2" class="edge"><title>Node3&#45;&gt;Node2</title>
<path fill="none" stroke="#9a32cd" stroke-dasharray="5,2" d="M785.608,-632.607C838.445,-623.687 909.145,-609.859 970,-591.5 992.344,-584.759 1016.64,-574.862 1035.45,-566.599"/>
<polygon fill="#9a32cd" stroke="#9a32cd" points="784.911,-629.175 775.622,-634.271 786.061,-636.08 784.911,-629.175"/>
<text text-anchor="middle" x="897.5" y="-628.5" font-family="Helvetica,sans-Serif" font-size="10.00"> performance_diagnostics</text>
</g>
<!-- Node4 -->
<g id="node4" class="node"><title>Node4</title>
<polygon fill="white" stroke="#bfbfbf" points="294.5,-729 294.5,-748 350.5,-748 350.5,-729 294.5,-729"/>
<text text-anchor="middle" x="322.5" y="-736" font-family="Helvetica,sans-Serif" font-size="10.00">uint64_t</text>
</g>
<!-- Node4&#45;&gt;Node1 -->
<g id="edge11" class="edge"><title>Node4&#45;&gt;Node1</title>
<path fill="none" stroke="#9a32cd" stroke-dasharray="5,2" d="M360.914,-743.632C503.897,-760.953 1020.89,-802.238 1283,-536.5 1348.76,-469.833 1359.13,-348.057 1360.73,-305.589"/>
<polygon fill="#9a32cd" stroke="#9a32cd" points="361.248,-740.146 350.892,-742.381 360.382,-747.093 361.248,-740.146"/>
<text text-anchor="middle" x="897.5" y="-742.5" font-family="Helvetica,sans-Serif" font-size="10.00"> number_of_vehicles</text>
</g>
<!-- Node4&#45;&gt;Node3 -->
<g id="edge3" class="edge"><title>Node4&#45;&gt;Node3</title>
<path fill="none" stroke="#9a32cd" stroke-dasharray="5,2" d="M360.776,-733.919C422.807,-726.087 544.503,-709.782 586,-697.5 618.199,-687.97 653.06,-671.579 676.576,-659.542"/>
<polygon fill="#9a32cd" stroke="#9a32cd" points="360.123,-730.473 350.636,-735.19 360.994,-737.418 360.123,-730.473"/>
<text text-anchor="middle" x="514" y="-725.5" font-family="Helvetica,sans-Serif" font-size="10.00"> throughput_counter</text>
</g>
<!-- Node5 -->
<g id="node5" class="node"><title>Node5</title>
<polygon fill="white" stroke="#bfbfbf" points="248.5,-629.5 248.5,-659.5 396.5,-659.5 396.5,-629.5 248.5,-629.5"/>
<text text-anchor="start" x="256.5" y="-647.5" font-family="Helvetica,sans-Serif" font-size="10.00">time_point&lt; chr::system</text>
<text text-anchor="middle" x="322.5" y="-636.5" font-family="Helvetica,sans-Serif" font-size="10.00">_clock, chr::nanoseconds &gt;</text>
</g>
<!-- Node5&#45;&gt;Node3 -->
<g id="edge4" class="edge"><title>Node5&#45;&gt;Node3</title>
<path fill="none" stroke="#9a32cd" stroke-dasharray="5,2" d="M406.823,-644.5C475.245,-644.5 571.01,-644.5 635.268,-644.5"/>
<polygon fill="#9a32cd" stroke="#9a32cd" points="406.51,-641 396.51,-644.5 406.51,-648 406.51,-641"/>
<text text-anchor="middle" x="514" y="-658.5" font-family="Helvetica,sans-Serif" font-size="10.00"> throughput_clock</text>
<text text-anchor="middle" x="514" y="-647.5" font-family="Helvetica,sans-Serif" font-size="10.00">inter_update_clock</text>
</g>
<!-- Node6 -->
<g id="node6" class="node"><title>Node6</title>
<polygon fill="white" stroke="#bfbfbf" points="300.5,-580 300.5,-599 344.5,-599 344.5,-580 300.5,-580"/>
<text text-anchor="middle" x="322.5" y="-587" font-family="Helvetica,sans-Serif" font-size="10.00">string</text>
</g>
<!-- Node6&#45;&gt;Node2 -->
<g id="edge8" class="edge"><title>Node6&#45;&gt;Node2</title>
<path fill="none" stroke="#9a32cd" stroke-dasharray="5,2" d="M354.943,-588.789C448.614,-586.531 733.957,-578.64 970,-561.5 982.281,-560.608 995.406,-559.427 1007.93,-558.19"/>
<polygon fill="#9a32cd" stroke="#9a32cd" points="354.647,-585.295 344.733,-589.031 354.813,-592.293 354.647,-585.295"/>
<text text-anchor="middle" x="705.5" y="-584.5" font-family="Helvetica,sans-Serif" font-size="10.00"> stage_name</text>
</g>
<!-- Node6&#45;&gt;Node3 -->
<g id="edge5" class="edge"><title>Node6&#45;&gt;Node3</title>
<path fill="none" stroke="#9a32cd" stroke-dasharray="5,2" d="M354.662,-593.998C415.604,-602.796 551.875,-622.467 635.211,-634.498"/>
<polygon fill="#9a32cd" stroke="#9a32cd" points="354.924,-590.5 344.527,-592.535 353.924,-597.428 354.924,-590.5"/>
<text text-anchor="middle" x="514" y="-630.5" font-family="Helvetica,sans-Serif" font-size="10.00"> stage_name</text>
</g>
<!-- Node7 -->
<g id="node7" class="node"><title>Node7</title>
<polygon fill="white" stroke="#bfbfbf" points="272.5,-680 272.5,-699 372.5,-699 372.5,-680 272.5,-680"/>
<text text-anchor="middle" x="322.5" y="-687" font-family="Helvetica,sans-Serif" font-size="10.00">duration&lt; float &gt;</text>
</g>
<!-- Node7&#45;&gt;Node3 -->
<g id="edge6" class="edge"><title>Node7&#45;&gt;Node3</title>
<path fill="none" stroke="#9a32cd" stroke-dasharray="5,2" d="M382.834,-686.363C436.17,-683.107 516.564,-677.12 586,-667.5 602.088,-665.271 619.295,-662.284 635.47,-659.202"/>
<polygon fill="#9a32cd" stroke="#9a32cd" points="382.312,-682.888 372.538,-686.978 382.729,-689.875 382.312,-682.888"/>
<text text-anchor="middle" x="514" y="-685.5" font-family="Helvetica,sans-Serif" font-size="10.00"> inter_update_duration</text>
</g>
<!-- Node8 -->
<g id="node8" class="node"><title>Node8</title>
<polygon fill="white" stroke="#bfbfbf" points="634,-522 634,-541 777,-541 777,-522 634,-522"/>
<text text-anchor="middle" x="705.5" y="-529" font-family="Helvetica,sans-Serif" font-size="10.00">unique_ptr&lt; std::thread &gt;</text>
</g>
<!-- Node8&#45;&gt;Node2 -->
<g id="edge7" class="edge"><title>Node8&#45;&gt;Node2</title>
<path fill="none" stroke="#9a32cd" stroke-dasharray="5,2" d="M787.128,-535.961C853.932,-539.657 947.392,-544.827 1007.81,-548.17"/>
<polygon fill="#9a32cd" stroke="#9a32cd" points="787.237,-532.462 777.059,-535.404 786.85,-539.451 787.237,-532.462"/>
<text text-anchor="middle" x="897.5" y="-549.5" font-family="Helvetica,sans-Serif" font-size="10.00"> worker_thread</text>
</g>
<!-- Node9 -->
<g id="node9" class="node"><title>Node9</title>
<polygon fill="white" stroke="#bfbfbf" points="659.5,-475 659.5,-494 751.5,-494 751.5,-475 659.5,-475"/>
<text text-anchor="middle" x="705.5" y="-482" font-family="Helvetica,sans-Serif" font-size="10.00">atomic&lt; bool &gt;</text>
</g>
<!-- Node9&#45;&gt;Node1 -->
<g id="edge37" class="edge"><title>Node9&#45;&gt;Node1</title>
<path fill="none" stroke="#9a32cd" stroke-dasharray="5,2" d="M761.767,-486.233C815.495,-486.826 899.135,-484.848 970,-470.5 1114.96,-441.15 1155.25,-432.022 1283,-357.5 1307.67,-343.108 1331.97,-320.534 1346.73,-305.628"/>
<polygon fill="#9a32cd" stroke="#9a32cd" points="761.812,-482.733 751.762,-486.089 761.711,-489.732 761.812,-482.733"/>
<text text-anchor="middle" x="1069" y="-470.5" font-family="Helvetica,sans-Serif" font-size="10.00"> run_step</text>
</g>
<!-- Node9&#45;&gt;Node2 -->
<g id="edge9" class="edge"><title>Node9&#45;&gt;Node2</title>
<path fill="none" stroke="#9a32cd" stroke-dasharray="5,2" d="M761.518,-490.927C815.063,-497.634 898.572,-509.295 970,-524.5 985.708,-527.844 1002.63,-532.222 1017.92,-536.477"/>
<polygon fill="#9a32cd" stroke="#9a32cd" points="761.905,-487.448 751.55,-489.693 761.044,-494.395 761.905,-487.448"/>
<text text-anchor="middle" x="897.5" y="-527.5" font-family="Helvetica,sans-Serif" font-size="10.00"> run_stage</text>
</g>
<!-- Node12 -->
<g id="node12" class="node"><title>Node12</title>
<g id="a_node12"><a xlink:href="../../d6/ddb/classcarla_1_1traffic__manager_1_1Parameters.html" target="_top" xlink:title="carla::traffic_manager\l::Parameters">
<polygon fill="white" stroke="black" points="1008,-247.5 1008,-277.5 1130,-277.5 1130,-247.5 1008,-247.5"/>
<text text-anchor="start" x="1016" y="-265.5" font-family="Helvetica,sans-Serif" font-size="10.00">carla::traffic_manager</text>
<text text-anchor="middle" x="1069" y="-254.5" font-family="Helvetica,sans-Serif" font-size="10.00">::Parameters</text>
</a>
</g>
</g>
<!-- Node9&#45;&gt;Node12 -->
<g id="edge34" class="edge"><title>Node9&#45;&gt;Node12</title>
<path fill="none" stroke="#9a32cd" stroke-dasharray="5,2" d="M758.98,-472.832C779.525,-468.421 803.322,-463.503 825,-459.5 857.083,-453.575 947.372,-460.002 970,-436.5 1016.57,-388.131 944.776,-337.882 988,-286.5 993.321,-280.175 1000.24,-275.477 1007.78,-271.995"/>
<polygon fill="#9a32cd" stroke="#9a32cd" points="758.214,-469.417 749.179,-474.951 759.693,-476.259 758.214,-469.417"/>
<text text-anchor="middle" x="897.5" y="-462.5" font-family="Helvetica,sans-Serif" font-size="10.00"> synchronous_mode</text>
</g>
<!-- Node10 -->
<g id="node10" class="node"><title>Node10</title>
<polygon fill="white" stroke="#bfbfbf" points="1017.5,-346 1017.5,-365 1120.5,-365 1120.5,-346 1017.5,-346"/>
<text text-anchor="middle" x="1069" y="-353" font-family="Helvetica,sans-Serif" font-size="10.00">condition_variable</text>
</g>
<!-- Node10&#45;&gt;Node1 -->
<g id="edge10" class="edge"><title>Node10&#45;&gt;Node1</title>
<path fill="none" stroke="#9a32cd" stroke-dasharray="5,2" d="M1130.95,-348.307C1173.9,-342.486 1232.53,-333.019 1283,-319.5 1296.96,-315.762 1311.91,-310.52 1324.95,-305.518"/>
<polygon fill="#9a32cd" stroke="#9a32cd" points="1130.38,-344.851 1120.93,-349.637 1131.3,-351.791 1130.38,-344.851"/>
<text text-anchor="middle" x="1225.5" y="-345.5" font-family="Helvetica,sans-Serif" font-size="10.00"> step_execution_notifier</text>
</g>
<!-- Node11 -->
<g id="node11" class="node"><title>Node11</title>
<polygon fill="white" stroke="#bfbfbf" points="993.5,-296.5 993.5,-326.5 1144.5,-326.5 1144.5,-296.5 993.5,-296.5"/>
<text text-anchor="start" x="1001.5" y="-314.5" font-family="Helvetica,sans-Serif" font-size="10.00">shared_ptr&lt; std::vector</text>
<text text-anchor="middle" x="1069" y="-303.5" font-family="Helvetica,sans-Serif" font-size="10.00">&lt; carla::rpc::Command &gt; &gt;</text>
</g>
<!-- Node11&#45;&gt;Node1 -->
<g id="edge12" class="edge"><title>Node11&#45;&gt;Node1</title>
<path fill="none" stroke="#9a32cd" stroke-dasharray="5,2" d="M1154.69,-305.388C1201.51,-302.009 1258.58,-297.891 1300.81,-294.843"/>
<polygon fill="#9a32cd" stroke="#9a32cd" points="1154.28,-301.908 1144.56,-306.119 1154.79,-308.89 1154.28,-301.908"/>
<text text-anchor="middle" x="1225.5" y="-307.5" font-family="Helvetica,sans-Serif" font-size="10.00"> commands</text>
</g>
<!-- Node12&#45;&gt;Node1 -->
<g id="edge13" class="edge"><title>Node12&#45;&gt;Node1</title>
<path fill="none" stroke="#9a32cd" stroke-dasharray="5,2" d="M1140.2,-268.301C1181.75,-271.85 1235.4,-276.632 1283,-281.5 1288.83,-282.096 1294.9,-282.746 1300.97,-283.415"/>
<polygon fill="#9a32cd" stroke="#9a32cd" points="1140.44,-264.809 1130.18,-267.449 1139.84,-271.784 1140.44,-264.809"/>
<text text-anchor="middle" x="1225.5" y="-284.5" font-family="Helvetica,sans-Serif" font-size="10.00"> parameters</text>
</g>
<!-- Node13 -->
<g id="node13" class="node"><title>Node13</title>
<g id="a_node13"><a xlink:href="../../d7/d02/classcarla_1_1traffic__manager_1_1AtomicMap.html" target="_top" xlink:title="carla::traffic_manager\l::AtomicMap\&lt; ActorId,\l float \&gt;">
<polygon fill="white" stroke="black" points="643,-401 643,-442 768,-442 768,-401 643,-401"/>
<text text-anchor="start" x="651" y="-430" font-family="Helvetica,sans-Serif" font-size="10.00">carla::traffic_manager</text>
<text text-anchor="start" x="651" y="-419" font-family="Helvetica,sans-Serif" font-size="10.00">::AtomicMap&lt; ActorId,</text>
<text text-anchor="middle" x="705.5" y="-408" font-family="Helvetica,sans-Serif" font-size="10.00"> float &gt;</text>
</a>
</g>
</g>
<!-- Node13&#45;&gt;Node12 -->
<g id="edge14" class="edge"><title>Node13&#45;&gt;Node12</title>
<path fill="none" stroke="#9a32cd" stroke-dasharray="5,2" d="M770.3,-396.83C782.88,-390.899 795.679,-384.062 807,-376.5 816.15,-370.388 815.126,-364.356 825,-359.5 883.552,-330.704 919.729,-378.098 970,-336.5 988.196,-321.443 970.854,-302.743 988,-286.5 993.685,-281.115 1000.53,-276.934 1007.79,-273.688"/>
<polygon fill="#9a32cd" stroke="#9a32cd" points="768.845,-393.646 761.203,-400.985 771.754,-400.014 768.845,-393.646"/>
<text text-anchor="middle" x="897.5" y="-428.5" font-family="Helvetica,sans-Serif" font-size="10.00"> perc_ignore_walkers</text>
<text text-anchor="middle" x="897.5" y="-417.5" font-family="Helvetica,sans-Serif" font-size="10.00">perc_run_traffic_sign</text>
<text text-anchor="middle" x="897.5" y="-406.5" font-family="Helvetica,sans-Serif" font-size="10.00">perc_run_traffic_light</text>
<text text-anchor="middle" x="897.5" y="-395.5" font-family="Helvetica,sans-Serif" font-size="10.00">distance_to_leading_vehicle</text>
<text text-anchor="middle" x="897.5" y="-384.5" font-family="Helvetica,sans-Serif" font-size="10.00">perc_ignore_vehicles</text>
<text text-anchor="start" x="829.5" y="-373.5" font-family="Helvetica,sans-Serif" font-size="10.00">percentage_difference_from</text>
<text text-anchor="middle" x="897.5" y="-362.5" font-family="Helvetica,sans-Serif" font-size="10.00">_speed_limit</text>
</g>
<!-- Node14 -->
<g id="node14" class="node"><title>Node14</title>
<polygon fill="white" stroke="#bfbfbf" points="252,-487.5 252,-517.5 393,-517.5 393,-487.5 252,-487.5"/>
<text text-anchor="start" x="260" y="-505.5" font-family="Helvetica,sans-Serif" font-size="10.00">unordered_map&lt; ActorId,</text>
<text text-anchor="middle" x="322.5" y="-494.5" font-family="Helvetica,sans-Serif" font-size="10.00"> float &gt;</text>
</g>
<!-- Node14&#45;&gt;Node13 -->
<g id="edge15" class="edge"><title>Node14&#45;&gt;Node13</title>
<path fill="none" stroke="#9a32cd" stroke-dasharray="5,2" d="M403.306,-498.92C455.898,-495.14 525.898,-487.386 586,-471.5 600.518,-467.663 632.491,-454.056 659.57,-442.004"/>
<polygon fill="#9a32cd" stroke="#9a32cd" points="402.765,-495.449 393.028,-499.624 403.244,-502.432 402.765,-495.449"/>
<text text-anchor="middle" x="514" y="-498.5" font-family="Helvetica,sans-Serif" font-size="10.00"> map</text>
</g>
<!-- Node15 -->
<g id="node15" class="node"><title>Node15</title>
<polygon fill="white" stroke="#bfbfbf" points="38.5,-216 38.5,-235 85.5,-235 85.5,-216 38.5,-216"/>
<text text-anchor="middle" x="62" y="-223" font-family="Helvetica,sans-Serif" font-size="10.00">mutex</text>
</g>
<!-- Node15&#45;&gt;Node1 -->
<g id="edge36" class="edge"><title>Node15&#45;&gt;Node1</title>
<path fill="none" stroke="#9a32cd" stroke-dasharray="5,2" d="M70.6201,-206.469C82.3053,-179.424 107.028,-129.798 142,-99.5 171.025,-74.3541 183.429,-72.45 221,-64.5 475.84,-10.5758 551.799,-22.3129 807,-74.5 860.92,-85.5263 1209.43,-228.065 1324.32,-275.364"/>
<polygon fill="#9a32cd" stroke="#9a32cd" points="67.2857,-205.371 66.6624,-215.947 73.7453,-208.068 67.2857,-205.371"/>
<text text-anchor="middle" x="705.5" y="-77.5" font-family="Helvetica,sans-Serif" font-size="10.00"> step_execution_mutex</text>
</g>
<!-- Node15&#45;&gt;Node13 -->
<g id="edge16" class="edge"><title>Node15&#45;&gt;Node13</title>
<path fill="none" stroke="#9a32cd" stroke-dasharray="5,2" d="M70.0833,-244.703C87.5349,-288.49 137.363,-394.058 221,-421.5 365.96,-469.062 548.793,-449.089 642.657,-433.503"/>
<polygon fill="#9a32cd" stroke="#9a32cd" points="73.2873,-243.283 66.4261,-235.21 66.7553,-245.8 73.2873,-243.283"/>
<text text-anchor="middle" x="322.5" y="-454.5" font-family="Helvetica,sans-Serif" font-size="10.00"> map_mutex</text>
</g>
<!-- Node16 -->
<g id="node16" class="node"><title>Node16</title>
<g id="a_node16"><a xlink:href="../../d7/d02/classcarla_1_1traffic__manager_1_1AtomicMap.html" target="_top" xlink:title="carla::traffic_manager\l::AtomicMap\&lt; Key, Value \&gt;">
<polygon fill="white" stroke="black" points="248.5,-277.5 248.5,-307.5 396.5,-307.5 396.5,-277.5 248.5,-277.5"/>
<text text-anchor="start" x="256.5" y="-295.5" font-family="Helvetica,sans-Serif" font-size="10.00">carla::traffic_manager</text>
<text text-anchor="middle" x="322.5" y="-284.5" font-family="Helvetica,sans-Serif" font-size="10.00">::AtomicMap&lt; Key, Value &gt;</text>
</a>
</g>
</g>
<!-- Node15&#45;&gt;Node16 -->
<g id="edge19" class="edge"><title>Node15&#45;&gt;Node16</title>
<path fill="none" stroke="#9a32cd" stroke-dasharray="5,2" d="M95.6704,-233.968C137.751,-244.874 211.622,-264.021 263.386,-277.437"/>
<polygon fill="#9a32cd" stroke="#9a32cd" points="96.4985,-230.567 85.9402,-231.446 94.7421,-237.343 96.4985,-230.567"/>
<text text-anchor="middle" x="172.5" y="-264.5" font-family="Helvetica,sans-Serif" font-size="10.00"> map_mutex</text>
</g>
<!-- Node20 -->
<g id="node20" class="node"><title>Node20</title>
<g id="a_node20"><a xlink:href="../../d7/d02/classcarla_1_1traffic__manager_1_1AtomicMap.html" target="_top" xlink:title="carla::traffic_manager\l::AtomicMap\&lt; ActorId,\l std::shared_ptr\&lt; carla\l::traffic_manager::AtomicActorSet \&gt; \&gt;">
<polygon fill="white" stroke="black" points="604,-227.5 604,-279.5 807,-279.5 807,-227.5 604,-227.5"/>
<text text-anchor="start" x="612" y="-267.5" font-family="Helvetica,sans-Serif" font-size="10.00">carla::traffic_manager</text>
<text text-anchor="start" x="612" y="-256.5" font-family="Helvetica,sans-Serif" font-size="10.00">::AtomicMap&lt; ActorId,</text>
<text text-anchor="start" x="612" y="-245.5" font-family="Helvetica,sans-Serif" font-size="10.00"> std::shared_ptr&lt; carla</text>
<text text-anchor="middle" x="705.5" y="-234.5" font-family="Helvetica,sans-Serif" font-size="10.00">::traffic_manager::AtomicActorSet &gt; &gt;</text>
</a>
</g>
</g>
<!-- Node15&#45;&gt;Node20 -->
<g id="edge24" class="edge"><title>Node15&#45;&gt;Node20</title>
<path fill="none" stroke="#9a32cd" stroke-dasharray="5,2" d="M74.6733,-243.912C97.7596,-278.476 152.956,-352.39 221,-383.5 310.562,-424.449 343.585,-395.942 442,-399.5 505.958,-401.812 537.258,-440.975 586,-399.5 624.063,-367.112 571.872,-326.782 604,-288.5 606.732,-285.245 609.784,-282.292 613.077,-279.614"/>
<polygon fill="#9a32cd" stroke="#9a32cd" points="77.4295,-241.731 69.0294,-235.275 71.5697,-245.561 77.4295,-241.731"/>
<text text-anchor="middle" x="322.5" y="-409.5" font-family="Helvetica,sans-Serif" font-size="10.00"> map_mutex</text>
</g>
<!-- Node22 -->
<g id="node22" class="node"><title>Node22</title>
<g id="a_node22"><a xlink:href="../../d7/d02/classcarla_1_1traffic__manager_1_1AtomicMap.html" target="_top" xlink:title="carla::traffic_manager\l::AtomicMap\&lt; ActorId,\l bool \&gt;">
<polygon fill="white" stroke="black" points="643,-167 643,-208 768,-208 768,-167 643,-167"/>
<text text-anchor="start" x="651" y="-196" font-family="Helvetica,sans-Serif" font-size="10.00">carla::traffic_manager</text>
<text text-anchor="start" x="651" y="-185" font-family="Helvetica,sans-Serif" font-size="10.00">::AtomicMap&lt; ActorId,</text>
<text text-anchor="middle" x="705.5" y="-174" font-family="Helvetica,sans-Serif" font-size="10.00"> bool &gt;</text>
</a>
</g>
</g>
<!-- Node15&#45;&gt;Node22 -->
<g id="edge27" class="edge"><title>Node15&#45;&gt;Node22</title>
<path fill="none" stroke="#9a32cd" stroke-dasharray="5,2" d="M96.0591,-218.47C161.645,-204.923 313.033,-175.645 442,-165.5 505.803,-160.481 522.269,-159.634 586,-165.5 604.649,-167.216 624.742,-170.422 642.99,-173.865"/>
<polygon fill="#9a32cd" stroke="#9a32cd" points="94.9988,-215.116 85.922,-220.58 96.4254,-221.969 94.9988,-215.116"/>
<text text-anchor="middle" x="322.5" y="-197.5" font-family="Helvetica,sans-Serif" font-size="10.00"> map_mutex</text>
</g>
<!-- Node24 -->
<g id="node24" class="node"><title>Node24</title>
<g id="a_node24"><a xlink:href="../../d7/d02/classcarla_1_1traffic__manager_1_1AtomicMap.html" target="_top" xlink:title="carla::traffic_manager\l::AtomicMap\&lt; ActorId,\l carla::traffic_manager\l::ChangeLaneInfo \&gt;">
<polygon fill="white" stroke="black" points="643,-95.5 643,-147.5 768,-147.5 768,-95.5 643,-95.5"/>
<text text-anchor="start" x="651" y="-135.5" font-family="Helvetica,sans-Serif" font-size="10.00">carla::traffic_manager</text>
<text text-anchor="start" x="651" y="-124.5" font-family="Helvetica,sans-Serif" font-size="10.00">::AtomicMap&lt; ActorId,</text>
<text text-anchor="start" x="651" y="-113.5" font-family="Helvetica,sans-Serif" font-size="10.00"> carla::traffic_manager</text>
<text text-anchor="middle" x="705.5" y="-102.5" font-family="Helvetica,sans-Serif" font-size="10.00">::ChangeLaneInfo &gt;</text>
</a>
</g>
</g>
<!-- Node15&#45;&gt;Node24 -->
<g id="edge31" class="edge"><title>Node15&#45;&gt;Node24</title>
<path fill="none" stroke="#9a32cd" stroke-dasharray="5,2" d="M77.0219,-207.686C102.074,-177.479 157.849,-117.275 221,-94.5 364.936,-42.5909 548.59,-78.1367 642.737,-103.024"/>
<polygon fill="#9a32cd" stroke="#9a32cd" points="74.1097,-205.72 70.5236,-215.689 79.5441,-210.132 74.1097,-205.72"/>
<text text-anchor="middle" x="322.5" y="-97.5" font-family="Helvetica,sans-Serif" font-size="10.00"> map_mutex</text>
</g>
<!-- Node16&#45;&gt;Node13 -->
<g id="edge17" class="edge"><title>Node16&#45;&gt;Node13</title>
<path fill="none" stroke="orange" stroke-dasharray="5,2" d="M405.87,-311.067C412.422,-314.526 418.587,-318.631 424,-323.5 439.099,-337.082 426.312,-352.603 442,-365.5 498.605,-412.032 584.714,-422.528 642.724,-423.702"/>
<polygon fill="orange" stroke="orange" points="407.267,-307.855 396.731,-306.737 404.27,-314.181 407.267,-307.855"/>
<text text-anchor="middle" x="514" y="-422.5" font-family="Helvetica,sans-Serif" font-size="10.00"> &lt; ActorId, float &gt;</text>
</g>
<!-- Node16&#45;&gt;Node20 -->
<g id="edge25" class="edge"><title>Node16&#45;&gt;Node20</title>
<path fill="none" stroke="orange" stroke-dasharray="5,2" d="M406.827,-289.636C458.55,-287.231 526.309,-282.947 586,-275.5 591.814,-274.775 597.773,-273.945 603.777,-273.042"/>
<polygon fill="orange" stroke="orange" points="406.536,-286.145 396.704,-290.092 406.851,-293.138 406.536,-286.145"/>
<text text-anchor="start" x="446" y="-313.5" font-family="Helvetica,sans-Serif" font-size="10.00"> &lt; ActorId, std::shared</text>
<text text-anchor="start" x="446" y="-302.5" font-family="Helvetica,sans-Serif" font-size="10.00">_ptr&lt; carla::traffic_manager</text>
<text text-anchor="middle" x="514" y="-291.5" font-family="Helvetica,sans-Serif" font-size="10.00">::AtomicActorSet &gt; &gt;</text>
</g>
<!-- Node16&#45;&gt;Node22 -->
<g id="edge29" class="edge"><title>Node16&#45;&gt;Node22</title>
<path fill="none" stroke="orange" stroke-dasharray="5,2" d="M388.154,-274.848C405.556,-270.449 424.427,-265.996 442,-262.5 505.434,-249.88 530.395,-274.534 586,-241.5 597.463,-234.69 593.061,-225.124 604,-217.5 615.577,-209.431 629.355,-203.498 642.941,-199.147"/>
<polygon fill="orange" stroke="orange" points="386.918,-271.552 378.099,-277.424 388.655,-278.333 386.918,-271.552"/>
<text text-anchor="middle" x="514" y="-265.5" font-family="Helvetica,sans-Serif" font-size="10.00"> &lt; ActorId, bool &gt;</text>
</g>
<!-- Node16&#45;&gt;Node24 -->
<g id="edge33" class="edge"><title>Node16&#45;&gt;Node24</title>
<path fill="none" stroke="orange" stroke-dasharray="5,2" d="M405.869,-274.207C412.449,-270.69 418.619,-266.498 424,-261.5 440.086,-246.559 424.717,-229.038 442,-215.5 492.819,-175.691 534.021,-234.781 586,-196.5 601.372,-185.179 589.918,-170.389 604,-157.5 614.937,-147.49 628.853,-140.22 642.818,-134.956"/>
<polygon fill="orange" stroke="orange" points="404.195,-271.128 396.68,-278.596 407.212,-277.445 404.195,-271.128"/>
<text text-anchor="start" x="442" y="-229.5" font-family="Helvetica,sans-Serif" font-size="10.00"> &lt; ActorId, carla::traffic</text>
<text text-anchor="middle" x="514" y="-218.5" font-family="Helvetica,sans-Serif" font-size="10.00">_manager::ChangeLaneInfo &gt;</text>
</g>
<!-- Node17 -->
<g id="node17" class="node"><title>Node17</title>
<polygon fill="white" stroke="#bfbfbf" points="0,-475.5 0,-505.5 124,-505.5 124,-475.5 0,-475.5"/>
<text text-anchor="start" x="8" y="-493.5" font-family="Helvetica,sans-Serif" font-size="10.00">unordered_map&lt; Key,</text>
<text text-anchor="middle" x="62" y="-482.5" font-family="Helvetica,sans-Serif" font-size="10.00"> Value &gt;</text>
</g>
<!-- Node17&#45;&gt;Node16 -->
<g id="edge18" class="edge"><title>Node17&#45;&gt;Node16</title>
<path fill="none" stroke="#9a32cd" stroke-dasharray="5,2" d="M79.282,-466.634C105.161,-430.476 159.126,-361.96 221,-323.5 231.468,-316.994 243.402,-311.763 255.302,-307.588"/>
<polygon fill="#9a32cd" stroke="#9a32cd" points="76.221,-464.902 73.3201,-475.092 81.9424,-468.935 76.221,-464.902"/>
<text text-anchor="middle" x="172.5" y="-391.5" font-family="Helvetica,sans-Serif" font-size="10.00"> map</text>
</g>
<!-- Node18 -->
<g id="node18" class="node"><title>Node18</title>
<polygon fill="white" stroke="#bfbfbf" points="686.5,-348 686.5,-367 724.5,-367 724.5,-348 686.5,-348"/>
<text text-anchor="middle" x="705.5" y="-355" font-family="Helvetica,sans-Serif" font-size="10.00">float</text>
</g>
<!-- Node18&#45;&gt;Node12 -->
<g id="edge20" class="edge"><title>Node18&#45;&gt;Node12</title>
<path fill="none" stroke="#9a32cd" stroke-dasharray="5,2" d="M734.595,-357.092C755.878,-355.612 785.095,-350.978 807,-337.5 818.055,-330.698 813.814,-321.085 825,-314.5 881.231,-281.4 906.358,-305.899 970,-291.5 975.148,-290.335 996.686,-283.987 1018.26,-277.526"/>
<polygon fill="#9a32cd" stroke="#9a32cd" points="734.37,-353.599 724.56,-357.599 734.724,-360.59 734.37,-353.599"/>
<text text-anchor="start" x="825" y="-328.5" font-family="Helvetica,sans-Serif" font-size="10.00"> global_percentage_difference</text>
<text text-anchor="middle" x="897.5" y="-317.5" font-family="Helvetica,sans-Serif" font-size="10.00">_from_limit</text>
</g>
<!-- Node19 -->
<g id="node19" class="node"><title>Node19</title>
<polygon fill="white" stroke="#bfbfbf" points="645,-298.5 645,-328.5 766,-328.5 766,-298.5 645,-298.5"/>
<text text-anchor="start" x="653" y="-316.5" font-family="Helvetica,sans-Serif" font-size="10.00">duration&lt; double, std</text>
<text text-anchor="middle" x="705.5" y="-305.5" font-family="Helvetica,sans-Serif" font-size="10.00">::milli &gt;</text>
</g>
<!-- Node19&#45;&gt;Node12 -->
<g id="edge21" class="edge"><title>Node19&#45;&gt;Node12</title>
<path fill="none" stroke="#9a32cd" stroke-dasharray="5,2" d="M776.177,-297.847C786.596,-295.023 797.143,-291.888 807,-288.5 815.279,-285.655 816.509,-282.633 825,-280.5 886.03,-265.171 958.179,-261.579 1007.92,-261.259"/>
<polygon fill="#9a32cd" stroke="#9a32cd" points="775.036,-294.528 766.255,-300.456 776.816,-301.298 775.036,-294.528"/>
<text text-anchor="middle" x="897.5" y="-283.5" font-family="Helvetica,sans-Serif" font-size="10.00"> synchronous_time_out</text>
</g>
<!-- Node20&#45;&gt;Node12 -->
<g id="edge22" class="edge"><title>Node20&#45;&gt;Node12</title>
<path fill="none" stroke="#9a32cd" stroke-dasharray="5,2" d="M817.285,-245.279C864.423,-243.147 919.962,-242.442 970,-246.5 982.286,-247.496 995.353,-249.184 1007.81,-251.1"/>
<polygon fill="#9a32cd" stroke="#9a32cd" points="816.871,-241.795 807.05,-245.77 817.206,-248.786 816.871,-241.795"/>
<text text-anchor="middle" x="897.5" y="-249.5" font-family="Helvetica,sans-Serif" font-size="10.00"> ignore_collision</text>
</g>
<!-- Node21 -->
<g id="node21" class="node"><title>Node21</title>
<polygon fill="white" stroke="#bfbfbf" points="221,-333 221,-374 424,-374 424,-333 221,-333"/>
<text text-anchor="start" x="229" y="-362" font-family="Helvetica,sans-Serif" font-size="10.00">unordered_map&lt; ActorId,</text>
<text text-anchor="start" x="229" y="-351" font-family="Helvetica,sans-Serif" font-size="10.00"> std::shared_ptr&lt; carla</text>
<text text-anchor="middle" x="322.5" y="-340" font-family="Helvetica,sans-Serif" font-size="10.00">::traffic_manager::AtomicActorSet &gt; &gt;</text>
</g>
<!-- Node21&#45;&gt;Node20 -->
<g id="edge23" class="edge"><title>Node21&#45;&gt;Node20</title>
<path fill="none" stroke="#9a32cd" stroke-dasharray="5,2" d="M434.268,-352.255C494.541,-349.547 561.661,-342.589 586,-325.5 600.967,-314.992 590.331,-300.648 604,-288.5 607.591,-285.309 611.488,-282.405 615.594,-279.763"/>
<polygon fill="#9a32cd" stroke="#9a32cd" points="434.121,-348.758 424.274,-352.668 434.41,-355.752 434.121,-348.758"/>
<text text-anchor="middle" x="514" y="-355.5" font-family="Helvetica,sans-Serif" font-size="10.00"> map</text>
</g>
<!-- Node22&#45;&gt;Node12 -->
<g id="edge26" class="edge"><title>Node22&#45;&gt;Node12</title>
<path fill="none" stroke="#9a32cd" stroke-dasharray="5,2" d="M778.091,-195.631C831.454,-202.481 905.875,-213.71 970,-229.5 989.524,-234.308 1010.72,-241.225 1028.39,-247.486"/>
<polygon fill="#9a32cd" stroke="#9a32cd" points="778.404,-192.142 768.044,-194.36 777.526,-199.087 778.404,-192.142"/>
<text text-anchor="middle" x="897.5" y="-232.5" font-family="Helvetica,sans-Serif" font-size="10.00"> auto_lane_change</text>
</g>
<!-- Node23 -->
<g id="node23" class="node"><title>Node23</title>
<polygon fill="white" stroke="#bfbfbf" points="252,-222.5 252,-252.5 393,-252.5 393,-222.5 252,-222.5"/>
<text text-anchor="start" x="260" y="-240.5" font-family="Helvetica,sans-Serif" font-size="10.00">unordered_map&lt; ActorId,</text>
<text text-anchor="middle" x="322.5" y="-229.5" font-family="Helvetica,sans-Serif" font-size="10.00"> bool &gt;</text>
</g>
<!-- Node23&#45;&gt;Node22 -->
<g id="edge28" class="edge"><title>Node23&#45;&gt;Node22</title>
<path fill="none" stroke="#9a32cd" stroke-dasharray="5,2" d="M402.787,-218.823C410.24,-215.611 417.447,-211.865 424,-207.5 434.515,-200.497 430.584,-190.91 442,-185.5 505.423,-155.445 587.533,-162.274 642.896,-172.487"/>
<polygon fill="#9a32cd" stroke="#9a32cd" points="401.248,-215.668 393.246,-222.612 403.832,-222.174 401.248,-215.668"/>
<text text-anchor="middle" x="514" y="-188.5" font-family="Helvetica,sans-Serif" font-size="10.00"> map</text>
</g>
<!-- Node24&#45;&gt;Node12 -->
<g id="edge30" class="edge"><title>Node24&#45;&gt;Node12</title>
<path fill="none" stroke="#9a32cd" stroke-dasharray="5,2" d="M777.977,-131.308C832.572,-140.686 908.616,-157.899 970,-187.5 1002.23,-203.041 1034.11,-230.222 1052.39,-247.243"/>
<polygon fill="#9a32cd" stroke="#9a32cd" points="778.481,-127.844 768.041,-129.647 777.327,-134.748 778.481,-127.844"/>
<text text-anchor="middle" x="897.5" y="-190.5" font-family="Helvetica,sans-Serif" font-size="10.00"> force_lane_change</text>
</g>
<!-- Node25 -->
<g id="node25" class="node"><title>Node25</title>
<polygon fill="white" stroke="#bfbfbf" points="252,-115 252,-156 393,-156 393,-115 252,-115"/>
<text text-anchor="start" x="260" y="-144" font-family="Helvetica,sans-Serif" font-size="10.00">unordered_map&lt; ActorId,</text>
<text text-anchor="start" x="260" y="-133" font-family="Helvetica,sans-Serif" font-size="10.00"> carla::traffic_manager</text>
<text text-anchor="middle" x="322.5" y="-122" font-family="Helvetica,sans-Serif" font-size="10.00">::ChangeLaneInfo &gt;</text>
</g>
<!-- Node25&#45;&gt;Node24 -->
<g id="edge32" class="edge"><title>Node25&#45;&gt;Node24</title>
<path fill="none" stroke="#9a32cd" stroke-dasharray="5,2" d="M403.294,-128.817C416.226,-127.913 429.478,-127.094 442,-126.5 510.75,-123.237 589.725,-122.084 642.942,-121.687"/>
<polygon fill="#9a32cd" stroke="#9a32cd" points="402.735,-125.348 393.012,-129.558 403.238,-132.33 402.735,-125.348"/>
<text text-anchor="middle" x="514" y="-129.5" font-family="Helvetica,sans-Serif" font-size="10.00"> map</text>
</g>
<!-- Node26 -->
<g id="node26" class="node"><title>Node26</title>
<polygon fill="white" stroke="#bfbfbf" points="994.5,-98.5 994.5,-128.5 1143.5,-128.5 1143.5,-98.5 994.5,-98.5"/>
<text text-anchor="start" x="1002.5" y="-116.5" font-family="Helvetica,sans-Serif" font-size="10.00">EpisodeProxyImpl&lt; Episode</text>
<text text-anchor="middle" x="1069" y="-105.5" font-family="Helvetica,sans-Serif" font-size="10.00">ProxyPointerType::Strong &gt;</text>
</g>
<!-- Node26&#45;&gt;Node1 -->
<g id="edge35" class="edge"><title>Node26&#45;&gt;Node1</title>
<path fill="none" stroke="#9a32cd" stroke-dasharray="5,2" d="M1153.81,-102.612C1195.93,-101.435 1245.79,-107.011 1283,-132.5 1332.97,-166.73 1352.3,-242.527 1358.5,-275.115"/>
<polygon fill="#9a32cd" stroke="#9a32cd" points="1153.4,-99.1259 1143.55,-103.034 1153.69,-106.12 1153.4,-99.1259"/>
<text text-anchor="middle" x="1225.5" y="-135.5" font-family="Helvetica,sans-Serif" font-size="10.00"> episode_proxy_bcs</text>
</g>
<!-- Node27 -->
<g id="node27" class="node"><title>Node27</title>
<polygon fill="white" stroke="#bfbfbf" points="988,-49.5 988,-79.5 1150,-79.5 1150,-49.5 988,-49.5"/>
<text text-anchor="start" x="996" y="-67.5" font-family="Helvetica,sans-Serif" font-size="10.00">shared_ptr&lt; carla::</text>
<text text-anchor="middle" x="1069" y="-56.5" font-family="Helvetica,sans-Serif" font-size="10.00">traffic_manager::Messenger &gt;</text>
</g>
<!-- Node27&#45;&gt;Node1 -->
<g id="edge38" class="edge"><title>Node27&#45;&gt;Node1</title>
<path fill="none" stroke="#9a32cd" stroke-dasharray="5,2" d="M1160.08,-54.009C1201.35,-53.925 1248.62,-61.0481 1283,-87.5 1344.49,-134.809 1357.52,-236.975 1360.27,-275.441"/>
<polygon fill="#9a32cd" stroke="#9a32cd" points="1159.94,-50.5106 1150,-54.1699 1160.06,-57.5097 1159.94,-50.5106"/>
<text text-anchor="middle" x="1225.5" y="-90.5" font-family="Helvetica,sans-Serif" font-size="10.00"> messenger</text>
</g>
<!-- Node28 -->
<g id="node28" class="node"><title>Node28</title>
<polygon fill="white" stroke="#bfbfbf" points="989,-0.5 989,-30.5 1149,-30.5 1149,-0.5 989,-0.5"/>
<text text-anchor="start" x="997" y="-18.5" font-family="Helvetica,sans-Serif" font-size="10.00">shared_ptr&lt; PlannerToControl</text>
<text text-anchor="middle" x="1069" y="-7.5" font-family="Helvetica,sans-Serif" font-size="10.00">Frame &gt;</text>
</g>
<!-- Node28&#45;&gt;Node1 -->
<g id="edge39" class="edge"><title>Node28&#45;&gt;Node1</title>
<path fill="none" stroke="#9a32cd" stroke-dasharray="5,2" d="M1159.43,-4.5114C1201.24,-4.23242 1249.15,-11.5153 1283,-39.5 1357.03,-100.706 1362.05,-230.963 1361.5,-275.332"/>
<polygon fill="#9a32cd" stroke="#9a32cd" points="1159.15,-1.0165 1149.23,-4.72727 1159.3,-8.01494 1159.15,-1.0165"/>
<text text-anchor="middle" x="1225.5" y="-42.5" font-family="Helvetica,sans-Serif" font-size="10.00"> data_frame</text>
</g>
</g>
</svg>
        <g id="navigator" transform="translate(0 0)" fill="#404254">
                <rect fill="#f2f5e9" fill-opacity="0.5" stroke="#606060" stroke-width=".5" x="0" y="0" width="60" height="60"/>
                <use id="zoomplus" xlink:href="#zoomPlus" x="17" y="9" onmousedown="handleZoom(evt,'in')"/>
                <use id="zoomminus" xlink:href="#zoomMin" x="42" y="9" onmousedown="handleZoom(evt,'out')"/>
                <use id="reset" xlink:href="#resetDef" x="30" y="36" onmousedown="handleReset()"/>
                <g id="arrowUp" xlink:href="#dirArrow" transform="translate(30 24)" onmousedown="handlePan(0,-1)">
                  <use xlink:href="#rim" fill="#404040">
                        <set attributeName="fill" to="#808080" begin="arrowUp.mouseover" end="arrowUp.mouseout"/>
                  </use>
                  <path fill="none" stroke="white" stroke-width="1.5" d="M0,-3.0v7 M-2.5,-0.5L0,-3.0L2.5,-0.5"/>
                </g>
                <g id="arrowRight" xlink:href="#dirArrow" transform="rotate(90) translate(36 -43)" onmousedown="handlePan(1,0)">
                  <use xlink:href="#rim" fill="#404040">
                        <set attributeName="fill" to="#808080" begin="arrowRight.mouseover" end="arrowRight.mouseout"/>
                  </use>
                  <path fill="none" stroke="white" stroke-width="1.5" d="M0,-3.0v7 M-2.5,-0.5L0,-3.0L2.5,-0.5"/>
                </g>
                <g id="arrowDown" xlink:href="#dirArrow" transform="rotate(180) translate(-30 -48)" onmousedown="handlePan(0,1)">
                  <use xlink:href="#rim" fill="#404040">
                        <set attributeName="fill" to="#808080" begin="arrowDown.mouseover" end="arrowDown.mouseout"/>
                  </use>
                  <path fill="none" stroke="white" stroke-width="1.5" d="M0,-3.0v7 M-2.5,-0.5L0,-3.0L2.5,-0.5"/>
                </g>
                <g id="arrowLeft" xlink:href="#dirArrow" transform="rotate(270) translate(-36 17)" onmousedown="handlePan(-1,0)">
                  <use xlink:href="#rim" fill="#404040">
                        <set attributeName="fill" to="#808080" begin="arrowLeft.mouseover" end="arrowLeft.mouseout"/>
                  </use>
                  <path fill="none" stroke="white" stroke-width="1.5" d="M0,-3.0v7 M-2.5,-0.5L0,-3.0L2.5,-0.5"/>
                </g>
        </g>
        <svg viewBox="0 0 15 15" width="100%" height="30px" preserveAspectRatio="xMaxYMin meet">
         <g id="arrow_out" transform="scale(0.3 0.3)">
          <a xlink:href="classcarla_1_1traffic__manager_1_1BatchControlStage__coll__graph_org.svg" target="_base">
           <rect id="button" ry="5" rx="5" y="6" x="6" height="38" width="38"
                fill="#f2f5e9" fill-opacity="0.5" stroke="#606060" stroke-width="1.0"/>
           <path id="arrow"
             d="M 11.500037,31.436501 C 11.940474,20.09759 22.043105,11.32322 32.158766,21.979434 L 37.068811,17.246167 C 37.068811,17.246167 37.088388,32 37.088388,32 L 22.160133,31.978069 C 22.160133,31.978069 26.997745,27.140456 26.997745,27.140456 C 18.528582,18.264221 13.291696,25.230495 11.500037,31.436501 z"
             style="fill:#404040;"/>
          </a>
         </g>
        </svg>
</svg>
