<?xml version="1.0" encoding="UTF-8" standalone="no"?>
<!DOCTYPE svg PUBLIC "-//W3C//DTD SVG 1.1//EN"
 "http://www.w3.org/Graphics/SVG/1.1/DTD/svg11.dtd">
<!-- Generated by graphviz version 2.38.0 (20140413.2041)
 -->
<!-- Title: PipelineStage.h Pages: 1 -->
<!--zoomable 308 -->
<svg id="main" version="1.1" xmlns="http://www.w3.org/2000/svg" xmlns:xlink="http://www.w3.org/1999/xlink" xml:space="preserve" onload="init(evt)">
<style type="text/css"><![CDATA[
.edge:hover path { stroke: red; }
.edge:hover polygon { stroke: red; fill: red; }
]]></style>
<script type="text/javascript"><![CDATA[
var edges = document.getElementsByTagName('g');
if (edges && edges.length) {
  for (var i=0;i<edges.length;i++) {
    if (edges[i].id.substr(0,4)=='edge') {
      edges[i].setAttribute('class','edge');
    }
  }
}
]]></script>
        <defs>
                <circle id="rim" cx="0" cy="0" r="7"/>
                <circle id="rim2" cx="0" cy="0" r="3.5"/>
                <g id="zoomPlus">
                        <use xlink:href="#rim" fill="#404040">
                                <set attributeName="fill" to="#808080" begin="zoomplus.mouseover" end="zoomplus.mouseout"/>
                        </use>
                        <path d="M-4,0h8M0,-4v8" fill="none" stroke="white" stroke-width="1.5" pointer-events="none"/>
                </g>
                <g id="zoomMin">
                        <use xlink:href="#rim" fill="#404040">
                                <set attributeName="fill" to="#808080" begin="zoomminus.mouseover" end="zoomminus.mouseout"/>
                        </use>
                        <path d="M-4,0h8" fill="none" stroke="white" stroke-width="1.5" pointer-events="none"/>
                </g>
                <g id="dirArrow">
                        <path fill="none" stroke="white" stroke-width="1.5" d="M0,-3.0v7 M-2.5,-0.5L0,-3.0L2.5,-0.5"/>
                </g>
               <g id="resetDef">
                       <use xlink:href="#rim2" fill="#404040">
                               <set attributeName="fill" to="#808080" begin="reset.mouseover" end="reset.mouseout"/>
                       </use>
               </g>
        </defs>

<script type="text/javascript">
var viewWidth = 1012;
var viewHeight = 308;
var sectionId = 'dynsection-1';
</script>
<script xlink:href="../../svgpan.js"/>
<svg id="graph" class="graph">
<g id="viewport">
<title>PipelineStage.h</title>
<polygon fill="white" stroke="none" points="-4,4 -4,-304 1008,-304 1008,4 -4,4"/>
<!-- Node1 -->
<g id="node1" class="node"><title>Node1</title>
<polygon fill="#bfbfbf" stroke="black" points="561.5,-280.5 561.5,-299.5 652.5,-299.5 652.5,-280.5 561.5,-280.5"/>
<text text-anchor="middle" x="607" y="-287.5" font-family="Helvetica,sans-Serif" font-size="10.00">PipelineStage.h</text>
</g>
<!-- Node2 -->
<g id="node2" class="node"><title>Node2</title>
<g id="a_node2"><a xlink:href="../../dd/d99/BatchControlStage_8h.html" target="_top" xlink:title="BatchControlStage.h">
<polygon fill="white" stroke="black" points="167,-224.5 167,-243.5 283,-243.5 283,-224.5 167,-224.5"/>
<text text-anchor="middle" x="225" y="-231.5" font-family="Helvetica,sans-Serif" font-size="10.00">BatchControlStage.h</text>
</a>
</g>
</g>
<!-- Node1&#45;&gt;Node2 -->
<g id="edge1" class="edge"><title>Node1&#45;&gt;Node2</title>
<path fill="none" stroke="midnightblue" d="M551.125,-281.101C479.514,-270.978 355.956,-253.512 283.228,-243.231"/>
<polygon fill="midnightblue" stroke="midnightblue" points="550.91,-284.606 561.301,-282.54 551.89,-277.675 550.91,-284.606"/>
</g>
<!-- Node13 -->
<g id="node13" class="node"><title>Node13</title>
<g id="a_node13"><a xlink:href="../../da/d67/CollisionStage_8h.html" target="_top" xlink:title="CollisionStage.h">
<polygon fill="white" stroke="black" points="497.5,-224.5 497.5,-243.5 590.5,-243.5 590.5,-224.5 497.5,-224.5"/>
<text text-anchor="middle" x="544" y="-231.5" font-family="Helvetica,sans-Serif" font-size="10.00">CollisionStage.h</text>
</a>
</g>
</g>
<!-- Node1&#45;&gt;Node13 -->
<g id="edge14" class="edge"><title>Node1&#45;&gt;Node13</title>
<path fill="none" stroke="midnightblue" d="M588.96,-273.537C577.727,-263.909 563.681,-251.869 554.306,-243.834"/>
<polygon fill="midnightblue" stroke="midnightblue" points="587.008,-276.473 596.878,-280.324 591.563,-271.159 587.008,-276.473"/>
</g>
<!-- Node15 -->
<g id="node15" class="node"><title>Node15</title>
<g id="a_node15"><a xlink:href="../../d9/df4/LocalizationStage_8h.html" target="_top" xlink:title="LocalizationStage.h">
<polygon fill="white" stroke="black" points="324,-224.5 324,-243.5 434,-243.5 434,-224.5 324,-224.5"/>
<text text-anchor="middle" x="379" y="-231.5" font-family="Helvetica,sans-Serif" font-size="10.00">LocalizationStage.h</text>
</a>
</g>
</g>
<!-- Node1&#45;&gt;Node15 -->
<g id="edge18" class="edge"><title>Node1&#45;&gt;Node15</title>
<path fill="none" stroke="midnightblue" d="M560.929,-278.088C517.854,-267.887 454.414,-252.861 414.958,-243.516"/>
<polygon fill="midnightblue" stroke="midnightblue" points="560.335,-281.545 570.873,-280.444 561.949,-274.733 560.335,-281.545"/>
</g>
<!-- Node17 -->
<g id="node17" class="node"><title>Node17</title>
<g id="a_node17"><a xlink:href="../../dd/dbe/MotionPlannerStage_8h.html" target="_top" xlink:title="MotionPlannerStage.h">
<polygon fill="white" stroke="black" points="609,-224.5 609,-243.5 731,-243.5 731,-224.5 609,-224.5"/>
<text text-anchor="middle" x="670" y="-231.5" font-family="Helvetica,sans-Serif" font-size="10.00">MotionPlannerStage.h</text>
</a>
</g>
</g>
<!-- Node1&#45;&gt;Node17 -->
<g id="edge22" class="edge"><title>Node1&#45;&gt;Node17</title>
<path fill="none" stroke="midnightblue" d="M625.04,-273.537C636.273,-263.909 650.319,-251.869 659.694,-243.834"/>
<polygon fill="midnightblue" stroke="midnightblue" points="622.437,-271.159 617.122,-280.324 626.992,-276.473 622.437,-271.159"/>
</g>
<!-- Node19 -->
<g id="node19" class="node"><title>Node19</title>
<g id="a_node19"><a xlink:href="../../d4/d12/TrafficLightStage_8h.html" target="_top" xlink:title="TrafficLightStage.h">
<polygon fill="white" stroke="black" points="749,-224.5 749,-243.5 853,-243.5 853,-224.5 749,-224.5"/>
<text text-anchor="middle" x="801" y="-231.5" font-family="Helvetica,sans-Serif" font-size="10.00">TrafficLightStage.h</text>
</a>
</g>
</g>
<!-- Node1&#45;&gt;Node19 -->
<g id="edge26" class="edge"><title>Node1&#45;&gt;Node19</title>
<path fill="none" stroke="midnightblue" d="M647.601,-277.699C684.215,-267.507 737.257,-252.743 770.404,-243.516"/>
<polygon fill="midnightblue" stroke="midnightblue" points="646.435,-274.39 637.74,-280.444 648.312,-281.134 646.435,-274.39"/>
</g>
<!-- Node21 -->
<g id="node21" class="node"><title>Node21</title>
<g id="a_node21"><a xlink:href="../../d2/d31/PipelineStage_8cpp.html" target="_top" xlink:title="PipelineStage.cpp">
<polygon fill="white" stroke="black" points="871,-224.5 871,-243.5 973,-243.5 973,-224.5 871,-224.5"/>
<text text-anchor="middle" x="922" y="-231.5" font-family="Helvetica,sans-Serif" font-size="10.00">PipelineStage.cpp</text>
</a>
</g>
</g>
<!-- Node1&#45;&gt;Node21 -->
<g id="edge30" class="edge"><title>Node1&#45;&gt;Node21</title>
<path fill="none" stroke="midnightblue" d="M662.758,-279.442C722.141,-269.262 815.257,-253.299 872.24,-243.53"/>
<polygon fill="midnightblue" stroke="midnightblue" points="662.069,-276.009 652.804,-281.148 663.251,-282.908 662.069,-276.009"/>
</g>
<!-- Node3 -->
<g id="node3" class="node"><title>Node3</title>
<g id="a_node3"><a xlink:href="../../da/dfd/TrafficManager_8h.html" target="_top" xlink:title="TrafficManager.h">
<polygon fill="white" stroke="black" points="585,-112.5 585,-131.5 679,-131.5 679,-112.5 585,-112.5"/>
<text text-anchor="middle" x="632" y="-119.5" font-family="Helvetica,sans-Serif" font-size="10.00">TrafficManager.h</text>
</a>
</g>
</g>
<!-- Node2&#45;&gt;Node3 -->
<g id="edge2" class="edge"><title>Node2&#45;&gt;Node3</title>
<path fill="none" stroke="midnightblue" d="M201.57,-218.748C182.131,-205.198 159.923,-184.495 175,-168 205.107,-135.062 530.714,-137.483 575,-132 578.182,-131.606 581.458,-131.17 584.757,-130.709"/>
<polygon fill="midnightblue" stroke="midnightblue" points="199.891,-221.834 210.163,-224.43 203.752,-215.995 199.891,-221.834"/>
</g>
<!-- Node10 -->
<g id="node10" class="node"><title>Node10</title>
<g id="a_node10"><a xlink:href="../../db/ddf/TrafficManagerLocal_8h.html" target="_top" xlink:title="TrafficManagerLocal.h">
<polygon fill="white" stroke="black" points="484.5,-168.5 484.5,-187.5 603.5,-187.5 603.5,-168.5 484.5,-168.5"/>
<text text-anchor="middle" x="544" y="-175.5" font-family="Helvetica,sans-Serif" font-size="10.00">TrafficManagerLocal.h</text>
</a>
</g>
</g>
<!-- Node2&#45;&gt;Node10 -->
<g id="edge10" class="edge"><title>Node2&#45;&gt;Node10</title>
<path fill="none" stroke="midnightblue" d="M285.684,-222.727C345.966,-212.523 437.322,-197.058 493.69,-187.516"/>
<polygon fill="midnightblue" stroke="midnightblue" points="284.822,-219.324 275.546,-224.444 285.99,-226.225 284.822,-219.324"/>
</g>
<!-- Node12 -->
<g id="node12" class="node"><title>Node12</title>
<g id="a_node12"><a xlink:href="../../d8/df3/BatchControlStage_8cpp.html" target="_top" xlink:title="BatchControlStage.cpp">
<polygon fill="white" stroke="black" points="0,-168.5 0,-187.5 128,-187.5 128,-168.5 0,-168.5"/>
<text text-anchor="middle" x="64" y="-175.5" font-family="Helvetica,sans-Serif" font-size="10.00">BatchControlStage.cpp</text>
</a>
</g>
</g>
<!-- Node2&#45;&gt;Node12 -->
<g id="edge13" class="edge"><title>Node2&#45;&gt;Node12</title>
<path fill="none" stroke="midnightblue" d="M189.735,-221.172C159.419,-211.004 116.43,-196.585 89.3916,-187.516"/>
<polygon fill="midnightblue" stroke="midnightblue" points="188.895,-224.582 199.489,-224.444 191.121,-217.945 188.895,-224.582"/>
</g>
<!-- Node4 -->
<g id="node4" class="node"><title>Node4</title>
<g id="a_node4"><a xlink:href="../../dd/de3/client_2Client_8h.html" target="_top" xlink:title="Client.h">
<polygon fill="white" stroke="black" points="523.5,-56.5 523.5,-75.5 576.5,-75.5 576.5,-56.5 523.5,-56.5"/>
<text text-anchor="middle" x="550" y="-63.5" font-family="Helvetica,sans-Serif" font-size="10.00">Client.h</text>
</a>
</g>
</g>
<!-- Node3&#45;&gt;Node4 -->
<g id="edge3" class="edge"><title>Node3&#45;&gt;Node4</title>
<path fill="none" stroke="midnightblue" d="M610.167,-106.622C595.187,-96.7574 575.803,-83.9919 563.142,-75.6545"/>
<polygon fill="midnightblue" stroke="midnightblue" points="608.549,-109.747 618.825,-112.324 612.399,-103.901 608.549,-109.747"/>
</g>
<!-- Node5 -->
<g id="node5" class="node"><title>Node5</title>
<g id="a_node5"><a xlink:href="../../db/d04/TrafficManager_8cpp.html" target="_top" xlink:title="TrafficManager.cpp">
<polygon fill="white" stroke="black" points="442.5,-0.5 442.5,-19.5 547.5,-19.5 547.5,-0.5 442.5,-0.5"/>
<text text-anchor="middle" x="495" y="-7.5" font-family="Helvetica,sans-Serif" font-size="10.00">TrafficManager.cpp</text>
</a>
</g>
</g>
<!-- Node3&#45;&gt;Node5 -->
<g id="edge9" class="edge"><title>Node3&#45;&gt;Node5</title>
<path fill="none" stroke="midnightblue" d="M575.105,-110.63C553.368,-104.034 529.992,-93.324 514,-76 499.327,-60.1042 495.931,-33.4795 495.181,-19.7605"/>
<polygon fill="midnightblue" stroke="midnightblue" points="574.371,-114.059 584.944,-113.38 576.255,-107.317 574.371,-114.059"/>
</g>
<!-- Node7 -->
<g id="node7" class="node"><title>Node7</title>
<g id="a_node7"><a xlink:href="../../d6/d12/Episode_8cpp.html" target="_top" xlink:title="Episode.cpp">
<polygon fill="white" stroke="black" points="595,-56.5 595,-75.5 669,-75.5 669,-56.5 595,-56.5"/>
<text text-anchor="middle" x="632" y="-63.5" font-family="Helvetica,sans-Serif" font-size="10.00">Episode.cpp</text>
</a>
</g>
</g>
<!-- Node3&#45;&gt;Node7 -->
<g id="edge6" class="edge"><title>Node3&#45;&gt;Node7</title>
<path fill="none" stroke="midnightblue" d="M632,-101.805C632,-92.9102 632,-82.7798 632,-75.7511"/>
<polygon fill="midnightblue" stroke="midnightblue" points="628.5,-102.083 632,-112.083 635.5,-102.083 628.5,-102.083"/>
</g>
<!-- Node8 -->
<g id="node8" class="node"><title>Node8</title>
<g id="a_node8"><a xlink:href="../../d2/d0c/Simulator_8cpp.html" target="_top" xlink:title="Simulator.cpp">
<polygon fill="white" stroke="black" points="687.5,-56.5 687.5,-75.5 770.5,-75.5 770.5,-56.5 687.5,-56.5"/>
<text text-anchor="middle" x="729" y="-63.5" font-family="Helvetica,sans-Serif" font-size="10.00">Simulator.cpp</text>
</a>
</g>
</g>
<!-- Node3&#45;&gt;Node8 -->
<g id="edge7" class="edge"><title>Node3&#45;&gt;Node8</title>
<path fill="none" stroke="midnightblue" d="M656.335,-107.453C674.243,-97.4835 698.054,-84.2279 713.454,-75.6545"/>
<polygon fill="midnightblue" stroke="midnightblue" points="654.62,-104.402 647.585,-112.324 658.025,-110.518 654.62,-104.402"/>
</g>
<!-- Node9 -->
<g id="node9" class="node"><title>Node9</title>
<g id="a_node9"><a xlink:href="../../d0/d27/Vehicle_8cpp.html" target="_top" xlink:title="Vehicle.cpp">
<polygon fill="white" stroke="black" points="788.5,-56.5 788.5,-75.5 859.5,-75.5 859.5,-56.5 788.5,-56.5"/>
<text text-anchor="middle" x="824" y="-63.5" font-family="Helvetica,sans-Serif" font-size="10.00">Vehicle.cpp</text>
</a>
</g>
</g>
<!-- Node3&#45;&gt;Node9 -->
<g id="edge8" class="edge"><title>Node3&#45;&gt;Node9</title>
<path fill="none" stroke="midnightblue" d="M672.183,-109.699C708.419,-99.507 760.914,-84.7429 793.719,-75.5164"/>
<polygon fill="midnightblue" stroke="midnightblue" points="671.102,-106.367 662.423,-112.444 672.997,-113.105 671.102,-106.367"/>
</g>
<!-- Node4&#45;&gt;Node5 -->
<g id="edge4" class="edge"><title>Node4&#45;&gt;Node5</title>
<path fill="none" stroke="midnightblue" d="M533.706,-49.0024C523.959,-39.4329 511.947,-27.6389 503.913,-19.7511"/>
<polygon fill="midnightblue" stroke="midnightblue" points="531.33,-51.5746 540.918,-56.083 536.234,-46.5796 531.33,-51.5746"/>
</g>
<!-- Node6 -->
<g id="node6" class="node"><title>Node6</title>
<g id="a_node6"><a xlink:href="../../d6/d82/TrafficManagerRemote_8cpp.html" target="_top" xlink:title="TrafficManagerRemote.cpp">
<polygon fill="white" stroke="black" points="565.5,-0.5 565.5,-19.5 708.5,-19.5 708.5,-0.5 565.5,-0.5"/>
<text text-anchor="middle" x="637" y="-7.5" font-family="Helvetica,sans-Serif" font-size="10.00">TrafficManagerRemote.cpp</text>
</a>
</g>
</g>
<!-- Node4&#45;&gt;Node6 -->
<g id="edge5" class="edge"><title>Node4&#45;&gt;Node6</title>
<path fill="none" stroke="midnightblue" d="M572.716,-50.9005C588.669,-40.9986 609.497,-28.0705 623.057,-19.6545"/>
<polygon fill="midnightblue" stroke="midnightblue" points="570.629,-48.0765 563.978,-56.324 574.32,-54.024 570.629,-48.0765"/>
</g>
<!-- Node10&#45;&gt;Node3 -->
<g id="edge11" class="edge"><title>Node10&#45;&gt;Node3</title>
<path fill="none" stroke="midnightblue" d="M566.977,-162.901C583.113,-152.999 604.181,-140.071 617.896,-131.655"/>
<polygon fill="midnightblue" stroke="midnightblue" points="564.831,-160.111 558.139,-168.324 568.493,-166.077 564.831,-160.111"/>
</g>
<!-- Node11 -->
<g id="node11" class="node"><title>Node11</title>
<g id="a_node11"><a xlink:href="../../da/d53/TrafficManagerLocal_8cpp.html" target="_top" xlink:title="TrafficManagerLocal.cpp">
<polygon fill="white" stroke="black" points="435.5,-112.5 435.5,-131.5 566.5,-131.5 566.5,-112.5 435.5,-112.5"/>
<text text-anchor="middle" x="501" y="-119.5" font-family="Helvetica,sans-Serif" font-size="10.00">TrafficManagerLocal.cpp</text>
</a>
</g>
</g>
<!-- Node10&#45;&gt;Node11 -->
<g id="edge12" class="edge"><title>Node10&#45;&gt;Node11</title>
<path fill="none" stroke="midnightblue" d="M530.578,-160.144C523.086,-150.736 514.063,-139.405 507.968,-131.751"/>
<polygon fill="midnightblue" stroke="midnightblue" points="527.932,-162.44 536.899,-168.083 533.408,-158.08 527.932,-162.44"/>
</g>
<!-- Node13&#45;&gt;Node3 -->
<g id="edge15" class="edge"><title>Node13&#45;&gt;Node3</title>
<path fill="none" stroke="midnightblue" d="M573.038,-219.648C586.602,-212.093 601.94,-201.446 612,-188 624.873,-170.794 629.551,-145.2 631.18,-131.841"/>
<polygon fill="midnightblue" stroke="midnightblue" points="571.246,-216.636 564.017,-224.381 574.498,-222.834 571.246,-216.636"/>
</g>
<!-- Node13&#45;&gt;Node10 -->
<g id="edge16" class="edge"><title>Node13&#45;&gt;Node10</title>
<path fill="none" stroke="midnightblue" d="M544,-213.805C544,-204.91 544,-194.78 544,-187.751"/>
<polygon fill="midnightblue" stroke="midnightblue" points="540.5,-214.083 544,-224.083 547.5,-214.083 540.5,-214.083"/>
</g>
<!-- Node14 -->
<g id="node14" class="node"><title>Node14</title>
<g id="a_node14"><a xlink:href="../../db/da2/CollisionStage_8cpp.html" target="_top" xlink:title="CollisionStage.cpp">
<polygon fill="white" stroke="black" points="362,-168.5 362,-187.5 466,-187.5 466,-168.5 362,-168.5"/>
<text text-anchor="middle" x="414" y="-175.5" font-family="Helvetica,sans-Serif" font-size="10.00">CollisionStage.cpp</text>
</a>
</g>
</g>
<!-- Node13&#45;&gt;Node14 -->
<g id="edge17" class="edge"><title>Node13&#45;&gt;Node14</title>
<path fill="none" stroke="midnightblue" d="M513.915,-220.503C489.543,-210.38 455.86,-196.388 434.503,-187.516"/>
<polygon fill="midnightblue" stroke="midnightblue" points="512.823,-223.84 523.401,-224.444 515.509,-217.375 512.823,-223.84"/>
</g>
<!-- Node15&#45;&gt;Node3 -->
<g id="edge19" class="edge"><title>Node15&#45;&gt;Node3</title>
<path fill="none" stroke="midnightblue" d="M363.398,-216.138C352.243,-202.001 341.123,-181.946 353,-168 353.47,-167.448 505.317,-143.184 584.768,-130.52"/>
<polygon fill="midnightblue" stroke="midnightblue" points="360.998,-218.718 370.143,-224.068 366.33,-214.183 360.998,-218.718"/>
</g>
<!-- Node15&#45;&gt;Node10 -->
<g id="edge20" class="edge"><title>Node15&#45;&gt;Node10</title>
<path fill="none" stroke="midnightblue" d="M414.736,-221.304C445.827,-211.129 490.147,-196.625 517.978,-187.516"/>
<polygon fill="midnightblue" stroke="midnightblue" points="413.56,-218.007 405.145,-224.444 415.737,-224.659 413.56,-218.007"/>
</g>
<!-- Node16 -->
<g id="node16" class="node"><title>Node16</title>
<g id="a_node16"><a xlink:href="../../df/dd3/LocalizationStage_8cpp.html" target="_top" xlink:title="LocalizationStage.cpp">
<polygon fill="white" stroke="black" points="184,-168.5 184,-187.5 306,-187.5 306,-168.5 184,-168.5"/>
<text text-anchor="middle" x="245" y="-175.5" font-family="Helvetica,sans-Serif" font-size="10.00">LocalizationStage.cpp</text>
</a>
</g>
</g>
<!-- Node15&#45;&gt;Node16 -->
<g id="edge21" class="edge"><title>Node15&#45;&gt;Node16</title>
<path fill="none" stroke="midnightblue" d="M348.323,-220.638C323.177,-210.504 288.246,-196.427 266.133,-187.516"/>
<polygon fill="midnightblue" stroke="midnightblue" points="347.184,-223.952 357.767,-224.444 349.8,-217.459 347.184,-223.952"/>
</g>
<!-- Node17&#45;&gt;Node3 -->
<g id="edge23" class="edge"><title>Node17&#45;&gt;Node3</title>
<path fill="none" stroke="midnightblue" d="M663.669,-214.674C655.361,-190.625 641.116,-149.388 634.968,-131.591"/>
<polygon fill="midnightblue" stroke="midnightblue" points="660.445,-216.059 667.018,-224.368 667.061,-213.774 660.445,-216.059"/>
</g>
<!-- Node17&#45;&gt;Node10 -->
<g id="edge24" class="edge"><title>Node17&#45;&gt;Node10</title>
<path fill="none" stroke="midnightblue" d="M640.84,-220.503C617.219,-210.38 584.572,-196.388 563.872,-187.516"/>
<polygon fill="midnightblue" stroke="midnightblue" points="639.465,-223.721 650.035,-224.444 642.222,-217.287 639.465,-223.721"/>
</g>
<!-- Node18 -->
<g id="node18" class="node"><title>Node18</title>
<g id="a_node18"><a xlink:href="../../dc/d96/MotionPlannerStage_8cpp.html" target="_top" xlink:title="MotionPlannerStage.cpp">
<polygon fill="white" stroke="black" points="698,-168.5 698,-187.5 832,-187.5 832,-168.5 698,-168.5"/>
<text text-anchor="middle" x="765" y="-175.5" font-family="Helvetica,sans-Serif" font-size="10.00">MotionPlannerStage.cpp</text>
</a>
</g>
</g>
<!-- Node17&#45;&gt;Node18 -->
<g id="edge25" class="edge"><title>Node17&#45;&gt;Node18</title>
<path fill="none" stroke="midnightblue" d="M694.318,-219.177C711.799,-209.241 734.83,-196.149 749.774,-187.655"/>
<polygon fill="midnightblue" stroke="midnightblue" points="692.227,-216.339 685.263,-224.324 695.687,-222.425 692.227,-216.339"/>
</g>
<!-- Node19&#45;&gt;Node3 -->
<g id="edge27" class="edge"><title>Node19&#45;&gt;Node3</title>
<path fill="none" stroke="midnightblue" d="M821.056,-217.862C836.712,-204.207 853.832,-183.889 841,-168 821.061,-143.311 734.507,-131.527 679.228,-126.423"/>
<polygon fill="midnightblue" stroke="midnightblue" points="818.677,-215.286 813.168,-224.336 823.118,-220.697 818.677,-215.286"/>
</g>
<!-- Node19&#45;&gt;Node10 -->
<g id="edge28" class="edge"><title>Node19&#45;&gt;Node10</title>
<path fill="none" stroke="midnightblue" d="M750.293,-222.346C701.724,-212.141 629.381,-196.94 584.532,-187.516"/>
<polygon fill="midnightblue" stroke="midnightblue" points="749.772,-225.812 760.278,-224.444 751.211,-218.962 749.772,-225.812"/>
</g>
<!-- Node20 -->
<g id="node20" class="node"><title>Node20</title>
<g id="a_node20"><a xlink:href="../../dc/d13/TrafficLightStage_8cpp.html" target="_top" xlink:title="TrafficLightStage.cpp">
<polygon fill="white" stroke="black" points="888,-168.5 888,-187.5 1004,-187.5 1004,-168.5 888,-168.5"/>
<text text-anchor="middle" x="946" y="-175.5" font-family="Helvetica,sans-Serif" font-size="10.00">TrafficLightStage.cpp</text>
</a>
</g>
</g>
<!-- Node19&#45;&gt;Node20 -->
<g id="edge29" class="edge"><title>Node19&#45;&gt;Node20</title>
<path fill="none" stroke="midnightblue" d="M833.475,-220.906C860.736,-210.754 898.992,-196.506 923.132,-187.516"/>
<polygon fill="midnightblue" stroke="midnightblue" points="832.125,-217.674 823.976,-224.444 834.568,-224.233 832.125,-217.674"/>
</g>
</g>
</svg>
        <g id="navigator" transform="translate(0 0)" fill="#404254">
                <rect fill="#f2f5e9" fill-opacity="0.5" stroke="#606060" stroke-width=".5" x="0" y="0" width="60" height="60"/>
                <use id="zoomplus" xlink:href="#zoomPlus" x="17" y="9" onmousedown="handleZoom(evt,'in')"/>
                <use id="zoomminus" xlink:href="#zoomMin" x="42" y="9" onmousedown="handleZoom(evt,'out')"/>
                <use id="reset" xlink:href="#resetDef" x="30" y="36" onmousedown="handleReset()"/>
                <g id="arrowUp" xlink:href="#dirArrow" transform="translate(30 24)" onmousedown="handlePan(0,-1)">
                  <use xlink:href="#rim" fill="#404040">
                        <set attributeName="fill" to="#808080" begin="arrowUp.mouseover" end="arrowUp.mouseout"/>
                  </use>
                  <path fill="none" stroke="white" stroke-width="1.5" d="M0,-3.0v7 M-2.5,-0.5L0,-3.0L2.5,-0.5"/>
                </g>
                <g id="arrowRight" xlink:href="#dirArrow" transform="rotate(90) translate(36 -43)" onmousedown="handlePan(1,0)">
                  <use xlink:href="#rim" fill="#404040">
                        <set attributeName="fill" to="#808080" begin="arrowRight.mouseover" end="arrowRight.mouseout"/>
                  </use>
                  <path fill="none" stroke="white" stroke-width="1.5" d="M0,-3.0v7 M-2.5,-0.5L0,-3.0L2.5,-0.5"/>
                </g>
                <g id="arrowDown" xlink:href="#dirArrow" transform="rotate(180) translate(-30 -48)" onmousedown="handlePan(0,1)">
                  <use xlink:href="#rim" fill="#404040">
                        <set attributeName="fill" to="#808080" begin="arrowDown.mouseover" end="arrowDown.mouseout"/>
                  </use>
                  <path fill="none" stroke="white" stroke-width="1.5" d="M0,-3.0v7 M-2.5,-0.5L0,-3.0L2.5,-0.5"/>
                </g>
                <g id="arrowLeft" xlink:href="#dirArrow" transform="rotate(270) translate(-36 17)" onmousedown="handlePan(-1,0)">
                  <use xlink:href="#rim" fill="#404040">
                        <set attributeName="fill" to="#808080" begin="arrowLeft.mouseover" end="arrowLeft.mouseout"/>
                  </use>
                  <path fill="none" stroke="white" stroke-width="1.5" d="M0,-3.0v7 M-2.5,-0.5L0,-3.0L2.5,-0.5"/>
                </g>
        </g>
        <svg viewBox="0 0 15 15" width="100%" height="30px" preserveAspectRatio="xMaxYMin meet">
         <g id="arrow_out" transform="scale(0.3 0.3)">
          <a xlink:href="PipelineStage_8h__dep__incl_org.svg" target="_base">
           <rect id="button" ry="5" rx="5" y="6" x="6" height="38" width="38"
                fill="#f2f5e9" fill-opacity="0.5" stroke="#606060" stroke-width="1.0"/>
           <path id="arrow"
             d="M 11.500037,31.436501 C 11.940474,20.09759 22.043105,11.32322 32.158766,21.979434 L 37.068811,17.246167 C 37.068811,17.246167 37.088388,32 37.088388,32 L 22.160133,31.978069 C 22.160133,31.978069 26.997745,27.140456 26.997745,27.140456 C 18.528582,18.264221 13.291696,25.230495 11.500037,31.436501 z"
             style="fill:#404040;"/>
          </a>
         </g>
        </svg>
</svg>
