<?xml version="1.0" encoding="UTF-8" standalone="no"?>
<!DOCTYPE svg PUBLIC "-//W3C//DTD SVG 1.1//EN"
 "http://www.w3.org/Graphics/SVG/1.1/DTD/svg11.dtd">
<!-- Generated by graphviz version 2.38.0 (20140413.2041)
 -->
<!-- Title: ASceneCaptureSensor Pages: 1 -->
<svg width="353pt" height="252pt"
 viewBox="0.00 0.00 352.50 252.00" xmlns="http://www.w3.org/2000/svg" xmlns:xlink="http://www.w3.org/1999/xlink">
<g id="graph0" class="graph" transform="scale(1 1) rotate(0) translate(4 248)">
<title>ASceneCaptureSensor</title>
<polygon fill="white" stroke="none" points="-4,4 -4,-248 348.5,-248 348.5,4 -4,4"/>
<!-- Node1 -->
<g id="node1" class="node"><title>Node1</title>
<polygon fill="#bfbfbf" stroke="black" points="69,-112.5 69,-131.5 185,-131.5 185,-112.5 69,-112.5"/>
<text text-anchor="middle" x="127" y="-119.5" font-family="Helvetica,sans-Serif" font-size="10.00">ASceneCaptureSensor</text>
</g>
<!-- Node4 -->
<g id="node4" class="node"><title>Node4</title>
<g id="a_node4"><a xlink:href="../../d8/d68/classASceneCaptureCamera.html" target="_top" xlink:title="A sensor that captures images from the scene. ">
<polygon fill="white" stroke="black" points="0,-56.5 0,-75.5 120,-75.5 120,-56.5 0,-56.5"/>
<text text-anchor="middle" x="60" y="-63.5" font-family="Helvetica,sans-Serif" font-size="10.00">ASceneCaptureCamera</text>
</a>
</g>
</g>
<!-- Node1&#45;&gt;Node4 -->
<g id="edge3" class="edge"><title>Node1&#45;&gt;Node4</title>
<path fill="none" stroke="midnightblue" d="M108.165,-105.82C96.1616,-96.1452 81.0283,-83.9481 70.9606,-75.8339"/>
<polygon fill="midnightblue" stroke="midnightblue" points="106.253,-108.774 116.235,-112.324 110.646,-103.324 106.253,-108.774"/>
</g>
<!-- Node5 -->
<g id="node5" class="node"><title>Node5</title>
<g id="a_node5"><a xlink:href="../../da/dd3/classAShaderBasedSensor.html" target="_top" xlink:title="A sensor that produces data by applying post&#45;process materials (shaders) to a scene capture image...">
<polygon fill="white" stroke="black" points="138.5,-56.5 138.5,-75.5 251.5,-75.5 251.5,-56.5 138.5,-56.5"/>
<text text-anchor="middle" x="195" y="-63.5" font-family="Helvetica,sans-Serif" font-size="10.00">AShaderBasedSensor</text>
</a>
</g>
</g>
<!-- Node1&#45;&gt;Node5 -->
<g id="edge4" class="edge"><title>Node1&#45;&gt;Node5</title>
<path fill="none" stroke="midnightblue" d="M145.762,-106.101C158,-96.3824 173.559,-84.0269 183.876,-75.8339"/>
<polygon fill="midnightblue" stroke="midnightblue" points="143.58,-103.364 137.925,-112.324 147.933,-108.846 143.58,-103.364"/>
</g>
<!-- Node2 -->
<g id="node2" class="node"><title>Node2</title>
<g id="a_node2"><a xlink:href="../../d3/d01/classASensor.html" target="_top" xlink:title="Base class for sensors. ">
<polygon fill="white" stroke="black" points="100,-168.5 100,-187.5 154,-187.5 154,-168.5 100,-168.5"/>
<text text-anchor="middle" x="127" y="-175.5" font-family="Helvetica,sans-Serif" font-size="10.00">ASensor</text>
</a>
</g>
</g>
<!-- Node2&#45;&gt;Node1 -->
<g id="edge1" class="edge"><title>Node2&#45;&gt;Node1</title>
<path fill="none" stroke="midnightblue" d="M127,-157.805C127,-148.91 127,-138.78 127,-131.751"/>
<polygon fill="midnightblue" stroke="midnightblue" points="123.5,-158.083 127,-168.083 130.5,-158.083 123.5,-158.083"/>
</g>
<!-- Node3 -->
<g id="node3" class="node"><title>Node3</title>
<g id="a_node3"><a xlink:href="../../d1/da4/classAActor.html" target="_top" xlink:title="AActor">
<polygon fill="white" stroke="black" points="103.5,-224.5 103.5,-243.5 150.5,-243.5 150.5,-224.5 103.5,-224.5"/>
<text text-anchor="middle" x="127" y="-231.5" font-family="Helvetica,sans-Serif" font-size="10.00">AActor</text>
</a>
</g>
</g>
<!-- Node3&#45;&gt;Node2 -->
<g id="edge2" class="edge"><title>Node3&#45;&gt;Node2</title>
<path fill="none" stroke="midnightblue" d="M127,-213.805C127,-204.91 127,-194.78 127,-187.751"/>
<polygon fill="midnightblue" stroke="midnightblue" points="123.5,-214.083 127,-224.083 130.5,-214.083 123.5,-214.083"/>
</g>
<!-- Node6 -->
<g id="node6" class="node"><title>Node6</title>
<g id="a_node6"><a xlink:href="../../db/d36/classADepthCamera.html" target="_top" xlink:title="Sensor that produces &quot;depth&quot; images. ">
<polygon fill="white" stroke="black" points="84,-0.5 84,-19.5 168,-19.5 168,-0.5 84,-0.5"/>
<text text-anchor="middle" x="126" y="-7.5" font-family="Helvetica,sans-Serif" font-size="10.00">ADepthCamera</text>
</a>
</g>
</g>
<!-- Node5&#45;&gt;Node6 -->
<g id="edge5" class="edge"><title>Node5&#45;&gt;Node6</title>
<path fill="none" stroke="midnightblue" d="M175.962,-50.1008C163.544,-40.3824 147.757,-28.0269 137.288,-19.8339"/>
<polygon fill="midnightblue" stroke="midnightblue" points="173.882,-52.9171 183.914,-56.324 178.196,-47.4046 173.882,-52.9171"/>
</g>
<!-- Node7 -->
<g id="node7" class="node"><title>Node7</title>
<g id="a_node7"><a xlink:href="../../d6/dad/classASemanticSegmentationCamera.html" target="_top" xlink:title="Sensor that produces &quot;semantic segmentation&quot; images. ">
<polygon fill="white" stroke="black" points="185.5,-0.5 185.5,-19.5 344.5,-19.5 344.5,-0.5 185.5,-0.5"/>
<text text-anchor="middle" x="265" y="-7.5" font-family="Helvetica,sans-Serif" font-size="10.00">ASemanticSegmentationCamera</text>
</a>
</g>
</g>
<!-- Node5&#45;&gt;Node7 -->
<g id="edge6" class="edge"><title>Node5&#45;&gt;Node7</title>
<path fill="none" stroke="midnightblue" d="M214.314,-50.1008C226.912,-40.3824 242.928,-28.0269 253.549,-19.8339"/>
<polygon fill="midnightblue" stroke="midnightblue" points="212.027,-47.4446 206.247,-56.324 216.302,-52.9871 212.027,-47.4446"/>
</g>
</g>
</svg>
