<?xml version="1.0" encoding="UTF-8" standalone="no"?>
<!DOCTYPE svg PUBLIC "-//W3C//DTD SVG 1.1//EN"
 "http://www.w3.org/Graphics/SVG/1.1/DTD/svg11.dtd">
<!-- Generated by graphviz version 2.38.0 (20140413.2041)
 -->
<!-- Title: AddNewBoneComponent Pages: 1 -->
<svg width="413pt" height="39pt"
 viewBox="0.00 0.00 413.00 39.00" xmlns="http://www.w3.org/2000/svg" xmlns:xlink="http://www.w3.org/1999/xlink">
<g id="graph0" class="graph" transform="scale(1 1) rotate(0) translate(4 35)">
<title>AddNewBoneComponent</title>
<polygon fill="white" stroke="none" points="-4,4 -4,-35 409,-35 409,4 -4,4"/>
<!-- Node1 -->
<g id="node1" class="node"><title>Node1</title>
<polygon fill="#bfbfbf" stroke="black" points="0,-6 0,-25 127,-25 127,-6 0,-6"/>
<text text-anchor="middle" x="63.5" y="-13" font-family="Helvetica,sans-Serif" font-size="10.00">AddNewBoneComponent</text>
</g>
<!-- Node2 -->
<g id="node2" class="node"><title>Node2</title>
<g id="a_node2"><a xlink:href="../../de/d2e/classAWalkerController.html#abe580b248054e20e4bf07237ddbb4eea" target="_top" xlink:title="AWalkerController::\lSetManualBones">
<polygon fill="white" stroke="black" points="163,-0.5 163,-30.5 265,-30.5 265,-0.5 163,-0.5"/>
<text text-anchor="start" x="171" y="-18.5" font-family="Helvetica,sans-Serif" font-size="10.00">AWalkerController::</text>
<text text-anchor="middle" x="214" y="-7.5" font-family="Helvetica,sans-Serif" font-size="10.00">SetManualBones</text>
</a>
</g>
</g>
<!-- Node1&#45;&gt;Node2 -->
<g id="edge1" class="edge"><title>Node1&#45;&gt;Node2</title>
<path fill="none" stroke="midnightblue" d="M137.148,-15.5C145.789,-15.5 154.458,-15.5 162.687,-15.5"/>
<polygon fill="midnightblue" stroke="midnightblue" points="137.047,-12.0001 127.047,-15.5 137.047,-19.0001 137.047,-12.0001"/>
</g>
<!-- Node3 -->
<g id="node3" class="node"><title>Node3</title>
<g id="a_node3"><a xlink:href="../../de/d2e/classAWalkerController.html#a7620478c70246c4cd40c621f5776c8c6" target="_top" xlink:title="AWalkerController::\lApplyWalkerControl">
<polygon fill="white" stroke="black" points="301,-0.5 301,-30.5 405,-30.5 405,-0.5 301,-0.5"/>
<text text-anchor="start" x="309" y="-18.5" font-family="Helvetica,sans-Serif" font-size="10.00">AWalkerController::</text>
<text text-anchor="middle" x="353" y="-7.5" font-family="Helvetica,sans-Serif" font-size="10.00">ApplyWalkerControl</text>
</a>
</g>
</g>
<!-- Node2&#45;&gt;Node3 -->
<g id="edge2" class="edge"><title>Node2&#45;&gt;Node3</title>
<path fill="none" stroke="midnightblue" d="M275.456,-15.5C283.931,-15.5 292.573,-15.5 300.852,-15.5"/>
<polygon fill="midnightblue" stroke="midnightblue" points="275.236,-12.0001 265.236,-15.5 275.236,-19.0001 275.236,-12.0001"/>
</g>
</g>
</svg>
