<?xml version="1.0" encoding="UTF-8" standalone="no"?>
<!DOCTYPE svg PUBLIC "-//W3C//DTD SVG 1.1//EN"
 "http://www.w3.org/Graphics/SVG/1.1/DTD/svg11.dtd">
<!-- Generated by graphviz version 2.40.1 (20161225.0304)
 -->
<!-- Title: carla::streaming::detail::StreamStateBase::DisconnectSession Pages: 1 -->
<svg width="390pt" height="39pt"
 viewBox="0.00 0.00 390.00 39.00" xmlns="http://www.w3.org/2000/svg" xmlns:xlink="http://www.w3.org/1999/xlink">
<g id="graph0" class="graph" transform="scale(1 1) rotate(0) translate(4 35)">
<title>carla::streaming::detail::StreamStateBase::DisconnectSession</title>
<polygon fill="#ffffff" stroke="transparent" points="-4,4 -4,-35 386,-35 386,4 -4,4"/>
<!-- Node13 -->
<g id="node1" class="node">
<title>Node13</title>
<polygon fill="#bfbfbf" stroke="#000000" points="0,-.5 0,-30.5 205,-30.5 205,-.5 0,-.5"/>
<text text-anchor="start" x="8" y="-18.5" font-family="Helvetica,sans-Serif" font-size="10.00" fill="#000000">carla::streaming::detail</text>
<text text-anchor="middle" x="102.5" y="-7.5" font-family="Helvetica,sans-Serif" font-size="10.00" fill="#000000">::StreamStateBase::DisconnectSession</text>
</g>
<!-- Node14 -->
<g id="node2" class="node">
<title>Node14</title>
<g id="a_node2"><a xlink:href="../../d3/d38/classcarla_1_1streaming_1_1detail_1_1StreamStateBase.html#a5746004f86413aa47d03328098977646" target="_top" xlink:title="carla::streaming::detail\l::StreamStateBase::token">
<polygon fill="#ffffff" stroke="#000000" points="241,-.5 241,-30.5 382,-30.5 382,-.5 241,-.5"/>
<text text-anchor="start" x="249" y="-18.5" font-family="Helvetica,sans-Serif" font-size="10.00" fill="#000000">carla::streaming::detail</text>
<text text-anchor="middle" x="311.5" y="-7.5" font-family="Helvetica,sans-Serif" font-size="10.00" fill="#000000">::StreamStateBase::token</text>
</a>
</g>
</g>
<!-- Node13&#45;&gt;Node14 -->
<g id="edge1" class="edge">
<title>Node13&#45;&gt;Node14</title>
<path fill="none" stroke="#191970" d="M215.3476,-15.5C224.0053,-15.5 232.5861,-15.5 240.8503,-15.5"/>
<polygon fill="#191970" stroke="#191970" points="215.1632,-12.0001 205.1632,-15.5 215.1631,-19.0001 215.1632,-12.0001"/>
</g>
</g>
</svg>
