<?xml version="1.0" encoding="UTF-8" standalone="no"?>
<!DOCTYPE svg PUBLIC "-//W3C//DTD SVG 1.1//EN"
 "http://www.w3.org/Graphics/SVG/1.1/DTD/svg11.dtd">
<!-- Generated by graphviz version 2.43.0 (0)
 -->
<!-- Title: JoinStrings Pages: 1 -->
<!--zoomable 666 -->
<svg id="main" version="1.1" xmlns="http://www.w3.org/2000/svg" xmlns:xlink="http://www.w3.org/1999/xlink" xml:space="preserve" onload="init(evt)">
<style type="text/css"><![CDATA[
.edge:hover path { stroke: red; }
.edge:hover polygon { stroke: red; fill: red; }
]]></style>
<script type="text/javascript"><![CDATA[
var edges = document.getElementsByTagName('g');
if (edges && edges.length) {
  for (var i=0;i<edges.length;i++) {
    if (edges[i].id.substr(0,4)=='edge') {
      edges[i].setAttribute('class','edge');
    }
  }
}
]]></script>
        <defs>
                <circle id="rim" cx="0" cy="0" r="7"/>
                <circle id="rim2" cx="0" cy="0" r="3.5"/>
                <g id="zoomPlus">
                        <use xlink:href="#rim" fill="#404040">
                                <set attributeName="fill" to="#808080" begin="zoomplus.mouseover" end="zoomplus.mouseout"/>
                        </use>
                        <path d="M-4,0h8M0,-4v8" fill="none" stroke="white" stroke-width="1.5" pointer-events="none"/>
                </g>
                <g id="zoomMin">
                        <use xlink:href="#rim" fill="#404040">
                                <set attributeName="fill" to="#808080" begin="zoomminus.mouseover" end="zoomminus.mouseout"/>
                        </use>
                        <path d="M-4,0h8" fill="none" stroke="white" stroke-width="1.5" pointer-events="none"/>
                </g>
                <g id="dirArrow">
                        <path fill="none" stroke="white" stroke-width="1.5" d="M0,-3.0v7 M-2.5,-0.5L0,-3.0L2.5,-0.5"/>
                </g>
               <g id="resetDef">
                       <use xlink:href="#rim2" fill="#404040">
                               <set attributeName="fill" to="#808080" begin="reset.mouseover" end="reset.mouseout"/>
                       </use>
               </g>
        </defs>

<script type="text/javascript">
var viewWidth = 1065;
var viewHeight = 666;
var sectionId = 'dynsection-12';
</script>
<script xlink:href="../../svgpan.js"/>
<svg id="graph" class="graph">
<g id="viewport">
<title>JoinStrings</title>
<polygon fill="white" stroke="transparent" points="-4,4 -4,-661.5 1061,-661.5 1061,4 -4,4"/>
<!-- Node1 -->
<g id="node1" class="node">
<title>Node1</title>
<g id="a_node1"><a xlink:title=" ">
<polygon fill="#bfbfbf" stroke="black" points="989,-545 989,-564 1057,-564 1057,-545 989,-545"/>
<text text-anchor="middle" x="1023" y="-552" font-family="Helvetica,sans-Serif" font-size="10.00">JoinStrings</text>
</a>
</g>
</g>
<!-- Node2 -->
<g id="node2" class="node">
<title>Node2</title>
<g id="a_node2"><a xlink:href="../../dd/d08/ActorBlueprintFunctionLibrary_8cpp.html#a0ed6067b7a394dc7af360f867ee6ae62" target="_top" xlink:title=" ">
<polygon fill="white" stroke="black" points="821,-588 821,-607 953,-607 953,-588 821,-588"/>
<text text-anchor="middle" x="887" y="-595" font-family="Helvetica,sans-Serif" font-size="10.00">AddVariationsForTrigger</text>
</a>
</g>
</g>
<!-- Node1&#45;&gt;Node2 -->
<g id="edge1" class="edge">
<title>Node1&#45;&gt;Node2</title>
<path fill="none" stroke="midnightblue" d="M982.46,-567.19C961.72,-573.84 936.72,-581.87 917.66,-587.98"/>
<polygon fill="midnightblue" stroke="midnightblue" points="983.81,-570.43 992.26,-564.04 981.67,-563.77 983.81,-570.43"/>
</g>
<!-- Node6 -->
<g id="node6" class="node">
<title>Node6</title>
<g id="a_node6"><a xlink:href="../../dd/d08/ActorBlueprintFunctionLibrary_8cpp.html#abe6e727c2c634020223b9825fb484d17" target="_top" xlink:title=" ">
<polygon fill="white" stroke="black" points="844,-545 844,-564 930,-564 930,-545 844,-545"/>
<text text-anchor="middle" x="887" y="-552" font-family="Helvetica,sans-Serif" font-size="10.00">ColorToFString</text>
</a>
</g>
</g>
<!-- Node1&#45;&gt;Node6 -->
<g id="edge5" class="edge">
<title>Node1&#45;&gt;Node6</title>
<path fill="none" stroke="midnightblue" d="M978.53,-554.5C963.09,-554.5 945.73,-554.5 930.37,-554.5"/>
<polygon fill="midnightblue" stroke="midnightblue" points="978.88,-558 988.88,-554.5 978.88,-551 978.88,-558"/>
</g>
<!-- Node9 -->
<g id="node9" class="node">
<title>Node9</title>
<g id="a_node9"><a xlink:href="../../dd/d08/ActorBlueprintFunctionLibrary_8cpp.html#ac988c3d668858d9fd2b0c5b5459a18bb" target="_top" xlink:title="============================================================================">
<polygon fill="white" stroke="black" points="847,-325 847,-344 927,-344 927,-325 847,-325"/>
<text text-anchor="middle" x="887" y="-332" font-family="Helvetica,sans-Serif" font-size="10.00">FillIdAndTags</text>
</a>
</g>
</g>
<!-- Node1&#45;&gt;Node9 -->
<g id="edge8" class="edge">
<title>Node1&#45;&gt;Node9</title>
<path fill="none" stroke="midnightblue" d="M1010.77,-536.07C983.49,-491.27 914.42,-377.88 893.86,-344.12"/>
<polygon fill="midnightblue" stroke="midnightblue" points="1007.88,-538.04 1016.07,-544.76 1013.86,-534.4 1007.88,-538.04"/>
</g>
<!-- Node3 -->
<g id="node3" class="node">
<title>Node3</title>
<g id="a_node3"><a xlink:href="../../dd/da3/classUActorBlueprintFunctionLibrary.html#a0213b0fbf5dcf2339ba8a54ea11f95d4" target="_top" xlink:title=" ">
<polygon fill="white" stroke="black" points="612.5,-588.5 612.5,-618.5 781.5,-618.5 781.5,-588.5 612.5,-588.5"/>
<text text-anchor="start" x="620.5" y="-606.5" font-family="Helvetica,sans-Serif" font-size="10.00">UActorBlueprintFunctionLibrary</text>
<text text-anchor="middle" x="697" y="-595.5" font-family="Helvetica,sans-Serif" font-size="10.00">::MakeTriggerDefinition</text>
</a>
</g>
</g>
<!-- Node2&#45;&gt;Node3 -->
<g id="edge2" class="edge">
<title>Node2&#45;&gt;Node3</title>
<path fill="none" stroke="midnightblue" d="M810.57,-599.91C801.06,-600.21 791.28,-600.52 781.65,-600.83"/>
<polygon fill="midnightblue" stroke="midnightblue" points="810.89,-603.4 820.77,-599.58 810.67,-596.4 810.89,-603.4"/>
</g>
<!-- Node4 -->
<g id="node4" class="node">
<title>Node4</title>
<g id="a_node4"><a xlink:href="../../d0/df9/classATriggerFactory.html#a776abd4dd8e282ee8a57eef277d3eaec" target="_top" xlink:title="Retrieve the definitions of all the sensors registered in the SensorRegistry.">
<polygon fill="white" stroke="black" points="405.5,-638 405.5,-657 571.5,-657 571.5,-638 405.5,-638"/>
<text text-anchor="middle" x="488.5" y="-645" font-family="Helvetica,sans-Serif" font-size="10.00">ATriggerFactory::GetDefinitions</text>
</a>
</g>
</g>
<!-- Node3&#45;&gt;Node4 -->
<g id="edge3" class="edge">
<title>Node3&#45;&gt;Node4</title>
<path fill="none" stroke="midnightblue" d="M615.45,-620.66C587.81,-626.55 557.89,-632.93 534.14,-637.99"/>
<polygon fill="midnightblue" stroke="midnightblue" points="616.46,-624.03 625.51,-618.52 615,-617.18 616.46,-624.03"/>
</g>
<!-- Node5 -->
<g id="node5" class="node">
<title>Node5</title>
<g id="a_node5"><a xlink:href="../../dd/da3/classUActorBlueprintFunctionLibrary.html#a5cddd62ff32e8276bcad25389a47ab74" target="_top" xlink:title=" ">
<polygon fill="white" stroke="black" points="404,-588.5 404,-618.5 573,-618.5 573,-588.5 404,-588.5"/>
<text text-anchor="start" x="412" y="-606.5" font-family="Helvetica,sans-Serif" font-size="10.00">UActorBlueprintFunctionLibrary</text>
<text text-anchor="middle" x="488.5" y="-595.5" font-family="Helvetica,sans-Serif" font-size="10.00">::MakeTriggerDefinitions</text>
</a>
</g>
</g>
<!-- Node3&#45;&gt;Node5 -->
<g id="edge4" class="edge">
<title>Node3&#45;&gt;Node5</title>
<path fill="none" stroke="midnightblue" d="M602.29,-603.5C592.63,-603.5 582.86,-603.5 573.31,-603.5"/>
<polygon fill="midnightblue" stroke="midnightblue" points="602.31,-607 612.31,-603.5 602.31,-600 602.31,-607"/>
</g>
<!-- Node7 -->
<g id="node7" class="node">
<title>Node7</title>
<g id="a_node7"><a xlink:href="../../dd/da3/classUActorBlueprintFunctionLibrary.html#a5e83afa97bb195943c3a8a3b9a897c87" target="_top" xlink:title=" ">
<polygon fill="white" stroke="black" points="612.5,-539.5 612.5,-569.5 781.5,-569.5 781.5,-539.5 612.5,-539.5"/>
<text text-anchor="start" x="620.5" y="-557.5" font-family="Helvetica,sans-Serif" font-size="10.00">UActorBlueprintFunctionLibrary</text>
<text text-anchor="middle" x="697" y="-546.5" font-family="Helvetica,sans-Serif" font-size="10.00">::MakeVehicleDefinition</text>
</a>
</g>
</g>
<!-- Node6&#45;&gt;Node7 -->
<g id="edge6" class="edge">
<title>Node6&#45;&gt;Node7</title>
<path fill="none" stroke="midnightblue" d="M833.54,-554.5C817.43,-554.5 799.28,-554.5 781.62,-554.5"/>
<polygon fill="midnightblue" stroke="midnightblue" points="833.81,-558 843.81,-554.5 833.81,-551 833.81,-558"/>
</g>
<!-- Node8 -->
<g id="node8" class="node">
<title>Node8</title>
<g id="a_node8"><a xlink:href="../../dd/da3/classUActorBlueprintFunctionLibrary.html#affd8df709504c5a38b3fc636d1748590" target="_top" xlink:title=" ">
<polygon fill="white" stroke="black" points="404,-539.5 404,-569.5 573,-569.5 573,-539.5 404,-539.5"/>
<text text-anchor="start" x="412" y="-557.5" font-family="Helvetica,sans-Serif" font-size="10.00">UActorBlueprintFunctionLibrary</text>
<text text-anchor="middle" x="488.5" y="-546.5" font-family="Helvetica,sans-Serif" font-size="10.00">::MakeVehicleDefinitions</text>
</a>
</g>
</g>
<!-- Node7&#45;&gt;Node8 -->
<g id="edge7" class="edge">
<title>Node7&#45;&gt;Node8</title>
<path fill="none" stroke="midnightblue" d="M602.29,-554.5C592.63,-554.5 582.86,-554.5 573.31,-554.5"/>
<polygon fill="midnightblue" stroke="midnightblue" points="602.31,-558 612.31,-554.5 602.31,-551 602.31,-558"/>
</g>
<!-- Node9&#45;&gt;Node3 -->
<g id="edge27" class="edge">
<title>Node9&#45;&gt;Node3</title>
<path fill="none" stroke="midnightblue" d="M880.4,-353.97C865,-406.25 820.78,-547.83 785,-579.5 781.13,-582.93 776.81,-585.87 772.22,-588.39"/>
<polygon fill="midnightblue" stroke="midnightblue" points="883.79,-354.83 883.23,-344.25 877.07,-352.87 883.79,-354.83"/>
</g>
<!-- Node9&#45;&gt;Node7 -->
<g id="edge29" class="edge">
<title>Node9&#45;&gt;Node7</title>
<path fill="none" stroke="midnightblue" d="M881.49,-354.2C871.39,-393.79 843.13,-483.3 785,-530.5 780.74,-533.96 776.02,-536.92 771.05,-539.45"/>
<polygon fill="midnightblue" stroke="midnightblue" points="884.91,-354.97 883.87,-344.43 878.11,-353.31 884.91,-354.97"/>
</g>
<!-- Node10 -->
<g id="node10" class="node">
<title>Node10</title>
<g id="a_node10"><a xlink:href="../../dd/da3/classUActorBlueprintFunctionLibrary.html#a472a14c750c6c5dc66b38cfeaea82ccc" target="_top" xlink:title=" ">
<polygon fill="white" stroke="black" points="612.5,-196.5 612.5,-226.5 781.5,-226.5 781.5,-196.5 612.5,-196.5"/>
<text text-anchor="start" x="620.5" y="-214.5" font-family="Helvetica,sans-Serif" font-size="10.00">UActorBlueprintFunctionLibrary</text>
<text text-anchor="middle" x="697" y="-203.5" font-family="Helvetica,sans-Serif" font-size="10.00">::MakeCameraDefinition</text>
</a>
</g>
</g>
<!-- Node9&#45;&gt;Node10 -->
<g id="edge9" class="edge">
<title>Node9&#45;&gt;Node10</title>
<path fill="none" stroke="midnightblue" d="M872.92,-317.06C855.35,-294.85 822.01,-256.8 785,-235.5 779.03,-232.06 772.53,-229.09 765.88,-226.54"/>
<polygon fill="midnightblue" stroke="midnightblue" points="870.17,-319.23 879.06,-324.99 875.71,-314.94 870.17,-319.23"/>
</g>
<!-- Node11 -->
<g id="node11" class="node">
<title>Node11</title>
<g id="a_node11"><a xlink:href="../../dd/da3/classUActorBlueprintFunctionLibrary.html#a6a975ca515c0b9d64bf8600dc1eeb699" target="_top" xlink:title=" ">
<polygon fill="white" stroke="black" points="612.5,-147.5 612.5,-177.5 781.5,-177.5 781.5,-147.5 612.5,-147.5"/>
<text text-anchor="start" x="620.5" y="-165.5" font-family="Helvetica,sans-Serif" font-size="10.00">UActorBlueprintFunctionLibrary</text>
<text text-anchor="middle" x="697" y="-154.5" font-family="Helvetica,sans-Serif" font-size="10.00">::MakeCustomV2XDefinition</text>
</a>
</g>
</g>
<!-- Node9&#45;&gt;Node11 -->
<g id="edge10" class="edge">
<title>Node9&#45;&gt;Node11</title>
<path fill="none" stroke="midnightblue" d="M878.23,-315.35C864.36,-283.62 832.29,-220.3 785,-186.5 780.16,-183.04 774.83,-180.07 769.28,-177.54"/>
<polygon fill="midnightblue" stroke="midnightblue" points="875.11,-316.96 882.23,-324.81 881.56,-314.24 875.11,-316.96"/>
</g>
<!-- Node12 -->
<g id="node12" class="node">
<title>Node12</title>
<g id="a_node12"><a xlink:href="../../dd/da3/classUActorBlueprintFunctionLibrary.html#ae0868b514cddf92d49758bc605e511c1" target="_top" xlink:title=" ">
<polygon fill="white" stroke="black" points="612.5,-98.5 612.5,-128.5 781.5,-128.5 781.5,-98.5 612.5,-98.5"/>
<text text-anchor="start" x="620.5" y="-116.5" font-family="Helvetica,sans-Serif" font-size="10.00">UActorBlueprintFunctionLibrary</text>
<text text-anchor="middle" x="697" y="-105.5" font-family="Helvetica,sans-Serif" font-size="10.00">::MakeGenericDefinition</text>
</a>
</g>
</g>
<!-- Node9&#45;&gt;Node12 -->
<g id="edge11" class="edge">
<title>Node9&#45;&gt;Node12</title>
<path fill="none" stroke="midnightblue" d="M881.6,-315.01C871.62,-275.36 843.46,-185.07 785,-137.5 780.75,-134.04 776.03,-131.07 771.06,-128.54"/>
<polygon fill="midnightblue" stroke="midnightblue" points="878.26,-316.06 883.99,-324.97 885.06,-314.43 878.26,-316.06"/>
</g>
<!-- Node19 -->
<g id="node19" class="node">
<title>Node19</title>
<g id="a_node19"><a xlink:href="../../dd/da3/classUActorBlueprintFunctionLibrary.html#a43f8e76c64459f72e679f073462f5983" target="_top" xlink:title=" ">
<polygon fill="white" stroke="black" points="612.5,-49.5 612.5,-79.5 781.5,-79.5 781.5,-49.5 612.5,-49.5"/>
<text text-anchor="start" x="620.5" y="-67.5" font-family="Helvetica,sans-Serif" font-size="10.00">UActorBlueprintFunctionLibrary</text>
<text text-anchor="middle" x="697" y="-56.5" font-family="Helvetica,sans-Serif" font-size="10.00">::MakeGnssDefinition</text>
</a>
</g>
</g>
<!-- Node9&#45;&gt;Node19 -->
<g id="edge18" class="edge">
<title>Node9&#45;&gt;Node19</title>
<path fill="none" stroke="midnightblue" d="M883.76,-314.76C877.4,-268.13 854.9,-150.45 785,-88.5 781.13,-85.07 776.81,-82.13 772.23,-79.6"/>
<polygon fill="midnightblue" stroke="midnightblue" points="880.3,-315.29 885.02,-324.77 887.24,-314.41 880.3,-315.29"/>
</g>
<!-- Node20 -->
<g id="node20" class="node">
<title>Node20</title>
<g id="a_node20"><a xlink:href="../../dd/da3/classUActorBlueprintFunctionLibrary.html#a8113a5e0efff9740fde3c53ed9994b6e" target="_top" xlink:title=" ">
<polygon fill="white" stroke="black" points="612.5,-0.5 612.5,-30.5 781.5,-30.5 781.5,-0.5 612.5,-0.5"/>
<text text-anchor="start" x="620.5" y="-18.5" font-family="Helvetica,sans-Serif" font-size="10.00">UActorBlueprintFunctionLibrary</text>
<text text-anchor="middle" x="697" y="-7.5" font-family="Helvetica,sans-Serif" font-size="10.00">::MakeIMUDefinition</text>
</a>
</g>
</g>
<!-- Node9&#45;&gt;Node20 -->
<g id="edge19" class="edge">
<title>Node9&#45;&gt;Node20</title>
<path fill="none" stroke="midnightblue" d="M885.3,-314.88C882.32,-262.18 866.72,-116.4 785,-39.5 781.35,-36.06 777.25,-33.11 772.88,-30.58"/>
<polygon fill="midnightblue" stroke="midnightblue" points="881.8,-315.08 885.77,-324.91 888.8,-314.75 881.8,-315.08"/>
</g>
<!-- Node21 -->
<g id="node21" class="node">
<title>Node21</title>
<g id="a_node21"><a xlink:href="../../dd/da3/classUActorBlueprintFunctionLibrary.html#abffeca8ba8f30edadcc4897ad8a21bc9" target="_top" xlink:title=" ">
<polygon fill="white" stroke="black" points="612.5,-490.5 612.5,-520.5 781.5,-520.5 781.5,-490.5 612.5,-490.5"/>
<text text-anchor="start" x="620.5" y="-508.5" font-family="Helvetica,sans-Serif" font-size="10.00">UActorBlueprintFunctionLibrary</text>
<text text-anchor="middle" x="697" y="-497.5" font-family="Helvetica,sans-Serif" font-size="10.00">::MakeLidarDefinition</text>
</a>
</g>
</g>
<!-- Node9&#45;&gt;Node21 -->
<g id="edge20" class="edge">
<title>Node9&#45;&gt;Node21</title>
<path fill="none" stroke="midnightblue" d="M878.19,-353.52C864.27,-385.04 832.13,-447.93 785,-481.5 780.15,-484.95 774.82,-487.91 769.27,-490.44"/>
<polygon fill="midnightblue" stroke="midnightblue" points="881.5,-354.7 882.21,-344.12 875.06,-351.94 881.5,-354.7"/>
</g>
<!-- Node22 -->
<g id="node22" class="node">
<title>Node22</title>
<g id="a_node22"><a xlink:href="../../dd/da3/classUActorBlueprintFunctionLibrary.html#ab49a876cfbacc4ffedbb09362fc9b180" target="_top" xlink:title=" ">
<polygon fill="white" stroke="black" points="609,-441.5 609,-471.5 785,-471.5 785,-441.5 609,-441.5"/>
<text text-anchor="start" x="617" y="-459.5" font-family="Helvetica,sans-Serif" font-size="10.00">UActorBlueprintFunctionLibrary</text>
<text text-anchor="middle" x="697" y="-448.5" font-family="Helvetica,sans-Serif" font-size="10.00">::MakeNormalsCameraDefinition</text>
</a>
</g>
</g>
<!-- Node9&#45;&gt;Node22 -->
<g id="edge21" class="edge">
<title>Node9&#45;&gt;Node22</title>
<path fill="none" stroke="midnightblue" d="M872.61,-352.09C854.93,-374.12 821.69,-411.5 785,-432.5 779.02,-435.92 772.52,-438.88 765.86,-441.43"/>
<polygon fill="midnightblue" stroke="midnightblue" points="875.38,-354.23 878.81,-344.21 869.88,-349.91 875.38,-354.23"/>
</g>
<!-- Node23 -->
<g id="node23" class="node">
<title>Node23</title>
<g id="a_node23"><a xlink:href="../../dd/da3/classUActorBlueprintFunctionLibrary.html#ab457df342c04ac42c785ef1c845fe5e0" target="_top" xlink:title=" ">
<polygon fill="white" stroke="black" points="612.5,-392.5 612.5,-422.5 781.5,-422.5 781.5,-392.5 612.5,-392.5"/>
<text text-anchor="start" x="620.5" y="-410.5" font-family="Helvetica,sans-Serif" font-size="10.00">UActorBlueprintFunctionLibrary</text>
<text text-anchor="middle" x="697" y="-399.5" font-family="Helvetica,sans-Serif" font-size="10.00">::MakePedestrianDefinition</text>
</a>
</g>
</g>
<!-- Node9&#45;&gt;Node23 -->
<g id="edge22" class="edge">
<title>Node9&#45;&gt;Node23</title>
<path fill="none" stroke="midnightblue" d="M859.01,-348.82C838.96,-359.08 810.75,-372.76 785,-382.5 775.59,-386.06 765.45,-389.4 755.53,-392.41"/>
<polygon fill="midnightblue" stroke="midnightblue" points="860.87,-351.79 868.14,-344.09 857.65,-345.58 860.87,-351.79"/>
</g>
<!-- Node25 -->
<g id="node25" class="node">
<title>Node25</title>
<g id="a_node25"><a xlink:href="../../dd/da3/classUActorBlueprintFunctionLibrary.html#a673c0d82c938a146db8bbfb6f29c6ab4" target="_top" xlink:title=" ">
<polygon fill="white" stroke="black" points="612.5,-343.5 612.5,-373.5 781.5,-373.5 781.5,-343.5 612.5,-343.5"/>
<text text-anchor="start" x="620.5" y="-361.5" font-family="Helvetica,sans-Serif" font-size="10.00">UActorBlueprintFunctionLibrary</text>
<text text-anchor="middle" x="697" y="-350.5" font-family="Helvetica,sans-Serif" font-size="10.00">::MakePropDefinition</text>
</a>
</g>
</g>
<!-- Node9&#45;&gt;Node25 -->
<g id="edge24" class="edge">
<title>Node9&#45;&gt;Node25</title>
<path fill="none" stroke="midnightblue" d="M836.44,-340.83C819.59,-342.98 800.27,-345.44 781.5,-347.84"/>
<polygon fill="midnightblue" stroke="midnightblue" points="837.11,-344.27 846.59,-339.53 836.23,-337.33 837.11,-344.27"/>
</g>
<!-- Node27 -->
<g id="node27" class="node">
<title>Node27</title>
<g id="a_node27"><a xlink:href="../../dd/da3/classUActorBlueprintFunctionLibrary.html#a8eb67a9669278274d94d01473c82da45" target="_top" xlink:title=" ">
<polygon fill="white" stroke="black" points="612.5,-294.5 612.5,-324.5 781.5,-324.5 781.5,-294.5 612.5,-294.5"/>
<text text-anchor="start" x="620.5" y="-312.5" font-family="Helvetica,sans-Serif" font-size="10.00">UActorBlueprintFunctionLibrary</text>
<text text-anchor="middle" x="697" y="-301.5" font-family="Helvetica,sans-Serif" font-size="10.00">::MakeRadarDefinition</text>
</a>
</g>
</g>
<!-- Node9&#45;&gt;Node27 -->
<g id="edge26" class="edge">
<title>Node9&#45;&gt;Node27</title>
<path fill="none" stroke="midnightblue" d="M836.44,-327.91C819.59,-325.67 800.27,-323.1 781.5,-320.6"/>
<polygon fill="midnightblue" stroke="midnightblue" points="836.21,-331.41 846.59,-329.26 837.14,-324.47 836.21,-331.41"/>
</g>
<!-- Node28 -->
<g id="node28" class="node">
<title>Node28</title>
<g id="a_node28"><a xlink:href="../../dd/da3/classUActorBlueprintFunctionLibrary.html#a397901fd012ae8ee40c9cc223cb3ff9b" target="_top" xlink:title=" ">
<polygon fill="white" stroke="black" points="612.5,-245.5 612.5,-275.5 781.5,-275.5 781.5,-245.5 612.5,-245.5"/>
<text text-anchor="start" x="620.5" y="-263.5" font-family="Helvetica,sans-Serif" font-size="10.00">UActorBlueprintFunctionLibrary</text>
<text text-anchor="middle" x="697" y="-252.5" font-family="Helvetica,sans-Serif" font-size="10.00">::MakeV2XDefinition</text>
</a>
</g>
</g>
<!-- Node9&#45;&gt;Node28 -->
<g id="edge28" class="edge">
<title>Node9&#45;&gt;Node28</title>
<path fill="none" stroke="midnightblue" d="M860.46,-320.16C840.4,-309.32 811.51,-294.61 785,-284.5 776.51,-281.26 767.4,-278.26 758.39,-275.55"/>
<polygon fill="midnightblue" stroke="midnightblue" points="858.84,-323.26 869.29,-324.99 862.2,-317.12 858.84,-323.26"/>
</g>
<!-- Node13 -->
<g id="node13" class="node">
<title>Node13</title>
<g id="a_node13"><a xlink:href="../../dd/da3/classUActorBlueprintFunctionLibrary.html#ac586f27c6e47e3aee9427dd89d01bb9e" target="_top" xlink:title=" ">
<polygon fill="white" stroke="black" points="404,-98.5 404,-128.5 573,-128.5 573,-98.5 404,-98.5"/>
<text text-anchor="start" x="412" y="-116.5" font-family="Helvetica,sans-Serif" font-size="10.00">UActorBlueprintFunctionLibrary</text>
<text text-anchor="middle" x="488.5" y="-105.5" font-family="Helvetica,sans-Serif" font-size="10.00">::MakeGenericSensorDefinition</text>
</a>
</g>
</g>
<!-- Node12&#45;&gt;Node13 -->
<g id="edge12" class="edge">
<title>Node12&#45;&gt;Node13</title>
<path fill="none" stroke="midnightblue" d="M602.29,-113.5C592.63,-113.5 582.86,-113.5 573.31,-113.5"/>
<polygon fill="midnightblue" stroke="midnightblue" points="602.31,-117 612.31,-113.5 602.31,-110 602.31,-117"/>
</g>
<!-- Node14 -->
<g id="node14" class="node">
<title>Node14</title>
<g id="a_node14"><a xlink:href="../../d0/d57/classALaneInvasionSensor.html#ae961d1a8ffc865afd7fb8c61a6d49147" target="_top" xlink:title=" ">
<polygon fill="white" stroke="black" points="214.5,-164.5 214.5,-194.5 335.5,-194.5 335.5,-164.5 214.5,-164.5"/>
<text text-anchor="start" x="222.5" y="-182.5" font-family="Helvetica,sans-Serif" font-size="10.00">ALaneInvasionSensor</text>
<text text-anchor="middle" x="275" y="-171.5" font-family="Helvetica,sans-Serif" font-size="10.00">::GetSensorDefinition</text>
</a>
</g>
</g>
<!-- Node13&#45;&gt;Node14 -->
<g id="edge13" class="edge">
<title>Node13&#45;&gt;Node14</title>
<path fill="none" stroke="midnightblue" d="M436.01,-131.99C415.01,-139.31 390.44,-147.61 368,-154.5 356.92,-157.9 345.03,-161.31 333.59,-164.47"/>
<polygon fill="midnightblue" stroke="midnightblue" points="437.41,-135.21 445.69,-128.59 435.09,-128.6 437.41,-135.21"/>
</g>
<!-- Node15 -->
<g id="node15" class="node">
<title>Node15</title>
<g id="a_node15"><a xlink:href="../../d3/ded/classARssSensor.html#a662a10b47f2de4eec053d2175358fb9b" target="_top" xlink:title=" ">
<polygon fill="white" stroke="black" points="186.5,-126 186.5,-145 363.5,-145 363.5,-126 186.5,-126"/>
<text text-anchor="middle" x="275" y="-133" font-family="Helvetica,sans-Serif" font-size="10.00">ARssSensor::GetSensorDefinition</text>
</a>
</g>
</g>
<!-- Node13&#45;&gt;Node15 -->
<g id="edge14" class="edge">
<title>Node13&#45;&gt;Node15</title>
<path fill="none" stroke="midnightblue" d="M393.96,-123.23C383.95,-124.27 373.79,-125.33 363.85,-126.36"/>
<polygon fill="midnightblue" stroke="midnightblue" points="394.33,-126.71 403.91,-122.19 393.6,-119.75 394.33,-126.71"/>
</g>
<!-- Node16 -->
<g id="node16" class="node">
<title>Node16</title>
<g id="a_node16"><a xlink:href="../../d8/de9/classACollisionSensor.html#a6f64e98b0aa71197e016d8ad39cff2ef" target="_top" xlink:title=" ">
<polygon fill="white" stroke="black" points="197.5,-76.5 197.5,-106.5 352.5,-106.5 352.5,-76.5 197.5,-76.5"/>
<text text-anchor="start" x="205.5" y="-94.5" font-family="Helvetica,sans-Serif" font-size="10.00">ACollisionSensor::GetSensor</text>
<text text-anchor="middle" x="275" y="-83.5" font-family="Helvetica,sans-Serif" font-size="10.00">Definition</text>
</a>
</g>
</g>
<!-- Node13&#45;&gt;Node16 -->
<g id="edge15" class="edge">
<title>Node13&#45;&gt;Node16</title>
<path fill="none" stroke="midnightblue" d="M393.96,-103.77C380.2,-102.34 366.16,-100.88 352.8,-99.49"/>
<polygon fill="midnightblue" stroke="midnightblue" points="393.6,-107.25 403.91,-104.81 394.33,-100.29 393.6,-107.25"/>
</g>
<!-- Node17 -->
<g id="node17" class="node">
<title>Node17</title>
<g id="a_node17"><a xlink:href="../../dd/da3/classUActorBlueprintFunctionLibrary.html#afa6590208ad245d841cf5a03546d8ad8" target="_top" xlink:title=" ">
<polygon fill="white" stroke="black" points="182,-27.5 182,-57.5 368,-57.5 368,-27.5 182,-27.5"/>
<text text-anchor="start" x="190" y="-45.5" font-family="Helvetica,sans-Serif" font-size="10.00">UActorBlueprintFunctionLibrary</text>
<text text-anchor="middle" x="275" y="-34.5" font-family="Helvetica,sans-Serif" font-size="10.00">::MakeObstacleDetectorDefinitions</text>
</a>
</g>
</g>
<!-- Node13&#45;&gt;Node17 -->
<g id="edge16" class="edge">
<title>Node13&#45;&gt;Node17</title>
<path fill="none" stroke="midnightblue" d="M443.08,-94.56C420.78,-85.43 393.2,-74.71 368,-66.5 358.43,-63.38 348.19,-60.39 338.15,-57.63"/>
<polygon fill="midnightblue" stroke="midnightblue" points="442.03,-97.92 452.61,-98.5 444.7,-91.45 442.03,-97.92"/>
</g>
<!-- Node18 -->
<g id="node18" class="node">
<title>Node18</title>
<g id="a_node18"><a xlink:href="../../d3/d93/classAObstacleDetectionSensor.html#acbfdaed285b834b000906f8d0d057bbf" target="_top" xlink:title=" ">
<polygon fill="white" stroke="black" points="0,-27.5 0,-57.5 146,-57.5 146,-27.5 0,-27.5"/>
<text text-anchor="start" x="8" y="-45.5" font-family="Helvetica,sans-Serif" font-size="10.00">AObstacleDetectionSensor</text>
<text text-anchor="middle" x="73" y="-34.5" font-family="Helvetica,sans-Serif" font-size="10.00">::GetSensorDefinition</text>
</a>
</g>
</g>
<!-- Node17&#45;&gt;Node18 -->
<g id="edge17" class="edge">
<title>Node17&#45;&gt;Node18</title>
<path fill="none" stroke="midnightblue" d="M171.76,-42.5C163.12,-42.5 154.5,-42.5 146.16,-42.5"/>
<polygon fill="midnightblue" stroke="midnightblue" points="171.9,-46 181.9,-42.5 171.9,-39 171.9,-46"/>
</g>
<!-- Node24 -->
<g id="node24" class="node">
<title>Node24</title>
<g id="a_node24"><a xlink:href="../../dd/da3/classUActorBlueprintFunctionLibrary.html#ae19224c46ae864cf29547f20a98a3137" target="_top" xlink:title=" ">
<polygon fill="white" stroke="black" points="404,-392.5 404,-422.5 573,-422.5 573,-392.5 404,-392.5"/>
<text text-anchor="start" x="412" y="-410.5" font-family="Helvetica,sans-Serif" font-size="10.00">UActorBlueprintFunctionLibrary</text>
<text text-anchor="middle" x="488.5" y="-399.5" font-family="Helvetica,sans-Serif" font-size="10.00">::MakePedestrianDefinitions</text>
</a>
</g>
</g>
<!-- Node23&#45;&gt;Node24 -->
<g id="edge23" class="edge">
<title>Node23&#45;&gt;Node24</title>
<path fill="none" stroke="midnightblue" d="M602.29,-407.5C592.63,-407.5 582.86,-407.5 573.31,-407.5"/>
<polygon fill="midnightblue" stroke="midnightblue" points="602.31,-411 612.31,-407.5 602.31,-404 602.31,-411"/>
</g>
<!-- Node26 -->
<g id="node26" class="node">
<title>Node26</title>
<g id="a_node26"><a xlink:href="../../dd/da3/classUActorBlueprintFunctionLibrary.html#a00ce0991bf4d63ef8a19655e3c7a78f8" target="_top" xlink:title=" ">
<polygon fill="white" stroke="black" points="404,-343.5 404,-373.5 573,-373.5 573,-343.5 404,-343.5"/>
<text text-anchor="start" x="412" y="-361.5" font-family="Helvetica,sans-Serif" font-size="10.00">UActorBlueprintFunctionLibrary</text>
<text text-anchor="middle" x="488.5" y="-350.5" font-family="Helvetica,sans-Serif" font-size="10.00">::MakePropDefinitions</text>
</a>
</g>
</g>
<!-- Node25&#45;&gt;Node26 -->
<g id="edge25" class="edge">
<title>Node25&#45;&gt;Node26</title>
<path fill="none" stroke="midnightblue" d="M602.29,-358.5C592.63,-358.5 582.86,-358.5 573.31,-358.5"/>
<polygon fill="midnightblue" stroke="midnightblue" points="602.31,-362 612.31,-358.5 602.31,-355 602.31,-362"/>
</g>
</g>
</svg>
        <g id="navigator" transform="translate(0 0)" fill="#404254">
                <rect fill="#f2f5e9" fill-opacity="0.5" stroke="#606060" stroke-width=".5" x="0" y="0" width="60" height="60"/>
                <use id="zoomplus" xlink:href="#zoomPlus" x="17" y="9" onmousedown="handleZoom(evt,'in')"/>
                <use id="zoomminus" xlink:href="#zoomMin" x="42" y="9" onmousedown="handleZoom(evt,'out')"/>
                <use id="reset" xlink:href="#resetDef" x="30" y="36" onmousedown="handleReset()"/>
                <g id="arrowUp" xlink:href="#dirArrow" transform="translate(30 24)" onmousedown="handlePan(0,-1)">
                  <use xlink:href="#rim" fill="#404040">
                        <set attributeName="fill" to="#808080" begin="arrowUp.mouseover" end="arrowUp.mouseout"/>
                  </use>
                  <path fill="none" stroke="white" stroke-width="1.5" d="M0,-3.0v7 M-2.5,-0.5L0,-3.0L2.5,-0.5"/>
                </g>
                <g id="arrowRight" xlink:href="#dirArrow" transform="rotate(90) translate(36 -43)" onmousedown="handlePan(1,0)">
                  <use xlink:href="#rim" fill="#404040">
                        <set attributeName="fill" to="#808080" begin="arrowRight.mouseover" end="arrowRight.mouseout"/>
                  </use>
                  <path fill="none" stroke="white" stroke-width="1.5" d="M0,-3.0v7 M-2.5,-0.5L0,-3.0L2.5,-0.5"/>
                </g>
                <g id="arrowDown" xlink:href="#dirArrow" transform="rotate(180) translate(-30 -48)" onmousedown="handlePan(0,1)">
                  <use xlink:href="#rim" fill="#404040">
                        <set attributeName="fill" to="#808080" begin="arrowDown.mouseover" end="arrowDown.mouseout"/>
                  </use>
                  <path fill="none" stroke="white" stroke-width="1.5" d="M0,-3.0v7 M-2.5,-0.5L0,-3.0L2.5,-0.5"/>
                </g>
                <g id="arrowLeft" xlink:href="#dirArrow" transform="rotate(270) translate(-36 17)" onmousedown="handlePan(-1,0)">
                  <use xlink:href="#rim" fill="#404040">
                        <set attributeName="fill" to="#808080" begin="arrowLeft.mouseover" end="arrowLeft.mouseout"/>
                  </use>
                  <path fill="none" stroke="white" stroke-width="1.5" d="M0,-3.0v7 M-2.5,-0.5L0,-3.0L2.5,-0.5"/>
                </g>
        </g>
        <svg viewBox="0 0 15 15" width="100%" height="30px" preserveAspectRatio="xMaxYMin meet">
         <g id="arrow_out" transform="scale(0.3 0.3)">
          <a xlink:href="ActorBlueprintFunctionLibrary_8cpp_a020aba9c95ef055f7da8709737ef5640_icgraph_org.svg" target="_base">
           <rect id="button" ry="5" rx="5" y="6" x="6" height="38" width="38"
                fill="#f2f5e9" fill-opacity="0.5" stroke="#606060" stroke-width="1.0"/>
           <path id="arrow"
             d="M 11.500037,31.436501 C 11.940474,20.09759 22.043105,11.32322 32.158766,21.979434 L 37.068811,17.246167 C 37.068811,17.246167 37.088388,32 37.088388,32 L 22.160133,31.978069 C 22.160133,31.978069 26.997745,27.140456 26.997745,27.140456 C 18.528582,18.264221 13.291696,25.230495 11.500037,31.436501 z"
             style="fill:#404040;"/>
          </a>
         </g>
        </svg>
</svg>
