<?xml version="1.0" encoding="UTF-8" standalone="no"?>
<!DOCTYPE svg PUBLIC "-//W3C//DTD SVG 1.1//EN"
 "http://www.w3.org/Graphics/SVG/1.1/DTD/svg11.dtd">
<!-- Generated by graphviz version 2.43.0 (0)
 -->
<!-- Title: FillIdAndTags Pages: 1 -->
<svg width="909pt" height="546pt"
 viewBox="0.00 0.00 909.00 546.00" xmlns="http://www.w3.org/2000/svg" xmlns:xlink="http://www.w3.org/1999/xlink">
<g id="graph0" class="graph" transform="scale(1 1) rotate(0) translate(4 542)">
<title>FillIdAndTags</title>
<polygon fill="white" stroke="transparent" points="-4,4 -4,-542 905,-542 905,4 -4,4"/>
<!-- Node1 -->
<g id="node1" class="node">
<title>Node1</title>
<g id="a_node1"><a xlink:title="============================================================================">
<polygon fill="#bfbfbf" stroke="black" points="821,-251 821,-270 901,-270 901,-251 821,-251"/>
<text text-anchor="middle" x="861" y="-258" font-family="Helvetica,sans-Serif" font-size="10.00">FillIdAndTags</text>
</a>
</g>
</g>
<!-- Node2 -->
<g id="node2" class="node">
<title>Node2</title>
<g id="a_node2"><a xlink:href="../../dd/da3/classUActorBlueprintFunctionLibrary.html#a472a14c750c6c5dc66b38cfeaea82ccc" target="_top" xlink:title=" ">
<polygon fill="white" stroke="black" points="612.5,-490.5 612.5,-520.5 781.5,-520.5 781.5,-490.5 612.5,-490.5"/>
<text text-anchor="start" x="620.5" y="-508.5" font-family="Helvetica,sans-Serif" font-size="10.00">UActorBlueprintFunctionLibrary</text>
<text text-anchor="middle" x="697" y="-497.5" font-family="Helvetica,sans-Serif" font-size="10.00">::MakeCameraDefinition</text>
</a>
</g>
</g>
<!-- Node1&#45;&gt;Node2 -->
<g id="edge1" class="edge">
<title>Node1&#45;&gt;Node2</title>
<path fill="none" stroke="midnightblue" d="M859.23,-280.13C856.46,-323.11 843.7,-426.11 785,-481.5 781.35,-484.94 777.26,-487.9 772.89,-490.43"/>
<polygon fill="midnightblue" stroke="midnightblue" points="862.73,-280.29 859.76,-270.12 855.74,-279.92 862.73,-280.29"/>
</g>
<!-- Node3 -->
<g id="node3" class="node">
<title>Node3</title>
<g id="a_node3"><a xlink:href="../../dd/da3/classUActorBlueprintFunctionLibrary.html#ae0868b514cddf92d49758bc605e511c1" target="_top" xlink:title=" ">
<polygon fill="white" stroke="black" points="612.5,-441.5 612.5,-471.5 781.5,-471.5 781.5,-441.5 612.5,-441.5"/>
<text text-anchor="start" x="620.5" y="-459.5" font-family="Helvetica,sans-Serif" font-size="10.00">UActorBlueprintFunctionLibrary</text>
<text text-anchor="middle" x="697" y="-448.5" font-family="Helvetica,sans-Serif" font-size="10.00">::MakeGenericDefinition</text>
</a>
</g>
</g>
<!-- Node1&#45;&gt;Node3 -->
<g id="edge2" class="edge">
<title>Node1&#45;&gt;Node3</title>
<path fill="none" stroke="midnightblue" d="M856.98,-280.59C850.5,-316.53 831.86,-391.86 785,-432.5 781.09,-435.89 776.75,-438.8 772.14,-441.3"/>
<polygon fill="midnightblue" stroke="midnightblue" points="860.49,-280.84 858.68,-270.4 853.58,-279.69 860.49,-280.84"/>
</g>
<!-- Node10 -->
<g id="node10" class="node">
<title>Node10</title>
<g id="a_node10"><a xlink:href="../../dd/da3/classUActorBlueprintFunctionLibrary.html#a43f8e76c64459f72e679f073462f5983" target="_top" xlink:title=" ">
<polygon fill="white" stroke="black" points="612.5,-392.5 612.5,-422.5 781.5,-422.5 781.5,-392.5 612.5,-392.5"/>
<text text-anchor="start" x="620.5" y="-410.5" font-family="Helvetica,sans-Serif" font-size="10.00">UActorBlueprintFunctionLibrary</text>
<text text-anchor="middle" x="697" y="-399.5" font-family="Helvetica,sans-Serif" font-size="10.00">::MakeGnssDefinition</text>
</a>
</g>
</g>
<!-- Node1&#45;&gt;Node10 -->
<g id="edge9" class="edge">
<title>Node1&#45;&gt;Node10</title>
<path fill="none" stroke="midnightblue" d="M853.46,-279.78C843.22,-307.03 820.79,-356.51 785,-383.5 780.5,-386.9 775.54,-389.81 770.35,-392.32"/>
<polygon fill="midnightblue" stroke="midnightblue" points="856.82,-280.8 856.9,-270.2 850.23,-278.43 856.82,-280.8"/>
</g>
<!-- Node11 -->
<g id="node11" class="node">
<title>Node11</title>
<g id="a_node11"><a xlink:href="../../dd/da3/classUActorBlueprintFunctionLibrary.html#a8113a5e0efff9740fde3c53ed9994b6e" target="_top" xlink:title=" ">
<polygon fill="white" stroke="black" points="612.5,-343.5 612.5,-373.5 781.5,-373.5 781.5,-343.5 612.5,-343.5"/>
<text text-anchor="start" x="620.5" y="-361.5" font-family="Helvetica,sans-Serif" font-size="10.00">UActorBlueprintFunctionLibrary</text>
<text text-anchor="middle" x="697" y="-350.5" font-family="Helvetica,sans-Serif" font-size="10.00">::MakeIMUDefinition</text>
</a>
</g>
</g>
<!-- Node1&#45;&gt;Node11 -->
<g id="edge10" class="edge">
<title>Node1&#45;&gt;Node11</title>
<path fill="none" stroke="midnightblue" d="M846.77,-277.98C833.09,-294.85 810.22,-319.93 785,-334.5 779.03,-337.95 772.54,-340.92 765.89,-343.48"/>
<polygon fill="midnightblue" stroke="midnightblue" points="849.61,-280.02 853.05,-270 844.11,-275.69 849.61,-280.02"/>
</g>
<!-- Node12 -->
<g id="node12" class="node">
<title>Node12</title>
<g id="a_node12"><a xlink:href="../../dd/da3/classUActorBlueprintFunctionLibrary.html#abffeca8ba8f30edadcc4897ad8a21bc9" target="_top" xlink:title=" ">
<polygon fill="white" stroke="black" points="612.5,-294.5 612.5,-324.5 781.5,-324.5 781.5,-294.5 612.5,-294.5"/>
<text text-anchor="start" x="620.5" y="-312.5" font-family="Helvetica,sans-Serif" font-size="10.00">UActorBlueprintFunctionLibrary</text>
<text text-anchor="middle" x="697" y="-301.5" font-family="Helvetica,sans-Serif" font-size="10.00">::MakeLidarDefinition</text>
</a>
</g>
</g>
<!-- Node1&#45;&gt;Node12 -->
<g id="edge11" class="edge">
<title>Node1&#45;&gt;Node12</title>
<path fill="none" stroke="midnightblue" d="M822.64,-273.38C810.66,-277.4 797.31,-281.75 785,-285.5 775.11,-288.51 764.53,-291.56 754.29,-294.44"/>
<polygon fill="midnightblue" stroke="midnightblue" points="823.98,-276.63 832.33,-270.11 821.74,-269.99 823.98,-276.63"/>
</g>
<!-- Node13 -->
<g id="node13" class="node">
<title>Node13</title>
<g id="a_node13"><a xlink:href="../../dd/da3/classUActorBlueprintFunctionLibrary.html#ab49a876cfbacc4ffedbb09362fc9b180" target="_top" xlink:title=" ">
<polygon fill="white" stroke="black" points="609,-245.5 609,-275.5 785,-275.5 785,-245.5 609,-245.5"/>
<text text-anchor="start" x="617" y="-263.5" font-family="Helvetica,sans-Serif" font-size="10.00">UActorBlueprintFunctionLibrary</text>
<text text-anchor="middle" x="697" y="-252.5" font-family="Helvetica,sans-Serif" font-size="10.00">::MakeNormalsCameraDefinition</text>
</a>
</g>
</g>
<!-- Node1&#45;&gt;Node13 -->
<g id="edge12" class="edge">
<title>Node1&#45;&gt;Node13</title>
<path fill="none" stroke="midnightblue" d="M810.78,-260.5C802.64,-260.5 793.99,-260.5 785.24,-260.5"/>
<polygon fill="midnightblue" stroke="midnightblue" points="810.78,-264 820.78,-260.5 810.78,-257 810.78,-264"/>
</g>
<!-- Node14 -->
<g id="node14" class="node">
<title>Node14</title>
<g id="a_node14"><a xlink:href="../../dd/da3/classUActorBlueprintFunctionLibrary.html#ab457df342c04ac42c785ef1c845fe5e0" target="_top" xlink:title=" ">
<polygon fill="white" stroke="black" points="612.5,-196.5 612.5,-226.5 781.5,-226.5 781.5,-196.5 612.5,-196.5"/>
<text text-anchor="start" x="620.5" y="-214.5" font-family="Helvetica,sans-Serif" font-size="10.00">UActorBlueprintFunctionLibrary</text>
<text text-anchor="middle" x="697" y="-203.5" font-family="Helvetica,sans-Serif" font-size="10.00">::MakePedestrianDefinition</text>
</a>
</g>
</g>
<!-- Node1&#45;&gt;Node14 -->
<g id="edge13" class="edge">
<title>Node1&#45;&gt;Node14</title>
<path fill="none" stroke="midnightblue" d="M821.03,-247.79C809.46,-244.08 796.74,-240.06 785,-236.5 774.17,-233.21 762.55,-229.8 751.45,-226.59"/>
<polygon fill="midnightblue" stroke="midnightblue" points="820.27,-251.22 830.86,-250.95 822.41,-244.55 820.27,-251.22"/>
</g>
<!-- Node16 -->
<g id="node16" class="node">
<title>Node16</title>
<g id="a_node16"><a xlink:href="../../dd/da3/classUActorBlueprintFunctionLibrary.html#a673c0d82c938a146db8bbfb6f29c6ab4" target="_top" xlink:title=" ">
<polygon fill="white" stroke="black" points="612.5,-147.5 612.5,-177.5 781.5,-177.5 781.5,-147.5 612.5,-147.5"/>
<text text-anchor="start" x="620.5" y="-165.5" font-family="Helvetica,sans-Serif" font-size="10.00">UActorBlueprintFunctionLibrary</text>
<text text-anchor="middle" x="697" y="-154.5" font-family="Helvetica,sans-Serif" font-size="10.00">::MakePropDefinition</text>
</a>
</g>
</g>
<!-- Node1&#45;&gt;Node16 -->
<g id="edge15" class="edge">
<title>Node1&#45;&gt;Node16</title>
<path fill="none" stroke="midnightblue" d="M846.46,-243.06C832.69,-226.46 809.89,-201.95 785,-187.5 778.34,-183.63 771.04,-180.33 763.59,-177.52"/>
<polygon fill="midnightblue" stroke="midnightblue" points="843.8,-245.33 852.8,-250.92 849.25,-240.93 843.8,-245.33"/>
</g>
<!-- Node18 -->
<g id="node18" class="node">
<title>Node18</title>
<g id="a_node18"><a xlink:href="../../dd/da3/classUActorBlueprintFunctionLibrary.html#a8eb67a9669278274d94d01473c82da45" target="_top" xlink:title=" ">
<polygon fill="white" stroke="black" points="612.5,-98.5 612.5,-128.5 781.5,-128.5 781.5,-98.5 612.5,-98.5"/>
<text text-anchor="start" x="620.5" y="-116.5" font-family="Helvetica,sans-Serif" font-size="10.00">UActorBlueprintFunctionLibrary</text>
<text text-anchor="middle" x="697" y="-105.5" font-family="Helvetica,sans-Serif" font-size="10.00">::MakeRadarDefinition</text>
</a>
</g>
</g>
<!-- Node1&#45;&gt;Node18 -->
<g id="edge17" class="edge">
<title>Node1&#45;&gt;Node18</title>
<path fill="none" stroke="midnightblue" d="M853.38,-241.43C843.04,-214.46 820.48,-165.45 785,-138.5 779.87,-134.6 774.15,-131.31 768.16,-128.53"/>
<polygon fill="midnightblue" stroke="midnightblue" points="850.13,-242.72 856.85,-250.9 856.7,-240.31 850.13,-242.72"/>
</g>
<!-- Node19 -->
<g id="node19" class="node">
<title>Node19</title>
<g id="a_node19"><a xlink:href="../../dd/da3/classUActorBlueprintFunctionLibrary.html#a0213b0fbf5dcf2339ba8a54ea11f95d4" target="_top" xlink:title=" ">
<polygon fill="white" stroke="black" points="612.5,-49.5 612.5,-79.5 781.5,-79.5 781.5,-49.5 612.5,-49.5"/>
<text text-anchor="start" x="620.5" y="-67.5" font-family="Helvetica,sans-Serif" font-size="10.00">UActorBlueprintFunctionLibrary</text>
<text text-anchor="middle" x="697" y="-56.5" font-family="Helvetica,sans-Serif" font-size="10.00">::MakeTriggerDefinition</text>
</a>
</g>
</g>
<!-- Node1&#45;&gt;Node19 -->
<g id="edge18" class="edge">
<title>Node1&#45;&gt;Node19</title>
<path fill="none" stroke="midnightblue" d="M856.9,-240.57C850.3,-204.91 831.46,-130.13 785,-89.5 780.62,-85.67 775.69,-82.43 770.46,-79.68"/>
<polygon fill="midnightblue" stroke="midnightblue" points="853.49,-241.42 858.63,-250.68 860.39,-240.23 853.49,-241.42"/>
</g>
<!-- Node22 -->
<g id="node22" class="node">
<title>Node22</title>
<g id="a_node22"><a xlink:href="../../dd/da3/classUActorBlueprintFunctionLibrary.html#a5e83afa97bb195943c3a8a3b9a897c87" target="_top" xlink:title=" ">
<polygon fill="white" stroke="black" points="612.5,-0.5 612.5,-30.5 781.5,-30.5 781.5,-0.5 612.5,-0.5"/>
<text text-anchor="start" x="620.5" y="-18.5" font-family="Helvetica,sans-Serif" font-size="10.00">UActorBlueprintFunctionLibrary</text>
<text text-anchor="middle" x="697" y="-7.5" font-family="Helvetica,sans-Serif" font-size="10.00">::MakeVehicleDefinition</text>
</a>
</g>
</g>
<!-- Node1&#45;&gt;Node22 -->
<g id="edge21" class="edge">
<title>Node1&#45;&gt;Node22</title>
<path fill="none" stroke="midnightblue" d="M859.23,-240.87C856.46,-197.89 843.7,-94.89 785,-39.5 781.35,-36.06 777.26,-33.1 772.89,-30.57"/>
<polygon fill="midnightblue" stroke="midnightblue" points="855.74,-241.08 859.76,-250.88 862.73,-240.71 855.74,-241.08"/>
</g>
<!-- Node4 -->
<g id="node4" class="node">
<title>Node4</title>
<g id="a_node4"><a xlink:href="../../dd/da3/classUActorBlueprintFunctionLibrary.html#ac586f27c6e47e3aee9427dd89d01bb9e" target="_top" xlink:title=" ">
<polygon fill="white" stroke="black" points="404,-441.5 404,-471.5 573,-471.5 573,-441.5 404,-441.5"/>
<text text-anchor="start" x="412" y="-459.5" font-family="Helvetica,sans-Serif" font-size="10.00">UActorBlueprintFunctionLibrary</text>
<text text-anchor="middle" x="488.5" y="-448.5" font-family="Helvetica,sans-Serif" font-size="10.00">::MakeGenericSensorDefinition</text>
</a>
</g>
</g>
<!-- Node3&#45;&gt;Node4 -->
<g id="edge3" class="edge">
<title>Node3&#45;&gt;Node4</title>
<path fill="none" stroke="midnightblue" d="M602.29,-456.5C592.63,-456.5 582.86,-456.5 573.31,-456.5"/>
<polygon fill="midnightblue" stroke="midnightblue" points="602.31,-460 612.31,-456.5 602.31,-453 602.31,-460"/>
</g>
<!-- Node5 -->
<g id="node5" class="node">
<title>Node5</title>
<g id="a_node5"><a xlink:href="../../d0/d57/classALaneInvasionSensor.html#ae961d1a8ffc865afd7fb8c61a6d49147" target="_top" xlink:title=" ">
<polygon fill="white" stroke="black" points="214.5,-507.5 214.5,-537.5 335.5,-537.5 335.5,-507.5 214.5,-507.5"/>
<text text-anchor="start" x="222.5" y="-525.5" font-family="Helvetica,sans-Serif" font-size="10.00">ALaneInvasionSensor</text>
<text text-anchor="middle" x="275" y="-514.5" font-family="Helvetica,sans-Serif" font-size="10.00">::GetSensorDefinition</text>
</a>
</g>
</g>
<!-- Node4&#45;&gt;Node5 -->
<g id="edge4" class="edge">
<title>Node4&#45;&gt;Node5</title>
<path fill="none" stroke="midnightblue" d="M436.01,-474.99C415.01,-482.31 390.44,-490.61 368,-497.5 356.92,-500.9 345.03,-504.31 333.59,-507.47"/>
<polygon fill="midnightblue" stroke="midnightblue" points="437.41,-478.21 445.69,-471.59 435.09,-471.6 437.41,-478.21"/>
</g>
<!-- Node6 -->
<g id="node6" class="node">
<title>Node6</title>
<g id="a_node6"><a xlink:href="../../d3/ded/classARssSensor.html#a662a10b47f2de4eec053d2175358fb9b" target="_top" xlink:title=" ">
<polygon fill="white" stroke="black" points="186.5,-469 186.5,-488 363.5,-488 363.5,-469 186.5,-469"/>
<text text-anchor="middle" x="275" y="-476" font-family="Helvetica,sans-Serif" font-size="10.00">ARssSensor::GetSensorDefinition</text>
</a>
</g>
</g>
<!-- Node4&#45;&gt;Node6 -->
<g id="edge5" class="edge">
<title>Node4&#45;&gt;Node6</title>
<path fill="none" stroke="midnightblue" d="M393.96,-466.23C383.95,-467.27 373.79,-468.33 363.85,-469.36"/>
<polygon fill="midnightblue" stroke="midnightblue" points="394.33,-469.71 403.91,-465.19 393.6,-462.75 394.33,-469.71"/>
</g>
<!-- Node7 -->
<g id="node7" class="node">
<title>Node7</title>
<g id="a_node7"><a xlink:href="../../d8/de9/classACollisionSensor.html#a6f64e98b0aa71197e016d8ad39cff2ef" target="_top" xlink:title=" ">
<polygon fill="white" stroke="black" points="197.5,-419.5 197.5,-449.5 352.5,-449.5 352.5,-419.5 197.5,-419.5"/>
<text text-anchor="start" x="205.5" y="-437.5" font-family="Helvetica,sans-Serif" font-size="10.00">ACollisionSensor::GetSensor</text>
<text text-anchor="middle" x="275" y="-426.5" font-family="Helvetica,sans-Serif" font-size="10.00">Definition</text>
</a>
</g>
</g>
<!-- Node4&#45;&gt;Node7 -->
<g id="edge6" class="edge">
<title>Node4&#45;&gt;Node7</title>
<path fill="none" stroke="midnightblue" d="M393.96,-446.77C380.2,-445.34 366.16,-443.88 352.8,-442.49"/>
<polygon fill="midnightblue" stroke="midnightblue" points="393.6,-450.25 403.91,-447.81 394.33,-443.29 393.6,-450.25"/>
</g>
<!-- Node8 -->
<g id="node8" class="node">
<title>Node8</title>
<g id="a_node8"><a xlink:href="../../dd/da3/classUActorBlueprintFunctionLibrary.html#afa6590208ad245d841cf5a03546d8ad8" target="_top" xlink:title=" ">
<polygon fill="white" stroke="black" points="182,-370.5 182,-400.5 368,-400.5 368,-370.5 182,-370.5"/>
<text text-anchor="start" x="190" y="-388.5" font-family="Helvetica,sans-Serif" font-size="10.00">UActorBlueprintFunctionLibrary</text>
<text text-anchor="middle" x="275" y="-377.5" font-family="Helvetica,sans-Serif" font-size="10.00">::MakeObstacleDetectorDefinitions</text>
</a>
</g>
</g>
<!-- Node4&#45;&gt;Node8 -->
<g id="edge7" class="edge">
<title>Node4&#45;&gt;Node8</title>
<path fill="none" stroke="midnightblue" d="M441.77,-437.64C419.68,-428.85 392.66,-418.57 368,-410.5 357.46,-407.05 346.14,-403.69 335.16,-400.62"/>
<polygon fill="midnightblue" stroke="midnightblue" points="440.65,-440.96 451.24,-441.43 443.26,-434.46 440.65,-440.96"/>
</g>
<!-- Node9 -->
<g id="node9" class="node">
<title>Node9</title>
<g id="a_node9"><a xlink:href="../../d3/d93/classAObstacleDetectionSensor.html#acbfdaed285b834b000906f8d0d057bbf" target="_top" xlink:title=" ">
<polygon fill="white" stroke="black" points="0,-370.5 0,-400.5 146,-400.5 146,-370.5 0,-370.5"/>
<text text-anchor="start" x="8" y="-388.5" font-family="Helvetica,sans-Serif" font-size="10.00">AObstacleDetectionSensor</text>
<text text-anchor="middle" x="73" y="-377.5" font-family="Helvetica,sans-Serif" font-size="10.00">::GetSensorDefinition</text>
</a>
</g>
</g>
<!-- Node8&#45;&gt;Node9 -->
<g id="edge8" class="edge">
<title>Node8&#45;&gt;Node9</title>
<path fill="none" stroke="midnightblue" d="M171.76,-385.5C163.12,-385.5 154.5,-385.5 146.16,-385.5"/>
<polygon fill="midnightblue" stroke="midnightblue" points="171.9,-389 181.9,-385.5 171.9,-382 171.9,-389"/>
</g>
<!-- Node15 -->
<g id="node15" class="node">
<title>Node15</title>
<g id="a_node15"><a xlink:href="../../dd/da3/classUActorBlueprintFunctionLibrary.html#ae19224c46ae864cf29547f20a98a3137" target="_top" xlink:title=" ">
<polygon fill="white" stroke="black" points="404,-196.5 404,-226.5 573,-226.5 573,-196.5 404,-196.5"/>
<text text-anchor="start" x="412" y="-214.5" font-family="Helvetica,sans-Serif" font-size="10.00">UActorBlueprintFunctionLibrary</text>
<text text-anchor="middle" x="488.5" y="-203.5" font-family="Helvetica,sans-Serif" font-size="10.00">::MakePedestrianDefinitions</text>
</a>
</g>
</g>
<!-- Node14&#45;&gt;Node15 -->
<g id="edge14" class="edge">
<title>Node14&#45;&gt;Node15</title>
<path fill="none" stroke="midnightblue" d="M602.29,-211.5C592.63,-211.5 582.86,-211.5 573.31,-211.5"/>
<polygon fill="midnightblue" stroke="midnightblue" points="602.31,-215 612.31,-211.5 602.31,-208 602.31,-215"/>
</g>
<!-- Node17 -->
<g id="node17" class="node">
<title>Node17</title>
<g id="a_node17"><a xlink:href="../../dd/da3/classUActorBlueprintFunctionLibrary.html#a00ce0991bf4d63ef8a19655e3c7a78f8" target="_top" xlink:title=" ">
<polygon fill="white" stroke="black" points="404,-147.5 404,-177.5 573,-177.5 573,-147.5 404,-147.5"/>
<text text-anchor="start" x="412" y="-165.5" font-family="Helvetica,sans-Serif" font-size="10.00">UActorBlueprintFunctionLibrary</text>
<text text-anchor="middle" x="488.5" y="-154.5" font-family="Helvetica,sans-Serif" font-size="10.00">::MakePropDefinitions</text>
</a>
</g>
</g>
<!-- Node16&#45;&gt;Node17 -->
<g id="edge16" class="edge">
<title>Node16&#45;&gt;Node17</title>
<path fill="none" stroke="midnightblue" d="M602.29,-162.5C592.63,-162.5 582.86,-162.5 573.31,-162.5"/>
<polygon fill="midnightblue" stroke="midnightblue" points="602.31,-166 612.31,-162.5 602.31,-159 602.31,-166"/>
</g>
<!-- Node20 -->
<g id="node20" class="node">
<title>Node20</title>
<g id="a_node20"><a xlink:href="../../d0/df9/classATriggerFactory.html#a776abd4dd8e282ee8a57eef277d3eaec" target="_top" xlink:title="Retrieve the definitions of all the sensors registered in the SensorRegistry.">
<polygon fill="white" stroke="black" points="405.5,-99 405.5,-118 571.5,-118 571.5,-99 405.5,-99"/>
<text text-anchor="middle" x="488.5" y="-106" font-family="Helvetica,sans-Serif" font-size="10.00">ATriggerFactory::GetDefinitions</text>
</a>
</g>
</g>
<!-- Node19&#45;&gt;Node20 -->
<g id="edge19" class="edge">
<title>Node19&#45;&gt;Node20</title>
<path fill="none" stroke="midnightblue" d="M615.45,-81.66C587.81,-87.55 557.89,-93.93 534.14,-98.99"/>
<polygon fill="midnightblue" stroke="midnightblue" points="616.46,-85.03 625.51,-79.52 615,-78.18 616.46,-85.03"/>
</g>
<!-- Node21 -->
<g id="node21" class="node">
<title>Node21</title>
<g id="a_node21"><a xlink:href="../../dd/da3/classUActorBlueprintFunctionLibrary.html#a5cddd62ff32e8276bcad25389a47ab74" target="_top" xlink:title=" ">
<polygon fill="white" stroke="black" points="404,-49.5 404,-79.5 573,-79.5 573,-49.5 404,-49.5"/>
<text text-anchor="start" x="412" y="-67.5" font-family="Helvetica,sans-Serif" font-size="10.00">UActorBlueprintFunctionLibrary</text>
<text text-anchor="middle" x="488.5" y="-56.5" font-family="Helvetica,sans-Serif" font-size="10.00">::MakeTriggerDefinitions</text>
</a>
</g>
</g>
<!-- Node19&#45;&gt;Node21 -->
<g id="edge20" class="edge">
<title>Node19&#45;&gt;Node21</title>
<path fill="none" stroke="midnightblue" d="M602.29,-64.5C592.63,-64.5 582.86,-64.5 573.31,-64.5"/>
<polygon fill="midnightblue" stroke="midnightblue" points="602.31,-68 612.31,-64.5 602.31,-61 602.31,-68"/>
</g>
<!-- Node23 -->
<g id="node23" class="node">
<title>Node23</title>
<g id="a_node23"><a xlink:href="../../dd/da3/classUActorBlueprintFunctionLibrary.html#affd8df709504c5a38b3fc636d1748590" target="_top" xlink:title=" ">
<polygon fill="white" stroke="black" points="404,-0.5 404,-30.5 573,-30.5 573,-0.5 404,-0.5"/>
<text text-anchor="start" x="412" y="-18.5" font-family="Helvetica,sans-Serif" font-size="10.00">UActorBlueprintFunctionLibrary</text>
<text text-anchor="middle" x="488.5" y="-7.5" font-family="Helvetica,sans-Serif" font-size="10.00">::MakeVehicleDefinitions</text>
</a>
</g>
</g>
<!-- Node22&#45;&gt;Node23 -->
<g id="edge22" class="edge">
<title>Node22&#45;&gt;Node23</title>
<path fill="none" stroke="midnightblue" d="M602.29,-15.5C592.63,-15.5 582.86,-15.5 573.31,-15.5"/>
<polygon fill="midnightblue" stroke="midnightblue" points="602.31,-19 612.31,-15.5 602.31,-12 602.31,-19"/>
</g>
</g>
</svg>
