<?xml version="1.0" encoding="UTF-8" standalone="no"?>
<!DOCTYPE svg PUBLIC "-//W3C//DTD SVG 1.1//EN"
 "http://www.w3.org/Graphics/SVG/1.1/DTD/svg11.dtd">
<!-- Generated by graphviz version 2.38.0 (20140413.2041)
 -->
<!-- Title: JoinStrings Pages: 1 -->
<svg width="637pt" height="480pt"
 viewBox="0.00 0.00 637.00 480.00" xmlns="http://www.w3.org/2000/svg" xmlns:xlink="http://www.w3.org/1999/xlink">
<g id="graph0" class="graph" transform="scale(1 1) rotate(0) translate(4 476)">
<title>JoinStrings</title>
<polygon fill="white" stroke="none" points="-4,4 -4,-476 633,-476 633,4 -4,4"/>
<!-- Node1 -->
<g id="node1" class="node"><title>Node1</title>
<polygon fill="#bfbfbf" stroke="black" points="0,-398 0,-417 67,-417 67,-398 0,-398"/>
<text text-anchor="middle" x="33.5" y="-405" font-family="Helvetica,sans-Serif" font-size="10.00">JoinStrings</text>
</g>
<!-- Node2 -->
<g id="node2" class="node"><title>Node2</title>
<g id="a_node2"><a xlink:href="../../dd/d08/ActorBlueprintFunctionLibrary_8cpp.html#a0ed6067b7a394dc7af360f867ee6ae62" target="_top" xlink:title="AddVariationsForTrigger">
<polygon fill="white" stroke="black" points="103,-441 103,-460 232,-460 232,-441 103,-441"/>
<text text-anchor="middle" x="167.5" y="-448" font-family="Helvetica,sans-Serif" font-size="10.00">AddVariationsForTrigger</text>
</a>
</g>
</g>
<!-- Node1&#45;&gt;Node2 -->
<g id="edge1" class="edge"><title>Node1&#45;&gt;Node2</title>
<path fill="none" stroke="midnightblue" d="M73.4475,-420.187C93.884,-426.845 118.505,-434.865 137.287,-440.984"/>
<polygon fill="midnightblue" stroke="midnightblue" points="74.3874,-416.813 63.7951,-417.043 72.2192,-423.468 74.3874,-416.813"/>
</g>
<!-- Node5 -->
<g id="node5" class="node"><title>Node5</title>
<g id="a_node5"><a xlink:href="../../dd/d08/ActorBlueprintFunctionLibrary_8cpp.html#abe6e727c2c634020223b9825fb484d17" target="_top" xlink:title="ColorToFString">
<polygon fill="white" stroke="black" points="125,-398 125,-417 210,-417 210,-398 125,-398"/>
<text text-anchor="middle" x="167.5" y="-405" font-family="Helvetica,sans-Serif" font-size="10.00">ColorToFString</text>
</a>
</g>
</g>
<!-- Node1&#45;&gt;Node5 -->
<g id="edge4" class="edge"><title>Node1&#45;&gt;Node5</title>
<path fill="none" stroke="midnightblue" d="M77.3164,-407.5C92.5344,-407.5 109.636,-407.5 124.763,-407.5"/>
<polygon fill="midnightblue" stroke="midnightblue" points="77.1293,-404 67.1292,-407.5 77.1292,-411 77.1293,-404"/>
</g>
<!-- Node7 -->
<g id="node7" class="node"><title>Node7</title>
<g id="a_node7"><a xlink:href="../../dd/d08/ActorBlueprintFunctionLibrary_8cpp.html#a1d384c1b65b00ea36c38deb3c0110fe7" target="_top" xlink:title="============================================================================ – Helpers to create act...">
<polygon fill="white" stroke="black" points="129.5,-251 129.5,-270 205.5,-270 205.5,-251 129.5,-251"/>
<text text-anchor="middle" x="167.5" y="-258" font-family="Helvetica,sans-Serif" font-size="10.00">FillIdAndTags</text>
</a>
</g>
</g>
<!-- Node1&#45;&gt;Node7 -->
<g id="edge6" class="edge"><title>Node1&#45;&gt;Node7</title>
<path fill="none" stroke="midnightblue" d="M49.8468,-390.409C77.6476,-359.449 135.509,-295.013 157.634,-270.373"/>
<polygon fill="midnightblue" stroke="midnightblue" points="47.238,-388.076 43.1609,-397.855 52.4464,-392.753 47.238,-388.076"/>
</g>
<!-- Node3 -->
<g id="node3" class="node"><title>Node3</title>
<g id="a_node3"><a xlink:href="../../dd/da3/classUActorBlueprintFunctionLibrary.html#a0213b0fbf5dcf2339ba8a54ea11f95d4" target="_top" xlink:title="UActorBlueprintFunctionLibrary\l::MakeTriggerDefinition">
<polygon fill="white" stroke="black" points="268,-441.5 268,-471.5 432,-471.5 432,-441.5 268,-441.5"/>
<text text-anchor="start" x="276" y="-459.5" font-family="Helvetica,sans-Serif" font-size="10.00">UActorBlueprintFunctionLibrary</text>
<text text-anchor="middle" x="350" y="-448.5" font-family="Helvetica,sans-Serif" font-size="10.00">::MakeTriggerDefinition</text>
</a>
</g>
</g>
<!-- Node2&#45;&gt;Node3 -->
<g id="edge2" class="edge"><title>Node2&#45;&gt;Node3</title>
<path fill="none" stroke="midnightblue" d="M242.312,-452.954C250.75,-453.234 259.387,-453.521 267.914,-453.805"/>
<polygon fill="midnightblue" stroke="midnightblue" points="242.248,-449.45 232.138,-452.615 242.016,-456.446 242.248,-449.45"/>
</g>
<!-- Node4 -->
<g id="node4" class="node"><title>Node4</title>
<g id="a_node4"><a xlink:href="../../d0/df9/classATriggerFactory.html#a776abd4dd8e282ee8a57eef277d3eaec" target="_top" xlink:title="Retrieve the definitions of all the sensors registered in the SensorRegistry. ">
<polygon fill="white" stroke="black" points="468,-447 468,-466 629,-466 629,-447 468,-447"/>
<text text-anchor="middle" x="548.5" y="-454" font-family="Helvetica,sans-Serif" font-size="10.00">ATriggerFactory::GetDefinitions</text>
</a>
</g>
</g>
<!-- Node3&#45;&gt;Node4 -->
<g id="edge3" class="edge"><title>Node3&#45;&gt;Node4</title>
<path fill="none" stroke="midnightblue" d="M442.115,-456.5C450.723,-456.5 459.405,-456.5 467.895,-456.5"/>
<polygon fill="midnightblue" stroke="midnightblue" points="442.059,-453 432.059,-456.5 442.059,-460 442.059,-453"/>
</g>
<!-- Node6 -->
<g id="node6" class="node"><title>Node6</title>
<g id="a_node6"><a xlink:href="../../dd/da3/classUActorBlueprintFunctionLibrary.html#a5e83afa97bb195943c3a8a3b9a897c87" target="_top" xlink:title="UActorBlueprintFunctionLibrary\l::MakeVehicleDefinition">
<polygon fill="white" stroke="black" points="268,-392.5 268,-422.5 432,-422.5 432,-392.5 268,-392.5"/>
<text text-anchor="start" x="276" y="-410.5" font-family="Helvetica,sans-Serif" font-size="10.00">UActorBlueprintFunctionLibrary</text>
<text text-anchor="middle" x="350" y="-399.5" font-family="Helvetica,sans-Serif" font-size="10.00">::MakeVehicleDefinition</text>
</a>
</g>
</g>
<!-- Node5&#45;&gt;Node6 -->
<g id="edge5" class="edge"><title>Node5&#45;&gt;Node6</title>
<path fill="none" stroke="midnightblue" d="M220.784,-407.5C235.535,-407.5 251.941,-407.5 267.957,-407.5"/>
<polygon fill="midnightblue" stroke="midnightblue" points="220.364,-404 210.364,-407.5 220.364,-411 220.364,-404"/>
</g>
<!-- Node7&#45;&gt;Node3 -->
<g id="edge15" class="edge"><title>Node7&#45;&gt;Node3</title>
<path fill="none" stroke="midnightblue" d="M177.207,-279.173C196.097,-318.974 241.286,-410.267 268,-431.5 272.839,-435.346 278.27,-438.603 283.969,-441.361"/>
<polygon fill="midnightblue" stroke="midnightblue" points="180.328,-277.585 172.902,-270.029 173.995,-280.567 180.328,-277.585"/>
</g>
<!-- Node7&#45;&gt;Node6 -->
<g id="edge16" class="edge"><title>Node7&#45;&gt;Node6</title>
<path fill="none" stroke="midnightblue" d="M178.606,-278.75C194.297,-305.425 227.022,-354.885 268,-382.5 273.736,-386.366 280.096,-389.654 286.658,-392.448"/>
<polygon fill="midnightblue" stroke="midnightblue" points="181.621,-276.971 173.612,-270.035 175.547,-280.452 181.621,-276.971"/>
</g>
<!-- Node8 -->
<g id="node8" class="node"><title>Node8</title>
<g id="a_node8"><a xlink:href="../../dd/da3/classUActorBlueprintFunctionLibrary.html#a472a14c750c6c5dc66b38cfeaea82ccc" target="_top" xlink:title="UActorBlueprintFunctionLibrary\l::MakeCameraDefinition">
<polygon fill="white" stroke="black" points="268,-49.5 268,-79.5 432,-79.5 432,-49.5 268,-49.5"/>
<text text-anchor="start" x="276" y="-67.5" font-family="Helvetica,sans-Serif" font-size="10.00">UActorBlueprintFunctionLibrary</text>
<text text-anchor="middle" x="350" y="-56.5" font-family="Helvetica,sans-Serif" font-size="10.00">::MakeCameraDefinition</text>
</a>
</g>
</g>
<!-- Node7&#45;&gt;Node8 -->
<g id="edge7" class="edge"><title>Node7&#45;&gt;Node8</title>
<path fill="none" stroke="midnightblue" d="M174.435,-240.874C186.259,-205.123 216.18,-129.319 268,-88.5 272.378,-85.0513 277.241,-82.0975 282.349,-79.5679"/>
<polygon fill="midnightblue" stroke="midnightblue" points="171.037,-240.009 171.342,-250.6 177.708,-242.131 171.037,-240.009"/>
</g>
<!-- Node9 -->
<g id="node9" class="node"><title>Node9</title>
<g id="a_node9"><a xlink:href="../../dd/da3/classUActorBlueprintFunctionLibrary.html#ae0868b514cddf92d49758bc605e511c1" target="_top" xlink:title="UActorBlueprintFunctionLibrary\l::MakeGenericDefinition">
<polygon fill="white" stroke="black" points="268,-0.5 268,-30.5 432,-30.5 432,-0.5 268,-0.5"/>
<text text-anchor="start" x="276" y="-18.5" font-family="Helvetica,sans-Serif" font-size="10.00">UActorBlueprintFunctionLibrary</text>
<text text-anchor="middle" x="350" y="-7.5" font-family="Helvetica,sans-Serif" font-size="10.00">::MakeGenericDefinition</text>
</a>
</g>
</g>
<!-- Node7&#45;&gt;Node9 -->
<g id="edge8" class="edge"><title>Node7&#45;&gt;Node9</title>
<path fill="none" stroke="midnightblue" d="M171.698,-240.832C179.741,-197.777 204.87,-94.6361 268,-39.5 271.977,-36.0267 276.437,-33.0557 281.166,-30.5144"/>
<polygon fill="midnightblue" stroke="midnightblue" points="168.22,-240.403 169.936,-250.857 175.114,-241.614 168.22,-240.403"/>
</g>
<!-- Node10 -->
<g id="node10" class="node"><title>Node10</title>
<g id="a_node10"><a xlink:href="../../dd/da3/classUActorBlueprintFunctionLibrary.html#a43f8e76c64459f72e679f073462f5983" target="_top" xlink:title="UActorBlueprintFunctionLibrary\l::MakeGnssDefinition">
<polygon fill="white" stroke="black" points="268,-343.5 268,-373.5 432,-373.5 432,-343.5 268,-343.5"/>
<text text-anchor="start" x="276" y="-361.5" font-family="Helvetica,sans-Serif" font-size="10.00">UActorBlueprintFunctionLibrary</text>
<text text-anchor="middle" x="350" y="-350.5" font-family="Helvetica,sans-Serif" font-size="10.00">::MakeGnssDefinition</text>
</a>
</g>
</g>
<!-- Node7&#45;&gt;Node10 -->
<g id="edge9" class="edge"><title>Node7&#45;&gt;Node10</title>
<path fill="none" stroke="midnightblue" d="M186.653,-276.746C205.717,-293.073 237.157,-317.982 268,-333.5 275.362,-337.204 283.379,-340.484 291.413,-343.348"/>
<polygon fill="midnightblue" stroke="midnightblue" points="188.884,-274.048 179.045,-270.12 184.287,-279.327 188.884,-274.048"/>
</g>
<!-- Node11 -->
<g id="node11" class="node"><title>Node11</title>
<g id="a_node11"><a xlink:href="../../dd/da3/classUActorBlueprintFunctionLibrary.html#a8113a5e0efff9740fde3c53ed9994b6e" target="_top" xlink:title="UActorBlueprintFunctionLibrary\l::MakeIMUDefinition">
<polygon fill="white" stroke="black" points="268,-294.5 268,-324.5 432,-324.5 432,-294.5 268,-294.5"/>
<text text-anchor="start" x="276" y="-312.5" font-family="Helvetica,sans-Serif" font-size="10.00">UActorBlueprintFunctionLibrary</text>
<text text-anchor="middle" x="350" y="-301.5" font-family="Helvetica,sans-Serif" font-size="10.00">::MakeIMUDefinition</text>
</a>
</g>
</g>
<!-- Node7&#45;&gt;Node11 -->
<g id="edge10" class="edge"><title>Node7&#45;&gt;Node11</title>
<path fill="none" stroke="midnightblue" d="M213.402,-272.69C237.682,-279.281 267.879,-287.478 293.609,-294.463"/>
<polygon fill="midnightblue" stroke="midnightblue" points="214.298,-269.306 203.731,-270.064 212.464,-276.062 214.298,-269.306"/>
</g>
<!-- Node12 -->
<g id="node12" class="node"><title>Node12</title>
<g id="a_node12"><a xlink:href="../../dd/da3/classUActorBlueprintFunctionLibrary.html#abffeca8ba8f30edadcc4897ad8a21bc9" target="_top" xlink:title="UActorBlueprintFunctionLibrary\l::MakeLidarDefinition">
<polygon fill="white" stroke="black" points="268,-245.5 268,-275.5 432,-275.5 432,-245.5 268,-245.5"/>
<text text-anchor="start" x="276" y="-263.5" font-family="Helvetica,sans-Serif" font-size="10.00">UActorBlueprintFunctionLibrary</text>
<text text-anchor="middle" x="350" y="-252.5" font-family="Helvetica,sans-Serif" font-size="10.00">::MakeLidarDefinition</text>
</a>
</g>
</g>
<!-- Node7&#45;&gt;Node12 -->
<g id="edge11" class="edge"><title>Node7&#45;&gt;Node12</title>
<path fill="none" stroke="midnightblue" d="M215.974,-260.5C231.852,-260.5 250.029,-260.5 267.739,-260.5"/>
<polygon fill="midnightblue" stroke="midnightblue" points="215.9,-257 205.9,-260.5 215.9,-264 215.9,-257"/>
</g>
<!-- Node13 -->
<g id="node13" class="node"><title>Node13</title>
<g id="a_node13"><a xlink:href="../../dd/da3/classUActorBlueprintFunctionLibrary.html#ab457df342c04ac42c785ef1c845fe5e0" target="_top" xlink:title="UActorBlueprintFunctionLibrary\l::MakePedestrianDefinition">
<polygon fill="white" stroke="black" points="268,-196.5 268,-226.5 432,-226.5 432,-196.5 268,-196.5"/>
<text text-anchor="start" x="276" y="-214.5" font-family="Helvetica,sans-Serif" font-size="10.00">UActorBlueprintFunctionLibrary</text>
<text text-anchor="middle" x="350" y="-203.5" font-family="Helvetica,sans-Serif" font-size="10.00">::MakePedestrianDefinition</text>
</a>
</g>
</g>
<!-- Node7&#45;&gt;Node13 -->
<g id="edge12" class="edge"><title>Node7&#45;&gt;Node13</title>
<path fill="none" stroke="midnightblue" d="M213.402,-248.31C237.682,-241.719 267.879,-233.522 293.609,-226.537"/>
<polygon fill="midnightblue" stroke="midnightblue" points="212.464,-244.938 203.731,-250.936 214.298,-251.694 212.464,-244.938"/>
</g>
<!-- Node14 -->
<g id="node14" class="node"><title>Node14</title>
<g id="a_node14"><a xlink:href="../../dd/da3/classUActorBlueprintFunctionLibrary.html#a673c0d82c938a146db8bbfb6f29c6ab4" target="_top" xlink:title="UActorBlueprintFunctionLibrary\l::MakePropDefinition">
<polygon fill="white" stroke="black" points="268,-147.5 268,-177.5 432,-177.5 432,-147.5 268,-147.5"/>
<text text-anchor="start" x="276" y="-165.5" font-family="Helvetica,sans-Serif" font-size="10.00">UActorBlueprintFunctionLibrary</text>
<text text-anchor="middle" x="350" y="-154.5" font-family="Helvetica,sans-Serif" font-size="10.00">::MakePropDefinition</text>
</a>
</g>
</g>
<!-- Node7&#45;&gt;Node14 -->
<g id="edge13" class="edge"><title>Node7&#45;&gt;Node14</title>
<path fill="none" stroke="midnightblue" d="M186.269,-244.213C205.24,-227.597 236.804,-202.103 268,-186.5 274.69,-183.154 281.929,-180.189 289.233,-177.585"/>
<polygon fill="midnightblue" stroke="midnightblue" points="183.853,-241.678 178.717,-250.945 188.511,-246.903 183.853,-241.678"/>
</g>
<!-- Node15 -->
<g id="node15" class="node"><title>Node15</title>
<g id="a_node15"><a xlink:href="../../dd/da3/classUActorBlueprintFunctionLibrary.html#a8eb67a9669278274d94d01473c82da45" target="_top" xlink:title="UActorBlueprintFunctionLibrary\l::MakeRadarDefinition">
<polygon fill="white" stroke="black" points="268,-98.5 268,-128.5 432,-128.5 432,-98.5 268,-98.5"/>
<text text-anchor="start" x="276" y="-116.5" font-family="Helvetica,sans-Serif" font-size="10.00">UActorBlueprintFunctionLibrary</text>
<text text-anchor="middle" x="350" y="-105.5" font-family="Helvetica,sans-Serif" font-size="10.00">::MakeRadarDefinition</text>
</a>
</g>
</g>
<!-- Node7&#45;&gt;Node15 -->
<g id="edge14" class="edge"><title>Node7&#45;&gt;Node15</title>
<path fill="none" stroke="midnightblue" d="M178.527,-242.038C194.118,-215.065 226.719,-165.101 268,-137.5 273.121,-134.076 278.742,-131.13 284.561,-128.596"/>
<polygon fill="midnightblue" stroke="midnightblue" points="175.422,-240.42 173.568,-250.852 181.522,-243.853 175.422,-240.42"/>
</g>
</g>
</svg>
