<?xml version="1.0" encoding="UTF-8" standalone="no"?>
<!DOCTYPE svg PUBLIC "-//W3C//DTD SVG 1.1//EN"
 "http://www.w3.org/Graphics/SVG/1.1/DTD/svg11.dtd">
<!-- Generated by graphviz version 2.43.0 (0)
 -->
<!-- Title: ARayCastSemanticLidar::Set Pages: 1 -->
<svg width="778pt" height="88pt"
 viewBox="0.00 0.00 778.00 88.00" xmlns="http://www.w3.org/2000/svg" xmlns:xlink="http://www.w3.org/1999/xlink">
<g id="graph0" class="graph" transform="scale(1 1) rotate(0) translate(4 84)">
<title>ARayCastSemanticLidar::Set</title>
<polygon fill="white" stroke="transparent" points="-4,4 -4,-84 774,-84 774,4 -4,4"/>
<!-- Node1 -->
<g id="node1" class="node">
<title>Node1</title>
<g id="a_node1"><a xlink:title=" ">
<polygon fill="#bfbfbf" stroke="black" points="0,-30 0,-49 155,-49 155,-30 0,-30"/>
<text text-anchor="middle" x="77.5" y="-37" font-family="Helvetica,sans-Serif" font-size="10.00">ARayCastSemanticLidar::Set</text>
</a>
</g>
</g>
<!-- Node2 -->
<g id="node2" class="node">
<title>Node2</title>
<g id="a_node2"><a xlink:href="../../dd/da3/classUActorBlueprintFunctionLibrary.html#a0ac14016bd271f575f9eb78ea3dc8cd3" target="_top" xlink:title=" ">
<polygon fill="white" stroke="black" points="191,-24.5 191,-54.5 360,-54.5 360,-24.5 191,-24.5"/>
<text text-anchor="start" x="199" y="-42.5" font-family="Helvetica,sans-Serif" font-size="10.00">UActorBlueprintFunctionLibrary</text>
<text text-anchor="middle" x="275.5" y="-31.5" font-family="Helvetica,sans-Serif" font-size="10.00">::SetLidar</text>
</a>
</g>
</g>
<!-- Node1&#45;&gt;Node2 -->
<g id="edge1" class="edge">
<title>Node1&#45;&gt;Node2</title>
<path fill="none" stroke="midnightblue" d="M155.12,-39.5C163.53,-39.5 172.16,-39.5 180.75,-39.5"/>
<polygon fill="midnightblue" stroke="midnightblue" points="180.8,-43 190.8,-39.5 180.8,-36 180.8,-43"/>
</g>
<!-- Node3 -->
<g id="node3" class="node">
<title>Node3</title>
<g id="a_node3"><a xlink:href="../../dd/da3/classUActorBlueprintFunctionLibrary.html#a9df033f51ecd7f941548826451bddb74" target="_top" xlink:title=" ">
<polygon fill="white" stroke="black" points="396,-49.5 396,-79.5 565,-79.5 565,-49.5 396,-49.5"/>
<text text-anchor="start" x="404" y="-67.5" font-family="Helvetica,sans-Serif" font-size="10.00">UActorBlueprintFunctionLibrary</text>
<text text-anchor="middle" x="480.5" y="-56.5" font-family="Helvetica,sans-Serif" font-size="10.00">::RetrieveActorAttributeToFloat</text>
</a>
</g>
</g>
<!-- Node2&#45;&gt;Node3 -->
<g id="edge2" class="edge">
<title>Node2&#45;&gt;Node3</title>
<path fill="none" stroke="midnightblue" d="M360.24,-49.81C368.72,-50.86 377.37,-51.92 385.94,-52.98"/>
<polygon fill="midnightblue" stroke="midnightblue" points="385.6,-56.46 395.95,-54.21 386.46,-49.51 385.6,-56.46"/>
</g>
<!-- Node5 -->
<g id="node5" class="node">
<title>Node5</title>
<g id="a_node5"><a xlink:href="../../dd/da3/classUActorBlueprintFunctionLibrary.html#a133abaff7dac1fe73845d942c9305427" target="_top" xlink:title=" ">
<polygon fill="white" stroke="black" points="396,-0.5 396,-30.5 565,-30.5 565,-0.5 396,-0.5"/>
<text text-anchor="start" x="404" y="-18.5" font-family="Helvetica,sans-Serif" font-size="10.00">UActorBlueprintFunctionLibrary</text>
<text text-anchor="middle" x="480.5" y="-7.5" font-family="Helvetica,sans-Serif" font-size="10.00">::RetrieveActorAttributeToInt</text>
</a>
</g>
</g>
<!-- Node2&#45;&gt;Node5 -->
<g id="edge4" class="edge">
<title>Node2&#45;&gt;Node5</title>
<path fill="none" stroke="midnightblue" d="M360.24,-29.6C368.72,-28.6 377.37,-27.57 385.94,-26.56"/>
<polygon fill="midnightblue" stroke="midnightblue" points="386.43,-30.03 395.95,-25.38 385.61,-23.08 386.43,-30.03"/>
</g>
<!-- Node4 -->
<g id="node4" class="node">
<title>Node4</title>
<g id="a_node4"><a xlink:href="../../dd/da3/classUActorBlueprintFunctionLibrary.html#a2705e7880e0aaf440b869e95732c841a" target="_top" xlink:title=" ">
<polygon fill="white" stroke="black" points="601,-49.5 601,-79.5 770,-79.5 770,-49.5 601,-49.5"/>
<text text-anchor="start" x="609" y="-67.5" font-family="Helvetica,sans-Serif" font-size="10.00">UActorBlueprintFunctionLibrary</text>
<text text-anchor="middle" x="685.5" y="-56.5" font-family="Helvetica,sans-Serif" font-size="10.00">::ActorAttributeToFloat</text>
</a>
</g>
</g>
<!-- Node3&#45;&gt;Node4 -->
<g id="edge3" class="edge">
<title>Node3&#45;&gt;Node4</title>
<path fill="none" stroke="midnightblue" d="M565.24,-64.5C573.72,-64.5 582.37,-64.5 590.94,-64.5"/>
<polygon fill="midnightblue" stroke="midnightblue" points="590.95,-68 600.95,-64.5 590.95,-61 590.95,-68"/>
</g>
<!-- Node6 -->
<g id="node6" class="node">
<title>Node6</title>
<g id="a_node6"><a xlink:href="../../dd/da3/classUActorBlueprintFunctionLibrary.html#ac6896b87d5fb6381abeec9b2ce40b868" target="_top" xlink:title=" ">
<polygon fill="white" stroke="black" points="601,-0.5 601,-30.5 770,-30.5 770,-0.5 601,-0.5"/>
<text text-anchor="start" x="609" y="-18.5" font-family="Helvetica,sans-Serif" font-size="10.00">UActorBlueprintFunctionLibrary</text>
<text text-anchor="middle" x="685.5" y="-7.5" font-family="Helvetica,sans-Serif" font-size="10.00">::ActorAttributeToInt</text>
</a>
</g>
</g>
<!-- Node5&#45;&gt;Node6 -->
<g id="edge5" class="edge">
<title>Node5&#45;&gt;Node6</title>
<path fill="none" stroke="midnightblue" d="M565.24,-15.5C573.72,-15.5 582.37,-15.5 590.94,-15.5"/>
<polygon fill="midnightblue" stroke="midnightblue" points="590.95,-19 600.95,-15.5 590.95,-12 590.95,-19"/>
</g>
</g>
</svg>
