<?xml version="1.0" encoding="UTF-8" standalone="no"?>
<!DOCTYPE svg PUBLIC "-//W3C//DTD SVG 1.1//EN"
 "http://www.w3.org/Graphics/SVG/1.1/DTD/svg11.dtd">
<!-- Generated by graphviz version 2.38.0 (20140413.2041)
 -->
<!-- Title: ARayCastSemanticLidar::ComputeRawDetection Pages: 1 -->
<svg width="671pt" height="78pt"
 viewBox="0.00 0.00 671.00 77.50" xmlns="http://www.w3.org/2000/svg" xmlns:xlink="http://www.w3.org/1999/xlink">
<g id="graph0" class="graph" transform="scale(1 1) rotate(0) translate(4 73.5)">
<title>ARayCastSemanticLidar::ComputeRawDetection</title>
<polygon fill="white" stroke="none" points="-4,4 -4,-73.5 667,-73.5 667,4 -4,4"/>
<!-- Node1 -->
<g id="node1" class="node"><title>Node1</title>
<polygon fill="#bfbfbf" stroke="black" points="0,-22.5 0,-52.5 132,-52.5 132,-22.5 0,-22.5"/>
<text text-anchor="start" x="8" y="-40.5" font-family="Helvetica,sans-Serif" font-size="10.00">ARayCastSemanticLidar</text>
<text text-anchor="middle" x="66" y="-29.5" font-family="Helvetica,sans-Serif" font-size="10.00">::ComputeRawDetection</text>
</g>
<!-- Node2 -->
<g id="node2" class="node"><title>Node2</title>
<g id="a_node2"><a xlink:href="../../d8/d15/classARayCastSemanticLidar.html#a1ea2612be9cab1e5f6fedeb6ffc7c5f6" target="_top" xlink:title="This method uses all the saved FHitResults, compute the RawDetections and then send it to the LidarDa...">
<polygon fill="white" stroke="black" points="168,-22.5 168,-52.5 329,-52.5 329,-22.5 168,-22.5"/>
<text text-anchor="start" x="176" y="-40.5" font-family="Helvetica,sans-Serif" font-size="10.00">ARayCastSemanticLidar</text>
<text text-anchor="middle" x="248.5" y="-29.5" font-family="Helvetica,sans-Serif" font-size="10.00">::ComputeAndSaveDetections</text>
</a>
</g>
</g>
<!-- Node1&#45;&gt;Node2 -->
<g id="edge1" class="edge"><title>Node1&#45;&gt;Node2</title>
<path fill="none" stroke="midnightblue" d="M142.365,-37.5C150.818,-37.5 159.449,-37.5 167.952,-37.5"/>
<polygon fill="midnightblue" stroke="midnightblue" points="142.165,-34.0001 132.165,-37.5 142.165,-41.0001 142.165,-34.0001"/>
</g>
<!-- Node3 -->
<g id="node3" class="node"><title>Node3</title>
<g id="a_node3"><a xlink:href="../../d8/d15/classARayCastSemanticLidar.html#a304606a5cec4a1754bb4dba6967ccfa3" target="_top" xlink:title="Updates LidarMeasurement with the points read in DeltaTime. ">
<polygon fill="white" stroke="black" points="365,-22.5 365,-52.5 496,-52.5 496,-22.5 365,-22.5"/>
<text text-anchor="start" x="373" y="-40.5" font-family="Helvetica,sans-Serif" font-size="10.00">ARayCastSemanticLidar</text>
<text text-anchor="middle" x="430.5" y="-29.5" font-family="Helvetica,sans-Serif" font-size="10.00">::SimulateLidar</text>
</a>
</g>
</g>
<!-- Node2&#45;&gt;Node3 -->
<g id="edge2" class="edge"><title>Node2&#45;&gt;Node3</title>
<path fill="none" stroke="midnightblue" d="M339.352,-37.5C347.986,-37.5 356.622,-37.5 364.941,-37.5"/>
<polygon fill="midnightblue" stroke="midnightblue" points="339.237,-34.0001 329.237,-37.5 339.237,-41.0001 339.237,-34.0001"/>
</g>
<!-- Node4 -->
<g id="node4" class="node"><title>Node4</title>
<g id="a_node4"><a xlink:href="../../d5/de4/classARayCastLidar.html#a1d8fa9e958443f080fe7e947c542b5cf" target="_top" xlink:title="ARayCastLidar::Tick">
<polygon fill="white" stroke="black" points="542.5,-50 542.5,-69 652.5,-69 652.5,-50 542.5,-50"/>
<text text-anchor="middle" x="597.5" y="-57" font-family="Helvetica,sans-Serif" font-size="10.00">ARayCastLidar::Tick</text>
</a>
</g>
</g>
<!-- Node3&#45;&gt;Node4 -->
<g id="edge3" class="edge"><title>Node3&#45;&gt;Node4</title>
<path fill="none" stroke="midnightblue" d="M506.351,-47.4801C518.479,-49.0972 530.829,-50.7439 542.342,-52.2789"/>
<polygon fill="midnightblue" stroke="midnightblue" points="506.614,-43.9843 496.239,-46.1318 505.688,-50.9229 506.614,-43.9843"/>
</g>
<!-- Node5 -->
<g id="node5" class="node"><title>Node5</title>
<g id="a_node5"><a xlink:href="../../d8/d15/classARayCastSemanticLidar.html#aa55aecf6bc61dcc8cae281d79603deba" target="_top" xlink:title="ARayCastSemanticLidar\l::Tick">
<polygon fill="white" stroke="black" points="532,-0.5 532,-30.5 663,-30.5 663,-0.5 532,-0.5"/>
<text text-anchor="start" x="540" y="-18.5" font-family="Helvetica,sans-Serif" font-size="10.00">ARayCastSemanticLidar</text>
<text text-anchor="middle" x="597.5" y="-7.5" font-family="Helvetica,sans-Serif" font-size="10.00">::Tick</text>
</a>
</g>
</g>
<!-- Node3&#45;&gt;Node5 -->
<g id="edge4" class="edge"><title>Node3&#45;&gt;Node5</title>
<path fill="none" stroke="midnightblue" d="M506.239,-27.5348C514.821,-26.3906 523.516,-25.2312 531.948,-24.1069"/>
<polygon fill="midnightblue" stroke="midnightblue" points="505.688,-24.0771 496.239,-28.8682 506.614,-31.0157 505.688,-24.0771"/>
</g>
</g>
</svg>
