<?xml version="1.0" encoding="UTF-8" standalone="no"?>
<!DOCTYPE svg PUBLIC "-//W3C//DTD SVG 1.1//EN"
 "http://www.w3.org/Graphics/SVG/1.1/DTD/svg11.dtd">
<!-- Generated by graphviz version 2.40.1 (20161225.0304)
 -->
<!-- Title: carla::ThreadPool::Stop Pages: 1 -->
<svg width="320pt" height="235pt"
 viewBox="0.00 0.00 320.00 235.00" xmlns="http://www.w3.org/2000/svg" xmlns:xlink="http://www.w3.org/1999/xlink">
<g id="graph0" class="graph" transform="scale(1 1) rotate(0) translate(4 231)">
<title>carla::ThreadPool::Stop</title>
<polygon fill="#ffffff" stroke="transparent" points="-4,4 -4,-231 316,-231 316,4 -4,4"/>
<!-- Node48 -->
<g id="node1" class="node">
<title>Node48</title>
<polygon fill="#bfbfbf" stroke="#000000" points="0,-104 0,-123 129,-123 129,-104 0,-104"/>
<text text-anchor="middle" x="64.5" y="-111" font-family="Helvetica,sans-Serif" font-size="10.00" fill="#000000">carla::ThreadPool::Stop</text>
</g>
<!-- Node49 -->
<g id="node2" class="node">
<title>Node49</title>
<g id="a_node2"><a xlink:href="../../d0/daa/classcarla_1_1streaming_1_1Client.html#a5ea71929ac1e5a8665c704394122fec8" target="_top" xlink:title="carla::streaming::Client\l::~Client">
<polygon fill="#ffffff" stroke="#000000" points="173,-196.5 173,-226.5 304,-226.5 304,-196.5 173,-196.5"/>
<text text-anchor="start" x="181" y="-214.5" font-family="Helvetica,sans-Serif" font-size="10.00" fill="#000000">carla::streaming::Client</text>
<text text-anchor="middle" x="238.5" y="-203.5" font-family="Helvetica,sans-Serif" font-size="10.00" fill="#000000">::~Client</text>
</a>
</g>
</g>
<!-- Node48&#45;&gt;Node49 -->
<g id="edge1" class="edge">
<title>Node48&#45;&gt;Node49</title>
<path fill="none" stroke="#191970" d="M82.8777,-129.8686C102.167,-146.3393 133.9504,-171.5261 165,-187.5 171.4457,-190.8161 178.4425,-193.801 185.471,-196.4471"/>
<polygon fill="#191970" stroke="#191970" points="85.0248,-127.0977 75.178,-123.1872 80.437,-132.3847 85.0248,-127.0977"/>
</g>
<!-- Node50 -->
<g id="node3" class="node">
<title>Node50</title>
<g id="a_node3"><a xlink:href="../../d6/d60/classcarla_1_1multigpu_1_1Router.html#ad88b546f5f057952e14e6fd6903657f4" target="_top" xlink:title="carla::multigpu::Router\l::~Router">
<polygon fill="#ffffff" stroke="#000000" points="174.5,-147.5 174.5,-177.5 302.5,-177.5 302.5,-147.5 174.5,-147.5"/>
<text text-anchor="start" x="182.5" y="-165.5" font-family="Helvetica,sans-Serif" font-size="10.00" fill="#000000">carla::multigpu::Router</text>
<text text-anchor="middle" x="238.5" y="-154.5" font-family="Helvetica,sans-Serif" font-size="10.00" fill="#000000">::~Router</text>
</a>
</g>
</g>
<!-- Node48&#45;&gt;Node50 -->
<g id="edge2" class="edge">
<title>Node48&#45;&gt;Node50</title>
<path fill="none" stroke="#191970" d="M108.0978,-125.7776C131.4498,-132.3537 160.4103,-140.5092 185.1034,-147.463"/>
<polygon fill="#191970" stroke="#191970" points="109.0364,-122.4058 98.462,-123.064 107.1389,-129.1437 109.0364,-122.4058"/>
</g>
<!-- Node51 -->
<g id="node4" class="node">
<title>Node51</title>
<g id="a_node4"><a xlink:href="../../d6/d8b/classcarla_1_1multigpu_1_1Secondary.html#a8ca3d1d89110feed8368326f1e536909" target="_top" xlink:title="carla::multigpu::Secondary\l::~Secondary">
<polygon fill="#ffffff" stroke="#000000" points="165,-98.5 165,-128.5 312,-128.5 312,-98.5 165,-98.5"/>
<text text-anchor="start" x="173" y="-116.5" font-family="Helvetica,sans-Serif" font-size="10.00" fill="#000000">carla::multigpu::Secondary</text>
<text text-anchor="middle" x="238.5" y="-105.5" font-family="Helvetica,sans-Serif" font-size="10.00" fill="#000000">::~Secondary</text>
</a>
</g>
</g>
<!-- Node48&#45;&gt;Node51 -->
<g id="edge3" class="edge">
<title>Node48&#45;&gt;Node51</title>
<path fill="none" stroke="#191970" d="M139.4656,-113.5C147.8869,-113.5 156.4617,-113.5 164.866,-113.5"/>
<polygon fill="#191970" stroke="#191970" points="139.2912,-110.0001 129.2912,-113.5 139.2911,-117.0001 139.2912,-110.0001"/>
</g>
<!-- Node52 -->
<g id="node5" class="node">
<title>Node52</title>
<g id="a_node5"><a xlink:href="../../d5/de5/classcarla_1_1streaming_1_1Server.html#aa00b921903bd184fa7f72d9dfc9bd740" target="_top" xlink:title="carla::streaming::Server\l::~Server">
<polygon fill="#ffffff" stroke="#000000" points="171.5,-49.5 171.5,-79.5 305.5,-79.5 305.5,-49.5 171.5,-49.5"/>
<text text-anchor="start" x="179.5" y="-67.5" font-family="Helvetica,sans-Serif" font-size="10.00" fill="#000000">carla::streaming::Server</text>
<text text-anchor="middle" x="238.5" y="-56.5" font-family="Helvetica,sans-Serif" font-size="10.00" fill="#000000">::~Server</text>
</a>
</g>
</g>
<!-- Node48&#45;&gt;Node52 -->
<g id="edge4" class="edge">
<title>Node48&#45;&gt;Node52</title>
<path fill="none" stroke="#191970" d="M108.0978,-101.2224C131.4498,-94.6463 160.4103,-86.4908 185.1034,-79.537"/>
<polygon fill="#191970" stroke="#191970" points="107.1389,-97.8563 98.462,-103.936 109.0364,-104.5942 107.1389,-97.8563"/>
</g>
<!-- Node53 -->
<g id="node6" class="node">
<title>Node53</title>
<g id="a_node6"><a xlink:href="../../da/d72/classcarla_1_1ThreadPool.html#a4f819c54f8883d7f8b2cda45a625904d" target="_top" xlink:title="Stops the ThreadPool and joins all its threads. ">
<polygon fill="#ffffff" stroke="#000000" points="185,-.5 185,-30.5 292,-30.5 292,-.5 185,-.5"/>
<text text-anchor="start" x="193" y="-18.5" font-family="Helvetica,sans-Serif" font-size="10.00" fill="#000000">carla::ThreadPool::</text>
<text text-anchor="middle" x="238.5" y="-7.5" font-family="Helvetica,sans-Serif" font-size="10.00" fill="#000000">~ThreadPool</text>
</a>
</g>
</g>
<!-- Node48&#45;&gt;Node53 -->
<g id="edge5" class="edge">
<title>Node48&#45;&gt;Node53</title>
<path fill="none" stroke="#191970" d="M83.272,-97.184C102.6539,-81.0067 134.31,-56.4009 165,-40.5 172.0608,-36.8417 179.771,-33.5418 187.4563,-30.6293"/>
<polygon fill="#191970" stroke="#191970" points="80.8827,-94.6211 75.5168,-103.7566 85.4085,-99.9612 80.8827,-94.6211"/>
</g>
</g>
</svg>
