<?xml version="1.0" encoding="UTF-8" standalone="no"?>
<!DOCTYPE svg PUBLIC "-//W3C//DTD SVG 1.1//EN"
 "http://www.w3.org/Graphics/SVG/1.1/DTD/svg11.dtd">
<!-- Generated by graphviz version 2.40.1 (20161225.0304)
 -->
<!-- Title: CustomFileDownloader.h Pages: 1 -->
<svg width="462pt" height="84pt"
 viewBox="0.00 0.00 461.50 84.00" xmlns="http://www.w3.org/2000/svg" xmlns:xlink="http://www.w3.org/1999/xlink">
<g id="graph0" class="graph" transform="scale(1 1) rotate(0) translate(4 80)">
<title>CustomFileDownloader.h</title>
<polygon fill="#ffffff" stroke="transparent" points="-4,4 -4,-80 457.5,-80 457.5,4 -4,4"/>
<!-- Node0 -->
<g id="node1" class="node">
<title>Node0</title>
<polygon fill="#bfbfbf" stroke="#000000" points="107,-56.5 107,-75.5 244,-75.5 244,-56.5 107,-56.5"/>
<text text-anchor="middle" x="175.5" y="-63.5" font-family="Helvetica,sans-Serif" font-size="10.00" fill="#000000">CustomFileDownloader.h</text>
</g>
<!-- Node1 -->
<g id="node2" class="node">
<title>Node1</title>
<polygon fill="#ffffff" stroke="#bfbfbf" points="0,-.5 0,-19.5 87,-19.5 87,-.5 0,-.5"/>
<text text-anchor="middle" x="43.5" y="-7.5" font-family="Helvetica,sans-Serif" font-size="10.00" fill="#000000">CoreMinimal.h</text>
</g>
<!-- Node0&#45;&gt;Node1 -->
<g id="edge1" class="edge">
<title>Node0&#45;&gt;Node1</title>
<path fill="none" stroke="#191970" d="M152.8084,-56.3733C131.4289,-47.3032 99.1943,-33.6279 75.2638,-23.4755"/>
<polygon fill="#191970" stroke="#191970" points="76.4683,-20.1846 65.8955,-19.5011 73.7344,-26.6287 76.4683,-20.1846"/>
</g>
<!-- Node2 -->
<g id="node3" class="node">
<title>Node2</title>
<polygon fill="#ffffff" stroke="#bfbfbf" points="105.5,-.5 105.5,-19.5 245.5,-19.5 245.5,-.5 105.5,-.5"/>
<text text-anchor="middle" x="175.5" y="-7.5" font-family="Helvetica,sans-Serif" font-size="10.00" fill="#000000">Interfaces/IHttpRequest.h</text>
</g>
<!-- Node0&#45;&gt;Node2 -->
<g id="edge2" class="edge">
<title>Node0&#45;&gt;Node2</title>
<path fill="none" stroke="#191970" d="M175.5,-56.2455C175.5,-48.9382 175.5,-38.6944 175.5,-29.7046"/>
<polygon fill="#191970" stroke="#191970" points="179.0001,-29.6426 175.5,-19.6427 172.0001,-29.6427 179.0001,-29.6426"/>
</g>
<!-- Node3 -->
<g id="node4" class="node">
<title>Node3</title>
<polygon fill="#ffffff" stroke="#bfbfbf" points="263.5,-.5 263.5,-19.5 453.5,-19.5 453.5,-.5 263.5,-.5"/>
<text text-anchor="middle" x="358.5" y="-7.5" font-family="Helvetica,sans-Serif" font-size="10.00" fill="#000000">CustomFileDownloader.generated.h</text>
</g>
<!-- Node0&#45;&gt;Node3 -->
<g id="edge3" class="edge">
<title>Node0&#45;&gt;Node3</title>
<path fill="none" stroke="#191970" d="M206.9588,-56.3733C237.5207,-47.021 284.0826,-32.7725 317.5261,-22.5385"/>
<polygon fill="#191970" stroke="#191970" points="318.9136,-25.7742 327.4517,-19.5011 316.8652,-19.0806 318.9136,-25.7742"/>
</g>
</g>
</svg>
