<?xml version="1.0" encoding="UTF-8" standalone="no"?>
<!DOCTYPE svg PUBLIC "-//W3C//DTD SVG 1.1//EN"
 "http://www.w3.org/Graphics/SVG/1.1/DTD/svg11.dtd">
<!-- Generated by graphviz version 2.40.1 (20161225.0304)
 -->
<!-- Title: CarlaISCameraPublisher.h Pages: 1 -->
<svg width="244pt" height="84pt"
 viewBox="0.00 0.00 243.50 84.00" xmlns="http://www.w3.org/2000/svg" xmlns:xlink="http://www.w3.org/1999/xlink">
<g id="graph0" class="graph" transform="scale(1 1) rotate(0) translate(4 80)">
<title>CarlaISCameraPublisher.h</title>
<polygon fill="#ffffff" stroke="transparent" points="-4,4 -4,-80 239.5,-80 239.5,4 -4,4"/>
<!-- Node5 -->
<g id="node1" class="node">
<title>Node5</title>
<polygon fill="#bfbfbf" stroke="#000000" points="68.5,-56.5 68.5,-75.5 211.5,-75.5 211.5,-56.5 68.5,-56.5"/>
<text text-anchor="middle" x="140" y="-63.5" font-family="Helvetica,sans-Serif" font-size="10.00" fill="#000000">CarlaISCameraPublisher.h</text>
</g>
<!-- Node6 -->
<g id="node2" class="node">
<title>Node6</title>
<g id="a_node2"><a xlink:href="../../dc/d01/CarlaISCameraPublisher_8cpp.html" target="_top" xlink:title="CarlaISCameraPublisher.cpp">
<polygon fill="#ffffff" stroke="#000000" points="0,-.5 0,-19.5 154,-19.5 154,-.5 0,-.5"/>
<text text-anchor="middle" x="77" y="-7.5" font-family="Helvetica,sans-Serif" font-size="10.00" fill="#000000">CarlaISCameraPublisher.cpp</text>
</a>
</g>
</g>
<!-- Node5&#45;&gt;Node6 -->
<g id="edge1" class="edge">
<title>Node5&#45;&gt;Node6</title>
<path fill="none" stroke="#191970" d="M121.2808,-49.3607C110.3818,-39.6727 97.0245,-27.7995 87.848,-19.6427"/>
<polygon fill="#191970" stroke="#191970" points="119.2268,-52.2178 129.0262,-56.2455 123.8774,-46.9859 119.2268,-52.2178"/>
</g>
<!-- Node7 -->
<g id="node3" class="node">
<title>Node7</title>
<g id="a_node3"><a xlink:href="../../dd/d14/ROS2_8cpp.html" target="_top" xlink:title="ROS2.cpp">
<polygon fill="#ffffff" stroke="#000000" points="172.5,-.5 172.5,-19.5 235.5,-19.5 235.5,-.5 172.5,-.5"/>
<text text-anchor="middle" x="204" y="-7.5" font-family="Helvetica,sans-Serif" font-size="10.00" fill="#000000">ROS2.cpp</text>
</a>
</g>
</g>
<!-- Node5&#45;&gt;Node7 -->
<g id="edge2" class="edge">
<title>Node5&#45;&gt;Node7</title>
<path fill="none" stroke="#191970" d="M158.6914,-49.645C169.8219,-39.9058 183.5663,-27.8795 192.9798,-19.6427"/>
<polygon fill="#191970" stroke="#191970" points="156.369,-47.0264 151.1479,-56.2455 160.9785,-52.2945 156.369,-47.0264"/>
</g>
</g>
</svg>
