<?xml version="1.0" encoding="UTF-8" standalone="no"?>
<!DOCTYPE svg PUBLIC "-//W3C//DTD SVG 1.1//EN"
 "http://www.w3.org/Graphics/SVG/1.1/DTD/svg11.dtd">
<!-- Generated by graphviz version 2.40.1 (20161225.0304)
 -->
<!-- Title: ADepthCamera::SendPixels Pages: 1 -->
<svg width="337pt" height="88pt"
 viewBox="0.00 0.00 337.00 88.00" xmlns="http://www.w3.org/2000/svg" xmlns:xlink="http://www.w3.org/1999/xlink">
<g id="graph0" class="graph" transform="scale(1 1) rotate(0) translate(4 84)">
<title>ADepthCamera::SendPixels</title>
<polygon fill="#ffffff" stroke="transparent" points="-4,4 -4,-84 333,-84 333,4 -4,4"/>
<!-- Node6 -->
<g id="node1" class="node">
<title>Node6</title>
<polygon fill="#bfbfbf" stroke="#000000" points="0,-30 0,-49 150,-49 150,-30 0,-30"/>
<text text-anchor="middle" x="75" y="-37" font-family="Helvetica,sans-Serif" font-size="10.00" fill="#000000">ADepthCamera::SendPixels</text>
</g>
<!-- Node7 -->
<g id="node2" class="node">
<title>Node7</title>
<g id="a_node2"><a xlink:href="../../db/de5/classACarlaGameModeBase.html#a0f13526a3b597ff522e020cb4be9cb17" target="_top" xlink:title="ACarlaGameModeBase\l::IsCameraStreamEnabled">
<polygon fill="#ffffff" stroke="#000000" points="186,-49.5 186,-79.5 329,-79.5 329,-49.5 186,-49.5"/>
<text text-anchor="start" x="194" y="-67.5" font-family="Helvetica,sans-Serif" font-size="10.00" fill="#000000">ACarlaGameModeBase</text>
<text text-anchor="middle" x="257.5" y="-56.5" font-family="Helvetica,sans-Serif" font-size="10.00" fill="#000000">::IsCameraStreamEnabled</text>
</a>
</g>
</g>
<!-- Node6&#45;&gt;Node7 -->
<g id="edge1" class="edge">
<title>Node6&#45;&gt;Node7</title>
<path fill="none" stroke="#191970" d="M144.516,-49.0227C154.745,-50.424 165.3608,-51.8782 175.8077,-53.3093"/>
<polygon fill="#191970" stroke="#191970" points="175.3713,-56.7821 185.7538,-54.6718 176.3214,-49.8469 175.3713,-56.7821"/>
</g>
<!-- Node8 -->
<g id="node3" class="node">
<title>Node8</title>
<g id="a_node3"><a xlink:href="../../d4/d60/classASceneCaptureSensor.html#a309a73b1aff9e282131f9caf8cfcb661" target="_top" xlink:title="ASceneCaptureSensor\l::SendPixelsInStream">
<polygon fill="#ffffff" stroke="#000000" points="195.5,-.5 195.5,-30.5 319.5,-30.5 319.5,-.5 195.5,-.5"/>
<text text-anchor="start" x="203.5" y="-18.5" font-family="Helvetica,sans-Serif" font-size="10.00" fill="#000000">ASceneCaptureSensor</text>
<text text-anchor="middle" x="257.5" y="-7.5" font-family="Helvetica,sans-Serif" font-size="10.00" fill="#000000">::SendPixelsInStream</text>
</a>
</g>
</g>
<!-- Node6&#45;&gt;Node8 -->
<g id="edge2" class="edge">
<title>Node6&#45;&gt;Node8</title>
<path fill="none" stroke="#191970" d="M147.391,-29.9801C159.7529,-28.3544 172.5977,-26.6652 184.9633,-25.0391"/>
<polygon fill="#191970" stroke="#191970" points="185.7585,-28.4647 195.2167,-23.6907 184.8457,-21.5245 185.7585,-28.4647"/>
</g>
</g>
</svg>
