<?xml version="1.0" encoding="UTF-8" standalone="no"?>
<!DOCTYPE svg PUBLIC "-//W3C//DTD SVG 1.1//EN"
 "http://www.w3.org/Graphics/SVG/1.1/DTD/svg11.dtd">
<!-- Generated by graphviz version 2.38.0 (20140413.2041)
 -->
<!-- Title: traffic_manager::BatchControlStage Pages: 1 -->
<svg width="953pt" height="511pt"
 viewBox="0.00 0.00 953.00 510.50" xmlns="http://www.w3.org/2000/svg" xmlns:xlink="http://www.w3.org/1999/xlink">
<g id="graph0" class="graph" transform="scale(1 1) rotate(0) translate(4 506.5)">
<title>traffic_manager::BatchControlStage</title>
<polygon fill="white" stroke="none" points="-4,4 -4,-506.5 949,-506.5 949,4 -4,4"/>
<!-- Node1 -->
<g id="node1" class="node"><title>Node1</title>
<polygon fill="#bfbfbf" stroke="black" points="798,-142.5 798,-172.5 945,-172.5 945,-142.5 798,-142.5"/>
<text text-anchor="start" x="806" y="-160.5" font-family="Helvetica,sans-Serif" font-size="10.00">traffic_manager::BatchControl</text>
<text text-anchor="middle" x="871.5" y="-149.5" font-family="Helvetica,sans-Serif" font-size="10.00">Stage</text>
</g>
<!-- Node2 -->
<g id="node2" class="node"><title>Node2</title>
<g id="a_node2"><a xlink:href="../../de/d20/classtraffic__manager_1_1PipelineStage.html" target="_top" xlink:title="This class provides base functionality and template for various stages of the pipeline. ">
<polygon fill="white" stroke="black" points="547,-332.5 547,-362.5 672,-362.5 672,-332.5 547,-332.5"/>
<text text-anchor="start" x="555" y="-350.5" font-family="Helvetica,sans-Serif" font-size="10.00">traffic_manager::Pipeline</text>
<text text-anchor="middle" x="609.5" y="-339.5" font-family="Helvetica,sans-Serif" font-size="10.00">Stage</text>
</a>
</g>
</g>
<!-- Node2&#45;&gt;Node1 -->
<g id="edge1" class="edge"><title>Node2&#45;&gt;Node1</title>
<path fill="none" stroke="midnightblue" d="M650.119,-327.759C685.647,-309.23 738.428,-279.619 780,-247.5 810.16,-224.198 840.645,-191.581 857.405,-172.684"/>
<polygon fill="midnightblue" stroke="midnightblue" points="648.307,-324.756 641.028,-332.455 651.52,-330.975 648.307,-324.756"/>
</g>
<!-- Node3 -->
<g id="node3" class="node"><title>Node3</title>
<polygon fill="white" stroke="#bfbfbf" points="267.5,-361 267.5,-380 362.5,-380 362.5,-361 267.5,-361"/>
<text text-anchor="middle" x="315" y="-368" font-family="Helvetica,sans-Serif" font-size="10.00">condition_variable</text>
</g>
<!-- Node3&#45;&gt;Node2 -->
<g id="edge2" class="edge"><title>Node3&#45;&gt;Node2</title>
<path fill="none" stroke="#9a32cd" stroke-dasharray="5,2" d="M372.676,-366.043C422.724,-362.108 495.531,-356.383 546.981,-352.337"/>
<polygon fill="#9a32cd" stroke="#9a32cd" points="372.366,-362.557 362.671,-366.83 372.915,-369.535 372.366,-362.557"/>
<text text-anchor="middle" x="462" y="-388.5" font-family="Helvetica,sans-Serif" font-size="10.00"> wake_sender_notifier</text>
<text text-anchor="middle" x="462" y="-377.5" font-family="Helvetica,sans-Serif" font-size="10.00">wake_action_notifier</text>
<text text-anchor="middle" x="462" y="-366.5" font-family="Helvetica,sans-Serif" font-size="10.00">wake_receiver_notifier</text>
</g>
<!-- Node4 -->
<g id="node4" class="node"><title>Node4</title>
<polygon fill="white" stroke="#bfbfbf" points="293,-316 293,-335 337,-335 337,-316 293,-316"/>
<text text-anchor="middle" x="315" y="-323" font-family="Helvetica,sans-Serif" font-size="10.00">mutex</text>
</g>
<!-- Node4&#45;&gt;Node2 -->
<g id="edge3" class="edge"><title>Node4&#45;&gt;Node2</title>
<path fill="none" stroke="#9a32cd" stroke-dasharray="5,2" d="M347.158,-323.512C386.948,-321.464 457.856,-319.463 518,-326.5 529.214,-327.812 541.062,-329.977 552.358,-332.43"/>
<polygon fill="#9a32cd" stroke="#9a32cd" points="346.823,-320.025 337.031,-324.07 347.208,-327.014 346.823,-320.025"/>
<text text-anchor="start" x="418" y="-340.5" font-family="Helvetica,sans-Serif" font-size="10.00"> thread_coordination</text>
<text text-anchor="middle" x="462" y="-329.5" font-family="Helvetica,sans-Serif" font-size="10.00">_mutex</text>
</g>
<!-- Node5 -->
<g id="node5" class="node"><title>Node5</title>
<polygon fill="white" stroke="#bfbfbf" points="252,-262 252,-281 378,-281 378,-262 252,-262"/>
<text text-anchor="middle" x="315" y="-269" font-family="Helvetica,sans-Serif" font-size="10.00">unique_ptr&lt; std::thread &gt;</text>
</g>
<!-- Node5&#45;&gt;Node2 -->
<g id="edge4" class="edge"><title>Node5&#45;&gt;Node2</title>
<path fill="none" stroke="#9a32cd" stroke-dasharray="5,2" d="M388.281,-267.4C427.642,-267.401 476.616,-271.097 518,-285.5 546.959,-295.579 575.288,-317.503 592.325,-332.387"/>
<polygon fill="#9a32cd" stroke="#9a32cd" points="388.204,-263.9 378.231,-267.479 388.259,-270.9 388.204,-263.9"/>
<text text-anchor="middle" x="462" y="-310.5" font-family="Helvetica,sans-Serif" font-size="10.00"> data_receiver</text>
<text text-anchor="middle" x="462" y="-299.5" font-family="Helvetica,sans-Serif" font-size="10.00">data_sender</text>
<text text-anchor="middle" x="462" y="-288.5" font-family="Helvetica,sans-Serif" font-size="10.00">action_thread</text>
</g>
<!-- Node6 -->
<g id="node6" class="node"><title>Node6</title>
<polygon fill="white" stroke="#bfbfbf" points="274,-451 274,-470 356,-470 356,-451 274,-451"/>
<text text-anchor="middle" x="315" y="-458" font-family="Helvetica,sans-Serif" font-size="10.00">atomic&lt; bool &gt;</text>
</g>
<!-- Node6&#45;&gt;Node2 -->
<g id="edge5" class="edge"><title>Node6&#45;&gt;Node2</title>
<path fill="none" stroke="#9a32cd" stroke-dasharray="5,2" d="M366.446,-461.48C408.833,-460.425 470.002,-454.413 518,-431.5 551.855,-415.339 581.714,-382.02 597.221,-362.553"/>
<polygon fill="#9a32cd" stroke="#9a32cd" points="366.304,-457.981 356.363,-461.646 366.419,-464.98 366.304,-457.981"/>
<text text-anchor="middle" x="462" y="-494.5" font-family="Helvetica,sans-Serif" font-size="10.00"> run_receiver</text>
<text text-anchor="middle" x="462" y="-483.5" font-family="Helvetica,sans-Serif" font-size="10.00">run_action</text>
<text text-anchor="middle" x="462" y="-472.5" font-family="Helvetica,sans-Serif" font-size="10.00">run_stage</text>
<text text-anchor="middle" x="462" y="-461.5" font-family="Helvetica,sans-Serif" font-size="10.00">run_sender</text>
</g>
<!-- Node7 -->
<g id="node7" class="node"><title>Node7</title>
<g id="a_node7"><a xlink:href="../../d7/df1/classtraffic__manager_1_1PerformanceDiagnostics.html" target="_top" xlink:title="traffic_manager::Performance\lDiagnostics">
<polygon fill="white" stroke="black" points="242,-400.5 242,-430.5 388,-430.5 388,-400.5 242,-400.5"/>
<text text-anchor="start" x="250" y="-418.5" font-family="Helvetica,sans-Serif" font-size="10.00">traffic_manager::Performance</text>
<text text-anchor="middle" x="315" y="-407.5" font-family="Helvetica,sans-Serif" font-size="10.00">Diagnostics</text>
</a>
</g>
</g>
<!-- Node7&#45;&gt;Node2 -->
<g id="edge6" class="edge"><title>Node7&#45;&gt;Node2</title>
<path fill="none" stroke="#9a32cd" stroke-dasharray="5,2" d="M398.37,-417.773C435.636,-416.686 479.791,-412.401 518,-400.5 544.424,-392.269 571.374,-375.128 588.91,-362.559"/>
<polygon fill="#9a32cd" stroke="#9a32cd" points="397.974,-414.281 388.053,-417.999 398.127,-421.279 397.974,-414.281"/>
<text text-anchor="middle" x="462" y="-419.5" font-family="Helvetica,sans-Serif" font-size="10.00"> performance_diagnostics</text>
</g>
<!-- Node8 -->
<g id="node8" class="node"><title>Node8</title>
<polygon fill="white" stroke="#bfbfbf" points="34,-406 34,-425 75,-425 75,-406 34,-406"/>
<text text-anchor="middle" x="54.5" y="-413" font-family="Helvetica,sans-Serif" font-size="10.00">string</text>
</g>
<!-- Node8&#45;&gt;Node7 -->
<g id="edge7" class="edge"><title>Node8&#45;&gt;Node7</title>
<path fill="none" stroke="#9a32cd" stroke-dasharray="5,2" d="M85.754,-415.5C123.832,-415.5 190.479,-415.5 241.958,-415.5"/>
<polygon fill="#9a32cd" stroke="#9a32cd" points="85.3549,-412 75.3548,-415.5 85.3548,-419 85.3549,-412"/>
<text text-anchor="middle" x="175.5" y="-418.5" font-family="Helvetica,sans-Serif" font-size="10.00"> stage_name</text>
</g>
<!-- Node9 -->
<g id="node9" class="node"><title>Node9</title>
<polygon fill="white" stroke="#bfbfbf" points="10.5,-368 10.5,-387 98.5,-387 98.5,-368 10.5,-368"/>
<text text-anchor="middle" x="54.5" y="-375" font-family="Helvetica,sans-Serif" font-size="10.00">duration&lt; float &gt;</text>
</g>
<!-- Node9&#45;&gt;Node7 -->
<g id="edge8" class="edge"><title>Node9&#45;&gt;Node7</title>
<path fill="none" stroke="#9a32cd" stroke-dasharray="5,2" d="M108.787,-384.365C141.965,-388.741 185.508,-394.667 224,-400.5 229.795,-401.378 235.795,-402.316 241.819,-403.278"/>
<polygon fill="#9a32cd" stroke="#9a32cd" points="109.21,-380.891 98.8396,-383.058 108.299,-387.831 109.21,-380.891"/>
<text text-anchor="middle" x="175.5" y="-403.5" font-family="Helvetica,sans-Serif" font-size="10.00"> inter_update_duration</text>
</g>
<!-- Node10 -->
<g id="node10" class="node"><title>Node10</title>
<polygon fill="white" stroke="#bfbfbf" points="38.5,-277 38.5,-296 70.5,-296 70.5,-277 38.5,-277"/>
<text text-anchor="middle" x="54.5" y="-284" font-family="Helvetica,sans-Serif" font-size="10.00">uint</text>
</g>
<!-- Node10&#45;&gt;Node1 -->
<g id="edge15" class="edge"><title>Node10&#45;&gt;Node1</title>
<path fill="none" stroke="#9a32cd" stroke-dasharray="5,2" d="M80.9453,-281.073C116.736,-273.62 184.057,-260.26 242,-252.5 436.985,-226.385 487.681,-237.99 683,-214.5 726.311,-209.291 738.248,-212.14 780,-199.5 802.049,-192.825 825.615,-181.749 843.17,-172.647"/>
<polygon fill="#9a32cd" stroke="#9a32cd" points="79.9627,-277.703 70.8956,-283.184 81.4014,-284.554 79.9627,-277.703"/>
<text text-anchor="middle" x="462" y="-239.5" font-family="Helvetica,sans-Serif" font-size="10.00"> number_of_vehicles</text>
</g>
<!-- Node10&#45;&gt;Node7 -->
<g id="edge9" class="edge"><title>Node10&#45;&gt;Node7</title>
<path fill="none" stroke="#9a32cd" stroke-dasharray="5,2" d="M80.3265,-296.509C114.33,-310.796 176.573,-339.043 224,-372.5 232.992,-378.843 232.629,-383.733 242,-389.5 248.791,-393.679 256.354,-397.328 263.954,-400.465"/>
<polygon fill="#9a32cd" stroke="#9a32cd" points="81.3061,-293.127 70.7279,-292.533 78.6272,-299.594 81.3061,-293.127"/>
<text text-anchor="middle" x="175.5" y="-375.5" font-family="Helvetica,sans-Serif" font-size="10.00"> throughput_counter</text>
</g>
<!-- Node11 -->
<g id="node11" class="node"><title>Node11</title>
<polygon fill="white" stroke="#bfbfbf" points="0,-444 0,-485 109,-485 109,-444 0,-444"/>
<text text-anchor="start" x="8" y="-473" font-family="Helvetica,sans-Serif" font-size="10.00">time_point&lt; chr::_V2</text>
<text text-anchor="start" x="8" y="-462" font-family="Helvetica,sans-Serif" font-size="10.00">::system_clock, chr::</text>
<text text-anchor="middle" x="54.5" y="-451" font-family="Helvetica,sans-Serif" font-size="10.00">nanoseconds &gt;</text>
</g>
<!-- Node11&#45;&gt;Node7 -->
<g id="edge10" class="edge"><title>Node11&#45;&gt;Node7</title>
<path fill="none" stroke="#9a32cd" stroke-dasharray="5,2" d="M119.265,-452.413C156.416,-445.371 203.378,-436.469 241.875,-429.172"/>
<polygon fill="#9a32cd" stroke="#9a32cd" points="118.235,-449.046 109.061,-454.347 119.538,-455.923 118.235,-449.046"/>
<text text-anchor="middle" x="175.5" y="-463.5" font-family="Helvetica,sans-Serif" font-size="10.00"> throughput_clock</text>
<text text-anchor="middle" x="175.5" y="-452.5" font-family="Helvetica,sans-Serif" font-size="10.00">inter_update_clock</text>
</g>
<!-- Node12 -->
<g id="node12" class="node"><title>Node12</title>
<polygon fill="white" stroke="#bfbfbf" points="595,-186 595,-205 624,-205 624,-186 595,-186"/>
<text text-anchor="middle" x="609.5" y="-193" font-family="Helvetica,sans-Serif" font-size="10.00">int</text>
</g>
<!-- Node12&#45;&gt;Node1 -->
<g id="edge11" class="edge"><title>Node12&#45;&gt;Node1</title>
<path fill="none" stroke="#9a32cd" stroke-dasharray="5,2" d="M634.117,-192.518C666.898,-188.328 728.026,-180.332 780,-172.5 785.827,-171.622 791.86,-170.684 797.918,-169.723"/>
<polygon fill="#9a32cd" stroke="#9a32cd" points="633.62,-189.053 624.141,-193.787 634.503,-195.997 633.62,-189.053"/>
<text text-anchor="middle" x="740.5" y="-187.5" font-family="Helvetica,sans-Serif" font-size="10.00"> messenger_state</text>
</g>
<!-- Node13 -->
<g id="node13" class="node"><title>Node13</title>
<g id="a_node13"><a xlink:href="../../d6/d8c/classcarla_1_1client_1_1Client.html" target="_top" xlink:title="carla::client::Client">
<polygon fill="white" stroke="black" points="560.5,-148 560.5,-167 658.5,-167 658.5,-148 560.5,-148"/>
<text text-anchor="middle" x="609.5" y="-155" font-family="Helvetica,sans-Serif" font-size="10.00">carla::client::Client</text>
</a>
</g>
</g>
<!-- Node13&#45;&gt;Node1 -->
<g id="edge12" class="edge"><title>Node13&#45;&gt;Node1</title>
<path fill="none" stroke="#9a32cd" stroke-dasharray="5,2" d="M669.215,-157.5C707.335,-157.5 757.292,-157.5 797.9,-157.5"/>
<polygon fill="#9a32cd" stroke="#9a32cd" points="668.795,-154 658.795,-157.5 668.795,-161 668.795,-154"/>
<text text-anchor="middle" x="740.5" y="-160.5" font-family="Helvetica,sans-Serif" font-size="10.00"> carla_client</text>
</g>
<!-- Node14 -->
<g id="node14" class="node"><title>Node14</title>
<polygon fill="white" stroke="#bfbfbf" points="267.5,-142.5 267.5,-172.5 362.5,-172.5 362.5,-142.5 267.5,-142.5"/>
<text text-anchor="start" x="275.5" y="-160.5" font-family="Helvetica,sans-Serif" font-size="10.00">shared_ptr&lt; detail</text>
<text text-anchor="middle" x="315" y="-149.5" font-family="Helvetica,sans-Serif" font-size="10.00">::Simulator &gt;</text>
</g>
<!-- Node14&#45;&gt;Node13 -->
<g id="edge13" class="edge"><title>Node14&#45;&gt;Node13</title>
<path fill="none" stroke="#9a32cd" stroke-dasharray="5,2" d="M372.85,-157.5C427.304,-157.5 508.586,-157.5 560.048,-157.5"/>
<polygon fill="#9a32cd" stroke="#9a32cd" points="372.671,-154 362.671,-157.5 372.671,-161 372.671,-154"/>
<text text-anchor="middle" x="462" y="-160.5" font-family="Helvetica,sans-Serif" font-size="10.00"> _simulator</text>
</g>
<!-- Node15 -->
<g id="node15" class="node"><title>Node15</title>
<polygon fill="white" stroke="#bfbfbf" points="548.5,-98.5 548.5,-128.5 670.5,-128.5 670.5,-98.5 548.5,-98.5"/>
<text text-anchor="start" x="556.5" y="-116.5" font-family="Helvetica,sans-Serif" font-size="10.00">shared_ptr&lt; traffic</text>
<text text-anchor="middle" x="609.5" y="-105.5" font-family="Helvetica,sans-Serif" font-size="10.00">_manager::Messenger &gt;</text>
</g>
<!-- Node15&#45;&gt;Node1 -->
<g id="edge14" class="edge"><title>Node15&#45;&gt;Node1</title>
<path fill="none" stroke="#9a32cd" stroke-dasharray="5,2" d="M680.783,-125.394C716.956,-131.516 761.009,-138.971 797.557,-145.156"/>
<polygon fill="#9a32cd" stroke="#9a32cd" points="681.247,-121.923 670.803,-123.705 680.079,-128.825 681.247,-121.923"/>
<text text-anchor="middle" x="740.5" y="-145.5" font-family="Helvetica,sans-Serif" font-size="10.00"> messenger</text>
</g>
<!-- Node16 -->
<g id="node16" class="node"><title>Node16</title>
<polygon fill="white" stroke="#bfbfbf" points="536,-49.5 536,-79.5 683,-79.5 683,-49.5 536,-49.5"/>
<text text-anchor="start" x="544" y="-67.5" font-family="Helvetica,sans-Serif" font-size="10.00">shared_ptr&lt; PlannerToControl</text>
<text text-anchor="middle" x="609.5" y="-56.5" font-family="Helvetica,sans-Serif" font-size="10.00">Frame &gt;</text>
</g>
<!-- Node16&#45;&gt;Node1 -->
<g id="edge16" class="edge"><title>Node16&#45;&gt;Node1</title>
<path fill="none" stroke="#9a32cd" stroke-dasharray="5,2" d="M679.565,-82.2281C710.638,-90.8769 747.547,-102.091 780,-114.5 801.122,-122.576 824.13,-133.539 841.661,-142.373"/>
<polygon fill="#9a32cd" stroke="#9a32cd" points="680.265,-78.7906 669.695,-79.5119 678.408,-85.5398 680.265,-78.7906"/>
<text text-anchor="middle" x="740.5" y="-117.5" font-family="Helvetica,sans-Serif" font-size="10.00"> data_frame</text>
</g>
<!-- Node17 -->
<g id="node17" class="node"><title>Node17</title>
<polygon fill="white" stroke="#bfbfbf" points="550.5,-0.5 550.5,-30.5 668.5,-30.5 668.5,-0.5 550.5,-0.5"/>
<text text-anchor="start" x="558.5" y="-18.5" font-family="Helvetica,sans-Serif" font-size="10.00">shared_ptr&lt; std::vector</text>
<text text-anchor="middle" x="609.5" y="-7.5" font-family="Helvetica,sans-Serif" font-size="10.00">&lt; cr::Command &gt; &gt;</text>
</g>
<!-- Node17&#45;&gt;Node1 -->
<g id="edge17" class="edge"><title>Node17&#45;&gt;Node1</title>
<path fill="none" stroke="#9a32cd" stroke-dasharray="5,2" d="M678.641,-32.1219C710.787,-41.7007 748.836,-55.6394 780,-74.5 811.188,-93.3756 841.091,-124.068 857.509,-142.368"/>
<polygon fill="#9a32cd" stroke="#9a32cd" points="679.447,-28.7115 668.868,-29.2885 677.497,-35.4347 679.447,-28.7115"/>
<text text-anchor="middle" x="740.5" y="-77.5" font-family="Helvetica,sans-Serif" font-size="10.00"> commands</text>
</g>
</g>
</svg>
