<?xml version="1.0" encoding="UTF-8" standalone="no"?>
<!DOCTYPE svg PUBLIC "-//W3C//DTD SVG 1.1//EN"
 "http://www.w3.org/Graphics/SVG/1.1/DTD/svg11.dtd">
<!-- Generated by graphviz version 2.43.0 (0)
 -->
<!-- Title: carla::geom::SegmentCloudRtree::GetNearestNeighbours Pages: 1 -->
<svg width="370pt" height="100pt"
 viewBox="0.00 0.00 370.00 99.50" xmlns="http://www.w3.org/2000/svg" xmlns:xlink="http://www.w3.org/1999/xlink">
<g id="graph0" class="graph" transform="scale(1 1) rotate(0) translate(4 95.5)">
<title>carla::geom::SegmentCloudRtree::GetNearestNeighbours</title>
<polygon fill="white" stroke="transparent" points="-4,4 -4,-95.5 366,-95.5 366,4 -4,4"/>
<!-- Node1 -->
<g id="node1" class="node">
<title>Node1</title>
<g id="a_node1"><a xlink:title=" ">
<polygon fill="#bfbfbf" stroke="black" points="202,-33 202,-63 362,-63 362,-33 202,-33"/>
<text text-anchor="start" x="210" y="-51" font-family="Helvetica,sans-Serif" font-size="10.00">carla::geom::SegmentCloud</text>
<text text-anchor="middle" x="282" y="-40" font-family="Helvetica,sans-Serif" font-size="10.00">Rtree::GetNearestNeighbours</text>
</a>
</g>
</g>
<!-- Node2 -->
<g id="node2" class="node">
<title>Node2</title>
<g id="a_node2"><a xlink:href="../../da/dee/classcarla_1_1road_1_1element_1_1GeometryPoly3.html#a7e10bafa9670df87f6c5daee6ae09cde" target="_top" xlink:title=" ">
<polygon fill="white" stroke="black" points="0,-61 0,-91 166,-91 166,-61 0,-61"/>
<text text-anchor="start" x="8" y="-79" font-family="Helvetica,sans-Serif" font-size="10.00">carla::road::element</text>
<text text-anchor="middle" x="83" y="-68" font-family="Helvetica,sans-Serif" font-size="10.00">::GeometryPoly3::PosFromDist</text>
</a>
</g>
</g>
<!-- Node1&#45;&gt;Node2 -->
<g id="edge1" class="edge">
<title>Node1&#45;&gt;Node2</title>
<path fill="none" stroke="midnightblue" d="M191.73,-60.69C183.16,-61.91 174.5,-63.14 166.01,-64.34"/>
<polygon fill="midnightblue" stroke="midnightblue" points="192.32,-64.14 201.72,-59.27 191.33,-57.21 192.32,-64.14"/>
</g>
<!-- Node3 -->
<g id="node3" class="node">
<title>Node3</title>
<g id="a_node3"><a xlink:href="../../da/dfa/classcarla_1_1road_1_1element_1_1GeometryParamPoly3.html#a557c2836f4ffc83c9eb3e1a5f3cc2e40" target="_top" xlink:title=" ">
<polygon fill="white" stroke="black" points="18.5,-0.5 18.5,-41.5 147.5,-41.5 147.5,-0.5 18.5,-0.5"/>
<text text-anchor="start" x="26.5" y="-29.5" font-family="Helvetica,sans-Serif" font-size="10.00">carla::road::element</text>
<text text-anchor="start" x="26.5" y="-18.5" font-family="Helvetica,sans-Serif" font-size="10.00">::GeometryParamPoly3</text>
<text text-anchor="middle" x="83" y="-7.5" font-family="Helvetica,sans-Serif" font-size="10.00">::PosFromDist</text>
</a>
</g>
</g>
<!-- Node1&#45;&gt;Node3 -->
<g id="edge2" class="edge">
<title>Node1&#45;&gt;Node3</title>
<path fill="none" stroke="midnightblue" d="M191.54,-35.74C176.75,-33.71 161.68,-31.65 147.69,-29.73"/>
<polygon fill="midnightblue" stroke="midnightblue" points="191.34,-39.24 201.72,-37.13 192.29,-32.31 191.34,-39.24"/>
</g>
</g>
</svg>
