<?xml version="1.0" encoding="UTF-8" standalone="no"?>
<!DOCTYPE svg PUBLIC "-//W3C//DTD SVG 1.1//EN"
 "http://www.w3.org/Graphics/SVG/1.1/DTD/svg11.dtd">
<!-- Generated by graphviz version 2.43.0 (0)
 -->
<!-- Title: moodycamel::ConcurrentQueue&lt; T, Traits &gt;::ImplicitProducer::BlockIndexHeader Pages: 1 -->
<svg width="658pt" height="126pt"
 viewBox="0.00 0.00 658.00 126.00" xmlns="http://www.w3.org/2000/svg" xmlns:xlink="http://www.w3.org/1999/xlink">
<g id="graph0" class="graph" transform="scale(1 1) rotate(0) translate(4 122)">
<title>moodycamel::ConcurrentQueue&lt; T, Traits &gt;::ImplicitProducer::BlockIndexHeader</title>
<polygon fill="white" stroke="transparent" points="-4,4 -4,-122 654,-122 654,4 -4,4"/>
<!-- Node1 -->
<g id="node1" class="node">
<title>Node1</title>
<g id="a_node1"><a xlink:title=" ">
<polygon fill="#bfbfbf" stroke="black" points="479,-38.5 479,-79.5 650,-79.5 650,-38.5 479,-38.5"/>
<text text-anchor="start" x="487" y="-67.5" font-family="Helvetica,sans-Serif" font-size="10.00">moodycamel::ConcurrentQueue</text>
<text text-anchor="start" x="487" y="-56.5" font-family="Helvetica,sans-Serif" font-size="10.00">&lt; T, Traits &gt;::ImplicitProducer</text>
<text text-anchor="middle" x="564.5" y="-45.5" font-family="Helvetica,sans-Serif" font-size="10.00">::BlockIndexHeader</text>
</a>
</g>
</g>
<!-- Node1&#45;&gt;Node1 -->
<g id="edge6" class="edge">
<title>Node1&#45;&gt;Node1</title>
<path fill="none" stroke="#9a32cd" stroke-dasharray="5,2" d="M542.82,-89.86C546.05,-94.7 553.27,-98 564.5,-98 582.46,-98 590.18,-89.54 587.66,-79.86"/>
<polygon fill="#9a32cd" stroke="#9a32cd" points="546.27,-89.24 541.34,-79.86 539.35,-90.27 546.27,-89.24"/>
<text text-anchor="middle" x="564.5" y="-101" font-family="Helvetica,sans-Serif" font-size="10.00"> prev</text>
</g>
<!-- Node2 -->
<g id="node2" class="node">
<title>Node2</title>
<g id="a_node2"><a xlink:title=" ">
<polygon fill="white" stroke="#bfbfbf" points="262,-98.5 262,-117.5 363,-117.5 363,-98.5 262,-98.5"/>
<text text-anchor="middle" x="312.5" y="-105.5" font-family="Helvetica,sans-Serif" font-size="10.00">atomic&lt; size_t &gt;</text>
</a>
</g>
</g>
<!-- Node2&#45;&gt;Node1 -->
<g id="edge1" class="edge">
<title>Node2&#45;&gt;Node1</title>
<path fill="none" stroke="#9a32cd" stroke-dasharray="5,2" d="M373.25,-99.98C400.17,-96.04 432.29,-90.87 461,-85 469.09,-83.35 477.51,-81.47 485.88,-79.5"/>
<polygon fill="#9a32cd" stroke="#9a32cd" points="372.61,-96.54 363.21,-101.43 373.61,-103.47 372.61,-96.54"/>
<text text-anchor="middle" x="438.5" y="-96" font-family="Helvetica,sans-Serif" font-size="10.00"> tail</text>
</g>
<!-- Node3 -->
<g id="node3" class="node">
<title>Node3</title>
<g id="a_node3"><a xlink:href="../../d4/d50/structmoodycamel_1_1ConcurrentQueue_1_1ImplicitProducer_1_1BlockIndexEntry.html" target="_top" xlink:title=" ">
<polygon fill="white" stroke="black" points="227,-38.5 227,-79.5 398,-79.5 398,-38.5 227,-38.5"/>
<text text-anchor="start" x="235" y="-67.5" font-family="Helvetica,sans-Serif" font-size="10.00">moodycamel::ConcurrentQueue</text>
<text text-anchor="start" x="235" y="-56.5" font-family="Helvetica,sans-Serif" font-size="10.00">&lt; T, Traits &gt;::ImplicitProducer</text>
<text text-anchor="middle" x="312.5" y="-45.5" font-family="Helvetica,sans-Serif" font-size="10.00">::BlockIndexEntry</text>
</a>
</g>
</g>
<!-- Node3&#45;&gt;Node1 -->
<g id="edge2" class="edge">
<title>Node3&#45;&gt;Node1</title>
<path fill="none" stroke="#9a32cd" stroke-dasharray="5,2" d="M408.34,-59C431.56,-59 456.25,-59 478.95,-59"/>
<polygon fill="#9a32cd" stroke="#9a32cd" points="408.14,-55.5 398.14,-59 408.14,-62.5 408.14,-55.5"/>
<text text-anchor="middle" x="438.5" y="-73" font-family="Helvetica,sans-Serif" font-size="10.00"> entries</text>
<text text-anchor="middle" x="438.5" y="-62" font-family="Helvetica,sans-Serif" font-size="10.00">index</text>
</g>
<!-- Node4 -->
<g id="node4" class="node">
<title>Node4</title>
<g id="a_node4"><a xlink:title=" ">
<polygon fill="white" stroke="#bfbfbf" points="0,-66 0,-96 160,-96 160,-66 0,-66"/>
<text text-anchor="start" x="8" y="-84" font-family="Helvetica,sans-Serif" font-size="10.00">atomic&lt; moodycamel</text>
<text text-anchor="middle" x="80" y="-73" font-family="Helvetica,sans-Serif" font-size="10.00">::ConcurrentQueue::Block * &gt;</text>
</a>
</g>
</g>
<!-- Node4&#45;&gt;Node3 -->
<g id="edge3" class="edge">
<title>Node4&#45;&gt;Node3</title>
<path fill="none" stroke="#9a32cd" stroke-dasharray="5,2" d="M170.21,-72.49C188.77,-70.71 208.29,-68.85 226.69,-67.09"/>
<polygon fill="#9a32cd" stroke="#9a32cd" points="169.62,-69.03 160,-73.46 170.29,-75.99 169.62,-69.03"/>
<text text-anchor="middle" x="193.5" y="-74" font-family="Helvetica,sans-Serif" font-size="10.00"> value</text>
</g>
<!-- Node5 -->
<g id="node5" class="node">
<title>Node5</title>
<g id="a_node5"><a xlink:title=" ">
<polygon fill="white" stroke="#bfbfbf" points="25.5,-27.5 25.5,-46.5 134.5,-46.5 134.5,-27.5 25.5,-27.5"/>
<text text-anchor="middle" x="80" y="-34.5" font-family="Helvetica,sans-Serif" font-size="10.00">atomic&lt; index_t &gt;</text>
</a>
</g>
</g>
<!-- Node5&#45;&gt;Node3 -->
<g id="edge4" class="edge">
<title>Node5&#45;&gt;Node3</title>
<path fill="none" stroke="#9a32cd" stroke-dasharray="5,2" d="M144.98,-43.11C170.33,-45.53 199.85,-48.34 226.93,-50.93"/>
<polygon fill="#9a32cd" stroke="#9a32cd" points="145.04,-39.6 134.75,-42.13 144.37,-46.56 145.04,-39.6"/>
<text text-anchor="middle" x="193.5" y="-51" font-family="Helvetica,sans-Serif" font-size="10.00"> key</text>
</g>
<!-- Node6 -->
<g id="node6" class="node">
<title>Node6</title>
<g id="a_node6"><a xlink:title=" ">
<polygon fill="white" stroke="#bfbfbf" points="290,-0.5 290,-19.5 335,-19.5 335,-0.5 290,-0.5"/>
<text text-anchor="middle" x="312.5" y="-7.5" font-family="Helvetica,sans-Serif" font-size="10.00">size_t</text>
</a>
</g>
</g>
<!-- Node6&#45;&gt;Node1 -->
<g id="edge5" class="edge">
<title>Node6&#45;&gt;Node1</title>
<path fill="none" stroke="#9a32cd" stroke-dasharray="5,2" d="M345.35,-16.24C378.82,-22.8 432.87,-33.4 478.8,-42.4"/>
<polygon fill="#9a32cd" stroke="#9a32cd" points="345.74,-12.75 335.25,-14.26 344.39,-19.62 345.74,-12.75"/>
<text text-anchor="middle" x="438.5" y="-41" font-family="Helvetica,sans-Serif" font-size="10.00"> capacity</text>
</g>
</g>
</svg>
