<?xml version="1.0" encoding="UTF-8" standalone="no"?>
<!DOCTYPE svg PUBLIC "-//W3C//DTD SVG 1.1//EN"
 "http://www.w3.org/Graphics/SVG/1.1/DTD/svg11.dtd">
<!-- Generated by graphviz version 2.40.1 (20161225.0304)
 -->
<!-- Title: carla::traffic_manager::Parameters::RemoveUploadPath Pages: 1 -->
<svg width="1076pt" height="135pt"
 viewBox="0.00 0.00 1076.00 135.00" xmlns="http://www.w3.org/2000/svg" xmlns:xlink="http://www.w3.org/1999/xlink">
<g id="graph0" class="graph" transform="scale(1 1) rotate(0) translate(4 131)">
<title>carla::traffic_manager::Parameters::RemoveUploadPath</title>
<polygon fill="#ffffff" stroke="transparent" points="-4,4 -4,-131 1072,-131 1072,4 -4,4"/>
<!-- Node242 -->
<g id="node1" class="node">
<title>Node242</title>
<polygon fill="#bfbfbf" stroke="#000000" points="0,-33 0,-63 179,-63 179,-33 0,-33"/>
<text text-anchor="start" x="8" y="-51" font-family="Helvetica,sans-Serif" font-size="10.00" fill="#000000">carla::traffic_manager</text>
<text text-anchor="middle" x="89.5" y="-40" font-family="Helvetica,sans-Serif" font-size="10.00" fill="#000000">::Parameters::RemoveUploadPath</text>
</g>
<!-- Node243 -->
<g id="node2" class="node">
<title>Node243</title>
<g id="a_node2"><a xlink:href="../../d6/da2/classcarla_1_1traffic__manager_1_1LocalizationStage.html#a4cce09a8116d4faf0f718fb24d1c3191" target="_top" xlink:title="carla::traffic_manager\l::LocalizationStage::ImportPath">
<polygon fill="#ffffff" stroke="#000000" points="215,-61 215,-91 383,-91 383,-61 215,-61"/>
<text text-anchor="start" x="223" y="-79" font-family="Helvetica,sans-Serif" font-size="10.00" fill="#000000">carla::traffic_manager</text>
<text text-anchor="middle" x="299" y="-68" font-family="Helvetica,sans-Serif" font-size="10.00" fill="#000000">::LocalizationStage::ImportPath</text>
</a>
</g>
</g>
<!-- Node242&#45;&gt;Node243 -->
<g id="edge1" class="edge">
<title>Node242&#45;&gt;Node243</title>
<path fill="none" stroke="#191970" d="M189.2389,-61.3303C197.7697,-62.4704 206.3449,-63.6165 214.7375,-64.7382"/>
<polygon fill="#191970" stroke="#191970" points="189.6341,-57.852 179.2586,-59.9964 188.7067,-64.7903 189.6341,-57.852"/>
</g>
<!-- Node249 -->
<g id="node8" class="node">
<title>Node249</title>
<g id="a_node8"><a xlink:href="../../da/d0f/classcarla_1_1traffic__manager_1_1TrafficManagerLocal.html#ac4922d54300647c941f589d8fead0600" target="_top" xlink:title="Method to remove a list of points. ">
<polygon fill="#ffffff" stroke="#000000" points="237,-.5 237,-41.5 361,-41.5 361,-.5 237,-.5"/>
<text text-anchor="start" x="245" y="-29.5" font-family="Helvetica,sans-Serif" font-size="10.00" fill="#000000">carla::traffic_manager</text>
<text text-anchor="start" x="245" y="-18.5" font-family="Helvetica,sans-Serif" font-size="10.00" fill="#000000">::TrafficManagerLocal</text>
<text text-anchor="middle" x="299" y="-7.5" font-family="Helvetica,sans-Serif" font-size="10.00" fill="#000000">::RemoveUploadPath</text>
</a>
</g>
</g>
<!-- Node242&#45;&gt;Node249 -->
<g id="edge7" class="edge">
<title>Node242&#45;&gt;Node249</title>
<path fill="none" stroke="#191970" d="M189.3282,-35.1343C205.5558,-33.0429 221.9412,-30.9312 236.9221,-29.0005"/>
<polygon fill="#191970" stroke="#191970" points="188.7291,-31.6825 179.2586,-36.4321 189.6239,-38.6251 188.7291,-31.6825"/>
</g>
<!-- Node244 -->
<g id="node3" class="node">
<title>Node244</title>
<g id="a_node3"><a xlink:href="../../d6/da2/classcarla_1_1traffic__manager_1_1LocalizationStage.html#acf066b922ba5c21c6b6ee23d35731d91" target="_top" xlink:title="carla::traffic_manager\l::LocalizationStage::Update">
<polygon fill="#ffffff" stroke="#000000" points="419,-61 419,-91 569,-91 569,-61 419,-61"/>
<text text-anchor="start" x="427" y="-79" font-family="Helvetica,sans-Serif" font-size="10.00" fill="#000000">carla::traffic_manager</text>
<text text-anchor="middle" x="494" y="-68" font-family="Helvetica,sans-Serif" font-size="10.00" fill="#000000">::LocalizationStage::Update</text>
</a>
</g>
</g>
<!-- Node243&#45;&gt;Node244 -->
<g id="edge2" class="edge">
<title>Node243&#45;&gt;Node244</title>
<path fill="none" stroke="#191970" d="M393.1622,-76C401.7503,-76 410.3729,-76 418.7632,-76"/>
<polygon fill="#191970" stroke="#191970" points="393.1125,-72.5001 383.1124,-76 393.1124,-79.5001 393.1125,-72.5001"/>
</g>
<!-- Node245 -->
<g id="node4" class="node">
<title>Node245</title>
<g id="a_node4"><a xlink:href="../../da/d0f/classcarla_1_1traffic__manager_1_1TrafficManagerLocal.html#a6d67cce3d0e5a48056645270364fe637" target="_top" xlink:title="Initiates thread to run the TrafficManager sequentially. ">
<polygon fill="#ffffff" stroke="#000000" points="605,-61 605,-91 748,-91 748,-61 605,-61"/>
<text text-anchor="start" x="613" y="-79" font-family="Helvetica,sans-Serif" font-size="10.00" fill="#000000">carla::traffic_manager</text>
<text text-anchor="middle" x="676.5" y="-68" font-family="Helvetica,sans-Serif" font-size="10.00" fill="#000000">::TrafficManagerLocal::Run</text>
</a>
</g>
</g>
<!-- Node244&#45;&gt;Node245 -->
<g id="edge3" class="edge">
<title>Node244&#45;&gt;Node245</title>
<path fill="none" stroke="#191970" d="M579.0444,-76C587.6282,-76 596.2856,-76 604.7109,-76"/>
<polygon fill="#191970" stroke="#191970" points="579.0198,-72.5001 569.0198,-76 579.0198,-79.5001 579.0198,-72.5001"/>
</g>
<!-- Node246 -->
<g id="node5" class="node">
<title>Node246</title>
<g id="a_node5"><a xlink:href="../../da/d0f/classcarla_1_1traffic__manager_1_1TrafficManagerLocal.html#a1ffbdb0bed64f385437d2820a90286d0" target="_top" xlink:title="To start the TrafficManager. ">
<polygon fill="#ffffff" stroke="#000000" points="784,-55.5 784,-96.5 908,-96.5 908,-55.5 784,-55.5"/>
<text text-anchor="start" x="792" y="-84.5" font-family="Helvetica,sans-Serif" font-size="10.00" fill="#000000">carla::traffic_manager</text>
<text text-anchor="start" x="792" y="-73.5" font-family="Helvetica,sans-Serif" font-size="10.00" fill="#000000">::TrafficManagerLocal</text>
<text text-anchor="middle" x="846" y="-62.5" font-family="Helvetica,sans-Serif" font-size="10.00" fill="#000000">::Start</text>
</a>
</g>
</g>
<!-- Node245&#45;&gt;Node246 -->
<g id="edge4" class="edge">
<title>Node245&#45;&gt;Node246</title>
<path fill="none" stroke="#191970" d="M758.4164,-76C766.9963,-76 775.615,-76 783.9201,-76"/>
<polygon fill="#191970" stroke="#191970" points="758.3833,-72.5001 748.3833,-76 758.3832,-79.5001 758.3833,-72.5001"/>
</g>
<!-- Node247 -->
<g id="node6" class="node">
<title>Node247</title>
<g id="a_node6"><a xlink:href="../../da/d0f/classcarla_1_1traffic__manager_1_1TrafficManagerLocal.html#a75976d36f4213ab24e79e3ea2dcd280a" target="_top" xlink:title="Private constructor for singleton lifecycle management. ">
<polygon fill="#ffffff" stroke="#000000" points="944,-85.5 944,-126.5 1068,-126.5 1068,-85.5 944,-85.5"/>
<text text-anchor="start" x="952" y="-114.5" font-family="Helvetica,sans-Serif" font-size="10.00" fill="#000000">carla::traffic_manager</text>
<text text-anchor="start" x="952" y="-103.5" font-family="Helvetica,sans-Serif" font-size="10.00" fill="#000000">::TrafficManagerLocal</text>
<text text-anchor="middle" x="1006" y="-92.5" font-family="Helvetica,sans-Serif" font-size="10.00" fill="#000000">::TrafficManagerLocal</text>
</a>
</g>
</g>
<!-- Node246&#45;&gt;Node247 -->
<g id="edge5" class="edge">
<title>Node246&#45;&gt;Node247</title>
<path fill="none" stroke="#191970" d="M918.2667,-89.55C926.8078,-91.1515 935.4676,-92.7752 943.8518,-94.3472"/>
<polygon fill="#191970" stroke="#191970" points="918.7921,-86.0876 908.3183,-87.6847 917.502,-92.9677 918.7921,-86.0876"/>
</g>
<!-- Node248 -->
<g id="node7" class="node">
<title>Node248</title>
<g id="a_node7"><a xlink:href="../../da/d0f/classcarla_1_1traffic__manager_1_1TrafficManagerLocal.html#a1639db97ccf27a801b92fadabd611755" target="_top" xlink:title="To reset the traffic manager. ">
<polygon fill="#ffffff" stroke="#000000" points="944,-25.5 944,-66.5 1068,-66.5 1068,-25.5 944,-25.5"/>
<text text-anchor="start" x="952" y="-54.5" font-family="Helvetica,sans-Serif" font-size="10.00" fill="#000000">carla::traffic_manager</text>
<text text-anchor="start" x="952" y="-43.5" font-family="Helvetica,sans-Serif" font-size="10.00" fill="#000000">::TrafficManagerLocal</text>
<text text-anchor="middle" x="1006" y="-32.5" font-family="Helvetica,sans-Serif" font-size="10.00" fill="#000000">::Reset</text>
</a>
</g>
</g>
<!-- Node246&#45;&gt;Node248 -->
<g id="edge6" class="edge">
<title>Node246&#45;&gt;Node248</title>
<path fill="none" stroke="#191970" d="M918.2667,-62.45C926.8078,-60.8485 935.4676,-59.2248 943.8518,-57.6528"/>
<polygon fill="#191970" stroke="#191970" points="917.502,-59.0323 908.3183,-64.3153 918.7921,-65.9124 917.502,-59.0323"/>
</g>
</g>
</svg>
