<?xml version="1.0" encoding="UTF-8" standalone="no"?>
<!DOCTYPE svg PUBLIC "-//W3C//DTD SVG 1.1//EN"
 "http://www.w3.org/Graphics/SVG/1.1/DTD/svg11.dtd">
<!-- Generated by graphviz version 2.43.0 (0)
 -->
<!-- Title: carla::FileSystem::ValidateFilePath Pages: 1 -->
<!--zoomable 186 -->
<svg id="main" version="1.1" xmlns="http://www.w3.org/2000/svg" xmlns:xlink="http://www.w3.org/1999/xlink" xml:space="preserve" onload="init(evt)">
<style type="text/css"><![CDATA[
.edge:hover path { stroke: red; }
.edge:hover polygon { stroke: red; fill: red; }
]]></style>
<script type="text/javascript"><![CDATA[
var edges = document.getElementsByTagName('g');
if (edges && edges.length) {
  for (var i=0;i<edges.length;i++) {
    if (edges[i].id.substr(0,4)=='edge') {
      edges[i].setAttribute('class','edge');
    }
  }
}
]]></script>
        <defs>
                <circle id="rim" cx="0" cy="0" r="7"/>
                <circle id="rim2" cx="0" cy="0" r="3.5"/>
                <g id="zoomPlus">
                        <use xlink:href="#rim" fill="#404040">
                                <set attributeName="fill" to="#808080" begin="zoomplus.mouseover" end="zoomplus.mouseout"/>
                        </use>
                        <path d="M-4,0h8M0,-4v8" fill="none" stroke="white" stroke-width="1.5" pointer-events="none"/>
                </g>
                <g id="zoomMin">
                        <use xlink:href="#rim" fill="#404040">
                                <set attributeName="fill" to="#808080" begin="zoomminus.mouseover" end="zoomminus.mouseout"/>
                        </use>
                        <path d="M-4,0h8" fill="none" stroke="white" stroke-width="1.5" pointer-events="none"/>
                </g>
                <g id="dirArrow">
                        <path fill="none" stroke="white" stroke-width="1.5" d="M0,-3.0v7 M-2.5,-0.5L0,-3.0L2.5,-0.5"/>
                </g>
               <g id="resetDef">
                       <use xlink:href="#rim2" fill="#404040">
                               <set attributeName="fill" to="#808080" begin="reset.mouseover" end="reset.mouseout"/>
                       </use>
               </g>
        </defs>

<script type="text/javascript">
var viewWidth = 814;
var viewHeight = 186;
var sectionId = 'dynsection-2';
</script>
<script xlink:href="../../svgpan.js"/>
<svg id="graph" class="graph">
<g id="viewport">
<title>carla::FileSystem::ValidateFilePath</title>
<polygon fill="white" stroke="transparent" points="-4,4 -4,-182 810,-182 810,4 -4,4"/>
<!-- Node1 -->
<g id="node1" class="node">
<title>Node1</title>
<g id="a_node1"><a xlink:title="Convenient function to validate a path before creating a file.">
<polygon fill="#bfbfbf" stroke="black" points="699,-98.5 699,-128.5 806,-128.5 806,-98.5 699,-98.5"/>
<text text-anchor="start" x="707" y="-116.5" font-family="Helvetica,sans-Serif" font-size="10.00">carla::FileSystem::</text>
<text text-anchor="middle" x="752.5" y="-105.5" font-family="Helvetica,sans-Serif" font-size="10.00">ValidateFilePath</text>
</a>
</g>
</g>
<!-- Node2 -->
<g id="node2" class="node">
<title>Node2</title>
<g id="a_node2"><a xlink:href="../../d2/d02/classcarla_1_1pointcloud_1_1PointCloudIO.html#a569d8510921fd4a9e41308feb3ae6350" target="_top" xlink:title=" ">
<polygon fill="white" stroke="black" points="521,-147.5 521,-177.5 663,-177.5 663,-147.5 521,-147.5"/>
<text text-anchor="start" x="529" y="-165.5" font-family="Helvetica,sans-Serif" font-size="10.00">carla::pointcloud::</text>
<text text-anchor="middle" x="592" y="-154.5" font-family="Helvetica,sans-Serif" font-size="10.00">PointCloudIO::SaveToDisk</text>
</a>
</g>
</g>
<!-- Node1&#45;&gt;Node2 -->
<g id="edge1" class="edge">
<title>Node1&#45;&gt;Node2</title>
<path fill="none" stroke="midnightblue" d="M692.91,-131.61C676.06,-136.82 657.87,-142.45 641.69,-147.45"/>
<polygon fill="midnightblue" stroke="midnightblue" points="694.13,-134.9 702.65,-128.6 692.06,-128.21 694.13,-134.9"/>
</g>
<!-- Node3 -->
<g id="node3" class="node">
<title>Node3</title>
<g id="a_node3"><a xlink:href="../../df/d7f/structcarla_1_1image_1_1io_1_1detail_1_1io__resolver.html#aa9c485e2fb8b85800bb17d43ba8897f7" target="_top" xlink:title=" ">
<polygon fill="white" stroke="black" points="524,-98.5 524,-128.5 660,-128.5 660,-98.5 524,-98.5"/>
<text text-anchor="start" x="532" y="-116.5" font-family="Helvetica,sans-Serif" font-size="10.00">carla::image::io::detail</text>
<text text-anchor="middle" x="592" y="-105.5" font-family="Helvetica,sans-Serif" font-size="10.00">::io_resolver::write_view</text>
</a>
</g>
</g>
<!-- Node1&#45;&gt;Node3 -->
<g id="edge2" class="edge">
<title>Node1&#45;&gt;Node3</title>
<path fill="none" stroke="midnightblue" d="M688.71,-113.5C679.35,-113.5 669.66,-113.5 660.21,-113.5"/>
<polygon fill="midnightblue" stroke="midnightblue" points="688.72,-117 698.72,-113.5 688.72,-110 688.72,-117"/>
</g>
<!-- Node4 -->
<g id="node4" class="node">
<title>Node4</title>
<g id="a_node4"><a xlink:href="../../df/df4/classcarla_1_1client_1_1FileTransfer.html#ad34a81fe308747f5a47f852872370cce" target="_top" xlink:title=" ">
<polygon fill="white" stroke="black" points="524,-49.5 524,-79.5 660,-79.5 660,-49.5 524,-49.5"/>
<text text-anchor="start" x="532" y="-67.5" font-family="Helvetica,sans-Serif" font-size="10.00">carla::client::FileTransfer</text>
<text text-anchor="middle" x="592" y="-56.5" font-family="Helvetica,sans-Serif" font-size="10.00">::WriteFile</text>
</a>
</g>
</g>
<!-- Node1&#45;&gt;Node4 -->
<g id="edge3" class="edge">
<title>Node1&#45;&gt;Node4</title>
<path fill="none" stroke="midnightblue" d="M692.91,-95.39C676.06,-90.18 657.87,-84.55 641.69,-79.55"/>
<polygon fill="midnightblue" stroke="midnightblue" points="692.06,-98.79 702.65,-98.4 694.13,-92.1 692.06,-98.79"/>
</g>
<!-- Node5 -->
<g id="node5" class="node">
<title>Node5</title>
<g id="a_node5"><a xlink:href="../../dd/ddd/classcarla_1_1client_1_1detail_1_1Client.html#a2f367935aef218a16fde3469b3976dd1" target="_top" xlink:title=" ">
<polygon fill="white" stroke="black" points="371,-49.5 371,-79.5 485,-79.5 485,-49.5 371,-49.5"/>
<text text-anchor="start" x="379" y="-67.5" font-family="Helvetica,sans-Serif" font-size="10.00">carla::client::detail</text>
<text text-anchor="middle" x="428" y="-56.5" font-family="Helvetica,sans-Serif" font-size="10.00">::Client::RequestFile</text>
</a>
</g>
</g>
<!-- Node4&#45;&gt;Node5 -->
<g id="edge4" class="edge">
<title>Node4&#45;&gt;Node5</title>
<path fill="none" stroke="midnightblue" d="M513.68,-64.5C504.02,-64.5 494.28,-64.5 485.03,-64.5"/>
<polygon fill="midnightblue" stroke="midnightblue" points="513.7,-68 523.7,-64.5 513.7,-61 513.7,-68"/>
</g>
<!-- Node6 -->
<g id="node6" class="node">
<title>Node6</title>
<g id="a_node6"><a xlink:href="../../dd/ddd/classcarla_1_1client_1_1detail_1_1Client.html#a91dbebc1a251a77f9b5d72286ecc5390" target="_top" xlink:title=" ">
<polygon fill="white" stroke="black" points="204,-98.5 204,-128.5 326,-128.5 326,-98.5 204,-98.5"/>
<text text-anchor="start" x="212" y="-116.5" font-family="Helvetica,sans-Serif" font-size="10.00">carla::client::detail</text>
<text text-anchor="middle" x="265" y="-105.5" font-family="Helvetica,sans-Serif" font-size="10.00">::Client::GetCacheFile</text>
</a>
</g>
</g>
<!-- Node5&#45;&gt;Node6 -->
<g id="edge5" class="edge">
<title>Node5&#45;&gt;Node6</title>
<path fill="none" stroke="midnightblue" d="M367.49,-82.61C350.37,-87.82 331.89,-93.45 315.46,-98.45"/>
<polygon fill="midnightblue" stroke="midnightblue" points="368.83,-85.86 377.38,-79.6 366.8,-79.16 368.83,-85.86"/>
</g>
<!-- Node8 -->
<g id="node8" class="node">
<title>Node8</title>
<g id="a_node8"><a xlink:href="../../dd/ddd/classcarla_1_1client_1_1detail_1_1Client.html#a4c3ea2db0c121bc3a6a8c616f90c941a" target="_top" xlink:title=" ">
<polygon fill="white" stroke="black" points="195,-49.5 195,-79.5 335,-79.5 335,-49.5 195,-49.5"/>
<text text-anchor="start" x="203" y="-67.5" font-family="Helvetica,sans-Serif" font-size="10.00">carla::client::detail</text>
<text text-anchor="middle" x="265" y="-56.5" font-family="Helvetica,sans-Serif" font-size="10.00">::Client::GetRequiredFiles</text>
</a>
</g>
</g>
<!-- Node5&#45;&gt;Node8 -->
<g id="edge7" class="edge">
<title>Node5&#45;&gt;Node8</title>
<path fill="none" stroke="midnightblue" d="M360.55,-64.5C352.12,-64.5 343.49,-64.5 335.03,-64.5"/>
<polygon fill="midnightblue" stroke="midnightblue" points="360.69,-68 370.69,-64.5 360.69,-61 360.69,-68"/>
</g>
<!-- Node11 -->
<g id="node11" class="node">
<title>Node11</title>
<g id="a_node11"><a xlink:href="../../df/df3/classcarla_1_1client_1_1detail_1_1Simulator.html#a1ec80e6f4a5abff0fd20f1555bafd7e5" target="_top" xlink:title=" ">
<polygon fill="white" stroke="black" points="198.5,-0.5 198.5,-30.5 331.5,-30.5 331.5,-0.5 198.5,-0.5"/>
<text text-anchor="start" x="206.5" y="-18.5" font-family="Helvetica,sans-Serif" font-size="10.00">carla::client::detail</text>
<text text-anchor="middle" x="265" y="-7.5" font-family="Helvetica,sans-Serif" font-size="10.00">::Simulator::RequestFile</text>
</a>
</g>
</g>
<!-- Node5&#45;&gt;Node11 -->
<g id="edge10" class="edge">
<title>Node5&#45;&gt;Node11</title>
<path fill="none" stroke="midnightblue" d="M367.49,-46.39C350.37,-41.18 331.89,-35.55 315.46,-30.55"/>
<polygon fill="midnightblue" stroke="midnightblue" points="366.8,-49.84 377.38,-49.4 368.83,-43.14 366.8,-49.84"/>
</g>
<!-- Node7 -->
<g id="node7" class="node">
<title>Node7</title>
<g id="a_node7"><a xlink:href="../../df/df3/classcarla_1_1client_1_1detail_1_1Simulator.html#a8c4dff7c269755b397a27ec40e2c8a89" target="_top" xlink:title=" ">
<polygon fill="white" stroke="black" points="9.5,-98.5 9.5,-128.5 149.5,-128.5 149.5,-98.5 9.5,-98.5"/>
<text text-anchor="start" x="17.5" y="-116.5" font-family="Helvetica,sans-Serif" font-size="10.00">carla::client::detail</text>
<text text-anchor="middle" x="79.5" y="-105.5" font-family="Helvetica,sans-Serif" font-size="10.00">::Simulator::GetCacheFile</text>
</a>
</g>
</g>
<!-- Node6&#45;&gt;Node7 -->
<g id="edge6" class="edge">
<title>Node6&#45;&gt;Node7</title>
<path fill="none" stroke="midnightblue" d="M193.57,-113.5C179.16,-113.5 164,-113.5 149.64,-113.5"/>
<polygon fill="midnightblue" stroke="midnightblue" points="193.92,-117 203.92,-113.5 193.92,-110 193.92,-117"/>
</g>
<!-- Node9 -->
<g id="node9" class="node">
<title>Node9</title>
<g id="a_node9"><a xlink:href="../../df/df3/classcarla_1_1client_1_1detail_1_1Simulator.html#ad62bbe3ac5ff1cf9136b8dcb08b950da" target="_top" xlink:title=" ">
<polygon fill="white" stroke="black" points="4.5,-49.5 4.5,-79.5 154.5,-79.5 154.5,-49.5 4.5,-49.5"/>
<text text-anchor="start" x="12.5" y="-67.5" font-family="Helvetica,sans-Serif" font-size="10.00">carla::client::detail</text>
<text text-anchor="middle" x="79.5" y="-56.5" font-family="Helvetica,sans-Serif" font-size="10.00">::Simulator::GetCurrentMap</text>
</a>
</g>
</g>
<!-- Node8&#45;&gt;Node9 -->
<g id="edge8" class="edge">
<title>Node8&#45;&gt;Node9</title>
<path fill="none" stroke="midnightblue" d="M184.64,-64.5C174.72,-64.5 164.6,-64.5 154.76,-64.5"/>
<polygon fill="midnightblue" stroke="midnightblue" points="184.89,-68 194.89,-64.5 184.89,-61 184.89,-68"/>
</g>
<!-- Node10 -->
<g id="node10" class="node">
<title>Node10</title>
<g id="a_node10"><a xlink:href="../../df/df3/classcarla_1_1client_1_1detail_1_1Simulator.html#a4c1ff62aa169c58d450cb9dc0cf3890e" target="_top" xlink:title=" ">
<polygon fill="white" stroke="black" points="0,-0.5 0,-30.5 159,-30.5 159,-0.5 0,-0.5"/>
<text text-anchor="start" x="8" y="-18.5" font-family="Helvetica,sans-Serif" font-size="10.00">carla::client::detail</text>
<text text-anchor="middle" x="79.5" y="-7.5" font-family="Helvetica,sans-Serif" font-size="10.00">::Simulator::GetRequiredFiles</text>
</a>
</g>
</g>
<!-- Node8&#45;&gt;Node10 -->
<g id="edge9" class="edge">
<title>Node8&#45;&gt;Node10</title>
<path fill="none" stroke="midnightblue" d="M198,-46.88C177.93,-41.52 156.06,-35.68 136.7,-30.51"/>
<polygon fill="midnightblue" stroke="midnightblue" points="197.13,-50.27 207.7,-49.47 198.94,-43.5 197.13,-50.27"/>
</g>
</g>
</svg>
        <g id="navigator" transform="translate(0 0)" fill="#404254">
                <rect fill="#f2f5e9" fill-opacity="0.5" stroke="#606060" stroke-width=".5" x="0" y="0" width="60" height="60"/>
                <use id="zoomplus" xlink:href="#zoomPlus" x="17" y="9" onmousedown="handleZoom(evt,'in')"/>
                <use id="zoomminus" xlink:href="#zoomMin" x="42" y="9" onmousedown="handleZoom(evt,'out')"/>
                <use id="reset" xlink:href="#resetDef" x="30" y="36" onmousedown="handleReset()"/>
                <g id="arrowUp" xlink:href="#dirArrow" transform="translate(30 24)" onmousedown="handlePan(0,-1)">
                  <use xlink:href="#rim" fill="#404040">
                        <set attributeName="fill" to="#808080" begin="arrowUp.mouseover" end="arrowUp.mouseout"/>
                  </use>
                  <path fill="none" stroke="white" stroke-width="1.5" d="M0,-3.0v7 M-2.5,-0.5L0,-3.0L2.5,-0.5"/>
                </g>
                <g id="arrowRight" xlink:href="#dirArrow" transform="rotate(90) translate(36 -43)" onmousedown="handlePan(1,0)">
                  <use xlink:href="#rim" fill="#404040">
                        <set attributeName="fill" to="#808080" begin="arrowRight.mouseover" end="arrowRight.mouseout"/>
                  </use>
                  <path fill="none" stroke="white" stroke-width="1.5" d="M0,-3.0v7 M-2.5,-0.5L0,-3.0L2.5,-0.5"/>
                </g>
                <g id="arrowDown" xlink:href="#dirArrow" transform="rotate(180) translate(-30 -48)" onmousedown="handlePan(0,1)">
                  <use xlink:href="#rim" fill="#404040">
                        <set attributeName="fill" to="#808080" begin="arrowDown.mouseover" end="arrowDown.mouseout"/>
                  </use>
                  <path fill="none" stroke="white" stroke-width="1.5" d="M0,-3.0v7 M-2.5,-0.5L0,-3.0L2.5,-0.5"/>
                </g>
                <g id="arrowLeft" xlink:href="#dirArrow" transform="rotate(270) translate(-36 17)" onmousedown="handlePan(-1,0)">
                  <use xlink:href="#rim" fill="#404040">
                        <set attributeName="fill" to="#808080" begin="arrowLeft.mouseover" end="arrowLeft.mouseout"/>
                  </use>
                  <path fill="none" stroke="white" stroke-width="1.5" d="M0,-3.0v7 M-2.5,-0.5L0,-3.0L2.5,-0.5"/>
                </g>
        </g>
        <svg viewBox="0 0 15 15" width="100%" height="30px" preserveAspectRatio="xMaxYMin meet">
         <g id="arrow_out" transform="scale(0.3 0.3)">
          <a xlink:href="classcarla_1_1FileSystem_a86e4a48162e4e44b0e199fb43229b500_icgraph_org.svg" target="_base">
           <rect id="button" ry="5" rx="5" y="6" x="6" height="38" width="38"
                fill="#f2f5e9" fill-opacity="0.5" stroke="#606060" stroke-width="1.0"/>
           <path id="arrow"
             d="M 11.500037,31.436501 C 11.940474,20.09759 22.043105,11.32322 32.158766,21.979434 L 37.068811,17.246167 C 37.068811,17.246167 37.088388,32 37.088388,32 L 22.160133,31.978069 C 22.160133,31.978069 26.997745,27.140456 26.997745,27.140456 C 18.528582,18.264221 13.291696,25.230495 11.500037,31.436501 z"
             style="fill:#404040;"/>
          </a>
         </g>
        </svg>
</svg>
