<?xml version="1.0" encoding="UTF-8" standalone="no"?>
<!DOCTYPE svg PUBLIC "-//W3C//DTD SVG 1.1//EN"
 "http://www.w3.org/Graphics/SVG/1.1/DTD/svg11.dtd">
<!-- Generated by graphviz version 2.40.1 (20161225.0304)
 -->
<!-- Title: GeoLocation.cpp Pages: 1 -->
<svg width="805pt" height="420pt"
 viewBox="0.00 0.00 804.85 420.00" xmlns="http://www.w3.org/2000/svg" xmlns:xlink="http://www.w3.org/1999/xlink">
<g id="graph0" class="graph" transform="scale(1 1) rotate(0) translate(4 416)">
<title>GeoLocation.cpp</title>
<polygon fill="#ffffff" stroke="transparent" points="-4,4 -4,-416 800.8469,-416 800.8469,4 -4,4"/>
<!-- Node0 -->
<g id="node1" class="node">
<title>Node0</title>
<polygon fill="#bfbfbf" stroke="#000000" points="530.5,-392.5 530.5,-411.5 628.5,-411.5 628.5,-392.5 530.5,-392.5"/>
<text text-anchor="middle" x="579.5" y="-399.5" font-family="Helvetica,sans-Serif" font-size="10.00" fill="#000000">GeoLocation.cpp</text>
</g>
<!-- Node1 -->
<g id="node2" class="node">
<title>Node1</title>
<g id="a_node2"><a xlink:href="../../d7/d86/GeoLocation_8h.html" target="_top" xlink:title="carla/geom/GeoLocation.h">
<polygon fill="#ffffff" stroke="#000000" points="240.5,-280.5 240.5,-299.5 384.5,-299.5 384.5,-280.5 240.5,-280.5"/>
<text text-anchor="middle" x="312.5" y="-287.5" font-family="Helvetica,sans-Serif" font-size="10.00" fill="#000000">carla/geom/GeoLocation.h</text>
</a>
</g>
</g>
<!-- Node0&#45;&gt;Node1 -->
<g id="edge1" class="edge">
<title>Node0&#45;&gt;Node1</title>
<path fill="none" stroke="#191970" d="M554.5085,-392.3769C530.9478,-383.2369 494.6969,-368.9989 463.5,-356 421.5589,-338.5243 373.543,-317.3311 343.1304,-303.7583"/>
<polygon fill="#191970" stroke="#191970" points="344.4624,-300.52 333.9047,-299.6337 341.6054,-306.9104 344.4624,-300.52"/>
</g>
<!-- Node17 -->
<g id="node18" class="node">
<title>Node17</title>
<g id="a_node18"><a xlink:href="../../d9/d8b/geom_2Location_8h.html" target="_top" xlink:title="carla/geom/Location.h">
<polygon fill="#ffffff" stroke="#000000" points="472,-336.5 472,-355.5 597,-355.5 597,-336.5 472,-336.5"/>
<text text-anchor="middle" x="534.5" y="-343.5" font-family="Helvetica,sans-Serif" font-size="10.00" fill="#000000">carla/geom/Location.h</text>
</a>
</g>
</g>
<!-- Node0&#45;&gt;Node17 -->
<g id="edge18" class="edge">
<title>Node0&#45;&gt;Node17</title>
<path fill="none" stroke="#191970" d="M571.6616,-392.2455C565.338,-384.3761 556.2776,-373.101 548.6864,-363.6542"/>
<polygon fill="#191970" stroke="#191970" points="551.2408,-361.2454 542.2486,-355.6427 545.7842,-365.6302 551.2408,-361.2454"/>
</g>
<!-- Node19 -->
<g id="node20" class="node">
<title>Node19</title>
<polygon fill="#ffffff" stroke="#bfbfbf" points="593,-168.5 593,-187.5 640,-187.5 640,-168.5 593,-168.5"/>
<text text-anchor="middle" x="616.5" y="-175.5" font-family="Helvetica,sans-Serif" font-size="10.00" fill="#000000">cmath</text>
</g>
<!-- Node0&#45;&gt;Node19 -->
<g id="edge34" class="edge">
<title>Node0&#45;&gt;Node19</title>
<path fill="none" stroke="#191970" d="M586.9788,-392.4128C593.4422,-383.5245 602.3751,-369.651 606.5,-356 623.238,-300.6076 620.8618,-231.187 618.3627,-197.7708"/>
<polygon fill="#191970" stroke="#191970" points="621.8278,-197.2073 617.5047,-187.5346 614.8522,-197.7921 621.8278,-197.2073"/>
</g>
<!-- Node21 -->
<g id="node22" class="node">
<title>Node21</title>
<g id="a_node22"><a xlink:href="../../db/d8a/Math_8h.html" target="_top" xlink:title="carla/geom/Math.h">
<polygon fill="#ffffff" stroke="#000000" points="654,-280.5 654,-299.5 761,-299.5 761,-280.5 654,-280.5"/>
<text text-anchor="middle" x="707.5" y="-287.5" font-family="Helvetica,sans-Serif" font-size="10.00" fill="#000000">carla/geom/Math.h</text>
</a>
</g>
</g>
<!-- Node0&#45;&gt;Node21 -->
<g id="edge33" class="edge">
<title>Node0&#45;&gt;Node21</title>
<path fill="none" stroke="#191970" d="M593.1987,-392.2032C605.5958,-383.1737 624.2008,-369.2108 639.5,-356 657.82,-340.1807 677.5424,-320.7453 691.0043,-307.0751"/>
<polygon fill="#191970" stroke="#191970" points="693.6633,-309.3619 698.1491,-299.7635 688.6568,-304.4695 693.6633,-309.3619"/>
</g>
<!-- Node2 -->
<g id="node3" class="node">
<title>Node2</title>
<g id="a_node3"><a xlink:href="../../d9/d6f/MsgPack_8h.html" target="_top" xlink:title="carla/MsgPack.h">
<polygon fill="#ffffff" stroke="#000000" points="335,-168.5 335,-187.5 430,-187.5 430,-168.5 335,-168.5"/>
<text text-anchor="middle" x="382.5" y="-175.5" font-family="Helvetica,sans-Serif" font-size="10.00" fill="#000000">carla/MsgPack.h</text>
</a>
</g>
</g>
<!-- Node1&#45;&gt;Node2 -->
<g id="edge2" class="edge">
<title>Node1&#45;&gt;Node2</title>
<path fill="none" stroke="#191970" d="M307.6453,-280.3226C301.5993,-266.7831 293.2406,-241.8457 303.5,-224 311.8705,-209.4399 326.8194,-199.0571 341.478,-191.8859"/>
<polygon fill="#191970" stroke="#191970" points="343.2991,-194.9055 350.9968,-187.6256 340.4395,-188.5162 343.2991,-194.9055"/>
</g>
<!-- Node3 -->
<g id="node4" class="node">
<title>Node3</title>
<g id="a_node4"><a xlink:href="../../d2/dda/carla_2Buffer_8h.html" target="_top" xlink:title="carla/Buffer.h">
<polygon fill="#ffffff" stroke="#000000" points="279,-112.5 279,-131.5 360,-131.5 360,-112.5 279,-112.5"/>
<text text-anchor="middle" x="319.5" y="-119.5" font-family="Helvetica,sans-Serif" font-size="10.00" fill="#000000">carla/Buffer.h</text>
</a>
</g>
</g>
<!-- Node2&#45;&gt;Node3 -->
<g id="edge3" class="edge">
<title>Node2&#45;&gt;Node3</title>
<path fill="none" stroke="#191970" d="M371.5262,-168.2455C362.3118,-160.0549 348.9468,-148.1749 338.0703,-138.5069"/>
<polygon fill="#191970" stroke="#191970" points="340.1474,-135.6704 330.348,-131.6427 335.4968,-140.9023 340.1474,-135.6704"/>
</g>
<!-- Node16 -->
<g id="node17" class="node">
<title>Node16</title>
<polygon fill="#ffffff" stroke="#bfbfbf" points="378.5,-112.5 378.5,-131.5 478.5,-131.5 478.5,-112.5 378.5,-112.5"/>
<text text-anchor="middle" x="428.5" y="-119.5" font-family="Helvetica,sans-Serif" font-size="10.00" fill="#000000">rpc/msgpack.hpp</text>
</g>
<!-- Node2&#45;&gt;Node16 -->
<g id="edge17" class="edge">
<title>Node2&#45;&gt;Node16</title>
<path fill="none" stroke="#191970" d="M390.5126,-168.2455C396.9768,-160.3761 406.2385,-149.101 413.9983,-139.6542"/>
<polygon fill="#191970" stroke="#191970" points="416.9364,-141.5916 420.5792,-131.6427 411.5273,-137.1484 416.9364,-141.5916"/>
</g>
<!-- Node4 -->
<g id="node5" class="node">
<title>Node4</title>
<g id="a_node5"><a xlink:href="../../d4/deb/Debug_8h.html" target="_top" xlink:title="carla/Debug.h">
<polygon fill="#ffffff" stroke="#000000" points="545.5,-56.5 545.5,-75.5 629.5,-75.5 629.5,-56.5 545.5,-56.5"/>
<text text-anchor="middle" x="587.5" y="-63.5" font-family="Helvetica,sans-Serif" font-size="10.00" fill="#000000">carla/Debug.h</text>
</a>
</g>
</g>
<!-- Node3&#45;&gt;Node4 -->
<g id="edge4" class="edge">
<title>Node3&#45;&gt;Node4</title>
<path fill="none" stroke="#191970" d="M360.2034,-113.4948C407.0153,-103.7132 483.9839,-87.6302 535.1999,-76.9284"/>
<polygon fill="#191970" stroke="#191970" points="536.0105,-80.3347 545.0831,-74.8632 534.5787,-73.4827 536.0105,-80.3347"/>
</g>
<!-- Node5 -->
<g id="node6" class="node">
<title>Node5</title>
<g id="a_node6"><a xlink:href="../../d8/d8a/Exception_8h.html" target="_top" xlink:title="carla/Exception.h">
<polygon fill="#ffffff" stroke="#000000" points="412,-.5 412,-19.5 513,-19.5 513,-.5 412,-.5"/>
<text text-anchor="middle" x="462.5" y="-7.5" font-family="Helvetica,sans-Serif" font-size="10.00" fill="#000000">carla/Exception.h</text>
</a>
</g>
</g>
<!-- Node3&#45;&gt;Node5 -->
<g id="edge8" class="edge">
<title>Node3&#45;&gt;Node5</title>
<path fill="none" stroke="#191970" d="M360.0716,-113.1518C383.3528,-106.3185 411.7818,-94.7673 431.5,-76 444.653,-63.4812 452.7988,-44.2711 457.4193,-29.7981"/>
<polygon fill="#191970" stroke="#191970" points="460.8821,-30.4214 460.2899,-19.8432 454.1561,-28.4819 460.8821,-30.4214"/>
</g>
<!-- Node8 -->
<g id="node9" class="node">
<title>Node8</title>
<g id="a_node9"><a xlink:href="../../de/d87/Logging_8h.html" target="_top" xlink:title="carla/Logging.h">
<polygon fill="#ffffff" stroke="#000000" points="50,-56.5 50,-75.5 141,-75.5 141,-56.5 50,-56.5"/>
<text text-anchor="middle" x="95.5" y="-63.5" font-family="Helvetica,sans-Serif" font-size="10.00" fill="#000000">carla/Logging.h</text>
</a>
</g>
</g>
<!-- Node3&#45;&gt;Node8 -->
<g id="edge9" class="edge">
<title>Node3&#45;&gt;Node8</title>
<path fill="none" stroke="#191970" d="M281.2475,-112.4369C243.1533,-102.9133 184.5687,-88.2672 143.4013,-77.9753"/>
<polygon fill="#191970" stroke="#191970" points="144.145,-74.5536 133.5947,-75.5237 142.4472,-81.3446 144.145,-74.5536"/>
</g>
<!-- Node11 -->
<g id="node12" class="node">
<title>Node11</title>
<polygon fill="#ffffff" stroke="#bfbfbf" points="159,-56.5 159,-75.5 278,-75.5 278,-56.5 159,-56.5"/>
<text text-anchor="middle" x="218.5" y="-63.5" font-family="Helvetica,sans-Serif" font-size="10.00" fill="#000000">boost/asio/buffer.hpp</text>
</g>
<!-- Node3&#45;&gt;Node11 -->
<g id="edge12" class="edge">
<title>Node3&#45;&gt;Node11</title>
<path fill="none" stroke="#191970" d="M301.9071,-112.2455C286.121,-103.4928 262.7361,-90.527 244.7413,-80.5496"/>
<polygon fill="#191970" stroke="#191970" points="246.3341,-77.4308 235.8913,-75.6427 242.9397,-83.5528 246.3341,-77.4308"/>
</g>
<!-- Node12 -->
<g id="node13" class="node">
<title>Node12</title>
<polygon fill="#ffffff" stroke="#bfbfbf" points="296.5,-56.5 296.5,-75.5 346.5,-75.5 346.5,-56.5 296.5,-56.5"/>
<text text-anchor="middle" x="321.5" y="-63.5" font-family="Helvetica,sans-Serif" font-size="10.00" fill="#000000">cstdint</text>
</g>
<!-- Node3&#45;&gt;Node12 -->
<g id="edge13" class="edge">
<title>Node3&#45;&gt;Node12</title>
<path fill="none" stroke="#191970" d="M319.8484,-112.2455C320.1093,-104.9382 320.4752,-94.6944 320.7963,-85.7046"/>
<polygon fill="#191970" stroke="#191970" points="324.2964,-85.7613 321.1556,-75.6427 317.3008,-85.5113 324.2964,-85.7613"/>
</g>
<!-- Node13 -->
<g id="node14" class="node">
<title>Node13</title>
<polygon fill="#ffffff" stroke="#bfbfbf" points="483.5,-56.5 483.5,-75.5 527.5,-75.5 527.5,-56.5 483.5,-56.5"/>
<text text-anchor="middle" x="505.5" y="-63.5" font-family="Helvetica,sans-Serif" font-size="10.00" fill="#000000">limits</text>
</g>
<!-- Node3&#45;&gt;Node13 -->
<g id="edge14" class="edge">
<title>Node3&#45;&gt;Node13</title>
<path fill="none" stroke="#191970" d="M351.4745,-112.3733C385.5496,-102.1141 439.1938,-85.9631 473.3398,-75.6827"/>
<polygon fill="#191970" stroke="#191970" points="474.7012,-78.928 483.2675,-72.6936 472.6831,-72.2252 474.7012,-78.928"/>
</g>
<!-- Node14 -->
<g id="node15" class="node">
<title>Node14</title>
<polygon fill="#ffffff" stroke="#bfbfbf" points="364.5,-56.5 364.5,-75.5 422.5,-75.5 422.5,-56.5 364.5,-56.5"/>
<text text-anchor="middle" x="393.5" y="-63.5" font-family="Helvetica,sans-Serif" font-size="10.00" fill="#000000">memory</text>
</g>
<!-- Node3&#45;&gt;Node14 -->
<g id="edge15" class="edge">
<title>Node3&#45;&gt;Node14</title>
<path fill="none" stroke="#191970" d="M332.3898,-112.2455C343.4254,-103.8943 359.5292,-91.7076 372.4353,-81.9408"/>
<polygon fill="#191970" stroke="#191970" points="374.8959,-84.4681 380.7579,-75.6427 370.6717,-78.8862 374.8959,-84.4681"/>
</g>
<!-- Node15 -->
<g id="node16" class="node">
<title>Node15</title>
<polygon fill="#ffffff" stroke="#bfbfbf" points="710,-56.5 710,-75.5 779,-75.5 779,-56.5 710,-56.5"/>
<text text-anchor="middle" x="744.5" y="-63.5" font-family="Helvetica,sans-Serif" font-size="10.00" fill="#000000">type_traits</text>
</g>
<!-- Node3&#45;&gt;Node15 -->
<g id="edge16" class="edge">
<title>Node3&#45;&gt;Node15</title>
<path fill="none" stroke="#191970" d="M360.1127,-113.6114C363.284,-113.0377 366.4411,-112.4928 369.5,-112 488.2248,-92.8736 629.2313,-77.5495 699.7116,-70.3913"/>
<polygon fill="#191970" stroke="#191970" points="700.3974,-73.8399 709.9957,-69.354 699.6949,-66.8753 700.3974,-73.8399"/>
</g>
<!-- Node4&#45;&gt;Node5 -->
<g id="edge5" class="edge">
<title>Node4&#45;&gt;Node5</title>
<path fill="none" stroke="#191970" d="M566.0117,-56.3733C545.856,-47.3435 515.512,-33.7494 492.882,-23.6111"/>
<polygon fill="#191970" stroke="#191970" points="494.2649,-20.3955 483.7079,-19.5011 491.4029,-26.7838 494.2649,-20.3955"/>
</g>
<!-- Node6 -->
<g id="node7" class="node">
<title>Node6</title>
<polygon fill="#ffffff" stroke="#bfbfbf" points="624,-.5 624,-19.5 689,-19.5 689,-.5 624,-.5"/>
<text text-anchor="middle" x="656.5" y="-7.5" font-family="Helvetica,sans-Serif" font-size="10.00" fill="#000000">stdexcept</text>
</g>
<!-- Node4&#45;&gt;Node6 -->
<g id="edge6" class="edge">
<title>Node4&#45;&gt;Node6</title>
<path fill="none" stroke="#191970" d="M599.5189,-56.2455C609.7098,-47.9746 624.5362,-35.9416 636.5107,-26.2232"/>
<polygon fill="#191970" stroke="#191970" points="639.0598,-28.662 644.6188,-19.6427 634.6486,-23.2268 639.0598,-28.662"/>
</g>
<!-- Node7 -->
<g id="node8" class="node">
<title>Node7</title>
<polygon fill="#ffffff" stroke="#bfbfbf" points="553.5,-.5 553.5,-19.5 605.5,-19.5 605.5,-.5 553.5,-.5"/>
<text text-anchor="middle" x="579.5" y="-7.5" font-family="Helvetica,sans-Serif" font-size="10.00" fill="#000000">cassert</text>
</g>
<!-- Node4&#45;&gt;Node7 -->
<g id="edge7" class="edge">
<title>Node4&#45;&gt;Node7</title>
<path fill="none" stroke="#191970" d="M586.1065,-56.2455C585.0626,-48.9382 583.5992,-38.6944 582.3149,-29.7046"/>
<polygon fill="#191970" stroke="#191970" points="585.7566,-29.0472 580.8775,-19.6427 578.827,-30.0372 585.7566,-29.0472"/>
</g>
<!-- Node9 -->
<g id="node10" class="node">
<title>Node9</title>
<g id="a_node10"><a xlink:href="../../d9/dd0/Platform_8h.html" target="_top" xlink:title="carla/Platform.h">
<polygon fill="#ffffff" stroke="#000000" points="0,-.5 0,-19.5 95,-19.5 95,-.5 0,-.5"/>
<text text-anchor="middle" x="47.5" y="-7.5" font-family="Helvetica,sans-Serif" font-size="10.00" fill="#000000">carla/Platform.h</text>
</a>
</g>
</g>
<!-- Node8&#45;&gt;Node9 -->
<g id="edge10" class="edge">
<title>Node8&#45;&gt;Node9</title>
<path fill="none" stroke="#191970" d="M87.139,-56.2455C80.325,-48.2958 70.5319,-36.8706 62.3848,-27.3656"/>
<polygon fill="#191970" stroke="#191970" points="64.9305,-24.9575 55.7651,-19.6427 59.6157,-29.513 64.9305,-24.9575"/>
</g>
<!-- Node10 -->
<g id="node11" class="node">
<title>Node10</title>
<polygon fill="#ffffff" stroke="#bfbfbf" points="113.5,-.5 113.5,-19.5 173.5,-19.5 173.5,-.5 113.5,-.5"/>
<text text-anchor="middle" x="143.5" y="-7.5" font-family="Helvetica,sans-Serif" font-size="10.00" fill="#000000">iostream</text>
</g>
<!-- Node8&#45;&gt;Node10 -->
<g id="edge11" class="edge">
<title>Node8&#45;&gt;Node10</title>
<path fill="none" stroke="#191970" d="M103.861,-56.2455C110.675,-48.2958 120.4681,-36.8706 128.6152,-27.3656"/>
<polygon fill="#191970" stroke="#191970" points="131.3843,-29.513 135.2349,-19.6427 126.0695,-24.9575 131.3843,-29.513"/>
</g>
<!-- Node18 -->
<g id="node19" class="node">
<title>Node18</title>
<g id="a_node19"><a xlink:href="../../de/d70/geom_2Vector3D_8h.html" target="_top" xlink:title="carla/geom/Vector3D.h">
<polygon fill="#ffffff" stroke="#000000" points="470.5,-224.5 470.5,-243.5 598.5,-243.5 598.5,-224.5 470.5,-224.5"/>
<text text-anchor="middle" x="534.5" y="-231.5" font-family="Helvetica,sans-Serif" font-size="10.00" fill="#000000">carla/geom/Vector3D.h</text>
</a>
</g>
</g>
<!-- Node17&#45;&gt;Node18 -->
<g id="edge19" class="edge">
<title>Node17&#45;&gt;Node18</title>
<path fill="none" stroke="#191970" d="M534.5,-336.4509C534.5,-318.184 534.5,-277.9553 534.5,-253.6976"/>
<polygon fill="#191970" stroke="#191970" points="538.0001,-253.5249 534.5,-243.5249 531.0001,-253.5249 538.0001,-253.5249"/>
</g>
<!-- Node20 -->
<g id="node21" class="node">
<title>Node20</title>
<g id="a_node21"><a xlink:href="../../d1/da4/Vector3DInt_8h.html" target="_top" xlink:title="carla/geom/Vector3DInt.h">
<polygon fill="#ffffff" stroke="#000000" points="312.5,-224.5 312.5,-243.5 452.5,-243.5 452.5,-224.5 312.5,-224.5"/>
<text text-anchor="middle" x="382.5" y="-231.5" font-family="Helvetica,sans-Serif" font-size="10.00" fill="#000000">carla/geom/Vector3DInt.h</text>
</a>
</g>
</g>
<!-- Node17&#45;&gt;Node20 -->
<g id="edge23" class="edge">
<title>Node17&#45;&gt;Node20</title>
<path fill="none" stroke="#191970" d="M521.5406,-336.4509C495.2914,-317.1094 435.6274,-273.1465 403.6584,-249.5904"/>
<polygon fill="#191970" stroke="#191970" points="405.5534,-246.6392 395.4266,-243.5249 401.401,-252.2746 405.5534,-246.6392"/>
</g>
<!-- Node17&#45;&gt;Node21 -->
<g id="edge27" class="edge">
<title>Node17&#45;&gt;Node21</title>
<path fill="none" stroke="#191970" d="M564.2398,-336.3733C593.007,-327.0613 636.77,-312.8953 668.3556,-302.671"/>
<polygon fill="#191970" stroke="#191970" points="669.7122,-305.9107 678.1483,-299.5011 667.5564,-299.251 669.7122,-305.9107"/>
</g>
<!-- Node18&#45;&gt;Node2 -->
<g id="edge20" class="edge">
<title>Node18&#45;&gt;Node2</title>
<path fill="none" stroke="#191970" d="M508.3703,-224.3733C483.4232,-215.1822 445.6408,-201.2624 417.9794,-191.0713"/>
<polygon fill="#191970" stroke="#191970" points="418.8822,-187.674 408.2888,-187.5011 416.4622,-194.2424 418.8822,-187.674"/>
</g>
<!-- Node18&#45;&gt;Node13 -->
<g id="edge22" class="edge">
<title>Node18&#45;&gt;Node13</title>
<path fill="none" stroke="#191970" d="M534.0549,-224.4017C532.9507,-203.6694 529.495,-153.2432 520.5,-112 518.5585,-103.0979 515.5693,-93.4813 512.7689,-85.3539"/>
<polygon fill="#191970" stroke="#191970" points="515.9789,-83.9373 509.3001,-75.7127 509.3923,-86.3072 515.9789,-83.9373"/>
</g>
<!-- Node18&#45;&gt;Node19 -->
<g id="edge21" class="edge">
<title>Node18&#45;&gt;Node19</title>
<path fill="none" stroke="#191970" d="M548.7833,-224.2455C561.247,-215.7337 579.5451,-203.2375 593.9792,-193.3801"/>
<polygon fill="#191970" stroke="#191970" points="596.0962,-196.1726 602.3804,-187.6427 592.1485,-190.392 596.0962,-196.1726"/>
</g>
<!-- Node20&#45;&gt;Node2 -->
<g id="edge24" class="edge">
<title>Node20&#45;&gt;Node2</title>
<path fill="none" stroke="#191970" d="M382.5,-224.2455C382.5,-216.9382 382.5,-206.6944 382.5,-197.7046"/>
<polygon fill="#191970" stroke="#191970" points="386.0001,-197.6426 382.5,-187.6427 379.0001,-197.6427 386.0001,-197.6426"/>
</g>
<!-- Node20&#45;&gt;Node13 -->
<g id="edge26" class="edge">
<title>Node20&#45;&gt;Node13</title>
<path fill="none" stroke="#191970" d="M397.1682,-224.4005C420.4509,-208.3098 465.4791,-173.5407 487.5,-132 495.1487,-117.5713 499.7738,-99.6021 502.4167,-86.0581"/>
<polygon fill="#191970" stroke="#191970" points="505.9187,-86.3503 504.1935,-75.8969 499.0233,-85.1445 505.9187,-86.3503"/>
</g>
<!-- Node20&#45;&gt;Node19 -->
<g id="edge25" class="edge">
<title>Node20&#45;&gt;Node19</title>
<path fill="none" stroke="#191970" d="M422.4602,-224.4369C467.6816,-213.6147 540.5439,-196.1775 582.9379,-186.0319"/>
<polygon fill="#191970" stroke="#191970" points="583.8597,-189.4103 592.7704,-183.6789 582.2304,-182.6025 583.8597,-189.4103"/>
</g>
<!-- Node21&#45;&gt;Node4 -->
<g id="edge28" class="edge">
<title>Node21&#45;&gt;Node4</title>
<path fill="none" stroke="#191970" d="M703.3142,-280.3431C694.1906,-259.4968 671.5573,-208.8624 649.5,-168 633.2691,-137.9314 612.2258,-104.2818 599.3027,-84.1381"/>
<polygon fill="#191970" stroke="#191970" points="602.1888,-82.1555 593.8251,-75.6516 596.3075,-85.9516 602.1888,-82.1555"/>
</g>
<!-- Node21&#45;&gt;Node15 -->
<g id="edge31" class="edge">
<title>Node21&#45;&gt;Node15</title>
<path fill="none" stroke="#191970" d="M738.2191,-280.4362C755.4074,-273.3313 775.3632,-261.7464 785.5,-244 815.563,-191.369 777.8805,-118.1053 756.8538,-84.3563"/>
<polygon fill="#191970" stroke="#191970" points="759.5539,-82.085 751.1951,-75.575 753.6698,-85.8767 759.5539,-82.085"/>
</g>
<!-- Node21&#45;&gt;Node18 -->
<g id="edge29" class="edge">
<title>Node21&#45;&gt;Node18</title>
<path fill="none" stroke="#191970" d="M677.7602,-280.3733C648.993,-271.0613 605.23,-256.8953 573.6444,-246.671"/>
<polygon fill="#191970" stroke="#191970" points="574.4436,-243.251 563.8517,-243.5011 572.2878,-249.9107 574.4436,-243.251"/>
</g>
<!-- Node21&#45;&gt;Node19 -->
<g id="edge30" class="edge">
<title>Node21&#45;&gt;Node19</title>
<path fill="none" stroke="#191970" d="M699.7414,-280.4509C684.4294,-261.6054 650.1252,-219.3849 630.6715,-195.4419"/>
<polygon fill="#191970" stroke="#191970" points="633.2613,-193.079 624.239,-187.5249 627.8285,-197.4931 633.2613,-193.079"/>
</g>
<!-- Node22 -->
<g id="node23" class="node">
<title>Node22</title>
<polygon fill="#ffffff" stroke="#bfbfbf" points="731,-224.5 731,-243.5 776,-243.5 776,-224.5 731,-224.5"/>
<text text-anchor="middle" x="753.5" y="-231.5" font-family="Helvetica,sans-Serif" font-size="10.00" fill="#000000">utility</text>
</g>
<!-- Node21&#45;&gt;Node22 -->
<g id="edge32" class="edge">
<title>Node21&#45;&gt;Node22</title>
<path fill="none" stroke="#191970" d="M715.5126,-280.2455C721.9768,-272.3761 731.2385,-261.101 738.9983,-251.6542"/>
<polygon fill="#191970" stroke="#191970" points="741.9364,-253.5916 745.5792,-243.6427 736.5273,-249.1484 741.9364,-253.5916"/>
</g>
</g>
</svg>
