<?xml version="1.0" encoding="UTF-8" standalone="no"?>
<!DOCTYPE svg PUBLIC "-//W3C//DTD SVG 1.1//EN"
 "http://www.w3.org/Graphics/SVG/1.1/DTD/svg11.dtd">
<!-- Generated by graphviz version 2.38.0 (20140413.2041)
 -->
<!-- Title: FActorView Pages: 1 -->
<svg width="370pt" height="106pt"
 viewBox="0.00 0.00 370.00 106.00" xmlns="http://www.w3.org/2000/svg" xmlns:xlink="http://www.w3.org/1999/xlink">
<g id="graph0" class="graph" transform="scale(1 1) rotate(0) translate(4 102)">
<title>FActorView</title>
<polygon fill="white" stroke="none" points="-4,4 -4,-102 366,-102 366,4 -4,4"/>
<!-- Node1 -->
<g id="node1" class="node"><title>Node1</title>
<polygon fill="#bfbfbf" stroke="black" points="167.5,-0.5 167.5,-19.5 235.5,-19.5 235.5,-0.5 167.5,-0.5"/>
<text text-anchor="middle" x="201.5" y="-7.5" font-family="Helvetica,sans-Serif" font-size="10.00">FActorView</text>
</g>
<!-- Node2 -->
<g id="node2" class="node"><title>Node2</title>
<polygon fill="white" stroke="#bfbfbf" points="0,-73 0,-92 57,-92 57,-73 0,-73"/>
<text text-anchor="middle" x="28.5" y="-80" font-family="Helvetica,sans-Serif" font-size="10.00">AActor *</text>
</g>
<!-- Node2&#45;&gt;Node1 -->
<g id="edge1" class="edge"><title>Node2&#45;&gt;Node1</title>
<path fill="none" stroke="#9a32cd" stroke-dasharray="5,2" d="M54.6549,-68.5044C73.3388,-59.4417 99.1911,-47.347 122.5,-38 139.451,-31.2027 158.853,-24.5558 174.188,-19.5579"/>
<polygon fill="#9a32cd" stroke="#9a32cd" points="53.0359,-65.4 45.5894,-72.9366 56.1105,-71.6886 53.0359,-65.4"/>
<text text-anchor="middle" x="145.5" y="-41" font-family="Helvetica,sans-Serif" font-size="10.00"> TheActor</text>
</g>
<!-- Node3 -->
<g id="node3" class="node"><title>Node3</title>
<polygon fill="white" stroke="#bfbfbf" points="75.5,-67.5 75.5,-97.5 215.5,-97.5 215.5,-67.5 75.5,-67.5"/>
<text text-anchor="start" x="83.5" y="-85.5" font-family="Helvetica,sans-Serif" font-size="10.00">TSharedPtr&lt; const FActor</text>
<text text-anchor="middle" x="145.5" y="-74.5" font-family="Helvetica,sans-Serif" font-size="10.00">Info &gt;</text>
</g>
<!-- Node3&#45;&gt;Node1 -->
<g id="edge2" class="edge"><title>Node3&#45;&gt;Node1</title>
<path fill="none" stroke="#9a32cd" stroke-dasharray="5,2" d="M163.067,-59.3845C173.67,-46.0362 186.602,-29.7556 194.436,-19.8932"/>
<polygon fill="#9a32cd" stroke="#9a32cd" points="160.312,-57.226 156.832,-67.2333 165.793,-61.5799 160.312,-57.226"/>
<text text-anchor="middle" x="190" y="-41" font-family="Helvetica,sans-Serif" font-size="10.00"> Info</text>
</g>
<!-- Node4 -->
<g id="node4" class="node"><title>Node4</title>
<polygon fill="white" stroke="#bfbfbf" points="234,-73 234,-92 281,-92 281,-73 234,-73"/>
<text text-anchor="middle" x="257.5" y="-80" font-family="Helvetica,sans-Serif" font-size="10.00">uint32</text>
</g>
<!-- Node4&#45;&gt;Node1 -->
<g id="edge3" class="edge"><title>Node4&#45;&gt;Node1</title>
<path fill="none" stroke="#9a32cd" stroke-dasharray="5,2" d="M244.312,-64.8971C233.069,-50.7431 217.352,-30.9566 208.423,-19.7154"/>
<polygon fill="#9a32cd" stroke="#9a32cd" points="241.673,-67.2019 250.633,-72.8553 247.154,-62.848 241.673,-67.2019"/>
<text text-anchor="middle" x="237.5" y="-41" font-family="Helvetica,sans-Serif" font-size="10.00"> Id</text>
</g>
<!-- Node5 -->
<g id="node5" class="node"><title>Node5</title>
<polygon fill="white" stroke="#bfbfbf" points="299,-73 299,-92 362,-92 362,-73 299,-73"/>
<text text-anchor="middle" x="330.5" y="-80" font-family="Helvetica,sans-Serif" font-size="10.00">ActorType</text>
</g>
<!-- Node5&#45;&gt;Node1 -->
<g id="edge4" class="edge"><title>Node5&#45;&gt;Node1</title>
<path fill="none" stroke="#9a32cd" stroke-dasharray="5,2" d="M306.025,-68.1242C279.881,-53.8361 239.229,-31.6193 217.116,-19.5341"/>
<polygon fill="#9a32cd" stroke="#9a32cd" points="304.486,-71.2716 314.94,-72.9961 307.843,-65.1291 304.486,-71.2716"/>
<text text-anchor="middle" x="283" y="-41" font-family="Helvetica,sans-Serif" font-size="10.00"> Type</text>
</g>
</g>
</svg>
