<?xml version="1.0" encoding="UTF-8" standalone="no"?>
<!DOCTYPE svg PUBLIC "-//W3C//DTD SVG 1.1//EN"
 "http://www.w3.org/Graphics/SVG/1.1/DTD/svg11.dtd">
<!-- Generated by graphviz version 2.38.0 (20140413.2041)
 -->
<!-- Title: carla::traffic_manager::ALSM::RemoveActor Pages: 1 -->
<!--zoomable 339 -->
<svg id="main" version="1.1" xmlns="http://www.w3.org/2000/svg" xmlns:xlink="http://www.w3.org/1999/xlink" xml:space="preserve" onload="init(evt)">
<style type="text/css"><![CDATA[
.edge:hover path { stroke: red; }
.edge:hover polygon { stroke: red; fill: red; }
]]></style>
<script type="text/javascript"><![CDATA[
var edges = document.getElementsByTagName('g');
if (edges && edges.length) {
  for (var i=0;i<edges.length;i++) {
    if (edges[i].id.substr(0,4)=='edge') {
      edges[i].setAttribute('class','edge');
    }
  }
}
]]></script>
        <defs>
                <circle id="rim" cx="0" cy="0" r="7"/>
                <circle id="rim2" cx="0" cy="0" r="3.5"/>
                <g id="zoomPlus">
                        <use xlink:href="#rim" fill="#404040">
                                <set attributeName="fill" to="#808080" begin="zoomplus.mouseover" end="zoomplus.mouseout"/>
                        </use>
                        <path d="M-4,0h8M0,-4v8" fill="none" stroke="white" stroke-width="1.5" pointer-events="none"/>
                </g>
                <g id="zoomMin">
                        <use xlink:href="#rim" fill="#404040">
                                <set attributeName="fill" to="#808080" begin="zoomminus.mouseover" end="zoomminus.mouseout"/>
                        </use>
                        <path d="M-4,0h8" fill="none" stroke="white" stroke-width="1.5" pointer-events="none"/>
                </g>
                <g id="dirArrow">
                        <path fill="none" stroke="white" stroke-width="1.5" d="M0,-3.0v7 M-2.5,-0.5L0,-3.0L2.5,-0.5"/>
                </g>
               <g id="resetDef">
                       <use xlink:href="#rim2" fill="#404040">
                               <set attributeName="fill" to="#808080" begin="reset.mouseover" end="reset.mouseout"/>
                       </use>
               </g>
        </defs>

<script type="text/javascript">
var viewWidth = 533;
var viewHeight = 339;
var sectionId = 'dynsection-6';
</script>
<script xlink:href="../../svgpan.js"/>
<svg id="graph" class="graph">
<g id="viewport">
<title>carla::traffic_manager::ALSM::RemoveActor</title>
<polygon fill="white" stroke="none" points="-4,4 -4,-334.5 529,-334.5 529,4 -4,4"/>
<!-- Node1 -->
<g id="node1" class="node"><title>Node1</title>
<polygon fill="#bfbfbf" stroke="black" points="0,-147.5 0,-177.5 122,-177.5 122,-147.5 0,-147.5"/>
<text text-anchor="start" x="8" y="-165.5" font-family="Helvetica,sans-Serif" font-size="10.00">carla::traffic_manager</text>
<text text-anchor="middle" x="61" y="-154.5" font-family="Helvetica,sans-Serif" font-size="10.00">::ALSM::RemoveActor</text>
</g>
<!-- Node2 -->
<g id="node2" class="node"><title>Node2</title>
<g id="a_node2"><a xlink:href="../../d2/d36/classcarla_1_1traffic__manager_1_1TrackTraffic.html#ad3f8304d51ae8e9bcf278ec1fc1caa73" target="_top" xlink:title="Method to delete actor data from tracking. ">
<polygon fill="white" stroke="black" points="178,-294.5 178,-324.5 315,-324.5 315,-294.5 178,-294.5"/>
<text text-anchor="start" x="186" y="-312.5" font-family="Helvetica,sans-Serif" font-size="10.00">carla::traffic_manager</text>
<text text-anchor="middle" x="246.5" y="-301.5" font-family="Helvetica,sans-Serif" font-size="10.00">::TrackTraffic::DeleteActor</text>
</a>
</g>
</g>
<!-- Node1&#45;&gt;Node2 -->
<g id="edge1" class="edge"><title>Node1&#45;&gt;Node2</title>
<path fill="none" stroke="midnightblue" d="M69.5308,-177.531C83.3749,-203.595 115.398,-257.106 158,-285.5 161.297,-287.698 164.792,-289.695 168.412,-291.511"/>
<polygon fill="midnightblue" stroke="midnightblue" points="167.077,-294.748 177.632,-295.659 169.949,-288.364 167.077,-294.748"/>
</g>
<!-- Node4 -->
<g id="node4" class="node"><title>Node4</title>
<g id="a_node4"><a xlink:href="../../d6/d8c/classcarla_1_1traffic__manager_1_1AtomicActorSet.html#a399b072da8a4d3d1f1edf7f489915b57" target="_top" xlink:title="carla::traffic_manager\l::AtomicActorSet::Remove">
<polygon fill="white" stroke="black" points="175,-245.5 175,-275.5 318,-275.5 318,-245.5 175,-245.5"/>
<text text-anchor="start" x="183" y="-263.5" font-family="Helvetica,sans-Serif" font-size="10.00">carla::traffic_manager</text>
<text text-anchor="middle" x="246.5" y="-252.5" font-family="Helvetica,sans-Serif" font-size="10.00">::AtomicActorSet::Remove</text>
</a>
</g>
</g>
<!-- Node1&#45;&gt;Node4 -->
<g id="edge3" class="edge"><title>Node1&#45;&gt;Node4</title>
<path fill="none" stroke="midnightblue" d="M77.6596,-177.732C95.6502,-194.433 126.733,-220.923 158,-236.5 161.807,-238.397 165.784,-240.16 169.853,-241.797"/>
<polygon fill="midnightblue" stroke="midnightblue" points="168.885,-245.172 179.478,-245.392 171.335,-238.614 168.885,-245.172"/>
</g>
<!-- Node5 -->
<g id="node5" class="node"><title>Node5</title>
<g id="a_node5"><a xlink:href="../../d5/db3/classcarla_1_1traffic__manager_1_1TrafficLightStage.html#a5b4416ca8de96b8a42a88bb8a96f1436" target="_top" xlink:title="carla::traffic_manager\l::TrafficLightStage::RemoveActor">
<polygon fill="white" stroke="black" points="161,-196.5 161,-226.5 332,-226.5 332,-196.5 161,-196.5"/>
<text text-anchor="start" x="169" y="-214.5" font-family="Helvetica,sans-Serif" font-size="10.00">carla::traffic_manager</text>
<text text-anchor="middle" x="246.5" y="-203.5" font-family="Helvetica,sans-Serif" font-size="10.00">::TrafficLightStage::RemoveActor</text>
</a>
</g>
</g>
<!-- Node1&#45;&gt;Node5 -->
<g id="edge4" class="edge"><title>Node1&#45;&gt;Node5</title>
<path fill="none" stroke="midnightblue" d="M118.303,-177.535C137.678,-182.708 159.545,-188.548 179.614,-193.907"/>
<polygon fill="midnightblue" stroke="midnightblue" points="178.739,-197.295 189.303,-196.494 180.545,-190.532 178.739,-197.295"/>
</g>
<!-- Node6 -->
<g id="node6" class="node"><title>Node6</title>
<g id="a_node6"><a xlink:href="../../d9/d2b/classcarla_1_1traffic__manager_1_1SimulationState.html#abd6d5f7ae637fa2397500b2816988bbf" target="_top" xlink:title="carla::traffic_manager\l::SimulationState::RemoveActor">
<polygon fill="white" stroke="black" points="161.5,-147.5 161.5,-177.5 331.5,-177.5 331.5,-147.5 161.5,-147.5"/>
<text text-anchor="start" x="169.5" y="-165.5" font-family="Helvetica,sans-Serif" font-size="10.00">carla::traffic_manager</text>
<text text-anchor="middle" x="246.5" y="-154.5" font-family="Helvetica,sans-Serif" font-size="10.00">::SimulationState::RemoveActor</text>
</a>
</g>
</g>
<!-- Node1&#45;&gt;Node6 -->
<g id="edge5" class="edge"><title>Node1&#45;&gt;Node6</title>
<path fill="none" stroke="midnightblue" d="M122.085,-162.5C131.394,-162.5 141.199,-162.5 151.045,-162.5"/>
<polygon fill="midnightblue" stroke="midnightblue" points="151.302,-166 161.302,-162.5 151.302,-159 151.302,-166"/>
</g>
<!-- Node7 -->
<g id="node7" class="node"><title>Node7</title>
<g id="a_node7"><a xlink:href="../../dd/df9/classcarla_1_1traffic__manager_1_1MotionPlanStage.html#ac69f7735fddbf606208d2c41bb3c8800" target="_top" xlink:title="carla::traffic_manager\l::MotionPlanStage::RemoveActor">
<polygon fill="white" stroke="black" points="160,-98.5 160,-128.5 333,-128.5 333,-98.5 160,-98.5"/>
<text text-anchor="start" x="168" y="-116.5" font-family="Helvetica,sans-Serif" font-size="10.00">carla::traffic_manager</text>
<text text-anchor="middle" x="246.5" y="-105.5" font-family="Helvetica,sans-Serif" font-size="10.00">::MotionPlanStage::RemoveActor</text>
</a>
</g>
</g>
<!-- Node1&#45;&gt;Node7 -->
<g id="edge6" class="edge"><title>Node1&#45;&gt;Node7</title>
<path fill="none" stroke="midnightblue" d="M118.303,-147.465C137.678,-142.292 159.545,-136.452 179.614,-131.093"/>
<polygon fill="midnightblue" stroke="midnightblue" points="180.545,-134.468 189.303,-128.506 178.739,-127.705 180.545,-134.468"/>
</g>
<!-- Node8 -->
<g id="node8" class="node"><title>Node8</title>
<g id="a_node8"><a xlink:href="../../d6/da2/classcarla_1_1traffic__manager_1_1LocalizationStage.html#ad7a1474f31986f1613ccc6451d4b759d" target="_top" xlink:title="carla::traffic_manager\l::LocalizationStage::RemoveActor">
<polygon fill="white" stroke="black" points="158,-49.5 158,-79.5 335,-79.5 335,-49.5 158,-49.5"/>
<text text-anchor="start" x="166" y="-67.5" font-family="Helvetica,sans-Serif" font-size="10.00">carla::traffic_manager</text>
<text text-anchor="middle" x="246.5" y="-56.5" font-family="Helvetica,sans-Serif" font-size="10.00">::LocalizationStage::RemoveActor</text>
</a>
</g>
</g>
<!-- Node1&#45;&gt;Node8 -->
<g id="edge7" class="edge"><title>Node1&#45;&gt;Node8</title>
<path fill="none" stroke="midnightblue" d="M78.057,-147.249C96.1577,-130.822 127.108,-104.968 158,-89.5 162.563,-87.2155 167.367,-85.1095 172.278,-83.1733"/>
<polygon fill="midnightblue" stroke="midnightblue" points="173.649,-86.3985 181.822,-79.657 171.229,-79.8301 173.649,-86.3985"/>
</g>
<!-- Node9 -->
<g id="node9" class="node"><title>Node9</title>
<g id="a_node9"><a xlink:href="../../d1/d26/classcarla_1_1traffic__manager_1_1CollisionStage.html#a5d5ca6bdac732d7326d72417653e07da" target="_top" xlink:title="carla::traffic_manager\l::CollisionStage::RemoveActor">
<polygon fill="white" stroke="black" points="166.5,-0.5 166.5,-30.5 326.5,-30.5 326.5,-0.5 166.5,-0.5"/>
<text text-anchor="start" x="174.5" y="-18.5" font-family="Helvetica,sans-Serif" font-size="10.00">carla::traffic_manager</text>
<text text-anchor="middle" x="246.5" y="-7.5" font-family="Helvetica,sans-Serif" font-size="10.00">::CollisionStage::RemoveActor</text>
</a>
</g>
</g>
<!-- Node1&#45;&gt;Node9 -->
<g id="edge8" class="edge"><title>Node1&#45;&gt;Node9</title>
<path fill="none" stroke="midnightblue" d="M69.8171,-147.227C83.8773,-121.298 115.931,-68.7409 158,-40.5 161.066,-38.4417 164.302,-36.5508 167.651,-34.814"/>
<polygon fill="midnightblue" stroke="midnightblue" points="169.162,-37.9711 176.74,-30.567 166.199,-31.6292 169.162,-37.9711"/>
</g>
<!-- Node3 -->
<g id="node3" class="node"><title>Node3</title>
<g id="a_node3"><a xlink:href="../../d2/d36/classcarla_1_1traffic__manager_1_1TrackTraffic.html#aaa605ab90a2903ac80fae61f3eb5c159" target="_top" xlink:title="carla::traffic_manager\l::TrackTraffic::RemovePassing\lVehicle">
<polygon fill="white" stroke="black" points="371,-289 371,-330 525,-330 525,-289 371,-289"/>
<text text-anchor="start" x="379" y="-318" font-family="Helvetica,sans-Serif" font-size="10.00">carla::traffic_manager</text>
<text text-anchor="start" x="379" y="-307" font-family="Helvetica,sans-Serif" font-size="10.00">::TrackTraffic::RemovePassing</text>
<text text-anchor="middle" x="448" y="-296" font-family="Helvetica,sans-Serif" font-size="10.00">Vehicle</text>
</a>
</g>
</g>
<!-- Node2&#45;&gt;Node3 -->
<g id="edge2" class="edge"><title>Node2&#45;&gt;Node3</title>
<path fill="none" stroke="midnightblue" d="M315.042,-309.5C329.785,-309.5 345.581,-309.5 360.935,-309.5"/>
<polygon fill="midnightblue" stroke="midnightblue" points="360.946,-313 370.946,-309.5 360.946,-306 360.946,-313"/>
</g>
</g>
</svg>
        <g id="navigator" transform="translate(0 0)" fill="#404254">
                <rect fill="#f2f5e9" fill-opacity="0.5" stroke="#606060" stroke-width=".5" x="0" y="0" width="60" height="60"/>
                <use id="zoomplus" xlink:href="#zoomPlus" x="17" y="9" onmousedown="handleZoom(evt,'in')"/>
                <use id="zoomminus" xlink:href="#zoomMin" x="42" y="9" onmousedown="handleZoom(evt,'out')"/>
                <use id="reset" xlink:href="#resetDef" x="30" y="36" onmousedown="handleReset()"/>
                <g id="arrowUp" xlink:href="#dirArrow" transform="translate(30 24)" onmousedown="handlePan(0,-1)">
                  <use xlink:href="#rim" fill="#404040">
                        <set attributeName="fill" to="#808080" begin="arrowUp.mouseover" end="arrowUp.mouseout"/>
                  </use>
                  <path fill="none" stroke="white" stroke-width="1.5" d="M0,-3.0v7 M-2.5,-0.5L0,-3.0L2.5,-0.5"/>
                </g>
                <g id="arrowRight" xlink:href="#dirArrow" transform="rotate(90) translate(36 -43)" onmousedown="handlePan(1,0)">
                  <use xlink:href="#rim" fill="#404040">
                        <set attributeName="fill" to="#808080" begin="arrowRight.mouseover" end="arrowRight.mouseout"/>
                  </use>
                  <path fill="none" stroke="white" stroke-width="1.5" d="M0,-3.0v7 M-2.5,-0.5L0,-3.0L2.5,-0.5"/>
                </g>
                <g id="arrowDown" xlink:href="#dirArrow" transform="rotate(180) translate(-30 -48)" onmousedown="handlePan(0,1)">
                  <use xlink:href="#rim" fill="#404040">
                        <set attributeName="fill" to="#808080" begin="arrowDown.mouseover" end="arrowDown.mouseout"/>
                  </use>
                  <path fill="none" stroke="white" stroke-width="1.5" d="M0,-3.0v7 M-2.5,-0.5L0,-3.0L2.5,-0.5"/>
                </g>
                <g id="arrowLeft" xlink:href="#dirArrow" transform="rotate(270) translate(-36 17)" onmousedown="handlePan(-1,0)">
                  <use xlink:href="#rim" fill="#404040">
                        <set attributeName="fill" to="#808080" begin="arrowLeft.mouseover" end="arrowLeft.mouseout"/>
                  </use>
                  <path fill="none" stroke="white" stroke-width="1.5" d="M0,-3.0v7 M-2.5,-0.5L0,-3.0L2.5,-0.5"/>
                </g>
        </g>
        <svg viewBox="0 0 15 15" width="100%" height="30px" preserveAspectRatio="xMaxYMin meet">
         <g id="arrow_out" transform="scale(0.3 0.3)">
          <a xlink:href="classcarla_1_1traffic__manager_1_1ALSM_a33160b538ce38f9ec4a0942f9fa53d86_cgraph_org.svg" target="_base">
           <rect id="button" ry="5" rx="5" y="6" x="6" height="38" width="38"
                fill="#f2f5e9" fill-opacity="0.5" stroke="#606060" stroke-width="1.0"/>
           <path id="arrow"
             d="M 11.500037,31.436501 C 11.940474,20.09759 22.043105,11.32322 32.158766,21.979434 L 37.068811,17.246167 C 37.068811,17.246167 37.088388,32 37.088388,32 L 22.160133,31.978069 C 22.160133,31.978069 26.997745,27.140456 26.997745,27.140456 C 18.528582,18.264221 13.291696,25.230495 11.500037,31.436501 z"
             style="fill:#404040;"/>
          </a>
         </g>
        </svg>
</svg>
