<?xml version="1.0" encoding="UTF-8" standalone="no"?>
<!DOCTYPE svg PUBLIC "-//W3C//DTD SVG 1.1//EN"
 "http://www.w3.org/Graphics/SVG/1.1/DTD/svg11.dtd">
<!-- Generated by graphviz version 2.43.0 (0)
 -->
<!-- Title: URandomEngine::Seed Pages: 1 -->
<svg width="744pt" height="279pt"
 viewBox="0.00 0.00 744.00 279.00" xmlns="http://www.w3.org/2000/svg" xmlns:xlink="http://www.w3.org/1999/xlink">
<g id="graph0" class="graph" transform="scale(1 1) rotate(0) translate(4 275)">
<title>URandomEngine::Seed</title>
<polygon fill="white" stroke="transparent" points="-4,4 -4,-275 740,-275 740,4 -4,4"/>
<!-- Node1 -->
<g id="node1" class="node">
<title>Node1</title>
<g id="a_node1"><a xlink:title="Seed the random engine.">
<polygon fill="#bfbfbf" stroke="black" points="608,-148 608,-167 736,-167 736,-148 608,-148"/>
<text text-anchor="middle" x="672" y="-155" font-family="Helvetica,sans-Serif" font-size="10.00">URandomEngine::Seed</text>
</a>
</g>
</g>
<!-- Node2 -->
<g id="node2" class="node">
<title>Node2</title>
<g id="a_node2"><a xlink:href="../../dd/dea/classAWheeledVehicleAIController.html#a205c824e9bb6f83e001f36a848bae817" target="_top" xlink:title=" ">
<polygon fill="white" stroke="black" points="408,-240.5 408,-270.5 572,-270.5 572,-240.5 408,-240.5"/>
<text text-anchor="start" x="416" y="-258.5" font-family="Helvetica,sans-Serif" font-size="10.00">AWheeledVehicleAIController</text>
<text text-anchor="middle" x="490" y="-247.5" font-family="Helvetica,sans-Serif" font-size="10.00">::AWheeledVehicleAIController</text>
</a>
</g>
</g>
<!-- Node1&#45;&gt;Node2 -->
<g id="edge1" class="edge">
<title>Node1&#45;&gt;Node2</title>
<path fill="none" stroke="midnightblue" d="M653.33,-173.79C634.47,-190.41 603.08,-215.91 572,-231.5 565.31,-234.85 558.08,-237.82 550.77,-240.43"/>
<polygon fill="midnightblue" stroke="midnightblue" points="655.74,-176.34 660.84,-167.06 651.06,-171.13 655.74,-176.34"/>
</g>
<!-- Node3 -->
<g id="node3" class="node">
<title>Node3</title>
<g id="a_node3"><a xlink:href="../../d2/d2a/classAActorWithRandomEngine.html#a5f3e066000ab66153c417c0d04b67efc" target="_top" xlink:title=" ">
<polygon fill="white" stroke="black" points="417.5,-191.5 417.5,-221.5 562.5,-221.5 562.5,-191.5 417.5,-191.5"/>
<text text-anchor="start" x="425.5" y="-209.5" font-family="Helvetica,sans-Serif" font-size="10.00">AActorWithRandomEngine</text>
<text text-anchor="middle" x="490" y="-198.5" font-family="Helvetica,sans-Serif" font-size="10.00">::GetSeed</text>
</a>
</g>
</g>
<!-- Node1&#45;&gt;Node3 -->
<g id="edge2" class="edge">
<title>Node1&#45;&gt;Node3</title>
<path fill="none" stroke="midnightblue" d="M625.9,-169.78C601.74,-176.35 571.78,-184.51 546.24,-191.46"/>
<polygon fill="midnightblue" stroke="midnightblue" points="627.14,-173.07 635.87,-167.06 625.3,-166.31 627.14,-173.07"/>
</g>
<!-- Node4 -->
<g id="node4" class="node">
<title>Node4</title>
<g id="a_node4"><a xlink:href="../../d2/d2a/classAActorWithRandomEngine.html#a65df107b209f55d7557886a976219655" target="_top" xlink:title=" ">
<polygon fill="white" stroke="black" points="417.5,-142.5 417.5,-172.5 562.5,-172.5 562.5,-142.5 417.5,-142.5"/>
<text text-anchor="start" x="425.5" y="-160.5" font-family="Helvetica,sans-Serif" font-size="10.00">AActorWithRandomEngine</text>
<text text-anchor="middle" x="490" y="-149.5" font-family="Helvetica,sans-Serif" font-size="10.00">::OnConstruction</text>
</a>
</g>
</g>
<!-- Node1&#45;&gt;Node4 -->
<g id="edge3" class="edge">
<title>Node1&#45;&gt;Node4</title>
<path fill="none" stroke="midnightblue" d="M597.74,-157.5C586.16,-157.5 574.2,-157.5 562.67,-157.5"/>
<polygon fill="midnightblue" stroke="midnightblue" points="597.79,-161 607.79,-157.5 597.79,-154 597.79,-161"/>
</g>
<!-- Node5 -->
<g id="node5" class="node">
<title>Node5</title>
<g id="a_node5"><a xlink:href="../../d2/d2a/classAActorWithRandomEngine.html#acf1bbccb589a72e3e5de4a9c4fa25052" target="_top" xlink:title=" ">
<polygon fill="white" stroke="black" points="417.5,-93.5 417.5,-123.5 562.5,-123.5 562.5,-93.5 417.5,-93.5"/>
<text text-anchor="start" x="425.5" y="-111.5" font-family="Helvetica,sans-Serif" font-size="10.00">AActorWithRandomEngine</text>
<text text-anchor="middle" x="490" y="-100.5" font-family="Helvetica,sans-Serif" font-size="10.00">::SetSeed</text>
</a>
</g>
</g>
<!-- Node1&#45;&gt;Node5 -->
<g id="edge4" class="edge">
<title>Node1&#45;&gt;Node5</title>
<path fill="none" stroke="midnightblue" d="M625.9,-145.22C601.74,-138.65 571.78,-130.49 546.24,-123.54"/>
<polygon fill="midnightblue" stroke="midnightblue" points="625.3,-148.69 635.87,-147.94 627.14,-141.93 625.3,-148.69"/>
</g>
<!-- Node6 -->
<g id="node6" class="node">
<title>Node6</title>
<g id="a_node6"><a xlink:href="../../d3/d01/classASensor.html#afced2ac412dc1ef1a5c99e65e14f7340" target="_top" xlink:title=" ">
<polygon fill="white" stroke="black" points="439,-55 439,-74 541,-74 541,-55 439,-55"/>
<text text-anchor="middle" x="490" y="-62" font-family="Helvetica,sans-Serif" font-size="10.00">ASensor::SetSeed</text>
</a>
</g>
</g>
<!-- Node1&#45;&gt;Node6 -->
<g id="edge5" class="edge">
<title>Node1&#45;&gt;Node6</title>
<path fill="none" stroke="midnightblue" d="M653.43,-141.15C634.65,-124.53 603.32,-99.2 572,-84.5 562.43,-80.01 551.73,-76.45 541.32,-73.66"/>
<polygon fill="midnightblue" stroke="midnightblue" points="651.14,-143.79 660.91,-147.9 655.83,-138.6 651.14,-143.79"/>
</g>
<!-- Node7 -->
<g id="node7" class="node">
<title>Node7</title>
<g id="a_node7"><a xlink:href="../../d5/de4/classARayCastLidar.html#aabb2a28534e8f8acf349edee1baa312c" target="_top" xlink:title=" ">
<polygon fill="white" stroke="black" points="205,-99 205,-118 370,-118 370,-99 205,-99"/>
<text text-anchor="middle" x="287.5" y="-106" font-family="Helvetica,sans-Serif" font-size="10.00">ARayCastLidar::ARayCastLidar</text>
</a>
</g>
</g>
<!-- Node6&#45;&gt;Node7 -->
<g id="edge6" class="edge">
<title>Node6&#45;&gt;Node7</title>
<path fill="none" stroke="midnightblue" d="M435.72,-76.19C403.29,-83.31 362.38,-92.29 331.92,-98.97"/>
<polygon fill="midnightblue" stroke="midnightblue" points="436.48,-79.61 445.49,-74.05 434.98,-72.77 436.48,-79.61"/>
</g>
<!-- Node8 -->
<g id="node8" class="node">
<title>Node8</title>
<g id="a_node8"><a xlink:href="../../dd/da3/classUActorBlueprintFunctionLibrary.html#a064afaa3154f81c475048ff14f699486" target="_top" xlink:title=" ">
<polygon fill="white" stroke="black" points="203,-49.5 203,-79.5 372,-79.5 372,-49.5 203,-49.5"/>
<text text-anchor="start" x="211" y="-67.5" font-family="Helvetica,sans-Serif" font-size="10.00">UActorBlueprintFunctionLibrary</text>
<text text-anchor="middle" x="287.5" y="-56.5" font-family="Helvetica,sans-Serif" font-size="10.00">::SetGnss</text>
</a>
</g>
</g>
<!-- Node6&#45;&gt;Node8 -->
<g id="edge7" class="edge">
<title>Node6&#45;&gt;Node8</title>
<path fill="none" stroke="midnightblue" d="M428.72,-64.5C410.95,-64.5 391.18,-64.5 372.23,-64.5"/>
<polygon fill="midnightblue" stroke="midnightblue" points="428.92,-68 438.92,-64.5 428.92,-61 428.92,-68"/>
</g>
<!-- Node10 -->
<g id="node10" class="node">
<title>Node10</title>
<g id="a_node10"><a xlink:href="../../dd/da3/classUActorBlueprintFunctionLibrary.html#affa8a0128f536d34d052c54c93ff3629" target="_top" xlink:title=" ">
<polygon fill="white" stroke="black" points="203,-0.5 203,-30.5 372,-30.5 372,-0.5 203,-0.5"/>
<text text-anchor="start" x="211" y="-18.5" font-family="Helvetica,sans-Serif" font-size="10.00">UActorBlueprintFunctionLibrary</text>
<text text-anchor="middle" x="287.5" y="-7.5" font-family="Helvetica,sans-Serif" font-size="10.00">::SetIMU</text>
</a>
</g>
</g>
<!-- Node6&#45;&gt;Node10 -->
<g id="edge9" class="edge">
<title>Node6&#45;&gt;Node10</title>
<path fill="none" stroke="midnightblue" d="M439.84,-52.49C412.75,-45.86 378.86,-37.58 350.03,-30.54"/>
<polygon fill="midnightblue" stroke="midnightblue" points="439.32,-55.96 449.87,-54.94 440.98,-49.16 439.32,-55.96"/>
</g>
<!-- Node9 -->
<g id="node9" class="node">
<title>Node9</title>
<g id="a_node9"><a xlink:href="../../d0/dc3/classAGnssSensor.html#a9670365d4f5626a4ea8ae5617556e8ef" target="_top" xlink:title=" ">
<polygon fill="white" stroke="black" points="32.5,-55 32.5,-74 134.5,-74 134.5,-55 32.5,-55"/>
<text text-anchor="middle" x="83.5" y="-62" font-family="Helvetica,sans-Serif" font-size="10.00">AGnssSensor::Set</text>
</a>
</g>
</g>
<!-- Node8&#45;&gt;Node9 -->
<g id="edge8" class="edge">
<title>Node8&#45;&gt;Node9</title>
<path fill="none" stroke="midnightblue" d="M192.75,-64.5C172.65,-64.5 152.18,-64.5 134.52,-64.5"/>
<polygon fill="midnightblue" stroke="midnightblue" points="192.88,-68 202.88,-64.5 192.88,-61 192.88,-68"/>
</g>
<!-- Node11 -->
<g id="node11" class="node">
<title>Node11</title>
<g id="a_node11"><a xlink:href="../../d5/de0/classAInertialMeasurementUnit.html#ac0fd1f47876962647b54b8607a5c4414" target="_top" xlink:title=" ">
<polygon fill="white" stroke="black" points="0,-6 0,-25 167,-25 167,-6 0,-6"/>
<text text-anchor="middle" x="83.5" y="-13" font-family="Helvetica,sans-Serif" font-size="10.00">AInertialMeasurementUnit::Set</text>
</a>
</g>
</g>
<!-- Node10&#45;&gt;Node11 -->
<g id="edge10" class="edge">
<title>Node10&#45;&gt;Node11</title>
<path fill="none" stroke="midnightblue" d="M192.84,-15.5C184.24,-15.5 175.57,-15.5 167.08,-15.5"/>
<polygon fill="midnightblue" stroke="midnightblue" points="192.88,-19 202.88,-15.5 192.88,-12 192.88,-19"/>
</g>
</g>
</svg>
