<?xml version="1.0" encoding="UTF-8" standalone="no"?>
<!DOCTYPE svg PUBLIC "-//W3C//DTD SVG 1.1//EN"
 "http://www.w3.org/Graphics/SVG/1.1/DTD/svg11.dtd">
<!-- Generated by graphviz version 2.38.0 (20140413.2041)
 -->
<!-- Title: ActorBlueprintFunctionLibrary.h Pages: 1 -->
<svg width="1957pt" height="341pt"
 viewBox="0.00 0.00 1957.00 341.00" xmlns="http://www.w3.org/2000/svg" xmlns:xlink="http://www.w3.org/1999/xlink">
<g id="graph0" class="graph" transform="scale(1 1) rotate(0) translate(4 337)">
<title>ActorBlueprintFunctionLibrary.h</title>
<polygon fill="white" stroke="none" points="-4,4 -4,-337 1953,-337 1953,4 -4,4"/>
<!-- Node1 -->
<g id="node1" class="node"><title>Node1</title>
<polygon fill="#bfbfbf" stroke="black" points="952.5,-313.5 952.5,-332.5 1105.5,-332.5 1105.5,-313.5 952.5,-313.5"/>
<text text-anchor="middle" x="1029" y="-320.5" font-family="Helvetica,sans-Serif" font-size="10.00">ActorBlueprintFunctionLibrary.h</text>
</g>
<!-- Node2 -->
<g id="node2" class="node"><title>Node2</title>
<g id="a_node2"><a xlink:href="../../d0/d65/Unreal_2CarlaUE4_2Plugins_2Carla_2Source_2Carla_2Actor_2ActorDefinition_8h.html" target="_top" xlink:title="Carla/Actor/ActorDefinition.h">
<polygon fill="white" stroke="black" points="215,-252 215,-271 357,-271 357,-252 215,-252"/>
<text text-anchor="middle" x="286" y="-259" font-family="Helvetica,sans-Serif" font-size="10.00">Carla/Actor/ActorDefinition.h</text>
</a>
</g>
</g>
<!-- Node1&#45;&gt;Node2 -->
<g id="edge1" class="edge"><title>Node1&#45;&gt;Node2</title>
<path fill="none" stroke="midnightblue" d="M952.252,-316.57C839.801,-308.516 623.676,-292.662 440,-277 416.459,-274.993 390.909,-272.652 367.513,-270.445"/>
<polygon fill="midnightblue" stroke="midnightblue" points="367.566,-266.935 357.281,-269.476 366.906,-273.903 367.566,-266.935"/>
</g>
<!-- Node15 -->
<g id="node15" class="node"><title>Node15</title>
<g id="a_node15"><a xlink:href="../../d4/de6/Unreal_2CarlaUE4_2Plugins_2Carla_2Source_2Carla_2Actor_2ActorDescription_8h.html" target="_top" xlink:title="Carla/Actor/ActorDescription.h">
<polygon fill="white" stroke="black" points="449,-252 449,-271 599,-271 599,-252 449,-252"/>
<text text-anchor="middle" x="524" y="-259" font-family="Helvetica,sans-Serif" font-size="10.00">Carla/Actor/ActorDescription.h</text>
</a>
</g>
</g>
<!-- Node1&#45;&gt;Node15 -->
<g id="edge14" class="edge"><title>Node1&#45;&gt;Node15</title>
<path fill="none" stroke="midnightblue" d="M956.646,-313.475C863.927,-302.551 703.586,-283.659 606.305,-272.197"/>
<polygon fill="midnightblue" stroke="midnightblue" points="606.561,-268.703 596.22,-271.009 605.742,-275.655 606.561,-268.703"/>
</g>
<!-- Node17 -->
<g id="node17" class="node"><title>Node17</title>
<g id="a_node17"><a xlink:href="../../d5/dca/PedestrianParameters_8h.html" target="_top" xlink:title="Carla/Actor/PedestrianParameters.h">
<polygon fill="white" stroke="black" points="763,-252 763,-271 937,-271 937,-252 763,-252"/>
<text text-anchor="middle" x="850" y="-259" font-family="Helvetica,sans-Serif" font-size="10.00">Carla/Actor/PedestrianParameters.h</text>
</a>
</g>
</g>
<!-- Node1&#45;&gt;Node17 -->
<g id="edge17" class="edge"><title>Node1&#45;&gt;Node17</title>
<path fill="none" stroke="midnightblue" d="M1003.35,-313.475C972.383,-303.18 920.127,-285.81 885.349,-274.25"/>
<polygon fill="midnightblue" stroke="midnightblue" points="886.192,-270.842 875.599,-271.009 883.984,-277.485 886.192,-270.842"/>
</g>
<!-- Node20 -->
<g id="node20" class="node"><title>Node20</title>
<g id="a_node20"><a xlink:href="../../dc/d01/PropParameters_8h.html" target="_top" xlink:title="Carla/Actor/PropParameters.h">
<polygon fill="white" stroke="black" points="955,-252 955,-271 1103,-271 1103,-252 955,-252"/>
<text text-anchor="middle" x="1029" y="-259" font-family="Helvetica,sans-Serif" font-size="10.00">Carla/Actor/PropParameters.h</text>
</a>
</g>
</g>
<!-- Node1&#45;&gt;Node20 -->
<g id="edge20" class="edge"><title>Node1&#45;&gt;Node20</title>
<path fill="none" stroke="midnightblue" d="M1029,-313.475C1029,-305.08 1029,-291.981 1029,-281.163"/>
<polygon fill="midnightblue" stroke="midnightblue" points="1032.5,-281.009 1029,-271.009 1025.5,-281.009 1032.5,-281.009"/>
</g>
<!-- Node23 -->
<g id="node23" class="node"><title>Node23</title>
<g id="a_node23"><a xlink:href="../../d1/d1b/VehicleParameters_8h.html" target="_top" xlink:title="Carla/Actor/VehicleParameters.h">
<polygon fill="white" stroke="black" points="1121,-252 1121,-271 1281,-271 1281,-252 1121,-252"/>
<text text-anchor="middle" x="1201" y="-259" font-family="Helvetica,sans-Serif" font-size="10.00">Carla/Actor/VehicleParameters.h</text>
</a>
</g>
</g>
<!-- Node1&#45;&gt;Node23 -->
<g id="edge23" class="edge"><title>Node1&#45;&gt;Node23</title>
<path fill="none" stroke="midnightblue" d="M1053.64,-313.475C1083.28,-303.225 1133.18,-285.959 1166.6,-274.399"/>
<polygon fill="midnightblue" stroke="midnightblue" points="1168.1,-277.586 1176.4,-271.009 1165.81,-270.971 1168.1,-277.586"/>
</g>
<!-- Node41 -->
<g id="node41" class="node"><title>Node41</title>
<polygon fill="white" stroke="#bfbfbf" points="1299,-246.5 1299,-276.5 1425,-276.5 1425,-246.5 1299,-246.5"/>
<text text-anchor="start" x="1307" y="-264.5" font-family="Helvetica,sans-Serif" font-size="10.00">Kismet/BlueprintFunction</text>
<text text-anchor="middle" x="1362" y="-253.5" font-family="Helvetica,sans-Serif" font-size="10.00">Library.h</text>
</g>
<!-- Node1&#45;&gt;Node41 -->
<g id="edge41" class="edge"><title>Node1&#45;&gt;Node41</title>
<path fill="none" stroke="midnightblue" d="M1081.07,-313.463C1131.65,-305.072 1210.85,-291.669 1288.81,-277.194"/>
<polygon fill="midnightblue" stroke="midnightblue" points="1289.61,-280.605 1298.8,-275.331 1288.33,-273.723 1289.61,-280.605"/>
</g>
<!-- Node42 -->
<g id="node42" class="node"><title>Node42</title>
<polygon fill="white" stroke="#bfbfbf" points="1443.5,-252 1443.5,-271 1642.5,-271 1642.5,-252 1443.5,-252"/>
<text text-anchor="middle" x="1543" y="-259" font-family="Helvetica,sans-Serif" font-size="10.00">ActorBlueprintFunctionLibrary.generated.h</text>
</g>
<!-- Node1&#45;&gt;Node42 -->
<g id="edge42" class="edge"><title>Node1&#45;&gt;Node42</title>
<path fill="none" stroke="midnightblue" d="M1105.57,-313.99C1187.05,-305.35 1319.71,-290.95 1434,-277 1445.84,-275.554 1458.4,-273.95 1470.62,-272.352"/>
<polygon fill="midnightblue" stroke="midnightblue" points="1471.32,-275.789 1480.78,-271.013 1470.41,-268.849 1471.32,-275.789"/>
</g>
<!-- Node3 -->
<g id="node3" class="node"><title>Node3</title>
<g id="a_node3"><a xlink:href="../../d6/d1a/Unreal_2CarlaUE4_2Plugins_2Carla_2Source_2Carla_2Actor_2ActorAttribute_8h.html" target="_top" xlink:title="Carla/Actor/ActorAttribute.h">
<polygon fill="white" stroke="black" points="297.5,-185 297.5,-204 434.5,-204 434.5,-185 297.5,-185"/>
<text text-anchor="middle" x="366" y="-192" font-family="Helvetica,sans-Serif" font-size="10.00">Carla/Actor/ActorAttribute.h</text>
</a>
</g>
</g>
<!-- Node2&#45;&gt;Node3 -->
<g id="edge2" class="edge"><title>Node2&#45;&gt;Node3</title>
<path fill="none" stroke="midnightblue" d="M296.789,-251.734C309.744,-241.208 331.687,-223.379 347.394,-210.617"/>
<polygon fill="midnightblue" stroke="midnightblue" points="349.828,-213.15 355.382,-204.127 345.414,-207.717 349.828,-213.15"/>
</g>
<!-- Node13 -->
<g id="node13" class="node"><title>Node13</title>
<polygon fill="white" stroke="#bfbfbf" points="0,-185 0,-204 126,-204 126,-185 0,-185"/>
<text text-anchor="middle" x="63" y="-192" font-family="Helvetica,sans-Serif" font-size="10.00">GameFramework/Actor.h</text>
</g>
<!-- Node2&#45;&gt;Node13 -->
<g id="edge12" class="edge"><title>Node2&#45;&gt;Node13</title>
<path fill="none" stroke="midnightblue" d="M256.387,-251.869C216.708,-240.303 146.193,-219.749 102.16,-206.914"/>
<polygon fill="midnightblue" stroke="midnightblue" points="102.96,-203.502 92.38,-204.064 101.001,-210.222 102.96,-203.502"/>
</g>
<!-- Node14 -->
<g id="node14" class="node"><title>Node14</title>
<polygon fill="white" stroke="#bfbfbf" points="144.5,-185 144.5,-204 279.5,-204 279.5,-185 144.5,-185"/>
<text text-anchor="middle" x="212" y="-192" font-family="Helvetica,sans-Serif" font-size="10.00">ActorDefinition.generated.h</text>
</g>
<!-- Node2&#45;&gt;Node14 -->
<g id="edge13" class="edge"><title>Node2&#45;&gt;Node14</title>
<path fill="none" stroke="midnightblue" d="M276.02,-251.734C264.148,-241.305 244.115,-223.709 229.616,-210.973"/>
<polygon fill="midnightblue" stroke="midnightblue" points="231.645,-208.097 221.822,-204.127 227.025,-213.356 231.645,-208.097"/>
</g>
<!-- Node4 -->
<g id="node4" class="node"><title>Node4</title>
<g id="a_node4"><a xlink:href="../../d2/d02/disable-ue4-macros_8h.html" target="_top" xlink:title="compiler/disable&#45;ue4\l&#45;macros.h">
<polygon fill="white" stroke="black" points="136,-112.5 136,-142.5 242,-142.5 242,-112.5 136,-112.5"/>
<text text-anchor="start" x="144" y="-130.5" font-family="Helvetica,sans-Serif" font-size="10.00">compiler/disable&#45;ue4</text>
<text text-anchor="middle" x="189" y="-119.5" font-family="Helvetica,sans-Serif" font-size="10.00">&#45;macros.h</text>
</a>
</g>
</g>
<!-- Node3&#45;&gt;Node4 -->
<g id="edge3" class="edge"><title>Node3&#45;&gt;Node4</title>
<path fill="none" stroke="midnightblue" d="M342.496,-184.869C315.706,-175.031 271.208,-158.689 237.002,-146.128"/>
<polygon fill="midnightblue" stroke="midnightblue" points="237.793,-142.69 227.2,-142.528 235.38,-149.261 237.793,-142.69"/>
</g>
<!-- Node9 -->
<g id="node9" class="node"><title>Node9</title>
<g id="a_node9"><a xlink:href="../../d8/d81/ActorAttributeType_8h.html" target="_top" xlink:title="carla/rpc/ActorAttribute\lType.h">
<polygon fill="white" stroke="black" points="260.5,-112.5 260.5,-142.5 377.5,-142.5 377.5,-112.5 260.5,-112.5"/>
<text text-anchor="start" x="268.5" y="-130.5" font-family="Helvetica,sans-Serif" font-size="10.00">carla/rpc/ActorAttribute</text>
<text text-anchor="middle" x="319" y="-119.5" font-family="Helvetica,sans-Serif" font-size="10.00">Type.h</text>
</a>
</g>
</g>
<!-- Node3&#45;&gt;Node9 -->
<g id="edge8" class="edge"><title>Node3&#45;&gt;Node9</title>
<path fill="none" stroke="midnightblue" d="M359.661,-184.734C353.432,-176.118 343.664,-162.61 335.264,-150.992"/>
<polygon fill="midnightblue" stroke="midnightblue" points="337.883,-148.642 329.187,-142.589 332.211,-152.743 337.883,-148.642"/>
</g>
<!-- Node11 -->
<g id="node11" class="node"><title>Node11</title>
<g id="a_node11"><a xlink:href="../../d9/da2/enable-ue4-macros_8h.html" target="_top" xlink:title="compiler/enable&#45;ue4\l&#45;macros.h">
<polygon fill="white" stroke="black" points="396,-112.5 396,-142.5 500,-142.5 500,-112.5 396,-112.5"/>
<text text-anchor="start" x="404" y="-130.5" font-family="Helvetica,sans-Serif" font-size="10.00">compiler/enable&#45;ue4</text>
<text text-anchor="middle" x="448" y="-119.5" font-family="Helvetica,sans-Serif" font-size="10.00">&#45;macros.h</text>
</a>
</g>
</g>
<!-- Node3&#45;&gt;Node11 -->
<g id="edge10" class="edge"><title>Node3&#45;&gt;Node11</title>
<path fill="none" stroke="midnightblue" d="M377.059,-184.734C388.567,-175.611 406.995,-161.004 422.185,-148.963"/>
<polygon fill="midnightblue" stroke="midnightblue" points="424.564,-151.544 430.226,-142.589 420.215,-146.058 424.564,-151.544"/>
</g>
<!-- Node12 -->
<g id="node12" class="node"><title>Node12</title>
<polygon fill="white" stroke="#bfbfbf" points="518.5,-118 518.5,-137 649.5,-137 649.5,-118 518.5,-118"/>
<text text-anchor="middle" x="584" y="-125" font-family="Helvetica,sans-Serif" font-size="10.00">ActorAttribute.generated.h</text>
</g>
<!-- Node3&#45;&gt;Node12 -->
<g id="edge11" class="edge"><title>Node3&#45;&gt;Node12</title>
<path fill="none" stroke="midnightblue" d="M394.949,-184.869C433.657,-173.327 502.383,-152.835 545.445,-139.996"/>
<polygon fill="midnightblue" stroke="midnightblue" points="546.696,-143.275 555.279,-137.064 544.696,-136.567 546.696,-143.275"/>
</g>
<!-- Node5 -->
<g id="node5" class="node"><title>Node5</title>
<g id="a_node5"><a xlink:href="../../d7/d7d/Carla_8h.html" target="_top" xlink:title="Carla.h">
<polygon fill="white" stroke="black" points="165,-56.5 165,-75.5 213,-75.5 213,-56.5 165,-56.5"/>
<text text-anchor="middle" x="189" y="-63.5" font-family="Helvetica,sans-Serif" font-size="10.00">Carla.h</text>
</a>
</g>
</g>
<!-- Node4&#45;&gt;Node5 -->
<g id="edge4" class="edge"><title>Node4&#45;&gt;Node5</title>
<path fill="none" stroke="midnightblue" d="M189,-112.399C189,-104.466 189,-94.458 189,-85.8583"/>
<polygon fill="midnightblue" stroke="midnightblue" points="192.5,-85.6577 189,-75.6578 185.5,-85.6578 192.5,-85.6577"/>
</g>
<!-- Node6 -->
<g id="node6" class="node"><title>Node6</title>
<g id="a_node6"><a xlink:href="../../d4/d57/Unreal_2CarlaUE4_2Plugins_2Carla_2Source_2Carla_2Util_2NonCopyable_8h.html" target="_top" xlink:title="Util/NonCopyable.h">
<polygon fill="white" stroke="black" points="14,-0.5 14,-19.5 116,-19.5 116,-0.5 14,-0.5"/>
<text text-anchor="middle" x="65" y="-7.5" font-family="Helvetica,sans-Serif" font-size="10.00">Util/NonCopyable.h</text>
</a>
</g>
</g>
<!-- Node5&#45;&gt;Node6 -->
<g id="edge5" class="edge"><title>Node5&#45;&gt;Node6</title>
<path fill="none" stroke="midnightblue" d="M169.352,-56.4435C149.035,-47.5961 117.097,-33.6875 93.9023,-23.5865"/>
<polygon fill="midnightblue" stroke="midnightblue" points="95.1221,-20.3002 84.5562,-19.5164 92.3271,-26.7181 95.1221,-20.3002"/>
</g>
<!-- Node7 -->
<g id="node7" class="node"><title>Node7</title>
<polygon fill="white" stroke="#bfbfbf" points="134,-0.5 134,-19.5 244,-19.5 244,-0.5 134,-0.5"/>
<text text-anchor="middle" x="189" y="-7.5" font-family="Helvetica,sans-Serif" font-size="10.00">Logging/LogMacros.h</text>
</g>
<!-- Node5&#45;&gt;Node7 -->
<g id="edge6" class="edge"><title>Node5&#45;&gt;Node7</title>
<path fill="none" stroke="midnightblue" d="M189,-56.083C189,-49.0059 189,-38.8611 189,-29.9865"/>
<polygon fill="midnightblue" stroke="midnightblue" points="192.5,-29.751 189,-19.7511 185.5,-29.7511 192.5,-29.751"/>
</g>
<!-- Node8 -->
<g id="node8" class="node"><title>Node8</title>
<polygon fill="white" stroke="#bfbfbf" points="262,-0.5 262,-19.5 396,-19.5 396,-0.5 262,-0.5"/>
<text text-anchor="middle" x="329" y="-7.5" font-family="Helvetica,sans-Serif" font-size="10.00">Modules/ModuleInterface.h</text>
</g>
<!-- Node5&#45;&gt;Node8 -->
<g id="edge7" class="edge"><title>Node5&#45;&gt;Node8</title>
<path fill="none" stroke="midnightblue" d="M211.183,-56.4435C234.428,-47.4776 271.149,-33.314 297.415,-23.1827"/>
<polygon fill="midnightblue" stroke="midnightblue" points="298.85,-26.3807 306.92,-19.5164 296.331,-19.8497 298.85,-26.3807"/>
</g>
<!-- Node10 -->
<g id="node10" class="node"><title>Node10</title>
<polygon fill="white" stroke="#bfbfbf" points="296,-56.5 296,-75.5 342,-75.5 342,-56.5 296,-56.5"/>
<text text-anchor="middle" x="319" y="-63.5" font-family="Helvetica,sans-Serif" font-size="10.00">cstdint</text>
</g>
<!-- Node9&#45;&gt;Node10 -->
<g id="edge9" class="edge"><title>Node9&#45;&gt;Node10</title>
<path fill="none" stroke="midnightblue" d="M319,-112.399C319,-104.466 319,-94.458 319,-85.8583"/>
<polygon fill="midnightblue" stroke="midnightblue" points="322.5,-85.6577 319,-75.6578 315.5,-85.6578 322.5,-85.6577"/>
</g>
<!-- Node15&#45;&gt;Node3 -->
<g id="edge15" class="edge"><title>Node15&#45;&gt;Node3</title>
<path fill="none" stroke="midnightblue" d="M503.019,-251.869C475.75,-240.65 427.928,-220.977 396.609,-208.092"/>
<polygon fill="midnightblue" stroke="midnightblue" points="397.648,-204.735 387.068,-204.167 394.984,-211.209 397.648,-204.735"/>
</g>
<!-- Node16 -->
<g id="node16" class="node"><title>Node16</title>
<polygon fill="white" stroke="#bfbfbf" points="452.5,-185 452.5,-204 595.5,-204 595.5,-185 452.5,-185"/>
<text text-anchor="middle" x="524" y="-192" font-family="Helvetica,sans-Serif" font-size="10.00">ActorDescription.generated.h</text>
</g>
<!-- Node15&#45;&gt;Node16 -->
<g id="edge16" class="edge"><title>Node15&#45;&gt;Node16</title>
<path fill="none" stroke="midnightblue" d="M524,-251.734C524,-242.183 524,-226.618 524,-214.283"/>
<polygon fill="midnightblue" stroke="midnightblue" points="527.5,-214.127 524,-204.127 520.5,-214.127 527.5,-214.127"/>
</g>
<!-- Node18 -->
<g id="node18" class="node"><title>Node18</title>
<polygon fill="white" stroke="#bfbfbf" points="614,-185 614,-204 760,-204 760,-185 614,-185"/>
<text text-anchor="middle" x="687" y="-192" font-family="Helvetica,sans-Serif" font-size="10.00">GameFramework/Character.h</text>
</g>
<!-- Node17&#45;&gt;Node18 -->
<g id="edge18" class="edge"><title>Node17&#45;&gt;Node18</title>
<path fill="none" stroke="midnightblue" d="M828.355,-251.869C800.023,-240.571 750.184,-220.696 717.891,-207.818"/>
<polygon fill="midnightblue" stroke="midnightblue" points="719.06,-204.517 708.475,-204.064 716.467,-211.019 719.06,-204.517"/>
</g>
<!-- Node19 -->
<g id="node19" class="node"><title>Node19</title>
<polygon fill="white" stroke="#bfbfbf" points="778.5,-185 778.5,-204 945.5,-204 945.5,-185 778.5,-185"/>
<text text-anchor="middle" x="862" y="-192" font-family="Helvetica,sans-Serif" font-size="10.00">PedestrianParameters.generated.h</text>
</g>
<!-- Node17&#45;&gt;Node19 -->
<g id="edge19" class="edge"><title>Node17&#45;&gt;Node19</title>
<path fill="none" stroke="midnightblue" d="M851.618,-251.734C853.382,-242.183 856.255,-226.618 858.532,-214.283"/>
<polygon fill="midnightblue" stroke="midnightblue" points="862.034,-214.597 860.407,-204.127 855.15,-213.326 862.034,-214.597"/>
</g>
<!-- Node21 -->
<g id="node21" class="node"><title>Node21</title>
<polygon fill="white" stroke="#bfbfbf" points="963.5,-185 963.5,-204 1070.5,-204 1070.5,-185 963.5,-185"/>
<text text-anchor="middle" x="1017" y="-192" font-family="Helvetica,sans-Serif" font-size="10.00">Engine/StaticMesh.h</text>
</g>
<!-- Node20&#45;&gt;Node21 -->
<g id="edge21" class="edge"><title>Node20&#45;&gt;Node21</title>
<path fill="none" stroke="midnightblue" d="M1027.38,-251.734C1025.62,-242.183 1022.74,-226.618 1020.47,-214.283"/>
<polygon fill="midnightblue" stroke="midnightblue" points="1023.85,-213.326 1018.59,-204.127 1016.97,-214.597 1023.85,-213.326"/>
</g>
<!-- Node22 -->
<g id="node22" class="node"><title>Node22</title>
<polygon fill="white" stroke="#bfbfbf" points="1088.5,-185 1088.5,-204 1229.5,-204 1229.5,-185 1088.5,-185"/>
<text text-anchor="middle" x="1159" y="-192" font-family="Helvetica,sans-Serif" font-size="10.00">PropParameters.generated.h</text>
</g>
<!-- Node20&#45;&gt;Node22 -->
<g id="edge22" class="edge"><title>Node20&#45;&gt;Node22</title>
<path fill="none" stroke="midnightblue" d="M1046.26,-251.869C1068.31,-240.845 1106.69,-221.655 1132.46,-208.768"/>
<polygon fill="midnightblue" stroke="midnightblue" points="1134.29,-211.77 1141.67,-204.167 1131.16,-205.509 1134.29,-211.77"/>
</g>
<!-- Node24 -->
<g id="node24" class="node"><title>Node24</title>
<g id="a_node24"><a xlink:href="../../d3/d00/CarlaWheeledVehicle_8h.html" target="_top" xlink:title="Carla/Vehicle/CarlaWheeled\lVehicle.h">
<polygon fill="white" stroke="black" points="1248,-179.5 1248,-209.5 1388,-209.5 1388,-179.5 1248,-179.5"/>
<text text-anchor="start" x="1256" y="-197.5" font-family="Helvetica,sans-Serif" font-size="10.00">Carla/Vehicle/CarlaWheeled</text>
<text text-anchor="middle" x="1318" y="-186.5" font-family="Helvetica,sans-Serif" font-size="10.00">Vehicle.h</text>
</a>
</g>
</g>
<!-- Node23&#45;&gt;Node24 -->
<g id="edge24" class="edge"><title>Node23&#45;&gt;Node24</title>
<path fill="none" stroke="midnightblue" d="M1216.78,-251.734C1233.88,-242.231 1261.7,-226.777 1283.85,-214.472"/>
<polygon fill="midnightblue" stroke="midnightblue" points="1285.6,-217.505 1292.64,-209.589 1282.2,-211.386 1285.6,-217.505"/>
</g>
<!-- Node40 -->
<g id="node40" class="node"><title>Node40</title>
<polygon fill="white" stroke="#bfbfbf" points="1406.5,-185 1406.5,-204 1559.5,-204 1559.5,-185 1406.5,-185"/>
<text text-anchor="middle" x="1483" y="-192" font-family="Helvetica,sans-Serif" font-size="10.00">VehicleParameters.generated.h</text>
</g>
<!-- Node23&#45;&gt;Node40 -->
<g id="edge40" class="edge"><title>Node23&#45;&gt;Node40</title>
<path fill="none" stroke="midnightblue" d="M1238.16,-251.936C1288.98,-240.22 1380.21,-219.193 1435.81,-206.377"/>
<polygon fill="midnightblue" stroke="midnightblue" points="1436.8,-209.74 1445.76,-204.083 1435.23,-202.919 1436.8,-209.74"/>
</g>
<!-- Node25 -->
<g id="node25" class="node"><title>Node25</title>
<polygon fill="white" stroke="#bfbfbf" points="702.5,-118 702.5,-137 797.5,-137 797.5,-118 702.5,-118"/>
<text text-anchor="middle" x="750" y="-125" font-family="Helvetica,sans-Serif" font-size="10.00">WheeledVehicle.h</text>
</g>
<!-- Node24&#45;&gt;Node25 -->
<g id="edge25" class="edge"><title>Node24&#45;&gt;Node25</title>
<path fill="none" stroke="midnightblue" d="M1247.82,-180.387C1244.5,-179.891 1241.22,-179.425 1238,-179 1047.43,-153.83 996.573,-174.804 807,-143 801.398,-142.06 795.54,-140.844 789.801,-139.517"/>
<polygon fill="midnightblue" stroke="midnightblue" points="790.225,-136.017 779.68,-137.041 788.562,-142.817 790.225,-136.017"/>
</g>
<!-- Node26 -->
<g id="node26" class="node"><title>Node26</title>
<g id="a_node26"><a xlink:href="../../d7/dab/CarlaWheeledVehicleState_8h.html" target="_top" xlink:title="Vehicle/CarlaWheeledVehicle\lState.h">
<polygon fill="white" stroke="black" points="816,-112.5 816,-142.5 962,-142.5 962,-112.5 816,-112.5"/>
<text text-anchor="start" x="824" y="-130.5" font-family="Helvetica,sans-Serif" font-size="10.00">Vehicle/CarlaWheeledVehicle</text>
<text text-anchor="middle" x="889" y="-119.5" font-family="Helvetica,sans-Serif" font-size="10.00">State.h</text>
</a>
</g>
</g>
<!-- Node24&#45;&gt;Node26 -->
<g id="edge26" class="edge"><title>Node24&#45;&gt;Node26</title>
<path fill="none" stroke="midnightblue" d="M1247.79,-180.589C1244.48,-180.039 1241.21,-179.507 1238,-179 1122.96,-160.829 1091.04,-161.383 972.5,-143.193"/>
<polygon fill="midnightblue" stroke="midnightblue" points="972.71,-139.684 962.293,-141.614 971.64,-146.602 972.71,-139.684"/>
</g>
<!-- Node28 -->
<g id="node28" class="node"><title>Node28</title>
<g id="a_node28"><a xlink:href="../../d4/dbd/Unreal_2CarlaUE4_2Plugins_2Carla_2Source_2Carla_2Vehicle_2VehicleControl_8h.html" target="_top" xlink:title="Vehicle/VehicleControl.h">
<polygon fill="white" stroke="black" points="980,-118 980,-137 1104,-137 1104,-118 980,-118"/>
<text text-anchor="middle" x="1042" y="-125" font-family="Helvetica,sans-Serif" font-size="10.00">Vehicle/VehicleControl.h</text>
</a>
</g>
</g>
<!-- Node24&#45;&gt;Node28 -->
<g id="edge28" class="edge"><title>Node24&#45;&gt;Node28</title>
<path fill="none" stroke="midnightblue" d="M1258.45,-179.476C1207.37,-167.446 1134.81,-150.358 1088.07,-139.349"/>
<polygon fill="midnightblue" stroke="midnightblue" points="1088.75,-135.914 1078.21,-137.029 1087.15,-142.728 1088.75,-135.914"/>
</g>
<!-- Node30 -->
<g id="node30" class="node"><title>Node30</title>
<g id="a_node30"><a xlink:href="../../db/d8b/VehicleInputPriority_8h.html" target="_top" xlink:title="Vehicle/VehicleInputPriority.h">
<polygon fill="white" stroke="black" points="1122.5,-118 1122.5,-137 1267.5,-137 1267.5,-118 1122.5,-118"/>
<text text-anchor="middle" x="1195" y="-125" font-family="Helvetica,sans-Serif" font-size="10.00">Vehicle/VehicleInputPriority.h</text>
</a>
</g>
</g>
<!-- Node24&#45;&gt;Node30 -->
<g id="edge30" class="edge"><title>Node24&#45;&gt;Node30</title>
<path fill="none" stroke="midnightblue" d="M1291.31,-179.396C1270.11,-168.193 1240.68,-152.641 1219.95,-141.685"/>
<polygon fill="midnightblue" stroke="midnightblue" points="1221.57,-138.585 1211.1,-137.007 1218.3,-144.774 1221.57,-138.585"/>
</g>
<!-- Node33 -->
<g id="node33" class="node"><title>Node33</title>
<g id="a_node33"><a xlink:href="../../d3/d90/Unreal_2CarlaUE4_2Plugins_2Carla_2Source_2Carla_2Vehicle_2VehiclePhysicsControl_8h.html" target="_top" xlink:title="Vehicle/VehiclePhysicsControl.h">
<polygon fill="white" stroke="black" points="1285.5,-118 1285.5,-137 1444.5,-137 1444.5,-118 1285.5,-118"/>
<text text-anchor="middle" x="1365" y="-125" font-family="Helvetica,sans-Serif" font-size="10.00">Vehicle/VehiclePhysicsControl.h</text>
</a>
</g>
</g>
<!-- Node24&#45;&gt;Node33 -->
<g id="edge33" class="edge"><title>Node24&#45;&gt;Node33</title>
<path fill="none" stroke="midnightblue" d="M1328.2,-179.396C1335.38,-169.462 1345.04,-156.108 1352.66,-145.572"/>
<polygon fill="midnightblue" stroke="midnightblue" points="1355.69,-147.349 1358.71,-137.195 1350.02,-143.247 1355.69,-147.349"/>
</g>
<!-- Node37 -->
<g id="node37" class="node"><title>Node37</title>
<polygon fill="white" stroke="#bfbfbf" points="1463,-118 1463,-137 1669,-137 1669,-118 1463,-118"/>
<text text-anchor="middle" x="1566" y="-125" font-family="Helvetica,sans-Serif" font-size="10.00">WheeledVehicleMovementComponent4W.h</text>
</g>
<!-- Node24&#45;&gt;Node37 -->
<g id="edge37" class="edge"><title>Node24&#45;&gt;Node37</title>
<path fill="none" stroke="midnightblue" d="M1371.51,-179.476C1417.02,-167.547 1481.51,-150.644 1523.54,-139.628"/>
<polygon fill="midnightblue" stroke="midnightblue" points="1524.67,-142.95 1533.46,-137.029 1522.9,-136.178 1524.67,-142.95"/>
</g>
<!-- Node38 -->
<g id="node38" class="node"><title>Node38</title>
<polygon fill="white" stroke="#bfbfbf" points="1687,-118 1687,-137 1767,-137 1767,-118 1687,-118"/>
<text text-anchor="middle" x="1727" y="-125" font-family="Helvetica,sans-Serif" font-size="10.00">CoreMinimal.h</text>
</g>
<!-- Node24&#45;&gt;Node38 -->
<g id="edge38" class="edge"><title>Node24&#45;&gt;Node38</title>
<path fill="none" stroke="midnightblue" d="M1388.18,-180.416C1391.16,-179.925 1394.11,-179.451 1397,-179 1521.41,-159.628 1554.79,-168.947 1678,-143 1682.25,-142.105 1686.66,-141.023 1691.03,-139.857"/>
<polygon fill="midnightblue" stroke="midnightblue" points="1692.34,-143.124 1701.01,-137.035 1690.43,-136.388 1692.34,-143.124"/>
</g>
<!-- Node39 -->
<g id="node39" class="node"><title>Node39</title>
<polygon fill="white" stroke="#bfbfbf" points="1785,-118 1785,-137 1949,-137 1949,-118 1785,-118"/>
<text text-anchor="middle" x="1867" y="-125" font-family="Helvetica,sans-Serif" font-size="10.00">CarlaWheeledVehicle.generated.h</text>
</g>
<!-- Node24&#45;&gt;Node39 -->
<g id="edge39" class="edge"><title>Node24&#45;&gt;Node39</title>
<path fill="none" stroke="midnightblue" d="M1388.16,-180.296C1391.14,-179.838 1394.1,-179.403 1397,-179 1564.59,-155.705 1608.15,-164.323 1776,-143 1786,-141.73 1796.59,-140.207 1806.87,-138.632"/>
<polygon fill="midnightblue" stroke="midnightblue" points="1807.68,-142.049 1817.02,-137.048 1806.6,-135.132 1807.68,-142.049"/>
</g>
<!-- Node27 -->
<g id="node27" class="node"><title>Node27</title>
<polygon fill="white" stroke="#bfbfbf" points="724,-56.5 724,-75.5 912,-75.5 912,-56.5 724,-56.5"/>
<text text-anchor="middle" x="818" y="-63.5" font-family="Helvetica,sans-Serif" font-size="10.00">CarlaWheeledVehicleState.generated.h</text>
</g>
<!-- Node26&#45;&gt;Node27 -->
<g id="edge27" class="edge"><title>Node26&#45;&gt;Node27</title>
<path fill="none" stroke="midnightblue" d="M872.174,-112.399C861.325,-103.308 847.223,-91.4899 836.127,-82.1909"/>
<polygon fill="midnightblue" stroke="midnightblue" points="838.244,-79.3983 828.331,-75.6578 833.748,-84.7634 838.244,-79.3983"/>
</g>
<!-- Node29 -->
<g id="node29" class="node"><title>Node29</title>
<polygon fill="white" stroke="#bfbfbf" points="930,-56.5 930,-75.5 1064,-75.5 1064,-56.5 930,-56.5"/>
<text text-anchor="middle" x="997" y="-63.5" font-family="Helvetica,sans-Serif" font-size="10.00">VehicleControl.generated.h</text>
</g>
<!-- Node28&#45;&gt;Node29 -->
<g id="edge29" class="edge"><title>Node28&#45;&gt;Node29</title>
<path fill="none" stroke="midnightblue" d="M1035.55,-117.975C1028.8,-109.05 1018.03,-94.8071 1009.59,-83.6425"/>
<polygon fill="midnightblue" stroke="midnightblue" points="1012.26,-81.3737 1003.44,-75.5091 1006.68,-85.5962 1012.26,-81.3737"/>
</g>
<!-- Node31 -->
<g id="node31" class="node"><title>Node31</title>
<polygon fill="white" stroke="#bfbfbf" points="1082,-56.5 1082,-75.5 1144,-75.5 1144,-56.5 1082,-56.5"/>
<text text-anchor="middle" x="1113" y="-63.5" font-family="Helvetica,sans-Serif" font-size="10.00">type_traits</text>
</g>
<!-- Node30&#45;&gt;Node31 -->
<g id="edge31" class="edge"><title>Node30&#45;&gt;Node31</title>
<path fill="none" stroke="midnightblue" d="M1183.25,-117.975C1170.22,-108.52 1148.96,-93.0961 1133.24,-81.6871"/>
<polygon fill="midnightblue" stroke="midnightblue" points="1134.88,-78.5492 1124.73,-75.5091 1130.77,-84.2149 1134.88,-78.5492"/>
</g>
<!-- Node32 -->
<g id="node32" class="node"><title>Node32</title>
<polygon fill="white" stroke="#bfbfbf" points="1162.5,-56.5 1162.5,-75.5 1317.5,-75.5 1317.5,-56.5 1162.5,-56.5"/>
<text text-anchor="middle" x="1240" y="-63.5" font-family="Helvetica,sans-Serif" font-size="10.00">VehicleInputPriority.generated.h</text>
</g>
<!-- Node30&#45;&gt;Node32 -->
<g id="edge32" class="edge"><title>Node30&#45;&gt;Node32</title>
<path fill="none" stroke="midnightblue" d="M1201.45,-117.975C1208.2,-109.05 1218.97,-94.8071 1227.41,-83.6425"/>
<polygon fill="midnightblue" stroke="midnightblue" points="1230.32,-85.5962 1233.56,-75.5091 1224.74,-81.3737 1230.32,-85.5962"/>
</g>
<!-- Node34 -->
<g id="node34" class="node"><title>Node34</title>
<g id="a_node34"><a xlink:href="../../dd/d7d/Unreal_2CarlaUE4_2Plugins_2Carla_2Source_2Carla_2Vehicle_2WheelPhysicsControl_8h.html" target="_top" xlink:title="Vehicle/WheelPhysicsControl.h">
<polygon fill="white" stroke="black" points="1335.5,-56.5 1335.5,-75.5 1490.5,-75.5 1490.5,-56.5 1335.5,-56.5"/>
<text text-anchor="middle" x="1413" y="-63.5" font-family="Helvetica,sans-Serif" font-size="10.00">Vehicle/WheelPhysicsControl.h</text>
</a>
</g>
</g>
<!-- Node33&#45;&gt;Node34 -->
<g id="edge34" class="edge"><title>Node33&#45;&gt;Node34</title>
<path fill="none" stroke="midnightblue" d="M1371.88,-117.975C1379.15,-108.962 1390.8,-94.5246 1399.84,-83.3118"/>
<polygon fill="midnightblue" stroke="midnightblue" points="1402.58,-85.4898 1406.14,-75.5091 1397.13,-81.0946 1402.58,-85.4898"/>
</g>
<!-- Node36 -->
<g id="node36" class="node"><title>Node36</title>
<polygon fill="white" stroke="#bfbfbf" points="1509,-56.5 1509,-75.5 1679,-75.5 1679,-56.5 1509,-56.5"/>
<text text-anchor="middle" x="1594" y="-63.5" font-family="Helvetica,sans-Serif" font-size="10.00">VehiclePhysicsControl.generated.h</text>
</g>
<!-- Node33&#45;&gt;Node36 -->
<g id="edge36" class="edge"><title>Node33&#45;&gt;Node36</title>
<path fill="none" stroke="midnightblue" d="M1397.81,-117.975C1438.2,-107.482 1506.88,-89.6367 1551.33,-78.087"/>
<polygon fill="midnightblue" stroke="midnightblue" points="1552.45,-81.4114 1561.25,-75.5091 1550.69,-74.6364 1552.45,-81.4114"/>
</g>
<!-- Node35 -->
<g id="node35" class="node"><title>Node35</title>
<polygon fill="white" stroke="#bfbfbf" points="1330.5,-0.5 1330.5,-19.5 1495.5,-19.5 1495.5,-0.5 1330.5,-0.5"/>
<text text-anchor="middle" x="1413" y="-7.5" font-family="Helvetica,sans-Serif" font-size="10.00">WheelPhysicsControl.generated.h</text>
</g>
<!-- Node34&#45;&gt;Node35 -->
<g id="edge35" class="edge"><title>Node34&#45;&gt;Node35</title>
<path fill="none" stroke="midnightblue" d="M1413,-56.083C1413,-49.0059 1413,-38.8611 1413,-29.9865"/>
<polygon fill="midnightblue" stroke="midnightblue" points="1416.5,-29.751 1413,-19.7511 1409.5,-29.7511 1416.5,-29.751"/>
</g>
</g>
</svg>
