<?xml version="1.0" encoding="UTF-8" standalone="no"?>
<!DOCTYPE svg PUBLIC "-//W3C//DTD SVG 1.1//EN"
 "http://www.w3.org/Graphics/SVG/1.1/DTD/svg11.dtd">
<!-- Generated by graphviz version 2.40.1 (20161225.0304)
 -->
<!-- Title: carla::multigpu::Router Pages: 1 -->
<svg width="801pt" height="490pt"
 viewBox="0.00 0.00 801.00 489.50" xmlns="http://www.w3.org/2000/svg" xmlns:xlink="http://www.w3.org/1999/xlink">
<g id="graph0" class="graph" transform="scale(1 1) rotate(0) translate(4 485.5)">
<title>carla::multigpu::Router</title>
<polygon fill="#ffffff" stroke="transparent" points="-4,4 -4,-485.5 797,-485.5 797,4 -4,4"/>
<!-- Node2 -->
<g id="node1" class="node">
<title>Node2</title>
<polygon fill="#bfbfbf" stroke="#000000" points="665,-231.5 665,-250.5 793,-250.5 793,-231.5 665,-231.5"/>
<text text-anchor="middle" x="729" y="-238.5" font-family="Helvetica,sans-Serif" font-size="10.00" fill="#000000">carla::multigpu::Router</text>
</g>
<!-- Node3 -->
<g id="node2" class="node">
<title>Node3</title>
<polygon fill="#ffffff" stroke="#bfbfbf" points="427.5,-451 427.5,-481 549.5,-481 549.5,-451 427.5,-451"/>
<text text-anchor="start" x="435.5" y="-469" font-family="Helvetica,sans-Serif" font-size="10.00" fill="#000000">std::enable_shared</text>
<text text-anchor="middle" x="488.5" y="-458" font-family="Helvetica,sans-Serif" font-size="10.00" fill="#000000">_from_this&lt; Router &gt;</text>
</g>
<!-- Node3&#45;&gt;Node2 -->
<g id="edge1" class="edge">
<title>Node3&#45;&gt;Node2</title>
<path fill="none" stroke="#191970" d="M556.9051,-447.4248C587.672,-436.1811 622.4948,-419.0521 647,-394 690.6222,-349.4041 717.3127,-276.8931 725.932,-250.7688"/>
<polygon fill="#191970" stroke="#191970" points="555.3551,-444.2593 547.0765,-450.8711 557.6714,-450.8649 555.3551,-444.2593"/>
</g>
<!-- Node4 -->
<g id="node3" class="node">
<title>Node4</title>
<g id="a_node3"><a xlink:href="../../da/da8/classcarla_1_1multigpu_1_1PrimaryCommands.html" target="_top" xlink:title="carla::multigpu::Primary\lCommands">
<polygon fill="#ffffff" stroke="#000000" points="421.5,-402 421.5,-432 555.5,-432 555.5,-402 421.5,-402"/>
<text text-anchor="start" x="429.5" y="-420" font-family="Helvetica,sans-Serif" font-size="10.00" fill="#000000">carla::multigpu::Primary</text>
<text text-anchor="middle" x="488.5" y="-409" font-family="Helvetica,sans-Serif" font-size="10.00" fill="#000000">Commands</text>
</a>
</g>
</g>
<!-- Node4&#45;&gt;Node2 -->
<g id="edge2" class="edge">
<title>Node4&#45;&gt;Node2</title>
<path fill="none" stroke="#9a32cd" stroke-dasharray="5,2" d="M549.5147,-397.9964C553.8096,-396.1281 558.0131,-394.1284 562,-392 634.0668,-353.5277 699.7707,-277.229 721.4673,-250.5099"/>
<polygon fill="#9a32cd" stroke="#9a32cd" points="547.9499,-394.8547 540.015,-401.8753 550.596,-401.3353 547.9499,-394.8547"/>
<text text-anchor="middle" x="613.5" y="-382" font-family="Helvetica,sans-Serif" font-size="10.00" fill="#000000"> _commander</text>
</g>
<!-- Node5 -->
<g id="node4" class="node">
<title>Node5</title>
<polygon fill="#ffffff" stroke="#bfbfbf" points="204,-402 204,-432 314,-432 314,-402 204,-402"/>
<text text-anchor="start" x="212" y="-420" font-family="Helvetica,sans-Serif" font-size="10.00" fill="#000000">shared_ptr&lt; carla::</text>
<text text-anchor="middle" x="259" y="-409" font-family="Helvetica,sans-Serif" font-size="10.00" fill="#000000">multigpu::Router &gt;</text>
</g>
<!-- Node5&#45;&gt;Node4 -->
<g id="edge3" class="edge">
<title>Node5&#45;&gt;Node4</title>
<path fill="none" stroke="#9a32cd" stroke-dasharray="5,2" d="M324.3347,-417C354.7274,-417 390.8371,-417 421.4412,-417"/>
<polygon fill="#9a32cd" stroke="#9a32cd" points="324.2631,-413.5001 314.263,-417 324.263,-420.5001 324.2631,-413.5001"/>
<text text-anchor="middle" x="364.5" y="-420" font-family="Helvetica,sans-Serif" font-size="10.00" fill="#000000"> _router</text>
</g>
<!-- Node6 -->
<g id="node5" class="node">
<title>Node6</title>
<polygon fill="#ffffff" stroke="#bfbfbf" points="415,-319.5 415,-382.5 562,-382.5 562,-319.5 415,-319.5"/>
<text text-anchor="start" x="423" y="-370.5" font-family="Helvetica,sans-Serif" font-size="10.00" fill="#000000">unordered_map&lt; carla</text>
<text text-anchor="start" x="423" y="-359.5" font-family="Helvetica,sans-Serif" font-size="10.00" fill="#000000">::multigpu::Primary *,</text>
<text text-anchor="start" x="423" y="-348.5" font-family="Helvetica,sans-Serif" font-size="10.00" fill="#000000"> std::shared_ptr&lt; std</text>
<text text-anchor="start" x="423" y="-337.5" font-family="Helvetica,sans-Serif" font-size="10.00" fill="#000000">::promise&lt; carla::multigpu</text>
<text text-anchor="middle" x="488.5" y="-326.5" font-family="Helvetica,sans-Serif" font-size="10.00" fill="#000000">::SessionInfo &gt; &gt; &gt;</text>
</g>
<!-- Node6&#45;&gt;Node2 -->
<g id="edge4" class="edge">
<title>Node6&#45;&gt;Node2</title>
<path fill="none" stroke="#9a32cd" stroke-dasharray="5,2" d="M571.6,-316.6077C596.0428,-306.1532 622.73,-294.4055 647,-283 669.4379,-272.4555 694.7654,-259.2828 711.2579,-250.5301"/>
<polygon fill="#9a32cd" stroke="#9a32cd" points="570.1798,-313.4083 562.3517,-320.5478 572.9234,-319.8482 570.1798,-313.4083"/>
<text text-anchor="middle" x="613.5" y="-315" font-family="Helvetica,sans-Serif" font-size="10.00" fill="#000000"> _promises</text>
</g>
<!-- Node7 -->
<g id="node6" class="node">
<title>Node7</title>
<polygon fill="#ffffff" stroke="#bfbfbf" points="430.5,-270 430.5,-300 546.5,-300 546.5,-270 430.5,-270"/>
<text text-anchor="start" x="438.5" y="-288" font-family="Helvetica,sans-Serif" font-size="10.00" fill="#000000">shared_ptr&lt; carla::</text>
<text text-anchor="middle" x="488.5" y="-277" font-family="Helvetica,sans-Serif" font-size="10.00" fill="#000000">multigpu::Listener &gt;</text>
</g>
<!-- Node7&#45;&gt;Node2 -->
<g id="edge5" class="edge">
<title>Node7&#45;&gt;Node2</title>
<path fill="none" stroke="#9a32cd" stroke-dasharray="5,2" d="M556.7397,-272.5154C594.9508,-265.5246 641.8408,-256.946 677.0465,-250.505"/>
<polygon fill="#9a32cd" stroke="#9a32cd" points="555.9252,-269.1062 546.7183,-274.3488 557.185,-275.992 555.9252,-269.1062"/>
<text text-anchor="middle" x="613.5" y="-271" font-family="Helvetica,sans-Serif" font-size="10.00" fill="#000000"> _listener</text>
</g>
<!-- Node8 -->
<g id="node7" class="node">
<title>Node8</title>
<polygon fill="#ffffff" stroke="#bfbfbf" points="464.5,-231.5 464.5,-250.5 512.5,-250.5 512.5,-231.5 464.5,-231.5"/>
<text text-anchor="middle" x="488.5" y="-238.5" font-family="Helvetica,sans-Serif" font-size="10.00" fill="#000000">mutex</text>
</g>
<!-- Node8&#45;&gt;Node2 -->
<g id="edge6" class="edge">
<title>Node8&#45;&gt;Node2</title>
<path fill="none" stroke="#9a32cd" stroke-dasharray="5,2" d="M523.1358,-241C560.0836,-241 619.4325,-241 664.9354,-241"/>
<polygon fill="#9a32cd" stroke="#9a32cd" points="522.884,-237.5001 512.8839,-241 522.8839,-244.5001 522.884,-237.5001"/>
<text text-anchor="middle" x="613.5" y="-244" font-family="Helvetica,sans-Serif" font-size="10.00" fill="#000000"> _mutex</text>
</g>
<!-- Node9 -->
<g id="node8" class="node">
<title>Node9</title>
<polygon fill="#ffffff" stroke="#bfbfbf" points="460.5,-193.5 460.5,-212.5 516.5,-212.5 516.5,-193.5 460.5,-193.5"/>
<text text-anchor="middle" x="488.5" y="-200.5" font-family="Helvetica,sans-Serif" font-size="10.00" fill="#000000">uint32_t</text>
</g>
<!-- Node9&#45;&gt;Node2 -->
<g id="edge7" class="edge">
<title>Node9&#45;&gt;Node2</title>
<path fill="none" stroke="#9a32cd" stroke-dasharray="5,2" d="M526.9039,-208.1696C559.041,-212.5922 606.077,-219.2902 647,-226 657.14,-227.6626 667.9628,-229.5567 678.3098,-231.4261"/>
<polygon fill="#9a32cd" stroke="#9a32cd" points="526.989,-204.6487 516.6067,-206.7602 526.0397,-211.584 526.989,-204.6487"/>
<text text-anchor="middle" x="613.5" y="-229" font-family="Helvetica,sans-Serif" font-size="10.00" fill="#000000"> _next</text>
</g>
<!-- Node10 -->
<g id="node9" class="node">
<title>Node10</title>
<polygon fill="#ffffff" stroke="#bfbfbf" points="459,-155.5 459,-174.5 518,-174.5 518,-155.5 459,-155.5"/>
<text text-anchor="middle" x="488.5" y="-162.5" font-family="Helvetica,sans-Serif" font-size="10.00" fill="#000000">endpoint</text>
</g>
<!-- Node10&#45;&gt;Node2 -->
<g id="edge8" class="edge">
<title>Node10&#45;&gt;Node2</title>
<path fill="none" stroke="#9a32cd" stroke-dasharray="5,2" d="M528.0499,-170.9462C560.5792,-176.4943 607.5718,-186.0311 647,-200 670.8543,-208.4513 696.7092,-222.2206 712.8776,-231.4417"/>
<polygon fill="#9a32cd" stroke="#9a32cd" points="528.4623,-167.4669 518.0246,-169.2845 527.3176,-174.3727 528.4623,-167.4669"/>
<text text-anchor="middle" x="613.5" y="-203" font-family="Helvetica,sans-Serif" font-size="10.00" fill="#000000"> _endpoint</text>
</g>
<!-- Node11 -->
<g id="node10" class="node">
<title>Node11</title>
<polygon fill="#ffffff" stroke="#bfbfbf" points="428.5,-95.5 428.5,-136.5 548.5,-136.5 548.5,-95.5 428.5,-95.5"/>
<text text-anchor="start" x="436.5" y="-124.5" font-family="Helvetica,sans-Serif" font-size="10.00" fill="#000000">vector&lt; std::shared</text>
<text text-anchor="start" x="436.5" y="-113.5" font-family="Helvetica,sans-Serif" font-size="10.00" fill="#000000">_ptr&lt; carla::multigpu</text>
<text text-anchor="middle" x="488.5" y="-102.5" font-family="Helvetica,sans-Serif" font-size="10.00" fill="#000000">::Primary &gt; &gt;</text>
</g>
<!-- Node11&#45;&gt;Node2 -->
<g id="edge9" class="edge">
<title>Node11&#45;&gt;Node2</title>
<path fill="none" stroke="#9a32cd" stroke-dasharray="5,2" d="M558.5654,-131.0492C587.1673,-138.9538 619.8352,-150.3305 647,-166 678.0838,-183.9301 707.2862,-215.3975 720.9322,-231.2656"/>
<polygon fill="#9a32cd" stroke="#9a32cd" points="559.1983,-127.5956 548.6338,-128.3967 557.392,-134.3586 559.1983,-127.5956"/>
<text text-anchor="middle" x="613.5" y="-169" font-family="Helvetica,sans-Serif" font-size="10.00" fill="#000000"> _sessions</text>
</g>
<!-- Node12 -->
<g id="node11" class="node">
<title>Node12</title>
<g id="a_node11"><a xlink:href="../../da/d72/classcarla_1_1ThreadPool.html" target="_top" xlink:title="A thread pool based on Boost.Asio&#39;s io context. ">
<polygon fill="#ffffff" stroke="#000000" points="438,-57.5 438,-76.5 539,-76.5 539,-57.5 438,-57.5"/>
<text text-anchor="middle" x="488.5" y="-64.5" font-family="Helvetica,sans-Serif" font-size="10.00" fill="#000000">carla::ThreadPool</text>
</a>
</g>
</g>
<!-- Node12&#45;&gt;Node2 -->
<g id="edge10" class="edge">
<title>Node12&#45;&gt;Node2</title>
<path fill="none" stroke="#9a32cd" stroke-dasharray="5,2" d="M549.4287,-77.6577C581.1785,-85.6426 619.0934,-99.2463 647,-122 686.085,-153.868 714.3449,-209.0533 724.6837,-231.2947"/>
<polygon fill="#9a32cd" stroke="#9a32cd" points="549.8963,-74.1713 539.3574,-75.2582 548.2739,-80.9807 549.8963,-74.1713"/>
<text text-anchor="middle" x="613.5" y="-125" font-family="Helvetica,sans-Serif" font-size="10.00" fill="#000000"> _pool</text>
</g>
<!-- Node13 -->
<g id="node12" class="node">
<title>Node13</title>
<g id="a_node12"><a xlink:href="../../d4/d8b/classcarla_1_1NonCopyable.html" target="_top" xlink:title="Inherit (privately) to suppress copy/move construction and assignment. ">
<polygon fill="#ffffff" stroke="#000000" points="5,-107.5 5,-126.5 117,-126.5 117,-107.5 5,-107.5"/>
<text text-anchor="middle" x="61" y="-114.5" font-family="Helvetica,sans-Serif" font-size="10.00" fill="#000000">carla::NonCopyable</text>
</a>
</g>
</g>
<!-- Node13&#45;&gt;Node12 -->
<g id="edge11" class="edge">
<title>Node13&#45;&gt;Node12</title>
<path fill="none" stroke="#8b1a1a" d="M127.4505,-120.3948C196.2344,-122.0829 306.1409,-119.6351 397,-94 405.4256,-91.6228 406.7338,-88.8831 415,-86 425.0801,-82.4842 436.1398,-79.291 446.5498,-76.5684"/>
<polygon fill="#8b1a1a" stroke="#8b1a1a" points="127.2856,-116.8888 117.1907,-120.1047 127.0877,-123.886 127.2856,-116.8888"/>
</g>
<!-- Node15 -->
<g id="node14" class="node">
<title>Node15</title>
<g id="a_node14"><a xlink:href="../../db/d71/classcarla_1_1ThreadGroup.html" target="_top" xlink:title="carla::ThreadGroup">
<polygon fill="#ffffff" stroke="#000000" points="204,-76.5 204,-95.5 314,-95.5 314,-76.5 204,-76.5"/>
<text text-anchor="middle" x="259" y="-83.5" font-family="Helvetica,sans-Serif" font-size="10.00" fill="#000000">carla::ThreadGroup</text>
</a>
</g>
</g>
<!-- Node13&#45;&gt;Node15 -->
<g id="edge14" class="edge">
<title>Node13&#45;&gt;Node15</title>
<path fill="none" stroke="#8b1a1a" d="M127.2668,-106.6249C152.0713,-102.7414 179.965,-98.3742 203.6773,-94.6616"/>
<polygon fill="#8b1a1a" stroke="#8b1a1a" points="126.5475,-103.1948 117.2092,-108.1996 127.6303,-110.1105 126.5475,-103.1948"/>
</g>
<!-- Node14 -->
<g id="node13" class="node">
<title>Node14</title>
<polygon fill="#ffffff" stroke="#bfbfbf" points="225,-38.5 225,-57.5 293,-57.5 293,-38.5 225,-38.5"/>
<text text-anchor="middle" x="259" y="-45.5" font-family="Helvetica,sans-Serif" font-size="10.00" fill="#000000">io_context</text>
</g>
<!-- Node14&#45;&gt;Node12 -->
<g id="edge12" class="edge">
<title>Node14&#45;&gt;Node12</title>
<path fill="none" stroke="#9a32cd" stroke-dasharray="5,2" d="M303.4409,-47.2629C330.5379,-47.2362 365.838,-47.9544 397,-51 411.766,-52.4431 427.7362,-54.9154 442.138,-57.4908"/>
<polygon fill="#9a32cd" stroke="#9a32cd" points="303.0968,-43.7644 293.1126,-47.3093 303.1282,-50.7643 303.0968,-43.7644"/>
<text text-anchor="middle" x="364.5" y="-54" font-family="Helvetica,sans-Serif" font-size="10.00" fill="#000000"> _io_context</text>
</g>
<!-- Node15&#45;&gt;Node12 -->
<g id="edge13" class="edge">
<title>Node15&#45;&gt;Node12</title>
<path fill="none" stroke="#9a32cd" stroke-dasharray="5,2" d="M324.6465,-80.5652C360.5498,-77.5928 404.3572,-73.9661 437.6394,-71.2107"/>
<polygon fill="#9a32cd" stroke="#9a32cd" points="323.9401,-77.1116 314.263,-81.4248 324.5177,-84.0878 323.9401,-77.1116"/>
<text text-anchor="middle" x="364.5" y="-82" font-family="Helvetica,sans-Serif" font-size="10.00" fill="#000000"> _workers</text>
</g>
<!-- Node16 -->
<g id="node15" class="node">
<title>Node16</title>
<polygon fill="#ffffff" stroke="#bfbfbf" points="0,-63.5 0,-82.5 122,-82.5 122,-63.5 0,-63.5"/>
<text text-anchor="middle" x="61" y="-70.5" font-family="Helvetica,sans-Serif" font-size="10.00" fill="#000000">vector&lt; std::thread &gt;</text>
</g>
<!-- Node16&#45;&gt;Node15 -->
<g id="edge15" class="edge">
<title>Node16&#45;&gt;Node15</title>
<path fill="none" stroke="#9a32cd" stroke-dasharray="5,2" d="M132.3156,-71.6648C149.891,-71.8605 168.6476,-72.5134 186,-74 192.9103,-74.592 200.1534,-75.4682 207.2815,-76.4824"/>
<polygon fill="#9a32cd" stroke="#9a32cd" points="132.1457,-68.1638 122.1235,-71.5996 132.1008,-75.1636 132.1457,-68.1638"/>
<text text-anchor="middle" x="163" y="-77" font-family="Helvetica,sans-Serif" font-size="10.00" fill="#000000"> _threads</text>
</g>
<!-- Node17 -->
<g id="node16" class="node">
<title>Node17</title>
<polygon fill="#ffffff" stroke="#bfbfbf" points="238.5,-.5 238.5,-19.5 279.5,-19.5 279.5,-.5 238.5,-.5"/>
<text text-anchor="middle" x="259" y="-7.5" font-family="Helvetica,sans-Serif" font-size="10.00" fill="#000000">work</text>
</g>
<!-- Node17&#45;&gt;Node12 -->
<g id="edge16" class="edge">
<title>Node17&#45;&gt;Node12</title>
<path fill="none" stroke="#9a32cd" stroke-dasharray="5,2" d="M289.919,-13.0724C318.1421,-16.3129 360.8428,-22.3149 397,-32 421.6431,-38.6009 448.8216,-49.4827 467.1038,-57.3624"/>
<polygon fill="#9a32cd" stroke="#9a32cd" points="290.1781,-9.5798 279.855,-11.9637 289.4115,-16.5377 290.1781,-9.5798"/>
<text text-anchor="middle" x="364.5" y="-35" font-family="Helvetica,sans-Serif" font-size="10.00" fill="#000000"> _work_to_do</text>
</g>
</g>
</svg>
