<?xml version="1.0" encoding="UTF-8" standalone="no"?>
<!DOCTYPE svg PUBLIC "-//W3C//DTD SVG 1.1//EN"
 "http://www.w3.org/Graphics/SVG/1.1/DTD/svg11.dtd">
<!-- Generated by graphviz version 2.38.0 (20140413.2041)
 -->
<!-- Title: FCarlaServer::TickCueReceived Pages: 1 -->
<svg width="520pt" height="78pt"
 viewBox="0.00 0.00 520.00 77.50" xmlns="http://www.w3.org/2000/svg" xmlns:xlink="http://www.w3.org/1999/xlink">
<g id="graph0" class="graph" transform="scale(1 1) rotate(0) translate(4 73.5)">
<title>FCarlaServer::TickCueReceived</title>
<polygon fill="white" stroke="none" points="-4,4 -4,-73.5 516,-73.5 516,4 -4,4"/>
<!-- Node1 -->
<g id="node1" class="node"><title>Node1</title>
<polygon fill="#bfbfbf" stroke="black" points="0,-22.5 0,-41.5 158,-41.5 158,-22.5 0,-22.5"/>
<text text-anchor="middle" x="79" y="-29.5" font-family="Helvetica,sans-Serif" font-size="10.00">FCarlaServer::TickCueReceived</text>
</g>
<!-- Node2 -->
<g id="node2" class="node"><title>Node2</title>
<g id="a_node2"><a xlink:href="../../dc/d49/classFCarlaEngine.html#aff440c7ba9d004e4c5b60125cc4d709b" target="_top" xlink:title="FCarlaEngine::OnPostTick">
<polygon fill="white" stroke="black" points="194,-22.5 194,-41.5 328,-41.5 328,-22.5 194,-22.5"/>
<text text-anchor="middle" x="261" y="-29.5" font-family="Helvetica,sans-Serif" font-size="10.00">FCarlaEngine::OnPostTick</text>
</a>
</g>
</g>
<!-- Node1&#45;&gt;Node2 -->
<g id="edge1" class="edge"><title>Node1&#45;&gt;Node2</title>
<path fill="none" stroke="midnightblue" d="M168.219,-32C176.808,-32 185.419,-32 193.738,-32"/>
<polygon fill="midnightblue" stroke="midnightblue" points="168.165,-28.5001 158.165,-32 168.165,-35.5001 168.165,-28.5001"/>
</g>
<!-- Node3 -->
<g id="node3" class="node"><title>Node3</title>
<g id="a_node3"><a xlink:href="../../dc/d49/classFCarlaEngine.html#a4e37452410b2181d87ffe2f8f7cdf14a" target="_top" xlink:title="FCarlaEngine::GetCurrent\lEpisode">
<polygon fill="white" stroke="black" points="373,-39 373,-69 503,-69 503,-39 373,-39"/>
<text text-anchor="start" x="381" y="-57" font-family="Helvetica,sans-Serif" font-size="10.00">FCarlaEngine::GetCurrent</text>
<text text-anchor="middle" x="438" y="-46" font-family="Helvetica,sans-Serif" font-size="10.00">Episode</text>
</a>
</g>
</g>
<!-- Node2&#45;&gt;Node3 -->
<g id="edge2" class="edge"><title>Node2&#45;&gt;Node3</title>
<path fill="none" stroke="midnightblue" d="M338.204,-41.5799C349.734,-43.0294 361.53,-44.5124 372.774,-45.9259"/>
<polygon fill="midnightblue" stroke="midnightblue" points="338.518,-38.092 328.16,-40.3173 337.645,-45.0373 338.518,-38.092"/>
</g>
<!-- Node4 -->
<g id="node4" class="node"><title>Node4</title>
<g id="a_node4"><a xlink:href="../../dc/d49/classFCarlaEngine.html#ab8d13063cde985781237dd7da308227e" target="_top" xlink:title="FCarlaEngine::NotifyInitGame">
<polygon fill="white" stroke="black" points="364,-0.5 364,-19.5 512,-19.5 512,-0.5 364,-0.5"/>
<text text-anchor="middle" x="438" y="-7.5" font-family="Helvetica,sans-Serif" font-size="10.00">FCarlaEngine::NotifyInitGame</text>
</a>
</g>
</g>
<!-- Node2&#45;&gt;Node4 -->
<g id="edge3" class="edge"><title>Node2&#45;&gt;Node4</title>
<path fill="none" stroke="midnightblue" d="M338.345,-22.4024C346.769,-21.3433 355.334,-20.2666 363.719,-19.2125"/>
<polygon fill="midnightblue" stroke="midnightblue" points="337.645,-18.9627 328.16,-23.6827 338.518,-25.908 337.645,-18.9627"/>
</g>
</g>
</svg>
