<?xml version="1.0" encoding="UTF-8" standalone="no"?>
<!DOCTYPE svg PUBLIC "-//W3C//DTD SVG 1.1//EN"
 "http://www.w3.org/Graphics/SVG/1.1/DTD/svg11.dtd">
<!-- Generated by graphviz version 2.38.0 (20140413.2041)
 -->
<!-- Title: carla::road::Road::GetLaneSectionById Pages: 1 -->
<svg width="805pt" height="234pt"
 viewBox="0.00 0.00 805.00 233.50" xmlns="http://www.w3.org/2000/svg" xmlns:xlink="http://www.w3.org/1999/xlink">
<g id="graph0" class="graph" transform="scale(1 1) rotate(0) translate(4 229.5)">
<title>carla::road::Road::GetLaneSectionById</title>
<polygon fill="white" stroke="none" points="-4,4 -4,-229.5 801,-229.5 801,4 -4,4"/>
<!-- Node1 -->
<g id="node1" class="node"><title>Node1</title>
<polygon fill="#bfbfbf" stroke="black" points="0,-67 0,-97 113,-97 113,-67 0,-67"/>
<text text-anchor="start" x="8" y="-85" font-family="Helvetica,sans-Serif" font-size="10.00">carla::road::Road::</text>
<text text-anchor="middle" x="56.5" y="-74" font-family="Helvetica,sans-Serif" font-size="10.00">GetLaneSectionById</text>
</g>
<!-- Node2 -->
<g id="node2" class="node"><title>Node2</title>
<g id="a_node2"><a xlink:href="../../dd/de6/classcarla_1_1road_1_1Road.html#a44cd205b140128adf1fc06f91f55409a" target="_top" xlink:title="carla::road::Road::\lGetLaneById">
<polygon fill="white" stroke="black" points="168,-101 168,-131 271,-131 271,-101 168,-101"/>
<text text-anchor="start" x="176" y="-119" font-family="Helvetica,sans-Serif" font-size="10.00">carla::road::Road::</text>
<text text-anchor="middle" x="219.5" y="-108" font-family="Helvetica,sans-Serif" font-size="10.00">GetLaneById</text>
</a>
</g>
</g>
<!-- Node1&#45;&gt;Node2 -->
<g id="edge1" class="edge"><title>Node1&#45;&gt;Node2</title>
<path fill="none" stroke="midnightblue" d="M123.48,-95.9337C138.295,-99.0622 153.787,-102.334 167.862,-105.306"/>
<polygon fill="midnightblue" stroke="midnightblue" points="123.866,-92.438 113.358,-93.7961 122.419,-99.2869 123.866,-92.438"/>
</g>
<!-- Node10 -->
<g id="node10" class="node"><title>Node10</title>
<g id="a_node10"><a xlink:href="../../de/d26/namespacecarla_1_1road.html#a7ecd44cf0915faa4721092185974318d" target="_top" xlink:title="Assumes road_id and section_id are valid. ">
<polygon fill="white" stroke="black" points="149,-38.5 149,-57.5 290,-57.5 290,-38.5 149,-38.5"/>
<text text-anchor="middle" x="219.5" y="-45.5" font-family="Helvetica,sans-Serif" font-size="10.00">carla::road::IsLanePresent</text>
</a>
</g>
</g>
<!-- Node1&#45;&gt;Node10 -->
<g id="edge9" class="edge"><title>Node1&#45;&gt;Node10</title>
<path fill="none" stroke="midnightblue" d="M123.165,-68.1329C140.037,-64.5699 157.809,-60.8167 173.378,-57.5288"/>
<polygon fill="midnightblue" stroke="midnightblue" points="122.419,-64.7131 113.358,-70.2039 123.866,-71.562 122.419,-64.7131"/>
</g>
<!-- Node3 -->
<g id="node3" class="node"><title>Node3</title>
<g id="a_node3"><a xlink:href="../../d0/d34/classcarla_1_1road_1_1Map.html#a41c1dc9c080fc4acdbdebd431aefc608" target="_top" xlink:title="======================================================================== – Road information &#45;&#45;&#45;&#45;&#45;&#45;&#45;&#45;...">
<polygon fill="white" stroke="black" points="326.5,-175.5 326.5,-194.5 466.5,-194.5 466.5,-175.5 326.5,-175.5"/>
<text text-anchor="middle" x="396.5" y="-182.5" font-family="Helvetica,sans-Serif" font-size="10.00">carla::road::Map::GetLane</text>
</a>
</g>
</g>
<!-- Node2&#45;&gt;Node3 -->
<g id="edge2" class="edge"><title>Node2&#45;&gt;Node3</title>
<path fill="none" stroke="midnightblue" d="M258.97,-135.615C278.7,-145.224 303.299,-156.52 326,-165 336.35,-168.866 347.797,-172.438 358.364,-175.461"/>
<polygon fill="midnightblue" stroke="midnightblue" points="260.506,-132.47 249.989,-131.194 257.415,-138.751 260.506,-132.47"/>
</g>
<!-- Node8 -->
<g id="node8" class="node"><title>Node8</title>
<g id="a_node8"><a xlink:href="../../dd/de6/classcarla_1_1road_1_1Road.html#a6297dc2ea9a666bb0fd2a1636af80d8c" target="_top" xlink:title="carla::road::Road::\lGetLaneById">
<polygon fill="white" stroke="black" points="345,-126 345,-156 448,-156 448,-126 345,-126"/>
<text text-anchor="start" x="353" y="-144" font-family="Helvetica,sans-Serif" font-size="10.00">carla::road::Road::</text>
<text text-anchor="middle" x="396.5" y="-133" font-family="Helvetica,sans-Serif" font-size="10.00">GetLaneById</text>
</a>
</g>
</g>
<!-- Node2&#45;&gt;Node8 -->
<g id="edge7" class="edge"><title>Node2&#45;&gt;Node8</title>
<path fill="none" stroke="midnightblue" d="M281.14,-124.663C301.973,-127.639 325.056,-130.937 344.997,-133.785"/>
<polygon fill="midnightblue" stroke="midnightblue" points="281.512,-121.181 271.117,-123.231 280.522,-128.11 281.512,-121.181"/>
</g>
<!-- Node9 -->
<g id="node9" class="node"><title>Node9</title>
<g id="a_node9"><a xlink:href="../../da/d3b/classcarla_1_1road_1_1MapData.html#af12539d55764efc42ba1c634d954ad87" target="_top" xlink:title="carla::road::MapData\l::GetLaneInfo">
<polygon fill="white" stroke="black" points="338,-77 338,-107 455,-107 455,-77 338,-77"/>
<text text-anchor="start" x="346" y="-95" font-family="Helvetica,sans-Serif" font-size="10.00">carla::road::MapData</text>
<text text-anchor="middle" x="396.5" y="-84" font-family="Helvetica,sans-Serif" font-size="10.00">::GetLaneInfo</text>
</a>
</g>
</g>
<!-- Node2&#45;&gt;Node9 -->
<g id="edge8" class="edge"><title>Node2&#45;&gt;Node9</title>
<path fill="none" stroke="midnightblue" d="M281.14,-107.684C299.549,-105.159 319.714,-102.393 337.916,-99.8972"/>
<polygon fill="midnightblue" stroke="midnightblue" points="280.549,-104.232 271.117,-109.058 281.5,-111.167 280.549,-104.232"/>
</g>
<!-- Node4 -->
<g id="node4" class="node"><title>Node4</title>
<g id="a_node4"><a xlink:href="../../dc/d07/classcarla_1_1rss_1_1RssCheck.html#aff1e8790fbe6df81d866570706defcad" target="_top" xlink:title="carla::rss::RssCheck\l::calculateOccupiedRegions">
<polygon fill="white" stroke="black" points="503,-195 503,-225 649,-225 649,-195 503,-195"/>
<text text-anchor="start" x="511" y="-213" font-family="Helvetica,sans-Serif" font-size="10.00">carla::rss::RssCheck</text>
<text text-anchor="middle" x="576" y="-202" font-family="Helvetica,sans-Serif" font-size="10.00">::calculateOccupiedRegions</text>
</a>
</g>
</g>
<!-- Node3&#45;&gt;Node4 -->
<g id="edge3" class="edge"><title>Node3&#45;&gt;Node4</title>
<path fill="none" stroke="midnightblue" d="M475.052,-195.923C484.29,-197.224 493.692,-198.548 502.85,-199.838"/>
<polygon fill="midnightblue" stroke="midnightblue" points="475.502,-192.452 465.111,-194.523 474.526,-199.383 475.502,-192.452"/>
</g>
<!-- Node6 -->
<g id="node6" class="node"><title>Node6</title>
<g id="a_node6"><a xlink:href="../../d0/d34/classcarla_1_1road_1_1Map.html#a2686993f028a6febd29a17b32b43142d" target="_top" xlink:title="======================================================================== – Georeference &#45;&#45;&#45;&#45;&#45;&#45;&#45;&#45;&#45;&#45;&#45;&#45;...">
<polygon fill="white" stroke="black" points="507.5,-146 507.5,-176 644.5,-176 644.5,-146 507.5,-146"/>
<text text-anchor="start" x="515.5" y="-164" font-family="Helvetica,sans-Serif" font-size="10.00">carla::road::Map::GetGeo</text>
<text text-anchor="middle" x="576" y="-153" font-family="Helvetica,sans-Serif" font-size="10.00">Reference</text>
</a>
</g>
</g>
<!-- Node3&#45;&gt;Node6 -->
<g id="edge5" class="edge"><title>Node3&#45;&gt;Node6</title>
<path fill="none" stroke="midnightblue" d="M476.733,-174.287C486.908,-172.911 497.251,-171.513 507.22,-170.165"/>
<polygon fill="midnightblue" stroke="midnightblue" points="476.075,-170.844 466.634,-175.652 477.013,-177.781 476.075,-170.844"/>
</g>
<!-- Node5 -->
<g id="node5" class="node"><title>Node5</title>
<g id="a_node5"><a xlink:href="../../dc/d07/classcarla_1_1rss_1_1RssCheck.html#af0dcc48e400d434f51275bf1797be2e0" target="_top" xlink:title="carla::rss::RssCheck\l::checkObjects">
<polygon fill="white" stroke="black" points="685,-195 685,-225 797,-225 797,-195 685,-195"/>
<text text-anchor="start" x="693" y="-213" font-family="Helvetica,sans-Serif" font-size="10.00">carla::rss::RssCheck</text>
<text text-anchor="middle" x="741" y="-202" font-family="Helvetica,sans-Serif" font-size="10.00">::checkObjects</text>
</a>
</g>
</g>
<!-- Node4&#45;&gt;Node5 -->
<g id="edge4" class="edge"><title>Node4&#45;&gt;Node5</title>
<path fill="none" stroke="midnightblue" d="M659.526,-210C668.129,-210 676.716,-210 684.904,-210"/>
<polygon fill="midnightblue" stroke="midnightblue" points="659.443,-206.5 649.443,-210 659.443,-213.5 659.443,-206.5"/>
</g>
<!-- Node7 -->
<g id="node7" class="node"><title>Node7</title>
<g id="a_node7"><a xlink:href="../../dd/d49/classcarla_1_1client_1_1Map.html#abf307dc940aefa23689a7046197603ed" target="_top" xlink:title="carla::client::Map\l::GetGeoReference">
<polygon fill="white" stroke="black" points="687.5,-146 687.5,-176 794.5,-176 794.5,-146 687.5,-146"/>
<text text-anchor="start" x="695.5" y="-164" font-family="Helvetica,sans-Serif" font-size="10.00">carla::client::Map</text>
<text text-anchor="middle" x="741" y="-153" font-family="Helvetica,sans-Serif" font-size="10.00">::GetGeoReference</text>
</a>
</g>
</g>
<!-- Node6&#45;&gt;Node7 -->
<g id="edge6" class="edge"><title>Node6&#45;&gt;Node7</title>
<path fill="none" stroke="midnightblue" d="M654.808,-161C665.855,-161 676.993,-161 687.408,-161"/>
<polygon fill="midnightblue" stroke="midnightblue" points="654.711,-157.5 644.711,-161 654.711,-164.5 654.711,-157.5"/>
</g>
<!-- Node11 -->
<g id="node11" class="node"><title>Node11</title>
<g id="a_node11"><a xlink:href="../../d0/d34/classcarla_1_1road_1_1Map.html#aac26f62a9a53d5813dd232886b39b4c2" target="_top" xlink:title="Return a waypoint at the lane of waypoint&#39;s left lane. ">
<polygon fill="white" stroke="black" points="329,-38.5 329,-57.5 464,-57.5 464,-38.5 329,-38.5"/>
<text text-anchor="middle" x="396.5" y="-45.5" font-family="Helvetica,sans-Serif" font-size="10.00">carla::road::Map::GetLeft</text>
</a>
</g>
</g>
<!-- Node10&#45;&gt;Node11 -->
<g id="edge10" class="edge"><title>Node10&#45;&gt;Node11</title>
<path fill="none" stroke="midnightblue" d="M300.436,-48C309.962,-48 319.61,-48 328.921,-48"/>
<polygon fill="midnightblue" stroke="midnightblue" points="300.168,-44.5001 290.167,-48 300.167,-51.5001 300.168,-44.5001"/>
</g>
<!-- Node12 -->
<g id="node12" class="node"><title>Node12</title>
<g id="a_node12"><a xlink:href="../../d0/d34/classcarla_1_1road_1_1Map.html#a8ba84f9f19c36c2622ad5f3f58b21f63" target="_top" xlink:title="Return a waypoint at the lane of waypoint&#39;s right lane. ">
<polygon fill="white" stroke="black" points="326,-0.5 326,-19.5 467,-19.5 467,-0.5 326,-0.5"/>
<text text-anchor="middle" x="396.5" y="-7.5" font-family="Helvetica,sans-Serif" font-size="10.00">carla::road::Map::GetRight</text>
</a>
</g>
</g>
<!-- Node10&#45;&gt;Node12 -->
<g id="edge11" class="edge"><title>Node10&#45;&gt;Node12</title>
<path fill="none" stroke="midnightblue" d="M274.624,-36.2474C299.369,-30.8742 328.303,-24.5914 351.658,-19.5201"/>
<polygon fill="midnightblue" stroke="midnightblue" points="273.689,-32.8686 264.66,-38.411 275.175,-39.7092 273.689,-32.8686"/>
</g>
</g>
</svg>
