<?xml version="1.0" encoding="UTF-8" standalone="no"?>
<!DOCTYPE svg PUBLIC "-//W3C//DTD SVG 1.1//EN"
 "http://www.w3.org/Graphics/SVG/1.1/DTD/svg11.dtd">
<!-- Generated by graphviz version 2.38.0 (20140413.2041)
 -->
<!-- Title: carla::road::Road::GetLaneById Pages: 1 -->
<svg width="556pt" height="88pt"
 viewBox="0.00 0.00 556.00 88.00" xmlns="http://www.w3.org/2000/svg" xmlns:xlink="http://www.w3.org/1999/xlink">
<g id="graph0" class="graph" transform="scale(1 1) rotate(0) translate(4 84)">
<title>carla::road::Road::GetLaneById</title>
<polygon fill="white" stroke="none" points="-4,4 -4,-84 552,-84 552,4 -4,4"/>
<!-- Node1 -->
<g id="node1" class="node"><title>Node1</title>
<polygon fill="#bfbfbf" stroke="black" points="0,-24.5 0,-54.5 98,-54.5 98,-24.5 0,-24.5"/>
<text text-anchor="start" x="8" y="-42.5" font-family="Helvetica,sans-Serif" font-size="10.00">carla::road::Road::</text>
<text text-anchor="middle" x="49" y="-31.5" font-family="Helvetica,sans-Serif" font-size="10.00">GetLaneById</text>
</g>
<!-- Node2 -->
<g id="node2" class="node"><title>Node2</title>
<g id="a_node2"><a xlink:href="../../dd/de6/classcarla_1_1road_1_1Road.html#a44cd205b140128adf1fc06f91f55409a" target="_top" xlink:title="carla::road::Road::\lGetLaneById">
<polygon fill="white" stroke="black" points="134,-24.5 134,-54.5 232,-54.5 232,-24.5 134,-24.5"/>
<text text-anchor="start" x="142" y="-42.5" font-family="Helvetica,sans-Serif" font-size="10.00">carla::road::Road::</text>
<text text-anchor="middle" x="183" y="-31.5" font-family="Helvetica,sans-Serif" font-size="10.00">GetLaneById</text>
</a>
</g>
</g>
<!-- Node1&#45;&gt;Node2 -->
<g id="edge1" class="edge"><title>Node1&#45;&gt;Node2</title>
<path fill="none" stroke="midnightblue" d="M98.0284,-39.5C106.309,-39.5 114.997,-39.5 123.517,-39.5"/>
<polygon fill="midnightblue" stroke="midnightblue" points="123.786,-43.0001 133.786,-39.5 123.786,-36.0001 123.786,-43.0001"/>
</g>
<!-- Node3 -->
<g id="node3" class="node"><title>Node3</title>
<g id="a_node3"><a xlink:href="../../dd/d80/classcarla_1_1road_1_1LaneSection.html#afb698c17b4d62c0df02cf8dae16b8f50" target="_top" xlink:title="carla::road::LaneSection\l::GetLanes">
<polygon fill="white" stroke="black" points="268,-49.5 268,-79.5 390,-79.5 390,-49.5 268,-49.5"/>
<text text-anchor="start" x="276" y="-67.5" font-family="Helvetica,sans-Serif" font-size="10.00">carla::road::LaneSection</text>
<text text-anchor="middle" x="329" y="-56.5" font-family="Helvetica,sans-Serif" font-size="10.00">::GetLanes</text>
</a>
</g>
</g>
<!-- Node2&#45;&gt;Node3 -->
<g id="edge2" class="edge"><title>Node2&#45;&gt;Node3</title>
<path fill="none" stroke="midnightblue" d="M232.351,-47.8942C240.513,-49.3114 249.133,-50.8078 257.719,-52.2985"/>
<polygon fill="midnightblue" stroke="midnightblue" points="257.303,-55.7786 267.755,-54.0408 258.501,-48.8817 257.303,-55.7786"/>
</g>
<!-- Node4 -->
<g id="node4" class="node"><title>Node4</title>
<g id="a_node4"><a xlink:href="../../dd/de6/classcarla_1_1road_1_1Road.html#ac84456a0ba25a3892dee9c05681cc0cd" target="_top" xlink:title="carla::road::Road::\lGetLaneSectionById">
<polygon fill="white" stroke="black" points="275.5,-0.5 275.5,-30.5 382.5,-30.5 382.5,-0.5 275.5,-0.5"/>
<text text-anchor="start" x="283.5" y="-18.5" font-family="Helvetica,sans-Serif" font-size="10.00">carla::road::Road::</text>
<text text-anchor="middle" x="329" y="-7.5" font-family="Helvetica,sans-Serif" font-size="10.00">GetLaneSectionById</text>
</a>
</g>
</g>
<!-- Node2&#45;&gt;Node4 -->
<g id="edge3" class="edge"><title>Node2&#45;&gt;Node4</title>
<path fill="none" stroke="midnightblue" d="M232.351,-31.4416C242.86,-29.69 254.126,-27.8124 265.104,-25.9826"/>
<polygon fill="midnightblue" stroke="midnightblue" points="265.788,-29.4171 275.076,-24.3206 264.637,-22.5123 265.788,-29.4171"/>
</g>
<!-- Node5 -->
<g id="node5" class="node"><title>Node5</title>
<g id="a_node5"><a xlink:href="../../d9/dab/classcarla_1_1road_1_1LaneSectionMap.html#ad1241505467e4e4454ba81e3a8c38af9" target="_top" xlink:title="carla::road::LaneSection\lMap::GetById">
<polygon fill="white" stroke="black" points="426,-0.5 426,-30.5 548,-30.5 548,-0.5 426,-0.5"/>
<text text-anchor="start" x="434" y="-18.5" font-family="Helvetica,sans-Serif" font-size="10.00">carla::road::LaneSection</text>
<text text-anchor="middle" x="487" y="-7.5" font-family="Helvetica,sans-Serif" font-size="10.00">Map::GetById</text>
</a>
</g>
</g>
<!-- Node4&#45;&gt;Node5 -->
<g id="edge4" class="edge"><title>Node4&#45;&gt;Node5</title>
<path fill="none" stroke="midnightblue" d="M382.814,-15.5C393.44,-15.5 404.763,-15.5 415.871,-15.5"/>
<polygon fill="midnightblue" stroke="midnightblue" points="415.986,-19.0001 425.986,-15.5 415.986,-12.0001 415.986,-19.0001"/>
</g>
</g>
</svg>
