<?xml version="1.0" encoding="UTF-8" standalone="no"?>
<!DOCTYPE svg PUBLIC "-//W3C//DTD SVG 1.1//EN"
 "http://www.w3.org/Graphics/SVG/1.1/DTD/svg11.dtd">
<!-- Generated by graphviz version 2.38.0 (20140413.2041)
 -->
<!-- Title: carla::road::Road::GetInfos Pages: 1 -->
<svg width="652pt" height="127pt"
 viewBox="0.00 0.00 652.00 127.00" xmlns="http://www.w3.org/2000/svg" xmlns:xlink="http://www.w3.org/1999/xlink">
<g id="graph0" class="graph" transform="scale(1 1) rotate(0) translate(4 123)">
<title>carla::road::Road::GetInfos</title>
<polygon fill="white" stroke="none" points="-4,4 -4,-123 648,-123 648,4 -4,4"/>
<!-- Node1 -->
<g id="node1" class="node"><title>Node1</title>
<polygon fill="#bfbfbf" stroke="black" points="0,-44.5 0,-74.5 103,-74.5 103,-44.5 0,-44.5"/>
<text text-anchor="start" x="8" y="-62.5" font-family="Helvetica,sans-Serif" font-size="10.00">carla::road::Road::</text>
<text text-anchor="middle" x="51.5" y="-51.5" font-family="Helvetica,sans-Serif" font-size="10.00">GetInfos</text>
</g>
<!-- Node2 -->
<g id="node2" class="node"><title>Node2</title>
<g id="a_node2"><a xlink:href="../../de/d26/namespacecarla_1_1road.html#acbd74871a21a7754503cf4c6d7a987ed" target="_top" xlink:title="carla::road::IsLaneStraight">
<polygon fill="white" stroke="black" points="139,-50 139,-69 282,-69 282,-50 139,-50"/>
<text text-anchor="middle" x="210.5" y="-57" font-family="Helvetica,sans-Serif" font-size="10.00">carla::road::IsLaneStraight</text>
</a>
</g>
</g>
<!-- Node1&#45;&gt;Node2 -->
<g id="edge1" class="edge"><title>Node1&#45;&gt;Node2</title>
<path fill="none" stroke="midnightblue" d="M113.111,-59.5C121.507,-59.5 130.192,-59.5 138.752,-59.5"/>
<polygon fill="midnightblue" stroke="midnightblue" points="113.04,-56.0001 103.04,-59.5 113.04,-63.0001 113.04,-56.0001"/>
</g>
<!-- Node3 -->
<g id="node3" class="node"><title>Node3</title>
<g id="a_node3"><a xlink:href="../../d0/d34/classcarla_1_1road_1_1Map.html#ad30ed42bc1a8089df7d63ec8cdfa3e72" target="_top" xlink:title="carla::road::Map::Create\lRtree">
<polygon fill="white" stroke="black" points="337,-88.5 337,-118.5 469,-118.5 469,-88.5 337,-88.5"/>
<text text-anchor="start" x="345" y="-106.5" font-family="Helvetica,sans-Serif" font-size="10.00">carla::road::Map::Create</text>
<text text-anchor="middle" x="403" y="-95.5" font-family="Helvetica,sans-Serif" font-size="10.00">Rtree</text>
</a>
</g>
</g>
<!-- Node2&#45;&gt;Node3 -->
<g id="edge2" class="edge"><title>Node2&#45;&gt;Node3</title>
<path fill="none" stroke="midnightblue" d="M262.646,-71.3132C285.435,-76.5769 312.548,-82.8391 336.774,-88.4346"/>
<polygon fill="midnightblue" stroke="midnightblue" points="263.367,-67.8877 252.836,-69.0473 261.791,-74.7081 263.367,-67.8877"/>
</g>
<!-- Node5 -->
<g id="node5" class="node"><title>Node5</title>
<g id="a_node5"><a xlink:href="../../d0/d34/classcarla_1_1road_1_1Map.html#afed00dd2a26a236ac4bc8421abbac840" target="_top" xlink:title="Buids a mesh based on the OpenDRIVE. ">
<polygon fill="white" stroke="black" points="318,-50 318,-69 488,-69 488,-50 318,-50"/>
<text text-anchor="middle" x="403" y="-57" font-family="Helvetica,sans-Serif" font-size="10.00">carla::road::Map::GenerateMesh</text>
</a>
</g>
</g>
<!-- Node2&#45;&gt;Node5 -->
<g id="edge4" class="edge"><title>Node2&#45;&gt;Node5</title>
<path fill="none" stroke="midnightblue" d="M292.379,-59.5C300.83,-59.5 309.437,-59.5 317.923,-59.5"/>
<polygon fill="midnightblue" stroke="midnightblue" points="292.164,-56.0001 282.164,-59.5 292.164,-63.0001 292.164,-56.0001"/>
</g>
<!-- Node6 -->
<g id="node6" class="node"><title>Node6</title>
<g id="a_node6"><a xlink:href="../../d0/d34/classcarla_1_1road_1_1Map.html#af36a968304f34ec7759c7a30437bef4a" target="_top" xlink:title="carla::road::Map::Generate\lWalls">
<polygon fill="white" stroke="black" points="330.5,-0.5 330.5,-30.5 475.5,-30.5 475.5,-0.5 330.5,-0.5"/>
<text text-anchor="start" x="338.5" y="-18.5" font-family="Helvetica,sans-Serif" font-size="10.00">carla::road::Map::Generate</text>
<text text-anchor="middle" x="403" y="-7.5" font-family="Helvetica,sans-Serif" font-size="10.00">Walls</text>
</a>
</g>
</g>
<!-- Node2&#45;&gt;Node6 -->
<g id="edge5" class="edge"><title>Node2&#45;&gt;Node6</title>
<path fill="none" stroke="midnightblue" d="M262.646,-47.6868C285.435,-42.4231 312.548,-36.1609 336.774,-30.5654"/>
<polygon fill="midnightblue" stroke="midnightblue" points="261.791,-44.2919 252.836,-49.9527 263.367,-51.1123 261.791,-44.2919"/>
</g>
<!-- Node4 -->
<g id="node4" class="node"><title>Node4</title>
<g id="a_node4"><a xlink:href="../../d0/d34/classcarla_1_1road_1_1Map.html#a8f7405072e937b732ea32c9b73bd116c" target="_top" xlink:title="======================================================================== – Constructor &#45;&#45;&#45;&#45;&#45;&#45;&#45;&#45;&#45;&#45;&#45;&#45;&#45;...">
<polygon fill="white" stroke="black" points="524,-94 524,-113 644,-113 644,-94 524,-94"/>
<text text-anchor="middle" x="584" y="-101" font-family="Helvetica,sans-Serif" font-size="10.00">carla::road::Map::Map</text>
</a>
</g>
</g>
<!-- Node3&#45;&gt;Node4 -->
<g id="edge3" class="edge"><title>Node3&#45;&gt;Node4</title>
<path fill="none" stroke="midnightblue" d="M479.322,-103.5C494.198,-103.5 509.611,-103.5 523.859,-103.5"/>
<polygon fill="midnightblue" stroke="midnightblue" points="479.13,-100 469.129,-103.5 479.129,-107 479.13,-100"/>
</g>
</g>
</svg>
