<?xml version="1.0" encoding="UTF-8" standalone="no"?>
<!DOCTYPE svg PUBLIC "-//W3C//DTD SVG 1.1//EN"
 "http://www.w3.org/Graphics/SVG/1.1/DTD/svg11.dtd">
<!-- Generated by graphviz version 2.40.1 (20161225.0304)
 -->
<!-- Title: carla::road::Road::GetDirectedPointIn Pages: 1 -->
<svg width="845pt" height="318pt"
 viewBox="0.00 0.00 845.00 318.00" xmlns="http://www.w3.org/2000/svg" xmlns:xlink="http://www.w3.org/1999/xlink">
<g id="graph0" class="graph" transform="scale(1 1) rotate(0) translate(4 314)">
<title>carla::road::Road::GetDirectedPointIn</title>
<polygon fill="#ffffff" stroke="transparent" points="-4,4 -4,-314 841,-314 841,4 -4,4"/>
<!-- Node9 -->
<g id="node1" class="node">
<title>Node9</title>
<polygon fill="#bfbfbf" stroke="#000000" points="0,-193.5 0,-223.5 109,-223.5 109,-193.5 0,-193.5"/>
<text text-anchor="start" x="8" y="-211.5" font-family="Helvetica,sans-Serif" font-size="10.00" fill="#000000">carla::road::Road::</text>
<text text-anchor="middle" x="54.5" y="-200.5" font-family="Helvetica,sans-Serif" font-size="10.00" fill="#000000">GetDirectedPointIn</text>
</g>
<!-- Node10 -->
<g id="node2" class="node">
<title>Node10</title>
<g id="a_node2"><a xlink:href="../../df/d85/classcarla_1_1road_1_1Lane.html#a5b6a44fb0e0cd41e21557e93f913f45a" target="_top" xlink:title="carla::road::Lane::\lComputeTransform">
<polygon fill="#ffffff" stroke="#000000" points="145,-266.5 145,-296.5 255,-296.5 255,-266.5 145,-266.5"/>
<text text-anchor="start" x="153" y="-284.5" font-family="Helvetica,sans-Serif" font-size="10.00" fill="#000000">carla::road::Lane::</text>
<text text-anchor="middle" x="200" y="-273.5" font-family="Helvetica,sans-Serif" font-size="10.00" fill="#000000">ComputeTransform</text>
</a>
</g>
</g>
<!-- Node9&#45;&gt;Node10 -->
<g id="edge1" class="edge">
<title>Node9&#45;&gt;Node10</title>
<path fill="none" stroke="#191970" d="M93.8194,-228.2273C117.753,-240.2352 147.8553,-255.338 169.8909,-266.3937"/>
<polygon fill="#191970" stroke="#191970" points="95.1554,-224.9818 84.6477,-223.6256 92.0163,-231.2385 95.1554,-224.9818"/>
</g>
<!-- Node13 -->
<g id="node5" class="node">
<title>Node13</title>
<g id="a_node5"><a xlink:href="../../df/d85/classcarla_1_1road_1_1Lane.html#ae0d376fa422b14e54af3a702e1b8385a" target="_top" xlink:title="Computes the location of the edges given a s. ">
<polygon fill="#ffffff" stroke="#000000" points="145,-193.5 145,-223.5 255,-223.5 255,-193.5 145,-193.5"/>
<text text-anchor="start" x="153" y="-211.5" font-family="Helvetica,sans-Serif" font-size="10.00" fill="#000000">carla::road::Lane::</text>
<text text-anchor="middle" x="200" y="-200.5" font-family="Helvetica,sans-Serif" font-size="10.00" fill="#000000">GetCornerPositions</text>
</a>
</g>
</g>
<!-- Node9&#45;&gt;Node13 -->
<g id="edge4" class="edge">
<title>Node9&#45;&gt;Node13</title>
<path fill="none" stroke="#191970" d="M119.2965,-208.5C127.7461,-208.5 136.3406,-208.5 144.6166,-208.5"/>
<polygon fill="#191970" stroke="#191970" points="119.0928,-205.0001 109.0928,-208.5 119.0928,-212.0001 119.0928,-205.0001"/>
</g>
<!-- Node23 -->
<g id="node15" class="node">
<title>Node23</title>
<g id="a_node15"><a xlink:href="../../dd/de6/classcarla_1_1road_1_1Road.html#ab2b49cb7ce0697c34d49e20dfa40692b" target="_top" xlink:title="Returns a pointer to the nearest lane, given s relative to Road and a location. ">
<polygon fill="#ffffff" stroke="#000000" points="148,-144.5 148,-174.5 252,-174.5 252,-144.5 148,-144.5"/>
<text text-anchor="start" x="156" y="-162.5" font-family="Helvetica,sans-Serif" font-size="10.00" fill="#000000">carla::road::Road::</text>
<text text-anchor="middle" x="200" y="-151.5" font-family="Helvetica,sans-Serif" font-size="10.00" fill="#000000">GetNearestLane</text>
</a>
</g>
</g>
<!-- Node9&#45;&gt;Node23 -->
<g id="edge19" class="edge">
<title>Node9&#45;&gt;Node23</title>
<path fill="none" stroke="#191970" d="M109.1529,-190.0945C124.3763,-184.9678 140.7286,-179.4608 155.306,-174.5516"/>
<polygon fill="#191970" stroke="#191970" points="107.702,-186.89 99.342,-193.3986 109.9361,-193.5239 107.702,-186.89"/>
</g>
<!-- Node11 -->
<g id="node3" class="node">
<title>Node11</title>
<g id="a_node3"><a xlink:href="../../df/d85/classcarla_1_1road_1_1Lane.html#a80044b7e6e4d0412983b1a1208ff14a2" target="_top" xlink:title="carla::road::Lane::\lGetPredecessor">
<polygon fill="#ffffff" stroke="#000000" points="309.5,-279.5 309.5,-309.5 413.5,-309.5 413.5,-279.5 309.5,-279.5"/>
<text text-anchor="start" x="317.5" y="-297.5" font-family="Helvetica,sans-Serif" font-size="10.00" fill="#000000">carla::road::Lane::</text>
<text text-anchor="middle" x="361.5" y="-286.5" font-family="Helvetica,sans-Serif" font-size="10.00" fill="#000000">GetPredecessor</text>
</a>
</g>
</g>
<!-- Node10&#45;&gt;Node11 -->
<g id="edge2" class="edge">
<title>Node10&#45;&gt;Node11</title>
<path fill="none" stroke="#191970" d="M265.1609,-286.7452C279.8553,-287.928 295.2656,-289.1684 309.3443,-290.3017"/>
<polygon fill="#191970" stroke="#191970" points="265.3761,-283.2512 255.1274,-285.9375 264.8143,-290.2287 265.3761,-283.2512"/>
</g>
<!-- Node12 -->
<g id="node4" class="node">
<title>Node12</title>
<g id="a_node4"><a xlink:href="../../de/d16/classcarla_1_1road_1_1MapBuilder.html#ad84a5423baee8d92269aab9d8723c68a" target="_top" xlink:title="Return a list of pointers to all lanes from a lane (using road and junction info). ">
<polygon fill="#ffffff" stroke="#000000" points="486.5,-279.5 486.5,-309.5 615.5,-309.5 615.5,-279.5 486.5,-279.5"/>
<text text-anchor="start" x="494.5" y="-297.5" font-family="Helvetica,sans-Serif" font-size="10.00" fill="#000000">carla::road::MapBuilder</text>
<text text-anchor="middle" x="551" y="-286.5" font-family="Helvetica,sans-Serif" font-size="10.00" fill="#000000">::GetLaneNext</text>
</a>
</g>
</g>
<!-- Node11&#45;&gt;Node12 -->
<g id="edge3" class="edge">
<title>Node11&#45;&gt;Node12</title>
<path fill="none" stroke="#191970" d="M423.7802,-294.5C443.8034,-294.5 466.0274,-294.5 486.2254,-294.5"/>
<polygon fill="#191970" stroke="#191970" points="423.5324,-291.0001 413.5324,-294.5 423.5323,-298.0001 423.5324,-291.0001"/>
</g>
<!-- Node13&#45;&gt;Node11 -->
<g id="edge18" class="edge">
<title>Node13&#45;&gt;Node11</title>
<path fill="none" stroke="#191970" d="M227.0014,-229.7587C244.5067,-242.8012 268.2177,-259.1245 291,-270.5 297.4778,-273.7345 304.4951,-276.7023 311.5059,-279.3654"/>
<polygon fill="#191970" stroke="#191970" points="229.0236,-226.8998 218.9377,-223.6557 224.7992,-232.4814 229.0236,-226.8998"/>
</g>
<!-- Node14 -->
<g id="node6" class="node">
<title>Node14</title>
<g id="a_node6"><a xlink:href="../../d6/d3d/classcarla_1_1geom_1_1MeshFactory.html#a1e3c826505f82d1ddffd9f40c39cfa2a" target="_top" xlink:title="Generates a mesh that defines a lane from a given s start and end. ">
<polygon fill="#ffffff" stroke="#000000" points="291,-230.5 291,-260.5 432,-260.5 432,-230.5 291,-230.5"/>
<text text-anchor="start" x="299" y="-248.5" font-family="Helvetica,sans-Serif" font-size="10.00" fill="#000000">carla::geom::MeshFactory</text>
<text text-anchor="middle" x="361.5" y="-237.5" font-family="Helvetica,sans-Serif" font-size="10.00" fill="#000000">::Generate</text>
</a>
</g>
</g>
<!-- Node13&#45;&gt;Node14 -->
<g id="edge5" class="edge">
<title>Node13&#45;&gt;Node14</title>
<path fill="none" stroke="#191970" d="M265.0903,-223.4123C275.1911,-225.7264 285.6318,-228.1184 295.7472,-230.4359"/>
<polygon fill="#191970" stroke="#191970" points="265.6565,-219.9514 255.1274,-221.1298 264.0933,-226.7747 265.6565,-219.9514"/>
</g>
<!-- Node15 -->
<g id="node7" class="node">
<title>Node15</title>
<g id="a_node7"><a xlink:href="../../d6/d3d/classcarla_1_1geom_1_1MeshFactory.html#a202f9750d3be15d0af4b42b3a90f3662" target="_top" xlink:title="Generates a wall&#45;like mesh at the left side of the lane. ">
<polygon fill="#ffffff" stroke="#000000" points="291,-181.5 291,-211.5 432,-211.5 432,-181.5 291,-181.5"/>
<text text-anchor="start" x="299" y="-199.5" font-family="Helvetica,sans-Serif" font-size="10.00" fill="#000000">carla::geom::MeshFactory</text>
<text text-anchor="middle" x="361.5" y="-188.5" font-family="Helvetica,sans-Serif" font-size="10.00" fill="#000000">::GenerateLeftWall</text>
</a>
</g>
</g>
<!-- Node13&#45;&gt;Node15 -->
<g id="edge6" class="edge">
<title>Node13&#45;&gt;Node15</title>
<path fill="none" stroke="#191970" d="M265.2802,-203.6495C273.7202,-203.0223 282.3944,-202.3778 290.9152,-201.7447"/>
<polygon fill="#191970" stroke="#191970" points="264.8406,-200.1724 255.1274,-204.4038 265.3593,-207.1531 264.8406,-200.1724"/>
</g>
<!-- Node18 -->
<g id="node10" class="node">
<title>Node18</title>
<g id="a_node10"><a xlink:href="../../d6/d3d/classcarla_1_1geom_1_1MeshFactory.html#a11c673db2f69ad3c21ebba4d068b8c6c" target="_top" xlink:title="Generates a wall&#45;like mesh at the right side of the lane. ">
<polygon fill="#ffffff" stroke="#000000" points="291,-132.5 291,-162.5 432,-162.5 432,-132.5 291,-132.5"/>
<text text-anchor="start" x="299" y="-150.5" font-family="Helvetica,sans-Serif" font-size="10.00" fill="#000000">carla::geom::MeshFactory</text>
<text text-anchor="middle" x="361.5" y="-139.5" font-family="Helvetica,sans-Serif" font-size="10.00" fill="#000000">::GenerateRightWall</text>
</a>
</g>
</g>
<!-- Node13&#45;&gt;Node18 -->
<g id="edge10" class="edge">
<title>Node13&#45;&gt;Node18</title>
<path fill="none" stroke="#191970" d="M246.6374,-189.6777C260.8402,-184.0463 276.5234,-177.9283 291,-172.5 299.7549,-169.2172 309.1619,-165.8034 318.1615,-162.592"/>
<polygon fill="#191970" stroke="#191970" points="245.0709,-186.5341 237.0742,-193.4843 247.6597,-193.0379 245.0709,-186.5341"/>
</g>
<!-- Node19 -->
<g id="node11" class="node">
<title>Node19</title>
<g id="a_node11"><a xlink:href="../../d6/d3d/classcarla_1_1geom_1_1MeshFactory.html#ae26205cfd730254bb1a35302386b497f" target="_top" xlink:title="Generates a mesh that defines a lane from a given s start and end with bigger tesselation. ">
<polygon fill="#ffffff" stroke="#000000" points="291,-64.5 291,-94.5 432,-94.5 432,-64.5 291,-64.5"/>
<text text-anchor="start" x="299" y="-82.5" font-family="Helvetica,sans-Serif" font-size="10.00" fill="#000000">carla::geom::MeshFactory</text>
<text text-anchor="middle" x="361.5" y="-71.5" font-family="Helvetica,sans-Serif" font-size="10.00" fill="#000000">::GenerateTesselated</text>
</a>
</g>
</g>
<!-- Node13&#45;&gt;Node19 -->
<g id="edge13" class="edge">
<title>Node13&#45;&gt;Node19</title>
<path fill="none" stroke="#191970" d="M250.8767,-187.8432C252.3068,-186.777 253.686,-185.6631 255,-184.5 278.5724,-163.6349 269.0178,-146.0343 291,-123.5 302.2836,-111.933 317.1882,-102.0652 330.3857,-94.6239"/>
<polygon fill="#191970" stroke="#191970" points="248.7237,-185.0674 242.2286,-193.4379 252.526,-190.9448 248.7237,-185.0674"/>
</g>
<!-- Node16 -->
<g id="node8" class="node">
<title>Node16</title>
<g id="a_node8"><a xlink:href="../../d6/d3d/classcarla_1_1geom_1_1MeshFactory.html#aec242ce8214cea646ba254c0cfc0176a" target="_top" xlink:title="Genrates a mesh representing a wall on the road corners to avoid cars falling down. ">
<polygon fill="#ffffff" stroke="#000000" points="480.5,-176.5 480.5,-206.5 621.5,-206.5 621.5,-176.5 480.5,-176.5"/>
<text text-anchor="start" x="488.5" y="-194.5" font-family="Helvetica,sans-Serif" font-size="10.00" fill="#000000">carla::geom::MeshFactory</text>
<text text-anchor="middle" x="551" y="-183.5" font-family="Helvetica,sans-Serif" font-size="10.00" fill="#000000">::GenerateWalls</text>
</a>
</g>
</g>
<!-- Node15&#45;&gt;Node16 -->
<g id="edge7" class="edge">
<title>Node15&#45;&gt;Node16</title>
<path fill="none" stroke="#191970" d="M442.1615,-194.3717C454.8686,-194.0364 467.9215,-193.692 480.3783,-193.3634"/>
<polygon fill="#191970" stroke="#191970" points="441.967,-190.8755 432.0628,-194.6382 442.1517,-197.8731 441.967,-190.8755"/>
</g>
<!-- Node17 -->
<g id="node9" class="node">
<title>Node17</title>
<g id="a_node9"><a xlink:href="../../d6/d3d/classcarla_1_1geom_1_1MeshFactory.html#a5588f2f98ea42ade1082db0ef1c8ce7b" target="_top" xlink:title="Generates a list of meshes that defines a lane_section safety wall with a maximum length...">
<polygon fill="#ffffff" stroke="#000000" points="676.5,-176.5 676.5,-206.5 830.5,-206.5 830.5,-176.5 676.5,-176.5"/>
<text text-anchor="start" x="684.5" y="-194.5" font-family="Helvetica,sans-Serif" font-size="10.00" fill="#000000">carla::geom::MeshFactory</text>
<text text-anchor="middle" x="753.5" y="-183.5" font-family="Helvetica,sans-Serif" font-size="10.00" fill="#000000">::GenerateWallsWithMaxLen</text>
</a>
</g>
</g>
<!-- Node15&#45;&gt;Node17 -->
<g id="edge9" class="edge">
<title>Node15&#45;&gt;Node17</title>
<path fill="none" stroke="#191970" d="M441.4458,-213.1635C450.3714,-214.5315 459.3578,-215.6956 468,-216.5 541.4602,-223.3379 560.6141,-224.0941 634,-216.5 653.6073,-214.471 674.7394,-210.6169 693.7009,-206.5314"/>
<polygon fill="#191970" stroke="#191970" points="441.8465,-209.6829 431.4158,-211.5407 440.7284,-216.593 441.8465,-209.6829"/>
</g>
<!-- Node16&#45;&gt;Node17 -->
<g id="edge8" class="edge">
<title>Node16&#45;&gt;Node17</title>
<path fill="none" stroke="#191970" d="M631.6218,-191.5C646.3475,-191.5 661.6811,-191.5 676.3042,-191.5"/>
<polygon fill="#191970" stroke="#191970" points="631.5404,-188.0001 621.5404,-191.5 631.5404,-195.0001 631.5404,-188.0001"/>
</g>
<!-- Node18&#45;&gt;Node16 -->
<g id="edge11" class="edge">
<title>Node18&#45;&gt;Node16</title>
<path fill="none" stroke="#191970" d="M436.3391,-164.8769C452.853,-168.7112 470.212,-172.7418 486.2849,-176.4738"/>
<polygon fill="#191970" stroke="#191970" points="436.7176,-161.3717 426.1851,-162.5192 435.1344,-168.1904 436.7176,-161.3717"/>
</g>
<!-- Node18&#45;&gt;Node17 -->
<g id="edge12" class="edge">
<title>Node18&#45;&gt;Node17</title>
<path fill="none" stroke="#191970" d="M442.3133,-150.7806C496.6797,-153.6373 569.8659,-158.7411 634,-167.5 650.9826,-169.8193 669.1819,-173.0737 686.1278,-176.4391"/>
<polygon fill="#191970" stroke="#191970" points="442.2093,-147.2708 432.0437,-150.2559 441.852,-154.2617 442.2093,-147.2708"/>
</g>
<!-- Node20 -->
<g id="node12" class="node">
<title>Node20</title>
<g id="a_node12"><a xlink:href="../../d6/d3d/classcarla_1_1geom_1_1MeshFactory.html#ad6e08fdf5e167445abc19afc3670cc4a" target="_top" xlink:title="Generates a mesh that defines a lane section. ">
<polygon fill="#ffffff" stroke="#000000" points="468,-88.5 468,-118.5 634,-118.5 634,-88.5 468,-88.5"/>
<text text-anchor="start" x="476" y="-106.5" font-family="Helvetica,sans-Serif" font-size="10.00" fill="#000000">carla::geom::MeshFactory</text>
<text text-anchor="middle" x="551" y="-95.5" font-family="Helvetica,sans-Serif" font-size="10.00" fill="#000000">::GenerateLaneSectionOrdered</text>
</a>
</g>
</g>
<!-- Node19&#45;&gt;Node20 -->
<g id="edge14" class="edge">
<title>Node19&#45;&gt;Node20</title>
<path fill="none" stroke="#191970" d="M442.0256,-89.6985C450.5893,-90.7831 459.3116,-91.8877 467.9041,-92.976"/>
<polygon fill="#191970" stroke="#191970" points="442.4233,-86.221 432.0628,-88.4367 441.5438,-93.1655 442.4233,-86.221"/>
</g>
<!-- Node21 -->
<g id="node13" class="node">
<title>Node21</title>
<g id="a_node13"><a xlink:href="../../d6/d3d/classcarla_1_1geom_1_1MeshFactory.html#acce620f6e7432999236d4dd2c7900e24" target="_top" xlink:title="Generates a list of meshes that defines a lane_section with a maximum length. ">
<polygon fill="#ffffff" stroke="#000000" points="670,-66.5 670,-96.5 837,-96.5 837,-66.5 670,-66.5"/>
<text text-anchor="start" x="678" y="-84.5" font-family="Helvetica,sans-Serif" font-size="10.00" fill="#000000">carla::geom::MeshFactory</text>
<text text-anchor="middle" x="753.5" y="-73.5" font-family="Helvetica,sans-Serif" font-size="10.00" fill="#000000">::GenerateOrderedWithMaxLen</text>
</a>
</g>
</g>
<!-- Node19&#45;&gt;Node21 -->
<g id="edge16" class="edge">
<title>Node19&#45;&gt;Node21</title>
<path fill="none" stroke="#191970" d="M442.3192,-79.1459C496.5398,-78.9954 569.5576,-78.9608 634,-79.5 645.6193,-79.5972 657.8734,-79.7476 669.9286,-79.9233"/>
<polygon fill="#191970" stroke="#191970" points="442.0669,-75.6465 432.0773,-79.1763 442.0877,-82.6465 442.0669,-75.6465"/>
</g>
<!-- Node22 -->
<g id="node14" class="node">
<title>Node22</title>
<g id="a_node14"><a xlink:href="../../d6/d3d/classcarla_1_1geom_1_1MeshFactory.html#a27fb4c904ccf5679a3888a511609495b" target="_top" xlink:title="Generates a mesh that defines the whole lane with bigger tesselation. ">
<polygon fill="#ffffff" stroke="#000000" points="480.5,-.5 480.5,-30.5 621.5,-30.5 621.5,-.5 480.5,-.5"/>
<text text-anchor="start" x="488.5" y="-18.5" font-family="Helvetica,sans-Serif" font-size="10.00" fill="#000000">carla::geom::MeshFactory</text>
<text text-anchor="middle" x="551" y="-7.5" font-family="Helvetica,sans-Serif" font-size="10.00" fill="#000000">::GenerateTesselated</text>
</a>
</g>
</g>
<!-- Node19&#45;&gt;Node22 -->
<g id="edge17" class="edge">
<title>Node19&#45;&gt;Node22</title>
<path fill="none" stroke="#191970" d="M415.4412,-61.2824C444.2524,-51.552 479.2867,-39.7198 506.5211,-30.5219"/>
<polygon fill="#191970" stroke="#191970" points="414.2837,-57.979 405.9293,-64.4948 416.5235,-64.611 414.2837,-57.979"/>
</g>
<!-- Node20&#45;&gt;Node21 -->
<g id="edge15" class="edge">
<title>Node20&#45;&gt;Node21</title>
<path fill="none" stroke="#191970" d="M644.2466,-93.3695C652.8125,-92.4389 661.4552,-91.4999 669.9275,-90.5795"/>
<polygon fill="#191970" stroke="#191970" points="643.8046,-89.8968 634.2411,-94.4565 644.5607,-96.8559 643.8046,-89.8968"/>
</g>
</g>
</svg>
