<?xml version="1.0" encoding="UTF-8" standalone="no"?>
<!DOCTYPE svg PUBLIC "-//W3C//DTD SVG 1.1//EN"
 "http://www.w3.org/Graphics/SVG/1.1/DTD/svg11.dtd">
<!-- Generated by graphviz version 2.38.0 (20140413.2041)
 -->
<!-- Title: ACityMapMeshHolder Pages: 1 -->
<svg width="416pt" height="203pt"
 viewBox="0.00 0.00 416.00 203.00" xmlns="http://www.w3.org/2000/svg" xmlns:xlink="http://www.w3.org/1999/xlink">
<g id="graph0" class="graph" transform="scale(1 1) rotate(0) translate(4 199)">
<title>ACityMapMeshHolder</title>
<polygon fill="white" stroke="none" points="-4,4 -4,-199 412,-199 412,4 -4,4"/>
<!-- Node1 -->
<g id="node1" class="node"><title>Node1</title>
<polygon fill="#bfbfbf" stroke="black" points="289,-93.5 289,-112.5 408,-112.5 408,-93.5 289,-93.5"/>
<text text-anchor="middle" x="348.5" y="-100.5" font-family="Helvetica,sans-Serif" font-size="10.00">ACityMapMeshHolder</text>
</g>
<!-- Node2 -->
<g id="node2" class="node"><title>Node2</title>
<g id="a_node2"><a xlink:href="../../d1/da4/classAActor.html" target="_top" xlink:title="AActor">
<polygon fill="white" stroke="black" points="46.5,-175.5 46.5,-194.5 95.5,-194.5 95.5,-175.5 46.5,-175.5"/>
<text text-anchor="middle" x="71" y="-182.5" font-family="Helvetica,sans-Serif" font-size="10.00">AActor</text>
</a>
</g>
</g>
<!-- Node2&#45;&gt;Node1 -->
<g id="edge1" class="edge"><title>Node2&#45;&gt;Node1</title>
<path fill="none" stroke="midnightblue" d="M105.861,-182.927C146.301,-179.579 215.45,-171.069 271,-150 295.485,-140.713 320.779,-123.374 335.276,-112.551"/>
<polygon fill="midnightblue" stroke="midnightblue" points="105.439,-179.449 95.7372,-183.705 105.976,-186.428 105.439,-179.449"/>
</g>
<!-- Node3 -->
<g id="node3" class="node"><title>Node3</title>
<polygon fill="white" stroke="#bfbfbf" points="52,-137.5 52,-156.5 90,-156.5 90,-137.5 52,-137.5"/>
<text text-anchor="middle" x="71" y="-144.5" font-family="Helvetica,sans-Serif" font-size="10.00">float</text>
</g>
<!-- Node3&#45;&gt;Node1 -->
<g id="edge2" class="edge"><title>Node3&#45;&gt;Node1</title>
<path fill="none" stroke="#9a32cd" stroke-dasharray="5,2" d="M100.137,-143.341C138.749,-138.219 210.287,-128.37 271,-118 280.605,-116.359 290.859,-114.455 300.637,-112.565"/>
<polygon fill="#9a32cd" stroke="#9a32cd" points="99.6127,-139.88 90.156,-144.657 100.528,-146.82 99.6127,-139.88"/>
<text text-anchor="middle" x="215.5" y="-138" font-family="Helvetica,sans-Serif" font-size="10.00"> MapScale</text>
</g>
<!-- Node4 -->
<g id="node4" class="node"><title>Node4</title>
<polygon fill="white" stroke="#bfbfbf" points="8.5,-88 8.5,-118 133.5,-118 133.5,-88 8.5,-88"/>
<text text-anchor="start" x="16.5" y="-106" font-family="Helvetica,sans-Serif" font-size="10.00">TMap&lt; UStaticMesh *,</text>
<text text-anchor="middle" x="71" y="-95" font-family="Helvetica,sans-Serif" font-size="10.00"> ECityMapMeshTag &gt;</text>
</g>
<!-- Node4&#45;&gt;Node1 -->
<g id="edge3" class="edge"><title>Node4&#45;&gt;Node1</title>
<path fill="none" stroke="#9a32cd" stroke-dasharray="5,2" d="M143.834,-103C188.923,-103 246.34,-103 288.71,-103"/>
<polygon fill="#9a32cd" stroke="#9a32cd" points="143.828,-99.5001 133.828,-103 143.828,-106.5 143.828,-99.5001"/>
<text text-anchor="middle" x="215.5" y="-106" font-family="Helvetica,sans-Serif" font-size="10.00"> TagMap</text>
</g>
<!-- Node5 -->
<g id="node5" class="node"><title>Node5</title>
<polygon fill="white" stroke="#bfbfbf" points="0,-39 0,-69 142,-69 142,-39 0,-39"/>
<text text-anchor="start" x="8" y="-57" font-family="Helvetica,sans-Serif" font-size="10.00">TMap&lt; ECityMapMeshTag,</text>
<text text-anchor="middle" x="71" y="-46" font-family="Helvetica,sans-Serif" font-size="10.00"> UStaticMesh * &gt;</text>
</g>
<!-- Node5&#45;&gt;Node1 -->
<g id="edge4" class="edge"><title>Node5&#45;&gt;Node1</title>
<path fill="none" stroke="#9a32cd" stroke-dasharray="5,2" d="M152.114,-67.2297C188.442,-73.3467 231.926,-80.8323 271,-88 280.318,-89.7094 290.261,-91.6054 299.789,-93.4583"/>
<polygon fill="#9a32cd" stroke="#9a32cd" points="152.508,-63.747 142.067,-65.5421 151.349,-70.6503 152.508,-63.747"/>
<text text-anchor="middle" x="215.5" y="-91" font-family="Helvetica,sans-Serif" font-size="10.00"> StaticMeshes</text>
</g>
<!-- Node6 -->
<g id="node6" class="node"><title>Node6</title>
<polygon fill="white" stroke="#bfbfbf" points="11.5,-0.5 11.5,-19.5 130.5,-19.5 130.5,-0.5 11.5,-0.5"/>
<text text-anchor="middle" x="71" y="-7.5" font-family="Helvetica,sans-Serif" font-size="10.00">USceneComponent *</text>
</g>
<!-- Node6&#45;&gt;Node1 -->
<g id="edge5" class="edge"><title>Node6&#45;&gt;Node1</title>
<path fill="none" stroke="#9a32cd" stroke-dasharray="5,2" d="M140.612,-19.625C179.799,-26.5591 229.283,-37.7849 271,-55 295.349,-65.048 320.686,-82.5799 335.228,-93.4457"/>
<polygon fill="#9a32cd" stroke="#9a32cd" points="141.072,-16.1529 130.624,-17.9106 139.888,-23.052 141.072,-16.1529"/>
<text text-anchor="middle" x="215.5" y="-58" font-family="Helvetica,sans-Serif" font-size="10.00"> SceneRootComponent</text>
</g>
</g>
</svg>
