<?xml version="1.0" encoding="UTF-8" standalone="no"?>
<!DOCTYPE svg PUBLIC "-//W3C//DTD SVG 1.1//EN"
 "http://www.w3.org/Graphics/SVG/1.1/DTD/svg11.dtd">
<!-- Generated by graphviz version 2.40.1 (20161225.0304)
 -->
<!-- Title: FEpisodeSettings Pages: 1 -->
<svg width="629pt" height="139pt"
 viewBox="0.00 0.00 629.00 139.00" xmlns="http://www.w3.org/2000/svg" xmlns:xlink="http://www.w3.org/1999/xlink">
<g id="graph0" class="graph" transform="scale(1 1) rotate(0) translate(4 135)">
<title>FEpisodeSettings</title>
<polygon fill="#ffffff" stroke="transparent" points="-4,4 -4,-135 625,-135 625,4 -4,4"/>
<!-- Node1 -->
<g id="node1" class="node">
<title>Node1</title>
<polygon fill="#bfbfbf" stroke="#000000" points="247,-.5 247,-19.5 347,-19.5 347,-.5 247,-.5"/>
<text text-anchor="middle" x="297" y="-7.5" font-family="Helvetica,sans-Serif" font-size="10.00" fill="#000000">FEpisodeSettings</text>
</g>
<!-- Node2 -->
<g id="node2" class="node">
<title>Node2</title>
<polygon fill="#ffffff" stroke="#bfbfbf" points="0,-111.5 0,-130.5 50,-130.5 50,-111.5 0,-111.5"/>
<text text-anchor="middle" x="25" y="-118.5" font-family="Helvetica,sans-Serif" font-size="10.00" fill="#000000">double</text>
</g>
<!-- Node2&#45;&gt;Node1 -->
<g id="edge1" class="edge">
<title>Node2&#45;&gt;Node1</title>
<path fill="none" stroke="#9a32cd" stroke-dasharray="5,2" d="M23.5615,-101.2567C23.3485,-82.1053 26.3806,-53.7043 44,-38 58.8248,-24.7866 177.5633,-16.3244 246.981,-12.4557"/>
<polygon fill="#9a32cd" stroke="#9a32cd" points="20.0665,-101.451 23.9762,-111.298 27.0605,-101.1621 20.0665,-101.451"/>
<text text-anchor="middle" x="101" y="-63" font-family="Helvetica,sans-Serif" font-size="10.00" fill="#000000"> MaxSubstepDeltaTime</text>
</g>
<!-- Node3 -->
<g id="node3" class="node">
<title>Node3</title>
<polygon fill="#ffffff" stroke="#bfbfbf" points="143,-111.5 143,-130.5 181,-130.5 181,-111.5 143,-111.5"/>
<text text-anchor="middle" x="162" y="-118.5" font-family="Helvetica,sans-Serif" font-size="10.00" fill="#000000">float</text>
</g>
<!-- Node3&#45;&gt;Node1 -->
<g id="edge2" class="edge">
<title>Node3&#45;&gt;Node1</title>
<path fill="none" stroke="#9a32cd" stroke-dasharray="5,2" d="M161.0032,-101.1569C161.1891,-82.3656 164.5735,-54.6217 181,-38 190.4293,-28.4587 220.0024,-21.4055 246.9266,-16.7647"/>
<polygon fill="#9a32cd" stroke="#9a32cd" points="157.5062,-101.348 161.2007,-111.2777 164.5049,-101.2113 157.5062,-101.348"/>
<text text-anchor="middle" x="237" y="-74" font-family="Helvetica,sans-Serif" font-size="10.00" fill="#000000"> ActorActiveDistance</text>
<text text-anchor="middle" x="237" y="-63" font-family="Helvetica,sans-Serif" font-size="10.00" fill="#000000">TileStreamingDistance</text>
<text text-anchor="middle" x="237" y="-52" font-family="Helvetica,sans-Serif" font-size="10.00" fill="#000000">MaxCullingDistance</text>
</g>
<!-- Node4 -->
<g id="node4" class="node">
<title>Node4</title>
<polygon fill="#ffffff" stroke="#bfbfbf" points="282.5,-111.5 282.5,-130.5 311.5,-130.5 311.5,-111.5 282.5,-111.5"/>
<text text-anchor="middle" x="297" y="-118.5" font-family="Helvetica,sans-Serif" font-size="10.00" fill="#000000">int</text>
</g>
<!-- Node4&#45;&gt;Node1 -->
<g id="edge3" class="edge">
<title>Node4&#45;&gt;Node1</title>
<path fill="none" stroke="#9a32cd" stroke-dasharray="5,2" d="M297,-101.0467C297,-77.0543 297,-37.7599 297,-19.6699"/>
<polygon fill="#9a32cd" stroke="#9a32cd" points="293.5001,-101.1495 297,-111.1495 300.5001,-101.1495 293.5001,-101.1495"/>
<text text-anchor="middle" x="331" y="-63" font-family="Helvetica,sans-Serif" font-size="10.00" fill="#000000"> MaxSubsteps</text>
</g>
<!-- Node5 -->
<g id="node5" class="node">
<title>Node5</title>
<polygon fill="#ffffff" stroke="#bfbfbf" points="369,-111.5 369,-130.5 407,-130.5 407,-111.5 369,-111.5"/>
<text text-anchor="middle" x="388" y="-118.5" font-family="Helvetica,sans-Serif" font-size="10.00" fill="#000000">bool</text>
</g>
<!-- Node5&#45;&gt;Node1 -->
<g id="edge4" class="edge">
<title>Node5&#45;&gt;Node1</title>
<path fill="none" stroke="#9a32cd" stroke-dasharray="5,2" d="M387.6027,-101.0704C386.211,-82.6323 381.4235,-55.5074 366,-38 358.6506,-29.6576 348.4521,-23.7603 338.1482,-19.6068"/>
<polygon fill="#9a32cd" stroke="#9a32cd" points="384.1167,-101.445 388.0952,-111.2645 391.1085,-101.1072 384.1167,-101.445"/>
<text text-anchor="middle" x="443.5" y="-85" font-family="Helvetica,sans-Serif" font-size="10.00" fill="#000000"> bSubstepping</text>
<text text-anchor="middle" x="443.5" y="-74" font-family="Helvetica,sans-Serif" font-size="10.00" fill="#000000">SpectatorAsEgo</text>
<text text-anchor="middle" x="443.5" y="-63" font-family="Helvetica,sans-Serif" font-size="10.00" fill="#000000">bNoRenderingMode</text>
<text text-anchor="middle" x="443.5" y="-52" font-family="Helvetica,sans-Serif" font-size="10.00" fill="#000000">bSynchronousMode</text>
<text text-anchor="middle" x="443.5" y="-41" font-family="Helvetica,sans-Serif" font-size="10.00" fill="#000000">bDeterministicRagdolls</text>
</g>
<!-- Node6 -->
<g id="node6" class="node">
<title>Node6</title>
<polygon fill="#ffffff" stroke="#bfbfbf" points="466.5,-111.5 466.5,-130.5 585.5,-130.5 585.5,-111.5 466.5,-111.5"/>
<text text-anchor="middle" x="526" y="-118.5" font-family="Helvetica,sans-Serif" font-size="10.00" fill="#000000">TOptional&lt; double &gt;</text>
</g>
<!-- Node6&#45;&gt;Node1 -->
<g id="edge5" class="edge">
<title>Node6&#45;&gt;Node1</title>
<path fill="none" stroke="#9a32cd" stroke-dasharray="5,2" d="M526.58,-101.2758C525.989,-82.1392 521.8459,-53.7493 504,-38 492.4271,-27.7867 404.6957,-18.7741 347.221,-13.8823"/>
<polygon fill="#9a32cd" stroke="#9a32cd" points="523.0799,-101.3134 526.5942,-111.3084 530.0799,-101.3034 523.0799,-101.3134"/>
<text text-anchor="middle" x="573" y="-63" font-family="Helvetica,sans-Serif" font-size="10.00" fill="#000000"> FixedDeltaSeconds</text>
</g>
</g>
</svg>
