<?xml version="1.0" encoding="UTF-8" standalone="no"?>
<!DOCTYPE svg PUBLIC "-//W3C//DTD SVG 1.1//EN"
 "http://www.w3.org/Graphics/SVG/1.1/DTD/svg11.dtd">
<!-- Generated by graphviz version 2.40.1 (20161225.0304)
 -->
<!-- Title: FEpisodeSettings Pages: 1 -->
<!--zoomable 139 -->
<svg id="main" version="1.1" xmlns="http://www.w3.org/2000/svg" xmlns:xlink="http://www.w3.org/1999/xlink" xml:space="preserve" onload="init(evt)">
<style type="text/css"><![CDATA[
.edge:hover path { stroke: red; }
.edge:hover polygon { stroke: red; fill: red; }
]]></style>
<script type="text/javascript"><![CDATA[
var edges = document.getElementsByTagName('g');
if (edges && edges.length) {
  for (var i=0;i<edges.length;i++) {
    if (edges[i].id.substr(0,4)=='edge') {
      edges[i].setAttribute('class','edge');
    }
  }
}
]]></script>
        <defs>
                <circle id="rim" cx="0" cy="0" r="7"/>
                <circle id="rim2" cx="0" cy="0" r="3.5"/>
                <g id="zoomPlus">
                        <use xlink:href="#rim" fill="#404040">
                                <set attributeName="fill" to="#808080" begin="zoomplus.mouseover" end="zoomplus.mouseout"/>
                        </use>
                        <path d="M-4,0h8M0,-4v8" fill="none" stroke="white" stroke-width="1.5" pointer-events="none"/>
                </g>
                <g id="zoomMin">
                        <use xlink:href="#rim" fill="#404040">
                                <set attributeName="fill" to="#808080" begin="zoomminus.mouseover" end="zoomminus.mouseout"/>
                        </use>
                        <path d="M-4,0h8" fill="none" stroke="white" stroke-width="1.5" pointer-events="none"/>
                </g>
                <g id="dirArrow">
                        <path fill="none" stroke="white" stroke-width="1.5" d="M0,-3.0v7 M-2.5,-0.5L0,-3.0L2.5,-0.5"/>
                </g>
               <g id="resetDef">
                       <use xlink:href="#rim2" fill="#404040">
                               <set attributeName="fill" to="#808080" begin="reset.mouseover" end="reset.mouseout"/>
                       </use>
               </g>
        </defs>

<script type="text/javascript">
var viewWidth = 629;
var viewHeight = 139;
var sectionId = 'dynsection-0';
</script>
<script xlink:href="../../svgpan.js"/>
<svg id="graph" class="graph">
<g id="viewport">
<title>FEpisodeSettings</title>
<polygon fill="#ffffff" stroke="transparent" points="-4,4 -4,-135 625,-135 625,4 -4,4"/>
<!-- Node1 -->
<g id="node1" class="node">
<title>Node1</title>
<polygon fill="#bfbfbf" stroke="#000000" points="247,-.5 247,-19.5 347,-19.5 347,-.5 247,-.5"/>
<text text-anchor="middle" x="297" y="-7.5" font-family="Helvetica,sans-Serif" font-size="10.00" fill="#000000">FEpisodeSettings</text>
</g>
<!-- Node2 -->
<g id="node2" class="node">
<title>Node2</title>
<polygon fill="#ffffff" stroke="#bfbfbf" points="0,-111.5 0,-130.5 50,-130.5 50,-111.5 0,-111.5"/>
<text text-anchor="middle" x="25" y="-118.5" font-family="Helvetica,sans-Serif" font-size="10.00" fill="#000000">double</text>
</g>
<!-- Node2&#45;&gt;Node1 -->
<g id="edge1" class="edge">
<title>Node2&#45;&gt;Node1</title>
<path fill="none" stroke="#9a32cd" stroke-dasharray="5,2" d="M23.5615,-101.2567C23.3485,-82.1053 26.3806,-53.7043 44,-38 58.8248,-24.7866 177.5633,-16.3244 246.981,-12.4557"/>
<polygon fill="#9a32cd" stroke="#9a32cd" points="20.0665,-101.451 23.9762,-111.298 27.0605,-101.1621 20.0665,-101.451"/>
<text text-anchor="middle" x="101" y="-63" font-family="Helvetica,sans-Serif" font-size="10.00" fill="#000000"> MaxSubstepDeltaTime</text>
</g>
<!-- Node3 -->
<g id="node3" class="node">
<title>Node3</title>
<polygon fill="#ffffff" stroke="#bfbfbf" points="143,-111.5 143,-130.5 181,-130.5 181,-111.5 143,-111.5"/>
<text text-anchor="middle" x="162" y="-118.5" font-family="Helvetica,sans-Serif" font-size="10.00" fill="#000000">float</text>
</g>
<!-- Node3&#45;&gt;Node1 -->
<g id="edge2" class="edge">
<title>Node3&#45;&gt;Node1</title>
<path fill="none" stroke="#9a32cd" stroke-dasharray="5,2" d="M161.0032,-101.1569C161.1891,-82.3656 164.5735,-54.6217 181,-38 190.4293,-28.4587 220.0024,-21.4055 246.9266,-16.7647"/>
<polygon fill="#9a32cd" stroke="#9a32cd" points="157.5062,-101.348 161.2007,-111.2777 164.5049,-101.2113 157.5062,-101.348"/>
<text text-anchor="middle" x="237" y="-74" font-family="Helvetica,sans-Serif" font-size="10.00" fill="#000000"> ActorActiveDistance</text>
<text text-anchor="middle" x="237" y="-63" font-family="Helvetica,sans-Serif" font-size="10.00" fill="#000000">TileStreamingDistance</text>
<text text-anchor="middle" x="237" y="-52" font-family="Helvetica,sans-Serif" font-size="10.00" fill="#000000">MaxCullingDistance</text>
</g>
<!-- Node4 -->
<g id="node4" class="node">
<title>Node4</title>
<polygon fill="#ffffff" stroke="#bfbfbf" points="282.5,-111.5 282.5,-130.5 311.5,-130.5 311.5,-111.5 282.5,-111.5"/>
<text text-anchor="middle" x="297" y="-118.5" font-family="Helvetica,sans-Serif" font-size="10.00" fill="#000000">int</text>
</g>
<!-- Node4&#45;&gt;Node1 -->
<g id="edge3" class="edge">
<title>Node4&#45;&gt;Node1</title>
<path fill="none" stroke="#9a32cd" stroke-dasharray="5,2" d="M297,-101.0467C297,-77.0543 297,-37.7599 297,-19.6699"/>
<polygon fill="#9a32cd" stroke="#9a32cd" points="293.5001,-101.1495 297,-111.1495 300.5001,-101.1495 293.5001,-101.1495"/>
<text text-anchor="middle" x="331" y="-63" font-family="Helvetica,sans-Serif" font-size="10.00" fill="#000000"> MaxSubsteps</text>
</g>
<!-- Node5 -->
<g id="node5" class="node">
<title>Node5</title>
<polygon fill="#ffffff" stroke="#bfbfbf" points="369,-111.5 369,-130.5 407,-130.5 407,-111.5 369,-111.5"/>
<text text-anchor="middle" x="388" y="-118.5" font-family="Helvetica,sans-Serif" font-size="10.00" fill="#000000">bool</text>
</g>
<!-- Node5&#45;&gt;Node1 -->
<g id="edge4" class="edge">
<title>Node5&#45;&gt;Node1</title>
<path fill="none" stroke="#9a32cd" stroke-dasharray="5,2" d="M387.6027,-101.0704C386.211,-82.6323 381.4235,-55.5074 366,-38 358.6506,-29.6576 348.4521,-23.7603 338.1482,-19.6068"/>
<polygon fill="#9a32cd" stroke="#9a32cd" points="384.1167,-101.445 388.0952,-111.2645 391.1085,-101.1072 384.1167,-101.445"/>
<text text-anchor="middle" x="443.5" y="-85" font-family="Helvetica,sans-Serif" font-size="10.00" fill="#000000"> bSubstepping</text>
<text text-anchor="middle" x="443.5" y="-74" font-family="Helvetica,sans-Serif" font-size="10.00" fill="#000000">SpectatorAsEgo</text>
<text text-anchor="middle" x="443.5" y="-63" font-family="Helvetica,sans-Serif" font-size="10.00" fill="#000000">bNoRenderingMode</text>
<text text-anchor="middle" x="443.5" y="-52" font-family="Helvetica,sans-Serif" font-size="10.00" fill="#000000">bSynchronousMode</text>
<text text-anchor="middle" x="443.5" y="-41" font-family="Helvetica,sans-Serif" font-size="10.00" fill="#000000">bDeterministicRagdolls</text>
</g>
<!-- Node6 -->
<g id="node6" class="node">
<title>Node6</title>
<polygon fill="#ffffff" stroke="#bfbfbf" points="466.5,-111.5 466.5,-130.5 585.5,-130.5 585.5,-111.5 466.5,-111.5"/>
<text text-anchor="middle" x="526" y="-118.5" font-family="Helvetica,sans-Serif" font-size="10.00" fill="#000000">TOptional&lt; double &gt;</text>
</g>
<!-- Node6&#45;&gt;Node1 -->
<g id="edge5" class="edge">
<title>Node6&#45;&gt;Node1</title>
<path fill="none" stroke="#9a32cd" stroke-dasharray="5,2" d="M526.58,-101.2758C525.989,-82.1392 521.8459,-53.7493 504,-38 492.4271,-27.7867 404.6957,-18.7741 347.221,-13.8823"/>
<polygon fill="#9a32cd" stroke="#9a32cd" points="523.0799,-101.3134 526.5942,-111.3084 530.0799,-101.3034 523.0799,-101.3134"/>
<text text-anchor="middle" x="573" y="-63" font-family="Helvetica,sans-Serif" font-size="10.00" fill="#000000"> FixedDeltaSeconds</text>
</g>
</g>
</svg>
        <g id="navigator" transform="translate(0 0)" fill="#404254">
                <rect fill="#f2f5e9" fill-opacity="0.5" stroke="#606060" stroke-width=".5" x="0" y="0" width="60" height="60"/>
                <use id="zoomplus" xlink:href="#zoomPlus" x="17" y="9" onmousedown="handleZoom(evt,'in')"/>
                <use id="zoomminus" xlink:href="#zoomMin" x="42" y="9" onmousedown="handleZoom(evt,'out')"/>
                <use id="reset" xlink:href="#resetDef" x="30" y="36" onmousedown="handleReset()"/>
                <g id="arrowUp" xlink:href="#dirArrow" transform="translate(30 24)" onmousedown="handlePan(0,-1)">
                  <use xlink:href="#rim" fill="#404040">
                        <set attributeName="fill" to="#808080" begin="arrowUp.mouseover" end="arrowUp.mouseout"/>
                  </use>
                  <path fill="none" stroke="white" stroke-width="1.5" d="M0,-3.0v7 M-2.5,-0.5L0,-3.0L2.5,-0.5"/>
                </g>
                <g id="arrowRight" xlink:href="#dirArrow" transform="rotate(90) translate(36 -43)" onmousedown="handlePan(1,0)">
                  <use xlink:href="#rim" fill="#404040">
                        <set attributeName="fill" to="#808080" begin="arrowRight.mouseover" end="arrowRight.mouseout"/>
                  </use>
                  <path fill="none" stroke="white" stroke-width="1.5" d="M0,-3.0v7 M-2.5,-0.5L0,-3.0L2.5,-0.5"/>
                </g>
                <g id="arrowDown" xlink:href="#dirArrow" transform="rotate(180) translate(-30 -48)" onmousedown="handlePan(0,1)">
                  <use xlink:href="#rim" fill="#404040">
                        <set attributeName="fill" to="#808080" begin="arrowDown.mouseover" end="arrowDown.mouseout"/>
                  </use>
                  <path fill="none" stroke="white" stroke-width="1.5" d="M0,-3.0v7 M-2.5,-0.5L0,-3.0L2.5,-0.5"/>
                </g>
                <g id="arrowLeft" xlink:href="#dirArrow" transform="rotate(270) translate(-36 17)" onmousedown="handlePan(-1,0)">
                  <use xlink:href="#rim" fill="#404040">
                        <set attributeName="fill" to="#808080" begin="arrowLeft.mouseover" end="arrowLeft.mouseout"/>
                  </use>
                  <path fill="none" stroke="white" stroke-width="1.5" d="M0,-3.0v7 M-2.5,-0.5L0,-3.0L2.5,-0.5"/>
                </g>
        </g>
        <svg viewBox="0 0 15 15" width="100%" height="30px" preserveAspectRatio="xMaxYMin meet">
         <g id="arrow_out" transform="scale(0.3 0.3)">
          <a xlink:href="structFEpisodeSettings__coll__graph_org.svg" target="_base">
           <rect id="button" ry="5" rx="5" y="6" x="6" height="38" width="38"
                fill="#f2f5e9" fill-opacity="0.5" stroke="#606060" stroke-width="1.0"/>
           <path id="arrow"
             d="M 11.500037,31.436501 C 11.940474,20.09759 22.043105,11.32322 32.158766,21.979434 L 37.068811,17.246167 C 37.068811,17.246167 37.088388,32 37.088388,32 L 22.160133,31.978069 C 22.160133,31.978069 26.997745,27.140456 26.997745,27.140456 C 18.528582,18.264221 13.291696,25.230495 11.500037,31.436501 z"
             style="fill:#404040;"/>
          </a>
         </g>
        </svg>
</svg>
