<?xml version="1.0" encoding="UTF-8" standalone="no"?>
<!DOCTYPE svg PUBLIC "-//W3C//DTD SVG 1.1//EN"
 "http://www.w3.org/Graphics/SVG/1.1/DTD/svg11.dtd">
<!-- Generated by graphviz version 2.38.0 (20140413.2041)
 -->
<!-- Title: carla::StringUtil::Split Pages: 1 -->
<svg width="1200pt" height="194pt"
 viewBox="0.00 0.00 1200.00 194.00" xmlns="http://www.w3.org/2000/svg" xmlns:xlink="http://www.w3.org/1999/xlink">
<g id="graph0" class="graph" transform="scale(1 1) rotate(0) translate(4 190)">
<title>carla::StringUtil::Split</title>
<polygon fill="white" stroke="none" points="-4,4 -4,-190 1196,-190 1196,4 -4,4"/>
<!-- Node1 -->
<g id="node1" class="node"><title>Node1</title>
<polygon fill="#bfbfbf" stroke="black" points="0,-106.5 0,-136.5 90,-136.5 90,-106.5 0,-106.5"/>
<text text-anchor="start" x="8" y="-124.5" font-family="Helvetica,sans-Serif" font-size="10.00">carla::StringUtil::</text>
<text text-anchor="middle" x="45" y="-113.5" font-family="Helvetica,sans-Serif" font-size="10.00">Split</text>
</g>
<!-- Node2 -->
<g id="node2" class="node"><title>Node2</title>
<g id="a_node2"><a xlink:href="../../d2/daf/namespacecarla_1_1client.html#a574d5e4e23964721e7c4fb984608422c" target="_top" xlink:title="carla::client::As\&lt;\l sensor::data::Color \&gt;">
<polygon fill="white" stroke="black" points="137,-155.5 137,-185.5 249,-185.5 249,-155.5 137,-155.5"/>
<text text-anchor="start" x="145" y="-173.5" font-family="Helvetica,sans-Serif" font-size="10.00">carla::client::As&lt;</text>
<text text-anchor="middle" x="193" y="-162.5" font-family="Helvetica,sans-Serif" font-size="10.00"> sensor::data::Color &gt;</text>
</a>
</g>
</g>
<!-- Node1&#45;&gt;Node2 -->
<g id="edge1" class="edge"><title>Node1&#45;&gt;Node2</title>
<path fill="none" stroke="midnightblue" d="M99.725,-139.531C115.329,-144.768 132.198,-150.43 147.193,-155.462"/>
<polygon fill="midnightblue" stroke="midnightblue" points="100.795,-136.198 90.201,-136.335 98.5677,-142.835 100.795,-136.198"/>
</g>
<!-- Node3 -->
<g id="node3" class="node"><title>Node3</title>
<g id="a_node3"><a xlink:href="../../d8/dd9/classcarla_1_1client_1_1ActorBlueprint.html#a602ae9ea4f8e73c883d773b480750650" target="_top" xlink:title="carla::client::ActorBlueprint\l::ActorBlueprint">
<polygon fill="white" stroke="black" points="126,-106.5 126,-136.5 260,-136.5 260,-106.5 126,-106.5"/>
<text text-anchor="start" x="134" y="-124.5" font-family="Helvetica,sans-Serif" font-size="10.00">carla::client::ActorBlueprint</text>
<text text-anchor="middle" x="193" y="-113.5" font-family="Helvetica,sans-Serif" font-size="10.00">::ActorBlueprint</text>
</a>
</g>
</g>
<!-- Node1&#45;&gt;Node3 -->
<g id="edge2" class="edge"><title>Node1&#45;&gt;Node3</title>
<path fill="none" stroke="midnightblue" d="M100.47,-121.5C108.748,-121.5 117.366,-121.5 125.86,-121.5"/>
<polygon fill="midnightblue" stroke="midnightblue" points="100.201,-118 90.201,-121.5 100.201,-125 100.201,-118"/>
</g>
<!-- Node4 -->
<g id="node4" class="node"><title>Node4</title>
<g id="a_node4"><a xlink:href="../../db/dd5/namespacecarla_1_1opendrive_1_1parser.html#a8dad6b9e5e958cdeca4463f6c94d6c24" target="_top" xlink:title="carla::opendrive::parser\l::ParseGeoReference">
<polygon fill="white" stroke="black" points="133.5,-57.5 133.5,-87.5 252.5,-87.5 252.5,-57.5 133.5,-57.5"/>
<text text-anchor="start" x="141.5" y="-75.5" font-family="Helvetica,sans-Serif" font-size="10.00">carla::opendrive::parser</text>
<text text-anchor="middle" x="193" y="-64.5" font-family="Helvetica,sans-Serif" font-size="10.00">::ParseGeoReference</text>
</a>
</g>
</g>
<!-- Node1&#45;&gt;Node4 -->
<g id="edge3" class="edge"><title>Node1&#45;&gt;Node4</title>
<path fill="none" stroke="midnightblue" d="M99.725,-103.469C115.329,-98.2321 132.198,-92.5704 147.193,-87.538"/>
<polygon fill="midnightblue" stroke="midnightblue" points="98.5677,-100.165 90.201,-106.665 100.795,-106.802 98.5677,-100.165"/>
</g>
<!-- Node5 -->
<g id="node5" class="node"><title>Node5</title>
<g id="a_node5"><a xlink:href="../../d1/dae/classcarla_1_1opendrive_1_1parser_1_1GeoReferenceParser.html#abbd0edc0b3507042c5a0af753473192b" target="_top" xlink:title="carla::opendrive::parser\l::GeoReferenceParser::Parse">
<polygon fill="white" stroke="black" points="296,-57.5 296,-87.5 442,-87.5 442,-57.5 296,-57.5"/>
<text text-anchor="start" x="304" y="-75.5" font-family="Helvetica,sans-Serif" font-size="10.00">carla::opendrive::parser</text>
<text text-anchor="middle" x="369" y="-64.5" font-family="Helvetica,sans-Serif" font-size="10.00">::GeoReferenceParser::Parse</text>
</a>
</g>
</g>
<!-- Node4&#45;&gt;Node5 -->
<g id="edge4" class="edge"><title>Node4&#45;&gt;Node5</title>
<path fill="none" stroke="midnightblue" d="M263.1,-72.5C273.876,-72.5 285.036,-72.5 295.877,-72.5"/>
<polygon fill="midnightblue" stroke="midnightblue" points="262.908,-69.0001 252.908,-72.5 262.908,-76.0001 262.908,-69.0001"/>
</g>
<!-- Node6 -->
<g id="node6" class="node"><title>Node6</title>
<g id="a_node6"><a xlink:href="../../de/d5a/classcarla_1_1opendrive_1_1OpenDriveParser.html#a599fd6174f30aaee59590c16503afd8a" target="_top" xlink:title="carla::opendrive::OpenDrive\lParser::Load">
<polygon fill="white" stroke="black" points="478,-57.5 478,-87.5 616,-87.5 616,-57.5 478,-57.5"/>
<text text-anchor="start" x="486" y="-75.5" font-family="Helvetica,sans-Serif" font-size="10.00">carla::opendrive::OpenDrive</text>
<text text-anchor="middle" x="547" y="-64.5" font-family="Helvetica,sans-Serif" font-size="10.00">Parser::Load</text>
</a>
</g>
</g>
<!-- Node5&#45;&gt;Node6 -->
<g id="edge5" class="edge"><title>Node5&#45;&gt;Node6</title>
<path fill="none" stroke="midnightblue" d="M452.181,-72.5C460.82,-72.5 469.534,-72.5 477.988,-72.5"/>
<polygon fill="midnightblue" stroke="midnightblue" points="452.094,-69.0001 442.094,-72.5 452.094,-76.0001 452.094,-69.0001"/>
</g>
<!-- Node7 -->
<g id="node7" class="node"><title>Node7</title>
<g id="a_node7"><a xlink:href="../../db/de5/classACarlaGameModeBase.html#a5caddc59713354578997de90542ddd93" target="_top" xlink:title="ACarlaGameModeBase\l::InitGame">
<polygon fill="white" stroke="black" points="668.5,-120.5 668.5,-150.5 787.5,-150.5 787.5,-120.5 668.5,-120.5"/>
<text text-anchor="start" x="676.5" y="-138.5" font-family="Helvetica,sans-Serif" font-size="10.00">ACarlaGameModeBase</text>
<text text-anchor="middle" x="728" y="-127.5" font-family="Helvetica,sans-Serif" font-size="10.00">::InitGame</text>
</a>
</g>
</g>
<!-- Node6&#45;&gt;Node7 -->
<g id="edge6" class="edge"><title>Node6&#45;&gt;Node7</title>
<path fill="none" stroke="midnightblue" d="M598.166,-91.1579C615.214,-97.4112 634.402,-104.353 652,-110.5 661.329,-113.759 671.344,-117.162 680.92,-120.37"/>
<polygon fill="midnightblue" stroke="midnightblue" points="598.997,-87.7344 588.403,-87.5669 596.58,-94.304 598.997,-87.7344"/>
</g>
<!-- Node8 -->
<g id="node8" class="node"><title>Node8</title>
<g id="a_node8"><a xlink:href="../../d2/daf/namespacecarla_1_1client.html#a228b83c6429f8e3406a93a1b41eb1565" target="_top" xlink:title="carla::client::MakeMap">
<polygon fill="white" stroke="black" points="670,-82 670,-101 786,-101 786,-82 670,-82"/>
<text text-anchor="middle" x="728" y="-89" font-family="Helvetica,sans-Serif" font-size="10.00">carla::client::MakeMap</text>
</a>
</g>
</g>
<!-- Node6&#45;&gt;Node8 -->
<g id="edge7" class="edge"><title>Node6&#45;&gt;Node8</title>
<path fill="none" stroke="midnightblue" d="M626.235,-80.8043C640.878,-82.3586 655.93,-83.9563 669.789,-85.4274"/>
<polygon fill="midnightblue" stroke="midnightblue" points="626.496,-77.3124 616.183,-79.7373 625.758,-84.2733 626.496,-77.3124"/>
</g>
<!-- Node9 -->
<g id="node9" class="node"><title>Node9</title>
<g id="a_node9"><a xlink:href="../../d0/d2d/classAOpenDriveActor.html#ac8678af2b371c3a3faca8775ab1e4816" target="_top" xlink:title="AOpenDriveActor::BuildRoutes">
<polygon fill="white" stroke="black" points="652,-44 652,-63 804,-63 804,-44 652,-44"/>
<text text-anchor="middle" x="728" y="-51" font-family="Helvetica,sans-Serif" font-size="10.00">AOpenDriveActor::BuildRoutes</text>
</a>
</g>
</g>
<!-- Node6&#45;&gt;Node9 -->
<g id="edge8" class="edge"><title>Node6&#45;&gt;Node9</title>
<path fill="none" stroke="midnightblue" d="M626.401,-64.1781C634.849,-63.2814 643.431,-62.3705 651.84,-61.4779"/>
<polygon fill="midnightblue" stroke="midnightblue" points="625.758,-60.7267 616.183,-65.2627 626.496,-67.6876 625.758,-60.7267"/>
</g>
<!-- Node10 -->
<g id="node10" class="node"><title>Node10</title>
<g id="a_node10"><a xlink:href="../../d8/dfe/classUOpenDriveMap.html#a0ce422ee1f79211e6957bab1d2048348" target="_top" xlink:title="Load this map with an OpenDrive (XODR) file. ">
<polygon fill="white" stroke="black" points="670,-6 670,-25 786,-25 786,-6 670,-6"/>
<text text-anchor="middle" x="728" y="-13" font-family="Helvetica,sans-Serif" font-size="10.00">UOpenDriveMap::Load</text>
</a>
</g>
</g>
<!-- Node6&#45;&gt;Node10 -->
<g id="edge9" class="edge"><title>Node6&#45;&gt;Node10</title>
<path fill="none" stroke="midnightblue" d="M595.675,-53.92C613.246,-47.3804 633.401,-40.2372 652,-34.5 663.038,-31.0949 675.124,-27.8334 686.308,-25.0033"/>
<polygon fill="midnightblue" stroke="midnightblue" points="594.335,-50.6844 586.206,-57.4782 596.798,-57.2371 594.335,-50.6844"/>
</g>
<!-- Node11 -->
<g id="node11" class="node"><title>Node11</title>
<g id="a_node11"><a xlink:href="../../d1/d1b/classUOpenDrive.html#ac05b8dc3f340e373582945f9215081d9" target="_top" xlink:title="Load OpenDriveMap associated to the given MapName. ">
<polygon fill="white" stroke="black" points="840,-6 840,-25 1003,-25 1003,-6 840,-6"/>
<text text-anchor="middle" x="921.5" y="-13" font-family="Helvetica,sans-Serif" font-size="10.00">UOpenDrive::LoadOpenDriveMap</text>
</a>
</g>
</g>
<!-- Node10&#45;&gt;Node11 -->
<g id="edge10" class="edge"><title>Node10&#45;&gt;Node11</title>
<path fill="none" stroke="midnightblue" d="M796.277,-15.5C810.366,-15.5 825.361,-15.5 839.879,-15.5"/>
<polygon fill="midnightblue" stroke="midnightblue" points="796.197,-12.0001 786.197,-15.5 796.197,-19.0001 796.197,-12.0001"/>
</g>
<!-- Node12 -->
<g id="node12" class="node"><title>Node12</title>
<g id="a_node12"><a xlink:href="../../d1/d1b/classUOpenDrive.html#a4486c7ee9d4a8bf6cd2a7ca5ad7e4ece" target="_top" xlink:title="Load OpenDriveMap associated to the currently loaded map. ">
<polygon fill="white" stroke="black" points="1039,-0.5 1039,-30.5 1192,-30.5 1192,-0.5 1039,-0.5"/>
<text text-anchor="start" x="1047" y="-18.5" font-family="Helvetica,sans-Serif" font-size="10.00">UOpenDrive::LoadCurrentOpen</text>
<text text-anchor="middle" x="1115.5" y="-7.5" font-family="Helvetica,sans-Serif" font-size="10.00">DriveMap</text>
</a>
</g>
</g>
<!-- Node11&#45;&gt;Node12 -->
<g id="edge11" class="edge"><title>Node11&#45;&gt;Node12</title>
<path fill="none" stroke="midnightblue" d="M1013.11,-15.5C1021.68,-15.5 1030.3,-15.5 1038.71,-15.5"/>
<polygon fill="midnightblue" stroke="midnightblue" points="1013.09,-12.0001 1003.09,-15.5 1013.09,-19.0001 1013.09,-12.0001"/>
</g>
</g>
</svg>
