<?xml version="1.0" encoding="UTF-8" standalone="no"?>
<!DOCTYPE svg PUBLIC "-//W3C//DTD SVG 1.1//EN"
 "http://www.w3.org/Graphics/SVG/1.1/DTD/svg11.dtd">
<!-- Generated by graphviz version 2.38.0 (20140413.2041)
 -->
<!-- Title: CarlaRecorder.h Pages: 1 -->
<!--zoomable 319 -->
<svg id="main" version="1.1" xmlns="http://www.w3.org/2000/svg" xmlns:xlink="http://www.w3.org/1999/xlink" xml:space="preserve" onload="init(evt)">
<style type="text/css"><![CDATA[
.edge:hover path { stroke: red; }
.edge:hover polygon { stroke: red; fill: red; }
]]></style>
<script type="text/javascript"><![CDATA[
var edges = document.getElementsByTagName('g');
if (edges && edges.length) {
  for (var i=0;i<edges.length;i++) {
    if (edges[i].id.substr(0,4)=='edge') {
      edges[i].setAttribute('class','edge');
    }
  }
}
]]></script>
        <defs>
                <circle id="rim" cx="0" cy="0" r="7"/>
                <circle id="rim2" cx="0" cy="0" r="3.5"/>
                <g id="zoomPlus">
                        <use xlink:href="#rim" fill="#404040">
                                <set attributeName="fill" to="#808080" begin="zoomplus.mouseover" end="zoomplus.mouseout"/>
                        </use>
                        <path d="M-4,0h8M0,-4v8" fill="none" stroke="white" stroke-width="1.5" pointer-events="none"/>
                </g>
                <g id="zoomMin">
                        <use xlink:href="#rim" fill="#404040">
                                <set attributeName="fill" to="#808080" begin="zoomminus.mouseover" end="zoomminus.mouseout"/>
                        </use>
                        <path d="M-4,0h8" fill="none" stroke="white" stroke-width="1.5" pointer-events="none"/>
                </g>
                <g id="dirArrow">
                        <path fill="none" stroke="white" stroke-width="1.5" d="M0,-3.0v7 M-2.5,-0.5L0,-3.0L2.5,-0.5"/>
                </g>
               <g id="resetDef">
                       <use xlink:href="#rim2" fill="#404040">
                               <set attributeName="fill" to="#808080" begin="reset.mouseover" end="reset.mouseout"/>
                       </use>
               </g>
        </defs>

<script type="text/javascript">
var viewWidth = 2343;
var viewHeight = 319;
var sectionId = 'dynsection-0';
</script>
<script xlink:href="../../svgpan.js"/>
<svg id="graph" class="graph">
<g id="viewport">
<title>CarlaRecorder.h</title>
<polygon fill="white" stroke="none" points="-4,4 -4,-315 2339.1,-315 2339.1,4 -4,4"/>
<!-- Node1 -->
<g id="node1" class="node"><title>Node1</title>
<polygon fill="#bfbfbf" stroke="black" points="1160.6,-291.5 1160.6,-310.5 1248.6,-310.5 1248.6,-291.5 1160.6,-291.5"/>
<text text-anchor="middle" x="1204.6" y="-298.5" font-family="Helvetica,sans-Serif" font-size="10.00">CarlaRecorder.h</text>
</g>
<!-- Node2 -->
<g id="node2" class="node"><title>Node2</title>
<polygon fill="white" stroke="#bfbfbf" points="1140.6,-56.5 1140.6,-75.5 1190.6,-75.5 1190.6,-56.5 1140.6,-56.5"/>
<text text-anchor="middle" x="1165.6" y="-63.5" font-family="Helvetica,sans-Serif" font-size="10.00">fstream</text>
</g>
<!-- Node1&#45;&gt;Node2 -->
<g id="edge1" class="edge"><title>Node1&#45;&gt;Node2</title>
<path fill="none" stroke="midnightblue" d="M1160.55,-299.753C995.253,-298.547 412.179,-291.728 230.603,-255 119.566,-232.54 -58.9149,-193.661 19.6027,-112 39.3477,-91.4644 940.169,-71.6719 1130.51,-67.7146"/>
<polygon fill="midnightblue" stroke="midnightblue" points="1130.61,-71.2134 1140.54,-67.5073 1130.47,-64.2149 1130.61,-71.2134"/>
</g>
<!-- Node3 -->
<g id="node3" class="node"><title>Node3</title>
<g id="a_node3"><a xlink:href="../../d4/de6/Unreal_2CarlaUE4_2Plugins_2Carla_2Source_2Carla_2Actor_2ActorDescription_8h.html" target="_top" xlink:title="Carla/Actor/ActorDescription.h">
<polygon fill="white" stroke="black" points="239.603,-235.5 239.603,-254.5 389.603,-254.5 389.603,-235.5 239.603,-235.5"/>
<text text-anchor="middle" x="314.603" y="-242.5" font-family="Helvetica,sans-Serif" font-size="10.00">Carla/Actor/ActorDescription.h</text>
</a>
</g>
</g>
<!-- Node1&#45;&gt;Node3 -->
<g id="edge2" class="edge"><title>Node1&#45;&gt;Node3</title>
<path fill="none" stroke="midnightblue" d="M1160.47,-297.322C1020.62,-288.837 585.625,-262.444 399.973,-251.18"/>
<polygon fill="midnightblue" stroke="midnightblue" points="399.908,-247.669 389.714,-250.557 399.484,-254.657 399.908,-247.669"/>
</g>
<!-- Node15 -->
<g id="node15" class="node"><title>Node15</title>
<g id="a_node15"><a xlink:href="../../d6/d44/CarlaRecorderAnimVehicle_8h.html" target="_top" xlink:title="CarlaRecorderAnimVehicle.h">
<polygon fill="white" stroke="black" points="404.103,-179.5 404.103,-198.5 547.103,-198.5 547.103,-179.5 404.103,-179.5"/>
<text text-anchor="middle" x="475.603" y="-186.5" font-family="Helvetica,sans-Serif" font-size="10.00">CarlaRecorderAnimVehicle.h</text>
</a>
</g>
</g>
<!-- Node1&#45;&gt;Node15 -->
<g id="edge14" class="edge"><title>Node1&#45;&gt;Node15</title>
<path fill="none" stroke="midnightblue" d="M1160.45,-294.898C1094.14,-287.102 964.957,-271.396 855.603,-255 740.231,-237.702 605.805,-213.827 531.755,-200.35"/>
<polygon fill="midnightblue" stroke="midnightblue" points="532.181,-196.87 521.715,-198.519 530.925,-203.756 532.181,-196.87"/>
</g>
<!-- Node17 -->
<g id="node17" class="node"><title>Node17</title>
<g id="a_node17"><a xlink:href="../../d3/d60/CarlaRecorderAnimWalker_8h.html" target="_top" xlink:title="CarlaRecorderAnimWalker.h">
<polygon fill="white" stroke="black" points="565.103,-179.5 565.103,-198.5 706.103,-198.5 706.103,-179.5 565.103,-179.5"/>
<text text-anchor="middle" x="635.603" y="-186.5" font-family="Helvetica,sans-Serif" font-size="10.00">CarlaRecorderAnimWalker.h</text>
</a>
</g>
</g>
<!-- Node1&#45;&gt;Node17 -->
<g id="edge17" class="edge"><title>Node1&#45;&gt;Node17</title>
<path fill="none" stroke="midnightblue" d="M1160.2,-292.223C1110.54,-283.46 1027.72,-268.652 956.603,-255 860.993,-236.648 749.685,-213.768 686.445,-200.627"/>
<polygon fill="midnightblue" stroke="midnightblue" points="686.845,-197.135 676.341,-198.525 685.419,-203.988 686.845,-197.135"/>
</g>
<!-- Node18 -->
<g id="node18" class="node"><title>Node18</title>
<g id="a_node18"><a xlink:href="../../df/d06/CarlaRecorderCollision_8h.html" target="_top" xlink:title="CarlaRecorderCollision.h">
<polygon fill="white" stroke="black" points="1218.1,-179.5 1218.1,-198.5 1343.1,-198.5 1343.1,-179.5 1218.1,-179.5"/>
<text text-anchor="middle" x="1280.6" y="-186.5" font-family="Helvetica,sans-Serif" font-size="10.00">CarlaRecorderCollision.h</text>
</a>
</g>
</g>
<!-- Node1&#45;&gt;Node18 -->
<g id="edge20" class="edge"><title>Node1&#45;&gt;Node18</title>
<path fill="none" stroke="midnightblue" d="M1225.33,-291.397C1240.4,-284.02 1259.95,-271.893 1270.6,-255 1279.26,-241.267 1281.39,-222.737 1281.56,-208.976"/>
<polygon fill="midnightblue" stroke="midnightblue" points="1285.06,-208.674 1281.36,-198.747 1278.06,-208.816 1285.06,-208.674"/>
</g>
<!-- Node20 -->
<g id="node20" class="node"><title>Node20</title>
<g id="a_node20"><a xlink:href="../../d0/d0e/CarlaRecorderEventAdd_8h.html" target="_top" xlink:title="CarlaRecorderEventAdd.h">
<polygon fill="white" stroke="black" points="724.103,-179.5 724.103,-198.5 855.103,-198.5 855.103,-179.5 724.103,-179.5"/>
<text text-anchor="middle" x="789.603" y="-186.5" font-family="Helvetica,sans-Serif" font-size="10.00">CarlaRecorderEventAdd.h</text>
</a>
</g>
</g>
<!-- Node1&#45;&gt;Node20 -->
<g id="edge24" class="edge"><title>Node1&#45;&gt;Node20</title>
<path fill="none" stroke="midnightblue" d="M1172.38,-291.46C1098.07,-271.762 914.682,-223.154 831.652,-201.146"/>
<polygon fill="midnightblue" stroke="midnightblue" points="832.364,-197.714 821.801,-198.535 830.571,-204.48 832.364,-197.714"/>
</g>
<!-- Node21 -->
<g id="node21" class="node"><title>Node21</title>
<g id="a_node21"><a xlink:href="../../d7/d4c/CarlaRecorderEventDel_8h.html" target="_top" xlink:title="CarlaRecorderEventDel.h">
<polygon fill="white" stroke="black" points="873.603,-179.5 873.603,-198.5 1001.6,-198.5 1001.6,-179.5 873.603,-179.5"/>
<text text-anchor="middle" x="937.603" y="-186.5" font-family="Helvetica,sans-Serif" font-size="10.00">CarlaRecorderEventDel.h</text>
</a>
</g>
</g>
<!-- Node1&#45;&gt;Node21 -->
<g id="edge27" class="edge"><title>Node1&#45;&gt;Node21</title>
<path fill="none" stroke="midnightblue" d="M1183.65,-291.368C1136.66,-272.01 1022.71,-225.065 967.961,-202.507"/>
<polygon fill="midnightblue" stroke="midnightblue" points="969.036,-199.165 958.456,-198.591 966.369,-205.637 969.036,-199.165"/>
</g>
<!-- Node22 -->
<g id="node22" class="node"><title>Node22</title>
<g id="a_node22"><a xlink:href="../../d0/dc2/CarlaRecorderEventParent_8h.html" target="_top" xlink:title="CarlaRecorderEventParent.h">
<polygon fill="white" stroke="black" points="1057.6,-179.5 1057.6,-198.5 1199.6,-198.5 1199.6,-179.5 1057.6,-179.5"/>
<text text-anchor="middle" x="1128.6" y="-186.5" font-family="Helvetica,sans-Serif" font-size="10.00">CarlaRecorderEventParent.h</text>
</a>
</g>
</g>
<!-- Node1&#45;&gt;Node22 -->
<g id="edge30" class="edge"><title>Node1&#45;&gt;Node22</title>
<path fill="none" stroke="midnightblue" d="M1183.87,-291.397C1168.8,-284.02 1149.25,-271.893 1138.6,-255 1129.94,-241.267 1127.82,-222.737 1127.64,-208.976"/>
<polygon fill="midnightblue" stroke="midnightblue" points="1131.14,-208.816 1127.85,-198.747 1124.15,-208.674 1131.14,-208.816"/>
</g>
<!-- Node23 -->
<g id="node23" class="node"><title>Node23</title>
<g id="a_node23"><a xlink:href="../../dc/dfc/CarlaRecorderFrames_8h.html" target="_top" xlink:title="CarlaRecorderFrames.h">
<polygon fill="white" stroke="black" points="1361.1,-179.5 1361.1,-198.5 1482.1,-198.5 1482.1,-179.5 1361.1,-179.5"/>
<text text-anchor="middle" x="1421.6" y="-186.5" font-family="Helvetica,sans-Serif" font-size="10.00">CarlaRecorderFrames.h</text>
</a>
</g>
</g>
<!-- Node1&#45;&gt;Node23 -->
<g id="edge33" class="edge"><title>Node1&#45;&gt;Node23</title>
<path fill="none" stroke="midnightblue" d="M1221.63,-291.368C1259.42,-272.211 1350.51,-226.036 1395.53,-203.217"/>
<polygon fill="midnightblue" stroke="midnightblue" points="1397.32,-206.235 1404.65,-198.591 1394.15,-199.991 1397.32,-206.235"/>
</g>
<!-- Node24 -->
<g id="node24" class="node"><title>Node24</title>
<g id="a_node24"><a xlink:href="../../df/de9/CarlaRecorderInfo_8h.html" target="_top" xlink:title="CarlaRecorderInfo.h">
<polygon fill="white" stroke="black" points="1641.6,-179.5 1641.6,-198.5 1745.6,-198.5 1745.6,-179.5 1641.6,-179.5"/>
<text text-anchor="middle" x="1693.6" y="-186.5" font-family="Helvetica,sans-Serif" font-size="10.00">CarlaRecorderInfo.h</text>
</a>
</g>
</g>
<!-- Node1&#45;&gt;Node24 -->
<g id="edge35" class="edge"><title>Node1&#45;&gt;Node24</title>
<path fill="none" stroke="midnightblue" d="M1242.57,-291.46C1330.67,-271.642 1548.86,-222.559 1645.83,-200.745"/>
<polygon fill="midnightblue" stroke="midnightblue" points="1646.67,-204.144 1655.66,-198.535 1645.14,-197.315 1646.67,-204.144"/>
</g>
<!-- Node27 -->
<g id="node27" class="node"><title>Node27</title>
<g id="a_node27"><a xlink:href="../../dc/d20/CarlaRecorderPosition_8h.html" target="_top" xlink:title="CarlaRecorderPosition.h">
<polygon fill="white" stroke="black" points="1500.1,-179.5 1500.1,-198.5 1623.1,-198.5 1623.1,-179.5 1500.1,-179.5"/>
<text text-anchor="middle" x="1561.6" y="-186.5" font-family="Helvetica,sans-Serif" font-size="10.00">CarlaRecorderPosition.h</text>
</a>
</g>
</g>
<!-- Node1&#45;&gt;Node27 -->
<g id="edge40" class="edge"><title>Node1&#45;&gt;Node27</title>
<path fill="none" stroke="midnightblue" d="M1232.32,-291.46C1295.84,-271.886 1452.02,-223.766 1524.07,-201.565"/>
<polygon fill="midnightblue" stroke="midnightblue" points="1525.13,-204.9 1533.66,-198.61 1523.07,-198.21 1525.13,-204.9"/>
</g>
<!-- Node28 -->
<g id="node28" class="node"><title>Node28</title>
<g id="a_node28"><a xlink:href="../../d7/dbd/CarlaRecorderQuery_8h.html" target="_top" xlink:title="CarlaRecorderQuery.h">
<polygon fill="white" stroke="black" points="1147.6,-235.5 1147.6,-254.5 1261.6,-254.5 1261.6,-235.5 1147.6,-235.5"/>
<text text-anchor="middle" x="1204.6" y="-242.5" font-family="Helvetica,sans-Serif" font-size="10.00">CarlaRecorderQuery.h</text>
</a>
</g>
</g>
<!-- Node1&#45;&gt;Node28 -->
<g id="edge43" class="edge"><title>Node1&#45;&gt;Node28</title>
<path fill="none" stroke="midnightblue" d="M1204.6,-291.083C1204.6,-284.006 1204.6,-273.861 1204.6,-264.986"/>
<polygon fill="midnightblue" stroke="midnightblue" points="1208.1,-264.751 1204.6,-254.751 1201.1,-264.751 1208.1,-264.751"/>
</g>
<!-- Node29 -->
<g id="node29" class="node"><title>Node29</title>
<g id="a_node29"><a xlink:href="../../da/d32/CarlaRecorderState_8h.html" target="_top" xlink:title="CarlaRecorderState.h">
<polygon fill="white" stroke="black" points="2014.1,-179.5 2014.1,-198.5 2125.1,-198.5 2125.1,-179.5 2014.1,-179.5"/>
<text text-anchor="middle" x="2069.6" y="-186.5" font-family="Helvetica,sans-Serif" font-size="10.00">CarlaRecorderState.h</text>
</a>
</g>
</g>
<!-- Node1&#45;&gt;Node29 -->
<g id="edge55" class="edge"><title>Node1&#45;&gt;Node29</title>
<path fill="none" stroke="midnightblue" d="M1248.63,-297.734C1347.09,-292.327 1582.43,-277.426 1658.6,-255 1677.29,-249.498 1678.98,-240.703 1697.6,-235 1712.03,-230.582 1901.01,-208.924 2003.9,-197.341"/>
<polygon fill="midnightblue" stroke="midnightblue" points="2004.34,-200.814 2013.89,-196.218 2003.56,-193.858 2004.34,-200.814"/>
</g>
<!-- Node30 -->
<g id="node30" class="node"><title>Node30</title>
<g id="a_node30"><a xlink:href="../../de/dea/CarlaReplayer_8h.html" target="_top" xlink:title="CarlaReplayer.h">
<polygon fill="white" stroke="black" points="1563.1,-235.5 1563.1,-254.5 1650.1,-254.5 1650.1,-235.5 1563.1,-235.5"/>
<text text-anchor="middle" x="1606.6" y="-242.5" font-family="Helvetica,sans-Serif" font-size="10.00">CarlaReplayer.h</text>
</a>
</g>
</g>
<!-- Node1&#45;&gt;Node30 -->
<g id="edge56" class="edge"><title>Node1&#45;&gt;Node30</title>
<path fill="none" stroke="midnightblue" d="M1248.77,-294.067C1322.95,-284.103 1472.28,-264.043 1552.58,-253.256"/>
<polygon fill="midnightblue" stroke="midnightblue" points="1553.52,-256.661 1562.97,-251.861 1552.59,-249.724 1553.52,-256.661"/>
</g>
<!-- Node35 -->
<g id="node35" class="node"><title>Node35</title>
<polygon fill="white" stroke="#bfbfbf" points="1706.6,-235.5 1706.6,-254.5 1840.6,-254.5 1840.6,-235.5 1706.6,-235.5"/>
<text text-anchor="middle" x="1773.6" y="-242.5" font-family="Helvetica,sans-Serif" font-size="10.00">CarlaRecorder.generated.h</text>
</g>
<!-- Node1&#45;&gt;Node35 -->
<g id="edge71" class="edge"><title>Node1&#45;&gt;Node35</title>
<path fill="none" stroke="midnightblue" d="M1248.71,-296.212C1334.33,-288.795 1529.03,-271.628 1692.6,-255 1693.87,-254.871 1695.15,-254.74 1696.43,-254.608"/>
<polygon fill="midnightblue" stroke="midnightblue" points="1696.85,-258.084 1706.43,-253.562 1696.12,-251.122 1696.85,-258.084"/>
</g>
<!-- Node4 -->
<g id="node4" class="node"><title>Node4</title>
<g id="a_node4"><a xlink:href="../../d6/d1a/Unreal_2CarlaUE4_2Plugins_2Carla_2Source_2Carla_2Actor_2ActorAttribute_8h.html" target="_top" xlink:title="Carla/Actor/ActorAttribute.h">
<polygon fill="white" stroke="black" points="88.1027,-179.5 88.1027,-198.5 225.103,-198.5 225.103,-179.5 88.1027,-179.5"/>
<text text-anchor="middle" x="156.603" y="-186.5" font-family="Helvetica,sans-Serif" font-size="10.00">Carla/Actor/ActorAttribute.h</text>
</a>
</g>
</g>
<!-- Node3&#45;&gt;Node4 -->
<g id="edge3" class="edge"><title>Node3&#45;&gt;Node4</title>
<path fill="none" stroke="midnightblue" d="M289.567,-235.444C262.987,-226.359 220.794,-211.939 191.079,-201.783"/>
<polygon fill="midnightblue" stroke="midnightblue" points="192.116,-198.439 181.521,-198.516 189.852,-205.062 192.116,-198.439"/>
</g>
<!-- Node14 -->
<g id="node14" class="node"><title>Node14</title>
<polygon fill="white" stroke="#bfbfbf" points="243.103,-179.5 243.103,-198.5 386.103,-198.5 386.103,-179.5 243.103,-179.5"/>
<text text-anchor="middle" x="314.603" y="-186.5" font-family="Helvetica,sans-Serif" font-size="10.00">ActorDescription.generated.h</text>
</g>
<!-- Node3&#45;&gt;Node14 -->
<g id="edge13" class="edge"><title>Node3&#45;&gt;Node14</title>
<path fill="none" stroke="midnightblue" d="M314.603,-235.083C314.603,-228.006 314.603,-217.861 314.603,-208.986"/>
<polygon fill="midnightblue" stroke="midnightblue" points="318.103,-208.751 314.603,-198.751 311.103,-208.751 318.103,-208.751"/>
</g>
<!-- Node5 -->
<g id="node5" class="node"><title>Node5</title>
<g id="a_node5"><a xlink:href="../../d2/d02/disable-ue4-macros_8h.html" target="_top" xlink:title="compiler/disable&#45;ue4\l&#45;macros.h">
<polygon fill="white" stroke="black" points="300.603,-112.5 300.603,-142.5 406.603,-142.5 406.603,-112.5 300.603,-112.5"/>
<text text-anchor="start" x="308.603" y="-130.5" font-family="Helvetica,sans-Serif" font-size="10.00">compiler/disable&#45;ue4</text>
<text text-anchor="middle" x="353.603" y="-119.5" font-family="Helvetica,sans-Serif" font-size="10.00">&#45;macros.h</text>
</a>
</g>
</g>
<!-- Node4&#45;&gt;Node5 -->
<g id="edge4" class="edge"><title>Node4&#45;&gt;Node5</title>
<path fill="none" stroke="midnightblue" d="M184.828,-179.475C214.127,-170.626 260.735,-156.549 297.556,-145.428"/>
<polygon fill="midnightblue" stroke="midnightblue" points="298.613,-148.765 307.174,-142.523 296.589,-142.064 298.613,-148.765"/>
</g>
<!-- Node10 -->
<g id="node10" class="node"><title>Node10</title>
<g id="a_node10"><a xlink:href="../../d8/d81/ActorAttributeType_8h.html" target="_top" xlink:title="carla/rpc/ActorAttribute\lType.h">
<polygon fill="white" stroke="black" points="425.103,-112.5 425.103,-142.5 542.103,-142.5 542.103,-112.5 425.103,-112.5"/>
<text text-anchor="start" x="433.103" y="-130.5" font-family="Helvetica,sans-Serif" font-size="10.00">carla/rpc/ActorAttribute</text>
<text text-anchor="middle" x="483.603" y="-119.5" font-family="Helvetica,sans-Serif" font-size="10.00">Type.h</text>
</a>
</g>
</g>
<!-- Node4&#45;&gt;Node10 -->
<g id="edge9" class="edge"><title>Node4&#45;&gt;Node10</title>
<path fill="none" stroke="midnightblue" d="M209.291,-179.449C259.551,-171.157 337.628,-157.921 415.092,-143.055"/>
<polygon fill="midnightblue" stroke="midnightblue" points="415.87,-146.469 425.026,-141.138 414.544,-139.596 415.87,-146.469"/>
</g>
<!-- Node12 -->
<g id="node12" class="node"><title>Node12</title>
<g id="a_node12"><a xlink:href="../../d9/da2/enable-ue4-macros_8h.html" target="_top" xlink:title="compiler/enable&#45;ue4\l&#45;macros.h">
<polygon fill="white" stroke="black" points="28.6027,-112.5 28.6027,-142.5 132.603,-142.5 132.603,-112.5 28.6027,-112.5"/>
<text text-anchor="start" x="36.6027" y="-130.5" font-family="Helvetica,sans-Serif" font-size="10.00">compiler/enable&#45;ue4</text>
<text text-anchor="middle" x="80.6027" y="-119.5" font-family="Helvetica,sans-Serif" font-size="10.00">&#45;macros.h</text>
</a>
</g>
</g>
<!-- Node4&#45;&gt;Node12 -->
<g id="edge11" class="edge"><title>Node4&#45;&gt;Node12</title>
<path fill="none" stroke="midnightblue" d="M145.714,-179.475C135.517,-171.492 119.885,-159.254 106.494,-148.77"/>
<polygon fill="midnightblue" stroke="midnightblue" points="108.546,-145.932 98.5144,-142.523 104.231,-151.443 108.546,-145.932"/>
</g>
<!-- Node13 -->
<g id="node13" class="node"><title>Node13</title>
<polygon fill="white" stroke="#bfbfbf" points="151.103,-118 151.103,-137 282.103,-137 282.103,-118 151.103,-118"/>
<text text-anchor="middle" x="216.603" y="-125" font-family="Helvetica,sans-Serif" font-size="10.00">ActorAttribute.generated.h</text>
</g>
<!-- Node4&#45;&gt;Node13 -->
<g id="edge12" class="edge"><title>Node4&#45;&gt;Node13</title>
<path fill="none" stroke="midnightblue" d="M165.199,-179.475C174.467,-170.285 189.42,-155.456 200.815,-144.156"/>
<polygon fill="midnightblue" stroke="midnightblue" points="203.386,-146.536 208.022,-137.009 198.457,-141.565 203.386,-146.536"/>
</g>
<!-- Node6 -->
<g id="node6" class="node"><title>Node6</title>
<g id="a_node6"><a xlink:href="../../d7/d7d/Carla_8h.html" target="_top" xlink:title="Carla.h">
<polygon fill="white" stroke="black" points="329.603,-56.5 329.603,-75.5 377.603,-75.5 377.603,-56.5 329.603,-56.5"/>
<text text-anchor="middle" x="353.603" y="-63.5" font-family="Helvetica,sans-Serif" font-size="10.00">Carla.h</text>
</a>
</g>
</g>
<!-- Node5&#45;&gt;Node6 -->
<g id="edge5" class="edge"><title>Node5&#45;&gt;Node6</title>
<path fill="none" stroke="midnightblue" d="M353.603,-112.399C353.603,-104.466 353.603,-94.458 353.603,-85.8583"/>
<polygon fill="midnightblue" stroke="midnightblue" points="357.103,-85.6577 353.603,-75.6578 350.103,-85.6578 357.103,-85.6577"/>
</g>
<!-- Node7 -->
<g id="node7" class="node"><title>Node7</title>
<g id="a_node7"><a xlink:href="../../d4/d57/Unreal_2CarlaUE4_2Plugins_2Carla_2Source_2Carla_2Util_2NonCopyable_8h.html" target="_top" xlink:title="Util/NonCopyable.h">
<polygon fill="white" stroke="black" points="178.603,-0.5 178.603,-19.5 280.603,-19.5 280.603,-0.5 178.603,-0.5"/>
<text text-anchor="middle" x="229.603" y="-7.5" font-family="Helvetica,sans-Serif" font-size="10.00">Util/NonCopyable.h</text>
</a>
</g>
</g>
<!-- Node6&#45;&gt;Node7 -->
<g id="edge6" class="edge"><title>Node6&#45;&gt;Node7</title>
<path fill="none" stroke="midnightblue" d="M333.955,-56.4435C313.638,-47.5961 281.7,-33.6875 258.505,-23.5865"/>
<polygon fill="midnightblue" stroke="midnightblue" points="259.725,-20.3002 249.159,-19.5164 256.93,-26.7181 259.725,-20.3002"/>
</g>
<!-- Node8 -->
<g id="node8" class="node"><title>Node8</title>
<polygon fill="white" stroke="#bfbfbf" points="298.603,-0.5 298.603,-19.5 408.603,-19.5 408.603,-0.5 298.603,-0.5"/>
<text text-anchor="middle" x="353.603" y="-7.5" font-family="Helvetica,sans-Serif" font-size="10.00">Logging/LogMacros.h</text>
</g>
<!-- Node6&#45;&gt;Node8 -->
<g id="edge7" class="edge"><title>Node6&#45;&gt;Node8</title>
<path fill="none" stroke="midnightblue" d="M353.603,-56.083C353.603,-49.0059 353.603,-38.8611 353.603,-29.9865"/>
<polygon fill="midnightblue" stroke="midnightblue" points="357.103,-29.751 353.603,-19.7511 350.103,-29.7511 357.103,-29.751"/>
</g>
<!-- Node9 -->
<g id="node9" class="node"><title>Node9</title>
<polygon fill="white" stroke="#bfbfbf" points="426.603,-0.5 426.603,-19.5 560.603,-19.5 560.603,-0.5 426.603,-0.5"/>
<text text-anchor="middle" x="493.603" y="-7.5" font-family="Helvetica,sans-Serif" font-size="10.00">Modules/ModuleInterface.h</text>
</g>
<!-- Node6&#45;&gt;Node9 -->
<g id="edge8" class="edge"><title>Node6&#45;&gt;Node9</title>
<path fill="none" stroke="midnightblue" d="M375.786,-56.4435C399.031,-47.4776 435.751,-33.314 462.018,-23.1827"/>
<polygon fill="midnightblue" stroke="midnightblue" points="463.453,-26.3807 471.523,-19.5164 460.933,-19.8497 463.453,-26.3807"/>
</g>
<!-- Node11 -->
<g id="node11" class="node"><title>Node11</title>
<polygon fill="white" stroke="#bfbfbf" points="460.603,-56.5 460.603,-75.5 506.603,-75.5 506.603,-56.5 460.603,-56.5"/>
<text text-anchor="middle" x="483.603" y="-63.5" font-family="Helvetica,sans-Serif" font-size="10.00">cstdint</text>
</g>
<!-- Node10&#45;&gt;Node11 -->
<g id="edge10" class="edge"><title>Node10&#45;&gt;Node11</title>
<path fill="none" stroke="midnightblue" d="M483.603,-112.399C483.603,-104.466 483.603,-94.458 483.603,-85.8583"/>
<polygon fill="midnightblue" stroke="midnightblue" points="487.103,-85.6577 483.603,-75.6578 480.103,-85.6578 487.103,-85.6577"/>
</g>
<!-- Node15&#45;&gt;Node2 -->
<g id="edge15" class="edge"><title>Node15&#45;&gt;Node2</title>
<path fill="none" stroke="midnightblue" d="M500.865,-179.461C548.655,-163.647 655.833,-129.794 748.603,-112 888.385,-85.1887 1057.82,-73.0857 1130.13,-68.8611"/>
<polygon fill="midnightblue" stroke="midnightblue" points="1130.69,-72.3346 1140.48,-68.2718 1130.3,-65.3459 1130.69,-72.3346"/>
</g>
<!-- Node16 -->
<g id="node16" class="node"><title>Node16</title>
<polygon fill="white" stroke="#bfbfbf" points="915.603,-118 915.603,-137 959.603,-137 959.603,-118 915.603,-118"/>
<text text-anchor="middle" x="937.603" y="-125" font-family="Helvetica,sans-Serif" font-size="10.00">vector</text>
</g>
<!-- Node15&#45;&gt;Node16 -->
<g id="edge16" class="edge"><title>Node15&#45;&gt;Node16</title>
<path fill="none" stroke="midnightblue" d="M541.796,-179.475C642.39,-166.52 829.987,-142.36 905.192,-132.674"/>
<polygon fill="midnightblue" stroke="midnightblue" points="905.977,-136.102 915.448,-131.353 905.083,-129.159 905.977,-136.102"/>
</g>
<!-- Node17&#45;&gt;Node2 -->
<g id="edge18" class="edge"><title>Node17&#45;&gt;Node2</title>
<path fill="none" stroke="midnightblue" d="M654.869,-179.49C691.354,-163.723 773.355,-129.946 845.603,-112 947.303,-86.7375 1070.95,-74.3833 1130.38,-69.5497"/>
<polygon fill="midnightblue" stroke="midnightblue" points="1130.68,-73.0371 1140.37,-68.7592 1130.12,-66.0589 1130.68,-73.0371"/>
</g>
<!-- Node17&#45;&gt;Node16 -->
<g id="edge19" class="edge"><title>Node17&#45;&gt;Node16</title>
<path fill="none" stroke="midnightblue" d="M678.872,-179.475C740.161,-167.4 850.857,-145.591 905.421,-134.841"/>
<polygon fill="midnightblue" stroke="midnightblue" points="906.108,-138.272 915.243,-132.905 904.755,-131.405 906.108,-138.272"/>
</g>
<!-- Node18&#45;&gt;Node2 -->
<g id="edge21" class="edge"><title>Node18&#45;&gt;Node2</title>
<path fill="none" stroke="midnightblue" d="M1270.78,-179.297C1260.9,-170.418 1245.33,-156.12 1232.6,-143 1213.38,-123.184 1192.55,-99.102 1179.3,-83.4316"/>
<polygon fill="midnightblue" stroke="midnightblue" points="1181.9,-81.0763 1172.78,-75.6717 1176.54,-85.5794 1181.9,-81.0763"/>
</g>
<!-- Node18&#45;&gt;Node16 -->
<g id="edge22" class="edge"><title>Node18&#45;&gt;Node16</title>
<path fill="none" stroke="midnightblue" d="M1231.46,-179.475C1160.16,-167.107 1030,-144.528 969.761,-134.079"/>
<polygon fill="midnightblue" stroke="midnightblue" points="970.147,-130.593 959.696,-132.332 968.95,-137.49 970.147,-130.593"/>
</g>
<!-- Node19 -->
<g id="node19" class="node"><title>Node19</title>
<polygon fill="white" stroke="#bfbfbf" points="1241.6,-118 1241.6,-137 1319.6,-137 1319.6,-118 1241.6,-118"/>
<text text-anchor="middle" x="1280.6" y="-125" font-family="Helvetica,sans-Serif" font-size="10.00">unordered_set</text>
</g>
<!-- Node18&#45;&gt;Node19 -->
<g id="edge23" class="edge"><title>Node18&#45;&gt;Node19</title>
<path fill="none" stroke="midnightblue" d="M1280.6,-179.475C1280.6,-171.08 1280.6,-157.981 1280.6,-147.163"/>
<polygon fill="midnightblue" stroke="midnightblue" points="1284.1,-147.009 1280.6,-137.009 1277.1,-147.009 1284.1,-147.009"/>
</g>
<!-- Node20&#45;&gt;Node2 -->
<g id="edge25" class="edge"><title>Node20&#45;&gt;Node2</title>
<path fill="none" stroke="midnightblue" d="M799.767,-179.311C819.145,-163.246 863.313,-128.993 906.603,-112 982.754,-82.1083 1079.24,-72.0143 1130.26,-68.6487"/>
<polygon fill="midnightblue" stroke="midnightblue" points="1130.66,-72.1307 1140.43,-68.0279 1130.23,-65.1437 1130.66,-72.1307"/>
</g>
<!-- Node20&#45;&gt;Node16 -->
<g id="edge26" class="edge"><title>Node20&#45;&gt;Node16</title>
<path fill="none" stroke="midnightblue" d="M810.807,-179.475C835.975,-169.357 878.142,-152.405 906.882,-140.851"/>
<polygon fill="midnightblue" stroke="midnightblue" points="908.465,-143.987 916.437,-137.009 905.853,-137.492 908.465,-143.987"/>
</g>
<!-- Node21&#45;&gt;Node2 -->
<g id="edge28" class="edge"><title>Node21&#45;&gt;Node2</title>
<path fill="none" stroke="midnightblue" d="M944.115,-179.332C956.379,-163.607 984.48,-130.316 1015.6,-112 1051.71,-90.7522 1098.69,-78.7799 1130.38,-72.6149"/>
<polygon fill="midnightblue" stroke="midnightblue" points="1131.3,-76.0031 1140.5,-70.7418 1130.03,-69.12 1131.3,-76.0031"/>
</g>
<!-- Node21&#45;&gt;Node16 -->
<g id="edge29" class="edge"><title>Node21&#45;&gt;Node16</title>
<path fill="none" stroke="midnightblue" d="M937.603,-179.475C937.603,-171.08 937.603,-157.981 937.603,-147.163"/>
<polygon fill="midnightblue" stroke="midnightblue" points="941.103,-147.009 937.603,-137.009 934.103,-147.009 941.103,-147.009"/>
</g>
<!-- Node22&#45;&gt;Node2 -->
<g id="edge31" class="edge"><title>Node22&#45;&gt;Node2</title>
<path fill="none" stroke="midnightblue" d="M1131.26,-179.298C1137.26,-159.676 1151.95,-111.638 1160.04,-85.1933"/>
<polygon fill="midnightblue" stroke="midnightblue" points="1163.39,-86.2096 1162.97,-75.6232 1156.69,-84.1626 1163.39,-86.2096"/>
</g>
<!-- Node22&#45;&gt;Node16 -->
<g id="edge32" class="edge"><title>Node22&#45;&gt;Node16</title>
<path fill="none" stroke="midnightblue" d="M1101.24,-179.475C1066.45,-168.637 1006.48,-149.956 969.606,-138.47"/>
<polygon fill="midnightblue" stroke="midnightblue" points="970.447,-135.066 959.859,-135.433 968.365,-141.749 970.447,-135.066"/>
</g>
<!-- Node23&#45;&gt;Node2 -->
<g id="edge34" class="edge"><title>Node23&#45;&gt;Node2</title>
<path fill="none" stroke="midnightblue" d="M1413.5,-179.327C1398.34,-163.596 1363.98,-130.294 1328.6,-112 1287.36,-90.6747 1234.87,-78.5243 1200.77,-72.3512"/>
<polygon fill="midnightblue" stroke="midnightblue" points="1201.26,-68.884 1190.81,-70.6237 1200.06,-75.7811 1201.26,-68.884"/>
</g>
<!-- Node24&#45;&gt;Node2 -->
<g id="edge38" class="edge"><title>Node24&#45;&gt;Node2</title>
<path fill="none" stroke="midnightblue" d="M1666.52,-179.432C1618.01,-164.301 1512.9,-132.513 1422.6,-112 1344.04,-94.1538 1250.6,-79.385 1200.87,-72.0312"/>
<polygon fill="midnightblue" stroke="midnightblue" points="1201.34,-68.5634 1190.94,-70.576 1200.33,-75.4894 1201.34,-68.5634"/>
</g>
<!-- Node25 -->
<g id="node25" class="node"><title>Node25</title>
<g id="a_node25"><a xlink:href="../../d6/dd1/CarlaRecorderHelpers_8h.html" target="_top" xlink:title="CarlaRecorderHelpers.h">
<polygon fill="white" stroke="black" points="1682.6,-118 1682.6,-137 1804.6,-137 1804.6,-118 1682.6,-118"/>
<text text-anchor="middle" x="1743.6" y="-125" font-family="Helvetica,sans-Serif" font-size="10.00">CarlaRecorderHelpers.h</text>
</a>
</g>
</g>
<!-- Node24&#45;&gt;Node25 -->
<g id="edge36" class="edge"><title>Node24&#45;&gt;Node25</title>
<path fill="none" stroke="midnightblue" d="M1700.77,-179.475C1708.34,-170.462 1720.47,-156.025 1729.9,-144.812"/>
<polygon fill="midnightblue" stroke="midnightblue" points="1732.7,-146.917 1736.45,-137.009 1727.34,-142.413 1732.7,-146.917"/>
</g>
<!-- Node26 -->
<g id="node26" class="node"><title>Node26</title>
<polygon fill="white" stroke="#bfbfbf" points="1623.1,-118 1623.1,-137 1664.1,-137 1664.1,-118 1623.1,-118"/>
<text text-anchor="middle" x="1643.6" y="-125" font-family="Helvetica,sans-Serif" font-size="10.00">ctime</text>
</g>
<!-- Node24&#45;&gt;Node26 -->
<g id="edge39" class="edge"><title>Node24&#45;&gt;Node26</title>
<path fill="none" stroke="midnightblue" d="M1686.44,-179.475C1678.86,-170.462 1666.73,-156.025 1657.31,-144.812"/>
<polygon fill="midnightblue" stroke="midnightblue" points="1659.87,-142.413 1650.75,-137.009 1654.51,-146.917 1659.87,-142.413"/>
</g>
<!-- Node25&#45;&gt;Node2 -->
<g id="edge37" class="edge"><title>Node25&#45;&gt;Node2</title>
<path fill="none" stroke="midnightblue" d="M1705.79,-117.953C1695.1,-115.763 1683.43,-113.581 1672.6,-112 1496.48,-86.2836 1283.64,-73.1771 1200.9,-68.7574"/>
<polygon fill="midnightblue" stroke="midnightblue" points="1200.95,-65.2554 1190.78,-68.2259 1200.58,-72.2458 1200.95,-65.2554"/>
</g>
<!-- Node27&#45;&gt;Node2 -->
<g id="edge41" class="edge"><title>Node27&#45;&gt;Node2</title>
<path fill="none" stroke="midnightblue" d="M1542.36,-179.492C1507.48,-164.316 1431.24,-132.27 1364.6,-112 1308.14,-94.8254 1240.88,-80.9453 1200.8,-73.3461"/>
<polygon fill="midnightblue" stroke="midnightblue" points="1201.2,-69.8612 1190.73,-71.4615 1199.91,-76.7417 1201.2,-69.8612"/>
</g>
<!-- Node27&#45;&gt;Node16 -->
<g id="edge42" class="edge"><title>Node27&#45;&gt;Node16</title>
<path fill="none" stroke="midnightblue" d="M1500.04,-180.063C1496.85,-179.693 1493.69,-179.337 1490.6,-179 1293,-157.46 1054.98,-137.859 969.829,-131.046"/>
<polygon fill="midnightblue" stroke="midnightblue" points="970.003,-127.549 959.757,-130.243 969.447,-134.527 970.003,-127.549"/>
</g>
<!-- Node28&#45;&gt;Node2 -->
<g id="edge44" class="edge"><title>Node28&#45;&gt;Node2</title>
<path fill="none" stroke="midnightblue" d="M1150.62,-235.477C1110.65,-227.936 1061.06,-215.556 1048.6,-199 1013.96,-152.947 1093.48,-103.27 1138.03,-80.184"/>
<polygon fill="midnightblue" stroke="midnightblue" points="1139.87,-83.1772 1147.22,-75.5437 1136.71,-76.9293 1139.87,-83.1772"/>
</g>
<!-- Node28&#45;&gt;Node17 -->
<g id="edge45" class="edge"><title>Node28&#45;&gt;Node17</title>
<path fill="none" stroke="midnightblue" d="M1147.23,-239.14C1057.57,-231.456 878.502,-215.746 716.389,-199.166"/>
<polygon fill="midnightblue" stroke="midnightblue" points="716.535,-195.663 706.23,-198.124 715.82,-202.626 716.535,-195.663"/>
</g>
<!-- Node28&#45;&gt;Node18 -->
<g id="edge46" class="edge"><title>Node28&#45;&gt;Node18</title>
<path fill="none" stroke="midnightblue" d="M1216.81,-235.324C1228.38,-227.107 1245.98,-214.602 1259.76,-204.807"/>
<polygon fill="midnightblue" stroke="midnightblue" points="1262.05,-207.479 1268.17,-198.834 1257.99,-201.773 1262.05,-207.479"/>
</g>
<!-- Node28&#45;&gt;Node20 -->
<g id="edge47" class="edge"><title>Node28&#45;&gt;Node20</title>
<path fill="none" stroke="midnightblue" d="M1147.33,-236.548C1073.98,-227.004 946.643,-210.434 865.339,-199.855"/>
<polygon fill="midnightblue" stroke="midnightblue" points="865.535,-196.351 855.167,-198.531 864.632,-203.292 865.535,-196.351"/>
</g>
<!-- Node28&#45;&gt;Node21 -->
<g id="edge48" class="edge"><title>Node28&#45;&gt;Node21</title>
<path fill="none" stroke="midnightblue" d="M1162.3,-235.444C1115.52,-225.984 1040.14,-210.738 989.753,-200.547"/>
<polygon fill="midnightblue" stroke="midnightblue" points="990.207,-197.068 979.712,-198.516 988.819,-203.929 990.207,-197.068"/>
</g>
<!-- Node28&#45;&gt;Node22 -->
<g id="edge49" class="edge"><title>Node28&#45;&gt;Node22</title>
<path fill="none" stroke="midnightblue" d="M1192.39,-235.324C1180.83,-227.107 1163.23,-214.602 1149.44,-204.807"/>
<polygon fill="midnightblue" stroke="midnightblue" points="1151.21,-201.773 1141.04,-198.834 1147.16,-207.479 1151.21,-201.773"/>
</g>
<!-- Node28&#45;&gt;Node23 -->
<g id="edge50" class="edge"><title>Node28&#45;&gt;Node23</title>
<path fill="none" stroke="midnightblue" d="M1238.99,-235.444C1276.52,-226.102 1336.73,-211.119 1377.67,-200.933"/>
<polygon fill="midnightblue" stroke="midnightblue" points="1378.52,-204.328 1387.38,-198.516 1376.83,-197.535 1378.52,-204.328"/>
</g>
<!-- Node28&#45;&gt;Node24 -->
<g id="edge51" class="edge"><title>Node28&#45;&gt;Node24</title>
<path fill="none" stroke="midnightblue" d="M1261.67,-238.703C1343.63,-230.931 1499.39,-215.556 1631.6,-199 1631.7,-198.987 1631.81,-198.975 1631.91,-198.962"/>
<polygon fill="midnightblue" stroke="midnightblue" points="1632.06,-202.471 1641.53,-197.71 1631.16,-195.53 1632.06,-202.471"/>
</g>
<!-- Node28&#45;&gt;Node27 -->
<g id="edge52" class="edge"><title>Node28&#45;&gt;Node27</title>
<path fill="none" stroke="midnightblue" d="M1261.17,-235.444C1324.75,-225.826 1427.88,-210.228 1495.22,-200.041"/>
<polygon fill="midnightblue" stroke="midnightblue" points="1495.94,-203.473 1505.3,-198.516 1494.89,-196.551 1495.94,-203.473"/>
</g>
<!-- Node28&#45;&gt;Node29 -->
<g id="edge53" class="edge"><title>Node28&#45;&gt;Node29</title>
<path fill="none" stroke="midnightblue" d="M1261.99,-241.164C1389.03,-234.766 1703.59,-218.253 1966.6,-199 1978.63,-198.12 1991.44,-197.081 2003.79,-196.029"/>
<polygon fill="midnightblue" stroke="midnightblue" points="2004.37,-199.492 2014.03,-195.144 2003.77,-192.518 2004.37,-199.492"/>
</g>
<!-- Node29&#45;&gt;Node2 -->
<g id="edge54" class="edge"><title>Node29&#45;&gt;Node2</title>
<path fill="none" stroke="midnightblue" d="M2047.06,-179.477C2002.97,-163.218 1901.88,-127.969 1813.6,-112 1582.84,-70.2553 1299.39,-66.6369 1201.12,-66.749"/>
<polygon fill="midnightblue" stroke="midnightblue" points="1200.86,-63.2496 1190.87,-66.7756 1200.88,-70.2496 1200.86,-63.2496"/>
</g>
<!-- Node30&#45;&gt;Node2 -->
<g id="edge57" class="edge"><title>Node30&#45;&gt;Node2</title>
<path fill="none" stroke="midnightblue" d="M1650.56,-239.506C1665.49,-238.019 1682.27,-236.39 1697.6,-235 1795.11,-226.163 2194.04,-256.796 2134.6,-179 2065.81,-88.9589 2000.4,-130.504 1888.6,-112 1627.1,-68.7155 1306.13,-66.2011 1200.86,-66.6641"/>
<polygon fill="midnightblue" stroke="midnightblue" points="1200.77,-63.1644 1190.79,-66.7208 1200.8,-70.1643 1200.77,-63.1644"/>
</g>
<!-- Node30&#45;&gt;Node18 -->
<g id="edge66" class="edge"><title>Node30&#45;&gt;Node18</title>
<path fill="none" stroke="midnightblue" d="M1562.98,-236.773C1506.16,-227.362 1406.5,-210.855 1342.05,-200.179"/>
<polygon fill="midnightblue" stroke="midnightblue" points="1342.46,-196.699 1332.02,-198.518 1341.32,-203.605 1342.46,-196.699"/>
</g>
<!-- Node30&#45;&gt;Node20 -->
<g id="edge63" class="edge"><title>Node30&#45;&gt;Node20</title>
<path fill="none" stroke="midnightblue" d="M1563.05,-242.255C1449.89,-237.531 1137.14,-223.249 865.482,-199.024"/>
<polygon fill="midnightblue" stroke="midnightblue" points="865.703,-195.53 855.43,-198.121 865.077,-202.502 865.703,-195.53"/>
</g>
<!-- Node30&#45;&gt;Node21 -->
<g id="edge64" class="edge"><title>Node30&#45;&gt;Node21</title>
<path fill="none" stroke="midnightblue" d="M1562.83,-240.477C1468.74,-232.901 1240.17,-214.491 1048.6,-199 1036.78,-198.044 1024.26,-197.03 1012.04,-196.04"/>
<polygon fill="midnightblue" stroke="midnightblue" points="1012.12,-192.535 1001.87,-195.216 1011.56,-199.512 1012.12,-192.535"/>
</g>
<!-- Node30&#45;&gt;Node22 -->
<g id="edge65" class="edge"><title>Node30&#45;&gt;Node22</title>
<path fill="none" stroke="midnightblue" d="M1562.92,-239.065C1482.84,-230.019 1311.46,-210.657 1209.55,-199.145"/>
<polygon fill="midnightblue" stroke="midnightblue" points="1209.94,-195.666 1199.61,-198.022 1209.15,-202.622 1209.94,-195.666"/>
</g>
<!-- Node30&#45;&gt;Node23 -->
<g id="edge62" class="edge"><title>Node30&#45;&gt;Node23</title>
<path fill="none" stroke="midnightblue" d="M1577.29,-235.444C1545.76,-226.241 1495.47,-211.562 1460.62,-201.388"/>
<polygon fill="midnightblue" stroke="midnightblue" points="1461.36,-197.959 1450.78,-198.516 1459.4,-204.678 1461.36,-197.959"/>
</g>
<!-- Node30&#45;&gt;Node24 -->
<g id="edge61" class="edge"><title>Node30&#45;&gt;Node24</title>
<path fill="none" stroke="midnightblue" d="M1620.58,-235.324C1634.15,-226.9 1654.98,-213.971 1670.93,-204.074"/>
<polygon fill="midnightblue" stroke="midnightblue" points="1673.01,-206.902 1679.66,-198.655 1669.32,-200.954 1673.01,-206.902"/>
</g>
<!-- Node30&#45;&gt;Node25 -->
<g id="edge69" class="edge"><title>Node30&#45;&gt;Node25</title>
<path fill="none" stroke="midnightblue" d="M1650.28,-237.053C1655.11,-236.335 1659.96,-235.637 1664.6,-235 1731.56,-225.817 1921.73,-249.54 1966.6,-199 1972.5,-192.353 1972.15,-185.945 1966.6,-179 1947.79,-155.448 1872.8,-142.066 1814.92,-135.078"/>
<polygon fill="midnightblue" stroke="midnightblue" points="1815.04,-131.567 1804.7,-133.887 1814.23,-138.52 1815.04,-131.567"/>
</g>
<!-- Node30&#45;&gt;Node27 -->
<g id="edge67" class="edge"><title>Node30&#45;&gt;Node27</title>
<path fill="none" stroke="midnightblue" d="M1599.17,-235.083C1592.75,-227.377 1583.3,-216.033 1575.48,-206.653"/>
<polygon fill="midnightblue" stroke="midnightblue" points="1577.99,-204.193 1568.9,-198.751 1572.61,-208.674 1577.99,-204.193"/>
</g>
<!-- Node30&#45;&gt;Node29 -->
<g id="edge68" class="edge"><title>Node30&#45;&gt;Node29</title>
<path fill="none" stroke="midnightblue" d="M1650.28,-236.999C1655.11,-236.291 1659.96,-235.61 1664.6,-235 1813.08,-215.514 1850.89,-216.549 1999.6,-199 2000.9,-198.847 2002.22,-198.69 2003.54,-198.531"/>
<polygon fill="midnightblue" stroke="midnightblue" points="2004.33,-201.962 2013.83,-197.277 2003.48,-195.013 2004.33,-201.962"/>
</g>
<!-- Node31 -->
<g id="node31" class="node"><title>Node31</title>
<polygon fill="white" stroke="#bfbfbf" points="2181.6,-179.5 2181.6,-198.5 2233.6,-198.5 2233.6,-179.5 2181.6,-179.5"/>
<text text-anchor="middle" x="2207.6" y="-186.5" font-family="Helvetica,sans-Serif" font-size="10.00">sstream</text>
</g>
<!-- Node30&#45;&gt;Node31 -->
<g id="edge58" class="edge"><title>Node30&#45;&gt;Node31</title>
<path fill="none" stroke="midnightblue" d="M1650.56,-239.455C1665.48,-237.964 1682.26,-236.346 1697.6,-235 1906.3,-216.689 1960.42,-230.075 2167.6,-199 2168.87,-198.81 2170.16,-198.602 2171.45,-198.38"/>
<polygon fill="midnightblue" stroke="midnightblue" points="2172.3,-201.782 2181.46,-196.453 2170.97,-194.908 2172.3,-201.782"/>
</g>
<!-- Node32 -->
<g id="node32" class="node"><title>Node32</title>
<polygon fill="white" stroke="#bfbfbf" points="2252.1,-179.5 2252.1,-198.5 2335.1,-198.5 2335.1,-179.5 2252.1,-179.5"/>
<text text-anchor="middle" x="2293.6" y="-186.5" font-family="Helvetica,sans-Serif" font-size="10.00">unordered_map</text>
</g>
<!-- Node30&#45;&gt;Node32 -->
<g id="edge59" class="edge"><title>Node30&#45;&gt;Node32</title>
<path fill="none" stroke="midnightblue" d="M1650.55,-239.362C1665.47,-237.864 1682.26,-236.265 1697.6,-235 1936.22,-215.324 1999.88,-227.785 2241.75,-198.961"/>
<polygon fill="midnightblue" stroke="midnightblue" points="2242.4,-202.408 2251.91,-197.738 2241.56,-195.458 2242.4,-202.408"/>
</g>
<!-- Node33 -->
<g id="node33" class="node"><title>Node33</title>
<polygon fill="white" stroke="#bfbfbf" points="1764.1,-179.5 1764.1,-198.5 1823.1,-198.5 1823.1,-179.5 1764.1,-179.5"/>
<text text-anchor="middle" x="1793.6" y="-186.5" font-family="Helvetica,sans-Serif" font-size="10.00">functional</text>
</g>
<!-- Node30&#45;&gt;Node33 -->
<g id="edge60" class="edge"><title>Node30&#45;&gt;Node33</title>
<path fill="none" stroke="midnightblue" d="M1636.23,-235.444C1668.1,-226.241 1718.94,-211.562 1754.17,-201.388"/>
<polygon fill="midnightblue" stroke="midnightblue" points="1755.47,-204.653 1764.11,-198.516 1753.53,-197.928 1755.47,-204.653"/>
</g>
<!-- Node34 -->
<g id="node34" class="node"><title>Node34</title>
<g id="a_node34"><a xlink:href="../../d1/d62/CarlaReplayerHelper_8h.html" target="_top" xlink:title="CarlaReplayerHelper.h">
<polygon fill="white" stroke="black" points="1841.6,-179.5 1841.6,-198.5 1957.6,-198.5 1957.6,-179.5 1841.6,-179.5"/>
<text text-anchor="middle" x="1899.6" y="-186.5" font-family="Helvetica,sans-Serif" font-size="10.00">CarlaReplayerHelper.h</text>
</a>
</g>
</g>
<!-- Node30&#45;&gt;Node34 -->
<g id="edge70" class="edge"><title>Node30&#45;&gt;Node34</title>
<path fill="none" stroke="midnightblue" d="M1650.15,-235.974C1701.48,-226.515 1786.89,-210.773 1843.23,-200.39"/>
<polygon fill="midnightblue" stroke="midnightblue" points="1844.19,-203.771 1853.39,-198.516 1842.93,-196.887 1844.19,-203.771"/>
</g>
</g>
</svg>
        <g id="navigator" transform="translate(0 0)" fill="#404254">
                <rect fill="#f2f5e9" fill-opacity="0.5" stroke="#606060" stroke-width=".5" x="0" y="0" width="60" height="60"/>
                <use id="zoomplus" xlink:href="#zoomPlus" x="17" y="9" onmousedown="handleZoom(evt,'in')"/>
                <use id="zoomminus" xlink:href="#zoomMin" x="42" y="9" onmousedown="handleZoom(evt,'out')"/>
                <use id="reset" xlink:href="#resetDef" x="30" y="36" onmousedown="handleReset()"/>
                <g id="arrowUp" xlink:href="#dirArrow" transform="translate(30 24)" onmousedown="handlePan(0,-1)">
                  <use xlink:href="#rim" fill="#404040">
                        <set attributeName="fill" to="#808080" begin="arrowUp.mouseover" end="arrowUp.mouseout"/>
                  </use>
                  <path fill="none" stroke="white" stroke-width="1.5" d="M0,-3.0v7 M-2.5,-0.5L0,-3.0L2.5,-0.5"/>
                </g>
                <g id="arrowRight" xlink:href="#dirArrow" transform="rotate(90) translate(36 -43)" onmousedown="handlePan(1,0)">
                  <use xlink:href="#rim" fill="#404040">
                        <set attributeName="fill" to="#808080" begin="arrowRight.mouseover" end="arrowRight.mouseout"/>
                  </use>
                  <path fill="none" stroke="white" stroke-width="1.5" d="M0,-3.0v7 M-2.5,-0.5L0,-3.0L2.5,-0.5"/>
                </g>
                <g id="arrowDown" xlink:href="#dirArrow" transform="rotate(180) translate(-30 -48)" onmousedown="handlePan(0,1)">
                  <use xlink:href="#rim" fill="#404040">
                        <set attributeName="fill" to="#808080" begin="arrowDown.mouseover" end="arrowDown.mouseout"/>
                  </use>
                  <path fill="none" stroke="white" stroke-width="1.5" d="M0,-3.0v7 M-2.5,-0.5L0,-3.0L2.5,-0.5"/>
                </g>
                <g id="arrowLeft" xlink:href="#dirArrow" transform="rotate(270) translate(-36 17)" onmousedown="handlePan(-1,0)">
                  <use xlink:href="#rim" fill="#404040">
                        <set attributeName="fill" to="#808080" begin="arrowLeft.mouseover" end="arrowLeft.mouseout"/>
                  </use>
                  <path fill="none" stroke="white" stroke-width="1.5" d="M0,-3.0v7 M-2.5,-0.5L0,-3.0L2.5,-0.5"/>
                </g>
        </g>
        <svg viewBox="0 0 15 15" width="100%" height="30px" preserveAspectRatio="xMaxYMin meet">
         <g id="arrow_out" transform="scale(0.3 0.3)">
          <a xlink:href="CarlaRecorder_8h__incl_org.svg" target="_base">
           <rect id="button" ry="5" rx="5" y="6" x="6" height="38" width="38"
                fill="#f2f5e9" fill-opacity="0.5" stroke="#606060" stroke-width="1.0"/>
           <path id="arrow"
             d="M 11.500037,31.436501 C 11.940474,20.09759 22.043105,11.32322 32.158766,21.979434 L 37.068811,17.246167 C 37.068811,17.246167 37.088388,32 37.088388,32 L 22.160133,31.978069 C 22.160133,31.978069 26.997745,27.140456 26.997745,27.140456 C 18.528582,18.264221 13.291696,25.230495 11.500037,31.436501 z"
             style="fill:#404040;"/>
          </a>
         </g>
        </svg>
</svg>
