<?xml version="1.0" encoding="UTF-8" standalone="no"?>
<!DOCTYPE svg PUBLIC "-//W3C//DTD SVG 1.1//EN"
 "http://www.w3.org/Graphics/SVG/1.1/DTD/svg11.dtd">
<!-- Generated by graphviz version 2.38.0 (20140413.2041)
 -->
<!-- Title: carla::road::ObjectSet Pages: 1 -->
<svg width="812pt" height="111pt"
 viewBox="0.00 0.00 812.00 111.29" xmlns="http://www.w3.org/2000/svg" xmlns:xlink="http://www.w3.org/1999/xlink">
<g id="graph0" class="graph" transform="scale(1 1) rotate(0) translate(4 107.294)">
<title>carla::road::ObjectSet</title>
<polygon fill="white" stroke="none" points="-4,4 -4,-107.294 808,-107.294 808,4 -4,4"/>
<!-- Node1 -->
<g id="node1" class="node"><title>Node1</title>
<polygon fill="#bfbfbf" stroke="black" points="692,-83.7943 692,-102.794 804,-102.794 804,-83.7943 692,-83.7943"/>
<text text-anchor="middle" x="748" y="-90.7943" font-family="Helvetica,sans-Serif" font-size="10.00">carla::road::ObjectSet</text>
</g>
<!-- Node2 -->
<g id="node2" class="node"><title>Node2</title>
<g id="a_node2"><a xlink:href="../../d7/d55/classcarla_1_1MovableNonCopyable.html" target="_top" xlink:title="Inherit (privately) to suppress copy construction and assignment. ">
<polygon fill="white" stroke="black" points="0,-73.7943 0,-92.7943 140,-92.7943 140,-73.7943 0,-73.7943"/>
<text text-anchor="middle" x="70" y="-80.7943" font-family="Helvetica,sans-Serif" font-size="10.00">carla::MovableNonCopyable</text>
</a>
</g>
</g>
<!-- Node2&#45;&gt;Node1 -->
<g id="edge1" class="edge"><title>Node2&#45;&gt;Node1</title>
<path fill="none" stroke="#8b1a1a" d="M124.174,-94.6556C135.299,-96.5867 146.993,-98.2906 158,-99.2943 169.065,-100.303 171.889,-99.3534 183,-99.2943 369.539,-98.3021 590.768,-95.4641 691.763,-94.0768"/>
<polygon fill="#8b1a1a" stroke="#8b1a1a" points="124.618,-91.179 114.153,-92.8319 123.365,-98.0659 124.618,-91.179"/>
</g>
<!-- Node3 -->
<g id="node3" class="node"><title>Node3</title>
<g id="a_node3"><a xlink:href="../../dc/dcf/classcarla_1_1road_1_1RoadElementSet.html" target="_top" xlink:title="carla::road::RoadElement\lSet\&lt; std::unique_ptr\&lt;\l element::carla::road::\lelement::RoadObject \&gt; \&gt;">
<polygon fill="white" stroke="black" points="482,-24.2943 482,-76.2943 610,-76.2943 610,-24.2943 482,-24.2943"/>
<text text-anchor="start" x="490" y="-64.2943" font-family="Helvetica,sans-Serif" font-size="10.00">carla::road::RoadElement</text>
<text text-anchor="start" x="490" y="-53.2943" font-family="Helvetica,sans-Serif" font-size="10.00">Set&lt; std::unique_ptr&lt;</text>
<text text-anchor="start" x="490" y="-42.2943" font-family="Helvetica,sans-Serif" font-size="10.00"> element::carla::road::</text>
<text text-anchor="middle" x="546" y="-31.2943" font-family="Helvetica,sans-Serif" font-size="10.00">element::RoadObject &gt; &gt;</text>
</a>
</g>
</g>
<!-- Node2&#45;&gt;Node3 -->
<g id="edge3" class="edge"><title>Node2&#45;&gt;Node3</title>
<path fill="none" stroke="#8b1a1a" d="M150.65,-84.9838C230.315,-85.6123 356.172,-83.7212 464,-69.2943 469.87,-68.5089 475.937,-67.4878 481.988,-66.3265"/>
<polygon fill="#8b1a1a" stroke="#8b1a1a" points="150.237,-81.4798 140.205,-84.8848 150.171,-88.4795 150.237,-81.4798"/>
</g>
<!-- Node5 -->
<g id="node5" class="node"><title>Node5</title>
<g id="a_node5"><a xlink:href="../../dc/dcf/classcarla_1_1road_1_1RoadElementSet.html" target="_top" xlink:title="A set of elements ordered by its position on the road. ">
<polygon fill="white" stroke="black" points="201,-24.2943 201,-54.2943 329,-54.2943 329,-24.2943 201,-24.2943"/>
<text text-anchor="start" x="209" y="-42.2943" font-family="Helvetica,sans-Serif" font-size="10.00">carla::road::RoadElement</text>
<text text-anchor="middle" x="265" y="-31.2943" font-family="Helvetica,sans-Serif" font-size="10.00">Set&lt; T &gt;</text>
</a>
</g>
</g>
<!-- Node2&#45;&gt;Node5 -->
<g id="edge6" class="edge"><title>Node2&#45;&gt;Node5</title>
<path fill="none" stroke="#8b1a1a" d="M122.861,-71.471C146.888,-65.9935 175.649,-59.4364 200.921,-53.6749"/>
<polygon fill="#8b1a1a" stroke="#8b1a1a" points="121.85,-68.1116 112.878,-73.7469 123.406,-74.9365 121.85,-68.1116"/>
</g>
<!-- Node3&#45;&gt;Node1 -->
<g id="edge2" class="edge"><title>Node3&#45;&gt;Node1</title>
<path fill="none" stroke="#9a32cd" stroke-dasharray="5,2" d="M620.057,-66.0016C647.75,-71.9556 678.423,-78.5501 702.679,-83.7653"/>
<polygon fill="#9a32cd" stroke="#9a32cd" points="620.519,-62.521 610.007,-63.8407 619.048,-69.3646 620.519,-62.521"/>
<text text-anchor="middle" x="651" y="-80.2943" font-family="Helvetica,sans-Serif" font-size="10.00"> _road_set</text>
</g>
<!-- Node4 -->
<g id="node4" class="node"><title>Node4</title>
<polygon fill="white" stroke="#bfbfbf" points="10,-2.79427 10,-21.7943 130,-21.7943 130,-2.79427 10,-2.79427"/>
<text text-anchor="middle" x="70" y="-9.79427" font-family="Helvetica,sans-Serif" font-size="10.00">vector&lt; mapped_type &gt;</text>
</g>
<!-- Node4&#45;&gt;Node3 -->
<g id="edge4" class="edge"><title>Node4&#45;&gt;Node3</title>
<path fill="none" stroke="#9a32cd" stroke-dasharray="5,2" d="M140.252,-6.60869C159.875,-5.2399 181.265,-3.9766 201,-3.29427 257.855,-1.32857 272.388,2.31142 329,-3.29427 389.89,-9.32362 404.283,-16.9571 464,-30.2943 469.796,-31.5887 475.813,-32.9816 481.832,-34.4081"/>
<polygon fill="#9a32cd" stroke="#9a32cd" points="139.894,-3.12527 130.17,-7.33157 140.395,-10.1073 139.894,-3.12527"/>
<text text-anchor="middle" x="265" y="-6.29427" font-family="Helvetica,sans-Serif" font-size="10.00"> _vec</text>
</g>
<!-- Node4&#45;&gt;Node5 -->
<g id="edge7" class="edge"><title>Node4&#45;&gt;Node5</title>
<path fill="none" stroke="#9a32cd" stroke-dasharray="5,2" d="M140.375,-21.9996C160.123,-24.7622 181.52,-27.7556 200.875,-30.4632"/>
<polygon fill="#9a32cd" stroke="#9a32cd" points="140.606,-18.498 130.218,-20.5787 139.637,-25.4305 140.606,-18.498"/>
<text text-anchor="middle" x="170.5" y="-31.2943" font-family="Helvetica,sans-Serif" font-size="10.00"> _vec</text>
</g>
<!-- Node5&#45;&gt;Node3 -->
<g id="edge5" class="edge"><title>Node5&#45;&gt;Node3</title>
<path fill="none" stroke="orange" stroke-dasharray="5,2" d="M339.708,-34.659C377.019,-33.2052 422.985,-32.7758 464,-36.2943 469.83,-36.7944 475.87,-37.4934 481.903,-38.3148"/>
<polygon fill="orange" stroke="orange" points="339.269,-31.1744 329.425,-35.0938 339.564,-38.1681 339.269,-31.1744"/>
<text text-anchor="start" x="347" y="-61.2943" font-family="Helvetica,sans-Serif" font-size="10.00"> &lt; std::unique_ptr&lt;</text>
<text text-anchor="start" x="347" y="-50.2943" font-family="Helvetica,sans-Serif" font-size="10.00"> element::carla::road</text>
<text text-anchor="middle" x="405.5" y="-39.2943" font-family="Helvetica,sans-Serif" font-size="10.00">::element::RoadObject &gt; &gt;</text>
</g>
</g>
</svg>
