<?xml version="1.0" encoding="UTF-8" standalone="no"?>
<!DOCTYPE svg PUBLIC "-//W3C//DTD SVG 1.1//EN"
 "http://www.w3.org/Graphics/SVG/1.1/DTD/svg11.dtd">
<!-- Generated by graphviz version 2.38.0 (20140413.2041)
 -->
<!-- Title: carla::road::ObjectSet Pages: 1 -->
<!--zoomable 111 -->
<svg id="main" version="1.1" xmlns="http://www.w3.org/2000/svg" xmlns:xlink="http://www.w3.org/1999/xlink" xml:space="preserve" onload="init(evt)">
<style type="text/css"><![CDATA[
.edge:hover path { stroke: red; }
.edge:hover polygon { stroke: red; fill: red; }
]]></style>
<script type="text/javascript"><![CDATA[
var edges = document.getElementsByTagName('g');
if (edges && edges.length) {
  for (var i=0;i<edges.length;i++) {
    if (edges[i].id.substr(0,4)=='edge') {
      edges[i].setAttribute('class','edge');
    }
  }
}
]]></script>
        <defs>
                <circle id="rim" cx="0" cy="0" r="7"/>
                <circle id="rim2" cx="0" cy="0" r="3.5"/>
                <g id="zoomPlus">
                        <use xlink:href="#rim" fill="#404040">
                                <set attributeName="fill" to="#808080" begin="zoomplus.mouseover" end="zoomplus.mouseout"/>
                        </use>
                        <path d="M-4,0h8M0,-4v8" fill="none" stroke="white" stroke-width="1.5" pointer-events="none"/>
                </g>
                <g id="zoomMin">
                        <use xlink:href="#rim" fill="#404040">
                                <set attributeName="fill" to="#808080" begin="zoomminus.mouseover" end="zoomminus.mouseout"/>
                        </use>
                        <path d="M-4,0h8" fill="none" stroke="white" stroke-width="1.5" pointer-events="none"/>
                </g>
                <g id="dirArrow">
                        <path fill="none" stroke="white" stroke-width="1.5" d="M0,-3.0v7 M-2.5,-0.5L0,-3.0L2.5,-0.5"/>
                </g>
               <g id="resetDef">
                       <use xlink:href="#rim2" fill="#404040">
                               <set attributeName="fill" to="#808080" begin="reset.mouseover" end="reset.mouseout"/>
                       </use>
               </g>
        </defs>

<script type="text/javascript">
var viewWidth = 812;
var viewHeight = 111;
var sectionId = 'dynsection-1';
</script>
<script xlink:href="../../svgpan.js"/>
<svg id="graph" class="graph">
<g id="viewport">
<title>carla::road::ObjectSet</title>
<polygon fill="white" stroke="none" points="-4,4 -4,-107.294 808,-107.294 808,4 -4,4"/>
<!-- Node1 -->
<g id="node1" class="node"><title>Node1</title>
<polygon fill="#bfbfbf" stroke="black" points="692,-83.7943 692,-102.794 804,-102.794 804,-83.7943 692,-83.7943"/>
<text text-anchor="middle" x="748" y="-90.7943" font-family="Helvetica,sans-Serif" font-size="10.00">carla::road::ObjectSet</text>
</g>
<!-- Node2 -->
<g id="node2" class="node"><title>Node2</title>
<g id="a_node2"><a xlink:href="../../d7/d55/classcarla_1_1MovableNonCopyable.html" target="_top" xlink:title="Inherit (privately) to suppress copy construction and assignment. ">
<polygon fill="white" stroke="black" points="0,-73.7943 0,-92.7943 140,-92.7943 140,-73.7943 0,-73.7943"/>
<text text-anchor="middle" x="70" y="-80.7943" font-family="Helvetica,sans-Serif" font-size="10.00">carla::MovableNonCopyable</text>
</a>
</g>
</g>
<!-- Node2&#45;&gt;Node1 -->
<g id="edge1" class="edge"><title>Node2&#45;&gt;Node1</title>
<path fill="none" stroke="#8b1a1a" d="M124.174,-94.6556C135.299,-96.5867 146.993,-98.2906 158,-99.2943 169.065,-100.303 171.889,-99.3534 183,-99.2943 369.539,-98.3021 590.768,-95.4641 691.763,-94.0768"/>
<polygon fill="#8b1a1a" stroke="#8b1a1a" points="124.618,-91.179 114.153,-92.8319 123.365,-98.0659 124.618,-91.179"/>
</g>
<!-- Node3 -->
<g id="node3" class="node"><title>Node3</title>
<g id="a_node3"><a xlink:href="../../dc/dcf/classcarla_1_1road_1_1RoadElementSet.html" target="_top" xlink:title="carla::road::RoadElement\lSet\&lt; std::unique_ptr\&lt;\l element::carla::road::\lelement::RoadObject \&gt; \&gt;">
<polygon fill="white" stroke="black" points="482,-24.2943 482,-76.2943 610,-76.2943 610,-24.2943 482,-24.2943"/>
<text text-anchor="start" x="490" y="-64.2943" font-family="Helvetica,sans-Serif" font-size="10.00">carla::road::RoadElement</text>
<text text-anchor="start" x="490" y="-53.2943" font-family="Helvetica,sans-Serif" font-size="10.00">Set&lt; std::unique_ptr&lt;</text>
<text text-anchor="start" x="490" y="-42.2943" font-family="Helvetica,sans-Serif" font-size="10.00"> element::carla::road::</text>
<text text-anchor="middle" x="546" y="-31.2943" font-family="Helvetica,sans-Serif" font-size="10.00">element::RoadObject &gt; &gt;</text>
</a>
</g>
</g>
<!-- Node2&#45;&gt;Node3 -->
<g id="edge3" class="edge"><title>Node2&#45;&gt;Node3</title>
<path fill="none" stroke="#8b1a1a" d="M150.65,-84.9838C230.315,-85.6123 356.172,-83.7212 464,-69.2943 469.87,-68.5089 475.937,-67.4878 481.988,-66.3265"/>
<polygon fill="#8b1a1a" stroke="#8b1a1a" points="150.237,-81.4798 140.205,-84.8848 150.171,-88.4795 150.237,-81.4798"/>
</g>
<!-- Node5 -->
<g id="node5" class="node"><title>Node5</title>
<g id="a_node5"><a xlink:href="../../dc/dcf/classcarla_1_1road_1_1RoadElementSet.html" target="_top" xlink:title="A set of elements ordered by its position on the road. ">
<polygon fill="white" stroke="black" points="201,-24.2943 201,-54.2943 329,-54.2943 329,-24.2943 201,-24.2943"/>
<text text-anchor="start" x="209" y="-42.2943" font-family="Helvetica,sans-Serif" font-size="10.00">carla::road::RoadElement</text>
<text text-anchor="middle" x="265" y="-31.2943" font-family="Helvetica,sans-Serif" font-size="10.00">Set&lt; T &gt;</text>
</a>
</g>
</g>
<!-- Node2&#45;&gt;Node5 -->
<g id="edge6" class="edge"><title>Node2&#45;&gt;Node5</title>
<path fill="none" stroke="#8b1a1a" d="M122.861,-71.471C146.888,-65.9935 175.649,-59.4364 200.921,-53.6749"/>
<polygon fill="#8b1a1a" stroke="#8b1a1a" points="121.85,-68.1116 112.878,-73.7469 123.406,-74.9365 121.85,-68.1116"/>
</g>
<!-- Node3&#45;&gt;Node1 -->
<g id="edge2" class="edge"><title>Node3&#45;&gt;Node1</title>
<path fill="none" stroke="#9a32cd" stroke-dasharray="5,2" d="M620.057,-66.0016C647.75,-71.9556 678.423,-78.5501 702.679,-83.7653"/>
<polygon fill="#9a32cd" stroke="#9a32cd" points="620.519,-62.521 610.007,-63.8407 619.048,-69.3646 620.519,-62.521"/>
<text text-anchor="middle" x="651" y="-80.2943" font-family="Helvetica,sans-Serif" font-size="10.00"> _road_set</text>
</g>
<!-- Node4 -->
<g id="node4" class="node"><title>Node4</title>
<polygon fill="white" stroke="#bfbfbf" points="10,-2.79427 10,-21.7943 130,-21.7943 130,-2.79427 10,-2.79427"/>
<text text-anchor="middle" x="70" y="-9.79427" font-family="Helvetica,sans-Serif" font-size="10.00">vector&lt; mapped_type &gt;</text>
</g>
<!-- Node4&#45;&gt;Node3 -->
<g id="edge4" class="edge"><title>Node4&#45;&gt;Node3</title>
<path fill="none" stroke="#9a32cd" stroke-dasharray="5,2" d="M140.252,-6.60869C159.875,-5.2399 181.265,-3.9766 201,-3.29427 257.855,-1.32857 272.388,2.31142 329,-3.29427 389.89,-9.32362 404.283,-16.9571 464,-30.2943 469.796,-31.5887 475.813,-32.9816 481.832,-34.4081"/>
<polygon fill="#9a32cd" stroke="#9a32cd" points="139.894,-3.12527 130.17,-7.33157 140.395,-10.1073 139.894,-3.12527"/>
<text text-anchor="middle" x="265" y="-6.29427" font-family="Helvetica,sans-Serif" font-size="10.00"> _vec</text>
</g>
<!-- Node4&#45;&gt;Node5 -->
<g id="edge7" class="edge"><title>Node4&#45;&gt;Node5</title>
<path fill="none" stroke="#9a32cd" stroke-dasharray="5,2" d="M140.375,-21.9996C160.123,-24.7622 181.52,-27.7556 200.875,-30.4632"/>
<polygon fill="#9a32cd" stroke="#9a32cd" points="140.606,-18.498 130.218,-20.5787 139.637,-25.4305 140.606,-18.498"/>
<text text-anchor="middle" x="170.5" y="-31.2943" font-family="Helvetica,sans-Serif" font-size="10.00"> _vec</text>
</g>
<!-- Node5&#45;&gt;Node3 -->
<g id="edge5" class="edge"><title>Node5&#45;&gt;Node3</title>
<path fill="none" stroke="orange" stroke-dasharray="5,2" d="M339.708,-34.659C377.019,-33.2052 422.985,-32.7758 464,-36.2943 469.83,-36.7944 475.87,-37.4934 481.903,-38.3148"/>
<polygon fill="orange" stroke="orange" points="339.269,-31.1744 329.425,-35.0938 339.564,-38.1681 339.269,-31.1744"/>
<text text-anchor="start" x="347" y="-61.2943" font-family="Helvetica,sans-Serif" font-size="10.00"> &lt; std::unique_ptr&lt;</text>
<text text-anchor="start" x="347" y="-50.2943" font-family="Helvetica,sans-Serif" font-size="10.00"> element::carla::road</text>
<text text-anchor="middle" x="405.5" y="-39.2943" font-family="Helvetica,sans-Serif" font-size="10.00">::element::RoadObject &gt; &gt;</text>
</g>
</g>
</svg>
        <g id="navigator" transform="translate(0 0)" fill="#404254">
                <rect fill="#f2f5e9" fill-opacity="0.5" stroke="#606060" stroke-width=".5" x="0" y="0" width="60" height="60"/>
                <use id="zoomplus" xlink:href="#zoomPlus" x="17" y="9" onmousedown="handleZoom(evt,'in')"/>
                <use id="zoomminus" xlink:href="#zoomMin" x="42" y="9" onmousedown="handleZoom(evt,'out')"/>
                <use id="reset" xlink:href="#resetDef" x="30" y="36" onmousedown="handleReset()"/>
                <g id="arrowUp" xlink:href="#dirArrow" transform="translate(30 24)" onmousedown="handlePan(0,-1)">
                  <use xlink:href="#rim" fill="#404040">
                        <set attributeName="fill" to="#808080" begin="arrowUp.mouseover" end="arrowUp.mouseout"/>
                  </use>
                  <path fill="none" stroke="white" stroke-width="1.5" d="M0,-3.0v7 M-2.5,-0.5L0,-3.0L2.5,-0.5"/>
                </g>
                <g id="arrowRight" xlink:href="#dirArrow" transform="rotate(90) translate(36 -43)" onmousedown="handlePan(1,0)">
                  <use xlink:href="#rim" fill="#404040">
                        <set attributeName="fill" to="#808080" begin="arrowRight.mouseover" end="arrowRight.mouseout"/>
                  </use>
                  <path fill="none" stroke="white" stroke-width="1.5" d="M0,-3.0v7 M-2.5,-0.5L0,-3.0L2.5,-0.5"/>
                </g>
                <g id="arrowDown" xlink:href="#dirArrow" transform="rotate(180) translate(-30 -48)" onmousedown="handlePan(0,1)">
                  <use xlink:href="#rim" fill="#404040">
                        <set attributeName="fill" to="#808080" begin="arrowDown.mouseover" end="arrowDown.mouseout"/>
                  </use>
                  <path fill="none" stroke="white" stroke-width="1.5" d="M0,-3.0v7 M-2.5,-0.5L0,-3.0L2.5,-0.5"/>
                </g>
                <g id="arrowLeft" xlink:href="#dirArrow" transform="rotate(270) translate(-36 17)" onmousedown="handlePan(-1,0)">
                  <use xlink:href="#rim" fill="#404040">
                        <set attributeName="fill" to="#808080" begin="arrowLeft.mouseover" end="arrowLeft.mouseout"/>
                  </use>
                  <path fill="none" stroke="white" stroke-width="1.5" d="M0,-3.0v7 M-2.5,-0.5L0,-3.0L2.5,-0.5"/>
                </g>
        </g>
        <svg viewBox="0 0 15 15" width="100%" height="30px" preserveAspectRatio="xMaxYMin meet">
         <g id="arrow_out" transform="scale(0.3 0.3)">
          <a xlink:href="classcarla_1_1road_1_1ObjectSet__coll__graph_org.svg" target="_base">
           <rect id="button" ry="5" rx="5" y="6" x="6" height="38" width="38"
                fill="#f2f5e9" fill-opacity="0.5" stroke="#606060" stroke-width="1.0"/>
           <path id="arrow"
             d="M 11.500037,31.436501 C 11.940474,20.09759 22.043105,11.32322 32.158766,21.979434 L 37.068811,17.246167 C 37.068811,17.246167 37.088388,32 37.088388,32 L 22.160133,31.978069 C 22.160133,31.978069 26.997745,27.140456 26.997745,27.140456 C 18.528582,18.264221 13.291696,25.230495 11.500037,31.436501 z"
             style="fill:#404040;"/>
          </a>
         </g>
        </svg>
</svg>
