<?xml version="1.0" encoding="UTF-8" standalone="no"?>
<!DOCTYPE svg PUBLIC "-//W3C//DTD SVG 1.1//EN"
 "http://www.w3.org/Graphics/SVG/1.1/DTD/svg11.dtd">
<!-- Generated by graphviz version 2.40.1 (20161225.0304)
 -->
<!-- Title: URoadMap::GetIndex Pages: 1 -->
<svg width="763pt" height="153pt"
 viewBox="0.00 0.00 763.00 152.50" xmlns="http://www.w3.org/2000/svg" xmlns:xlink="http://www.w3.org/1999/xlink">
<g id="graph0" class="graph" transform="scale(1 1) rotate(0) translate(4 148.5)">
<title>URoadMap::GetIndex</title>
<polygon fill="#ffffff" stroke="transparent" points="-4,4 -4,-148.5 759,-148.5 759,4 -4,4"/>
<!-- Node43 -->
<g id="node1" class="node">
<title>Node43</title>
<polygon fill="#bfbfbf" stroke="#000000" points="0,-49 0,-68 119,-68 119,-49 0,-49"/>
<text text-anchor="middle" x="59.5" y="-56" font-family="Helvetica,sans-Serif" font-size="10.00" fill="#000000">URoadMap::GetIndex</text>
</g>
<!-- Node44 -->
<g id="node2" class="node">
<title>Node44</title>
<g id="a_node2"><a xlink:href="../../d5/db2/classURoadMap.html#ac59d61929c6932dffc5cc09e79628b9a" target="_top" xlink:title="Retrieve the data stored at a given pixel. ">
<polygon fill="#ffffff" stroke="#000000" points="155,-77 155,-96 280,-96 280,-77 155,-77"/>
<text text-anchor="middle" x="217.5" y="-84" font-family="Helvetica,sans-Serif" font-size="10.00" fill="#000000">URoadMap::GetDataAt</text>
</a>
</g>
</g>
<!-- Node43&#45;&gt;Node44 -->
<g id="edge1" class="edge">
<title>Node43&#45;&gt;Node44</title>
<path fill="none" stroke="#191970" d="M123.5167,-69.8447C136.8898,-72.2146 150.8576,-74.69 163.8103,-76.9854"/>
<polygon fill="#191970" stroke="#191970" points="123.8901,-66.3564 113.4327,-68.0577 122.6685,-73.249 123.8901,-66.3564"/>
</g>
<!-- Node51 -->
<g id="node9" class="node">
<title>Node51</title>
<g id="a_node9"><a xlink:href="../../d5/db2/classURoadMap.html#a4d82906248621ab21ccaeff669ebfdab" target="_top" xlink:title="URoadMap::SetPixelAt">
<polygon fill="#ffffff" stroke="#000000" points="155,-30 155,-49 280,-49 280,-30 155,-30"/>
<text text-anchor="middle" x="217.5" y="-37" font-family="Helvetica,sans-Serif" font-size="10.00" fill="#000000">URoadMap::SetPixelAt</text>
</a>
</g>
</g>
<!-- Node43&#45;&gt;Node51 -->
<g id="edge10" class="edge">
<title>Node43&#45;&gt;Node51</title>
<path fill="none" stroke="#191970" d="M129.4342,-50.0902C137.8758,-49.0751 146.4574,-48.0431 154.7865,-47.0415"/>
<polygon fill="#191970" stroke="#191970" points="128.7436,-46.6479 119.233,-51.3169 129.5794,-53.5979 128.7436,-46.6479"/>
</g>
<!-- Node45 -->
<g id="node3" class="node">
<title>Node45</title>
<g id="a_node3"><a xlink:href="../../d5/db2/classURoadMap.html#a2d9cb2dfd43f8fb469f320ca6b0b81ca" target="_top" xlink:title="Clamps value if lies outside map limits. ">
<polygon fill="#ffffff" stroke="#000000" points="319,-125 319,-144 444,-144 444,-125 319,-125"/>
<text text-anchor="middle" x="381.5" y="-132" font-family="Helvetica,sans-Serif" font-size="10.00" fill="#000000">URoadMap::GetDataAt</text>
</a>
</g>
</g>
<!-- Node44&#45;&gt;Node45 -->
<g id="edge2" class="edge">
<title>Node44&#45;&gt;Node45</title>
<path fill="none" stroke="#191970" d="M259.7493,-98.9791C277.1641,-104.1125 297.5485,-110.1076 316,-115.5 326.5694,-118.5888 338.1037,-121.9409 348.507,-124.9574"/>
<polygon fill="#191970" stroke="#191970" points="260.4575,-95.539 249.8759,-96.0674 258.4774,-102.2532 260.4575,-95.539"/>
</g>
<!-- Node46 -->
<g id="node4" class="node">
<title>Node46</title>
<g id="a_node4"><a xlink:href="../../d5/db2/classURoadMap.html#ac40ce0534934a56138113b4991b530c1" target="_top" xlink:title="Intersect actor bounds with map. ">
<polygon fill="#ffffff" stroke="#000000" points="323,-87 323,-106 440,-106 440,-87 323,-87"/>
<text text-anchor="middle" x="381.5" y="-94" font-family="Helvetica,sans-Serif" font-size="10.00" fill="#000000">URoadMap::Intersect</text>
</a>
</g>
</g>
<!-- Node44&#45;&gt;Node46 -->
<g id="edge3" class="edge">
<title>Node44&#45;&gt;Node46</title>
<path fill="none" stroke="#191970" d="M290.7839,-84.2525C303.7957,-84.9441 317.1036,-85.8825 329.377,-86.9869"/>
<polygon fill="#191970" stroke="#191970" points="290.595,-80.7394 280.4377,-83.7525 290.257,-87.7313 290.595,-80.7394"/>
</g>
<!-- Node47 -->
<g id="node5" class="node">
<title>Node47</title>
<g id="a_node5"><a xlink:href="../../d5/db2/classURoadMap.html#aa47b13000945dfd3e81dd51a69eb2c67" target="_top" xlink:title="Save the current map as PNG with the pixel data encoded as color. ">
<polygon fill="#ffffff" stroke="#000000" points="316,-49 316,-68 447,-68 447,-49 316,-49"/>
<text text-anchor="middle" x="381.5" y="-56" font-family="Helvetica,sans-Serif" font-size="10.00" fill="#000000">URoadMap::SaveAsPNG</text>
</a>
</g>
</g>
<!-- Node44&#45;&gt;Node47 -->
<g id="edge5" class="edge">
<title>Node44&#45;&gt;Node47</title>
<path fill="none" stroke="#191970" d="M253.3923,-74.6778C271.6416,-70.623 294.4048,-66.424 315.6597,-63.1089"/>
<polygon fill="#191970" stroke="#191970" points="252.4373,-71.3063 243.4863,-76.9746 254.0184,-78.1254 252.4373,-71.3063"/>
</g>
<!-- Node46&#45;&gt;Node44 -->
<g id="edge4" class="edge">
<title>Node46&#45;&gt;Node44</title>
<path fill="none" stroke="#191970" d="M312.5407,-98.9687C298.2512,-98.2662 283.4194,-97.2511 269.8415,-96.0328"/>
<polygon fill="#191970" stroke="#191970" points="312.6793,-102.4782 322.8242,-99.4234 312.9886,-95.485 312.6793,-102.4782"/>
</g>
<!-- Node47&#45;&gt;Node44 -->
<g id="edge9" class="edge">
<title>Node47&#45;&gt;Node44</title>
<path fill="none" stroke="#191970" d="M345.5642,-70.3319C326.4883,-74.5689 302.4894,-78.9625 280.4377,-82.3398"/>
<polygon fill="#191970" stroke="#191970" points="346.38,-73.7357 355.3324,-68.0695 344.8005,-66.9162 346.38,-73.7357"/>
</g>
<!-- Node48 -->
<g id="node6" class="node">
<title>Node48</title>
<g id="a_node6"><a xlink:href="../../d1/ddb/classACityMapGenerator.html#a9ce09c4586724fe3e446cbb12712adf3" target="_top" xlink:title="Generate the road map image and save to disk if requested. ">
<polygon fill="#ffffff" stroke="#000000" points="483,-24.5 483,-54.5 601,-54.5 601,-24.5 483,-24.5"/>
<text text-anchor="start" x="491" y="-42.5" font-family="Helvetica,sans-Serif" font-size="10.00" fill="#000000">ACityMapGenerator::</text>
<text text-anchor="middle" x="542" y="-31.5" font-family="Helvetica,sans-Serif" font-size="10.00" fill="#000000">GenerateRoadMap</text>
</a>
</g>
</g>
<!-- Node47&#45;&gt;Node48 -->
<g id="edge6" class="edge">
<title>Node47&#45;&gt;Node48</title>
<path fill="none" stroke="#191970" d="M457.2573,-49.5319C465.8335,-48.5166 474.4784,-47.4932 482.7985,-46.5083"/>
<polygon fill="#191970" stroke="#191970" points="456.7638,-46.0657 447.2446,-50.7172 457.5867,-53.0172 456.7638,-46.0657"/>
</g>
<!-- Node49 -->
<g id="node7" class="node">
<title>Node49</title>
<g id="a_node7"><a xlink:href="../../d1/ddb/classACityMapGenerator.html#a5627a0935def8c92d8ae226b10238f2c" target="_top" xlink:title="ACityMapGenerator::\lPreSave">
<polygon fill="#ffffff" stroke="#000000" points="637,-49.5 637,-79.5 755,-79.5 755,-49.5 637,-49.5"/>
<text text-anchor="start" x="645" y="-67.5" font-family="Helvetica,sans-Serif" font-size="10.00" fill="#000000">ACityMapGenerator::</text>
<text text-anchor="middle" x="696" y="-56.5" font-family="Helvetica,sans-Serif" font-size="10.00" fill="#000000">PreSave</text>
</a>
</g>
</g>
<!-- Node48&#45;&gt;Node49 -->
<g id="edge7" class="edge">
<title>Node48&#45;&gt;Node49</title>
<path fill="none" stroke="#191970" d="M611.0892,-50.7158C619.6724,-52.1092 628.3881,-53.524 636.8037,-54.8902"/>
<polygon fill="#191970" stroke="#191970" points="611.5316,-47.2419 601.1,-49.0942 610.4099,-54.1514 611.5316,-47.2419"/>
</g>
<!-- Node50 -->
<g id="node8" class="node">
<title>Node50</title>
<g id="a_node8"><a xlink:href="../../d1/ddb/classACityMapGenerator.html#a5ad53319596101e96076a12eab41b9c1" target="_top" xlink:title="Here does nothing, implement in derived classes. ">
<polygon fill="#ffffff" stroke="#000000" points="637,-.5 637,-30.5 755,-30.5 755,-.5 637,-.5"/>
<text text-anchor="start" x="645" y="-18.5" font-family="Helvetica,sans-Serif" font-size="10.00" fill="#000000">ACityMapGenerator::</text>
<text text-anchor="middle" x="696" y="-7.5" font-family="Helvetica,sans-Serif" font-size="10.00" fill="#000000">UpdateMap</text>
</a>
</g>
</g>
<!-- Node48&#45;&gt;Node50 -->
<g id="edge8" class="edge">
<title>Node48&#45;&gt;Node50</title>
<path fill="none" stroke="#191970" d="M611.0892,-28.7329C619.6724,-27.3952 628.3881,-26.0369 636.8037,-24.7254"/>
<polygon fill="#191970" stroke="#191970" points="610.4417,-25.2914 601.1,-30.2896 611.5197,-32.2079 610.4417,-25.2914"/>
</g>
<!-- Node51&#45;&gt;Node48 -->
<g id="edge11" class="edge">
<title>Node51&#45;&gt;Node48</title>
<path fill="none" stroke="#191970" d="M290.2804,-39.5C348.3785,-39.5 428.744,-39.5 482.9061,-39.5"/>
<polygon fill="#191970" stroke="#191970" points="290.0669,-36.0001 280.0669,-39.5 290.0668,-43.0001 290.0669,-36.0001"/>
</g>
</g>
</svg>
