<?xml version="1.0" encoding="UTF-8" standalone="no"?>
<!DOCTYPE svg PUBLIC "-//W3C//DTD SVG 1.1//EN"
 "http://www.w3.org/Graphics/SVG/1.1/DTD/svg11.dtd">
<!-- Generated by graphviz version 2.38.0 (20140413.2041)
 -->
<!-- Title: URoadMap::GetDataAt Pages: 1 -->
<!--zoomable 200 -->
<svg id="main" version="1.1" xmlns="http://www.w3.org/2000/svg" xmlns:xlink="http://www.w3.org/1999/xlink" xml:space="preserve" onload="init(evt)">
<style type="text/css"><![CDATA[
.edge:hover path { stroke: red; }
.edge:hover polygon { stroke: red; fill: red; }
]]></style>
<script type="text/javascript"><![CDATA[
var edges = document.getElementsByTagName('g');
if (edges && edges.length) {
  for (var i=0;i<edges.length;i++) {
    if (edges[i].id.substr(0,4)=='edge') {
      edges[i].setAttribute('class','edge');
    }
  }
}
]]></script>
        <defs>
                <circle id="rim" cx="0" cy="0" r="7"/>
                <circle id="rim2" cx="0" cy="0" r="3.5"/>
                <g id="zoomPlus">
                        <use xlink:href="#rim" fill="#404040">
                                <set attributeName="fill" to="#808080" begin="zoomplus.mouseover" end="zoomplus.mouseout"/>
                        </use>
                        <path d="M-4,0h8M0,-4v8" fill="none" stroke="white" stroke-width="1.5" pointer-events="none"/>
                </g>
                <g id="zoomMin">
                        <use xlink:href="#rim" fill="#404040">
                                <set attributeName="fill" to="#808080" begin="zoomminus.mouseover" end="zoomminus.mouseout"/>
                        </use>
                        <path d="M-4,0h8" fill="none" stroke="white" stroke-width="1.5" pointer-events="none"/>
                </g>
                <g id="dirArrow">
                        <path fill="none" stroke="white" stroke-width="1.5" d="M0,-3.0v7 M-2.5,-0.5L0,-3.0L2.5,-0.5"/>
                </g>
               <g id="resetDef">
                       <use xlink:href="#rim2" fill="#404040">
                               <set attributeName="fill" to="#808080" begin="reset.mouseover" end="reset.mouseout"/>
                       </use>
               </g>
        </defs>

<script type="text/javascript">
var viewWidth = 799;
var viewHeight = 200;
var sectionId = 'dynsection-4';
</script>
<script xlink:href="../../svgpan.js"/>
<svg id="graph" class="graph">
<g id="viewport">
<title>URoadMap::GetDataAt</title>
<polygon fill="white" stroke="none" points="-4,4 -4,-195.619 795,-195.619 795,4 -4,4"/>
<!-- Node1 -->
<g id="node1" class="node"><title>Node1</title>
<polygon fill="#bfbfbf" stroke="black" points="0,-51.2524 0,-70.2524 119,-70.2524 119,-51.2524 0,-51.2524"/>
<text text-anchor="middle" x="59.5" y="-58.2524" font-family="Helvetica,sans-Serif" font-size="10.00">URoadMap::GetDataAt</text>
</g>
<!-- Node2 -->
<g id="node2" class="node"><title>Node2</title>
<g id="a_node2"><a xlink:href="../../d2/de5/RoadMap_8cpp.html#a29ff9d0de6954c61074256fcf693bbbb" target="_top" xlink:title="ClampFloatToUInt">
<polygon fill="white" stroke="black" points="166,-89.2524 166,-108.252 263,-108.252 263,-89.2524 166,-89.2524"/>
<text text-anchor="middle" x="214.5" y="-96.2524" font-family="Helvetica,sans-Serif" font-size="10.00">ClampFloatToUInt</text>
</a>
</g>
</g>
<!-- Node1&#45;&gt;Node2 -->
<g id="edge1" class="edge"><title>Node1&#45;&gt;Node2</title>
<path fill="none" stroke="midnightblue" d="M99.1084,-70.3414C119.207,-75.3333 143.975,-81.4847 165.319,-86.7857"/>
<polygon fill="midnightblue" stroke="midnightblue" points="164.62,-90.2186 175.169,-89.2323 166.308,-83.425 164.62,-90.2186"/>
</g>
<!-- Node3 -->
<g id="node3" class="node"><title>Node3</title>
<g id="a_node3"><a xlink:href="../../d5/db2/classURoadMap.html#a88ad9e23f72db28635fd28983ea51943" target="_top" xlink:title="Retrieve the data stored at a given pixel. ">
<polygon fill="white" stroke="black" points="155,-51.2524 155,-70.2524 274,-70.2524 274,-51.2524 155,-51.2524"/>
<text text-anchor="middle" x="214.5" y="-58.2524" font-family="Helvetica,sans-Serif" font-size="10.00">URoadMap::GetDataAt</text>
</a>
</g>
</g>
<!-- Node1&#45;&gt;Node3 -->
<g id="edge2" class="edge"><title>Node1&#45;&gt;Node3</title>
<path fill="none" stroke="midnightblue" d="M119.216,-60.7524C127.544,-60.7524 136.169,-60.7524 144.667,-60.7524"/>
<polygon fill="midnightblue" stroke="midnightblue" points="144.941,-64.2525 154.941,-60.7524 144.941,-57.2525 144.941,-64.2525"/>
</g>
<!-- Node8 -->
<g id="node8" class="node"><title>Node8</title>
<g id="a_node8"><a xlink:href="../../d5/db2/classURoadMap.html#a3724949584acfc39da4af148fd4615a5" target="_top" xlink:title="URoadMap::IsValid">
<polygon fill="white" stroke="black" points="488.5,-2.25235 488.5,-21.2524 590.5,-21.2524 590.5,-2.25235 488.5,-2.25235"/>
<text text-anchor="middle" x="539.5" y="-9.25235" font-family="Helvetica,sans-Serif" font-size="10.00">URoadMap::IsValid</text>
</a>
</g>
</g>
<!-- Node1&#45;&gt;Node8 -->
<g id="edge15" class="edge"><title>Node1&#45;&gt;Node8</title>
<path fill="none" stroke="midnightblue" d="M92.0081,-51.1485C138.957,-37.3903 230.305,-12.74 310,-3.75235 366.531,2.62292 381.156,-1.49348 438,-3.75235 451.101,-4.27295 465.139,-5.17382 478.445,-6.18785"/>
<polygon fill="midnightblue" stroke="midnightblue" points="478.204,-9.67966 488.45,-6.98092 478.757,-2.70155 478.204,-9.67966"/>
</g>
<!-- Node4 -->
<g id="node4" class="node"><title>Node4</title>
<g id="a_node4"><a xlink:href="../../d5/db2/classURoadMap.html#a7c7ce5a7e768d45e6d40e2367a9fa807" target="_top" xlink:title="URoadMap::GetIndex">
<polygon fill="white" stroke="black" points="318,-89.2524 318,-108.252 430,-108.252 430,-89.2524 318,-89.2524"/>
<text text-anchor="middle" x="374" y="-96.2524" font-family="Helvetica,sans-Serif" font-size="10.00">URoadMap::GetIndex</text>
</a>
</g>
</g>
<!-- Node3&#45;&gt;Node4 -->
<g id="edge3" class="edge"><title>Node3&#45;&gt;Node4</title>
<path fill="none" stroke="midnightblue" d="M255.244,-70.3414C276.028,-75.3559 301.661,-81.5404 323.699,-86.8576"/>
<polygon fill="midnightblue" stroke="midnightblue" points="323,-90.2892 333.542,-89.2323 324.642,-83.4845 323,-90.2892"/>
</g>
<!-- Node5 -->
<g id="node5" class="node"><title>Node5</title>
<g id="a_node5"><a xlink:href="../../d5/db2/classURoadMap.html#a439056091e5bc0d48e8b1315d8341944" target="_top" xlink:title="Intersect actor bounds with map. ">
<polygon fill="white" stroke="black" points="319,-51.2524 319,-70.2524 429,-70.2524 429,-51.2524 319,-51.2524"/>
<text text-anchor="middle" x="374" y="-58.2524" font-family="Helvetica,sans-Serif" font-size="10.00">URoadMap::Intersect</text>
</a>
</g>
</g>
<!-- Node3&#45;&gt;Node5 -->
<g id="edge4" class="edge"><title>Node3&#45;&gt;Node5</title>
<path fill="none" stroke="midnightblue" d="M274.147,-54.2018C285.397,-53.9741 297.233,-53.9414 308.651,-54.1037"/>
<polygon fill="midnightblue" stroke="midnightblue" points="308.923,-57.6096 318.99,-54.3076 309.061,-50.611 308.923,-57.6096"/>
</g>
<!-- Node6 -->
<g id="node6" class="node"><title>Node6</title>
<g id="a_node6"><a xlink:href="../../d2/d40/TrafficLightBase_8cpp.html#a1459952e95242b0c926376d0bb4692b8" target="_top" xlink:title="IsValid">
<polygon fill="white" stroke="black" points="350.5,-13.2524 350.5,-32.2524 397.5,-32.2524 397.5,-13.2524 350.5,-13.2524"/>
<text text-anchor="middle" x="374" y="-20.2524" font-family="Helvetica,sans-Serif" font-size="10.00">IsValid</text>
</a>
</g>
</g>
<!-- Node3&#45;&gt;Node6 -->
<g id="edge6" class="edge"><title>Node3&#45;&gt;Node6</title>
<path fill="none" stroke="midnightblue" d="M255.244,-51.1633C281.557,-44.8147 315.644,-36.5906 340.367,-30.6256"/>
<polygon fill="midnightblue" stroke="midnightblue" points="341.44,-33.9674 350.34,-28.2196 339.798,-27.1627 341.44,-33.9674"/>
</g>
<!-- Node7 -->
<g id="node7" class="node"><title>Node7</title>
<g id="a_node7"><a xlink:href="../../d5/db2/classURoadMap.html#ac0ef5ff42c6a02430444637a12d9bd53" target="_top" xlink:title="Save the current map as PNG with the pixel data encoded as color. ">
<polygon fill="white" stroke="black" points="310,-127.252 310,-146.252 438,-146.252 438,-127.252 310,-127.252"/>
<text text-anchor="middle" x="374" y="-134.252" font-family="Helvetica,sans-Serif" font-size="10.00">URoadMap::SaveAsPNG</text>
</a>
</g>
</g>
<!-- Node3&#45;&gt;Node7 -->
<g id="edge7" class="edge"><title>Node3&#45;&gt;Node7</title>
<path fill="none" stroke="midnightblue" d="M273.456,-70.4121C273.638,-70.5249 273.819,-70.6383 274,-70.7524 293.671,-83.1737 290.199,-96.5395 310,-108.752 321.356,-115.756 335.462,-120.324 347.446,-124.075"/>
<polygon fill="midnightblue" stroke="midnightblue" points="346.719,-127.516 357.309,-127.203 348.834,-120.844 346.719,-127.516"/>
</g>
<!-- Node5&#45;&gt;Node3 -->
<g id="edge5" class="edge"><title>Node5&#45;&gt;Node3</title>
<path fill="none" stroke="midnightblue" d="M318.99,-67.1971C307.81,-67.4817 295.888,-67.5673 284.262,-67.4539"/>
<polygon fill="midnightblue" stroke="midnightblue" points="284.198,-63.9526 274.147,-67.303 284.094,-70.9518 284.198,-63.9526"/>
</g>
<!-- Node7&#45;&gt;Node3 -->
<g id="edge14" class="edge"><title>Node7&#45;&gt;Node3</title>
<path fill="none" stroke="midnightblue" d="M310.586,-127.11C310.39,-126.992 310.194,-126.872 310,-126.752 290.199,-114.54 293.671,-101.174 274,-88.7524 263.354,-82.03 250.105,-77.4695 238.909,-73.6262"/>
<polygon fill="midnightblue" stroke="midnightblue" points="239.933,-70.276 229.338,-70.2568 237.609,-76.8788 239.933,-70.276"/>
</g>
<!-- Node7&#45;&gt;Node8 -->
<g id="edge8" class="edge"><title>Node7&#45;&gt;Node8</title>
<path fill="none" stroke="midnightblue" d="M421.357,-127.146C427.307,-124.692 433.043,-121.613 438,-117.752 462.536,-98.645 452.897,-80.5945 474,-57.7524 485.191,-45.6397 500.047,-34.7827 512.681,-26.6622"/>
<polygon fill="midnightblue" stroke="midnightblue" points="514.749,-29.4982 521.404,-21.254 511.06,-23.549 514.749,-29.4982"/>
</g>
<!-- Node9 -->
<g id="node9" class="node"><title>Node9</title>
<g id="a_node9"><a xlink:href="../../dd/d11/classFPixelReader.html#ada445b4ee415b134a18c03429139352b" target="_top" xlink:title="Asynchronously save the pixels in RenderTarget to disk. ">
<polygon fill="white" stroke="black" points="474,-143.752 474,-173.752 605,-173.752 605,-143.752 474,-143.752"/>
<text text-anchor="start" x="482" y="-161.752" font-family="Helvetica,sans-Serif" font-size="10.00">FPixelReader::SavePixels</text>
<text text-anchor="middle" x="539.5" y="-150.752" font-family="Helvetica,sans-Serif" font-size="10.00">ToDisk</text>
</a>
</g>
</g>
<!-- Node7&#45;&gt;Node9 -->
<g id="edge9" class="edge"><title>Node7&#45;&gt;Node9</title>
<path fill="none" stroke="midnightblue" d="M438.213,-145.258C446.61,-146.388 455.282,-147.555 463.849,-148.708"/>
<polygon fill="midnightblue" stroke="midnightblue" points="463.457,-152.186 473.835,-150.051 464.391,-145.249 463.457,-152.186"/>
</g>
<!-- Node10 -->
<g id="node10" class="node"><title>Node10</title>
<g id="a_node10"><a xlink:href="../../d5/db2/classURoadMap.html#a2d60c0bd7cccbc51c7d297f05dbe4a81" target="_top" xlink:title="URoadMap::GetWidth">
<polygon fill="white" stroke="black" points="483,-105.252 483,-124.252 596,-124.252 596,-105.252 483,-105.252"/>
<text text-anchor="middle" x="539.5" y="-112.252" font-family="Helvetica,sans-Serif" font-size="10.00">URoadMap::GetWidth</text>
</a>
</g>
</g>
<!-- Node7&#45;&gt;Node10 -->
<g id="edge10" class="edge"><title>Node7&#45;&gt;Node10</title>
<path fill="none" stroke="midnightblue" d="M438.213,-128.247C449.612,-126.713 461.518,-125.111 472.98,-123.569"/>
<polygon fill="midnightblue" stroke="midnightblue" points="473.471,-127.034 482.915,-122.232 472.537,-120.097 473.471,-127.034"/>
</g>
<!-- Node11 -->
<g id="node11" class="node"><title>Node11</title>
<g id="a_node11"><a xlink:href="../../d5/db2/classURoadMap.html#af00cef0a67db15b73c354fb3b1be5d5c" target="_top" xlink:title="URoadMap::GetHeight">
<polygon fill="white" stroke="black" points="481.5,-67.2524 481.5,-86.2524 597.5,-86.2524 597.5,-67.2524 481.5,-67.2524"/>
<text text-anchor="middle" x="539.5" y="-74.2524" font-family="Helvetica,sans-Serif" font-size="10.00">URoadMap::GetHeight</text>
</a>
</g>
</g>
<!-- Node7&#45;&gt;Node11 -->
<g id="edge11" class="edge"><title>Node7&#45;&gt;Node11</title>
<path fill="none" stroke="midnightblue" d="M412.221,-127.248C420.841,-124.577 429.866,-121.392 438,-117.752 455.116,-110.094 456.86,-103.356 474,-95.7524 479.135,-93.4744 484.619,-91.3814 490.139,-89.4844"/>
<polygon fill="midnightblue" stroke="midnightblue" points="491.607,-92.6884 500.047,-86.2837 489.455,-86.0273 491.607,-92.6884"/>
</g>
<!-- Node12 -->
<g id="node12" class="node"><title>Node12</title>
<g id="a_node12"><a xlink:href="../../d5/db2/classURoadMap.html#adb3980bbbe6bf7ab143794aae711cd1a" target="_top" xlink:title="Return the world location of a given pixel. ">
<polygon fill="white" stroke="black" points="641,-130.252 641,-149.252 791,-149.252 791,-130.252 641,-130.252"/>
<text text-anchor="middle" x="716" y="-137.252" font-family="Helvetica,sans-Serif" font-size="10.00">URoadMap::GetWorldLocation</text>
</a>
</g>
</g>
<!-- Node7&#45;&gt;Node12 -->
<g id="edge13" class="edge"><title>Node7&#45;&gt;Node12</title>
<path fill="none" stroke="midnightblue" d="M390.029,-146.286C408.814,-157.584 442.355,-175.76 474,-182.752 530.851,-195.315 547.785,-193.538 605,-182.752 634.181,-177.252 665.548,-164.213 687.29,-153.926"/>
<polygon fill="midnightblue" stroke="midnightblue" points="689.09,-156.943 696.56,-149.43 686.035,-150.645 689.09,-156.943"/>
</g>
<!-- Node11&#45;&gt;Node12 -->
<g id="edge12" class="edge"><title>Node11&#45;&gt;Node12</title>
<path fill="none" stroke="midnightblue" d="M575.168,-86.3142C584.88,-89.1686 595.403,-92.4278 605,-95.7524 631.798,-105.036 661.639,-117.083 683.472,-126.224"/>
<polygon fill="midnightblue" stroke="midnightblue" points="682.325,-129.539 692.9,-130.199 685.045,-123.089 682.325,-129.539"/>
</g>
</g>
</svg>
        <g id="navigator" transform="translate(0 0)" fill="#404254">
                <rect fill="#f2f5e9" fill-opacity="0.5" stroke="#606060" stroke-width=".5" x="0" y="0" width="60" height="60"/>
                <use id="zoomplus" xlink:href="#zoomPlus" x="17" y="9" onmousedown="handleZoom(evt,'in')"/>
                <use id="zoomminus" xlink:href="#zoomMin" x="42" y="9" onmousedown="handleZoom(evt,'out')"/>
                <use id="reset" xlink:href="#resetDef" x="30" y="36" onmousedown="handleReset()"/>
                <g id="arrowUp" xlink:href="#dirArrow" transform="translate(30 24)" onmousedown="handlePan(0,-1)">
                  <use xlink:href="#rim" fill="#404040">
                        <set attributeName="fill" to="#808080" begin="arrowUp.mouseover" end="arrowUp.mouseout"/>
                  </use>
                  <path fill="none" stroke="white" stroke-width="1.5" d="M0,-3.0v7 M-2.5,-0.5L0,-3.0L2.5,-0.5"/>
                </g>
                <g id="arrowRight" xlink:href="#dirArrow" transform="rotate(90) translate(36 -43)" onmousedown="handlePan(1,0)">
                  <use xlink:href="#rim" fill="#404040">
                        <set attributeName="fill" to="#808080" begin="arrowRight.mouseover" end="arrowRight.mouseout"/>
                  </use>
                  <path fill="none" stroke="white" stroke-width="1.5" d="M0,-3.0v7 M-2.5,-0.5L0,-3.0L2.5,-0.5"/>
                </g>
                <g id="arrowDown" xlink:href="#dirArrow" transform="rotate(180) translate(-30 -48)" onmousedown="handlePan(0,1)">
                  <use xlink:href="#rim" fill="#404040">
                        <set attributeName="fill" to="#808080" begin="arrowDown.mouseover" end="arrowDown.mouseout"/>
                  </use>
                  <path fill="none" stroke="white" stroke-width="1.5" d="M0,-3.0v7 M-2.5,-0.5L0,-3.0L2.5,-0.5"/>
                </g>
                <g id="arrowLeft" xlink:href="#dirArrow" transform="rotate(270) translate(-36 17)" onmousedown="handlePan(-1,0)">
                  <use xlink:href="#rim" fill="#404040">
                        <set attributeName="fill" to="#808080" begin="arrowLeft.mouseover" end="arrowLeft.mouseout"/>
                  </use>
                  <path fill="none" stroke="white" stroke-width="1.5" d="M0,-3.0v7 M-2.5,-0.5L0,-3.0L2.5,-0.5"/>
                </g>
        </g>
        <svg viewBox="0 0 15 15" width="100%" height="30px" preserveAspectRatio="xMaxYMin meet">
         <g id="arrow_out" transform="scale(0.3 0.3)">
          <a xlink:href="classURoadMap_a4d072c196c8b2335e08f63bcbc5c3332_cgraph_org.svg" target="_base">
           <rect id="button" ry="5" rx="5" y="6" x="6" height="38" width="38"
                fill="#f2f5e9" fill-opacity="0.5" stroke="#606060" stroke-width="1.0"/>
           <path id="arrow"
             d="M 11.500037,31.436501 C 11.940474,20.09759 22.043105,11.32322 32.158766,21.979434 L 37.068811,17.246167 C 37.068811,17.246167 37.088388,32 37.088388,32 L 22.160133,31.978069 C 22.160133,31.978069 26.997745,27.140456 26.997745,27.140456 C 18.528582,18.264221 13.291696,25.230495 11.500037,31.436501 z"
             style="fill:#404040;"/>
          </a>
         </g>
        </svg>
</svg>
