<?xml version="1.0" encoding="UTF-8" standalone="no"?>
<!DOCTYPE svg PUBLIC "-//W3C//DTD SVG 1.1//EN"
 "http://www.w3.org/Graphics/SVG/1.1/DTD/svg11.dtd">
<!-- Generated by graphviz version 2.38.0 (20140413.2041)
 -->
<!-- Title: URoadMap::GetHeight Pages: 1 -->
<svg width="619pt" height="165pt"
 viewBox="0.00 0.00 619.00 164.50" xmlns="http://www.w3.org/2000/svg" xmlns:xlink="http://www.w3.org/1999/xlink">
<g id="graph0" class="graph" transform="scale(1 1) rotate(0) translate(4 160.5)">
<title>URoadMap::GetHeight</title>
<polygon fill="white" stroke="none" points="-4,4 -4,-160.5 615,-160.5 615,4 -4,4"/>
<!-- Node1 -->
<g id="node1" class="node"><title>Node1</title>
<polygon fill="#bfbfbf" stroke="black" points="0,-19.5 0,-38.5 122,-38.5 122,-19.5 0,-19.5"/>
<text text-anchor="middle" x="61" y="-26.5" font-family="Helvetica,sans-Serif" font-size="10.00">URoadMap::GetHeight</text>
</g>
<!-- Node2 -->
<g id="node2" class="node"><title>Node2</title>
<g id="a_node2"><a xlink:href="../../d5/db2/classURoadMap.html#ac0ef5ff42c6a02430444637a12d9bd53" target="_top" xlink:title="Save the current map as PNG with the pixel data encoded as color. ">
<polygon fill="white" stroke="black" points="158,-19.5 158,-38.5 289,-38.5 289,-19.5 158,-19.5"/>
<text text-anchor="middle" x="223.5" y="-26.5" font-family="Helvetica,sans-Serif" font-size="10.00">URoadMap::SaveAsPNG</text>
</a>
</g>
</g>
<!-- Node1&#45;&gt;Node2 -->
<g id="edge1" class="edge"><title>Node1&#45;&gt;Node2</title>
<path fill="none" stroke="midnightblue" d="M132.451,-29C140.919,-29 149.534,-29 157.913,-29"/>
<polygon fill="midnightblue" stroke="midnightblue" points="132.221,-25.5001 122.221,-29 132.221,-32.5001 132.221,-25.5001"/>
</g>
<!-- Node3 -->
<g id="node3" class="node"><title>Node3</title>
<g id="a_node3"><a xlink:href="../../d1/ddb/classACityMapGenerator.html#a9ce09c4586724fe3e446cbb12712adf3" target="_top" xlink:title="Generate the road map image and save to disk if requested. ">
<polygon fill="white" stroke="black" points="329.5,-77 329.5,-107 445.5,-107 445.5,-77 329.5,-77"/>
<text text-anchor="start" x="337.5" y="-95" font-family="Helvetica,sans-Serif" font-size="10.00">ACityMapGenerator::</text>
<text text-anchor="middle" x="387.5" y="-84" font-family="Helvetica,sans-Serif" font-size="10.00">GenerateRoadMap</text>
</a>
</g>
</g>
<!-- Node2&#45;&gt;Node3 -->
<g id="edge2" class="edge"><title>Node2&#45;&gt;Node3</title>
<path fill="none" stroke="midnightblue" d="M258.571,-42.2498C284.637,-52.3867 320.602,-66.3729 347.761,-76.935"/>
<polygon fill="midnightblue" stroke="midnightblue" points="259.693,-38.9309 249.104,-38.5683 257.156,-45.4549 259.693,-38.9309"/>
</g>
<!-- Node6 -->
<g id="node6" class="node"><title>Node6</title>
<g id="a_node6"><a xlink:href="../../d5/db2/classURoadMap.html#a88ad9e23f72db28635fd28983ea51943" target="_top" xlink:title="Retrieve the data stored at a given pixel. ">
<polygon fill="white" stroke="black" points="325,-19.5 325,-38.5 450,-38.5 450,-19.5 325,-19.5"/>
<text text-anchor="middle" x="387.5" y="-26.5" font-family="Helvetica,sans-Serif" font-size="10.00">URoadMap::GetDataAt</text>
</a>
</g>
</g>
<!-- Node2&#45;&gt;Node6 -->
<g id="edge5" class="edge"><title>Node2&#45;&gt;Node6</title>
<path fill="none" stroke="midnightblue" d="M299.703,-22.2654C308.156,-22.2204 316.694,-22.274 324.946,-22.426"/>
<polygon fill="midnightblue" stroke="midnightblue" points="299.422,-18.768 289.458,-22.3691 299.493,-25.7676 299.422,-18.768"/>
</g>
<!-- Node4 -->
<g id="node4" class="node"><title>Node4</title>
<g id="a_node4"><a xlink:href="../../d1/ddb/classACityMapGenerator.html#a5627a0935def8c92d8ae226b10238f2c" target="_top" xlink:title="ACityMapGenerator::\lPreSave">
<polygon fill="white" stroke="black" points="490.5,-126 490.5,-156 606.5,-156 606.5,-126 490.5,-126"/>
<text text-anchor="start" x="498.5" y="-144" font-family="Helvetica,sans-Serif" font-size="10.00">ACityMapGenerator::</text>
<text text-anchor="middle" x="548.5" y="-133" font-family="Helvetica,sans-Serif" font-size="10.00">PreSave</text>
</a>
</g>
</g>
<!-- Node3&#45;&gt;Node4 -->
<g id="edge3" class="edge"><title>Node3&#45;&gt;Node4</title>
<path fill="none" stroke="midnightblue" d="M447.275,-110.113C464.178,-115.322 482.426,-120.946 498.659,-125.948"/>
<polygon fill="midnightblue" stroke="midnightblue" points="448.09,-106.702 437.503,-107.101 446.028,-113.391 448.09,-106.702"/>
</g>
<!-- Node5 -->
<g id="node5" class="node"><title>Node5</title>
<g id="a_node5"><a xlink:href="../../d1/ddb/classACityMapGenerator.html#a5ad53319596101e96076a12eab41b9c1" target="_top" xlink:title="Here does nothing, implement in derived classes. ">
<polygon fill="white" stroke="black" points="490.5,-77 490.5,-107 606.5,-107 606.5,-77 490.5,-77"/>
<text text-anchor="start" x="498.5" y="-95" font-family="Helvetica,sans-Serif" font-size="10.00">ACityMapGenerator::</text>
<text text-anchor="middle" x="548.5" y="-84" font-family="Helvetica,sans-Serif" font-size="10.00">UpdateMap</text>
</a>
</g>
</g>
<!-- Node3&#45;&gt;Node5 -->
<g id="edge4" class="edge"><title>Node3&#45;&gt;Node5</title>
<path fill="none" stroke="midnightblue" d="M456.245,-92C467.638,-92 479.361,-92 490.448,-92"/>
<polygon fill="midnightblue" stroke="midnightblue" points="455.903,-88.5001 445.903,-92 455.903,-95.5001 455.903,-88.5001"/>
</g>
<!-- Node6&#45;&gt;Node2 -->
<g id="edge9" class="edge"><title>Node6&#45;&gt;Node2</title>
<path fill="none" stroke="midnightblue" d="M314.764,-35.7106C306.34,-35.7825 297.781,-35.756 289.458,-35.6309"/>
<polygon fill="midnightblue" stroke="midnightblue" points="314.994,-39.2079 324.946,-35.574 314.9,-32.2086 314.994,-39.2079"/>
</g>
<!-- Node7 -->
<g id="node7" class="node"><title>Node7</title>
<g id="a_node7"><a xlink:href="../../d5/db2/classURoadMap.html#a4d072c196c8b2335e08f63bcbc5c3332" target="_top" xlink:title="Clamps value if lies outside map limits. ">
<polygon fill="white" stroke="black" points="486,-38.5 486,-57.5 611,-57.5 611,-38.5 486,-38.5"/>
<text text-anchor="middle" x="548.5" y="-45.5" font-family="Helvetica,sans-Serif" font-size="10.00">URoadMap::GetDataAt</text>
</a>
</g>
</g>
<!-- Node6&#45;&gt;Node7 -->
<g id="edge6" class="edge"><title>Node6&#45;&gt;Node7</title>
<path fill="none" stroke="midnightblue" d="M460.592,-37.6147C468.99,-38.6183 477.499,-39.6351 485.74,-40.6199"/>
<polygon fill="midnightblue" stroke="midnightblue" points="460.774,-34.1116 450.429,-36.4003 459.943,-41.0622 460.774,-34.1116"/>
</g>
<!-- Node8 -->
<g id="node8" class="node"><title>Node8</title>
<g id="a_node8"><a xlink:href="../../d5/db2/classURoadMap.html#a439056091e5bc0d48e8b1315d8341944" target="_top" xlink:title="Intersect actor bounds with map. ">
<polygon fill="white" stroke="black" points="490.5,-0.5 490.5,-19.5 606.5,-19.5 606.5,-0.5 490.5,-0.5"/>
<text text-anchor="middle" x="548.5" y="-7.5" font-family="Helvetica,sans-Serif" font-size="10.00">URoadMap::Intersect</text>
</a>
</g>
</g>
<!-- Node6&#45;&gt;Node8 -->
<g id="edge7" class="edge"><title>Node6&#45;&gt;Node8</title>
<path fill="none" stroke="midnightblue" d="M431.443,-17.7975C449.604,-14.9024 471.018,-12.199 490.475,-10.31"/>
<polygon fill="midnightblue" stroke="midnightblue" points="430.73,-14.3681 421.445,-19.4705 431.885,-21.2721 430.73,-14.3681"/>
</g>
<!-- Node8&#45;&gt;Node6 -->
<g id="edge8" class="edge"><title>Node8&#45;&gt;Node6</title>
<path fill="none" stroke="midnightblue" d="M504.423,-21.2238C487.806,-23.8697 468.481,-26.354 450.429,-28.201"/>
<polygon fill="midnightblue" stroke="midnightblue" points="505.097,-24.6598 514.383,-19.5598 503.943,-17.7555 505.097,-24.6598"/>
</g>
</g>
</svg>
