<?xml version="1.0" encoding="UTF-8" standalone="no"?>
<!DOCTYPE svg PUBLIC "-//W3C//DTD SVG 1.1//EN"
 "http://www.w3.org/Graphics/SVG/1.1/DTD/svg11.dtd">
<!-- Generated by graphviz version 2.38.0 (20140413.2041)
 -->
<!-- Title: carla::client::Vehicle Pages: 1 -->
<svg width="605pt" height="137pt"
 viewBox="0.00 0.00 605.00 137.00" xmlns="http://www.w3.org/2000/svg" xmlns:xlink="http://www.w3.org/1999/xlink">
<g id="graph0" class="graph" transform="scale(1 1) rotate(0) translate(4 133)">
<title>carla::client::Vehicle</title>
<polygon fill="white" stroke="none" points="-4,4 -4,-133 601,-133 601,4 -4,4"/>
<!-- Node1 -->
<g id="node1" class="node"><title>Node1</title>
<polygon fill="#bfbfbf" stroke="black" points="486,-55 486,-74 597,-74 597,-55 486,-55"/>
<text text-anchor="middle" x="541.5" y="-62" font-family="Helvetica,sans-Serif" font-size="10.00">carla::client::Vehicle</text>
</g>
<!-- Node2 -->
<g id="node2" class="node"><title>Node2</title>
<g id="a_node2"><a xlink:href="../../d6/da5/classcarla_1_1client_1_1Actor.html" target="_top" xlink:title="Represents an actor in the simulation. ">
<polygon fill="white" stroke="black" points="347,-55 347,-74 450,-74 450,-55 347,-55"/>
<text text-anchor="middle" x="398.5" y="-62" font-family="Helvetica,sans-Serif" font-size="10.00">carla::client::Actor</text>
</a>
</g>
</g>
<!-- Node2&#45;&gt;Node1 -->
<g id="edge1" class="edge"><title>Node2&#45;&gt;Node1</title>
<path fill="none" stroke="midnightblue" d="M460.173,-64.5C468.613,-64.5 477.244,-64.5 485.571,-64.5"/>
<polygon fill="midnightblue" stroke="midnightblue" points="460.006,-61.0001 450.006,-64.5 460.006,-68.0001 460.006,-61.0001"/>
</g>
<!-- Node3 -->
<g id="node3" class="node"><title>Node3</title>
<g id="a_node3"><a xlink:href="../../da/d05/classEnableSharedFromThis.html" target="_top" xlink:title="EnableSharedFromThis\l\&lt; Actor \&gt;">
<polygon fill="white" stroke="black" points="185,-98.5 185,-128.5 311,-128.5 311,-98.5 185,-98.5"/>
<text text-anchor="start" x="193" y="-116.5" font-family="Helvetica,sans-Serif" font-size="10.00">EnableSharedFromThis</text>
<text text-anchor="middle" x="248" y="-105.5" font-family="Helvetica,sans-Serif" font-size="10.00">&lt; Actor &gt;</text>
</a>
</g>
</g>
<!-- Node3&#45;&gt;Node2 -->
<g id="edge2" class="edge"><title>Node3&#45;&gt;Node2</title>
<path fill="none" stroke="midnightblue" d="M304.268,-95.2636C326.075,-88.0678 350.225,-80.0992 368.481,-74.0754"/>
<polygon fill="midnightblue" stroke="midnightblue" points="303.166,-91.9413 294.767,-98.3986 305.36,-98.5887 303.166,-91.9413"/>
</g>
<!-- Node4 -->
<g id="node4" class="node"><title>Node4</title>
<g id="a_node4"><a xlink:href="../../df/d3e/classcarla_1_1profiler_1_1LifetimeProfiled.html" target="_top" xlink:title="carla::profiler::Lifetime\lProfiled">
<polygon fill="white" stroke="black" points="186.5,-49.5 186.5,-79.5 309.5,-79.5 309.5,-49.5 186.5,-49.5"/>
<text text-anchor="start" x="194.5" y="-67.5" font-family="Helvetica,sans-Serif" font-size="10.00">carla::profiler::Lifetime</text>
<text text-anchor="middle" x="248" y="-56.5" font-family="Helvetica,sans-Serif" font-size="10.00">Profiled</text>
</a>
</g>
</g>
<!-- Node4&#45;&gt;Node2 -->
<g id="edge3" class="edge"><title>Node4&#45;&gt;Node2</title>
<path fill="none" stroke="#8b1a1a" d="M320.033,-64.5C329.121,-64.5 338.274,-64.5 346.945,-64.5"/>
<polygon fill="#8b1a1a" stroke="#8b1a1a" points="319.829,-61.0001 309.829,-64.5 319.829,-68.0001 319.829,-61.0001"/>
</g>
<!-- Node5 -->
<g id="node5" class="node"><title>Node5</title>
<g id="a_node5"><a xlink:href="../../d2/d06/classcarla_1_1client_1_1detail_1_1ActorState.html" target="_top" xlink:title="Internal state of an Actor. ">
<polygon fill="white" stroke="black" points="196,-0.5 196,-30.5 300,-30.5 300,-0.5 196,-0.5"/>
<text text-anchor="start" x="204" y="-18.5" font-family="Helvetica,sans-Serif" font-size="10.00">carla::client::detail</text>
<text text-anchor="middle" x="248" y="-7.5" font-family="Helvetica,sans-Serif" font-size="10.00">::ActorState</text>
</a>
</g>
</g>
<!-- Node5&#45;&gt;Node2 -->
<g id="edge4" class="edge"><title>Node5&#45;&gt;Node2</title>
<path fill="none" stroke="midnightblue" d="M304.268,-33.7364C326.075,-40.9322 350.225,-48.9008 368.481,-54.9246"/>
<polygon fill="midnightblue" stroke="midnightblue" points="305.36,-30.4113 294.767,-30.6014 303.166,-37.0587 305.36,-30.4113"/>
</g>
<!-- Node6 -->
<g id="node6" class="node"><title>Node6</title>
<g id="a_node6"><a xlink:href="../../d7/d55/classcarla_1_1MovableNonCopyable.html" target="_top" xlink:title="Inherit (privately) to suppress copy construction and assignment. ">
<polygon fill="white" stroke="black" points="0,-6 0,-25 149,-25 149,-6 0,-6"/>
<text text-anchor="middle" x="74.5" y="-13" font-family="Helvetica,sans-Serif" font-size="10.00">carla::MovableNonCopyable</text>
</a>
</g>
</g>
<!-- Node6&#45;&gt;Node5 -->
<g id="edge5" class="edge"><title>Node6&#45;&gt;Node5</title>
<path fill="none" stroke="#8b1a1a" d="M159.59,-15.5C171.967,-15.5 184.39,-15.5 195.827,-15.5"/>
<polygon fill="#8b1a1a" stroke="#8b1a1a" points="159.227,-12.0001 149.227,-15.5 159.227,-19.0001 159.227,-12.0001"/>
</g>
</g>
</svg>
